solid OpenSCAD_Model
  facet normal -1 0 0
    outer loop
      vertex -90.4 -90.4 -0.0999994
      vertex -90.4 90.4 0.0999994
      vertex -90.4 90.4 -0.0999994
    endloop
  endfacet
  facet normal -1 -0 0
    outer loop
      vertex -90.4 90.4 0.0999994
      vertex -90.4 -90.4 -0.0999994
      vertex -90.4 -90.4 0.0999994
    endloop
  endfacet
  facet normal 0 0 1
    outer loop
      vertex 90.4 90.4 0.0999994
      vertex 90 90 0.0999994
      vertex 90.4 -90.4 0.0999994
    endloop
  endfacet
  facet normal 0 0 1
    outer loop
      vertex 90.4 90.4 0.0999994
      vertex -90 90 0.0999994
      vertex 90 90 0.0999994
    endloop
  endfacet
  facet normal 0 0 1
    outer loop
      vertex -90 90 0.0999994
      vertex -90.4 90.4 0.0999994
      vertex -90 -90 0.0999994
    endloop
  endfacet
  facet normal -0 0 1
    outer loop
      vertex -90.4 90.4 0.0999994
      vertex -90 90 0.0999994
      vertex 90.4 90.4 0.0999994
    endloop
  endfacet
  facet normal -0 0 1
    outer loop
      vertex 90 -90 0.0999994
      vertex 90.4 -90.4 0.0999994
      vertex 90 90 0.0999994
    endloop
  endfacet
  facet normal -0 0 1
    outer loop
      vertex -90 -90 0.0999994
      vertex 90.4 -90.4 0.0999994
      vertex 90 -90 0.0999994
    endloop
  endfacet
  facet normal 0 0 1
    outer loop
      vertex -90 -90 0.0999994
      vertex -90.4 -90.4 0.0999994
      vertex 90.4 -90.4 0.0999994
    endloop
  endfacet
  facet normal 0 0 1
    outer loop
      vertex -90.4 -90.4 0.0999994
      vertex -90 -90 0.0999994
      vertex -90.4 90.4 0.0999994
    endloop
  endfacet
  facet normal 1 -0 0
    outer loop
      vertex 90.4 -90.4 0.0999994
      vertex 90.4 90.4 -0.0999994
      vertex 90.4 90.4 0.0999994
    endloop
  endfacet
  facet normal 1 0 0
    outer loop
      vertex 90.4 90.4 -0.0999994
      vertex 90.4 -90.4 0.0999994
      vertex 90.4 -90.4 -0.0999994
    endloop
  endfacet
  facet normal 0 1 -0
    outer loop
      vertex 90.4 90.4 -0.0999994
      vertex -90.4 90.4 0.0999994
      vertex 90.4 90.4 0.0999994
    endloop
  endfacet
  facet normal 0 1 0
    outer loop
      vertex -90.4 90.4 0.0999994
      vertex 90.4 90.4 -0.0999994
      vertex -90.4 90.4 -0.0999994
    endloop
  endfacet
  facet normal 0 0 -1
    outer loop
      vertex 90.4 -90.4 -0.0999994
      vertex 90 -90 -0.0999994
      vertex 90.4 90.4 -0.0999994
    endloop
  endfacet
  facet normal 0 0 -1
    outer loop
      vertex 90.4 -90.4 -0.0999994
      vertex -90 -90 -0.0999994
      vertex 90 -90 -0.0999994
    endloop
  endfacet
  facet normal -0 0 -1
    outer loop
      vertex -90 -90 -0.0999994
      vertex -90.4 -90.4 -0.0999994
      vertex -90 90 -0.0999994
    endloop
  endfacet
  facet normal 0 0 -1
    outer loop
      vertex -90.4 -90.4 -0.0999994
      vertex -90 -90 -0.0999994
      vertex 90.4 -90.4 -0.0999994
    endloop
  endfacet
  facet normal 0 0 -1
    outer loop
      vertex 90 90 -0.0999994
      vertex 90.4 90.4 -0.0999994
      vertex 90 -90 -0.0999994
    endloop
  endfacet
  facet normal 0 0 -1
    outer loop
      vertex -90 90 -0.0999994
      vertex 90.4 90.4 -0.0999994
      vertex 90 90 -0.0999994
    endloop
  endfacet
  facet normal 0 0 -1
    outer loop
      vertex -90 90 -0.0999994
      vertex -90.4 90.4 -0.0999994
      vertex 90.4 90.4 -0.0999994
    endloop
  endfacet
  facet normal 0 0 -1
    outer loop
      vertex -90.4 90.4 -0.0999994
      vertex -90 90 -0.0999994
      vertex -90.4 -90.4 -0.0999994
    endloop
  endfacet
  facet normal 0 -1 0
    outer loop
      vertex -90.4 -90.4 -0.0999994
      vertex 90.4 -90.4 0.0999994
      vertex -90.4 -90.4 0.0999994
    endloop
  endfacet
  facet normal 0 -1 -0
    outer loop
      vertex 90.4 -90.4 0.0999994
      vertex -90.4 -90.4 -0.0999994
      vertex 90.4 -90.4 -0.0999994
    endloop
  endfacet
  facet normal 1 -0 0
    outer loop
      vertex -90 -90 0.0999994
      vertex -90 90 -0.0999994
      vertex -90 90 0.0999994
    endloop
  endfacet
  facet normal 1 0 0
    outer loop
      vertex -90 90 -0.0999994
      vertex -90 -90 0.0999994
      vertex -90 -90 -0.0999994
    endloop
  endfacet
  facet normal -1 0 0
    outer loop
      vertex 90 -90 -0.0999994
      vertex 90 90 0.0999994
      vertex 90 90 -0.0999994
    endloop
  endfacet
  facet normal -1 -0 0
    outer loop
      vertex 90 90 0.0999994
      vertex 90 -90 -0.0999994
      vertex 90 -90 0.0999994
    endloop
  endfacet
  facet normal 0 -1 0
    outer loop
      vertex -90 90 -0.0999994
      vertex 90 90 0.0999994
      vertex -90 90 0.0999994
    endloop
  endfacet
  facet normal 0 -1 -0
    outer loop
      vertex 90 90 0.0999994
      vertex -90 90 -0.0999994
      vertex 90 90 -0.0999994
    endloop
  endfacet
  facet normal 0 1 -0
    outer loop
      vertex 90 -90 -0.0999994
      vertex -90 -90 0.0999994
      vertex 90 -90 0.0999994
    endloop
  endfacet
  facet normal 0 1 0
    outer loop
      vertex -90 -90 0.0999994
      vertex 90 -90 -0.0999994
      vertex -90 -90 -0.0999994
    endloop
  endfacet
endsolid OpenSCAD_Model
