solid OpenSCAD_Model
  facet normal -1 0 0
    outer loop
      vertex -90.5 -90.5 -0.2
      vertex -90.5 90.5 0.2
      vertex -90.5 90.5 -0.2
    endloop
  endfacet
  facet normal -1 -0 0
    outer loop
      vertex -90.5 90.5 0.2
      vertex -90.5 -90.5 -0.2
      vertex -90.5 -90.5 0.2
    endloop
  endfacet
  facet normal 0 0 1
    outer loop
      vertex 90.5 90.5 0.2
      vertex 90 90 0.2
      vertex 90.5 -90.5 0.2
    endloop
  endfacet
  facet normal 0 0 1
    outer loop
      vertex 90.5 90.5 0.2
      vertex -90 90 0.2
      vertex 90 90 0.2
    endloop
  endfacet
  facet normal 0 0 1
    outer loop
      vertex -90 90 0.2
      vertex -90.5 90.5 0.2
      vertex -90 -90 0.2
    endloop
  endfacet
  facet normal -0 0 1
    outer loop
      vertex -90.5 90.5 0.2
      vertex -90 90 0.2
      vertex 90.5 90.5 0.2
    endloop
  endfacet
  facet normal -0 0 1
    outer loop
      vertex 90 -90 0.2
      vertex 90.5 -90.5 0.2
      vertex 90 90 0.2
    endloop
  endfacet
  facet normal -0 0 1
    outer loop
      vertex -90 -90 0.2
      vertex 90.5 -90.5 0.2
      vertex 90 -90 0.2
    endloop
  endfacet
  facet normal 0 0 1
    outer loop
      vertex -90 -90 0.2
      vertex -90.5 -90.5 0.2
      vertex 90.5 -90.5 0.2
    endloop
  endfacet
  facet normal 0 0 1
    outer loop
      vertex -90.5 -90.5 0.2
      vertex -90 -90 0.2
      vertex -90.5 90.5 0.2
    endloop
  endfacet
  facet normal 1 -0 0
    outer loop
      vertex 90.5 -90.5 0.2
      vertex 90.5 90.5 -0.2
      vertex 90.5 90.5 0.2
    endloop
  endfacet
  facet normal 1 0 0
    outer loop
      vertex 90.5 90.5 -0.2
      vertex 90.5 -90.5 0.2
      vertex 90.5 -90.5 -0.2
    endloop
  endfacet
  facet normal 0 1 -0
    outer loop
      vertex 90.5 90.5 -0.2
      vertex -90.5 90.5 0.2
      vertex 90.5 90.5 0.2
    endloop
  endfacet
  facet normal 0 1 0
    outer loop
      vertex -90.5 90.5 0.2
      vertex 90.5 90.5 -0.2
      vertex -90.5 90.5 -0.2
    endloop
  endfacet
  facet normal 0 0 -1
    outer loop
      vertex 90.5 -90.5 -0.2
      vertex 90 -90 -0.2
      vertex 90.5 90.5 -0.2
    endloop
  endfacet
  facet normal 0 0 -1
    outer loop
      vertex 90.5 -90.5 -0.2
      vertex -90 -90 -0.2
      vertex 90 -90 -0.2
    endloop
  endfacet
  facet normal -0 0 -1
    outer loop
      vertex -90 -90 -0.2
      vertex -90.5 -90.5 -0.2
      vertex -90 90 -0.2
    endloop
  endfacet
  facet normal 0 0 -1
    outer loop
      vertex -90.5 -90.5 -0.2
      vertex -90 -90 -0.2
      vertex 90.5 -90.5 -0.2
    endloop
  endfacet
  facet normal 0 0 -1
    outer loop
      vertex 90 90 -0.2
      vertex 90.5 90.5 -0.2
      vertex 90 -90 -0.2
    endloop
  endfacet
  facet normal 0 0 -1
    outer loop
      vertex -90 90 -0.2
      vertex 90.5 90.5 -0.2
      vertex 90 90 -0.2
    endloop
  endfacet
  facet normal 0 0 -1
    outer loop
      vertex -90 90 -0.2
      vertex -90.5 90.5 -0.2
      vertex 90.5 90.5 -0.2
    endloop
  endfacet
  facet normal 0 0 -1
    outer loop
      vertex -90.5 90.5 -0.2
      vertex -90 90 -0.2
      vertex -90.5 -90.5 -0.2
    endloop
  endfacet
  facet normal 0 -1 0
    outer loop
      vertex -90.5 -90.5 -0.2
      vertex 90.5 -90.5 0.2
      vertex -90.5 -90.5 0.2
    endloop
  endfacet
  facet normal 0 -1 -0
    outer loop
      vertex 90.5 -90.5 0.2
      vertex -90.5 -90.5 -0.2
      vertex 90.5 -90.5 -0.2
    endloop
  endfacet
  facet normal 1 -0 0
    outer loop
      vertex -90 -90 0.2
      vertex -90 90 -0.2
      vertex -90 90 0.2
    endloop
  endfacet
  facet normal 1 0 0
    outer loop
      vertex -90 90 -0.2
      vertex -90 -90 0.2
      vertex -90 -90 -0.2
    endloop
  endfacet
  facet normal -1 0 0
    outer loop
      vertex 90 -90 -0.2
      vertex 90 90 0.2
      vertex 90 90 -0.2
    endloop
  endfacet
  facet normal -1 -0 0
    outer loop
      vertex 90 90 0.2
      vertex 90 -90 -0.2
      vertex 90 -90 0.2
    endloop
  endfacet
  facet normal 0 -1 0
    outer loop
      vertex -90 90 -0.2
      vertex 90 90 0.2
      vertex -90 90 0.2
    endloop
  endfacet
  facet normal 0 -1 -0
    outer loop
      vertex 90 90 0.2
      vertex -90 90 -0.2
      vertex 90 90 -0.2
    endloop
  endfacet
  facet normal 0 1 -0
    outer loop
      vertex 90 -90 -0.2
      vertex -90 -90 0.2
      vertex 90 -90 0.2
    endloop
  endfacet
  facet normal 0 1 0
    outer loop
      vertex -90 -90 0.2
      vertex 90 -90 -0.2
      vertex -90 -90 -0.2
    endloop
  endfacet
endsolid OpenSCAD_Model
