solid OpenSCAD_Model
  facet normal -1 0 0
    outer loop
      vertex -31 -11 0
      vertex -31 11 5
      vertex -31 11 0
    endloop
  endfacet
  facet normal -1 -0 0
    outer loop
      vertex -31 11 5
      vertex -31 -11 0
      vertex -31 -11 5
    endloop
  endfacet
  facet normal 0 0 1
    outer loop
      vertex 31 11 5
      vertex 30.9929 10.9972 5
      vertex 31 -11 5
    endloop
  endfacet
  facet normal 0 0 1
    outer loop
      vertex 31 11 5
      vertex -30.9929 10.9972 5
      vertex 30.9929 10.9972 5
    endloop
  endfacet
  facet normal 0 0 1
    outer loop
      vertex -30.9929 10.9972 5
      vertex -31 11 5
      vertex -30.9929 -10.9972 5
    endloop
  endfacet
  facet normal -0 0 1
    outer loop
      vertex -31 11 5
      vertex -30.9929 10.9972 5
      vertex 31 11 5
    endloop
  endfacet
  facet normal -0 0 1
    outer loop
      vertex 30.9929 -10.9972 5
      vertex 31 -11 5
      vertex 30.9929 10.9972 5
    endloop
  endfacet
  facet normal -0 0 1
    outer loop
      vertex -30.9929 -10.9972 5
      vertex 31 -11 5
      vertex 30.9929 -10.9972 5
    endloop
  endfacet
  facet normal 0 0 1
    outer loop
      vertex -30.9929 -10.9972 5
      vertex -31 -11 5
      vertex 31 -11 5
    endloop
  endfacet
  facet normal 0 0 1
    outer loop
      vertex -31 -11 5
      vertex -30.9929 -10.9972 5
      vertex -31 11 5
    endloop
  endfacet
  facet normal 1 -0 0
    outer loop
      vertex 31 -11 5
      vertex 31 11 0
      vertex 31 11 5
    endloop
  endfacet
  facet normal 1 0 0
    outer loop
      vertex 31 11 0
      vertex 31 -11 5
      vertex 31 -11 0
    endloop
  endfacet
  facet normal 0 0 -1
    outer loop
      vertex -31 -11 0
      vertex 31 11 0
      vertex 31 -11 0
    endloop
  endfacet
  facet normal -0 0 -1
    outer loop
      vertex 31 11 0
      vertex -31 -11 0
      vertex -31 11 0
    endloop
  endfacet
  facet normal 0 -1 0
    outer loop
      vertex -31 -11 0
      vertex 31 -11 5
      vertex -31 -11 5
    endloop
  endfacet
  facet normal 0 -1 -0
    outer loop
      vertex 31 -11 5
      vertex -31 -11 0
      vertex 31 -11 0
    endloop
  endfacet
  facet normal 0 1 -0
    outer loop
      vertex 31 11 0
      vertex -31 11 5
      vertex 31 11 5
    endloop
  endfacet
  facet normal 0 1 0
    outer loop
      vertex -31 11 5
      vertex 31 11 0
      vertex -31 11 0
    endloop
  endfacet
  facet normal -0.815683 0 0.578498
    outer loop
      vertex -30.9929 10.9972 5
      vertex -21 -7 19.09
      vertex -21 7 19.09
    endloop
  endfacet
  facet normal -0.815683 0 0.578498
    outer loop
      vertex -21 -7 19.09
      vertex -30.9929 10.9972 5
      vertex -30.9929 -10.9972 5
    endloop
  endfacet
  facet normal 0 -0.962037 0.272921
    outer loop
      vertex -30.9929 -10.9972 5
      vertex 21 -7 19.09
      vertex -21 -7 19.09
    endloop
  endfacet
  facet normal 0 -0.962037 0.272921
    outer loop
      vertex 21 -7 19.09
      vertex -30.9929 -10.9972 5
      vertex 30.9929 -10.9972 5
    endloop
  endfacet
  facet normal 0 0.962037 0.272921
    outer loop
      vertex 30.9929 10.9972 5
      vertex -21 7 19.09
      vertex 21 7 19.09
    endloop
  endfacet
  facet normal 0 0.962037 0.272921
    outer loop
      vertex -21 7 19.09
      vertex 30.9929 10.9972 5
      vertex -30.9929 10.9972 5
    endloop
  endfacet
  facet normal 0 0 1
    outer loop
      vertex 21 7 19.09
      vertex 18.9546 3.6 19.09
      vertex 21 -7 19.09
    endloop
  endfacet
  facet normal 0 0 1
    outer loop
      vertex 21 7 19.09
      vertex -18.9546 3.6 19.09
      vertex 18.9546 3.6 19.09
    endloop
  endfacet
  facet normal 0 0 1
    outer loop
      vertex -18.9546 3.6 19.09
      vertex -21 7 19.09
      vertex -18.9546 -3.6 19.09
    endloop
  endfacet
  facet normal -0 0 1
    outer loop
      vertex -21 7 19.09
      vertex -18.9546 3.6 19.09
      vertex 21 7 19.09
    endloop
  endfacet
  facet normal -0 0 1
    outer loop
      vertex 18.9546 -3.6 19.09
      vertex 21 -7 19.09
      vertex 18.9546 3.6 19.09
    endloop
  endfacet
  facet normal -0 0 1
    outer loop
      vertex -18.9546 -3.6 19.09
      vertex 21 -7 19.09
      vertex 18.9546 -3.6 19.09
    endloop
  endfacet
  facet normal 0 0 1
    outer loop
      vertex -18.9546 -3.6 19.09
      vertex -21 -7 19.09
      vertex 21 -7 19.09
    endloop
  endfacet
  facet normal 0 0 1
    outer loop
      vertex -21 -7 19.09
      vertex -18.9546 -3.6 19.09
      vertex -21 7 19.09
    endloop
  endfacet
  facet normal 0.815683 -0 0.578498
    outer loop
      vertex 21 -7 19.09
      vertex 30.9929 10.9972 5
      vertex 21 7 19.09
    endloop
  endfacet
  facet normal 0.815683 0 0.578498
    outer loop
      vertex 30.9929 10.9972 5
      vertex 21 -7 19.09
      vertex 30.9929 -10.9972 5
    endloop
  endfacet
  facet normal 0 1 0
    outer loop
      vertex 16.0306 -3.6 17.5333
      vertex 18.9546 -3.6 19.09
      vertex 18.138 -3.6 18.6071
    endloop
  endfacet
  facet normal 0 1 0
    outer loop
      vertex 18.9546 -3.6 19.09
      vertex 16.0306 -3.6 17.5333
      vertex -18.9546 -3.6 19.09
    endloop
  endfacet
  facet normal 0 1 -0
    outer loop
      vertex -16.0306 -3.6 17.5333
      vertex -18.9546 -3.6 19.09
      vertex 16.0306 -3.6 17.5333
    endloop
  endfacet
  facet normal 0 1 0
    outer loop
      vertex -18.9546 -3.6 19.09
      vertex -16.0306 -3.6 17.5333
      vertex -18.138 -3.6 18.6071
    endloop
  endfacet
  facet normal 0 1 -0
    outer loop
      vertex 13.8599 -3.6 16.5939
      vertex -16.0306 -3.6 17.5333
      vertex 16.0306 -3.6 17.5333
    endloop
  endfacet
  facet normal 0 1 0
    outer loop
      vertex 13.8599 -3.6 16.5939
      vertex -13.8599 -3.6 16.5939
      vertex -16.0306 -3.6 17.5333
    endloop
  endfacet
  facet normal 0 1 -0
    outer loop
      vertex 11.6345 -3.6 15.7927
      vertex -13.8599 -3.6 16.5939
      vertex 13.8599 -3.6 16.5939
    endloop
  endfacet
  facet normal 0 1 0
    outer loop
      vertex 11.6345 -3.6 15.7927
      vertex -11.6345 -3.6 15.7927
      vertex -13.8599 -3.6 16.5939
    endloop
  endfacet
  facet normal 0 1 -0
    outer loop
      vertex 9.36317 -3.6 15.1328
      vertex -11.6345 -3.6 15.7927
      vertex 11.6345 -3.6 15.7927
    endloop
  endfacet
  facet normal 0 1 0
    outer loop
      vertex 9.36317 -3.6 15.1328
      vertex -9.36317 -3.6 15.1328
      vertex -11.6345 -3.6 15.7927
    endloop
  endfacet
  facet normal 0 1 -0
    outer loop
      vertex 7.05491 -3.6 14.6169
      vertex -9.36317 -3.6 15.1328
      vertex 9.36317 -3.6 15.1328
    endloop
  endfacet
  facet normal 0 1 0
    outer loop
      vertex 7.05491 -3.6 14.6169
      vertex -7.05491 -3.6 14.6169
      vertex -9.36317 -3.6 15.1328
    endloop
  endfacet
  facet normal 0 1 -0
    outer loop
      vertex 4.7188 -3.6 14.2469
      vertex -7.05491 -3.6 14.6169
      vertex 7.05491 -3.6 14.6169
    endloop
  endfacet
  facet normal 0 1 0
    outer loop
      vertex 4.7188 -3.6 14.2469
      vertex -4.7188 -3.6 14.2469
      vertex -7.05491 -3.6 14.6169
    endloop
  endfacet
  facet normal 0 1 -0
    outer loop
      vertex 2.36406 -3.6 14.0243
      vertex -4.7188 -3.6 14.2469
      vertex 4.7188 -3.6 14.2469
    endloop
  endfacet
  facet normal 0 1 0
    outer loop
      vertex 2.36406 -3.6 14.0243
      vertex -2.36406 -3.6 14.0243
      vertex -4.7188 -3.6 14.2469
    endloop
  endfacet
  facet normal -0 1 0
    outer loop
      vertex -2.36406 -3.6 14.0243
      vertex 2.36406 -3.6 14.0243
      vertex 0 -3.6 13.95
    endloop
  endfacet
  facet normal -0.509013 0 0.860759
    outer loop
      vertex 18.138 3.6 18.6071
      vertex 18.9546 -3.6 19.09
      vertex 18.9546 3.6 19.09
    endloop
  endfacet
  facet normal -0.509013 0 0.860759
    outer loop
      vertex 18.9546 -3.6 19.09
      vertex 18.138 3.6 18.6071
      vertex 18.138 -3.6 18.6071
    endloop
  endfacet
  facet normal -0.0314135 0 0.999506
    outer loop
      vertex 0 3.6 13.95
      vertex 2.36406 -3.6 14.0243
      vertex 2.36406 3.6 14.0243
    endloop
  endfacet
  facet normal -0.0314135 0 0.999506
    outer loop
      vertex 2.36406 -3.6 14.0243
      vertex 0 3.6 13.95
      vertex 0 -3.6 13.95
    endloop
  endfacet
  facet normal -0.397167 0 0.917746
    outer loop
      vertex 13.8599 3.6 16.5939
      vertex 16.0306 -3.6 17.5333
      vertex 16.0306 3.6 17.5333
    endloop
  endfacet
  facet normal -0.397167 0 0.917746
    outer loop
      vertex 16.0306 -3.6 17.5333
      vertex 13.8599 3.6 16.5939
      vertex 13.8599 -3.6 16.5939
    endloop
  endfacet
  facet normal -0.0941131 0 0.995562
    outer loop
      vertex 2.36406 3.6 14.0243
      vertex 4.7188 -3.6 14.2469
      vertex 4.7188 3.6 14.2469
    endloop
  endfacet
  facet normal -0.0941131 0 0.995562
    outer loop
      vertex 4.7188 -3.6 14.2469
      vertex 2.36406 3.6 14.0243
      vertex 2.36406 -3.6 14.0243
    endloop
  endfacet
  facet normal -0.33874 0 0.94088
    outer loop
      vertex 11.6345 3.6 15.7927
      vertex 13.8599 -3.6 16.5939
      vertex 13.8599 3.6 16.5939
    endloop
  endfacet
  facet normal -0.33874 0 0.94088
    outer loop
      vertex 13.8599 -3.6 16.5939
      vertex 11.6345 3.6 15.7927
      vertex 11.6345 -3.6 15.7927
    endloop
  endfacet
  facet normal -0.21812 0 0.975922
    outer loop
      vertex 7.05491 3.6 14.6169
      vertex 9.36317 -3.6 15.1328
      vertex 9.36317 3.6 15.1328
    endloop
  endfacet
  facet normal -0.21812 0 0.975922
    outer loop
      vertex 9.36317 -3.6 15.1328
      vertex 7.05491 3.6 14.6169
      vertex 7.05491 -3.6 14.6169
    endloop
  endfacet
  facet normal -0.156433 0 0.987689
    outer loop
      vertex 4.7188 3.6 14.2469
      vertex 7.05491 -3.6 14.6169
      vertex 7.05491 3.6 14.6169
    endloop
  endfacet
  facet normal -0.156433 0 0.987689
    outer loop
      vertex 7.05491 -3.6 14.6169
      vertex 4.7188 3.6 14.2469
      vertex 4.7188 -3.6 14.2469
    endloop
  endfacet
  facet normal -0.453999 0 0.891002
    outer loop
      vertex 16.0306 3.6 17.5333
      vertex 18.138 -3.6 18.6071
      vertex 18.138 3.6 18.6071
    endloop
  endfacet
  facet normal -0.453999 0 0.891002
    outer loop
      vertex 18.138 -3.6 18.6071
      vertex 16.0306 3.6 17.5333
      vertex 16.0306 -3.6 17.5333
    endloop
  endfacet
  facet normal 0.0314135 0 0.999506
    outer loop
      vertex -2.36406 3.6 14.0243
      vertex 0 -3.6 13.95
      vertex 0 3.6 13.95
    endloop
  endfacet
  facet normal 0.0314135 0 0.999506
    outer loop
      vertex 0 -3.6 13.95
      vertex -2.36406 3.6 14.0243
      vertex -2.36406 -3.6 14.0243
    endloop
  endfacet
  facet normal 0.33874 0 0.94088
    outer loop
      vertex -13.8599 3.6 16.5939
      vertex -11.6345 -3.6 15.7927
      vertex -11.6345 3.6 15.7927
    endloop
  endfacet
  facet normal 0.33874 0 0.94088
    outer loop
      vertex -11.6345 -3.6 15.7927
      vertex -13.8599 3.6 16.5939
      vertex -13.8599 -3.6 16.5939
    endloop
  endfacet
  facet normal -0.278998 0 0.960292
    outer loop
      vertex 9.36317 3.6 15.1328
      vertex 11.6345 -3.6 15.7927
      vertex 11.6345 3.6 15.7927
    endloop
  endfacet
  facet normal -0.278998 0 0.960292
    outer loop
      vertex 11.6345 -3.6 15.7927
      vertex 9.36317 3.6 15.1328
      vertex 9.36317 -3.6 15.1328
    endloop
  endfacet
  facet normal 0.156433 0 0.987689
    outer loop
      vertex -7.05491 3.6 14.6169
      vertex -4.7188 -3.6 14.2469
      vertex -4.7188 3.6 14.2469
    endloop
  endfacet
  facet normal 0.156433 0 0.987689
    outer loop
      vertex -4.7188 -3.6 14.2469
      vertex -7.05491 3.6 14.6169
      vertex -7.05491 -3.6 14.6169
    endloop
  endfacet
  facet normal 0.509013 0 0.860759
    outer loop
      vertex -18.9546 3.6 19.09
      vertex -18.138 -3.6 18.6071
      vertex -18.138 3.6 18.6071
    endloop
  endfacet
  facet normal 0.509013 0 0.860759
    outer loop
      vertex -18.138 -3.6 18.6071
      vertex -18.9546 3.6 19.09
      vertex -18.9546 -3.6 19.09
    endloop
  endfacet
  facet normal 0 -1 0
    outer loop
      vertex -16.0306 3.6 17.5333
      vertex -18.9546 3.6 19.09
      vertex -18.138 3.6 18.6071
    endloop
  endfacet
  facet normal 0 -1 0
    outer loop
      vertex -18.9546 3.6 19.09
      vertex -16.0306 3.6 17.5333
      vertex 18.9546 3.6 19.09
    endloop
  endfacet
  facet normal 0 -1 0
    outer loop
      vertex 16.0306 3.6 17.5333
      vertex 18.9546 3.6 19.09
      vertex -16.0306 3.6 17.5333
    endloop
  endfacet
  facet normal 0 -1 0
    outer loop
      vertex 18.9546 3.6 19.09
      vertex 16.0306 3.6 17.5333
      vertex 18.138 3.6 18.6071
    endloop
  endfacet
  facet normal 0 -1 0
    outer loop
      vertex -13.8599 3.6 16.5939
      vertex 16.0306 3.6 17.5333
      vertex -16.0306 3.6 17.5333
    endloop
  endfacet
  facet normal 0 -1 0
    outer loop
      vertex -13.8599 3.6 16.5939
      vertex 13.8599 3.6 16.5939
      vertex 16.0306 3.6 17.5333
    endloop
  endfacet
  facet normal 0 -1 0
    outer loop
      vertex -11.6345 3.6 15.7927
      vertex 13.8599 3.6 16.5939
      vertex -13.8599 3.6 16.5939
    endloop
  endfacet
  facet normal 0 -1 0
    outer loop
      vertex -11.6345 3.6 15.7927
      vertex 11.6345 3.6 15.7927
      vertex 13.8599 3.6 16.5939
    endloop
  endfacet
  facet normal 0 -1 0
    outer loop
      vertex -9.36317 3.6 15.1328
      vertex 11.6345 3.6 15.7927
      vertex -11.6345 3.6 15.7927
    endloop
  endfacet
  facet normal 0 -1 0
    outer loop
      vertex -9.36317 3.6 15.1328
      vertex 9.36317 3.6 15.1328
      vertex 11.6345 3.6 15.7927
    endloop
  endfacet
  facet normal 0 -1 0
    outer loop
      vertex -7.05491 3.6 14.6169
      vertex 9.36317 3.6 15.1328
      vertex -9.36317 3.6 15.1328
    endloop
  endfacet
  facet normal 0 -1 0
    outer loop
      vertex -7.05491 3.6 14.6169
      vertex 7.05491 3.6 14.6169
      vertex 9.36317 3.6 15.1328
    endloop
  endfacet
  facet normal 0 -1 0
    outer loop
      vertex -4.7188 3.6 14.2469
      vertex 7.05491 3.6 14.6169
      vertex -7.05491 3.6 14.6169
    endloop
  endfacet
  facet normal 0 -1 0
    outer loop
      vertex -4.7188 3.6 14.2469
      vertex 4.7188 3.6 14.2469
      vertex 7.05491 3.6 14.6169
    endloop
  endfacet
  facet normal 0 -1 0
    outer loop
      vertex -2.36406 3.6 14.0243
      vertex 4.7188 3.6 14.2469
      vertex -4.7188 3.6 14.2469
    endloop
  endfacet
  facet normal 0 -1 0
    outer loop
      vertex -2.36406 3.6 14.0243
      vertex 2.36406 3.6 14.0243
      vertex 4.7188 3.6 14.2469
    endloop
  endfacet
  facet normal -0 -1 0
    outer loop
      vertex 2.36406 3.6 14.0243
      vertex -2.36406 3.6 14.0243
      vertex 0 3.6 13.95
    endloop
  endfacet
  facet normal 0.0941131 0 0.995562
    outer loop
      vertex -4.7188 3.6 14.2469
      vertex -2.36406 -3.6 14.0243
      vertex -2.36406 3.6 14.0243
    endloop
  endfacet
  facet normal 0.0941131 0 0.995562
    outer loop
      vertex -2.36406 -3.6 14.0243
      vertex -4.7188 3.6 14.2469
      vertex -4.7188 -3.6 14.2469
    endloop
  endfacet
  facet normal 0.278998 0 0.960292
    outer loop
      vertex -11.6345 3.6 15.7927
      vertex -9.36317 -3.6 15.1328
      vertex -9.36317 3.6 15.1328
    endloop
  endfacet
  facet normal 0.278998 0 0.960292
    outer loop
      vertex -9.36317 -3.6 15.1328
      vertex -11.6345 3.6 15.7927
      vertex -11.6345 -3.6 15.7927
    endloop
  endfacet
  facet normal 0.21812 0 0.975922
    outer loop
      vertex -9.36317 3.6 15.1328
      vertex -7.05491 -3.6 14.6169
      vertex -7.05491 3.6 14.6169
    endloop
  endfacet
  facet normal 0.21812 0 0.975922
    outer loop
      vertex -7.05491 -3.6 14.6169
      vertex -9.36317 3.6 15.1328
      vertex -9.36317 -3.6 15.1328
    endloop
  endfacet
  facet normal 0.453999 0 0.891002
    outer loop
      vertex -18.138 3.6 18.6071
      vertex -16.0306 -3.6 17.5333
      vertex -16.0306 3.6 17.5333
    endloop
  endfacet
  facet normal 0.453999 0 0.891002
    outer loop
      vertex -16.0306 -3.6 17.5333
      vertex -18.138 3.6 18.6071
      vertex -18.138 -3.6 18.6071
    endloop
  endfacet
  facet normal 0.397167 0 0.917746
    outer loop
      vertex -16.0306 3.6 17.5333
      vertex -13.8599 -3.6 16.5939
      vertex -13.8599 3.6 16.5939
    endloop
  endfacet
  facet normal 0.397167 0 0.917746
    outer loop
      vertex -13.8599 -3.6 16.5939
      vertex -16.0306 3.6 17.5333
      vertex -16.0306 -3.6 17.5333
    endloop
  endfacet
endsolid OpenSCAD_Model
