solid OpenSCAD_Model
  facet normal 0.18738132019225445 -0.9822872496591859 0
    outer loop
      vertex 2.8026879727840424 -4.779316633939743 4.4
      vertex 2.7780166417360306 -4.784022942185402 5.01
      vertex 2.7780166417360306 -4.784022942185402 4.4
    endloop
  endfacet
  facet normal 0.18738132019225445 -0.9822872496591859 0
    outer loop
      vertex 2.8026879727840424 -4.779316633939743 4.4
      vertex 2.8026879727840424 -4.779316633939743 5.01
      vertex 2.7780166417360306 -4.784022942185402 5.01
    endloop
  endfacet
  facet normal 0.3090170501560989 -0.9510564981707569 0
    outer loop
      vertex 2.82657490670681 -4.771555297076702 4.4
      vertex 2.8026879727840424 -4.779316633939743 5.01
      vertex 2.8026879727840424 -4.779316633939743 4.4
    endloop
  endfacet
  facet normal 0.3090170501560989 -0.9510564981707569 0
    outer loop
      vertex 2.82657490670681 -4.771555297076702 4.4
      vertex 2.82657490670681 -4.771555297076702 5.01
      vertex 2.8026879727840424 -4.779316633939743 5.01
    endloop
  endfacet
  facet normal 0.42577919305071626 -0.9048270988233503 0
    outer loop
      vertex 2.8493007346987724 -4.760861337184906 4.4
      vertex 2.82657490670681 -4.771555297076702 5.01
      vertex 2.82657490670681 -4.771555297076702 4.4
    endloop
  endfacet
  facet normal 0.42577919305071626 -0.9048270988233503 0
    outer loop
      vertex 2.8493007346987724 -4.760861337184906 4.4
      vertex 2.8493007346987724 -4.760861337184906 5.01
      vertex 2.82657490670681 -4.771555297076702 5.01
    endloop
  endfacet
  facet normal 0.5358267049571863 -0.8443279826315864 0
    outer loop
      vertex 2.8705070465803146 -4.747403405606747 4.4
      vertex 2.8493007346987724 -4.760861337184906 5.01
      vertex 2.8493007346987724 -4.760861337184906 4.4
    endloop
  endfacet
  facet normal 0.5358267049571863 -0.8443279826315864 0
    outer loop
      vertex 2.8705070465803146 -4.747403405606747 4.4
      vertex 2.8705070465803146 -4.747403405606747 5.01
      vertex 2.8493007346987724 -4.760861337184906 5.01
    endloop
  endfacet
  facet normal 0.6374240253416605 -0.7705132133307215 0
    outer loop
      vertex 2.889859415590763 -4.7313937321305275 4.4
      vertex 2.8705070465803146 -4.747403405606747 5.01
      vertex 2.8705070465803146 -4.747403405606747 4.4
    endloop
  endfacet
  facet normal 0.6374240253416605 -0.7705132133307215 0
    outer loop
      vertex 2.889859415590763 -4.7313937321305275 4.4
      vertex 2.889859415590763 -4.7313937321305275 5.01
      vertex 2.8705070465803146 -4.747403405606747 5.01
    endloop
  endfacet
  facet normal 0.7289686626129461 -0.6845470684535088 0
    outer loop
      vertex 2.907052643597126 -4.713084802031517 4.4
      vertex 2.889859415590763 -4.7313937321305275 5.01
      vertex 2.889859415590763 -4.7313937321305275 4.4
    endloop
  endfacet
  facet normal 0.7289686626129461 -0.6845470684535088 0
    outer loop
      vertex 2.907052643597126 -4.713084802031517 4.4
      vertex 2.907052643597126 -4.713084802031517 5.01
      vertex 2.889859415590763 -4.7313937321305275 5.01
    endloop
  endfacet
  facet normal 0.8090169735131104 -0.5877852810063274 0
    outer loop
      vertex 2.9218155816197395 -4.692765362560749 4.4
      vertex 2.907052643597126 -4.713084802031517 5.01
      vertex 2.907052643597126 -4.713084802031517 4.4
    endloop
  endfacet
  facet normal 0.8090169735131104 -0.5877852810063274 0
    outer loop
      vertex 2.9218155816197395 -4.692765362560749 4.4
      vertex 2.9218155816197395 -4.692765362560749 5.01
      vertex 2.907052643597126 -4.713084802031517 5.01
    endloop
  endfacet
  facet normal 0.8763066771171582 -0.48175367942537256 0
    outer loop
      vertex 2.9339154064655304 -4.670755863189697 4.4
      vertex 2.9218155816197395 -4.692765362560749 5.01
      vertex 2.9218155816197395 -4.692765362560749 4.4
    endloop
  endfacet
  facet normal 0.8763066771171582 -0.48175367942537256 0
    outer loop
      vertex 2.9339154064655304 -4.670755863189697 4.4
      vertex 2.9339154064655304 -4.670755863189697 5.01
      vertex 2.9218155816197395 -4.692765362560749 5.01
    endloop
  endfacet
  facet normal 0.929776455526361 -0.36812462937005025 0
    outer loop
      vertex 2.943161301314831 -4.6474034041166306 4.4
      vertex 2.9339154064655304 -4.670755863189697 5.01
      vertex 2.9339154064655304 -4.670755863189697 4.4
    endloop
  endfacet
  facet normal 0.929776455526361 -0.36812462937005025 0
    outer loop
      vertex 2.943161301314831 -4.6474034041166306 4.4
      vertex 2.943161301314831 -4.6474034041166306 5.01
      vertex 2.9339154064655304 -4.670755863189697 5.01
    endloop
  endfacet
  facet normal 0.9685831372053324 -0.2486899803399332 0
    outer loop
      vertex 2.9494074508547783 -4.623076267540455 4.4
      vertex 2.943161301314831 -4.6474034041166306 5.01
      vertex 2.943161301314831 -4.6474034041166306 4.4
    endloop
  endfacet
  facet normal 0.9685831372053324 -0.2486899803399332 0
    outer loop
      vertex 2.9494074508547783 -4.623076267540455 4.4
      vertex 2.9494074508547783 -4.623076267540455 5.01
      vertex 2.943161301314831 -4.6474034041166306 5.01
    endloop
  endfacet
  facet normal 0.9921147170541331 -0.12533310897204075 0
    outer loop
      vertex 2.9525553435087204 -4.598158106207848 4.4
      vertex 2.9494074508547783 -4.623076267540455 5.01
      vertex 2.9494074508547783 -4.623076267540455 4.4
    endloop
  endfacet
  facet normal 0.9921147170541331 -0.12533310897204075 0
    outer loop
      vertex 2.9525553435087204 -4.598158106207848 4.4
      vertex 2.9525553435087204 -4.598158106207848 5.01
      vertex 2.9494074508547783 -4.623076267540455 5.01
    endloop
  endfacet
  facet normal 0.9995065529177073 -0.03141099607720523 0
    outer loop
      vertex 2.9529500007629395 -4.5856000036001205 4.4
      vertex 2.9525553435087204 -4.598158106207848 5.01
      vertex 2.9525553435087204 -4.598158106207848 4.4
    endloop
  endfacet
  facet normal 0.9995065529177073 -0.03141099607720523 0
    outer loop
      vertex 2.9529500007629395 -4.5856000036001205 4.4
      vertex 2.9529500007629395 -4.5856000036001205 5.01
      vertex 2.9525553435087204 -4.598158106207848 5.01
    endloop
  endfacet
  facet normal 1 0 0
    outer loop
      vertex 2.9529500007629395 -4.002400003373623 4.4
      vertex 2.9529500007629395 -4.5856000036001205 5.01
      vertex 2.9529500007629395 -4.5856000036001205 4.4
    endloop
  endfacet
  facet normal 1 0 0
    outer loop
      vertex 2.9529500007629395 -4.002400003373623 4.4
      vertex 2.9529500007629395 -4.002400003373623 5.01
      vertex 2.9529500007629395 -4.5856000036001205 5.01
    endloop
  endfacet
  facet normal 0.9980267163734319 0.06279071113520923 0
    outer loop
      vertex 2.9513729363679886 -3.9773333594202995 4.4
      vertex 2.9529500007629395 -4.002400003373623 5.01
      vertex 2.9529500007629395 -4.002400003373623 4.4
    endloop
  endfacet
  facet normal 0.9980267163734319 0.06279071113520923 0
    outer loop
      vertex 2.9513729363679886 -3.9773333594202995 4.4
      vertex 2.9513729363679886 -3.9773333594202995 5.01
      vertex 2.9529500007629395 -4.002400003373623 5.01
    endloop
  endfacet
  facet normal 0.9822872496591859 0.18738132019225445 0
    outer loop
      vertex 2.9466666281223297 -3.9526620283722878 4.4
      vertex 2.9513729363679886 -3.9773333594202995 5.01
      vertex 2.9513729363679886 -3.9773333594202995 4.4
    endloop
  endfacet
  facet normal 0.9822872496591859 0.18738132019225445 0
    outer loop
      vertex 2.9466666281223297 -3.9526620283722878 4.4
      vertex 2.9466666281223297 -3.9526620283722878 5.01
      vertex 2.9513729363679886 -3.9773333594202995 5.01
    endloop
  endfacet
  facet normal 0.9510564981707569 0.3090170501560989 0
    outer loop
      vertex 2.938905291259289 -3.92877509444952 4.4
      vertex 2.9466666281223297 -3.9526620283722878 5.01
      vertex 2.9466666281223297 -3.9526620283722878 4.4
    endloop
  endfacet
  facet normal 0.9510564981707569 0.3090170501560989 0
    outer loop
      vertex 2.938905291259289 -3.92877509444952 4.4
      vertex 2.938905291259289 -3.92877509444952 5.01
      vertex 2.9466666281223297 -3.9526620283722878 5.01
    endloop
  endfacet
  facet normal 0.9048270988233503 0.42577919305071626 0
    outer loop
      vertex 2.9282113313674927 -3.9060492664575577 4.4
      vertex 2.938905291259289 -3.92877509444952 5.01
      vertex 2.938905291259289 -3.92877509444952 4.4
    endloop
  endfacet
  facet normal 0.9048270988233503 0.42577919305071626 0
    outer loop
      vertex 2.9282113313674927 -3.9060492664575577 4.4
      vertex 2.9282113313674927 -3.9060492664575577 5.01
      vertex 2.938905291259289 -3.92877509444952 5.01
    endloop
  endfacet
  facet normal 0.8443279826315864 0.5358267049571863 0
    outer loop
      vertex 2.9147533997893333 -3.8848429545760155 4.4
      vertex 2.9282113313674927 -3.9060492664575577 5.01
      vertex 2.9282113313674927 -3.9060492664575577 4.4
    endloop
  endfacet
  facet normal 0.8443279826315864 0.5358267049571863 0
    outer loop
      vertex 2.9147533997893333 -3.8848429545760155 4.4
      vertex 2.9147533997893333 -3.8848429545760155 5.01
      vertex 2.9282113313674927 -3.9060492664575577 5.01
    endloop
  endfacet
  facet normal 0.7705132133307215 0.6374240253416605 0
    outer loop
      vertex 2.898743726313114 -3.865490585565567 4.4
      vertex 2.9147533997893333 -3.8848429545760155 5.01
      vertex 2.9147533997893333 -3.8848429545760155 4.4
    endloop
  endfacet
  facet normal 0.7705132133307215 0.6374240253416605 0
    outer loop
      vertex 2.898743726313114 -3.865490585565567 4.4
      vertex 2.898743726313114 -3.865490585565567 5.01
      vertex 2.9147533997893333 -3.8848429545760155 5.01
    endloop
  endfacet
  facet normal 0.6845470684535088 0.7289686626129461 0
    outer loop
      vertex 2.8804347962141037 -3.848297357559204 4.4
      vertex 2.898743726313114 -3.865490585565567 5.01
      vertex 2.898743726313114 -3.865490585565567 4.4
    endloop
  endfacet
  facet normal 0.6845470684535088 0.7289686626129461 0
    outer loop
      vertex 2.8804347962141037 -3.848297357559204 4.4
      vertex 2.8804347962141037 -3.848297357559204 5.01
      vertex 2.898743726313114 -3.865490585565567 5.01
    endloop
  endfacet
  facet normal 0.5877852810063274 0.8090169735131104 0
    outer loop
      vertex 2.8601153567433357 -3.8335344195365906 4.4
      vertex 2.8804347962141037 -3.848297357559204 5.01
      vertex 2.8804347962141037 -3.848297357559204 4.4
    endloop
  endfacet
  facet normal 0.5877852810063274 0.8090169735131104 0
    outer loop
      vertex 2.8601153567433357 -3.8335344195365906 4.4
      vertex 2.8601153567433357 -3.8335344195365906 5.01
      vertex 2.8804347962141037 -3.848297357559204 5.01
    endloop
  endfacet
  facet normal 0.48175367942537256 0.8763066771171582 0
    outer loop
      vertex 2.838105857372284 -3.8214345946907997 4.4
      vertex 2.8601153567433357 -3.8335344195365906 5.01
      vertex 2.8601153567433357 -3.8335344195365906 4.4
    endloop
  endfacet
  facet normal 0.48175367942537256 0.8763066771171582 0
    outer loop
      vertex 2.838105857372284 -3.8214345946907997 4.4
      vertex 2.838105857372284 -3.8214345946907997 5.01
      vertex 2.8601153567433357 -3.8335344195365906 5.01
    endloop
  endfacet
  facet normal 0.36812462937005025 0.929776455526361 0
    outer loop
      vertex 2.8147533982992172 -3.8121886998414993 4.4
      vertex 2.838105857372284 -3.8214345946907997 5.01
      vertex 2.838105857372284 -3.8214345946907997 4.4
    endloop
  endfacet
  facet normal 0.36812462937005025 0.929776455526361 0
    outer loop
      vertex 2.8147533982992172 -3.8121886998414993 4.4
      vertex 2.8147533982992172 -3.8121886998414993 5.01
      vertex 2.838105857372284 -3.8214345946907997 5.01
    endloop
  endfacet
  facet normal 0.2486899803399332 0.9685831372053324 0
    outer loop
      vertex 2.7904262617230415 -3.805942550301552 4.4
      vertex 2.8147533982992172 -3.8121886998414993 5.01
      vertex 2.8147533982992172 -3.8121886998414993 4.4
    endloop
  endfacet
  facet normal 0.2486899803399332 0.9685831372053324 0
    outer loop
      vertex 2.7904262617230415 -3.805942550301552 4.4
      vertex 2.7904262617230415 -3.805942550301552 5.01
      vertex 2.8147533982992172 -3.8121886998414993 5.01
    endloop
  endfacet
  facet normal 0.1450407428529418 0.9894256833702402 0
    outer loop
      vertex 2.7734366059303284 -3.8034520223736763 4.4
      vertex 2.7904262617230415 -3.805942550301552 5.01
      vertex 2.7904262617230415 -3.805942550301552 4.4
    endloop
  endfacet
  facet normal 0.1450407428529418 0.9894256833702402 0
    outer loop
      vertex 2.7734366059303284 -3.8034520223736763 4.4
      vertex 2.7734366059303284 -3.8034520223736763 5.01
      vertex 2.7904262617230415 -3.805942550301552 5.01
    endloop
  endfacet
  facet normal 0.10243303379764278 0.9947399024805484 0
    outer loop
      vertex 1.3729500025510788 -3.6592373475432396 4.4
      vertex 2.7734366059303284 -3.8034520223736763 5.01
      vertex 2.7734366059303284 -3.8034520223736763 4.4
    endloop
  endfacet
  facet normal 0.10243303379764278 0.9947399024805484 0
    outer loop
      vertex 1.3729500025510788 -3.6592373475432396 4.4
      vertex 1.3729500025510788 -3.6592373475432396 5.01
      vertex 2.7734366059303284 -3.8034520223736763 5.01
    endloop
  endfacet
  facet normal 1 0 0
    outer loop
      vertex 1.3729500025510788 4.582699999213219 4.4
      vertex 1.3729500025510788 -3.6592373475432396 5.01
      vertex 1.3729500025510788 -3.6592373475432396 4.4
    endloop
  endfacet
  facet normal 1 0 0
    outer loop
      vertex 1.3729500025510788 4.582699999213219 4.4
      vertex 1.3729500025510788 4.582699999213219 5.01
      vertex 1.3729500025510788 -3.6592373475432396 5.01
    endloop
  endfacet
  facet normal 0.9980267163734319 0.06279071113520923 0
    outer loop
      vertex 1.371372938156128 4.607766643166542 4.4
      vertex 1.3729500025510788 4.582699999213219 5.01
      vertex 1.3729500025510788 4.582699999213219 4.4
    endloop
  endfacet
  facet normal 0.9980267163734319 0.06279071113520923 0
    outer loop
      vertex 1.371372938156128 4.607766643166542 4.4
      vertex 1.371372938156128 4.607766643166542 5.01
      vertex 1.3729500025510788 4.582699999213219 5.01
    endloop
  endfacet
  facet normal 0.9822872496591859 0.18738132019225445 0
    outer loop
      vertex 1.366666629910469 4.632437974214554 4.4
      vertex 1.371372938156128 4.607766643166542 5.01
      vertex 1.371372938156128 4.607766643166542 4.4
    endloop
  endfacet
  facet normal 0.9822872496591859 0.18738132019225445 0
    outer loop
      vertex 1.366666629910469 4.632437974214554 4.4
      vertex 1.366666629910469 4.632437974214554 5.01
      vertex 1.371372938156128 4.607766643166542 5.01
    endloop
  endfacet
  facet normal 0.9510564981707569 0.3090170501560989 0
    outer loop
      vertex 1.3589052930474281 4.6563249081373215 4.4
      vertex 1.366666629910469 4.632437974214554 5.01
      vertex 1.366666629910469 4.632437974214554 4.4
    endloop
  endfacet
  facet normal 0.9510564981707569 0.3090170501560989 0
    outer loop
      vertex 1.3589052930474281 4.6563249081373215 4.4
      vertex 1.3589052930474281 4.6563249081373215 5.01
      vertex 1.366666629910469 4.632437974214554 5.01
    endloop
  endfacet
  facet normal 0.9048270988233503 0.42577919305071626 0
    outer loop
      vertex 1.348211333155632 4.679050736129284 4.4
      vertex 1.3589052930474281 4.6563249081373215 5.01
      vertex 1.3589052930474281 4.6563249081373215 4.4
    endloop
  endfacet
  facet normal 0.9048270988233503 0.42577919305071626 0
    outer loop
      vertex 1.348211333155632 4.679050736129284 4.4
      vertex 1.348211333155632 4.679050736129284 5.01
      vertex 1.3589052930474281 4.6563249081373215 5.01
    endloop
  endfacet
  facet normal 0.8443279826315864 0.5358267049571863 0
    outer loop
      vertex 1.3347534015774727 4.700257048010826 4.4
      vertex 1.348211333155632 4.679050736129284 5.01
      vertex 1.348211333155632 4.679050736129284 4.4
    endloop
  endfacet
  facet normal 0.8443279826315864 0.5358267049571863 0
    outer loop
      vertex 1.3347534015774727 4.700257048010826 4.4
      vertex 1.3347534015774727 4.700257048010826 5.01
      vertex 1.348211333155632 4.679050736129284 5.01
    endloop
  endfacet
  facet normal 0.7705132133307215 0.6374240253416605 0
    outer loop
      vertex 1.3187437281012535 4.719609417021275 4.4
      vertex 1.3347534015774727 4.700257048010826 5.01
      vertex 1.3347534015774727 4.700257048010826 4.4
    endloop
  endfacet
  facet normal 0.7705132133307215 0.6374240253416605 0
    outer loop
      vertex 1.3187437281012535 4.719609417021275 4.4
      vertex 1.3187437281012535 4.719609417021275 5.01
      vertex 1.3347534015774727 4.700257048010826 5.01
    endloop
  endfacet
  facet normal 0.6845470684535088 0.7289686626129461 0
    outer loop
      vertex 1.300434798002243 4.7368026450276375 4.4
      vertex 1.3187437281012535 4.719609417021275 5.01
      vertex 1.3187437281012535 4.719609417021275 4.4
    endloop
  endfacet
  facet normal 0.6845470684535088 0.7289686626129461 0
    outer loop
      vertex 1.300434798002243 4.7368026450276375 4.4
      vertex 1.300434798002243 4.7368026450276375 5.01
      vertex 1.3187437281012535 4.719609417021275 5.01
    endloop
  endfacet
  facet normal 0.5877852810063274 0.8090169735131104 0
    outer loop
      vertex 1.280115358531475 4.751565583050251 4.4
      vertex 1.300434798002243 4.7368026450276375 5.01
      vertex 1.300434798002243 4.7368026450276375 4.4
    endloop
  endfacet
  facet normal 0.5877852810063274 0.8090169735131104 0
    outer loop
      vertex 1.280115358531475 4.751565583050251 4.4
      vertex 1.280115358531475 4.751565583050251 5.01
      vertex 1.300434798002243 4.7368026450276375 5.01
    endloop
  endfacet
  facet normal 0.48175367942537256 0.8763066771171582 0
    outer loop
      vertex 1.2581058591604233 4.763665407896042 4.4
      vertex 1.280115358531475 4.751565583050251 5.01
      vertex 1.280115358531475 4.751565583050251 4.4
    endloop
  endfacet
  facet normal 0.48175367942537256 0.8763066771171582 0
    outer loop
      vertex 1.2581058591604233 4.763665407896042 4.4
      vertex 1.2581058591604233 4.763665407896042 5.01
      vertex 1.280115358531475 4.751565583050251 5.01
    endloop
  endfacet
  facet normal 0.36812462937005025 0.929776455526361 0
    outer loop
      vertex 1.2347534000873566 4.772911302745342 4.4
      vertex 1.2581058591604233 4.763665407896042 5.01
      vertex 1.2581058591604233 4.763665407896042 4.4
    endloop
  endfacet
  facet normal 0.36812462937005025 0.929776455526361 0
    outer loop
      vertex 1.2347534000873566 4.772911302745342 4.4
      vertex 1.2347534000873566 4.772911302745342 5.01
      vertex 1.2581058591604233 4.763665407896042 5.01
    endloop
  endfacet
  facet normal 0.2486899803399332 0.9685831372053324 0
    outer loop
      vertex 1.2104262635111809 4.77915745228529 4.4
      vertex 1.2347534000873566 4.772911302745342 5.01
      vertex 1.2347534000873566 4.772911302745342 4.4
    endloop
  endfacet
  facet normal 0.2486899803399332 0.9685831372053324 0
    outer loop
      vertex 1.2104262635111809 4.77915745228529 4.4
      vertex 1.2104262635111809 4.77915745228529 5.01
      vertex 1.2347534000873566 4.772911302745342 5.01
    endloop
  endfacet
  facet normal 0.12533310897204075 0.9921147170541331 0
    outer loop
      vertex 1.1855081021785736 4.782305344939232 4.4
      vertex 1.2104262635111809 4.77915745228529 5.01
      vertex 1.2104262635111809 4.77915745228529 4.4
    endloop
  endfacet
  facet normal 0.12533310897204075 0.9921147170541331 0
    outer loop
      vertex 1.1855081021785736 4.782305344939232 4.4
      vertex 1.1855081021785736 4.782305344939232 5.01
      vertex 1.2104262635111809 4.77915745228529 5.01
    endloop
  endfacet
  facet normal 0.03141099607720523 0.9995065529177073 0
    outer loop
      vertex 1.1729499995708466 4.782700002193451 4.4
      vertex 1.1855081021785736 4.782305344939232 5.01
      vertex 1.1855081021785736 4.782305344939232 4.4
    endloop
  endfacet
  facet normal 0.03141099607720523 0.9995065529177073 0
    outer loop
      vertex 1.1729499995708466 4.782700002193451 4.4
      vertex 1.1729499995708466 4.782700002193451 5.01
      vertex 1.1855081021785736 4.782305344939232 5.01
    endloop
  endfacet
  facet normal 0 1 0
    outer loop
      vertex 0.20995000004768372 4.782700002193451 4.4
      vertex 1.1729499995708466 4.782700002193451 5.01
      vertex 1.1729499995708466 4.782700002193451 4.4
    endloop
  endfacet
  facet normal 0 1 0
    outer loop
      vertex 0.20995000004768372 4.782700002193451 4.4
      vertex 0.20995000004768372 4.782700002193451 5.01
      vertex 1.1729499995708466 4.782700002193451 5.01
    endloop
  endfacet
  facet normal -0.06279071113520923 0.9980267163734319 0
    outer loop
      vertex 0.18488335609436035 4.7811229377985 4.4
      vertex 0.20995000004768372 4.782700002193451 5.01
      vertex 0.20995000004768372 4.782700002193451 4.4
    endloop
  endfacet
  facet normal -0.06279071113520923 0.9980267163734319 0
    outer loop
      vertex 0.18488335609436035 4.7811229377985 4.4
      vertex 0.18488335609436035 4.7811229377985 5.01
      vertex 0.20995000004768372 4.782700002193451 5.01
    endloop
  endfacet
  facet normal -0.18738132019225445 0.9822872496591859 0
    outer loop
      vertex 0.16021202504634857 4.776416629552841 4.4
      vertex 0.18488335609436035 4.7811229377985 5.01
      vertex 0.18488335609436035 4.7811229377985 4.4
    endloop
  endfacet
  facet normal -0.18738132019225445 0.9822872496591859 0
    outer loop
      vertex 0.16021202504634857 4.776416629552841 4.4
      vertex 0.16021202504634857 4.776416629552841 5.01
      vertex 0.18488335609436035 4.7811229377985 5.01
    endloop
  endfacet
  facet normal -0.3090170501560989 0.9510564981707569 0
    outer loop
      vertex 0.13632509112358093 4.7686552926898 4.4
      vertex 0.16021202504634857 4.776416629552841 5.01
      vertex 0.16021202504634857 4.776416629552841 4.4
    endloop
  endfacet
  facet normal -0.3090170501560989 0.9510564981707569 0
    outer loop
      vertex 0.13632509112358093 4.7686552926898 4.4
      vertex 0.13632509112358093 4.7686552926898 5.01
      vertex 0.16021202504634857 4.776416629552841 5.01
    endloop
  endfacet
  facet normal -0.42577919305071626 0.9048270988233503 0
    outer loop
      vertex 0.1135992631316185 4.757961332798004 4.4
      vertex 0.13632509112358093 4.7686552926898 5.01
      vertex 0.13632509112358093 4.7686552926898 4.4
    endloop
  endfacet
  facet normal -0.42577919305071626 0.9048270988233503 0
    outer loop
      vertex 0.1135992631316185 4.757961332798004 4.4
      vertex 0.1135992631316185 4.757961332798004 5.01
      vertex 0.13632509112358093 4.7686552926898 5.01
    endloop
  endfacet
  facet normal -0.4941465843007212 0.8693786017748137 0
    outer loop
      vertex 0.10866213589906693 4.755155116319656 4.4
      vertex 0.1135992631316185 4.757961332798004 5.01
      vertex 0.1135992631316185 4.757961332798004 4.4
    endloop
  endfacet
  facet normal -0.4941465843007212 0.8693786017748137 0
    outer loop
      vertex 0.10866213589906693 4.755155116319656 4.4
      vertex 0.10866213589906693 4.755155116319656 5.01
      vertex 0.1135992631316185 4.757961332798004 5.01
    endloop
  endfacet
  facet normal -0.5064393224617314 0.8622756013389816 -6.122475489053767e-17
    outer loop
      vertex -2.454637862741947 3.249655120074749 4.4
      vertex 0.10866213589906693 4.755155116319656 5.01
      vertex 0.10866213589906693 4.755155116319656 4.4
    endloop
  endfacet
  facet normal -0.5064393224617314 0.8622756013389816 0
    outer loop
      vertex -2.454637862741947 3.249655120074749 4.4
      vertex -2.454637862741947 3.249655120074749 5.01
      vertex 0.10866213589906693 4.755155116319656 5.01
    endloop
  endfacet
  facet normal -0.5595825715880473 0.8287746048081517 0
    outer loop
      vertex -2.475453533232212 3.235600531101227 4.4
      vertex -2.454637862741947 3.249655120074749 5.01
      vertex -2.454637862741947 3.249655120074749 4.4
    endloop
  endfacet
  facet normal -0.5595825715880473 0.8287746048081517 0
    outer loop
      vertex -2.475453533232212 3.235600531101227 4.4
      vertex -2.475453533232212 3.235600531101227 5.01
      vertex -2.454637862741947 3.249655120074749 5.01
    endloop
  endfacet
  facet normal -0.6590432710604968 0.7521050238297047 0
    outer loop
      vertex -2.494343563914299 3.219047859311104 4.4
      vertex -2.475453533232212 3.235600531101227 5.01
      vertex -2.475453533232212 3.235600531101227 4.4
    endloop
  endfacet
  facet normal -0.6590432710604968 0.7521050238297047 0
    outer loop
      vertex -2.494343563914299 3.219047859311104 4.4
      vertex -2.494343563914299 3.219047859311104 5.01
      vertex -2.475453533232212 3.235600531101227 5.01
    endloop
  endfacet
  facet normal -0.7481103084622218 0.6635743864651192 0
    outer loop
      vertex -2.5110100358724594 3.2002581655979156 4.4
      vertex -2.494343563914299 3.219047859311104 5.01
      vertex -2.494343563914299 3.219047859311104 4.4
    endloop
  endfacet
  facet normal -0.7481103084622218 0.6635743864651192 0
    outer loop
      vertex -2.5110100358724594 3.2002581655979156 4.4
      vertex -2.5110100358724594 3.2002581655979156 5.01
      vertex -2.494343563914299 3.219047859311104 5.01
    endloop
  endfacet
  facet normal -0.8253791141447748 0.564578885483319 0
    outer loop
      vertex -2.5251901149749756 3.179527774453163 4.4
      vertex -2.5110100358724594 3.2002581655979156 5.01
      vertex -2.5110100358724594 3.2002581655979156 4.4
    endloop
  endfacet
  facet normal -0.8253791141447748 0.564578885483319 0
    outer loop
      vertex -2.5251901149749756 3.179527774453163 4.4
      vertex -2.5251901149749756 3.179527774453163 5.01
      vertex -2.5110100358724594 3.2002581655979156 5.01
    endloop
  endfacet
  facet normal -0.8896311745559018 0.45667972722498495 0
    outer loop
      vertex -2.5366601794958115 3.1571836099028587 4.4
      vertex -2.5251901149749756 3.179527774453163 5.01
      vertex -2.5251901149749756 3.179527774453163 4.4
    endloop
  endfacet
  facet normal -0.8896311745559018 0.45667972722498495 0
    outer loop
      vertex -2.5366601794958115 3.1571836099028587 4.4
      vertex -2.5366601794958115 3.1571836099028587 5.01
      vertex -2.5251901149749756 3.179527774453163 5.01
    endloop
  endfacet
  facet normal -0.9398533268764687 0.34157828379338423 0
    outer loop
      vertex -2.5452393293380737 3.133578062057495 4.4
      vertex -2.5366601794958115 3.1571836099028587 5.01
      vertex -2.5366601794958115 3.1571836099028587 4.4
    endloop
  endfacet
  facet normal -0.9398533268764687 0.34157828379338423 0
    outer loop
      vertex -2.5452393293380737 3.133578062057495 4.4
      vertex -2.5452393293380737 3.133578062057495 5.01
      vertex -2.5366601794958115 3.1571836099028587 5.01
    endloop
  endfacet
  facet normal -0.9752534348547806 0.2210898862543295 0
    outer loop
      vertex -2.550792269408703 3.109083391726017 4.4
      vertex -2.5452393293380737 3.133578062057495 5.01
      vertex -2.5452393293380737 3.133578062057495 4.4
    endloop
  endfacet
  facet normal -0.9752534348547806 0.2210898862543295 0
    outer loop
      vertex -2.550792269408703 3.109083391726017 4.4
      vertex -2.550792269408703 3.109083391726017 5.01
      vertex -2.5452393293380737 3.133578062057495 5.01
    endloop
  endfacet
  facet normal -0.9952731836311212 0.09711482865542524 0
    outer loop
      vertex -2.5532314255833626 3.0840859040617943 4.4
      vertex -2.550792269408703 3.109083391726017 5.01
      vertex -2.550792269408703 3.109083391726017 4.4
    endloop
  endfacet
  facet normal -0.9952731836311212 0.09711482865542524 0
    outer loop
      vertex -2.5532314255833626 3.0840859040617943 4.4
      vertex -2.5532314255833626 3.0840859040617943 5.01
      vertex -2.550792269408703 3.109083391726017 5.01
    endloop
  endfacet
  facet normal -0.9998517668321023 0.01721755972033727 0
    outer loop
      vertex -2.5533500015735626 3.0772000029683113 4.4
      vertex -2.5532314255833626 3.0840859040617943 5.01
      vertex -2.5532314255833626 3.0840859040617943 4.4
    endloop
  endfacet
  facet normal -0.9998517668321023 0.01721755972033727 0
    outer loop
      vertex -2.5533500015735626 3.0772000029683113 4.4
      vertex -2.5533500015735626 3.0772000029683113 5.01
      vertex -2.5532314255833626 3.0840859040617943 5.01
    endloop
  endfacet
  facet normal -1 0 0
    outer loop
      vertex -2.5533500015735626 2.500799998641014 4.4
      vertex -2.5533500015735626 3.0772000029683113 5.01
      vertex -2.5533500015735626 3.0772000029683113 4.4
    endloop
  endfacet
  facet normal -1 0 0
    outer loop
      vertex -2.5533500015735626 2.500799998641014 4.4
      vertex -2.5533500015735626 2.500799998641014 5.01
      vertex -2.5533500015735626 3.0772000029683113 5.01
    endloop
  endfacet
  facet normal -0.9980267163734319 -0.06279071113520923 0
    outer loop
      vertex -2.5517729371786118 2.4757333546876907 4.4
      vertex -2.5533500015735626 2.500799998641014 5.01
      vertex -2.5533500015735626 2.500799998641014 4.4
    endloop
  endfacet
  facet normal -0.9980267163734319 -0.06279071113520923 0
    outer loop
      vertex -2.5517729371786118 2.4757333546876907 4.4
      vertex -2.5517729371786118 2.4757333546876907 5.01
      vertex -2.5533500015735626 2.500799998641014 5.01
    endloop
  endfacet
  facet normal -0.9822872496591859 -0.18738132019225445 0
    outer loop
      vertex -2.547066628932953 2.451062023639679 4.4
      vertex -2.5517729371786118 2.4757333546876907 5.01
      vertex -2.5517729371786118 2.4757333546876907 4.4
    endloop
  endfacet
  facet normal -0.9822872496591859 -0.18738132019225445 0
    outer loop
      vertex -2.547066628932953 2.451062023639679 4.4
      vertex -2.547066628932953 2.451062023639679 5.01
      vertex -2.5517729371786118 2.4757333546876907 5.01
    endloop
  endfacet
  facet normal -0.9510564981707569 -0.3090170501560989 0
    outer loop
      vertex -2.539305292069912 2.4271750897169113 4.4
      vertex -2.547066628932953 2.451062023639679 5.01
      vertex -2.547066628932953 2.451062023639679 4.4
    endloop
  endfacet
  facet normal -0.9510564981707569 -0.3090170501560989 0
    outer loop
      vertex -2.539305292069912 2.4271750897169113 4.4
      vertex -2.539305292069912 2.4271750897169113 5.01
      vertex -2.547066628932953 2.451062023639679 5.01
    endloop
  endfacet
  facet normal -0.9048270988233503 -0.42577919305071626 0
    outer loop
      vertex -2.528611332178116 2.404449261724949 4.4
      vertex -2.539305292069912 2.4271750897169113 5.01
      vertex -2.539305292069912 2.4271750897169113 4.4
    endloop
  endfacet
  facet normal -0.9048270988233503 -0.42577919305071626 0
    outer loop
      vertex -2.528611332178116 2.404449261724949 4.4
      vertex -2.528611332178116 2.404449261724949 5.01
      vertex -2.539305292069912 2.4271750897169113 5.01
    endloop
  endfacet
  facet normal -0.8443279826315864 -0.5358267049571863 0
    outer loop
      vertex -2.5151534005999565 2.3832429498434067 4.4
      vertex -2.528611332178116 2.404449261724949 5.01
      vertex -2.528611332178116 2.404449261724949 4.4
    endloop
  endfacet
  facet normal -0.8443279826315864 -0.5358267049571863 0
    outer loop
      vertex -2.5151534005999565 2.3832429498434067 4.4
      vertex -2.5151534005999565 2.3832429498434067 5.01
      vertex -2.528611332178116 2.404449261724949 5.01
    endloop
  endfacet
  facet normal -0.7705132133307215 -0.6374240253416605 0
    outer loop
      vertex -2.4991437271237373 2.363890580832958 4.4
      vertex -2.5151534005999565 2.3832429498434067 5.01
      vertex -2.5151534005999565 2.3832429498434067 4.4
    endloop
  endfacet
  facet normal -0.7705132133307215 -0.6374240253416605 0
    outer loop
      vertex -2.4991437271237373 2.363890580832958 4.4
      vertex -2.4991437271237373 2.363890580832958 5.01
      vertex -2.5151534005999565 2.3832429498434067 5.01
    endloop
  endfacet
  facet normal -0.6845470684535088 -0.7289686626129461 0
    outer loop
      vertex -2.480834797024727 2.3466973528265953 4.4
      vertex -2.4991437271237373 2.363890580832958 5.01
      vertex -2.4991437271237373 2.363890580832958 4.4
    endloop
  endfacet
  facet normal -0.6845470684535088 -0.7289686626129461 0
    outer loop
      vertex -2.480834797024727 2.3466973528265953 4.4
      vertex -2.480834797024727 2.3466973528265953 5.01
      vertex -2.4991437271237373 2.363890580832958 5.01
    endloop
  endfacet
  facet normal -0.5877852810063274 -0.8090169735131104 0
    outer loop
      vertex -2.460515357553959 2.331934414803982 4.4
      vertex -2.480834797024727 2.3466973528265953 5.01
      vertex -2.480834797024727 2.3466973528265953 4.4
    endloop
  endfacet
  facet normal -0.5877852810063274 -0.8090169735131104 0
    outer loop
      vertex -2.460515357553959 2.331934414803982 4.4
      vertex -2.460515357553959 2.331934414803982 5.01
      vertex -2.480834797024727 2.3466973528265953 5.01
    endloop
  endfacet
  facet normal -0.48175367942537256 -0.8763066771171582 0
    outer loop
      vertex -2.438505858182907 2.319834589958191 4.4
      vertex -2.460515357553959 2.331934414803982 5.01
      vertex -2.460515357553959 2.331934414803982 4.4
    endloop
  endfacet
  facet normal -0.48175367942537256 -0.8763066771171582 0
    outer loop
      vertex -2.438505858182907 2.319834589958191 4.4
      vertex -2.438505858182907 2.319834589958191 5.01
      vertex -2.460515357553959 2.331934414803982 5.01
    endloop
  endfacet
  facet normal -0.36812462937005025 -0.929776455526361 0
    outer loop
      vertex -2.4151533991098404 2.3105886951088905 4.4
      vertex -2.438505858182907 2.319834589958191 5.01
      vertex -2.438505858182907 2.319834589958191 4.4
    endloop
  endfacet
  facet normal -0.36812462937005025 -0.929776455526361 0
    outer loop
      vertex -2.4151533991098404 2.3105886951088905 4.4
      vertex -2.4151533991098404 2.3105886951088905 5.01
      vertex -2.438505858182907 2.319834589958191 5.01
    endloop
  endfacet
  facet normal -0.2486899803399332 -0.9685831372053324 0
    outer loop
      vertex -2.3908262625336647 2.304342545568943 4.4
      vertex -2.4151533991098404 2.3105886951088905 5.01
      vertex -2.4151533991098404 2.3105886951088905 4.4
    endloop
  endfacet
  facet normal -0.2486899803399332 -0.9685831372053324 0
    outer loop
      vertex -2.3908262625336647 2.304342545568943 4.4
      vertex -2.3908262625336647 2.304342545568943 5.01
      vertex -2.4151533991098404 2.3105886951088905 5.01
    endloop
  endfacet
  facet normal -0.12533310897204075 -0.9921147170541331 0
    outer loop
      vertex -2.3659081012010574 2.301194652915001 4.4
      vertex -2.3908262625336647 2.304342545568943 5.01
      vertex -2.3908262625336647 2.304342545568943 4.4
    endloop
  endfacet
  facet normal -0.12533310897204075 -0.9921147170541331 0
    outer loop
      vertex -2.3659081012010574 2.301194652915001 4.4
      vertex -2.3659081012010574 2.301194652915001 5.01
      vertex -2.3908262625336647 2.304342545568943 5.01
    endloop
  endfacet
  facet normal 0 -1 0
    outer loop
      vertex -2.3407918959856033 2.301194652915001 4.4
      vertex -2.3659081012010574 2.301194652915001 5.01
      vertex -2.3659081012010574 2.301194652915001 4.4
    endloop
  endfacet
  facet normal 0 -1 0
    outer loop
      vertex -2.3407918959856033 2.301194652915001 4.4
      vertex -2.3407918959856033 2.301194652915001 5.01
      vertex -2.3659081012010574 2.301194652915001 5.01
    endloop
  endfacet
  facet normal 0.12533310897204075 -0.9921147170541331 0
    outer loop
      vertex -2.315873734652996 2.304342545568943 4.4
      vertex -2.3407918959856033 2.301194652915001 5.01
      vertex -2.3407918959856033 2.301194652915001 4.4
    endloop
  endfacet
  facet normal 0.12533310897204075 -0.9921147170541331 0
    outer loop
      vertex -2.315873734652996 2.304342545568943 4.4
      vertex -2.315873734652996 2.304342545568943 5.01
      vertex -2.3407918959856033 2.301194652915001 5.01
    endloop
  endfacet
  facet normal 0.2486899803399332 -0.9685831372053324 0
    outer loop
      vertex -2.2915465980768204 2.3105886951088905 4.4
      vertex -2.315873734652996 2.304342545568943 5.01
      vertex -2.315873734652996 2.304342545568943 4.4
    endloop
  endfacet
  facet normal 0.2486899803399332 -0.9685831372053324 0
    outer loop
      vertex -2.2915465980768204 2.3105886951088905 4.4
      vertex -2.2915465980768204 2.3105886951088905 5.01
      vertex -2.315873734652996 2.304342545568943 5.01
    endloop
  endfacet
  facet normal 0.3107745543192866 -0.95048365392975 0
    outer loop
      vertex -2.29084350168705 2.3108185827732086 4.4
      vertex -2.2915465980768204 2.3105886951088905 5.01
      vertex -2.2915465980768204 2.3105886951088905 4.4
    endloop
  endfacet
  facet normal 0.3107745543192866 -0.95048365392975 0
    outer loop
      vertex -2.29084350168705 2.3108185827732086 4.4
      vertex -2.29084350168705 2.3108185827732086 5.01
      vertex -2.2915465980768204 2.3105886951088905 5.01
    endloop
  endfacet
  facet normal 0.3125324616476193 -0.9499070798854378 -6.629123300412326e-17
    outer loop
      vertex -0.9868500009179115 2.7398503348231316 4.4
      vertex -2.29084350168705 2.3108185827732086 5.01
      vertex -2.29084350168705 2.3108185827732086 4.4
    endloop
  endfacet
  facet normal 0.3125324616476193 -0.9499070798854378 0
    outer loop
      vertex -0.9868500009179115 2.7398503348231316 4.4
      vertex -0.9868500009179115 2.7398503348231316 5.01
      vertex -2.29084350168705 2.3108185827732086 5.01
    endloop
  endfacet
  facet normal -1 0 0
    outer loop
      vertex -0.9868500009179115 -3.6593160554766655 4.4
      vertex -0.9868500009179115 2.7398503348231316 5.01
      vertex -0.9868500009179115 2.7398503348231316 4.4
    endloop
  endfacet
  facet normal -1 0 0
    outer loop
      vertex -0.9868500009179115 -3.6593160554766655 4.4
      vertex -0.9868500009179115 -3.6593160554766655 5.01
      vertex -0.9868500009179115 2.7398503348231316 5.01
    endloop
  endfacet
  facet normal -0.10286464303289622 0.9946953630201132 0
    outer loop
      vertex -2.3807229325175285 -3.80346093326807 4.4
      vertex -0.9868500009179115 -3.6593160554766655 5.01
      vertex -0.9868500009179115 -3.6593160554766655 4.4
    endloop
  endfacet
  facet normal -0.10286464303289622 0.9946953630201132 0
    outer loop
      vertex -2.3807229325175285 -3.80346093326807 4.4
      vertex -2.3807229325175285 -3.80346093326807 5.01
      vertex -0.9868500009179115 -3.6593160554766655 5.01
    endloop
  endfacet
  facet normal -0.16511906769605567 0.9862736402658165 0
    outer loop
      vertex -2.4054943844676018 -3.8076080977916718 4.4
      vertex -2.3807229325175285 -3.80346093326807 5.01
      vertex -2.3807229325175285 -3.80346093326807 4.4
    endloop
  endfacet
  facet normal -0.16511906769605567 0.9862736402658165 0
    outer loop
      vertex -2.4054943844676018 -3.8076080977916718 4.4
      vertex -2.4054943844676018 -3.8076080977916718 5.01
      vertex -2.3807229325175285 -3.80346093326807 5.01
    endloop
  endfacet
  facet normal -0.28742996518131025 0.9578016575031967 0
    outer loop
      vertex -2.4295507296919823 -3.814827248454094 4.4
      vertex -2.4054943844676018 -3.8076080977916718 5.01
      vertex -2.4054943844676018 -3.8076080977916718 4.4
    endloop
  endfacet
  facet normal -0.28742996518131025 0.9578016575031967 0
    outer loop
      vertex -2.4295507296919823 -3.814827248454094 4.4
      vertex -2.4295507296919823 -3.814827248454094 5.01
      vertex -2.4054943844676018 -3.8076080977916718 5.01
    endloop
  endfacet
  facet normal -0.4052078443703786 0.9142245910391555 0
    outer loop
      vertex -2.4525125846266747 -3.825004532933235 4.4
      vertex -2.4295507296919823 -3.814827248454094 5.01
      vertex -2.4295507296919823 -3.814827248454094 4.4
    endloop
  endfacet
  facet normal -0.4052078443703786 0.9142245910391555 0
    outer loop
      vertex -2.4525125846266747 -3.825004532933235 4.4
      vertex -2.4525125846266747 -3.825004532933235 5.01
      vertex -2.4295507296919823 -3.814827248454094 5.01
    endloop
  endfacet
  facet normal -0.5165953686024137 0.8562296567735411 0
    outer loop
      vertex -2.4740178287029266 -3.8379794508218765 4.4
      vertex -2.4525125846266747 -3.825004532933235 5.01
      vertex -2.4525125846266747 -3.825004532933235 4.4
    endloop
  endfacet
  facet normal -0.5165953686024137 0.8562296567735411 0
    outer loop
      vertex -2.4740178287029266 -3.8379794508218765 4.4
      vertex -2.4740178287029266 -3.8379794508218765 5.01
      vertex -2.4525125846266747 -3.825004532933235 5.01
    endloop
  endfacet
  facet normal -0.6198359889047791 0.7847313851621042 0
    outer loop
      vertex -2.4937273040413857 -3.853547379374504 4.4
      vertex -2.4740178287029266 -3.8379794508218765 5.01
      vertex -2.4740178287029266 -3.8379794508218765 4.4
    endloop
  endfacet
  facet normal -0.6198359889047791 0.7847313851621042 0
    outer loop
      vertex -2.4937273040413857 -3.853547379374504 4.4
      vertex -2.4937273040413857 -3.853547379374504 5.01
      vertex -2.4740178287029266 -3.8379794508218765 5.01
    endloop
  endfacet
  facet normal -0.7133012265260028 0.7008575891267069 0
    outer loop
      vertex -2.5113301873207092 -3.8714627996087074 4.4
      vertex -2.4937273040413857 -3.853547379374504 5.01
      vertex -2.4937273040413857 -3.853547379374504 4.4
    endloop
  endfacet
  facet normal -0.7133012265260028 0.7008575891267069 0
    outer loop
      vertex -2.5113301873207092 -3.8714627996087074 4.4
      vertex -2.5113301873207092 -3.8714627996087074 5.01
      vertex -2.4937273040413857 -3.853547379374504 5.01
    endloop
  endfacet
  facet normal -0.7955173703764243 0.6059307827049052 0
    outer loop
      vertex -2.526548869907856 -3.8914431780576706 4.4
      vertex -2.5113301873207092 -3.8714627996087074 5.01
      vertex -2.5113301873207092 -3.8714627996087074 4.4
    endloop
  endfacet
  facet normal -0.7955173703764243 0.6059307827049052 0
    outer loop
      vertex -2.526548869907856 -3.8914431780576706 4.4
      vertex -2.526548869907856 -3.8914431780576706 5.01
      vertex -2.5113301873207092 -3.8714627996087074 5.01
    endloop
  endfacet
  facet normal -0.8651877180608974 0.5014481154781391 0
    outer loop
      vertex -2.539143346250057 -3.9131734147667885 4.4
      vertex -2.526548869907856 -3.8914431780576706 5.01
      vertex -2.526548869907856 -3.8914431780576706 4.4
    endloop
  endfacet
  facet normal -0.8651877180608974 0.5014481154781391 0
    outer loop
      vertex -2.539143346250057 -3.9131734147667885 4.4
      vertex -2.539143346250057 -3.9131734147667885 5.01
      vertex -2.526548869907856 -3.8914431780576706 5.01
    endloop
  endfacet
  facet normal -0.9212136447435211 0.38905709187516135 0
    outer loop
      vertex -2.548914983868599 -3.9363108053803444 4.4
      vertex -2.539143346250057 -3.9131734147667885 5.01
      vertex -2.539143346250057 -3.9131734147667885 4.4
    endloop
  endfacet
  facet normal -0.9212136447435211 0.38905709187516135 0
    outer loop
      vertex -2.548914983868599 -3.9363108053803444 4.4
      vertex -2.548914983868599 -3.9363108053803444 5.01
      vertex -2.539143346250057 -3.9131734147667885 5.01
    endloop
  endfacet
  facet normal -0.9627113454405772 0.2705307105671991 0
    outer loop
      vertex -2.5557096898555756 -3.9604904651641846 4.4
      vertex -2.548914983868599 -3.9363108053803444 5.01
      vertex -2.548914983868599 -3.9363108053803444 4.4
    endloop
  endfacet
  facet normal -0.9627113454405772 0.2705307105671991 0
    outer loop
      vertex -2.5557096898555756 -3.9604904651641846 4.4
      vertex -2.5557096898555756 -3.9604904651641846 5.01
      vertex -2.548914983868599 -3.9363108053803444 5.01
    endloop
  endfacet
  facet normal -0.9890265703042261 0.1477377515473269 0
    outer loop
      vertex -2.5594203025102615 -3.985331065952778 4.4
      vertex -2.5557096898555756 -3.9604904651641846 5.01
      vertex -2.5557096898555756 -3.9604904651641846 4.4
    endloop
  endfacet
  facet normal -0.9890265703042261 0.1477377515473269 0
    outer loop
      vertex -2.5594203025102615 -3.985331065952778 4.4
      vertex -2.5594203025102615 -3.985331065952778 5.01
      vertex -2.5557096898555756 -3.9604904651641846 5.01
    endloop
  endfacet
  facet normal -0.9990874560061754 0.042711301210669794 0
    outer loop
      vertex -2.5601500049233437 -4.002400003373623 4.4
      vertex -2.5594203025102615 -3.985331065952778 5.01
      vertex -2.5594203025102615 -3.985331065952778 4.4
    endloop
  endfacet
  facet normal -0.9990874560061754 0.042711301210669794 0
    outer loop
      vertex -2.5601500049233437 -4.002400003373623 4.4
      vertex -2.5601500049233437 -4.002400003373623 5.01
      vertex -2.5594203025102615 -3.985331065952778 5.01
    endloop
  endfacet
  facet normal -1 0 0
    outer loop
      vertex -2.5601500049233437 -4.5856000036001205 4.4
      vertex -2.5601500049233437 -4.002400003373623 5.01
      vertex -2.5601500049233437 -4.002400003373623 4.4
    endloop
  endfacet
  facet normal -1 0 0
    outer loop
      vertex -2.5601500049233437 -4.5856000036001205 4.4
      vertex -2.5601500049233437 -4.5856000036001205 5.01
      vertex -2.5601500049233437 -4.002400003373623 5.01
    endloop
  endfacet
  facet normal -0.9980267163734319 -0.06279071113520923 0
    outer loop
      vertex -2.558572940528393 -4.610666647553444 4.4
      vertex -2.5601500049233437 -4.5856000036001205 5.01
      vertex -2.5601500049233437 -4.5856000036001205 4.4
    endloop
  endfacet
  facet normal -0.9980267163734319 -0.06279071113520923 0
    outer loop
      vertex -2.558572940528393 -4.610666647553444 4.4
      vertex -2.558572940528393 -4.610666647553444 5.01
      vertex -2.5601500049233437 -4.5856000036001205 5.01
    endloop
  endfacet
  facet normal -0.9822872496591859 -0.18738132019225445 0
    outer loop
      vertex -2.553866632282734 -4.635337978601456 4.4
      vertex -2.558572940528393 -4.610666647553444 5.01
      vertex -2.558572940528393 -4.610666647553444 4.4
    endloop
  endfacet
  facet normal -0.9822872496591859 -0.18738132019225445 0
    outer loop
      vertex -2.553866632282734 -4.635337978601456 4.4
      vertex -2.553866632282734 -4.635337978601456 5.01
      vertex -2.558572940528393 -4.610666647553444 5.01
    endloop
  endfacet
  facet normal -0.9510564981707569 -0.3090170501560989 0
    outer loop
      vertex -2.546105295419693 -4.659224912524223 4.4
      vertex -2.553866632282734 -4.635337978601456 5.01
      vertex -2.553866632282734 -4.635337978601456 4.4
    endloop
  endfacet
  facet normal -0.9510564981707569 -0.3090170501560989 0
    outer loop
      vertex -2.546105295419693 -4.659224912524223 4.4
      vertex -2.546105295419693 -4.659224912524223 5.01
      vertex -2.553866632282734 -4.635337978601456 5.01
    endloop
  endfacet
  facet normal -0.9048270988233503 -0.42577919305071626 0
    outer loop
      vertex -2.535411335527897 -4.681950740516186 4.4
      vertex -2.546105295419693 -4.659224912524223 5.01
      vertex -2.546105295419693 -4.659224912524223 4.4
    endloop
  endfacet
  facet normal -0.9048270988233503 -0.42577919305071626 0
    outer loop
      vertex -2.535411335527897 -4.681950740516186 4.4
      vertex -2.535411335527897 -4.681950740516186 5.01
      vertex -2.546105295419693 -4.659224912524223 5.01
    endloop
  endfacet
  facet normal -0.8443279826315864 -0.5358267049571863 0
    outer loop
      vertex -2.5219534039497375 -4.703157052397728 4.4
      vertex -2.535411335527897 -4.681950740516186 5.01
      vertex -2.535411335527897 -4.681950740516186 4.4
    endloop
  endfacet
  facet normal -0.8443279826315864 -0.5358267049571863 0
    outer loop
      vertex -2.5219534039497375 -4.703157052397728 4.4
      vertex -2.5219534039497375 -4.703157052397728 5.01
      vertex -2.535411335527897 -4.681950740516186 5.01
    endloop
  endfacet
  facet normal -0.7705132133307215 -0.6374240253416605 0
    outer loop
      vertex -2.5059437304735184 -4.722509421408176 4.4
      vertex -2.5219534039497375 -4.703157052397728 5.01
      vertex -2.5219534039497375 -4.703157052397728 4.4
    endloop
  endfacet
  facet normal -0.7705132133307215 -0.6374240253416605 0
    outer loop
      vertex -2.5059437304735184 -4.722509421408176 4.4
      vertex -2.5059437304735184 -4.722509421408176 5.01
      vertex -2.5219534039497375 -4.703157052397728 5.01
    endloop
  endfacet
  facet normal -0.6845470684535088 -0.7289686626129461 0
    outer loop
      vertex -2.487634800374508 -4.739702649414539 4.4
      vertex -2.5059437304735184 -4.722509421408176 5.01
      vertex -2.5059437304735184 -4.722509421408176 4.4
    endloop
  endfacet
  facet normal -0.6845470684535088 -0.7289686626129461 0
    outer loop
      vertex -2.487634800374508 -4.739702649414539 4.4
      vertex -2.487634800374508 -4.739702649414539 5.01
      vertex -2.5059437304735184 -4.722509421408176 5.01
    endloop
  endfacet
  facet normal -0.5877852810063274 -0.8090169735131104 0
    outer loop
      vertex -2.46731536090374 -4.754465587437153 4.4
      vertex -2.487634800374508 -4.739702649414539 5.01
      vertex -2.487634800374508 -4.739702649414539 4.4
    endloop
  endfacet
  facet normal -0.5877852810063274 -0.8090169735131104 0
    outer loop
      vertex -2.46731536090374 -4.754465587437153 4.4
      vertex -2.46731536090374 -4.754465587437153 5.01
      vertex -2.487634800374508 -4.739702649414539 5.01
    endloop
  endfacet
  facet normal -0.48175367942537256 -0.8763066771171582 0
    outer loop
      vertex -2.445305861532688 -4.766565412282944 4.4
      vertex -2.46731536090374 -4.754465587437153 5.01
      vertex -2.46731536090374 -4.754465587437153 4.4
    endloop
  endfacet
  facet normal -0.48175367942537256 -0.8763066771171582 0
    outer loop
      vertex -2.445305861532688 -4.766565412282944 4.4
      vertex -2.445305861532688 -4.766565412282944 5.01
      vertex -2.46731536090374 -4.754465587437153 5.01
    endloop
  endfacet
  facet normal -0.36812462937005025 -0.929776455526361 0
    outer loop
      vertex -2.4219534024596214 -4.775811307132244 4.4
      vertex -2.445305861532688 -4.766565412282944 5.01
      vertex -2.445305861532688 -4.766565412282944 4.4
    endloop
  endfacet
  facet normal -0.36812462937005025 -0.929776455526361 0
    outer loop
      vertex -2.4219534024596214 -4.775811307132244 4.4
      vertex -2.4219534024596214 -4.775811307132244 5.01
      vertex -2.445305861532688 -4.766565412282944 5.01
    endloop
  endfacet
  facet normal -0.2486899803399332 -0.9685831372053324 0
    outer loop
      vertex -2.3976262658834457 -4.782057456672192 4.4
      vertex -2.4219534024596214 -4.775811307132244 5.01
      vertex -2.4219534024596214 -4.775811307132244 4.4
    endloop
  endfacet
  facet normal -0.2486899803399332 -0.9685831372053324 0
    outer loop
      vertex -2.3976262658834457 -4.782057456672192 4.4
      vertex -2.3976262658834457 -4.782057456672192 5.01
      vertex -2.4219534024596214 -4.775811307132244 5.01
    endloop
  endfacet
  facet normal -0.12533310897204075 -0.9921147170541331 0
    outer loop
      vertex -2.3727081045508385 -4.785205349326134 4.4
      vertex -2.3976262658834457 -4.782057456672192 5.01
      vertex -2.3976262658834457 -4.782057456672192 4.4
    endloop
  endfacet
  facet normal -0.12533310897204075 -0.9921147170541331 0
    outer loop
      vertex -2.3727081045508385 -4.785205349326134 4.4
      vertex -2.3727081045508385 -4.785205349326134 5.01
      vertex -2.3976262658834457 -4.782057456672192 5.01
    endloop
  endfacet
  facet normal -0.03141099607720523 -0.9995065529177073 0
    outer loop
      vertex -2.3601500019431114 -4.785600006580353 4.4
      vertex -2.3727081045508385 -4.785205349326134 5.01
      vertex -2.3727081045508385 -4.785205349326134 4.4
    endloop
  endfacet
  facet normal -0.03141099607720523 -0.9995065529177073 0
    outer loop
      vertex -2.3601500019431114 -4.785600006580353 4.4
      vertex -2.3601500019431114 -4.785600006580353 5.01
      vertex -2.3727081045508385 -4.785205349326134 5.01
    endloop
  endfacet
  facet normal 0 -1 0
    outer loop
      vertex 2.752949997782707 -4.785600006580353 4.4
      vertex -2.3601500019431114 -4.785600006580353 5.01
      vertex -2.3601500019431114 -4.785600006580353 4.4
    endloop
  endfacet
  facet normal 0 -1 0
    outer loop
      vertex 2.752949997782707 -4.785600006580353 4.4
      vertex 2.752949997782707 -4.785600006580353 5.01
      vertex -2.3601500019431114 -4.785600006580353 5.01
    endloop
  endfacet
  facet normal 0.06279071113520923 -0.9980267163734319 0
    outer loop
      vertex 2.7780166417360306 -4.784022942185402 4.4
      vertex 2.752949997782707 -4.785600006580353 5.01
      vertex 2.752949997782707 -4.785600006580353 4.4
    endloop
  endfacet
  facet normal 0.06279071113520923 -0.9980267163734319 0
    outer loop
      vertex 2.7780166417360306 -4.784022942185402 4.4
      vertex 2.7780166417360306 -4.784022942185402 5.01
      vertex 2.752949997782707 -4.785600006580353 5.01
    endloop
  endfacet
  facet normal 0 0 -1
    outer loop
      vertex 2.82657490670681 -4.771555297076702 4.4
      vertex 2.8026879727840424 -4.779316633939743 4.4
      vertex 2.7780166417360306 -4.784022942185402 4.4
    endloop
  endfacet
  facet normal 0 0 -1
    outer loop
      vertex 2.82657490670681 -4.771555297076702 4.4
      vertex 2.889859415590763 -4.7313937321305275 4.4
      vertex 2.8493007346987724 -4.760861337184906 4.4
    endloop
  endfacet
  facet normal 0 0 -1
    outer loop
      vertex 2.889859415590763 -4.7313937321305275 4.4
      vertex 2.8705070465803146 -4.747403405606747 4.4
      vertex 2.8493007346987724 -4.760861337184906 4.4
    endloop
  endfacet
  facet normal 0 0 -1
    outer loop
      vertex 2.82657490670681 -4.771555297076702 4.4
      vertex 2.907052643597126 -4.713084802031517 4.4
      vertex 2.889859415590763 -4.7313937321305275 4.4
    endloop
  endfacet
  facet normal 0 0 -1
    outer loop
      vertex 2.9339154064655304 -4.670755863189697 4.4
      vertex 2.9218155816197395 -4.692765362560749 4.4
      vertex 2.907052643597126 -4.713084802031517 4.4
    endloop
  endfacet
  facet normal 0 0 -1
    outer loop
      vertex 2.82657490670681 -4.771555297076702 4.4
      vertex 2.9339154064655304 -4.670755863189697 4.4
      vertex 2.907052643597126 -4.713084802031517 4.4
    endloop
  endfacet
  facet normal 0 0 -1
    outer loop
      vertex 2.82657490670681 -4.771555297076702 4.4
      vertex 2.9525553435087204 -4.598158106207848 4.4
      vertex 2.9339154064655304 -4.670755863189697 4.4
    endloop
  endfacet
  facet normal 0 0 -1
    outer loop
      vertex 2.9339154064655304 -4.670755863189697 4.4
      vertex 2.9525553435087204 -4.598158106207848 4.4
      vertex 2.943161301314831 -4.6474034041166306 4.4
    endloop
  endfacet
  facet normal 0 0 -1
    outer loop
      vertex 2.943161301314831 -4.6474034041166306 4.4
      vertex 2.9525553435087204 -4.598158106207848 4.4
      vertex 2.9494074508547783 -4.623076267540455 4.4
    endloop
  endfacet
  facet normal 0 0 -1
    outer loop
      vertex 2.82657490670681 -4.771555297076702 4.4
      vertex 2.7780166417360306 -4.784022942185402 4.4
      vertex 2.9525553435087204 -4.598158106207848 4.4
    endloop
  endfacet
  facet normal 0 0 -1
    outer loop
      vertex 2.9525553435087204 -4.598158106207848 4.4
      vertex 2.752949997782707 -4.785600006580353 4.4
      vertex 2.9529500007629395 -4.5856000036001205 4.4
    endloop
  endfacet
  facet normal 0 0 -1
    outer loop
      vertex 2.752949997782707 -4.785600006580353 4.4
      vertex 2.7734366059303284 -3.8034520223736763 4.4
      vertex 2.9529500007629395 -4.002400003373623 4.4
    endloop
  endfacet
  facet normal 0 0 -1
    outer loop
      vertex 2.938905291259289 -3.92877509444952 4.4
      vertex 2.9466666281223297 -3.9526620283722878 4.4
      vertex 2.9513729363679886 -3.9773333594202995 4.4
    endloop
  endfacet
  facet normal 0 0 -1
    outer loop
      vertex 2.9282113313674927 -3.9060492664575577 4.4
      vertex 2.898743726313114 -3.865490585565567 4.4
      vertex 2.9147533997893333 -3.8848429545760155 4.4
    endloop
  endfacet
  facet normal 0 0 -1
    outer loop
      vertex 2.9282113313674927 -3.9060492664575577 4.4
      vertex 2.938905291259289 -3.92877509444952 4.4
      vertex 2.898743726313114 -3.865490585565567 4.4
    endloop
  endfacet
  facet normal 0 0 -1
    outer loop
      vertex 2.898743726313114 -3.865490585565567 4.4
      vertex 2.938905291259289 -3.92877509444952 4.4
      vertex 2.8804347962141037 -3.848297357559204 4.4
    endloop
  endfacet
  facet normal 0 0 -1
    outer loop
      vertex 2.8804347962141037 -3.848297357559204 4.4
      vertex 2.838105857372284 -3.8214345946907997 4.4
      vertex 2.8601153567433357 -3.8335344195365906 4.4
    endloop
  endfacet
  facet normal 0 0 -1
    outer loop
      vertex 2.8804347962141037 -3.848297357559204 4.4
      vertex 2.938905291259289 -3.92877509444952 4.4
      vertex 2.838105857372284 -3.8214345946907997 4.4
    endloop
  endfacet
  facet normal 0 0 -1
    outer loop
      vertex 2.838105857372284 -3.8214345946907997 4.4
      vertex 2.938905291259289 -3.92877509444952 4.4
      vertex 2.7734366059303284 -3.8034520223736763 4.4
    endloop
  endfacet
  facet normal 0 0 -1
    outer loop
      vertex 2.8147533982992172 -3.8121886998414993 4.4
      vertex 2.838105857372284 -3.8214345946907997 4.4
      vertex 2.7734366059303284 -3.8034520223736763 4.4
    endloop
  endfacet
  facet normal 0 0 -1
    outer loop
      vertex 2.7904262617230415 -3.805942550301552 4.4
      vertex 2.8147533982992172 -3.8121886998414993 4.4
      vertex 2.7734366059303284 -3.8034520223736763 4.4
    endloop
  endfacet
  facet normal 0 0 -1
    outer loop
      vertex 2.7734366059303284 -3.8034520223736763 4.4
      vertex 2.938905291259289 -3.92877509444952 4.4
      vertex 2.9513729363679886 -3.9773333594202995 4.4
    endloop
  endfacet
  facet normal 0 0 -1
    outer loop
      vertex 2.9529500007629395 -4.002400003373623 4.4
      vertex 2.7734366059303284 -3.8034520223736763 4.4
      vertex 2.9513729363679886 -3.9773333594202995 4.4
    endloop
  endfacet
  facet normal 0 0 -1
    outer loop
      vertex 2.9529500007629395 -4.5856000036001205 4.4
      vertex 2.752949997782707 -4.785600006580353 4.4
      vertex 2.9529500007629395 -4.002400003373623 4.4
    endloop
  endfacet
  facet normal 0 0 -1
    outer loop
      vertex 2.7734366059303284 -3.8034520223736763 4.4
      vertex 2.752949997782707 -4.785600006580353 4.4
      vertex 1.3729500025510788 -3.6592373475432396 4.4
    endloop
  endfacet
  facet normal 0 0 -1
    outer loop
      vertex -2.3601500019431114 -4.785600006580353 4.4
      vertex -2.3807229325175285 -3.80346093326807 4.4
      vertex -0.9868500009179115 -3.6593160554766655 4.4
    endloop
  endfacet
  facet normal 0 0 -1
    outer loop
      vertex 1.3589052930474281 4.6563249081373215 4.4
      vertex 1.366666629910469 4.632437974214554 4.4
      vertex 1.371372938156128 4.607766643166542 4.4
    endloop
  endfacet
  facet normal 0 0 -1
    outer loop
      vertex 1.348211333155632 4.679050736129284 4.4
      vertex 1.3187437281012535 4.719609417021275 4.4
      vertex 1.3347534015774727 4.700257048010826 4.4
    endloop
  endfacet
  facet normal 0 0 -1
    outer loop
      vertex 1.348211333155632 4.679050736129284 4.4
      vertex 1.3589052930474281 4.6563249081373215 4.4
      vertex 1.3187437281012535 4.719609417021275 4.4
    endloop
  endfacet
  facet normal 0 0 -1
    outer loop
      vertex 1.3187437281012535 4.719609417021275 4.4
      vertex 1.3589052930474281 4.6563249081373215 4.4
      vertex 1.300434798002243 4.7368026450276375 4.4
    endloop
  endfacet
  facet normal 0 0 -1
    outer loop
      vertex 1.300434798002243 4.7368026450276375 4.4
      vertex 1.2581058591604233 4.763665407896042 4.4
      vertex 1.280115358531475 4.751565583050251 4.4
    endloop
  endfacet
  facet normal 0 0 -1
    outer loop
      vertex 1.300434798002243 4.7368026450276375 4.4
      vertex 1.3589052930474281 4.6563249081373215 4.4
      vertex 1.2581058591604233 4.763665407896042 4.4
    endloop
  endfacet
  facet normal 0 0 -1
    outer loop
      vertex 1.2581058591604233 4.763665407896042 4.4
      vertex 1.3589052930474281 4.6563249081373215 4.4
      vertex 1.1855081021785736 4.782305344939232 4.4
    endloop
  endfacet
  facet normal 0 0 -1
    outer loop
      vertex 1.2347534000873566 4.772911302745342 4.4
      vertex 1.2581058591604233 4.763665407896042 4.4
      vertex 1.1855081021785736 4.782305344939232 4.4
    endloop
  endfacet
  facet normal 0 0 -1
    outer loop
      vertex 1.2104262635111809 4.77915745228529 4.4
      vertex 1.2347534000873566 4.772911302745342 4.4
      vertex 1.1855081021785736 4.782305344939232 4.4
    endloop
  endfacet
  facet normal 0 0 -1
    outer loop
      vertex 1.1855081021785736 4.782305344939232 4.4
      vertex 1.3589052930474281 4.6563249081373215 4.4
      vertex 1.371372938156128 4.607766643166542 4.4
    endloop
  endfacet
  facet normal 0 0 -1
    outer loop
      vertex 1.3729500025510788 4.582699999213219 4.4
      vertex 1.1855081021785736 4.782305344939232 4.4
      vertex 1.371372938156128 4.607766643166542 4.4
    endloop
  endfacet
  facet normal 0 0 -1
    outer loop
      vertex 1.3729500025510788 4.582699999213219 4.4
      vertex 1.1729499995708466 4.782700002193451 4.4
      vertex 1.1855081021785736 4.782305344939232 4.4
    endloop
  endfacet
  facet normal 0 0 -1
    outer loop
      vertex 1.3729500025510788 4.582699999213219 4.4
      vertex 0.20995000004768372 4.782700002193451 4.4
      vertex 1.1729499995708466 4.782700002193451 4.4
    endloop
  endfacet
  facet normal 0 0 -1
    outer loop
      vertex 0.16021202504634857 4.776416629552841 4.4
      vertex 0.18488335609436035 4.7811229377985 4.4
      vertex 0.13632509112358093 4.7686552926898 4.4
    endloop
  endfacet
  facet normal 0 0 -1
    outer loop
      vertex 0.13632509112358093 4.7686552926898 4.4
      vertex 0.10866213589906693 4.755155116319656 4.4
      vertex 0.1135992631316185 4.757961332798004 4.4
    endloop
  endfacet
  facet normal 0 0 -1
    outer loop
      vertex 0.13632509112358093 4.7686552926898 4.4
      vertex 0.18488335609436035 4.7811229377985 4.4
      vertex 0.10866213589906693 4.755155116319656 4.4
    endloop
  endfacet
  facet normal 0 0 -1
    outer loop
      vertex 0.10866213589906693 4.755155116319656 4.4
      vertex 0.18488335609436035 4.7811229377985 4.4
      vertex 0.20995000004768372 4.782700002193451 4.4
    endloop
  endfacet
  facet normal 0 0 -1
    outer loop
      vertex 1.3729500025510788 4.582699999213219 4.4
      vertex 0.10866213589906693 4.755155116319656 4.4
      vertex 0.20995000004768372 4.782700002193451 4.4
    endloop
  endfacet
  facet normal 0 0 -1
    outer loop
      vertex -2.5532314255833626 3.0840859040617943 4.4
      vertex -2.454637862741947 3.249655120074749 4.4
      vertex -2.5533500015735626 3.0772000029683113 4.4
    endloop
  endfacet
  facet normal 0 0 -1
    outer loop
      vertex -2.550792269408703 3.109083391726017 4.4
      vertex -2.5251901149749756 3.179527774453163 4.4
      vertex -2.5532314255833626 3.0840859040617943 4.4
    endloop
  endfacet
  facet normal 0 0 -1
    outer loop
      vertex -2.454637862741947 3.249655120074749 4.4
      vertex -2.494343563914299 3.219047859311104 4.4
      vertex -2.475453533232212 3.235600531101227 4.4
    endloop
  endfacet
  facet normal 0 0 -1
    outer loop
      vertex -2.454637862741947 3.249655120074749 4.4
      vertex -2.5110100358724594 3.2002581655979156 4.4
      vertex -2.494343563914299 3.219047859311104 4.4
    endloop
  endfacet
  facet normal 0 0 -1
    outer loop
      vertex -2.454637862741947 3.249655120074749 4.4
      vertex -2.5251901149749756 3.179527774453163 4.4
      vertex -2.5110100358724594 3.2002581655979156 4.4
    endloop
  endfacet
  facet normal 0 0 -1
    outer loop
      vertex -2.5452393293380737 3.133578062057495 4.4
      vertex -2.5366601794958115 3.1571836099028587 4.4
      vertex -2.550792269408703 3.109083391726017 4.4
    endloop
  endfacet
  facet normal 0 0 -1
    outer loop
      vertex -2.550792269408703 3.109083391726017 4.4
      vertex -2.5366601794958115 3.1571836099028587 4.4
      vertex -2.5251901149749756 3.179527774453163 4.4
    endloop
  endfacet
  facet normal 0 0 -1
    outer loop
      vertex -2.5532314255833626 3.0840859040617943 4.4
      vertex -2.5251901149749756 3.179527774453163 4.4
      vertex -2.454637862741947 3.249655120074749 4.4
    endloop
  endfacet
  facet normal 0 0 -1
    outer loop
      vertex -2.4151533991098404 2.3105886951088905 4.4
      vertex -2.3659081012010574 2.301194652915001 4.4
      vertex -2.3908262625336647 2.304342545568943 4.4
    endloop
  endfacet
  facet normal 0 0 -1
    outer loop
      vertex -2.539305292069912 2.4271750897169113 4.4
      vertex -2.547066628932953 2.451062023639679 4.4
      vertex -2.5517729371786118 2.4757333546876907 4.4
    endloop
  endfacet
  facet normal 0 0 -1
    outer loop
      vertex -2.528611332178116 2.404449261724949 4.4
      vertex -2.4991437271237373 2.363890580832958 4.4
      vertex -2.5151534005999565 2.3832429498434067 4.4
    endloop
  endfacet
  facet normal 0 0 -1
    outer loop
      vertex -2.528611332178116 2.404449261724949 4.4
      vertex -2.539305292069912 2.4271750897169113 4.4
      vertex -2.4991437271237373 2.363890580832958 4.4
    endloop
  endfacet
  facet normal 0 0 -1
    outer loop
      vertex -2.4991437271237373 2.363890580832958 4.4
      vertex -2.539305292069912 2.4271750897169113 4.4
      vertex -2.480834797024727 2.3466973528265953 4.4
    endloop
  endfacet
  facet normal 0 0 -1
    outer loop
      vertex -2.480834797024727 2.3466973528265953 4.4
      vertex -2.438505858182907 2.319834589958191 4.4
      vertex -2.460515357553959 2.331934414803982 4.4
    endloop
  endfacet
  facet normal 0 0 -1
    outer loop
      vertex -2.480834797024727 2.3466973528265953 4.4
      vertex -2.539305292069912 2.4271750897169113 4.4
      vertex -2.438505858182907 2.319834589958191 4.4
    endloop
  endfacet
  facet normal 0 0 -1
    outer loop
      vertex -2.438505858182907 2.319834589958191 4.4
      vertex -2.3407918959856033 2.301194652915001 4.4
      vertex -2.3659081012010574 2.301194652915001 4.4
    endloop
  endfacet
  facet normal 0 0 -1
    outer loop
      vertex 1.3729500025510788 4.582699999213219 4.4
      vertex 1.3729500025510788 -3.6592373475432396 4.4
      vertex -0.9868500009179115 2.7398503348231316 4.4
    endloop
  endfacet
  facet normal 0 0 -1
    outer loop
      vertex -0.9868500009179115 2.7398503348231316 4.4
      vertex 1.3729500025510788 -3.6592373475432396 4.4
      vertex -0.9868500009179115 -3.6593160554766655 4.4
    endloop
  endfacet
  facet normal 0 0 -1
    outer loop
      vertex -2.4151533991098404 2.3105886951088905 4.4
      vertex -2.438505858182907 2.319834589958191 4.4
      vertex -2.3659081012010574 2.301194652915001 4.4
    endloop
  endfacet
  facet normal 0 0 -1
    outer loop
      vertex -2.539305292069912 2.4271750897169113 4.4
      vertex -2.3407918959856033 2.301194652915001 4.4
      vertex -2.438505858182907 2.319834589958191 4.4
    endloop
  endfacet
  facet normal 0 0 -1
    outer loop
      vertex -2.539305292069912 2.4271750897169113 4.4
      vertex -2.2915465980768204 2.3105886951088905 4.4
      vertex -2.3407918959856033 2.301194652915001 4.4
    endloop
  endfacet
  facet normal 0 0 -1
    outer loop
      vertex -2.3407918959856033 2.301194652915001 4.4
      vertex -2.2915465980768204 2.3105886951088905 4.4
      vertex -2.315873734652996 2.304342545568943 4.4
    endloop
  endfacet
  facet normal 0 0 -1
    outer loop
      vertex -2.539305292069912 2.4271750897169113 4.4
      vertex -2.5517729371786118 2.4757333546876907 4.4
      vertex -2.2915465980768204 2.3105886951088905 4.4
    endloop
  endfacet
  facet normal 0 0 -1
    outer loop
      vertex -2.2915465980768204 2.3105886951088905 4.4
      vertex -2.5517729371786118 2.4757333546876907 4.4
      vertex -2.5533500015735626 2.500799998641014 4.4
    endloop
  endfacet
  facet normal 0 0 -1
    outer loop
      vertex -2.29084350168705 2.3108185827732086 4.4
      vertex -2.2915465980768204 2.3105886951088905 4.4
      vertex -2.5533500015735626 2.500799998641014 4.4
    endloop
  endfacet
  facet normal 0 0 -1
    outer loop
      vertex -2.5533500015735626 3.0772000029683113 4.4
      vertex -2.29084350168705 2.3108185827732086 4.4
      vertex -2.5533500015735626 2.500799998641014 4.4
    endloop
  endfacet
  facet normal 0 0 -1
    outer loop
      vertex -2.5533500015735626 3.0772000029683113 4.4
      vertex -2.454637862741947 3.249655120074749 4.4
      vertex -2.29084350168705 2.3108185827732086 4.4
    endloop
  endfacet
  facet normal 0 0 -1
    outer loop
      vertex -2.29084350168705 2.3108185827732086 4.4
      vertex -2.454637862741947 3.249655120074749 4.4
      vertex -0.9868500009179115 2.7398503348231316 4.4
    endloop
  endfacet
  facet normal 0 0 -1
    outer loop
      vertex -0.9868500009179115 2.7398503348231316 4.4
      vertex -2.454637862741947 3.249655120074749 4.4
      vertex 0.10866213589906693 4.755155116319656 4.4
    endloop
  endfacet
  facet normal 0 0 -1
    outer loop
      vertex 1.3729500025510788 4.582699999213219 4.4
      vertex -0.9868500009179115 2.7398503348231316 4.4
      vertex 0.10866213589906693 4.755155116319656 4.4
    endloop
  endfacet
  facet normal 0 0 -1
    outer loop
      vertex -2.4525125846266747 -3.825004532933235 4.4
      vertex -2.4295507296919823 -3.814827248454094 4.4
      vertex -2.4937273040413857 -3.853547379374504 4.4
    endloop
  endfacet
  facet normal 0 0 -1
    outer loop
      vertex -2.3807229325175285 -3.80346093326807 4.4
      vertex -2.4295507296919823 -3.814827248454094 4.4
      vertex -2.4054943844676018 -3.8076080977916718 4.4
    endloop
  endfacet
  facet normal 0 0 -1
    outer loop
      vertex -2.4740178287029266 -3.8379794508218765 4.4
      vertex -2.4525125846266747 -3.825004532933235 4.4
      vertex -2.4937273040413857 -3.853547379374504 4.4
    endloop
  endfacet
  facet normal 0 0 -1
    outer loop
      vertex -2.4937273040413857 -3.853547379374504 4.4
      vertex -2.4295507296919823 -3.814827248454094 4.4
      vertex -2.3807229325175285 -3.80346093326807 4.4
    endloop
  endfacet
  facet normal 0 0 -1
    outer loop
      vertex -2.5113301873207092 -3.8714627996087074 4.4
      vertex -2.548914983868599 -3.9363108053803444 4.4
      vertex -2.526548869907856 -3.8914431780576706 4.4
    endloop
  endfacet
  facet normal 0 0 -1
    outer loop
      vertex -2.5113301873207092 -3.8714627996087074 4.4
      vertex -2.4937273040413857 -3.853547379374504 4.4
      vertex -2.548914983868599 -3.9363108053803444 4.4
    endloop
  endfacet
  facet normal 0 0 -1
    outer loop
      vertex -2.539143346250057 -3.9131734147667885 4.4
      vertex -2.526548869907856 -3.8914431780576706 4.4
      vertex -2.548914983868599 -3.9363108053803444 4.4
    endloop
  endfacet
  facet normal 0 0 -1
    outer loop
      vertex -2.548914983868599 -3.9363108053803444 4.4
      vertex -2.5601500049233437 -4.002400003373623 4.4
      vertex -2.5557096898555756 -3.9604904651641846 4.4
    endloop
  endfacet
  facet normal 0 0 -1
    outer loop
      vertex -2.5557096898555756 -3.9604904651641846 4.4
      vertex -2.5601500049233437 -4.002400003373623 4.4
      vertex -2.5594203025102615 -3.985331065952778 4.4
    endloop
  endfacet
  facet normal 0 0 -1
    outer loop
      vertex -2.548914983868599 -3.9363108053803444 4.4
      vertex -2.4937273040413857 -3.853547379374504 4.4
      vertex -2.5601500049233437 -4.002400003373623 4.4
    endloop
  endfacet
  facet normal 0 0 -1
    outer loop
      vertex -2.5601500049233437 -4.002400003373623 4.4
      vertex -2.4937273040413857 -3.853547379374504 4.4
      vertex -2.3807229325175285 -3.80346093326807 4.4
    endloop
  endfacet
  facet normal 0 0 -1
    outer loop
      vertex -2.5601500049233437 -4.5856000036001205 4.4
      vertex -2.3601500019431114 -4.785600006580353 4.4
      vertex -2.3727081045508385 -4.785205349326134 4.4
    endloop
  endfacet
  facet normal 0 0 -1
    outer loop
      vertex -2.46731536090374 -4.754465587437153 4.4
      vertex -2.487634800374508 -4.739702649414539 4.4
      vertex -2.445305861532688 -4.766565412282944 4.4
    endloop
  endfacet
  facet normal 0 0 -1
    outer loop
      vertex -2.553866632282734 -4.635337978601456 4.4
      vertex -2.558572940528393 -4.610666647553444 4.4
      vertex -2.546105295419693 -4.659224912524223 4.4
    endloop
  endfacet
  facet normal 0 0 -1
    outer loop
      vertex -2.5059437304735184 -4.722509421408176 4.4
      vertex -2.5219534039497375 -4.703157052397728 4.4
      vertex -2.535411335527897 -4.681950740516186 4.4
    endloop
  endfacet
  facet normal 0 0 -1
    outer loop
      vertex -2.546105295419693 -4.659224912524223 4.4
      vertex -2.5059437304735184 -4.722509421408176 4.4
      vertex -2.535411335527897 -4.681950740516186 4.4
    endloop
  endfacet
  facet normal 0 0 -1
    outer loop
      vertex -2.546105295419693 -4.659224912524223 4.4
      vertex -2.487634800374508 -4.739702649414539 4.4
      vertex -2.5059437304735184 -4.722509421408176 4.4
    endloop
  endfacet
  facet normal 0 0 -1
    outer loop
      vertex -2.445305861532688 -4.766565412282944 4.4
      vertex -2.487634800374508 -4.739702649414539 4.4
      vertex -2.546105295419693 -4.659224912524223 4.4
    endloop
  endfacet
  facet normal 0 0 -1
    outer loop
      vertex -2.3727081045508385 -4.785205349326134 4.4
      vertex -2.445305861532688 -4.766565412282944 4.4
      vertex -2.546105295419693 -4.659224912524223 4.4
    endloop
  endfacet
  facet normal 0 0 -1
    outer loop
      vertex -2.3727081045508385 -4.785205349326134 4.4
      vertex -2.4219534024596214 -4.775811307132244 4.4
      vertex -2.445305861532688 -4.766565412282944 4.4
    endloop
  endfacet
  facet normal 0 0 -1
    outer loop
      vertex -2.3727081045508385 -4.785205349326134 4.4
      vertex -2.3976262658834457 -4.782057456672192 4.4
      vertex -2.4219534024596214 -4.775811307132244 4.4
    endloop
  endfacet
  facet normal 0 0 -1
    outer loop
      vertex -2.558572940528393 -4.610666647553444 4.4
      vertex -2.3727081045508385 -4.785205349326134 4.4
      vertex -2.546105295419693 -4.659224912524223 4.4
    endloop
  endfacet
  facet normal 0 0 -1
    outer loop
      vertex -2.558572940528393 -4.610666647553444 4.4
      vertex -2.5601500049233437 -4.5856000036001205 4.4
      vertex -2.3727081045508385 -4.785205349326134 4.4
    endloop
  endfacet
  facet normal 0 0 -1
    outer loop
      vertex -2.5601500049233437 -4.5856000036001205 4.4
      vertex -2.5601500049233437 -4.002400003373623 4.4
      vertex -2.3601500019431114 -4.785600006580353 4.4
    endloop
  endfacet
  facet normal 0 0 -1
    outer loop
      vertex -2.3601500019431114 -4.785600006580353 4.4
      vertex -2.5601500049233437 -4.002400003373623 4.4
      vertex -2.3807229325175285 -3.80346093326807 4.4
    endloop
  endfacet
  facet normal 0 0 -1
    outer loop
      vertex 1.3729500025510788 -3.6592373475432396 4.4
      vertex -2.3601500019431114 -4.785600006580353 4.4
      vertex -0.9868500009179115 -3.6593160554766655 4.4
    endloop
  endfacet
  facet normal 0 0 -1
    outer loop
      vertex 1.3729500025510788 -3.6592373475432396 4.4
      vertex 2.752949997782707 -4.785600006580353 4.4
      vertex -2.3601500019431114 -4.785600006580353 4.4
    endloop
  endfacet
  facet normal 0 0 -1
    outer loop
      vertex 2.9525553435087204 -4.598158106207848 4.4
      vertex 2.7780166417360306 -4.784022942185402 4.4
      vertex 2.752949997782707 -4.785600006580353 4.4
    endloop
  endfacet
  facet normal 0 0 1
    outer loop
      vertex 2.7780166417360306 -4.784022942185402 5.01
      vertex 2.8026879727840424 -4.779316633939743 5.01
      vertex 2.82657490670681 -4.771555297076702 5.01
    endloop
  endfacet
  facet normal 0 0 1
    outer loop
      vertex 2.8493007346987724 -4.760861337184906 5.01
      vertex 2.889859415590763 -4.7313937321305275 5.01
      vertex 2.82657490670681 -4.771555297076702 5.01
    endloop
  endfacet
  facet normal 0 0 1
    outer loop
      vertex 2.8493007346987724 -4.760861337184906 5.01
      vertex 2.8705070465803146 -4.747403405606747 5.01
      vertex 2.889859415590763 -4.7313937321305275 5.01
    endloop
  endfacet
  facet normal 0 0 1
    outer loop
      vertex 2.889859415590763 -4.7313937321305275 5.01
      vertex 2.907052643597126 -4.713084802031517 5.01
      vertex 2.82657490670681 -4.771555297076702 5.01
    endloop
  endfacet
  facet normal 0 0 1
    outer loop
      vertex 2.907052643597126 -4.713084802031517 5.01
      vertex 2.9218155816197395 -4.692765362560749 5.01
      vertex 2.9339154064655304 -4.670755863189697 5.01
    endloop
  endfacet
  facet normal 0 0 1
    outer loop
      vertex 2.907052643597126 -4.713084802031517 5.01
      vertex 2.9339154064655304 -4.670755863189697 5.01
      vertex 2.82657490670681 -4.771555297076702 5.01
    endloop
  endfacet
  facet normal 0 0 1
    outer loop
      vertex 2.9339154064655304 -4.670755863189697 5.01
      vertex 2.9525553435087204 -4.598158106207848 5.01
      vertex 2.82657490670681 -4.771555297076702 5.01
    endloop
  endfacet
  facet normal 0 0 1
    outer loop
      vertex 2.943161301314831 -4.6474034041166306 5.01
      vertex 2.9525553435087204 -4.598158106207848 5.01
      vertex 2.9339154064655304 -4.670755863189697 5.01
    endloop
  endfacet
  facet normal 0 0 1
    outer loop
      vertex 2.9494074508547783 -4.623076267540455 5.01
      vertex 2.9525553435087204 -4.598158106207848 5.01
      vertex 2.943161301314831 -4.6474034041166306 5.01
    endloop
  endfacet
  facet normal 0 0 1
    outer loop
      vertex 2.9525553435087204 -4.598158106207848 5.01
      vertex 2.7780166417360306 -4.784022942185402 5.01
      vertex 2.82657490670681 -4.771555297076702 5.01
    endloop
  endfacet
  facet normal 0 0 1
    outer loop
      vertex 2.9529500007629395 -4.5856000036001205 5.01
      vertex 2.752949997782707 -4.785600006580353 5.01
      vertex 2.9525553435087204 -4.598158106207848 5.01
    endloop
  endfacet
  facet normal 0 0 1
    outer loop
      vertex 2.9529500007629395 -4.002400003373623 5.01
      vertex 2.7734366059303284 -3.8034520223736763 5.01
      vertex 2.752949997782707 -4.785600006580353 5.01
    endloop
  endfacet
  facet normal 0 0 1
    outer loop
      vertex 2.9513729363679886 -3.9773333594202995 5.01
      vertex 2.9466666281223297 -3.9526620283722878 5.01
      vertex 2.938905291259289 -3.92877509444952 5.01
    endloop
  endfacet
  facet normal 0 0 1
    outer loop
      vertex 2.9147533997893333 -3.8848429545760155 5.01
      vertex 2.898743726313114 -3.865490585565567 5.01
      vertex 2.9282113313674927 -3.9060492664575577 5.01
    endloop
  endfacet
  facet normal 0 0 1
    outer loop
      vertex 2.898743726313114 -3.865490585565567 5.01
      vertex 2.938905291259289 -3.92877509444952 5.01
      vertex 2.9282113313674927 -3.9060492664575577 5.01
    endloop
  endfacet
  facet normal 0 0 1
    outer loop
      vertex 2.8804347962141037 -3.848297357559204 5.01
      vertex 2.938905291259289 -3.92877509444952 5.01
      vertex 2.898743726313114 -3.865490585565567 5.01
    endloop
  endfacet
  facet normal 0 0 1
    outer loop
      vertex 2.8601153567433357 -3.8335344195365906 5.01
      vertex 2.838105857372284 -3.8214345946907997 5.01
      vertex 2.8804347962141037 -3.848297357559204 5.01
    endloop
  endfacet
  facet normal 0 0 1
    outer loop
      vertex 2.838105857372284 -3.8214345946907997 5.01
      vertex 2.938905291259289 -3.92877509444952 5.01
      vertex 2.8804347962141037 -3.848297357559204 5.01
    endloop
  endfacet
  facet normal 0 0 1
    outer loop
      vertex 2.7734366059303284 -3.8034520223736763 5.01
      vertex 2.938905291259289 -3.92877509444952 5.01
      vertex 2.838105857372284 -3.8214345946907997 5.01
    endloop
  endfacet
  facet normal 0 0 1
    outer loop
      vertex 2.7734366059303284 -3.8034520223736763 5.01
      vertex 2.838105857372284 -3.8214345946907997 5.01
      vertex 2.8147533982992172 -3.8121886998414993 5.01
    endloop
  endfacet
  facet normal 0 0 1
    outer loop
      vertex 2.7734366059303284 -3.8034520223736763 5.01
      vertex 2.8147533982992172 -3.8121886998414993 5.01
      vertex 2.7904262617230415 -3.805942550301552 5.01
    endloop
  endfacet
  facet normal 0 0 1
    outer loop
      vertex 2.9513729363679886 -3.9773333594202995 5.01
      vertex 2.938905291259289 -3.92877509444952 5.01
      vertex 2.7734366059303284 -3.8034520223736763 5.01
    endloop
  endfacet
  facet normal 0 0 1
    outer loop
      vertex 2.9513729363679886 -3.9773333594202995 5.01
      vertex 2.7734366059303284 -3.8034520223736763 5.01
      vertex 2.9529500007629395 -4.002400003373623 5.01
    endloop
  endfacet
  facet normal 0 0 1
    outer loop
      vertex 2.9529500007629395 -4.002400003373623 5.01
      vertex 2.752949997782707 -4.785600006580353 5.01
      vertex 2.9529500007629395 -4.5856000036001205 5.01
    endloop
  endfacet
  facet normal 0 0 1
    outer loop
      vertex 1.3729500025510788 -3.6592373475432396 5.01
      vertex 2.752949997782707 -4.785600006580353 5.01
      vertex 2.7734366059303284 -3.8034520223736763 5.01
    endloop
  endfacet
  facet normal 0 0 1
    outer loop
      vertex -0.9868500009179115 -3.6593160554766655 5.01
      vertex -2.3807229325175285 -3.80346093326807 5.01
      vertex -2.3601500019431114 -4.785600006580353 5.01
    endloop
  endfacet
  facet normal 0 0 1
    outer loop
      vertex 1.371372938156128 4.607766643166542 5.01
      vertex 1.366666629910469 4.632437974214554 5.01
      vertex 1.3589052930474281 4.6563249081373215 5.01
    endloop
  endfacet
  facet normal 0 0 1
    outer loop
      vertex 1.3347534015774727 4.700257048010826 5.01
      vertex 1.3187437281012535 4.719609417021275 5.01
      vertex 1.348211333155632 4.679050736129284 5.01
    endloop
  endfacet
  facet normal 0 0 1
    outer loop
      vertex 1.3187437281012535 4.719609417021275 5.01
      vertex 1.3589052930474281 4.6563249081373215 5.01
      vertex 1.348211333155632 4.679050736129284 5.01
    endloop
  endfacet
  facet normal 0 0 1
    outer loop
      vertex 1.300434798002243 4.7368026450276375 5.01
      vertex 1.3589052930474281 4.6563249081373215 5.01
      vertex 1.3187437281012535 4.719609417021275 5.01
    endloop
  endfacet
  facet normal 0 0 1
    outer loop
      vertex 1.280115358531475 4.751565583050251 5.01
      vertex 1.2581058591604233 4.763665407896042 5.01
      vertex 1.300434798002243 4.7368026450276375 5.01
    endloop
  endfacet
  facet normal 0 0 1
    outer loop
      vertex 1.2581058591604233 4.763665407896042 5.01
      vertex 1.3589052930474281 4.6563249081373215 5.01
      vertex 1.300434798002243 4.7368026450276375 5.01
    endloop
  endfacet
  facet normal 0 0 1
    outer loop
      vertex 1.1855081021785736 4.782305344939232 5.01
      vertex 1.3589052930474281 4.6563249081373215 5.01
      vertex 1.2581058591604233 4.763665407896042 5.01
    endloop
  endfacet
  facet normal 0 0 1
    outer loop
      vertex 1.1855081021785736 4.782305344939232 5.01
      vertex 1.2581058591604233 4.763665407896042 5.01
      vertex 1.2347534000873566 4.772911302745342 5.01
    endloop
  endfacet
  facet normal 0 0 1
    outer loop
      vertex 1.1855081021785736 4.782305344939232 5.01
      vertex 1.2347534000873566 4.772911302745342 5.01
      vertex 1.2104262635111809 4.77915745228529 5.01
    endloop
  endfacet
  facet normal 0 0 1
    outer loop
      vertex 1.371372938156128 4.607766643166542 5.01
      vertex 1.3589052930474281 4.6563249081373215 5.01
      vertex 1.1855081021785736 4.782305344939232 5.01
    endloop
  endfacet
  facet normal 0 0 1
    outer loop
      vertex 1.371372938156128 4.607766643166542 5.01
      vertex 1.1855081021785736 4.782305344939232 5.01
      vertex 1.3729500025510788 4.582699999213219 5.01
    endloop
  endfacet
  facet normal 0 0 1
    outer loop
      vertex 1.1855081021785736 4.782305344939232 5.01
      vertex 1.1729499995708466 4.782700002193451 5.01
      vertex 1.3729500025510788 4.582699999213219 5.01
    endloop
  endfacet
  facet normal 0 0 1
    outer loop
      vertex 1.1729499995708466 4.782700002193451 5.01
      vertex 0.20995000004768372 4.782700002193451 5.01
      vertex 1.3729500025510788 4.582699999213219 5.01
    endloop
  endfacet
  facet normal 0 0 1
    outer loop
      vertex 0.13632509112358093 4.7686552926898 5.01
      vertex 0.18488335609436035 4.7811229377985 5.01
      vertex 0.16021202504634857 4.776416629552841 5.01
    endloop
  endfacet
  facet normal 0 0 1
    outer loop
      vertex 0.1135992631316185 4.757961332798004 5.01
      vertex 0.10866213589906693 4.755155116319656 5.01
      vertex 0.13632509112358093 4.7686552926898 5.01
    endloop
  endfacet
  facet normal 0 0 1
    outer loop
      vertex 0.10866213589906693 4.755155116319656 5.01
      vertex 0.18488335609436035 4.7811229377985 5.01
      vertex 0.13632509112358093 4.7686552926898 5.01
    endloop
  endfacet
  facet normal 0 0 1
    outer loop
      vertex 0.20995000004768372 4.782700002193451 5.01
      vertex 0.18488335609436035 4.7811229377985 5.01
      vertex 0.10866213589906693 4.755155116319656 5.01
    endloop
  endfacet
  facet normal 0 0 1
    outer loop
      vertex 0.20995000004768372 4.782700002193451 5.01
      vertex 0.10866213589906693 4.755155116319656 5.01
      vertex 1.3729500025510788 4.582699999213219 5.01
    endloop
  endfacet
  facet normal 0 0 1
    outer loop
      vertex -2.5533500015735626 3.0772000029683113 5.01
      vertex -2.454637862741947 3.249655120074749 5.01
      vertex -2.5532314255833626 3.0840859040617943 5.01
    endloop
  endfacet
  facet normal 0 0 1
    outer loop
      vertex -2.5532314255833626 3.0840859040617943 5.01
      vertex -2.5251901149749756 3.179527774453163 5.01
      vertex -2.550792269408703 3.109083391726017 5.01
    endloop
  endfacet
  facet normal 0 0 1
    outer loop
      vertex -2.475453533232212 3.235600531101227 5.01
      vertex -2.494343563914299 3.219047859311104 5.01
      vertex -2.454637862741947 3.249655120074749 5.01
    endloop
  endfacet
  facet normal 0 0 1
    outer loop
      vertex -2.494343563914299 3.219047859311104 5.01
      vertex -2.5110100358724594 3.2002581655979156 5.01
      vertex -2.454637862741947 3.249655120074749 5.01
    endloop
  endfacet
  facet normal 0 0 1
    outer loop
      vertex -2.5110100358724594 3.2002581655979156 5.01
      vertex -2.5251901149749756 3.179527774453163 5.01
      vertex -2.454637862741947 3.249655120074749 5.01
    endloop
  endfacet
  facet normal 0 0 1
    outer loop
      vertex -2.550792269408703 3.109083391726017 5.01
      vertex -2.5366601794958115 3.1571836099028587 5.01
      vertex -2.5452393293380737 3.133578062057495 5.01
    endloop
  endfacet
  facet normal 0 0 1
    outer loop
      vertex -2.5251901149749756 3.179527774453163 5.01
      vertex -2.5366601794958115 3.1571836099028587 5.01
      vertex -2.550792269408703 3.109083391726017 5.01
    endloop
  endfacet
  facet normal 0 0 1
    outer loop
      vertex -2.454637862741947 3.249655120074749 5.01
      vertex -2.5251901149749756 3.179527774453163 5.01
      vertex -2.5532314255833626 3.0840859040617943 5.01
    endloop
  endfacet
  facet normal 0 0 1
    outer loop
      vertex -2.3908262625336647 2.304342545568943 5.01
      vertex -2.3659081012010574 2.301194652915001 5.01
      vertex -2.4151533991098404 2.3105886951088905 5.01
    endloop
  endfacet
  facet normal 0 0 1
    outer loop
      vertex -2.5517729371786118 2.4757333546876907 5.01
      vertex -2.547066628932953 2.451062023639679 5.01
      vertex -2.539305292069912 2.4271750897169113 5.01
    endloop
  endfacet
  facet normal 0 0 1
    outer loop
      vertex -2.5151534005999565 2.3832429498434067 5.01
      vertex -2.4991437271237373 2.363890580832958 5.01
      vertex -2.528611332178116 2.404449261724949 5.01
    endloop
  endfacet
  facet normal 0 0 1
    outer loop
      vertex -2.4991437271237373 2.363890580832958 5.01
      vertex -2.539305292069912 2.4271750897169113 5.01
      vertex -2.528611332178116 2.404449261724949 5.01
    endloop
  endfacet
  facet normal 0 0 1
    outer loop
      vertex -2.480834797024727 2.3466973528265953 5.01
      vertex -2.539305292069912 2.4271750897169113 5.01
      vertex -2.4991437271237373 2.363890580832958 5.01
    endloop
  endfacet
  facet normal 0 0 1
    outer loop
      vertex -2.460515357553959 2.331934414803982 5.01
      vertex -2.438505858182907 2.319834589958191 5.01
      vertex -2.480834797024727 2.3466973528265953 5.01
    endloop
  endfacet
  facet normal 0 0 1
    outer loop
      vertex -2.438505858182907 2.319834589958191 5.01
      vertex -2.539305292069912 2.4271750897169113 5.01
      vertex -2.480834797024727 2.3466973528265953 5.01
    endloop
  endfacet
  facet normal 0 0 1
    outer loop
      vertex -2.3659081012010574 2.301194652915001 5.01
      vertex -2.3407918959856033 2.301194652915001 5.01
      vertex -2.438505858182907 2.319834589958191 5.01
    endloop
  endfacet
  facet normal 0 0 1
    outer loop
      vertex -0.9868500009179115 2.7398503348231316 5.01
      vertex 1.3729500025510788 -3.6592373475432396 5.01
      vertex 1.3729500025510788 4.582699999213219 5.01
    endloop
  endfacet
  facet normal 0 0 1
    outer loop
      vertex -0.9868500009179115 -3.6593160554766655 5.01
      vertex 1.3729500025510788 -3.6592373475432396 5.01
      vertex -0.9868500009179115 2.7398503348231316 5.01
    endloop
  endfacet
  facet normal 0 0 1
    outer loop
      vertex -2.3659081012010574 2.301194652915001 5.01
      vertex -2.438505858182907 2.319834589958191 5.01
      vertex -2.4151533991098404 2.3105886951088905 5.01
    endloop
  endfacet
  facet normal 0 0 1
    outer loop
      vertex -2.438505858182907 2.319834589958191 5.01
      vertex -2.3407918959856033 2.301194652915001 5.01
      vertex -2.539305292069912 2.4271750897169113 5.01
    endloop
  endfacet
  facet normal 0 0 1
    outer loop
      vertex -2.3407918959856033 2.301194652915001 5.01
      vertex -2.2915465980768204 2.3105886951088905 5.01
      vertex -2.539305292069912 2.4271750897169113 5.01
    endloop
  endfacet
  facet normal 0 0 1
    outer loop
      vertex -2.315873734652996 2.304342545568943 5.01
      vertex -2.2915465980768204 2.3105886951088905 5.01
      vertex -2.3407918959856033 2.301194652915001 5.01
    endloop
  endfacet
  facet normal 0 0 1
    outer loop
      vertex -2.2915465980768204 2.3105886951088905 5.01
      vertex -2.5517729371786118 2.4757333546876907 5.01
      vertex -2.539305292069912 2.4271750897169113 5.01
    endloop
  endfacet
  facet normal 0 0 1
    outer loop
      vertex -2.5533500015735626 2.500799998641014 5.01
      vertex -2.5517729371786118 2.4757333546876907 5.01
      vertex -2.2915465980768204 2.3105886951088905 5.01
    endloop
  endfacet
  facet normal 0 0 1
    outer loop
      vertex -2.5533500015735626 2.500799998641014 5.01
      vertex -2.2915465980768204 2.3105886951088905 5.01
      vertex -2.29084350168705 2.3108185827732086 5.01
    endloop
  endfacet
  facet normal 0 0 1
    outer loop
      vertex -2.5533500015735626 2.500799998641014 5.01
      vertex -2.29084350168705 2.3108185827732086 5.01
      vertex -2.5533500015735626 3.0772000029683113 5.01
    endloop
  endfacet
  facet normal 0 0 1
    outer loop
      vertex -2.29084350168705 2.3108185827732086 5.01
      vertex -2.454637862741947 3.249655120074749 5.01
      vertex -2.5533500015735626 3.0772000029683113 5.01
    endloop
  endfacet
  facet normal 0 0 1
    outer loop
      vertex -0.9868500009179115 2.7398503348231316 5.01
      vertex -2.454637862741947 3.249655120074749 5.01
      vertex -2.29084350168705 2.3108185827732086 5.01
    endloop
  endfacet
  facet normal 0 0 1
    outer loop
      vertex 0.10866213589906693 4.755155116319656 5.01
      vertex -2.454637862741947 3.249655120074749 5.01
      vertex -0.9868500009179115 2.7398503348231316 5.01
    endloop
  endfacet
  facet normal 0 0 1
    outer loop
      vertex 0.10866213589906693 4.755155116319656 5.01
      vertex -0.9868500009179115 2.7398503348231316 5.01
      vertex 1.3729500025510788 4.582699999213219 5.01
    endloop
  endfacet
  facet normal 0 0 1
    outer loop
      vertex -2.4937273040413857 -3.853547379374504 5.01
      vertex -2.4295507296919823 -3.814827248454094 5.01
      vertex -2.4525125846266747 -3.825004532933235 5.01
    endloop
  endfacet
  facet normal 0 0 1
    outer loop
      vertex -2.4054943844676018 -3.8076080977916718 5.01
      vertex -2.4295507296919823 -3.814827248454094 5.01
      vertex -2.3807229325175285 -3.80346093326807 5.01
    endloop
  endfacet
  facet normal 0 0 1
    outer loop
      vertex -2.4937273040413857 -3.853547379374504 5.01
      vertex -2.4525125846266747 -3.825004532933235 5.01
      vertex -2.4740178287029266 -3.8379794508218765 5.01
    endloop
  endfacet
  facet normal 0 0 1
    outer loop
      vertex -2.3807229325175285 -3.80346093326807 5.01
      vertex -2.4295507296919823 -3.814827248454094 5.01
      vertex -2.4937273040413857 -3.853547379374504 5.01
    endloop
  endfacet
  facet normal 0 0 1
    outer loop
      vertex -2.526548869907856 -3.8914431780576706 5.01
      vertex -2.548914983868599 -3.9363108053803444 5.01
      vertex -2.5113301873207092 -3.8714627996087074 5.01
    endloop
  endfacet
  facet normal 0 0 1
    outer loop
      vertex -2.548914983868599 -3.9363108053803444 5.01
      vertex -2.4937273040413857 -3.853547379374504 5.01
      vertex -2.5113301873207092 -3.8714627996087074 5.01
    endloop
  endfacet
  facet normal 0 0 1
    outer loop
      vertex -2.548914983868599 -3.9363108053803444 5.01
      vertex -2.526548869907856 -3.8914431780576706 5.01
      vertex -2.539143346250057 -3.9131734147667885 5.01
    endloop
  endfacet
  facet normal 0 0 1
    outer loop
      vertex -2.5557096898555756 -3.9604904651641846 5.01
      vertex -2.5601500049233437 -4.002400003373623 5.01
      vertex -2.548914983868599 -3.9363108053803444 5.01
    endloop
  endfacet
  facet normal 0 0 1
    outer loop
      vertex -2.5594203025102615 -3.985331065952778 5.01
      vertex -2.5601500049233437 -4.002400003373623 5.01
      vertex -2.5557096898555756 -3.9604904651641846 5.01
    endloop
  endfacet
  facet normal 0 0 1
    outer loop
      vertex -2.5601500049233437 -4.002400003373623 5.01
      vertex -2.4937273040413857 -3.853547379374504 5.01
      vertex -2.548914983868599 -3.9363108053803444 5.01
    endloop
  endfacet
  facet normal 0 0 1
    outer loop
      vertex -2.3807229325175285 -3.80346093326807 5.01
      vertex -2.4937273040413857 -3.853547379374504 5.01
      vertex -2.5601500049233437 -4.002400003373623 5.01
    endloop
  endfacet
  facet normal 0 0 1
    outer loop
      vertex -2.3727081045508385 -4.785205349326134 5.01
      vertex -2.3601500019431114 -4.785600006580353 5.01
      vertex -2.5601500049233437 -4.5856000036001205 5.01
    endloop
  endfacet
  facet normal 0 0 1
    outer loop
      vertex -2.445305861532688 -4.766565412282944 5.01
      vertex -2.487634800374508 -4.739702649414539 5.01
      vertex -2.46731536090374 -4.754465587437153 5.01
    endloop
  endfacet
  facet normal 0 0 1
    outer loop
      vertex -2.546105295419693 -4.659224912524223 5.01
      vertex -2.558572940528393 -4.610666647553444 5.01
      vertex -2.553866632282734 -4.635337978601456 5.01
    endloop
  endfacet
  facet normal 0 0 1
    outer loop
      vertex -2.535411335527897 -4.681950740516186 5.01
      vertex -2.5219534039497375 -4.703157052397728 5.01
      vertex -2.5059437304735184 -4.722509421408176 5.01
    endloop
  endfacet
  facet normal 0 0 1
    outer loop
      vertex -2.535411335527897 -4.681950740516186 5.01
      vertex -2.5059437304735184 -4.722509421408176 5.01
      vertex -2.546105295419693 -4.659224912524223 5.01
    endloop
  endfacet
  facet normal 0 0 1
    outer loop
      vertex -2.5059437304735184 -4.722509421408176 5.01
      vertex -2.487634800374508 -4.739702649414539 5.01
      vertex -2.546105295419693 -4.659224912524223 5.01
    endloop
  endfacet
  facet normal 0 0 1
    outer loop
      vertex -2.546105295419693 -4.659224912524223 5.01
      vertex -2.487634800374508 -4.739702649414539 5.01
      vertex -2.445305861532688 -4.766565412282944 5.01
    endloop
  endfacet
  facet normal 0 0 1
    outer loop
      vertex -2.546105295419693 -4.659224912524223 5.01
      vertex -2.445305861532688 -4.766565412282944 5.01
      vertex -2.3727081045508385 -4.785205349326134 5.01
    endloop
  endfacet
  facet normal 0 0 1
    outer loop
      vertex -2.445305861532688 -4.766565412282944 5.01
      vertex -2.4219534024596214 -4.775811307132244 5.01
      vertex -2.3727081045508385 -4.785205349326134 5.01
    endloop
  endfacet
  facet normal 0 0 1
    outer loop
      vertex -2.4219534024596214 -4.775811307132244 5.01
      vertex -2.3976262658834457 -4.782057456672192 5.01
      vertex -2.3727081045508385 -4.785205349326134 5.01
    endloop
  endfacet
  facet normal 0 0 1
    outer loop
      vertex -2.546105295419693 -4.659224912524223 5.01
      vertex -2.3727081045508385 -4.785205349326134 5.01
      vertex -2.558572940528393 -4.610666647553444 5.01
    endloop
  endfacet
  facet normal 0 0 1
    outer loop
      vertex -2.3727081045508385 -4.785205349326134 5.01
      vertex -2.5601500049233437 -4.5856000036001205 5.01
      vertex -2.558572940528393 -4.610666647553444 5.01
    endloop
  endfacet
  facet normal 0 0 1
    outer loop
      vertex -2.3601500019431114 -4.785600006580353 5.01
      vertex -2.5601500049233437 -4.002400003373623 5.01
      vertex -2.5601500049233437 -4.5856000036001205 5.01
    endloop
  endfacet
  facet normal 0 0 1
    outer loop
      vertex -2.3807229325175285 -3.80346093326807 5.01
      vertex -2.5601500049233437 -4.002400003373623 5.01
      vertex -2.3601500019431114 -4.785600006580353 5.01
    endloop
  endfacet
  facet normal 0 0 1
    outer loop
      vertex -0.9868500009179115 -3.6593160554766655 5.01
      vertex -2.3601500019431114 -4.785600006580353 5.01
      vertex 1.3729500025510788 -3.6592373475432396 5.01
    endloop
  endfacet
  facet normal 0 0 1
    outer loop
      vertex -2.3601500019431114 -4.785600006580353 5.01
      vertex 2.752949997782707 -4.785600006580353 5.01
      vertex 1.3729500025510788 -3.6592373475432396 5.01
    endloop
  endfacet
  facet normal 0 0 1
    outer loop
      vertex 2.752949997782707 -4.785600006580353 5.01
      vertex 2.7780166417360306 -4.784022942185402 5.01
      vertex 2.9525553435087204 -4.598158106207848 5.01
    endloop
  endfacet
endsolid OpenSCAD_Model
