solid OpenSCAD_Model
  facet normal 0 0 -1
    outer loop
      vertex 19.35 -61.16 -1.16
      vertex -6.7 -39.8 -1.16
      vertex 6.7 -39.8 -1.16
    endloop
  endfacet
  facet normal 0 0 -1
    outer loop
      vertex -27.51 -53 -1.16
      vertex -6.7 -39.8 -1.16
      vertex -19.35 -61.16 -1.16
    endloop
  endfacet
  facet normal 0 0 -1
    outer loop
      vertex -19.35 -61.16 -1.16
      vertex -6.7 -39.8 -1.16
      vertex 19.35 -61.16 -1.16
    endloop
  endfacet
  facet normal 0 0 -1
    outer loop
      vertex 19.35 -61.16 -1.16
      vertex 27.51 -53 -1.16
      vertex 27.1106 -55.5216 -1.16
    endloop
  endfacet
  facet normal 0 0 -1
    outer loop
      vertex 19.35 -61.16 -1.16
      vertex 27.1106 -55.5216 -1.16
      vertex 25.9516 -57.7963 -1.16
    endloop
  endfacet
  facet normal 0 0 -1
    outer loop
      vertex 19.35 -61.16 -1.16
      vertex 25.9516 -57.7963 -1.16
      vertex 24.1463 -59.6016 -1.16
    endloop
  endfacet
  facet normal 0 0 -1
    outer loop
      vertex 19.35 -61.16 -1.16
      vertex 24.1463 -59.6016 -1.16
      vertex 21.8716 -60.7606 -1.16
    endloop
  endfacet
  facet normal -0 0 -1
    outer loop
      vertex 27.51 -53 -1.16
      vertex 19.35 -61.16 -1.16
      vertex 6.7 -39.8 -1.16
    endloop
  endfacet
  facet normal 0 0 -1
    outer loop
      vertex 27.51 -53 -1.16
      vertex 6.7 -39.8 -1.16
      vertex 6.7 -37.6 -1.16
    endloop
  endfacet
  facet normal 0 0 -1
    outer loop
      vertex 27.51 -53 -1.16
      vertex 6.7 -37.6 -1.16
      vertex 27.51 -15.51 -1.16
    endloop
  endfacet
  facet normal 0 0 -1
    outer loop
      vertex -6.7 -37.6 -1.16
      vertex 27.51 -15.51 -1.16
      vertex 6.7 -37.6 -1.16
    endloop
  endfacet
  facet normal 0 0 -1
    outer loop
      vertex -27.51 -53 -1.16
      vertex -19.35 -61.16 -1.16
      vertex -21.8716 -60.7606 -1.16
    endloop
  endfacet
  facet normal 0 0 -1
    outer loop
      vertex -27.51 -53 -1.16
      vertex -21.8716 -60.7606 -1.16
      vertex -24.1463 -59.6016 -1.16
    endloop
  endfacet
  facet normal 0 0 -1
    outer loop
      vertex -27.51 -53 -1.16
      vertex -24.1463 -59.6016 -1.16
      vertex -25.9516 -57.7963 -1.16
    endloop
  endfacet
  facet normal 0 0 -1
    outer loop
      vertex -27.51 -53 -1.16
      vertex -25.9516 -57.7963 -1.16
      vertex -27.1106 -55.5216 -1.16
    endloop
  endfacet
  facet normal -0 0 -1
    outer loop
      vertex -6.7 -39.8 -1.16
      vertex -27.51 -53 -1.16
      vertex -6.7 -37.6 -1.16
    endloop
  endfacet
  facet normal 0 0 -1
    outer loop
      vertex -6.7 -37.6 -1.16
      vertex -27.51 -15.51 -1.16
      vertex 27.51 -15.51 -1.16
    endloop
  endfacet
  facet normal 0 0 -1
    outer loop
      vertex -27.51 -15.51 -1.16
      vertex -6.7 -37.6 -1.16
      vertex -27.51 -53 -1.16
    endloop
  endfacet
  facet normal -0.891009 -0.453985 0
    outer loop
      vertex -25.9516 -57.7963 -1.16
      vertex -27.1106 -55.5216 10.66
      vertex -27.1106 -55.5216 -1.16
    endloop
  endfacet
  facet normal -0.891009 -0.453985 0
    outer loop
      vertex -27.1106 -55.5216 10.66
      vertex -25.9516 -57.7963 -1.16
      vertex -25.9516 -57.7963 10.66
    endloop
  endfacet
  facet normal -1 0 0
    outer loop
      vertex -27.51 -53 -1.16
      vertex -27.51 -15.51 2.455
      vertex -27.51 -15.51 -1.16
    endloop
  endfacet
  facet normal -1 -0 0
    outer loop
      vertex -27.51 -15.51 2.455
      vertex -27.51 -53 -1.16
      vertex -27.51 -15.51 7.045
    endloop
  endfacet
  facet normal -1 0 0
    outer loop
      vertex -27.51 -53 10.66
      vertex -27.51 -15.51 7.045
      vertex -27.51 -53 -1.16
    endloop
  endfacet
  facet normal -1 0 0
    outer loop
      vertex -27.51 -15.51 7.045
      vertex -27.51 -53 10.66
      vertex -27.51 -15.51 10.66
    endloop
  endfacet
  facet normal -1 0 0
    outer loop
      vertex -27.51 -15.51 2.455
      vertex -27.51 -12.51 7.15975
      vertex -27.51 -12.51 2.34025
    endloop
  endfacet
  facet normal -1 0 0
    outer loop
      vertex -27.51 -12.51 7.15975
      vertex -27.51 -15.51 2.455
      vertex -27.51 -15.51 7.045
    endloop
  endfacet
  facet normal -0.987687 -0.156441 0
    outer loop
      vertex -27.1106 -55.5216 -1.16
      vertex -27.51 -53 10.66
      vertex -27.51 -53 -1.16
    endloop
  endfacet
  facet normal -0.987687 -0.156441 0
    outer loop
      vertex -27.51 -53 10.66
      vertex -27.1106 -55.5216 -1.16
      vertex -27.1106 -55.5216 10.66
    endloop
  endfacet
  facet normal 0 0 1
    outer loop
      vertex -27.51 -53 10.66
      vertex -26.35 -53 10.66
      vertex -26.35 -15.51 10.66
    endloop
  endfacet
  facet normal 0 0 1
    outer loop
      vertex -27.51 -53 10.66
      vertex -26.35 -15.51 10.66
      vertex -27.51 -15.51 10.66
    endloop
  endfacet
  facet normal 0 0 1
    outer loop
      vertex -26.35 -53 10.66
      vertex -27.51 -53 10.66
      vertex -27.1106 -55.5216 10.66
    endloop
  endfacet
  facet normal 0 0 1
    outer loop
      vertex 26.35 -53 10.66
      vertex 27.51 -53 10.66
      vertex 27.51 -15.51 10.66
    endloop
  endfacet
  facet normal 0 0 1
    outer loop
      vertex 26.35 -53 10.66
      vertex 27.51 -15.51 10.66
      vertex 26.35 -15.51 10.66
    endloop
  endfacet
  facet normal 0 0 1
    outer loop
      vertex 26.1124 -54.5 10.66
      vertex 27.51 -53 10.66
      vertex 26.35 -53 10.66
    endloop
  endfacet
  facet normal 0 0 1
    outer loop
      vertex 27.51 -53 10.66
      vertex 26.1124 -54.5 10.66
      vertex 27.1106 -55.5216 10.66
    endloop
  endfacet
  facet normal 0 0 1
    outer loop
      vertex 26.1124 -54.5 10.66
      vertex 25.9516 -57.7963 10.66
      vertex 27.1106 -55.5216 10.66
    endloop
  endfacet
  facet normal 0 0 1
    outer loop
      vertex 26.1124 -54.5 10.66
      vertex 24.1463 -59.6016 10.66
      vertex 25.9516 -57.7963 10.66
    endloop
  endfacet
  facet normal 0 0 1
    outer loop
      vertex 26.1124 -54.5 10.66
      vertex 21.8716 -60.7606 10.66
      vertex 24.1463 -59.6016 10.66
    endloop
  endfacet
  facet normal 0 0 1
    outer loop
      vertex 26.1124 -54.5 10.66
      vertex 19.35 -61.16 10.66
      vertex 21.8716 -60.7606 10.66
    endloop
  endfacet
  facet normal 0 0 1
    outer loop
      vertex 26.1124 -54.5 10.66
      vertex -19.35 -61.16 10.66
      vertex 19.35 -61.16 10.66
    endloop
  endfacet
  facet normal -0 0 1
    outer loop
      vertex -26.1124 -54.5 10.66
      vertex -19.35 -61.16 10.66
      vertex 26.1124 -54.5 10.66
    endloop
  endfacet
  facet normal 0 0 1
    outer loop
      vertex -19.35 -61.16 10.66
      vertex -26.1124 -54.5 10.66
      vertex -21.8716 -60.7606 10.66
    endloop
  endfacet
  facet normal 0 0 1
    outer loop
      vertex -21.8716 -60.7606 10.66
      vertex -26.1124 -54.5 10.66
      vertex -24.1463 -59.6016 10.66
    endloop
  endfacet
  facet normal 0 0 1
    outer loop
      vertex -24.1463 -59.6016 10.66
      vertex -26.1124 -54.5 10.66
      vertex -25.9516 -57.7963 10.66
    endloop
  endfacet
  facet normal 0 0 1
    outer loop
      vertex -27.1106 -55.5216 10.66
      vertex -26.1124 -54.5 10.66
      vertex -26.35 -53 10.66
    endloop
  endfacet
  facet normal 0 0 1
    outer loop
      vertex -26.1124 -54.5 10.66
      vertex -27.1106 -55.5216 10.66
      vertex -25.9516 -57.7963 10.66
    endloop
  endfacet
  facet normal 0.987687 -0.156441 0
    outer loop
      vertex 27.1106 -55.5216 10.66
      vertex 27.51 -53 -1.16
      vertex 27.51 -53 10.66
    endloop
  endfacet
  facet normal 0.987687 -0.156441 0
    outer loop
      vertex 27.51 -53 -1.16
      vertex 27.1106 -55.5216 10.66
      vertex 27.1106 -55.5216 -1.16
    endloop
  endfacet
  facet normal 1 -0 0
    outer loop
      vertex 27.51 -53 10.66
      vertex 27.51 -15.51 7.045
      vertex 27.51 -15.51 10.66
    endloop
  endfacet
  facet normal 1 0 0
    outer loop
      vertex 27.51 -15.51 7.045
      vertex 27.51 -53 10.66
      vertex 27.51 -15.51 2.455
    endloop
  endfacet
  facet normal 1 0 0
    outer loop
      vertex 27.51 -53 -1.16
      vertex 27.51 -15.51 2.455
      vertex 27.51 -53 10.66
    endloop
  endfacet
  facet normal 1 0 0
    outer loop
      vertex 27.51 -15.51 2.455
      vertex 27.51 -53 -1.16
      vertex 27.51 -15.51 -1.16
    endloop
  endfacet
  facet normal 1 -0 0
    outer loop
      vertex 27.51 -15.51 7.045
      vertex 27.51 -12.51 2.34025
      vertex 27.51 -12.51 7.15975
    endloop
  endfacet
  facet normal 1 0 0
    outer loop
      vertex 27.51 -12.51 2.34025
      vertex 27.51 -15.51 7.045
      vertex 27.51 -15.51 2.455
    endloop
  endfacet
  facet normal -0.156441 -0.987687 0
    outer loop
      vertex -21.8716 -60.7606 -1.16
      vertex -19.35 -61.16 10.66
      vertex -21.8716 -60.7606 10.66
    endloop
  endfacet
  facet normal -0.156441 -0.987687 -0
    outer loop
      vertex -19.35 -61.16 10.66
      vertex -21.8716 -60.7606 -1.16
      vertex -19.35 -61.16 -1.16
    endloop
  endfacet
  facet normal 0 -1 0
    outer loop
      vertex -19.35 -61.16 -1.16
      vertex 19.35 -61.16 10.66
      vertex -19.35 -61.16 10.66
    endloop
  endfacet
  facet normal 0 -1 -0
    outer loop
      vertex 19.35 -61.16 10.66
      vertex -19.35 -61.16 -1.16
      vertex 19.35 -61.16 -1.16
    endloop
  endfacet
  facet normal -0.453985 -0.891009 0
    outer loop
      vertex -24.1463 -59.6016 -1.16
      vertex -21.8716 -60.7606 10.66
      vertex -24.1463 -59.6016 10.66
    endloop
  endfacet
  facet normal -0.453985 -0.891009 -0
    outer loop
      vertex -21.8716 -60.7606 10.66
      vertex -24.1463 -59.6016 -1.16
      vertex -21.8716 -60.7606 -1.16
    endloop
  endfacet
  facet normal 0.707107 -0.707107 0
    outer loop
      vertex 24.1463 -59.6016 10.66
      vertex 25.9516 -57.7963 -1.16
      vertex 25.9516 -57.7963 10.66
    endloop
  endfacet
  facet normal 0.707107 -0.707107 0
    outer loop
      vertex 25.9516 -57.7963 -1.16
      vertex 24.1463 -59.6016 10.66
      vertex 24.1463 -59.6016 -1.16
    endloop
  endfacet
  facet normal 0.156441 -0.987687 0
    outer loop
      vertex 19.35 -61.16 -1.16
      vertex 21.8716 -60.7606 10.66
      vertex 19.35 -61.16 10.66
    endloop
  endfacet
  facet normal 0.156441 -0.987687 0
    outer loop
      vertex 21.8716 -60.7606 10.66
      vertex 19.35 -61.16 -1.16
      vertex 21.8716 -60.7606 -1.16
    endloop
  endfacet
  facet normal 0.891009 -0.453985 0
    outer loop
      vertex 25.9516 -57.7963 10.66
      vertex 27.1106 -55.5216 -1.16
      vertex 27.1106 -55.5216 10.66
    endloop
  endfacet
  facet normal 0.891009 -0.453985 0
    outer loop
      vertex 27.1106 -55.5216 -1.16
      vertex 25.9516 -57.7963 10.66
      vertex 25.9516 -57.7963 -1.16
    endloop
  endfacet
  facet normal -0.707107 -0.707107 0
    outer loop
      vertex -24.1463 -59.6016 -1.16
      vertex -25.9516 -57.7963 10.66
      vertex -25.9516 -57.7963 -1.16
    endloop
  endfacet
  facet normal -0.707107 -0.707107 0
    outer loop
      vertex -25.9516 -57.7963 10.66
      vertex -24.1463 -59.6016 -1.16
      vertex -24.1463 -59.6016 10.66
    endloop
  endfacet
  facet normal 0.453985 -0.891009 0
    outer loop
      vertex 21.8716 -60.7606 -1.16
      vertex 24.1463 -59.6016 10.66
      vertex 21.8716 -60.7606 10.66
    endloop
  endfacet
  facet normal 0.453985 -0.891009 0
    outer loop
      vertex 24.1463 -59.6016 10.66
      vertex 21.8716 -60.7606 -1.16
      vertex 24.1463 -59.6016 -1.16
    endloop
  endfacet
  facet normal 0.891004 0.453995 0
    outer loop
      vertex -25.0131 -57.1145 9.5
      vertex -26.0074 -55.1631 0
      vertex -26.0074 -55.1631 9.5
    endloop
  endfacet
  facet normal 0.891004 0.453995 0
    outer loop
      vertex -26.0074 -55.1631 0
      vertex -25.0131 -57.1145 9.5
      vertex -25.0131 -57.1145 0
    endloop
  endfacet
  facet normal 0.707107 0.707107 0
    outer loop
      vertex -23.4645 -58.6631 9.5
      vertex -25.0131 -57.1145 0
      vertex -25.0131 -57.1145 9.5
    endloop
  endfacet
  facet normal 0.707107 0.707107 0
    outer loop
      vertex -25.0131 -57.1145 0
      vertex -23.4645 -58.6631 9.5
      vertex -23.4645 -58.6631 0
    endloop
  endfacet
  facet normal 0.987688 0.156434 0
    outer loop
      vertex -26.0074 -55.1631 9.5
      vertex -26.35 -53 0
      vertex -26.35 -53 9.5
    endloop
  endfacet
  facet normal 0.987688 0.156434 0
    outer loop
      vertex -26.35 -53 0
      vertex -26.0074 -55.1631 9.5
      vertex -26.0074 -55.1631 0
    endloop
  endfacet
  facet normal -1 0 0
    outer loop
      vertex 26.35 -53 0
      vertex 26.35 -15.51 2.455
      vertex 26.35 -15.51 0
    endloop
  endfacet
  facet normal -1 -0 0
    outer loop
      vertex 26.35 -15.51 2.455
      vertex 26.35 -53 0
      vertex 26.35 -15.51 7.045
    endloop
  endfacet
  facet normal -1 0 0
    outer loop
      vertex 26.35 -53 9.5
      vertex 26.35 -15.51 7.045
      vertex 26.35 -53 0
    endloop
  endfacet
  facet normal -1 0 0
    outer loop
      vertex 26.35 -15.51 7.045
      vertex 26.35 -53 9.5
      vertex 26.35 -15.51 9.5
    endloop
  endfacet
  facet normal -1 0 0
    outer loop
      vertex 26.35 -15.51 2.455
      vertex 26.35 -12.51 7.15975
      vertex 26.35 -12.51 2.34025
    endloop
  endfacet
  facet normal -1 0 0
    outer loop
      vertex 26.35 -12.51 7.15975
      vertex 26.35 -15.51 2.455
      vertex 26.35 -15.51 7.045
    endloop
  endfacet
  facet normal -0.987688 0.156434 0
    outer loop
      vertex 26.0074 -55.1631 0
      vertex 26.35 -53 9.5
      vertex 26.35 -53 0
    endloop
  endfacet
  facet normal -0.987688 0.156434 0
    outer loop
      vertex 26.35 -53 9.5
      vertex 26.0074 -55.1631 0
      vertex 26.0074 -55.1631 9.5
    endloop
  endfacet
  facet normal 0.453995 0.891004 -0
    outer loop
      vertex -21.5131 -59.6574 0
      vertex -23.4645 -58.6631 9.5
      vertex -21.5131 -59.6574 9.5
    endloop
  endfacet
  facet normal 0.453995 0.891004 0
    outer loop
      vertex -23.4645 -58.6631 9.5
      vertex -21.5131 -59.6574 0
      vertex -23.4645 -58.6631 0
    endloop
  endfacet
  facet normal 1 -0 0
    outer loop
      vertex -26.35 -53 9.5
      vertex -26.35 -15.51 7.045
      vertex -26.35 -15.51 9.5
    endloop
  endfacet
  facet normal 1 0 0
    outer loop
      vertex -26.35 -15.51 7.045
      vertex -26.35 -53 9.5
      vertex -26.35 -15.51 2.455
    endloop
  endfacet
  facet normal 1 0 0
    outer loop
      vertex -26.35 -53 0
      vertex -26.35 -15.51 2.455
      vertex -26.35 -53 9.5
    endloop
  endfacet
  facet normal 1 0 0
    outer loop
      vertex -26.35 -15.51 2.455
      vertex -26.35 -53 0
      vertex -26.35 -15.51 0
    endloop
  endfacet
  facet normal 1 -0 0
    outer loop
      vertex -26.35 -15.51 7.045
      vertex -26.35 -12.51 2.34025
      vertex -26.35 -12.51 7.15975
    endloop
  endfacet
  facet normal 1 0 0
    outer loop
      vertex -26.35 -12.51 2.34025
      vertex -26.35 -15.51 7.045
      vertex -26.35 -15.51 2.455
    endloop
  endfacet
  facet normal -0 0 1
    outer loop
      vertex 6.7 -37.6 0
      vertex 26.35 -53 0
      vertex 26.35 -15.51 0
    endloop
  endfacet
  facet normal -0 0 1
    outer loop
      vertex 6.7 -39.8 0
      vertex 26.35 -53 0
      vertex 6.7 -37.6 0
    endloop
  endfacet
  facet normal 0 -0 1
    outer loop
      vertex 19.35 -60 0
      vertex 26.35 -53 0
      vertex 6.7 -39.8 0
    endloop
  endfacet
  facet normal 0 0 1
    outer loop
      vertex 26.35 -53 0
      vertex 19.35 -60 0
      vertex 26.0074 -55.1631 0
    endloop
  endfacet
  facet normal 0 0 1
    outer loop
      vertex 26.0074 -55.1631 0
      vertex 19.35 -60 0
      vertex 25.0131 -57.1145 0
    endloop
  endfacet
  facet normal 0 0 1
    outer loop
      vertex 25.0131 -57.1145 0
      vertex 19.35 -60 0
      vertex 23.4645 -58.6631 0
    endloop
  endfacet
  facet normal 0 0 1
    outer loop
      vertex 26.35 -15.51 0
      vertex -6.7 -37.6 0
      vertex 6.7 -37.6 0
    endloop
  endfacet
  facet normal 0 0 1
    outer loop
      vertex -26.35 -53 0
      vertex -6.7 -39.8 0
      vertex -6.7 -37.6 0
    endloop
  endfacet
  facet normal 0 0 1
    outer loop
      vertex -6.7 -39.8 0
      vertex -26.35 -53 0
      vertex -19.35 -60 0
    endloop
  endfacet
  facet normal 0 0 1
    outer loop
      vertex -19.35 -60 0
      vertex -26.35 -53 0
      vertex -21.5131 -59.6574 0
    endloop
  endfacet
  facet normal 0 0 1
    outer loop
      vertex -21.5131 -59.6574 0
      vertex -26.35 -53 0
      vertex -23.4645 -58.6631 0
    endloop
  endfacet
  facet normal 0 0 1
    outer loop
      vertex -23.4645 -58.6631 0
      vertex -26.35 -53 0
      vertex -25.0131 -57.1145 0
    endloop
  endfacet
  facet normal -0 0 1
    outer loop
      vertex -26.35 -15.51 0
      vertex -6.7 -37.6 0
      vertex 26.35 -15.51 0
    endloop
  endfacet
  facet normal 0 0 1
    outer loop
      vertex -26.35 -53 0
      vertex -6.7 -37.6 0
      vertex -26.35 -15.51 0
    endloop
  endfacet
  facet normal 0 0 1
    outer loop
      vertex -25.0131 -57.1145 0
      vertex -26.35 -53 0
      vertex -26.0074 -55.1631 0
    endloop
  endfacet
  facet normal 0 0 1
    outer loop
      vertex 23.4645 -58.6631 0
      vertex 19.35 -60 0
      vertex 21.5131 -59.6574 0
    endloop
  endfacet
  facet normal -0 0 1
    outer loop
      vertex -6.7 -39.8 0
      vertex 19.35 -60 0
      vertex 6.7 -39.8 0
    endloop
  endfacet
  facet normal 0 0 1
    outer loop
      vertex 19.35 -60 0
      vertex -6.7 -39.8 0
      vertex -19.35 -60 0
    endloop
  endfacet
  facet normal 0 0 -1
    outer loop
      vertex 26.0074 -55.1631 9.5
      vertex 26.1124 -54.5 9.5
      vertex 26.35 -53 9.5
    endloop
  endfacet
  facet normal 0 0 -1
    outer loop
      vertex 25.0131 -57.1145 9.5
      vertex 26.1124 -54.5 9.5
      vertex 26.0074 -55.1631 9.5
    endloop
  endfacet
  facet normal 0 0 -1
    outer loop
      vertex 23.4645 -58.6631 9.5
      vertex 26.1124 -54.5 9.5
      vertex 25.0131 -57.1145 9.5
    endloop
  endfacet
  facet normal 0 0 -1
    outer loop
      vertex 21.5131 -59.6574 9.5
      vertex 26.1124 -54.5 9.5
      vertex 23.4645 -58.6631 9.5
    endloop
  endfacet
  facet normal 0 0 -1
    outer loop
      vertex 19.35 -60 9.5
      vertex 26.1124 -54.5 9.5
      vertex 21.5131 -59.6574 9.5
    endloop
  endfacet
  facet normal 0 0 -1
    outer loop
      vertex -19.35 -60 9.5
      vertex 26.1124 -54.5 9.5
      vertex 19.35 -60 9.5
    endloop
  endfacet
  facet normal 0 0 -1
    outer loop
      vertex -26.1124 -54.5 9.5
      vertex -19.35 -60 9.5
      vertex -21.5131 -59.6574 9.5
    endloop
  endfacet
  facet normal 0 0 -1
    outer loop
      vertex -26.1124 -54.5 9.5
      vertex -21.5131 -59.6574 9.5
      vertex -23.4645 -58.6631 9.5
    endloop
  endfacet
  facet normal 0 0 -1
    outer loop
      vertex -26.1124 -54.5 9.5
      vertex -23.4645 -58.6631 9.5
      vertex -25.0131 -57.1145 9.5
    endloop
  endfacet
  facet normal 0 0 -1
    outer loop
      vertex -26.1124 -54.5 9.5
      vertex -25.0131 -57.1145 9.5
      vertex -26.0074 -55.1631 9.5
    endloop
  endfacet
  facet normal 0 0 -1
    outer loop
      vertex -19.35 -60 9.5
      vertex -26.1124 -54.5 9.5
      vertex 26.1124 -54.5 9.5
    endloop
  endfacet
  facet normal 0 0 -1
    outer loop
      vertex -26.35 -53 9.5
      vertex -26.1124 -54.5 9.5
      vertex -26.0074 -55.1631 9.5
    endloop
  endfacet
  facet normal -0.891004 0.453995 0
    outer loop
      vertex 25.0131 -57.1145 0
      vertex 26.0074 -55.1631 9.5
      vertex 26.0074 -55.1631 0
    endloop
  endfacet
  facet normal -0.891004 0.453995 0
    outer loop
      vertex 26.0074 -55.1631 9.5
      vertex 25.0131 -57.1145 0
      vertex 25.0131 -57.1145 9.5
    endloop
  endfacet
  facet normal -0.156434 0.987688 0
    outer loop
      vertex 21.5131 -59.6574 0
      vertex 19.35 -60 9.5
      vertex 21.5131 -59.6574 9.5
    endloop
  endfacet
  facet normal -0.156434 0.987688 0
    outer loop
      vertex 19.35 -60 9.5
      vertex 21.5131 -59.6574 0
      vertex 19.35 -60 0
    endloop
  endfacet
  facet normal -0.707107 0.707107 0
    outer loop
      vertex 23.4645 -58.6631 0
      vertex 25.0131 -57.1145 9.5
      vertex 25.0131 -57.1145 0
    endloop
  endfacet
  facet normal -0.707107 0.707107 0
    outer loop
      vertex 25.0131 -57.1145 9.5
      vertex 23.4645 -58.6631 0
      vertex 23.4645 -58.6631 9.5
    endloop
  endfacet
  facet normal -0.453995 0.891004 0
    outer loop
      vertex 23.4645 -58.6631 0
      vertex 21.5131 -59.6574 9.5
      vertex 23.4645 -58.6631 9.5
    endloop
  endfacet
  facet normal -0.453995 0.891004 0
    outer loop
      vertex 21.5131 -59.6574 9.5
      vertex 23.4645 -58.6631 0
      vertex 21.5131 -59.6574 0
    endloop
  endfacet
  facet normal 0 1 -0
    outer loop
      vertex 19.35 -60 0
      vertex -19.35 -60 9.5
      vertex 19.35 -60 9.5
    endloop
  endfacet
  facet normal 0 1 0
    outer loop
      vertex -19.35 -60 9.5
      vertex 19.35 -60 0
      vertex -19.35 -60 0
    endloop
  endfacet
  facet normal 0.156434 0.987688 -0
    outer loop
      vertex -19.35 -60 0
      vertex -21.5131 -59.6574 9.5
      vertex -19.35 -60 9.5
    endloop
  endfacet
  facet normal 0.156434 0.987688 0
    outer loop
      vertex -21.5131 -59.6574 9.5
      vertex -19.35 -60 0
      vertex -21.5131 -59.6574 0
    endloop
  endfacet
  facet normal -1 0 0
    outer loop
      vertex 26.35 -53 9.5
      vertex 26.35 -15.51 10.66
      vertex 26.35 -15.51 9.5
    endloop
  endfacet
  facet normal -1 -0 0
    outer loop
      vertex 26.35 -15.51 10.66
      vertex 26.35 -53 9.5
      vertex 26.35 -53 10.66
    endloop
  endfacet
  facet normal 0 1 -0
    outer loop
      vertex 26.1124 -54.5 9.5
      vertex -26.1124 -54.5 10.66
      vertex 26.1124 -54.5 10.66
    endloop
  endfacet
  facet normal 0 1 0
    outer loop
      vertex -26.1124 -54.5 10.66
      vertex 26.1124 -54.5 9.5
      vertex -26.1124 -54.5 9.5
    endloop
  endfacet
  facet normal 1 -0 0
    outer loop
      vertex -26.35 -53 10.66
      vertex -26.35 -15.51 9.5
      vertex -26.35 -15.51 10.66
    endloop
  endfacet
  facet normal 1 0 0
    outer loop
      vertex -26.35 -15.51 9.5
      vertex -26.35 -53 10.66
      vertex -26.35 -53 9.5
    endloop
  endfacet
  facet normal -0.987686 0.156449 0
    outer loop
      vertex 26.1124 -54.5 9.5
      vertex 26.35 -53 10.66
      vertex 26.35 -53 9.5
    endloop
  endfacet
  facet normal -0.987686 0.156449 0
    outer loop
      vertex 26.35 -53 10.66
      vertex 26.1124 -54.5 9.5
      vertex 26.1124 -54.5 10.66
    endloop
  endfacet
  facet normal 0.987686 0.156449 0
    outer loop
      vertex -26.1124 -54.5 10.66
      vertex -26.35 -53 9.5
      vertex -26.35 -53 10.66
    endloop
  endfacet
  facet normal 0.987686 0.156449 0
    outer loop
      vertex -26.35 -53 9.5
      vertex -26.1124 -54.5 10.66
      vertex -26.1124 -54.5 9.5
    endloop
  endfacet
  facet normal -1 0 0
    outer loop
      vertex 6.7 -39.8 -1.16
      vertex 6.7 -37.6 0
      vertex 6.7 -37.6 -1.16
    endloop
  endfacet
  facet normal -1 -0 0
    outer loop
      vertex 6.7 -37.6 0
      vertex 6.7 -39.8 -1.16
      vertex 6.7 -39.8 0
    endloop
  endfacet
  facet normal 1 -0 0
    outer loop
      vertex -6.7 -39.8 0
      vertex -6.7 -37.6 -1.16
      vertex -6.7 -37.6 0
    endloop
  endfacet
  facet normal 1 0 0
    outer loop
      vertex -6.7 -37.6 -1.16
      vertex -6.7 -39.8 0
      vertex -6.7 -39.8 -1.16
    endloop
  endfacet
  facet normal 0 1 -0
    outer loop
      vertex 6.7 -39.8 -1.16
      vertex -6.7 -39.8 0
      vertex 6.7 -39.8 0
    endloop
  endfacet
  facet normal 0 1 0
    outer loop
      vertex -6.7 -39.8 0
      vertex 6.7 -39.8 -1.16
      vertex -6.7 -39.8 -1.16
    endloop
  endfacet
  facet normal 0 -1 0
    outer loop
      vertex -6.7 -37.6 -1.16
      vertex 6.7 -37.6 0
      vertex -6.7 -37.6 0
    endloop
  endfacet
  facet normal 0 -1 -0
    outer loop
      vertex 6.7 -37.6 0
      vertex -6.7 -37.6 -1.16
      vertex 6.7 -37.6 -1.16
    endloop
  endfacet
  facet normal 0 1 0
    outer loop
      vertex 27.51 -15.51 10.66
      vertex 26.35 -15.51 9.5
      vertex 26.35 -15.51 10.66
    endloop
  endfacet
  facet normal 0 1 -0
    outer loop
      vertex 27.51 -15.51 7.045
      vertex 26.35 -15.51 9.5
      vertex 27.51 -15.51 10.66
    endloop
  endfacet
  facet normal 0 1 0
    outer loop
      vertex 26.35 -15.51 9.5
      vertex 27.51 -15.51 7.045
      vertex 26.35 -15.51 7.045
    endloop
  endfacet
  facet normal 0 1 0
    outer loop
      vertex -26.35 -15.51 10.66
      vertex -26.35 -15.51 9.5
      vertex -27.51 -15.51 10.66
    endloop
  endfacet
  facet normal 0 1 0
    outer loop
      vertex -27.51 -15.51 7.045
      vertex -26.35 -15.51 9.5
      vertex -26.35 -15.51 7.045
    endloop
  endfacet
  facet normal 0 1 0
    outer loop
      vertex -26.35 -15.51 9.5
      vertex -27.51 -15.51 7.045
      vertex -27.51 -15.51 10.66
    endloop
  endfacet
  facet normal 0 1 0
    outer loop
      vertex 27.51 -15.51 2.455
      vertex 26.35 -15.51 0
      vertex 26.35 -15.51 2.455
    endloop
  endfacet
  facet normal 0 1 0
    outer loop
      vertex 26.35 -15.51 0
      vertex 27.51 -15.51 -1.16
      vertex -26.35 -15.51 0
    endloop
  endfacet
  facet normal 0 1 -0
    outer loop
      vertex 27.51 -15.51 -1.16
      vertex 26.35 -15.51 0
      vertex 27.51 -15.51 2.455
    endloop
  endfacet
  facet normal 0 1 -0
    outer loop
      vertex -26.35 -15.51 0
      vertex -27.51 -15.51 2.455
      vertex -26.35 -15.51 2.455
    endloop
  endfacet
  facet normal 0 1 0
    outer loop
      vertex -26.35 -15.51 0
      vertex -27.51 -15.51 -1.16
      vertex -27.51 -15.51 2.455
    endloop
  endfacet
  facet normal 0 1 0
    outer loop
      vertex -27.51 -15.51 -1.16
      vertex -26.35 -15.51 0
      vertex 27.51 -15.51 -1.16
    endloop
  endfacet
  facet normal 0 -0.038222 0.999269
    outer loop
      vertex 26.35 -12.51 7.15975
      vertex 27.51 -15.51 7.045
      vertex 27.51 -12.51 7.15975
    endloop
  endfacet
  facet normal 0 -0.038222 0.999269
    outer loop
      vertex 27.51 -15.51 7.045
      vertex 26.35 -12.51 7.15975
      vertex 26.35 -15.51 7.045
    endloop
  endfacet
  facet normal 0 -0.038222 0.999269
    outer loop
      vertex -27.51 -12.51 7.15975
      vertex -26.35 -15.51 7.045
      vertex -26.35 -12.51 7.15975
    endloop
  endfacet
  facet normal 0 -0.038222 0.999269
    outer loop
      vertex -26.35 -15.51 7.045
      vertex -27.51 -12.51 7.15975
      vertex -27.51 -15.51 7.045
    endloop
  endfacet
  facet normal 0 -0.038222 -0.999269
    outer loop
      vertex -27.51 -15.51 2.455
      vertex -26.35 -12.51 2.34025
      vertex -26.35 -15.51 2.455
    endloop
  endfacet
  facet normal -0 -0.038222 -0.999269
    outer loop
      vertex -26.35 -12.51 2.34025
      vertex -27.51 -15.51 2.455
      vertex -27.51 -12.51 2.34025
    endloop
  endfacet
  facet normal 0 -0.038222 -0.999269
    outer loop
      vertex 26.35 -15.51 2.455
      vertex 27.51 -12.51 2.34025
      vertex 27.51 -15.51 2.455
    endloop
  endfacet
  facet normal -0 -0.038222 -0.999269
    outer loop
      vertex 27.51 -12.51 2.34025
      vertex 26.35 -15.51 2.455
      vertex 26.35 -12.51 2.34025
    endloop
  endfacet
  facet normal 0 1 -0
    outer loop
      vertex 27.51 -12.51 2.34025
      vertex 26.35 -12.51 7.15975
      vertex 27.51 -12.51 7.15975
    endloop
  endfacet
  facet normal 0 1 0
    outer loop
      vertex 26.35 -12.51 7.15975
      vertex 27.51 -12.51 2.34025
      vertex 26.35 -12.51 2.34025
    endloop
  endfacet
  facet normal 0 1 -0
    outer loop
      vertex -26.35 -12.51 2.34025
      vertex -27.51 -12.51 7.15975
      vertex -26.35 -12.51 7.15975
    endloop
  endfacet
  facet normal 0 1 0
    outer loop
      vertex -27.51 -12.51 7.15975
      vertex -26.35 -12.51 2.34025
      vertex -27.51 -12.51 2.34025
    endloop
  endfacet
endsolid OpenSCAD_Model
