solid OpenSCAD_Model
  facet normal 0 0 -1
    outer loop
      vertex 2.40992 44.383 -1.16
      vertex 27.51 53 -1.16
      vertex 27.51 -6.99 -1.16
    endloop
  endfacet
  facet normal 0 -0 -1
    outer loop
      vertex 3.89933 46.433 -1.16
      vertex 27.51 53 -1.16
      vertex 3.31697 45.2901 -1.16
    endloop
  endfacet
  facet normal 0 -0 -1
    outer loop
      vertex 4.1 47.7 -1.16
      vertex 27.51 53 -1.16
      vertex 3.89933 46.433 -1.16
    endloop
  endfacet
  facet normal 0 -0 -1
    outer loop
      vertex 19.35 61.16 -1.16
      vertex 27.51 53 -1.16
      vertex 4.1 47.7 -1.16
    endloop
  endfacet
  facet normal 0 0 -1
    outer loop
      vertex 27.51 53 -1.16
      vertex 19.35 61.16 -1.16
      vertex 27.1106 55.5216 -1.16
    endloop
  endfacet
  facet normal 0 0 -1
    outer loop
      vertex 27.1106 55.5216 -1.16
      vertex 19.35 61.16 -1.16
      vertex 25.9516 57.7963 -1.16
    endloop
  endfacet
  facet normal 0 0 -1
    outer loop
      vertex 24.1463 59.6016 -1.16
      vertex 19.35 61.16 -1.16
      vertex 21.8716 60.7606 -1.16
    endloop
  endfacet
  facet normal 0 0 -1
    outer loop
      vertex 25.9516 57.7963 -1.16
      vertex 19.35 61.16 -1.16
      vertex 24.1463 59.6016 -1.16
    endloop
  endfacet
  facet normal 0 0 -1
    outer loop
      vertex 27.51 53 -1.16
      vertex 2.40992 44.383 -1.16
      vertex 3.31697 45.2901 -1.16
    endloop
  endfacet
  facet normal 0 0 -1
    outer loop
      vertex 27.51 -6.99 -1.16
      vertex 1.26697 43.8007 -1.16
      vertex 2.40992 44.383 -1.16
    endloop
  endfacet
  facet normal 0 0 -1
    outer loop
      vertex 27.51 -6.99 -1.16
      vertex 0 43.6 -1.16
      vertex 1.26697 43.8007 -1.16
    endloop
  endfacet
  facet normal 0 0 -1
    outer loop
      vertex -27.51 -6.99 -1.16
      vertex 0 43.6 -1.16
      vertex 27.51 -6.99 -1.16
    endloop
  endfacet
  facet normal -0 0 -1
    outer loop
      vertex 0 43.6 -1.16
      vertex -27.51 -6.99 -1.16
      vertex -1.26697 43.8007 -1.16
    endloop
  endfacet
  facet normal -0 0 -1
    outer loop
      vertex -1.26697 43.8007 -1.16
      vertex -27.51 -6.99 -1.16
      vertex -2.40992 44.383 -1.16
    endloop
  endfacet
  facet normal 0 0 -1
    outer loop
      vertex -27.51 53 -1.16
      vertex -4.1 47.7 -1.16
      vertex -3.89933 46.433 -1.16
    endloop
  endfacet
  facet normal 0 0 -1
    outer loop
      vertex -27.51 53 -1.16
      vertex -3.89933 46.433 -1.16
      vertex -3.31697 45.2901 -1.16
    endloop
  endfacet
  facet normal 0 0 -1
    outer loop
      vertex -27.51 53 -1.16
      vertex -2.40992 44.383 -1.16
      vertex -27.51 -6.99 -1.16
    endloop
  endfacet
  facet normal 0 0 -1
    outer loop
      vertex -4.1 47.7 -1.16
      vertex -27.51 53 -1.16
      vertex -19.35 61.16 -1.16
    endloop
  endfacet
  facet normal 0 0 -1
    outer loop
      vertex -19.35 61.16 -1.16
      vertex -27.51 53 -1.16
      vertex -21.8716 60.7606 -1.16
    endloop
  endfacet
  facet normal 0 0 -1
    outer loop
      vertex -21.8716 60.7606 -1.16
      vertex -27.51 53 -1.16
      vertex -24.1463 59.6016 -1.16
    endloop
  endfacet
  facet normal 0 0 -1
    outer loop
      vertex -24.1463 59.6016 -1.16
      vertex -27.51 53 -1.16
      vertex -25.9516 57.7963 -1.16
    endloop
  endfacet
  facet normal 0 0 -1
    outer loop
      vertex -2.40992 44.383 -1.16
      vertex -27.51 53 -1.16
      vertex -3.31697 45.2901 -1.16
    endloop
  endfacet
  facet normal 0 0 -1
    outer loop
      vertex -25.9516 57.7963 -1.16
      vertex -27.51 53 -1.16
      vertex -27.1106 55.5216 -1.16
    endloop
  endfacet
  facet normal 0 0 -1
    outer loop
      vertex 3.89933 48.967 -1.16
      vertex 19.35 61.16 -1.16
      vertex 4.1 47.7 -1.16
    endloop
  endfacet
  facet normal 0 0 -1
    outer loop
      vertex 3.31697 50.1099 -1.16
      vertex 19.35 61.16 -1.16
      vertex 3.89933 48.967 -1.16
    endloop
  endfacet
  facet normal 0 0 -1
    outer loop
      vertex 2.40992 51.017 -1.16
      vertex 19.35 61.16 -1.16
      vertex 3.31697 50.1099 -1.16
    endloop
  endfacet
  facet normal 0 0 -1
    outer loop
      vertex 1.26697 51.5993 -1.16
      vertex 19.35 61.16 -1.16
      vertex 2.40992 51.017 -1.16
    endloop
  endfacet
  facet normal 0 0 -1
    outer loop
      vertex 0 51.8 -1.16
      vertex 19.35 61.16 -1.16
      vertex 1.26697 51.5993 -1.16
    endloop
  endfacet
  facet normal 0 0 -1
    outer loop
      vertex -19.35 61.16 -1.16
      vertex 0 51.8 -1.16
      vertex -1.26697 51.5993 -1.16
    endloop
  endfacet
  facet normal 0 0 -1
    outer loop
      vertex 0 51.8 -1.16
      vertex -19.35 61.16 -1.16
      vertex 19.35 61.16 -1.16
    endloop
  endfacet
  facet normal 0 0 -1
    outer loop
      vertex -2.40992 51.017 -1.16
      vertex -19.35 61.16 -1.16
      vertex -1.26697 51.5993 -1.16
    endloop
  endfacet
  facet normal 0 0 -1
    outer loop
      vertex -3.31697 50.1099 -1.16
      vertex -19.35 61.16 -1.16
      vertex -2.40992 51.017 -1.16
    endloop
  endfacet
  facet normal 0 0 -1
    outer loop
      vertex -3.89933 48.967 -1.16
      vertex -19.35 61.16 -1.16
      vertex -3.31697 50.1099 -1.16
    endloop
  endfacet
  facet normal 0 0 -1
    outer loop
      vertex -19.35 61.16 -1.16
      vertex -3.89933 48.967 -1.16
      vertex -4.1 47.7 -1.16
    endloop
  endfacet
  facet normal -1 0 0
    outer loop
      vertex -27.51 53 -1.16
      vertex -27.51 -4 2.25625
      vertex -27.51 53 10.66
    endloop
  endfacet
  facet normal -1 0 0
    outer loop
      vertex -27.51 -6.99 -1.16
      vertex -27.51 -4 2.25625
      vertex -27.51 53 -1.16
    endloop
  endfacet
  facet normal -1 -0 0
    outer loop
      vertex -27.51 -4 2.25625
      vertex -27.51 -6.99 -1.16
      vertex -27.51 -6.99 2.3746
    endloop
  endfacet
  facet normal -1 0 0
    outer loop
      vertex -27.51 -4 7.24375
      vertex -27.51 53 10.66
      vertex -27.51 -4 2.25625
    endloop
  endfacet
  facet normal -1 0 0
    outer loop
      vertex -27.51 -6.99 10.66
      vertex -27.51 -4 7.24375
      vertex -27.51 -6.99 7.1254
    endloop
  endfacet
  facet normal -1 0 0
    outer loop
      vertex -27.51 -4 7.24375
      vertex -27.51 -6.99 10.66
      vertex -27.51 53 10.66
    endloop
  endfacet
  facet normal 0.987687 0.156441 0
    outer loop
      vertex 27.51 53 10.66
      vertex 27.1106 55.5216 -1.16
      vertex 27.1106 55.5216 10.66
    endloop
  endfacet
  facet normal 0.987687 0.156441 0
    outer loop
      vertex 27.1106 55.5216 -1.16
      vertex 27.51 53 10.66
      vertex 27.51 53 -1.16
    endloop
  endfacet
  facet normal 0 1 0
    outer loop
      vertex 19.35 61.16 10.66
      vertex 16.5 61.16 5.5
      vertex -19.35 61.16 10.66
    endloop
  endfacet
  facet normal 0 1 0
    outer loop
      vertex 19.35 61.16 10.66
      vertex 17.2725 61.16 5.37764
      vertex 16.5 61.16 5.5
    endloop
  endfacet
  facet normal 0 1 0
    outer loop
      vertex 19.35 61.16 10.66
      vertex 17.9695 61.16 5.02254
      vertex 17.2725 61.16 5.37764
    endloop
  endfacet
  facet normal 0 1 0
    outer loop
      vertex 19.35 61.16 10.66
      vertex 18.5225 61.16 4.46946
      vertex 17.9695 61.16 5.02254
    endloop
  endfacet
  facet normal 0 1 0
    outer loop
      vertex 19.35 61.16 10.66
      vertex 18.8776 61.16 3.77254
      vertex 18.5225 61.16 4.46946
    endloop
  endfacet
  facet normal 0 1 0
    outer loop
      vertex 19.35 61.16 10.66
      vertex 19 61.16 3
      vertex 18.8776 61.16 3.77254
    endloop
  endfacet
  facet normal 0 1 0
    outer loop
      vertex 16.5 61.16 0.5
      vertex 19.35 61.16 -1.16
      vertex -16.5 61.16 0.5
    endloop
  endfacet
  facet normal 0 1 0
    outer loop
      vertex 17.2725 61.16 0.622358
      vertex 19.35 61.16 -1.16
      vertex 16.5 61.16 0.5
    endloop
  endfacet
  facet normal 0 1 0
    outer loop
      vertex 17.9695 61.16 0.977457
      vertex 19.35 61.16 -1.16
      vertex 17.2725 61.16 0.622358
    endloop
  endfacet
  facet normal 0 1 0
    outer loop
      vertex 18.5225 61.16 1.53054
      vertex 19.35 61.16 -1.16
      vertex 17.9695 61.16 0.977457
    endloop
  endfacet
  facet normal 0 1 0
    outer loop
      vertex 18.8776 61.16 2.22746
      vertex 19.35 61.16 -1.16
      vertex 18.5225 61.16 1.53054
    endloop
  endfacet
  facet normal 0 1 0
    outer loop
      vertex 19 61.16 3
      vertex 19.35 61.16 -1.16
      vertex 18.8776 61.16 2.22746
    endloop
  endfacet
  facet normal 0 1 -0
    outer loop
      vertex 19.35 61.16 -1.16
      vertex 19 61.16 3
      vertex 19.35 61.16 10.66
    endloop
  endfacet
  facet normal 0 1 -0
    outer loop
      vertex -16.5 61.16 5.5
      vertex -19.35 61.16 10.66
      vertex 16.5 61.16 5.5
    endloop
  endfacet
  facet normal 0 1 -0
    outer loop
      vertex -17.2725 61.16 5.37764
      vertex -19.35 61.16 10.66
      vertex -16.5 61.16 5.5
    endloop
  endfacet
  facet normal 0 1 -0
    outer loop
      vertex -17.9695 61.16 5.02254
      vertex -19.35 61.16 10.66
      vertex -17.2725 61.16 5.37764
    endloop
  endfacet
  facet normal 0 1 -0
    outer loop
      vertex -18.5225 61.16 4.46946
      vertex -19.35 61.16 10.66
      vertex -17.9695 61.16 5.02254
    endloop
  endfacet
  facet normal 0 1 -0
    outer loop
      vertex -18.8776 61.16 3.77254
      vertex -19.35 61.16 10.66
      vertex -18.5225 61.16 4.46946
    endloop
  endfacet
  facet normal 0 1 -0
    outer loop
      vertex -18.9525 61.16 3.30006
      vertex -19.35 61.16 10.66
      vertex -18.8776 61.16 3.77254
    endloop
  endfacet
  facet normal 0 1 -0
    outer loop
      vertex -19 61.16 3
      vertex -19.35 61.16 10.66
      vertex -18.9525 61.16 3.30006
    endloop
  endfacet
  facet normal 0 1 0
    outer loop
      vertex -19 61.16 3
      vertex -19.35 61.16 -1.16
      vertex -19.35 61.16 10.66
    endloop
  endfacet
  facet normal 0 1 0
    outer loop
      vertex -18.9252 61.16 2.52751
      vertex -19.35 61.16 -1.16
      vertex -19 61.16 3
    endloop
  endfacet
  facet normal 0 1 0
    outer loop
      vertex -18.8776 61.16 2.22746
      vertex -19.35 61.16 -1.16
      vertex -18.9252 61.16 2.52751
    endloop
  endfacet
  facet normal 0 1 0
    outer loop
      vertex -18.5225 61.16 1.53054
      vertex -19.35 61.16 -1.16
      vertex -18.8776 61.16 2.22746
    endloop
  endfacet
  facet normal 0 1 0
    outer loop
      vertex -17.9695 61.16 0.977457
      vertex -19.35 61.16 -1.16
      vertex -18.5225 61.16 1.53054
    endloop
  endfacet
  facet normal 0 1 0
    outer loop
      vertex -17.2725 61.16 0.622358
      vertex -19.35 61.16 -1.16
      vertex -17.9695 61.16 0.977457
    endloop
  endfacet
  facet normal 0 1 0
    outer loop
      vertex -16.5 61.16 0.5
      vertex -19.35 61.16 -1.16
      vertex -17.2725 61.16 0.622358
    endloop
  endfacet
  facet normal 0 1 0
    outer loop
      vertex -19.35 61.16 -1.16
      vertex -16.5 61.16 0.5
      vertex 19.35 61.16 -1.16
    endloop
  endfacet
  facet normal -0.987687 0.156441 0
    outer loop
      vertex -27.51 53 -1.16
      vertex -27.1106 55.5216 10.66
      vertex -27.1106 55.5216 -1.16
    endloop
  endfacet
  facet normal -0.987687 0.156441 0
    outer loop
      vertex -27.1106 55.5216 10.66
      vertex -27.51 53 -1.16
      vertex -27.51 53 10.66
    endloop
  endfacet
  facet normal 0 0 1
    outer loop
      vertex 19.35 61.16 10.66
      vertex -5 57.4 10.66
      vertex 5 57.4 10.66
    endloop
  endfacet
  facet normal 0 0 1
    outer loop
      vertex -5 57.4 10.66
      vertex -19.35 61.16 10.66
      vertex -5 55.8 10.66
    endloop
  endfacet
  facet normal -0 0 1
    outer loop
      vertex -19.35 61.16 10.66
      vertex -5 57.4 10.66
      vertex 19.35 61.16 10.66
    endloop
  endfacet
  facet normal 0 0 1
    outer loop
      vertex 21.8716 60.7606 10.66
      vertex 22.5 52 10.66
      vertex 24.1463 59.6016 10.66
    endloop
  endfacet
  facet normal 0 0 1
    outer loop
      vertex 19.35 61.16 10.66
      vertex 22.5 52 10.66
      vertex 21.8716 60.7606 10.66
    endloop
  endfacet
  facet normal 0 0 1
    outer loop
      vertex 5 55.8 10.66
      vertex 19.35 61.16 10.66
      vertex 5 57.4 10.66
    endloop
  endfacet
  facet normal 0 0 1
    outer loop
      vertex 19.35 61.16 10.66
      vertex 5 55.8 10.66
      vertex 22.5 52 10.66
    endloop
  endfacet
  facet normal -0 0 1
    outer loop
      vertex -5 55.8 10.66
      vertex 22.5 52 10.66
      vertex 5 55.8 10.66
    endloop
  endfacet
  facet normal 0 0 1
    outer loop
      vertex -22.5 52 10.66
      vertex -19.35 61.16 10.66
      vertex -21.8716 60.7606 10.66
    endloop
  endfacet
  facet normal 0 0 1
    outer loop
      vertex -5 55.8 10.66
      vertex -22.5 52 10.66
      vertex 22.5 52 10.66
    endloop
  endfacet
  facet normal 0 0 1
    outer loop
      vertex -19.35 61.16 10.66
      vertex -22.5 52 10.66
      vertex -5 55.8 10.66
    endloop
  endfacet
  facet normal -0 0 1
    outer loop
      vertex -24.1463 59.6016 10.66
      vertex -22.5 52 10.66
      vertex -21.8716 60.7606 10.66
    endloop
  endfacet
  facet normal -0 0 1
    outer loop
      vertex -25.9516 57.7963 10.66
      vertex -22.5 52 10.66
      vertex -24.1463 59.6016 10.66
    endloop
  endfacet
  facet normal -0 0 1
    outer loop
      vertex -27.1106 55.5216 10.66
      vertex -22.5 52 10.66
      vertex -25.9516 57.7963 10.66
    endloop
  endfacet
  facet normal 0 0 1
    outer loop
      vertex -22.5 52 10.66
      vertex -27.1106 55.5216 10.66
      vertex -27.51 53 10.66
    endloop
  endfacet
  facet normal 0 0 1
    outer loop
      vertex -27.51 -6.99 10.66
      vertex -22.5 52 10.66
      vertex -27.51 53 10.66
    endloop
  endfacet
  facet normal 0 0 1
    outer loop
      vertex -22.5 52 10.66
      vertex -27.51 -6.99 10.66
      vertex -22.5 -6.99 10.66
    endloop
  endfacet
  facet normal 0 0 1
    outer loop
      vertex 22.5 52 10.66
      vertex 27.51 53 10.66
      vertex 27.1106 55.5216 10.66
    endloop
  endfacet
  facet normal 0 0 1
    outer loop
      vertex 22.5 52 10.66
      vertex 27.1106 55.5216 10.66
      vertex 25.9516 57.7963 10.66
    endloop
  endfacet
  facet normal 0 0 1
    outer loop
      vertex 22.5 52 10.66
      vertex 25.9516 57.7963 10.66
      vertex 24.1463 59.6016 10.66
    endloop
  endfacet
  facet normal 0 0 1
    outer loop
      vertex 27.51 53 10.66
      vertex 22.5 52 10.66
      vertex 27.51 -6.99 10.66
    endloop
  endfacet
  facet normal 0 0 1
    outer loop
      vertex 27.51 -6.99 10.66
      vertex 22.5 52 10.66
      vertex 22.5 -6.99 10.66
    endloop
  endfacet
  facet normal 1 0 0
    outer loop
      vertex 27.51 53 10.66
      vertex 27.51 -4 2.25625
      vertex 27.51 53 -1.16
    endloop
  endfacet
  facet normal 1 0 0
    outer loop
      vertex 27.51 53 10.66
      vertex 27.51 -4 7.24375
      vertex 27.51 -4 2.25625
    endloop
  endfacet
  facet normal 1 -0 0
    outer loop
      vertex 27.51 -6.99 10.66
      vertex 27.51 -4 7.24375
      vertex 27.51 53 10.66
    endloop
  endfacet
  facet normal 1 0 0
    outer loop
      vertex 27.51 -4 7.24375
      vertex 27.51 -6.99 10.66
      vertex 27.51 -6.99 7.1254
    endloop
  endfacet
  facet normal 1 0 0
    outer loop
      vertex 27.51 -6.99 -1.16
      vertex 27.51 -4 2.25625
      vertex 27.51 -6.99 2.3746
    endloop
  endfacet
  facet normal 1 0 0
    outer loop
      vertex 27.51 -4 2.25625
      vertex 27.51 -6.99 -1.16
      vertex 27.51 53 -1.16
    endloop
  endfacet
  facet normal 0.891009 0.453985 0
    outer loop
      vertex 27.1106 55.5216 10.66
      vertex 25.9516 57.7963 -1.16
      vertex 25.9516 57.7963 10.66
    endloop
  endfacet
  facet normal 0.891009 0.453985 0
    outer loop
      vertex 25.9516 57.7963 -1.16
      vertex 27.1106 55.5216 10.66
      vertex 27.1106 55.5216 -1.16
    endloop
  endfacet
  facet normal 0.156441 0.987687 -0
    outer loop
      vertex 21.8716 60.7606 -1.16
      vertex 19.35 61.16 10.66
      vertex 21.8716 60.7606 10.66
    endloop
  endfacet
  facet normal 0.156441 0.987687 0
    outer loop
      vertex 19.35 61.16 10.66
      vertex 21.8716 60.7606 -1.16
      vertex 19.35 61.16 -1.16
    endloop
  endfacet
  facet normal 0.453985 0.891009 -0
    outer loop
      vertex 24.1463 59.6016 -1.16
      vertex 21.8716 60.7606 10.66
      vertex 24.1463 59.6016 10.66
    endloop
  endfacet
  facet normal 0.453985 0.891009 0
    outer loop
      vertex 21.8716 60.7606 10.66
      vertex 24.1463 59.6016 -1.16
      vertex 21.8716 60.7606 -1.16
    endloop
  endfacet
  facet normal 0.707107 0.707107 0
    outer loop
      vertex 25.9516 57.7963 10.66
      vertex 24.1463 59.6016 -1.16
      vertex 24.1463 59.6016 10.66
    endloop
  endfacet
  facet normal 0.707107 0.707107 0
    outer loop
      vertex 24.1463 59.6016 -1.16
      vertex 25.9516 57.7963 10.66
      vertex 25.9516 57.7963 -1.16
    endloop
  endfacet
  facet normal -0.891009 0.453985 0
    outer loop
      vertex -27.1106 55.5216 -1.16
      vertex -25.9516 57.7963 10.66
      vertex -25.9516 57.7963 -1.16
    endloop
  endfacet
  facet normal -0.891009 0.453985 0
    outer loop
      vertex -25.9516 57.7963 10.66
      vertex -27.1106 55.5216 -1.16
      vertex -27.1106 55.5216 10.66
    endloop
  endfacet
  facet normal -0.156441 0.987687 0
    outer loop
      vertex -19.35 61.16 -1.16
      vertex -21.8716 60.7606 10.66
      vertex -19.35 61.16 10.66
    endloop
  endfacet
  facet normal -0.156441 0.987687 0
    outer loop
      vertex -21.8716 60.7606 10.66
      vertex -19.35 61.16 -1.16
      vertex -21.8716 60.7606 -1.16
    endloop
  endfacet
  facet normal -0.453985 0.891009 0
    outer loop
      vertex -21.8716 60.7606 -1.16
      vertex -24.1463 59.6016 10.66
      vertex -21.8716 60.7606 10.66
    endloop
  endfacet
  facet normal -0.453985 0.891009 0
    outer loop
      vertex -24.1463 59.6016 10.66
      vertex -21.8716 60.7606 -1.16
      vertex -24.1463 59.6016 -1.16
    endloop
  endfacet
  facet normal -0.707107 0.707107 0
    outer loop
      vertex -25.9516 57.7963 -1.16
      vertex -24.1463 59.6016 10.66
      vertex -24.1463 59.6016 -1.16
    endloop
  endfacet
  facet normal -0.707107 0.707107 0
    outer loop
      vertex -24.1463 59.6016 10.66
      vertex -25.9516 57.7963 -1.16
      vertex -25.9516 57.7963 10.66
    endloop
  endfacet
  facet normal -1 0 0
    outer loop
      vertex 26.35 53 0
      vertex 26.35 -4 2.25625
      vertex 26.35 53 9.5
    endloop
  endfacet
  facet normal -1 0 0
    outer loop
      vertex 26.35 -6.99 0
      vertex 26.35 -4 2.25625
      vertex 26.35 53 0
    endloop
  endfacet
  facet normal -1 -0 0
    outer loop
      vertex 26.35 -4 2.25625
      vertex 26.35 -6.99 0
      vertex 26.35 -6.99 2.3746
    endloop
  endfacet
  facet normal -1 0 0
    outer loop
      vertex 26.35 -4 7.24375
      vertex 26.35 53 9.5
      vertex 26.35 -4 2.25625
    endloop
  endfacet
  facet normal -1 0 0
    outer loop
      vertex 26.35 -6.99 9.5
      vertex 26.35 -4 7.24375
      vertex 26.35 -6.99 7.1254
    endloop
  endfacet
  facet normal -1 0 0
    outer loop
      vertex 26.35 -4 7.24375
      vertex 26.35 -6.99 9.5
      vertex 26.35 53 9.5
    endloop
  endfacet
  facet normal 0.987688 -0.156434 0
    outer loop
      vertex -26.35 53 9.5
      vertex -26.0074 55.1631 0
      vertex -26.0074 55.1631 9.5
    endloop
  endfacet
  facet normal 0.987688 -0.156434 0
    outer loop
      vertex -26.0074 55.1631 0
      vertex -26.35 53 9.5
      vertex -26.35 53 0
    endloop
  endfacet
  facet normal -0.891004 -0.453995 0
    outer loop
      vertex 26.0074 55.1631 0
      vertex 25.0131 57.1145 9.5
      vertex 25.0131 57.1145 0
    endloop
  endfacet
  facet normal -0.891004 -0.453995 0
    outer loop
      vertex 25.0131 57.1145 9.5
      vertex 26.0074 55.1631 0
      vertex 26.0074 55.1631 9.5
    endloop
  endfacet
  facet normal -0.987688 -0.156434 0
    outer loop
      vertex 26.35 53 0
      vertex 26.0074 55.1631 9.5
      vertex 26.0074 55.1631 0
    endloop
  endfacet
  facet normal -0.987688 -0.156434 0
    outer loop
      vertex 26.0074 55.1631 9.5
      vertex 26.35 53 0
      vertex 26.35 53 9.5
    endloop
  endfacet
  facet normal 1 0 0
    outer loop
      vertex -26.35 53 9.5
      vertex -26.35 -4 2.25625
      vertex -26.35 53 0
    endloop
  endfacet
  facet normal 1 0 0
    outer loop
      vertex -26.35 53 9.5
      vertex -26.35 -4 7.24375
      vertex -26.35 -4 2.25625
    endloop
  endfacet
  facet normal 1 -0 0
    outer loop
      vertex -26.35 -6.99 9.5
      vertex -26.35 -4 7.24375
      vertex -26.35 53 9.5
    endloop
  endfacet
  facet normal 1 0 0
    outer loop
      vertex -26.35 -4 7.24375
      vertex -26.35 -6.99 9.5
      vertex -26.35 -6.99 7.1254
    endloop
  endfacet
  facet normal 1 0 0
    outer loop
      vertex -26.35 -6.99 0
      vertex -26.35 -4 2.25625
      vertex -26.35 -6.99 2.3746
    endloop
  endfacet
  facet normal 1 0 0
    outer loop
      vertex -26.35 -4 2.25625
      vertex -26.35 -6.99 0
      vertex -26.35 53 0
    endloop
  endfacet
  facet normal 0 0 1
    outer loop
      vertex 19.35 60 0
      vertex 3.89933 48.967 0
      vertex 4.1 47.7 0
    endloop
  endfacet
  facet normal 0 0 1
    outer loop
      vertex 19.35 60 0
      vertex 3.31697 50.1099 0
      vertex 3.89933 48.967 0
    endloop
  endfacet
  facet normal 0 0 1
    outer loop
      vertex 19.35 60 0
      vertex 2.40992 51.017 0
      vertex 3.31697 50.1099 0
    endloop
  endfacet
  facet normal 0 0 1
    outer loop
      vertex 19.35 60 0
      vertex 1.26697 51.5993 0
      vertex 2.40992 51.017 0
    endloop
  endfacet
  facet normal 0 0 1
    outer loop
      vertex 19.35 60 0
      vertex 0 51.8 0
      vertex 1.26697 51.5993 0
    endloop
  endfacet
  facet normal -0 0 1
    outer loop
      vertex -19.35 60 0
      vertex 0 51.8 0
      vertex 19.35 60 0
    endloop
  endfacet
  facet normal 0 0 1
    outer loop
      vertex -3.89933 48.967 0
      vertex -19.35 60 0
      vertex -4.1 47.7 0
    endloop
  endfacet
  facet normal 0 0 1
    outer loop
      vertex -3.31697 50.1099 0
      vertex -19.35 60 0
      vertex -3.89933 48.967 0
    endloop
  endfacet
  facet normal 0 0 1
    outer loop
      vertex -2.40992 51.017 0
      vertex -19.35 60 0
      vertex -3.31697 50.1099 0
    endloop
  endfacet
  facet normal 0 0 1
    outer loop
      vertex -1.26697 51.5993 0
      vertex -19.35 60 0
      vertex -2.40992 51.017 0
    endloop
  endfacet
  facet normal 0 0 1
    outer loop
      vertex 0 51.8 0
      vertex -19.35 60 0
      vertex -1.26697 51.5993 0
    endloop
  endfacet
  facet normal 0 0 1
    outer loop
      vertex 19.35 60 0
      vertex 26.35 53 0
      vertex 26.0074 55.1631 0
    endloop
  endfacet
  facet normal 0 0 1
    outer loop
      vertex 19.35 60 0
      vertex 26.0074 55.1631 0
      vertex 25.0131 57.1145 0
    endloop
  endfacet
  facet normal 0 0 1
    outer loop
      vertex 19.35 60 0
      vertex 25.0131 57.1145 0
      vertex 23.4645 58.6631 0
    endloop
  endfacet
  facet normal 0 0 1
    outer loop
      vertex 19.35 60 0
      vertex 23.4645 58.6631 0
      vertex 21.5131 59.6574 0
    endloop
  endfacet
  facet normal 0 0 1
    outer loop
      vertex 26.35 53 0
      vertex 19.35 60 0
      vertex 4.1 47.7 0
    endloop
  endfacet
  facet normal 0 0 1
    outer loop
      vertex 26.35 53 0
      vertex 4.1 47.7 0
      vertex 3.89933 46.433 0
    endloop
  endfacet
  facet normal 0 0 1
    outer loop
      vertex 26.35 53 0
      vertex 3.89933 46.433 0
      vertex 3.31697 45.2901 0
    endloop
  endfacet
  facet normal 0 0 1
    outer loop
      vertex 2.40992 44.383 0
      vertex 26.35 53 0
      vertex 3.31697 45.2901 0
    endloop
  endfacet
  facet normal 0 0 1
    outer loop
      vertex 26.35 53 0
      vertex 2.40992 44.383 0
      vertex 26.35 -6.99 0
    endloop
  endfacet
  facet normal -0 0 1
    outer loop
      vertex 1.26697 43.8007 0
      vertex 26.35 -6.99 0
      vertex 2.40992 44.383 0
    endloop
  endfacet
  facet normal -0 0 1
    outer loop
      vertex 0 43.6 0
      vertex 26.35 -6.99 0
      vertex 1.26697 43.8007 0
    endloop
  endfacet
  facet normal 0 0 1
    outer loop
      vertex -26.35 -6.99 0
      vertex 0 43.6 0
      vertex -1.26697 43.8007 0
    endloop
  endfacet
  facet normal 0 0 1
    outer loop
      vertex -26.35 -6.99 0
      vertex -1.26697 43.8007 0
      vertex -2.40992 44.383 0
    endloop
  endfacet
  facet normal 0 0 1
    outer loop
      vertex -26.35 53 0
      vertex -2.40992 44.383 0
      vertex -3.31697 45.2901 0
    endloop
  endfacet
  facet normal -0 0 1
    outer loop
      vertex -26.35 53 0
      vertex -4.1 47.7 0
      vertex -19.35 60 0
    endloop
  endfacet
  facet normal 0 0 1
    outer loop
      vertex -4.1 47.7 0
      vertex -26.35 53 0
      vertex -3.89933 46.433 0
    endloop
  endfacet
  facet normal 0 0 1
    outer loop
      vertex -3.89933 46.433 0
      vertex -26.35 53 0
      vertex -3.31697 45.2901 0
    endloop
  endfacet
  facet normal 0 0 1
    outer loop
      vertex -26.35 53 0
      vertex -19.35 60 0
      vertex -21.5131 59.6574 0
    endloop
  endfacet
  facet normal 0 0 1
    outer loop
      vertex -26.35 53 0
      vertex -21.5131 59.6574 0
      vertex -23.4645 58.6631 0
    endloop
  endfacet
  facet normal 0 0 1
    outer loop
      vertex -26.35 53 0
      vertex -23.4645 58.6631 0
      vertex -25.0131 57.1145 0
    endloop
  endfacet
  facet normal 0 0 1
    outer loop
      vertex -26.35 53 0
      vertex -25.0131 57.1145 0
      vertex -26.0074 55.1631 0
    endloop
  endfacet
  facet normal 0 0 1
    outer loop
      vertex -2.40992 44.383 0
      vertex -26.35 53 0
      vertex -26.35 -6.99 0
    endloop
  endfacet
  facet normal 0 0 1
    outer loop
      vertex 0 43.6 0
      vertex -26.35 -6.99 0
      vertex 26.35 -6.99 0
    endloop
  endfacet
  facet normal 0 0 -1
    outer loop
      vertex -26.35 -6.99 9.5
      vertex -22.5 52 9.5
      vertex -22.5 -6.99 9.5
    endloop
  endfacet
  facet normal 0 -0 -1
    outer loop
      vertex -26.0074 55.1631 9.5
      vertex -22.5 52 9.5
      vertex -26.35 53 9.5
    endloop
  endfacet
  facet normal 0 0 -1
    outer loop
      vertex -22.5 52 9.5
      vertex -25.0131 57.1145 9.5
      vertex -23.4645 58.6631 9.5
    endloop
  endfacet
  facet normal -0 0 -1
    outer loop
      vertex -22.5 52 9.5
      vertex -26.35 -6.99 9.5
      vertex -26.35 53 9.5
    endloop
  endfacet
  facet normal 0 0 -1
    outer loop
      vertex -22.5 52 9.5
      vertex -26.0074 55.1631 9.5
      vertex -25.0131 57.1145 9.5
    endloop
  endfacet
  facet normal 0 0 -1
    outer loop
      vertex 22.5 52 9.5
      vertex 26.35 53 9.5
      vertex 26.35 -6.99 9.5
    endloop
  endfacet
  facet normal -0 0 -1
    outer loop
      vertex 26.35 53 9.5
      vertex 22.5 52 9.5
      vertex 26.0074 55.1631 9.5
    endloop
  endfacet
  facet normal -0 0 -1
    outer loop
      vertex 26.0074 55.1631 9.5
      vertex 22.5 52 9.5
      vertex 25.0131 57.1145 9.5
    endloop
  endfacet
  facet normal 0 0 -1
    outer loop
      vertex 22.5 52 9.5
      vertex 26.35 -6.99 9.5
      vertex 22.5 -6.99 9.5
    endloop
  endfacet
  facet normal -0 0 -1
    outer loop
      vertex 25.0131 57.1145 9.5
      vertex 22.5 52 9.5
      vertex 23.4645 58.6631 9.5
    endloop
  endfacet
  facet normal 0 0 -1
    outer loop
      vertex 22.5 52 9.5
      vertex 21.5131 59.6574 9.5
      vertex 23.4645 58.6631 9.5
    endloop
  endfacet
  facet normal 0 0 -1
    outer loop
      vertex 22.5 52 9.5
      vertex 19.35 60 9.5
      vertex 21.5131 59.6574 9.5
    endloop
  endfacet
  facet normal 0 0 -1
    outer loop
      vertex 22.5 52 9.5
      vertex 5 55.8 9.5
      vertex 19.35 60 9.5
    endloop
  endfacet
  facet normal 0 0 -1
    outer loop
      vertex 22.5 52 9.5
      vertex -5 55.8 9.5
      vertex 5 55.8 9.5
    endloop
  endfacet
  facet normal 0 0 -1
    outer loop
      vertex -5 55.8 9.5
      vertex -19.35 60 9.5
      vertex -5 57.4 9.5
    endloop
  endfacet
  facet normal 0 0 -1
    outer loop
      vertex -22.5 52 9.5
      vertex -19.35 60 9.5
      vertex -5 55.8 9.5
    endloop
  endfacet
  facet normal 0 0 -1
    outer loop
      vertex -22.5 52 9.5
      vertex -5 55.8 9.5
      vertex 22.5 52 9.5
    endloop
  endfacet
  facet normal 0 0 -1
    outer loop
      vertex -19.35 60 9.5
      vertex -22.5 52 9.5
      vertex -21.5131 59.6574 9.5
    endloop
  endfacet
  facet normal 0 0 -1
    outer loop
      vertex -21.5131 59.6574 9.5
      vertex -22.5 52 9.5
      vertex -23.4645 58.6631 9.5
    endloop
  endfacet
  facet normal 0 0 -1
    outer loop
      vertex 5 57.4 9.5
      vertex 19.35 60 9.5
      vertex 5 55.8 9.5
    endloop
  endfacet
  facet normal 0 0 -1
    outer loop
      vertex -5 57.4 9.5
      vertex 19.35 60 9.5
      vertex 5 57.4 9.5
    endloop
  endfacet
  facet normal -0 0 -1
    outer loop
      vertex 19.35 60 9.5
      vertex -5 57.4 9.5
      vertex -19.35 60 9.5
    endloop
  endfacet
  facet normal 0 -1 0
    outer loop
      vertex -19.35 60 9.5
      vertex -16.5 60 5.5
      vertex 19.35 60 9.5
    endloop
  endfacet
  facet normal 0 -1 0
    outer loop
      vertex -19.35 60 9.5
      vertex -17.2725 60 5.37764
      vertex -16.5 60 5.5
    endloop
  endfacet
  facet normal 0 -1 0
    outer loop
      vertex -19.35 60 9.5
      vertex -17.9695 60 5.02254
      vertex -17.2725 60 5.37764
    endloop
  endfacet
  facet normal 0 -1 0
    outer loop
      vertex -19.35 60 9.5
      vertex -18.5225 60 4.46946
      vertex -17.9695 60 5.02254
    endloop
  endfacet
  facet normal 0 -1 0
    outer loop
      vertex -19.35 60 9.5
      vertex -18.8776 60 3.77254
      vertex -18.5225 60 4.46946
    endloop
  endfacet
  facet normal 0 -1 0
    outer loop
      vertex -19.35 60 9.5
      vertex -18.9511 60 3.30902
      vertex -18.8776 60 3.77254
    endloop
  endfacet
  facet normal 0 -1 0
    outer loop
      vertex -19.35 60 9.5
      vertex -19 60 3
      vertex -18.9511 60 3.30902
    endloop
  endfacet
  facet normal 0 -1 -0
    outer loop
      vertex -16.5 60 0.5
      vertex -19.35 60 0
      vertex 16.5 60 0.5
    endloop
  endfacet
  facet normal 0 -1 -0
    outer loop
      vertex -17.2725 60 0.622358
      vertex -19.35 60 0
      vertex -16.5 60 0.5
    endloop
  endfacet
  facet normal 0 -1 -0
    outer loop
      vertex -17.9695 60 0.977457
      vertex -19.35 60 0
      vertex -17.2725 60 0.622358
    endloop
  endfacet
  facet normal 0 -1 -0
    outer loop
      vertex -18.5225 60 1.53054
      vertex -19.35 60 0
      vertex -17.9695 60 0.977457
    endloop
  endfacet
  facet normal 0 -1 -0
    outer loop
      vertex -18.8776 60 2.22746
      vertex -19.35 60 0
      vertex -18.5225 60 1.53054
    endloop
  endfacet
  facet normal 0 -1 -0
    outer loop
      vertex -18.9266 60 2.53647
      vertex -19.35 60 0
      vertex -18.8776 60 2.22746
    endloop
  endfacet
  facet normal 0 -1 -0
    outer loop
      vertex -19 60 3
      vertex -19.35 60 0
      vertex -18.9266 60 2.53647
    endloop
  endfacet
  facet normal 0 -1 0
    outer loop
      vertex -19.35 60 0
      vertex -19 60 3
      vertex -19.35 60 9.5
    endloop
  endfacet
  facet normal 0 -1 0
    outer loop
      vertex 16.5 60 5.5
      vertex 19.35 60 9.5
      vertex -16.5 60 5.5
    endloop
  endfacet
  facet normal 0 -1 0
    outer loop
      vertex 17.2725 60 5.37764
      vertex 19.35 60 9.5
      vertex 16.5 60 5.5
    endloop
  endfacet
  facet normal 0 -1 0
    outer loop
      vertex 17.9695 60 5.02254
      vertex 19.35 60 9.5
      vertex 17.2725 60 5.37764
    endloop
  endfacet
  facet normal 0 -1 0
    outer loop
      vertex 18.5225 60 4.46946
      vertex 19.35 60 9.5
      vertex 17.9695 60 5.02254
    endloop
  endfacet
  facet normal 0 -1 0
    outer loop
      vertex 18.8776 60 3.77254
      vertex 19.35 60 9.5
      vertex 18.5225 60 4.46946
    endloop
  endfacet
  facet normal 0 -1 0
    outer loop
      vertex 19 60 3
      vertex 19.35 60 9.5
      vertex 18.8776 60 3.77254
    endloop
  endfacet
  facet normal 0 -1 0
    outer loop
      vertex 19 60 3
      vertex 19.35 60 0
      vertex 19.35 60 9.5
    endloop
  endfacet
  facet normal 0 -1 0
    outer loop
      vertex 18.8776 60 2.22746
      vertex 19.35 60 0
      vertex 19 60 3
    endloop
  endfacet
  facet normal 0 -1 0
    outer loop
      vertex 18.5225 60 1.53054
      vertex 19.35 60 0
      vertex 18.8776 60 2.22746
    endloop
  endfacet
  facet normal 0 -1 0
    outer loop
      vertex 17.9695 60 0.977457
      vertex 19.35 60 0
      vertex 18.5225 60 1.53054
    endloop
  endfacet
  facet normal 0 -1 0
    outer loop
      vertex 17.2725 60 0.622358
      vertex 19.35 60 0
      vertex 17.9695 60 0.977457
    endloop
  endfacet
  facet normal 0 -1 0
    outer loop
      vertex 16.5 60 0.5
      vertex 19.35 60 0
      vertex 17.2725 60 0.622358
    endloop
  endfacet
  facet normal 0 -1 0
    outer loop
      vertex 19.35 60 0
      vertex 16.5 60 0.5
      vertex -19.35 60 0
    endloop
  endfacet
  facet normal 0.891004 -0.453995 0
    outer loop
      vertex -26.0074 55.1631 9.5
      vertex -25.0131 57.1145 0
      vertex -25.0131 57.1145 9.5
    endloop
  endfacet
  facet normal 0.891004 -0.453995 0
    outer loop
      vertex -25.0131 57.1145 0
      vertex -26.0074 55.1631 9.5
      vertex -26.0074 55.1631 0
    endloop
  endfacet
  facet normal -0.156434 -0.987688 0
    outer loop
      vertex 19.35 60 0
      vertex 21.5131 59.6574 9.5
      vertex 19.35 60 9.5
    endloop
  endfacet
  facet normal -0.156434 -0.987688 -0
    outer loop
      vertex 21.5131 59.6574 9.5
      vertex 19.35 60 0
      vertex 21.5131 59.6574 0
    endloop
  endfacet
  facet normal 0.453995 -0.891004 0
    outer loop
      vertex -23.4645 58.6631 0
      vertex -21.5131 59.6574 9.5
      vertex -23.4645 58.6631 9.5
    endloop
  endfacet
  facet normal 0.453995 -0.891004 0
    outer loop
      vertex -21.5131 59.6574 9.5
      vertex -23.4645 58.6631 0
      vertex -21.5131 59.6574 0
    endloop
  endfacet
  facet normal 0.156434 -0.987688 0
    outer loop
      vertex -21.5131 59.6574 0
      vertex -19.35 60 9.5
      vertex -21.5131 59.6574 9.5
    endloop
  endfacet
  facet normal 0.156434 -0.987688 0
    outer loop
      vertex -19.35 60 9.5
      vertex -21.5131 59.6574 0
      vertex -19.35 60 0
    endloop
  endfacet
  facet normal 0.707107 -0.707107 0
    outer loop
      vertex -25.0131 57.1145 9.5
      vertex -23.4645 58.6631 0
      vertex -23.4645 58.6631 9.5
    endloop
  endfacet
  facet normal 0.707107 -0.707107 0
    outer loop
      vertex -23.4645 58.6631 0
      vertex -25.0131 57.1145 9.5
      vertex -25.0131 57.1145 0
    endloop
  endfacet
  facet normal -0.453995 -0.891004 0
    outer loop
      vertex 21.5131 59.6574 0
      vertex 23.4645 58.6631 9.5
      vertex 21.5131 59.6574 9.5
    endloop
  endfacet
  facet normal -0.453995 -0.891004 -0
    outer loop
      vertex 23.4645 58.6631 9.5
      vertex 21.5131 59.6574 0
      vertex 23.4645 58.6631 0
    endloop
  endfacet
  facet normal -0.707107 -0.707107 0
    outer loop
      vertex 25.0131 57.1145 0
      vertex 23.4645 58.6631 9.5
      vertex 23.4645 58.6631 0
    endloop
  endfacet
  facet normal -0.707107 -0.707107 0
    outer loop
      vertex 23.4645 58.6631 9.5
      vertex 25.0131 57.1145 0
      vertex 25.0131 57.1145 9.5
    endloop
  endfacet
  facet normal -1 0 0
    outer loop
      vertex 22.5 -6.99 9.5
      vertex 22.5 52 10.66
      vertex 22.5 52 9.5
    endloop
  endfacet
  facet normal -1 -0 0
    outer loop
      vertex 22.5 52 10.66
      vertex 22.5 -6.99 9.5
      vertex 22.5 -6.99 10.66
    endloop
  endfacet
  facet normal 1 -0 0
    outer loop
      vertex -22.5 -6.99 10.66
      vertex -22.5 52 9.5
      vertex -22.5 52 10.66
    endloop
  endfacet
  facet normal 1 0 0
    outer loop
      vertex -22.5 52 9.5
      vertex -22.5 -6.99 10.66
      vertex -22.5 -6.99 9.5
    endloop
  endfacet
  facet normal 0 -1 0
    outer loop
      vertex -22.5 52 9.5
      vertex 22.5 52 10.66
      vertex -22.5 52 10.66
    endloop
  endfacet
  facet normal 0 -1 -0
    outer loop
      vertex 22.5 52 10.66
      vertex -22.5 52 9.5
      vertex 22.5 52 9.5
    endloop
  endfacet
  facet normal 0.891006 0 -0.453992
    outer loop
      vertex -18.5225 60 4.46946
      vertex -18.8776 61.16 3.77254
      vertex -18.5225 61.16 4.46946
    endloop
  endfacet
  facet normal 0.891006 0 -0.453992
    outer loop
      vertex -18.8776 61.16 3.77254
      vertex -18.5225 60 4.46946
      vertex -18.8776 60 3.77254
    endloop
  endfacet
  facet normal 0.707158 0 -0.707056
    outer loop
      vertex -17.9695 60 5.02254
      vertex -18.5225 61.16 4.46946
      vertex -17.9695 61.16 5.02254
    endloop
  endfacet
  facet normal 0.707158 0 -0.707056
    outer loop
      vertex -18.5225 61.16 4.46946
      vertex -17.9695 60 5.02254
      vertex -18.5225 60 4.46946
    endloop
  endfacet
  facet normal 0.987701 -1.56525e-05 -0.156355
    outer loop
      vertex -18.9511 60 3.30902
      vertex -19 61.16 3
      vertex -18.9525 61.16 3.30006
    endloop
  endfacet
  facet normal 0.98771 0 -0.156297
    outer loop
      vertex -19 61.16 3
      vertex -18.9511 60 3.30902
      vertex -19 60 3
    endloop
  endfacet
  facet normal 0.9877 -0 0.156363
    outer loop
      vertex -19 60 3
      vertex -18.9252 61.16 2.52751
      vertex -19 61.16 3
    endloop
  endfacet
  facet normal 0.987694 1.60215e-05 0.156401
    outer loop
      vertex -18.9252 61.16 2.52751
      vertex -19 60 3
      vertex -18.9266 60 2.53647
    endloop
  endfacet
  facet normal 0 0 -1
    outer loop
      vertex -16.5 60 5.5
      vertex 16.5 61.16 5.5
      vertex 16.5 60 5.5
    endloop
  endfacet
  facet normal -0 0 -1
    outer loop
      vertex 16.5 61.16 5.5
      vertex -16.5 60 5.5
      vertex -16.5 61.16 5.5
    endloop
  endfacet
  facet normal 0.156442 0 0.987687
    outer loop
      vertex -17.2725 61.16 0.622358
      vertex -16.5 60 0.5
      vertex -16.5 61.16 0.5
    endloop
  endfacet
  facet normal 0.156442 0 0.987687
    outer loop
      vertex -16.5 60 0.5
      vertex -17.2725 61.16 0.622358
      vertex -17.2725 60 0.622358
    endloop
  endfacet
  facet normal -0 0 1
    outer loop
      vertex -16.5 61.16 0.5
      vertex 16.5 60 0.5
      vertex 16.5 61.16 0.5
    endloop
  endfacet
  facet normal 0 0 1
    outer loop
      vertex 16.5 60 0.5
      vertex -16.5 61.16 0.5
      vertex -16.5 60 0.5
    endloop
  endfacet
  facet normal -0.98768 0 -0.156486
    outer loop
      vertex 19 60 3
      vertex 18.8776 61.16 3.77254
      vertex 19 61.16 3
    endloop
  endfacet
  facet normal -0.98768 -0 -0.156486
    outer loop
      vertex 18.8776 61.16 3.77254
      vertex 19 60 3
      vertex 18.8776 60 3.77254
    endloop
  endfacet
  facet normal 0.987667 0 -0.15657
    outer loop
      vertex -18.8776 60 3.77254
      vertex -18.9525 61.16 3.30006
      vertex -18.8776 61.16 3.77254
    endloop
  endfacet
  facet normal 0.98766 -1.76928e-05 -0.156612
    outer loop
      vertex -18.9525 61.16 3.30006
      vertex -18.8776 60 3.77254
      vertex -18.9511 60 3.30902
    endloop
  endfacet
  facet normal 0.453951 0 -0.891027
    outer loop
      vertex -17.9695 60 5.02254
      vertex -17.2725 61.16 5.37764
      vertex -17.2725 60 5.37764
    endloop
  endfacet
  facet normal 0.453951 0 -0.891027
    outer loop
      vertex -17.2725 61.16 5.37764
      vertex -17.9695 60 5.02254
      vertex -17.9695 61.16 5.02254
    endloop
  endfacet
  facet normal 0.891006 -0 0.453992
    outer loop
      vertex -18.8776 60 2.22746
      vertex -18.5225 61.16 1.53054
      vertex -18.8776 61.16 2.22746
    endloop
  endfacet
  facet normal 0.891006 0 0.453992
    outer loop
      vertex -18.5225 61.16 1.53054
      vertex -18.8776 60 2.22746
      vertex -18.5225 60 1.53054
    endloop
  endfacet
  facet normal -0.156442 0 0.987687
    outer loop
      vertex 16.5 61.16 0.5
      vertex 17.2725 60 0.622358
      vertex 17.2725 61.16 0.622358
    endloop
  endfacet
  facet normal -0.156442 0 0.987687
    outer loop
      vertex 17.2725 60 0.622358
      vertex 16.5 61.16 0.5
      vertex 16.5 60 0.5
    endloop
  endfacet
  facet normal -0.891006 0 0.453992
    outer loop
      vertex 18.5225 60 1.53054
      vertex 18.8776 61.16 2.22746
      vertex 18.5225 61.16 1.53054
    endloop
  endfacet
  facet normal -0.891006 0 0.453992
    outer loop
      vertex 18.8776 61.16 2.22746
      vertex 18.5225 60 1.53054
      vertex 18.8776 60 2.22746
    endloop
  endfacet
  facet normal -0.98768 0 0.156486
    outer loop
      vertex 18.8776 60 2.22746
      vertex 19 61.16 3
      vertex 18.8776 61.16 2.22746
    endloop
  endfacet
  facet normal -0.98768 0 0.156486
    outer loop
      vertex 19 61.16 3
      vertex 18.8776 60 2.22746
      vertex 19 60 3
    endloop
  endfacet
  facet normal 0.987649 1.82344e-05 0.156681
    outer loop
      vertex -18.9266 60 2.53647
      vertex -18.8776 61.16 2.22746
      vertex -18.9252 61.16 2.52751
    endloop
  endfacet
  facet normal 0.98766 0 0.156614
    outer loop
      vertex -18.8776 61.16 2.22746
      vertex -18.9266 60 2.53647
      vertex -18.8776 60 2.22746
    endloop
  endfacet
  facet normal 0.70716 -0 0.707054
    outer loop
      vertex -18.5225 60 1.53054
      vertex -17.9695 61.16 0.977457
      vertex -18.5225 61.16 1.53054
    endloop
  endfacet
  facet normal 0.70716 0 0.707054
    outer loop
      vertex -17.9695 61.16 0.977457
      vertex -18.5225 60 1.53054
      vertex -17.9695 60 0.977457
    endloop
  endfacet
  facet normal -0.45395 0 0.891027
    outer loop
      vertex 17.2725 61.16 0.622358
      vertex 17.9695 60 0.977457
      vertex 17.9695 61.16 0.977457
    endloop
  endfacet
  facet normal -0.45395 0 0.891027
    outer loop
      vertex 17.9695 60 0.977457
      vertex 17.2725 61.16 0.622358
      vertex 17.2725 60 0.622358
    endloop
  endfacet
  facet normal -0.70716 0 0.707054
    outer loop
      vertex 17.9695 60 0.977457
      vertex 18.5225 61.16 1.53054
      vertex 17.9695 61.16 0.977457
    endloop
  endfacet
  facet normal -0.70716 0 0.707054
    outer loop
      vertex 18.5225 61.16 1.53054
      vertex 17.9695 60 0.977457
      vertex 18.5225 60 1.53054
    endloop
  endfacet
  facet normal -0.707158 0 -0.707056
    outer loop
      vertex 18.5225 60 4.46946
      vertex 17.9695 61.16 5.02254
      vertex 18.5225 61.16 4.46946
    endloop
  endfacet
  facet normal -0.707158 -0 -0.707056
    outer loop
      vertex 17.9695 61.16 5.02254
      vertex 18.5225 60 4.46946
      vertex 17.9695 60 5.02254
    endloop
  endfacet
  facet normal -0.891006 0 -0.453992
    outer loop
      vertex 18.8776 60 3.77254
      vertex 18.5225 61.16 4.46946
      vertex 18.8776 61.16 3.77254
    endloop
  endfacet
  facet normal -0.891006 -0 -0.453992
    outer loop
      vertex 18.5225 61.16 4.46946
      vertex 18.8776 60 3.77254
      vertex 18.5225 60 4.46946
    endloop
  endfacet
  facet normal 0.156444 0 -0.987687
    outer loop
      vertex -17.2725 60 5.37764
      vertex -16.5 61.16 5.5
      vertex -16.5 60 5.5
    endloop
  endfacet
  facet normal 0.156444 0 -0.987687
    outer loop
      vertex -16.5 61.16 5.5
      vertex -17.2725 60 5.37764
      vertex -17.2725 61.16 5.37764
    endloop
  endfacet
  facet normal 0.45395 0 0.891027
    outer loop
      vertex -17.9695 61.16 0.977457
      vertex -17.2725 60 0.622358
      vertex -17.2725 61.16 0.622358
    endloop
  endfacet
  facet normal 0.45395 0 0.891027
    outer loop
      vertex -17.2725 60 0.622358
      vertex -17.9695 61.16 0.977457
      vertex -17.9695 60 0.977457
    endloop
  endfacet
  facet normal -0.453951 0 -0.891027
    outer loop
      vertex 17.2725 60 5.37764
      vertex 17.9695 61.16 5.02254
      vertex 17.9695 60 5.02254
    endloop
  endfacet
  facet normal -0.453951 0 -0.891027
    outer loop
      vertex 17.9695 61.16 5.02254
      vertex 17.2725 60 5.37764
      vertex 17.2725 61.16 5.37764
    endloop
  endfacet
  facet normal -0.156444 0 -0.987687
    outer loop
      vertex 16.5 60 5.5
      vertex 17.2725 61.16 5.37764
      vertex 17.2725 60 5.37764
    endloop
  endfacet
  facet normal -0.156444 0 -0.987687
    outer loop
      vertex 17.2725 61.16 5.37764
      vertex 16.5 60 5.5
      vertex 16.5 61.16 5.5
    endloop
  endfacet
  facet normal -0.987689 0.156432 0
    outer loop
      vertex 3.89933 46.433 -1.16
      vertex 4.1 47.7 0
      vertex 4.1 47.7 -1.16
    endloop
  endfacet
  facet normal -0.987689 0.156432 0
    outer loop
      vertex 4.1 47.7 0
      vertex 3.89933 46.433 -1.16
      vertex 3.89933 46.433 0
    endloop
  endfacet
  facet normal -0.987689 -0.156432 0
    outer loop
      vertex 4.1 47.7 -1.16
      vertex 3.89933 48.967 0
      vertex 3.89933 48.967 -1.16
    endloop
  endfacet
  facet normal -0.987689 -0.156432 0
    outer loop
      vertex 3.89933 48.967 0
      vertex 4.1 47.7 -1.16
      vertex 4.1 47.7 0
    endloop
  endfacet
  facet normal 0.156459 -0.987685 0
    outer loop
      vertex -1.26697 51.5993 -1.16
      vertex 0 51.8 0
      vertex -1.26697 51.5993 0
    endloop
  endfacet
  facet normal 0.156459 -0.987685 0
    outer loop
      vertex 0 51.8 0
      vertex -1.26697 51.5993 -1.16
      vertex 0 51.8 -1.16
    endloop
  endfacet
  facet normal 0.707126 0.707087 0
    outer loop
      vertex -2.40992 44.383 0
      vertex -3.31697 45.2901 -1.16
      vertex -3.31697 45.2901 0
    endloop
  endfacet
  facet normal 0.707126 0.707087 0
    outer loop
      vertex -3.31697 45.2901 -1.16
      vertex -2.40992 44.383 0
      vertex -2.40992 44.383 -1.16
    endloop
  endfacet
  facet normal 0.453952 -0.891026 0
    outer loop
      vertex -2.40992 51.017 -1.16
      vertex -1.26697 51.5993 0
      vertex -2.40992 51.017 0
    endloop
  endfacet
  facet normal 0.453952 -0.891026 0
    outer loop
      vertex -1.26697 51.5993 0
      vertex -2.40992 51.017 -1.16
      vertex -1.26697 51.5993 -1.16
    endloop
  endfacet
  facet normal 0.987689 0.156432 0
    outer loop
      vertex -3.89933 46.433 0
      vertex -4.1 47.7 -1.16
      vertex -4.1 47.7 0
    endloop
  endfacet
  facet normal 0.987689 0.156432 0
    outer loop
      vertex -4.1 47.7 -1.16
      vertex -3.89933 46.433 0
      vertex -3.89933 46.433 -1.16
    endloop
  endfacet
  facet normal 0.890999 0.454005 0
    outer loop
      vertex -3.31697 45.2901 0
      vertex -3.89933 46.433 -1.16
      vertex -3.89933 46.433 0
    endloop
  endfacet
  facet normal 0.890999 0.454005 0
    outer loop
      vertex -3.89933 46.433 -1.16
      vertex -3.31697 45.2901 0
      vertex -3.31697 45.2901 -1.16
    endloop
  endfacet
  facet normal -0.707126 0.707087 0
    outer loop
      vertex 2.40992 44.383 -1.16
      vertex 3.31697 45.2901 0
      vertex 3.31697 45.2901 -1.16
    endloop
  endfacet
  facet normal -0.707126 0.707087 0
    outer loop
      vertex 3.31697 45.2901 0
      vertex 2.40992 44.383 -1.16
      vertex 2.40992 44.383 0
    endloop
  endfacet
  facet normal -0.156459 0.987685 0
    outer loop
      vertex 1.26697 43.8007 -1.16
      vertex 0 43.6 0
      vertex 1.26697 43.8007 0
    endloop
  endfacet
  facet normal -0.156459 0.987685 0
    outer loop
      vertex 0 43.6 0
      vertex 1.26697 43.8007 -1.16
      vertex 0 43.6 -1.16
    endloop
  endfacet
  facet normal -0.453952 0.891026 0
    outer loop
      vertex 2.40992 44.383 -1.16
      vertex 1.26697 43.8007 0
      vertex 2.40992 44.383 0
    endloop
  endfacet
  facet normal -0.453952 0.891026 0
    outer loop
      vertex 1.26697 43.8007 0
      vertex 2.40992 44.383 -1.16
      vertex 1.26697 43.8007 -1.16
    endloop
  endfacet
  facet normal -0.890999 -0.454005 0
    outer loop
      vertex 3.89933 48.967 -1.16
      vertex 3.31697 50.1099 0
      vertex 3.31697 50.1099 -1.16
    endloop
  endfacet
  facet normal -0.890999 -0.454005 0
    outer loop
      vertex 3.31697 50.1099 0
      vertex 3.89933 48.967 -1.16
      vertex 3.89933 48.967 0
    endloop
  endfacet
  facet normal 0.453952 0.891026 -0
    outer loop
      vertex -1.26697 43.8007 -1.16
      vertex -2.40992 44.383 0
      vertex -1.26697 43.8007 0
    endloop
  endfacet
  facet normal 0.453952 0.891026 0
    outer loop
      vertex -2.40992 44.383 0
      vertex -1.26697 43.8007 -1.16
      vertex -2.40992 44.383 -1.16
    endloop
  endfacet
  facet normal 0.156459 0.987685 -0
    outer loop
      vertex 0 43.6 -1.16
      vertex -1.26697 43.8007 0
      vertex 0 43.6 0
    endloop
  endfacet
  facet normal 0.156459 0.987685 0
    outer loop
      vertex -1.26697 43.8007 0
      vertex 0 43.6 -1.16
      vertex -1.26697 43.8007 -1.16
    endloop
  endfacet
  facet normal -0.890999 0.454005 0
    outer loop
      vertex 3.31697 45.2901 -1.16
      vertex 3.89933 46.433 0
      vertex 3.89933 46.433 -1.16
    endloop
  endfacet
  facet normal -0.890999 0.454005 0
    outer loop
      vertex 3.89933 46.433 0
      vertex 3.31697 45.2901 -1.16
      vertex 3.31697 45.2901 0
    endloop
  endfacet
  facet normal 0.987689 -0.156432 0
    outer loop
      vertex -4.1 47.7 0
      vertex -3.89933 48.967 -1.16
      vertex -3.89933 48.967 0
    endloop
  endfacet
  facet normal 0.987689 -0.156432 0
    outer loop
      vertex -3.89933 48.967 -1.16
      vertex -4.1 47.7 0
      vertex -4.1 47.7 -1.16
    endloop
  endfacet
  facet normal -0.707126 -0.707087 0
    outer loop
      vertex 3.31697 50.1099 -1.16
      vertex 2.40992 51.017 0
      vertex 2.40992 51.017 -1.16
    endloop
  endfacet
  facet normal -0.707126 -0.707087 0
    outer loop
      vertex 2.40992 51.017 0
      vertex 3.31697 50.1099 -1.16
      vertex 3.31697 50.1099 0
    endloop
  endfacet
  facet normal -0.156459 -0.987685 0
    outer loop
      vertex 0 51.8 -1.16
      vertex 1.26697 51.5993 0
      vertex 0 51.8 0
    endloop
  endfacet
  facet normal -0.156459 -0.987685 -0
    outer loop
      vertex 1.26697 51.5993 0
      vertex 0 51.8 -1.16
      vertex 1.26697 51.5993 -1.16
    endloop
  endfacet
  facet normal -0.453952 -0.891026 0
    outer loop
      vertex 1.26697 51.5993 -1.16
      vertex 2.40992 51.017 0
      vertex 1.26697 51.5993 0
    endloop
  endfacet
  facet normal -0.453952 -0.891026 -0
    outer loop
      vertex 2.40992 51.017 0
      vertex 1.26697 51.5993 -1.16
      vertex 2.40992 51.017 -1.16
    endloop
  endfacet
  facet normal 0.890999 -0.454005 0
    outer loop
      vertex -3.89933 48.967 0
      vertex -3.31697 50.1099 -1.16
      vertex -3.31697 50.1099 0
    endloop
  endfacet
  facet normal 0.890999 -0.454005 0
    outer loop
      vertex -3.31697 50.1099 -1.16
      vertex -3.89933 48.967 0
      vertex -3.89933 48.967 -1.16
    endloop
  endfacet
  facet normal 0.707126 -0.707087 0
    outer loop
      vertex -3.31697 50.1099 0
      vertex -2.40992 51.017 -1.16
      vertex -2.40992 51.017 0
    endloop
  endfacet
  facet normal 0.707126 -0.707087 0
    outer loop
      vertex -2.40992 51.017 -1.16
      vertex -3.31697 50.1099 0
      vertex -3.31697 50.1099 -1.16
    endloop
  endfacet
  facet normal -1 0 0
    outer loop
      vertex 5 55.8 9.5
      vertex 5 57.4 10.66
      vertex 5 57.4 9.5
    endloop
  endfacet
  facet normal -1 -0 0
    outer loop
      vertex 5 57.4 10.66
      vertex 5 55.8 9.5
      vertex 5 55.8 10.66
    endloop
  endfacet
  facet normal 1 -0 0
    outer loop
      vertex -5 55.8 10.66
      vertex -5 57.4 9.5
      vertex -5 57.4 10.66
    endloop
  endfacet
  facet normal 1 0 0
    outer loop
      vertex -5 57.4 9.5
      vertex -5 55.8 10.66
      vertex -5 55.8 9.5
    endloop
  endfacet
  facet normal 0 1 -0
    outer loop
      vertex 5 55.8 9.5
      vertex -5 55.8 10.66
      vertex 5 55.8 10.66
    endloop
  endfacet
  facet normal 0 1 0
    outer loop
      vertex -5 55.8 10.66
      vertex 5 55.8 9.5
      vertex -5 55.8 9.5
    endloop
  endfacet
  facet normal 0 -1 0
    outer loop
      vertex -5 57.4 9.5
      vertex 5 57.4 10.66
      vertex -5 57.4 10.66
    endloop
  endfacet
  facet normal 0 -1 -0
    outer loop
      vertex 5 57.4 10.66
      vertex -5 57.4 9.5
      vertex 5 57.4 9.5
    endloop
  endfacet
  facet normal 0 0.039551 -0.999218
    outer loop
      vertex -27.51 -6.99 7.1254
      vertex -26.35 -4 7.24375
      vertex -26.35 -6.99 7.1254
    endloop
  endfacet
  facet normal 0 0.039551 -0.999218
    outer loop
      vertex -26.35 -4 7.24375
      vertex -27.51 -6.99 7.1254
      vertex -27.51 -4 7.24375
    endloop
  endfacet
  facet normal 0 0.039551 -0.999218
    outer loop
      vertex 26.35 -6.99 7.1254
      vertex 27.51 -4 7.24375
      vertex 27.51 -6.99 7.1254
    endloop
  endfacet
  facet normal 0 0.039551 -0.999218
    outer loop
      vertex 27.51 -4 7.24375
      vertex 26.35 -6.99 7.1254
      vertex 26.35 -4 7.24375
    endloop
  endfacet
  facet normal -0 0.039551 0.999218
    outer loop
      vertex -27.51 -4 2.25625
      vertex -26.35 -6.99 2.3746
      vertex -26.35 -4 2.25625
    endloop
  endfacet
  facet normal 0 0.039551 0.999218
    outer loop
      vertex -26.35 -6.99 2.3746
      vertex -27.51 -4 2.25625
      vertex -27.51 -6.99 2.3746
    endloop
  endfacet
  facet normal -0 0.039551 0.999218
    outer loop
      vertex 26.35 -4 2.25625
      vertex 27.51 -6.99 2.3746
      vertex 27.51 -4 2.25625
    endloop
  endfacet
  facet normal 0 0.039551 0.999218
    outer loop
      vertex 27.51 -6.99 2.3746
      vertex 26.35 -4 2.25625
      vertex 26.35 -6.99 2.3746
    endloop
  endfacet
  facet normal 0 -1 0
    outer loop
      vertex -27.51 -4 2.25625
      vertex -26.35 -4 7.24375
      vertex -27.51 -4 7.24375
    endloop
  endfacet
  facet normal 0 -1 -0
    outer loop
      vertex -26.35 -4 7.24375
      vertex -27.51 -4 2.25625
      vertex -26.35 -4 2.25625
    endloop
  endfacet
  facet normal 0 -1 0
    outer loop
      vertex 26.35 -4 2.25625
      vertex 27.51 -4 7.24375
      vertex 26.35 -4 7.24375
    endloop
  endfacet
  facet normal 0 -1 -0
    outer loop
      vertex 27.51 -4 7.24375
      vertex 26.35 -4 2.25625
      vertex 27.51 -4 2.25625
    endloop
  endfacet
  facet normal 0 -1 0
    outer loop
      vertex -27.51 -6.99 2.3746
      vertex -26.35 -6.99 0
      vertex -26.35 -6.99 2.3746
    endloop
  endfacet
  facet normal 0 -1 -0
    outer loop
      vertex -26.35 -6.99 0
      vertex -27.51 -6.99 -1.16
      vertex 26.35 -6.99 0
    endloop
  endfacet
  facet normal 0 -1 0
    outer loop
      vertex -27.51 -6.99 -1.16
      vertex -26.35 -6.99 0
      vertex -27.51 -6.99 2.3746
    endloop
  endfacet
  facet normal 0 -1 0
    outer loop
      vertex 26.35 -6.99 0
      vertex 27.51 -6.99 2.3746
      vertex 26.35 -6.99 2.3746
    endloop
  endfacet
  facet normal 0 -1 0
    outer loop
      vertex 26.35 -6.99 0
      vertex 27.51 -6.99 -1.16
      vertex 27.51 -6.99 2.3746
    endloop
  endfacet
  facet normal 0 -1 0
    outer loop
      vertex 27.51 -6.99 -1.16
      vertex 26.35 -6.99 0
      vertex -27.51 -6.99 -1.16
    endloop
  endfacet
  facet normal 0 -1 0
    outer loop
      vertex -27.51 -6.99 10.66
      vertex -26.35 -6.99 9.5
      vertex -22.5 -6.99 10.66
    endloop
  endfacet
  facet normal 0 -1 0
    outer loop
      vertex -27.51 -6.99 7.1254
      vertex -26.35 -6.99 9.5
      vertex -27.51 -6.99 10.66
    endloop
  endfacet
  facet normal 0 -1 -0
    outer loop
      vertex -26.35 -6.99 9.5
      vertex -27.51 -6.99 7.1254
      vertex -26.35 -6.99 7.1254
    endloop
  endfacet
  facet normal 0 -1 -0
    outer loop
      vertex -22.5 -6.99 10.66
      vertex -26.35 -6.99 9.5
      vertex -22.5 -6.99 9.5
    endloop
  endfacet
  facet normal 0 -1 0
    outer loop
      vertex 26.35 -6.99 9.5
      vertex 22.5 -6.99 10.66
      vertex 22.5 -6.99 9.5
    endloop
  endfacet
  facet normal 0 -1 0
    outer loop
      vertex 22.5 -6.99 10.66
      vertex 26.35 -6.99 9.5
      vertex 27.51 -6.99 10.66
    endloop
  endfacet
  facet normal 0 -1 0
    outer loop
      vertex 27.51 -6.99 7.1254
      vertex 26.35 -6.99 9.5
      vertex 26.35 -6.99 7.1254
    endloop
  endfacet
  facet normal 0 -1 0
    outer loop
      vertex 26.35 -6.99 9.5
      vertex 27.51 -6.99 7.1254
      vertex 27.51 -6.99 10.66
    endloop
  endfacet
endsolid OpenSCAD_Model
