solid OpenSCAD_Model
  facet normal 0 0 -1
    outer loop
      vertex -13.5 -13.5 0
      vertex 13.5 13.5 0
      vertex 13.5 -13.5 0
    endloop
  endfacet
  facet normal -0 0 -1
    outer loop
      vertex 13.5 13.5 0
      vertex -13.5 -13.5 0
      vertex -13.5 13.5 0
    endloop
  endfacet
  facet normal 0 -0.707107 0.707107
    outer loop
      vertex -13.5 -13.5 0
      vertex 8.5 -8.5 5
      vertex -8.5 -8.5 5
    endloop
  endfacet
  facet normal 0 -0.707107 0.707107
    outer loop
      vertex 8.5 -8.5 5
      vertex -13.5 -13.5 0
      vertex 13.5 -13.5 0
    endloop
  endfacet
  facet normal -0.707107 0 0.707107
    outer loop
      vertex -13.5 13.5 0
      vertex -8.5 -8.5 5
      vertex -8.5 8.5 5
    endloop
  endfacet
  facet normal -0.707107 0 0.707107
    outer loop
      vertex -8.5 -8.5 5
      vertex -13.5 13.5 0
      vertex -13.5 -13.5 0
    endloop
  endfacet
  facet normal 0 0.707107 0.707107
    outer loop
      vertex 13.5 13.5 0
      vertex -8.5 8.5 5
      vertex 8.5 8.5 5
    endloop
  endfacet
  facet normal 0 0.707107 0.707107
    outer loop
      vertex -8.5 8.5 5
      vertex 13.5 13.5 0
      vertex -13.5 13.5 0
    endloop
  endfacet
  facet normal 0.707107 -0 0.707107
    outer loop
      vertex 8.5 -8.5 5
      vertex 13.5 13.5 0
      vertex 8.5 8.5 5
    endloop
  endfacet
  facet normal 0.707107 0 0.707107
    outer loop
      vertex 13.5 13.5 0
      vertex 8.5 -8.5 5
      vertex 13.5 -13.5 0
    endloop
  endfacet
  facet normal -0 0 1
    outer loop
      vertex -8.5 8.5 5
      vertex 8.5 -8.5 5
      vertex 8.5 8.5 5
    endloop
  endfacet
  facet normal 0 0 1
    outer loop
      vertex 8.5 -8.5 5
      vertex -8.5 8.5 5
      vertex -8.5 -8.5 5
    endloop
  endfacet
endsolid OpenSCAD_Model
