solid OpenSCAD_Model
  facet normal 0 0.707107 -0.707107
    outer loop
      vertex 13.499 -13.499 -15
      vertex -8.5 -8.5 -10.001
      vertex 8.5 -8.5 -10.001
    endloop
  endfacet
  facet normal 0 0.707107 -0.707107
    outer loop
      vertex -8.5 -8.5 -10.001
      vertex 13.499 -13.499 -15
      vertex -13.499 -13.499 -15
    endloop
  endfacet
  facet normal 0.707107 0 -0.707107
    outer loop
      vertex -8.5 -8.5 -10.001
      vertex -13.499 13.499 -15
      vertex -8.5 8.5 -10.001
    endloop
  endfacet
  facet normal 0.707107 0 -0.707107
    outer loop
      vertex -13.499 13.499 -15
      vertex -8.5 -8.5 -10.001
      vertex -13.499 -13.499 -15
    endloop
  endfacet
  facet normal 0 -0.707107 -0.707107
    outer loop
      vertex -13.499 13.499 -15
      vertex 8.5 8.5 -10.001
      vertex -8.5 8.5 -10.001
    endloop
  endfacet
  facet normal 0 -0.707107 -0.707107
    outer loop
      vertex 8.5 8.5 -10.001
      vertex -13.499 13.499 -15
      vertex 13.499 13.499 -15
    endloop
  endfacet
  facet normal -0.707107 0 -0.707107
    outer loop
      vertex 13.499 13.499 -15
      vertex 8.5 -8.5 -10.001
      vertex 8.5 8.5 -10.001
    endloop
  endfacet
  facet normal -0.707107 0 -0.707107
    outer loop
      vertex 8.5 -8.5 -10.001
      vertex 13.499 13.499 -15
      vertex 13.499 -13.499 -15
    endloop
  endfacet
  facet normal 0 0 -1
    outer loop
      vertex -8.5 -8.5 -10.001
      vertex 8.5 8.5 -10.001
      vertex 8.5 -8.5 -10.001
    endloop
  endfacet
  facet normal -0 0 -1
    outer loop
      vertex 8.5 8.5 -10.001
      vertex -8.5 -8.5 -10.001
      vertex -8.5 8.5 -10.001
    endloop
  endfacet
  facet normal 0 0 -1
    outer loop
      vertex 14.999 -15 -15
      vertex 15 -14.999 -15
      vertex 15 -15 -15
    endloop
  endfacet
  facet normal -0 0 -1
    outer loop
      vertex 15 -14.999 -15
      vertex 14.999 -15 -15
      vertex 14.999 -14.999 -15
    endloop
  endfacet
  facet normal 0 0 -1
    outer loop
      vertex -15 -15 -15
      vertex -14.999 -14.999 -15
      vertex -14.999 -15 -15
    endloop
  endfacet
  facet normal -0 0 -1
    outer loop
      vertex -14.999 -14.999 -15
      vertex -15 -15 -15
      vertex -15 -14.999 -15
    endloop
  endfacet
  facet normal 0 0 -1
    outer loop
      vertex -15 14.999 -15
      vertex -14.999 15 -15
      vertex -14.999 14.999 -15
    endloop
  endfacet
  facet normal -0 0 -1
    outer loop
      vertex -14.999 15 -15
      vertex -15 14.999 -15
      vertex -15 15 -15
    endloop
  endfacet
  facet normal 0 0 -1
    outer loop
      vertex 14.999 14.999 -15
      vertex 15 15 -15
      vertex 15 14.999 -15
    endloop
  endfacet
  facet normal -0 0 -1
    outer loop
      vertex 15 15 -15
      vertex 14.999 14.999 -15
      vertex 14.999 15 -15
    endloop
  endfacet
  facet normal 0 0 -1
    outer loop
      vertex -14.999 -15 -15
      vertex 14.999 -14.999 -15
      vertex 14.999 -15 -15
    endloop
  endfacet
  facet normal -0 0 -1
    outer loop
      vertex 14.999 -14.999 -15
      vertex -14.999 -15 -15
      vertex -14.999 -14.999 -15
    endloop
  endfacet
  facet normal 0 0 -1
    outer loop
      vertex -14.999 14.999 -15
      vertex 14.999 15 -15
      vertex 14.999 14.999 -15
    endloop
  endfacet
  facet normal -0 0 -1
    outer loop
      vertex 14.999 15 -15
      vertex -14.999 14.999 -15
      vertex -14.999 15 -15
    endloop
  endfacet
  facet normal 0 0 -1
    outer loop
      vertex -15 -14.999 -15
      vertex -14.999 14.999 -15
      vertex -14.999 -14.999 -15
    endloop
  endfacet
  facet normal -0 0 -1
    outer loop
      vertex -14.999 14.999 -15
      vertex -15 -14.999 -15
      vertex -15 14.999 -15
    endloop
  endfacet
  facet normal 0 0 -1
    outer loop
      vertex 14.999 -14.999 -15
      vertex 15 14.999 -15
      vertex 15 -14.999 -15
    endloop
  endfacet
  facet normal -0 0 -1
    outer loop
      vertex 15 14.999 -15
      vertex 14.999 -14.999 -15
      vertex 14.999 14.999 -15
    endloop
  endfacet
  facet normal 0 0 -1
    outer loop
      vertex 14.999 -14.999 -15
      vertex 13.499 -13.499 -15
      vertex 14.999 14.999 -15
    endloop
  endfacet
  facet normal 0 0 -1
    outer loop
      vertex 14.999 -14.999 -15
      vertex -13.499 -13.499 -15
      vertex 13.499 -13.499 -15
    endloop
  endfacet
  facet normal -0 0 -1
    outer loop
      vertex -13.499 -13.499 -15
      vertex -14.999 -14.999 -15
      vertex -13.499 13.499 -15
    endloop
  endfacet
  facet normal 0 0 -1
    outer loop
      vertex -14.999 -14.999 -15
      vertex -13.499 -13.499 -15
      vertex 14.999 -14.999 -15
    endloop
  endfacet
  facet normal 0 0 -1
    outer loop
      vertex 13.499 13.499 -15
      vertex 14.999 14.999 -15
      vertex 13.499 -13.499 -15
    endloop
  endfacet
  facet normal 0 0 -1
    outer loop
      vertex -13.499 13.499 -15
      vertex 14.999 14.999 -15
      vertex 13.499 13.499 -15
    endloop
  endfacet
  facet normal 0 0 -1
    outer loop
      vertex -13.499 13.499 -15
      vertex -14.999 14.999 -15
      vertex 14.999 14.999 -15
    endloop
  endfacet
  facet normal 0 0 -1
    outer loop
      vertex -14.999 14.999 -15
      vertex -13.499 13.499 -15
      vertex -14.999 -14.999 -15
    endloop
  endfacet
  facet normal 0 -0.707107 0.707107
    outer loop
      vertex 14.999 -14.999 -14.999
      vertex 14.999 -15 -15
      vertex 15 -15 -15
    endloop
  endfacet
  facet normal 0 -0.707107 0.707107
    outer loop
      vertex -14.999 -14.999 -14.999
      vertex -15 -15 -15
      vertex -14.999 -15 -15
    endloop
  endfacet
  facet normal 0 -0.707107 0.707107
    outer loop
      vertex -14.999 -15 -15
      vertex 14.998 -14.999 -14.999
      vertex -14.998 -14.999 -14.999
    endloop
  endfacet
  facet normal 0 -0.707107 0.707107
    outer loop
      vertex 14.998 -14.999 -14.999
      vertex -14.999 -15 -15
      vertex 14.999 -15 -15
    endloop
  endfacet
  facet normal -0.707107 0 0.707107
    outer loop
      vertex -15 -14.999 -15
      vertex -15 -15 -15
      vertex -14.999 -14.999 -14.999
    endloop
  endfacet
  facet normal -0.707107 0 0.707107
    outer loop
      vertex -15 15 -15
      vertex -15 14.999 -15
      vertex -14.999 14.999 -14.999
    endloop
  endfacet
  facet normal -0.707107 0 0.707107
    outer loop
      vertex -15 14.999 -15
      vertex -14.999 -14.998 -14.999
      vertex -14.999 14.998 -14.999
    endloop
  endfacet
  facet normal -0.707107 0 0.707107
    outer loop
      vertex -14.999 -14.998 -14.999
      vertex -15 14.999 -15
      vertex -15 -14.999 -15
    endloop
  endfacet
  facet normal 0 0.707107 0.707107
    outer loop
      vertex -14.999 15 -15
      vertex -15 15 -15
      vertex -14.999 14.999 -14.999
    endloop
  endfacet
  facet normal 0 0.707107 0.707107
    outer loop
      vertex 15 15 -15
      vertex 14.999 15 -15
      vertex 14.999 14.999 -14.999
    endloop
  endfacet
  facet normal 0 0.707107 0.707107
    outer loop
      vertex 14.999 15 -15
      vertex -14.998 14.999 -14.999
      vertex 14.998 14.999 -14.999
    endloop
  endfacet
  facet normal 0 0.707107 0.707107
    outer loop
      vertex -14.998 14.999 -14.999
      vertex 14.999 15 -15
      vertex -14.999 15 -15
    endloop
  endfacet
  facet normal 0.707107 0 0.707107
    outer loop
      vertex 15 -14.999 -15
      vertex 14.999 -14.999 -14.999
      vertex 15 -15 -15
    endloop
  endfacet
  facet normal 0.707107 0 0.707107
    outer loop
      vertex 15 15 -15
      vertex 14.999 14.999 -14.999
      vertex 15 14.999 -15
    endloop
  endfacet
  facet normal 0.707107 -0 0.707107
    outer loop
      vertex 14.999 -14.998 -14.999
      vertex 15 14.999 -15
      vertex 14.999 14.998 -14.999
    endloop
  endfacet
  facet normal 0.707107 0 0.707107
    outer loop
      vertex 15 14.999 -15
      vertex 14.999 -14.998 -14.999
      vertex 15 -14.999 -15
    endloop
  endfacet
  facet normal 1 -0 0
    outer loop
      vertex -1.6 -1.6 -7.5
      vertex -1.6 1.6 -9.6
      vertex -1.6 1.6 -7.5
    endloop
  endfacet
  facet normal 1 0 0
    outer loop
      vertex -1.6 1.6 -9.6
      vertex -1.6 -1.6 -7.5
      vertex -1.6 -1.6 -9.6
    endloop
  endfacet
  facet normal 0 0 -1
    outer loop
      vertex -1.6 -1.6 -7.5
      vertex 1.6 1.6 -7.5
      vertex 1.6 -1.6 -7.5
    endloop
  endfacet
  facet normal -0 0 -1
    outer loop
      vertex 1.6 1.6 -7.5
      vertex -1.6 -1.6 -7.5
      vertex -1.6 1.6 -7.5
    endloop
  endfacet
  facet normal -1 0 0
    outer loop
      vertex 1.6 -1.6 -9.6
      vertex 1.6 1.6 -7.5
      vertex 1.6 1.6 -9.6
    endloop
  endfacet
  facet normal -1 -0 0
    outer loop
      vertex 1.6 1.6 -7.5
      vertex 1.6 -1.6 -9.6
      vertex 1.6 -1.6 -7.5
    endloop
  endfacet
  facet normal 0 -1 0
    outer loop
      vertex -1.6 1.6 -9.6
      vertex 1.6 1.6 -7.5
      vertex -1.6 1.6 -7.5
    endloop
  endfacet
  facet normal 0 -1 -0
    outer loop
      vertex 1.6 1.6 -7.5
      vertex -1.6 1.6 -9.6
      vertex 1.6 1.6 -9.6
    endloop
  endfacet
  facet normal -0 0 1
    outer loop
      vertex -1.6 1.6 -9.6
      vertex 1.6 -1.6 -9.6
      vertex 1.6 1.6 -9.6
    endloop
  endfacet
  facet normal 0 0 1
    outer loop
      vertex 1.6 -1.6 -9.6
      vertex -1.6 1.6 -9.6
      vertex -1.6 -1.6 -9.6
    endloop
  endfacet
  facet normal 0 1 -0
    outer loop
      vertex 1.6 -1.6 -9.6
      vertex -1.6 -1.6 -7.5
      vertex 1.6 -1.6 -7.5
    endloop
  endfacet
  facet normal 0 1 0
    outer loop
      vertex -1.6 -1.6 -7.5
      vertex 1.6 -1.6 -9.6
      vertex -1.6 -1.6 -9.6
    endloop
  endfacet
  facet normal -0.707107 0.707107 0
    outer loop
      vertex -14.999 -13.499 -13.499
      vertex -10 -8.5 8.5
      vertex -10 -8.5 -8.5
    endloop
  endfacet
  facet normal -0.707107 0.707107 0
    outer loop
      vertex -10 -8.5 8.5
      vertex -14.999 -13.499 -13.499
      vertex -14.999 -13.499 13.499
    endloop
  endfacet
  facet normal -0.707107 0 -0.707107
    outer loop
      vertex -10 -8.5 8.5
      vertex -14.999 13.499 13.499
      vertex -10 8.5 8.5
    endloop
  endfacet
  facet normal -0.707107 -0 -0.707107
    outer loop
      vertex -14.999 13.499 13.499
      vertex -10 -8.5 8.5
      vertex -14.999 -13.499 13.499
    endloop
  endfacet
  facet normal -0.707107 -0.707107 0
    outer loop
      vertex -10 8.5 -8.5
      vertex -14.999 13.499 13.499
      vertex -14.999 13.499 -13.499
    endloop
  endfacet
  facet normal -0.707107 -0.707107 0
    outer loop
      vertex -14.999 13.499 13.499
      vertex -10 8.5 -8.5
      vertex -10 8.5 8.5
    endloop
  endfacet
  facet normal -0.707107 0 0.707107
    outer loop
      vertex -14.999 13.499 -13.499
      vertex -10 -8.5 -8.5
      vertex -10 8.5 -8.5
    endloop
  endfacet
  facet normal -0.707107 0 0.707107
    outer loop
      vertex -10 -8.5 -8.5
      vertex -14.999 13.499 -13.499
      vertex -14.999 -13.499 -13.499
    endloop
  endfacet
  facet normal -1 0 0
    outer loop
      vertex -10 -8.5 -8.5
      vertex -10 8.5 8.5
      vertex -10 8.5 -8.5
    endloop
  endfacet
  facet normal -1 -0 0
    outer loop
      vertex -10 8.5 8.5
      vertex -10 -8.5 -8.5
      vertex -10 -8.5 8.5
    endloop
  endfacet
  facet normal -1 0 0
    outer loop
      vertex -14.999 -15 14.999
      vertex -14.999 -14.999 15
      vertex -14.999 -14.999 14.999
    endloop
  endfacet
  facet normal -1 -0 0
    outer loop
      vertex -14.999 -14.999 15
      vertex -14.999 -15 14.999
      vertex -14.999 -15 15
    endloop
  endfacet
  facet normal -1 0 0
    outer loop
      vertex -14.999 -15 -15
      vertex -14.999 -14.999 14.998
      vertex -14.999 -14.999 -14.999
    endloop
  endfacet
  facet normal -1 -0 0
    outer loop
      vertex -14.999 -14.999 14.998
      vertex -14.999 -15 -15
      vertex -14.999 -15 14.999
    endloop
  endfacet
  facet normal 0 0 0
    outer loop
      vertex -14.999 -15 14.999
      vertex -14.999 -15 -15
      vertex -14.999 -15 15
    endloop
  endfacet
  facet normal -1 0 0
    outer loop
      vertex -14.999 14.999 14.999
      vertex -14.999 15 15
      vertex -14.999 15 14.999
    endloop
  endfacet
  facet normal -1 -0 0
    outer loop
      vertex -14.999 15 15
      vertex -14.999 14.999 14.999
      vertex -14.999 14.999 15
    endloop
  endfacet
  facet normal -1 0 0
    outer loop
      vertex -14.999 -14.998 14.999
      vertex -14.999 14.999 15
      vertex -14.999 14.998 14.999
    endloop
  endfacet
  facet normal -1 -0 0
    outer loop
      vertex -14.999 14.999 15
      vertex -14.999 -14.998 14.999
      vertex -14.999 -14.999 15
    endloop
  endfacet
  facet normal -1 0 0
    outer loop
      vertex -14.999 14.999 -14.999
      vertex -14.999 15 14.999
      vertex -14.999 15 -15
    endloop
  endfacet
  facet normal -1 0 0
    outer loop
      vertex -14.999 15 14.999
      vertex -14.999 14.999 -14.999
      vertex -14.999 14.999 14.998
    endloop
  endfacet
  facet normal -1 0 0
    outer loop
      vertex -14.999 14.998 -14.999
      vertex -14.999 13.499 -13.499
      vertex -14.999 14.998 14.998
    endloop
  endfacet
  facet normal -1 0 0
    outer loop
      vertex -14.999 14.998 -14.999
      vertex -14.999 -13.499 -13.499
      vertex -14.999 13.499 -13.499
    endloop
  endfacet
  facet normal -1 -0 0
    outer loop
      vertex -14.999 -13.499 -13.499
      vertex -14.999 -14.998 -14.999
      vertex -14.999 -13.499 13.499
    endloop
  endfacet
  facet normal -1 0 0
    outer loop
      vertex -14.999 -14.998 -14.999
      vertex -14.999 -13.499 -13.499
      vertex -14.999 14.998 -14.999
    endloop
  endfacet
  facet normal -1 0 0
    outer loop
      vertex -14.999 13.499 13.499
      vertex -14.999 14.998 14.998
      vertex -14.999 13.499 -13.499
    endloop
  endfacet
  facet normal -1 0 0
    outer loop
      vertex -14.999 -13.499 13.499
      vertex -14.999 14.998 14.998
      vertex -14.999 13.499 13.499
    endloop
  endfacet
  facet normal -1 0 0
    outer loop
      vertex -14.999 -13.499 13.499
      vertex -14.999 -14.998 14.998
      vertex -14.999 14.998 14.998
    endloop
  endfacet
  facet normal -1 0 0
    outer loop
      vertex -14.999 -14.998 14.998
      vertex -14.999 -13.499 13.499
      vertex -14.999 -14.998 -14.999
    endloop
  endfacet
  facet normal 0.707107 -0.707107 0
    outer loop
      vertex -14.999 -15 14.999
      vertex -14.998 -14.999 -14.999
      vertex -14.998 -14.999 14.998
    endloop
  endfacet
  facet normal 0.707107 -0.707107 0
    outer loop
      vertex -14.998 -14.999 -14.999
      vertex -14.999 -15 14.999
      vertex -14.999 -15 -15
    endloop
  endfacet
  facet normal 0.707107 -0.707107 0
    outer loop
      vertex -14.998 -14.999 14.999
      vertex -14.999 -15 15
      vertex -14.999 -15 14.999
    endloop
  endfacet
  facet normal 0 0 0
    outer loop
      vertex -14.999 -15 14.999
      vertex -14.999 -15 15
      vertex -14.999 -15 -15
    endloop
  endfacet
  facet normal 0.707107 0 0.707107
    outer loop
      vertex -14.999 -14.999 15
      vertex -14.999 -15 15
      vertex -14.998 -14.999 14.999
    endloop
  endfacet
  facet normal 0.707107 0 0.707107
    outer loop
      vertex -14.999 15 15
      vertex -14.999 14.999 15
      vertex -14.998 14.999 14.999
    endloop
  endfacet
  facet normal 0.707107 0 0.707107
    outer loop
      vertex -14.999 14.999 15
      vertex -14.998 -14.998 14.999
      vertex -14.998 14.998 14.999
    endloop
  endfacet
  facet normal 0.707107 0 0.707107
    outer loop
      vertex -14.998 -14.998 14.999
      vertex -14.999 14.999 15
      vertex -14.999 -14.999 15
    endloop
  endfacet
  facet normal 0.707107 0.707107 -0
    outer loop
      vertex -14.999 15 14.999
      vertex -14.999 15 15
      vertex -14.998 14.999 14.999
    endloop
  endfacet
  facet normal 0.707107 0.707107 0
    outer loop
      vertex -14.998 14.999 14.998
      vertex -14.999 15 -15
      vertex -14.999 15 14.999
    endloop
  endfacet
  facet normal 0.707107 0.707107 0
    outer loop
      vertex -14.999 15 -15
      vertex -14.998 14.999 14.998
      vertex -14.998 14.999 -14.999
    endloop
  endfacet
  facet normal 0 0 -1
    outer loop
      vertex -9.599 -1.6 1.6
      vertex -7.499 1.6 1.6
      vertex -7.499 -1.6 1.6
    endloop
  endfacet
  facet normal -0 0 -1
    outer loop
      vertex -7.499 1.6 1.6
      vertex -9.599 -1.6 1.6
      vertex -9.599 1.6 1.6
    endloop
  endfacet
  facet normal -1 0 0
    outer loop
      vertex -7.499 -1.6 -1.6
      vertex -7.499 1.6 1.6
      vertex -7.499 1.6 -1.6
    endloop
  endfacet
  facet normal -1 -0 0
    outer loop
      vertex -7.499 1.6 1.6
      vertex -7.499 -1.6 -1.6
      vertex -7.499 -1.6 1.6
    endloop
  endfacet
  facet normal -0 0 1
    outer loop
      vertex -9.599 1.6 -1.6
      vertex -7.499 -1.6 -1.6
      vertex -7.499 1.6 -1.6
    endloop
  endfacet
  facet normal 0 0 1
    outer loop
      vertex -7.499 -1.6 -1.6
      vertex -9.599 1.6 -1.6
      vertex -9.599 -1.6 -1.6
    endloop
  endfacet
  facet normal 0 -1 0
    outer loop
      vertex -9.599 1.6 -1.6
      vertex -7.499 1.6 1.6
      vertex -9.599 1.6 1.6
    endloop
  endfacet
  facet normal 0 -1 -0
    outer loop
      vertex -7.499 1.6 1.6
      vertex -9.599 1.6 -1.6
      vertex -7.499 1.6 -1.6
    endloop
  endfacet
  facet normal 1 -0 0
    outer loop
      vertex -9.599 -1.6 1.6
      vertex -9.599 1.6 -1.6
      vertex -9.599 1.6 1.6
    endloop
  endfacet
  facet normal 1 0 0
    outer loop
      vertex -9.599 1.6 -1.6
      vertex -9.599 -1.6 1.6
      vertex -9.599 -1.6 -1.6
    endloop
  endfacet
  facet normal 0 1 -0
    outer loop
      vertex -7.499 -1.6 -1.6
      vertex -9.599 -1.6 1.6
      vertex -7.499 -1.6 1.6
    endloop
  endfacet
  facet normal 0 1 0
    outer loop
      vertex -9.599 -1.6 1.6
      vertex -7.499 -1.6 -1.6
      vertex -9.599 -1.6 -1.6
    endloop
  endfacet
  facet normal 0.707107 0.707107 0
    outer loop
      vertex 14.999 -13.499 13.499
      vertex 10 -8.5 -8.5
      vertex 10 -8.5 8.5
    endloop
  endfacet
  facet normal 0.707107 0.707107 0
    outer loop
      vertex 10 -8.5 -8.5
      vertex 14.999 -13.499 13.499
      vertex 14.999 -13.499 -13.499
    endloop
  endfacet
  facet normal 0.707107 -0 0.707107
    outer loop
      vertex 10 -8.5 -8.5
      vertex 14.999 13.499 -13.499
      vertex 10 8.5 -8.5
    endloop
  endfacet
  facet normal 0.707107 0 0.707107
    outer loop
      vertex 14.999 13.499 -13.499
      vertex 10 -8.5 -8.5
      vertex 14.999 -13.499 -13.499
    endloop
  endfacet
  facet normal 0.707107 -0.707107 0
    outer loop
      vertex 10 8.5 8.5
      vertex 14.999 13.499 -13.499
      vertex 14.999 13.499 13.499
    endloop
  endfacet
  facet normal 0.707107 -0.707107 0
    outer loop
      vertex 14.999 13.499 -13.499
      vertex 10 8.5 8.5
      vertex 10 8.5 -8.5
    endloop
  endfacet
  facet normal 0.707107 0 -0.707107
    outer loop
      vertex 14.999 13.499 13.499
      vertex 10 -8.5 8.5
      vertex 10 8.5 8.5
    endloop
  endfacet
  facet normal 0.707107 0 -0.707107
    outer loop
      vertex 10 -8.5 8.5
      vertex 14.999 13.499 13.499
      vertex 14.999 -13.499 13.499
    endloop
  endfacet
  facet normal 1 -0 0
    outer loop
      vertex 10 -8.5 8.5
      vertex 10 8.5 -8.5
      vertex 10 8.5 8.5
    endloop
  endfacet
  facet normal 1 0 0
    outer loop
      vertex 10 8.5 -8.5
      vertex 10 -8.5 8.5
      vertex 10 -8.5 -8.5
    endloop
  endfacet
  facet normal 1 0 0
    outer loop
      vertex 14.999 -15 14.999
      vertex 14.999 -14.999 -14.999
      vertex 14.999 -14.999 14.998
    endloop
  endfacet
  facet normal 1 0 0
    outer loop
      vertex 14.999 -14.999 -14.999
      vertex 14.999 -15 14.999
      vertex 14.999 -15 -15
    endloop
  endfacet
  facet normal 1 -0 0
    outer loop
      vertex 14.999 -15 15
      vertex 14.999 -14.999 14.999
      vertex 14.999 -14.999 15
    endloop
  endfacet
  facet normal 1 0 0
    outer loop
      vertex 14.999 -14.999 14.999
      vertex 14.999 -15 15
      vertex 14.999 -15 14.999
    endloop
  endfacet
  facet normal 0 0 0
    outer loop
      vertex 14.999 -15 14.999
      vertex 14.999 -15 15
      vertex 14.999 -15 -15
    endloop
  endfacet
  facet normal 1 -0 0
    outer loop
      vertex 14.999 14.999 15
      vertex 14.999 15 14.999
      vertex 14.999 15 15
    endloop
  endfacet
  facet normal 1 0 0
    outer loop
      vertex 14.999 15 14.999
      vertex 14.999 14.999 15
      vertex 14.999 14.999 14.999
    endloop
  endfacet
  facet normal 1 0 0
    outer loop
      vertex 14.999 14.999 15
      vertex 14.999 -14.998 14.999
      vertex 14.999 14.998 14.999
    endloop
  endfacet
  facet normal 1 0 -0
    outer loop
      vertex 14.999 -14.998 14.999
      vertex 14.999 14.999 15
      vertex 14.999 -14.999 15
    endloop
  endfacet
  facet normal 1 -0 0
    outer loop
      vertex 14.999 14.999 14.998
      vertex 14.999 15 -15
      vertex 14.999 15 14.999
    endloop
  endfacet
  facet normal 1 0 0
    outer loop
      vertex 14.999 15 -15
      vertex 14.999 14.999 14.998
      vertex 14.999 14.999 -14.999
    endloop
  endfacet
  facet normal 1 0 0
    outer loop
      vertex 14.999 14.998 14.998
      vertex 14.999 13.499 13.499
      vertex 14.999 14.998 -14.999
    endloop
  endfacet
  facet normal 1 0 0
    outer loop
      vertex 14.999 14.998 14.998
      vertex 14.999 -13.499 13.499
      vertex 14.999 13.499 13.499
    endloop
  endfacet
  facet normal 1 0 0
    outer loop
      vertex 14.999 -13.499 13.499
      vertex 14.999 -14.998 14.998
      vertex 14.999 -13.499 -13.499
    endloop
  endfacet
  facet normal 1 -0 0
    outer loop
      vertex 14.999 -14.998 14.998
      vertex 14.999 -13.499 13.499
      vertex 14.999 14.998 14.998
    endloop
  endfacet
  facet normal 1 -0 0
    outer loop
      vertex 14.999 13.499 -13.499
      vertex 14.999 14.998 -14.999
      vertex 14.999 13.499 13.499
    endloop
  endfacet
  facet normal 1 -0 0
    outer loop
      vertex 14.999 -13.499 -13.499
      vertex 14.999 14.998 -14.999
      vertex 14.999 13.499 -13.499
    endloop
  endfacet
  facet normal 1 0 0
    outer loop
      vertex 14.999 -13.499 -13.499
      vertex 14.999 -14.998 -14.999
      vertex 14.999 14.998 -14.999
    endloop
  endfacet
  facet normal 1 0 0
    outer loop
      vertex 14.999 -14.998 -14.999
      vertex 14.999 -13.499 -13.499
      vertex 14.999 -14.998 14.998
    endloop
  endfacet
  facet normal -0.707107 -0.707107 0
    outer loop
      vertex 14.998 -14.999 14.999
      vertex 14.999 -15 14.999
      vertex 14.999 -15 15
    endloop
  endfacet
  facet normal -0.707107 -0.707107 0
    outer loop
      vertex 14.999 -15 -15
      vertex 14.998 -14.999 14.998
      vertex 14.998 -14.999 -14.999
    endloop
  endfacet
  facet normal -0.707107 -0.707107 0
    outer loop
      vertex 14.998 -14.999 14.998
      vertex 14.999 -15 -15
      vertex 14.999 -15 14.999
    endloop
  endfacet
  facet normal 0 0 0
    outer loop
      vertex 14.999 -15 14.999
      vertex 14.999 -15 -15
      vertex 14.999 -15 15
    endloop
  endfacet
  facet normal -0.707107 0.707107 0
    outer loop
      vertex 14.999 15 14.999
      vertex 14.998 14.999 14.999
      vertex 14.999 15 15
    endloop
  endfacet
  facet normal -0.707107 0.707107 0
    outer loop
      vertex 14.998 14.999 -14.999
      vertex 14.999 15 14.999
      vertex 14.999 15 -15
    endloop
  endfacet
  facet normal -0.707107 0.707107 0
    outer loop
      vertex 14.999 15 14.999
      vertex 14.998 14.999 -14.999
      vertex 14.998 14.999 14.998
    endloop
  endfacet
  facet normal -0.707107 0 0.707107
    outer loop
      vertex 14.999 -14.999 15
      vertex 14.998 -14.999 14.999
      vertex 14.999 -15 15
    endloop
  endfacet
  facet normal -0.707107 0 0.707107
    outer loop
      vertex 14.999 15 15
      vertex 14.998 14.999 14.999
      vertex 14.999 14.999 15
    endloop
  endfacet
  facet normal -0.707107 0 0.707107
    outer loop
      vertex 14.998 -14.998 14.999
      vertex 14.999 14.999 15
      vertex 14.998 14.998 14.999
    endloop
  endfacet
  facet normal -0.707107 0 0.707107
    outer loop
      vertex 14.999 14.999 15
      vertex 14.998 -14.998 14.999
      vertex 14.999 -14.999 15
    endloop
  endfacet
  facet normal -0 0 1
    outer loop
      vertex 7.499 1.6 -1.6
      vertex 9.599 -1.6 -1.6
      vertex 9.599 1.6 -1.6
    endloop
  endfacet
  facet normal 0 0 1
    outer loop
      vertex 9.599 -1.6 -1.6
      vertex 7.499 1.6 -1.6
      vertex 7.499 -1.6 -1.6
    endloop
  endfacet
  facet normal 1 -0 0
    outer loop
      vertex 7.499 -1.6 1.6
      vertex 7.499 1.6 -1.6
      vertex 7.499 1.6 1.6
    endloop
  endfacet
  facet normal 1 0 0
    outer loop
      vertex 7.499 1.6 -1.6
      vertex 7.499 -1.6 1.6
      vertex 7.499 -1.6 -1.6
    endloop
  endfacet
  facet normal 0 0 -1
    outer loop
      vertex 7.499 -1.6 1.6
      vertex 9.599 1.6 1.6
      vertex 9.599 -1.6 1.6
    endloop
  endfacet
  facet normal -0 0 -1
    outer loop
      vertex 9.599 1.6 1.6
      vertex 7.499 -1.6 1.6
      vertex 7.499 1.6 1.6
    endloop
  endfacet
  facet normal 0 -1 0
    outer loop
      vertex 7.499 1.6 -1.6
      vertex 9.599 1.6 1.6
      vertex 7.499 1.6 1.6
    endloop
  endfacet
  facet normal 0 -1 -0
    outer loop
      vertex 9.599 1.6 1.6
      vertex 7.499 1.6 -1.6
      vertex 9.599 1.6 -1.6
    endloop
  endfacet
  facet normal -1 0 0
    outer loop
      vertex 9.599 -1.6 -1.6
      vertex 9.599 1.6 1.6
      vertex 9.599 1.6 -1.6
    endloop
  endfacet
  facet normal -1 -0 0
    outer loop
      vertex 9.599 1.6 1.6
      vertex 9.599 -1.6 -1.6
      vertex 9.599 -1.6 1.6
    endloop
  endfacet
  facet normal 0 1 -0
    outer loop
      vertex 9.599 -1.6 -1.6
      vertex 7.499 -1.6 1.6
      vertex 9.599 -1.6 1.6
    endloop
  endfacet
  facet normal 0 1 0
    outer loop
      vertex 7.499 -1.6 1.6
      vertex 9.599 -1.6 -1.6
      vertex 7.499 -1.6 -1.6
    endloop
  endfacet
  facet normal 0 0.707107 0.707107
    outer loop
      vertex 13.499 14.999 -13.499
      vertex -8.5 10 -8.5
      vertex 8.5 10 -8.5
    endloop
  endfacet
  facet normal 0 0.707107 0.707107
    outer loop
      vertex -8.5 10 -8.5
      vertex 13.499 14.999 -13.499
      vertex -13.499 14.999 -13.499
    endloop
  endfacet
  facet normal 0.707107 0.707107 0
    outer loop
      vertex -8.5 10 8.5
      vertex -13.499 14.999 -13.499
      vertex -13.499 14.999 13.499
    endloop
  endfacet
  facet normal 0.707107 0.707107 0
    outer loop
      vertex -13.499 14.999 -13.499
      vertex -8.5 10 8.5
      vertex -8.5 10 -8.5
    endloop
  endfacet
  facet normal 0 0.707107 -0.707107
    outer loop
      vertex 8.5 10 8.5
      vertex -13.499 14.999 13.499
      vertex 13.499 14.999 13.499
    endloop
  endfacet
  facet normal 0 0.707107 -0.707107
    outer loop
      vertex -13.499 14.999 13.499
      vertex 8.5 10 8.5
      vertex -8.5 10 8.5
    endloop
  endfacet
  facet normal -0.707107 0.707107 0
    outer loop
      vertex 8.5 10 -8.5
      vertex 13.499 14.999 13.499
      vertex 13.499 14.999 -13.499
    endloop
  endfacet
  facet normal -0.707107 0.707107 0
    outer loop
      vertex 13.499 14.999 13.499
      vertex 8.5 10 -8.5
      vertex 8.5 10 8.5
    endloop
  endfacet
  facet normal 0 1 -0
    outer loop
      vertex 8.5 10 -8.5
      vertex -8.5 10 8.5
      vertex 8.5 10 8.5
    endloop
  endfacet
  facet normal 0 1 0
    outer loop
      vertex -8.5 10 8.5
      vertex 8.5 10 -8.5
      vertex -8.5 10 -8.5
    endloop
  endfacet
  facet normal 0 1 -0
    outer loop
      vertex -14.999 14.999 14.999
      vertex -15 14.999 15
      vertex -14.999 14.999 15
    endloop
  endfacet
  facet normal 0 1 0
    outer loop
      vertex -15 14.999 15
      vertex -14.999 14.999 14.999
      vertex -15 14.999 14.999
    endloop
  endfacet
  facet normal 0 1 -0
    outer loop
      vertex 15 14.999 14.999
      vertex 14.999 14.999 15
      vertex 15 14.999 15
    endloop
  endfacet
  facet normal 0 1 0
    outer loop
      vertex 14.999 14.999 15
      vertex 15 14.999 14.999
      vertex 14.999 14.999 14.999
    endloop
  endfacet
  facet normal 0 1 -0
    outer loop
      vertex 14.998 14.999 14.999
      vertex -14.999 14.999 15
      vertex 14.999 14.999 15
    endloop
  endfacet
  facet normal 0 1 0
    outer loop
      vertex -14.999 14.999 15
      vertex 14.998 14.999 14.999
      vertex -14.998 14.999 14.999
    endloop
  endfacet
  facet normal 0 1 -0
    outer loop
      vertex -14.999 14.999 -14.999
      vertex -15 14.999 14.999
      vertex -14.999 14.999 14.998
    endloop
  endfacet
  facet normal 0 1 0
    outer loop
      vertex -15 14.999 14.999
      vertex -14.999 14.999 -14.999
      vertex -15 14.999 -15
    endloop
  endfacet
  facet normal 0 1 0
    outer loop
      vertex 15 14.999 14.999
      vertex 14.999 14.999 -14.999
      vertex 14.999 14.999 14.998
    endloop
  endfacet
  facet normal -0 1 0
    outer loop
      vertex 14.999 14.999 -14.999
      vertex 15 14.999 14.999
      vertex 15 14.999 -15
    endloop
  endfacet
  facet normal 0 1 0
    outer loop
      vertex 14.998 14.999 14.998
      vertex 13.499 14.999 13.499
      vertex -14.998 14.999 14.998
    endloop
  endfacet
  facet normal 0 1 0
    outer loop
      vertex 14.998 14.999 14.998
      vertex 13.499 14.999 -13.499
      vertex 13.499 14.999 13.499
    endloop
  endfacet
  facet normal 0 1 0
    outer loop
      vertex 13.499 14.999 -13.499
      vertex 14.998 14.999 -14.999
      vertex -13.499 14.999 -13.499
    endloop
  endfacet
  facet normal 0 1 -0
    outer loop
      vertex 14.998 14.999 -14.999
      vertex 13.499 14.999 -13.499
      vertex 14.998 14.999 14.998
    endloop
  endfacet
  facet normal 0 1 -0
    outer loop
      vertex -13.499 14.999 13.499
      vertex -14.998 14.999 14.998
      vertex 13.499 14.999 13.499
    endloop
  endfacet
  facet normal 0 1 -0
    outer loop
      vertex -13.499 14.999 -13.499
      vertex -14.998 14.999 14.998
      vertex -13.499 14.999 13.499
    endloop
  endfacet
  facet normal 0 1 0
    outer loop
      vertex -13.499 14.999 -13.499
      vertex -14.998 14.999 -14.999
      vertex -14.998 14.999 14.998
    endloop
  endfacet
  facet normal 0 1 0
    outer loop
      vertex -14.998 14.999 -14.999
      vertex -13.499 14.999 -13.499
      vertex 14.998 14.999 -14.999
    endloop
  endfacet
  facet normal -0.707107 -0.707107 -0
    outer loop
      vertex -15 14.999 15
      vertex -15 14.999 14.999
      vertex -14.999 14.998 14.999
    endloop
  endfacet
  facet normal -0.707107 -0.707107 0
    outer loop
      vertex -15 14.999 14.999
      vertex -14.999 14.998 -14.999
      vertex -14.999 14.998 14.998
    endloop
  endfacet
  facet normal -0.707107 -0.707107 0
    outer loop
      vertex -14.999 14.998 -14.999
      vertex -15 14.999 14.999
      vertex -15 14.999 -15
    endloop
  endfacet
  facet normal 0 -0.707107 0.707107
    outer loop
      vertex -14.999 14.999 15
      vertex -15 14.999 15
      vertex -14.999 14.998 14.999
    endloop
  endfacet
  facet normal 0 -0.707107 0.707107
    outer loop
      vertex 14.999 14.999 15
      vertex 14.999 14.998 14.999
      vertex 15 14.999 15
    endloop
  endfacet
  facet normal 0 -0.707107 0.707107
    outer loop
      vertex -14.998 14.998 14.999
      vertex 14.999 14.999 15
      vertex -14.999 14.999 15
    endloop
  endfacet
  facet normal 0 -0.707107 0.707107
    outer loop
      vertex 14.999 14.999 15
      vertex -14.998 14.998 14.999
      vertex 14.998 14.998 14.999
    endloop
  endfacet
  facet normal 0.707107 -0.707107 0
    outer loop
      vertex 14.999 14.998 14.999
      vertex 15 14.999 14.999
      vertex 15 14.999 15
    endloop
  endfacet
  facet normal 0.707107 -0.707107 0
    outer loop
      vertex 14.999 14.998 -14.999
      vertex 15 14.999 14.999
      vertex 14.999 14.998 14.998
    endloop
  endfacet
  facet normal 0.707107 -0.707107 0
    outer loop
      vertex 15 14.999 14.999
      vertex 14.999 14.998 -14.999
      vertex 15 14.999 -15
    endloop
  endfacet
  facet normal 1 -0 0
    outer loop
      vertex -1.6 7.499 1.6
      vertex -1.6 9.599 -1.6
      vertex -1.6 9.599 1.6
    endloop
  endfacet
  facet normal 1 0 0
    outer loop
      vertex -1.6 9.599 -1.6
      vertex -1.6 7.499 1.6
      vertex -1.6 7.499 -1.6
    endloop
  endfacet
  facet normal 0 1 -0
    outer loop
      vertex 1.6 7.499 -1.6
      vertex -1.6 7.499 1.6
      vertex 1.6 7.499 1.6
    endloop
  endfacet
  facet normal 0 1 0
    outer loop
      vertex -1.6 7.499 1.6
      vertex 1.6 7.499 -1.6
      vertex -1.6 7.499 -1.6
    endloop
  endfacet
  facet normal -1 0 0
    outer loop
      vertex 1.6 7.499 -1.6
      vertex 1.6 9.599 1.6
      vertex 1.6 9.599 -1.6
    endloop
  endfacet
  facet normal -1 -0 0
    outer loop
      vertex 1.6 9.599 1.6
      vertex 1.6 7.499 -1.6
      vertex 1.6 7.499 1.6
    endloop
  endfacet
  facet normal 0 0 -1
    outer loop
      vertex -1.6 7.499 1.6
      vertex 1.6 9.599 1.6
      vertex 1.6 7.499 1.6
    endloop
  endfacet
  facet normal -0 0 -1
    outer loop
      vertex 1.6 9.599 1.6
      vertex -1.6 7.499 1.6
      vertex -1.6 9.599 1.6
    endloop
  endfacet
  facet normal 0 -1 0
    outer loop
      vertex -1.6 9.599 -1.6
      vertex 1.6 9.599 1.6
      vertex -1.6 9.599 1.6
    endloop
  endfacet
  facet normal 0 -1 -0
    outer loop
      vertex 1.6 9.599 1.6
      vertex -1.6 9.599 -1.6
      vertex 1.6 9.599 -1.6
    endloop
  endfacet
  facet normal -0 0 1
    outer loop
      vertex -1.6 9.599 -1.6
      vertex 1.6 7.499 -1.6
      vertex 1.6 9.599 -1.6
    endloop
  endfacet
  facet normal 0 0 1
    outer loop
      vertex 1.6 7.499 -1.6
      vertex -1.6 9.599 -1.6
      vertex -1.6 7.499 -1.6
    endloop
  endfacet
  facet normal 0 -0.707107 -0.707107
    outer loop
      vertex -8.5 -10 8.5
      vertex 13.499 -14.999 13.499
      vertex -13.499 -14.999 13.499
    endloop
  endfacet
  facet normal 0 -0.707107 -0.707107
    outer loop
      vertex 13.499 -14.999 13.499
      vertex -8.5 -10 8.5
      vertex 8.5 -10 8.5
    endloop
  endfacet
  facet normal 0.707107 -0.707107 0
    outer loop
      vertex -13.499 -14.999 13.499
      vertex -8.5 -10 -8.5
      vertex -8.5 -10 8.5
    endloop
  endfacet
  facet normal 0.707107 -0.707107 0
    outer loop
      vertex -8.5 -10 -8.5
      vertex -13.499 -14.999 13.499
      vertex -13.499 -14.999 -13.499
    endloop
  endfacet
  facet normal 0 -0.707107 0.707107
    outer loop
      vertex -13.499 -14.999 -13.499
      vertex 8.5 -10 -8.5
      vertex -8.5 -10 -8.5
    endloop
  endfacet
  facet normal 0 -0.707107 0.707107
    outer loop
      vertex 8.5 -10 -8.5
      vertex -13.499 -14.999 -13.499
      vertex 13.499 -14.999 -13.499
    endloop
  endfacet
  facet normal -0.707107 -0.707107 0
    outer loop
      vertex 13.499 -14.999 -13.499
      vertex 8.5 -10 8.5
      vertex 8.5 -10 -8.5
    endloop
  endfacet
  facet normal -0.707107 -0.707107 0
    outer loop
      vertex 8.5 -10 8.5
      vertex 13.499 -14.999 -13.499
      vertex 13.499 -14.999 13.499
    endloop
  endfacet
  facet normal 0 -1 0
    outer loop
      vertex -8.5 -10 -8.5
      vertex 8.5 -10 8.5
      vertex -8.5 -10 8.5
    endloop
  endfacet
  facet normal 0 -1 -0
    outer loop
      vertex 8.5 -10 8.5
      vertex -8.5 -10 -8.5
      vertex 8.5 -10 -8.5
    endloop
  endfacet
  facet normal 0 -1 0
    outer loop
      vertex 14.999 -14.999 14.999
      vertex 15 -14.999 15
      vertex 14.999 -14.999 15
    endloop
  endfacet
  facet normal 0 -1 -0
    outer loop
      vertex 15 -14.999 15
      vertex 14.999 -14.999 14.999
      vertex 15 -14.999 14.999
    endloop
  endfacet
  facet normal 0 -1 0
    outer loop
      vertex -15 -14.999 14.999
      vertex -14.999 -14.999 15
      vertex -15 -14.999 15
    endloop
  endfacet
  facet normal 0 -1 -0
    outer loop
      vertex -14.999 -14.999 15
      vertex -15 -14.999 14.999
      vertex -14.999 -14.999 14.999
    endloop
  endfacet
  facet normal 0 -1 0
    outer loop
      vertex -14.998 -14.999 14.999
      vertex 14.999 -14.999 15
      vertex -14.999 -14.999 15
    endloop
  endfacet
  facet normal 0 -1 0
    outer loop
      vertex 14.999 -14.999 15
      vertex -14.998 -14.999 14.999
      vertex 14.998 -14.999 14.999
    endloop
  endfacet
  facet normal 0 -1 0
    outer loop
      vertex -15 -14.999 14.999
      vertex -14.999 -14.999 -14.999
      vertex -14.999 -14.999 14.998
    endloop
  endfacet
  facet normal -0 -1 0
    outer loop
      vertex -14.999 -14.999 -14.999
      vertex -15 -14.999 14.999
      vertex -15 -14.999 -15
    endloop
  endfacet
  facet normal 0 -1 0
    outer loop
      vertex 14.999 -14.999 -14.999
      vertex 15 -14.999 14.999
      vertex 14.999 -14.999 14.998
    endloop
  endfacet
  facet normal 0 -1 -0
    outer loop
      vertex 15 -14.999 14.999
      vertex 14.999 -14.999 -14.999
      vertex 15 -14.999 -15
    endloop
  endfacet
  facet normal 0 -1 0
    outer loop
      vertex -14.998 -14.999 14.998
      vertex -13.499 -14.999 13.499
      vertex 14.998 -14.999 14.998
    endloop
  endfacet
  facet normal 0 -1 0
    outer loop
      vertex -14.998 -14.999 14.998
      vertex -13.499 -14.999 -13.499
      vertex -13.499 -14.999 13.499
    endloop
  endfacet
  facet normal 0 -1 -0
    outer loop
      vertex -13.499 -14.999 -13.499
      vertex -14.998 -14.999 -14.999
      vertex 13.499 -14.999 -13.499
    endloop
  endfacet
  facet normal 0 -1 0
    outer loop
      vertex -14.998 -14.999 -14.999
      vertex -13.499 -14.999 -13.499
      vertex -14.998 -14.999 14.998
    endloop
  endfacet
  facet normal 0 -1 0
    outer loop
      vertex 13.499 -14.999 13.499
      vertex 14.998 -14.999 14.998
      vertex -13.499 -14.999 13.499
    endloop
  endfacet
  facet normal 0 -1 0
    outer loop
      vertex 13.499 -14.999 -13.499
      vertex 14.998 -14.999 14.998
      vertex 13.499 -14.999 13.499
    endloop
  endfacet
  facet normal 0 -1 0
    outer loop
      vertex 13.499 -14.999 -13.499
      vertex 14.998 -14.999 -14.999
      vertex 14.998 -14.999 14.998
    endloop
  endfacet
  facet normal 0 -1 0
    outer loop
      vertex 14.998 -14.999 -14.999
      vertex 13.499 -14.999 -13.499
      vertex -14.998 -14.999 -14.999
    endloop
  endfacet
  facet normal 0 0.707107 0.707107
    outer loop
      vertex 14.999 -14.998 14.999
      vertex 14.999 -14.999 15
      vertex 15 -14.999 15
    endloop
  endfacet
  facet normal 0 0.707107 0.707107
    outer loop
      vertex -14.999 -14.998 14.999
      vertex -15 -14.999 15
      vertex -14.999 -14.999 15
    endloop
  endfacet
  facet normal 0 0.707107 0.707107
    outer loop
      vertex 14.998 -14.998 14.999
      vertex -14.999 -14.999 15
      vertex 14.999 -14.999 15
    endloop
  endfacet
  facet normal 0 0.707107 0.707107
    outer loop
      vertex -14.999 -14.999 15
      vertex 14.998 -14.998 14.999
      vertex -14.998 -14.998 14.999
    endloop
  endfacet
  facet normal -0.707107 0.707107 0
    outer loop
      vertex -15 -14.999 14.999
      vertex -15 -14.999 15
      vertex -14.999 -14.998 14.999
    endloop
  endfacet
  facet normal -0.707107 0.707107 0
    outer loop
      vertex -14.999 -14.998 -14.999
      vertex -15 -14.999 14.999
      vertex -14.999 -14.998 14.998
    endloop
  endfacet
  facet normal -0.707107 0.707107 0
    outer loop
      vertex -15 -14.999 14.999
      vertex -14.999 -14.998 -14.999
      vertex -15 -14.999 -15
    endloop
  endfacet
  facet normal 0.707107 0.707107 -0
    outer loop
      vertex 15 -14.999 14.999
      vertex 14.999 -14.998 14.999
      vertex 15 -14.999 15
    endloop
  endfacet
  facet normal 0.707107 0.707107 0
    outer loop
      vertex 15 -14.999 14.999
      vertex 14.999 -14.998 -14.999
      vertex 14.999 -14.998 14.998
    endloop
  endfacet
  facet normal 0.707107 0.707107 0
    outer loop
      vertex 14.999 -14.998 -14.999
      vertex 15 -14.999 14.999
      vertex 15 -14.999 -15
    endloop
  endfacet
  facet normal 1 -0 0
    outer loop
      vertex -1.6 -9.599 1.6
      vertex -1.6 -7.499 -1.6
      vertex -1.6 -7.499 1.6
    endloop
  endfacet
  facet normal 1 0 0
    outer loop
      vertex -1.6 -7.499 -1.6
      vertex -1.6 -9.599 1.6
      vertex -1.6 -9.599 -1.6
    endloop
  endfacet
  facet normal 0 -1 0
    outer loop
      vertex -1.6 -7.499 -1.6
      vertex 1.6 -7.499 1.6
      vertex -1.6 -7.499 1.6
    endloop
  endfacet
  facet normal 0 -1 -0
    outer loop
      vertex 1.6 -7.499 1.6
      vertex -1.6 -7.499 -1.6
      vertex 1.6 -7.499 -1.6
    endloop
  endfacet
  facet normal -1 0 0
    outer loop
      vertex 1.6 -9.599 -1.6
      vertex 1.6 -7.499 1.6
      vertex 1.6 -7.499 -1.6
    endloop
  endfacet
  facet normal -1 -0 0
    outer loop
      vertex 1.6 -7.499 1.6
      vertex 1.6 -9.599 -1.6
      vertex 1.6 -9.599 1.6
    endloop
  endfacet
  facet normal -0 0 1
    outer loop
      vertex -1.6 -7.499 -1.6
      vertex 1.6 -9.599 -1.6
      vertex 1.6 -7.499 -1.6
    endloop
  endfacet
  facet normal 0 0 1
    outer loop
      vertex 1.6 -9.599 -1.6
      vertex -1.6 -7.499 -1.6
      vertex -1.6 -9.599 -1.6
    endloop
  endfacet
  facet normal 0 1 -0
    outer loop
      vertex 1.6 -9.599 -1.6
      vertex -1.6 -9.599 1.6
      vertex 1.6 -9.599 1.6
    endloop
  endfacet
  facet normal 0 1 0
    outer loop
      vertex -1.6 -9.599 1.6
      vertex 1.6 -9.599 -1.6
      vertex -1.6 -9.599 -1.6
    endloop
  endfacet
  facet normal 0 0 -1
    outer loop
      vertex -1.6 -9.599 1.6
      vertex 1.6 -7.499 1.6
      vertex 1.6 -9.599 1.6
    endloop
  endfacet
  facet normal -0 0 -1
    outer loop
      vertex 1.6 -7.499 1.6
      vertex -1.6 -9.599 1.6
      vertex -1.6 -7.499 1.6
    endloop
  endfacet
  facet normal 0 -0.707107 0.707107
    outer loop
      vertex -8.5 8.5 10
      vertex 13.499 13.499 14.999
      vertex -13.499 13.499 14.999
    endloop
  endfacet
  facet normal 0 -0.707107 0.707107
    outer loop
      vertex 13.499 13.499 14.999
      vertex -8.5 8.5 10
      vertex 8.5 8.5 10
    endloop
  endfacet
  facet normal 0.707107 0 0.707107
    outer loop
      vertex -13.499 13.499 14.999
      vertex -8.5 -8.5 10
      vertex -8.5 8.5 10
    endloop
  endfacet
  facet normal 0.707107 0 0.707107
    outer loop
      vertex -8.5 -8.5 10
      vertex -13.499 13.499 14.999
      vertex -13.499 -13.499 14.999
    endloop
  endfacet
  facet normal 0 0.707107 0.707107
    outer loop
      vertex 8.5 -8.5 10
      vertex -13.499 -13.499 14.999
      vertex 13.499 -13.499 14.999
    endloop
  endfacet
  facet normal 0 0.707107 0.707107
    outer loop
      vertex -13.499 -13.499 14.999
      vertex 8.5 -8.5 10
      vertex -8.5 -8.5 10
    endloop
  endfacet
  facet normal -0.707107 0 0.707107
    outer loop
      vertex 8.5 -8.5 10
      vertex 13.499 13.499 14.999
      vertex 8.5 8.5 10
    endloop
  endfacet
  facet normal -0.707107 0 0.707107
    outer loop
      vertex 13.499 13.499 14.999
      vertex 8.5 -8.5 10
      vertex 13.499 -13.499 14.999
    endloop
  endfacet
  facet normal -0 0 1
    outer loop
      vertex -8.5 8.5 10
      vertex 8.5 -8.5 10
      vertex 8.5 8.5 10
    endloop
  endfacet
  facet normal 0 0 1
    outer loop
      vertex 8.5 -8.5 10
      vertex -8.5 8.5 10
      vertex -8.5 -8.5 10
    endloop
  endfacet
  facet normal -0 0 1
    outer loop
      vertex -15 15 14.999
      vertex -14.999 14.999 14.999
      vertex -14.999 15 14.999
    endloop
  endfacet
  facet normal 0 0 1
    outer loop
      vertex -14.999 14.999 14.999
      vertex -15 15 14.999
      vertex -15 14.999 14.999
    endloop
  endfacet
  facet normal 0 0 1
    outer loop
      vertex 14.999 15 14.999
      vertex -14.998 14.999 14.999
      vertex 14.998 14.999 14.999
    endloop
  endfacet
  facet normal 0 -0 1
    outer loop
      vertex -14.998 14.999 14.999
      vertex 14.999 15 14.999
      vertex -14.999 15 14.999
    endloop
  endfacet
  facet normal -0 0 1
    outer loop
      vertex 14.999 15 14.999
      vertex 15 14.999 14.999
      vertex 15 15 14.999
    endloop
  endfacet
  facet normal 0 0 1
    outer loop
      vertex 15 14.999 14.999
      vertex 14.999 15 14.999
      vertex 14.999 14.999 14.999
    endloop
  endfacet
  facet normal 0 0 0
    outer loop
      vertex -14.999 15 14.999
      vertex 14.999 15 14.999
      vertex 15 15 14.999
    endloop
  endfacet
  facet normal 0 0 0
    outer loop
      vertex -15 15 14.999
      vertex -14.999 15 14.999
      vertex 15 15 14.999
    endloop
  endfacet
  facet normal -0 0 1
    outer loop
      vertex -15 -14.999 14.999
      vertex -14.999 -15 14.999
      vertex -14.999 -14.999 14.999
    endloop
  endfacet
  facet normal 0 0 1
    outer loop
      vertex -14.999 -15 14.999
      vertex -15 -14.999 14.999
      vertex -15 -15 14.999
    endloop
  endfacet
  facet normal -0 0 1
    outer loop
      vertex 14.999 -14.999 14.999
      vertex 15 -15 14.999
      vertex 15 -14.999 14.999
    endloop
  endfacet
  facet normal 0 0 1
    outer loop
      vertex 15 -15 14.999
      vertex 14.999 -14.999 14.999
      vertex 14.999 -15 14.999
    endloop
  endfacet
  facet normal 0 0 1
    outer loop
      vertex -15 14.999 14.999
      vertex -14.999 -14.998 14.999
      vertex -14.999 14.998 14.999
    endloop
  endfacet
  facet normal 0 0 1
    outer loop
      vertex -14.999 -14.998 14.999
      vertex -15 14.999 14.999
      vertex -15 -14.999 14.999
    endloop
  endfacet
  facet normal -0 0 1
    outer loop
      vertex 14.999 14.998 14.999
      vertex 15 -14.999 14.999
      vertex 15 14.999 14.999
    endloop
  endfacet
  facet normal 0 0 1
    outer loop
      vertex 15 -14.999 14.999
      vertex 14.999 14.998 14.999
      vertex 14.999 -14.998 14.999
    endloop
  endfacet
  facet normal -0 0 1
    outer loop
      vertex -14.998 -14.999 14.999
      vertex 14.999 -15 14.999
      vertex 14.998 -14.999 14.999
    endloop
  endfacet
  facet normal 0 0 1
    outer loop
      vertex 14.999 -15 14.999
      vertex -14.998 -14.999 14.999
      vertex -14.999 -15 14.999
    endloop
  endfacet
  facet normal 0 0 1
    outer loop
      vertex 14.998 14.998 14.999
      vertex 13.499 13.499 14.999
      vertex 14.998 -14.998 14.999
    endloop
  endfacet
  facet normal 0 0 1
    outer loop
      vertex 14.998 14.998 14.999
      vertex -13.499 13.499 14.999
      vertex 13.499 13.499 14.999
    endloop
  endfacet
  facet normal 0 0 1
    outer loop
      vertex -13.499 13.499 14.999
      vertex -14.998 14.998 14.999
      vertex -13.499 -13.499 14.999
    endloop
  endfacet
  facet normal -0 0 1
    outer loop
      vertex -14.998 14.998 14.999
      vertex -13.499 13.499 14.999
      vertex 14.998 14.998 14.999
    endloop
  endfacet
  facet normal -0 0 1
    outer loop
      vertex 13.499 -13.499 14.999
      vertex 14.998 -14.998 14.999
      vertex 13.499 13.499 14.999
    endloop
  endfacet
  facet normal -0 0 1
    outer loop
      vertex -13.499 -13.499 14.999
      vertex 14.998 -14.998 14.999
      vertex 13.499 -13.499 14.999
    endloop
  endfacet
  facet normal 0 0 1
    outer loop
      vertex -13.499 -13.499 14.999
      vertex -14.998 -14.998 14.999
      vertex 14.998 -14.998 14.999
    endloop
  endfacet
  facet normal 0 0 1
    outer loop
      vertex -14.998 -14.998 14.999
      vertex -13.499 -13.499 14.999
      vertex -14.998 14.998 14.999
    endloop
  endfacet
  facet normal 0 0.707107 -0.707107
    outer loop
      vertex -14.999 14.999 14.998
      vertex -15 15 14.999
      vertex -14.999 15 14.999
    endloop
  endfacet
  facet normal 0 0.707107 -0.707107
    outer loop
      vertex 15 15 14.999
      vertex 14.999 14.999 14.998
      vertex 14.999 15 14.999
    endloop
  endfacet
  facet normal 0 0.707107 -0.707107
    outer loop
      vertex -14.998 14.999 14.998
      vertex 14.999 15 14.999
      vertex 14.998 14.999 14.998
    endloop
  endfacet
  facet normal 0 0.707107 -0.707107
    outer loop
      vertex 14.999 15 14.999
      vertex -14.998 14.999 14.998
      vertex -14.999 15 14.999
    endloop
  endfacet
  facet normal 0 0 0
    outer loop
      vertex -14.999 15 14.999
      vertex -15 15 14.999
      vertex 15 15 14.999
    endloop
  endfacet
  facet normal 0 0 0
    outer loop
      vertex -14.999 15 14.999
      vertex 15 15 14.999
      vertex 14.999 15 14.999
    endloop
  endfacet
  facet normal -0.707107 0 -0.707107
    outer loop
      vertex -14.999 14.999 14.998
      vertex -15 14.999 14.999
      vertex -15 15 14.999
    endloop
  endfacet
  facet normal -0.707107 0 -0.707107
    outer loop
      vertex -14.999 -14.999 14.998
      vertex -15 -15 14.999
      vertex -15 -14.999 14.999
    endloop
  endfacet
  facet normal -0.707107 0 -0.707107
    outer loop
      vertex -15 -14.999 14.999
      vertex -14.999 14.998 14.998
      vertex -14.999 -14.998 14.998
    endloop
  endfacet
  facet normal -0.707107 0 -0.707107
    outer loop
      vertex -14.999 14.998 14.998
      vertex -15 -14.999 14.999
      vertex -15 14.999 14.999
    endloop
  endfacet
  facet normal -0 -0.707107 -0.707107
    outer loop
      vertex -14.999 -15 14.999
      vertex -15 -15 14.999
      vertex -14.999 -14.999 14.998
    endloop
  endfacet
  facet normal 0 -0.707107 -0.707107
    outer loop
      vertex 14.999 -15 14.999
      vertex 14.999 -14.999 14.998
      vertex 15 -15 14.999
    endloop
  endfacet
  facet normal 0 -0.707107 -0.707107
    outer loop
      vertex 14.999 -15 14.999
      vertex -14.998 -14.999 14.998
      vertex 14.998 -14.999 14.998
    endloop
  endfacet
  facet normal 0 -0.707107 -0.707107
    outer loop
      vertex -14.998 -14.999 14.998
      vertex 14.999 -15 14.999
      vertex -14.999 -15 14.999
    endloop
  endfacet
  facet normal 0.707107 0 -0.707107
    outer loop
      vertex 14.999 14.999 14.998
      vertex 15 15 14.999
      vertex 15 14.999 14.999
    endloop
  endfacet
  facet normal 0.707107 0 -0.707107
    outer loop
      vertex 15 -15 14.999
      vertex 14.999 -14.999 14.998
      vertex 15 -14.999 14.999
    endloop
  endfacet
  facet normal 0.707107 0 -0.707107
    outer loop
      vertex 14.999 -14.998 14.998
      vertex 15 14.999 14.999
      vertex 15 -14.999 14.999
    endloop
  endfacet
  facet normal 0.707107 0 -0.707107
    outer loop
      vertex 15 14.999 14.999
      vertex 14.999 -14.998 14.998
      vertex 14.999 14.998 14.998
    endloop
  endfacet
  facet normal 1 -0 0
    outer loop
      vertex -1.6 -1.6 9.599
      vertex -1.6 1.6 7.499
      vertex -1.6 1.6 9.599
    endloop
  endfacet
  facet normal 1 0 0
    outer loop
      vertex -1.6 1.6 7.499
      vertex -1.6 -1.6 9.599
      vertex -1.6 -1.6 7.499
    endloop
  endfacet
  facet normal -0 0 1
    outer loop
      vertex -1.6 1.6 7.499
      vertex 1.6 -1.6 7.499
      vertex 1.6 1.6 7.499
    endloop
  endfacet
  facet normal 0 0 1
    outer loop
      vertex 1.6 -1.6 7.499
      vertex -1.6 1.6 7.499
      vertex -1.6 -1.6 7.499
    endloop
  endfacet
  facet normal -1 0 0
    outer loop
      vertex 1.6 -1.6 7.499
      vertex 1.6 1.6 9.599
      vertex 1.6 1.6 7.499
    endloop
  endfacet
  facet normal -1 -0 0
    outer loop
      vertex 1.6 1.6 9.599
      vertex 1.6 -1.6 7.499
      vertex 1.6 -1.6 9.599
    endloop
  endfacet
  facet normal 0 1 -0
    outer loop
      vertex 1.6 -1.6 7.499
      vertex -1.6 -1.6 9.599
      vertex 1.6 -1.6 9.599
    endloop
  endfacet
  facet normal 0 1 0
    outer loop
      vertex -1.6 -1.6 9.599
      vertex 1.6 -1.6 7.499
      vertex -1.6 -1.6 7.499
    endloop
  endfacet
  facet normal 0 0 -1
    outer loop
      vertex -1.6 -1.6 9.599
      vertex 1.6 1.6 9.599
      vertex 1.6 -1.6 9.599
    endloop
  endfacet
  facet normal -0 0 -1
    outer loop
      vertex 1.6 1.6 9.599
      vertex -1.6 -1.6 9.599
      vertex -1.6 1.6 9.599
    endloop
  endfacet
  facet normal 0 -1 0
    outer loop
      vertex -1.6 1.6 7.499
      vertex 1.6 1.6 9.599
      vertex -1.6 1.6 9.599
    endloop
  endfacet
  facet normal 0 -1 -0
    outer loop
      vertex 1.6 1.6 9.599
      vertex -1.6 1.6 7.499
      vertex 1.6 1.6 7.499
    endloop
  endfacet
endsolid OpenSCAD_Model
