solid OpenSCAD_Model
  facet normal 1 -0 0
    outer loop
      vertex 7.5 -7.5 0
      vertex 7.5 7.5 -3.5
      vertex 7.5 7.5 0
    endloop
  endfacet
  facet normal 1 0 0
    outer loop
      vertex 7.5 7.5 -3.5
      vertex 7.5 -7.5 0
      vertex 7.5 -7.5 -3.5
    endloop
  endfacet
  facet normal 0 0 1
    outer loop
      vertex 7.5 7.5 0
      vertex 6.45 6.45 0
      vertex 7.5 -7.5 0
    endloop
  endfacet
  facet normal 0 0 1
    outer loop
      vertex 7.5 7.5 0
      vertex -6.45 6.45 0
      vertex 6.45 6.45 0
    endloop
  endfacet
  facet normal 0 0 1
    outer loop
      vertex -6.45 6.45 0
      vertex -7.5 7.5 0
      vertex -6.45 -6.45 0
    endloop
  endfacet
  facet normal -0 0 1
    outer loop
      vertex -7.5 7.5 0
      vertex -6.45 6.45 0
      vertex 7.5 7.5 0
    endloop
  endfacet
  facet normal -0 0 1
    outer loop
      vertex 6.45 -6.45 0
      vertex 7.5 -7.5 0
      vertex 6.45 6.45 0
    endloop
  endfacet
  facet normal -0 0 1
    outer loop
      vertex -6.45 -6.45 0
      vertex 7.5 -7.5 0
      vertex 6.45 -6.45 0
    endloop
  endfacet
  facet normal 0 0 1
    outer loop
      vertex -6.45 -6.45 0
      vertex -7.5 -7.5 0
      vertex 7.5 -7.5 0
    endloop
  endfacet
  facet normal 0 0 1
    outer loop
      vertex -7.5 -7.5 0
      vertex -6.45 -6.45 0
      vertex -7.5 7.5 0
    endloop
  endfacet
  facet normal 0 0 -1
    outer loop
      vertex -7.5 -7.5 -3.5
      vertex 7.5 7.5 -3.5
      vertex 7.5 -7.5 -3.5
    endloop
  endfacet
  facet normal -0 0 -1
    outer loop
      vertex 7.5 7.5 -3.5
      vertex -7.5 -7.5 -3.5
      vertex -7.5 7.5 -3.5
    endloop
  endfacet
  facet normal -1 0 0
    outer loop
      vertex -7.5 -7.5 -3.5
      vertex -7.5 7.5 0
      vertex -7.5 7.5 -3.5
    endloop
  endfacet
  facet normal -1 -0 0
    outer loop
      vertex -7.5 7.5 0
      vertex -7.5 -7.5 -3.5
      vertex -7.5 -7.5 0
    endloop
  endfacet
  facet normal 0 1 -0
    outer loop
      vertex 7.5 7.5 -3.5
      vertex -7.5 7.5 0
      vertex 7.5 7.5 0
    endloop
  endfacet
  facet normal 0 1 0
    outer loop
      vertex -7.5 7.5 0
      vertex 7.5 7.5 -3.5
      vertex -7.5 7.5 -3.5
    endloop
  endfacet
  facet normal 0 -1 0
    outer loop
      vertex -7.5 -7.5 -3.5
      vertex 7.5 -7.5 0
      vertex -7.5 -7.5 0
    endloop
  endfacet
  facet normal 0 -1 -0
    outer loop
      vertex 7.5 -7.5 0
      vertex -7.5 -7.5 -3.5
      vertex 7.5 -7.5 -3.5
    endloop
  endfacet
  facet normal 1 -0 0
    outer loop
      vertex 6.45 -5.16 4.7
      vertex 6.45 -2.58 3.3
      vertex 6.45 -2.58 4.7
    endloop
  endfacet
  facet normal 1 0 0
    outer loop
      vertex 6.45 -2.58 3.3
      vertex 6.45 -5.16 4.7
      vertex 6.45 -5.16 3.3
    endloop
  endfacet
  facet normal 1 -0 0
    outer loop
      vertex 6.45 -1.29 4.7
      vertex 6.45 1.29 3.3
      vertex 6.45 1.29 4.7
    endloop
  endfacet
  facet normal 1 0 0
    outer loop
      vertex 6.45 1.29 3.3
      vertex 6.45 -1.29 4.7
      vertex 6.45 -1.29 3.3
    endloop
  endfacet
  facet normal 1 -0 0
    outer loop
      vertex 6.45 2.58 4.7
      vertex 6.45 5.16 3.3
      vertex 6.45 5.16 4.7
    endloop
  endfacet
  facet normal 1 0 0
    outer loop
      vertex 6.45 5.16 3.3
      vertex 6.45 2.58 4.7
      vertex 6.45 2.58 3.3
    endloop
  endfacet
  facet normal 1 0 0
    outer loop
      vertex 6.45 5.16 4.7
      vertex 6.45 6.45 8
      vertex 6.45 5.16 6.3
    endloop
  endfacet
  facet normal 1 0 0
    outer loop
      vertex 6.45 6.45 8
      vertex 6.45 2.58 6.3
      vertex 6.45 5.16 6.3
    endloop
  endfacet
  facet normal 1 0 0
    outer loop
      vertex 6.45 1.29 4.7
      vertex 6.45 2.58 4.7
      vertex 6.45 2.58 6.3
    endloop
  endfacet
  facet normal 1 0 0
    outer loop
      vertex 6.45 2.58 4.7
      vertex 6.45 1.29 4.7
      vertex 6.45 2.58 3.3
    endloop
  endfacet
  facet normal 1 0 0
    outer loop
      vertex 6.45 1.29 4.7
      vertex 6.45 2.58 6.3
      vertex 6.45 1.29 6.3
    endloop
  endfacet
  facet normal 1 0 0
    outer loop
      vertex 6.45 6.45 8
      vertex 6.45 1.29 6.3
      vertex 6.45 2.58 6.3
    endloop
  endfacet
  facet normal 1 0 0
    outer loop
      vertex 6.45 6.45 8
      vertex 6.45 -1.29 6.3
      vertex 6.45 1.29 6.3
    endloop
  endfacet
  facet normal 1 0 0
    outer loop
      vertex 6.45 -2.58 4.7
      vertex 6.45 -1.29 4.7
      vertex 6.45 -1.29 6.3
    endloop
  endfacet
  facet normal 1 0 0
    outer loop
      vertex 6.45 -1.29 4.7
      vertex 6.45 -2.58 4.7
      vertex 6.45 -1.29 3.3
    endloop
  endfacet
  facet normal 1 0 0
    outer loop
      vertex 6.45 -2.58 4.7
      vertex 6.45 -1.29 6.3
      vertex 6.45 -2.58 6.3
    endloop
  endfacet
  facet normal 1 -0 0
    outer loop
      vertex 6.45 -6.45 8
      vertex 6.45 -1.29 6.3
      vertex 6.45 6.45 8
    endloop
  endfacet
  facet normal 1 0 0
    outer loop
      vertex 6.45 -1.29 6.3
      vertex 6.45 -6.45 8
      vertex 6.45 -2.58 6.3
    endloop
  endfacet
  facet normal 1 0 0
    outer loop
      vertex 6.45 -6.45 8
      vertex 6.45 -5.16 4.7
      vertex 6.45 -5.16 6.3
    endloop
  endfacet
  facet normal 1 0 0
    outer loop
      vertex 6.45 -5.16 4.7
      vertex 6.45 -6.45 8
      vertex 6.45 -5.16 3.3
    endloop
  endfacet
  facet normal 1 0 0
    outer loop
      vertex 6.45 -6.45 0
      vertex 6.45 -5.16 3.3
      vertex 6.45 -6.45 8
    endloop
  endfacet
  facet normal 1 0 0
    outer loop
      vertex 6.45 -2.58 6.3
      vertex 6.45 -6.45 8
      vertex 6.45 -5.16 6.3
    endloop
  endfacet
  facet normal 1 0 0
    outer loop
      vertex 6.45 6.45 8
      vertex 6.45 5.16 4.7
      vertex 6.45 6.45 0
    endloop
  endfacet
  facet normal 1 -0 0
    outer loop
      vertex 6.45 5.16 3.3
      vertex 6.45 6.45 0
      vertex 6.45 5.16 4.7
    endloop
  endfacet
  facet normal 1 -0 0
    outer loop
      vertex 6.45 5.16 1.7
      vertex 6.45 6.45 0
      vertex 6.45 5.16 3.3
    endloop
  endfacet
  facet normal 1 -0 0
    outer loop
      vertex 6.45 2.58 1.7
      vertex 6.45 6.45 0
      vertex 6.45 5.16 1.7
    endloop
  endfacet
  facet normal 1 0 0
    outer loop
      vertex 6.45 1.29 3.3
      vertex 6.45 2.58 3.3
      vertex 6.45 1.29 4.7
    endloop
  endfacet
  facet normal 1 0 0
    outer loop
      vertex 6.45 2.58 3.3
      vertex 6.45 1.29 3.3
      vertex 6.45 2.58 1.7
    endloop
  endfacet
  facet normal 1 0 0
    outer loop
      vertex 6.45 1.29 1.7
      vertex 6.45 2.58 1.7
      vertex 6.45 1.29 3.3
    endloop
  endfacet
  facet normal 1 -0 0
    outer loop
      vertex 6.45 1.29 1.7
      vertex 6.45 6.45 0
      vertex 6.45 2.58 1.7
    endloop
  endfacet
  facet normal 1 -0 0
    outer loop
      vertex 6.45 -1.29 1.7
      vertex 6.45 6.45 0
      vertex 6.45 1.29 1.7
    endloop
  endfacet
  facet normal 1 0 0
    outer loop
      vertex 6.45 -2.58 3.3
      vertex 6.45 -1.29 3.3
      vertex 6.45 -2.58 4.7
    endloop
  endfacet
  facet normal 1 0 0
    outer loop
      vertex 6.45 -1.29 3.3
      vertex 6.45 -2.58 3.3
      vertex 6.45 -1.29 1.7
    endloop
  endfacet
  facet normal 1 0 0
    outer loop
      vertex 6.45 -2.58 1.7
      vertex 6.45 -1.29 1.7
      vertex 6.45 -2.58 3.3
    endloop
  endfacet
  facet normal 1 0 0
    outer loop
      vertex 6.45 -6.45 0
      vertex 6.45 -1.29 1.7
      vertex 6.45 -2.58 1.7
    endloop
  endfacet
  facet normal 1 0 0
    outer loop
      vertex 6.45 -6.45 0
      vertex 6.45 -2.58 1.7
      vertex 6.45 -5.16 1.7
    endloop
  endfacet
  facet normal 1 0 0
    outer loop
      vertex 6.45 -1.29 1.7
      vertex 6.45 -6.45 0
      vertex 6.45 6.45 0
    endloop
  endfacet
  facet normal 1 0 0
    outer loop
      vertex 6.45 -5.16 3.3
      vertex 6.45 -6.45 0
      vertex 6.45 -5.16 1.7
    endloop
  endfacet
  facet normal 0 0 1
    outer loop
      vertex 5.9125 2.6875 8
      vertex 6.45 6.45 8
      vertex 5.9125 5.9125 8
    endloop
  endfacet
  facet normal 0 0 1
    outer loop
      vertex 6.45 6.45 8
      vertex 2.6875 5.9125 8
      vertex 5.9125 5.9125 8
    endloop
  endfacet
  facet normal 0 0 1
    outer loop
      vertex -6.45 6.45 8
      vertex 2.6875 2.6875 8
      vertex 2.6875 5.9125 8
    endloop
  endfacet
  facet normal 0 0 1
    outer loop
      vertex 2.6875 2.6875 8
      vertex -6.45 6.45 8
      vertex -2.6875 -2.6875 8
    endloop
  endfacet
  facet normal 0 0 1
    outer loop
      vertex -6.45 -6.45 8
      vertex -5.9125 -2.6875 8
      vertex -6.45 6.45 8
    endloop
  endfacet
  facet normal 0 0 1
    outer loop
      vertex -2.6875 -2.6875 8
      vertex -6.45 6.45 8
      vertex -5.9125 -2.6875 8
    endloop
  endfacet
  facet normal -0 0 1
    outer loop
      vertex -6.45 6.45 8
      vertex 2.6875 5.9125 8
      vertex 6.45 6.45 8
    endloop
  endfacet
  facet normal 0 0 1
    outer loop
      vertex 6.45 6.45 8
      vertex 5.9125 2.6875 8
      vertex 6.45 -6.45 8
    endloop
  endfacet
  facet normal -0 0 1
    outer loop
      vertex 2.6875 2.6875 8
      vertex 6.45 -6.45 8
      vertex 5.9125 2.6875 8
    endloop
  endfacet
  facet normal -0 0 1
    outer loop
      vertex -2.6875 -2.6875 8
      vertex 6.45 -6.45 8
      vertex 2.6875 2.6875 8
    endloop
  endfacet
  facet normal -0 0 1
    outer loop
      vertex -2.6875 -5.9125 8
      vertex 6.45 -6.45 8
      vertex -2.6875 -2.6875 8
    endloop
  endfacet
  facet normal 0 0 1
    outer loop
      vertex -6.45 -6.45 8
      vertex -2.6875 -5.9125 8
      vertex -5.9125 -5.9125 8
    endloop
  endfacet
  facet normal 0 0 1
    outer loop
      vertex -2.6875 -5.9125 8
      vertex -6.45 -6.45 8
      vertex 6.45 -6.45 8
    endloop
  endfacet
  facet normal 0 0 1
    outer loop
      vertex -5.9125 -2.6875 8
      vertex -6.45 -6.45 8
      vertex -5.9125 -5.9125 8
    endloop
  endfacet
  facet normal -1 0 0
    outer loop
      vertex -6.45 -5.16 3.3
      vertex -6.45 -2.58 4.7
      vertex -6.45 -2.58 3.3
    endloop
  endfacet
  facet normal -1 -0 0
    outer loop
      vertex -6.45 -2.58 4.7
      vertex -6.45 -5.16 3.3
      vertex -6.45 -5.16 4.7
    endloop
  endfacet
  facet normal -1 0 0
    outer loop
      vertex -6.45 -1.29 3.3
      vertex -6.45 1.29 4.7
      vertex -6.45 1.29 3.3
    endloop
  endfacet
  facet normal -1 -0 0
    outer loop
      vertex -6.45 1.29 4.7
      vertex -6.45 -1.29 3.3
      vertex -6.45 -1.29 4.7
    endloop
  endfacet
  facet normal -1 0 0
    outer loop
      vertex -6.45 2.58 3.3
      vertex -6.45 5.16 4.7
      vertex -6.45 5.16 3.3
    endloop
  endfacet
  facet normal -1 -0 0
    outer loop
      vertex -6.45 5.16 4.7
      vertex -6.45 2.58 3.3
      vertex -6.45 2.58 4.7
    endloop
  endfacet
  facet normal -1 0 0
    outer loop
      vertex -6.45 5.16 3.3
      vertex -6.45 6.45 0
      vertex -6.45 5.16 1.7
    endloop
  endfacet
  facet normal -1 0 0
    outer loop
      vertex -6.45 6.45 0
      vertex -6.45 2.58 1.7
      vertex -6.45 5.16 1.7
    endloop
  endfacet
  facet normal -1 0 0
    outer loop
      vertex -6.45 1.29 3.3
      vertex -6.45 2.58 3.3
      vertex -6.45 2.58 1.7
    endloop
  endfacet
  facet normal -1 0 0
    outer loop
      vertex -6.45 2.58 3.3
      vertex -6.45 1.29 3.3
      vertex -6.45 2.58 4.7
    endloop
  endfacet
  facet normal -1 0 0
    outer loop
      vertex -6.45 1.29 3.3
      vertex -6.45 2.58 1.7
      vertex -6.45 1.29 1.7
    endloop
  endfacet
  facet normal -1 0 0
    outer loop
      vertex -6.45 6.45 0
      vertex -6.45 1.29 1.7
      vertex -6.45 2.58 1.7
    endloop
  endfacet
  facet normal -1 0 0
    outer loop
      vertex -6.45 6.45 0
      vertex -6.45 -1.29 1.7
      vertex -6.45 1.29 1.7
    endloop
  endfacet
  facet normal -1 0 0
    outer loop
      vertex -6.45 -2.58 3.3
      vertex -6.45 -1.29 3.3
      vertex -6.45 -1.29 1.7
    endloop
  endfacet
  facet normal -1 0 0
    outer loop
      vertex -6.45 -1.29 3.3
      vertex -6.45 -2.58 3.3
      vertex -6.45 -1.29 4.7
    endloop
  endfacet
  facet normal -1 0 0
    outer loop
      vertex -6.45 -2.58 3.3
      vertex -6.45 -1.29 1.7
      vertex -6.45 -2.58 1.7
    endloop
  endfacet
  facet normal -1 0 0
    outer loop
      vertex -6.45 -6.45 0
      vertex -6.45 -1.29 1.7
      vertex -6.45 6.45 0
    endloop
  endfacet
  facet normal -1 -0 0
    outer loop
      vertex -6.45 -1.29 1.7
      vertex -6.45 -6.45 0
      vertex -6.45 -2.58 1.7
    endloop
  endfacet
  facet normal -1 0 0
    outer loop
      vertex -6.45 -6.45 0
      vertex -6.45 -5.16 3.3
      vertex -6.45 -5.16 1.7
    endloop
  endfacet
  facet normal -1 -0 0
    outer loop
      vertex -6.45 -5.16 3.3
      vertex -6.45 -6.45 0
      vertex -6.45 -5.16 4.7
    endloop
  endfacet
  facet normal -1 0 0
    outer loop
      vertex -6.45 -6.45 8
      vertex -6.45 -5.16 4.7
      vertex -6.45 -6.45 0
    endloop
  endfacet
  facet normal -1 -0 0
    outer loop
      vertex -6.45 -2.58 1.7
      vertex -6.45 -6.45 0
      vertex -6.45 -5.16 1.7
    endloop
  endfacet
  facet normal -1 0 0
    outer loop
      vertex -6.45 6.45 0
      vertex -6.45 5.16 3.3
      vertex -6.45 6.45 8
    endloop
  endfacet
  facet normal -1 0 0
    outer loop
      vertex -6.45 5.16 4.7
      vertex -6.45 6.45 8
      vertex -6.45 5.16 3.3
    endloop
  endfacet
  facet normal -1 0 0
    outer loop
      vertex -6.45 5.16 6.3
      vertex -6.45 6.45 8
      vertex -6.45 5.16 4.7
    endloop
  endfacet
  facet normal -1 0 0
    outer loop
      vertex -6.45 2.58 6.3
      vertex -6.45 6.45 8
      vertex -6.45 5.16 6.3
    endloop
  endfacet
  facet normal -1 0 0
    outer loop
      vertex -6.45 1.29 4.7
      vertex -6.45 2.58 4.7
      vertex -6.45 1.29 3.3
    endloop
  endfacet
  facet normal -1 0 0
    outer loop
      vertex -6.45 2.58 4.7
      vertex -6.45 1.29 4.7
      vertex -6.45 2.58 6.3
    endloop
  endfacet
  facet normal -1 0 0
    outer loop
      vertex -6.45 1.29 6.3
      vertex -6.45 2.58 6.3
      vertex -6.45 1.29 4.7
    endloop
  endfacet
  facet normal -1 0 0
    outer loop
      vertex -6.45 1.29 6.3
      vertex -6.45 6.45 8
      vertex -6.45 2.58 6.3
    endloop
  endfacet
  facet normal -1 0 0
    outer loop
      vertex -6.45 -1.29 6.3
      vertex -6.45 6.45 8
      vertex -6.45 1.29 6.3
    endloop
  endfacet
  facet normal -1 0 0
    outer loop
      vertex -6.45 -2.58 4.7
      vertex -6.45 -1.29 4.7
      vertex -6.45 -2.58 3.3
    endloop
  endfacet
  facet normal -1 0 0
    outer loop
      vertex -6.45 -1.29 4.7
      vertex -6.45 -2.58 4.7
      vertex -6.45 -1.29 6.3
    endloop
  endfacet
  facet normal -1 0 0
    outer loop
      vertex -6.45 -2.58 6.3
      vertex -6.45 -1.29 6.3
      vertex -6.45 -2.58 4.7
    endloop
  endfacet
  facet normal -1 0 0
    outer loop
      vertex -6.45 -6.45 8
      vertex -6.45 -1.29 6.3
      vertex -6.45 -2.58 6.3
    endloop
  endfacet
  facet normal -1 0 0
    outer loop
      vertex -6.45 -6.45 8
      vertex -6.45 -2.58 6.3
      vertex -6.45 -5.16 6.3
    endloop
  endfacet
  facet normal -1 0 0
    outer loop
      vertex -6.45 -1.29 6.3
      vertex -6.45 -6.45 8
      vertex -6.45 6.45 8
    endloop
  endfacet
  facet normal -1 0 0
    outer loop
      vertex -6.45 -5.16 4.7
      vertex -6.45 -6.45 8
      vertex -6.45 -5.16 6.3
    endloop
  endfacet
  facet normal 0 1 -0
    outer loop
      vertex -1.29 6.45 1.7
      vertex -2.58 6.45 3.3
      vertex -1.29 6.45 3.3
    endloop
  endfacet
  facet normal 0 1 0
    outer loop
      vertex -2.58 6.45 3.3
      vertex -1.29 6.45 1.7
      vertex -2.58 6.45 1.7
    endloop
  endfacet
  facet normal 0 1 -0
    outer loop
      vertex 2.58 6.45 1.7
      vertex 1.29 6.45 3.3
      vertex 2.58 6.45 3.3
    endloop
  endfacet
  facet normal 0 1 0
    outer loop
      vertex 1.29 6.45 3.3
      vertex 2.58 6.45 1.7
      vertex 1.29 6.45 1.7
    endloop
  endfacet
  facet normal 0 1 -0
    outer loop
      vertex -1.29 6.45 4.7
      vertex -2.58 6.45 6.3
      vertex -1.29 6.45 6.3
    endloop
  endfacet
  facet normal 0 1 0
    outer loop
      vertex -2.58 6.45 6.3
      vertex -1.29 6.45 4.7
      vertex -2.58 6.45 4.7
    endloop
  endfacet
  facet normal 0 1 -0
    outer loop
      vertex 2.58 6.45 4.7
      vertex 1.29 6.45 6.3
      vertex 2.58 6.45 6.3
    endloop
  endfacet
  facet normal 0 1 0
    outer loop
      vertex 1.29 6.45 6.3
      vertex 2.58 6.45 4.7
      vertex 1.29 6.45 4.7
    endloop
  endfacet
  facet normal 0 1 0
    outer loop
      vertex 2.58 6.45 6.3
      vertex 6.45 6.45 8
      vertex 5.16 6.45 6.3
    endloop
  endfacet
  facet normal 0 1 0
    outer loop
      vertex 6.45 6.45 8
      vertex 5.16 6.45 4.7
      vertex 5.16 6.45 6.3
    endloop
  endfacet
  facet normal 0 1 0
    outer loop
      vertex 2.58 6.45 3.3
      vertex 2.58 6.45 4.7
      vertex 5.16 6.45 4.7
    endloop
  endfacet
  facet normal 0 1 0
    outer loop
      vertex 2.58 6.45 4.7
      vertex 2.58 6.45 3.3
      vertex 1.29 6.45 4.7
    endloop
  endfacet
  facet normal 0 1 0
    outer loop
      vertex 1.29 6.45 4.7
      vertex 1.29 6.45 3.3
      vertex -1.29 6.45 4.7
    endloop
  endfacet
  facet normal 0 1 0
    outer loop
      vertex -1.29 6.45 3.3
      vertex -1.29 6.45 4.7
      vertex 1.29 6.45 3.3
    endloop
  endfacet
  facet normal 0 1 0
    outer loop
      vertex 2.58 6.45 3.3
      vertex 5.16 6.45 4.7
      vertex 5.16 6.45 3.3
    endloop
  endfacet
  facet normal 0 1 0
    outer loop
      vertex 6.45 6.45 8
      vertex 5.16 6.45 3.3
      vertex 5.16 6.45 4.7
    endloop
  endfacet
  facet normal 0 1 -0
    outer loop
      vertex 6.45 6.45 0
      vertex 5.16 6.45 3.3
      vertex 6.45 6.45 8
    endloop
  endfacet
  facet normal 0 1 0
    outer loop
      vertex 6.45 6.45 0
      vertex 2.58 6.45 1.7
      vertex 5.16 6.45 1.7
    endloop
  endfacet
  facet normal 0 1 0
    outer loop
      vertex 2.58 6.45 1.7
      vertex 6.45 6.45 0
      vertex 1.29 6.45 1.7
    endloop
  endfacet
  facet normal 0 1 0
    outer loop
      vertex 1.29 6.45 1.7
      vertex 6.45 6.45 0
      vertex -1.29 6.45 1.7
    endloop
  endfacet
  facet normal 0 1 0
    outer loop
      vertex -6.45 6.45 0
      vertex -1.29 6.45 1.7
      vertex 6.45 6.45 0
    endloop
  endfacet
  facet normal 0 1 0
    outer loop
      vertex -1.29 6.45 1.7
      vertex -6.45 6.45 0
      vertex -2.58 6.45 1.7
    endloop
  endfacet
  facet normal 0 1 0
    outer loop
      vertex 5.16 6.45 3.3
      vertex 6.45 6.45 0
      vertex 5.16 6.45 1.7
    endloop
  endfacet
  facet normal 0 1 0
    outer loop
      vertex 1.29 6.45 6.3
      vertex 6.45 6.45 8
      vertex 2.58 6.45 6.3
    endloop
  endfacet
  facet normal 0 1 0
    outer loop
      vertex 6.45 6.45 8
      vertex 1.29 6.45 6.3
      vertex -6.45 6.45 8
    endloop
  endfacet
  facet normal 0 1 -0
    outer loop
      vertex -1.29 6.45 6.3
      vertex -6.45 6.45 8
      vertex 1.29 6.45 6.3
    endloop
  endfacet
  facet normal 0 1 -0
    outer loop
      vertex -2.58 6.45 6.3
      vertex -6.45 6.45 8
      vertex -1.29 6.45 6.3
    endloop
  endfacet
  facet normal 0 1 -0
    outer loop
      vertex -5.16 6.45 6.3
      vertex -6.45 6.45 8
      vertex -2.58 6.45 6.3
    endloop
  endfacet
  facet normal 0 1 -0
    outer loop
      vertex -5.16 6.45 4.7
      vertex -6.45 6.45 8
      vertex -5.16 6.45 6.3
    endloop
  endfacet
  facet normal 0 1 0
    outer loop
      vertex 1.29 6.45 4.7
      vertex 2.58 6.45 3.3
      vertex 1.29 6.45 3.3
    endloop
  endfacet
  facet normal 0 1 0
    outer loop
      vertex -1.29 6.45 4.7
      vertex -1.29 6.45 3.3
      vertex -2.58 6.45 4.7
    endloop
  endfacet
  facet normal 0 1 0
    outer loop
      vertex -2.58 6.45 3.3
      vertex -2.58 6.45 4.7
      vertex -1.29 6.45 3.3
    endloop
  endfacet
  facet normal 0 1 0
    outer loop
      vertex -2.58 6.45 4.7
      vertex -2.58 6.45 3.3
      vertex -5.16 6.45 4.7
    endloop
  endfacet
  facet normal 0 1 0
    outer loop
      vertex -5.16 6.45 3.3
      vertex -5.16 6.45 4.7
      vertex -2.58 6.45 3.3
    endloop
  endfacet
  facet normal 0 1 -0
    outer loop
      vertex -5.16 6.45 3.3
      vertex -6.45 6.45 8
      vertex -5.16 6.45 4.7
    endloop
  endfacet
  facet normal 0 1 0
    outer loop
      vertex -6.45 6.45 0
      vertex -5.16 6.45 3.3
      vertex -5.16 6.45 1.7
    endloop
  endfacet
  facet normal 0 1 0
    outer loop
      vertex -5.16 6.45 3.3
      vertex -6.45 6.45 0
      vertex -6.45 6.45 8
    endloop
  endfacet
  facet normal 0 1 0
    outer loop
      vertex -2.58 6.45 1.7
      vertex -6.45 6.45 0
      vertex -5.16 6.45 1.7
    endloop
  endfacet
  facet normal 0 -1 0
    outer loop
      vertex 1.29 -6.45 1.7
      vertex 2.58 -6.45 3.3
      vertex 1.29 -6.45 3.3
    endloop
  endfacet
  facet normal 0 -1 -0
    outer loop
      vertex 2.58 -6.45 3.3
      vertex 1.29 -6.45 1.7
      vertex 2.58 -6.45 1.7
    endloop
  endfacet
  facet normal 0 -1 0
    outer loop
      vertex -2.58 -6.45 1.7
      vertex -1.29 -6.45 3.3
      vertex -2.58 -6.45 3.3
    endloop
  endfacet
  facet normal 0 -1 -0
    outer loop
      vertex -1.29 -6.45 3.3
      vertex -2.58 -6.45 1.7
      vertex -1.29 -6.45 1.7
    endloop
  endfacet
  facet normal 0 -1 0
    outer loop
      vertex 1.29 -6.45 4.7
      vertex 2.58 -6.45 6.3
      vertex 1.29 -6.45 6.3
    endloop
  endfacet
  facet normal 0 -1 -0
    outer loop
      vertex 2.58 -6.45 6.3
      vertex 1.29 -6.45 4.7
      vertex 2.58 -6.45 4.7
    endloop
  endfacet
  facet normal 0 -1 0
    outer loop
      vertex -2.58 -6.45 4.7
      vertex -1.29 -6.45 6.3
      vertex -2.58 -6.45 6.3
    endloop
  endfacet
  facet normal 0 -1 -0
    outer loop
      vertex -1.29 -6.45 6.3
      vertex -2.58 -6.45 4.7
      vertex -1.29 -6.45 4.7
    endloop
  endfacet
  facet normal 0 -1 0
    outer loop
      vertex -2.58 -6.45 6.3
      vertex -6.45 -6.45 8
      vertex -5.16 -6.45 6.3
    endloop
  endfacet
  facet normal 0 -1 0
    outer loop
      vertex -6.45 -6.45 8
      vertex -5.16 -6.45 4.7
      vertex -5.16 -6.45 6.3
    endloop
  endfacet
  facet normal 0 -1 0
    outer loop
      vertex -2.58 -6.45 3.3
      vertex -2.58 -6.45 4.7
      vertex -5.16 -6.45 4.7
    endloop
  endfacet
  facet normal 0 -1 0
    outer loop
      vertex -2.58 -6.45 4.7
      vertex -2.58 -6.45 3.3
      vertex -1.29 -6.45 4.7
    endloop
  endfacet
  facet normal 0 -1 0
    outer loop
      vertex -1.29 -6.45 4.7
      vertex -1.29 -6.45 3.3
      vertex 1.29 -6.45 4.7
    endloop
  endfacet
  facet normal 0 -1 0
    outer loop
      vertex 1.29 -6.45 3.3
      vertex 1.29 -6.45 4.7
      vertex -1.29 -6.45 3.3
    endloop
  endfacet
  facet normal 0 -1 0
    outer loop
      vertex -2.58 -6.45 3.3
      vertex -5.16 -6.45 4.7
      vertex -5.16 -6.45 3.3
    endloop
  endfacet
  facet normal 0 -1 0
    outer loop
      vertex -6.45 -6.45 8
      vertex -5.16 -6.45 3.3
      vertex -5.16 -6.45 4.7
    endloop
  endfacet
  facet normal 0 -1 0
    outer loop
      vertex -6.45 -6.45 0
      vertex -5.16 -6.45 3.3
      vertex -6.45 -6.45 8
    endloop
  endfacet
  facet normal 0 -1 0
    outer loop
      vertex -6.45 -6.45 0
      vertex -2.58 -6.45 1.7
      vertex -5.16 -6.45 1.7
    endloop
  endfacet
  facet normal 0 -1 -0
    outer loop
      vertex -2.58 -6.45 1.7
      vertex -6.45 -6.45 0
      vertex -1.29 -6.45 1.7
    endloop
  endfacet
  facet normal 0 -1 -0
    outer loop
      vertex -1.29 -6.45 1.7
      vertex -6.45 -6.45 0
      vertex 1.29 -6.45 1.7
    endloop
  endfacet
  facet normal 0 -1 0
    outer loop
      vertex 6.45 -6.45 0
      vertex 1.29 -6.45 1.7
      vertex -6.45 -6.45 0
    endloop
  endfacet
  facet normal 0 -1 0
    outer loop
      vertex 1.29 -6.45 1.7
      vertex 6.45 -6.45 0
      vertex 2.58 -6.45 1.7
    endloop
  endfacet
  facet normal 0 -1 -0
    outer loop
      vertex -5.16 -6.45 3.3
      vertex -6.45 -6.45 0
      vertex -5.16 -6.45 1.7
    endloop
  endfacet
  facet normal 0 -1 0
    outer loop
      vertex -1.29 -6.45 6.3
      vertex -6.45 -6.45 8
      vertex -2.58 -6.45 6.3
    endloop
  endfacet
  facet normal 0 -1 0
    outer loop
      vertex -6.45 -6.45 8
      vertex -1.29 -6.45 6.3
      vertex 6.45 -6.45 8
    endloop
  endfacet
  facet normal 0 -1 0
    outer loop
      vertex 1.29 -6.45 6.3
      vertex 6.45 -6.45 8
      vertex -1.29 -6.45 6.3
    endloop
  endfacet
  facet normal 0 -1 0
    outer loop
      vertex 2.58 -6.45 6.3
      vertex 6.45 -6.45 8
      vertex 1.29 -6.45 6.3
    endloop
  endfacet
  facet normal 0 -1 0
    outer loop
      vertex 5.16 -6.45 6.3
      vertex 6.45 -6.45 8
      vertex 2.58 -6.45 6.3
    endloop
  endfacet
  facet normal 0 -1 0
    outer loop
      vertex 5.16 -6.45 4.7
      vertex 6.45 -6.45 8
      vertex 5.16 -6.45 6.3
    endloop
  endfacet
  facet normal 0 -1 -0
    outer loop
      vertex -1.29 -6.45 4.7
      vertex -2.58 -6.45 3.3
      vertex -1.29 -6.45 3.3
    endloop
  endfacet
  facet normal 0 -1 0
    outer loop
      vertex 1.29 -6.45 4.7
      vertex 1.29 -6.45 3.3
      vertex 2.58 -6.45 4.7
    endloop
  endfacet
  facet normal 0 -1 0
    outer loop
      vertex 2.58 -6.45 3.3
      vertex 2.58 -6.45 4.7
      vertex 1.29 -6.45 3.3
    endloop
  endfacet
  facet normal 0 -1 0
    outer loop
      vertex 2.58 -6.45 4.7
      vertex 2.58 -6.45 3.3
      vertex 5.16 -6.45 4.7
    endloop
  endfacet
  facet normal 0 -1 0
    outer loop
      vertex 5.16 -6.45 3.3
      vertex 5.16 -6.45 4.7
      vertex 2.58 -6.45 3.3
    endloop
  endfacet
  facet normal 0 -1 0
    outer loop
      vertex 5.16 -6.45 3.3
      vertex 6.45 -6.45 8
      vertex 5.16 -6.45 4.7
    endloop
  endfacet
  facet normal 0 -1 0
    outer loop
      vertex 6.45 -6.45 0
      vertex 5.16 -6.45 3.3
      vertex 5.16 -6.45 1.7
    endloop
  endfacet
  facet normal 0 -1 0
    outer loop
      vertex 5.16 -6.45 3.3
      vertex 6.45 -6.45 0
      vertex 6.45 -6.45 8
    endloop
  endfacet
  facet normal 0 -1 0
    outer loop
      vertex 2.58 -6.45 1.7
      vertex 6.45 -6.45 0
      vertex 5.16 -6.45 1.7
    endloop
  endfacet
  facet normal 0 0 -1
    outer loop
      vertex -6.45 2.58 3.3
      vertex -5.805 5.16 3.3
      vertex -5.805 2.58 3.3
    endloop
  endfacet
  facet normal -0 0 -1
    outer loop
      vertex -5.805 5.16 3.3
      vertex -6.45 2.58 3.3
      vertex -6.45 5.16 3.3
    endloop
  endfacet
  facet normal 0 0 -1
    outer loop
      vertex -6.45 -5.16 3.3
      vertex -5.805 -2.58 3.3
      vertex -5.805 -5.16 3.3
    endloop
  endfacet
  facet normal -0 0 -1
    outer loop
      vertex -5.805 -2.58 3.3
      vertex -6.45 -5.16 3.3
      vertex -6.45 -2.58 3.3
    endloop
  endfacet
  facet normal 0 0 -1
    outer loop
      vertex -6.45 -1.29 3.3
      vertex -5.805 1.29 3.3
      vertex -5.805 -1.29 3.3
    endloop
  endfacet
  facet normal -0 0 -1
    outer loop
      vertex -5.805 1.29 3.3
      vertex -6.45 -1.29 3.3
      vertex -6.45 1.29 3.3
    endloop
  endfacet
  facet normal 0 0 -1
    outer loop
      vertex -5.16 5.805 3.3
      vertex -2.58 6.45 3.3
      vertex -2.58 5.805 3.3
    endloop
  endfacet
  facet normal -0 0 -1
    outer loop
      vertex -2.58 6.45 3.3
      vertex -5.16 5.805 3.3
      vertex -5.16 6.45 3.3
    endloop
  endfacet
  facet normal 0 0 -1
    outer loop
      vertex -1.29 5.805 3.3
      vertex 1.29 6.45 3.3
      vertex 1.29 5.805 3.3
    endloop
  endfacet
  facet normal -0 0 -1
    outer loop
      vertex 1.29 6.45 3.3
      vertex -1.29 5.805 3.3
      vertex -1.29 6.45 3.3
    endloop
  endfacet
  facet normal 0 0 -1
    outer loop
      vertex 2.58 5.805 3.3
      vertex 5.16 6.45 3.3
      vertex 5.16 5.805 3.3
    endloop
  endfacet
  facet normal -0 0 -1
    outer loop
      vertex 5.16 6.45 3.3
      vertex 2.58 5.805 3.3
      vertex 2.58 6.45 3.3
    endloop
  endfacet
  facet normal 0 0 -1
    outer loop
      vertex -5.16 -6.45 3.3
      vertex -2.58 -5.805 3.3
      vertex -2.58 -6.45 3.3
    endloop
  endfacet
  facet normal -0 0 -1
    outer loop
      vertex -2.58 -5.805 3.3
      vertex -5.16 -6.45 3.3
      vertex -5.16 -5.805 3.3
    endloop
  endfacet
  facet normal 0 0 -1
    outer loop
      vertex -1.29 -6.45 3.3
      vertex 1.29 -5.805 3.3
      vertex 1.29 -6.45 3.3
    endloop
  endfacet
  facet normal -0 0 -1
    outer loop
      vertex 1.29 -5.805 3.3
      vertex -1.29 -6.45 3.3
      vertex -1.29 -5.805 3.3
    endloop
  endfacet
  facet normal 0 0 -1
    outer loop
      vertex 2.58 -6.45 3.3
      vertex 5.16 -5.805 3.3
      vertex 5.16 -6.45 3.3
    endloop
  endfacet
  facet normal -0 0 -1
    outer loop
      vertex 5.16 -5.805 3.3
      vertex 2.58 -6.45 3.3
      vertex 2.58 -5.805 3.3
    endloop
  endfacet
  facet normal 0 0 -1
    outer loop
      vertex 5.805 2.58 3.3
      vertex 6.45 5.16 3.3
      vertex 6.45 2.58 3.3
    endloop
  endfacet
  facet normal -0 0 -1
    outer loop
      vertex 6.45 5.16 3.3
      vertex 5.805 2.58 3.3
      vertex 5.805 5.16 3.3
    endloop
  endfacet
  facet normal 0 0 -1
    outer loop
      vertex 5.805 -5.16 3.3
      vertex 6.45 -2.58 3.3
      vertex 6.45 -5.16 3.3
    endloop
  endfacet
  facet normal -0 0 -1
    outer loop
      vertex 6.45 -2.58 3.3
      vertex 5.805 -5.16 3.3
      vertex 5.805 -2.58 3.3
    endloop
  endfacet
  facet normal 0 0 -1
    outer loop
      vertex 5.805 -1.29 3.3
      vertex 6.45 1.29 3.3
      vertex 6.45 -1.29 3.3
    endloop
  endfacet
  facet normal -0 0 -1
    outer loop
      vertex 6.45 1.29 3.3
      vertex 5.805 -1.29 3.3
      vertex 5.805 1.29 3.3
    endloop
  endfacet
  facet normal -0 0 1
    outer loop
      vertex -6.45 5.16 1.7
      vertex -5.805 2.58 1.7
      vertex -5.805 5.16 1.7
    endloop
  endfacet
  facet normal 0 0 1
    outer loop
      vertex -5.805 2.58 1.7
      vertex -6.45 5.16 1.7
      vertex -6.45 2.58 1.7
    endloop
  endfacet
  facet normal -0 0 1
    outer loop
      vertex -6.45 -2.58 1.7
      vertex -5.805 -5.16 1.7
      vertex -5.805 -2.58 1.7
    endloop
  endfacet
  facet normal 0 0 1
    outer loop
      vertex -5.805 -5.16 1.7
      vertex -6.45 -2.58 1.7
      vertex -6.45 -5.16 1.7
    endloop
  endfacet
  facet normal -0 0 1
    outer loop
      vertex -6.45 1.29 1.7
      vertex -5.805 -1.29 1.7
      vertex -5.805 1.29 1.7
    endloop
  endfacet
  facet normal 0 0 1
    outer loop
      vertex -5.805 -1.29 1.7
      vertex -6.45 1.29 1.7
      vertex -6.45 -1.29 1.7
    endloop
  endfacet
  facet normal -0 0 1
    outer loop
      vertex -5.16 6.45 1.7
      vertex -2.58 5.805 1.7
      vertex -2.58 6.45 1.7
    endloop
  endfacet
  facet normal 0 0 1
    outer loop
      vertex -2.58 5.805 1.7
      vertex -5.16 6.45 1.7
      vertex -5.16 5.805 1.7
    endloop
  endfacet
  facet normal -0 0 1
    outer loop
      vertex -1.29 6.45 1.7
      vertex 1.29 5.805 1.7
      vertex 1.29 6.45 1.7
    endloop
  endfacet
  facet normal 0 0 1
    outer loop
      vertex 1.29 5.805 1.7
      vertex -1.29 6.45 1.7
      vertex -1.29 5.805 1.7
    endloop
  endfacet
  facet normal -0 0 1
    outer loop
      vertex 2.58 6.45 1.7
      vertex 5.16 5.805 1.7
      vertex 5.16 6.45 1.7
    endloop
  endfacet
  facet normal 0 0 1
    outer loop
      vertex 5.16 5.805 1.7
      vertex 2.58 6.45 1.7
      vertex 2.58 5.805 1.7
    endloop
  endfacet
  facet normal -0 0 1
    outer loop
      vertex -5.16 -5.805 1.7
      vertex -2.58 -6.45 1.7
      vertex -2.58 -5.805 1.7
    endloop
  endfacet
  facet normal 0 0 1
    outer loop
      vertex -2.58 -6.45 1.7
      vertex -5.16 -5.805 1.7
      vertex -5.16 -6.45 1.7
    endloop
  endfacet
  facet normal -0 0 1
    outer loop
      vertex -1.29 -5.805 1.7
      vertex 1.29 -6.45 1.7
      vertex 1.29 -5.805 1.7
    endloop
  endfacet
  facet normal 0 0 1
    outer loop
      vertex 1.29 -6.45 1.7
      vertex -1.29 -5.805 1.7
      vertex -1.29 -6.45 1.7
    endloop
  endfacet
  facet normal -0 0 1
    outer loop
      vertex 2.58 -5.805 1.7
      vertex 5.16 -6.45 1.7
      vertex 5.16 -5.805 1.7
    endloop
  endfacet
  facet normal 0 0 1
    outer loop
      vertex 5.16 -6.45 1.7
      vertex 2.58 -5.805 1.7
      vertex 2.58 -6.45 1.7
    endloop
  endfacet
  facet normal -0 0 1
    outer loop
      vertex 5.805 5.16 1.7
      vertex 6.45 2.58 1.7
      vertex 6.45 5.16 1.7
    endloop
  endfacet
  facet normal 0 0 1
    outer loop
      vertex 6.45 2.58 1.7
      vertex 5.805 5.16 1.7
      vertex 5.805 2.58 1.7
    endloop
  endfacet
  facet normal -0 0 1
    outer loop
      vertex 5.805 -2.58 1.7
      vertex 6.45 -5.16 1.7
      vertex 6.45 -2.58 1.7
    endloop
  endfacet
  facet normal 0 0 1
    outer loop
      vertex 6.45 -5.16 1.7
      vertex 5.805 -2.58 1.7
      vertex 5.805 -5.16 1.7
    endloop
  endfacet
  facet normal -0 0 1
    outer loop
      vertex 5.805 1.29 1.7
      vertex 6.45 -1.29 1.7
      vertex 6.45 1.29 1.7
    endloop
  endfacet
  facet normal 0 0 1
    outer loop
      vertex 6.45 -1.29 1.7
      vertex 5.805 1.29 1.7
      vertex 5.805 -1.29 1.7
    endloop
  endfacet
  facet normal 0 -1 0
    outer loop
      vertex -6.45 -2.58 1.7
      vertex -5.805 -2.58 3.3
      vertex -6.45 -2.58 3.3
    endloop
  endfacet
  facet normal 0 -1 -0
    outer loop
      vertex -5.805 -2.58 3.3
      vertex -6.45 -2.58 1.7
      vertex -5.805 -2.58 1.7
    endloop
  endfacet
  facet normal 0 -1 0
    outer loop
      vertex 5.805 -2.58 1.7
      vertex 6.45 -2.58 3.3
      vertex 5.805 -2.58 3.3
    endloop
  endfacet
  facet normal 0 -1 -0
    outer loop
      vertex 6.45 -2.58 3.3
      vertex 5.805 -2.58 1.7
      vertex 6.45 -2.58 1.7
    endloop
  endfacet
  facet normal 0 1 -0
    outer loop
      vertex -5.805 -5.16 1.7
      vertex -6.45 -5.16 3.3
      vertex -5.805 -5.16 3.3
    endloop
  endfacet
  facet normal 0 1 0
    outer loop
      vertex -6.45 -5.16 3.3
      vertex -5.805 -5.16 1.7
      vertex -6.45 -5.16 1.7
    endloop
  endfacet
  facet normal 0 1 -0
    outer loop
      vertex 6.45 -5.16 1.7
      vertex 5.805 -5.16 3.3
      vertex 6.45 -5.16 3.3
    endloop
  endfacet
  facet normal 0 1 0
    outer loop
      vertex 5.805 -5.16 3.3
      vertex 6.45 -5.16 1.7
      vertex 5.805 -5.16 1.7
    endloop
  endfacet
  facet normal 0 -1 0
    outer loop
      vertex -6.45 1.29 1.7
      vertex -5.805 1.29 3.3
      vertex -6.45 1.29 3.3
    endloop
  endfacet
  facet normal 0 -1 -0
    outer loop
      vertex -5.805 1.29 3.3
      vertex -6.45 1.29 1.7
      vertex -5.805 1.29 1.7
    endloop
  endfacet
  facet normal 0 -1 0
    outer loop
      vertex 5.805 1.29 1.7
      vertex 6.45 1.29 3.3
      vertex 5.805 1.29 3.3
    endloop
  endfacet
  facet normal 0 -1 -0
    outer loop
      vertex 6.45 1.29 3.3
      vertex 5.805 1.29 1.7
      vertex 6.45 1.29 1.7
    endloop
  endfacet
  facet normal 0 1 -0
    outer loop
      vertex -5.805 -1.29 1.7
      vertex -6.45 -1.29 3.3
      vertex -5.805 -1.29 3.3
    endloop
  endfacet
  facet normal 0 1 0
    outer loop
      vertex -6.45 -1.29 3.3
      vertex -5.805 -1.29 1.7
      vertex -6.45 -1.29 1.7
    endloop
  endfacet
  facet normal 0 1 -0
    outer loop
      vertex 6.45 -1.29 1.7
      vertex 5.805 -1.29 3.3
      vertex 6.45 -1.29 3.3
    endloop
  endfacet
  facet normal 0 1 0
    outer loop
      vertex 5.805 -1.29 3.3
      vertex 6.45 -1.29 1.7
      vertex 5.805 -1.29 1.7
    endloop
  endfacet
  facet normal 0 -1 0
    outer loop
      vertex -6.45 5.16 1.7
      vertex -5.805 5.16 3.3
      vertex -6.45 5.16 3.3
    endloop
  endfacet
  facet normal 0 -1 -0
    outer loop
      vertex -5.805 5.16 3.3
      vertex -6.45 5.16 1.7
      vertex -5.805 5.16 1.7
    endloop
  endfacet
  facet normal 0 -1 0
    outer loop
      vertex 5.805 5.16 1.7
      vertex 6.45 5.16 3.3
      vertex 5.805 5.16 3.3
    endloop
  endfacet
  facet normal 0 -1 -0
    outer loop
      vertex 6.45 5.16 3.3
      vertex 5.805 5.16 1.7
      vertex 6.45 5.16 1.7
    endloop
  endfacet
  facet normal 0 1 -0
    outer loop
      vertex -5.805 2.58 1.7
      vertex -6.45 2.58 3.3
      vertex -5.805 2.58 3.3
    endloop
  endfacet
  facet normal 0 1 0
    outer loop
      vertex -6.45 2.58 3.3
      vertex -5.805 2.58 1.7
      vertex -6.45 2.58 1.7
    endloop
  endfacet
  facet normal 0 1 -0
    outer loop
      vertex 6.45 2.58 1.7
      vertex 5.805 2.58 3.3
      vertex 6.45 2.58 3.3
    endloop
  endfacet
  facet normal 0 1 0
    outer loop
      vertex 5.805 2.58 3.3
      vertex 6.45 2.58 1.7
      vertex 5.805 2.58 1.7
    endloop
  endfacet
  facet normal 0 0 -1
    outer loop
      vertex -6.45 2.58 6.3
      vertex -5.805 5.16 6.3
      vertex -5.805 2.58 6.3
    endloop
  endfacet
  facet normal -0 0 -1
    outer loop
      vertex -5.805 5.16 6.3
      vertex -6.45 2.58 6.3
      vertex -6.45 5.16 6.3
    endloop
  endfacet
  facet normal 0 0 -1
    outer loop
      vertex -6.45 -5.16 6.3
      vertex -5.805 -2.58 6.3
      vertex -5.805 -5.16 6.3
    endloop
  endfacet
  facet normal -0 0 -1
    outer loop
      vertex -5.805 -2.58 6.3
      vertex -6.45 -5.16 6.3
      vertex -6.45 -2.58 6.3
    endloop
  endfacet
  facet normal 0 0 -1
    outer loop
      vertex -6.45 -1.29 6.3
      vertex -5.805 1.29 6.3
      vertex -5.805 -1.29 6.3
    endloop
  endfacet
  facet normal -0 0 -1
    outer loop
      vertex -5.805 1.29 6.3
      vertex -6.45 -1.29 6.3
      vertex -6.45 1.29 6.3
    endloop
  endfacet
  facet normal 0 0 -1
    outer loop
      vertex -5.16 5.805 6.3
      vertex -2.58 6.45 6.3
      vertex -2.58 5.805 6.3
    endloop
  endfacet
  facet normal -0 0 -1
    outer loop
      vertex -2.58 6.45 6.3
      vertex -5.16 5.805 6.3
      vertex -5.16 6.45 6.3
    endloop
  endfacet
  facet normal 0 0 -1
    outer loop
      vertex -1.29 5.805 6.3
      vertex 1.29 6.45 6.3
      vertex 1.29 5.805 6.3
    endloop
  endfacet
  facet normal -0 0 -1
    outer loop
      vertex 1.29 6.45 6.3
      vertex -1.29 5.805 6.3
      vertex -1.29 6.45 6.3
    endloop
  endfacet
  facet normal 0 0 -1
    outer loop
      vertex 2.58 5.805 6.3
      vertex 5.16 6.45 6.3
      vertex 5.16 5.805 6.3
    endloop
  endfacet
  facet normal -0 0 -1
    outer loop
      vertex 5.16 6.45 6.3
      vertex 2.58 5.805 6.3
      vertex 2.58 6.45 6.3
    endloop
  endfacet
  facet normal 0 0 -1
    outer loop
      vertex -5.16 -6.45 6.3
      vertex -2.58 -5.805 6.3
      vertex -2.58 -6.45 6.3
    endloop
  endfacet
  facet normal -0 0 -1
    outer loop
      vertex -2.58 -5.805 6.3
      vertex -5.16 -6.45 6.3
      vertex -5.16 -5.805 6.3
    endloop
  endfacet
  facet normal 0 0 -1
    outer loop
      vertex -1.29 -6.45 6.3
      vertex 1.29 -5.805 6.3
      vertex 1.29 -6.45 6.3
    endloop
  endfacet
  facet normal -0 0 -1
    outer loop
      vertex 1.29 -5.805 6.3
      vertex -1.29 -6.45 6.3
      vertex -1.29 -5.805 6.3
    endloop
  endfacet
  facet normal 0 0 -1
    outer loop
      vertex 2.58 -6.45 6.3
      vertex 5.16 -5.805 6.3
      vertex 5.16 -6.45 6.3
    endloop
  endfacet
  facet normal -0 0 -1
    outer loop
      vertex 5.16 -5.805 6.3
      vertex 2.58 -6.45 6.3
      vertex 2.58 -5.805 6.3
    endloop
  endfacet
  facet normal 0 0 -1
    outer loop
      vertex 5.805 2.58 6.3
      vertex 6.45 5.16 6.3
      vertex 6.45 2.58 6.3
    endloop
  endfacet
  facet normal -0 0 -1
    outer loop
      vertex 6.45 5.16 6.3
      vertex 5.805 2.58 6.3
      vertex 5.805 5.16 6.3
    endloop
  endfacet
  facet normal 0 0 -1
    outer loop
      vertex 5.805 -5.16 6.3
      vertex 6.45 -2.58 6.3
      vertex 6.45 -5.16 6.3
    endloop
  endfacet
  facet normal -0 0 -1
    outer loop
      vertex 6.45 -2.58 6.3
      vertex 5.805 -5.16 6.3
      vertex 5.805 -2.58 6.3
    endloop
  endfacet
  facet normal 0 0 -1
    outer loop
      vertex 5.805 -1.29 6.3
      vertex 6.45 1.29 6.3
      vertex 6.45 -1.29 6.3
    endloop
  endfacet
  facet normal -0 0 -1
    outer loop
      vertex 6.45 1.29 6.3
      vertex 5.805 -1.29 6.3
      vertex 5.805 1.29 6.3
    endloop
  endfacet
  facet normal -0 0 1
    outer loop
      vertex -6.45 5.16 4.7
      vertex -5.805 2.58 4.7
      vertex -5.805 5.16 4.7
    endloop
  endfacet
  facet normal 0 0 1
    outer loop
      vertex -5.805 2.58 4.7
      vertex -6.45 5.16 4.7
      vertex -6.45 2.58 4.7
    endloop
  endfacet
  facet normal -0 0 1
    outer loop
      vertex -6.45 -2.58 4.7
      vertex -5.805 -5.16 4.7
      vertex -5.805 -2.58 4.7
    endloop
  endfacet
  facet normal 0 0 1
    outer loop
      vertex -5.805 -5.16 4.7
      vertex -6.45 -2.58 4.7
      vertex -6.45 -5.16 4.7
    endloop
  endfacet
  facet normal -0 0 1
    outer loop
      vertex -6.45 1.29 4.7
      vertex -5.805 -1.29 4.7
      vertex -5.805 1.29 4.7
    endloop
  endfacet
  facet normal 0 0 1
    outer loop
      vertex -5.805 -1.29 4.7
      vertex -6.45 1.29 4.7
      vertex -6.45 -1.29 4.7
    endloop
  endfacet
  facet normal -0 0 1
    outer loop
      vertex -5.16 6.45 4.7
      vertex -2.58 5.805 4.7
      vertex -2.58 6.45 4.7
    endloop
  endfacet
  facet normal 0 0 1
    outer loop
      vertex -2.58 5.805 4.7
      vertex -5.16 6.45 4.7
      vertex -5.16 5.805 4.7
    endloop
  endfacet
  facet normal -0 0 1
    outer loop
      vertex -1.29 6.45 4.7
      vertex 1.29 5.805 4.7
      vertex 1.29 6.45 4.7
    endloop
  endfacet
  facet normal 0 0 1
    outer loop
      vertex 1.29 5.805 4.7
      vertex -1.29 6.45 4.7
      vertex -1.29 5.805 4.7
    endloop
  endfacet
  facet normal -0 0 1
    outer loop
      vertex 2.58 6.45 4.7
      vertex 5.16 5.805 4.7
      vertex 5.16 6.45 4.7
    endloop
  endfacet
  facet normal 0 0 1
    outer loop
      vertex 5.16 5.805 4.7
      vertex 2.58 6.45 4.7
      vertex 2.58 5.805 4.7
    endloop
  endfacet
  facet normal -0 0 1
    outer loop
      vertex -5.16 -5.805 4.7
      vertex -2.58 -6.45 4.7
      vertex -2.58 -5.805 4.7
    endloop
  endfacet
  facet normal 0 0 1
    outer loop
      vertex -2.58 -6.45 4.7
      vertex -5.16 -5.805 4.7
      vertex -5.16 -6.45 4.7
    endloop
  endfacet
  facet normal -0 0 1
    outer loop
      vertex -1.29 -5.805 4.7
      vertex 1.29 -6.45 4.7
      vertex 1.29 -5.805 4.7
    endloop
  endfacet
  facet normal 0 0 1
    outer loop
      vertex 1.29 -6.45 4.7
      vertex -1.29 -5.805 4.7
      vertex -1.29 -6.45 4.7
    endloop
  endfacet
  facet normal -0 0 1
    outer loop
      vertex 2.58 -5.805 4.7
      vertex 5.16 -6.45 4.7
      vertex 5.16 -5.805 4.7
    endloop
  endfacet
  facet normal 0 0 1
    outer loop
      vertex 5.16 -6.45 4.7
      vertex 2.58 -5.805 4.7
      vertex 2.58 -6.45 4.7
    endloop
  endfacet
  facet normal -0 0 1
    outer loop
      vertex 5.805 5.16 4.7
      vertex 6.45 2.58 4.7
      vertex 6.45 5.16 4.7
    endloop
  endfacet
  facet normal 0 0 1
    outer loop
      vertex 6.45 2.58 4.7
      vertex 5.805 5.16 4.7
      vertex 5.805 2.58 4.7
    endloop
  endfacet
  facet normal -0 0 1
    outer loop
      vertex 5.805 -2.58 4.7
      vertex 6.45 -5.16 4.7
      vertex 6.45 -2.58 4.7
    endloop
  endfacet
  facet normal 0 0 1
    outer loop
      vertex 6.45 -5.16 4.7
      vertex 5.805 -2.58 4.7
      vertex 5.805 -5.16 4.7
    endloop
  endfacet
  facet normal -0 0 1
    outer loop
      vertex 5.805 1.29 4.7
      vertex 6.45 -1.29 4.7
      vertex 6.45 1.29 4.7
    endloop
  endfacet
  facet normal 0 0 1
    outer loop
      vertex 6.45 -1.29 4.7
      vertex 5.805 1.29 4.7
      vertex 5.805 -1.29 4.7
    endloop
  endfacet
  facet normal 0 -1 0
    outer loop
      vertex -6.45 -2.58 4.7
      vertex -5.805 -2.58 6.3
      vertex -6.45 -2.58 6.3
    endloop
  endfacet
  facet normal 0 -1 -0
    outer loop
      vertex -5.805 -2.58 6.3
      vertex -6.45 -2.58 4.7
      vertex -5.805 -2.58 4.7
    endloop
  endfacet
  facet normal 0 -1 0
    outer loop
      vertex 5.805 -2.58 4.7
      vertex 6.45 -2.58 6.3
      vertex 5.805 -2.58 6.3
    endloop
  endfacet
  facet normal 0 -1 -0
    outer loop
      vertex 6.45 -2.58 6.3
      vertex 5.805 -2.58 4.7
      vertex 6.45 -2.58 4.7
    endloop
  endfacet
  facet normal 0 1 -0
    outer loop
      vertex -5.805 -5.16 4.7
      vertex -6.45 -5.16 6.3
      vertex -5.805 -5.16 6.3
    endloop
  endfacet
  facet normal 0 1 0
    outer loop
      vertex -6.45 -5.16 6.3
      vertex -5.805 -5.16 4.7
      vertex -6.45 -5.16 4.7
    endloop
  endfacet
  facet normal 0 1 -0
    outer loop
      vertex 6.45 -5.16 4.7
      vertex 5.805 -5.16 6.3
      vertex 6.45 -5.16 6.3
    endloop
  endfacet
  facet normal 0 1 0
    outer loop
      vertex 5.805 -5.16 6.3
      vertex 6.45 -5.16 4.7
      vertex 5.805 -5.16 4.7
    endloop
  endfacet
  facet normal 0 -1 0
    outer loop
      vertex -6.45 1.29 4.7
      vertex -5.805 1.29 6.3
      vertex -6.45 1.29 6.3
    endloop
  endfacet
  facet normal 0 -1 -0
    outer loop
      vertex -5.805 1.29 6.3
      vertex -6.45 1.29 4.7
      vertex -5.805 1.29 4.7
    endloop
  endfacet
  facet normal 0 -1 0
    outer loop
      vertex 5.805 1.29 4.7
      vertex 6.45 1.29 6.3
      vertex 5.805 1.29 6.3
    endloop
  endfacet
  facet normal 0 -1 -0
    outer loop
      vertex 6.45 1.29 6.3
      vertex 5.805 1.29 4.7
      vertex 6.45 1.29 4.7
    endloop
  endfacet
  facet normal 0 1 -0
    outer loop
      vertex -5.805 -1.29 4.7
      vertex -6.45 -1.29 6.3
      vertex -5.805 -1.29 6.3
    endloop
  endfacet
  facet normal 0 1 0
    outer loop
      vertex -6.45 -1.29 6.3
      vertex -5.805 -1.29 4.7
      vertex -6.45 -1.29 4.7
    endloop
  endfacet
  facet normal 0 1 -0
    outer loop
      vertex 6.45 -1.29 4.7
      vertex 5.805 -1.29 6.3
      vertex 6.45 -1.29 6.3
    endloop
  endfacet
  facet normal 0 1 0
    outer loop
      vertex 5.805 -1.29 6.3
      vertex 6.45 -1.29 4.7
      vertex 5.805 -1.29 4.7
    endloop
  endfacet
  facet normal 0 -1 0
    outer loop
      vertex -6.45 5.16 4.7
      vertex -5.805 5.16 6.3
      vertex -6.45 5.16 6.3
    endloop
  endfacet
  facet normal 0 -1 -0
    outer loop
      vertex -5.805 5.16 6.3
      vertex -6.45 5.16 4.7
      vertex -5.805 5.16 4.7
    endloop
  endfacet
  facet normal 0 -1 0
    outer loop
      vertex 5.805 5.16 4.7
      vertex 6.45 5.16 6.3
      vertex 5.805 5.16 6.3
    endloop
  endfacet
  facet normal 0 -1 -0
    outer loop
      vertex 6.45 5.16 6.3
      vertex 5.805 5.16 4.7
      vertex 6.45 5.16 4.7
    endloop
  endfacet
  facet normal 0 1 -0
    outer loop
      vertex -5.805 2.58 4.7
      vertex -6.45 2.58 6.3
      vertex -5.805 2.58 6.3
    endloop
  endfacet
  facet normal 0 1 0
    outer loop
      vertex -6.45 2.58 6.3
      vertex -5.805 2.58 4.7
      vertex -6.45 2.58 4.7
    endloop
  endfacet
  facet normal 0 1 -0
    outer loop
      vertex 6.45 2.58 4.7
      vertex 5.805 2.58 6.3
      vertex 6.45 2.58 6.3
    endloop
  endfacet
  facet normal 0 1 0
    outer loop
      vertex 5.805 2.58 6.3
      vertex 6.45 2.58 4.7
      vertex 5.805 2.58 4.7
    endloop
  endfacet
  facet normal 1 -0 0
    outer loop
      vertex 2.58 5.805 3.3
      vertex 2.58 6.45 1.7
      vertex 2.58 6.45 3.3
    endloop
  endfacet
  facet normal 1 0 0
    outer loop
      vertex 2.58 6.45 1.7
      vertex 2.58 5.805 3.3
      vertex 2.58 5.805 1.7
    endloop
  endfacet
  facet normal 1 -0 0
    outer loop
      vertex 2.58 -6.45 3.3
      vertex 2.58 -5.805 1.7
      vertex 2.58 -5.805 3.3
    endloop
  endfacet
  facet normal 1 0 0
    outer loop
      vertex 2.58 -5.805 1.7
      vertex 2.58 -6.45 3.3
      vertex 2.58 -6.45 1.7
    endloop
  endfacet
  facet normal -1 0 0
    outer loop
      vertex 5.16 5.805 1.7
      vertex 5.16 6.45 3.3
      vertex 5.16 6.45 1.7
    endloop
  endfacet
  facet normal -1 -0 0
    outer loop
      vertex 5.16 6.45 3.3
      vertex 5.16 5.805 1.7
      vertex 5.16 5.805 3.3
    endloop
  endfacet
  facet normal -1 0 0
    outer loop
      vertex 5.16 -6.45 1.7
      vertex 5.16 -5.805 3.3
      vertex 5.16 -5.805 1.7
    endloop
  endfacet
  facet normal -1 -0 0
    outer loop
      vertex 5.16 -5.805 3.3
      vertex 5.16 -6.45 1.7
      vertex 5.16 -6.45 3.3
    endloop
  endfacet
  facet normal 1 -0 0
    outer loop
      vertex -1.29 5.805 3.3
      vertex -1.29 6.45 1.7
      vertex -1.29 6.45 3.3
    endloop
  endfacet
  facet normal 1 0 0
    outer loop
      vertex -1.29 6.45 1.7
      vertex -1.29 5.805 3.3
      vertex -1.29 5.805 1.7
    endloop
  endfacet
  facet normal 1 -0 0
    outer loop
      vertex -1.29 -6.45 3.3
      vertex -1.29 -5.805 1.7
      vertex -1.29 -5.805 3.3
    endloop
  endfacet
  facet normal 1 0 0
    outer loop
      vertex -1.29 -5.805 1.7
      vertex -1.29 -6.45 3.3
      vertex -1.29 -6.45 1.7
    endloop
  endfacet
  facet normal -1 0 0
    outer loop
      vertex 1.29 5.805 1.7
      vertex 1.29 6.45 3.3
      vertex 1.29 6.45 1.7
    endloop
  endfacet
  facet normal -1 -0 0
    outer loop
      vertex 1.29 6.45 3.3
      vertex 1.29 5.805 1.7
      vertex 1.29 5.805 3.3
    endloop
  endfacet
  facet normal -1 0 0
    outer loop
      vertex 1.29 -6.45 1.7
      vertex 1.29 -5.805 3.3
      vertex 1.29 -5.805 1.7
    endloop
  endfacet
  facet normal -1 -0 0
    outer loop
      vertex 1.29 -5.805 3.3
      vertex 1.29 -6.45 1.7
      vertex 1.29 -6.45 3.3
    endloop
  endfacet
  facet normal 1 -0 0
    outer loop
      vertex -5.16 5.805 3.3
      vertex -5.16 6.45 1.7
      vertex -5.16 6.45 3.3
    endloop
  endfacet
  facet normal 1 0 0
    outer loop
      vertex -5.16 6.45 1.7
      vertex -5.16 5.805 3.3
      vertex -5.16 5.805 1.7
    endloop
  endfacet
  facet normal 1 -0 0
    outer loop
      vertex -5.16 -6.45 3.3
      vertex -5.16 -5.805 1.7
      vertex -5.16 -5.805 3.3
    endloop
  endfacet
  facet normal 1 0 0
    outer loop
      vertex -5.16 -5.805 1.7
      vertex -5.16 -6.45 3.3
      vertex -5.16 -6.45 1.7
    endloop
  endfacet
  facet normal -1 0 0
    outer loop
      vertex -2.58 5.805 1.7
      vertex -2.58 6.45 3.3
      vertex -2.58 6.45 1.7
    endloop
  endfacet
  facet normal -1 -0 0
    outer loop
      vertex -2.58 6.45 3.3
      vertex -2.58 5.805 1.7
      vertex -2.58 5.805 3.3
    endloop
  endfacet
  facet normal -1 0 0
    outer loop
      vertex -2.58 -6.45 1.7
      vertex -2.58 -5.805 3.3
      vertex -2.58 -5.805 1.7
    endloop
  endfacet
  facet normal -1 -0 0
    outer loop
      vertex -2.58 -5.805 3.3
      vertex -2.58 -6.45 1.7
      vertex -2.58 -6.45 3.3
    endloop
  endfacet
  facet normal 1 -0 0
    outer loop
      vertex 2.58 5.805 6.3
      vertex 2.58 6.45 4.7
      vertex 2.58 6.45 6.3
    endloop
  endfacet
  facet normal 1 0 0
    outer loop
      vertex 2.58 6.45 4.7
      vertex 2.58 5.805 6.3
      vertex 2.58 5.805 4.7
    endloop
  endfacet
  facet normal 1 -0 0
    outer loop
      vertex 2.58 -6.45 6.3
      vertex 2.58 -5.805 4.7
      vertex 2.58 -5.805 6.3
    endloop
  endfacet
  facet normal 1 0 0
    outer loop
      vertex 2.58 -5.805 4.7
      vertex 2.58 -6.45 6.3
      vertex 2.58 -6.45 4.7
    endloop
  endfacet
  facet normal -1 0 0
    outer loop
      vertex 5.16 5.805 4.7
      vertex 5.16 6.45 6.3
      vertex 5.16 6.45 4.7
    endloop
  endfacet
  facet normal -1 -0 0
    outer loop
      vertex 5.16 6.45 6.3
      vertex 5.16 5.805 4.7
      vertex 5.16 5.805 6.3
    endloop
  endfacet
  facet normal -1 0 0
    outer loop
      vertex 5.16 -6.45 4.7
      vertex 5.16 -5.805 6.3
      vertex 5.16 -5.805 4.7
    endloop
  endfacet
  facet normal -1 -0 0
    outer loop
      vertex 5.16 -5.805 6.3
      vertex 5.16 -6.45 4.7
      vertex 5.16 -6.45 6.3
    endloop
  endfacet
  facet normal 1 -0 0
    outer loop
      vertex -1.29 5.805 6.3
      vertex -1.29 6.45 4.7
      vertex -1.29 6.45 6.3
    endloop
  endfacet
  facet normal 1 0 0
    outer loop
      vertex -1.29 6.45 4.7
      vertex -1.29 5.805 6.3
      vertex -1.29 5.805 4.7
    endloop
  endfacet
  facet normal 1 -0 0
    outer loop
      vertex -1.29 -6.45 6.3
      vertex -1.29 -5.805 4.7
      vertex -1.29 -5.805 6.3
    endloop
  endfacet
  facet normal 1 0 0
    outer loop
      vertex -1.29 -5.805 4.7
      vertex -1.29 -6.45 6.3
      vertex -1.29 -6.45 4.7
    endloop
  endfacet
  facet normal -1 0 0
    outer loop
      vertex 1.29 5.805 4.7
      vertex 1.29 6.45 6.3
      vertex 1.29 6.45 4.7
    endloop
  endfacet
  facet normal -1 -0 0
    outer loop
      vertex 1.29 6.45 6.3
      vertex 1.29 5.805 4.7
      vertex 1.29 5.805 6.3
    endloop
  endfacet
  facet normal -1 0 0
    outer loop
      vertex 1.29 -6.45 4.7
      vertex 1.29 -5.805 6.3
      vertex 1.29 -5.805 4.7
    endloop
  endfacet
  facet normal -1 -0 0
    outer loop
      vertex 1.29 -5.805 6.3
      vertex 1.29 -6.45 4.7
      vertex 1.29 -6.45 6.3
    endloop
  endfacet
  facet normal 1 -0 0
    outer loop
      vertex -5.16 5.805 6.3
      vertex -5.16 6.45 4.7
      vertex -5.16 6.45 6.3
    endloop
  endfacet
  facet normal 1 0 0
    outer loop
      vertex -5.16 6.45 4.7
      vertex -5.16 5.805 6.3
      vertex -5.16 5.805 4.7
    endloop
  endfacet
  facet normal 1 -0 0
    outer loop
      vertex -5.16 -6.45 6.3
      vertex -5.16 -5.805 4.7
      vertex -5.16 -5.805 6.3
    endloop
  endfacet
  facet normal 1 0 0
    outer loop
      vertex -5.16 -5.805 4.7
      vertex -5.16 -6.45 6.3
      vertex -5.16 -6.45 4.7
    endloop
  endfacet
  facet normal -1 0 0
    outer loop
      vertex -2.58 5.805 4.7
      vertex -2.58 6.45 6.3
      vertex -2.58 6.45 4.7
    endloop
  endfacet
  facet normal -1 -0 0
    outer loop
      vertex -2.58 6.45 6.3
      vertex -2.58 5.805 4.7
      vertex -2.58 5.805 6.3
    endloop
  endfacet
  facet normal -1 0 0
    outer loop
      vertex -2.58 -6.45 4.7
      vertex -2.58 -5.805 6.3
      vertex -2.58 -5.805 4.7
    endloop
  endfacet
  facet normal -1 -0 0
    outer loop
      vertex -2.58 -5.805 6.3
      vertex -2.58 -6.45 4.7
      vertex -2.58 -6.45 6.3
    endloop
  endfacet
  facet normal 1 -0 0
    outer loop
      vertex 5.805 2.58 3.3
      vertex 5.805 5.16 1.7
      vertex 5.805 5.16 3.3
    endloop
  endfacet
  facet normal 1 0 0
    outer loop
      vertex 5.805 5.16 1.7
      vertex 5.805 2.58 3.3
      vertex 5.805 2.58 1.7
    endloop
  endfacet
  facet normal 1 -0 0
    outer loop
      vertex 5.805 -5.16 3.3
      vertex 5.805 -2.58 1.7
      vertex 5.805 -2.58 3.3
    endloop
  endfacet
  facet normal 1 0 0
    outer loop
      vertex 5.805 -2.58 1.7
      vertex 5.805 -5.16 3.3
      vertex 5.805 -5.16 1.7
    endloop
  endfacet
  facet normal 1 -0 0
    outer loop
      vertex 5.805 -1.29 3.3
      vertex 5.805 1.29 1.7
      vertex 5.805 1.29 3.3
    endloop
  endfacet
  facet normal 1 0 0
    outer loop
      vertex 5.805 1.29 1.7
      vertex 5.805 -1.29 3.3
      vertex 5.805 -1.29 1.7
    endloop
  endfacet
  facet normal 1 -0 0
    outer loop
      vertex 5.805 2.58 6.3
      vertex 5.805 5.16 4.7
      vertex 5.805 5.16 6.3
    endloop
  endfacet
  facet normal 1 0 0
    outer loop
      vertex 5.805 5.16 4.7
      vertex 5.805 2.58 6.3
      vertex 5.805 2.58 4.7
    endloop
  endfacet
  facet normal 1 -0 0
    outer loop
      vertex 5.805 -5.16 6.3
      vertex 5.805 -2.58 4.7
      vertex 5.805 -2.58 6.3
    endloop
  endfacet
  facet normal 1 0 0
    outer loop
      vertex 5.805 -2.58 4.7
      vertex 5.805 -5.16 6.3
      vertex 5.805 -5.16 4.7
    endloop
  endfacet
  facet normal 1 -0 0
    outer loop
      vertex 5.805 -1.29 6.3
      vertex 5.805 1.29 4.7
      vertex 5.805 1.29 6.3
    endloop
  endfacet
  facet normal 1 0 0
    outer loop
      vertex 5.805 1.29 4.7
      vertex 5.805 -1.29 6.3
      vertex 5.805 -1.29 4.7
    endloop
  endfacet
  facet normal -1 0 0
    outer loop
      vertex -5.805 2.58 1.7
      vertex -5.805 5.16 3.3
      vertex -5.805 5.16 1.7
    endloop
  endfacet
  facet normal -1 -0 0
    outer loop
      vertex -5.805 5.16 3.3
      vertex -5.805 2.58 1.7
      vertex -5.805 2.58 3.3
    endloop
  endfacet
  facet normal -1 0 0
    outer loop
      vertex -5.805 -5.16 1.7
      vertex -5.805 -2.58 3.3
      vertex -5.805 -2.58 1.7
    endloop
  endfacet
  facet normal -1 -0 0
    outer loop
      vertex -5.805 -2.58 3.3
      vertex -5.805 -5.16 1.7
      vertex -5.805 -5.16 3.3
    endloop
  endfacet
  facet normal -1 0 0
    outer loop
      vertex -5.805 -1.29 1.7
      vertex -5.805 1.29 3.3
      vertex -5.805 1.29 1.7
    endloop
  endfacet
  facet normal -1 -0 0
    outer loop
      vertex -5.805 1.29 3.3
      vertex -5.805 -1.29 1.7
      vertex -5.805 -1.29 3.3
    endloop
  endfacet
  facet normal -1 0 0
    outer loop
      vertex -5.805 2.58 4.7
      vertex -5.805 5.16 6.3
      vertex -5.805 5.16 4.7
    endloop
  endfacet
  facet normal -1 -0 0
    outer loop
      vertex -5.805 5.16 6.3
      vertex -5.805 2.58 4.7
      vertex -5.805 2.58 6.3
    endloop
  endfacet
  facet normal -1 0 0
    outer loop
      vertex -5.805 -5.16 4.7
      vertex -5.805 -2.58 6.3
      vertex -5.805 -2.58 4.7
    endloop
  endfacet
  facet normal -1 -0 0
    outer loop
      vertex -5.805 -2.58 6.3
      vertex -5.805 -5.16 4.7
      vertex -5.805 -5.16 6.3
    endloop
  endfacet
  facet normal -1 0 0
    outer loop
      vertex -5.805 -1.29 4.7
      vertex -5.805 1.29 6.3
      vertex -5.805 1.29 4.7
    endloop
  endfacet
  facet normal -1 -0 0
    outer loop
      vertex -5.805 1.29 6.3
      vertex -5.805 -1.29 4.7
      vertex -5.805 -1.29 6.3
    endloop
  endfacet
  facet normal 0 1 -0
    outer loop
      vertex -2.58 5.805 1.7
      vertex -5.16 5.805 3.3
      vertex -2.58 5.805 3.3
    endloop
  endfacet
  facet normal 0 1 0
    outer loop
      vertex -5.16 5.805 3.3
      vertex -2.58 5.805 1.7
      vertex -5.16 5.805 1.7
    endloop
  endfacet
  facet normal 0 1 -0
    outer loop
      vertex -2.58 5.805 4.7
      vertex -5.16 5.805 6.3
      vertex -2.58 5.805 6.3
    endloop
  endfacet
  facet normal 0 1 0
    outer loop
      vertex -5.16 5.805 6.3
      vertex -2.58 5.805 4.7
      vertex -5.16 5.805 4.7
    endloop
  endfacet
  facet normal 0 1 -0
    outer loop
      vertex 1.29 5.805 1.7
      vertex -1.29 5.805 3.3
      vertex 1.29 5.805 3.3
    endloop
  endfacet
  facet normal 0 1 0
    outer loop
      vertex -1.29 5.805 3.3
      vertex 1.29 5.805 1.7
      vertex -1.29 5.805 1.7
    endloop
  endfacet
  facet normal 0 1 -0
    outer loop
      vertex 1.29 5.805 4.7
      vertex -1.29 5.805 6.3
      vertex 1.29 5.805 6.3
    endloop
  endfacet
  facet normal 0 1 0
    outer loop
      vertex -1.29 5.805 6.3
      vertex 1.29 5.805 4.7
      vertex -1.29 5.805 4.7
    endloop
  endfacet
  facet normal 0 1 -0
    outer loop
      vertex 5.16 5.805 1.7
      vertex 2.58 5.805 3.3
      vertex 5.16 5.805 3.3
    endloop
  endfacet
  facet normal 0 1 0
    outer loop
      vertex 2.58 5.805 3.3
      vertex 5.16 5.805 1.7
      vertex 2.58 5.805 1.7
    endloop
  endfacet
  facet normal 0 1 -0
    outer loop
      vertex 5.16 5.805 4.7
      vertex 2.58 5.805 6.3
      vertex 5.16 5.805 6.3
    endloop
  endfacet
  facet normal 0 1 0
    outer loop
      vertex 2.58 5.805 6.3
      vertex 5.16 5.805 4.7
      vertex 2.58 5.805 4.7
    endloop
  endfacet
  facet normal 0 -1 0
    outer loop
      vertex -5.16 -5.805 1.7
      vertex -2.58 -5.805 3.3
      vertex -5.16 -5.805 3.3
    endloop
  endfacet
  facet normal 0 -1 -0
    outer loop
      vertex -2.58 -5.805 3.3
      vertex -5.16 -5.805 1.7
      vertex -2.58 -5.805 1.7
    endloop
  endfacet
  facet normal 0 -1 0
    outer loop
      vertex -5.16 -5.805 4.7
      vertex -2.58 -5.805 6.3
      vertex -5.16 -5.805 6.3
    endloop
  endfacet
  facet normal 0 -1 -0
    outer loop
      vertex -2.58 -5.805 6.3
      vertex -5.16 -5.805 4.7
      vertex -2.58 -5.805 4.7
    endloop
  endfacet
  facet normal 0 -1 0
    outer loop
      vertex -1.29 -5.805 1.7
      vertex 1.29 -5.805 3.3
      vertex -1.29 -5.805 3.3
    endloop
  endfacet
  facet normal 0 -1 -0
    outer loop
      vertex 1.29 -5.805 3.3
      vertex -1.29 -5.805 1.7
      vertex 1.29 -5.805 1.7
    endloop
  endfacet
  facet normal 0 -1 0
    outer loop
      vertex -1.29 -5.805 4.7
      vertex 1.29 -5.805 6.3
      vertex -1.29 -5.805 6.3
    endloop
  endfacet
  facet normal 0 -1 -0
    outer loop
      vertex 1.29 -5.805 6.3
      vertex -1.29 -5.805 4.7
      vertex 1.29 -5.805 4.7
    endloop
  endfacet
  facet normal 0 -1 0
    outer loop
      vertex 2.58 -5.805 1.7
      vertex 5.16 -5.805 3.3
      vertex 2.58 -5.805 3.3
    endloop
  endfacet
  facet normal 0 -1 -0
    outer loop
      vertex 5.16 -5.805 3.3
      vertex 2.58 -5.805 1.7
      vertex 5.16 -5.805 1.7
    endloop
  endfacet
  facet normal 0 -1 0
    outer loop
      vertex 2.58 -5.805 4.7
      vertex 5.16 -5.805 6.3
      vertex 2.58 -5.805 6.3
    endloop
  endfacet
  facet normal 0 -1 -0
    outer loop
      vertex 5.16 -5.805 6.3
      vertex 2.58 -5.805 4.7
      vertex 5.16 -5.805 4.7
    endloop
  endfacet
  facet normal -0.481769 -0.876298 0
    outer loop
      vertex 0.915425 1.94538 -2.9
      vertex 1.15203 1.8153 -0.599999
      vertex 0.915425 1.94538 -0.599999
    endloop
  endfacet
  facet normal -0.481769 -0.876298 -0
    outer loop
      vertex 1.15203 1.8153 -0.599999
      vertex 0.915425 1.94538 -2.9
      vertex 1.15203 1.8153 -2.9
    endloop
  endfacet
  facet normal -0.982282 -0.187407 0
    outer loop
      vertex 2.13305 0.269466 -2.9
      vertex 2.08245 0.534683 -0.599999
      vertex 2.08245 0.534683 -2.9
    endloop
  endfacet
  facet normal -0.982282 -0.187407 0
    outer loop
      vertex 2.08245 0.534683 -0.599999
      vertex 2.13305 0.269466 -2.9
      vertex 2.13305 0.269466 -0.599999
    endloop
  endfacet
  facet normal -0.998028 -0.0627781 0
    outer loop
      vertex 2.15 0 -2.9
      vertex 2.13305 0.269466 -0.599999
      vertex 2.13305 0.269466 -2.9
    endloop
  endfacet
  facet normal -0.998028 -0.0627781 0
    outer loop
      vertex 2.13305 0.269466 -0.599999
      vertex 2.15 0 -2.9
      vertex 2.15 0 -0.599999
    endloop
  endfacet
  facet normal -0.368114 -0.929781 0
    outer loop
      vertex 0.664386 2.04477 -2.9
      vertex 0.915425 1.94538 -0.599999
      vertex 0.664386 2.04477 -0.599999
    endloop
  endfacet
  facet normal -0.368114 -0.929781 -0
    outer loop
      vertex 0.915425 1.94538 -0.599999
      vertex 0.664386 2.04477 -2.9
      vertex 0.915425 1.94538 -2.9
    endloop
  endfacet
  facet normal -0.248703 0.96858 0
    outer loop
      vertex 0.664386 -2.04477 -2.9
      vertex 0.402869 -2.11192 -0.599999
      vertex 0.664386 -2.04477 -0.599999
    endloop
  endfacet
  facet normal -0.248703 0.96858 0
    outer loop
      vertex 0.402869 -2.11192 -0.599999
      vertex 0.664386 -2.04477 -2.9
      vertex 0.402869 -2.11192 -2.9
    endloop
  endfacet
  facet normal 0.951061 0.309002 0
    outer loop
      vertex -1.99902 -0.791468 -0.599999
      vertex -2.08245 -0.534683 -2.9
      vertex -2.08245 -0.534683 -0.599999
    endloop
  endfacet
  facet normal 0.951061 0.309002 0
    outer loop
      vertex -2.08245 -0.534683 -2.9
      vertex -1.99902 -0.791468 -0.599999
      vertex -1.99902 -0.791468 -2.9
    endloop
  endfacet
  facet normal -0.684535 -0.72898 0
    outer loop
      vertex 1.37046 1.6566 -2.9
      vertex 1.56728 1.47178 -0.599999
      vertex 1.37046 1.6566 -0.599999
    endloop
  endfacet
  facet normal -0.684535 -0.72898 -0
    outer loop
      vertex 1.56728 1.47178 -0.599999
      vertex 1.37046 1.6566 -2.9
      vertex 1.56728 1.47178 -2.9
    endloop
  endfacet
  facet normal -0.998028 0.0627781 0
    outer loop
      vertex 2.13305 -0.269466 -2.9
      vertex 2.15 0 -0.599999
      vertex 2.15 0 -2.9
    endloop
  endfacet
  facet normal -0.998028 0.0627781 0
    outer loop
      vertex 2.15 0 -0.599999
      vertex 2.13305 -0.269466 -2.9
      vertex 2.13305 -0.269466 -0.599999
    endloop
  endfacet
  facet normal 0.587788 -0.809015 0
    outer loop
      vertex -1.37046 1.6566 -2.9
      vertex -1.15203 1.8153 -0.599999
      vertex -1.37046 1.6566 -0.599999
    endloop
  endfacet
  facet normal 0.587788 -0.809015 0
    outer loop
      vertex -1.15203 1.8153 -0.599999
      vertex -1.37046 1.6566 -2.9
      vertex -1.15203 1.8153 -2.9
    endloop
  endfacet
  facet normal -0.248703 -0.96858 0
    outer loop
      vertex 0.402869 2.11192 -2.9
      vertex 0.664386 2.04477 -0.599999
      vertex 0.402869 2.11192 -0.599999
    endloop
  endfacet
  facet normal -0.248703 -0.96858 -0
    outer loop
      vertex 0.664386 2.04477 -0.599999
      vertex 0.402869 2.11192 -2.9
      vertex 0.664386 2.04477 -2.9
    endloop
  endfacet
  facet normal -0.368114 0.929781 0
    outer loop
      vertex 0.915425 -1.94538 -2.9
      vertex 0.664386 -2.04477 -0.599999
      vertex 0.915425 -1.94538 -0.599999
    endloop
  endfacet
  facet normal -0.368114 0.929781 0
    outer loop
      vertex 0.664386 -2.04477 -0.599999
      vertex 0.915425 -1.94538 -2.9
      vertex 0.664386 -2.04477 -2.9
    endloop
  endfacet
  facet normal 0.951061 -0.309002 0
    outer loop
      vertex -2.08245 0.534683 -0.599999
      vertex -1.99902 0.791468 -2.9
      vertex -1.99902 0.791468 -0.599999
    endloop
  endfacet
  facet normal 0.951061 -0.309002 0
    outer loop
      vertex -1.99902 0.791468 -2.9
      vertex -2.08245 0.534683 -0.599999
      vertex -2.08245 0.534683 -2.9
    endloop
  endfacet
  facet normal 0.982282 -0.187407 0
    outer loop
      vertex -2.13305 0.269466 -0.599999
      vertex -2.08245 0.534683 -2.9
      vertex -2.08245 0.534683 -0.599999
    endloop
  endfacet
  facet normal 0.982282 -0.187407 0
    outer loop
      vertex -2.08245 0.534683 -2.9
      vertex -2.13305 0.269466 -0.599999
      vertex -2.13305 0.269466 -2.9
    endloop
  endfacet
  facet normal -0.904827 0.42578 0
    outer loop
      vertex 1.88406 -1.03577 -2.9
      vertex 1.99902 -0.791468 -0.599999
      vertex 1.99902 -0.791468 -2.9
    endloop
  endfacet
  facet normal -0.904827 0.42578 0
    outer loop
      vertex 1.99902 -0.791468 -0.599999
      vertex 1.88406 -1.03577 -2.9
      vertex 1.88406 -1.03577 -0.599999
    endloop
  endfacet
  facet normal 0.481769 -0.876298 0
    outer loop
      vertex -1.15203 1.8153 -2.9
      vertex -0.915425 1.94538 -0.599999
      vertex -1.15203 1.8153 -0.599999
    endloop
  endfacet
  facet normal 0.481769 -0.876298 0
    outer loop
      vertex -0.915425 1.94538 -0.599999
      vertex -1.15203 1.8153 -2.9
      vertex -0.915425 1.94538 -2.9
    endloop
  endfacet
  facet normal -0.951061 0.309002 0
    outer loop
      vertex 1.99902 -0.791468 -2.9
      vertex 2.08245 -0.534683 -0.599999
      vertex 2.08245 -0.534683 -2.9
    endloop
  endfacet
  facet normal -0.951061 0.309002 0
    outer loop
      vertex 2.08245 -0.534683 -0.599999
      vertex 1.99902 -0.791468 -2.9
      vertex 1.99902 -0.791468 -0.599999
    endloop
  endfacet
  facet normal 0.770505 -0.637434 0
    outer loop
      vertex -1.73939 1.26374 -0.599999
      vertex -1.56728 1.47178 -2.9
      vertex -1.56728 1.47178 -0.599999
    endloop
  endfacet
  facet normal 0.770505 -0.637434 0
    outer loop
      vertex -1.56728 1.47178 -2.9
      vertex -1.73939 1.26374 -0.599999
      vertex -1.73939 1.26374 -2.9
    endloop
  endfacet
  facet normal 0.904827 0.42578 0
    outer loop
      vertex -1.88406 -1.03577 -0.599999
      vertex -1.99902 -0.791468 -2.9
      vertex -1.99902 -0.791468 -0.599999
    endloop
  endfacet
  facet normal 0.904827 0.42578 0
    outer loop
      vertex -1.99902 -0.791468 -2.9
      vertex -1.88406 -1.03577 -0.599999
      vertex -1.88406 -1.03577 -2.9
    endloop
  endfacet
  facet normal -0.844335 -0.535816 0
    outer loop
      vertex 1.88406 1.03577 -2.9
      vertex 1.73939 1.26374 -0.599999
      vertex 1.73939 1.26374 -2.9
    endloop
  endfacet
  facet normal -0.844335 -0.535816 0
    outer loop
      vertex 1.73939 1.26374 -0.599999
      vertex 1.88406 1.03577 -2.9
      vertex 1.88406 1.03577 -0.599999
    endloop
  endfacet
  facet normal 0.904827 -0.42578 0
    outer loop
      vertex -1.99902 0.791468 -0.599999
      vertex -1.88406 1.03577 -2.9
      vertex -1.88406 1.03577 -0.599999
    endloop
  endfacet
  facet normal 0.904827 -0.42578 0
    outer loop
      vertex -1.88406 1.03577 -2.9
      vertex -1.99902 0.791468 -0.599999
      vertex -1.99902 0.791468 -2.9
    endloop
  endfacet
  facet normal -0.125334 -0.992115 0
    outer loop
      vertex 0.134999 2.14576 -2.9
      vertex 0.402869 2.11192 -0.599999
      vertex 0.134999 2.14576 -0.599999
    endloop
  endfacet
  facet normal -0.125334 -0.992115 -0
    outer loop
      vertex 0.402869 2.11192 -0.599999
      vertex 0.134999 2.14576 -2.9
      vertex 0.402869 2.11192 -2.9
    endloop
  endfacet
  facet normal -0.904827 -0.42578 0
    outer loop
      vertex 1.99902 0.791468 -2.9
      vertex 1.88406 1.03577 -0.599999
      vertex 1.88406 1.03577 -2.9
    endloop
  endfacet
  facet normal -0.904827 -0.42578 0
    outer loop
      vertex 1.88406 1.03577 -0.599999
      vertex 1.99902 0.791468 -2.9
      vertex 1.99902 0.791468 -0.599999
    endloop
  endfacet
  facet normal 0.248703 -0.96858 0
    outer loop
      vertex -0.664386 2.04477 -2.9
      vertex -0.402869 2.11192 -0.599999
      vertex -0.664386 2.04477 -0.599999
    endloop
  endfacet
  facet normal 0.248703 -0.96858 0
    outer loop
      vertex -0.402869 2.11192 -0.599999
      vertex -0.664386 2.04477 -2.9
      vertex -0.402869 2.11192 -2.9
    endloop
  endfacet
  facet normal 0 -1 0
    outer loop
      vertex -0.134999 2.14576 -2.9
      vertex 0.134999 2.14576 -0.599999
      vertex -0.134999 2.14576 -0.599999
    endloop
  endfacet
  facet normal 0 -1 -0
    outer loop
      vertex 0.134999 2.14576 -0.599999
      vertex -0.134999 2.14576 -2.9
      vertex 0.134999 2.14576 -2.9
    endloop
  endfacet
  facet normal 0.998028 -0.0627781 0
    outer loop
      vertex -2.15 0 -0.599999
      vertex -2.13305 0.269466 -2.9
      vertex -2.13305 0.269466 -0.599999
    endloop
  endfacet
  facet normal 0.998028 -0.0627781 0
    outer loop
      vertex -2.13305 0.269466 -2.9
      vertex -2.15 0 -0.599999
      vertex -2.15 0 -2.9
    endloop
  endfacet
  facet normal -0.587788 -0.809015 0
    outer loop
      vertex 1.15203 1.8153 -2.9
      vertex 1.37046 1.6566 -0.599999
      vertex 1.15203 1.8153 -0.599999
    endloop
  endfacet
  facet normal -0.587788 -0.809015 -0
    outer loop
      vertex 1.37046 1.6566 -0.599999
      vertex 1.15203 1.8153 -2.9
      vertex 1.37046 1.6566 -2.9
    endloop
  endfacet
  facet normal 0.684535 0.72898 -0
    outer loop
      vertex -1.37046 -1.6566 -2.9
      vertex -1.56728 -1.47178 -0.599999
      vertex -1.37046 -1.6566 -0.599999
    endloop
  endfacet
  facet normal 0.684535 0.72898 0
    outer loop
      vertex -1.56728 -1.47178 -0.599999
      vertex -1.37046 -1.6566 -2.9
      vertex -1.56728 -1.47178 -2.9
    endloop
  endfacet
  facet normal -0.982282 0.187407 0
    outer loop
      vertex 2.08245 -0.534683 -2.9
      vertex 2.13305 -0.269466 -0.599999
      vertex 2.13305 -0.269466 -2.9
    endloop
  endfacet
  facet normal -0.982282 0.187407 0
    outer loop
      vertex 2.13305 -0.269466 -0.599999
      vertex 2.08245 -0.534683 -2.9
      vertex 2.08245 -0.534683 -0.599999
    endloop
  endfacet
  facet normal -0.125334 0.992115 0
    outer loop
      vertex 0.402869 -2.11192 -2.9
      vertex 0.134999 -2.14576 -0.599999
      vertex 0.402869 -2.11192 -0.599999
    endloop
  endfacet
  facet normal -0.125334 0.992115 0
    outer loop
      vertex 0.134999 -2.14576 -0.599999
      vertex 0.402869 -2.11192 -2.9
      vertex 0.134999 -2.14576 -2.9
    endloop
  endfacet
  facet normal 0.125334 -0.992115 0
    outer loop
      vertex -0.402869 2.11192 -2.9
      vertex -0.134999 2.14576 -0.599999
      vertex -0.402869 2.11192 -0.599999
    endloop
  endfacet
  facet normal 0.125334 -0.992115 0
    outer loop
      vertex -0.134999 2.14576 -0.599999
      vertex -0.402869 2.11192 -2.9
      vertex -0.134999 2.14576 -2.9
    endloop
  endfacet
  facet normal 0.770505 0.637434 0
    outer loop
      vertex -1.56728 -1.47178 -0.599999
      vertex -1.73939 -1.26374 -2.9
      vertex -1.73939 -1.26374 -0.599999
    endloop
  endfacet
  facet normal 0.770505 0.637434 0
    outer loop
      vertex -1.73939 -1.26374 -2.9
      vertex -1.56728 -1.47178 -0.599999
      vertex -1.56728 -1.47178 -2.9
    endloop
  endfacet
  facet normal 0.587788 0.809015 -0
    outer loop
      vertex -1.15203 -1.8153 -2.9
      vertex -1.37046 -1.6566 -0.599999
      vertex -1.15203 -1.8153 -0.599999
    endloop
  endfacet
  facet normal 0.587788 0.809015 0
    outer loop
      vertex -1.37046 -1.6566 -0.599999
      vertex -1.15203 -1.8153 -2.9
      vertex -1.37046 -1.6566 -2.9
    endloop
  endfacet
  facet normal 0 1 -0
    outer loop
      vertex 0.134999 -2.14576 -2.9
      vertex -0.134999 -2.14576 -0.599999
      vertex 0.134999 -2.14576 -0.599999
    endloop
  endfacet
  facet normal 0 1 0
    outer loop
      vertex -0.134999 -2.14576 -0.599999
      vertex 0.134999 -2.14576 -2.9
      vertex -0.134999 -2.14576 -2.9
    endloop
  endfacet
  facet normal 0.481769 0.876298 -0
    outer loop
      vertex -0.915425 -1.94538 -2.9
      vertex -1.15203 -1.8153 -0.599999
      vertex -0.915425 -1.94538 -0.599999
    endloop
  endfacet
  facet normal 0.481769 0.876298 0
    outer loop
      vertex -1.15203 -1.8153 -0.599999
      vertex -0.915425 -1.94538 -2.9
      vertex -1.15203 -1.8153 -2.9
    endloop
  endfacet
  facet normal 0.998028 0.0627781 0
    outer loop
      vertex -2.13305 -0.269466 -0.599999
      vertex -2.15 0 -2.9
      vertex -2.15 0 -0.599999
    endloop
  endfacet
  facet normal 0.998028 0.0627781 0
    outer loop
      vertex -2.15 0 -2.9
      vertex -2.13305 -0.269466 -0.599999
      vertex -2.13305 -0.269466 -2.9
    endloop
  endfacet
  facet normal -0.844335 0.535816 0
    outer loop
      vertex 1.73939 -1.26374 -2.9
      vertex 1.88406 -1.03577 -0.599999
      vertex 1.88406 -1.03577 -2.9
    endloop
  endfacet
  facet normal -0.844335 0.535816 0
    outer loop
      vertex 1.88406 -1.03577 -0.599999
      vertex 1.73939 -1.26374 -2.9
      vertex 1.73939 -1.26374 -0.599999
    endloop
  endfacet
  facet normal -0.770505 0.637434 0
    outer loop
      vertex 1.56728 -1.47178 -2.9
      vertex 1.73939 -1.26374 -0.599999
      vertex 1.73939 -1.26374 -2.9
    endloop
  endfacet
  facet normal -0.770505 0.637434 0
    outer loop
      vertex 1.73939 -1.26374 -0.599999
      vertex 1.56728 -1.47178 -2.9
      vertex 1.56728 -1.47178 -0.599999
    endloop
  endfacet
  facet normal -0.770505 -0.637434 0
    outer loop
      vertex 1.73939 1.26374 -2.9
      vertex 1.56728 1.47178 -0.599999
      vertex 1.56728 1.47178 -2.9
    endloop
  endfacet
  facet normal -0.770505 -0.637434 0
    outer loop
      vertex 1.56728 1.47178 -0.599999
      vertex 1.73939 1.26374 -2.9
      vertex 1.73939 1.26374 -0.599999
    endloop
  endfacet
  facet normal -0.481769 0.876298 0
    outer loop
      vertex 1.15203 -1.8153 -2.9
      vertex 0.915425 -1.94538 -0.599999
      vertex 1.15203 -1.8153 -0.599999
    endloop
  endfacet
  facet normal -0.481769 0.876298 0
    outer loop
      vertex 0.915425 -1.94538 -0.599999
      vertex 1.15203 -1.8153 -2.9
      vertex 0.915425 -1.94538 -2.9
    endloop
  endfacet
  facet normal -0.951061 -0.309002 0
    outer loop
      vertex 2.08245 0.534683 -2.9
      vertex 1.99902 0.791468 -0.599999
      vertex 1.99902 0.791468 -2.9
    endloop
  endfacet
  facet normal -0.951061 -0.309002 0
    outer loop
      vertex 1.99902 0.791468 -0.599999
      vertex 2.08245 0.534683 -2.9
      vertex 2.08245 0.534683 -0.599999
    endloop
  endfacet
  facet normal 0.368114 -0.929781 0
    outer loop
      vertex -0.915425 1.94538 -2.9
      vertex -0.664386 2.04477 -0.599999
      vertex -0.915425 1.94538 -0.599999
    endloop
  endfacet
  facet normal 0.368114 -0.929781 0
    outer loop
      vertex -0.664386 2.04477 -0.599999
      vertex -0.915425 1.94538 -2.9
      vertex -0.664386 2.04477 -2.9
    endloop
  endfacet
  facet normal 0.982282 0.187407 0
    outer loop
      vertex -2.08245 -0.534683 -0.599999
      vertex -2.13305 -0.269466 -2.9
      vertex -2.13305 -0.269466 -0.599999
    endloop
  endfacet
  facet normal 0.982282 0.187407 0
    outer loop
      vertex -2.13305 -0.269466 -2.9
      vertex -2.08245 -0.534683 -0.599999
      vertex -2.08245 -0.534683 -2.9
    endloop
  endfacet
  facet normal 0.684535 -0.72898 0
    outer loop
      vertex -1.56728 1.47178 -2.9
      vertex -1.37046 1.6566 -0.599999
      vertex -1.56728 1.47178 -0.599999
    endloop
  endfacet
  facet normal 0.684535 -0.72898 0
    outer loop
      vertex -1.37046 1.6566 -0.599999
      vertex -1.56728 1.47178 -2.9
      vertex -1.37046 1.6566 -2.9
    endloop
  endfacet
  facet normal 0 0 1
    outer loop
      vertex 2.13305 0.269466 -2.9
      vertex 2.13305 -0.269466 -2.9
      vertex 2.15 0 -2.9
    endloop
  endfacet
  facet normal 0 0 1
    outer loop
      vertex 2.08245 0.534683 -2.9
      vertex 2.13305 -0.269466 -2.9
      vertex 2.13305 0.269466 -2.9
    endloop
  endfacet
  facet normal 0 0 1
    outer loop
      vertex 2.08245 0.534683 -2.9
      vertex 2.08245 -0.534683 -2.9
      vertex 2.13305 -0.269466 -2.9
    endloop
  endfacet
  facet normal 0 0 1
    outer loop
      vertex 1.99902 0.791468 -2.9
      vertex 2.08245 -0.534683 -2.9
      vertex 2.08245 0.534683 -2.9
    endloop
  endfacet
  facet normal 0 0 1
    outer loop
      vertex 1.99902 0.791468 -2.9
      vertex 1.99902 -0.791468 -2.9
      vertex 2.08245 -0.534683 -2.9
    endloop
  endfacet
  facet normal 0 0 1
    outer loop
      vertex 1.88406 1.03577 -2.9
      vertex 1.99902 -0.791468 -2.9
      vertex 1.99902 0.791468 -2.9
    endloop
  endfacet
  facet normal 0 0 1
    outer loop
      vertex 1.88406 1.03577 -2.9
      vertex 1.88406 -1.03577 -2.9
      vertex 1.99902 -0.791468 -2.9
    endloop
  endfacet
  facet normal 0 0 1
    outer loop
      vertex 1.73939 1.26374 -2.9
      vertex 1.88406 -1.03577 -2.9
      vertex 1.88406 1.03577 -2.9
    endloop
  endfacet
  facet normal 0 0 1
    outer loop
      vertex 1.73939 1.26374 -2.9
      vertex 1.73939 -1.26374 -2.9
      vertex 1.88406 -1.03577 -2.9
    endloop
  endfacet
  facet normal 0 0 1
    outer loop
      vertex 1.56728 1.47178 -2.9
      vertex 1.73939 -1.26374 -2.9
      vertex 1.73939 1.26374 -2.9
    endloop
  endfacet
  facet normal 0 0 1
    outer loop
      vertex 1.56728 1.47178 -2.9
      vertex 1.56728 -1.47178 -2.9
      vertex 1.73939 -1.26374 -2.9
    endloop
  endfacet
  facet normal 0 0 1
    outer loop
      vertex 1.37046 1.6566 -2.9
      vertex 1.56728 -1.47178 -2.9
      vertex 1.56728 1.47178 -2.9
    endloop
  endfacet
  facet normal 0 0 1
    outer loop
      vertex 1.37046 1.6566 -2.9
      vertex 1.37046 -1.6566 -2.9
      vertex 1.56728 -1.47178 -2.9
    endloop
  endfacet
  facet normal 0 0 1
    outer loop
      vertex 1.15203 1.8153 -2.9
      vertex 1.37046 -1.6566 -2.9
      vertex 1.37046 1.6566 -2.9
    endloop
  endfacet
  facet normal 0 0 1
    outer loop
      vertex 1.15203 1.8153 -2.9
      vertex 1.15203 -1.8153 -2.9
      vertex 1.37046 -1.6566 -2.9
    endloop
  endfacet
  facet normal 0 0 1
    outer loop
      vertex 0.915425 1.94538 -2.9
      vertex 1.15203 -1.8153 -2.9
      vertex 1.15203 1.8153 -2.9
    endloop
  endfacet
  facet normal 0 0 1
    outer loop
      vertex 0.915425 1.94538 -2.9
      vertex 0.915425 -1.94538 -2.9
      vertex 1.15203 -1.8153 -2.9
    endloop
  endfacet
  facet normal 0 0 1
    outer loop
      vertex 0.664386 2.04477 -2.9
      vertex 0.915425 -1.94538 -2.9
      vertex 0.915425 1.94538 -2.9
    endloop
  endfacet
  facet normal 0 0 1
    outer loop
      vertex 0.664386 2.04477 -2.9
      vertex 0.664386 -2.04477 -2.9
      vertex 0.915425 -1.94538 -2.9
    endloop
  endfacet
  facet normal 0 0 1
    outer loop
      vertex 0.402869 2.11192 -2.9
      vertex 0.664386 -2.04477 -2.9
      vertex 0.664386 2.04477 -2.9
    endloop
  endfacet
  facet normal 0 0 1
    outer loop
      vertex 0.402869 2.11192 -2.9
      vertex 0.402869 -2.11192 -2.9
      vertex 0.664386 -2.04477 -2.9
    endloop
  endfacet
  facet normal 0 0 1
    outer loop
      vertex 0.134999 2.14576 -2.9
      vertex 0.402869 -2.11192 -2.9
      vertex 0.402869 2.11192 -2.9
    endloop
  endfacet
  facet normal 0 0 1
    outer loop
      vertex 0.134999 2.14576 -2.9
      vertex 0.134999 -2.14576 -2.9
      vertex 0.402869 -2.11192 -2.9
    endloop
  endfacet
  facet normal -0 0 1
    outer loop
      vertex -0.134999 2.14576 -2.9
      vertex 0.134999 -2.14576 -2.9
      vertex 0.134999 2.14576 -2.9
    endloop
  endfacet
  facet normal 0 0 1
    outer loop
      vertex -0.134999 2.14576 -2.9
      vertex -0.134999 -2.14576 -2.9
      vertex 0.134999 -2.14576 -2.9
    endloop
  endfacet
  facet normal -0 0 1
    outer loop
      vertex -0.402869 2.11192 -2.9
      vertex -0.134999 -2.14576 -2.9
      vertex -0.134999 2.14576 -2.9
    endloop
  endfacet
  facet normal 0 0 1
    outer loop
      vertex -0.402869 2.11192 -2.9
      vertex -0.402869 -2.11192 -2.9
      vertex -0.134999 -2.14576 -2.9
    endloop
  endfacet
  facet normal -0 0 1
    outer loop
      vertex -0.664386 2.04477 -2.9
      vertex -0.402869 -2.11192 -2.9
      vertex -0.402869 2.11192 -2.9
    endloop
  endfacet
  facet normal 0 0 1
    outer loop
      vertex -0.664386 2.04477 -2.9
      vertex -0.664386 -2.04477 -2.9
      vertex -0.402869 -2.11192 -2.9
    endloop
  endfacet
  facet normal -0 0 1
    outer loop
      vertex -0.915425 1.94538 -2.9
      vertex -0.664386 -2.04477 -2.9
      vertex -0.664386 2.04477 -2.9
    endloop
  endfacet
  facet normal 0 0 1
    outer loop
      vertex -0.915425 1.94538 -2.9
      vertex -0.915425 -1.94538 -2.9
      vertex -0.664386 -2.04477 -2.9
    endloop
  endfacet
  facet normal -0 0 1
    outer loop
      vertex -1.15203 1.8153 -2.9
      vertex -0.915425 -1.94538 -2.9
      vertex -0.915425 1.94538 -2.9
    endloop
  endfacet
  facet normal 0 0 1
    outer loop
      vertex -1.15203 1.8153 -2.9
      vertex -1.15203 -1.8153 -2.9
      vertex -0.915425 -1.94538 -2.9
    endloop
  endfacet
  facet normal -0 0 1
    outer loop
      vertex -1.37046 1.6566 -2.9
      vertex -1.15203 -1.8153 -2.9
      vertex -1.15203 1.8153 -2.9
    endloop
  endfacet
  facet normal 0 0 1
    outer loop
      vertex -1.37046 1.6566 -2.9
      vertex -1.37046 -1.6566 -2.9
      vertex -1.15203 -1.8153 -2.9
    endloop
  endfacet
  facet normal -0 0 1
    outer loop
      vertex -1.56728 1.47178 -2.9
      vertex -1.37046 -1.6566 -2.9
      vertex -1.37046 1.6566 -2.9
    endloop
  endfacet
  facet normal 0 0 1
    outer loop
      vertex -1.56728 1.47178 -2.9
      vertex -1.56728 -1.47178 -2.9
      vertex -1.37046 -1.6566 -2.9
    endloop
  endfacet
  facet normal -0 0 1
    outer loop
      vertex -1.73939 1.26374 -2.9
      vertex -1.56728 -1.47178 -2.9
      vertex -1.56728 1.47178 -2.9
    endloop
  endfacet
  facet normal 0 0 1
    outer loop
      vertex -1.73939 1.26374 -2.9
      vertex -1.73939 -1.26374 -2.9
      vertex -1.56728 -1.47178 -2.9
    endloop
  endfacet
  facet normal -0 0 1
    outer loop
      vertex -1.88406 1.03577 -2.9
      vertex -1.73939 -1.26374 -2.9
      vertex -1.73939 1.26374 -2.9
    endloop
  endfacet
  facet normal 0 0 1
    outer loop
      vertex -1.88406 1.03577 -2.9
      vertex -1.88406 -1.03577 -2.9
      vertex -1.73939 -1.26374 -2.9
    endloop
  endfacet
  facet normal -0 0 1
    outer loop
      vertex -1.99902 0.791468 -2.9
      vertex -1.88406 -1.03577 -2.9
      vertex -1.88406 1.03577 -2.9
    endloop
  endfacet
  facet normal 0 0 1
    outer loop
      vertex -1.99902 0.791468 -2.9
      vertex -1.99902 -0.791468 -2.9
      vertex -1.88406 -1.03577 -2.9
    endloop
  endfacet
  facet normal -0 0 1
    outer loop
      vertex -2.08245 0.534683 -2.9
      vertex -1.99902 -0.791468 -2.9
      vertex -1.99902 0.791468 -2.9
    endloop
  endfacet
  facet normal 0 0 1
    outer loop
      vertex -2.08245 0.534683 -2.9
      vertex -2.08245 -0.534683 -2.9
      vertex -1.99902 -0.791468 -2.9
    endloop
  endfacet
  facet normal -0 0 1
    outer loop
      vertex -2.13305 0.269466 -2.9
      vertex -2.08245 -0.534683 -2.9
      vertex -2.08245 0.534683 -2.9
    endloop
  endfacet
  facet normal 0 0 1
    outer loop
      vertex -2.13305 0.269466 -2.9
      vertex -2.13305 -0.269466 -2.9
      vertex -2.08245 -0.534683 -2.9
    endloop
  endfacet
  facet normal 0 -0 1
    outer loop
      vertex -2.13305 -0.269466 -2.9
      vertex -2.13305 0.269466 -2.9
      vertex -2.15 0 -2.9
    endloop
  endfacet
  facet normal 0.368114 0.929781 -0
    outer loop
      vertex -0.664386 -2.04477 -2.9
      vertex -0.915425 -1.94538 -0.599999
      vertex -0.664386 -2.04477 -0.599999
    endloop
  endfacet
  facet normal 0.368114 0.929781 0
    outer loop
      vertex -0.915425 -1.94538 -0.599999
      vertex -0.664386 -2.04477 -2.9
      vertex -0.915425 -1.94538 -2.9
    endloop
  endfacet
  facet normal 0 0 -1
    outer loop
      vertex 2.13305 -0.269466 -0.599999
      vertex 2.13305 0.269466 -0.599999
      vertex 2.15 0 -0.599999
    endloop
  endfacet
  facet normal 0 0 -1
    outer loop
      vertex 2.08245 -0.534683 -0.599999
      vertex 2.13305 0.269466 -0.599999
      vertex 2.13305 -0.269466 -0.599999
    endloop
  endfacet
  facet normal 0 0 -1
    outer loop
      vertex 2.08245 -0.534683 -0.599999
      vertex 2.08245 0.534683 -0.599999
      vertex 2.13305 0.269466 -0.599999
    endloop
  endfacet
  facet normal 0 0 -1
    outer loop
      vertex 1.99902 -0.791468 -0.599999
      vertex 2.08245 0.534683 -0.599999
      vertex 2.08245 -0.534683 -0.599999
    endloop
  endfacet
  facet normal 0 0 -1
    outer loop
      vertex 1.99902 -0.791468 -0.599999
      vertex 1.99902 0.791468 -0.599999
      vertex 2.08245 0.534683 -0.599999
    endloop
  endfacet
  facet normal 0 0 -1
    outer loop
      vertex 1.88406 -1.03577 -0.599999
      vertex 1.99902 0.791468 -0.599999
      vertex 1.99902 -0.791468 -0.599999
    endloop
  endfacet
  facet normal 0 0 -1
    outer loop
      vertex 1.88406 -1.03577 -0.599999
      vertex 1.88406 1.03577 -0.599999
      vertex 1.99902 0.791468 -0.599999
    endloop
  endfacet
  facet normal 0 0 -1
    outer loop
      vertex 1.73939 -1.26374 -0.599999
      vertex 1.88406 1.03577 -0.599999
      vertex 1.88406 -1.03577 -0.599999
    endloop
  endfacet
  facet normal 0 0 -1
    outer loop
      vertex 1.73939 -1.26374 -0.599999
      vertex 1.73939 1.26374 -0.599999
      vertex 1.88406 1.03577 -0.599999
    endloop
  endfacet
  facet normal 0 0 -1
    outer loop
      vertex 1.56728 -1.47178 -0.599999
      vertex 1.73939 1.26374 -0.599999
      vertex 1.73939 -1.26374 -0.599999
    endloop
  endfacet
  facet normal 0 0 -1
    outer loop
      vertex 1.56728 -1.47178 -0.599999
      vertex 1.56728 1.47178 -0.599999
      vertex 1.73939 1.26374 -0.599999
    endloop
  endfacet
  facet normal 0 0 -1
    outer loop
      vertex 1.37046 -1.6566 -0.599999
      vertex 1.56728 1.47178 -0.599999
      vertex 1.56728 -1.47178 -0.599999
    endloop
  endfacet
  facet normal 0 0 -1
    outer loop
      vertex 1.37046 -1.6566 -0.599999
      vertex 1.37046 1.6566 -0.599999
      vertex 1.56728 1.47178 -0.599999
    endloop
  endfacet
  facet normal 0 0 -1
    outer loop
      vertex 1.15203 -1.8153 -0.599999
      vertex 1.37046 1.6566 -0.599999
      vertex 1.37046 -1.6566 -0.599999
    endloop
  endfacet
  facet normal 0 0 -1
    outer loop
      vertex 1.15203 -1.8153 -0.599999
      vertex 1.15203 1.8153 -0.599999
      vertex 1.37046 1.6566 -0.599999
    endloop
  endfacet
  facet normal 0 0 -1
    outer loop
      vertex 0.915425 -1.94538 -0.599999
      vertex 1.15203 1.8153 -0.599999
      vertex 1.15203 -1.8153 -0.599999
    endloop
  endfacet
  facet normal 0 0 -1
    outer loop
      vertex 0.915425 -1.94538 -0.599999
      vertex 0.915425 1.94538 -0.599999
      vertex 1.15203 1.8153 -0.599999
    endloop
  endfacet
  facet normal 0 0 -1
    outer loop
      vertex 0.664386 -2.04477 -0.599999
      vertex 0.915425 1.94538 -0.599999
      vertex 0.915425 -1.94538 -0.599999
    endloop
  endfacet
  facet normal 0 0 -1
    outer loop
      vertex 0.664386 -2.04477 -0.599999
      vertex 0.664386 2.04477 -0.599999
      vertex 0.915425 1.94538 -0.599999
    endloop
  endfacet
  facet normal 0 0 -1
    outer loop
      vertex 0.402869 -2.11192 -0.599999
      vertex 0.664386 2.04477 -0.599999
      vertex 0.664386 -2.04477 -0.599999
    endloop
  endfacet
  facet normal 0 0 -1
    outer loop
      vertex 0.402869 -2.11192 -0.599999
      vertex 0.402869 2.11192 -0.599999
      vertex 0.664386 2.04477 -0.599999
    endloop
  endfacet
  facet normal 0 0 -1
    outer loop
      vertex 0.134999 -2.14576 -0.599999
      vertex 0.402869 2.11192 -0.599999
      vertex 0.402869 -2.11192 -0.599999
    endloop
  endfacet
  facet normal 0 0 -1
    outer loop
      vertex 0.134999 -2.14576 -0.599999
      vertex 0.134999 2.14576 -0.599999
      vertex 0.402869 2.11192 -0.599999
    endloop
  endfacet
  facet normal 0 0 -1
    outer loop
      vertex -0.134999 -2.14576 -0.599999
      vertex 0.134999 2.14576 -0.599999
      vertex 0.134999 -2.14576 -0.599999
    endloop
  endfacet
  facet normal 0 0 -1
    outer loop
      vertex -0.134999 -2.14576 -0.599999
      vertex -0.134999 2.14576 -0.599999
      vertex 0.134999 2.14576 -0.599999
    endloop
  endfacet
  facet normal 0 0 -1
    outer loop
      vertex -0.402869 -2.11192 -0.599999
      vertex -0.134999 2.14576 -0.599999
      vertex -0.134999 -2.14576 -0.599999
    endloop
  endfacet
  facet normal 0 0 -1
    outer loop
      vertex -0.402869 -2.11192 -0.599999
      vertex -0.402869 2.11192 -0.599999
      vertex -0.134999 2.14576 -0.599999
    endloop
  endfacet
  facet normal 0 0 -1
    outer loop
      vertex -0.664386 -2.04477 -0.599999
      vertex -0.402869 2.11192 -0.599999
      vertex -0.402869 -2.11192 -0.599999
    endloop
  endfacet
  facet normal 0 0 -1
    outer loop
      vertex -0.664386 -2.04477 -0.599999
      vertex -0.664386 2.04477 -0.599999
      vertex -0.402869 2.11192 -0.599999
    endloop
  endfacet
  facet normal 0 0 -1
    outer loop
      vertex -0.915425 -1.94538 -0.599999
      vertex -0.664386 2.04477 -0.599999
      vertex -0.664386 -2.04477 -0.599999
    endloop
  endfacet
  facet normal 0 0 -1
    outer loop
      vertex -0.915425 -1.94538 -0.599999
      vertex -0.915425 1.94538 -0.599999
      vertex -0.664386 2.04477 -0.599999
    endloop
  endfacet
  facet normal 0 0 -1
    outer loop
      vertex -1.15203 -1.8153 -0.599999
      vertex -0.915425 1.94538 -0.599999
      vertex -0.915425 -1.94538 -0.599999
    endloop
  endfacet
  facet normal 0 0 -1
    outer loop
      vertex -1.15203 -1.8153 -0.599999
      vertex -1.15203 1.8153 -0.599999
      vertex -0.915425 1.94538 -0.599999
    endloop
  endfacet
  facet normal 0 0 -1
    outer loop
      vertex -1.37046 -1.6566 -0.599999
      vertex -1.15203 1.8153 -0.599999
      vertex -1.15203 -1.8153 -0.599999
    endloop
  endfacet
  facet normal 0 0 -1
    outer loop
      vertex -1.37046 -1.6566 -0.599999
      vertex -1.37046 1.6566 -0.599999
      vertex -1.15203 1.8153 -0.599999
    endloop
  endfacet
  facet normal 0 0 -1
    outer loop
      vertex -1.56728 -1.47178 -0.599999
      vertex -1.37046 1.6566 -0.599999
      vertex -1.37046 -1.6566 -0.599999
    endloop
  endfacet
  facet normal 0 0 -1
    outer loop
      vertex -1.56728 -1.47178 -0.599999
      vertex -1.56728 1.47178 -0.599999
      vertex -1.37046 1.6566 -0.599999
    endloop
  endfacet
  facet normal 0 0 -1
    outer loop
      vertex -1.73939 -1.26374 -0.599999
      vertex -1.56728 1.47178 -0.599999
      vertex -1.56728 -1.47178 -0.599999
    endloop
  endfacet
  facet normal 0 0 -1
    outer loop
      vertex -1.73939 -1.26374 -0.599999
      vertex -1.73939 1.26374 -0.599999
      vertex -1.56728 1.47178 -0.599999
    endloop
  endfacet
  facet normal 0 0 -1
    outer loop
      vertex -1.88406 -1.03577 -0.599999
      vertex -1.73939 1.26374 -0.599999
      vertex -1.73939 -1.26374 -0.599999
    endloop
  endfacet
  facet normal 0 0 -1
    outer loop
      vertex -1.88406 -1.03577 -0.599999
      vertex -1.88406 1.03577 -0.599999
      vertex -1.73939 1.26374 -0.599999
    endloop
  endfacet
  facet normal 0 0 -1
    outer loop
      vertex -1.99902 -0.791468 -0.599999
      vertex -1.88406 1.03577 -0.599999
      vertex -1.88406 -1.03577 -0.599999
    endloop
  endfacet
  facet normal 0 0 -1
    outer loop
      vertex -1.99902 -0.791468 -0.599999
      vertex -1.99902 0.791468 -0.599999
      vertex -1.88406 1.03577 -0.599999
    endloop
  endfacet
  facet normal 0 0 -1
    outer loop
      vertex -2.08245 -0.534683 -0.599999
      vertex -1.99902 0.791468 -0.599999
      vertex -1.99902 -0.791468 -0.599999
    endloop
  endfacet
  facet normal 0 0 -1
    outer loop
      vertex -2.08245 -0.534683 -0.599999
      vertex -2.08245 0.534683 -0.599999
      vertex -1.99902 0.791468 -0.599999
    endloop
  endfacet
  facet normal 0 0 -1
    outer loop
      vertex -2.13305 -0.269466 -0.599999
      vertex -2.08245 0.534683 -0.599999
      vertex -2.08245 -0.534683 -0.599999
    endloop
  endfacet
  facet normal 0 0 -1
    outer loop
      vertex -2.13305 -0.269466 -0.599999
      vertex -2.13305 0.269466 -0.599999
      vertex -2.08245 0.534683 -0.599999
    endloop
  endfacet
  facet normal 0 -0 -1
    outer loop
      vertex -2.13305 0.269466 -0.599999
      vertex -2.13305 -0.269466 -0.599999
      vertex -2.15 0 -0.599999
    endloop
  endfacet
  facet normal -0.684535 0.72898 0
    outer loop
      vertex 1.56728 -1.47178 -2.9
      vertex 1.37046 -1.6566 -0.599999
      vertex 1.56728 -1.47178 -0.599999
    endloop
  endfacet
  facet normal -0.684535 0.72898 0
    outer loop
      vertex 1.37046 -1.6566 -0.599999
      vertex 1.56728 -1.47178 -2.9
      vertex 1.37046 -1.6566 -2.9
    endloop
  endfacet
  facet normal -0.587788 0.809015 0
    outer loop
      vertex 1.37046 -1.6566 -2.9
      vertex 1.15203 -1.8153 -0.599999
      vertex 1.37046 -1.6566 -0.599999
    endloop
  endfacet
  facet normal -0.587788 0.809015 0
    outer loop
      vertex 1.15203 -1.8153 -0.599999
      vertex 1.37046 -1.6566 -2.9
      vertex 1.15203 -1.8153 -2.9
    endloop
  endfacet
  facet normal 0.248703 0.96858 -0
    outer loop
      vertex -0.402869 -2.11192 -2.9
      vertex -0.664386 -2.04477 -0.599999
      vertex -0.402869 -2.11192 -0.599999
    endloop
  endfacet
  facet normal 0.248703 0.96858 0
    outer loop
      vertex -0.664386 -2.04477 -0.599999
      vertex -0.402869 -2.11192 -2.9
      vertex -0.664386 -2.04477 -2.9
    endloop
  endfacet
  facet normal 0.125334 0.992115 -0
    outer loop
      vertex -0.134999 -2.14576 -2.9
      vertex -0.402869 -2.11192 -0.599999
      vertex -0.134999 -2.14576 -0.599999
    endloop
  endfacet
  facet normal 0.125334 0.992115 0
    outer loop
      vertex -0.402869 -2.11192 -0.599999
      vertex -0.134999 -2.14576 -2.9
      vertex -0.402869 -2.11192 -2.9
    endloop
  endfacet
  facet normal 0.844335 0.535816 0
    outer loop
      vertex -1.73939 -1.26374 -0.599999
      vertex -1.88406 -1.03577 -2.9
      vertex -1.88406 -1.03577 -0.599999
    endloop
  endfacet
  facet normal 0.844335 0.535816 0
    outer loop
      vertex -1.88406 -1.03577 -2.9
      vertex -1.73939 -1.26374 -0.599999
      vertex -1.73939 -1.26374 -2.9
    endloop
  endfacet
  facet normal 0.844335 -0.535816 0
    outer loop
      vertex -1.88406 1.03577 -0.599999
      vertex -1.73939 1.26374 -2.9
      vertex -1.73939 1.26374 -0.599999
    endloop
  endfacet
  facet normal 0.844335 -0.535816 0
    outer loop
      vertex -1.73939 1.26374 -2.9
      vertex -1.88406 1.03577 -0.599999
      vertex -1.88406 1.03577 -2.9
    endloop
  endfacet
  facet normal 1 -0 0
    outer loop
      vertex -2.6875 -5.9125 9.8
      vertex -2.6875 -2.6875 8
      vertex -2.6875 -2.6875 9.8
    endloop
  endfacet
  facet normal 1 0 0
    outer loop
      vertex -2.6875 -2.6875 8
      vertex -2.6875 -5.9125 9.8
      vertex -2.6875 -5.9125 8
    endloop
  endfacet
  facet normal -0 0 1
    outer loop
      vertex -5.9125 -2.6875 9.8
      vertex -2.6875 -5.9125 9.8
      vertex -2.6875 -2.6875 9.8
    endloop
  endfacet
  facet normal 0 0 1
    outer loop
      vertex -2.6875 -5.9125 9.8
      vertex -5.9125 -2.6875 9.8
      vertex -5.9125 -5.9125 9.8
    endloop
  endfacet
  facet normal -1 0 0
    outer loop
      vertex -5.9125 -5.9125 8
      vertex -5.9125 -2.6875 9.8
      vertex -5.9125 -2.6875 8
    endloop
  endfacet
  facet normal -1 -0 0
    outer loop
      vertex -5.9125 -2.6875 9.8
      vertex -5.9125 -5.9125 8
      vertex -5.9125 -5.9125 9.8
    endloop
  endfacet
  facet normal 0 1 -0
    outer loop
      vertex -2.6875 -2.6875 8
      vertex -5.9125 -2.6875 9.8
      vertex -2.6875 -2.6875 9.8
    endloop
  endfacet
  facet normal 0 1 0
    outer loop
      vertex -5.9125 -2.6875 9.8
      vertex -2.6875 -2.6875 8
      vertex -5.9125 -2.6875 8
    endloop
  endfacet
  facet normal 0 -1 0
    outer loop
      vertex -5.9125 -5.9125 8
      vertex -2.6875 -5.9125 9.8
      vertex -5.9125 -5.9125 9.8
    endloop
  endfacet
  facet normal 0 -1 -0
    outer loop
      vertex -2.6875 -5.9125 9.8
      vertex -5.9125 -5.9125 8
      vertex -2.6875 -5.9125 8
    endloop
  endfacet
  facet normal 1 -0 0
    outer loop
      vertex 5.9125 2.6875 9.8
      vertex 5.9125 5.9125 8
      vertex 5.9125 5.9125 9.8
    endloop
  endfacet
  facet normal 1 0 0
    outer loop
      vertex 5.9125 5.9125 8
      vertex 5.9125 2.6875 9.8
      vertex 5.9125 2.6875 8
    endloop
  endfacet
  facet normal -0 0 1
    outer loop
      vertex 2.6875 5.9125 9.8
      vertex 5.9125 2.6875 9.8
      vertex 5.9125 5.9125 9.8
    endloop
  endfacet
  facet normal 0 0 1
    outer loop
      vertex 5.9125 2.6875 9.8
      vertex 2.6875 5.9125 9.8
      vertex 2.6875 2.6875 9.8
    endloop
  endfacet
  facet normal -1 0 0
    outer loop
      vertex 2.6875 2.6875 8
      vertex 2.6875 5.9125 9.8
      vertex 2.6875 5.9125 8
    endloop
  endfacet
  facet normal -1 -0 0
    outer loop
      vertex 2.6875 5.9125 9.8
      vertex 2.6875 2.6875 8
      vertex 2.6875 2.6875 9.8
    endloop
  endfacet
  facet normal 0 1 -0
    outer loop
      vertex 5.9125 5.9125 8
      vertex 2.6875 5.9125 9.8
      vertex 5.9125 5.9125 9.8
    endloop
  endfacet
  facet normal 0 1 0
    outer loop
      vertex 2.6875 5.9125 9.8
      vertex 5.9125 5.9125 8
      vertex 2.6875 5.9125 8
    endloop
  endfacet
  facet normal 0 -1 0
    outer loop
      vertex 2.6875 2.6875 8
      vertex 5.9125 2.6875 9.8
      vertex 2.6875 2.6875 9.8
    endloop
  endfacet
  facet normal 0 -1 -0
    outer loop
      vertex 5.9125 2.6875 9.8
      vertex 2.6875 2.6875 8
      vertex 5.9125 2.6875 8
    endloop
  endfacet
endsolid OpenSCAD_Model
