solid OpenSCAD_Model
  facet normal -0.156434 0.987688 0
    outer loop
      vertex -0.970327 9.23205 0
      vertex -1.93002 9.08005 20
      vertex -0.970327 9.23205 20
    endloop
  endfacet
  facet normal -0.156434 0.987688 0
    outer loop
      vertex -1.93002 9.08005 20
      vertex -0.970327 9.23205 0
      vertex -1.93002 9.08005 0
    endloop
  endfacet
  facet normal 0.987688 0.156434 0
    outer loop
      vertex 9.23205 0.970327 20
      vertex 9.08005 1.93002 0
      vertex 9.08005 1.93002 20
    endloop
  endfacet
  facet normal 0.987688 0.156434 0
    outer loop
      vertex 9.08005 1.93002 0
      vertex 9.23205 0.970327 20
      vertex 9.23205 0.970327 0
    endloop
  endfacet
  facet normal 0.0523332 0.99863 -0
    outer loop
      vertex 0.970327 9.23205 0
      vertex 0 9.2829 20
      vertex 0.970327 9.23205 20
    endloop
  endfacet
  facet normal 0.0523332 0.99863 0
    outer loop
      vertex 0 9.2829 20
      vertex 0.970327 9.23205 0
      vertex 0 9.2829 0
    endloop
  endfacet
  facet normal 0.838672 0.544637 0
    outer loop
      vertex 8.03923 4.64145 20
      vertex 7.51003 5.45635 0
      vertex 7.51003 5.45635 20
    endloop
  endfacet
  facet normal 0.838672 0.544637 0
    outer loop
      vertex 7.51003 5.45635 0
      vertex 8.03923 4.64145 20
      vertex 8.03923 4.64145 0
    endloop
  endfacet
  facet normal 0.258815 -0.965927 0
    outer loop
      vertex 1.93002 -9.08005 0
      vertex 2.86857 -8.82857 20
      vertex 1.93002 -9.08005 20
    endloop
  endfacet
  facet normal 0.258815 -0.965927 0
    outer loop
      vertex 2.86857 -8.82857 20
      vertex 1.93002 -9.08005 0
      vertex 2.86857 -8.82857 0
    endloop
  endfacet
  facet normal 0.707107 0.707107 0
    outer loop
      vertex 6.89854 6.21147 20
      vertex 6.21147 6.89854 0
      vertex 6.21147 6.89854 20
    endloop
  endfacet
  facet normal 0.707107 0.707107 0
    outer loop
      vertex 6.21147 6.89854 0
      vertex 6.89854 6.21147 20
      vertex 6.89854 6.21147 0
    endloop
  endfacet
  facet normal -0.891007 0.453989 0
    outer loop
      vertex -8.48035 3.7757 0
      vertex -8.03923 4.64145 20
      vertex -8.03923 4.64145 0
    endloop
  endfacet
  facet normal -0.891007 0.453989 0
    outer loop
      vertex -8.03923 4.64145 20
      vertex -8.48035 3.7757 0
      vertex -8.48035 3.7757 20
    endloop
  endfacet
  facet normal 0.707107 -0.707107 0
    outer loop
      vertex 6.21147 -6.89854 20
      vertex 6.89854 -6.21147 0
      vertex 6.89854 -6.21147 20
    endloop
  endfacet
  facet normal 0.707107 -0.707107 0
    outer loop
      vertex 6.89854 -6.21147 0
      vertex 6.21147 -6.89854 20
      vertex 6.21147 -6.89854 0
    endloop
  endfacet
  facet normal -0.99863 0.0523332 0
    outer loop
      vertex -9.2829 0 0
      vertex -9.23205 0.970327 20
      vertex -9.23205 0.970327 0
    endloop
  endfacet
  facet normal -0.99863 0.0523332 0
    outer loop
      vertex -9.23205 0.970327 20
      vertex -9.2829 0 0
      vertex -9.2829 0 20
    endloop
  endfacet
  facet normal 0.987688 -0.156434 0
    outer loop
      vertex 9.08005 -1.93002 20
      vertex 9.23205 -0.970327 0
      vertex 9.23205 -0.970327 20
    endloop
  endfacet
  facet normal 0.987688 -0.156434 0
    outer loop
      vertex 9.23205 -0.970327 0
      vertex 9.08005 -1.93002 20
      vertex 9.08005 -1.93002 0
    endloop
  endfacet
  facet normal -0.453989 0.891007 0
    outer loop
      vertex -3.7757 8.48035 0
      vertex -4.64145 8.03923 20
      vertex -3.7757 8.48035 20
    endloop
  endfacet
  facet normal -0.453989 0.891007 0
    outer loop
      vertex -4.64145 8.03923 20
      vertex -3.7757 8.48035 0
      vertex -4.64145 8.03923 0
    endloop
  endfacet
  facet normal 0.258815 0.965927 -0
    outer loop
      vertex 2.86857 8.82857 0
      vertex 1.93002 9.08005 20
      vertex 2.86857 8.82857 20
    endloop
  endfacet
  facet normal 0.258815 0.965927 0
    outer loop
      vertex 1.93002 9.08005 20
      vertex 2.86857 8.82857 0
      vertex 1.93002 9.08005 0
    endloop
  endfacet
  facet normal 0.777143 -0.629324 0
    outer loop
      vertex 6.89854 -6.21147 20
      vertex 7.51003 -5.45635 0
      vertex 7.51003 -5.45635 20
    endloop
  endfacet
  facet normal 0.777143 -0.629324 0
    outer loop
      vertex 7.51003 -5.45635 0
      vertex 6.89854 -6.21147 20
      vertex 6.89854 -6.21147 0
    endloop
  endfacet
  facet normal 0.156434 0.987688 -0
    outer loop
      vertex 1.93002 9.08005 0
      vertex 0.970327 9.23205 20
      vertex 1.93002 9.08005 20
    endloop
  endfacet
  facet normal 0.156434 0.987688 0
    outer loop
      vertex 0.970327 9.23205 20
      vertex 1.93002 9.08005 0
      vertex 0.970327 9.23205 0
    endloop
  endfacet
  facet normal 0.99863 0.0523332 0
    outer loop
      vertex 9.2829 0 20
      vertex 9.23205 0.970327 0
      vertex 9.23205 0.970327 20
    endloop
  endfacet
  facet normal 0.99863 0.0523332 0
    outer loop
      vertex 9.23205 0.970327 0
      vertex 9.2829 0 20
      vertex 9.2829 0 0
    endloop
  endfacet
  facet normal -0.258815 0.965927 0
    outer loop
      vertex -1.93002 9.08005 0
      vertex -2.86857 8.82857 20
      vertex -1.93002 9.08005 20
    endloop
  endfacet
  facet normal -0.258815 0.965927 0
    outer loop
      vertex -2.86857 8.82857 20
      vertex -1.93002 9.08005 0
      vertex -2.86857 8.82857 0
    endloop
  endfacet
  facet normal 0.965927 0.258815 0
    outer loop
      vertex 9.08005 1.93002 20
      vertex 8.82857 2.86857 0
      vertex 8.82857 2.86857 20
    endloop
  endfacet
  facet normal 0.965927 0.258815 0
    outer loop
      vertex 8.82857 2.86857 0
      vertex 9.08005 1.93002 20
      vertex 9.08005 1.93002 0
    endloop
  endfacet
  facet normal 0.933579 0.358373 0
    outer loop
      vertex 8.82857 2.86857 20
      vertex 8.48035 3.7757 0
      vertex 8.48035 3.7757 20
    endloop
  endfacet
  facet normal 0.933579 0.358373 0
    outer loop
      vertex 8.48035 3.7757 0
      vertex 8.82857 2.86857 20
      vertex 8.82857 2.86857 0
    endloop
  endfacet
  facet normal -0.358373 -0.933579 0
    outer loop
      vertex -3.7757 -8.48035 0
      vertex -2.86857 -8.82857 20
      vertex -3.7757 -8.48035 20
    endloop
  endfacet
  facet normal -0.358373 -0.933579 -0
    outer loop
      vertex -2.86857 -8.82857 20
      vertex -3.7757 -8.48035 0
      vertex -2.86857 -8.82857 0
    endloop
  endfacet
  facet normal 0.777143 0.629324 0
    outer loop
      vertex 7.51003 5.45635 20
      vertex 6.89854 6.21147 0
      vertex 6.89854 6.21147 20
    endloop
  endfacet
  facet normal 0.777143 0.629324 0
    outer loop
      vertex 6.89854 6.21147 0
      vertex 7.51003 5.45635 20
      vertex 7.51003 5.45635 0
    endloop
  endfacet
  facet normal -0.838672 0.544637 0
    outer loop
      vertex -8.03923 4.64145 0
      vertex -7.51003 5.45635 20
      vertex -7.51003 5.45635 0
    endloop
  endfacet
  facet normal -0.838672 0.544637 0
    outer loop
      vertex -7.51003 5.45635 20
      vertex -8.03923 4.64145 0
      vertex -8.03923 4.64145 20
    endloop
  endfacet
  facet normal -0.629324 0.777143 0
    outer loop
      vertex -5.45635 7.51003 0
      vertex -6.21147 6.89854 20
      vertex -5.45635 7.51003 20
    endloop
  endfacet
  facet normal -0.629324 0.777143 0
    outer loop
      vertex -6.21147 6.89854 20
      vertex -5.45635 7.51003 0
      vertex -6.21147 6.89854 0
    endloop
  endfacet
  facet normal 0.453989 0.891007 -0
    outer loop
      vertex 4.64145 8.03923 0
      vertex 3.7757 8.48035 20
      vertex 4.64145 8.03923 20
    endloop
  endfacet
  facet normal 0.453989 0.891007 0
    outer loop
      vertex 3.7757 8.48035 20
      vertex 4.64145 8.03923 0
      vertex 3.7757 8.48035 0
    endloop
  endfacet
  facet normal 0.965927 -0.258815 0
    outer loop
      vertex 8.82857 -2.86857 20
      vertex 9.08005 -1.93002 0
      vertex 9.08005 -1.93002 20
    endloop
  endfacet
  facet normal 0.965927 -0.258815 0
    outer loop
      vertex 9.08005 -1.93002 0
      vertex 8.82857 -2.86857 20
      vertex 8.82857 -2.86857 0
    endloop
  endfacet
  facet normal 0.933579 -0.358373 0
    outer loop
      vertex 8.48035 -3.7757 20
      vertex 8.82857 -2.86857 0
      vertex 8.82857 -2.86857 20
    endloop
  endfacet
  facet normal 0.933579 -0.358373 0
    outer loop
      vertex 8.82857 -2.86857 0
      vertex 8.48035 -3.7757 20
      vertex 8.48035 -3.7757 0
    endloop
  endfacet
  facet normal 0.99863 -0.0523332 0
    outer loop
      vertex 9.23205 -0.970327 20
      vertex 9.2829 0 0
      vertex 9.2829 0 20
    endloop
  endfacet
  facet normal 0.99863 -0.0523332 0
    outer loop
      vertex 9.2829 0 0
      vertex 9.23205 -0.970327 20
      vertex 9.23205 -0.970327 0
    endloop
  endfacet
  facet normal -0.933579 -0.358373 0
    outer loop
      vertex -8.48035 -3.7757 0
      vertex -8.82857 -2.86857 20
      vertex -8.82857 -2.86857 0
    endloop
  endfacet
  facet normal -0.933579 -0.358373 0
    outer loop
      vertex -8.82857 -2.86857 20
      vertex -8.48035 -3.7757 0
      vertex -8.48035 -3.7757 20
    endloop
  endfacet
  facet normal 0.156434 -0.987688 0
    outer loop
      vertex 0.970327 -9.23205 0
      vertex 1.93002 -9.08005 20
      vertex 0.970327 -9.23205 20
    endloop
  endfacet
  facet normal 0.156434 -0.987688 0
    outer loop
      vertex 1.93002 -9.08005 20
      vertex 0.970327 -9.23205 0
      vertex 1.93002 -9.08005 0
    endloop
  endfacet
  facet normal 0 0 -1
    outer loop
      vertex 3.225 -3.225 0
      vertex 9.2829 0 0
      vertex 9.23205 -0.970327 0
    endloop
  endfacet
  facet normal 0 0 -1
    outer loop
      vertex 3.225 -3.225 0
      vertex 9.23205 -0.970327 0
      vertex 9.08005 -1.93002 0
    endloop
  endfacet
  facet normal 0 0 -1
    outer loop
      vertex 3.225 3.225 0
      vertex 9.2829 0 0
      vertex 3.225 -3.225 0
    endloop
  endfacet
  facet normal 0 0 -1
    outer loop
      vertex 3.225 -3.225 0
      vertex 9.08005 -1.93002 0
      vertex 8.82857 -2.86857 0
    endloop
  endfacet
  facet normal 0 0 -1
    outer loop
      vertex 9.2829 0 0
      vertex 3.225 3.225 0
      vertex 9.23205 0.970327 0
    endloop
  endfacet
  facet normal 0 0 -1
    outer loop
      vertex 3.225 -3.225 0
      vertex 8.82857 -2.86857 0
      vertex 8.48035 -3.7757 0
    endloop
  endfacet
  facet normal 0 0 -1
    outer loop
      vertex 9.23205 0.970327 0
      vertex 3.225 3.225 0
      vertex 9.08005 1.93002 0
    endloop
  endfacet
  facet normal 0 0 -1
    outer loop
      vertex 3.225 -3.225 0
      vertex 8.48035 -3.7757 0
      vertex 8.03923 -4.64145 0
    endloop
  endfacet
  facet normal 0 0 -1
    outer loop
      vertex 9.08005 1.93002 0
      vertex 3.225 3.225 0
      vertex 8.82857 2.86857 0
    endloop
  endfacet
  facet normal 0 0 -1
    outer loop
      vertex 3.225 -3.225 0
      vertex 8.03923 -4.64145 0
      vertex 7.51003 -5.45635 0
    endloop
  endfacet
  facet normal 0 0 -1
    outer loop
      vertex 8.82857 2.86857 0
      vertex 3.225 3.225 0
      vertex 8.48035 3.7757 0
    endloop
  endfacet
  facet normal 0 0 -1
    outer loop
      vertex 3.225 -3.225 0
      vertex 7.51003 -5.45635 0
      vertex 6.89854 -6.21147 0
    endloop
  endfacet
  facet normal -0 0 -1
    outer loop
      vertex 8.48035 3.7757 0
      vertex 3.225 3.225 0
      vertex 8.03923 4.64145 0
    endloop
  endfacet
  facet normal 0 0 -1
    outer loop
      vertex 3.225 -3.225 0
      vertex 6.89854 -6.21147 0
      vertex 6.21147 -6.89854 0
    endloop
  endfacet
  facet normal -0 0 -1
    outer loop
      vertex 8.03923 4.64145 0
      vertex 3.225 3.225 0
      vertex 7.51003 5.45635 0
    endloop
  endfacet
  facet normal 0 0 -1
    outer loop
      vertex 3.225 -3.225 0
      vertex 6.21147 -6.89854 0
      vertex 5.45635 -7.51003 0
    endloop
  endfacet
  facet normal -0 0 -1
    outer loop
      vertex 7.51003 5.45635 0
      vertex 3.225 3.225 0
      vertex 6.89854 6.21147 0
    endloop
  endfacet
  facet normal 0 0 -1
    outer loop
      vertex 3.225 -3.225 0
      vertex 5.45635 -7.51003 0
      vertex 4.64145 -8.03923 0
    endloop
  endfacet
  facet normal -0 0 -1
    outer loop
      vertex 6.89854 6.21147 0
      vertex 3.225 3.225 0
      vertex 6.21147 6.89854 0
    endloop
  endfacet
  facet normal 0 0 -1
    outer loop
      vertex 3.225 -3.225 0
      vertex 4.64145 -8.03923 0
      vertex 3.7757 -8.48035 0
    endloop
  endfacet
  facet normal -0 0 -1
    outer loop
      vertex 6.21147 6.89854 0
      vertex 3.225 3.225 0
      vertex 5.45635 7.51003 0
    endloop
  endfacet
  facet normal -0 0 -1
    outer loop
      vertex 5.45635 7.51003 0
      vertex 3.225 3.225 0
      vertex 4.64145 8.03923 0
    endloop
  endfacet
  facet normal 0 0 -1
    outer loop
      vertex 2.86857 -8.82857 0
      vertex 3.225 -3.225 0
      vertex 3.7757 -8.48035 0
    endloop
  endfacet
  facet normal 0 0 -1
    outer loop
      vertex 1.93002 -9.08005 0
      vertex 3.225 -3.225 0
      vertex 2.86857 -8.82857 0
    endloop
  endfacet
  facet normal 0 0 -1
    outer loop
      vertex 0.970327 -9.23205 0
      vertex 3.225 -3.225 0
      vertex 1.93002 -9.08005 0
    endloop
  endfacet
  facet normal 0 0 -1
    outer loop
      vertex 0 -9.2829 0
      vertex 3.225 -3.225 0
      vertex 0.970327 -9.23205 0
    endloop
  endfacet
  facet normal 0 0 -1
    outer loop
      vertex -3.225 -3.225 0
      vertex 0 -9.2829 0
      vertex -0.970327 -9.23205 0
    endloop
  endfacet
  facet normal 0 0 -1
    outer loop
      vertex -3.225 -3.225 0
      vertex -0.970327 -9.23205 0
      vertex -1.93002 -9.08005 0
    endloop
  endfacet
  facet normal 0 0 -1
    outer loop
      vertex -3.225 -3.225 0
      vertex -1.93002 -9.08005 0
      vertex -2.86857 -8.82857 0
    endloop
  endfacet
  facet normal 0 0 -1
    outer loop
      vertex 0 -9.2829 0
      vertex -3.225 -3.225 0
      vertex 3.225 -3.225 0
    endloop
  endfacet
  facet normal 0 0 -1
    outer loop
      vertex -4.64145 -8.03923 0
      vertex -3.225 -3.225 0
      vertex -3.7757 -8.48035 0
    endloop
  endfacet
  facet normal 0 0 -1
    outer loop
      vertex -3.7757 -8.48035 0
      vertex -3.225 -3.225 0
      vertex -2.86857 -8.82857 0
    endloop
  endfacet
  facet normal -0 0 -1
    outer loop
      vertex 4.64145 8.03923 0
      vertex 3.225 3.225 0
      vertex 3.7757 8.48035 0
    endloop
  endfacet
  facet normal 0 0 -1
    outer loop
      vertex 3.225 3.225 0
      vertex 2.86857 8.82857 0
      vertex 3.7757 8.48035 0
    endloop
  endfacet
  facet normal 0 0 -1
    outer loop
      vertex 3.225 3.225 0
      vertex 1.93002 9.08005 0
      vertex 2.86857 8.82857 0
    endloop
  endfacet
  facet normal 0 0 -1
    outer loop
      vertex 3.225 3.225 0
      vertex 0.970327 9.23205 0
      vertex 1.93002 9.08005 0
    endloop
  endfacet
  facet normal 0 0 -1
    outer loop
      vertex 3.225 3.225 0
      vertex 0 9.2829 0
      vertex 0.970327 9.23205 0
    endloop
  endfacet
  facet normal 0 0 -1
    outer loop
      vertex -3.225 3.225 0
      vertex 0 9.2829 0
      vertex 3.225 3.225 0
    endloop
  endfacet
  facet normal 0 0 -1
    outer loop
      vertex 0 9.2829 0
      vertex -3.225 3.225 0
      vertex -0.970327 9.23205 0
    endloop
  endfacet
  facet normal 0 0 -1
    outer loop
      vertex -0.970327 9.23205 0
      vertex -3.225 3.225 0
      vertex -1.93002 9.08005 0
    endloop
  endfacet
  facet normal 0 0 -1
    outer loop
      vertex -1.93002 9.08005 0
      vertex -3.225 3.225 0
      vertex -2.86857 8.82857 0
    endloop
  endfacet
  facet normal 0 0 -1
    outer loop
      vertex -3.225 3.225 0
      vertex -3.7757 8.48035 0
      vertex -2.86857 8.82857 0
    endloop
  endfacet
  facet normal 0 0 -1
    outer loop
      vertex -5.45635 -7.51003 0
      vertex -3.225 -3.225 0
      vertex -4.64145 -8.03923 0
    endloop
  endfacet
  facet normal 0 0 -1
    outer loop
      vertex -6.21147 -6.89854 0
      vertex -3.225 -3.225 0
      vertex -5.45635 -7.51003 0
    endloop
  endfacet
  facet normal 0 0 -1
    outer loop
      vertex -3.225 3.225 0
      vertex -4.64145 8.03923 0
      vertex -3.7757 8.48035 0
    endloop
  endfacet
  facet normal 0 0 -1
    outer loop
      vertex -6.89854 -6.21147 0
      vertex -3.225 -3.225 0
      vertex -6.21147 -6.89854 0
    endloop
  endfacet
  facet normal 0 0 -1
    outer loop
      vertex -3.225 3.225 0
      vertex -5.45635 7.51003 0
      vertex -4.64145 8.03923 0
    endloop
  endfacet
  facet normal 0 0 -1
    outer loop
      vertex -7.51003 -5.45635 0
      vertex -3.225 -3.225 0
      vertex -6.89854 -6.21147 0
    endloop
  endfacet
  facet normal 0 0 -1
    outer loop
      vertex -3.225 3.225 0
      vertex -6.21147 6.89854 0
      vertex -5.45635 7.51003 0
    endloop
  endfacet
  facet normal 0 0 -1
    outer loop
      vertex -8.03923 -4.64145 0
      vertex -3.225 -3.225 0
      vertex -7.51003 -5.45635 0
    endloop
  endfacet
  facet normal 0 0 -1
    outer loop
      vertex -3.225 3.225 0
      vertex -6.89854 6.21147 0
      vertex -6.21147 6.89854 0
    endloop
  endfacet
  facet normal 0 0 -1
    outer loop
      vertex -8.48035 -3.7757 0
      vertex -3.225 -3.225 0
      vertex -8.03923 -4.64145 0
    endloop
  endfacet
  facet normal 0 0 -1
    outer loop
      vertex -3.225 3.225 0
      vertex -7.51003 5.45635 0
      vertex -6.89854 6.21147 0
    endloop
  endfacet
  facet normal 0 0 -1
    outer loop
      vertex -8.82857 -2.86857 0
      vertex -3.225 -3.225 0
      vertex -8.48035 -3.7757 0
    endloop
  endfacet
  facet normal 0 0 -1
    outer loop
      vertex -3.225 3.225 0
      vertex -8.03923 4.64145 0
      vertex -7.51003 5.45635 0
    endloop
  endfacet
  facet normal 0 0 -1
    outer loop
      vertex -9.08005 -1.93002 0
      vertex -3.225 -3.225 0
      vertex -8.82857 -2.86857 0
    endloop
  endfacet
  facet normal 0 0 -1
    outer loop
      vertex -3.225 3.225 0
      vertex -8.48035 3.7757 0
      vertex -8.03923 4.64145 0
    endloop
  endfacet
  facet normal 0 0 -1
    outer loop
      vertex -9.23205 -0.970327 0
      vertex -3.225 -3.225 0
      vertex -9.08005 -1.93002 0
    endloop
  endfacet
  facet normal -0 0 -1
    outer loop
      vertex -3.225 3.225 0
      vertex -8.82857 2.86857 0
      vertex -8.48035 3.7757 0
    endloop
  endfacet
  facet normal 0 0 -1
    outer loop
      vertex -9.2829 0 0
      vertex -3.225 -3.225 0
      vertex -9.23205 -0.970327 0
    endloop
  endfacet
  facet normal 0 0 -1
    outer loop
      vertex -3.225 3.225 0
      vertex -9.08005 1.93002 0
      vertex -8.82857 2.86857 0
    endloop
  endfacet
  facet normal 0 0 -1
    outer loop
      vertex -3.225 -3.225 0
      vertex -9.2829 0 0
      vertex -3.225 3.225 0
    endloop
  endfacet
  facet normal 0 0 -1
    outer loop
      vertex -3.225 3.225 0
      vertex -9.23205 0.970327 0
      vertex -9.08005 1.93002 0
    endloop
  endfacet
  facet normal 0 0 -1
    outer loop
      vertex -3.225 3.225 0
      vertex -9.2829 0 0
      vertex -9.23205 0.970327 0
    endloop
  endfacet
  facet normal -0.987688 0.156434 0
    outer loop
      vertex -9.23205 0.970327 0
      vertex -9.08005 1.93002 20
      vertex -9.08005 1.93002 0
    endloop
  endfacet
  facet normal -0.987688 0.156434 0
    outer loop
      vertex -9.08005 1.93002 20
      vertex -9.23205 0.970327 0
      vertex -9.23205 0.970327 20
    endloop
  endfacet
  facet normal 0.891007 0.453989 0
    outer loop
      vertex 8.48035 3.7757 20
      vertex 8.03923 4.64145 0
      vertex 8.03923 4.64145 20
    endloop
  endfacet
  facet normal 0.891007 0.453989 0
    outer loop
      vertex 8.03923 4.64145 0
      vertex 8.48035 3.7757 20
      vertex 8.48035 3.7757 0
    endloop
  endfacet
  facet normal 0.0523332 -0.99863 0
    outer loop
      vertex 0 -9.2829 0
      vertex 0.970327 -9.23205 20
      vertex 0 -9.2829 20
    endloop
  endfacet
  facet normal 0.0523332 -0.99863 0
    outer loop
      vertex 0.970327 -9.23205 20
      vertex 0 -9.2829 0
      vertex 0.970327 -9.23205 0
    endloop
  endfacet
  facet normal -0.891007 -0.453989 0
    outer loop
      vertex -8.03923 -4.64145 0
      vertex -8.48035 -3.7757 20
      vertex -8.48035 -3.7757 0
    endloop
  endfacet
  facet normal -0.891007 -0.453989 0
    outer loop
      vertex -8.48035 -3.7757 20
      vertex -8.03923 -4.64145 0
      vertex -8.03923 -4.64145 20
    endloop
  endfacet
  facet normal -0.99863 -0.0523332 0
    outer loop
      vertex -9.23205 -0.970327 0
      vertex -9.2829 0 20
      vertex -9.2829 0 0
    endloop
  endfacet
  facet normal -0.99863 -0.0523332 0
    outer loop
      vertex -9.2829 0 20
      vertex -9.23205 -0.970327 0
      vertex -9.23205 -0.970327 20
    endloop
  endfacet
  facet normal 0.544637 0.838672 -0
    outer loop
      vertex 5.45635 7.51003 0
      vertex 4.64145 8.03923 20
      vertex 5.45635 7.51003 20
    endloop
  endfacet
  facet normal 0.544637 0.838672 0
    outer loop
      vertex 4.64145 8.03923 20
      vertex 5.45635 7.51003 0
      vertex 4.64145 8.03923 0
    endloop
  endfacet
  facet normal -0.965927 -0.258815 0
    outer loop
      vertex -8.82857 -2.86857 0
      vertex -9.08005 -1.93002 20
      vertex -9.08005 -1.93002 0
    endloop
  endfacet
  facet normal -0.965927 -0.258815 0
    outer loop
      vertex -9.08005 -1.93002 20
      vertex -8.82857 -2.86857 0
      vertex -8.82857 -2.86857 20
    endloop
  endfacet
  facet normal -0.629324 -0.777143 0
    outer loop
      vertex -6.21147 -6.89854 0
      vertex -5.45635 -7.51003 20
      vertex -6.21147 -6.89854 20
    endloop
  endfacet
  facet normal -0.629324 -0.777143 -0
    outer loop
      vertex -5.45635 -7.51003 20
      vertex -6.21147 -6.89854 0
      vertex -5.45635 -7.51003 0
    endloop
  endfacet
  facet normal -0.0523332 -0.99863 0
    outer loop
      vertex -0.970327 -9.23205 0
      vertex 0 -9.2829 20
      vertex -0.970327 -9.23205 20
    endloop
  endfacet
  facet normal -0.0523332 -0.99863 -0
    outer loop
      vertex 0 -9.2829 20
      vertex -0.970327 -9.23205 0
      vertex 0 -9.2829 0
    endloop
  endfacet
  facet normal -0.933579 0.358373 0
    outer loop
      vertex -8.82857 2.86857 0
      vertex -8.48035 3.7757 20
      vertex -8.48035 3.7757 0
    endloop
  endfacet
  facet normal -0.933579 0.358373 0
    outer loop
      vertex -8.48035 3.7757 20
      vertex -8.82857 2.86857 0
      vertex -8.82857 2.86857 20
    endloop
  endfacet
  facet normal 0.891007 -0.453989 0
    outer loop
      vertex 8.03923 -4.64145 20
      vertex 8.48035 -3.7757 0
      vertex 8.48035 -3.7757 20
    endloop
  endfacet
  facet normal 0.891007 -0.453989 0
    outer loop
      vertex 8.48035 -3.7757 0
      vertex 8.03923 -4.64145 20
      vertex 8.03923 -4.64145 0
    endloop
  endfacet
  facet normal 0.453989 -0.891007 0
    outer loop
      vertex 3.7757 -8.48035 0
      vertex 4.64145 -8.03923 20
      vertex 3.7757 -8.48035 20
    endloop
  endfacet
  facet normal 0.453989 -0.891007 0
    outer loop
      vertex 4.64145 -8.03923 20
      vertex 3.7757 -8.48035 0
      vertex 4.64145 -8.03923 0
    endloop
  endfacet
  facet normal -0.0523332 0.99863 0
    outer loop
      vertex 0 9.2829 0
      vertex -0.970327 9.23205 20
      vertex 0 9.2829 20
    endloop
  endfacet
  facet normal -0.0523332 0.99863 0
    outer loop
      vertex -0.970327 9.23205 20
      vertex 0 9.2829 0
      vertex -0.970327 9.23205 0
    endloop
  endfacet
  facet normal -0.156434 -0.987688 0
    outer loop
      vertex -1.93002 -9.08005 0
      vertex -0.970327 -9.23205 20
      vertex -1.93002 -9.08005 20
    endloop
  endfacet
  facet normal -0.156434 -0.987688 -0
    outer loop
      vertex -0.970327 -9.23205 20
      vertex -1.93002 -9.08005 0
      vertex -0.970327 -9.23205 0
    endloop
  endfacet
  facet normal -0.965927 0.258815 0
    outer loop
      vertex -9.08005 1.93002 0
      vertex -8.82857 2.86857 20
      vertex -8.82857 2.86857 0
    endloop
  endfacet
  facet normal -0.965927 0.258815 0
    outer loop
      vertex -8.82857 2.86857 20
      vertex -9.08005 1.93002 0
      vertex -9.08005 1.93002 20
    endloop
  endfacet
  facet normal -0.258815 -0.965927 0
    outer loop
      vertex -2.86857 -8.82857 0
      vertex -1.93002 -9.08005 20
      vertex -2.86857 -8.82857 20
    endloop
  endfacet
  facet normal -0.258815 -0.965927 -0
    outer loop
      vertex -1.93002 -9.08005 20
      vertex -2.86857 -8.82857 0
      vertex -1.93002 -9.08005 0
    endloop
  endfacet
  facet normal 0.629324 0.777143 -0
    outer loop
      vertex 6.21147 6.89854 0
      vertex 5.45635 7.51003 20
      vertex 6.21147 6.89854 20
    endloop
  endfacet
  facet normal 0.629324 0.777143 0
    outer loop
      vertex 5.45635 7.51003 20
      vertex 6.21147 6.89854 0
      vertex 5.45635 7.51003 0
    endloop
  endfacet
  facet normal -0.544637 0.838672 0
    outer loop
      vertex -4.64145 8.03923 0
      vertex -5.45635 7.51003 20
      vertex -4.64145 8.03923 20
    endloop
  endfacet
  facet normal -0.544637 0.838672 0
    outer loop
      vertex -5.45635 7.51003 20
      vertex -4.64145 8.03923 0
      vertex -5.45635 7.51003 0
    endloop
  endfacet
  facet normal -0.777143 -0.629324 0
    outer loop
      vertex -6.89854 -6.21147 0
      vertex -7.51003 -5.45635 20
      vertex -7.51003 -5.45635 0
    endloop
  endfacet
  facet normal -0.777143 -0.629324 0
    outer loop
      vertex -7.51003 -5.45635 20
      vertex -6.89854 -6.21147 0
      vertex -6.89854 -6.21147 20
    endloop
  endfacet
  facet normal -0.838672 -0.544637 0
    outer loop
      vertex -7.51003 -5.45635 0
      vertex -8.03923 -4.64145 20
      vertex -8.03923 -4.64145 0
    endloop
  endfacet
  facet normal -0.838672 -0.544637 0
    outer loop
      vertex -8.03923 -4.64145 20
      vertex -7.51003 -5.45635 0
      vertex -7.51003 -5.45635 20
    endloop
  endfacet
  facet normal 0.838672 -0.544637 0
    outer loop
      vertex 7.51003 -5.45635 20
      vertex 8.03923 -4.64145 0
      vertex 8.03923 -4.64145 20
    endloop
  endfacet
  facet normal 0.838672 -0.544637 0
    outer loop
      vertex 8.03923 -4.64145 0
      vertex 7.51003 -5.45635 20
      vertex 7.51003 -5.45635 0
    endloop
  endfacet
  facet normal -0.358373 0.933579 0
    outer loop
      vertex -2.86857 8.82857 0
      vertex -3.7757 8.48035 20
      vertex -2.86857 8.82857 20
    endloop
  endfacet
  facet normal -0.358373 0.933579 0
    outer loop
      vertex -3.7757 8.48035 20
      vertex -2.86857 8.82857 0
      vertex -3.7757 8.48035 0
    endloop
  endfacet
  facet normal -0.707107 0.707107 0
    outer loop
      vertex -6.89854 6.21147 0
      vertex -6.21147 6.89854 20
      vertex -6.21147 6.89854 0
    endloop
  endfacet
  facet normal -0.707107 0.707107 0
    outer loop
      vertex -6.21147 6.89854 20
      vertex -6.89854 6.21147 0
      vertex -6.89854 6.21147 20
    endloop
  endfacet
  facet normal -0.453989 -0.891007 0
    outer loop
      vertex -4.64145 -8.03923 0
      vertex -3.7757 -8.48035 20
      vertex -4.64145 -8.03923 20
    endloop
  endfacet
  facet normal -0.453989 -0.891007 -0
    outer loop
      vertex -3.7757 -8.48035 20
      vertex -4.64145 -8.03923 0
      vertex -3.7757 -8.48035 0
    endloop
  endfacet
  facet normal 0.358373 0.933579 -0
    outer loop
      vertex 3.7757 8.48035 0
      vertex 2.86857 8.82857 20
      vertex 3.7757 8.48035 20
    endloop
  endfacet
  facet normal 0.358373 0.933579 0
    outer loop
      vertex 2.86857 8.82857 20
      vertex 3.7757 8.48035 0
      vertex 2.86857 8.82857 0
    endloop
  endfacet
  facet normal 0.358373 -0.933579 0
    outer loop
      vertex 2.86857 -8.82857 0
      vertex 3.7757 -8.48035 20
      vertex 2.86857 -8.82857 20
    endloop
  endfacet
  facet normal 0.358373 -0.933579 0
    outer loop
      vertex 3.7757 -8.48035 20
      vertex 2.86857 -8.82857 0
      vertex 3.7757 -8.48035 0
    endloop
  endfacet
  facet normal -0.987688 -0.156434 0
    outer loop
      vertex -9.08005 -1.93002 0
      vertex -9.23205 -0.970327 20
      vertex -9.23205 -0.970327 0
    endloop
  endfacet
  facet normal -0.987688 -0.156434 0
    outer loop
      vertex -9.23205 -0.970327 20
      vertex -9.08005 -1.93002 0
      vertex -9.08005 -1.93002 20
    endloop
  endfacet
  facet normal 0.544637 -0.838672 0
    outer loop
      vertex 4.64145 -8.03923 0
      vertex 5.45635 -7.51003 20
      vertex 4.64145 -8.03923 20
    endloop
  endfacet
  facet normal 0.544637 -0.838672 0
    outer loop
      vertex 5.45635 -7.51003 20
      vertex 4.64145 -8.03923 0
      vertex 5.45635 -7.51003 0
    endloop
  endfacet
  facet normal 0.629324 -0.777143 0
    outer loop
      vertex 5.45635 -7.51003 0
      vertex 6.21147 -6.89854 20
      vertex 5.45635 -7.51003 20
    endloop
  endfacet
  facet normal 0.629324 -0.777143 0
    outer loop
      vertex 6.21147 -6.89854 20
      vertex 5.45635 -7.51003 0
      vertex 6.21147 -6.89854 0
    endloop
  endfacet
  facet normal -0.777143 0.629324 0
    outer loop
      vertex -7.51003 5.45635 0
      vertex -6.89854 6.21147 20
      vertex -6.89854 6.21147 0
    endloop
  endfacet
  facet normal -0.777143 0.629324 0
    outer loop
      vertex -6.89854 6.21147 20
      vertex -7.51003 5.45635 0
      vertex -7.51003 5.45635 20
    endloop
  endfacet
  facet normal -0.707107 -0.707107 0
    outer loop
      vertex -6.21147 -6.89854 0
      vertex -6.89854 -6.21147 20
      vertex -6.89854 -6.21147 0
    endloop
  endfacet
  facet normal -0.707107 -0.707107 0
    outer loop
      vertex -6.89854 -6.21147 20
      vertex -6.21147 -6.89854 0
      vertex -6.21147 -6.89854 20
    endloop
  endfacet
  facet normal 0 0 1
    outer loop
      vertex 8.2829 0 20
      vertex 9.2829 0 20
      vertex 9.23205 0.970327 20
    endloop
  endfacet
  facet normal 0 0 1
    outer loop
      vertex 8.2829 0 20
      vertex 9.23205 0.970327 20
      vertex 9.08005 1.93002 20
    endloop
  endfacet
  facet normal 0 0 1
    outer loop
      vertex 9.2829 0 20
      vertex 8.2829 0 20
      vertex 9.23205 -0.970327 20
    endloop
  endfacet
  facet normal 0 0 1
    outer loop
      vertex 8.2829 0 20
      vertex 9.08005 1.93002 20
      vertex 8.82857 2.86857 20
    endloop
  endfacet
  facet normal 0 0 1
    outer loop
      vertex 9.23205 -0.970327 20
      vertex 8.2829 0 20
      vertex 9.08005 -1.93002 20
    endloop
  endfacet
  facet normal 0 0 1
    outer loop
      vertex 8.2829 0 20
      vertex 8.82857 2.86857 20
      vertex 8.48035 3.7757 20
    endloop
  endfacet
  facet normal 0 0 1
    outer loop
      vertex 9.08005 -1.93002 20
      vertex 8.2829 0 20
      vertex 8.82857 -2.86857 20
    endloop
  endfacet
  facet normal 0 0 1
    outer loop
      vertex 8.82857 -2.86857 20
      vertex 8.2829 0 20
      vertex 8.48035 -3.7757 20
    endloop
  endfacet
  facet normal 0 0 1
    outer loop
      vertex 8.03923 4.64145 20
      vertex 8.2829 0 20
      vertex 8.48035 3.7757 20
    endloop
  endfacet
  facet normal 0 0 1
    outer loop
      vertex 4.14145 7.1731 20
      vertex 8.03923 4.64145 20
      vertex 7.51003 5.45635 20
    endloop
  endfacet
  facet normal 0 0 1
    outer loop
      vertex 4.14145 7.1731 20
      vertex 7.51003 5.45635 20
      vertex 6.89854 6.21147 20
    endloop
  endfacet
  facet normal 0 0 1
    outer loop
      vertex 4.14145 7.1731 20
      vertex 6.89854 6.21147 20
      vertex 6.21147 6.89854 20
    endloop
  endfacet
  facet normal -0 0 1
    outer loop
      vertex 4.14145 7.1731 20
      vertex 6.21147 6.89854 20
      vertex 5.45635 7.51003 20
    endloop
  endfacet
  facet normal 0 0 1
    outer loop
      vertex 4.14145 7.1731 20
      vertex 5.45635 7.51003 20
      vertex 4.64145 8.03923 20
    endloop
  endfacet
  facet normal 0 0 1
    outer loop
      vertex 8.03923 4.64145 20
      vertex 4.14145 7.1731 20
      vertex 8.2829 0 20
    endloop
  endfacet
  facet normal 0 0 1
    outer loop
      vertex 3.7757 8.48035 20
      vertex 4.14145 7.1731 20
      vertex 4.64145 8.03923 20
    endloop
  endfacet
  facet normal 0 0 1
    outer loop
      vertex 2.86857 8.82857 20
      vertex 4.14145 7.1731 20
      vertex 3.7757 8.48035 20
    endloop
  endfacet
  facet normal 0 0 1
    outer loop
      vertex 1.93002 9.08005 20
      vertex 4.14145 7.1731 20
      vertex 2.86857 8.82857 20
    endloop
  endfacet
  facet normal 0 0 1
    outer loop
      vertex 0.970327 9.23205 20
      vertex 4.14145 7.1731 20
      vertex 1.93002 9.08005 20
    endloop
  endfacet
  facet normal 0 0 1
    outer loop
      vertex 0 9.2829 20
      vertex 4.14145 7.1731 20
      vertex 0.970327 9.23205 20
    endloop
  endfacet
  facet normal 0 0 1
    outer loop
      vertex -4.14145 7.1731 20
      vertex 0 9.2829 20
      vertex -0.970327 9.23205 20
    endloop
  endfacet
  facet normal 0 0 1
    outer loop
      vertex -4.14145 7.1731 20
      vertex -0.970327 9.23205 20
      vertex -1.93002 9.08005 20
    endloop
  endfacet
  facet normal 0 0 1
    outer loop
      vertex -4.14145 7.1731 20
      vertex -1.93002 9.08005 20
      vertex -2.86857 8.82857 20
    endloop
  endfacet
  facet normal 0 0 1
    outer loop
      vertex -4.14145 7.1731 20
      vertex -2.86857 8.82857 20
      vertex -3.7757 8.48035 20
    endloop
  endfacet
  facet normal 0 0 1
    outer loop
      vertex 0 9.2829 20
      vertex -4.14145 7.1731 20
      vertex 4.14145 7.1731 20
    endloop
  endfacet
  facet normal -0 0 1
    outer loop
      vertex -4.64145 8.03923 20
      vertex -4.14145 7.1731 20
      vertex -3.7757 8.48035 20
    endloop
  endfacet
  facet normal -0 0 1
    outer loop
      vertex -5.45635 7.51003 20
      vertex -4.14145 7.1731 20
      vertex -4.64145 8.03923 20
    endloop
  endfacet
  facet normal 0 0 1
    outer loop
      vertex -6.21147 6.89854 20
      vertex -4.14145 7.1731 20
      vertex -5.45635 7.51003 20
    endloop
  endfacet
  facet normal 0 0 1
    outer loop
      vertex -6.89854 6.21147 20
      vertex -4.14145 7.1731 20
      vertex -6.21147 6.89854 20
    endloop
  endfacet
  facet normal 0 0 1
    outer loop
      vertex -7.51003 5.45635 20
      vertex -4.14145 7.1731 20
      vertex -6.89854 6.21147 20
    endloop
  endfacet
  facet normal 0 0 1
    outer loop
      vertex -8.03923 4.64145 20
      vertex -4.14145 7.1731 20
      vertex -7.51003 5.45635 20
    endloop
  endfacet
  facet normal -0 0 1
    outer loop
      vertex -8.03923 4.64145 20
      vertex -8.2829 0 20
      vertex -4.14145 7.1731 20
    endloop
  endfacet
  facet normal 0 -0 1
    outer loop
      vertex -8.2829 0 20
      vertex -8.03923 4.64145 20
      vertex -8.48035 3.7757 20
    endloop
  endfacet
  facet normal 0 0 1
    outer loop
      vertex 8.2829 0 20
      vertex 8.03923 -4.64145 20
      vertex 8.48035 -3.7757 20
    endloop
  endfacet
  facet normal 0 0 1
    outer loop
      vertex 4.14145 -7.1731 20
      vertex 8.03923 -4.64145 20
      vertex 8.2829 0 20
    endloop
  endfacet
  facet normal 0 0 1
    outer loop
      vertex 8.03923 -4.64145 20
      vertex 4.14145 -7.1731 20
      vertex 7.51003 -5.45635 20
    endloop
  endfacet
  facet normal 0 0 1
    outer loop
      vertex 7.51003 -5.45635 20
      vertex 4.14145 -7.1731 20
      vertex 6.89854 -6.21147 20
    endloop
  endfacet
  facet normal 0 0 1
    outer loop
      vertex 6.89854 -6.21147 20
      vertex 4.14145 -7.1731 20
      vertex 6.21147 -6.89854 20
    endloop
  endfacet
  facet normal 0 0 1
    outer loop
      vertex 6.21147 -6.89854 20
      vertex 4.14145 -7.1731 20
      vertex 5.45635 -7.51003 20
    endloop
  endfacet
  facet normal 0 0 1
    outer loop
      vertex 5.45635 -7.51003 20
      vertex 4.14145 -7.1731 20
      vertex 4.64145 -8.03923 20
    endloop
  endfacet
  facet normal 0 0 1
    outer loop
      vertex 4.14145 -7.1731 20
      vertex 3.7757 -8.48035 20
      vertex 4.64145 -8.03923 20
    endloop
  endfacet
  facet normal 0 0 1
    outer loop
      vertex 4.14145 -7.1731 20
      vertex 2.86857 -8.82857 20
      vertex 3.7757 -8.48035 20
    endloop
  endfacet
  facet normal 0 0 1
    outer loop
      vertex 4.14145 -7.1731 20
      vertex 1.93002 -9.08005 20
      vertex 2.86857 -8.82857 20
    endloop
  endfacet
  facet normal 0 0 1
    outer loop
      vertex 4.14145 -7.1731 20
      vertex 0.970327 -9.23205 20
      vertex 1.93002 -9.08005 20
    endloop
  endfacet
  facet normal 0 0 1
    outer loop
      vertex 4.14145 -7.1731 20
      vertex 0 -9.2829 20
      vertex 0.970327 -9.23205 20
    endloop
  endfacet
  facet normal -0 0 1
    outer loop
      vertex -4.14145 -7.1731 20
      vertex 0 -9.2829 20
      vertex 4.14145 -7.1731 20
    endloop
  endfacet
  facet normal 0 0 1
    outer loop
      vertex 0 -9.2829 20
      vertex -4.14145 -7.1731 20
      vertex -0.970327 -9.23205 20
    endloop
  endfacet
  facet normal 0 0 1
    outer loop
      vertex -0.970327 -9.23205 20
      vertex -4.14145 -7.1731 20
      vertex -1.93002 -9.08005 20
    endloop
  endfacet
  facet normal 0 0 1
    outer loop
      vertex -1.93002 -9.08005 20
      vertex -4.14145 -7.1731 20
      vertex -2.86857 -8.82857 20
    endloop
  endfacet
  facet normal 0 0 1
    outer loop
      vertex -2.86857 -8.82857 20
      vertex -4.14145 -7.1731 20
      vertex -3.7757 -8.48035 20
    endloop
  endfacet
  facet normal 0 0 1
    outer loop
      vertex -4.14145 -7.1731 20
      vertex -4.64145 -8.03923 20
      vertex -3.7757 -8.48035 20
    endloop
  endfacet
  facet normal 0 0 1
    outer loop
      vertex -4.14145 -7.1731 20
      vertex -5.45635 -7.51003 20
      vertex -4.64145 -8.03923 20
    endloop
  endfacet
  facet normal 0 0 1
    outer loop
      vertex -4.14145 -7.1731 20
      vertex -6.21147 -6.89854 20
      vertex -5.45635 -7.51003 20
    endloop
  endfacet
  facet normal 0 0 1
    outer loop
      vertex -4.14145 -7.1731 20
      vertex -6.89854 -6.21147 20
      vertex -6.21147 -6.89854 20
    endloop
  endfacet
  facet normal 0 0 1
    outer loop
      vertex -4.14145 -7.1731 20
      vertex -7.51003 -5.45635 20
      vertex -6.89854 -6.21147 20
    endloop
  endfacet
  facet normal 0 0 1
    outer loop
      vertex -4.14145 -7.1731 20
      vertex -8.03923 -4.64145 20
      vertex -7.51003 -5.45635 20
    endloop
  endfacet
  facet normal 0 0 1
    outer loop
      vertex -8.2829 0 20
      vertex -8.03923 -4.64145 20
      vertex -4.14145 -7.1731 20
    endloop
  endfacet
  facet normal 0 0 1
    outer loop
      vertex -8.2829 0 20
      vertex -8.48035 -3.7757 20
      vertex -8.03923 -4.64145 20
    endloop
  endfacet
  facet normal -0 0 1
    outer loop
      vertex -8.82857 2.86857 20
      vertex -8.2829 0 20
      vertex -8.48035 3.7757 20
    endloop
  endfacet
  facet normal -0 0 1
    outer loop
      vertex -9.08005 1.93002 20
      vertex -8.2829 0 20
      vertex -8.82857 2.86857 20
    endloop
  endfacet
  facet normal 0 0 1
    outer loop
      vertex -8.2829 0 20
      vertex -8.82857 -2.86857 20
      vertex -8.48035 -3.7757 20
    endloop
  endfacet
  facet normal -0 0 1
    outer loop
      vertex -9.23205 0.970327 20
      vertex -8.2829 0 20
      vertex -9.08005 1.93002 20
    endloop
  endfacet
  facet normal 0 0 1
    outer loop
      vertex -8.2829 0 20
      vertex -9.08005 -1.93002 20
      vertex -8.82857 -2.86857 20
    endloop
  endfacet
  facet normal 0 0 1
    outer loop
      vertex -9.2829 0 20
      vertex -8.2829 0 20
      vertex -9.23205 0.970327 20
    endloop
  endfacet
  facet normal 0 0 1
    outer loop
      vertex -8.2829 0 20
      vertex -9.23205 -0.970327 20
      vertex -9.08005 -1.93002 20
    endloop
  endfacet
  facet normal 0 0 1
    outer loop
      vertex -8.2829 0 20
      vertex -9.2829 0 20
      vertex -9.23205 -0.970327 20
    endloop
  endfacet
  facet normal -0.544637 -0.838672 0
    outer loop
      vertex -5.45635 -7.51003 0
      vertex -4.64145 -8.03923 20
      vertex -5.45635 -7.51003 20
    endloop
  endfacet
  facet normal -0.544637 -0.838672 -0
    outer loop
      vertex -4.64145 -8.03923 20
      vertex -5.45635 -7.51003 0
      vertex -4.64145 -8.03923 0
    endloop
  endfacet
  facet normal 0.866022 -0.500005 0
    outer loop
      vertex -8.2829 0 20
      vertex -4.14145 7.1731 10
      vertex -4.14145 7.1731 20
    endloop
  endfacet
  facet normal 0.866022 -0.500005 0
    outer loop
      vertex -4.14145 7.1731 10
      vertex -8.2829 0 20
      vertex -8.2829 0 10
    endloop
  endfacet
  facet normal -0 0 1
    outer loop
      vertex 3.225 3.225 10
      vertex 8.2829 0 10
      vertex 4.14145 7.1731 10
    endloop
  endfacet
  facet normal 0 0 1
    outer loop
      vertex 3.225 -3.225 10
      vertex 8.2829 0 10
      vertex 3.225 3.225 10
    endloop
  endfacet
  facet normal 0 0 1
    outer loop
      vertex 4.14145 7.1731 10
      vertex -3.225 3.225 10
      vertex 3.225 3.225 10
    endloop
  endfacet
  facet normal 0 0 1
    outer loop
      vertex -8.2829 0 10
      vertex -3.225 3.225 10
      vertex -4.14145 7.1731 10
    endloop
  endfacet
  facet normal -0 0 1
    outer loop
      vertex -4.14145 7.1731 10
      vertex -3.225 3.225 10
      vertex 4.14145 7.1731 10
    endloop
  endfacet
  facet normal 0 0 1
    outer loop
      vertex 8.2829 0 10
      vertex 3.225 -3.225 10
      vertex 4.14145 -7.1731 10
    endloop
  endfacet
  facet normal -0 0 1
    outer loop
      vertex -3.225 -3.225 10
      vertex 4.14145 -7.1731 10
      vertex 3.225 -3.225 10
    endloop
  endfacet
  facet normal 0 0 1
    outer loop
      vertex -3.225 -3.225 10
      vertex -4.14145 -7.1731 10
      vertex 4.14145 -7.1731 10
    endloop
  endfacet
  facet normal 0 0 1
    outer loop
      vertex -3.225 3.225 10
      vertex -8.2829 0 10
      vertex -3.225 -3.225 10
    endloop
  endfacet
  facet normal 0 0 1
    outer loop
      vertex -3.225 -3.225 10
      vertex -8.2829 0 10
      vertex -4.14145 -7.1731 10
    endloop
  endfacet
  facet normal -0.866022 0.500005 0
    outer loop
      vertex 4.14145 -7.1731 10
      vertex 8.2829 0 20
      vertex 8.2829 0 10
    endloop
  endfacet
  facet normal -0.866022 0.500005 0
    outer loop
      vertex 8.2829 0 20
      vertex 4.14145 -7.1731 10
      vertex 4.14145 -7.1731 20
    endloop
  endfacet
  facet normal 0.866022 0.500005 0
    outer loop
      vertex -4.14145 -7.1731 20
      vertex -8.2829 0 10
      vertex -8.2829 0 20
    endloop
  endfacet
  facet normal 0.866022 0.500005 0
    outer loop
      vertex -8.2829 0 10
      vertex -4.14145 -7.1731 20
      vertex -4.14145 -7.1731 10
    endloop
  endfacet
  facet normal 0 -1 0
    outer loop
      vertex -4.14145 7.1731 10
      vertex 4.14145 7.1731 20
      vertex -4.14145 7.1731 20
    endloop
  endfacet
  facet normal 0 -1 -0
    outer loop
      vertex 4.14145 7.1731 20
      vertex -4.14145 7.1731 10
      vertex 4.14145 7.1731 10
    endloop
  endfacet
  facet normal 0 1 -0
    outer loop
      vertex 4.14145 -7.1731 10
      vertex -4.14145 -7.1731 20
      vertex 4.14145 -7.1731 20
    endloop
  endfacet
  facet normal 0 1 0
    outer loop
      vertex -4.14145 -7.1731 20
      vertex 4.14145 -7.1731 10
      vertex -4.14145 -7.1731 10
    endloop
  endfacet
  facet normal -0.866022 -0.500005 0
    outer loop
      vertex 8.2829 0 10
      vertex 4.14145 7.1731 20
      vertex 4.14145 7.1731 10
    endloop
  endfacet
  facet normal -0.866022 -0.500005 0
    outer loop
      vertex 4.14145 7.1731 20
      vertex 8.2829 0 10
      vertex 8.2829 0 20
    endloop
  endfacet
  facet normal -1 0 0
    outer loop
      vertex 3.225 -3.225 0
      vertex 3.225 3.225 10
      vertex 3.225 3.225 0
    endloop
  endfacet
  facet normal -1 -0 0
    outer loop
      vertex 3.225 3.225 10
      vertex 3.225 -3.225 0
      vertex 3.225 -3.225 10
    endloop
  endfacet
  facet normal 1 -0 0
    outer loop
      vertex -3.225 -3.225 10
      vertex -3.225 3.225 0
      vertex -3.225 3.225 10
    endloop
  endfacet
  facet normal 1 0 0
    outer loop
      vertex -3.225 3.225 0
      vertex -3.225 -3.225 10
      vertex -3.225 -3.225 0
    endloop
  endfacet
  facet normal 0 -1 0
    outer loop
      vertex -3.225 3.225 0
      vertex 3.225 3.225 10
      vertex -3.225 3.225 10
    endloop
  endfacet
  facet normal 0 -1 -0
    outer loop
      vertex 3.225 3.225 10
      vertex -3.225 3.225 0
      vertex 3.225 3.225 0
    endloop
  endfacet
  facet normal 0 1 -0
    outer loop
      vertex 3.225 -3.225 0
      vertex -3.225 -3.225 10
      vertex 3.225 -3.225 10
    endloop
  endfacet
  facet normal 0 1 0
    outer loop
      vertex -3.225 -3.225 10
      vertex 3.225 -3.225 0
      vertex -3.225 -3.225 0
    endloop
  endfacet
endsolid OpenSCAD_Model
