<?xml version="1.0" encoding="UTF-8" standalone="no"?>
<!-- Created with Inkscape (http://www.inkscape.org/) -->

<svg
   xmlns:dc="http://purl.org/dc/elements/1.1/"
   xmlns:cc="http://creativecommons.org/ns#"
   xmlns:rdf="http://www.w3.org/1999/02/22-rdf-syntax-ns#"
   xmlns:svg="http://www.w3.org/2000/svg"
   xmlns="http://www.w3.org/2000/svg"
   xmlns:sodipodi="http://sodipodi.sourceforge.net/DTD/sodipodi-0.dtd"
   xmlns:inkscape="http://www.inkscape.org/namespaces/inkscape"
   width="210mm"
   height="297mm"
   viewBox="0 0 210 297"
   version="1.1"
   id="svg8"
   sodipodi:docname="csumirudi.svg"
   inkscape:version="0.92.3 (2405546, 2018-03-11)">
  <defs
     id="defs2">
    <path
       style="fill:none;stroke:none;stroke-width:0.26458332px;stroke-linecap:butt;stroke-linejoin:miter;stroke-opacity:1"
       d="m 56.897372,40.566771 c 6.645418,-1.305569 13.106302,-0.95033 19.501065,0"
       id="path16-5"
       inkscape:connector-curvature="0"
       sodipodi:nodetypes="cc" />
  </defs>
  <sodipodi:namedview
     id="base"
     pagecolor="#ffffff"
     bordercolor="#666666"
     borderopacity="1.0"
     inkscape:pageopacity="0.0"
     inkscape:pageshadow="2"
     inkscape:zoom="1.979899"
     inkscape:cx="315.21106"
     inkscape:cy="821.6653"
     inkscape:document-units="mm"
     inkscape:current-layer="g903"
     showgrid="false"
     showguides="true"
     inkscape:guide-bbox="true"
     inkscape:snap-text-baseline="true"
     inkscape:window-width="1920"
     inkscape:window-height="1025"
     inkscape:window-x="0"
     inkscape:window-y="27"
     inkscape:window-maximized="1">
    <sodipodi:guide
       position="97.612351,258.06324"
       orientation="0,1"
       id="guide832"
       inkscape:locked="false" />
    <sodipodi:guide
       position="3.6081386,198.44762"
       orientation="0,1"
       id="guide848"
       inkscape:locked="false" />
    <sodipodi:guide
       position="58.131121,180.80784"
       orientation="0,1"
       id="guide854"
       inkscape:locked="false" />
  </sodipodi:namedview>
  <metadata
     id="metadata5">
    <rdf:RDF>
      <cc:Work
         rdf:about="">
        <dc:format>image/svg+xml</dc:format>
        <dc:type
           rdf:resource="http://purl.org/dc/dcmitype/StillImage" />
        <dc:title></dc:title>
      </cc:Work>
    </rdf:RDF>
  </metadata>
  <g
     inkscape:label="Layer 1"
     inkscape:groupmode="layer"
     id="layer1">
    <g
       id="g903"
       transform="matrix(4.2314684,0,0,4.2314684,-261.1113,-149.64258)">
      <path
         style="font-style:normal;font-variant:normal;font-weight:normal;font-stretch:normal;font-size:2.50110197px;line-height:1.25;font-family:Iglesia;-inkscape-font-specification:Iglesia;letter-spacing:0px;word-spacing:0px;fill:#000000;fill-opacity:1;stroke:none;stroke-width:1.00000012"
         d="m 93.416016,369.72656 c -0.325436,-0.0199 -0.670941,-0.0137 -1.03711,0.0156 -2.124781,0.21051 -3.126405,1.38426 -3.003906,3.52148 0.07463,0.52809 0.325264,1.03144 0.751953,1.50977 0.426689,0.47833 0.904499,0.99297 1.431641,1.54687 0.514703,0.46589 0.98542,0.93964 1.412109,1.41797 0.426689,0.47833 0.665089,0.89208 0.714844,1.24414 0.271763,3.19339 -1.93218,5.07525 -6.609375,5.64649 -5.129706,0.54541 -10.840716,-0.48605 -17.134766,-3.09766 -3.125365,5.19962 -7.663804,9.61035 -13.615234,13.23437 l 2.947266,20.85938 13.154296,5.41211 -10.845703,21.82617 c -4.313796,0.88095 -8.625878,1.86006 -12.935547,2.91016 l 6.873047,-9.50782 -2.193359,-1.48046 -4.134766,5.66992 -11.429687,-2.44922 -9.941407,-36.95117 12.496094,4.36914 3.15625,-9.82422 -15.136718,-5.45508 c -2.787112,5.72065 -6.798805,10.4829 -12.035157,14.28516 l 9.007813,33.47656 c 1.200987,4.46347 0.854281,7.96297 -1.041016,10.49805 3.952584,-0.4804 7.781166,-0.22238 11.488281,0.76758 -4.434727,1.26122 -8.867081,2.59809 -13.296875,4.05078 -4.987419,1.4598 -2.544934,8.94601 2.34375,7.18359 80.213016,-26.30474 161.441316,-20.17904 243.486326,0.0957 4.89452,1.20703 6.70507,-6.13476 1.81055,-7.34179 -3.03055,-0.74888 -6.06139,-1.4716 -9.0918,-2.18164 l 6.54492,-3.45313 -1.48437,-2.51953 -2.51953,1.48633 c -1.8293,-1.59377 -2.53081,-3.34561 -2.10352,-5.25391 l 7.86719,-35.1289 4.09766,-3.04493 -7.69141,-11.42383 -11.55078,6.43165 2.8125,5.13867 -8.01172,35.78125 c -0.79617,3.55575 -0.76498,6.65264 0.0898,9.29492 -5.25076,-1.13703 -10.50017,-2.21135 -15.75,-3.2168 l 7.3086,-4.84375 -1.70117,-2.37695 -2.37891,1.70117 c -1.96287,-1.42603 -2.80395,-3.19574 -2.52344,-5.31055 l 4.45313,-33.57226 c 1.41434,-1.87475 2.65643,-3.45896 3.72461,-4.75195 1.06818,-1.293 2.01805,-2.37813 2.85156,-3.25391 l -1.45508,-2.21094 -5.95312,4.32227 -7.03711,-9.81055 c -4.14507,2.85755 -7.69127,5.25686 -10.63868,7.19727 -2.9474,1.9404 -5.33987,3.41616 -7.17773,4.42773 -0.045,-5.74469 -2.01272,-10.84704 -5.9043,-15.30859 l -19.62304,12.05664 c 0.96472,-6.5971 -1.08059,-11.80062 -6.13477,-15.60938 l -11.69531,9.07617 1.57031,2.35938 2.49219,-1.55273 c 1.38741,1.70837 1.95245,3.53212 1.69531,5.4707 l -4.64453,35.02734 -4.35938,3.45703 4.26368,5.0293 c -5.08915,-0.37221 -10.17703,-0.65849 -15.26368,-0.86133 l 5.92579,-5.1914 -1.88282,-2.11914 -2.25195,1.88476 c -2.14468,-1.40506 -3.22402,-2.99572 -3.23828,-4.77344 l -0.29688,-36.93164 3.70313,-3.89648 -9.9336,-8.32031 -9.26757,8.33984 3.50195,4.37305 0.26758,33.33203 -9.66992,7.94336 c -2.85862,-1.7549 -4.29892,-3.96428 -4.32032,-6.63086 l -0.27929,-34.9336 3.70117,-3.89648 -9.80078,-8.32031 -12.58008,10.76758 2.01758,2.11718 2.64844,-2.28711 2.01562,2.11719 0.28906,35.99805 c 0.0242,3.02212 0.80401,5.94902 2.33789,8.78125 0.3025,0.61135 0.6357,1.18373 0.98828,1.73242 -8.71638,0.40028 -17.42708,1.07758 -26.130855,2.07422 2.766022,-2.33714 5.83418,-4.24789 9.224605,-5.70313 l -3.470699,-24.55664 -13.208984,-5.80859 c 2.483444,-4.66004 4.330862,-8.10797 5.541015,-10.34375 l 1.947266,-3.37305 c 3.189446,-6.01662 4.622299,-10.79635 4.300781,-14.3418 -0.282153,-2.55229 -1.561792,-3.89952 -3.839843,-4.03906 z m 104.046874,20.66016 c 2.43943,2.56526 3.53058,4.81728 3.27344,6.75586 l -4.5586,34.36523 -4.09375,3.49219 3.46875,4.08594 c -4.92789,-0.61104 -9.85521,-1.15099 -14.78125,-1.61719 l 4.55469,-3.23047 -2.85937,-4.81836 4.3125,-32.51562 z m -110.851562,2.38867 -9.134766,18.25781 -7.537109,-2.83984 -2.166015,-15.31445 c 3.731084,1.62723 7.503008,2.26117 11.3125,1.90234 2.904471,-0.41048 5.412104,-1.07879 7.52539,-2.00586 z m 135.216792,1.51563 4.60352,5.85546 -4.40039,33.17579 c -0.51334,3.87012 -0.1316,7.16522 1.14258,9.88671 -5.48728,-0.95722 -10.97336,-1.83113 -16.45899,-2.62695 l 4.26954,-3.07422 -2.85743,-4.81836 4.36524,-32.91211 z m -141.373042,17.80273 7.574219,3.10352 2.482422,17.55859 c -4.547147,-2.31986 -9.021161,-3.16881 -13.421875,-2.54688 -3.597091,1.22654 -6.112826,2.16488 -7.546875,2.81641 z m 61.281252,14.20313 c 0.0291,3.6266 0.78458,6.66582 2.25195,9.13281 -4.47789,-0.0643 -8.95445,-0.0704 -13.42969,0.008 z"
         transform="matrix(0.06252755,0,0,0.06252755,61.707019,35.36422)"
         id="text842"
         inkscape:connector-curvature="0"
         sodipodi:nodetypes="cccscscccccccccccccccccccccccccccccccccccccccccccccccsccccccccccccccccccccccccccccccccccccccccccccccccccccccccccccccccccccccccccccc" />
      <path
         style="font-style:normal;font-variant:normal;font-weight:normal;font-stretch:normal;font-size:2.50110197px;line-height:1.25;font-family:Iglesia;-inkscape-font-specification:Iglesia;letter-spacing:0px;word-spacing:0px;fill:#000000;fill-opacity:1;stroke:none;stroke-width:1.00000012"
         d="m 424.08789,357.89062 -1.94531,13.59376 13.28906,12.54296 c -3.03003,1.72138 -6.77055,2.75861 -11.2207,3.10938 l -4.62696,32.33594 c -0.75568,5.27952 -2.43461,8.54135 -5.0371,9.78515 5.02455,1.84441 9.66071,4.30397 13.91015,7.37696 -8.52021,-0.91193 -16.91958,-1.2827 -25.21289,-1.19141 l 5.85352,-6.16797 -2.07227,-1.93555 -2.06836,2.08399 c -2.26479,-1.2019 -3.48639,-2.68816 -3.66406,-4.45703 l -3.68945,-36.74805 3.32812,-4.2207 -10.6582,-7.3711 -8.45899,9.15821 3.88867,4.03125 3.33008,33.16601 -8.89843,8.80078 c -3.00788,-1.48461 -4.64366,-3.55371 -4.91016,-6.20703 l -3.49219,-34.75781 3.32813,-4.2207 -10.52344,-7.38672 L 353,391.0918 l 2.20312,1.92187 2.42579,-2.52148 2.20507,1.92187 3.59766,35.82032 c 0.30203,3.00709 1.34695,5.8501 3.13477,8.52929 0.41945,0.68177 0.86939,1.31677 1.34961,1.90625 -9.28888,1.58956 -18.44426,3.7323 -27.48047,6.33985 l 4.13086,-7.12891 -2.2793,-1.53516 -2.42188,3.94532 -8.06054,-3.11914 -10.10742,-33.16016 3.38476,-5.35352 9.42578,5.76953 6.04688,-10.3457 -11.28516,-7.29297 -8.67187,14.07227 c -1.39964,-4.59141 -4.92869,-7.32571 -10.58594,-8.20313 l -7.56445,13.59766 2.49609,1.33008 1.625,-2.44727 c 2.04885,1.23398 3.34437,2.74375 3.88867,4.5293 l 8.39844,27.54883 c 1.08861,3.57109 0.80983,6.76828 -0.83789,9.59375 3.92987,0.0855 7.6442,0.66778 11.1582,1.71093 -4.47606,1.49583 -8.92591,3.08916 -13.3457,4.79493 -5.24947,1.54712 -2.20821,9.41372 2.7168,7.02734 52.75756,-20.36122 108.24727,-26.04743 171.45703,-0.0312 1.96697,1.00824 4.37561,0.12096 5.21849,-1.92234 0.84287,-2.04329 -0.23969,-4.37071 -2.34545,-5.0425 -3.76317,-1.54891 -7.50019,-2.97695 -11.21679,-4.31055 l 6.96093,-2.85742 -1.23632,-2.64844 -2.65039,1.23633 c -1.668,-1.76188 -2.19625,-3.57117 -1.5879,-5.42969 l 11.19922,-34.21484 4.36914,-2.63672 -6.55859,-12.10938 -12.11328,5.29493 2.30469,5.38476 -11.40625,34.84766 c -1.142,3.48878 -1.40004,6.59366 -0.78516,9.32031 -9.05866,-2.7581 -17.98169,-4.88925 -26.77734,-6.45117 0.41934,-0.16553 0.83267,-0.34079 1.25976,-0.49414 3.30643,-1.14305 6.88865,-2.0218 10.74805,-2.63672 l 6.27148,-43.82031 c 0.40303,-2.81575 1.12627,-4.73205 2.16992,-5.75 l -0.62109,-0.35938 c -2.12457,0.41426 -3.91623,1.63971 -5.375,3.67578 z m 15.90625,30.02344 8.89844,8.41211 -5.27149,36.82422 -12.70703,-7.20703 5.17578,-36.16406 z m -50.57422,38.91602 c 0.36788,3.66266 1.42669,6.65536 3.16016,8.99219 -4.54289,0.27327 -9.05594,0.67611 -13.53516,1.2207 z"
         transform="matrix(0.06252755,0,0,0.06252755,61.707019,35.36422)"
         id="text846"
         inkscape:connector-curvature="0"
         sodipodi:nodetypes="ccccccccccccccccccccccccccccccccccccccccccccccccccccsccccccccccccccccccccccccccccccc" />
      <path
         style="fill:none;stroke:none;stroke-width:0.06252755px;stroke-linecap:butt;stroke-linejoin:miter;stroke-opacity:1"
         d="m 63.185055,63.928629 c 5.070734,-1.662877 10.200096,-1.27376 15.354734,-10e-7"
         id="path850"
         inkscape:connector-curvature="0"
         sodipodi:nodetypes="cc" />
      <path
         style="fill:none;stroke:none;stroke-width:0.06252755px;stroke-linecap:butt;stroke-linejoin:miter;stroke-opacity:1"
         d="m 81.540001,63.928628 c 3.337427,-1.288044 6.88651,-1.65009 10.895508,0"
         id="path852"
         inkscape:connector-curvature="0"
         sodipodi:nodetypes="cc" />
    </g>
  </g>
</svg>
