solid OpenSCAD_Model
  facet normal 0 0 -1
    outer loop
      vertex -0.418533 5.21449 0
      vertex -0.983551 5.73274 0
      vertex -0.469635 6.42007 0
    endloop
  endfacet
  facet normal 0 0 -1
    outer loop
      vertex -4.83232 -14 0
      vertex -5.16112 -13.3171 0
      vertex -1.32368 -6.11008 0
    endloop
  endfacet
  facet normal -0 0 -1
    outer loop
      vertex 10.2686 -5.44487 0
      vertex 9.78362 -5.7122 0
      vertex 6.26042 -2.59691 0
    endloop
  endfacet
  facet normal 0 0 -1
    outer loop
      vertex -7.44769 11.0713 0
      vertex -3.59727 8.4615 0
      vertex -4.11638 8.01562 0
    endloop
  endfacet
  facet normal 0 0 -1
    outer loop
      vertex 2.09167 3.54565 0
      vertex 1.67563 1.86745 0
      vertex 0.523834 2.15565 0
    endloop
  endfacet
  facet normal 0 0 -1
    outer loop
      vertex 7.01062 4.39374 0
      vertex 4.20207 1.43929 0
      vertex 3.68147 3.54565 0
    endloop
  endfacet
  facet normal -0 -0 -1
    outer loop
      vertex 0.418518 5.21449 0
      vertex 0.879166 4.71227 0
      vertex -0.418533 5.21449 0
    endloop
  endfacet
  facet normal 0 0 -1
    outer loop
      vertex 4.20207 1.43929 0
      vertex 6.26042 -2.59691 0
      vertex 5.77547 -2.86426 0
    endloop
  endfacet
  facet normal 0 -0 -1
    outer loop
      vertex 6.26042 -2.59691 0
      vertex 9.78362 -5.7122 0
      vertex 5.77547 -2.86426 0
    endloop
  endfacet
  facet normal 0 0 -1
    outer loop
      vertex 3.40283 1.43929 0
      vertex 4.20207 1.43929 0
      vertex 5.77547 -2.86426 0
    endloop
  endfacet
  facet normal -0 0 -1
    outer loop
      vertex 9.78362 3.36191 0
      vertex 8.26443 1.96849 0
      vertex 9.25739 4.39374 0
    endloop
  endfacet
  facet normal -0 0 -1
    outer loop
      vertex 9.25739 4.39374 0
      vertex 8.26443 1.96849 0
      vertex 7.01062 4.39374 0
    endloop
  endfacet
  facet normal 0 -0 -1
    outer loop
      vertex 7.01062 4.39374 0
      vertex 8.26443 1.96849 0
      vertex 4.20207 1.43929 0
    endloop
  endfacet
  facet normal 0 -0 -1
    outer loop
      vertex 3.68147 3.54565 0
      vertex 4.20207 1.43929 0
      vertex 3.40283 1.43929 0
    endloop
  endfacet
  facet normal 0 0 -1
    outer loop
      vertex 0.879166 4.71227 0
      vertex -0.879272 4.71227 0
      vertex -0.418533 5.21449 0
    endloop
  endfacet
  facet normal 0 0 -1
    outer loop
      vertex 2.09167 3.54565 0
      vertex 3.68147 3.54565 0
      vertex 3.40283 1.43929 0
    endloop
  endfacet
  facet normal 0 0 -1
    outer loop
      vertex 1.67563 1.86745 0
      vertex 2.09167 3.54565 0
      vertex 3.40283 1.43929 0
    endloop
  endfacet
  facet normal 0 0 -1
    outer loop
      vertex 0.523834 2.15565 0
      vertex 0.983536 4.07921 0
      vertex 2.09167 3.54565 0
    endloop
  endfacet
  facet normal 0 -0 -1
    outer loop
      vertex 3.59715 8.4615 0
      vertex 4.11638 8.01562 0
      vertex 2.53922 5.62747 0
    endloop
  endfacet
  facet normal 0 0 -1
    outer loop
      vertex 3.59715 8.4615 0
      vertex 7.44777 11.3406 0
      vertex 7.44777 11.0713 0
    endloop
  endfacet
  facet normal 0 0 -1
    outer loop
      vertex 4.11638 8.01562 0
      vertex 3.59715 8.4615 0
      vertex 7.44777 11.0713 0
    endloop
  endfacet
  facet normal 0 0 -1
    outer loop
      vertex -4.11638 8.01562 0
      vertex -2.53926 5.62747 0
      vertex -3.07799 5.23392 0
    endloop
  endfacet
  facet normal 0 0 -1
    outer loop
      vertex 0.983536 4.07921 0
      vertex 2.53922 5.62747 0
      vertex 3.07794 5.23392 0
    endloop
  endfacet
  facet normal 0 0 -1
    outer loop
      vertex 2.53922 5.62747 0
      vertex 4.11638 8.01562 0
      vertex 3.07794 5.23392 0
    endloop
  endfacet
  facet normal 0 0 -1
    outer loop
      vertex 0.983536 4.07921 0
      vertex 0.879166 4.71227 0
      vertex 2.53922 5.62747 0
    endloop
  endfacet
  facet normal 0 -0 -1
    outer loop
      vertex -0.182068 14 0
      vertex 0.181946 14 0
      vertex -0.469635 6.42007 0
    endloop
  endfacet
  facet normal 0 0 -1
    outer loop
      vertex 0.418518 5.21449 0
      vertex -0.418533 5.21449 0
      vertex -0.469635 6.42007 0
    endloop
  endfacet
  facet normal 0 0 -1
    outer loop
      vertex 0.418518 5.21449 0
      vertex 0.46962 6.42007 0
      vertex 0.983536 5.73274 0
    endloop
  endfacet
  facet normal 0 0 -1
    outer loop
      vertex -0.469635 6.42007 0
      vertex 0.181946 14 0
      vertex 0.46962 6.42007 0
    endloop
  endfacet
  facet normal 0 0 -1
    outer loop
      vertex 0.418518 5.21449 0
      vertex -0.469635 6.42007 0
      vertex 0.46962 6.42007 0
    endloop
  endfacet
  facet normal 0 0 -1
    outer loop
      vertex -7.44769 11.0713 0
      vertex -7.44769 11.3406 0
      vertex -3.59727 8.4615 0
    endloop
  endfacet
  facet normal 0 -0 -1
    outer loop
      vertex 0.879166 4.71227 0
      vertex 0.983536 4.07921 0
      vertex -0.983551 4.07921 0
    endloop
  endfacet
  facet normal -0 0 -1
    outer loop
      vertex 0.879166 4.71227 0
      vertex -0.983551 4.07921 0
      vertex -0.879272 4.71227 0
    endloop
  endfacet
  facet normal 0 -0 -1
    outer loop
      vertex -2.53926 5.62747 0
      vertex -0.983551 4.07921 0
      vertex -3.07799 5.23392 0
    endloop
  endfacet
  facet normal 0 0 -1
    outer loop
      vertex -2.53926 5.62747 0
      vertex -0.879272 4.71227 0
      vertex -0.983551 4.07921 0
    endloop
  endfacet
  facet normal 0 0 -1
    outer loop
      vertex -4.11638 8.01562 0
      vertex -3.59727 8.4615 0
      vertex -2.53926 5.62747 0
    endloop
  endfacet
  facet normal -0 0 -1
    outer loop
      vertex -0.523849 2.15565 0
      vertex -1.67564 1.86745 0
      vertex -2.0916 3.54565 0
    endloop
  endfacet
  facet normal 0 -0 -1
    outer loop
      vertex -0.983551 4.07921 0
      vertex -0.523849 2.15565 0
      vertex -2.0916 3.54565 0
    endloop
  endfacet
  facet normal -0 0 -1
    outer loop
      vertex -2.0916 3.54565 0
      vertex -3.40285 1.43929 0
      vertex -3.68149 3.54565 0
    endloop
  endfacet
  facet normal -0 0 -1
    outer loop
      vertex -7.01067 4.39374 0
      vertex -8.26445 1.96849 0
      vertex -9.25743 4.39374 0
    endloop
  endfacet
  facet normal 0 -0 -1
    outer loop
      vertex -3.68149 3.54565 0
      vertex -3.40285 1.43929 0
      vertex -4.20209 1.43929 0
    endloop
  endfacet
  facet normal 0 -0 -1
    outer loop
      vertex -9.25743 4.39374 0
      vertex -8.26445 1.96849 0
      vertex -9.78366 3.36191 0
    endloop
  endfacet
  facet normal 0 -0 -1
    outer loop
      vertex -7.01067 4.39374 0
      vertex -4.20209 1.43929 0
      vertex -8.26445 1.96849 0
    endloop
  endfacet
  facet normal 0 0 -1
    outer loop
      vertex -7.01067 4.39374 0
      vertex -3.68149 3.54565 0
      vertex -4.20209 1.43929 0
    endloop
  endfacet
  facet normal 0 0 -1
    outer loop
      vertex -4.20209 1.43929 0
      vertex -5.7755 -2.86426 0
      vertex -6.26044 -2.59691 0
    endloop
  endfacet
  facet normal 0 0 -1
    outer loop
      vertex -10.2686 -5.44487 0
      vertex -6.26044 -2.59691 0
      vertex -9.78366 -5.7122 0
    endloop
  endfacet
  facet normal 0 0 -1
    outer loop
      vertex -9.78366 -5.7122 0
      vertex -6.26044 -2.59691 0
      vertex -5.7755 -2.86426 0
    endloop
  endfacet
  facet normal 0 -0 -1
    outer loop
      vertex -4.20209 1.43929 0
      vertex -3.40285 1.43929 0
      vertex -5.7755 -2.86426 0
    endloop
  endfacet
  facet normal 0 0 -1
    outer loop
      vertex -1.67564 1.86745 0
      vertex -2.48901 -1.40897 0
      vertex -3.40285 -1.26541 0
    endloop
  endfacet
  facet normal 0 -0 -1
    outer loop
      vertex -2.0916 3.54565 0
      vertex -1.67564 1.86745 0
      vertex -3.40285 1.43929 0
    endloop
  endfacet
  facet normal 0 0 -1
    outer loop
      vertex -2.20198 -6.11008 0
      vertex -2.48901 -1.40897 0
      vertex -1.32368 -6.11008 0
    endloop
  endfacet
  facet normal 0 0 -1
    outer loop
      vertex 4.83232 -14 0
      vertex 1.32367 -6.11008 0
      vertex 5.1611 -13.3171 0
    endloop
  endfacet
  facet normal 0 0 -1
    outer loop
      vertex -0.364044 -3.74995 0
      vertex 0.879166 -0.572693 0
      vertex 0.363953 -3.74995 0
    endloop
  endfacet
  facet normal -0 0 -1
    outer loop
      vertex -1.32368 -6.11008 0
      vertex -5.16112 -13.3171 0
      vertex -2.20198 -6.11008 0
    endloop
  endfacet
  facet normal -0 -0 -1
    outer loop
      vertex -2.48901 -1.40897 0
      vertex -2.20198 -6.11008 0
      vertex -3.40285 -1.26541 0
    endloop
  endfacet
  facet normal 0 0 -1
    outer loop
      vertex 0.523834 2.15565 0
      vertex -0.523849 2.15565 0
      vertex -0.983551 4.07921 0
    endloop
  endfacet
  facet normal 0 0 -1
    outer loop
      vertex -0.523849 2.15565 0
      vertex -2.48901 -1.40897 0
      vertex -1.67564 1.86745 0
    endloop
  endfacet
  facet normal 0 0 -1
    outer loop
      vertex -0.364044 -3.74995 0
      vertex -0.879272 -0.572693 0
      vertex 0.879166 -0.572693 0
    endloop
  endfacet
  facet normal 0 0 -1
    outer loop
      vertex -0.879272 -0.572693 0
      vertex -0.523849 2.15565 0
      vertex 0.879166 -0.572693 0
    endloop
  endfacet
  facet normal 0 0 -1
    outer loop
      vertex 2.20193 -6.11008 0
      vertex 2.48907 -1.40897 0
      vertex 3.40283 -1.26541 0
    endloop
  endfacet
  facet normal 0 0 -1
    outer loop
      vertex 1.32367 -6.11008 0
      vertex 2.20193 -6.11008 0
      vertex 5.1611 -13.3171 0
    endloop
  endfacet
  facet normal -0 0 -1
    outer loop
      vertex 0.983536 4.07921 0
      vertex 0.523834 2.15565 0
      vertex -0.983551 4.07921 0
    endloop
  endfacet
  facet normal -0 -0 -1
    outer loop
      vertex 0.523834 2.15565 0
      vertex 0.879166 -0.572693 0
      vertex -0.523849 2.15565 0
    endloop
  endfacet
  facet normal 0 0 -1
    outer loop
      vertex 2.48907 -1.40897 0
      vertex 1.67563 1.86745 0
      vertex 3.40283 -1.26541 0
    endloop
  endfacet
  facet normal -0 -0 -1
    outer loop
      vertex 1.67563 1.86745 0
      vertex 2.48907 -1.40897 0
      vertex 0.523834 2.15565 0
    endloop
  endfacet
  facet normal 0 0 -1
    outer loop
      vertex 2.20193 -6.11008 0
      vertex 1.32367 -6.11008 0
      vertex 2.48907 -1.40897 0
    endloop
  endfacet
  facet normal 0 0 1
    outer loop
      vertex -0.469635 6.42007 2
      vertex -0.983551 5.73274 2
      vertex -0.418533 5.21449 2
    endloop
  endfacet
  facet normal 0 0 1
    outer loop
      vertex -1.32368 -6.11008 2
      vertex -5.16112 -13.3171 2
      vertex -4.83232 -14 2
    endloop
  endfacet
  facet normal 0 0 1
    outer loop
      vertex 6.26042 -2.59691 2
      vertex 9.78362 -5.7122 2
      vertex 10.2686 -5.44487 2
    endloop
  endfacet
  facet normal 0 -0 1
    outer loop
      vertex -4.11638 8.01562 2
      vertex -3.59727 8.4615 2
      vertex -7.44769 11.0713 2
    endloop
  endfacet
  facet normal -0 0 1
    outer loop
      vertex 0.523834 2.15565 2
      vertex 1.67563 1.86745 2
      vertex 2.09167 3.54565 2
    endloop
  endfacet
  facet normal -0 0 1
    outer loop
      vertex 3.68147 3.54565 2
      vertex 4.20207 1.43929 2
      vertex 7.01062 4.39374 2
    endloop
  endfacet
  facet normal -0 0 1
    outer loop
      vertex -0.418533 5.21449 2
      vertex 0.879166 4.71227 2
      vertex 0.418518 5.21449 2
    endloop
  endfacet
  facet normal 0 -0 1
    outer loop
      vertex 5.77547 -2.86426 2
      vertex 6.26042 -2.59691 2
      vertex 4.20207 1.43929 2
    endloop
  endfacet
  facet normal -0 0 1
    outer loop
      vertex 5.77547 -2.86426 2
      vertex 9.78362 -5.7122 2
      vertex 6.26042 -2.59691 2
    endloop
  endfacet
  facet normal 0 0 1
    outer loop
      vertex 5.77547 -2.86426 2
      vertex 4.20207 1.43929 2
      vertex 3.40283 1.43929 2
    endloop
  endfacet
  facet normal 0 0 1
    outer loop
      vertex 9.25739 4.39374 2
      vertex 8.26443 1.96849 2
      vertex 9.78362 3.36191 2
    endloop
  endfacet
  facet normal -0 0 1
    outer loop
      vertex 7.01062 4.39374 2
      vertex 8.26443 1.96849 2
      vertex 9.25739 4.39374 2
    endloop
  endfacet
  facet normal 0 0 1
    outer loop
      vertex 4.20207 1.43929 2
      vertex 8.26443 1.96849 2
      vertex 7.01062 4.39374 2
    endloop
  endfacet
  facet normal 0 0 1
    outer loop
      vertex 3.40283 1.43929 2
      vertex 4.20207 1.43929 2
      vertex 3.68147 3.54565 2
    endloop
  endfacet
  facet normal 0 0 1
    outer loop
      vertex -0.418533 5.21449 2
      vertex -0.879272 4.71227 2
      vertex 0.879166 4.71227 2
    endloop
  endfacet
  facet normal 0 -0 1
    outer loop
      vertex 3.40283 1.43929 2
      vertex 3.68147 3.54565 2
      vertex 2.09167 3.54565 2
    endloop
  endfacet
  facet normal 0 0 1
    outer loop
      vertex 3.40283 1.43929 2
      vertex 2.09167 3.54565 2
      vertex 1.67563 1.86745 2
    endloop
  endfacet
  facet normal 0 0 1
    outer loop
      vertex 2.09167 3.54565 2
      vertex 0.983536 4.07921 2
      vertex 0.523834 2.15565 2
    endloop
  endfacet
  facet normal 0 0 1
    outer loop
      vertex 2.53922 5.62747 2
      vertex 4.11638 8.01562 2
      vertex 3.59715 8.4615 2
    endloop
  endfacet
  facet normal 0 -0 1
    outer loop
      vertex 7.44777 11.0713 2
      vertex 7.44777 11.3406 2
      vertex 3.59715 8.4615 2
    endloop
  endfacet
  facet normal 0 0 1
    outer loop
      vertex 7.44777 11.0713 2
      vertex 3.59715 8.4615 2
      vertex 4.11638 8.01562 2
    endloop
  endfacet
  facet normal 0 -0 1
    outer loop
      vertex -3.07799 5.23392 2
      vertex -2.53926 5.62747 2
      vertex -4.11638 8.01562 2
    endloop
  endfacet
  facet normal 0 0 1
    outer loop
      vertex 3.07794 5.23392 2
      vertex 2.53922 5.62747 2
      vertex 0.983536 4.07921 2
    endloop
  endfacet
  facet normal 0 -0 1
    outer loop
      vertex 3.07794 5.23392 2
      vertex 4.11638 8.01562 2
      vertex 2.53922 5.62747 2
    endloop
  endfacet
  facet normal 0 0 1
    outer loop
      vertex 2.53922 5.62747 2
      vertex 0.879166 4.71227 2
      vertex 0.983536 4.07921 2
    endloop
  endfacet
  facet normal 0 0 1
    outer loop
      vertex -0.469635 6.42007 2
      vertex 0.181946 14 2
      vertex -0.182068 14 2
    endloop
  endfacet
  facet normal 0 0 1
    outer loop
      vertex -0.469635 6.42007 2
      vertex -0.418533 5.21449 2
      vertex 0.418518 5.21449 2
    endloop
  endfacet
  facet normal 0 0 1
    outer loop
      vertex 0.983536 5.73274 2
      vertex 0.46962 6.42007 2
      vertex 0.418518 5.21449 2
    endloop
  endfacet
  facet normal 0 0 1
    outer loop
      vertex 0.46962 6.42007 2
      vertex 0.181946 14 2
      vertex -0.469635 6.42007 2
    endloop
  endfacet
  facet normal 0 0 1
    outer loop
      vertex 0.46962 6.42007 2
      vertex -0.469635 6.42007 2
      vertex 0.418518 5.21449 2
    endloop
  endfacet
  facet normal 0 0 1
    outer loop
      vertex -3.59727 8.4615 2
      vertex -7.44769 11.3406 2
      vertex -7.44769 11.0713 2
    endloop
  endfacet
  facet normal 0 0 1
    outer loop
      vertex -0.983551 4.07921 2
      vertex 0.983536 4.07921 2
      vertex 0.879166 4.71227 2
    endloop
  endfacet
  facet normal -0 0 1
    outer loop
      vertex -0.879272 4.71227 2
      vertex -0.983551 4.07921 2
      vertex 0.879166 4.71227 2
    endloop
  endfacet
  facet normal -0 0 1
    outer loop
      vertex -3.07799 5.23392 2
      vertex -0.983551 4.07921 2
      vertex -2.53926 5.62747 2
    endloop
  endfacet
  facet normal 0 -0 1
    outer loop
      vertex -0.983551 4.07921 2
      vertex -0.879272 4.71227 2
      vertex -2.53926 5.62747 2
    endloop
  endfacet
  facet normal 0 0 1
    outer loop
      vertex -2.53926 5.62747 2
      vertex -3.59727 8.4615 2
      vertex -4.11638 8.01562 2
    endloop
  endfacet
  facet normal 0 0 1
    outer loop
      vertex -2.0916 3.54565 2
      vertex -1.67564 1.86745 2
      vertex -0.523849 2.15565 2
    endloop
  endfacet
  facet normal -0 0 1
    outer loop
      vertex -2.0916 3.54565 2
      vertex -0.523849 2.15565 2
      vertex -0.983551 4.07921 2
    endloop
  endfacet
  facet normal -0 0 1
    outer loop
      vertex -3.68149 3.54565 2
      vertex -3.40285 1.43929 2
      vertex -2.0916 3.54565 2
    endloop
  endfacet
  facet normal -0 0 1
    outer loop
      vertex -9.25743 4.39374 2
      vertex -8.26445 1.96849 2
      vertex -7.01067 4.39374 2
    endloop
  endfacet
  facet normal 0 0 1
    outer loop
      vertex -4.20209 1.43929 2
      vertex -3.40285 1.43929 2
      vertex -3.68149 3.54565 2
    endloop
  endfacet
  facet normal -0 0 1
    outer loop
      vertex -9.78366 3.36191 2
      vertex -8.26445 1.96849 2
      vertex -9.25743 4.39374 2
    endloop
  endfacet
  facet normal -0 0 1
    outer loop
      vertex -8.26445 1.96849 2
      vertex -4.20209 1.43929 2
      vertex -7.01067 4.39374 2
    endloop
  endfacet
  facet normal 0 -0 1
    outer loop
      vertex -4.20209 1.43929 2
      vertex -3.68149 3.54565 2
      vertex -7.01067 4.39374 2
    endloop
  endfacet
  facet normal -0 0 1
    outer loop
      vertex -6.26044 -2.59691 2
      vertex -5.7755 -2.86426 2
      vertex -4.20209 1.43929 2
    endloop
  endfacet
  facet normal 0 -0 1
    outer loop
      vertex -9.78366 -5.7122 2
      vertex -6.26044 -2.59691 2
      vertex -10.2686 -5.44487 2
    endloop
  endfacet
  facet normal 0 0 1
    outer loop
      vertex -5.7755 -2.86426 2
      vertex -6.26044 -2.59691 2
      vertex -9.78366 -5.7122 2
    endloop
  endfacet
  facet normal 0 0 1
    outer loop
      vertex -5.7755 -2.86426 2
      vertex -3.40285 1.43929 2
      vertex -4.20209 1.43929 2
    endloop
  endfacet
  facet normal -0 0 1
    outer loop
      vertex -3.40285 -1.26541 2
      vertex -2.48901 -1.40897 2
      vertex -1.67564 1.86745 2
    endloop
  endfacet
  facet normal 0 0 1
    outer loop
      vertex -3.40285 1.43929 2
      vertex -1.67564 1.86745 2
      vertex -2.0916 3.54565 2
    endloop
  endfacet
  facet normal 0 0 1
    outer loop
      vertex -1.32368 -6.11008 2
      vertex -2.48901 -1.40897 2
      vertex -2.20198 -6.11008 2
    endloop
  endfacet
  facet normal 0 0 1
    outer loop
      vertex 5.1611 -13.3171 2
      vertex 1.32367 -6.11008 2
      vertex 4.83232 -14 2
    endloop
  endfacet
  facet normal 0 -0 1
    outer loop
      vertex 0.363953 -3.74995 2
      vertex 0.879166 -0.572693 2
      vertex -0.364044 -3.74995 2
    endloop
  endfacet
  facet normal -0 0 1
    outer loop
      vertex -2.20198 -6.11008 2
      vertex -5.16112 -13.3171 2
      vertex -1.32368 -6.11008 2
    endloop
  endfacet
  facet normal 0 0 1
    outer loop
      vertex -3.40285 -1.26541 2
      vertex -2.20198 -6.11008 2
      vertex -2.48901 -1.40897 2
    endloop
  endfacet
  facet normal 0 0 1
    outer loop
      vertex -0.983551 4.07921 2
      vertex -0.523849 2.15565 2
      vertex 0.523834 2.15565 2
    endloop
  endfacet
  facet normal -0 0 1
    outer loop
      vertex -1.67564 1.86745 2
      vertex -2.48901 -1.40897 2
      vertex -0.523849 2.15565 2
    endloop
  endfacet
  facet normal 0 0 1
    outer loop
      vertex 0.879166 -0.572693 2
      vertex -0.879272 -0.572693 2
      vertex -0.364044 -3.74995 2
    endloop
  endfacet
  facet normal 0 0 1
    outer loop
      vertex 0.879166 -0.572693 2
      vertex -0.523849 2.15565 2
      vertex -0.879272 -0.572693 2
    endloop
  endfacet
  facet normal 0 0 1
    outer loop
      vertex 3.40283 -1.26541 2
      vertex 2.48907 -1.40897 2
      vertex 2.20193 -6.11008 2
    endloop
  endfacet
  facet normal 0 0 1
    outer loop
      vertex 5.1611 -13.3171 2
      vertex 2.20193 -6.11008 2
      vertex 1.32367 -6.11008 2
    endloop
  endfacet
  facet normal -0 0 1
    outer loop
      vertex -0.983551 4.07921 2
      vertex 0.523834 2.15565 2
      vertex 0.983536 4.07921 2
    endloop
  endfacet
  facet normal -0 0 1
    outer loop
      vertex -0.523849 2.15565 2
      vertex 0.879166 -0.572693 2
      vertex 0.523834 2.15565 2
    endloop
  endfacet
  facet normal 0 0 1
    outer loop
      vertex 3.40283 -1.26541 2
      vertex 1.67563 1.86745 2
      vertex 2.48907 -1.40897 2
    endloop
  endfacet
  facet normal 0 0 1
    outer loop
      vertex 0.523834 2.15565 2
      vertex 2.48907 -1.40897 2
      vertex 1.67563 1.86745 2
    endloop
  endfacet
  facet normal 0 0 1
    outer loop
      vertex 2.48907 -1.40897 2
      vertex 1.32367 -6.11008 2
      vertex 2.20193 -6.11008 2
    endloop
  endfacet
  facet normal 0.925058 0.379825 0
    outer loop
      vertex 2.20193 -6.11008 0
      vertex 5.1611 -13.3171 2
      vertex 5.1611 -13.3171 0
    endloop
  endfacet
  facet normal 0.925058 0.379825 -0
    outer loop
      vertex 2.20193 -6.11008 0
      vertex 2.20193 -6.11008 2
      vertex 5.1611 -13.3171 2
    endloop
  endfacet
  facet normal 0.970625 -0.240599 0
    outer loop
      vertex 3.40283 -1.26541 0
      vertex 2.20193 -6.11008 2
      vertex 2.20193 -6.11008 0
    endloop
  endfacet
  facet normal 0.970625 -0.240599 0
    outer loop
      vertex 3.40283 -1.26541 0
      vertex 3.40283 -1.26541 2
      vertex 2.20193 -6.11008 2
    endloop
  endfacet
  facet normal 0.875728 0.482804 0
    outer loop
      vertex 1.67563 1.86745 0
      vertex 3.40283 -1.26541 2
      vertex 3.40283 -1.26541 0
    endloop
  endfacet
  facet normal 0.875728 0.482804 -0
    outer loop
      vertex 1.67563 1.86745 0
      vertex 1.67563 1.86745 2
      vertex 3.40283 -1.26541 2
    endloop
  endfacet
  facet normal -0.24061 -0.970622 0
    outer loop
      vertex 3.40283 1.43929 0
      vertex 1.67563 1.86745 2
      vertex 1.67563 1.86745 0
    endloop
  endfacet
  facet normal -0.24061 -0.970622 0
    outer loop
      vertex 3.40283 1.43929 0
      vertex 3.40283 1.43929 2
      vertex 1.67563 1.86745 2
    endloop
  endfacet
  facet normal -0.875727 -0.482807 0
    outer loop
      vertex 5.77547 -2.86426 0
      vertex 3.40283 1.43929 2
      vertex 3.40283 1.43929 0
    endloop
  endfacet
  facet normal -0.875727 -0.482807 0
    outer loop
      vertex 5.77547 -2.86426 0
      vertex 5.77547 -2.86426 2
      vertex 3.40283 1.43929 2
    endloop
  endfacet
  facet normal -0.579213 -0.815176 0
    outer loop
      vertex 9.78362 -5.7122 0
      vertex 5.77547 -2.86426 2
      vertex 5.77547 -2.86426 0
    endloop
  endfacet
  facet normal -0.579213 -0.815176 0
    outer loop
      vertex 9.78362 -5.7122 0
      vertex 9.78362 -5.7122 2
      vertex 5.77547 -2.86426 2
    endloop
  endfacet
  facet normal 0.482738 -0.875765 0
    outer loop
      vertex 10.2686 -5.44487 0
      vertex 9.78362 -5.7122 2
      vertex 9.78362 -5.7122 0
    endloop
  endfacet
  facet normal 0.482738 -0.875765 0
    outer loop
      vertex 10.2686 -5.44487 0
      vertex 10.2686 -5.44487 2
      vertex 9.78362 -5.7122 2
    endloop
  endfacet
  facet normal 0.579213 0.815176 0
    outer loop
      vertex 6.26042 -2.59691 0
      vertex 10.2686 -5.44487 2
      vertex 10.2686 -5.44487 0
    endloop
  endfacet
  facet normal 0.579213 0.815176 -0
    outer loop
      vertex 6.26042 -2.59691 0
      vertex 6.26042 -2.59691 2
      vertex 10.2686 -5.44487 2
    endloop
  endfacet
  facet normal 0.890845 0.454306 0
    outer loop
      vertex 4.20207 1.43929 0
      vertex 6.26042 -2.59691 2
      vertex 6.26042 -2.59691 0
    endloop
  endfacet
  facet normal 0.890845 0.454306 -0
    outer loop
      vertex 4.20207 1.43929 0
      vertex 4.20207 1.43929 2
      vertex 6.26042 -2.59691 2
    endloop
  endfacet
  facet normal 0.129178 -0.991621 0
    outer loop
      vertex 8.26443 1.96849 0
      vertex 4.20207 1.43929 2
      vertex 4.20207 1.43929 0
    endloop
  endfacet
  facet normal 0.129178 -0.991621 0
    outer loop
      vertex 8.26443 1.96849 0
      vertex 8.26443 1.96849 2
      vertex 4.20207 1.43929 2
    endloop
  endfacet
  facet normal 0.675943 -0.736954 0
    outer loop
      vertex 9.78362 3.36191 0
      vertex 8.26443 1.96849 2
      vertex 8.26443 1.96849 0
    endloop
  endfacet
  facet normal 0.675943 -0.736954 0
    outer loop
      vertex 9.78362 3.36191 0
      vertex 9.78362 3.36191 2
      vertex 8.26443 1.96849 2
    endloop
  endfacet
  facet normal 0.890837 0.454324 0
    outer loop
      vertex 9.25739 4.39374 0
      vertex 9.78362 3.36191 2
      vertex 9.78362 3.36191 0
    endloop
  endfacet
  facet normal 0.890837 0.454324 -0
    outer loop
      vertex 9.25739 4.39374 0
      vertex 9.25739 4.39374 2
      vertex 9.78362 3.36191 2
    endloop
  endfacet
  facet normal 0 1 0
    outer loop
      vertex 7.01062 4.39374 0
      vertex 9.25739 4.39374 2
      vertex 9.25739 4.39374 0
    endloop
  endfacet
  facet normal 0 1 0
    outer loop
      vertex 7.01062 4.39374 0
      vertex 7.01062 4.39374 2
      vertex 9.25739 4.39374 2
    endloop
  endfacet
  facet normal -0.246862 0.969051 0
    outer loop
      vertex 3.68147 3.54565 0
      vertex 7.01062 4.39374 2
      vertex 7.01062 4.39374 0
    endloop
  endfacet
  facet normal -0.246862 0.969051 0
    outer loop
      vertex 3.68147 3.54565 0
      vertex 3.68147 3.54565 2
      vertex 7.01062 4.39374 2
    endloop
  endfacet
  facet normal 0 1 0
    outer loop
      vertex 2.09167 3.54565 0
      vertex 3.68147 3.54565 2
      vertex 3.68147 3.54565 0
    endloop
  endfacet
  facet normal 0 1 0
    outer loop
      vertex 2.09167 3.54565 0
      vertex 2.09167 3.54565 2
      vertex 3.68147 3.54565 2
    endloop
  endfacet
  facet normal 0.433825 0.900997 0
    outer loop
      vertex 0.983536 4.07921 0
      vertex 2.09167 3.54565 2
      vertex 2.09167 3.54565 0
    endloop
  endfacet
  facet normal 0.433825 0.900997 -0
    outer loop
      vertex 0.983536 4.07921 0
      vertex 0.983536 4.07921 2
      vertex 2.09167 3.54565 2
    endloop
  endfacet
  facet normal 0.482813 -0.875723 0
    outer loop
      vertex 3.07794 5.23392 0
      vertex 0.983536 4.07921 2
      vertex 0.983536 4.07921 0
    endloop
  endfacet
  facet normal 0.482813 -0.875723 0
    outer loop
      vertex 3.07794 5.23392 0
      vertex 3.07794 5.23392 2
      vertex 0.983536 4.07921 2
    endloop
  endfacet
  facet normal 0.936848 -0.349736 0
    outer loop
      vertex 4.11638 8.01562 0
      vertex 3.07794 5.23392 2
      vertex 3.07794 5.23392 0
    endloop
  endfacet
  facet normal 0.936848 -0.349736 0
    outer loop
      vertex 4.11638 8.01562 0
      vertex 4.11638 8.01562 2
      vertex 3.07794 5.23392 2
    endloop
  endfacet
  facet normal 0.675954 -0.736944 0
    outer loop
      vertex 7.44777 11.0713 0
      vertex 4.11638 8.01562 2
      vertex 4.11638 8.01562 0
    endloop
  endfacet
  facet normal 0.675954 -0.736944 0
    outer loop
      vertex 7.44777 11.0713 0
      vertex 7.44777 11.0713 2
      vertex 4.11638 8.01562 2
    endloop
  endfacet
  facet normal 1 0 0
    outer loop
      vertex 7.44777 11.3406 0
      vertex 7.44777 11.0713 2
      vertex 7.44777 11.0713 0
    endloop
  endfacet
  facet normal 1 0 -0
    outer loop
      vertex 7.44777 11.3406 0
      vertex 7.44777 11.3406 2
      vertex 7.44777 11.0713 2
    endloop
  endfacet
  facet normal -0.598819 0.800884 0
    outer loop
      vertex 3.59715 8.4615 0
      vertex 7.44777 11.3406 2
      vertex 7.44777 11.3406 0
    endloop
  endfacet
  facet normal -0.598819 0.800884 0
    outer loop
      vertex 3.59715 8.4615 0
      vertex 3.59715 8.4615 2
      vertex 7.44777 11.3406 2
    endloop
  endfacet
  facet normal -0.936853 0.349723 0
    outer loop
      vertex 2.53922 5.62747 0
      vertex 3.59715 8.4615 2
      vertex 3.59715 8.4615 0
    endloop
  endfacet
  facet normal -0.936853 0.349723 0
    outer loop
      vertex 2.53922 5.62747 0
      vertex 2.53922 5.62747 2
      vertex 3.59715 8.4615 2
    endloop
  endfacet
  facet normal -0.482798 0.875732 0
    outer loop
      vertex 0.879166 4.71227 0
      vertex 2.53922 5.62747 2
      vertex 2.53922 5.62747 0
    endloop
  endfacet
  facet normal -0.482798 0.875732 0
    outer loop
      vertex 0.879166 4.71227 0
      vertex 0.879166 4.71227 2
      vertex 2.53922 5.62747 2
    endloop
  endfacet
  facet normal 0.73695 0.675948 0
    outer loop
      vertex 0.418518 5.21449 0
      vertex 0.879166 4.71227 2
      vertex 0.879166 4.71227 0
    endloop
  endfacet
  facet normal 0.73695 0.675948 -0
    outer loop
      vertex 0.418518 5.21449 0
      vertex 0.418518 5.21449 2
      vertex 0.879166 4.71227 2
    endloop
  endfacet
  facet normal 0.675949 -0.736948 0
    outer loop
      vertex 0.983536 5.73274 0
      vertex 0.418518 5.21449 2
      vertex 0.418518 5.21449 0
    endloop
  endfacet
  facet normal 0.675949 -0.736948 0
    outer loop
      vertex 0.983536 5.73274 0
      vertex 0.983536 5.73274 2
      vertex 0.418518 5.21449 2
    endloop
  endfacet
  facet normal 0.800884 0.59882 0
    outer loop
      vertex 0.46962 6.42007 0
      vertex 0.983536 5.73274 2
      vertex 0.983536 5.73274 0
    endloop
  endfacet
  facet normal 0.800884 0.59882 -0
    outer loop
      vertex 0.46962 6.42007 0
      vertex 0.46962 6.42007 2
      vertex 0.983536 5.73274 2
    endloop
  endfacet
  facet normal 0.999281 0.0379248 0
    outer loop
      vertex 0.181946 14 0
      vertex 0.46962 6.42007 2
      vertex 0.46962 6.42007 0
    endloop
  endfacet
  facet normal 0.999281 0.0379248 -0
    outer loop
      vertex 0.181946 14 0
      vertex 0.181946 14 2
      vertex 0.46962 6.42007 2
    endloop
  endfacet
  facet normal 0 1 0
    outer loop
      vertex -0.182068 14 0
      vertex 0.181946 14 2
      vertex 0.181946 14 0
    endloop
  endfacet
  facet normal 0 1 0
    outer loop
      vertex -0.182068 14 0
      vertex -0.182068 14 2
      vertex 0.181946 14 2
    endloop
  endfacet
  facet normal -0.999281 0.0379107 0
    outer loop
      vertex -0.469635 6.42007 0
      vertex -0.182068 14 2
      vertex -0.182068 14 0
    endloop
  endfacet
  facet normal -0.999281 0.0379107 0
    outer loop
      vertex -0.469635 6.42007 0
      vertex -0.469635 6.42007 2
      vertex -0.182068 14 2
    endloop
  endfacet
  facet normal -0.800884 0.59882 0
    outer loop
      vertex -0.983551 5.73274 0
      vertex -0.469635 6.42007 2
      vertex -0.469635 6.42007 0
    endloop
  endfacet
  facet normal -0.800884 0.59882 0
    outer loop
      vertex -0.983551 5.73274 0
      vertex -0.983551 5.73274 2
      vertex -0.469635 6.42007 2
    endloop
  endfacet
  facet normal -0.675949 -0.736948 0
    outer loop
      vertex -0.418533 5.21449 0
      vertex -0.983551 5.73274 2
      vertex -0.983551 5.73274 0
    endloop
  endfacet
  facet normal -0.675949 -0.736948 0
    outer loop
      vertex -0.418533 5.21449 0
      vertex -0.418533 5.21449 2
      vertex -0.983551 5.73274 2
    endloop
  endfacet
  facet normal -0.736883 0.67602 0
    outer loop
      vertex -0.879272 4.71227 0
      vertex -0.418533 5.21449 2
      vertex -0.418533 5.21449 0
    endloop
  endfacet
  facet normal -0.736883 0.67602 0
    outer loop
      vertex -0.879272 4.71227 0
      vertex -0.879272 4.71227 2
      vertex -0.418533 5.21449 2
    endloop
  endfacet
  facet normal 0.482812 0.875724 0
    outer loop
      vertex -2.53926 5.62747 0
      vertex -0.879272 4.71227 2
      vertex -0.879272 4.71227 0
    endloop
  endfacet
  facet normal 0.482812 0.875724 -0
    outer loop
      vertex -2.53926 5.62747 0
      vertex -2.53926 5.62747 2
      vertex -0.879272 4.71227 2
    endloop
  endfacet
  facet normal 0.936845 0.349746 0
    outer loop
      vertex -3.59727 8.4615 0
      vertex -2.53926 5.62747 2
      vertex -2.53926 5.62747 0
    endloop
  endfacet
  facet normal 0.936845 0.349746 -0
    outer loop
      vertex -3.59727 8.4615 0
      vertex -3.59727 8.4615 2
      vertex -2.53926 5.62747 2
    endloop
  endfacet
  facet normal 0.598839 0.800869 0
    outer loop
      vertex -7.44769 11.3406 0
      vertex -3.59727 8.4615 2
      vertex -3.59727 8.4615 0
    endloop
  endfacet
  facet normal 0.598839 0.800869 -0
    outer loop
      vertex -7.44769 11.3406 0
      vertex -7.44769 11.3406 2
      vertex -3.59727 8.4615 2
    endloop
  endfacet
  facet normal -1 0 0
    outer loop
      vertex -7.44769 11.0713 0
      vertex -7.44769 11.3406 2
      vertex -7.44769 11.3406 0
    endloop
  endfacet
  facet normal -1 0 0
    outer loop
      vertex -7.44769 11.0713 0
      vertex -7.44769 11.0713 2
      vertex -7.44769 11.3406 2
    endloop
  endfacet
  facet normal -0.675963 -0.736936 0
    outer loop
      vertex -4.11638 8.01562 0
      vertex -7.44769 11.0713 2
      vertex -7.44769 11.0713 0
    endloop
  endfacet
  facet normal -0.675963 -0.736936 0
    outer loop
      vertex -4.11638 8.01562 0
      vertex -4.11638 8.01562 2
      vertex -7.44769 11.0713 2
    endloop
  endfacet
  facet normal -0.936854 -0.349721 0
    outer loop
      vertex -3.07799 5.23392 0
      vertex -4.11638 8.01562 2
      vertex -4.11638 8.01562 0
    endloop
  endfacet
  facet normal -0.936854 -0.349721 0
    outer loop
      vertex -3.07799 5.23392 0
      vertex -3.07799 5.23392 2
      vertex -4.11638 8.01562 2
    endloop
  endfacet
  facet normal -0.482807 -0.875727 0
    outer loop
      vertex -0.983551 4.07921 0
      vertex -3.07799 5.23392 2
      vertex -3.07799 5.23392 0
    endloop
  endfacet
  facet normal -0.482807 -0.875727 0
    outer loop
      vertex -0.983551 4.07921 0
      vertex -0.983551 4.07921 2
      vertex -3.07799 5.23392 2
    endloop
  endfacet
  facet normal -0.433852 0.900984 0
    outer loop
      vertex -2.0916 3.54565 0
      vertex -0.983551 4.07921 2
      vertex -0.983551 4.07921 0
    endloop
  endfacet
  facet normal -0.433852 0.900984 0
    outer loop
      vertex -2.0916 3.54565 0
      vertex -2.0916 3.54565 2
      vertex -0.983551 4.07921 2
    endloop
  endfacet
  facet normal 0 1 0
    outer loop
      vertex -3.68149 3.54565 0
      vertex -2.0916 3.54565 2
      vertex -2.0916 3.54565 0
    endloop
  endfacet
  facet normal 0 1 0
    outer loop
      vertex -3.68149 3.54565 0
      vertex -3.68149 3.54565 2
      vertex -2.0916 3.54565 2
    endloop
  endfacet
  facet normal 0.24686 0.969051 0
    outer loop
      vertex -7.01067 4.39374 0
      vertex -3.68149 3.54565 2
      vertex -3.68149 3.54565 0
    endloop
  endfacet
  facet normal 0.24686 0.969051 -0
    outer loop
      vertex -7.01067 4.39374 0
      vertex -7.01067 4.39374 2
      vertex -3.68149 3.54565 2
    endloop
  endfacet
  facet normal 0 1 0
    outer loop
      vertex -9.25743 4.39374 0
      vertex -7.01067 4.39374 2
      vertex -7.01067 4.39374 0
    endloop
  endfacet
  facet normal 0 1 0
    outer loop
      vertex -9.25743 4.39374 0
      vertex -9.25743 4.39374 2
      vertex -7.01067 4.39374 2
    endloop
  endfacet
  facet normal -0.890837 0.454324 0
    outer loop
      vertex -9.78366 3.36191 0
      vertex -9.25743 4.39374 2
      vertex -9.25743 4.39374 0
    endloop
  endfacet
  facet normal -0.890837 0.454324 0
    outer loop
      vertex -9.78366 3.36191 0
      vertex -9.78366 3.36191 2
      vertex -9.25743 4.39374 2
    endloop
  endfacet
  facet normal -0.675938 -0.736958 0
    outer loop
      vertex -8.26445 1.96849 0
      vertex -9.78366 3.36191 2
      vertex -9.78366 3.36191 0
    endloop
  endfacet
  facet normal -0.675938 -0.736958 0
    outer loop
      vertex -8.26445 1.96849 0
      vertex -8.26445 1.96849 2
      vertex -9.78366 3.36191 2
    endloop
  endfacet
  facet normal -0.129178 -0.991621 0
    outer loop
      vertex -4.20209 1.43929 0
      vertex -8.26445 1.96849 2
      vertex -8.26445 1.96849 0
    endloop
  endfacet
  facet normal -0.129178 -0.991621 0
    outer loop
      vertex -4.20209 1.43929 0
      vertex -4.20209 1.43929 2
      vertex -8.26445 1.96849 2
    endloop
  endfacet
  facet normal -0.890845 0.454306 0
    outer loop
      vertex -6.26044 -2.59691 0
      vertex -4.20209 1.43929 2
      vertex -4.20209 1.43929 0
    endloop
  endfacet
  facet normal -0.890845 0.454306 0
    outer loop
      vertex -6.26044 -2.59691 0
      vertex -6.26044 -2.59691 2
      vertex -4.20209 1.43929 2
    endloop
  endfacet
  facet normal -0.579215 0.815175 0
    outer loop
      vertex -10.2686 -5.44487 0
      vertex -6.26044 -2.59691 2
      vertex -6.26044 -2.59691 0
    endloop
  endfacet
  facet normal -0.579215 0.815175 0
    outer loop
      vertex -10.2686 -5.44487 0
      vertex -10.2686 -5.44487 2
      vertex -6.26044 -2.59691 2
    endloop
  endfacet
  facet normal -0.482768 -0.875748 0
    outer loop
      vertex -9.78366 -5.7122 0
      vertex -10.2686 -5.44487 2
      vertex -10.2686 -5.44487 0
    endloop
  endfacet
  facet normal -0.482768 -0.875748 0
    outer loop
      vertex -9.78366 -5.7122 0
      vertex -9.78366 -5.7122 2
      vertex -10.2686 -5.44487 2
    endloop
  endfacet
  facet normal 0.579212 -0.815177 0
    outer loop
      vertex -5.7755 -2.86426 0
      vertex -9.78366 -5.7122 2
      vertex -9.78366 -5.7122 0
    endloop
  endfacet
  facet normal 0.579212 -0.815177 0
    outer loop
      vertex -5.7755 -2.86426 0
      vertex -5.7755 -2.86426 2
      vertex -9.78366 -5.7122 2
    endloop
  endfacet
  facet normal 0.875726 -0.482809 0
    outer loop
      vertex -3.40285 1.43929 0
      vertex -5.7755 -2.86426 2
      vertex -5.7755 -2.86426 0
    endloop
  endfacet
  facet normal 0.875726 -0.482809 0
    outer loop
      vertex -3.40285 1.43929 0
      vertex -3.40285 1.43929 2
      vertex -5.7755 -2.86426 2
    endloop
  endfacet
  facet normal 0.240609 -0.970622 0
    outer loop
      vertex -1.67564 1.86745 0
      vertex -3.40285 1.43929 2
      vertex -3.40285 1.43929 0
    endloop
  endfacet
  facet normal 0.240609 -0.970622 0
    outer loop
      vertex -1.67564 1.86745 0
      vertex -1.67564 1.86745 2
      vertex -3.40285 1.43929 2
    endloop
  endfacet
  facet normal -0.875727 0.482806 0
    outer loop
      vertex -3.40285 -1.26541 0
      vertex -1.67564 1.86745 2
      vertex -1.67564 1.86745 0
    endloop
  endfacet
  facet normal -0.875727 0.482806 0
    outer loop
      vertex -3.40285 -1.26541 0
      vertex -3.40285 -1.26541 2
      vertex -1.67564 1.86745 2
    endloop
  endfacet
  facet normal -0.970626 -0.240593 0
    outer loop
      vertex -2.20198 -6.11008 0
      vertex -3.40285 -1.26541 2
      vertex -3.40285 -1.26541 0
    endloop
  endfacet
  facet normal -0.970626 -0.240593 0
    outer loop
      vertex -2.20198 -6.11008 0
      vertex -2.20198 -6.11008 2
      vertex -3.40285 -1.26541 2
    endloop
  endfacet
  facet normal -0.92506 0.379822 0
    outer loop
      vertex -5.16112 -13.3171 0
      vertex -2.20198 -6.11008 2
      vertex -2.20198 -6.11008 0
    endloop
  endfacet
  facet normal -0.92506 0.379822 0
    outer loop
      vertex -5.16112 -13.3171 0
      vertex -5.16112 -13.3171 2
      vertex -2.20198 -6.11008 2
    endloop
  endfacet
  facet normal -0.901004 -0.433812 0
    outer loop
      vertex -4.83232 -14 0
      vertex -5.16112 -13.3171 2
      vertex -5.16112 -13.3171 0
    endloop
  endfacet
  facet normal -0.901004 -0.433812 0
    outer loop
      vertex -4.83232 -14 0
      vertex -4.83232 -14 2
      vertex -5.16112 -13.3171 2
    endloop
  endfacet
  facet normal 0.913725 -0.406333 0
    outer loop
      vertex -1.32368 -6.11008 0
      vertex -4.83232 -14 2
      vertex -4.83232 -14 0
    endloop
  endfacet
  facet normal 0.913725 -0.406333 0
    outer loop
      vertex -1.32368 -6.11008 0
      vertex -1.32368 -6.11008 2
      vertex -4.83232 -14 2
    endloop
  endfacet
  facet normal 0.970624 0.240602 0
    outer loop
      vertex -2.48901 -1.40897 0
      vertex -1.32368 -6.11008 2
      vertex -1.32368 -6.11008 0
    endloop
  endfacet
  facet normal 0.970624 0.240602 -0
    outer loop
      vertex -2.48901 -1.40897 0
      vertex -2.48901 -1.40897 2
      vertex -1.32368 -6.11008 2
    endloop
  endfacet
  facet normal 0.875736 -0.48279 0
    outer loop
      vertex -0.523849 2.15565 0
      vertex -2.48901 -1.40897 2
      vertex -2.48901 -1.40897 0
    endloop
  endfacet
  facet normal 0.875736 -0.48279 0
    outer loop
      vertex -0.523849 2.15565 0
      vertex -0.523849 2.15565 2
      vertex -2.48901 -1.40897 2
    endloop
  endfacet
  facet normal -0.991621 0.129179 0
    outer loop
      vertex -0.879272 -0.572693 0
      vertex -0.523849 2.15565 2
      vertex -0.523849 2.15565 0
    endloop
  endfacet
  facet normal -0.991621 0.129179 0
    outer loop
      vertex -0.879272 -0.572693 0
      vertex -0.879272 -0.572693 2
      vertex -0.523849 2.15565 2
    endloop
  endfacet
  facet normal -0.987106 -0.16007 0
    outer loop
      vertex -0.364044 -3.74995 0
      vertex -0.879272 -0.572693 2
      vertex -0.879272 -0.572693 0
    endloop
  endfacet
  facet normal -0.987106 -0.16007 0
    outer loop
      vertex -0.364044 -3.74995 0
      vertex -0.364044 -3.74995 2
      vertex -0.879272 -0.572693 2
    endloop
  endfacet
  facet normal 0 -1 0
    outer loop
      vertex 0.363953 -3.74995 0
      vertex -0.364044 -3.74995 2
      vertex -0.364044 -3.74995 0
    endloop
  endfacet
  facet normal 0 -1 0
    outer loop
      vertex 0.363953 -3.74995 0
      vertex 0.363953 -3.74995 2
      vertex -0.364044 -3.74995 2
    endloop
  endfacet
  facet normal 0.987106 -0.160066 0
    outer loop
      vertex 0.879166 -0.572693 0
      vertex 0.363953 -3.74995 2
      vertex 0.363953 -3.74995 0
    endloop
  endfacet
  facet normal 0.987106 -0.160066 0
    outer loop
      vertex 0.879166 -0.572693 0
      vertex 0.879166 -0.572693 2
      vertex 0.363953 -3.74995 2
    endloop
  endfacet
  facet normal 0.991626 0.129147 0
    outer loop
      vertex 0.523834 2.15565 0
      vertex 0.879166 -0.572693 2
      vertex 0.879166 -0.572693 0
    endloop
  endfacet
  facet normal 0.991626 0.129147 -0
    outer loop
      vertex 0.523834 2.15565 0
      vertex 0.523834 2.15565 2
      vertex 0.879166 -0.572693 2
    endloop
  endfacet
  facet normal -0.875728 -0.482804 0
    outer loop
      vertex 2.48907 -1.40897 0
      vertex 0.523834 2.15565 2
      vertex 0.523834 2.15565 0
    endloop
  endfacet
  facet normal -0.875728 -0.482804 0
    outer loop
      vertex 2.48907 -1.40897 0
      vertex 2.48907 -1.40897 2
      vertex 0.523834 2.15565 2
    endloop
  endfacet
  facet normal -0.97062 0.240616 0
    outer loop
      vertex 1.32367 -6.11008 0
      vertex 2.48907 -1.40897 2
      vertex 2.48907 -1.40897 0
    endloop
  endfacet
  facet normal -0.97062 0.240616 0
    outer loop
      vertex 1.32367 -6.11008 0
      vertex 1.32367 -6.11008 2
      vertex 2.48907 -1.40897 2
    endloop
  endfacet
  facet normal -0.913725 -0.406334 0
    outer loop
      vertex 4.83232 -14 0
      vertex 1.32367 -6.11008 2
      vertex 1.32367 -6.11008 0
    endloop
  endfacet
  facet normal -0.913725 -0.406334 0
    outer loop
      vertex 4.83232 -14 0
      vertex 4.83232 -14 2
      vertex 1.32367 -6.11008 2
    endloop
  endfacet
  facet normal 0.901014 -0.43379 0
    outer loop
      vertex 5.1611 -13.3171 0
      vertex 4.83232 -14 2
      vertex 4.83232 -14 0
    endloop
  endfacet
  facet normal 0.901014 -0.43379 0
    outer loop
      vertex 5.1611 -13.3171 0
      vertex 5.1611 -13.3171 2
      vertex 4.83232 -14 2
    endloop
  endfacet
endsolid OpenSCAD_Model
