solid OpenSCAD_Model
  facet normal 0 -0.522494 0.852643
    outer loop
      vertex -10 -1.04418 -0.250685
      vertex 0 -1.35191 -0.43926
      vertex 0 -1.04418 -0.250685
    endloop
  endfacet
  facet normal 0 -0.522494 0.852643
    outer loop
      vertex 0 -1.35191 -0.43926
      vertex -10 -1.04418 -0.250685
      vertex -10 -1.35191 -0.43926
    endloop
  endfacet
  facet normal 0 0.852647 0.522488
    outer loop
      vertex 0 2.04931 -1.25582
      vertex -10 1.86074 -0.948093
      vertex 0 1.86074 -0.948093
    endloop
  endfacet
  facet normal 0 0.852647 0.522488
    outer loop
      vertex -10 1.86074 -0.948093
      vertex 0 2.04931 -1.25582
      vertex -10 2.04931 -1.25582
    endloop
  endfacet
  facet normal 0 -0.233437 -0.972372
    outer loop
      vertex -10 -0.710738 -4.48743
      vertex 0 -0.359798 -4.57168
      vertex 0 -0.710738 -4.48743
    endloop
  endfacet
  facet normal -0 -0.233437 -0.972372
    outer loop
      vertex 0 -0.359798 -4.57168
      vertex -10 -0.710738 -4.48743
      vertex -10 -0.359798 -4.57168
    endloop
  endfacet
  facet normal 0 0.760396 0.649459
    outer loop
      vertex 0 1.86074 -0.948093
      vertex -10 1.62634 -0.673654
      vertex 0 1.62634 -0.673654
    endloop
  endfacet
  facet normal 0 0.760396 0.649459
    outer loop
      vertex -10 1.62634 -0.673654
      vertex 0 1.86074 -0.948093
      vertex -10 1.86074 -0.948093
    endloop
  endfacet
  facet normal -1 0 0
    outer loop
      vertex 0 2.18743 -3.01074
      vertex 0 5 0
      vertex 0 5 -10
    endloop
  endfacet
  facet normal -1 0 0
    outer loop
      vertex 0 5 0
      vertex 0 2.27168 -2.6598
      vertex 0 2.3 -2.3
    endloop
  endfacet
  facet normal -1 0 0
    outer loop
      vertex 0 5 0
      vertex 0 2.18743 -3.01074
      vertex 0 2.27168 -2.6598
    endloop
  endfacet
  facet normal -1 0 0
    outer loop
      vertex 0 5 -10
      vertex 0 2.04931 -3.34418
      vertex 0 2.18743 -3.01074
    endloop
  endfacet
  facet normal -1 0 0
    outer loop
      vertex 0 5 -10
      vertex 0 1.86074 -3.65191
      vertex 0 2.04931 -3.34418
    endloop
  endfacet
  facet normal -1 0 0
    outer loop
      vertex 0 5 -10
      vertex 0 1.62634 -3.92634
      vertex 0 1.86074 -3.65191
    endloop
  endfacet
  facet normal -1 0 0
    outer loop
      vertex 0 5 -10
      vertex 0 1.35191 -4.16074
      vertex 0 1.62634 -3.92634
    endloop
  endfacet
  facet normal -1 0 0
    outer loop
      vertex 0 5 -10
      vertex 0 1.04418 -4.34931
      vertex 0 1.35191 -4.16074
    endloop
  endfacet
  facet normal -1 0 0
    outer loop
      vertex 0 5 -10
      vertex 0 0.710738 -4.48743
      vertex 0 1.04418 -4.34931
    endloop
  endfacet
  facet normal -1 0 0
    outer loop
      vertex 0 5 -10
      vertex 0 0.359798 -4.57168
      vertex 0 0.710738 -4.48743
    endloop
  endfacet
  facet normal -1 0 0
    outer loop
      vertex 0 5 -10
      vertex 0 0 -4.6
      vertex 0 0.359798 -4.57168
    endloop
  endfacet
  facet normal -1 0 0
    outer loop
      vertex 0 -5 -10
      vertex 0 0 -4.6
      vertex 0 5 -10
    endloop
  endfacet
  facet normal -1 -0 0
    outer loop
      vertex 0 0 -4.6
      vertex 0 -5 -10
      vertex 0 -0.359798 -4.57168
    endloop
  endfacet
  facet normal -1 -0 0
    outer loop
      vertex 0 -0.359798 -4.57168
      vertex 0 -5 -10
      vertex 0 -0.710738 -4.48743
    endloop
  endfacet
  facet normal -1 -0 0
    outer loop
      vertex 0 -0.710738 -4.48743
      vertex 0 -5 -10
      vertex 0 -1.04418 -4.34931
    endloop
  endfacet
  facet normal -1 -0 0
    outer loop
      vertex 0 -1.04418 -4.34931
      vertex 0 -5 -10
      vertex 0 -1.35191 -4.16074
    endloop
  endfacet
  facet normal -1 0 0
    outer loop
      vertex 0 -2.18743 -3.01074
      vertex 0 -5 0
      vertex 0 -2.27168 -2.6598
    endloop
  endfacet
  facet normal -1 0 0
    outer loop
      vertex 0 -5 0
      vertex 0 -2.18743 -3.01074
      vertex 0 -5 -10
    endloop
  endfacet
  facet normal -1 -0 0
    outer loop
      vertex 0 -2.04931 -3.34418
      vertex 0 -5 -10
      vertex 0 -2.18743 -3.01074
    endloop
  endfacet
  facet normal -1 -0 0
    outer loop
      vertex 0 -1.86074 -3.65191
      vertex 0 -5 -10
      vertex 0 -2.04931 -3.34418
    endloop
  endfacet
  facet normal -1 -0 0
    outer loop
      vertex 0 -1.62634 -3.92634
      vertex 0 -5 -10
      vertex 0 -1.86074 -3.65191
    endloop
  endfacet
  facet normal -1 -0 0
    outer loop
      vertex 0 -1.35191 -4.16074
      vertex 0 -5 -10
      vertex 0 -1.62634 -3.92634
    endloop
  endfacet
  facet normal -1 0 0
    outer loop
      vertex 0 2.27168 -1.9402
      vertex 0 5 0
      vertex 0 2.3 -2.3
    endloop
  endfacet
  facet normal -1 0 0
    outer loop
      vertex 0 2.18743 -1.58926
      vertex 0 5 0
      vertex 0 2.27168 -1.9402
    endloop
  endfacet
  facet normal -1 0 0
    outer loop
      vertex 0 2.04931 -1.25582
      vertex 0 5 0
      vertex 0 2.18743 -1.58926
    endloop
  endfacet
  facet normal -1 0 0
    outer loop
      vertex 0 1.86074 -0.948093
      vertex 0 5 0
      vertex 0 2.04931 -1.25582
    endloop
  endfacet
  facet normal -1 0 0
    outer loop
      vertex 0 1.62634 -0.673654
      vertex 0 5 0
      vertex 0 1.86074 -0.948093
    endloop
  endfacet
  facet normal -1 0 0
    outer loop
      vertex 0 1.35191 -0.43926
      vertex 0 5 0
      vertex 0 1.62634 -0.673654
    endloop
  endfacet
  facet normal -1 0 0
    outer loop
      vertex 0 1.04418 -0.250685
      vertex 0 5 0
      vertex 0 1.35191 -0.43926
    endloop
  endfacet
  facet normal -1 0 0
    outer loop
      vertex 0 0.710738 -0.11257
      vertex 0 5 0
      vertex 0 1.04418 -0.250685
    endloop
  endfacet
  facet normal -1 0 0
    outer loop
      vertex 0 0.359798 -0.0283165
      vertex 0 5 0
      vertex 0 0.710738 -0.11257
    endloop
  endfacet
  facet normal -1 -0 0
    outer loop
      vertex 0 5 0
      vertex 0 0.359798 -0.0283165
      vertex 0 0 0
    endloop
  endfacet
  facet normal -1 0 0
    outer loop
      vertex 0 -2.27168 -2.6598
      vertex 0 -5 0
      vertex 0 -2.3 -2.3
    endloop
  endfacet
  facet normal -1 0 0
    outer loop
      vertex 0 -2.3 -2.3
      vertex 0 -5 0
      vertex 0 -2.27168 -1.9402
    endloop
  endfacet
  facet normal -1 0 0
    outer loop
      vertex 0 -0.359798 -0.0283165
      vertex 0 -5 0
      vertex 0 0 0
    endloop
  endfacet
  facet normal -1 0 0
    outer loop
      vertex 0 -0.710738 -0.11257
      vertex 0 -5 0
      vertex 0 -0.359798 -0.0283165
    endloop
  endfacet
  facet normal -1 0 0
    outer loop
      vertex 0 -1.04418 -0.250685
      vertex 0 -5 0
      vertex 0 -0.710738 -0.11257
    endloop
  endfacet
  facet normal -1 0 0
    outer loop
      vertex 0 -1.35191 -0.43926
      vertex 0 -5 0
      vertex 0 -1.04418 -0.250685
    endloop
  endfacet
  facet normal -1 0 0
    outer loop
      vertex 0 -1.62634 -0.673654
      vertex 0 -5 0
      vertex 0 -1.35191 -0.43926
    endloop
  endfacet
  facet normal -1 0 0
    outer loop
      vertex 0 -1.86074 -0.948093
      vertex 0 -5 0
      vertex 0 -1.62634 -0.673654
    endloop
  endfacet
  facet normal -1 0 0
    outer loop
      vertex 0 -2.04931 -1.25582
      vertex 0 -5 0
      vertex 0 -1.86074 -0.948093
    endloop
  endfacet
  facet normal -1 0 0
    outer loop
      vertex 0 -2.18743 -1.58926
      vertex 0 -5 0
      vertex 0 -2.04931 -1.25582
    endloop
  endfacet
  facet normal -1 0 0
    outer loop
      vertex 0 -2.27168 -1.9402
      vertex 0 -5 0
      vertex 0 -2.18743 -1.58926
    endloop
  endfacet
  facet normal 0 0.760386 -0.649471
    outer loop
      vertex 0 1.62634 -3.92634
      vertex -10 1.86074 -3.65191
      vertex 0 1.86074 -3.65191
    endloop
  endfacet
  facet normal 0 0.760386 -0.649471
    outer loop
      vertex -10 1.86074 -3.65191
      vertex 0 1.62634 -3.92634
      vertex -10 1.62634 -3.92634
    endloop
  endfacet
  facet normal 0 0.852649 -0.522484
    outer loop
      vertex 0 1.86074 -3.65191
      vertex -10 2.04931 -3.34418
      vertex 0 2.04931 -3.34418
    endloop
  endfacet
  facet normal 0 0.852649 -0.522484
    outer loop
      vertex -10 2.04931 -3.34418
      vertex 0 1.86074 -3.65191
      vertex -10 1.86074 -3.65191
    endloop
  endfacet
  facet normal 0 -0.522484 -0.852649
    outer loop
      vertex -10 -1.35191 -4.16074
      vertex 0 -1.04418 -4.34931
      vertex 0 -1.35191 -4.16074
    endloop
  endfacet
  facet normal -0 -0.522484 -0.852649
    outer loop
      vertex 0 -1.04418 -4.34931
      vertex -10 -1.35191 -4.16074
      vertex -10 -1.04418 -4.34931
    endloop
  endfacet
  facet normal -0 0.522494 0.852643
    outer loop
      vertex -10 1.35191 -0.43926
      vertex 0 1.04418 -0.250685
      vertex 0 1.35191 -0.43926
    endloop
  endfacet
  facet normal 0 0.522494 0.852643
    outer loop
      vertex 0 1.04418 -0.250685
      vertex -10 1.35191 -0.43926
      vertex -10 1.04418 -0.250685
    endloop
  endfacet
  facet normal -0 0.233446 0.97237
    outer loop
      vertex -10 0.710738 -0.11257
      vertex 0 0.359798 -0.0283165
      vertex 0 0.710738 -0.11257
    endloop
  endfacet
  facet normal 0 0.233446 0.97237
    outer loop
      vertex 0 0.359798 -0.0283165
      vertex -10 0.710738 -0.11257
      vertex -10 0.359798 -0.0283165
    endloop
  endfacet
  facet normal 0 0.972372 -0.233437
    outer loop
      vertex 0 2.18743 -3.01074
      vertex -10 2.27168 -2.6598
      vertex 0 2.27168 -2.6598
    endloop
  endfacet
  facet normal 0 0.972372 -0.233437
    outer loop
      vertex -10 2.27168 -2.6598
      vertex 0 2.18743 -3.01074
      vertex -10 2.18743 -3.01074
    endloop
  endfacet
  facet normal -0 0.0784585 0.996917
    outer loop
      vertex -10 0.359798 -0.0283165
      vertex 0 0 0
      vertex 0 0.359798 -0.0283165
    endloop
  endfacet
  facet normal 0 0.0784585 0.996917
    outer loop
      vertex 0 0 0
      vertex -10 0.359798 -0.0283165
      vertex -10 0 0
    endloop
  endfacet
  facet normal -0 0.382681 0.923881
    outer loop
      vertex -10 1.04418 -0.250685
      vertex 0 0.710738 -0.11257
      vertex 0 1.04418 -0.250685
    endloop
  endfacet
  facet normal 0 0.382681 0.923881
    outer loop
      vertex 0 0.710738 -0.11257
      vertex -10 1.04418 -0.250685
      vertex -10 0.710738 -0.11257
    endloop
  endfacet
  facet normal 0 -0.996917 -0.0784677
    outer loop
      vertex -10 -2.27168 -2.6598
      vertex 0 -2.3 -2.3
      vertex -10 -2.3 -2.3
    endloop
  endfacet
  facet normal 0 -0.996917 -0.0784677
    outer loop
      vertex 0 -2.3 -2.3
      vertex -10 -2.27168 -2.6598
      vertex 0 -2.27168 -2.6598
    endloop
  endfacet
  facet normal 0 -0.852649 -0.522484
    outer loop
      vertex -10 -1.86074 -3.65191
      vertex 0 -2.04931 -3.34418
      vertex -10 -2.04931 -3.34418
    endloop
  endfacet
  facet normal 0 -0.852649 -0.522484
    outer loop
      vertex 0 -2.04931 -3.34418
      vertex -10 -1.86074 -3.65191
      vertex 0 -1.86074 -3.65191
    endloop
  endfacet
  facet normal 0 0.972372 0.233437
    outer loop
      vertex 0 2.27168 -1.9402
      vertex -10 2.18743 -1.58926
      vertex 0 2.18743 -1.58926
    endloop
  endfacet
  facet normal 0 0.972372 0.233437
    outer loop
      vertex -10 2.18743 -1.58926
      vertex 0 2.27168 -1.9402
      vertex -10 2.27168 -1.9402
    endloop
  endfacet
  facet normal 0 -0.923875 -0.382694
    outer loop
      vertex -10 -2.04931 -3.34418
      vertex 0 -2.18743 -3.01074
      vertex -10 -2.18743 -3.01074
    endloop
  endfacet
  facet normal 0 -0.923875 -0.382694
    outer loop
      vertex 0 -2.18743 -3.01074
      vertex -10 -2.04931 -3.34418
      vertex 0 -2.04931 -3.34418
    endloop
  endfacet
  facet normal 0 -0.382692 -0.923876
    outer loop
      vertex -10 -1.04418 -4.34931
      vertex 0 -0.710738 -4.48743
      vertex 0 -1.04418 -4.34931
    endloop
  endfacet
  facet normal -0 -0.382692 -0.923876
    outer loop
      vertex 0 -0.710738 -4.48743
      vertex -10 -1.04418 -4.34931
      vertex -10 -0.710738 -4.48743
    endloop
  endfacet
  facet normal 0 -0.972372 0.233437
    outer loop
      vertex -10 -2.27168 -1.9402
      vertex 0 -2.18743 -1.58926
      vertex -10 -2.18743 -1.58926
    endloop
  endfacet
  facet normal 0 -0.972372 0.233437
    outer loop
      vertex 0 -2.18743 -1.58926
      vertex -10 -2.27168 -1.9402
      vertex 0 -2.27168 -1.9402
    endloop
  endfacet
  facet normal 0 0.996917 -0.0784677
    outer loop
      vertex 0 2.27168 -2.6598
      vertex -10 2.3 -2.3
      vertex 0 2.3 -2.3
    endloop
  endfacet
  facet normal 0 0.996917 -0.0784677
    outer loop
      vertex -10 2.3 -2.3
      vertex 0 2.27168 -2.6598
      vertex -10 2.27168 -2.6598
    endloop
  endfacet
  facet normal 0 0.923875 -0.382694
    outer loop
      vertex 0 2.04931 -3.34418
      vertex -10 2.18743 -3.01074
      vertex 0 2.18743 -3.01074
    endloop
  endfacet
  facet normal 0 0.923875 -0.382694
    outer loop
      vertex -10 2.18743 -3.01074
      vertex 0 2.04931 -3.34418
      vertex -10 2.04931 -3.34418
    endloop
  endfacet
  facet normal 0 -0.0784585 0.996917
    outer loop
      vertex -10 0 0
      vertex 0 -0.359798 -0.0283165
      vertex 0 0 0
    endloop
  endfacet
  facet normal 0 -0.0784585 0.996917
    outer loop
      vertex 0 -0.359798 -0.0283165
      vertex -10 0 0
      vertex -10 -0.359798 -0.0283165
    endloop
  endfacet
  facet normal 0 0.649471 -0.760386
    outer loop
      vertex -10 1.35191 -4.16074
      vertex 0 1.62634 -3.92634
      vertex 0 1.35191 -4.16074
    endloop
  endfacet
  facet normal 0 0.649471 -0.760386
    outer loop
      vertex 0 1.62634 -3.92634
      vertex -10 1.35191 -4.16074
      vertex -10 1.62634 -3.92634
    endloop
  endfacet
  facet normal 0 0.996917 0.0784677
    outer loop
      vertex 0 2.3 -2.3
      vertex -10 2.27168 -1.9402
      vertex 0 2.27168 -1.9402
    endloop
  endfacet
  facet normal 0 0.996917 0.0784677
    outer loop
      vertex -10 2.27168 -1.9402
      vertex 0 2.3 -2.3
      vertex -10 2.3 -2.3
    endloop
  endfacet
  facet normal 0 -0.649462 0.760394
    outer loop
      vertex -10 -1.35191 -0.43926
      vertex 0 -1.62634 -0.673654
      vertex 0 -1.35191 -0.43926
    endloop
  endfacet
  facet normal 0 -0.649462 0.760394
    outer loop
      vertex 0 -1.62634 -0.673654
      vertex -10 -1.35191 -0.43926
      vertex -10 -1.62634 -0.673654
    endloop
  endfacet
  facet normal 0 -0.996917 0.0784677
    outer loop
      vertex -10 -2.3 -2.3
      vertex 0 -2.27168 -1.9402
      vertex -10 -2.27168 -1.9402
    endloop
  endfacet
  facet normal 0 -0.996917 0.0784677
    outer loop
      vertex 0 -2.27168 -1.9402
      vertex -10 -2.3 -2.3
      vertex 0 -2.3 -2.3
    endloop
  endfacet
  facet normal 0 -0.760396 0.649459
    outer loop
      vertex -10 -1.86074 -0.948093
      vertex 0 -1.62634 -0.673654
      vertex -10 -1.62634 -0.673654
    endloop
  endfacet
  facet normal 0 -0.760396 0.649459
    outer loop
      vertex 0 -1.62634 -0.673654
      vertex -10 -1.86074 -0.948093
      vertex 0 -1.86074 -0.948093
    endloop
  endfacet
  facet normal 0 0.923875 0.382694
    outer loop
      vertex 0 2.18743 -1.58926
      vertex -10 2.04931 -1.25582
      vertex 0 2.04931 -1.25582
    endloop
  endfacet
  facet normal 0 0.923875 0.382694
    outer loop
      vertex -10 2.04931 -1.25582
      vertex 0 2.18743 -1.58926
      vertex -10 2.18743 -1.58926
    endloop
  endfacet
  facet normal -0 0.649462 0.760394
    outer loop
      vertex -10 1.62634 -0.673654
      vertex 0 1.35191 -0.43926
      vertex 0 1.62634 -0.673654
    endloop
  endfacet
  facet normal 0 0.649462 0.760394
    outer loop
      vertex 0 1.35191 -0.43926
      vertex -10 1.62634 -0.673654
      vertex -10 1.35191 -0.43926
    endloop
  endfacet
  facet normal 0 0.233437 -0.972372
    outer loop
      vertex -10 0.359798 -4.57168
      vertex 0 0.710738 -4.48743
      vertex 0 0.359798 -4.57168
    endloop
  endfacet
  facet normal 0 0.233437 -0.972372
    outer loop
      vertex 0 0.710738 -4.48743
      vertex -10 0.359798 -4.57168
      vertex -10 0.710738 -4.48743
    endloop
  endfacet
  facet normal 0 -0.382681 0.923881
    outer loop
      vertex -10 -0.710738 -0.11257
      vertex 0 -1.04418 -0.250685
      vertex 0 -0.710738 -0.11257
    endloop
  endfacet
  facet normal 0 -0.382681 0.923881
    outer loop
      vertex 0 -1.04418 -0.250685
      vertex -10 -0.710738 -0.11257
      vertex -10 -1.04418 -0.250685
    endloop
  endfacet
  facet normal 0 0.0784681 -0.996917
    outer loop
      vertex -10 0 -4.6
      vertex 0 0.359798 -4.57168
      vertex 0 0 -4.6
    endloop
  endfacet
  facet normal 0 0.0784681 -0.996917
    outer loop
      vertex 0 0.359798 -4.57168
      vertex -10 0 -4.6
      vertex -10 0.359798 -4.57168
    endloop
  endfacet
  facet normal 0 -0.923875 0.382694
    outer loop
      vertex -10 -2.18743 -1.58926
      vertex 0 -2.04931 -1.25582
      vertex -10 -2.04931 -1.25582
    endloop
  endfacet
  facet normal 0 -0.923875 0.382694
    outer loop
      vertex 0 -2.04931 -1.25582
      vertex -10 -2.18743 -1.58926
      vertex 0 -2.18743 -1.58926
    endloop
  endfacet
  facet normal 0 -0.852647 0.522488
    outer loop
      vertex -10 -2.04931 -1.25582
      vertex 0 -1.86074 -0.948093
      vertex -10 -1.86074 -0.948093
    endloop
  endfacet
  facet normal 0 -0.852647 0.522488
    outer loop
      vertex 0 -1.86074 -0.948093
      vertex -10 -2.04931 -1.25582
      vertex 0 -2.04931 -1.25582
    endloop
  endfacet
  facet normal 0 -0.760386 -0.649471
    outer loop
      vertex -10 -1.62634 -3.92634
      vertex 0 -1.86074 -3.65191
      vertex -10 -1.86074 -3.65191
    endloop
  endfacet
  facet normal 0 -0.760386 -0.649471
    outer loop
      vertex 0 -1.86074 -3.65191
      vertex -10 -1.62634 -3.92634
      vertex 0 -1.62634 -3.92634
    endloop
  endfacet
  facet normal 0 -0.649471 -0.760386
    outer loop
      vertex -10 -1.62634 -3.92634
      vertex 0 -1.35191 -4.16074
      vertex 0 -1.62634 -3.92634
    endloop
  endfacet
  facet normal -0 -0.649471 -0.760386
    outer loop
      vertex 0 -1.35191 -4.16074
      vertex -10 -1.62634 -3.92634
      vertex -10 -1.35191 -4.16074
    endloop
  endfacet
  facet normal 0 -0.0784681 -0.996917
    outer loop
      vertex -10 -0.359798 -4.57168
      vertex 0 0 -4.6
      vertex 0 -0.359798 -4.57168
    endloop
  endfacet
  facet normal -0 -0.0784681 -0.996917
    outer loop
      vertex 0 0 -4.6
      vertex -10 -0.359798 -4.57168
      vertex -10 0 -4.6
    endloop
  endfacet
  facet normal 0 -0.233446 0.97237
    outer loop
      vertex -10 -0.359798 -0.0283165
      vertex 0 -0.710738 -0.11257
      vertex 0 -0.359798 -0.0283165
    endloop
  endfacet
  facet normal 0 -0.233446 0.97237
    outer loop
      vertex 0 -0.710738 -0.11257
      vertex -10 -0.359798 -0.0283165
      vertex -10 -0.710738 -0.11257
    endloop
  endfacet
  facet normal 0 -0.972372 -0.233437
    outer loop
      vertex -10 -2.18743 -3.01074
      vertex 0 -2.27168 -2.6598
      vertex -10 -2.27168 -2.6598
    endloop
  endfacet
  facet normal 0 -0.972372 -0.233437
    outer loop
      vertex 0 -2.27168 -2.6598
      vertex -10 -2.18743 -3.01074
      vertex 0 -2.18743 -3.01074
    endloop
  endfacet
  facet normal -1 0 0
    outer loop
      vertex -10 2.27168 -2.6598
      vertex -10 2.27168 -1.9402
      vertex -10 2.3 -2.3
    endloop
  endfacet
  facet normal -1 0 0
    outer loop
      vertex -10 2.18743 -3.01074
      vertex -10 2.27168 -1.9402
      vertex -10 2.27168 -2.6598
    endloop
  endfacet
  facet normal -1 0 0
    outer loop
      vertex -10 2.18743 -3.01074
      vertex -10 2.18743 -1.58926
      vertex -10 2.27168 -1.9402
    endloop
  endfacet
  facet normal -1 0 0
    outer loop
      vertex -10 2.04931 -3.34418
      vertex -10 2.18743 -1.58926
      vertex -10 2.18743 -3.01074
    endloop
  endfacet
  facet normal -1 0 0
    outer loop
      vertex -10 2.04931 -3.34418
      vertex -10 2.04931 -1.25582
      vertex -10 2.18743 -1.58926
    endloop
  endfacet
  facet normal -1 0 0
    outer loop
      vertex -10 1.86074 -3.65191
      vertex -10 2.04931 -1.25582
      vertex -10 2.04931 -3.34418
    endloop
  endfacet
  facet normal -1 0 0
    outer loop
      vertex -10 1.86074 -3.65191
      vertex -10 1.86074 -0.948093
      vertex -10 2.04931 -1.25582
    endloop
  endfacet
  facet normal -1 0 0
    outer loop
      vertex -10 1.62634 -3.92634
      vertex -10 1.86074 -0.948093
      vertex -10 1.86074 -3.65191
    endloop
  endfacet
  facet normal -1 0 0
    outer loop
      vertex -10 1.62634 -3.92634
      vertex -10 1.62634 -0.673654
      vertex -10 1.86074 -0.948093
    endloop
  endfacet
  facet normal -1 0 0
    outer loop
      vertex -10 1.35191 -4.16074
      vertex -10 1.62634 -0.673654
      vertex -10 1.62634 -3.92634
    endloop
  endfacet
  facet normal -1 0 0
    outer loop
      vertex -10 1.35191 -4.16074
      vertex -10 1.35191 -0.43926
      vertex -10 1.62634 -0.673654
    endloop
  endfacet
  facet normal -1 0 0
    outer loop
      vertex -10 1.04418 -4.34931
      vertex -10 1.35191 -0.43926
      vertex -10 1.35191 -4.16074
    endloop
  endfacet
  facet normal -1 0 0
    outer loop
      vertex -10 1.04418 -4.34931
      vertex -10 1.04418 -0.250685
      vertex -10 1.35191 -0.43926
    endloop
  endfacet
  facet normal -1 0 0
    outer loop
      vertex -10 0.710738 -4.48743
      vertex -10 1.04418 -0.250685
      vertex -10 1.04418 -4.34931
    endloop
  endfacet
  facet normal -1 0 0
    outer loop
      vertex -10 0.710738 -4.48743
      vertex -10 0.710738 -0.11257
      vertex -10 1.04418 -0.250685
    endloop
  endfacet
  facet normal -1 0 0
    outer loop
      vertex -10 0.359798 -4.57168
      vertex -10 0.710738 -0.11257
      vertex -10 0.710738 -4.48743
    endloop
  endfacet
  facet normal -1 0 0
    outer loop
      vertex -10 0.359798 -4.57168
      vertex -10 0.359798 -0.0283165
      vertex -10 0.710738 -0.11257
    endloop
  endfacet
  facet normal -1 0 0
    outer loop
      vertex -10 0 -4.6
      vertex -10 0.359798 -0.0283165
      vertex -10 0.359798 -4.57168
    endloop
  endfacet
  facet normal -1 0 0
    outer loop
      vertex -10 0 -4.6
      vertex -10 0 0
      vertex -10 0.359798 -0.0283165
    endloop
  endfacet
  facet normal -1 0 0
    outer loop
      vertex -10 -0.359798 -4.57168
      vertex -10 0 0
      vertex -10 0 -4.6
    endloop
  endfacet
  facet normal -1 0 0
    outer loop
      vertex -10 -0.359798 -4.57168
      vertex -10 -0.359798 -0.0283165
      vertex -10 0 0
    endloop
  endfacet
  facet normal -1 0 0
    outer loop
      vertex -10 -0.710738 -4.48743
      vertex -10 -0.359798 -0.0283165
      vertex -10 -0.359798 -4.57168
    endloop
  endfacet
  facet normal -1 0 0
    outer loop
      vertex -10 -0.710738 -4.48743
      vertex -10 -0.710738 -0.11257
      vertex -10 -0.359798 -0.0283165
    endloop
  endfacet
  facet normal -1 0 0
    outer loop
      vertex -10 -1.04418 -4.34931
      vertex -10 -0.710738 -0.11257
      vertex -10 -0.710738 -4.48743
    endloop
  endfacet
  facet normal -1 0 0
    outer loop
      vertex -10 -1.04418 -4.34931
      vertex -10 -1.04418 -0.250685
      vertex -10 -0.710738 -0.11257
    endloop
  endfacet
  facet normal -1 0 0
    outer loop
      vertex -10 -1.35191 -4.16074
      vertex -10 -1.04418 -0.250685
      vertex -10 -1.04418 -4.34931
    endloop
  endfacet
  facet normal -1 0 0
    outer loop
      vertex -10 -1.35191 -4.16074
      vertex -10 -1.35191 -0.43926
      vertex -10 -1.04418 -0.250685
    endloop
  endfacet
  facet normal -1 0 0
    outer loop
      vertex -10 -1.62634 -3.92634
      vertex -10 -1.35191 -0.43926
      vertex -10 -1.35191 -4.16074
    endloop
  endfacet
  facet normal -1 0 0
    outer loop
      vertex -10 -1.62634 -3.92634
      vertex -10 -1.62634 -0.673654
      vertex -10 -1.35191 -0.43926
    endloop
  endfacet
  facet normal -1 0 0
    outer loop
      vertex -10 -1.86074 -3.65191
      vertex -10 -1.62634 -0.673654
      vertex -10 -1.62634 -3.92634
    endloop
  endfacet
  facet normal -1 0 0
    outer loop
      vertex -10 -1.86074 -3.65191
      vertex -10 -1.86074 -0.948093
      vertex -10 -1.62634 -0.673654
    endloop
  endfacet
  facet normal -1 0 0
    outer loop
      vertex -10 -2.04931 -3.34418
      vertex -10 -1.86074 -0.948093
      vertex -10 -1.86074 -3.65191
    endloop
  endfacet
  facet normal -1 0 0
    outer loop
      vertex -10 -2.04931 -3.34418
      vertex -10 -2.04931 -1.25582
      vertex -10 -1.86074 -0.948093
    endloop
  endfacet
  facet normal -1 0 0
    outer loop
      vertex -10 -2.18743 -3.01074
      vertex -10 -2.04931 -1.25582
      vertex -10 -2.04931 -3.34418
    endloop
  endfacet
  facet normal -1 0 0
    outer loop
      vertex -10 -2.18743 -3.01074
      vertex -10 -2.18743 -1.58926
      vertex -10 -2.04931 -1.25582
    endloop
  endfacet
  facet normal -1 0 0
    outer loop
      vertex -10 -2.27168 -2.6598
      vertex -10 -2.18743 -1.58926
      vertex -10 -2.18743 -3.01074
    endloop
  endfacet
  facet normal -1 0 0
    outer loop
      vertex -10 -2.27168 -2.6598
      vertex -10 -2.27168 -1.9402
      vertex -10 -2.18743 -1.58926
    endloop
  endfacet
  facet normal -1 0 -0
    outer loop
      vertex -10 -2.27168 -1.9402
      vertex -10 -2.27168 -2.6598
      vertex -10 -2.3 -2.3
    endloop
  endfacet
  facet normal 0 0.382692 -0.923876
    outer loop
      vertex -10 0.710738 -4.48743
      vertex 0 1.04418 -4.34931
      vertex 0 0.710738 -4.48743
    endloop
  endfacet
  facet normal 0 0.382692 -0.923876
    outer loop
      vertex 0 1.04418 -4.34931
      vertex -10 0.710738 -4.48743
      vertex -10 1.04418 -4.34931
    endloop
  endfacet
  facet normal 0 0.522484 -0.852649
    outer loop
      vertex -10 1.04418 -4.34931
      vertex 0 1.35191 -4.16074
      vertex 0 1.04418 -4.34931
    endloop
  endfacet
  facet normal 0 0.522484 -0.852649
    outer loop
      vertex 0 1.35191 -4.16074
      vertex -10 1.04418 -4.34931
      vertex -10 1.35191 -4.16074
    endloop
  endfacet
  facet normal 0 -1 0
    outer loop
      vertex 0 -5 0
      vertex 0 -5 -10
      vertex 10 -5 0
    endloop
  endfacet
  facet normal 0 0 1
    outer loop
      vertex 0 0 0
      vertex 10 5 0
      vertex 0 5 0
    endloop
  endfacet
  facet normal 0 0 1
    outer loop
      vertex 10 5 0
      vertex 0 0 0
      vertex 10 -5 0
    endloop
  endfacet
  facet normal 0 0 1
    outer loop
      vertex 10 -5 0
      vertex 0 0 0
      vertex 0 -5 0
    endloop
  endfacet
  facet normal 0 1 0
    outer loop
      vertex 10 5 0
      vertex 0 5 -10
      vertex 0 5 0
    endloop
  endfacet
  facet normal 0.707107 0 -0.707107
    outer loop
      vertex 10 -5 0
      vertex 0 5 -10
      vertex 10 5 0
    endloop
  endfacet
  facet normal 0.707107 0 -0.707107
    outer loop
      vertex 0 5 -10
      vertex 10 -5 0
      vertex 0 -5 -10
    endloop
  endfacet
endsolid OpenSCAD_Model
