solid OpenSCAD_Model
  facet normal 0 0 -1
    outer loop
      vertex 14.5205 8.38344 6
      vertex -14.5205 8.38344 6
      vertex 0 16.7668 6
    endloop
  endfacet
  facet normal 0 0 -1
    outer loop
      vertex 14.5205 -8.38344 6
      vertex -14.5205 -8.38344 6
      vertex -14.5205 8.38344 6
    endloop
  endfacet
  facet normal 0 0 -1
    outer loop
      vertex 14.5205 -8.38344 6
      vertex -14.5205 8.38344 6
      vertex 14.5205 8.38344 6
    endloop
  endfacet
  facet normal -0 0 -1
    outer loop
      vertex 14.5205 -8.38344 6
      vertex 0 -16.7668 6
      vertex -14.5205 -8.38344 6
    endloop
  endfacet
  facet normal 0 0 1
    outer loop
      vertex 0 16.7668 11
      vertex -14.5205 8.38344 11
      vertex 14.5205 8.38344 11
    endloop
  endfacet
  facet normal 0 0 1
    outer loop
      vertex -14.5205 8.38344 11
      vertex -14.5205 -8.38344 11
      vertex 14.5205 -8.38344 11
    endloop
  endfacet
  facet normal 0 0 1
    outer loop
      vertex 14.5205 8.38344 11
      vertex -14.5205 8.38344 11
      vertex 14.5205 -8.38344 11
    endloop
  endfacet
  facet normal -0 0 1
    outer loop
      vertex -14.5205 -8.38344 11
      vertex 0 -16.7668 11
      vertex 14.5205 -8.38344 11
    endloop
  endfacet
  facet normal 1 0 0
    outer loop
      vertex 14.5205 8.38344 6
      vertex 14.5205 -8.38344 11
      vertex 14.5205 -8.38344 6
    endloop
  endfacet
  facet normal 1 0 -0
    outer loop
      vertex 14.5205 8.38344 6
      vertex 14.5205 8.38344 11
      vertex 14.5205 -8.38344 11
    endloop
  endfacet
  facet normal 0.499998 0.866027 0
    outer loop
      vertex 0 16.7668 6
      vertex 14.5205 8.38344 11
      vertex 14.5205 8.38344 6
    endloop
  endfacet
  facet normal 0.499998 0.866027 -0
    outer loop
      vertex 0 16.7668 6
      vertex 0 16.7668 11
      vertex 14.5205 8.38344 11
    endloop
  endfacet
  facet normal -0.499998 0.866027 0
    outer loop
      vertex -14.5205 8.38344 6
      vertex 0 16.7668 11
      vertex 0 16.7668 6
    endloop
  endfacet
  facet normal -0.499998 0.866027 0
    outer loop
      vertex -14.5205 8.38344 6
      vertex -14.5205 8.38344 11
      vertex 0 16.7668 11
    endloop
  endfacet
  facet normal -1 0 0
    outer loop
      vertex -14.5205 -8.38344 6
      vertex -14.5205 8.38344 11
      vertex -14.5205 8.38344 6
    endloop
  endfacet
  facet normal -1 0 0
    outer loop
      vertex -14.5205 -8.38344 6
      vertex -14.5205 -8.38344 11
      vertex -14.5205 8.38344 11
    endloop
  endfacet
  facet normal -0.499998 -0.866027 0
    outer loop
      vertex 0 -16.7668 6
      vertex -14.5205 -8.38344 11
      vertex -14.5205 -8.38344 6
    endloop
  endfacet
  facet normal -0.499998 -0.866027 0
    outer loop
      vertex 0 -16.7668 6
      vertex 0 -16.7668 11
      vertex -14.5205 -8.38344 11
    endloop
  endfacet
  facet normal 0.499998 -0.866027 0
    outer loop
      vertex 14.5205 -8.38344 6
      vertex 0 -16.7668 11
      vertex 0 -16.7668 6
    endloop
  endfacet
  facet normal 0.499998 -0.866027 0
    outer loop
      vertex 14.5205 -8.38344 6
      vertex 14.5205 -8.38344 11
      vertex 0 -16.7668 11
    endloop
  endfacet
endsolid OpenSCAD_Model
