solid OpenSCAD_Model
  facet normal 0.998026 0.0627953 0
    outer loop
      vertex 8.5 0 5
      vertex 8.43297 1.06533 0
      vertex 8.43297 1.06533 5
    endloop
  endfacet
  facet normal 0.998026 0.0627953 0
    outer loop
      vertex 8.43297 1.06533 0
      vertex 8.5 0 5
      vertex 8.5 0 0
    endloop
  endfacet
  facet normal -0.998026 0.0627953 0
    outer loop
      vertex -8.5 0 0
      vertex -8.43297 1.06533 5
      vertex -8.43297 1.06533 0
    endloop
  endfacet
  facet normal -0.998026 0.0627953 0
    outer loop
      vertex -8.43297 1.06533 5
      vertex -8.5 0 0
      vertex -8.5 0 5
    endloop
  endfacet
  facet normal 0 1 -0
    outer loop
      vertex 0.533719 8.48323 0
      vertex -0.533719 8.48323 5
      vertex 0.533719 8.48323 5
    endloop
  endfacet
  facet normal 0 1 0
    outer loop
      vertex -0.533719 8.48323 5
      vertex 0.533719 8.48323 0
      vertex -0.533719 8.48323 0
    endloop
  endfacet
  facet normal 0 -1 0
    outer loop
      vertex -0.533719 -8.48323 0
      vertex 0.533719 -8.48323 5
      vertex -0.533719 -8.48323 5
    endloop
  endfacet
  facet normal 0 -1 -0
    outer loop
      vertex 0.533719 -8.48323 5
      vertex -0.533719 -8.48323 0
      vertex 0.533719 -8.48323 0
    endloop
  endfacet
  facet normal 0.684546 0.72897 -0
    outer loop
      vertex 6.19623 5.81865 0
      vertex 5.4181 6.54936 5
      vertex 6.19623 5.81865 5
    endloop
  endfacet
  facet normal 0.684546 0.72897 0
    outer loop
      vertex 5.4181 6.54936 5
      vertex 6.19623 5.81865 0
      vertex 5.4181 6.54936 0
    endloop
  endfacet
  facet normal -0.684546 0.72897 0
    outer loop
      vertex -5.4181 6.54936 0
      vertex -6.19623 5.81865 5
      vertex -5.4181 6.54936 5
    endloop
  endfacet
  facet normal -0.684546 0.72897 0
    outer loop
      vertex -6.19623 5.81865 5
      vertex -5.4181 6.54936 0
      vertex -6.19623 5.81865 0
    endloop
  endfacet
  facet normal -0.368124 0.929777 0
    outer loop
      vertex -2.62664 8.08398 0
      vertex -3.61912 7.69103 5
      vertex -2.62664 8.08398 5
    endloop
  endfacet
  facet normal -0.368124 0.929777 0
    outer loop
      vertex -3.61912 7.69103 5
      vertex -2.62664 8.08398 0
      vertex -3.61912 7.69103 0
    endloop
  endfacet
  facet normal 0.904829 0.425776 0
    outer loop
      vertex 7.9031 3.12906 5
      vertex 7.44861 4.09491 0
      vertex 7.44861 4.09491 5
    endloop
  endfacet
  facet normal 0.904829 0.425776 0
    outer loop
      vertex 7.44861 4.09491 0
      vertex 7.9031 3.12906 5
      vertex 7.9031 3.12906 0
    endloop
  endfacet
  facet normal 0.368124 0.929777 -0
    outer loop
      vertex 3.61912 7.69103 0
      vertex 2.62664 8.08398 5
      vertex 3.61912 7.69103 5
    endloop
  endfacet
  facet normal 0.368124 0.929777 0
    outer loop
      vertex 2.62664 8.08398 5
      vertex 3.61912 7.69103 0
      vertex 2.62664 8.08398 0
    endloop
  endfacet
  facet normal 0.24869 0.968583 -0
    outer loop
      vertex 2.62664 8.08398 0
      vertex 1.59274 8.34944 5
      vertex 2.62664 8.08398 5
    endloop
  endfacet
  facet normal 0.24869 0.968583 0
    outer loop
      vertex 1.59274 8.34944 5
      vertex 2.62664 8.08398 0
      vertex 1.59274 8.34944 0
    endloop
  endfacet
  facet normal 0.481749 0.876309 -0
    outer loop
      vertex 4.55453 7.17679 0
      vertex 3.61912 7.69103 5
      vertex 4.55453 7.17679 5
    endloop
  endfacet
  facet normal 0.481749 0.876309 0
    outer loop
      vertex 3.61912 7.69103 5
      vertex 4.55453 7.17679 0
      vertex 3.61912 7.69103 0
    endloop
  endfacet
  facet normal -0.904829 0.425776 0
    outer loop
      vertex -7.9031 3.12906 0
      vertex -7.44861 4.09491 5
      vertex -7.44861 4.09491 0
    endloop
  endfacet
  facet normal -0.904829 0.425776 0
    outer loop
      vertex -7.44861 4.09491 5
      vertex -7.9031 3.12906 0
      vertex -7.9031 3.12906 5
    endloop
  endfacet
  facet normal 0 0 1
    outer loop
      vertex 8.43297 1.06533 5
      vertex 8.43297 -1.06533 5
      vertex 8.5 0 5
    endloop
  endfacet
  facet normal 0 0 1
    outer loop
      vertex 8.23296 2.11386 5
      vertex 8.43297 -1.06533 5
      vertex 8.43297 1.06533 5
    endloop
  endfacet
  facet normal 0 0 1
    outer loop
      vertex 8.23296 2.11386 5
      vertex 8.23296 -2.11386 5
      vertex 8.43297 -1.06533 5
    endloop
  endfacet
  facet normal 0 0 1
    outer loop
      vertex 7.9031 3.12906 5
      vertex 8.23296 -2.11386 5
      vertex 8.23296 2.11386 5
    endloop
  endfacet
  facet normal 0 0 1
    outer loop
      vertex 7.9031 3.12906 5
      vertex 7.9031 -3.12906 5
      vertex 8.23296 -2.11386 5
    endloop
  endfacet
  facet normal 0 0 1
    outer loop
      vertex 7.44861 4.09491 5
      vertex 7.9031 -3.12906 5
      vertex 7.9031 3.12906 5
    endloop
  endfacet
  facet normal 0 0 1
    outer loop
      vertex 7.44861 4.09491 5
      vertex 7.44861 -4.09491 5
      vertex 7.9031 -3.12906 5
    endloop
  endfacet
  facet normal 0 0 1
    outer loop
      vertex 6.87664 4.99617 5
      vertex 7.44861 -4.09491 5
      vertex 7.44861 4.09491 5
    endloop
  endfacet
  facet normal 0 0 1
    outer loop
      vertex 6.87664 4.99617 5
      vertex 6.87664 -4.99617 5
      vertex 7.44861 -4.09491 5
    endloop
  endfacet
  facet normal 0 0 1
    outer loop
      vertex 6.19623 5.81865 5
      vertex 6.87664 -4.99617 5
      vertex 6.87664 4.99617 5
    endloop
  endfacet
  facet normal 0 0 1
    outer loop
      vertex 6.19623 5.81865 5
      vertex 6.19623 -5.81865 5
      vertex 6.87664 -4.99617 5
    endloop
  endfacet
  facet normal 0 0 1
    outer loop
      vertex 5.4181 6.54936 5
      vertex 6.19623 -5.81865 5
      vertex 6.19623 5.81865 5
    endloop
  endfacet
  facet normal 0 0 1
    outer loop
      vertex 5.4181 6.54936 5
      vertex 5.4181 -6.54936 5
      vertex 6.19623 -5.81865 5
    endloop
  endfacet
  facet normal 0 0 1
    outer loop
      vertex 4.55453 7.17679 5
      vertex 5.4181 -6.54936 5
      vertex 5.4181 6.54936 5
    endloop
  endfacet
  facet normal 0 0 1
    outer loop
      vertex 4.55453 7.17679 5
      vertex 4.55453 -7.17679 5
      vertex 5.4181 -6.54936 5
    endloop
  endfacet
  facet normal 0 0 1
    outer loop
      vertex 3.61912 7.69103 5
      vertex 4.55453 -7.17679 5
      vertex 4.55453 7.17679 5
    endloop
  endfacet
  facet normal 0 0 1
    outer loop
      vertex 3.61912 7.69103 5
      vertex 3.61912 -7.69103 5
      vertex 4.55453 -7.17679 5
    endloop
  endfacet
  facet normal 0 0 1
    outer loop
      vertex 2.62664 8.08398 5
      vertex 3.61912 -7.69103 5
      vertex 3.61912 7.69103 5
    endloop
  endfacet
  facet normal 0 0 1
    outer loop
      vertex 2.62664 8.08398 5
      vertex 2.62664 -8.08398 5
      vertex 3.61912 -7.69103 5
    endloop
  endfacet
  facet normal 0 0 1
    outer loop
      vertex 1.59274 8.34944 5
      vertex 2.62664 -8.08398 5
      vertex 2.62664 8.08398 5
    endloop
  endfacet
  facet normal 0 0 1
    outer loop
      vertex 1.59274 8.34944 5
      vertex 1.59274 -8.34944 5
      vertex 2.62664 -8.08398 5
    endloop
  endfacet
  facet normal 0 0 1
    outer loop
      vertex 0.533719 8.48323 5
      vertex 1.59274 -8.34944 5
      vertex 1.59274 8.34944 5
    endloop
  endfacet
  facet normal 0 0 1
    outer loop
      vertex 0.533719 8.48323 5
      vertex 0.533719 -8.48323 5
      vertex 1.59274 -8.34944 5
    endloop
  endfacet
  facet normal -0 0 1
    outer loop
      vertex -0.533719 8.48323 5
      vertex 0.533719 -8.48323 5
      vertex 0.533719 8.48323 5
    endloop
  endfacet
  facet normal 0 0 1
    outer loop
      vertex -0.533719 8.48323 5
      vertex -0.533719 -8.48323 5
      vertex 0.533719 -8.48323 5
    endloop
  endfacet
  facet normal -0 0 1
    outer loop
      vertex -1.59274 8.34944 5
      vertex -0.533719 -8.48323 5
      vertex -0.533719 8.48323 5
    endloop
  endfacet
  facet normal 0 0 1
    outer loop
      vertex -1.59274 8.34944 5
      vertex -1.59274 -8.34944 5
      vertex -0.533719 -8.48323 5
    endloop
  endfacet
  facet normal -0 0 1
    outer loop
      vertex -2.62664 8.08398 5
      vertex -1.59274 -8.34944 5
      vertex -1.59274 8.34944 5
    endloop
  endfacet
  facet normal 0 0 1
    outer loop
      vertex -2.62664 8.08398 5
      vertex -2.62664 -8.08398 5
      vertex -1.59274 -8.34944 5
    endloop
  endfacet
  facet normal -0 0 1
    outer loop
      vertex -3.61912 7.69103 5
      vertex -2.62664 -8.08398 5
      vertex -2.62664 8.08398 5
    endloop
  endfacet
  facet normal 0 0 1
    outer loop
      vertex -3.61912 7.69103 5
      vertex -3.61912 -7.69103 5
      vertex -2.62664 -8.08398 5
    endloop
  endfacet
  facet normal -0 0 1
    outer loop
      vertex -4.55453 7.17679 5
      vertex -3.61912 -7.69103 5
      vertex -3.61912 7.69103 5
    endloop
  endfacet
  facet normal 0 0 1
    outer loop
      vertex -4.55453 7.17679 5
      vertex -4.55453 -7.17679 5
      vertex -3.61912 -7.69103 5
    endloop
  endfacet
  facet normal -0 0 1
    outer loop
      vertex -5.4181 6.54936 5
      vertex -4.55453 -7.17679 5
      vertex -4.55453 7.17679 5
    endloop
  endfacet
  facet normal 0 0 1
    outer loop
      vertex -5.4181 6.54936 5
      vertex -5.4181 -6.54936 5
      vertex -4.55453 -7.17679 5
    endloop
  endfacet
  facet normal -0 0 1
    outer loop
      vertex -6.19623 5.81865 5
      vertex -5.4181 -6.54936 5
      vertex -5.4181 6.54936 5
    endloop
  endfacet
  facet normal 0 0 1
    outer loop
      vertex -6.19623 5.81865 5
      vertex -6.19623 -5.81865 5
      vertex -5.4181 -6.54936 5
    endloop
  endfacet
  facet normal -0 0 1
    outer loop
      vertex -6.87664 4.99617 5
      vertex -6.19623 -5.81865 5
      vertex -6.19623 5.81865 5
    endloop
  endfacet
  facet normal 0 0 1
    outer loop
      vertex -6.87664 4.99617 5
      vertex -6.87664 -4.99617 5
      vertex -6.19623 -5.81865 5
    endloop
  endfacet
  facet normal -0 0 1
    outer loop
      vertex -7.44861 4.09491 5
      vertex -6.87664 -4.99617 5
      vertex -6.87664 4.99617 5
    endloop
  endfacet
  facet normal 0 0 1
    outer loop
      vertex -7.44861 4.09491 5
      vertex -7.44861 -4.09491 5
      vertex -6.87664 -4.99617 5
    endloop
  endfacet
  facet normal -0 0 1
    outer loop
      vertex -7.9031 3.12906 5
      vertex -7.44861 -4.09491 5
      vertex -7.44861 4.09491 5
    endloop
  endfacet
  facet normal 0 0 1
    outer loop
      vertex -7.9031 3.12906 5
      vertex -7.9031 -3.12906 5
      vertex -7.44861 -4.09491 5
    endloop
  endfacet
  facet normal -0 0 1
    outer loop
      vertex -8.23296 2.11386 5
      vertex -7.9031 -3.12906 5
      vertex -7.9031 3.12906 5
    endloop
  endfacet
  facet normal 0 0 1
    outer loop
      vertex -8.23296 2.11386 5
      vertex -8.23296 -2.11386 5
      vertex -7.9031 -3.12906 5
    endloop
  endfacet
  facet normal -0 0 1
    outer loop
      vertex -8.43297 1.06533 5
      vertex -8.23296 -2.11386 5
      vertex -8.23296 2.11386 5
    endloop
  endfacet
  facet normal 0 0 1
    outer loop
      vertex -8.43297 1.06533 5
      vertex -8.43297 -1.06533 5
      vertex -8.23296 -2.11386 5
    endloop
  endfacet
  facet normal 0 -0 1
    outer loop
      vertex -8.43297 -1.06533 5
      vertex -8.43297 1.06533 5
      vertex -8.5 0 5
    endloop
  endfacet
  facet normal -0.125337 0.992114 0
    outer loop
      vertex -0.533719 8.48323 0
      vertex -1.59274 8.34944 5
      vertex -0.533719 8.48323 5
    endloop
  endfacet
  facet normal -0.125337 0.992114 0
    outer loop
      vertex -1.59274 8.34944 5
      vertex -0.533719 8.48323 0
      vertex -1.59274 8.34944 0
    endloop
  endfacet
  facet normal 0.982289 -0.187374 0
    outer loop
      vertex 8.23296 -2.11386 5
      vertex 8.43297 -1.06533 0
      vertex 8.43297 -1.06533 5
    endloop
  endfacet
  facet normal 0.982289 -0.187374 0
    outer loop
      vertex 8.43297 -1.06533 0
      vertex 8.23296 -2.11386 5
      vertex 8.23296 -2.11386 0
    endloop
  endfacet
  facet normal 0 0 -1
    outer loop
      vertex 5.07843 0 0
      vertex 8.5 0 0
      vertex 8.43297 -1.06533 0
    endloop
  endfacet
  facet normal 0 0 -1
    outer loop
      vertex 5.03838 -0.636496 0
      vertex 8.43297 -1.06533 0
      vertex 8.23296 -2.11386 0
    endloop
  endfacet
  facet normal 0 0 -1
    outer loop
      vertex 8.5 0 0
      vertex 5.07843 0 0
      vertex 8.43297 1.06533 0
    endloop
  endfacet
  facet normal 0 0 -1
    outer loop
      vertex 4.91888 -1.26295 0
      vertex 8.23296 -2.11386 0
      vertex 7.9031 -3.12906 0
    endloop
  endfacet
  facet normal 0 0 -1
    outer loop
      vertex 5.03838 0.636496 0
      vertex 8.43297 1.06533 0
      vertex 5.07843 0 0
    endloop
  endfacet
  facet normal 0 0 -1
    outer loop
      vertex 4.7218 -1.86949 0
      vertex 7.9031 -3.12906 0
      vertex 7.44861 -4.09491 0
    endloop
  endfacet
  facet normal -0 0 -1
    outer loop
      vertex 8.43297 1.06533 0
      vertex 5.03838 0.636496 0
      vertex 8.23296 2.11386 0
    endloop
  endfacet
  facet normal 0 0 -1
    outer loop
      vertex 4.45026 -2.44655 0
      vertex 7.44861 -4.09491 0
      vertex 6.87664 -4.99617 0
    endloop
  endfacet
  facet normal 0 0 -1
    outer loop
      vertex 4.91888 1.26295 0
      vertex 8.23296 2.11386 0
      vertex 5.03838 0.636496 0
    endloop
  endfacet
  facet normal 0 0 -1
    outer loop
      vertex 4.10853 -2.98502 0
      vertex 6.87664 -4.99617 0
      vertex 6.19623 -5.81865 0
    endloop
  endfacet
  facet normal -0 0 -1
    outer loop
      vertex 8.23296 2.11386 0
      vertex 4.91888 1.26295 0
      vertex 7.9031 3.12906 0
    endloop
  endfacet
  facet normal 0 0 -1
    outer loop
      vertex 3.70201 -3.47642 0
      vertex 6.19623 -5.81865 0
      vertex 5.4181 -6.54936 0
    endloop
  endfacet
  facet normal 0 0 -1
    outer loop
      vertex 4.7218 1.86949 0
      vertex 7.9031 3.12906 0
      vertex 4.91888 1.26295 0
    endloop
  endfacet
  facet normal -0 0 -1
    outer loop
      vertex 7.9031 3.12906 0
      vertex 4.7218 1.86949 0
      vertex 7.44861 4.09491 0
    endloop
  endfacet
  facet normal 0 0 -1
    outer loop
      vertex 8.43297 -1.06533 0
      vertex 5.03838 -0.636496 0
      vertex 5.07843 0 0
    endloop
  endfacet
  facet normal 0 0 -1
    outer loop
      vertex 8.23296 -2.11386 0
      vertex 4.91888 -1.26295 0
      vertex 5.03838 -0.636496 0
    endloop
  endfacet
  facet normal 0 0 -1
    outer loop
      vertex 7.9031 -3.12906 0
      vertex 4.7218 -1.86949 0
      vertex 4.91888 -1.26295 0
    endloop
  endfacet
  facet normal 0 0 -1
    outer loop
      vertex 3.23711 -3.913 0
      vertex 5.4181 -6.54936 0
      vertex 4.55453 -7.17679 0
    endloop
  endfacet
  facet normal 0 0 -1
    outer loop
      vertex 7.44861 -4.09491 0
      vertex 4.45026 -2.44655 0
      vertex 4.7218 -1.86949 0
    endloop
  endfacet
  facet normal 0 0 -1
    outer loop
      vertex 6.87664 -4.99617 0
      vertex 4.10853 -2.98502 0
      vertex 4.45026 -2.44655 0
    endloop
  endfacet
  facet normal 0 0 -1
    outer loop
      vertex 6.19623 -5.81865 0
      vertex 3.70201 -3.47642 0
      vertex 4.10853 -2.98502 0
    endloop
  endfacet
  facet normal 0 0 -1
    outer loop
      vertex 2.72116 -4.28786 0
      vertex 4.55453 -7.17679 0
      vertex 3.61912 -7.69103 0
    endloop
  endfacet
  facet normal 0 0 -1
    outer loop
      vertex 5.4181 -6.54936 0
      vertex 3.23711 -3.913 0
      vertex 3.70201 -3.47642 0
    endloop
  endfacet
  facet normal 0 0 -1
    outer loop
      vertex 4.55453 -7.17679 0
      vertex 2.72116 -4.28786 0
      vertex 3.23711 -3.913 0
    endloop
  endfacet
  facet normal 0 0 -1
    outer loop
      vertex 2.16229 -4.5951 0
      vertex 3.61912 -7.69103 0
      vertex 2.62664 -8.08398 0
    endloop
  endfacet
  facet normal 0 0 -1
    outer loop
      vertex 3.61912 -7.69103 0
      vertex 2.16229 -4.5951 0
      vertex 2.72116 -4.28786 0
    endloop
  endfacet
  facet normal 0 0 -1
    outer loop
      vertex 1.56932 -4.82987 0
      vertex 2.62664 -8.08398 0
      vertex 1.59274 -8.34944 0
    endloop
  endfacet
  facet normal 0 0 -1
    outer loop
      vertex 2.62664 -8.08398 0
      vertex 1.56932 -4.82987 0
      vertex 2.16229 -4.5951 0
    endloop
  endfacet
  facet normal 0 0 -1
    outer loop
      vertex 1.59274 -8.34944 0
      vertex 0.951602 -4.98847 0
      vertex 1.56932 -4.82987 0
    endloop
  endfacet
  facet normal 0 0 -1
    outer loop
      vertex 0.533719 -8.48323 0
      vertex 0.951602 -4.98847 0
      vertex 1.59274 -8.34944 0
    endloop
  endfacet
  facet normal 0 0 -1
    outer loop
      vertex 0.533719 -8.48323 0
      vertex 0.318876 -5.06841 0
      vertex 0.951602 -4.98847 0
    endloop
  endfacet
  facet normal 0 0 -1
    outer loop
      vertex 0.533719 -8.48323 0
      vertex -0.318876 -5.06841 0
      vertex 0.318876 -5.06841 0
    endloop
  endfacet
  facet normal 0 0 -1
    outer loop
      vertex -0.533719 -8.48323 0
      vertex -0.318876 -5.06841 0
      vertex 0.533719 -8.48323 0
    endloop
  endfacet
  facet normal 0 0 -1
    outer loop
      vertex -0.533719 -8.48323 0
      vertex -0.951602 -4.98847 0
      vertex -0.318876 -5.06841 0
    endloop
  endfacet
  facet normal 0 0 -1
    outer loop
      vertex -1.59274 -8.34944 0
      vertex -0.951602 -4.98847 0
      vertex -0.533719 -8.48323 0
    endloop
  endfacet
  facet normal -0 0 -1
    outer loop
      vertex -0.951602 -4.98847 0
      vertex -1.59274 -8.34944 0
      vertex -1.56932 -4.82987 0
    endloop
  endfacet
  facet normal 0 0 -1
    outer loop
      vertex -2.62664 -8.08398 0
      vertex -1.56932 -4.82987 0
      vertex -1.59274 -8.34944 0
    endloop
  endfacet
  facet normal -0 0 -1
    outer loop
      vertex -1.56932 -4.82987 0
      vertex -2.62664 -8.08398 0
      vertex -2.16229 -4.5951 0
    endloop
  endfacet
  facet normal 0 0 -1
    outer loop
      vertex -3.61912 -7.69103 0
      vertex -2.16229 -4.5951 0
      vertex -2.62664 -8.08398 0
    endloop
  endfacet
  facet normal -0 0 -1
    outer loop
      vertex -2.16229 -4.5951 0
      vertex -3.61912 -7.69103 0
      vertex -2.72116 -4.28786 0
    endloop
  endfacet
  facet normal 0 0 -1
    outer loop
      vertex -4.55453 -7.17679 0
      vertex -2.72116 -4.28786 0
      vertex -3.61912 -7.69103 0
    endloop
  endfacet
  facet normal -0 0 -1
    outer loop
      vertex -2.72116 -4.28786 0
      vertex -4.55453 -7.17679 0
      vertex -3.23711 -3.913 0
    endloop
  endfacet
  facet normal 0 0 -1
    outer loop
      vertex -5.4181 -6.54936 0
      vertex -3.23711 -3.913 0
      vertex -4.55453 -7.17679 0
    endloop
  endfacet
  facet normal -0 0 -1
    outer loop
      vertex -3.23711 -3.913 0
      vertex -5.4181 -6.54936 0
      vertex -3.70201 -3.47642 0
    endloop
  endfacet
  facet normal 0 0 -1
    outer loop
      vertex -6.19623 -5.81865 0
      vertex -3.70201 -3.47642 0
      vertex -5.4181 -6.54936 0
    endloop
  endfacet
  facet normal -0 0 -1
    outer loop
      vertex -3.70201 -3.47642 0
      vertex -6.19623 -5.81865 0
      vertex -4.10853 -2.98502 0
    endloop
  endfacet
  facet normal 0 0 -1
    outer loop
      vertex -6.87664 -4.99617 0
      vertex -4.10853 -2.98502 0
      vertex -6.19623 -5.81865 0
    endloop
  endfacet
  facet normal -0 0 -1
    outer loop
      vertex -4.10853 -2.98502 0
      vertex -6.87664 -4.99617 0
      vertex -4.45026 -2.44655 0
    endloop
  endfacet
  facet normal -0 0 -1
    outer loop
      vertex -4.45026 -2.44655 0
      vertex -7.44861 -4.09491 0
      vertex -4.7218 -1.86949 0
    endloop
  endfacet
  facet normal 0 0 -1
    outer loop
      vertex -7.44861 -4.09491 0
      vertex -4.45026 -2.44655 0
      vertex -6.87664 -4.99617 0
    endloop
  endfacet
  facet normal 0 0 -1
    outer loop
      vertex 4.45026 2.44655 0
      vertex 7.44861 4.09491 0
      vertex 4.7218 1.86949 0
    endloop
  endfacet
  facet normal -0 0 -1
    outer loop
      vertex 7.44861 4.09491 0
      vertex 4.45026 2.44655 0
      vertex 6.87664 4.99617 0
    endloop
  endfacet
  facet normal 0 0 -1
    outer loop
      vertex 4.10853 2.98502 0
      vertex 6.87664 4.99617 0
      vertex 4.45026 2.44655 0
    endloop
  endfacet
  facet normal -0 0 -1
    outer loop
      vertex 6.87664 4.99617 0
      vertex 4.10853 2.98502 0
      vertex 6.19623 5.81865 0
    endloop
  endfacet
  facet normal 0 0 -1
    outer loop
      vertex 3.70201 3.47642 0
      vertex 6.19623 5.81865 0
      vertex 4.10853 2.98502 0
    endloop
  endfacet
  facet normal -0 0 -1
    outer loop
      vertex 6.19623 5.81865 0
      vertex 3.70201 3.47642 0
      vertex 5.4181 6.54936 0
    endloop
  endfacet
  facet normal 0 0 -1
    outer loop
      vertex 3.23711 3.913 0
      vertex 5.4181 6.54936 0
      vertex 3.70201 3.47642 0
    endloop
  endfacet
  facet normal -0 0 -1
    outer loop
      vertex 5.4181 6.54936 0
      vertex 3.23711 3.913 0
      vertex 4.55453 7.17679 0
    endloop
  endfacet
  facet normal 0 0 -1
    outer loop
      vertex 2.72116 4.28786 0
      vertex 4.55453 7.17679 0
      vertex 3.23711 3.913 0
    endloop
  endfacet
  facet normal -0 0 -1
    outer loop
      vertex 4.55453 7.17679 0
      vertex 2.72116 4.28786 0
      vertex 3.61912 7.69103 0
    endloop
  endfacet
  facet normal 0 0 -1
    outer loop
      vertex 2.16229 4.5951 0
      vertex 3.61912 7.69103 0
      vertex 2.72116 4.28786 0
    endloop
  endfacet
  facet normal -0 0 -1
    outer loop
      vertex 3.61912 7.69103 0
      vertex 2.16229 4.5951 0
      vertex 2.62664 8.08398 0
    endloop
  endfacet
  facet normal 0 0 -1
    outer loop
      vertex 1.56932 4.82987 0
      vertex 2.62664 8.08398 0
      vertex 2.16229 4.5951 0
    endloop
  endfacet
  facet normal -0 0 -1
    outer loop
      vertex 2.62664 8.08398 0
      vertex 1.56932 4.82987 0
      vertex 1.59274 8.34944 0
    endloop
  endfacet
  facet normal 0 0 -1
    outer loop
      vertex 0.951602 4.98847 0
      vertex 1.59274 8.34944 0
      vertex 1.56932 4.82987 0
    endloop
  endfacet
  facet normal 0 0 -1
    outer loop
      vertex 0.951602 4.98847 0
      vertex 0.533719 8.48323 0
      vertex 1.59274 8.34944 0
    endloop
  endfacet
  facet normal 0 0 -1
    outer loop
      vertex 0.318876 5.06841 0
      vertex 0.533719 8.48323 0
      vertex 0.951602 4.98847 0
    endloop
  endfacet
  facet normal 0 0 -1
    outer loop
      vertex -0.318876 5.06841 0
      vertex 0.533719 8.48323 0
      vertex 0.318876 5.06841 0
    endloop
  endfacet
  facet normal 0 0 -1
    outer loop
      vertex -0.318876 5.06841 0
      vertex -0.533719 8.48323 0
      vertex 0.533719 8.48323 0
    endloop
  endfacet
  facet normal 0 0 -1
    outer loop
      vertex -0.951602 4.98847 0
      vertex -0.533719 8.48323 0
      vertex -0.318876 5.06841 0
    endloop
  endfacet
  facet normal 0 0 -1
    outer loop
      vertex -1.59274 8.34944 0
      vertex -0.951602 4.98847 0
      vertex -1.56932 4.82987 0
    endloop
  endfacet
  facet normal 0 0 -1
    outer loop
      vertex -0.951602 4.98847 0
      vertex -1.59274 8.34944 0
      vertex -0.533719 8.48323 0
    endloop
  endfacet
  facet normal 0 0 -1
    outer loop
      vertex -2.62664 8.08398 0
      vertex -1.56932 4.82987 0
      vertex -2.16229 4.5951 0
    endloop
  endfacet
  facet normal 0 0 -1
    outer loop
      vertex -1.56932 4.82987 0
      vertex -2.62664 8.08398 0
      vertex -1.59274 8.34944 0
    endloop
  endfacet
  facet normal 0 0 -1
    outer loop
      vertex -3.61912 7.69103 0
      vertex -2.16229 4.5951 0
      vertex -2.72116 4.28786 0
    endloop
  endfacet
  facet normal 0 0 -1
    outer loop
      vertex -4.55453 7.17679 0
      vertex -2.72116 4.28786 0
      vertex -3.23711 3.913 0
    endloop
  endfacet
  facet normal 0 0 -1
    outer loop
      vertex -2.16229 4.5951 0
      vertex -3.61912 7.69103 0
      vertex -2.62664 8.08398 0
    endloop
  endfacet
  facet normal 0 0 -1
    outer loop
      vertex -5.4181 6.54936 0
      vertex -3.23711 3.913 0
      vertex -3.70201 3.47642 0
    endloop
  endfacet
  facet normal 0 0 -1
    outer loop
      vertex -6.19623 5.81865 0
      vertex -3.70201 3.47642 0
      vertex -4.10853 2.98502 0
    endloop
  endfacet
  facet normal 0 0 -1
    outer loop
      vertex -6.87664 4.99617 0
      vertex -4.10853 2.98502 0
      vertex -4.45026 2.44655 0
    endloop
  endfacet
  facet normal 0 0 -1
    outer loop
      vertex -2.72116 4.28786 0
      vertex -4.55453 7.17679 0
      vertex -3.61912 7.69103 0
    endloop
  endfacet
  facet normal 0 0 -1
    outer loop
      vertex -7.44861 4.09491 0
      vertex -4.45026 2.44655 0
      vertex -4.7218 1.86949 0
    endloop
  endfacet
  facet normal 0 0 -1
    outer loop
      vertex -7.9031 3.12906 0
      vertex -4.7218 1.86949 0
      vertex -4.91888 1.26295 0
    endloop
  endfacet
  facet normal 0 0 -1
    outer loop
      vertex -8.23296 2.11386 0
      vertex -4.91888 1.26295 0
      vertex -5.03838 0.636496 0
    endloop
  endfacet
  facet normal 0 0 -1
    outer loop
      vertex -3.23711 3.913 0
      vertex -5.4181 6.54936 0
      vertex -4.55453 7.17679 0
    endloop
  endfacet
  facet normal 0 0 -1
    outer loop
      vertex -8.43297 1.06533 0
      vertex -5.03838 0.636496 0
      vertex -5.07843 0 0
    endloop
  endfacet
  facet normal 0 0 -1
    outer loop
      vertex -7.9031 -3.12906 0
      vertex -4.7218 -1.86949 0
      vertex -7.44861 -4.09491 0
    endloop
  endfacet
  facet normal -0 0 -1
    outer loop
      vertex -4.7218 -1.86949 0
      vertex -7.9031 -3.12906 0
      vertex -4.91888 -1.26295 0
    endloop
  endfacet
  facet normal 0 0 -1
    outer loop
      vertex -3.70201 3.47642 0
      vertex -6.19623 5.81865 0
      vertex -5.4181 6.54936 0
    endloop
  endfacet
  facet normal 0 0 -1
    outer loop
      vertex -8.23296 -2.11386 0
      vertex -4.91888 -1.26295 0
      vertex -7.9031 -3.12906 0
    endloop
  endfacet
  facet normal 0 0 -1
    outer loop
      vertex -4.10853 2.98502 0
      vertex -6.87664 4.99617 0
      vertex -6.19623 5.81865 0
    endloop
  endfacet
  facet normal -0 0 -1
    outer loop
      vertex -4.91888 -1.26295 0
      vertex -8.23296 -2.11386 0
      vertex -5.03838 -0.636496 0
    endloop
  endfacet
  facet normal 0 0 -1
    outer loop
      vertex -4.45026 2.44655 0
      vertex -7.44861 4.09491 0
      vertex -6.87664 4.99617 0
    endloop
  endfacet
  facet normal 0 0 -1
    outer loop
      vertex -8.43297 -1.06533 0
      vertex -5.03838 -0.636496 0
      vertex -8.23296 -2.11386 0
    endloop
  endfacet
  facet normal 0 0 -1
    outer loop
      vertex -4.7218 1.86949 0
      vertex -7.9031 3.12906 0
      vertex -7.44861 4.09491 0
    endloop
  endfacet
  facet normal -0 0 -1
    outer loop
      vertex -5.03838 -0.636496 0
      vertex -8.43297 -1.06533 0
      vertex -5.07843 0 0
    endloop
  endfacet
  facet normal 0 0 -1
    outer loop
      vertex -4.91888 1.26295 0
      vertex -8.23296 2.11386 0
      vertex -7.9031 3.12906 0
    endloop
  endfacet
  facet normal 0 0 -1
    outer loop
      vertex -8.5 0 0
      vertex -5.07843 0 0
      vertex -8.43297 -1.06533 0
    endloop
  endfacet
  facet normal 0 0 -1
    outer loop
      vertex -5.03838 0.636496 0
      vertex -8.43297 1.06533 0
      vertex -8.23296 2.11386 0
    endloop
  endfacet
  facet normal 0 0 -1
    outer loop
      vertex -5.07843 0 0
      vertex -8.5 0 0
      vertex -8.43297 1.06533 0
    endloop
  endfacet
  facet normal 0.125337 -0.992114 0
    outer loop
      vertex 0.533719 -8.48323 0
      vertex 1.59274 -8.34944 5
      vertex 0.533719 -8.48323 5
    endloop
  endfacet
  facet normal 0.125337 -0.992114 0
    outer loop
      vertex 1.59274 -8.34944 5
      vertex 0.533719 -8.48323 0
      vertex 1.59274 -8.34944 0
    endloop
  endfacet
  facet normal 0.951056 0.309018 0
    outer loop
      vertex 8.23296 2.11386 5
      vertex 7.9031 3.12906 0
      vertex 7.9031 3.12906 5
    endloop
  endfacet
  facet normal 0.951056 0.309018 0
    outer loop
      vertex 7.9031 3.12906 0
      vertex 8.23296 2.11386 5
      vertex 8.23296 2.11386 0
    endloop
  endfacet
  facet normal 0.982289 0.187374 0
    outer loop
      vertex 8.43297 1.06533 5
      vertex 8.23296 2.11386 0
      vertex 8.23296 2.11386 5
    endloop
  endfacet
  facet normal 0.982289 0.187374 0
    outer loop
      vertex 8.23296 2.11386 0
      vertex 8.43297 1.06533 5
      vertex 8.43297 1.06533 0
    endloop
  endfacet
  facet normal 0.770515 0.637421 0
    outer loop
      vertex 6.87664 4.99617 5
      vertex 6.19623 5.81865 0
      vertex 6.19623 5.81865 5
    endloop
  endfacet
  facet normal 0.770515 0.637421 0
    outer loop
      vertex 6.19623 5.81865 0
      vertex 6.87664 4.99617 5
      vertex 6.87664 4.99617 0
    endloop
  endfacet
  facet normal 0.844322 0.535835 0
    outer loop
      vertex 7.44861 4.09491 5
      vertex 6.87664 4.99617 0
      vertex 6.87664 4.99617 5
    endloop
  endfacet
  facet normal 0.844322 0.535835 0
    outer loop
      vertex 6.87664 4.99617 0
      vertex 7.44861 4.09491 5
      vertex 7.44861 4.09491 0
    endloop
  endfacet
  facet normal 0.125337 0.992114 -0
    outer loop
      vertex 1.59274 8.34944 0
      vertex 0.533719 8.48323 5
      vertex 1.59274 8.34944 5
    endloop
  endfacet
  facet normal 0.125337 0.992114 0
    outer loop
      vertex 0.533719 8.48323 5
      vertex 1.59274 8.34944 0
      vertex 0.533719 8.48323 0
    endloop
  endfacet
  facet normal 0.587791 0.809013 -0
    outer loop
      vertex 5.4181 6.54936 0
      vertex 4.55453 7.17679 5
      vertex 5.4181 6.54936 5
    endloop
  endfacet
  facet normal 0.587791 0.809013 0
    outer loop
      vertex 4.55453 7.17679 5
      vertex 5.4181 6.54936 0
      vertex 4.55453 7.17679 0
    endloop
  endfacet
  facet normal -0.844322 0.535835 0
    outer loop
      vertex -7.44861 4.09491 0
      vertex -6.87664 4.99617 5
      vertex -6.87664 4.99617 0
    endloop
  endfacet
  facet normal -0.844322 0.535835 0
    outer loop
      vertex -6.87664 4.99617 5
      vertex -7.44861 4.09491 0
      vertex -7.44861 4.09491 5
    endloop
  endfacet
  facet normal -0.770515 0.637421 0
    outer loop
      vertex -6.87664 4.99617 0
      vertex -6.19623 5.81865 5
      vertex -6.19623 5.81865 0
    endloop
  endfacet
  facet normal -0.770515 0.637421 0
    outer loop
      vertex -6.19623 5.81865 5
      vertex -6.87664 4.99617 0
      vertex -6.87664 4.99617 5
    endloop
  endfacet
  facet normal -0.951056 0.309018 0
    outer loop
      vertex -8.23296 2.11386 0
      vertex -7.9031 3.12906 5
      vertex -7.9031 3.12906 0
    endloop
  endfacet
  facet normal -0.951056 0.309018 0
    outer loop
      vertex -7.9031 3.12906 5
      vertex -8.23296 2.11386 0
      vertex -8.23296 2.11386 5
    endloop
  endfacet
  facet normal -0.982289 0.187374 0
    outer loop
      vertex -8.43297 1.06533 0
      vertex -8.23296 2.11386 5
      vertex -8.23296 2.11386 0
    endloop
  endfacet
  facet normal -0.982289 0.187374 0
    outer loop
      vertex -8.23296 2.11386 5
      vertex -8.43297 1.06533 0
      vertex -8.43297 1.06533 5
    endloop
  endfacet
  facet normal -0.481749 0.876309 0
    outer loop
      vertex -3.61912 7.69103 0
      vertex -4.55453 7.17679 5
      vertex -3.61912 7.69103 5
    endloop
  endfacet
  facet normal -0.481749 0.876309 0
    outer loop
      vertex -4.55453 7.17679 5
      vertex -3.61912 7.69103 0
      vertex -4.55453 7.17679 0
    endloop
  endfacet
  facet normal -0.587791 0.809013 0
    outer loop
      vertex -4.55453 7.17679 0
      vertex -5.4181 6.54936 5
      vertex -4.55453 7.17679 5
    endloop
  endfacet
  facet normal -0.587791 0.809013 0
    outer loop
      vertex -5.4181 6.54936 5
      vertex -4.55453 7.17679 0
      vertex -5.4181 6.54936 0
    endloop
  endfacet
  facet normal -0.24869 0.968583 0
    outer loop
      vertex -1.59274 8.34944 0
      vertex -2.62664 8.08398 5
      vertex -1.59274 8.34944 5
    endloop
  endfacet
  facet normal -0.24869 0.968583 0
    outer loop
      vertex -2.62664 8.08398 5
      vertex -1.59274 8.34944 0
      vertex -2.62664 8.08398 0
    endloop
  endfacet
  facet normal 0.998026 -0.0627953 0
    outer loop
      vertex 8.43297 -1.06533 5
      vertex 8.5 0 0
      vertex 8.5 0 5
    endloop
  endfacet
  facet normal 0.998026 -0.0627953 0
    outer loop
      vertex 8.5 0 0
      vertex 8.43297 -1.06533 5
      vertex 8.43297 -1.06533 0
    endloop
  endfacet
  facet normal 0.904829 -0.425776 0
    outer loop
      vertex 7.44861 -4.09491 5
      vertex 7.9031 -3.12906 0
      vertex 7.9031 -3.12906 5
    endloop
  endfacet
  facet normal 0.904829 -0.425776 0
    outer loop
      vertex 7.9031 -3.12906 0
      vertex 7.44861 -4.09491 5
      vertex 7.44861 -4.09491 0
    endloop
  endfacet
  facet normal -0.684546 -0.72897 0
    outer loop
      vertex -6.19623 -5.81865 0
      vertex -5.4181 -6.54936 5
      vertex -6.19623 -5.81865 5
    endloop
  endfacet
  facet normal -0.684546 -0.72897 -0
    outer loop
      vertex -5.4181 -6.54936 5
      vertex -6.19623 -5.81865 0
      vertex -5.4181 -6.54936 0
    endloop
  endfacet
  facet normal -0.904829 -0.425776 0
    outer loop
      vertex -7.44861 -4.09491 0
      vertex -7.9031 -3.12906 5
      vertex -7.9031 -3.12906 0
    endloop
  endfacet
  facet normal -0.904829 -0.425776 0
    outer loop
      vertex -7.9031 -3.12906 5
      vertex -7.44861 -4.09491 0
      vertex -7.44861 -4.09491 5
    endloop
  endfacet
  facet normal -0.844322 -0.535835 0
    outer loop
      vertex -6.87664 -4.99617 0
      vertex -7.44861 -4.09491 5
      vertex -7.44861 -4.09491 0
    endloop
  endfacet
  facet normal -0.844322 -0.535835 0
    outer loop
      vertex -7.44861 -4.09491 5
      vertex -6.87664 -4.99617 0
      vertex -6.87664 -4.99617 5
    endloop
  endfacet
  facet normal 0.481749 -0.876309 0
    outer loop
      vertex 3.61912 -7.69103 0
      vertex 4.55453 -7.17679 5
      vertex 3.61912 -7.69103 5
    endloop
  endfacet
  facet normal 0.481749 -0.876309 0
    outer loop
      vertex 4.55453 -7.17679 5
      vertex 3.61912 -7.69103 0
      vertex 4.55453 -7.17679 0
    endloop
  endfacet
  facet normal 0.951056 -0.309018 0
    outer loop
      vertex 7.9031 -3.12906 5
      vertex 8.23296 -2.11386 0
      vertex 8.23296 -2.11386 5
    endloop
  endfacet
  facet normal 0.951056 -0.309018 0
    outer loop
      vertex 8.23296 -2.11386 0
      vertex 7.9031 -3.12906 5
      vertex 7.9031 -3.12906 0
    endloop
  endfacet
  facet normal -0.368124 -0.929777 0
    outer loop
      vertex -3.61912 -7.69103 0
      vertex -2.62664 -8.08398 5
      vertex -3.61912 -7.69103 5
    endloop
  endfacet
  facet normal -0.368124 -0.929777 -0
    outer loop
      vertex -2.62664 -8.08398 5
      vertex -3.61912 -7.69103 0
      vertex -2.62664 -8.08398 0
    endloop
  endfacet
  facet normal -0.481749 -0.876309 0
    outer loop
      vertex -4.55453 -7.17679 0
      vertex -3.61912 -7.69103 5
      vertex -4.55453 -7.17679 5
    endloop
  endfacet
  facet normal -0.481749 -0.876309 -0
    outer loop
      vertex -3.61912 -7.69103 5
      vertex -4.55453 -7.17679 0
      vertex -3.61912 -7.69103 0
    endloop
  endfacet
  facet normal -0.770515 -0.637421 0
    outer loop
      vertex -6.19623 -5.81865 0
      vertex -6.87664 -4.99617 5
      vertex -6.87664 -4.99617 0
    endloop
  endfacet
  facet normal -0.770515 -0.637421 0
    outer loop
      vertex -6.87664 -4.99617 5
      vertex -6.19623 -5.81865 0
      vertex -6.19623 -5.81865 5
    endloop
  endfacet
  facet normal -0.982289 -0.187374 0
    outer loop
      vertex -8.23296 -2.11386 0
      vertex -8.43297 -1.06533 5
      vertex -8.43297 -1.06533 0
    endloop
  endfacet
  facet normal -0.982289 -0.187374 0
    outer loop
      vertex -8.43297 -1.06533 5
      vertex -8.23296 -2.11386 0
      vertex -8.23296 -2.11386 5
    endloop
  endfacet
  facet normal -0.998026 -0.0627953 0
    outer loop
      vertex -8.43297 -1.06533 0
      vertex -8.5 0 5
      vertex -8.5 0 0
    endloop
  endfacet
  facet normal -0.998026 -0.0627953 0
    outer loop
      vertex -8.5 0 5
      vertex -8.43297 -1.06533 0
      vertex -8.43297 -1.06533 5
    endloop
  endfacet
  facet normal -0.951056 -0.309018 0
    outer loop
      vertex -7.9031 -3.12906 0
      vertex -8.23296 -2.11386 5
      vertex -8.23296 -2.11386 0
    endloop
  endfacet
  facet normal -0.951056 -0.309018 0
    outer loop
      vertex -8.23296 -2.11386 5
      vertex -7.9031 -3.12906 0
      vertex -7.9031 -3.12906 5
    endloop
  endfacet
  facet normal 0.684546 -0.72897 0
    outer loop
      vertex 5.4181 -6.54936 0
      vertex 6.19623 -5.81865 5
      vertex 5.4181 -6.54936 5
    endloop
  endfacet
  facet normal 0.684546 -0.72897 0
    outer loop
      vertex 6.19623 -5.81865 5
      vertex 5.4181 -6.54936 0
      vertex 6.19623 -5.81865 0
    endloop
  endfacet
  facet normal 0.368124 -0.929777 0
    outer loop
      vertex 2.62664 -8.08398 0
      vertex 3.61912 -7.69103 5
      vertex 2.62664 -8.08398 5
    endloop
  endfacet
  facet normal 0.368124 -0.929777 0
    outer loop
      vertex 3.61912 -7.69103 5
      vertex 2.62664 -8.08398 0
      vertex 3.61912 -7.69103 0
    endloop
  endfacet
  facet normal 0.24869 -0.968583 0
    outer loop
      vertex 1.59274 -8.34944 0
      vertex 2.62664 -8.08398 5
      vertex 1.59274 -8.34944 5
    endloop
  endfacet
  facet normal 0.24869 -0.968583 0
    outer loop
      vertex 2.62664 -8.08398 5
      vertex 1.59274 -8.34944 0
      vertex 2.62664 -8.08398 0
    endloop
  endfacet
  facet normal 0.844322 -0.535835 0
    outer loop
      vertex 6.87664 -4.99617 5
      vertex 7.44861 -4.09491 0
      vertex 7.44861 -4.09491 5
    endloop
  endfacet
  facet normal 0.844322 -0.535835 0
    outer loop
      vertex 7.44861 -4.09491 0
      vertex 6.87664 -4.99617 5
      vertex 6.87664 -4.99617 0
    endloop
  endfacet
  facet normal 0.770515 -0.637421 0
    outer loop
      vertex 6.19623 -5.81865 5
      vertex 6.87664 -4.99617 0
      vertex 6.87664 -4.99617 5
    endloop
  endfacet
  facet normal 0.770515 -0.637421 0
    outer loop
      vertex 6.87664 -4.99617 0
      vertex 6.19623 -5.81865 5
      vertex 6.19623 -5.81865 0
    endloop
  endfacet
  facet normal -0.587791 -0.809013 0
    outer loop
      vertex -5.4181 -6.54936 0
      vertex -4.55453 -7.17679 5
      vertex -5.4181 -6.54936 5
    endloop
  endfacet
  facet normal -0.587791 -0.809013 -0
    outer loop
      vertex -4.55453 -7.17679 5
      vertex -5.4181 -6.54936 0
      vertex -4.55453 -7.17679 0
    endloop
  endfacet
  facet normal 0.587791 -0.809013 0
    outer loop
      vertex 4.55453 -7.17679 0
      vertex 5.4181 -6.54936 5
      vertex 4.55453 -7.17679 5
    endloop
  endfacet
  facet normal 0.587791 -0.809013 0
    outer loop
      vertex 5.4181 -6.54936 5
      vertex 4.55453 -7.17679 0
      vertex 5.4181 -6.54936 0
    endloop
  endfacet
  facet normal -0.24869 -0.968583 0
    outer loop
      vertex -2.62664 -8.08398 0
      vertex -1.59274 -8.34944 5
      vertex -2.62664 -8.08398 5
    endloop
  endfacet
  facet normal -0.24869 -0.968583 -0
    outer loop
      vertex -1.59274 -8.34944 5
      vertex -2.62664 -8.08398 0
      vertex -1.59274 -8.34944 0
    endloop
  endfacet
  facet normal -0.125337 -0.992114 0
    outer loop
      vertex -1.59274 -8.34944 0
      vertex -0.533719 -8.48323 5
      vertex -1.59274 -8.34944 5
    endloop
  endfacet
  facet normal -0.125337 -0.992114 -0
    outer loop
      vertex -0.533719 -8.48323 5
      vertex -1.59274 -8.34944 0
      vertex -0.533719 -8.48323 0
    endloop
  endfacet
  facet normal -0.998026 -0.0627984 0
    outer loop
      vertex 5.07843 0 0
      vertex 5.03838 0.636496 2.45667
      vertex 5.03838 0.636496 0
    endloop
  endfacet
  facet normal -0.998026 -0.0627984 0
    outer loop
      vertex 5.03838 0.636496 2.45667
      vertex 5.07843 0 0
      vertex 5.07843 0 2.45667
    endloop
  endfacet
  facet normal 0.998026 -0.0627984 0
    outer loop
      vertex -5.07843 0 2.45667
      vertex -5.03838 0.636496 0
      vertex -5.03838 0.636496 2.45667
    endloop
  endfacet
  facet normal 0.998026 -0.0627984 0
    outer loop
      vertex -5.03838 0.636496 0
      vertex -5.07843 0 2.45667
      vertex -5.07843 0 0
    endloop
  endfacet
  facet normal 0 -1 0
    outer loop
      vertex -0.318876 5.06841 0
      vertex 0.318876 5.06841 2.45667
      vertex -0.318876 5.06841 2.45667
    endloop
  endfacet
  facet normal 0 -1 -0
    outer loop
      vertex 0.318876 5.06841 2.45667
      vertex -0.318876 5.06841 0
      vertex 0.318876 5.06841 0
    endloop
  endfacet
  facet normal 0 1 -0
    outer loop
      vertex 0.318876 -5.06841 0
      vertex -0.318876 -5.06841 2.45667
      vertex 0.318876 -5.06841 2.45667
    endloop
  endfacet
  facet normal 0 1 0
    outer loop
      vertex -0.318876 -5.06841 2.45667
      vertex 0.318876 -5.06841 0
      vertex -0.318876 -5.06841 0
    endloop
  endfacet
  facet normal -0.684555 -0.728961 0
    outer loop
      vertex 3.23711 3.913 0
      vertex 3.70201 3.47642 2.45667
      vertex 3.23711 3.913 2.45667
    endloop
  endfacet
  facet normal -0.684555 -0.728961 -0
    outer loop
      vertex 3.70201 3.47642 2.45667
      vertex 3.23711 3.913 0
      vertex 3.70201 3.47642 0
    endloop
  endfacet
  facet normal 0.684555 -0.728961 0
    outer loop
      vertex -3.70201 3.47642 0
      vertex -3.23711 3.913 2.45667
      vertex -3.70201 3.47642 2.45667
    endloop
  endfacet
  facet normal 0.684555 -0.728961 0
    outer loop
      vertex -3.23711 3.913 2.45667
      vertex -3.70201 3.47642 0
      vertex -3.23711 3.913 0
    endloop
  endfacet
  facet normal 0.36812 -0.929778 0
    outer loop
      vertex -2.16229 4.5951 0
      vertex -1.56932 4.82987 2.45667
      vertex -2.16229 4.5951 2.45667
    endloop
  endfacet
  facet normal 0.36812 -0.929778 0
    outer loop
      vertex -1.56932 4.82987 2.45667
      vertex -2.16229 4.5951 0
      vertex -1.56932 4.82987 0
    endloop
  endfacet
  facet normal -0.904829 -0.425774 0
    outer loop
      vertex 4.7218 1.86949 0
      vertex 4.45026 2.44655 2.45667
      vertex 4.45026 2.44655 0
    endloop
  endfacet
  facet normal -0.904829 -0.425774 0
    outer loop
      vertex 4.45026 2.44655 2.45667
      vertex 4.7218 1.86949 0
      vertex 4.7218 1.86949 2.45667
    endloop
  endfacet
  facet normal -0.36812 -0.929778 0
    outer loop
      vertex 1.56932 4.82987 0
      vertex 2.16229 4.5951 2.45667
      vertex 1.56932 4.82987 2.45667
    endloop
  endfacet
  facet normal -0.36812 -0.929778 -0
    outer loop
      vertex 2.16229 4.5951 2.45667
      vertex 1.56932 4.82987 0
      vertex 2.16229 4.5951 0
    endloop
  endfacet
  facet normal -0.248685 -0.968584 0
    outer loop
      vertex 0.951602 4.98847 0
      vertex 1.56932 4.82987 2.45667
      vertex 0.951602 4.98847 2.45667
    endloop
  endfacet
  facet normal -0.248685 -0.968584 -0
    outer loop
      vertex 1.56932 4.82987 2.45667
      vertex 0.951602 4.98847 0
      vertex 1.56932 4.82987 0
    endloop
  endfacet
  facet normal -0.481752 -0.876308 0
    outer loop
      vertex 2.16229 4.5951 0
      vertex 2.72116 4.28786 2.45667
      vertex 2.16229 4.5951 2.45667
    endloop
  endfacet
  facet normal -0.481752 -0.876308 -0
    outer loop
      vertex 2.72116 4.28786 2.45667
      vertex 2.16229 4.5951 0
      vertex 2.72116 4.28786 0
    endloop
  endfacet
  facet normal 0.904829 -0.425774 0
    outer loop
      vertex -4.7218 1.86949 2.45667
      vertex -4.45026 2.44655 0
      vertex -4.45026 2.44655 2.45667
    endloop
  endfacet
  facet normal 0.904829 -0.425774 0
    outer loop
      vertex -4.45026 2.44655 0
      vertex -4.7218 1.86949 2.45667
      vertex -4.7218 1.86949 0
    endloop
  endfacet
  facet normal 0.844323 -0.535834 0
    outer loop
      vertex -4.45026 2.44655 2.45667
      vertex -4.10853 2.98502 0
      vertex -4.10853 2.98502 2.45667
    endloop
  endfacet
  facet normal 0.844323 -0.535834 0
    outer loop
      vertex -4.10853 2.98502 0
      vertex -4.45026 2.44655 2.45667
      vertex -4.45026 2.44655 0
    endloop
  endfacet
  facet normal 0 0 -1
    outer loop
      vertex 5.03838 -0.636496 2.45667
      vertex 5.03838 0.636496 2.45667
      vertex 5.07843 0 2.45667
    endloop
  endfacet
  facet normal 0 0 -1
    outer loop
      vertex 4.91888 -1.26295 2.45667
      vertex 5.03838 0.636496 2.45667
      vertex 5.03838 -0.636496 2.45667
    endloop
  endfacet
  facet normal 0 0 -1
    outer loop
      vertex 4.91888 -1.26295 2.45667
      vertex 4.91888 1.26295 2.45667
      vertex 5.03838 0.636496 2.45667
    endloop
  endfacet
  facet normal 0 0 -1
    outer loop
      vertex 4.7218 -1.86949 2.45667
      vertex 4.91888 1.26295 2.45667
      vertex 4.91888 -1.26295 2.45667
    endloop
  endfacet
  facet normal 0 0 -1
    outer loop
      vertex 4.7218 -1.86949 2.45667
      vertex 4.7218 1.86949 2.45667
      vertex 4.91888 1.26295 2.45667
    endloop
  endfacet
  facet normal 0 0 -1
    outer loop
      vertex 4.45026 -2.44655 2.45667
      vertex 4.7218 1.86949 2.45667
      vertex 4.7218 -1.86949 2.45667
    endloop
  endfacet
  facet normal 0 0 -1
    outer loop
      vertex 4.45026 -2.44655 2.45667
      vertex 4.45026 2.44655 2.45667
      vertex 4.7218 1.86949 2.45667
    endloop
  endfacet
  facet normal 0 0 -1
    outer loop
      vertex 4.10853 -2.98502 2.45667
      vertex 4.45026 2.44655 2.45667
      vertex 4.45026 -2.44655 2.45667
    endloop
  endfacet
  facet normal 0 0 -1
    outer loop
      vertex 4.10853 -2.98502 2.45667
      vertex 4.10853 2.98502 2.45667
      vertex 4.45026 2.44655 2.45667
    endloop
  endfacet
  facet normal 0 0 -1
    outer loop
      vertex 3.70201 -3.47642 2.45667
      vertex 4.10853 2.98502 2.45667
      vertex 4.10853 -2.98502 2.45667
    endloop
  endfacet
  facet normal 0 0 -1
    outer loop
      vertex 3.70201 -3.47642 2.45667
      vertex 3.70201 3.47642 2.45667
      vertex 4.10853 2.98502 2.45667
    endloop
  endfacet
  facet normal 0 0 -1
    outer loop
      vertex 3.23711 -3.913 2.45667
      vertex 3.70201 3.47642 2.45667
      vertex 3.70201 -3.47642 2.45667
    endloop
  endfacet
  facet normal 0 0 -1
    outer loop
      vertex 3.23711 -3.913 2.45667
      vertex 3.23711 3.913 2.45667
      vertex 3.70201 3.47642 2.45667
    endloop
  endfacet
  facet normal 0 0 -1
    outer loop
      vertex 2.72116 -4.28786 2.45667
      vertex 3.23711 3.913 2.45667
      vertex 3.23711 -3.913 2.45667
    endloop
  endfacet
  facet normal 0 0 -1
    outer loop
      vertex 2.72116 -4.28786 2.45667
      vertex 2.72116 4.28786 2.45667
      vertex 3.23711 3.913 2.45667
    endloop
  endfacet
  facet normal 0 0 -1
    outer loop
      vertex 2.16229 -4.5951 2.45667
      vertex 2.72116 4.28786 2.45667
      vertex 2.72116 -4.28786 2.45667
    endloop
  endfacet
  facet normal 0 0 -1
    outer loop
      vertex 2.16229 -4.5951 2.45667
      vertex 2.16229 4.5951 2.45667
      vertex 2.72116 4.28786 2.45667
    endloop
  endfacet
  facet normal 0 0 -1
    outer loop
      vertex 1.56932 -4.82987 2.45667
      vertex 2.16229 4.5951 2.45667
      vertex 2.16229 -4.5951 2.45667
    endloop
  endfacet
  facet normal 0 0 -1
    outer loop
      vertex 1.56932 -4.82987 2.45667
      vertex 1.56932 4.82987 2.45667
      vertex 2.16229 4.5951 2.45667
    endloop
  endfacet
  facet normal 0 0 -1
    outer loop
      vertex 0.951602 -4.98847 2.45667
      vertex 1.56932 4.82987 2.45667
      vertex 1.56932 -4.82987 2.45667
    endloop
  endfacet
  facet normal 0 0 -1
    outer loop
      vertex 0.951602 -4.98847 2.45667
      vertex 0.951602 4.98847 2.45667
      vertex 1.56932 4.82987 2.45667
    endloop
  endfacet
  facet normal 0 0 -1
    outer loop
      vertex 0.318876 -5.06841 2.45667
      vertex 0.951602 4.98847 2.45667
      vertex 0.951602 -4.98847 2.45667
    endloop
  endfacet
  facet normal 0 0 -1
    outer loop
      vertex 0.318876 -5.06841 2.45667
      vertex 0.318876 5.06841 2.45667
      vertex 0.951602 4.98847 2.45667
    endloop
  endfacet
  facet normal 0 0 -1
    outer loop
      vertex -0.318876 -5.06841 2.45667
      vertex 0.318876 5.06841 2.45667
      vertex 0.318876 -5.06841 2.45667
    endloop
  endfacet
  facet normal 0 0 -1
    outer loop
      vertex -0.318876 -5.06841 2.45667
      vertex -0.318876 5.06841 2.45667
      vertex 0.318876 5.06841 2.45667
    endloop
  endfacet
  facet normal 0 0 -1
    outer loop
      vertex -0.951602 -4.98847 2.45667
      vertex -0.318876 5.06841 2.45667
      vertex -0.318876 -5.06841 2.45667
    endloop
  endfacet
  facet normal 0 0 -1
    outer loop
      vertex -0.951602 -4.98847 2.45667
      vertex -0.951602 4.98847 2.45667
      vertex -0.318876 5.06841 2.45667
    endloop
  endfacet
  facet normal 0 0 -1
    outer loop
      vertex -1.56932 -4.82987 2.45667
      vertex -0.951602 4.98847 2.45667
      vertex -0.951602 -4.98847 2.45667
    endloop
  endfacet
  facet normal 0 0 -1
    outer loop
      vertex -1.56932 -4.82987 2.45667
      vertex -1.56932 4.82987 2.45667
      vertex -0.951602 4.98847 2.45667
    endloop
  endfacet
  facet normal 0 0 -1
    outer loop
      vertex -2.16229 -4.5951 2.45667
      vertex -1.56932 4.82987 2.45667
      vertex -1.56932 -4.82987 2.45667
    endloop
  endfacet
  facet normal 0 0 -1
    outer loop
      vertex -2.16229 -4.5951 2.45667
      vertex -2.16229 4.5951 2.45667
      vertex -1.56932 4.82987 2.45667
    endloop
  endfacet
  facet normal 0 0 -1
    outer loop
      vertex -2.72116 -4.28786 2.45667
      vertex -2.16229 4.5951 2.45667
      vertex -2.16229 -4.5951 2.45667
    endloop
  endfacet
  facet normal 0 0 -1
    outer loop
      vertex -2.72116 -4.28786 2.45667
      vertex -2.72116 4.28786 2.45667
      vertex -2.16229 4.5951 2.45667
    endloop
  endfacet
  facet normal 0 0 -1
    outer loop
      vertex -3.23711 -3.913 2.45667
      vertex -2.72116 4.28786 2.45667
      vertex -2.72116 -4.28786 2.45667
    endloop
  endfacet
  facet normal 0 0 -1
    outer loop
      vertex -3.23711 -3.913 2.45667
      vertex -3.23711 3.913 2.45667
      vertex -2.72116 4.28786 2.45667
    endloop
  endfacet
  facet normal 0 0 -1
    outer loop
      vertex -3.70201 -3.47642 2.45667
      vertex -3.23711 3.913 2.45667
      vertex -3.23711 -3.913 2.45667
    endloop
  endfacet
  facet normal 0 0 -1
    outer loop
      vertex -3.70201 -3.47642 2.45667
      vertex -3.70201 3.47642 2.45667
      vertex -3.23711 3.913 2.45667
    endloop
  endfacet
  facet normal 0 0 -1
    outer loop
      vertex -4.10853 -2.98502 2.45667
      vertex -3.70201 3.47642 2.45667
      vertex -3.70201 -3.47642 2.45667
    endloop
  endfacet
  facet normal 0 0 -1
    outer loop
      vertex -4.10853 -2.98502 2.45667
      vertex -4.10853 2.98502 2.45667
      vertex -3.70201 3.47642 2.45667
    endloop
  endfacet
  facet normal 0 0 -1
    outer loop
      vertex -4.45026 -2.44655 2.45667
      vertex -4.10853 2.98502 2.45667
      vertex -4.10853 -2.98502 2.45667
    endloop
  endfacet
  facet normal 0 0 -1
    outer loop
      vertex -4.45026 -2.44655 2.45667
      vertex -4.45026 2.44655 2.45667
      vertex -4.10853 2.98502 2.45667
    endloop
  endfacet
  facet normal 0 0 -1
    outer loop
      vertex -4.7218 -1.86949 2.45667
      vertex -4.45026 2.44655 2.45667
      vertex -4.45026 -2.44655 2.45667
    endloop
  endfacet
  facet normal 0 0 -1
    outer loop
      vertex -4.7218 -1.86949 2.45667
      vertex -4.7218 1.86949 2.45667
      vertex -4.45026 2.44655 2.45667
    endloop
  endfacet
  facet normal 0 0 -1
    outer loop
      vertex -4.91888 -1.26295 2.45667
      vertex -4.7218 1.86949 2.45667
      vertex -4.7218 -1.86949 2.45667
    endloop
  endfacet
  facet normal 0 0 -1
    outer loop
      vertex -4.91888 -1.26295 2.45667
      vertex -4.91888 1.26295 2.45667
      vertex -4.7218 1.86949 2.45667
    endloop
  endfacet
  facet normal 0 0 -1
    outer loop
      vertex -5.03838 -0.636496 2.45667
      vertex -4.91888 1.26295 2.45667
      vertex -4.91888 -1.26295 2.45667
    endloop
  endfacet
  facet normal 0 0 -1
    outer loop
      vertex -5.03838 -0.636496 2.45667
      vertex -5.03838 0.636496 2.45667
      vertex -4.91888 1.26295 2.45667
    endloop
  endfacet
  facet normal 0 -0 -1
    outer loop
      vertex -5.03838 0.636496 2.45667
      vertex -5.03838 -0.636496 2.45667
      vertex -5.07843 0 2.45667
    endloop
  endfacet
  facet normal 0.587786 -0.809017 0
    outer loop
      vertex -3.23711 3.913 0
      vertex -2.72116 4.28786 2.45667
      vertex -3.23711 3.913 2.45667
    endloop
  endfacet
  facet normal 0.587786 -0.809017 0
    outer loop
      vertex -2.72116 4.28786 2.45667
      vertex -3.23711 3.913 0
      vertex -2.72116 4.28786 0
    endloop
  endfacet
  facet normal 0.248685 -0.968584 0
    outer loop
      vertex -1.56932 4.82987 0
      vertex -0.951602 4.98847 2.45667
      vertex -1.56932 4.82987 2.45667
    endloop
  endfacet
  facet normal 0.248685 -0.968584 0
    outer loop
      vertex -0.951602 4.98847 2.45667
      vertex -1.56932 4.82987 0
      vertex -0.951602 4.98847 0
    endloop
  endfacet
  facet normal -0.125346 0.992113 0
    outer loop
      vertex 0.951602 -4.98847 0
      vertex 0.318876 -5.06841 2.45667
      vertex 0.951602 -4.98847 2.45667
    endloop
  endfacet
  facet normal -0.125346 0.992113 0
    outer loop
      vertex 0.318876 -5.06841 2.45667
      vertex 0.951602 -4.98847 0
      vertex 0.318876 -5.06841 0
    endloop
  endfacet
  facet normal -0.951055 -0.309022 0
    outer loop
      vertex 4.91888 1.26295 0
      vertex 4.7218 1.86949 2.45667
      vertex 4.7218 1.86949 0
    endloop
  endfacet
  facet normal -0.951055 -0.309022 0
    outer loop
      vertex 4.7218 1.86949 2.45667
      vertex 4.91888 1.26295 0
      vertex 4.91888 1.26295 2.45667
    endloop
  endfacet
  facet normal -0.982288 -0.187378 0
    outer loop
      vertex 5.03838 0.636496 0
      vertex 4.91888 1.26295 2.45667
      vertex 4.91888 1.26295 0
    endloop
  endfacet
  facet normal -0.982288 -0.187378 0
    outer loop
      vertex 4.91888 1.26295 2.45667
      vertex 5.03838 0.636496 0
      vertex 5.03838 0.636496 2.45667
    endloop
  endfacet
  facet normal -0.770514 -0.637423 0
    outer loop
      vertex 4.10853 2.98502 0
      vertex 3.70201 3.47642 2.45667
      vertex 3.70201 3.47642 0
    endloop
  endfacet
  facet normal -0.770514 -0.637423 0
    outer loop
      vertex 3.70201 3.47642 2.45667
      vertex 4.10853 2.98502 0
      vertex 4.10853 2.98502 2.45667
    endloop
  endfacet
  facet normal -0.844323 -0.535834 0
    outer loop
      vertex 4.45026 2.44655 0
      vertex 4.10853 2.98502 2.45667
      vertex 4.10853 2.98502 0
    endloop
  endfacet
  facet normal -0.844323 -0.535834 0
    outer loop
      vertex 4.10853 2.98502 2.45667
      vertex 4.45026 2.44655 0
      vertex 4.45026 2.44655 2.45667
    endloop
  endfacet
  facet normal -0.125346 -0.992113 0
    outer loop
      vertex 0.318876 5.06841 0
      vertex 0.951602 4.98847 2.45667
      vertex 0.318876 5.06841 2.45667
    endloop
  endfacet
  facet normal -0.125346 -0.992113 -0
    outer loop
      vertex 0.951602 4.98847 2.45667
      vertex 0.318876 5.06841 0
      vertex 0.951602 4.98847 0
    endloop
  endfacet
  facet normal -0.587786 -0.809017 0
    outer loop
      vertex 2.72116 4.28786 0
      vertex 3.23711 3.913 2.45667
      vertex 2.72116 4.28786 2.45667
    endloop
  endfacet
  facet normal -0.587786 -0.809017 -0
    outer loop
      vertex 3.23711 3.913 2.45667
      vertex 2.72116 4.28786 0
      vertex 3.23711 3.913 0
    endloop
  endfacet
  facet normal 0.982288 -0.187378 0
    outer loop
      vertex -5.03838 0.636496 2.45667
      vertex -4.91888 1.26295 0
      vertex -4.91888 1.26295 2.45667
    endloop
  endfacet
  facet normal 0.982288 -0.187378 0
    outer loop
      vertex -4.91888 1.26295 0
      vertex -5.03838 0.636496 2.45667
      vertex -5.03838 0.636496 0
    endloop
  endfacet
  facet normal 0.125346 -0.992113 0
    outer loop
      vertex -0.951602 4.98847 0
      vertex -0.318876 5.06841 2.45667
      vertex -0.951602 4.98847 2.45667
    endloop
  endfacet
  facet normal 0.125346 -0.992113 0
    outer loop
      vertex -0.318876 5.06841 2.45667
      vertex -0.951602 4.98847 0
      vertex -0.318876 5.06841 0
    endloop
  endfacet
  facet normal -0.998026 0.0627984 0
    outer loop
      vertex 5.03838 -0.636496 0
      vertex 5.07843 0 2.45667
      vertex 5.07843 0 0
    endloop
  endfacet
  facet normal -0.998026 0.0627984 0
    outer loop
      vertex 5.07843 0 2.45667
      vertex 5.03838 -0.636496 0
      vertex 5.03838 -0.636496 2.45667
    endloop
  endfacet
  facet normal -0.684555 0.728961 0
    outer loop
      vertex 3.70201 -3.47642 0
      vertex 3.23711 -3.913 2.45667
      vertex 3.70201 -3.47642 2.45667
    endloop
  endfacet
  facet normal -0.684555 0.728961 0
    outer loop
      vertex 3.23711 -3.913 2.45667
      vertex 3.70201 -3.47642 0
      vertex 3.23711 -3.913 0
    endloop
  endfacet
  facet normal -0.904829 0.425774 0
    outer loop
      vertex 4.45026 -2.44655 0
      vertex 4.7218 -1.86949 2.45667
      vertex 4.7218 -1.86949 0
    endloop
  endfacet
  facet normal -0.904829 0.425774 0
    outer loop
      vertex 4.7218 -1.86949 2.45667
      vertex 4.45026 -2.44655 0
      vertex 4.45026 -2.44655 2.45667
    endloop
  endfacet
  facet normal -0.36812 0.929778 0
    outer loop
      vertex 2.16229 -4.5951 0
      vertex 1.56932 -4.82987 2.45667
      vertex 2.16229 -4.5951 2.45667
    endloop
  endfacet
  facet normal -0.36812 0.929778 0
    outer loop
      vertex 1.56932 -4.82987 2.45667
      vertex 2.16229 -4.5951 0
      vertex 1.56932 -4.82987 0
    endloop
  endfacet
  facet normal 0.770514 -0.637423 0
    outer loop
      vertex -4.10853 2.98502 2.45667
      vertex -3.70201 3.47642 0
      vertex -3.70201 3.47642 2.45667
    endloop
  endfacet
  facet normal 0.770514 -0.637423 0
    outer loop
      vertex -3.70201 3.47642 0
      vertex -4.10853 2.98502 2.45667
      vertex -4.10853 2.98502 0
    endloop
  endfacet
  facet normal 0.951055 -0.309022 0
    outer loop
      vertex -4.91888 1.26295 2.45667
      vertex -4.7218 1.86949 0
      vertex -4.7218 1.86949 2.45667
    endloop
  endfacet
  facet normal 0.951055 -0.309022 0
    outer loop
      vertex -4.7218 1.86949 0
      vertex -4.91888 1.26295 2.45667
      vertex -4.91888 1.26295 0
    endloop
  endfacet
  facet normal 0.481752 -0.876308 0
    outer loop
      vertex -2.72116 4.28786 0
      vertex -2.16229 4.5951 2.45667
      vertex -2.72116 4.28786 2.45667
    endloop
  endfacet
  facet normal 0.481752 -0.876308 0
    outer loop
      vertex -2.16229 4.5951 2.45667
      vertex -2.72116 4.28786 0
      vertex -2.16229 4.5951 0
    endloop
  endfacet
  facet normal -0.951055 0.309022 0
    outer loop
      vertex 4.7218 -1.86949 0
      vertex 4.91888 -1.26295 2.45667
      vertex 4.91888 -1.26295 0
    endloop
  endfacet
  facet normal -0.951055 0.309022 0
    outer loop
      vertex 4.91888 -1.26295 2.45667
      vertex 4.7218 -1.86949 0
      vertex 4.7218 -1.86949 2.45667
    endloop
  endfacet
  facet normal -0.982288 0.187378 0
    outer loop
      vertex 4.91888 -1.26295 0
      vertex 5.03838 -0.636496 2.45667
      vertex 5.03838 -0.636496 0
    endloop
  endfacet
  facet normal -0.982288 0.187378 0
    outer loop
      vertex 5.03838 -0.636496 2.45667
      vertex 4.91888 -1.26295 0
      vertex 4.91888 -1.26295 2.45667
    endloop
  endfacet
  facet normal -0.481752 0.876308 0
    outer loop
      vertex 2.72116 -4.28786 0
      vertex 2.16229 -4.5951 2.45667
      vertex 2.72116 -4.28786 2.45667
    endloop
  endfacet
  facet normal -0.481752 0.876308 0
    outer loop
      vertex 2.16229 -4.5951 2.45667
      vertex 2.72116 -4.28786 0
      vertex 2.16229 -4.5951 0
    endloop
  endfacet
  facet normal -0.770514 0.637423 0
    outer loop
      vertex 3.70201 -3.47642 0
      vertex 4.10853 -2.98502 2.45667
      vertex 4.10853 -2.98502 0
    endloop
  endfacet
  facet normal -0.770514 0.637423 0
    outer loop
      vertex 4.10853 -2.98502 2.45667
      vertex 3.70201 -3.47642 0
      vertex 3.70201 -3.47642 2.45667
    endloop
  endfacet
  facet normal 0.36812 0.929778 -0
    outer loop
      vertex -1.56932 -4.82987 0
      vertex -2.16229 -4.5951 2.45667
      vertex -1.56932 -4.82987 2.45667
    endloop
  endfacet
  facet normal 0.36812 0.929778 0
    outer loop
      vertex -2.16229 -4.5951 2.45667
      vertex -1.56932 -4.82987 0
      vertex -2.16229 -4.5951 0
    endloop
  endfacet
  facet normal 0.248685 0.968584 -0
    outer loop
      vertex -0.951602 -4.98847 0
      vertex -1.56932 -4.82987 2.45667
      vertex -0.951602 -4.98847 2.45667
    endloop
  endfacet
  facet normal 0.248685 0.968584 0
    outer loop
      vertex -1.56932 -4.82987 2.45667
      vertex -0.951602 -4.98847 0
      vertex -1.56932 -4.82987 0
    endloop
  endfacet
  facet normal 0.770514 0.637423 0
    outer loop
      vertex -3.70201 -3.47642 2.45667
      vertex -4.10853 -2.98502 0
      vertex -4.10853 -2.98502 2.45667
    endloop
  endfacet
  facet normal 0.770514 0.637423 0
    outer loop
      vertex -4.10853 -2.98502 0
      vertex -3.70201 -3.47642 2.45667
      vertex -3.70201 -3.47642 0
    endloop
  endfacet
  facet normal 0.998026 0.0627984 0
    outer loop
      vertex -5.03838 -0.636496 2.45667
      vertex -5.07843 0 0
      vertex -5.07843 0 2.45667
    endloop
  endfacet
  facet normal 0.998026 0.0627984 0
    outer loop
      vertex -5.07843 0 0
      vertex -5.03838 -0.636496 2.45667
      vertex -5.03838 -0.636496 0
    endloop
  endfacet
  facet normal 0.982288 0.187378 0
    outer loop
      vertex -4.91888 -1.26295 2.45667
      vertex -5.03838 -0.636496 0
      vertex -5.03838 -0.636496 2.45667
    endloop
  endfacet
  facet normal 0.982288 0.187378 0
    outer loop
      vertex -5.03838 -0.636496 0
      vertex -4.91888 -1.26295 2.45667
      vertex -4.91888 -1.26295 0
    endloop
  endfacet
  facet normal 0.951055 0.309022 0
    outer loop
      vertex -4.7218 -1.86949 2.45667
      vertex -4.91888 -1.26295 0
      vertex -4.91888 -1.26295 2.45667
    endloop
  endfacet
  facet normal 0.951055 0.309022 0
    outer loop
      vertex -4.91888 -1.26295 0
      vertex -4.7218 -1.86949 2.45667
      vertex -4.7218 -1.86949 0
    endloop
  endfacet
  facet normal -0.248685 0.968584 0
    outer loop
      vertex 1.56932 -4.82987 0
      vertex 0.951602 -4.98847 2.45667
      vertex 1.56932 -4.82987 2.45667
    endloop
  endfacet
  facet normal -0.248685 0.968584 0
    outer loop
      vertex 0.951602 -4.98847 2.45667
      vertex 1.56932 -4.82987 0
      vertex 0.951602 -4.98847 0
    endloop
  endfacet
  facet normal -0.587786 0.809017 0
    outer loop
      vertex 3.23711 -3.913 0
      vertex 2.72116 -4.28786 2.45667
      vertex 3.23711 -3.913 2.45667
    endloop
  endfacet
  facet normal -0.587786 0.809017 0
    outer loop
      vertex 2.72116 -4.28786 2.45667
      vertex 3.23711 -3.913 0
      vertex 2.72116 -4.28786 0
    endloop
  endfacet
  facet normal -0.844323 0.535834 0
    outer loop
      vertex 4.10853 -2.98502 0
      vertex 4.45026 -2.44655 2.45667
      vertex 4.45026 -2.44655 0
    endloop
  endfacet
  facet normal -0.844323 0.535834 0
    outer loop
      vertex 4.45026 -2.44655 2.45667
      vertex 4.10853 -2.98502 0
      vertex 4.10853 -2.98502 2.45667
    endloop
  endfacet
  facet normal 0.125346 0.992113 -0
    outer loop
      vertex -0.318876 -5.06841 0
      vertex -0.951602 -4.98847 2.45667
      vertex -0.318876 -5.06841 2.45667
    endloop
  endfacet
  facet normal 0.125346 0.992113 0
    outer loop
      vertex -0.951602 -4.98847 2.45667
      vertex -0.318876 -5.06841 0
      vertex -0.951602 -4.98847 0
    endloop
  endfacet
  facet normal 0.587786 0.809017 -0
    outer loop
      vertex -2.72116 -4.28786 0
      vertex -3.23711 -3.913 2.45667
      vertex -2.72116 -4.28786 2.45667
    endloop
  endfacet
  facet normal 0.587786 0.809017 0
    outer loop
      vertex -3.23711 -3.913 2.45667
      vertex -2.72116 -4.28786 0
      vertex -3.23711 -3.913 0
    endloop
  endfacet
  facet normal 0.684555 0.728961 -0
    outer loop
      vertex -3.23711 -3.913 0
      vertex -3.70201 -3.47642 2.45667
      vertex -3.23711 -3.913 2.45667
    endloop
  endfacet
  facet normal 0.684555 0.728961 0
    outer loop
      vertex -3.70201 -3.47642 2.45667
      vertex -3.23711 -3.913 0
      vertex -3.70201 -3.47642 0
    endloop
  endfacet
  facet normal 0.481752 0.876308 -0
    outer loop
      vertex -2.16229 -4.5951 0
      vertex -2.72116 -4.28786 2.45667
      vertex -2.16229 -4.5951 2.45667
    endloop
  endfacet
  facet normal 0.481752 0.876308 0
    outer loop
      vertex -2.72116 -4.28786 2.45667
      vertex -2.16229 -4.5951 0
      vertex -2.72116 -4.28786 0
    endloop
  endfacet
  facet normal 0.844323 0.535834 0
    outer loop
      vertex -4.10853 -2.98502 2.45667
      vertex -4.45026 -2.44655 0
      vertex -4.45026 -2.44655 2.45667
    endloop
  endfacet
  facet normal 0.844323 0.535834 0
    outer loop
      vertex -4.45026 -2.44655 0
      vertex -4.10853 -2.98502 2.45667
      vertex -4.10853 -2.98502 0
    endloop
  endfacet
  facet normal 0.904829 0.425774 0
    outer loop
      vertex -4.45026 -2.44655 2.45667
      vertex -4.7218 -1.86949 0
      vertex -4.7218 -1.86949 2.45667
    endloop
  endfacet
  facet normal 0.904829 0.425774 0
    outer loop
      vertex -4.7218 -1.86949 0
      vertex -4.45026 -2.44655 2.45667
      vertex -4.45026 -2.44655 0
    endloop
  endfacet
endsolid OpenSCAD_Model
