solid OpenSCAD_Model
  facet normal -1 0 0
    outer loop
      vertex -8.5 -8.5 -2.5
      vertex -8.5 8.5 2.5
      vertex -8.5 8.5 -2.5
    endloop
  endfacet
  facet normal -1 -0 0
    outer loop
      vertex -8.5 8.5 2.5
      vertex -8.5 -8.5 -2.5
      vertex -8.5 -8.5 2.5
    endloop
  endfacet
  facet normal 0 0 1
    outer loop
      vertex 8.5 8.5 2.5
      vertex 5.66667 5.66667 2.5
      vertex 8.5 -8.5 2.5
    endloop
  endfacet
  facet normal 0 0 1
    outer loop
      vertex 8.5 8.5 2.5
      vertex -5.66667 5.66667 2.5
      vertex 5.66667 5.66667 2.5
    endloop
  endfacet
  facet normal 0 0 1
    outer loop
      vertex -5.66667 5.66667 2.5
      vertex -8.5 8.5 2.5
      vertex -5.66667 -5.66667 2.5
    endloop
  endfacet
  facet normal -0 0 1
    outer loop
      vertex -8.5 8.5 2.5
      vertex -5.66667 5.66667 2.5
      vertex 8.5 8.5 2.5
    endloop
  endfacet
  facet normal -0 0 1
    outer loop
      vertex 5.66667 -5.66667 2.5
      vertex 8.5 -8.5 2.5
      vertex 5.66667 5.66667 2.5
    endloop
  endfacet
  facet normal -0 0 1
    outer loop
      vertex -5.66667 -5.66667 2.5
      vertex 8.5 -8.5 2.5
      vertex 5.66667 -5.66667 2.5
    endloop
  endfacet
  facet normal 0 0 1
    outer loop
      vertex -5.66667 -5.66667 2.5
      vertex -8.5 -8.5 2.5
      vertex 8.5 -8.5 2.5
    endloop
  endfacet
  facet normal 0 0 1
    outer loop
      vertex -8.5 -8.5 2.5
      vertex -5.66667 -5.66667 2.5
      vertex -8.5 8.5 2.5
    endloop
  endfacet
  facet normal 1 -0 0
    outer loop
      vertex 8.5 -8.5 2.5
      vertex 8.5 8.5 -2.5
      vertex 8.5 8.5 2.5
    endloop
  endfacet
  facet normal 1 0 0
    outer loop
      vertex 8.5 8.5 -2.5
      vertex 8.5 -8.5 2.5
      vertex 8.5 -8.5 -2.5
    endloop
  endfacet
  facet normal 0 1 -0
    outer loop
      vertex 8.5 8.5 -2.5
      vertex -8.5 8.5 2.5
      vertex 8.5 8.5 2.5
    endloop
  endfacet
  facet normal 0 1 0
    outer loop
      vertex -8.5 8.5 2.5
      vertex 8.5 8.5 -2.5
      vertex -8.5 8.5 -2.5
    endloop
  endfacet
  facet normal 0 0 -1
    outer loop
      vertex 8.5 -8.5 -2.5
      vertex 4.3 -4.3 -2.5
      vertex 8.5 8.5 -2.5
    endloop
  endfacet
  facet normal 0 0 -1
    outer loop
      vertex 8.5 -8.5 -2.5
      vertex -4.3 -4.3 -2.5
      vertex 4.3 -4.3 -2.5
    endloop
  endfacet
  facet normal -0 0 -1
    outer loop
      vertex -4.3 -4.3 -2.5
      vertex -8.5 -8.5 -2.5
      vertex -4.3 4.3 -2.5
    endloop
  endfacet
  facet normal 0 0 -1
    outer loop
      vertex -8.5 -8.5 -2.5
      vertex -4.3 -4.3 -2.5
      vertex 8.5 -8.5 -2.5
    endloop
  endfacet
  facet normal 0 0 -1
    outer loop
      vertex 4.3 4.3 -2.5
      vertex 8.5 8.5 -2.5
      vertex 4.3 -4.3 -2.5
    endloop
  endfacet
  facet normal 0 0 -1
    outer loop
      vertex -4.3 4.3 -2.5
      vertex 8.5 8.5 -2.5
      vertex 4.3 4.3 -2.5
    endloop
  endfacet
  facet normal 0 0 -1
    outer loop
      vertex -4.3 4.3 -2.5
      vertex -8.5 8.5 -2.5
      vertex 8.5 8.5 -2.5
    endloop
  endfacet
  facet normal 0 0 -1
    outer loop
      vertex -8.5 8.5 -2.5
      vertex -4.3 4.3 -2.5
      vertex -8.5 -8.5 -2.5
    endloop
  endfacet
  facet normal 0 -1 0
    outer loop
      vertex -8.5 -8.5 -2.5
      vertex 8.5 -8.5 2.5
      vertex -8.5 -8.5 2.5
    endloop
  endfacet
  facet normal 0 -1 -0
    outer loop
      vertex 8.5 -8.5 2.5
      vertex -8.5 -8.5 -2.5
      vertex 8.5 -8.5 -2.5
    endloop
  endfacet
  facet normal 1 -0 0
    outer loop
      vertex -4.3 -4.3 -0.0433331
      vertex -4.3 4.3 -2.5
      vertex -4.3 4.3 -0.0433331
    endloop
  endfacet
  facet normal 1 0 0
    outer loop
      vertex -4.3 4.3 -2.5
      vertex -4.3 -4.3 -0.0433331
      vertex -4.3 -4.3 -2.5
    endloop
  endfacet
  facet normal 0 0 -1
    outer loop
      vertex -4.3 -4.3 -0.0433331
      vertex 4.3 4.3 -0.0433331
      vertex 4.3 -4.3 -0.0433331
    endloop
  endfacet
  facet normal -0 0 -1
    outer loop
      vertex 4.3 4.3 -0.0433331
      vertex -4.3 -4.3 -0.0433331
      vertex -4.3 4.3 -0.0433331
    endloop
  endfacet
  facet normal -1 0 0
    outer loop
      vertex 4.3 -4.3 -2.5
      vertex 4.3 4.3 -0.0433331
      vertex 4.3 4.3 -2.5
    endloop
  endfacet
  facet normal -1 -0 0
    outer loop
      vertex 4.3 4.3 -0.0433331
      vertex 4.3 -4.3 -2.5
      vertex 4.3 -4.3 -0.0433331
    endloop
  endfacet
  facet normal 0 -1 0
    outer loop
      vertex -4.3 4.3 -2.5
      vertex 4.3 4.3 -0.0433331
      vertex -4.3 4.3 -0.0433331
    endloop
  endfacet
  facet normal 0 -1 -0
    outer loop
      vertex 4.3 4.3 -0.0433331
      vertex -4.3 4.3 -2.5
      vertex 4.3 4.3 -2.5
    endloop
  endfacet
  facet normal 0 1 -0
    outer loop
      vertex 4.3 -4.3 -2.5
      vertex -4.3 -4.3 -0.0433331
      vertex 4.3 -4.3 -0.0433331
    endloop
  endfacet
  facet normal 0 1 0
    outer loop
      vertex -4.3 -4.3 -0.0433331
      vertex 4.3 -4.3 -2.5
      vertex -4.3 -4.3 -2.5
    endloop
  endfacet
  facet normal -1 0 0
    outer loop
      vertex -5.66667 -5.66667 2.5
      vertex -5.66667 5.66667 4.19
      vertex -5.66667 5.66667 2.5
    endloop
  endfacet
  facet normal -1 -0 0
    outer loop
      vertex -5.66667 5.66667 4.19
      vertex -5.66667 -5.66667 2.5
      vertex -5.66667 -5.66667 4.19
    endloop
  endfacet
  facet normal 0 0 1
    outer loop
      vertex 5.66667 5.66667 4.19
      vertex 3.77778 3.77778 4.19
      vertex 5.66667 -5.66667 4.19
    endloop
  endfacet
  facet normal 0 0 1
    outer loop
      vertex 5.66667 5.66667 4.19
      vertex -3.77778 3.77778 4.19
      vertex 3.77778 3.77778 4.19
    endloop
  endfacet
  facet normal 0 0 1
    outer loop
      vertex -3.77778 3.77778 4.19
      vertex -5.66667 5.66667 4.19
      vertex -3.77778 -3.77778 4.19
    endloop
  endfacet
  facet normal -0 0 1
    outer loop
      vertex -5.66667 5.66667 4.19
      vertex -3.77778 3.77778 4.19
      vertex 5.66667 5.66667 4.19
    endloop
  endfacet
  facet normal -0 0 1
    outer loop
      vertex 3.77778 -3.77778 4.19
      vertex 5.66667 -5.66667 4.19
      vertex 3.77778 3.77778 4.19
    endloop
  endfacet
  facet normal -0 0 1
    outer loop
      vertex -3.77778 -3.77778 4.19
      vertex 5.66667 -5.66667 4.19
      vertex 3.77778 -3.77778 4.19
    endloop
  endfacet
  facet normal 0 0 1
    outer loop
      vertex -3.77778 -3.77778 4.19
      vertex -5.66667 -5.66667 4.19
      vertex 5.66667 -5.66667 4.19
    endloop
  endfacet
  facet normal 0 0 1
    outer loop
      vertex -5.66667 -5.66667 4.19
      vertex -3.77778 -3.77778 4.19
      vertex -5.66667 5.66667 4.19
    endloop
  endfacet
  facet normal 1 -0 0
    outer loop
      vertex 5.66667 -5.66667 4.19
      vertex 5.66667 5.66667 2.5
      vertex 5.66667 5.66667 4.19
    endloop
  endfacet
  facet normal 1 0 0
    outer loop
      vertex 5.66667 5.66667 2.5
      vertex 5.66667 -5.66667 4.19
      vertex 5.66667 -5.66667 2.5
    endloop
  endfacet
  facet normal 0 1 -0
    outer loop
      vertex 5.66667 5.66667 2.5
      vertex -5.66667 5.66667 4.19
      vertex 5.66667 5.66667 4.19
    endloop
  endfacet
  facet normal 0 1 0
    outer loop
      vertex -5.66667 5.66667 4.19
      vertex 5.66667 5.66667 2.5
      vertex -5.66667 5.66667 2.5
    endloop
  endfacet
  facet normal 0 -1 0
    outer loop
      vertex -5.66667 -5.66667 2.5
      vertex 5.66667 -5.66667 4.19
      vertex -5.66667 -5.66667 4.19
    endloop
  endfacet
  facet normal 0 -1 -0
    outer loop
      vertex 5.66667 -5.66667 4.19
      vertex -5.66667 -5.66667 2.5
      vertex 5.66667 -5.66667 2.5
    endloop
  endfacet
  facet normal -1 0 0
    outer loop
      vertex -3.77778 -3.77778 4.19
      vertex -3.77778 3.77778 5.89
      vertex -3.77778 3.77778 4.19
    endloop
  endfacet
  facet normal -1 -0 0
    outer loop
      vertex -3.77778 3.77778 5.89
      vertex -3.77778 -3.77778 4.19
      vertex -3.77778 -3.77778 5.89
    endloop
  endfacet
  facet normal -0 0 1
    outer loop
      vertex -3.77778 3.77778 5.89
      vertex 3.77778 -3.77778 5.89
      vertex 3.77778 3.77778 5.89
    endloop
  endfacet
  facet normal 0 0 1
    outer loop
      vertex 3.77778 -3.77778 5.89
      vertex -3.77778 3.77778 5.89
      vertex -3.77778 -3.77778 5.89
    endloop
  endfacet
  facet normal 1 -0 0
    outer loop
      vertex 3.77778 -3.77778 5.89
      vertex 3.77778 3.77778 4.19
      vertex 3.77778 3.77778 5.89
    endloop
  endfacet
  facet normal 1 0 0
    outer loop
      vertex 3.77778 3.77778 4.19
      vertex 3.77778 -3.77778 5.89
      vertex 3.77778 -3.77778 4.19
    endloop
  endfacet
  facet normal 0 1 -0
    outer loop
      vertex 3.77778 3.77778 4.19
      vertex -3.77778 3.77778 5.89
      vertex 3.77778 3.77778 5.89
    endloop
  endfacet
  facet normal 0 1 0
    outer loop
      vertex -3.77778 3.77778 5.89
      vertex 3.77778 3.77778 4.19
      vertex -3.77778 3.77778 4.19
    endloop
  endfacet
  facet normal 0 -1 0
    outer loop
      vertex -3.77778 -3.77778 4.19
      vertex 3.77778 -3.77778 5.89
      vertex -3.77778 -3.77778 5.89
    endloop
  endfacet
  facet normal 0 -1 -0
    outer loop
      vertex 3.77778 -3.77778 5.89
      vertex -3.77778 -3.77778 4.19
      vertex 3.77778 -3.77778 4.19
    endloop
  endfacet
endsolid OpenSCAD_Model
