solid OpenSCAD_Model
  facet normal 0 0 -1
    outer loop
      vertex -8.5 3.4 8.41
      vertex -6.8 6.8 8.41
      vertex -6.8 3.4 8.41
    endloop
  endfacet
  facet normal -0 0 -1
    outer loop
      vertex -6.8 6.8 8.41
      vertex -8.5 3.4 8.41
      vertex -8.5 6.8 8.41
    endloop
  endfacet
  facet normal 0 0 -1
    outer loop
      vertex -8.5 -1.7 8.41
      vertex -6.8 1.7 8.41
      vertex -6.8 -1.7 8.41
    endloop
  endfacet
  facet normal -0 0 -1
    outer loop
      vertex -6.8 1.7 8.41
      vertex -8.5 -1.7 8.41
      vertex -8.5 1.7 8.41
    endloop
  endfacet
  facet normal 0 0 -1
    outer loop
      vertex -8.5 -6.8 8.41
      vertex -6.8 -3.4 8.41
      vertex -6.8 -6.8 8.41
    endloop
  endfacet
  facet normal -0 0 -1
    outer loop
      vertex -6.8 -3.4 8.41
      vertex -8.5 -6.8 8.41
      vertex -8.5 -3.4 8.41
    endloop
  endfacet
  facet normal 0 0 -1
    outer loop
      vertex -6.8 -6.8 8.41
      vertex 6.8 -6.8 8.41
      vertex 6.8 -8.5 8.41
    endloop
  endfacet
  facet normal 0 0 -1
    outer loop
      vertex 6.8 -6.8 8.41
      vertex -6.8 -6.8 8.41
      vertex 6.8 -3.4 8.41
    endloop
  endfacet
  facet normal 0 0 -1
    outer loop
      vertex 6.8 -3.4 8.41
      vertex -6.8 -3.4 8.41
      vertex 6.8 -1.7 8.41
    endloop
  endfacet
  facet normal 0 0 -1
    outer loop
      vertex -6.8 -1.7 8.41
      vertex 6.8 -1.7 8.41
      vertex -6.8 -3.4 8.41
    endloop
  endfacet
  facet normal 0 0 -1
    outer loop
      vertex -6.8 1.7 8.41
      vertex 6.8 1.7 8.41
      vertex -6.8 -1.7 8.41
    endloop
  endfacet
  facet normal 0 0 -1
    outer loop
      vertex 6.8 1.7 8.41
      vertex -6.8 1.7 8.41
      vertex 6.8 3.4 8.41
    endloop
  endfacet
  facet normal 0 0 -1
    outer loop
      vertex -6.8 -6.8 8.41
      vertex 6.8 -8.5 8.41
      vertex -6.8 -8.5 8.41
    endloop
  endfacet
  facet normal -0 0 -1
    outer loop
      vertex 6.8 -3.4 8.41
      vertex -6.8 -6.8 8.41
      vertex -6.8 -3.4 8.41
    endloop
  endfacet
  facet normal 0 0 -1
    outer loop
      vertex 6.8 -1.7 8.41
      vertex -6.8 -1.7 8.41
      vertex 6.8 1.7 8.41
    endloop
  endfacet
  facet normal 0 0 -1
    outer loop
      vertex -6.8 3.4 8.41
      vertex 6.8 3.4 8.41
      vertex -6.8 1.7 8.41
    endloop
  endfacet
  facet normal 0 0 -1
    outer loop
      vertex 6.8 3.4 8.41
      vertex -6.8 3.4 8.41
      vertex 6.8 6.8 8.41
    endloop
  endfacet
  facet normal 0 0 -1
    outer loop
      vertex -6.8 6.8 8.41
      vertex 6.8 6.8 8.41
      vertex -6.8 3.4 8.41
    endloop
  endfacet
  facet normal 0 0 -1
    outer loop
      vertex 6.8 6.8 8.41
      vertex -6.8 6.8 8.41
      vertex 6.8 8.5 8.41
    endloop
  endfacet
  facet normal -0 0 -1
    outer loop
      vertex 6.8 8.5 8.41
      vertex -6.8 6.8 8.41
      vertex -6.8 8.5 8.41
    endloop
  endfacet
  facet normal 0 0 -1
    outer loop
      vertex 6.8 -6.8 8.41
      vertex 8.5 -3.4 8.41
      vertex 8.5 -6.8 8.41
    endloop
  endfacet
  facet normal -0 0 -1
    outer loop
      vertex 8.5 -3.4 8.41
      vertex 6.8 -6.8 8.41
      vertex 6.8 -3.4 8.41
    endloop
  endfacet
  facet normal 0 0 -1
    outer loop
      vertex 6.8 -1.7 8.41
      vertex 8.5 1.7 8.41
      vertex 8.5 -1.7 8.41
    endloop
  endfacet
  facet normal -0 0 -1
    outer loop
      vertex 8.5 1.7 8.41
      vertex 6.8 -1.7 8.41
      vertex 6.8 1.7 8.41
    endloop
  endfacet
  facet normal 0 0 -1
    outer loop
      vertex 6.8 3.4 8.41
      vertex 8.5 6.8 8.41
      vertex 8.5 3.4 8.41
    endloop
  endfacet
  facet normal -0 0 -1
    outer loop
      vertex 8.5 6.8 8.41
      vertex 6.8 3.4 8.41
      vertex 6.8 6.8 8.41
    endloop
  endfacet
  facet normal 0 -1 0
    outer loop
      vertex -8.5 -3.4 5.01
      vertex -6.8 -3.4 8.41
      vertex -8.5 -3.4 8.41
    endloop
  endfacet
  facet normal 0 -1 -0
    outer loop
      vertex -6.8 -3.4 8.41
      vertex -8.5 -3.4 5.01
      vertex -6.8 -3.4 5.01
    endloop
  endfacet
  facet normal 0 -1 0
    outer loop
      vertex 6.8 -3.4 5.01
      vertex 8.5 -3.4 8.41
      vertex 6.8 -3.4 8.41
    endloop
  endfacet
  facet normal 0 -1 -0
    outer loop
      vertex 8.5 -3.4 8.41
      vertex 6.8 -3.4 5.01
      vertex 8.5 -3.4 5.01
    endloop
  endfacet
  facet normal -0 0 1
    outer loop
      vertex -8.5 -3.4 5.01
      vertex -6.8 -6.8 5.01
      vertex -6.8 -3.4 5.01
    endloop
  endfacet
  facet normal 0 0 1
    outer loop
      vertex -6.8 -6.8 5.01
      vertex -8.5 -3.4 5.01
      vertex -8.5 -6.8 5.01
    endloop
  endfacet
  facet normal -0 0 1
    outer loop
      vertex -8.5 1.7 5.01
      vertex -6.8 -1.7 5.01
      vertex -6.8 1.7 5.01
    endloop
  endfacet
  facet normal 0 0 1
    outer loop
      vertex -6.8 -1.7 5.01
      vertex -8.5 1.7 5.01
      vertex -8.5 -1.7 5.01
    endloop
  endfacet
  facet normal -0 0 1
    outer loop
      vertex -8.5 6.8 5.01
      vertex -6.8 3.4 5.01
      vertex -6.8 6.8 5.01
    endloop
  endfacet
  facet normal 0 0 1
    outer loop
      vertex -6.8 3.4 5.01
      vertex -8.5 6.8 5.01
      vertex -8.5 3.4 5.01
    endloop
  endfacet
  facet normal 0 0 1
    outer loop
      vertex -6.8 6.8 5.01
      vertex 6.8 6.8 5.01
      vertex 6.8 8.5 5.01
    endloop
  endfacet
  facet normal 0 0 1
    outer loop
      vertex 6.8 6.8 5.01
      vertex -6.8 6.8 5.01
      vertex 6.8 3.4 5.01
    endloop
  endfacet
  facet normal 0 0 1
    outer loop
      vertex 6.8 3.4 5.01
      vertex -6.8 3.4 5.01
      vertex 6.8 1.7 5.01
    endloop
  endfacet
  facet normal 0 0 1
    outer loop
      vertex -6.8 1.7 5.01
      vertex 6.8 1.7 5.01
      vertex -6.8 3.4 5.01
    endloop
  endfacet
  facet normal 0 0 1
    outer loop
      vertex -6.8 -1.7 5.01
      vertex 6.8 -1.7 5.01
      vertex -6.8 1.7 5.01
    endloop
  endfacet
  facet normal 0 0 1
    outer loop
      vertex 6.8 -1.7 5.01
      vertex -6.8 -1.7 5.01
      vertex 6.8 -3.4 5.01
    endloop
  endfacet
  facet normal 0 0 1
    outer loop
      vertex -6.8 6.8 5.01
      vertex 6.8 8.5 5.01
      vertex -6.8 8.5 5.01
    endloop
  endfacet
  facet normal 0 0 1
    outer loop
      vertex 6.8 3.4 5.01
      vertex -6.8 6.8 5.01
      vertex -6.8 3.4 5.01
    endloop
  endfacet
  facet normal 0 0 1
    outer loop
      vertex 6.8 1.7 5.01
      vertex -6.8 1.7 5.01
      vertex 6.8 -1.7 5.01
    endloop
  endfacet
  facet normal 0 0 1
    outer loop
      vertex -6.8 -3.4 5.01
      vertex 6.8 -3.4 5.01
      vertex -6.8 -1.7 5.01
    endloop
  endfacet
  facet normal 0 0 1
    outer loop
      vertex 6.8 -3.4 5.01
      vertex -6.8 -3.4 5.01
      vertex 6.8 -6.8 5.01
    endloop
  endfacet
  facet normal 0 0 1
    outer loop
      vertex -6.8 -6.8 5.01
      vertex 6.8 -6.8 5.01
      vertex -6.8 -3.4 5.01
    endloop
  endfacet
  facet normal 0 0 1
    outer loop
      vertex 6.8 -6.8 5.01
      vertex -6.8 -6.8 5.01
      vertex 6.8 -8.5 5.01
    endloop
  endfacet
  facet normal 0 0 1
    outer loop
      vertex 6.8 -8.5 5.01
      vertex -6.8 -6.8 5.01
      vertex -6.8 -8.5 5.01
    endloop
  endfacet
  facet normal -0 0 1
    outer loop
      vertex 6.8 6.8 5.01
      vertex 8.5 3.4 5.01
      vertex 8.5 6.8 5.01
    endloop
  endfacet
  facet normal 0 0 1
    outer loop
      vertex 8.5 3.4 5.01
      vertex 6.8 6.8 5.01
      vertex 6.8 3.4 5.01
    endloop
  endfacet
  facet normal -0 0 1
    outer loop
      vertex 6.8 1.7 5.01
      vertex 8.5 -1.7 5.01
      vertex 8.5 1.7 5.01
    endloop
  endfacet
  facet normal 0 0 1
    outer loop
      vertex 8.5 -1.7 5.01
      vertex 6.8 1.7 5.01
      vertex 6.8 -1.7 5.01
    endloop
  endfacet
  facet normal -0 0 1
    outer loop
      vertex 6.8 -3.4 5.01
      vertex 8.5 -6.8 5.01
      vertex 8.5 -3.4 5.01
    endloop
  endfacet
  facet normal 0 0 1
    outer loop
      vertex 8.5 -6.8 5.01
      vertex 6.8 -3.4 5.01
      vertex 6.8 -6.8 5.01
    endloop
  endfacet
  facet normal 0 1 -0
    outer loop
      vertex -6.8 -6.8 5.01
      vertex -8.5 -6.8 8.41
      vertex -6.8 -6.8 8.41
    endloop
  endfacet
  facet normal 0 1 0
    outer loop
      vertex -8.5 -6.8 8.41
      vertex -6.8 -6.8 5.01
      vertex -8.5 -6.8 5.01
    endloop
  endfacet
  facet normal 0 1 -0
    outer loop
      vertex 8.5 -6.8 5.01
      vertex 6.8 -6.8 8.41
      vertex 8.5 -6.8 8.41
    endloop
  endfacet
  facet normal 0 1 0
    outer loop
      vertex 6.8 -6.8 8.41
      vertex 8.5 -6.8 5.01
      vertex 6.8 -6.8 5.01
    endloop
  endfacet
  facet normal 0 1 -0
    outer loop
      vertex -6.8 -1.7 5.01
      vertex -8.5 -1.7 8.41
      vertex -6.8 -1.7 8.41
    endloop
  endfacet
  facet normal 0 1 0
    outer loop
      vertex -8.5 -1.7 8.41
      vertex -6.8 -1.7 5.01
      vertex -8.5 -1.7 5.01
    endloop
  endfacet
  facet normal 0 1 -0
    outer loop
      vertex 8.5 -1.7 5.01
      vertex 6.8 -1.7 8.41
      vertex 8.5 -1.7 8.41
    endloop
  endfacet
  facet normal 0 1 0
    outer loop
      vertex 6.8 -1.7 8.41
      vertex 8.5 -1.7 5.01
      vertex 6.8 -1.7 5.01
    endloop
  endfacet
  facet normal 0 -1 0
    outer loop
      vertex -8.5 1.7 5.01
      vertex -6.8 1.7 8.41
      vertex -8.5 1.7 8.41
    endloop
  endfacet
  facet normal 0 -1 -0
    outer loop
      vertex -6.8 1.7 8.41
      vertex -8.5 1.7 5.01
      vertex -6.8 1.7 5.01
    endloop
  endfacet
  facet normal 0 -1 0
    outer loop
      vertex 6.8 1.7 5.01
      vertex 8.5 1.7 8.41
      vertex 6.8 1.7 8.41
    endloop
  endfacet
  facet normal 0 -1 -0
    outer loop
      vertex 8.5 1.7 8.41
      vertex 6.8 1.7 5.01
      vertex 8.5 1.7 5.01
    endloop
  endfacet
  facet normal 0 1 -0
    outer loop
      vertex -6.8 3.4 5.01
      vertex -8.5 3.4 8.41
      vertex -6.8 3.4 8.41
    endloop
  endfacet
  facet normal 0 1 0
    outer loop
      vertex -8.5 3.4 8.41
      vertex -6.8 3.4 5.01
      vertex -8.5 3.4 5.01
    endloop
  endfacet
  facet normal 0 1 -0
    outer loop
      vertex 8.5 3.4 5.01
      vertex 6.8 3.4 8.41
      vertex 8.5 3.4 8.41
    endloop
  endfacet
  facet normal 0 1 0
    outer loop
      vertex 6.8 3.4 8.41
      vertex 8.5 3.4 5.01
      vertex 6.8 3.4 5.01
    endloop
  endfacet
  facet normal 0 -1 0
    outer loop
      vertex -8.5 6.8 5.01
      vertex -6.8 6.8 8.41
      vertex -8.5 6.8 8.41
    endloop
  endfacet
  facet normal 0 -1 -0
    outer loop
      vertex -6.8 6.8 8.41
      vertex -8.5 6.8 5.01
      vertex -6.8 6.8 5.01
    endloop
  endfacet
  facet normal 0 -1 0
    outer loop
      vertex 6.8 6.8 5.01
      vertex 8.5 6.8 8.41
      vertex 6.8 6.8 8.41
    endloop
  endfacet
  facet normal 0 -1 -0
    outer loop
      vertex 8.5 6.8 8.41
      vertex 6.8 6.8 5.01
      vertex 8.5 6.8 5.01
    endloop
  endfacet
  facet normal 0 0 -1
    outer loop
      vertex -8.5 3.4 13.41
      vertex -6.8 6.8 13.41
      vertex -6.8 3.4 13.41
    endloop
  endfacet
  facet normal -0 0 -1
    outer loop
      vertex -6.8 6.8 13.41
      vertex -8.5 3.4 13.41
      vertex -8.5 6.8 13.41
    endloop
  endfacet
  facet normal 0 0 -1
    outer loop
      vertex -8.5 -1.7 13.41
      vertex -6.8 1.7 13.41
      vertex -6.8 -1.7 13.41
    endloop
  endfacet
  facet normal -0 0 -1
    outer loop
      vertex -6.8 1.7 13.41
      vertex -8.5 -1.7 13.41
      vertex -8.5 1.7 13.41
    endloop
  endfacet
  facet normal 0 0 -1
    outer loop
      vertex -8.5 -6.8 13.41
      vertex -6.8 -3.4 13.41
      vertex -6.8 -6.8 13.41
    endloop
  endfacet
  facet normal -0 0 -1
    outer loop
      vertex -6.8 -3.4 13.41
      vertex -8.5 -6.8 13.41
      vertex -8.5 -3.4 13.41
    endloop
  endfacet
  facet normal 0 0 -1
    outer loop
      vertex -6.8 -6.8 13.41
      vertex 6.8 -6.8 13.41
      vertex 6.8 -8.5 13.41
    endloop
  endfacet
  facet normal 0 0 -1
    outer loop
      vertex 6.8 -6.8 13.41
      vertex -6.8 -6.8 13.41
      vertex 6.8 -3.4 13.41
    endloop
  endfacet
  facet normal 0 0 -1
    outer loop
      vertex 6.8 -3.4 13.41
      vertex -6.8 -3.4 13.41
      vertex 6.8 -1.7 13.41
    endloop
  endfacet
  facet normal 0 0 -1
    outer loop
      vertex -6.8 -1.7 13.41
      vertex 6.8 -1.7 13.41
      vertex -6.8 -3.4 13.41
    endloop
  endfacet
  facet normal 0 0 -1
    outer loop
      vertex -6.8 1.7 13.41
      vertex 6.8 1.7 13.41
      vertex -6.8 -1.7 13.41
    endloop
  endfacet
  facet normal 0 0 -1
    outer loop
      vertex 6.8 1.7 13.41
      vertex -6.8 1.7 13.41
      vertex 6.8 3.4 13.41
    endloop
  endfacet
  facet normal 0 0 -1
    outer loop
      vertex -6.8 -6.8 13.41
      vertex 6.8 -8.5 13.41
      vertex -6.8 -8.5 13.41
    endloop
  endfacet
  facet normal -0 0 -1
    outer loop
      vertex 6.8 -3.4 13.41
      vertex -6.8 -6.8 13.41
      vertex -6.8 -3.4 13.41
    endloop
  endfacet
  facet normal 0 0 -1
    outer loop
      vertex 6.8 -1.7 13.41
      vertex -6.8 -1.7 13.41
      vertex 6.8 1.7 13.41
    endloop
  endfacet
  facet normal 0 0 -1
    outer loop
      vertex -6.8 3.4 13.41
      vertex 6.8 3.4 13.41
      vertex -6.8 1.7 13.41
    endloop
  endfacet
  facet normal 0 0 -1
    outer loop
      vertex 6.8 3.4 13.41
      vertex -6.8 3.4 13.41
      vertex 6.8 6.8 13.41
    endloop
  endfacet
  facet normal 0 0 -1
    outer loop
      vertex -6.8 6.8 13.41
      vertex 6.8 6.8 13.41
      vertex -6.8 3.4 13.41
    endloop
  endfacet
  facet normal 0 0 -1
    outer loop
      vertex 6.8 6.8 13.41
      vertex -6.8 6.8 13.41
      vertex 6.8 8.5 13.41
    endloop
  endfacet
  facet normal -0 0 -1
    outer loop
      vertex 6.8 8.5 13.41
      vertex -6.8 6.8 13.41
      vertex -6.8 8.5 13.41
    endloop
  endfacet
  facet normal 0 0 -1
    outer loop
      vertex 6.8 -6.8 13.41
      vertex 8.5 -3.4 13.41
      vertex 8.5 -6.8 13.41
    endloop
  endfacet
  facet normal -0 0 -1
    outer loop
      vertex 8.5 -3.4 13.41
      vertex 6.8 -6.8 13.41
      vertex 6.8 -3.4 13.41
    endloop
  endfacet
  facet normal 0 0 -1
    outer loop
      vertex 6.8 -1.7 13.41
      vertex 8.5 1.7 13.41
      vertex 8.5 -1.7 13.41
    endloop
  endfacet
  facet normal -0 0 -1
    outer loop
      vertex 8.5 1.7 13.41
      vertex 6.8 -1.7 13.41
      vertex 6.8 1.7 13.41
    endloop
  endfacet
  facet normal 0 0 -1
    outer loop
      vertex 6.8 3.4 13.41
      vertex 8.5 6.8 13.41
      vertex 8.5 3.4 13.41
    endloop
  endfacet
  facet normal -0 0 -1
    outer loop
      vertex 8.5 6.8 13.41
      vertex 6.8 3.4 13.41
      vertex 6.8 6.8 13.41
    endloop
  endfacet
  facet normal 0 -1 0
    outer loop
      vertex -8.5 -3.4 10.01
      vertex -6.8 -3.4 13.41
      vertex -8.5 -3.4 13.41
    endloop
  endfacet
  facet normal 0 -1 -0
    outer loop
      vertex -6.8 -3.4 13.41
      vertex -8.5 -3.4 10.01
      vertex -6.8 -3.4 10.01
    endloop
  endfacet
  facet normal 0 -1 0
    outer loop
      vertex 6.8 -3.4 10.01
      vertex 8.5 -3.4 13.41
      vertex 6.8 -3.4 13.41
    endloop
  endfacet
  facet normal 0 -1 -0
    outer loop
      vertex 8.5 -3.4 13.41
      vertex 6.8 -3.4 10.01
      vertex 8.5 -3.4 10.01
    endloop
  endfacet
  facet normal -0 0 1
    outer loop
      vertex -8.5 -3.4 10.01
      vertex -6.8 -6.8 10.01
      vertex -6.8 -3.4 10.01
    endloop
  endfacet
  facet normal 0 0 1
    outer loop
      vertex -6.8 -6.8 10.01
      vertex -8.5 -3.4 10.01
      vertex -8.5 -6.8 10.01
    endloop
  endfacet
  facet normal -0 0 1
    outer loop
      vertex -8.5 1.7 10.01
      vertex -6.8 -1.7 10.01
      vertex -6.8 1.7 10.01
    endloop
  endfacet
  facet normal 0 0 1
    outer loop
      vertex -6.8 -1.7 10.01
      vertex -8.5 1.7 10.01
      vertex -8.5 -1.7 10.01
    endloop
  endfacet
  facet normal -0 0 1
    outer loop
      vertex -8.5 6.8 10.01
      vertex -6.8 3.4 10.01
      vertex -6.8 6.8 10.01
    endloop
  endfacet
  facet normal 0 0 1
    outer loop
      vertex -6.8 3.4 10.01
      vertex -8.5 6.8 10.01
      vertex -8.5 3.4 10.01
    endloop
  endfacet
  facet normal 0 0 1
    outer loop
      vertex -6.8 6.8 10.01
      vertex 6.8 6.8 10.01
      vertex 6.8 8.5 10.01
    endloop
  endfacet
  facet normal 0 0 1
    outer loop
      vertex 6.8 6.8 10.01
      vertex -6.8 6.8 10.01
      vertex 6.8 3.4 10.01
    endloop
  endfacet
  facet normal 0 0 1
    outer loop
      vertex 6.8 3.4 10.01
      vertex -6.8 3.4 10.01
      vertex 6.8 1.7 10.01
    endloop
  endfacet
  facet normal 0 0 1
    outer loop
      vertex -6.8 1.7 10.01
      vertex 6.8 1.7 10.01
      vertex -6.8 3.4 10.01
    endloop
  endfacet
  facet normal 0 0 1
    outer loop
      vertex -6.8 -1.7 10.01
      vertex 6.8 -1.7 10.01
      vertex -6.8 1.7 10.01
    endloop
  endfacet
  facet normal 0 0 1
    outer loop
      vertex 6.8 -1.7 10.01
      vertex -6.8 -1.7 10.01
      vertex 6.8 -3.4 10.01
    endloop
  endfacet
  facet normal 0 0 1
    outer loop
      vertex -6.8 6.8 10.01
      vertex 6.8 8.5 10.01
      vertex -6.8 8.5 10.01
    endloop
  endfacet
  facet normal 0 0 1
    outer loop
      vertex 6.8 3.4 10.01
      vertex -6.8 6.8 10.01
      vertex -6.8 3.4 10.01
    endloop
  endfacet
  facet normal 0 0 1
    outer loop
      vertex 6.8 1.7 10.01
      vertex -6.8 1.7 10.01
      vertex 6.8 -1.7 10.01
    endloop
  endfacet
  facet normal 0 0 1
    outer loop
      vertex -6.8 -3.4 10.01
      vertex 6.8 -3.4 10.01
      vertex -6.8 -1.7 10.01
    endloop
  endfacet
  facet normal 0 0 1
    outer loop
      vertex 6.8 -3.4 10.01
      vertex -6.8 -3.4 10.01
      vertex 6.8 -6.8 10.01
    endloop
  endfacet
  facet normal 0 0 1
    outer loop
      vertex -6.8 -6.8 10.01
      vertex 6.8 -6.8 10.01
      vertex -6.8 -3.4 10.01
    endloop
  endfacet
  facet normal 0 0 1
    outer loop
      vertex 6.8 -6.8 10.01
      vertex -6.8 -6.8 10.01
      vertex 6.8 -8.5 10.01
    endloop
  endfacet
  facet normal 0 0 1
    outer loop
      vertex 6.8 -8.5 10.01
      vertex -6.8 -6.8 10.01
      vertex -6.8 -8.5 10.01
    endloop
  endfacet
  facet normal -0 0 1
    outer loop
      vertex 6.8 6.8 10.01
      vertex 8.5 3.4 10.01
      vertex 8.5 6.8 10.01
    endloop
  endfacet
  facet normal 0 0 1
    outer loop
      vertex 8.5 3.4 10.01
      vertex 6.8 6.8 10.01
      vertex 6.8 3.4 10.01
    endloop
  endfacet
  facet normal -0 0 1
    outer loop
      vertex 6.8 1.7 10.01
      vertex 8.5 -1.7 10.01
      vertex 8.5 1.7 10.01
    endloop
  endfacet
  facet normal 0 0 1
    outer loop
      vertex 8.5 -1.7 10.01
      vertex 6.8 1.7 10.01
      vertex 6.8 -1.7 10.01
    endloop
  endfacet
  facet normal -0 0 1
    outer loop
      vertex 6.8 -3.4 10.01
      vertex 8.5 -6.8 10.01
      vertex 8.5 -3.4 10.01
    endloop
  endfacet
  facet normal 0 0 1
    outer loop
      vertex 8.5 -6.8 10.01
      vertex 6.8 -3.4 10.01
      vertex 6.8 -6.8 10.01
    endloop
  endfacet
  facet normal 0 1 -0
    outer loop
      vertex -6.8 -6.8 10.01
      vertex -8.5 -6.8 13.41
      vertex -6.8 -6.8 13.41
    endloop
  endfacet
  facet normal 0 1 0
    outer loop
      vertex -8.5 -6.8 13.41
      vertex -6.8 -6.8 10.01
      vertex -8.5 -6.8 10.01
    endloop
  endfacet
  facet normal 0 1 -0
    outer loop
      vertex 8.5 -6.8 10.01
      vertex 6.8 -6.8 13.41
      vertex 8.5 -6.8 13.41
    endloop
  endfacet
  facet normal 0 1 0
    outer loop
      vertex 6.8 -6.8 13.41
      vertex 8.5 -6.8 10.01
      vertex 6.8 -6.8 10.01
    endloop
  endfacet
  facet normal 0 -1 0
    outer loop
      vertex -8.5 1.7 10.01
      vertex -6.8 1.7 13.41
      vertex -8.5 1.7 13.41
    endloop
  endfacet
  facet normal 0 -1 -0
    outer loop
      vertex -6.8 1.7 13.41
      vertex -8.5 1.7 10.01
      vertex -6.8 1.7 10.01
    endloop
  endfacet
  facet normal 0 -1 0
    outer loop
      vertex 6.8 1.7 10.01
      vertex 8.5 1.7 13.41
      vertex 6.8 1.7 13.41
    endloop
  endfacet
  facet normal 0 -1 -0
    outer loop
      vertex 8.5 1.7 13.41
      vertex 6.8 1.7 10.01
      vertex 8.5 1.7 10.01
    endloop
  endfacet
  facet normal 0 1 -0
    outer loop
      vertex -6.8 -1.7 10.01
      vertex -8.5 -1.7 13.41
      vertex -6.8 -1.7 13.41
    endloop
  endfacet
  facet normal 0 1 0
    outer loop
      vertex -8.5 -1.7 13.41
      vertex -6.8 -1.7 10.01
      vertex -8.5 -1.7 10.01
    endloop
  endfacet
  facet normal 0 1 -0
    outer loop
      vertex 8.5 -1.7 10.01
      vertex 6.8 -1.7 13.41
      vertex 8.5 -1.7 13.41
    endloop
  endfacet
  facet normal 0 1 0
    outer loop
      vertex 6.8 -1.7 13.41
      vertex 8.5 -1.7 10.01
      vertex 6.8 -1.7 10.01
    endloop
  endfacet
  facet normal 0 -1 0
    outer loop
      vertex -8.5 6.8 10.01
      vertex -6.8 6.8 13.41
      vertex -8.5 6.8 13.41
    endloop
  endfacet
  facet normal 0 -1 -0
    outer loop
      vertex -6.8 6.8 13.41
      vertex -8.5 6.8 10.01
      vertex -6.8 6.8 10.01
    endloop
  endfacet
  facet normal 0 -1 0
    outer loop
      vertex 6.8 6.8 10.01
      vertex 8.5 6.8 13.41
      vertex 6.8 6.8 13.41
    endloop
  endfacet
  facet normal 0 -1 -0
    outer loop
      vertex 8.5 6.8 13.41
      vertex 6.8 6.8 10.01
      vertex 8.5 6.8 10.01
    endloop
  endfacet
  facet normal 0 1 -0
    outer loop
      vertex -6.8 3.4 10.01
      vertex -8.5 3.4 13.41
      vertex -6.8 3.4 13.41
    endloop
  endfacet
  facet normal 0 1 0
    outer loop
      vertex -8.5 3.4 13.41
      vertex -6.8 3.4 10.01
      vertex -8.5 3.4 10.01
    endloop
  endfacet
  facet normal 0 1 -0
    outer loop
      vertex 8.5 3.4 10.01
      vertex 6.8 3.4 13.41
      vertex 8.5 3.4 13.41
    endloop
  endfacet
  facet normal 0 1 0
    outer loop
      vertex 6.8 3.4 13.41
      vertex 8.5 3.4 10.01
      vertex 6.8 3.4 10.01
    endloop
  endfacet
  facet normal 0 0 -1
    outer loop
      vertex -8.5 3.4 18.41
      vertex -6.8 6.8 18.41
      vertex -6.8 3.4 18.41
    endloop
  endfacet
  facet normal -0 0 -1
    outer loop
      vertex -6.8 6.8 18.41
      vertex -8.5 3.4 18.41
      vertex -8.5 6.8 18.41
    endloop
  endfacet
  facet normal 0 0 -1
    outer loop
      vertex -8.5 -1.7 18.41
      vertex -6.8 1.7 18.41
      vertex -6.8 -1.7 18.41
    endloop
  endfacet
  facet normal -0 0 -1
    outer loop
      vertex -6.8 1.7 18.41
      vertex -8.5 -1.7 18.41
      vertex -8.5 1.7 18.41
    endloop
  endfacet
  facet normal 0 0 -1
    outer loop
      vertex -8.5 -6.8 18.41
      vertex -6.8 -3.4 18.41
      vertex -6.8 -6.8 18.41
    endloop
  endfacet
  facet normal -0 0 -1
    outer loop
      vertex -6.8 -3.4 18.41
      vertex -8.5 -6.8 18.41
      vertex -8.5 -3.4 18.41
    endloop
  endfacet
  facet normal 0 0 -1
    outer loop
      vertex -6.8 -6.8 18.41
      vertex 6.8 -6.8 18.41
      vertex 6.8 -8.5 18.41
    endloop
  endfacet
  facet normal 0 0 -1
    outer loop
      vertex 6.8 -6.8 18.41
      vertex -6.8 -6.8 18.41
      vertex 6.8 -3.4 18.41
    endloop
  endfacet
  facet normal 0 0 -1
    outer loop
      vertex 6.8 -3.4 18.41
      vertex -6.8 -3.4 18.41
      vertex 6.8 -1.7 18.41
    endloop
  endfacet
  facet normal 0 0 -1
    outer loop
      vertex -6.8 -1.7 18.41
      vertex 6.8 -1.7 18.41
      vertex -6.8 -3.4 18.41
    endloop
  endfacet
  facet normal 0 0 -1
    outer loop
      vertex -6.8 1.7 18.41
      vertex 6.8 1.7 18.41
      vertex -6.8 -1.7 18.41
    endloop
  endfacet
  facet normal 0 0 -1
    outer loop
      vertex 6.8 1.7 18.41
      vertex -6.8 1.7 18.41
      vertex 6.8 3.4 18.41
    endloop
  endfacet
  facet normal 0 0 -1
    outer loop
      vertex -6.8 -6.8 18.41
      vertex 6.8 -8.5 18.41
      vertex -6.8 -8.5 18.41
    endloop
  endfacet
  facet normal -0 0 -1
    outer loop
      vertex 6.8 -3.4 18.41
      vertex -6.8 -6.8 18.41
      vertex -6.8 -3.4 18.41
    endloop
  endfacet
  facet normal 0 0 -1
    outer loop
      vertex 6.8 -1.7 18.41
      vertex -6.8 -1.7 18.41
      vertex 6.8 1.7 18.41
    endloop
  endfacet
  facet normal 0 0 -1
    outer loop
      vertex -6.8 3.4 18.41
      vertex 6.8 3.4 18.41
      vertex -6.8 1.7 18.41
    endloop
  endfacet
  facet normal 0 0 -1
    outer loop
      vertex 6.8 3.4 18.41
      vertex -6.8 3.4 18.41
      vertex 6.8 6.8 18.41
    endloop
  endfacet
  facet normal 0 0 -1
    outer loop
      vertex -6.8 6.8 18.41
      vertex 6.8 6.8 18.41
      vertex -6.8 3.4 18.41
    endloop
  endfacet
  facet normal 0 0 -1
    outer loop
      vertex 6.8 6.8 18.41
      vertex -6.8 6.8 18.41
      vertex 6.8 8.5 18.41
    endloop
  endfacet
  facet normal -0 0 -1
    outer loop
      vertex 6.8 8.5 18.41
      vertex -6.8 6.8 18.41
      vertex -6.8 8.5 18.41
    endloop
  endfacet
  facet normal 0 0 -1
    outer loop
      vertex 6.8 -6.8 18.41
      vertex 8.5 -3.4 18.41
      vertex 8.5 -6.8 18.41
    endloop
  endfacet
  facet normal -0 0 -1
    outer loop
      vertex 8.5 -3.4 18.41
      vertex 6.8 -6.8 18.41
      vertex 6.8 -3.4 18.41
    endloop
  endfacet
  facet normal 0 0 -1
    outer loop
      vertex 6.8 -1.7 18.41
      vertex 8.5 1.7 18.41
      vertex 8.5 -1.7 18.41
    endloop
  endfacet
  facet normal -0 0 -1
    outer loop
      vertex 8.5 1.7 18.41
      vertex 6.8 -1.7 18.41
      vertex 6.8 1.7 18.41
    endloop
  endfacet
  facet normal 0 0 -1
    outer loop
      vertex 6.8 3.4 18.41
      vertex 8.5 6.8 18.41
      vertex 8.5 3.4 18.41
    endloop
  endfacet
  facet normal -0 0 -1
    outer loop
      vertex 8.5 6.8 18.41
      vertex 6.8 3.4 18.41
      vertex 6.8 6.8 18.41
    endloop
  endfacet
  facet normal 0 -1 0
    outer loop
      vertex -8.5 -3.4 15.01
      vertex -6.8 -3.4 18.41
      vertex -8.5 -3.4 18.41
    endloop
  endfacet
  facet normal 0 -1 -0
    outer loop
      vertex -6.8 -3.4 18.41
      vertex -8.5 -3.4 15.01
      vertex -6.8 -3.4 15.01
    endloop
  endfacet
  facet normal 0 -1 0
    outer loop
      vertex 6.8 -3.4 15.01
      vertex 8.5 -3.4 18.41
      vertex 6.8 -3.4 18.41
    endloop
  endfacet
  facet normal 0 -1 -0
    outer loop
      vertex 8.5 -3.4 18.41
      vertex 6.8 -3.4 15.01
      vertex 8.5 -3.4 15.01
    endloop
  endfacet
  facet normal -0 0 1
    outer loop
      vertex -8.5 -3.4 15.01
      vertex -6.8 -6.8 15.01
      vertex -6.8 -3.4 15.01
    endloop
  endfacet
  facet normal 0 0 1
    outer loop
      vertex -6.8 -6.8 15.01
      vertex -8.5 -3.4 15.01
      vertex -8.5 -6.8 15.01
    endloop
  endfacet
  facet normal -0 0 1
    outer loop
      vertex -8.5 1.7 15.01
      vertex -6.8 -1.7 15.01
      vertex -6.8 1.7 15.01
    endloop
  endfacet
  facet normal 0 0 1
    outer loop
      vertex -6.8 -1.7 15.01
      vertex -8.5 1.7 15.01
      vertex -8.5 -1.7 15.01
    endloop
  endfacet
  facet normal -0 0 1
    outer loop
      vertex -8.5 6.8 15.01
      vertex -6.8 3.4 15.01
      vertex -6.8 6.8 15.01
    endloop
  endfacet
  facet normal 0 0 1
    outer loop
      vertex -6.8 3.4 15.01
      vertex -8.5 6.8 15.01
      vertex -8.5 3.4 15.01
    endloop
  endfacet
  facet normal 0 0 1
    outer loop
      vertex -6.8 6.8 15.01
      vertex 6.8 6.8 15.01
      vertex 6.8 8.5 15.01
    endloop
  endfacet
  facet normal 0 0 1
    outer loop
      vertex 6.8 6.8 15.01
      vertex -6.8 6.8 15.01
      vertex 6.8 3.4 15.01
    endloop
  endfacet
  facet normal 0 0 1
    outer loop
      vertex 6.8 3.4 15.01
      vertex -6.8 3.4 15.01
      vertex 6.8 1.7 15.01
    endloop
  endfacet
  facet normal 0 0 1
    outer loop
      vertex -6.8 1.7 15.01
      vertex 6.8 1.7 15.01
      vertex -6.8 3.4 15.01
    endloop
  endfacet
  facet normal 0 0 1
    outer loop
      vertex -6.8 -1.7 15.01
      vertex 6.8 -1.7 15.01
      vertex -6.8 1.7 15.01
    endloop
  endfacet
  facet normal 0 0 1
    outer loop
      vertex 6.8 -1.7 15.01
      vertex -6.8 -1.7 15.01
      vertex 6.8 -3.4 15.01
    endloop
  endfacet
  facet normal 0 0 1
    outer loop
      vertex -6.8 6.8 15.01
      vertex 6.8 8.5 15.01
      vertex -6.8 8.5 15.01
    endloop
  endfacet
  facet normal 0 0 1
    outer loop
      vertex 6.8 3.4 15.01
      vertex -6.8 6.8 15.01
      vertex -6.8 3.4 15.01
    endloop
  endfacet
  facet normal 0 0 1
    outer loop
      vertex 6.8 1.7 15.01
      vertex -6.8 1.7 15.01
      vertex 6.8 -1.7 15.01
    endloop
  endfacet
  facet normal 0 0 1
    outer loop
      vertex -6.8 -3.4 15.01
      vertex 6.8 -3.4 15.01
      vertex -6.8 -1.7 15.01
    endloop
  endfacet
  facet normal 0 0 1
    outer loop
      vertex 6.8 -3.4 15.01
      vertex -6.8 -3.4 15.01
      vertex 6.8 -6.8 15.01
    endloop
  endfacet
  facet normal 0 0 1
    outer loop
      vertex -6.8 -6.8 15.01
      vertex 6.8 -6.8 15.01
      vertex -6.8 -3.4 15.01
    endloop
  endfacet
  facet normal 0 0 1
    outer loop
      vertex 6.8 -6.8 15.01
      vertex -6.8 -6.8 15.01
      vertex 6.8 -8.5 15.01
    endloop
  endfacet
  facet normal 0 0 1
    outer loop
      vertex 6.8 -8.5 15.01
      vertex -6.8 -6.8 15.01
      vertex -6.8 -8.5 15.01
    endloop
  endfacet
  facet normal -0 0 1
    outer loop
      vertex 6.8 6.8 15.01
      vertex 8.5 3.4 15.01
      vertex 8.5 6.8 15.01
    endloop
  endfacet
  facet normal 0 0 1
    outer loop
      vertex 8.5 3.4 15.01
      vertex 6.8 6.8 15.01
      vertex 6.8 3.4 15.01
    endloop
  endfacet
  facet normal -0 0 1
    outer loop
      vertex 6.8 1.7 15.01
      vertex 8.5 -1.7 15.01
      vertex 8.5 1.7 15.01
    endloop
  endfacet
  facet normal 0 0 1
    outer loop
      vertex 8.5 -1.7 15.01
      vertex 6.8 1.7 15.01
      vertex 6.8 -1.7 15.01
    endloop
  endfacet
  facet normal -0 0 1
    outer loop
      vertex 6.8 -3.4 15.01
      vertex 8.5 -6.8 15.01
      vertex 8.5 -3.4 15.01
    endloop
  endfacet
  facet normal 0 0 1
    outer loop
      vertex 8.5 -6.8 15.01
      vertex 6.8 -3.4 15.01
      vertex 6.8 -6.8 15.01
    endloop
  endfacet
  facet normal 0 1 -0
    outer loop
      vertex -6.8 -6.8 15.01
      vertex -8.5 -6.8 18.41
      vertex -6.8 -6.8 18.41
    endloop
  endfacet
  facet normal 0 1 0
    outer loop
      vertex -8.5 -6.8 18.41
      vertex -6.8 -6.8 15.01
      vertex -8.5 -6.8 15.01
    endloop
  endfacet
  facet normal 0 1 -0
    outer loop
      vertex 8.5 -6.8 15.01
      vertex 6.8 -6.8 18.41
      vertex 8.5 -6.8 18.41
    endloop
  endfacet
  facet normal 0 1 0
    outer loop
      vertex 6.8 -6.8 18.41
      vertex 8.5 -6.8 15.01
      vertex 6.8 -6.8 15.01
    endloop
  endfacet
  facet normal 0 1 -0
    outer loop
      vertex -6.8 -1.7 15.01
      vertex -8.5 -1.7 18.41
      vertex -6.8 -1.7 18.41
    endloop
  endfacet
  facet normal 0 1 0
    outer loop
      vertex -8.5 -1.7 18.41
      vertex -6.8 -1.7 15.01
      vertex -8.5 -1.7 15.01
    endloop
  endfacet
  facet normal 0 1 -0
    outer loop
      vertex 8.5 -1.7 15.01
      vertex 6.8 -1.7 18.41
      vertex 8.5 -1.7 18.41
    endloop
  endfacet
  facet normal 0 1 0
    outer loop
      vertex 6.8 -1.7 18.41
      vertex 8.5 -1.7 15.01
      vertex 6.8 -1.7 15.01
    endloop
  endfacet
  facet normal 0 -1 0
    outer loop
      vertex -8.5 1.7 15.01
      vertex -6.8 1.7 18.41
      vertex -8.5 1.7 18.41
    endloop
  endfacet
  facet normal 0 -1 -0
    outer loop
      vertex -6.8 1.7 18.41
      vertex -8.5 1.7 15.01
      vertex -6.8 1.7 15.01
    endloop
  endfacet
  facet normal 0 -1 0
    outer loop
      vertex 6.8 1.7 15.01
      vertex 8.5 1.7 18.41
      vertex 6.8 1.7 18.41
    endloop
  endfacet
  facet normal 0 -1 -0
    outer loop
      vertex 8.5 1.7 18.41
      vertex 6.8 1.7 15.01
      vertex 8.5 1.7 15.01
    endloop
  endfacet
  facet normal 0 1 -0
    outer loop
      vertex -6.8 3.4 15.01
      vertex -8.5 3.4 18.41
      vertex -6.8 3.4 18.41
    endloop
  endfacet
  facet normal 0 1 0
    outer loop
      vertex -8.5 3.4 18.41
      vertex -6.8 3.4 15.01
      vertex -8.5 3.4 15.01
    endloop
  endfacet
  facet normal 0 1 -0
    outer loop
      vertex 8.5 3.4 15.01
      vertex 6.8 3.4 18.41
      vertex 8.5 3.4 18.41
    endloop
  endfacet
  facet normal 0 1 0
    outer loop
      vertex 6.8 3.4 18.41
      vertex 8.5 3.4 15.01
      vertex 6.8 3.4 15.01
    endloop
  endfacet
  facet normal 0 -1 0
    outer loop
      vertex -8.5 6.8 15.01
      vertex -6.8 6.8 18.41
      vertex -8.5 6.8 18.41
    endloop
  endfacet
  facet normal 0 -1 -0
    outer loop
      vertex -6.8 6.8 18.41
      vertex -8.5 6.8 15.01
      vertex -6.8 6.8 15.01
    endloop
  endfacet
  facet normal 0 -1 0
    outer loop
      vertex 6.8 6.8 15.01
      vertex 8.5 6.8 18.41
      vertex 6.8 6.8 18.41
    endloop
  endfacet
  facet normal 0 -1 -0
    outer loop
      vertex 8.5 6.8 18.41
      vertex 6.8 6.8 15.01
      vertex 8.5 6.8 15.01
    endloop
  endfacet
  facet normal 0 0 -1
    outer loop
      vertex -8.5 3.4 23.41
      vertex -6.8 6.8 23.41
      vertex -6.8 3.4 23.41
    endloop
  endfacet
  facet normal -0 0 -1
    outer loop
      vertex -6.8 6.8 23.41
      vertex -8.5 3.4 23.41
      vertex -8.5 6.8 23.41
    endloop
  endfacet
  facet normal 0 0 -1
    outer loop
      vertex -8.5 -1.7 23.41
      vertex -6.8 1.7 23.41
      vertex -6.8 -1.7 23.41
    endloop
  endfacet
  facet normal -0 0 -1
    outer loop
      vertex -6.8 1.7 23.41
      vertex -8.5 -1.7 23.41
      vertex -8.5 1.7 23.41
    endloop
  endfacet
  facet normal 0 0 -1
    outer loop
      vertex -8.5 -6.8 23.41
      vertex -6.8 -3.4 23.41
      vertex -6.8 -6.8 23.41
    endloop
  endfacet
  facet normal -0 0 -1
    outer loop
      vertex -6.8 -3.4 23.41
      vertex -8.5 -6.8 23.41
      vertex -8.5 -3.4 23.41
    endloop
  endfacet
  facet normal 0 0 -1
    outer loop
      vertex -6.8 -6.8 23.41
      vertex 6.8 -6.8 23.41
      vertex 6.8 -8.5 23.41
    endloop
  endfacet
  facet normal 0 0 -1
    outer loop
      vertex 6.8 -6.8 23.41
      vertex -6.8 -6.8 23.41
      vertex 6.8 -3.4 23.41
    endloop
  endfacet
  facet normal 0 0 -1
    outer loop
      vertex 6.8 -3.4 23.41
      vertex -6.8 -3.4 23.41
      vertex 6.8 -1.7 23.41
    endloop
  endfacet
  facet normal 0 0 -1
    outer loop
      vertex -6.8 -1.7 23.41
      vertex 6.8 -1.7 23.41
      vertex -6.8 -3.4 23.41
    endloop
  endfacet
  facet normal 0 0 -1
    outer loop
      vertex -6.8 1.7 23.41
      vertex 6.8 1.7 23.41
      vertex -6.8 -1.7 23.41
    endloop
  endfacet
  facet normal 0 0 -1
    outer loop
      vertex 6.8 1.7 23.41
      vertex -6.8 1.7 23.41
      vertex 6.8 3.4 23.41
    endloop
  endfacet
  facet normal 0 0 -1
    outer loop
      vertex -6.8 -6.8 23.41
      vertex 6.8 -8.5 23.41
      vertex -6.8 -8.5 23.41
    endloop
  endfacet
  facet normal -0 0 -1
    outer loop
      vertex 6.8 -3.4 23.41
      vertex -6.8 -6.8 23.41
      vertex -6.8 -3.4 23.41
    endloop
  endfacet
  facet normal 0 0 -1
    outer loop
      vertex 6.8 -1.7 23.41
      vertex -6.8 -1.7 23.41
      vertex 6.8 1.7 23.41
    endloop
  endfacet
  facet normal 0 0 -1
    outer loop
      vertex -6.8 3.4 23.41
      vertex 6.8 3.4 23.41
      vertex -6.8 1.7 23.41
    endloop
  endfacet
  facet normal 0 0 -1
    outer loop
      vertex 6.8 3.4 23.41
      vertex -6.8 3.4 23.41
      vertex 6.8 6.8 23.41
    endloop
  endfacet
  facet normal 0 0 -1
    outer loop
      vertex -6.8 6.8 23.41
      vertex 6.8 6.8 23.41
      vertex -6.8 3.4 23.41
    endloop
  endfacet
  facet normal 0 0 -1
    outer loop
      vertex 6.8 6.8 23.41
      vertex -6.8 6.8 23.41
      vertex 6.8 8.5 23.41
    endloop
  endfacet
  facet normal -0 0 -1
    outer loop
      vertex 6.8 8.5 23.41
      vertex -6.8 6.8 23.41
      vertex -6.8 8.5 23.41
    endloop
  endfacet
  facet normal 0 0 -1
    outer loop
      vertex 6.8 -6.8 23.41
      vertex 8.5 -3.4 23.41
      vertex 8.5 -6.8 23.41
    endloop
  endfacet
  facet normal -0 0 -1
    outer loop
      vertex 8.5 -3.4 23.41
      vertex 6.8 -6.8 23.41
      vertex 6.8 -3.4 23.41
    endloop
  endfacet
  facet normal 0 0 -1
    outer loop
      vertex 6.8 -1.7 23.41
      vertex 8.5 1.7 23.41
      vertex 8.5 -1.7 23.41
    endloop
  endfacet
  facet normal -0 0 -1
    outer loop
      vertex 8.5 1.7 23.41
      vertex 6.8 -1.7 23.41
      vertex 6.8 1.7 23.41
    endloop
  endfacet
  facet normal 0 0 -1
    outer loop
      vertex 6.8 3.4 23.41
      vertex 8.5 6.8 23.41
      vertex 8.5 3.4 23.41
    endloop
  endfacet
  facet normal -0 0 -1
    outer loop
      vertex 8.5 6.8 23.41
      vertex 6.8 3.4 23.41
      vertex 6.8 6.8 23.41
    endloop
  endfacet
  facet normal -0 0 1
    outer loop
      vertex -8.5 -3.4 20.01
      vertex -6.8 -6.8 20.01
      vertex -6.8 -3.4 20.01
    endloop
  endfacet
  facet normal 0 0 1
    outer loop
      vertex -6.8 -6.8 20.01
      vertex -8.5 -3.4 20.01
      vertex -8.5 -6.8 20.01
    endloop
  endfacet
  facet normal -0 0 1
    outer loop
      vertex -8.5 1.7 20.01
      vertex -6.8 -1.7 20.01
      vertex -6.8 1.7 20.01
    endloop
  endfacet
  facet normal 0 0 1
    outer loop
      vertex -6.8 -1.7 20.01
      vertex -8.5 1.7 20.01
      vertex -8.5 -1.7 20.01
    endloop
  endfacet
  facet normal -0 0 1
    outer loop
      vertex -8.5 6.8 20.01
      vertex -6.8 3.4 20.01
      vertex -6.8 6.8 20.01
    endloop
  endfacet
  facet normal 0 0 1
    outer loop
      vertex -6.8 3.4 20.01
      vertex -8.5 6.8 20.01
      vertex -8.5 3.4 20.01
    endloop
  endfacet
  facet normal 0 0 1
    outer loop
      vertex -6.8 6.8 20.01
      vertex 6.8 6.8 20.01
      vertex 6.8 8.5 20.01
    endloop
  endfacet
  facet normal 0 0 1
    outer loop
      vertex 6.8 6.8 20.01
      vertex -6.8 6.8 20.01
      vertex 6.8 3.4 20.01
    endloop
  endfacet
  facet normal 0 0 1
    outer loop
      vertex 6.8 3.4 20.01
      vertex -6.8 3.4 20.01
      vertex 6.8 1.7 20.01
    endloop
  endfacet
  facet normal 0 0 1
    outer loop
      vertex -6.8 1.7 20.01
      vertex 6.8 1.7 20.01
      vertex -6.8 3.4 20.01
    endloop
  endfacet
  facet normal 0 0 1
    outer loop
      vertex -6.8 -1.7 20.01
      vertex 6.8 -1.7 20.01
      vertex -6.8 1.7 20.01
    endloop
  endfacet
  facet normal 0 0 1
    outer loop
      vertex 6.8 -1.7 20.01
      vertex -6.8 -1.7 20.01
      vertex 6.8 -3.4 20.01
    endloop
  endfacet
  facet normal 0 0 1
    outer loop
      vertex -6.8 6.8 20.01
      vertex 6.8 8.5 20.01
      vertex -6.8 8.5 20.01
    endloop
  endfacet
  facet normal 0 0 1
    outer loop
      vertex 6.8 3.4 20.01
      vertex -6.8 6.8 20.01
      vertex -6.8 3.4 20.01
    endloop
  endfacet
  facet normal 0 0 1
    outer loop
      vertex 6.8 1.7 20.01
      vertex -6.8 1.7 20.01
      vertex 6.8 -1.7 20.01
    endloop
  endfacet
  facet normal 0 0 1
    outer loop
      vertex -6.8 -3.4 20.01
      vertex 6.8 -3.4 20.01
      vertex -6.8 -1.7 20.01
    endloop
  endfacet
  facet normal 0 0 1
    outer loop
      vertex 6.8 -3.4 20.01
      vertex -6.8 -3.4 20.01
      vertex 6.8 -6.8 20.01
    endloop
  endfacet
  facet normal 0 0 1
    outer loop
      vertex -6.8 -6.8 20.01
      vertex 6.8 -6.8 20.01
      vertex -6.8 -3.4 20.01
    endloop
  endfacet
  facet normal 0 0 1
    outer loop
      vertex 6.8 -6.8 20.01
      vertex -6.8 -6.8 20.01
      vertex 6.8 -8.5 20.01
    endloop
  endfacet
  facet normal 0 0 1
    outer loop
      vertex 6.8 -8.5 20.01
      vertex -6.8 -6.8 20.01
      vertex -6.8 -8.5 20.01
    endloop
  endfacet
  facet normal -0 0 1
    outer loop
      vertex 6.8 6.8 20.01
      vertex 8.5 3.4 20.01
      vertex 8.5 6.8 20.01
    endloop
  endfacet
  facet normal 0 0 1
    outer loop
      vertex 8.5 3.4 20.01
      vertex 6.8 6.8 20.01
      vertex 6.8 3.4 20.01
    endloop
  endfacet
  facet normal -0 0 1
    outer loop
      vertex 6.8 1.7 20.01
      vertex 8.5 -1.7 20.01
      vertex 8.5 1.7 20.01
    endloop
  endfacet
  facet normal 0 0 1
    outer loop
      vertex 8.5 -1.7 20.01
      vertex 6.8 1.7 20.01
      vertex 6.8 -1.7 20.01
    endloop
  endfacet
  facet normal -0 0 1
    outer loop
      vertex 6.8 -3.4 20.01
      vertex 8.5 -6.8 20.01
      vertex 8.5 -3.4 20.01
    endloop
  endfacet
  facet normal 0 0 1
    outer loop
      vertex 8.5 -6.8 20.01
      vertex 6.8 -3.4 20.01
      vertex 6.8 -6.8 20.01
    endloop
  endfacet
  facet normal 0 1 -0
    outer loop
      vertex -6.8 -6.8 20.01
      vertex -8.5 -6.8 23.41
      vertex -6.8 -6.8 23.41
    endloop
  endfacet
  facet normal 0 1 0
    outer loop
      vertex -8.5 -6.8 23.41
      vertex -6.8 -6.8 20.01
      vertex -8.5 -6.8 20.01
    endloop
  endfacet
  facet normal 0 1 -0
    outer loop
      vertex 8.5 -6.8 20.01
      vertex 6.8 -6.8 23.41
      vertex 8.5 -6.8 23.41
    endloop
  endfacet
  facet normal 0 1 0
    outer loop
      vertex 6.8 -6.8 23.41
      vertex 8.5 -6.8 20.01
      vertex 6.8 -6.8 20.01
    endloop
  endfacet
  facet normal 0 -1 0
    outer loop
      vertex -8.5 -3.4 20.01
      vertex -6.8 -3.4 23.41
      vertex -8.5 -3.4 23.41
    endloop
  endfacet
  facet normal 0 -1 -0
    outer loop
      vertex -6.8 -3.4 23.41
      vertex -8.5 -3.4 20.01
      vertex -6.8 -3.4 20.01
    endloop
  endfacet
  facet normal 0 -1 0
    outer loop
      vertex 6.8 -3.4 20.01
      vertex 8.5 -3.4 23.41
      vertex 6.8 -3.4 23.41
    endloop
  endfacet
  facet normal 0 -1 -0
    outer loop
      vertex 8.5 -3.4 23.41
      vertex 6.8 -3.4 20.01
      vertex 8.5 -3.4 20.01
    endloop
  endfacet
  facet normal 0 -1 0
    outer loop
      vertex -8.5 1.7 20.01
      vertex -6.8 1.7 23.41
      vertex -8.5 1.7 23.41
    endloop
  endfacet
  facet normal 0 -1 -0
    outer loop
      vertex -6.8 1.7 23.41
      vertex -8.5 1.7 20.01
      vertex -6.8 1.7 20.01
    endloop
  endfacet
  facet normal 0 -1 0
    outer loop
      vertex 6.8 1.7 20.01
      vertex 8.5 1.7 23.41
      vertex 6.8 1.7 23.41
    endloop
  endfacet
  facet normal 0 -1 -0
    outer loop
      vertex 8.5 1.7 23.41
      vertex 6.8 1.7 20.01
      vertex 8.5 1.7 20.01
    endloop
  endfacet
  facet normal 0 1 -0
    outer loop
      vertex -6.8 -1.7 20.01
      vertex -8.5 -1.7 23.41
      vertex -6.8 -1.7 23.41
    endloop
  endfacet
  facet normal 0 1 0
    outer loop
      vertex -8.5 -1.7 23.41
      vertex -6.8 -1.7 20.01
      vertex -8.5 -1.7 20.01
    endloop
  endfacet
  facet normal 0 1 -0
    outer loop
      vertex 8.5 -1.7 20.01
      vertex 6.8 -1.7 23.41
      vertex 8.5 -1.7 23.41
    endloop
  endfacet
  facet normal 0 1 0
    outer loop
      vertex 6.8 -1.7 23.41
      vertex 8.5 -1.7 20.01
      vertex 6.8 -1.7 20.01
    endloop
  endfacet
  facet normal 0 -1 0
    outer loop
      vertex -8.5 6.8 20.01
      vertex -6.8 6.8 23.41
      vertex -8.5 6.8 23.41
    endloop
  endfacet
  facet normal 0 -1 -0
    outer loop
      vertex -6.8 6.8 23.41
      vertex -8.5 6.8 20.01
      vertex -6.8 6.8 20.01
    endloop
  endfacet
  facet normal 0 -1 0
    outer loop
      vertex 6.8 6.8 20.01
      vertex 8.5 6.8 23.41
      vertex 6.8 6.8 23.41
    endloop
  endfacet
  facet normal 0 -1 -0
    outer loop
      vertex 8.5 6.8 23.41
      vertex 6.8 6.8 20.01
      vertex 8.5 6.8 20.01
    endloop
  endfacet
  facet normal 0 1 -0
    outer loop
      vertex -6.8 3.4 20.01
      vertex -8.5 3.4 23.41
      vertex -6.8 3.4 23.41
    endloop
  endfacet
  facet normal 0 1 0
    outer loop
      vertex -8.5 3.4 23.41
      vertex -6.8 3.4 20.01
      vertex -8.5 3.4 20.01
    endloop
  endfacet
  facet normal 0 1 -0
    outer loop
      vertex 8.5 3.4 20.01
      vertex 6.8 3.4 23.41
      vertex 8.5 3.4 23.41
    endloop
  endfacet
  facet normal 0 1 0
    outer loop
      vertex 6.8 3.4 23.41
      vertex 8.5 3.4 20.01
      vertex 6.8 3.4 20.01
    endloop
  endfacet
  facet normal 1 -0 0
    outer loop
      vertex -6.8 1.7 8.41
      vertex -6.8 3.4 5.01
      vertex -6.8 3.4 8.41
    endloop
  endfacet
  facet normal 1 0 0
    outer loop
      vertex -6.8 3.4 5.01
      vertex -6.8 1.7 8.41
      vertex -6.8 1.7 5.01
    endloop
  endfacet
  facet normal 1 -0 0
    outer loop
      vertex -6.8 6.8 8.41
      vertex -6.8 8.5 5.01
      vertex -6.8 8.5 8.41
    endloop
  endfacet
  facet normal 1 0 0
    outer loop
      vertex -6.8 8.5 5.01
      vertex -6.8 6.8 8.41
      vertex -6.8 6.8 5.01
    endloop
  endfacet
  facet normal 1 -0 0
    outer loop
      vertex -6.8 -3.4 8.41
      vertex -6.8 -1.7 5.01
      vertex -6.8 -1.7 8.41
    endloop
  endfacet
  facet normal 1 0 0
    outer loop
      vertex -6.8 -1.7 5.01
      vertex -6.8 -3.4 8.41
      vertex -6.8 -3.4 5.01
    endloop
  endfacet
  facet normal 1 -0 0
    outer loop
      vertex -6.8 -8.5 8.41
      vertex -6.8 -6.8 5.01
      vertex -6.8 -6.8 8.41
    endloop
  endfacet
  facet normal 1 0 0
    outer loop
      vertex -6.8 -6.8 5.01
      vertex -6.8 -8.5 8.41
      vertex -6.8 -8.5 5.01
    endloop
  endfacet
  facet normal -1 0 0
    outer loop
      vertex 6.8 1.7 5.01
      vertex 6.8 3.4 8.41
      vertex 6.8 3.4 5.01
    endloop
  endfacet
  facet normal -1 -0 0
    outer loop
      vertex 6.8 3.4 8.41
      vertex 6.8 1.7 5.01
      vertex 6.8 1.7 8.41
    endloop
  endfacet
  facet normal -1 0 0
    outer loop
      vertex 6.8 6.8 5.01
      vertex 6.8 8.5 8.41
      vertex 6.8 8.5 5.01
    endloop
  endfacet
  facet normal -1 -0 0
    outer loop
      vertex 6.8 8.5 8.41
      vertex 6.8 6.8 5.01
      vertex 6.8 6.8 8.41
    endloop
  endfacet
  facet normal -1 0 0
    outer loop
      vertex 6.8 -3.4 5.01
      vertex 6.8 -1.7 8.41
      vertex 6.8 -1.7 5.01
    endloop
  endfacet
  facet normal -1 -0 0
    outer loop
      vertex 6.8 -1.7 8.41
      vertex 6.8 -3.4 5.01
      vertex 6.8 -3.4 8.41
    endloop
  endfacet
  facet normal -1 0 0
    outer loop
      vertex 6.8 -8.5 5.01
      vertex 6.8 -6.8 8.41
      vertex 6.8 -6.8 5.01
    endloop
  endfacet
  facet normal -1 -0 0
    outer loop
      vertex 6.8 -6.8 8.41
      vertex 6.8 -8.5 5.01
      vertex 6.8 -8.5 8.41
    endloop
  endfacet
  facet normal 1 -0 0
    outer loop
      vertex -6.8 1.7 13.41
      vertex -6.8 3.4 10.01
      vertex -6.8 3.4 13.41
    endloop
  endfacet
  facet normal 1 0 0
    outer loop
      vertex -6.8 3.4 10.01
      vertex -6.8 1.7 13.41
      vertex -6.8 1.7 10.01
    endloop
  endfacet
  facet normal 1 -0 0
    outer loop
      vertex -6.8 6.8 13.41
      vertex -6.8 8.5 10.01
      vertex -6.8 8.5 13.41
    endloop
  endfacet
  facet normal 1 0 0
    outer loop
      vertex -6.8 8.5 10.01
      vertex -6.8 6.8 13.41
      vertex -6.8 6.8 10.01
    endloop
  endfacet
  facet normal 1 -0 0
    outer loop
      vertex -6.8 -3.4 13.41
      vertex -6.8 -1.7 10.01
      vertex -6.8 -1.7 13.41
    endloop
  endfacet
  facet normal 1 0 0
    outer loop
      vertex -6.8 -1.7 10.01
      vertex -6.8 -3.4 13.41
      vertex -6.8 -3.4 10.01
    endloop
  endfacet
  facet normal 1 -0 0
    outer loop
      vertex -6.8 -8.5 13.41
      vertex -6.8 -6.8 10.01
      vertex -6.8 -6.8 13.41
    endloop
  endfacet
  facet normal 1 0 0
    outer loop
      vertex -6.8 -6.8 10.01
      vertex -6.8 -8.5 13.41
      vertex -6.8 -8.5 10.01
    endloop
  endfacet
  facet normal -1 0 0
    outer loop
      vertex 6.8 1.7 10.01
      vertex 6.8 3.4 13.41
      vertex 6.8 3.4 10.01
    endloop
  endfacet
  facet normal -1 -0 0
    outer loop
      vertex 6.8 3.4 13.41
      vertex 6.8 1.7 10.01
      vertex 6.8 1.7 13.41
    endloop
  endfacet
  facet normal -1 0 0
    outer loop
      vertex 6.8 6.8 10.01
      vertex 6.8 8.5 13.41
      vertex 6.8 8.5 10.01
    endloop
  endfacet
  facet normal -1 -0 0
    outer loop
      vertex 6.8 8.5 13.41
      vertex 6.8 6.8 10.01
      vertex 6.8 6.8 13.41
    endloop
  endfacet
  facet normal -1 0 0
    outer loop
      vertex 6.8 -3.4 10.01
      vertex 6.8 -1.7 13.41
      vertex 6.8 -1.7 10.01
    endloop
  endfacet
  facet normal -1 -0 0
    outer loop
      vertex 6.8 -1.7 13.41
      vertex 6.8 -3.4 10.01
      vertex 6.8 -3.4 13.41
    endloop
  endfacet
  facet normal -1 0 0
    outer loop
      vertex 6.8 -8.5 10.01
      vertex 6.8 -6.8 13.41
      vertex 6.8 -6.8 10.01
    endloop
  endfacet
  facet normal -1 -0 0
    outer loop
      vertex 6.8 -6.8 13.41
      vertex 6.8 -8.5 10.01
      vertex 6.8 -8.5 13.41
    endloop
  endfacet
  facet normal 1 -0 0
    outer loop
      vertex -6.8 1.7 18.41
      vertex -6.8 3.4 15.01
      vertex -6.8 3.4 18.41
    endloop
  endfacet
  facet normal 1 0 0
    outer loop
      vertex -6.8 3.4 15.01
      vertex -6.8 1.7 18.41
      vertex -6.8 1.7 15.01
    endloop
  endfacet
  facet normal 1 -0 0
    outer loop
      vertex -6.8 6.8 18.41
      vertex -6.8 8.5 15.01
      vertex -6.8 8.5 18.41
    endloop
  endfacet
  facet normal 1 0 0
    outer loop
      vertex -6.8 8.5 15.01
      vertex -6.8 6.8 18.41
      vertex -6.8 6.8 15.01
    endloop
  endfacet
  facet normal 1 -0 0
    outer loop
      vertex -6.8 -3.4 18.41
      vertex -6.8 -1.7 15.01
      vertex -6.8 -1.7 18.41
    endloop
  endfacet
  facet normal 1 0 0
    outer loop
      vertex -6.8 -1.7 15.01
      vertex -6.8 -3.4 18.41
      vertex -6.8 -3.4 15.01
    endloop
  endfacet
  facet normal 1 -0 0
    outer loop
      vertex -6.8 -8.5 18.41
      vertex -6.8 -6.8 15.01
      vertex -6.8 -6.8 18.41
    endloop
  endfacet
  facet normal 1 0 0
    outer loop
      vertex -6.8 -6.8 15.01
      vertex -6.8 -8.5 18.41
      vertex -6.8 -8.5 15.01
    endloop
  endfacet
  facet normal -1 0 0
    outer loop
      vertex 6.8 1.7 15.01
      vertex 6.8 3.4 18.41
      vertex 6.8 3.4 15.01
    endloop
  endfacet
  facet normal -1 -0 0
    outer loop
      vertex 6.8 3.4 18.41
      vertex 6.8 1.7 15.01
      vertex 6.8 1.7 18.41
    endloop
  endfacet
  facet normal -1 0 0
    outer loop
      vertex 6.8 6.8 15.01
      vertex 6.8 8.5 18.41
      vertex 6.8 8.5 15.01
    endloop
  endfacet
  facet normal -1 -0 0
    outer loop
      vertex 6.8 8.5 18.41
      vertex 6.8 6.8 15.01
      vertex 6.8 6.8 18.41
    endloop
  endfacet
  facet normal -1 0 0
    outer loop
      vertex 6.8 -3.4 15.01
      vertex 6.8 -1.7 18.41
      vertex 6.8 -1.7 15.01
    endloop
  endfacet
  facet normal -1 -0 0
    outer loop
      vertex 6.8 -1.7 18.41
      vertex 6.8 -3.4 15.01
      vertex 6.8 -3.4 18.41
    endloop
  endfacet
  facet normal -1 0 0
    outer loop
      vertex 6.8 -8.5 15.01
      vertex 6.8 -6.8 18.41
      vertex 6.8 -6.8 15.01
    endloop
  endfacet
  facet normal -1 -0 0
    outer loop
      vertex 6.8 -6.8 18.41
      vertex 6.8 -8.5 15.01
      vertex 6.8 -8.5 18.41
    endloop
  endfacet
  facet normal 1 -0 0
    outer loop
      vertex -6.8 1.7 23.41
      vertex -6.8 3.4 20.01
      vertex -6.8 3.4 23.41
    endloop
  endfacet
  facet normal 1 0 0
    outer loop
      vertex -6.8 3.4 20.01
      vertex -6.8 1.7 23.41
      vertex -6.8 1.7 20.01
    endloop
  endfacet
  facet normal 1 -0 0
    outer loop
      vertex -6.8 6.8 23.41
      vertex -6.8 8.5 20.01
      vertex -6.8 8.5 23.41
    endloop
  endfacet
  facet normal 1 0 0
    outer loop
      vertex -6.8 8.5 20.01
      vertex -6.8 6.8 23.41
      vertex -6.8 6.8 20.01
    endloop
  endfacet
  facet normal 1 -0 0
    outer loop
      vertex -6.8 -3.4 23.41
      vertex -6.8 -1.7 20.01
      vertex -6.8 -1.7 23.41
    endloop
  endfacet
  facet normal 1 0 0
    outer loop
      vertex -6.8 -1.7 20.01
      vertex -6.8 -3.4 23.41
      vertex -6.8 -3.4 20.01
    endloop
  endfacet
  facet normal 1 -0 0
    outer loop
      vertex -6.8 -8.5 23.41
      vertex -6.8 -6.8 20.01
      vertex -6.8 -6.8 23.41
    endloop
  endfacet
  facet normal 1 0 0
    outer loop
      vertex -6.8 -6.8 20.01
      vertex -6.8 -8.5 23.41
      vertex -6.8 -8.5 20.01
    endloop
  endfacet
  facet normal -1 0 0
    outer loop
      vertex 6.8 1.7 20.01
      vertex 6.8 3.4 23.41
      vertex 6.8 3.4 20.01
    endloop
  endfacet
  facet normal -1 -0 0
    outer loop
      vertex 6.8 3.4 23.41
      vertex 6.8 1.7 20.01
      vertex 6.8 1.7 23.41
    endloop
  endfacet
  facet normal -1 0 0
    outer loop
      vertex 6.8 6.8 20.01
      vertex 6.8 8.5 23.41
      vertex 6.8 8.5 20.01
    endloop
  endfacet
  facet normal -1 -0 0
    outer loop
      vertex 6.8 8.5 23.41
      vertex 6.8 6.8 20.01
      vertex 6.8 6.8 23.41
    endloop
  endfacet
  facet normal -1 0 0
    outer loop
      vertex 6.8 -3.4 20.01
      vertex 6.8 -1.7 23.41
      vertex 6.8 -1.7 20.01
    endloop
  endfacet
  facet normal -1 -0 0
    outer loop
      vertex 6.8 -1.7 23.41
      vertex 6.8 -3.4 20.01
      vertex 6.8 -3.4 23.41
    endloop
  endfacet
  facet normal -1 0 0
    outer loop
      vertex 6.8 -8.5 20.01
      vertex 6.8 -6.8 23.41
      vertex 6.8 -6.8 20.01
    endloop
  endfacet
  facet normal -1 -0 0
    outer loop
      vertex 6.8 -6.8 23.41
      vertex 6.8 -8.5 20.01
      vertex 6.8 -8.5 23.41
    endloop
  endfacet
  facet normal -1 0 0
    outer loop
      vertex -8.5 -6.8 18.41
      vertex -8.5 -3.4 20.01
      vertex -8.5 -3.4 18.41
    endloop
  endfacet
  facet normal -1 -0 0
    outer loop
      vertex -8.5 -3.4 20.01
      vertex -8.5 -6.8 18.41
      vertex -8.5 -6.8 20.01
    endloop
  endfacet
  facet normal -1 0 0
    outer loop
      vertex -8.5 -6.8 13.41
      vertex -8.5 -3.4 15.01
      vertex -8.5 -3.4 13.41
    endloop
  endfacet
  facet normal -1 -0 0
    outer loop
      vertex -8.5 -3.4 15.01
      vertex -8.5 -6.8 13.41
      vertex -8.5 -6.8 15.01
    endloop
  endfacet
  facet normal -1 0 0
    outer loop
      vertex -8.5 -6.8 8.41
      vertex -8.5 -3.4 10.01
      vertex -8.5 -3.4 8.41
    endloop
  endfacet
  facet normal -1 -0 0
    outer loop
      vertex -8.5 -3.4 10.01
      vertex -8.5 -6.8 8.41
      vertex -8.5 -6.8 10.01
    endloop
  endfacet
  facet normal -1 0 0
    outer loop
      vertex -8.5 -1.7 18.41
      vertex -8.5 1.7 20.01
      vertex -8.5 1.7 18.41
    endloop
  endfacet
  facet normal -1 -0 0
    outer loop
      vertex -8.5 1.7 20.01
      vertex -8.5 -1.7 18.41
      vertex -8.5 -1.7 20.01
    endloop
  endfacet
  facet normal -1 0 0
    outer loop
      vertex -8.5 -1.7 13.41
      vertex -8.5 1.7 15.01
      vertex -8.5 1.7 13.41
    endloop
  endfacet
  facet normal -1 -0 0
    outer loop
      vertex -8.5 1.7 15.01
      vertex -8.5 -1.7 13.41
      vertex -8.5 -1.7 15.01
    endloop
  endfacet
  facet normal -1 0 0
    outer loop
      vertex -8.5 -1.7 8.41
      vertex -8.5 1.7 10.01
      vertex -8.5 1.7 8.41
    endloop
  endfacet
  facet normal -1 -0 0
    outer loop
      vertex -8.5 1.7 10.01
      vertex -8.5 -1.7 8.41
      vertex -8.5 -1.7 10.01
    endloop
  endfacet
  facet normal -1 0 0
    outer loop
      vertex -8.5 3.4 18.41
      vertex -8.5 6.8 20.01
      vertex -8.5 6.8 18.41
    endloop
  endfacet
  facet normal -1 -0 0
    outer loop
      vertex -8.5 6.8 20.01
      vertex -8.5 3.4 18.41
      vertex -8.5 3.4 20.01
    endloop
  endfacet
  facet normal -1 0 0
    outer loop
      vertex -8.5 3.4 13.41
      vertex -8.5 6.8 15.01
      vertex -8.5 6.8 13.41
    endloop
  endfacet
  facet normal -1 -0 0
    outer loop
      vertex -8.5 6.8 15.01
      vertex -8.5 3.4 13.41
      vertex -8.5 3.4 15.01
    endloop
  endfacet
  facet normal -1 0 0
    outer loop
      vertex -8.5 3.4 8.41
      vertex -8.5 6.8 10.01
      vertex -8.5 6.8 8.41
    endloop
  endfacet
  facet normal -1 -0 0
    outer loop
      vertex -8.5 6.8 10.01
      vertex -8.5 3.4 8.41
      vertex -8.5 3.4 10.01
    endloop
  endfacet
  facet normal -1 0 0
    outer loop
      vertex -8.5 6.8 8.41
      vertex -8.5 8.5 0
      vertex -8.5 6.8 5.01
    endloop
  endfacet
  facet normal -1 0 0
    outer loop
      vertex -8.5 8.5 0
      vertex -8.5 3.4 5.01
      vertex -8.5 6.8 5.01
    endloop
  endfacet
  facet normal -1 0 0
    outer loop
      vertex -8.5 1.7 8.41
      vertex -8.5 3.4 8.41
      vertex -8.5 3.4 5.01
    endloop
  endfacet
  facet normal -1 0 0
    outer loop
      vertex -8.5 3.4 8.41
      vertex -8.5 1.7 8.41
      vertex -8.5 3.4 10.01
    endloop
  endfacet
  facet normal -1 0 0
    outer loop
      vertex -8.5 3.4 10.01
      vertex -8.5 1.7 10.01
      vertex -8.5 3.4 13.41
    endloop
  endfacet
  facet normal -1 0 0
    outer loop
      vertex -8.5 1.7 13.41
      vertex -8.5 3.4 13.41
      vertex -8.5 1.7 10.01
    endloop
  endfacet
  facet normal -1 0 0
    outer loop
      vertex -8.5 1.7 15.01
      vertex -8.5 3.4 15.01
      vertex -8.5 1.7 13.41
    endloop
  endfacet
  facet normal -1 0 0
    outer loop
      vertex -8.5 3.4 15.01
      vertex -8.5 1.7 15.01
      vertex -8.5 3.4 18.41
    endloop
  endfacet
  facet normal -1 0 0
    outer loop
      vertex -8.5 1.7 8.41
      vertex -8.5 3.4 5.01
      vertex -8.5 1.7 5.01
    endloop
  endfacet
  facet normal -1 0 0
    outer loop
      vertex -8.5 8.5 0
      vertex -8.5 1.7 5.01
      vertex -8.5 3.4 5.01
    endloop
  endfacet
  facet normal -1 0 0
    outer loop
      vertex -8.5 8.5 0
      vertex -8.5 -1.7 5.01
      vertex -8.5 1.7 5.01
    endloop
  endfacet
  facet normal -1 0 0
    outer loop
      vertex -8.5 -3.4 8.41
      vertex -8.5 -1.7 8.41
      vertex -8.5 -1.7 5.01
    endloop
  endfacet
  facet normal -1 0 0
    outer loop
      vertex -8.5 -1.7 8.41
      vertex -8.5 -3.4 8.41
      vertex -8.5 -1.7 10.01
    endloop
  endfacet
  facet normal -1 0 0
    outer loop
      vertex -8.5 -1.7 10.01
      vertex -8.5 -3.4 10.01
      vertex -8.5 -1.7 13.41
    endloop
  endfacet
  facet normal -1 0 0
    outer loop
      vertex -8.5 -3.4 13.41
      vertex -8.5 -1.7 13.41
      vertex -8.5 -3.4 10.01
    endloop
  endfacet
  facet normal -1 0 0
    outer loop
      vertex -8.5 -3.4 15.01
      vertex -8.5 -1.7 15.01
      vertex -8.5 -3.4 13.41
    endloop
  endfacet
  facet normal -1 0 0
    outer loop
      vertex -8.5 -1.7 15.01
      vertex -8.5 -3.4 15.01
      vertex -8.5 -1.7 18.41
    endloop
  endfacet
  facet normal -1 0 0
    outer loop
      vertex -8.5 -3.4 8.41
      vertex -8.5 -1.7 5.01
      vertex -8.5 -3.4 5.01
    endloop
  endfacet
  facet normal -1 0 0
    outer loop
      vertex -8.5 -8.5 0
      vertex -8.5 -1.7 5.01
      vertex -8.5 8.5 0
    endloop
  endfacet
  facet normal -1 -0 0
    outer loop
      vertex -8.5 -1.7 5.01
      vertex -8.5 -8.5 0
      vertex -8.5 -3.4 5.01
    endloop
  endfacet
  facet normal -1 0 0
    outer loop
      vertex -8.5 -8.5 0
      vertex -8.5 -6.8 8.41
      vertex -8.5 -6.8 5.01
    endloop
  endfacet
  facet normal -1 -0 0
    outer loop
      vertex -8.5 -6.8 8.41
      vertex -8.5 -8.5 0
      vertex -8.5 -6.8 10.01
    endloop
  endfacet
  facet normal -1 -0 0
    outer loop
      vertex -8.5 -6.8 10.01
      vertex -8.5 -8.5 0
      vertex -8.5 -6.8 13.41
    endloop
  endfacet
  facet normal -1 0 0
    outer loop
      vertex -8.5 -8.5 25
      vertex -8.5 -6.8 13.41
      vertex -8.5 -8.5 0
    endloop
  endfacet
  facet normal -1 0 0
    outer loop
      vertex -8.5 -6.8 13.41
      vertex -8.5 -8.5 25
      vertex -8.5 -6.8 15.01
    endloop
  endfacet
  facet normal -1 0 0
    outer loop
      vertex -8.5 -6.8 18.41
      vertex -8.5 -8.5 25
      vertex -8.5 -6.8 20.01
    endloop
  endfacet
  facet normal -1 0 0
    outer loop
      vertex -8.5 -6.8 15.01
      vertex -8.5 -8.5 25
      vertex -8.5 -6.8 18.41
    endloop
  endfacet
  facet normal -1 -0 0
    outer loop
      vertex -8.5 -3.4 5.01
      vertex -8.5 -8.5 0
      vertex -8.5 -6.8 5.01
    endloop
  endfacet
  facet normal -1 0 0
    outer loop
      vertex -8.5 6.8 10.01
      vertex -8.5 8.5 0
      vertex -8.5 6.8 8.41
    endloop
  endfacet
  facet normal -1 0 0
    outer loop
      vertex -8.5 6.8 13.41
      vertex -8.5 8.5 0
      vertex -8.5 6.8 10.01
    endloop
  endfacet
  facet normal -1 0 0
    outer loop
      vertex -8.5 8.5 0
      vertex -8.5 6.8 13.41
      vertex -8.5 8.5 25
    endloop
  endfacet
  facet normal -1 0 0
    outer loop
      vertex -8.5 6.8 15.01
      vertex -8.5 8.5 25
      vertex -8.5 6.8 13.41
    endloop
  endfacet
  facet normal -1 0 0
    outer loop
      vertex -8.5 6.8 18.41
      vertex -8.5 8.5 25
      vertex -8.5 6.8 15.01
    endloop
  endfacet
  facet normal -1 0 0
    outer loop
      vertex -8.5 6.8 20.01
      vertex -8.5 8.5 25
      vertex -8.5 6.8 18.41
    endloop
  endfacet
  facet normal -1 0 0
    outer loop
      vertex -8.5 6.8 23.41
      vertex -8.5 8.5 25
      vertex -8.5 6.8 20.01
    endloop
  endfacet
  facet normal -1 0 0
    outer loop
      vertex -8.5 3.4 23.41
      vertex -8.5 8.5 25
      vertex -8.5 6.8 23.41
    endloop
  endfacet
  facet normal -1 -0 0
    outer loop
      vertex -8.5 3.4 10.01
      vertex -8.5 1.7 8.41
      vertex -8.5 1.7 10.01
    endloop
  endfacet
  facet normal -1 0 0
    outer loop
      vertex -8.5 3.4 13.41
      vertex -8.5 1.7 13.41
      vertex -8.5 3.4 15.01
    endloop
  endfacet
  facet normal -1 0 0
    outer loop
      vertex -8.5 1.7 18.41
      vertex -8.5 3.4 18.41
      vertex -8.5 1.7 15.01
    endloop
  endfacet
  facet normal -1 0 0
    outer loop
      vertex -8.5 3.4 18.41
      vertex -8.5 1.7 18.41
      vertex -8.5 3.4 20.01
    endloop
  endfacet
  facet normal -1 0 0
    outer loop
      vertex -8.5 1.7 20.01
      vertex -8.5 3.4 20.01
      vertex -8.5 1.7 18.41
    endloop
  endfacet
  facet normal -1 0 0
    outer loop
      vertex -8.5 3.4 20.01
      vertex -8.5 1.7 20.01
      vertex -8.5 3.4 23.41
    endloop
  endfacet
  facet normal -1 0 0
    outer loop
      vertex -8.5 1.7 23.41
      vertex -8.5 3.4 23.41
      vertex -8.5 1.7 20.01
    endloop
  endfacet
  facet normal -1 0 0
    outer loop
      vertex -8.5 1.7 23.41
      vertex -8.5 8.5 25
      vertex -8.5 3.4 23.41
    endloop
  endfacet
  facet normal -1 0 0
    outer loop
      vertex -8.5 -1.7 23.41
      vertex -8.5 8.5 25
      vertex -8.5 1.7 23.41
    endloop
  endfacet
  facet normal -1 -0 0
    outer loop
      vertex -8.5 -1.7 10.01
      vertex -8.5 -3.4 8.41
      vertex -8.5 -3.4 10.01
    endloop
  endfacet
  facet normal -1 0 0
    outer loop
      vertex -8.5 -1.7 13.41
      vertex -8.5 -3.4 13.41
      vertex -8.5 -1.7 15.01
    endloop
  endfacet
  facet normal -1 0 0
    outer loop
      vertex -8.5 -3.4 18.41
      vertex -8.5 -1.7 18.41
      vertex -8.5 -3.4 15.01
    endloop
  endfacet
  facet normal -1 0 0
    outer loop
      vertex -8.5 -1.7 18.41
      vertex -8.5 -3.4 18.41
      vertex -8.5 -1.7 20.01
    endloop
  endfacet
  facet normal -1 0 0
    outer loop
      vertex -8.5 -3.4 20.01
      vertex -8.5 -1.7 20.01
      vertex -8.5 -3.4 18.41
    endloop
  endfacet
  facet normal -1 0 0
    outer loop
      vertex -8.5 -1.7 20.01
      vertex -8.5 -3.4 20.01
      vertex -8.5 -1.7 23.41
    endloop
  endfacet
  facet normal -1 0 0
    outer loop
      vertex -8.5 -3.4 23.41
      vertex -8.5 -1.7 23.41
      vertex -8.5 -3.4 20.01
    endloop
  endfacet
  facet normal -1 0 0
    outer loop
      vertex -8.5 -8.5 25
      vertex -8.5 -1.7 23.41
      vertex -8.5 -3.4 23.41
    endloop
  endfacet
  facet normal -1 0 0
    outer loop
      vertex -8.5 -8.5 25
      vertex -8.5 -3.4 23.41
      vertex -8.5 -6.8 23.41
    endloop
  endfacet
  facet normal -1 0 0
    outer loop
      vertex -8.5 -1.7 23.41
      vertex -8.5 -8.5 25
      vertex -8.5 8.5 25
    endloop
  endfacet
  facet normal -1 0 0
    outer loop
      vertex -8.5 -6.8 20.01
      vertex -8.5 -8.5 25
      vertex -8.5 -6.8 23.41
    endloop
  endfacet
  facet normal 0 0 1
    outer loop
      vertex 8.5 8.5 25
      vertex 5.66667 5.66667 25
      vertex 8.5 -8.5 25
    endloop
  endfacet
  facet normal 0 0 1
    outer loop
      vertex 8.5 8.5 25
      vertex -5.66667 5.66667 25
      vertex 5.66667 5.66667 25
    endloop
  endfacet
  facet normal 0 0 1
    outer loop
      vertex -5.66667 5.66667 25
      vertex -8.5 8.5 25
      vertex -5.66667 -5.66667 25
    endloop
  endfacet
  facet normal -0 0 1
    outer loop
      vertex -8.5 8.5 25
      vertex -5.66667 5.66667 25
      vertex 8.5 8.5 25
    endloop
  endfacet
  facet normal -0 0 1
    outer loop
      vertex 5.66667 -5.66667 25
      vertex 8.5 -8.5 25
      vertex 5.66667 5.66667 25
    endloop
  endfacet
  facet normal -0 0 1
    outer loop
      vertex -5.66667 -5.66667 25
      vertex 8.5 -8.5 25
      vertex 5.66667 -5.66667 25
    endloop
  endfacet
  facet normal 0 0 1
    outer loop
      vertex -5.66667 -5.66667 25
      vertex -8.5 -8.5 25
      vertex 8.5 -8.5 25
    endloop
  endfacet
  facet normal 0 0 1
    outer loop
      vertex -8.5 -8.5 25
      vertex -5.66667 -5.66667 25
      vertex -8.5 8.5 25
    endloop
  endfacet
  facet normal 1 -0 0
    outer loop
      vertex 8.5 -6.8 10.01
      vertex 8.5 -3.4 8.41
      vertex 8.5 -3.4 10.01
    endloop
  endfacet
  facet normal 1 0 0
    outer loop
      vertex 8.5 -3.4 8.41
      vertex 8.5 -6.8 10.01
      vertex 8.5 -6.8 8.41
    endloop
  endfacet
  facet normal 1 -0 0
    outer loop
      vertex 8.5 -6.8 15.01
      vertex 8.5 -3.4 13.41
      vertex 8.5 -3.4 15.01
    endloop
  endfacet
  facet normal 1 0 0
    outer loop
      vertex 8.5 -3.4 13.41
      vertex 8.5 -6.8 15.01
      vertex 8.5 -6.8 13.41
    endloop
  endfacet
  facet normal 1 -0 0
    outer loop
      vertex 8.5 -6.8 20.01
      vertex 8.5 -3.4 18.41
      vertex 8.5 -3.4 20.01
    endloop
  endfacet
  facet normal 1 0 0
    outer loop
      vertex 8.5 -3.4 18.41
      vertex 8.5 -6.8 20.01
      vertex 8.5 -6.8 18.41
    endloop
  endfacet
  facet normal 1 -0 0
    outer loop
      vertex 8.5 -1.7 10.01
      vertex 8.5 1.7 8.41
      vertex 8.5 1.7 10.01
    endloop
  endfacet
  facet normal 1 0 0
    outer loop
      vertex 8.5 1.7 8.41
      vertex 8.5 -1.7 10.01
      vertex 8.5 -1.7 8.41
    endloop
  endfacet
  facet normal 1 -0 0
    outer loop
      vertex 8.5 -1.7 15.01
      vertex 8.5 1.7 13.41
      vertex 8.5 1.7 15.01
    endloop
  endfacet
  facet normal 1 0 0
    outer loop
      vertex 8.5 1.7 13.41
      vertex 8.5 -1.7 15.01
      vertex 8.5 -1.7 13.41
    endloop
  endfacet
  facet normal 1 -0 0
    outer loop
      vertex 8.5 -1.7 20.01
      vertex 8.5 1.7 18.41
      vertex 8.5 1.7 20.01
    endloop
  endfacet
  facet normal 1 0 0
    outer loop
      vertex 8.5 1.7 18.41
      vertex 8.5 -1.7 20.01
      vertex 8.5 -1.7 18.41
    endloop
  endfacet
  facet normal 1 -0 0
    outer loop
      vertex 8.5 3.4 10.01
      vertex 8.5 6.8 8.41
      vertex 8.5 6.8 10.01
    endloop
  endfacet
  facet normal 1 0 0
    outer loop
      vertex 8.5 6.8 8.41
      vertex 8.5 3.4 10.01
      vertex 8.5 3.4 8.41
    endloop
  endfacet
  facet normal 1 -0 0
    outer loop
      vertex 8.5 3.4 15.01
      vertex 8.5 6.8 13.41
      vertex 8.5 6.8 15.01
    endloop
  endfacet
  facet normal 1 0 0
    outer loop
      vertex 8.5 6.8 13.41
      vertex 8.5 3.4 15.01
      vertex 8.5 3.4 13.41
    endloop
  endfacet
  facet normal 1 -0 0
    outer loop
      vertex 8.5 3.4 20.01
      vertex 8.5 6.8 18.41
      vertex 8.5 6.8 20.01
    endloop
  endfacet
  facet normal 1 0 0
    outer loop
      vertex 8.5 6.8 18.41
      vertex 8.5 3.4 20.01
      vertex 8.5 3.4 18.41
    endloop
  endfacet
  facet normal 1 0 0
    outer loop
      vertex 8.5 6.8 20.01
      vertex 8.5 8.5 25
      vertex 8.5 6.8 23.41
    endloop
  endfacet
  facet normal 1 0 0
    outer loop
      vertex 8.5 8.5 25
      vertex 8.5 3.4 23.41
      vertex 8.5 6.8 23.41
    endloop
  endfacet
  facet normal 1 0 0
    outer loop
      vertex 8.5 1.7 20.01
      vertex 8.5 3.4 20.01
      vertex 8.5 3.4 23.41
    endloop
  endfacet
  facet normal 1 0 0
    outer loop
      vertex 8.5 3.4 20.01
      vertex 8.5 1.7 20.01
      vertex 8.5 3.4 18.41
    endloop
  endfacet
  facet normal 1 0 0
    outer loop
      vertex 8.5 3.4 18.41
      vertex 8.5 1.7 18.41
      vertex 8.5 3.4 15.01
    endloop
  endfacet
  facet normal 1 0 0
    outer loop
      vertex 8.5 1.7 15.01
      vertex 8.5 3.4 15.01
      vertex 8.5 1.7 18.41
    endloop
  endfacet
  facet normal 1 0 0
    outer loop
      vertex 8.5 1.7 13.41
      vertex 8.5 3.4 13.41
      vertex 8.5 1.7 15.01
    endloop
  endfacet
  facet normal 1 0 0
    outer loop
      vertex 8.5 3.4 13.41
      vertex 8.5 1.7 13.41
      vertex 8.5 3.4 10.01
    endloop
  endfacet
  facet normal 1 0 0
    outer loop
      vertex 8.5 1.7 20.01
      vertex 8.5 3.4 23.41
      vertex 8.5 1.7 23.41
    endloop
  endfacet
  facet normal 1 0 0
    outer loop
      vertex 8.5 8.5 25
      vertex 8.5 1.7 23.41
      vertex 8.5 3.4 23.41
    endloop
  endfacet
  facet normal 1 0 0
    outer loop
      vertex 8.5 8.5 25
      vertex 8.5 -1.7 23.41
      vertex 8.5 1.7 23.41
    endloop
  endfacet
  facet normal 1 0 0
    outer loop
      vertex 8.5 -3.4 20.01
      vertex 8.5 -1.7 20.01
      vertex 8.5 -1.7 23.41
    endloop
  endfacet
  facet normal 1 0 0
    outer loop
      vertex 8.5 -1.7 20.01
      vertex 8.5 -3.4 20.01
      vertex 8.5 -1.7 18.41
    endloop
  endfacet
  facet normal 1 0 0
    outer loop
      vertex 8.5 -1.7 18.41
      vertex 8.5 -3.4 18.41
      vertex 8.5 -1.7 15.01
    endloop
  endfacet
  facet normal 1 0 0
    outer loop
      vertex 8.5 -3.4 15.01
      vertex 8.5 -1.7 15.01
      vertex 8.5 -3.4 18.41
    endloop
  endfacet
  facet normal 1 0 0
    outer loop
      vertex 8.5 -3.4 13.41
      vertex 8.5 -1.7 13.41
      vertex 8.5 -3.4 15.01
    endloop
  endfacet
  facet normal 1 0 0
    outer loop
      vertex 8.5 -1.7 13.41
      vertex 8.5 -3.4 13.41
      vertex 8.5 -1.7 10.01
    endloop
  endfacet
  facet normal 1 0 0
    outer loop
      vertex 8.5 -3.4 20.01
      vertex 8.5 -1.7 23.41
      vertex 8.5 -3.4 23.41
    endloop
  endfacet
  facet normal 1 -0 0
    outer loop
      vertex 8.5 -8.5 25
      vertex 8.5 -1.7 23.41
      vertex 8.5 8.5 25
    endloop
  endfacet
  facet normal 1 0 0
    outer loop
      vertex 8.5 -1.7 23.41
      vertex 8.5 -8.5 25
      vertex 8.5 -3.4 23.41
    endloop
  endfacet
  facet normal 1 0 0
    outer loop
      vertex 8.5 -8.5 25
      vertex 8.5 -6.8 20.01
      vertex 8.5 -6.8 23.41
    endloop
  endfacet
  facet normal 1 0 0
    outer loop
      vertex 8.5 -6.8 20.01
      vertex 8.5 -8.5 25
      vertex 8.5 -6.8 18.41
    endloop
  endfacet
  facet normal 1 0 0
    outer loop
      vertex 8.5 -6.8 18.41
      vertex 8.5 -8.5 25
      vertex 8.5 -6.8 15.01
    endloop
  endfacet
  facet normal 1 0 0
    outer loop
      vertex 8.5 -6.8 15.01
      vertex 8.5 -8.5 25
      vertex 8.5 -6.8 13.41
    endloop
  endfacet
  facet normal 1 0 0
    outer loop
      vertex 8.5 -8.5 0
      vertex 8.5 -6.8 13.41
      vertex 8.5 -8.5 25
    endloop
  endfacet
  facet normal 1 0 0
    outer loop
      vertex 8.5 -6.8 13.41
      vertex 8.5 -8.5 0
      vertex 8.5 -6.8 10.01
    endloop
  endfacet
  facet normal 1 0 0
    outer loop
      vertex 8.5 -6.8 10.01
      vertex 8.5 -8.5 0
      vertex 8.5 -6.8 8.41
    endloop
  endfacet
  facet normal 1 0 0
    outer loop
      vertex 8.5 -3.4 23.41
      vertex 8.5 -8.5 25
      vertex 8.5 -6.8 23.41
    endloop
  endfacet
  facet normal 1 0 0
    outer loop
      vertex 8.5 6.8 18.41
      vertex 8.5 8.5 25
      vertex 8.5 6.8 20.01
    endloop
  endfacet
  facet normal 1 0 0
    outer loop
      vertex 8.5 6.8 15.01
      vertex 8.5 8.5 25
      vertex 8.5 6.8 18.41
    endloop
  endfacet
  facet normal 1 0 0
    outer loop
      vertex 8.5 6.8 13.41
      vertex 8.5 8.5 25
      vertex 8.5 6.8 15.01
    endloop
  endfacet
  facet normal 1 0 0
    outer loop
      vertex 8.5 8.5 25
      vertex 8.5 6.8 13.41
      vertex 8.5 8.5 0
    endloop
  endfacet
  facet normal 1 -0 0
    outer loop
      vertex 8.5 6.8 10.01
      vertex 8.5 8.5 0
      vertex 8.5 6.8 13.41
    endloop
  endfacet
  facet normal 1 -0 0
    outer loop
      vertex 8.5 6.8 8.41
      vertex 8.5 8.5 0
      vertex 8.5 6.8 10.01
    endloop
  endfacet
  facet normal 1 -0 0
    outer loop
      vertex 8.5 6.8 5.01
      vertex 8.5 8.5 0
      vertex 8.5 6.8 8.41
    endloop
  endfacet
  facet normal 1 -0 0
    outer loop
      vertex 8.5 3.4 5.01
      vertex 8.5 8.5 0
      vertex 8.5 6.8 5.01
    endloop
  endfacet
  facet normal 1 0 0
    outer loop
      vertex 8.5 3.4 18.41
      vertex 8.5 1.7 20.01
      vertex 8.5 1.7 18.41
    endloop
  endfacet
  facet normal 1 0 0
    outer loop
      vertex 8.5 3.4 15.01
      vertex 8.5 1.7 15.01
      vertex 8.5 3.4 13.41
    endloop
  endfacet
  facet normal 1 0 0
    outer loop
      vertex 8.5 1.7 10.01
      vertex 8.5 3.4 10.01
      vertex 8.5 1.7 13.41
    endloop
  endfacet
  facet normal 1 0 0
    outer loop
      vertex 8.5 3.4 10.01
      vertex 8.5 1.7 10.01
      vertex 8.5 3.4 8.41
    endloop
  endfacet
  facet normal 1 0 0
    outer loop
      vertex 8.5 1.7 8.41
      vertex 8.5 3.4 8.41
      vertex 8.5 1.7 10.01
    endloop
  endfacet
  facet normal 1 0 0
    outer loop
      vertex 8.5 3.4 8.41
      vertex 8.5 1.7 8.41
      vertex 8.5 3.4 5.01
    endloop
  endfacet
  facet normal 1 0 0
    outer loop
      vertex 8.5 1.7 5.01
      vertex 8.5 3.4 5.01
      vertex 8.5 1.7 8.41
    endloop
  endfacet
  facet normal 1 -0 0
    outer loop
      vertex 8.5 1.7 5.01
      vertex 8.5 8.5 0
      vertex 8.5 3.4 5.01
    endloop
  endfacet
  facet normal 1 -0 0
    outer loop
      vertex 8.5 -1.7 5.01
      vertex 8.5 8.5 0
      vertex 8.5 1.7 5.01
    endloop
  endfacet
  facet normal 1 0 0
    outer loop
      vertex 8.5 -1.7 18.41
      vertex 8.5 -3.4 20.01
      vertex 8.5 -3.4 18.41
    endloop
  endfacet
  facet normal 1 0 0
    outer loop
      vertex 8.5 -1.7 15.01
      vertex 8.5 -3.4 15.01
      vertex 8.5 -1.7 13.41
    endloop
  endfacet
  facet normal 1 0 0
    outer loop
      vertex 8.5 -3.4 10.01
      vertex 8.5 -1.7 10.01
      vertex 8.5 -3.4 13.41
    endloop
  endfacet
  facet normal 1 0 0
    outer loop
      vertex 8.5 -1.7 10.01
      vertex 8.5 -3.4 10.01
      vertex 8.5 -1.7 8.41
    endloop
  endfacet
  facet normal 1 0 0
    outer loop
      vertex 8.5 -3.4 8.41
      vertex 8.5 -1.7 8.41
      vertex 8.5 -3.4 10.01
    endloop
  endfacet
  facet normal 1 0 0
    outer loop
      vertex 8.5 -1.7 8.41
      vertex 8.5 -3.4 8.41
      vertex 8.5 -1.7 5.01
    endloop
  endfacet
  facet normal 1 0 0
    outer loop
      vertex 8.5 -3.4 5.01
      vertex 8.5 -1.7 5.01
      vertex 8.5 -3.4 8.41
    endloop
  endfacet
  facet normal 1 0 0
    outer loop
      vertex 8.5 -8.5 0
      vertex 8.5 -1.7 5.01
      vertex 8.5 -3.4 5.01
    endloop
  endfacet
  facet normal 1 0 0
    outer loop
      vertex 8.5 -8.5 0
      vertex 8.5 -3.4 5.01
      vertex 8.5 -6.8 5.01
    endloop
  endfacet
  facet normal 1 0 0
    outer loop
      vertex 8.5 -1.7 5.01
      vertex 8.5 -8.5 0
      vertex 8.5 8.5 0
    endloop
  endfacet
  facet normal 1 0 0
    outer loop
      vertex 8.5 -6.8 8.41
      vertex 8.5 -8.5 0
      vertex 8.5 -6.8 5.01
    endloop
  endfacet
  facet normal 0 1 0
    outer loop
      vertex 8.5 8.5 25
      vertex 6.8 8.5 23.41
      vertex -8.5 8.5 25
    endloop
  endfacet
  facet normal 0 1 0
    outer loop
      vertex 8.5 8.5 25
      vertex 6.8 8.5 20.01
      vertex 6.8 8.5 23.41
    endloop
  endfacet
  facet normal 0 1 0
    outer loop
      vertex 6.8 8.5 20.01
      vertex 6.8 8.5 18.41
      vertex -6.8 8.5 20.01
    endloop
  endfacet
  facet normal 0 1 0
    outer loop
      vertex 8.5 8.5 25
      vertex 6.8 8.5 18.41
      vertex 6.8 8.5 20.01
    endloop
  endfacet
  facet normal 0 1 0
    outer loop
      vertex 8.5 8.5 25
      vertex 6.8 8.5 15.01
      vertex 6.8 8.5 18.41
    endloop
  endfacet
  facet normal 0 1 0
    outer loop
      vertex 6.8 8.5 15.01
      vertex 6.8 8.5 13.41
      vertex -6.8 8.5 15.01
    endloop
  endfacet
  facet normal 0 1 0
    outer loop
      vertex 8.5 8.5 25
      vertex 6.8 8.5 13.41
      vertex 6.8 8.5 15.01
    endloop
  endfacet
  facet normal 0 1 -0
    outer loop
      vertex 8.5 8.5 0
      vertex 6.8 8.5 13.41
      vertex 8.5 8.5 25
    endloop
  endfacet
  facet normal 0 1 0
    outer loop
      vertex 6.8 8.5 10.01
      vertex 6.8 8.5 8.41
      vertex -6.8 8.5 10.01
    endloop
  endfacet
  facet normal 0 1 0
    outer loop
      vertex 6.8 8.5 13.41
      vertex 8.5 8.5 0
      vertex 6.8 8.5 10.01
    endloop
  endfacet
  facet normal 0 1 0
    outer loop
      vertex 6.8 8.5 10.01
      vertex 8.5 8.5 0
      vertex 6.8 8.5 8.41
    endloop
  endfacet
  facet normal 0 1 0
    outer loop
      vertex 6.8 8.5 5.01
      vertex 8.5 8.5 0
      vertex -6.8 8.5 5.01
    endloop
  endfacet
  facet normal 0 1 0
    outer loop
      vertex 6.8 8.5 8.41
      vertex 8.5 8.5 0
      vertex 6.8 8.5 5.01
    endloop
  endfacet
  facet normal 0 1 -0
    outer loop
      vertex -6.8 8.5 23.41
      vertex -8.5 8.5 25
      vertex 6.8 8.5 23.41
    endloop
  endfacet
  facet normal 0 1 -0
    outer loop
      vertex -6.8 8.5 20.01
      vertex -8.5 8.5 25
      vertex -6.8 8.5 23.41
    endloop
  endfacet
  facet normal 0 1 0
    outer loop
      vertex -6.8 8.5 18.41
      vertex -6.8 8.5 20.01
      vertex 6.8 8.5 18.41
    endloop
  endfacet
  facet normal 0 1 -0
    outer loop
      vertex -6.8 8.5 18.41
      vertex -8.5 8.5 25
      vertex -6.8 8.5 20.01
    endloop
  endfacet
  facet normal 0 1 -0
    outer loop
      vertex -6.8 8.5 15.01
      vertex -8.5 8.5 25
      vertex -6.8 8.5 18.41
    endloop
  endfacet
  facet normal 0 1 0
    outer loop
      vertex -6.8 8.5 13.41
      vertex -6.8 8.5 15.01
      vertex 6.8 8.5 13.41
    endloop
  endfacet
  facet normal 0 1 -0
    outer loop
      vertex -6.8 8.5 13.41
      vertex -8.5 8.5 25
      vertex -6.8 8.5 15.01
    endloop
  endfacet
  facet normal 0 1 0
    outer loop
      vertex -8.5 8.5 0
      vertex -6.8 8.5 13.41
      vertex -6.8 8.5 10.01
    endloop
  endfacet
  facet normal 0 1 0
    outer loop
      vertex -6.8 8.5 8.41
      vertex -6.8 8.5 10.01
      vertex 6.8 8.5 8.41
    endloop
  endfacet
  facet normal 0 1 0
    outer loop
      vertex -8.5 8.5 0
      vertex -6.8 8.5 10.01
      vertex -6.8 8.5 8.41
    endloop
  endfacet
  facet normal 0 1 0
    outer loop
      vertex -8.5 8.5 0
      vertex -6.8 8.5 8.41
      vertex -6.8 8.5 5.01
    endloop
  endfacet
  facet normal 0 1 0
    outer loop
      vertex -6.8 8.5 13.41
      vertex -8.5 8.5 0
      vertex -8.5 8.5 25
    endloop
  endfacet
  facet normal 0 1 0
    outer loop
      vertex -8.5 8.5 0
      vertex -6.8 8.5 5.01
      vertex 8.5 8.5 0
    endloop
  endfacet
  facet normal 0 0 -1
    outer loop
      vertex 8.5 -8.5 0
      vertex 4.4 -4.2 0
      vertex 8.5 8.5 0
    endloop
  endfacet
  facet normal 0 0 -1
    outer loop
      vertex 8.5 -8.5 0
      vertex -4.2 -4.2 0
      vertex 4.4 -4.2 0
    endloop
  endfacet
  facet normal 0 0 -1
    outer loop
      vertex -8.5 8.5 0
      vertex -4.2 -4.2 0
      vertex -8.5 -8.5 0
    endloop
  endfacet
  facet normal 0 0 -1
    outer loop
      vertex -8.5 -8.5 0
      vertex -4.2 -4.2 0
      vertex 8.5 -8.5 0
    endloop
  endfacet
  facet normal 0 0 -1
    outer loop
      vertex 4.4 4.4 0
      vertex 8.5 8.5 0
      vertex 4.4 -4.2 0
    endloop
  endfacet
  facet normal 0 0 -1
    outer loop
      vertex -4.2 4.4 0
      vertex 8.5 8.5 0
      vertex 4.4 4.4 0
    endloop
  endfacet
  facet normal 0 0 -1
    outer loop
      vertex -4.2 4.4 0
      vertex -8.5 8.5 0
      vertex 8.5 8.5 0
    endloop
  endfacet
  facet normal 0 0 -1
    outer loop
      vertex -4.2 -4.2 0
      vertex -8.5 8.5 0
      vertex -4.2 4.4 0
    endloop
  endfacet
  facet normal 0 -1 0
    outer loop
      vertex -8.5 -8.5 25
      vertex -6.8 -8.5 23.41
      vertex 8.5 -8.5 25
    endloop
  endfacet
  facet normal 0 -1 0
    outer loop
      vertex -8.5 -8.5 25
      vertex -6.8 -8.5 20.01
      vertex -6.8 -8.5 23.41
    endloop
  endfacet
  facet normal 0 -1 0
    outer loop
      vertex -6.8 -8.5 20.01
      vertex -6.8 -8.5 18.41
      vertex 6.8 -8.5 20.01
    endloop
  endfacet
  facet normal 0 -1 0
    outer loop
      vertex -8.5 -8.5 25
      vertex -6.8 -8.5 18.41
      vertex -6.8 -8.5 20.01
    endloop
  endfacet
  facet normal 0 -1 0
    outer loop
      vertex -8.5 -8.5 25
      vertex -6.8 -8.5 15.01
      vertex -6.8 -8.5 18.41
    endloop
  endfacet
  facet normal 0 -1 0
    outer loop
      vertex -6.8 -8.5 15.01
      vertex -6.8 -8.5 13.41
      vertex 6.8 -8.5 15.01
    endloop
  endfacet
  facet normal 0 -1 0
    outer loop
      vertex -8.5 -8.5 25
      vertex -6.8 -8.5 13.41
      vertex -6.8 -8.5 15.01
    endloop
  endfacet
  facet normal 0 -1 0
    outer loop
      vertex -8.5 -8.5 0
      vertex -6.8 -8.5 13.41
      vertex -8.5 -8.5 25
    endloop
  endfacet
  facet normal 0 -1 0
    outer loop
      vertex -6.8 -8.5 10.01
      vertex -6.8 -8.5 8.41
      vertex 6.8 -8.5 10.01
    endloop
  endfacet
  facet normal 0 -1 -0
    outer loop
      vertex -6.8 -8.5 13.41
      vertex -8.5 -8.5 0
      vertex -6.8 -8.5 10.01
    endloop
  endfacet
  facet normal 0 -1 -0
    outer loop
      vertex -6.8 -8.5 10.01
      vertex -8.5 -8.5 0
      vertex -6.8 -8.5 8.41
    endloop
  endfacet
  facet normal 0 -1 -0
    outer loop
      vertex -6.8 -8.5 5.01
      vertex -8.5 -8.5 0
      vertex 6.8 -8.5 5.01
    endloop
  endfacet
  facet normal 0 -1 -0
    outer loop
      vertex -6.8 -8.5 8.41
      vertex -8.5 -8.5 0
      vertex -6.8 -8.5 5.01
    endloop
  endfacet
  facet normal 0 -1 0
    outer loop
      vertex 6.8 -8.5 23.41
      vertex 8.5 -8.5 25
      vertex -6.8 -8.5 23.41
    endloop
  endfacet
  facet normal 0 -1 0
    outer loop
      vertex 6.8 -8.5 20.01
      vertex 8.5 -8.5 25
      vertex 6.8 -8.5 23.41
    endloop
  endfacet
  facet normal 0 -1 0
    outer loop
      vertex 6.8 -8.5 18.41
      vertex 6.8 -8.5 20.01
      vertex -6.8 -8.5 18.41
    endloop
  endfacet
  facet normal 0 -1 0
    outer loop
      vertex 6.8 -8.5 18.41
      vertex 8.5 -8.5 25
      vertex 6.8 -8.5 20.01
    endloop
  endfacet
  facet normal 0 -1 0
    outer loop
      vertex 6.8 -8.5 15.01
      vertex 8.5 -8.5 25
      vertex 6.8 -8.5 18.41
    endloop
  endfacet
  facet normal 0 -1 0
    outer loop
      vertex 6.8 -8.5 13.41
      vertex 6.8 -8.5 15.01
      vertex -6.8 -8.5 13.41
    endloop
  endfacet
  facet normal 0 -1 0
    outer loop
      vertex 6.8 -8.5 13.41
      vertex 8.5 -8.5 25
      vertex 6.8 -8.5 15.01
    endloop
  endfacet
  facet normal 0 -1 0
    outer loop
      vertex 8.5 -8.5 0
      vertex 6.8 -8.5 13.41
      vertex 6.8 -8.5 10.01
    endloop
  endfacet
  facet normal 0 -1 0
    outer loop
      vertex 6.8 -8.5 8.41
      vertex 6.8 -8.5 10.01
      vertex -6.8 -8.5 8.41
    endloop
  endfacet
  facet normal 0 -1 0
    outer loop
      vertex 8.5 -8.5 0
      vertex 6.8 -8.5 10.01
      vertex 6.8 -8.5 8.41
    endloop
  endfacet
  facet normal 0 -1 0
    outer loop
      vertex 8.5 -8.5 0
      vertex 6.8 -8.5 8.41
      vertex 6.8 -8.5 5.01
    endloop
  endfacet
  facet normal 0 -1 0
    outer loop
      vertex 6.8 -8.5 13.41
      vertex 8.5 -8.5 0
      vertex 8.5 -8.5 25
    endloop
  endfacet
  facet normal 0 -1 0
    outer loop
      vertex 8.5 -8.5 0
      vertex 6.8 -8.5 5.01
      vertex -8.5 -8.5 0
    endloop
  endfacet
  facet normal 1 -0 0
    outer loop
      vertex -4.2 -4.2 2.45667
      vertex -4.2 4.4 0
      vertex -4.2 4.4 2.45667
    endloop
  endfacet
  facet normal 1 0 0
    outer loop
      vertex -4.2 4.4 0
      vertex -4.2 -4.2 2.45667
      vertex -4.2 -4.2 0
    endloop
  endfacet
  facet normal 0 0 -1
    outer loop
      vertex -4.2 -4.2 2.45667
      vertex 4.4 4.4 2.45667
      vertex 4.4 -4.2 2.45667
    endloop
  endfacet
  facet normal -0 0 -1
    outer loop
      vertex 4.4 4.4 2.45667
      vertex -4.2 -4.2 2.45667
      vertex -4.2 4.4 2.45667
    endloop
  endfacet
  facet normal -1 0 0
    outer loop
      vertex 4.4 -4.2 0
      vertex 4.4 4.4 2.45667
      vertex 4.4 4.4 0
    endloop
  endfacet
  facet normal -1 -0 0
    outer loop
      vertex 4.4 4.4 2.45667
      vertex 4.4 -4.2 0
      vertex 4.4 -4.2 2.45667
    endloop
  endfacet
  facet normal 0 -1 0
    outer loop
      vertex -4.2 4.4 0
      vertex 4.4 4.4 2.45667
      vertex -4.2 4.4 2.45667
    endloop
  endfacet
  facet normal 0 -1 -0
    outer loop
      vertex 4.4 4.4 2.45667
      vertex -4.2 4.4 0
      vertex 4.4 4.4 0
    endloop
  endfacet
  facet normal 0 1 -0
    outer loop
      vertex 4.4 -4.2 0
      vertex -4.2 -4.2 2.45667
      vertex 4.4 -4.2 2.45667
    endloop
  endfacet
  facet normal 0 1 0
    outer loop
      vertex -4.2 -4.2 2.45667
      vertex 4.4 -4.2 0
      vertex -4.2 -4.2 0
    endloop
  endfacet
  facet normal -1 0 0
    outer loop
      vertex -5.66667 -5.66667 25
      vertex -5.66667 5.66667 26.7
      vertex -5.66667 5.66667 25
    endloop
  endfacet
  facet normal -1 -0 0
    outer loop
      vertex -5.66667 5.66667 26.7
      vertex -5.66667 -5.66667 25
      vertex -5.66667 -5.66667 26.7
    endloop
  endfacet
  facet normal 0 0 1
    outer loop
      vertex 5.66667 5.66667 26.7
      vertex 3.77778 3.77778 26.7
      vertex 5.66667 -5.66667 26.7
    endloop
  endfacet
  facet normal 0 0 1
    outer loop
      vertex 5.66667 5.66667 26.7
      vertex -3.77778 3.77778 26.7
      vertex 3.77778 3.77778 26.7
    endloop
  endfacet
  facet normal 0 0 1
    outer loop
      vertex -3.77778 3.77778 26.7
      vertex -5.66667 5.66667 26.7
      vertex -3.77778 -3.77778 26.7
    endloop
  endfacet
  facet normal -0 0 1
    outer loop
      vertex -5.66667 5.66667 26.7
      vertex -3.77778 3.77778 26.7
      vertex 5.66667 5.66667 26.7
    endloop
  endfacet
  facet normal -0 0 1
    outer loop
      vertex 3.77778 -3.77778 26.7
      vertex 5.66667 -5.66667 26.7
      vertex 3.77778 3.77778 26.7
    endloop
  endfacet
  facet normal -0 0 1
    outer loop
      vertex -3.77778 -3.77778 26.7
      vertex 5.66667 -5.66667 26.7
      vertex 3.77778 -3.77778 26.7
    endloop
  endfacet
  facet normal 0 0 1
    outer loop
      vertex -3.77778 -3.77778 26.7
      vertex -5.66667 -5.66667 26.7
      vertex 5.66667 -5.66667 26.7
    endloop
  endfacet
  facet normal 0 0 1
    outer loop
      vertex -5.66667 -5.66667 26.7
      vertex -3.77778 -3.77778 26.7
      vertex -5.66667 5.66667 26.7
    endloop
  endfacet
  facet normal 1 -0 0
    outer loop
      vertex 5.66667 -5.66667 26.7
      vertex 5.66667 5.66667 25
      vertex 5.66667 5.66667 26.7
    endloop
  endfacet
  facet normal 1 0 0
    outer loop
      vertex 5.66667 5.66667 25
      vertex 5.66667 -5.66667 26.7
      vertex 5.66667 -5.66667 25
    endloop
  endfacet
  facet normal 0 1 -0
    outer loop
      vertex 5.66667 5.66667 25
      vertex -5.66667 5.66667 26.7
      vertex 5.66667 5.66667 26.7
    endloop
  endfacet
  facet normal 0 1 0
    outer loop
      vertex -5.66667 5.66667 26.7
      vertex 5.66667 5.66667 25
      vertex -5.66667 5.66667 25
    endloop
  endfacet
  facet normal 0 -1 0
    outer loop
      vertex -5.66667 -5.66667 25
      vertex 5.66667 -5.66667 26.7
      vertex -5.66667 -5.66667 26.7
    endloop
  endfacet
  facet normal 0 -1 -0
    outer loop
      vertex 5.66667 -5.66667 26.7
      vertex -5.66667 -5.66667 25
      vertex 5.66667 -5.66667 25
    endloop
  endfacet
  facet normal -1 0 0
    outer loop
      vertex -3.77778 -3.77778 26.7
      vertex -3.77778 3.77778 28.4
      vertex -3.77778 3.77778 26.7
    endloop
  endfacet
  facet normal -1 -0 0
    outer loop
      vertex -3.77778 3.77778 28.4
      vertex -3.77778 -3.77778 26.7
      vertex -3.77778 -3.77778 28.4
    endloop
  endfacet
  facet normal -0 0 1
    outer loop
      vertex -3.77778 3.77778 28.4
      vertex 3.77778 -3.77778 28.4
      vertex 3.77778 3.77778 28.4
    endloop
  endfacet
  facet normal 0 0 1
    outer loop
      vertex 3.77778 -3.77778 28.4
      vertex -3.77778 3.77778 28.4
      vertex -3.77778 -3.77778 28.4
    endloop
  endfacet
  facet normal 1 -0 0
    outer loop
      vertex 3.77778 -3.77778 28.4
      vertex 3.77778 3.77778 26.7
      vertex 3.77778 3.77778 28.4
    endloop
  endfacet
  facet normal 1 0 0
    outer loop
      vertex 3.77778 3.77778 26.7
      vertex 3.77778 -3.77778 28.4
      vertex 3.77778 -3.77778 26.7
    endloop
  endfacet
  facet normal 0 -1 0
    outer loop
      vertex -3.77778 -3.77778 26.7
      vertex 3.77778 -3.77778 28.4
      vertex -3.77778 -3.77778 28.4
    endloop
  endfacet
  facet normal 0 -1 -0
    outer loop
      vertex 3.77778 -3.77778 28.4
      vertex -3.77778 -3.77778 26.7
      vertex 3.77778 -3.77778 26.7
    endloop
  endfacet
  facet normal 0 1 -0
    outer loop
      vertex 3.77778 3.77778 26.7
      vertex -3.77778 3.77778 28.4
      vertex 3.77778 3.77778 28.4
    endloop
  endfacet
  facet normal 0 1 0
    outer loop
      vertex -3.77778 3.77778 28.4
      vertex 3.77778 3.77778 26.7
      vertex -3.77778 3.77778 26.7
    endloop
  endfacet
endsolid OpenSCAD_Model
