solid OpenSCAD_Model
  facet normal -1 0 0
    outer loop
      vertex -15 0 3.33067e-15
      vertex -15 31.1458 2.2125
      vertex -15 31.1458 3.33067e-15
    endloop
  endfacet
  facet normal -1 -0 0
    outer loop
      vertex -15 31.1458 2.2125
      vertex -15 0 3.33067e-15
      vertex -15 0 2.2125
    endloop
  endfacet
  facet normal 1 0 -2.22045e-16
    outer loop
      vertex 4.91274e-16 0 2.2125
      vertex 0 31.1458 0
      vertex 4.91274e-16 31.1458 2.2125
    endloop
  endfacet
  facet normal 1 0 -2.22045e-16
    outer loop
      vertex 0 31.1458 0
      vertex 4.91274e-16 0 2.2125
      vertex 0 0 0
    endloop
  endfacet
  facet normal 0 -1 0
    outer loop
      vertex -15 0 3.33067e-15
      vertex 4.91274e-16 0 2.2125
      vertex -15 0 2.2125
    endloop
  endfacet
  facet normal 0 -1 0
    outer loop
      vertex 4.91274e-16 0 2.2125
      vertex -15 0 3.33067e-15
      vertex 0 0 0
    endloop
  endfacet
  facet normal -0 0 1
    outer loop
      vertex -15 31.1458 2.2125
      vertex 4.91274e-16 0 2.2125
      vertex 4.91274e-16 31.1458 2.2125
    endloop
  endfacet
  facet normal 0 0 1
    outer loop
      vertex 4.91274e-16 0 2.2125
      vertex -15 31.1458 2.2125
      vertex -15 0 2.2125
    endloop
  endfacet
  facet normal 0 1 0
    outer loop
      vertex 4.91274e-16 31.1458 2.2125
      vertex -15 31.1458 3.33067e-15
      vertex -15 31.1458 2.2125
    endloop
  endfacet
  facet normal -0 1 0
    outer loop
      vertex -15 31.1458 3.33067e-15
      vertex 4.91274e-16 31.1458 2.2125
      vertex 0 31.1458 0
    endloop
  endfacet
  facet normal -2.22045e-16 0 -1
    outer loop
      vertex -15 0 3.33067e-15
      vertex 0 31.1458 0
      vertex 0 0 0
    endloop
  endfacet
  facet normal -2.22045e-16 0 -1
    outer loop
      vertex 0 31.1458 0
      vertex -15 0 3.33067e-15
      vertex -15 31.1458 3.33067e-15
    endloop
  endfacet
endsolid OpenSCAD_Model
