<?xml version="1.0" encoding="UTF-8" standalone="no"?>
<!-- Created with Inkscape (http://www.inkscape.org/) -->

<svg
   xmlns:dc="http://purl.org/dc/elements/1.1/"
   xmlns:cc="http://creativecommons.org/ns#"
   xmlns:rdf="http://www.w3.org/1999/02/22-rdf-syntax-ns#"
   xmlns:svg="http://www.w3.org/2000/svg"
   xmlns="http://www.w3.org/2000/svg"
   xmlns:sodipodi="http://sodipodi.sourceforge.net/DTD/sodipodi-0.dtd"
   xmlns:inkscape="http://www.inkscape.org/namespaces/inkscape"
   width="54.564632mm"
   height="70.838158mm"
   viewBox="0 0 193.33925 251.00134"
   id="svg4428"
   version="1.1"
   inkscape:version="0.91 r13725"
   sodipodi:docname="grasshopper.svg">
  <defs
     id="defs4430" />
  <sodipodi:namedview
     id="base"
     pagecolor="#ffffff"
     bordercolor="#666666"
     borderopacity="1.0"
     inkscape:pageopacity="0.0"
     inkscape:pageshadow="2"
     inkscape:zoom="2.8"
     inkscape:cx="106.43856"
     inkscape:cy="121.44854"
     inkscape:document-units="px"
     inkscape:current-layer="layer1"
     showgrid="false"
     fit-margin-top="1"
     fit-margin-right="1"
     fit-margin-bottom="1"
     fit-margin-left="1"
     inkscape:window-width="1920"
     inkscape:window-height="1016"
     inkscape:window-x="0"
     inkscape:window-y="27"
     inkscape:window-maximized="1" />
  <metadata
     id="metadata4433">
    <rdf:RDF>
      <cc:Work
         rdf:about="">
        <dc:format>image/svg+xml</dc:format>
        <dc:type
           rdf:resource="http://purl.org/dc/dcmitype/StillImage" />
        <dc:title></dc:title>
      </cc:Work>
    </rdf:RDF>
  </metadata>
  <g
     inkscape:label="Layer 1"
     inkscape:groupmode="layer"
     id="layer1"
     transform="translate(-5.6666282,-6.9368683)">
    <path
       id="path4335-7-5-3-7"
       style="fill:#00b400;fill-opacity:1;fill-rule:evenodd;stroke:#00b400;stroke-width:1px;stroke-linecap:butt;stroke-linejoin:miter;stroke-opacity:1"
       d="m 98.90227,231.43731 c -0.83981,-2.60742 -1.84099,-5.68534 -2.19454,-8.24861 -0.25938,-1.88048 0.90142,-8.63065 0.59206,-12.56393 -1.27036,-6.1016 1.11025,-10.76554 1.47955,-16.98703 0.0884,-1.54679 -0.44194,-7.24784 -0.66291,-11.40209 -0.22097,-4.15425 -1.85615,-12.06502 -2.20971,-16.66121 -0.21357,-2.77638 -1.28163,-14.00955 -1.5026,-18.38477 -0.22097,-4.37523 -1.63518,-14.14214 -2.16551,-16.88218 -0.53033,-2.74004 -1.63519,-10.42982 -1.72358,-12.41856 -0.0884,-1.98874 -0.0884,-4.37523 0.39775,-5.12653 0.48614,-0.7513 1.76777,-1.94454 1.76777,-1.94454 0,0 -0.30936,-0.26516 1.59099,0.92808 1.90035,1.19324 8.06472,2.71794 8.06472,2.71794 0,0 6.16436,-1.5247 8.06471,-2.71794 1.90035,-1.19324 1.59099,-0.92808 1.59099,-0.92808 0,0 1.28163,1.19324 1.76777,1.94454 0.48615,0.7513 0.48615,3.13779 0.39775,5.12653 -0.0884,1.98874 -1.19325,9.67852 -1.72358,12.41856 -0.53033,2.74004 -1.94454,12.50695 -2.16551,16.88218 -0.22097,4.37522 -1.28903,15.60839 -1.5026,18.38477 -0.35356,4.59619 -1.98874,12.50696 -2.20971,16.66121 -0.22097,4.15425 -0.75131,9.8553 -0.66291,11.40209 0.36931,6.22149 2.74991,10.88543 1.47955,16.98703 -0.30936,3.93328 0.85144,10.68345 0.59206,12.56393 -0.35355,2.56327 -1.35473,5.64119 -2.19454,8.24861 -0.91144,2.75837 -3.43398,2.79989 -3.43398,-0.24968 0,3.04957 -2.52254,3.00805 -3.43399,0.24968 z m -0.11737,20.94543 c -0.49107,-0.80357 -1.88398,-3.62079 -2.4188,-7.68574 -1.30551,-0.79532 -1.95556,-0.41896 -3.13307,-1.39382 -0.17857,0.26786 -1.4205,-3.65084 -1.28657,-4.94548 -1.56697,-3.94597 -0.74563,-12.70822 -2.43394,-14.72456 -0.54746,-4.00497 0.44759,-15.19139 -1.19648,-17.78441 0.42571,-9.41543 -0.57178,-14.29012 0.12719,-23.79509 0.17858,-2.41072 -0.006,-1.48129 -0.1844,-2.68665 -0.17858,-1.20535 -0.52853,-7.36652 -1.32402,-9.39946 -0.61872,-1.32582 -2.44024,-2.89516 -3.76607,-2.14386 -0.91668,0.63412 -1.09497,1.00054 -1.58842,8.04648 -0.56735,8.09751 0.43399,28.00754 0.98805,31.33243 0.56193,3.37211 -1.031,7.28383 0.6105,11.0719 0.25721,1.28818 1.16743,10.16843 0.91795,14.05375 0,0 -0.93439,2.09607 -3.08096,3.86383 -2.14658,1.76777 -3.44083,0.87126 -5.58741,-0.26517 -2.146574,-1.13642 -2.272844,-5.55583 -2.146574,-7.57614 0.12627,-2.0203 0.35482,-4.01155 -0.02399,-6.41066 -0.3788,-2.39912 -1.322012,-9.53839 -1.574552,-13.32646 -0.25254,-3.78807 -3.80444,-12.81505 -4.8146,-15.59297 -1.01015,-2.77791 -2.488827,-20.35457 -2.615097,-27.29937 -0.12627,-6.9448 9.612429,-24.06002 9.567829,-25.62252 -0.0446,-1.5625 2.098174,-7.32143 2.053574,-8.52679 -0.0446,-1.20535 0.22322,-1.5625 0.22322,-1.5625 l 4.375,-12.54464 -1e-5,-0.13398 c 0,0 0,-0.13393 -1.11607,0.75893 -1.11608,0.89286 -2.95451,0.92494 -3.6688,1.10351 -0.714289,0.17857 -5.30487,4.85126 -6.3763,6.50305 -1.07143,1.65178 -6.472764,6.36666 -7.633484,8.37558 -1.16071,2.00893 -2.704138,7.30214 -5.138858,6.82005 -2.59774,-0.87829 -5.33075,1.248 -7.74736,1.60225 -3.4375,0.44642 -5.72321,1.5299 -8.26786,2.4674 -2.54464,0.9375 -6.94413,3.0612 -8.19413,4.13263 -1.59982,2.46463 -3.3167,2.348 -5.9139,3.17497 -2.10789,0.49137 -3.93221,2.7272 -6.17276,2.40844 -0.58036,0.0447 -2.7937,0.33618 -3.64192,1.00582 -0.84821,0.66965 -4.20892,-0.0491 -5.01249,-0.0937 -0.80357,-0.0446 -1.7857,-1.47321 -1.875,-2.23214 -0.0893,-0.75893 1.99553,-2.26116 2.4866,-2.70759 2.69638,-0.26881 5.75763,-1.94191 7.3634,-2.6531 2.7625,-0.89755 3.77938,-1.86488 6.75405,-2.654 l 3.16196,-2.67671 c 1.545,-1.3079 5.97952,-2.6836 9.55095,-3.48717 1.90132,-0.9238 9.71537,-3.61795 9.67151,-6.55972 -0.0893,-1.07143 8.10974,-3.94921 9.98474,-6.62778 1.874998,-2.67857 13.660718,-12.41072 13.660718,-13.25893 0,-0.84822 4.821434,-4.15182 5.178574,-4.19642 0.35714,-0.0446 0.35714,-2.09821 0.35714,-2.5 0,-0.40179 -0.13393,-1.25 1.38393,-1.5625 1.51786,-0.3125 3.16964,-7.499999 4.15179,-10.178569 0.98214,-2.67857 2.45535,-4.41964 2.45535,-4.41964 0,0 -0.40183,-2.45536 -0.44643,-2.76786 -0.0446,-0.3125 0.40179,-3.84736 0.40179,-3.84736 0,0 -0.36119,-1.78571 -2.1469,-1.29464 -1.78572,0.49107 -7.00534,-1.20267 -9.01427,-1.73839 -2.00893,-0.53571 -13.662959,-3.81079 -14.689732,-4.70365 -3.6833,-1.94802 -5.00389,-2.92233 -5.66021,-5.9191 -0.49944,-4.05816 3.51805,-7.38608 5.49645,-15.65024 0.61346,-2.27823 -1.23685,-2.87507 -2.16488,-4.92027 0,0 -1.98373,-1.97727 -2.92123,-2.78085 -0.9375,-0.80357 -1.64185,-2.72051 -1.68645,-3.39016 -0.0446,-0.66964 0.78282,-2.69708 1.63103,-3.00958 0.84822,-0.3125 4.84229,0.0279 5.73156,2.11179 0.958567,2.50236 6.35899,3.50261 7.39312,7.30673 -0.742096,3.09109 1.741541,3.83678 1.272548,6.47528 -0.11722,0.53931 -0.38877,0.69533 -0.87491,1.13727 -0.44194,0.39775 -2.05357,1.38393 -2.5,2.27679 -1.455445,2.72559 -2.317134,3.88896 -2.419241,7.19288 0.754898,2.52581 15.946035,8.87855 16.928175,9.28033 0.98214,0.40179 5.17857,1.20536 5.44643,-0.3125 0.26786,-1.51785 0.35718,-4.91071 0.40178,-5.84821 0.0446,-0.9375 0.61942,-1.37276 0.70313,-1.47321 0.0858,-0.214 0.0856,-0.35816 0.1004,-0.53572 -0.0223,-0.32924 -0.625,-6.74107 -0.40179,-8.08036 0.40179,-0.71429 0.625,-0.84822 0.49107,-1.83037 -0.53572,-4.59821 2.36607,-6.74107 3.21429,-6.96429 0.8482,-0.22321 0.8482,-1.83036 0.8482,-2.58928 0,-0.75891 1.74422,-0.0221 2.54779,0.0672 0.80358,0.0893 -0.18172,0.0221 -2.01207,-3.77254 -1.83036,-3.79464 -9.87854,-9.13568 -12.86961,-11.14461 -2.99107,-2.00893 -18.136247,-9.42401 -21.135132,-10.84454 -2.99889,-1.42052 -12.29916,-5.61906 -12.96207,-5.9663 -0.66291,-0.34724 -4.74324,-1.98831 -3.81028,-4.729861 0.70711,-2.12132 10.88439,1.69201 13.66231,3.080971 2.77792,1.38896 14.342271,5.80337 20.213781,8.51815 5.871511,2.71479 15.685691,8.10128 19.766681,12.67437 2.50936,2.81194 3.79074,6.05867 4.22304,5.78997 0.6869,-0.42695 0.75535,-0.86107 1.96986,-1.30726 0.80525,-0.29583 1.733,0.0963 1.733,0.0963 0,0 0.92774,-0.39213 1.73299,-0.0963 1.21452,0.44619 1.28296,0.88031 1.96986,1.30726 0.43231,0.2687 1.71368,-2.97803 4.22304,-5.78997 4.081,-4.57309 13.89518,-9.95958 19.76669,-12.67437 5.87151,-2.71478 17.43586,-7.12919 20.21378,-8.51815 2.77792,-1.388961 12.9552,-5.202291 13.66231,-3.080971 0.93296,2.741551 -3.14737,4.382621 -3.81028,4.729861 -0.66291,0.34724 -9.96318,4.54578 -12.96207,5.9663 -2.99889,1.42053 -18.14406,8.83561 -21.13513,10.84454 -2.99107,2.00893 -11.03926,7.34997 -12.86962,11.14461 -1.83035,3.79464 -2.81564,3.86184 -2.01206,3.77254 0.80357,-0.0893 2.54778,-0.82611 2.54778,-0.0672 0,0.75892 0,2.36607 0.84821,2.58928 0.84822,0.22322 3.75001,2.36608 3.21429,6.96429 -0.13393,0.98215 0.0893,1.11608 0.49107,1.83037 0.22321,1.33929 -0.37949,7.75112 -0.40179,8.08036 0.0148,0.17756 0.0146,0.32172 0.1004,0.53572 0.0837,0.10045 0.65853,0.53571 0.70313,1.47321 0.0446,0.9375 0.13392,4.33036 0.40178,5.84821 0.26786,1.51786 4.46429,0.71429 5.44643,0.3125 0.98214,-0.40178 16.17327,-6.75452 16.92817,-9.28033 -0.10211,-3.30392 -0.9638,-4.46729 -2.41924,-7.19288 -0.44643,-0.89286 -2.05806,-1.87904 -2.5,-2.27679 -0.48614,-0.44194 -0.75769,-0.59796 -0.87491,-1.13727 -0.46899,-2.6385 2.01464,-3.38419 1.27255,-6.47528 1.03413,-3.80412 6.43455,-4.80437 7.39312,-7.30673 0.88927,-2.08389 4.88334,-2.42429 5.73156,-2.11179 0.84821,0.3125 1.67563,2.33994 1.63103,3.00958 -0.0446,0.66965 -0.74895,2.58659 -1.68645,3.39016 -0.9375,0.80358 -2.92123,2.78085 -2.92123,2.78085 -0.92803,2.0452 -2.77834,2.64204 -2.16488,4.92027 1.9784,8.26416 5.99589,11.59208 5.49645,15.65024 -0.65632,2.99677 -1.97691,3.97108 -5.66021,5.9191 -1.02678,0.89286 -12.6808,4.16794 -14.68973,4.70365 -2.00893,0.53572 -7.22856,2.22946 -9.01428,1.73839 -1.78571,-0.49107 -2.14689,1.29464 -2.14689,1.29464 0,0 0.44639,3.53486 0.40179,3.84736 -0.0446,0.3125 -0.44643,2.76786 -0.44643,2.76786 0,0 1.47321,1.74107 2.45535,4.41964 0.98215,2.67857 2.63393,9.866069 4.15179,10.178569 1.51786,0.3125 1.38393,1.16071 1.38393,1.5625 0,0.40179 0,2.4554 0.35714,2.5 0.35714,0.0446 5.17857,3.3482 5.17857,4.19642 0,0.84821 11.78572,10.58036 13.66072,13.25893 1.875,2.67857 10.07404,5.55635 9.98474,6.62778 -0.0439,2.94177 7.77019,5.63592 9.67151,6.55972 3.57143,0.80357 8.00595,2.17927 9.55095,3.48717 l 3.16195,2.67671 c 2.97467,0.78912 3.99155,1.75645 6.75405,2.654 1.60577,0.71119 4.66702,2.38429 7.3634,2.6531 0.49107,0.44643 2.5759,1.94866 2.4866,2.70759 -0.0893,0.75893 -1.07143,2.18754 -1.875,2.23214 -0.80357,0.0446 -4.16428,0.76335 -5.01249,0.0937 -0.84822,-0.66964 -3.06156,-0.96112 -3.64192,-1.00582 -2.24055,0.31876 -4.06487,-1.91707 -6.17276,-2.40844 -2.59719,-0.82697 -4.31407,-0.71034 -5.91389,-3.17497 -1.25,-1.07143 -5.64949,-3.19513 -8.19413,-4.13263 -2.54465,-0.9375 -4.83036,-2.02098 -8.26786,-2.4674 -2.41661,-0.35425 -5.14962,-2.48054 -7.74736,-1.60225 -2.43472,0.48209 -3.97815,-4.81112 -5.13886,-6.82005 -1.16072,-2.00892 -6.56205,-6.7238 -7.63348,-8.37558 -1.07143,-1.65179 -5.66202,-6.32448 -6.37631,-6.50305 -0.71429,-0.17857 -2.55271,-0.21065 -3.66879,-1.10351 -1.11607,-0.89286 -1.11607,-0.75893 -1.11607,-0.75893 l -1e-5,0.13398 4.375,12.54464 c 0,0 0.26782,0.35715 0.22322,1.5625 -0.0446,1.20536 2.09817,6.96429 2.05357,8.52679 -0.0446,1.5625 9.6941,18.67772 9.56783,25.62252 -0.12627,6.9448 -1.60495,24.52146 -2.6151,27.29937 -1.01016,2.77792 -4.56206,11.8049 -4.8146,15.59297 -0.25254,3.78807 -1.19575,10.92734 -1.57455,13.32646 -0.37881,2.39911 -0.15026,4.39036 -0.024,6.41066 0.12627,2.02031 0,6.43972 -2.14657,7.57614 -2.14658,1.13643 -3.44083,2.03294 -5.58741,0.26517 -2.14657,-1.76776 -3.08096,-3.86383 -3.08096,-3.86383 -0.24948,-3.88532 0.66074,-12.76557 0.91795,-14.05375 1.6415,-3.78807 0.0486,-7.69979 0.6105,-11.0719 0.55406,-3.32489 1.5554,-23.23492 0.98805,-31.33243 -0.49345,-7.04594 -0.67174,-7.41236 -1.58842,-8.04648 -1.32583,-0.7513 -3.14735,0.81804 -3.76607,2.14386 -0.7955,2.03294 -1.14545,8.19411 -1.32403,9.39946 -0.17839,1.20536 -0.36297,0.27593 -0.18439,2.68665 0.69896,9.50497 -0.29852,14.37966 0.12719,23.79509 -1.64407,2.59302 -0.64902,13.77944 -1.19648,17.78441 -1.68832,2.01634 -0.86698,10.77859 -2.43395,14.72456 0.13393,1.29464 -1.10799,5.21334 -1.28656,4.94548 -1.17752,0.97486 -1.82757,0.5985 -3.13308,1.39382 -0.53482,4.06495 -1.92772,6.88217 -2.41879,7.68574 -1.31224,2.01105 -2.68031,1.97375 -3.55136,0.14082 -0.87105,1.83293 -2.23913,1.87023 -3.55136,-0.14082 z"
       inkscape:connector-curvature="0"
       sodipodi:nodetypes="csccsssssscscscssssssccsccccccccccccccsccssssssssscccssssccsccccsscccsccsssssscscssccccsssccccccsssccccssssssscssssscssssscsssssssccccsssccccccsssccccsscscssssssccscccssccccsccsssscccsssssssssccsccccccccccccc" />
  </g>
</svg>
