<?xml version="1.0" encoding="UTF-8" standalone="no"?>
<!-- Created with Inkscape (http://www.inkscape.org/) -->

<svg
   xmlns:dc="http://purl.org/dc/elements/1.1/"
   xmlns:cc="http://creativecommons.org/ns#"
   xmlns:rdf="http://www.w3.org/1999/02/22-rdf-syntax-ns#"
   xmlns:svg="http://www.w3.org/2000/svg"
   xmlns="http://www.w3.org/2000/svg"
   xmlns:sodipodi="http://sodipodi.sourceforge.net/DTD/sodipodi-0.dtd"
   xmlns:inkscape="http://www.inkscape.org/namespaces/inkscape"
   width="210mm"
   height="297mm"
   viewBox="0 0 744.09448819 1052.3622047"
   id="svg2"
   version="1.1"
   inkscape:version="0.91 r13725"
   sodipodi:docname="pillbug.svg">
  <defs
     id="defs4" />
  <sodipodi:namedview
     id="base"
     pagecolor="#ffffff"
     bordercolor="#666666"
     borderopacity="1.0"
     inkscape:pageopacity="0.0"
     inkscape:pageshadow="2"
     inkscape:zoom="3.959798"
     inkscape:cx="-2.962622"
     inkscape:cy="772.3665"
     inkscape:document-units="px"
     inkscape:current-layer="layer1"
     showgrid="false"
     inkscape:object-nodes="true"
     showguides="true"
     inkscape:guide-bbox="true"
     inkscape:window-width="1920"
     inkscape:window-height="1016"
     inkscape:window-x="0"
     inkscape:window-y="27"
     inkscape:window-maximized="1">
    <sodipodi:guide
       position="43.184022,970.88289"
       orientation="0,1"
       id="guide4254" />
    <sodipodi:guide
       position="44.004771,967.72616"
       orientation="1,0"
       id="guide4258" />
    <sodipodi:guide
       position="47.035228,950.49043"
       orientation="0,1"
       id="guide4262" />
    <sodipodi:guide
       position="46.151345,928.26708"
       orientation="0,1"
       id="guide4266" />
    <sodipodi:guide
       position="46.78269,905.0967"
       orientation="0,1"
       id="guide4270" />
    <sodipodi:guide
       position="53.916893,899.54086"
       orientation="0,1"
       id="guide4274" />
  </sodipodi:namedview>
  <metadata
     id="metadata7">
    <rdf:RDF>
      <cc:Work
         rdf:about="">
        <dc:format>image/svg+xml</dc:format>
        <dc:type
           rdf:resource="http://purl.org/dc/dcmitype/StillImage" />
        <dc:title></dc:title>
      </cc:Work>
    </rdf:RDF>
  </metadata>
  <g
     inkscape:label="Layer 1"
     inkscape:groupmode="layer"
     id="layer1">
    <path
       id="path4216-3"
       style="fill:#0000ff;fill-opacity:1;fill-rule:evenodd;stroke:#000000;stroke-width:1px;stroke-linecap:butt;stroke-linejoin:miter;stroke-opacity:1"
       d="m 176.90977,219.77276 c 2.23191,-0.76119 4.38483,-1.88384 6.43578,-3.32963 7.20342,-5.09255 12.34542,-11.41628 13.23137,-19.17579 l 2.90495,-0.16783 c 0.74936,-2.12965 1.27337,-4.04405 1.68697,-5.78376 2.04566,3.85039 4.96758,6.49595 7.6376,9.48785 -2.05017,-5.89665 -4.07006,-11.89278 -6.69226,-15.90989 l -1.42681,-9.45273 2.81249,-0.0446 c 0.20289,-2.63994 0.34189,-5.2505 0.20216,-8.16733 l 7.12472,3.90133 -8.08688,-11.48622 c -0.95937,-2.69416 -2.30093,-5.18367 -4.39625,-7.36963 l 4.09763,0.0778 c -0.21813,-2.39639 -0.55906,-5.13405 -1.55847,-7.6413 2.43209,1.95837 4.78112,2.83704 7.15906,4.09139 -2.65851,-3.53368 -4.67152,-7.53682 -8.51997,-10.20508 -1.49724,-3.0038 -3.03053,-6.10107 -5.00595,-8.08146 l 2.27284,0.1263 c -0.68556,-1.96975 -1.02588,-2.91736 -1.02588,-2.91736 2.62519,1.72079 5.286,1.34679 8.33835,2.08691 -3.24,-2.47848 -6.12285,-5.93495 -10.23178,-7.16802 -5.21375,-9.43212 -10.52988,-12.51306 -16.48395,-14.65603 -0.0884,-0.0301 -0.0437,-0.0152 0,0 3.92399,-3.13172 4.88061,-7.7053 7.43594,-11.69691 0.19669,-0.24586 5.28668,3.49662 11.29499,5.58907 4.90154,1.707 8.47927,2.79789 12.15017,3.39367 3.70575,0.60143 4.12881,-0.65936 3.95024,-1.19507 -0.10957,-0.32868 -8.36841,-2.14971 -13.93002,-4.78239 -3.50321,-1.65831 -6.23481,-3.73195 -6.68338,-3.90448 -12.0589,-7.06857 -9.68203,0.64024 -17.75643,11.55645 -1.35112,-0.18169 -2.5494,-0.30003 -3.847,-0.30003 -1.2976,0 -2.49588,0.11834 -3.847,0.30003 -8.0744,-10.916207 -5.69753,-18.625022 -17.75643,-11.556449 -0.44857,0.172528 -3.18017,2.246167 -6.68338,3.904475 -5.56161,2.632684 -13.82045,4.453714 -13.93002,4.782394 -0.17857,0.53571 0.24449,1.7965 3.95024,1.19507 3.6709,-0.59578 7.24863,-1.68667 12.15017,-3.39367 6.00831,-2.09245 11.0983,-5.834925 11.29499,-5.589066 2.55533,3.991606 3.51195,8.565186 7.43594,11.696906 0.0437,-0.0152 0.0884,-0.0301 0,0 -5.95407,2.14297 -11.2702,5.22391 -16.48395,14.65603 -4.10893,1.23307 -6.99178,4.68954 -10.23178,7.16802 3.05235,-0.74012 5.71316,-0.36612 8.33835,-2.08691 0,0 -0.34032,0.94761 -1.02588,2.91736 l 2.27284,-0.1263 c -1.97542,1.98039 -3.50871,5.07766 -5.00595,8.08146 -3.84845,2.66826 -5.86146,6.6714 -8.51997,10.20508 2.37794,-1.25435 4.72697,-2.13302 7.15906,-4.09139 -0.99941,2.50725 -1.34034,5.24491 -1.55847,7.6413 l 4.09763,-0.0778 c -2.09532,2.18596 -3.43688,4.67547 -4.39625,7.36963 l -8.08688,11.48622 7.12472,-3.90133 c -0.13973,2.91683 -7.3e-4,5.52739 0.20216,8.16733 l 2.81249,0.0446 -1.42681,9.45273 c -2.6222,4.01711 -4.64209,10.01325 -6.69226,15.9099 2.67002,-2.9919 5.59194,-5.63746 7.6376,-9.48786 0.4136,1.73972 0.93761,3.65412 1.68697,5.78377 l 2.90495,0.16783 c 0.88595,7.75951 6.02795,14.08324 13.23137,19.17579 2.05095,1.44579 4.20387,2.56844 6.43578,3.32963 2.23192,0.76119 4.54284,3.03594 6.90977,3.03593 2.36693,0 4.67785,-2.27475 6.90977,-3.03594 z"
       inkscape:connector-curvature="0"
       sodipodi:nodetypes="sccccccccccccccccccccccccsscscccccscssccccccccccccccccccccccccscs" />
    <path
       id="path4276"
       style="fill:none;fill-rule:evenodd;stroke:#000000;stroke-width:1px;stroke-linecap:butt;stroke-linejoin:miter;stroke-opacity:1"
       d="m 44.004771,152.82136 -19.571706,0 c 0,0 1.073287,4.79823 7.134202,9.47018 6.060915,4.67196 12.437504,5.36644 12.437504,5.36644 m 0,-20.39246 -22.917837,0 c 0,0 -0.474278,-3.14821 0.441942,-6.62912 0.991375,-3.76644 3.03333,-6.61652 6.69226,-8.71257 4.561698,-2.6132 11.490487,-3.4724 15.783635,-3.4724 m 0,-4.35629 -26.327101,0 c 0,0 0.211285,-5.6083 3.598668,-9.59644 3.873799,-4.56082 5.664927,-5.42383 9.848988,-6.81853 5.3033,-1.76777 12.879445,-1.26269 12.879445,-1.26269 m 0,-4.54569 -24.180527,0 c 0,0 0.126269,-4.608819 2.335978,-8.396891 2.209708,-3.788072 4.248435,-5.100596 6.944798,-6.313454 4.161564,-1.871923 7.260472,-2.39911 14.899751,-2.52538 m 0,-3.15673 -19.319168,0 c 0,0 2.525381,-7.513007 5.871511,-10.606599 3.346131,-3.093592 6.9448,-6.881664 13.447657,-7.007934 m 0,111.346658 c -2.36693,0 -4.67785,-2.27475 -6.90977,-3.03594 -2.23191,-0.76119 -4.38483,-1.88384 -6.43578,-3.32963 -7.20342,-5.09255 -12.34542,-11.41628 -13.23137,-19.17579 l -2.90495,-0.16783 c -0.74936,-2.12965 -1.139441,-3.37441 -1.553041,-5.11413 -1.917148,3.59786 -2.753929,4.00231 -5.3608147,6.36286 1.42517,-6.11986 1.6593457,-9.43743 4.2815457,-13.45454 l 1.42681,-9.45273 -2.81249,-0.0446 c -0.20289,-2.63994 -0.34189,-5.2505 -0.20216,-8.16733 l -6.5565092,3.42782 c 2.1312382,-3.89589 4.1652085,-7.85015 7.5186692,-11.01271 0.95937,-2.69416 2.30093,-5.18367 4.39625,-7.36963 l -4.09763,0.0778 c 0.21813,-2.39639 0.55906,-5.134043 1.55847,-7.641293 -2.43209,1.95837 -4.78112,2.837035 -7.15906,4.091383 2.65851,-3.533673 4.67152,-7.536813 8.51997,-10.205073 1.49724,-3.0038 3.03053,-6.10107 5.00595,-8.08146 l -2.27284,0.1263 c 0.68556,-1.96975 1.02588,-2.91736 1.02588,-2.91736 -2.719892,1.499819 -5.033462,1.504626 -8.085812,2.055343 3.271567,-2.762586 5.870312,-5.903383 9.979242,-7.136453 5.21375,-9.43212 10.52988,-12.51306 16.48395,-14.65603 0.0884,-0.0301 0.0437,-0.0152 0,0 -3.92399,-3.13172 -4.88061,-7.7053 -7.43594,-11.696906 -0.19669,-0.245859 -5.28668,3.496616 -11.29499,5.589066 -4.90154,1.707 -8.47927,2.79789 -12.15017,3.39367 -3.70575,0.60143 -4.12881,-0.65936 -3.95024,-1.19507 0.10957,-0.32868 8.36841,-2.14971 13.93002,-4.782394 3.50321,-1.658308 6.23481,-3.731947 6.68338,-3.904475 12.0589,-7.068573 9.68203,0.640242 17.75643,11.556449 1.35112,-0.18169 2.5494,-0.30003 3.847,-0.30003" />
    <path
       id="path4276-5-6"
       style="fill:#0000ff;fill-rule:evenodd;stroke:#000000;stroke-width:1px;stroke-linecap:butt;stroke-linejoin:miter;stroke-opacity:1;fill-opacity:1"
       d="m 66.922608,298.0308 c 0,0 0.474278,-3.14822 -0.441942,-6.62913 -0.991375,-3.76644 -3.03333,-6.61652 -6.69226,-8.71257 -4.561698,-2.6132 -11.490487,-3.4724 -15.783635,-3.4724 -4.293148,0 -11.221937,0.8592 -15.783635,3.4724 -3.65893,2.09605 -5.700885,4.94613 -6.69226,8.71257 -0.91622,3.48091 -0.441942,6.62913 -0.441942,6.62913 l 22.917837,0 z m 1.26269,-45.39374 c 0,0 -0.126269,-4.60882 -2.335978,-8.39689 -2.209708,-3.78807 -4.248435,-5.10059 -6.944798,-6.31345 -4.161564,-1.87192 -7.260472,-2.39911 -14.899751,-2.52538 -7.639279,0.12627 -10.738187,0.65346 -14.899751,2.52538 -2.696363,1.21286 -4.73509,2.52538 -6.944798,6.31345 -2.209709,3.78807 -2.335978,8.39689 -2.335978,8.39689 l 24.180527,0 z M 50.914541,322.9408 c 2.23191,-0.76119 4.38483,-1.88384 6.43578,-3.32963 7.20342,-5.09255 12.34542,-11.41628 13.23137,-19.17579 l 2.90495,-0.16783 c 0.74936,-2.12965 1.139441,-3.37441 1.553041,-5.11414 1.917147,3.59787 2.753928,4.00232 5.360814,6.36287 -1.42517,-6.11986 -1.659345,-9.43744 -4.281545,-13.45455 l -1.42681,-9.45273 2.812489,-0.0446 c 0.20289,-2.63994 0.34189,-5.2505 0.20216,-8.16733 l 6.55651,3.42782 c -2.131238,-3.89589 -4.165209,-7.85015 -7.518669,-11.01271 -0.95937,-2.69416 -2.30093,-5.18367 -4.39625,-7.36963 l 4.09763,0.0778 c -0.21813,-2.39639 -0.55906,-5.13404 -1.55847,-7.64129 2.432089,1.95837 4.78112,2.83704 7.15906,4.09138 -2.65851,-3.53367 -4.671521,-7.53681 -8.51997,-10.20507 -1.49724,-3.0038 -3.03053,-6.10107 -5.00595,-8.08146 l 2.27284,0.1263 c -0.68556,-1.96975 -1.02588,-2.91736 -1.02588,-2.91736 2.719892,1.49982 5.033462,1.50463 8.085811,2.05534 -3.271566,-2.76258 -5.870311,-5.90338 -9.979241,-7.13645 -5.21375,-9.43212 -10.52988,-12.51306 -16.48395,-14.65603 -0.0884,-0.0301 -0.0437,-0.0152 0,0 3.92399,-3.13172 4.88061,-7.7053 7.43594,-11.69691 0.19669,-0.24585 5.28668,3.49662 11.29499,5.58907 4.90154,1.707 8.47927,2.79789 12.15017,3.39367 3.70575,0.60143 4.12881,-0.65936 3.95024,-1.19507 -0.10957,-0.32868 -8.368411,-2.14971 -13.93002,-4.78239 -3.50321,-1.65831 -6.23481,-3.73195 -6.68338,-3.90448 -12.0589,-7.06857 -9.68203,0.64024 -17.75643,11.55645 -1.35112,-0.18169 -2.5494,-0.30003 -3.847,-0.30003 -1.2976,0 -2.49588,0.11834 -3.847,0.30003 -8.0744,-10.91621 -5.69753,-18.62502 -17.75643,-11.55645 -0.44857,0.17253 -3.18017,2.24617 -6.68338,3.90448 -5.561609,2.63268 -13.82045,4.45371 -13.93002,4.78239 -0.17857,0.53571 0.24449,1.7965 3.9502397,1.19507 3.6709,-0.59578 7.2486303,-1.68667 12.1501703,-3.39367 6.00831,-2.09245 11.0983,-5.83492 11.29499,-5.58907 2.55533,3.99161 3.51195,8.56519 7.43594,11.69691 0.0437,-0.0152 0.0884,-0.0301 0,0 -5.95407,2.14297 -11.2702,5.22391 -16.48395,14.65603 -4.10893,1.23307 -6.707675,4.37387 -9.979241,7.13645 3.052349,-0.55071 5.365919,-0.55552 8.085811,-2.05534 0,0 -0.34032,0.94761 -1.02588,2.91736 l 2.27284,-0.1263 c -1.97542,1.98039 -3.50871,5.07766 -5.00595,8.08146 -3.848449,2.66826 -5.8614603,6.6714 -8.5199703,10.20507 2.37794,-1.25434 4.7269713,-2.13301 7.1590603,-4.09138 -0.99941,2.50725 -1.34034,5.2449 -1.55847,7.64129 l 4.09763,-0.0778 c -2.09532,2.18596 -3.43688,4.67547 -4.39625,7.36963 -3.3534603,3.16256 -5.3874313,7.11682 -7.5186693,11.01271 l 6.5565103,-3.42782 c -0.13973,2.91683 -7.3e-4,5.52739 0.20216,8.16733 l 2.812489,0.0446 -1.42681,9.45273 c -2.6222003,4.01711 -2.8563753,7.33469 -4.2815453,13.45455 2.6068863,-2.36055 3.4436673,-2.765 5.3608143,-6.36287 0.4136,1.73973 0.803681,2.98449 1.553041,5.11414 l 2.90495,0.16783 c 0.88595,7.75951 6.02795,14.08324 13.23137,19.17579 2.05095,1.44579 4.20387,2.56844 6.43578,3.32963 2.23192,0.76119 4.54284,3.03594 6.90977,3.03594 2.36693,0 4.67785,-2.27475 6.90977,-3.03594 z m -19.347274,-9.88398 c -6.060915,-4.67195 -7.134202,-9.47018 -7.134202,-9.47018 l 19.571706,0 19.571706,0 c 0,0 -1.073287,4.79823 -7.134202,9.47018 -6.060915,4.67196 -12.437504,5.36644 -12.437504,5.36644 0,0 -6.376589,-0.69448 -12.437504,-5.36644 z M 17.67767,274.86041 c 0,0 0.211285,-5.6083 3.598668,-9.59644 3.873799,-4.56082 5.664927,-5.42383 9.848988,-6.81853 5.3033,-1.76777 12.879445,-1.70912 12.879445,-1.70912 0,0 7.576145,-0.0587 12.879445,1.70912 4.184061,1.3947 5.975189,2.25771 9.848988,6.81853 3.387383,3.98814 3.598668,9.59644 3.598668,9.59644 l -26.327101,0 z m 7.007933,-42.6158 c 0,0 2.525381,-7.51301 5.871511,-10.6066 3.346131,-3.09359 6.9448,-6.88166 13.447657,-7.00793 6.502857,0.12627 10.101526,3.91434 13.447657,7.00793 3.34613,3.09359 5.871511,10.6066 5.871511,10.6066 l -19.319168,0 z"
       inkscape:connector-curvature="0"
       sodipodi:nodetypes="csscssccccsscsscccsccccccccccccccccccccccccsscscccccscssccccccccccccccccccccccccscsscccscscsscssccccscsccc" />
  </g>
</svg>
