solid OpenSCAD_Model
  facet normal 0.998027 0.0627908 0
    outer loop
      vertex 7.5 0 5
      vertex 7.44086 0.939999 0
      vertex 7.44086 0.939999 5
    endloop
  endfacet
  facet normal 0.998027 0.0627908 0
    outer loop
      vertex 7.44086 0.939999 0
      vertex 7.5 0 5
      vertex 7.5 0 0
    endloop
  endfacet
  facet normal -0.998027 0.0627908 0
    outer loop
      vertex -7.5 0 0
      vertex -7.44086 0.939999 5
      vertex -7.44086 0.939999 0
    endloop
  endfacet
  facet normal -0.998027 0.0627908 0
    outer loop
      vertex -7.44086 0.939999 5
      vertex -7.5 0 0
      vertex -7.5 0 5
    endloop
  endfacet
  facet normal 0 1 -0
    outer loop
      vertex 0.470928 7.4852 0
      vertex -0.470928 7.4852 5
      vertex 0.470928 7.4852 5
    endloop
  endfacet
  facet normal 0 1 0
    outer loop
      vertex -0.470928 7.4852 5
      vertex 0.470928 7.4852 0
      vertex -0.470928 7.4852 0
    endloop
  endfacet
  facet normal 0 -1 0
    outer loop
      vertex -0.470928 -7.4852 0
      vertex 0.470928 -7.4852 5
      vertex -0.470928 -7.4852 5
    endloop
  endfacet
  facet normal 0 -1 -0
    outer loop
      vertex 0.470928 -7.4852 5
      vertex -0.470928 -7.4852 0
      vertex 0.470928 -7.4852 0
    endloop
  endfacet
  facet normal 0.684552 0.728964 -0
    outer loop
      vertex 5.46726 5.1341 0
      vertex 4.78068 5.77885 5
      vertex 5.46726 5.1341 5
    endloop
  endfacet
  facet normal 0.684552 0.728964 0
    outer loop
      vertex 4.78068 5.77885 5
      vertex 5.46726 5.1341 0
      vertex 4.78068 5.77885 0
    endloop
  endfacet
  facet normal -0.684552 0.728964 0
    outer loop
      vertex -4.78068 5.77885 0
      vertex -5.46726 5.1341 5
      vertex -4.78068 5.77885 5
    endloop
  endfacet
  facet normal -0.684552 0.728964 0
    outer loop
      vertex -5.46726 5.1341 5
      vertex -4.78068 5.77885 0
      vertex -5.46726 5.1341 0
    endloop
  endfacet
  facet normal -0.368126 0.929776 0
    outer loop
      vertex -2.31763 7.13292 0
      vertex -3.19334 6.7862 5
      vertex -2.31763 7.13292 5
    endloop
  endfacet
  facet normal -0.368126 0.929776 0
    outer loop
      vertex -3.19334 6.7862 5
      vertex -2.31763 7.13292 0
      vertex -3.19334 6.7862 0
    endloop
  endfacet
  facet normal 0.84433 -0.535823 0
    outer loop
      vertex 6.06763 -4.40839 5
      vertex 6.5723 -3.61315 0
      vertex 6.5723 -3.61315 5
    endloop
  endfacet
  facet normal 0.84433 -0.535823 0
    outer loop
      vertex 6.5723 -3.61315 0
      vertex 6.06763 -4.40839 5
      vertex 6.06763 -4.40839 0
    endloop
  endfacet
  facet normal 0.904829 0.425776 0
    outer loop
      vertex 6.97332 2.76093 5
      vertex 6.5723 3.61315 0
      vertex 6.5723 3.61315 5
    endloop
  endfacet
  facet normal 0.904829 0.425776 0
    outer loop
      vertex 6.5723 3.61315 0
      vertex 6.97332 2.76093 5
      vertex 6.97332 2.76093 0
    endloop
  endfacet
  facet normal 0.368126 0.929776 -0
    outer loop
      vertex 3.19334 6.7862 0
      vertex 2.31763 7.13292 5
      vertex 3.19334 6.7862 5
    endloop
  endfacet
  facet normal 0.368126 0.929776 0
    outer loop
      vertex 2.31763 7.13292 5
      vertex 3.19334 6.7862 0
      vertex 2.31763 7.13292 0
    endloop
  endfacet
  facet normal 0.248689 0.968583 -0
    outer loop
      vertex 2.31763 7.13292 0
      vertex 1.40536 7.36715 5
      vertex 2.31763 7.13292 5
    endloop
  endfacet
  facet normal 0.248689 0.968583 0
    outer loop
      vertex 1.40536 7.36715 5
      vertex 2.31763 7.13292 0
      vertex 1.40536 7.36715 0
    endloop
  endfacet
  facet normal 0.481749 0.876309 -0
    outer loop
      vertex 4.0187 6.33246 0
      vertex 3.19334 6.7862 5
      vertex 4.0187 6.33246 5
    endloop
  endfacet
  facet normal 0.481749 0.876309 0
    outer loop
      vertex 3.19334 6.7862 5
      vertex 4.0187 6.33246 0
      vertex 3.19334 6.7862 0
    endloop
  endfacet
  facet normal -0.904829 0.425776 0
    outer loop
      vertex -6.97332 2.76093 0
      vertex -6.5723 3.61315 5
      vertex -6.5723 3.61315 0
    endloop
  endfacet
  facet normal -0.904829 0.425776 0
    outer loop
      vertex -6.5723 3.61315 5
      vertex -6.97332 2.76093 0
      vertex -6.97332 2.76093 5
    endloop
  endfacet
  facet normal -0 0 1
    outer loop
      vertex -2.95264 2.56149 5
      vertex -1.14226 -3.99925 5
      vertex -1.14226 3.62953 5
    endloop
  endfacet
  facet normal -0 0 1
    outer loop
      vertex -2.9691 2.55278 5
      vertex -1.14226 -3.99925 5
      vertex -2.95264 2.56149 5
    endloop
  endfacet
  facet normal -0 0 1
    outer loop
      vertex -2.99246 2.54353 5
      vertex -1.14226 -3.99925 5
      vertex -2.9691 2.55278 5
    endloop
  endfacet
  facet normal 0 0 1
    outer loop
      vertex -1.14226 -3.99925 5
      vertex -2.99246 2.54353 5
      vertex -2.86226 -3.99925 5
    endloop
  endfacet
  facet normal -0 0 1
    outer loop
      vertex -3.01678 2.53729 5
      vertex -2.86226 -3.99925 5
      vertex -2.99246 2.54353 5
    endloop
  endfacet
  facet normal -0 0 1
    outer loop
      vertex -3.0417 2.53415 5
      vertex -2.86226 -3.99925 5
      vertex -3.01678 2.53729 5
    endloop
  endfacet
  facet normal 0 0 1
    outer loop
      vertex -2.86226 -3.99925 5
      vertex -3.0417 2.53415 5
      vertex -2.88733 -4.00082 5
    endloop
  endfacet
  facet normal -0 0 1
    outer loop
      vertex -3.06682 2.53415 5
      vertex -2.88733 -4.00082 5
      vertex -3.0417 2.53415 5
    endloop
  endfacet
  facet normal 0 0 1
    outer loop
      vertex -2.88733 -4.00082 5
      vertex -3.06682 2.53415 5
      vertex -2.912 -4.00554 5
    endloop
  endfacet
  facet normal 0 0 1
    outer loop
      vertex -3.09174 2.53729 5
      vertex -2.912 -4.00554 5
      vertex -3.06682 2.53415 5
    endloop
  endfacet
  facet normal 0 0 1
    outer loop
      vertex -2.912 -4.00554 5
      vertex -3.09174 2.53729 5
      vertex -2.93588 -4.01329 5
    endloop
  endfacet
  facet normal 0 0 1
    outer loop
      vertex -3.11606 2.54353 5
      vertex -2.93588 -4.01329 5
      vertex -3.09174 2.53729 5
    endloop
  endfacet
  facet normal -0 0 1
    outer loop
      vertex -7.26437 -1.86517 5
      vertex -2.93588 -4.01329 5
      vertex -3.11606 2.54353 5
    endloop
  endfacet
  facet normal 0 0 1
    outer loop
      vertex -2.93588 -4.01329 5
      vertex -7.26437 -1.86517 5
      vertex -2.9586 -4.02399 5
    endloop
  endfacet
  facet normal -0 -0 1
    outer loop
      vertex -6.97332 -2.76093 5
      vertex -2.9586 -4.02399 5
      vertex -7.26437 -1.86517 5
    endloop
  endfacet
  facet normal 0 0 1
    outer loop
      vertex -2.9586 -4.02399 5
      vertex -6.97332 -2.76093 5
      vertex -2.97981 -4.03745 5
    endloop
  endfacet
  facet normal 0 0 1
    outer loop
      vertex -2.97981 -4.03745 5
      vertex -6.97332 -2.76093 5
      vertex -2.99916 -4.05345 5
    endloop
  endfacet
  facet normal 0 0 1
    outer loop
      vertex -2.99916 -4.05345 5
      vertex -6.5723 -3.61315 5
      vertex -3.01636 -4.07176 5
    endloop
  endfacet
  facet normal 0 -0 1
    outer loop
      vertex -6.06763 -4.40839 5
      vertex -3.03113 -4.09209 5
      vertex -6.5723 -3.61315 5
    endloop
  endfacet
  facet normal 0 0 1
    outer loop
      vertex -3.01636 -4.07176 5
      vertex -6.5723 -3.61315 5
      vertex -3.03113 -4.09209 5
    endloop
  endfacet
  facet normal 0 0 1
    outer loop
      vertex 4.0187 6.33246 5
      vertex 1.81616 5.29781 5
      vertex 1.81773 5.27274 5
    endloop
  endfacet
  facet normal 0 0 1
    outer loop
      vertex 3.19334 6.7862 5
      vertex 1.81145 5.32248 5
      vertex 1.81616 5.29781 5
    endloop
  endfacet
  facet normal 0 0 1
    outer loop
      vertex 3.19334 6.7862 5
      vertex 1.8037 5.34636 5
      vertex 1.81145 5.32248 5
    endloop
  endfacet
  facet normal 0 0 1
    outer loop
      vertex 3.19334 6.7862 5
      vertex 1.793 5.36908 5
      vertex 1.8037 5.34636 5
    endloop
  endfacet
  facet normal 0 0 1
    outer loop
      vertex 3.19334 6.7862 5
      vertex 1.77954 5.39029 5
      vertex 1.793 5.36908 5
    endloop
  endfacet
  facet normal 0 0 1
    outer loop
      vertex 3.19334 6.7862 5
      vertex 1.76353 5.40964 5
      vertex 1.77954 5.39029 5
    endloop
  endfacet
  facet normal 0 0 1
    outer loop
      vertex 2.31763 7.13292 5
      vertex 1.74522 5.42683 5
      vertex 1.76353 5.40964 5
    endloop
  endfacet
  facet normal 0 0 1
    outer loop
      vertex 2.31763 7.13292 5
      vertex 1.7249 5.4416 5
      vertex 1.74522 5.42683 5
    endloop
  endfacet
  facet normal 0 0 1
    outer loop
      vertex 2.31763 7.13292 5
      vertex 1.7029 5.4537 5
      vertex 1.7249 5.4416 5
    endloop
  endfacet
  facet normal 0 0 1
    outer loop
      vertex 2.31763 7.13292 5
      vertex 1.67953 5.46295 5
      vertex 1.7029 5.4537 5
    endloop
  endfacet
  facet normal 0 0 1
    outer loop
      vertex 2.31763 7.13292 5
      vertex 1.65521 5.46919 5
      vertex 1.67953 5.46295 5
    endloop
  endfacet
  facet normal 0 0 1
    outer loop
      vertex 2.31763 7.13292 5
      vertex 1.61774 5.47273 5
      vertex 1.65521 5.46919 5
    endloop
  endfacet
  facet normal 0 0 1
    outer loop
      vertex 1.40536 7.36715 5
      vertex 1.61774 5.47273 5
      vertex 2.31763 7.13292 5
    endloop
  endfacet
  facet normal 0 0 1
    outer loop
      vertex 0.470928 7.4852 5
      vertex 1.61774 5.47273 5
      vertex 1.40536 7.36715 5
    endloop
  endfacet
  facet normal 0 0 1
    outer loop
      vertex -0.515259 5.47273 5
      vertex 0.470928 7.4852 5
      vertex -0.470928 7.4852 5
    endloop
  endfacet
  facet normal 0 0 1
    outer loop
      vertex 0.470928 7.4852 5
      vertex -0.515259 5.47273 5
      vertex 1.61774 5.47273 5
    endloop
  endfacet
  facet normal 0 0 1
    outer loop
      vertex -0.470928 7.4852 5
      vertex -0.540329 5.47116 5
      vertex -0.515259 5.47273 5
    endloop
  endfacet
  facet normal 0 0 1
    outer loop
      vertex -0.470928 7.4852 5
      vertex -0.565002 5.46645 5
      vertex -0.540329 5.47116 5
    endloop
  endfacet
  facet normal -0 0 1
    outer loop
      vertex -1.40536 7.36715 5
      vertex -0.565002 5.46645 5
      vertex -0.470928 7.4852 5
    endloop
  endfacet
  facet normal 0 0 1
    outer loop
      vertex -0.565002 5.46645 5
      vertex -1.40536 7.36715 5
      vertex -0.588882 5.45869 5
    endloop
  endfacet
  facet normal 0 0 1
    outer loop
      vertex -0.588882 5.45869 5
      vertex -1.40536 7.36715 5
      vertex -0.618484 5.44403 5
    endloop
  endfacet
  facet normal -0 0 1
    outer loop
      vertex -2.31763 7.13292 5
      vertex -0.618484 5.44403 5
      vertex -1.40536 7.36715 5
    endloop
  endfacet
  facet normal -0 0 1
    outer loop
      vertex -3.19334 6.7862 5
      vertex -0.618484 5.44403 5
      vertex -2.31763 7.13292 5
    endloop
  endfacet
  facet normal 0 0 1
    outer loop
      vertex -0.618484 5.44403 5
      vertex -3.19334 6.7862 5
      vertex -3.15749 3.91403 5
    endloop
  endfacet
  facet normal -0 0 1
    outer loop
      vertex -4.0187 6.33246 5
      vertex -3.15749 3.91403 5
      vertex -3.19334 6.7862 5
    endloop
  endfacet
  facet normal -0 0 1
    outer loop
      vertex -4.78068 5.77885 5
      vertex -3.15749 3.91403 5
      vertex -4.0187 6.33246 5
    endloop
  endfacet
  facet normal 0 0 1
    outer loop
      vertex -3.15749 3.91403 5
      vertex -4.78068 5.77885 5
      vertex -3.17815 3.89975 5
    endloop
  endfacet
  facet normal 0 0 1
    outer loop
      vertex -3.17815 3.89975 5
      vertex -4.78068 5.77885 5
      vertex -3.19684 3.88298 5
    endloop
  endfacet
  facet normal 0 0 1
    outer loop
      vertex -3.19684 3.88298 5
      vertex -4.78068 5.77885 5
      vertex -3.2133 3.86401 5
    endloop
  endfacet
  facet normal 0 0 1
    outer loop
      vertex -3.2133 3.86401 5
      vertex -4.78068 5.77885 5
      vertex -3.22725 3.84312 5
    endloop
  endfacet
  facet normal -0 0 1
    outer loop
      vertex -5.46726 5.1341 5
      vertex -3.22725 3.84312 5
      vertex -4.78068 5.77885 5
    endloop
  endfacet
  facet normal 0 0 1
    outer loop
      vertex -3.22725 3.84312 5
      vertex -5.46726 5.1341 5
      vertex -3.23846 3.82065 5
    endloop
  endfacet
  facet normal 0 0 1
    outer loop
      vertex -3.24678 3.79695 5
      vertex -5.46726 5.1341 5
      vertex -3.25204 3.77238 5
    endloop
  endfacet
  facet normal 0 0 1
    outer loop
      vertex -3.23846 3.82065 5
      vertex -5.46726 5.1341 5
      vertex -3.24678 3.79695 5
    endloop
  endfacet
  facet normal 0 0 1
    outer loop
      vertex 3.53773 -3.99925 5
      vertex 7.5 0 5
      vertex 7.44086 0.939999 5
    endloop
  endfacet
  facet normal 0 0 1
    outer loop
      vertex 3.53773 -3.99925 5
      vertex 7.44086 0.939999 5
      vertex 7.26437 1.86517 5
    endloop
  endfacet
  facet normal 0 0 1
    outer loop
      vertex 7.5 0 5
      vertex 3.53773 -3.99925 5
      vertex 7.44086 -0.939999 5
    endloop
  endfacet
  facet normal 0 0 1
    outer loop
      vertex 1.81773 5.27274 5
      vertex 7.26437 1.86517 5
      vertex 6.97332 2.76093 5
    endloop
  endfacet
  facet normal 0 -0 1
    outer loop
      vertex 3.57521 -4.00279 5
      vertex 7.44086 -0.939999 5
      vertex 3.53773 -3.99925 5
    endloop
  endfacet
  facet normal 0 0 1
    outer loop
      vertex 1.81773 5.27274 5
      vertex 6.97332 2.76093 5
      vertex 6.5723 3.61315 5
    endloop
  endfacet
  facet normal 0 -0 1
    outer loop
      vertex 3.59953 -4.00903 5
      vertex 7.26437 -1.86517 5
      vertex 3.57521 -4.00279 5
    endloop
  endfacet
  facet normal 0 0 1
    outer loop
      vertex 1.81773 5.27274 5
      vertex 6.5723 3.61315 5
      vertex 6.06763 4.40839 5
    endloop
  endfacet
  facet normal 0 0 1
    outer loop
      vertex 7.26437 -1.86517 5
      vertex 3.59953 -4.00903 5
      vertex 6.97332 -2.76093 5
    endloop
  endfacet
  facet normal 0 0 1
    outer loop
      vertex 1.81773 5.27274 5
      vertex 6.06763 4.40839 5
      vertex 5.46726 5.1341 5
    endloop
  endfacet
  facet normal 0 0 1
    outer loop
      vertex 6.97332 -2.76093 5
      vertex 3.6449 -4.03038 5
      vertex 6.5723 -3.61315 5
    endloop
  endfacet
  facet normal -0 0 1
    outer loop
      vertex 1.81773 5.27274 5
      vertex 5.46726 5.1341 5
      vertex 4.78068 5.77885 5
    endloop
  endfacet
  facet normal 0 -0 1
    outer loop
      vertex 3.69954 -4.0817 5
      vertex 6.5723 -3.61315 5
      vertex 3.68353 -4.06235 5
    endloop
  endfacet
  facet normal 0 0 1
    outer loop
      vertex 1.81773 5.27274 5
      vertex 4.78068 5.77885 5
      vertex 4.0187 6.33246 5
    endloop
  endfacet
  facet normal -0 -0 1
    outer loop
      vertex 3.73145 -4.14951 5
      vertex 6.06763 -4.40839 5
      vertex 3.72369 -4.12563 5
    endloop
  endfacet
  facet normal -0 0 1
    outer loop
      vertex 3.73773 -5.03125 5
      vertex 5.46726 -5.1341 5
      vertex 3.73773 -4.19925 5
    endloop
  endfacet
  facet normal 0 0 1
    outer loop
      vertex 5.46726 -5.1341 5
      vertex 3.73773 -5.03125 5
      vertex 4.78068 -5.77885 5
    endloop
  endfacet
  facet normal -0 -0 1
    outer loop
      vertex 3.73773 -4.19925 5
      vertex 5.46726 -5.1341 5
      vertex 3.73616 -4.17418 5
    endloop
  endfacet
  facet normal 0 0 1
    outer loop
      vertex 6.06763 -4.40839 5
      vertex 3.73616 -4.17418 5
      vertex 5.46726 -5.1341 5
    endloop
  endfacet
  facet normal -0 -0 1
    outer loop
      vertex 3.73616 -4.17418 5
      vertex 6.06763 -4.40839 5
      vertex 3.73145 -4.14951 5
    endloop
  endfacet
  facet normal -0 -0 1
    outer loop
      vertex 3.72369 -4.12563 5
      vertex 6.06763 -4.40839 5
      vertex 3.713 -4.10291 5
    endloop
  endfacet
  facet normal -0 -0 1
    outer loop
      vertex 3.713 -4.10291 5
      vertex 6.06763 -4.40839 5
      vertex 3.69954 -4.0817 5
    endloop
  endfacet
  facet normal 0 0 1
    outer loop
      vertex 6.5723 -3.61315 5
      vertex 3.69954 -4.0817 5
      vertex 6.06763 -4.40839 5
    endloop
  endfacet
  facet normal 0 -0 1
    outer loop
      vertex 3.68353 -4.06235 5
      vertex 6.5723 -3.61315 5
      vertex 3.66522 -4.04515 5
    endloop
  endfacet
  facet normal 0 -0 1
    outer loop
      vertex 3.66522 -4.04515 5
      vertex 6.5723 -3.61315 5
      vertex 3.6449 -4.03038 5
    endloop
  endfacet
  facet normal 0 -0 1
    outer loop
      vertex 3.6449 -4.03038 5
      vertex 6.97332 -2.76093 5
      vertex 3.62289 -4.01828 5
    endloop
  endfacet
  facet normal 0 0 1
    outer loop
      vertex 7.26437 1.86517 5
      vertex 1.81773 5.27274 5
      vertex 3.53773 -3.99925 5
    endloop
  endfacet
  facet normal 0 -0 1
    outer loop
      vertex 3.62289 -4.01828 5
      vertex 6.97332 -2.76093 5
      vertex 3.59953 -4.00903 5
    endloop
  endfacet
  facet normal 0 0 1
    outer loop
      vertex 1.81616 5.29781 5
      vertex 4.0187 6.33246 5
      vertex 3.19334 6.7862 5
    endloop
  endfacet
  facet normal 0 0 1
    outer loop
      vertex 1.76353 5.40964 5
      vertex 3.19334 6.7862 5
      vertex 2.31763 7.13292 5
    endloop
  endfacet
  facet normal 0 0 1
    outer loop
      vertex 7.44086 -0.939999 5
      vertex 3.57521 -4.00279 5
      vertex 7.26437 -1.86517 5
    endloop
  endfacet
  facet normal 0 0 1
    outer loop
      vertex 3.53773 -3.99925 5
      vertex 1.81773 5.27274 5
      vertex 1.81773 -3.99925 5
    endloop
  endfacet
  facet normal -0 0 1
    outer loop
      vertex 3.73419 -5.06873 5
      vertex 4.78068 -5.77885 5
      vertex 3.73773 -5.03125 5
    endloop
  endfacet
  facet normal -0 0 1
    outer loop
      vertex 3.72795 -5.09305 5
      vertex 4.78068 -5.77885 5
      vertex 3.73419 -5.06873 5
    endloop
  endfacet
  facet normal -0 0 1
    outer loop
      vertex 3.7187 -5.11641 5
      vertex 4.78068 -5.77885 5
      vertex 3.72795 -5.09305 5
    endloop
  endfacet
  facet normal -0 0 1
    outer loop
      vertex 3.7066 -5.13841 5
      vertex 4.78068 -5.77885 5
      vertex 3.7187 -5.11641 5
    endloop
  endfacet
  facet normal -0 0 1
    outer loop
      vertex 3.69183 -5.15874 5
      vertex 4.78068 -5.77885 5
      vertex 3.7066 -5.13841 5
    endloop
  endfacet
  facet normal -0 0 1
    outer loop
      vertex 3.67464 -5.17705 5
      vertex 4.78068 -5.77885 5
      vertex 3.69183 -5.15874 5
    endloop
  endfacet
  facet normal 0 0 1
    outer loop
      vertex 4.78068 -5.77885 5
      vertex 3.67464 -5.17705 5
      vertex 4.0187 -6.33246 5
    endloop
  endfacet
  facet normal -0 0 1
    outer loop
      vertex 3.65529 -5.19305 5
      vertex 4.0187 -6.33246 5
      vertex 3.67464 -5.17705 5
    endloop
  endfacet
  facet normal -0 0 1
    outer loop
      vertex 3.63408 -5.20651 5
      vertex 4.0187 -6.33246 5
      vertex 3.65529 -5.19305 5
    endloop
  endfacet
  facet normal -0 0 1
    outer loop
      vertex 3.61136 -5.21721 5
      vertex 4.0187 -6.33246 5
      vertex 3.63408 -5.20651 5
    endloop
  endfacet
  facet normal -0 0 1
    outer loop
      vertex 3.58748 -5.22496 5
      vertex 4.0187 -6.33246 5
      vertex 3.61136 -5.21721 5
    endloop
  endfacet
  facet normal -0 0 1
    outer loop
      vertex 3.56281 -5.22968 5
      vertex 4.0187 -6.33246 5
      vertex 3.58748 -5.22496 5
    endloop
  endfacet
  facet normal -0 0 1
    outer loop
      vertex 3.53773 -5.23125 5
      vertex 4.0187 -6.33246 5
      vertex 3.56281 -5.22968 5
    endloop
  endfacet
  facet normal 0 0 1
    outer loop
      vertex 3.53773 -5.23125 5
      vertex 3.19334 -6.7862 5
      vertex 4.0187 -6.33246 5
    endloop
  endfacet
  facet normal 0 0 1
    outer loop
      vertex 3.53773 -5.23125 5
      vertex 2.31763 -7.13292 5
      vertex 3.19334 -6.7862 5
    endloop
  endfacet
  facet normal 0 0 1
    outer loop
      vertex 3.53773 -5.23125 5
      vertex 1.40536 -7.36715 5
      vertex 2.31763 -7.13292 5
    endloop
  endfacet
  facet normal 0 0 1
    outer loop
      vertex 3.53773 -5.23125 5
      vertex 0.470928 -7.4852 5
      vertex 1.40536 -7.36715 5
    endloop
  endfacet
  facet normal -0 0 1
    outer loop
      vertex -2.86226 -5.23125 5
      vertex 0.470928 -7.4852 5
      vertex 3.53773 -5.23125 5
    endloop
  endfacet
  facet normal 0 0 1
    outer loop
      vertex 0.470928 -7.4852 5
      vertex -2.86226 -5.23125 5
      vertex -0.470928 -7.4852 5
    endloop
  endfacet
  facet normal 0 0 1
    outer loop
      vertex -0.470928 -7.4852 5
      vertex -2.86226 -5.23125 5
      vertex -1.40536 -7.36715 5
    endloop
  endfacet
  facet normal 0 0 1
    outer loop
      vertex -1.40536 -7.36715 5
      vertex -2.86226 -5.23125 5
      vertex -2.31763 -7.13292 5
    endloop
  endfacet
  facet normal 0 0 1
    outer loop
      vertex -3.19334 -6.7862 5
      vertex -2.86226 -5.23125 5
      vertex -2.89973 -5.22771 5
    endloop
  endfacet
  facet normal 0 0 1
    outer loop
      vertex -3.19334 -6.7862 5
      vertex -2.89973 -5.22771 5
      vertex -2.92406 -5.22147 5
    endloop
  endfacet
  facet normal 0 0 1
    outer loop
      vertex -3.19334 -6.7862 5
      vertex -2.92406 -5.22147 5
      vertex -2.94742 -5.21222 5
    endloop
  endfacet
  facet normal 0 0 1
    outer loop
      vertex -4.0187 -6.33246 5
      vertex -2.94742 -5.21222 5
      vertex -2.96942 -5.20012 5
    endloop
  endfacet
  facet normal 0 0 1
    outer loop
      vertex -4.0187 -6.33246 5
      vertex -2.96942 -5.20012 5
      vertex -2.98975 -5.18535 5
    endloop
  endfacet
  facet normal 0 0 1
    outer loop
      vertex -4.0187 -6.33246 5
      vertex -2.98975 -5.18535 5
      vertex -3.00806 -5.16815 5
    endloop
  endfacet
  facet normal 0 0 1
    outer loop
      vertex -4.0187 -6.33246 5
      vertex -3.00806 -5.16815 5
      vertex -3.02406 -5.1488 5
    endloop
  endfacet
  facet normal 0 0 1
    outer loop
      vertex -4.0187 -6.33246 5
      vertex -3.02406 -5.1488 5
      vertex -3.03752 -5.12759 5
    endloop
  endfacet
  facet normal 0 0 1
    outer loop
      vertex -4.0187 -6.33246 5
      vertex -3.03752 -5.12759 5
      vertex -3.04822 -5.10487 5
    endloop
  endfacet
  facet normal 0 0 1
    outer loop
      vertex -3.03113 -4.09209 5
      vertex -6.06763 -4.40839 5
      vertex -3.04323 -4.11409 5
    endloop
  endfacet
  facet normal -0 -0 1
    outer loop
      vertex -6.5723 -3.61315 5
      vertex -2.99916 -4.05345 5
      vertex -6.97332 -2.76093 5
    endloop
  endfacet
  facet normal 0 0 1
    outer loop
      vertex -7.44086 -0.939999 5
      vertex -3.11606 2.54353 5
      vertex -3.13942 2.55278 5
    endloop
  endfacet
  facet normal 0 0 1
    outer loop
      vertex -7.5 0 5
      vertex -3.13942 2.55278 5
      vertex -3.16142 2.56488 5
    endloop
  endfacet
  facet normal 0 0 1
    outer loop
      vertex -7.44086 0.939999 5
      vertex -3.16142 2.56488 5
      vertex -3.18175 2.57965 5
    endloop
  endfacet
  facet normal 0 0 1
    outer loop
      vertex -2.86226 -5.23125 5
      vertex -3.19334 -6.7862 5
      vertex -2.31763 -7.13292 5
    endloop
  endfacet
  facet normal 0 0 1
    outer loop
      vertex -4.78068 -5.77885 5
      vertex -3.04822 -5.10487 5
      vertex -3.05597 -5.08099 5
    endloop
  endfacet
  facet normal 0 0 1
    outer loop
      vertex -4.78068 -5.77885 5
      vertex -3.05597 -5.08099 5
      vertex -3.06068 -5.05632 5
    endloop
  endfacet
  facet normal 0 0 1
    outer loop
      vertex -4.78068 -5.77885 5
      vertex -3.06068 -5.05632 5
      vertex -3.06226 -5.03125 5
    endloop
  endfacet
  facet normal 0 0 1
    outer loop
      vertex -3.05247 -4.13745 5
      vertex -6.06763 -4.40839 5
      vertex -3.05872 -4.16177 5
    endloop
  endfacet
  facet normal 0 0 1
    outer loop
      vertex -7.44086 0.939999 5
      vertex -3.18175 2.57965 5
      vertex -3.20006 2.59685 5
    endloop
  endfacet
  facet normal 0 0 1
    outer loop
      vertex -7.26437 1.86517 5
      vertex -3.20006 2.59685 5
      vertex -3.21606 2.6162 5
    endloop
  endfacet
  facet normal 0 0 1
    outer loop
      vertex -7.26437 1.86517 5
      vertex -3.21606 2.6162 5
      vertex -3.22952 2.63741 5
    endloop
  endfacet
  facet normal 0 0 1
    outer loop
      vertex -6.97332 2.76093 5
      vertex -3.22952 2.63741 5
      vertex -3.24022 2.66013 5
    endloop
  endfacet
  facet normal 0 0 1
    outer loop
      vertex -6.97332 2.76093 5
      vertex -3.24022 2.66013 5
      vertex -3.24797 2.68401 5
    endloop
  endfacet
  facet normal 0 0 1
    outer loop
      vertex -6.97332 2.76093 5
      vertex -3.24797 2.68401 5
      vertex -3.25269 2.70868 5
    endloop
  endfacet
  facet normal 0 0 1
    outer loop
      vertex -6.5723 3.61315 5
      vertex -3.25269 2.70868 5
      vertex -3.25426 2.73375 5
    endloop
  endfacet
  facet normal -0 0 1
    outer loop
      vertex -6.06763 4.40839 5
      vertex -3.25204 3.77238 5
      vertex -5.46726 5.1341 5
    endloop
  endfacet
  facet normal 0 0 1
    outer loop
      vertex -2.94742 -5.21222 5
      vertex -4.0187 -6.33246 5
      vertex -3.19334 -6.7862 5
    endloop
  endfacet
  facet normal 0 0 1
    outer loop
      vertex -3.25204 3.77238 5
      vertex -6.06763 4.40839 5
      vertex -3.25426 3.74274 5
    endloop
  endfacet
  facet normal 0 0 1
    outer loop
      vertex -3.04822 -5.10487 5
      vertex -4.78068 -5.77885 5
      vertex -4.0187 -6.33246 5
    endloop
  endfacet
  facet normal 0 0 1
    outer loop
      vertex -3.25426 3.74274 5
      vertex -6.06763 4.40839 5
      vertex -3.25426 2.73375 5
    endloop
  endfacet
  facet normal 0 0 1
    outer loop
      vertex -3.06226 -4.19925 5
      vertex -4.78068 -5.77885 5
      vertex -3.06226 -5.03125 5
    endloop
  endfacet
  facet normal -0 0 1
    outer loop
      vertex -6.5723 3.61315 5
      vertex -3.25426 2.73375 5
      vertex -6.06763 4.40839 5
    endloop
  endfacet
  facet normal 0 -0 1
    outer loop
      vertex -4.78068 -5.77885 5
      vertex -3.06226 -4.19925 5
      vertex -5.46726 -5.1341 5
    endloop
  endfacet
  facet normal 0 0 1
    outer loop
      vertex -3.25269 2.70868 5
      vertex -6.5723 3.61315 5
      vertex -6.97332 2.76093 5
    endloop
  endfacet
  facet normal 0 0 1
    outer loop
      vertex -3.05872 -4.16177 5
      vertex -5.46726 -5.1341 5
      vertex -3.06226 -4.19925 5
    endloop
  endfacet
  facet normal 0 0 1
    outer loop
      vertex -3.22952 2.63741 5
      vertex -6.97332 2.76093 5
      vertex -7.26437 1.86517 5
    endloop
  endfacet
  facet normal 0 -0 1
    outer loop
      vertex -5.46726 -5.1341 5
      vertex -3.05872 -4.16177 5
      vertex -6.06763 -4.40839 5
    endloop
  endfacet
  facet normal 0 0 1
    outer loop
      vertex -3.20006 2.59685 5
      vertex -7.26437 1.86517 5
      vertex -7.44086 0.939999 5
    endloop
  endfacet
  facet normal 0 0 1
    outer loop
      vertex -3.04323 -4.11409 5
      vertex -6.06763 -4.40839 5
      vertex -3.05247 -4.13745 5
    endloop
  endfacet
  facet normal 0 0 1
    outer loop
      vertex -3.16142 2.56488 5
      vertex -7.44086 0.939999 5
      vertex -7.5 0 5
    endloop
  endfacet
  facet normal 0 0 1
    outer loop
      vertex -3.11606 2.54353 5
      vertex -7.44086 -0.939999 5
      vertex -7.26437 -1.86517 5
    endloop
  endfacet
  facet normal 0 0 1
    outer loop
      vertex -3.13942 2.55278 5
      vertex -7.5 0 5
      vertex -7.44086 -0.939999 5
    endloop
  endfacet
  facet normal -0.125337 0.992114 0
    outer loop
      vertex -0.470928 7.4852 0
      vertex -1.40536 7.36715 5
      vertex -0.470928 7.4852 5
    endloop
  endfacet
  facet normal -0.125337 0.992114 0
    outer loop
      vertex -1.40536 7.36715 5
      vertex -0.470928 7.4852 0
      vertex -1.40536 7.36715 0
    endloop
  endfacet
  facet normal -0.770508 -0.637431 0
    outer loop
      vertex -5.46726 -5.1341 0
      vertex -6.06763 -4.40839 5
      vertex -6.06763 -4.40839 0
    endloop
  endfacet
  facet normal -0.770508 -0.637431 0
    outer loop
      vertex -6.06763 -4.40839 5
      vertex -5.46726 -5.1341 0
      vertex -5.46726 -5.1341 5
    endloop
  endfacet
  facet normal 0.125337 -0.992114 0
    outer loop
      vertex 0.470928 -7.4852 0
      vertex 1.40536 -7.36715 5
      vertex 0.470928 -7.4852 5
    endloop
  endfacet
  facet normal 0.125337 -0.992114 0
    outer loop
      vertex 1.40536 -7.36715 5
      vertex 0.470928 -7.4852 0
      vertex 1.40536 -7.36715 0
    endloop
  endfacet
  facet normal 0.368126 -0.929776 0
    outer loop
      vertex 2.31763 -7.13292 0
      vertex 3.19334 -6.7862 5
      vertex 2.31763 -7.13292 5
    endloop
  endfacet
  facet normal 0.368126 -0.929776 0
    outer loop
      vertex 3.19334 -6.7862 5
      vertex 2.31763 -7.13292 0
      vertex 3.19334 -6.7862 0
    endloop
  endfacet
  facet normal 0.951057 0.309017 0
    outer loop
      vertex 7.26437 1.86517 5
      vertex 6.97332 2.76093 0
      vertex 6.97332 2.76093 5
    endloop
  endfacet
  facet normal 0.951057 0.309017 0
    outer loop
      vertex 6.97332 2.76093 0
      vertex 7.26437 1.86517 5
      vertex 7.26437 1.86517 0
    endloop
  endfacet
  facet normal 0.982286 0.187386 0
    outer loop
      vertex 7.44086 0.939999 5
      vertex 7.26437 1.86517 0
      vertex 7.26437 1.86517 5
    endloop
  endfacet
  facet normal 0.982286 0.187386 0
    outer loop
      vertex 7.26437 1.86517 0
      vertex 7.44086 0.939999 5
      vertex 7.44086 0.939999 0
    endloop
  endfacet
  facet normal 0.770508 0.637431 0
    outer loop
      vertex 6.06763 4.40839 5
      vertex 5.46726 5.1341 0
      vertex 5.46726 5.1341 5
    endloop
  endfacet
  facet normal 0.770508 0.637431 0
    outer loop
      vertex 5.46726 5.1341 0
      vertex 6.06763 4.40839 5
      vertex 6.06763 4.40839 0
    endloop
  endfacet
  facet normal 0.84433 0.535823 0
    outer loop
      vertex 6.5723 3.61315 5
      vertex 6.06763 4.40839 0
      vertex 6.06763 4.40839 5
    endloop
  endfacet
  facet normal 0.84433 0.535823 0
    outer loop
      vertex 6.06763 4.40839 0
      vertex 6.5723 3.61315 5
      vertex 6.5723 3.61315 0
    endloop
  endfacet
  facet normal 0.125337 0.992114 -0
    outer loop
      vertex 1.40536 7.36715 0
      vertex 0.470928 7.4852 5
      vertex 1.40536 7.36715 5
    endloop
  endfacet
  facet normal 0.125337 0.992114 0
    outer loop
      vertex 0.470928 7.4852 5
      vertex 1.40536 7.36715 0
      vertex 0.470928 7.4852 0
    endloop
  endfacet
  facet normal 0.587785 0.809017 -0
    outer loop
      vertex 4.78068 5.77885 0
      vertex 4.0187 6.33246 5
      vertex 4.78068 5.77885 5
    endloop
  endfacet
  facet normal 0.587785 0.809017 0
    outer loop
      vertex 4.0187 6.33246 5
      vertex 4.78068 5.77885 0
      vertex 4.0187 6.33246 0
    endloop
  endfacet
  facet normal -0.84433 0.535823 0
    outer loop
      vertex -6.5723 3.61315 0
      vertex -6.06763 4.40839 5
      vertex -6.06763 4.40839 0
    endloop
  endfacet
  facet normal -0.84433 0.535823 0
    outer loop
      vertex -6.06763 4.40839 5
      vertex -6.5723 3.61315 0
      vertex -6.5723 3.61315 5
    endloop
  endfacet
  facet normal -0.770508 0.637431 0
    outer loop
      vertex -6.06763 4.40839 0
      vertex -5.46726 5.1341 5
      vertex -5.46726 5.1341 0
    endloop
  endfacet
  facet normal -0.770508 0.637431 0
    outer loop
      vertex -5.46726 5.1341 5
      vertex -6.06763 4.40839 0
      vertex -6.06763 4.40839 5
    endloop
  endfacet
  facet normal -0.951057 0.309017 0
    outer loop
      vertex -7.26437 1.86517 0
      vertex -6.97332 2.76093 5
      vertex -6.97332 2.76093 0
    endloop
  endfacet
  facet normal -0.951057 0.309017 0
    outer loop
      vertex -6.97332 2.76093 5
      vertex -7.26437 1.86517 0
      vertex -7.26437 1.86517 5
    endloop
  endfacet
  facet normal -0.982286 0.187386 0
    outer loop
      vertex -7.44086 0.939999 0
      vertex -7.26437 1.86517 5
      vertex -7.26437 1.86517 0
    endloop
  endfacet
  facet normal -0.982286 0.187386 0
    outer loop
      vertex -7.26437 1.86517 5
      vertex -7.44086 0.939999 0
      vertex -7.44086 0.939999 5
    endloop
  endfacet
  facet normal -0.481749 0.876309 0
    outer loop
      vertex -3.19334 6.7862 0
      vertex -4.0187 6.33246 5
      vertex -3.19334 6.7862 5
    endloop
  endfacet
  facet normal -0.481749 0.876309 0
    outer loop
      vertex -4.0187 6.33246 5
      vertex -3.19334 6.7862 0
      vertex -4.0187 6.33246 0
    endloop
  endfacet
  facet normal -0.587785 0.809017 0
    outer loop
      vertex -4.0187 6.33246 0
      vertex -4.78068 5.77885 5
      vertex -4.0187 6.33246 5
    endloop
  endfacet
  facet normal -0.587785 0.809017 0
    outer loop
      vertex -4.78068 5.77885 5
      vertex -4.0187 6.33246 0
      vertex -4.78068 5.77885 0
    endloop
  endfacet
  facet normal -0.248689 0.968583 0
    outer loop
      vertex -1.40536 7.36715 0
      vertex -2.31763 7.13292 5
      vertex -1.40536 7.36715 5
    endloop
  endfacet
  facet normal -0.248689 0.968583 0
    outer loop
      vertex -2.31763 7.13292 5
      vertex -1.40536 7.36715 0
      vertex -2.31763 7.13292 0
    endloop
  endfacet
  facet normal 0.998027 -0.0627908 0
    outer loop
      vertex 7.44086 -0.939999 5
      vertex 7.5 0 0
      vertex 7.5 0 5
    endloop
  endfacet
  facet normal 0.998027 -0.0627908 0
    outer loop
      vertex 7.5 0 0
      vertex 7.44086 -0.939999 5
      vertex 7.44086 -0.939999 0
    endloop
  endfacet
  facet normal 0.770508 -0.637431 0
    outer loop
      vertex 5.46726 -5.1341 5
      vertex 6.06763 -4.40839 0
      vertex 6.06763 -4.40839 5
    endloop
  endfacet
  facet normal 0.770508 -0.637431 0
    outer loop
      vertex 6.06763 -4.40839 0
      vertex 5.46726 -5.1341 5
      vertex 5.46726 -5.1341 0
    endloop
  endfacet
  facet normal 0.982286 -0.187386 0
    outer loop
      vertex 7.26437 -1.86517 5
      vertex 7.44086 -0.939999 0
      vertex 7.44086 -0.939999 5
    endloop
  endfacet
  facet normal 0.982286 -0.187386 0
    outer loop
      vertex 7.44086 -0.939999 0
      vertex 7.26437 -1.86517 5
      vertex 7.26437 -1.86517 0
    endloop
  endfacet
  facet normal -0.951057 -0.309017 0
    outer loop
      vertex -6.97332 -2.76093 0
      vertex -7.26437 -1.86517 5
      vertex -7.26437 -1.86517 0
    endloop
  endfacet
  facet normal -0.951057 -0.309017 0
    outer loop
      vertex -7.26437 -1.86517 5
      vertex -6.97332 -2.76093 0
      vertex -6.97332 -2.76093 5
    endloop
  endfacet
  facet normal 0.684552 -0.728964 0
    outer loop
      vertex 4.78068 -5.77885 0
      vertex 5.46726 -5.1341 5
      vertex 4.78068 -5.77885 5
    endloop
  endfacet
  facet normal 0.684552 -0.728964 0
    outer loop
      vertex 5.46726 -5.1341 5
      vertex 4.78068 -5.77885 0
      vertex 5.46726 -5.1341 0
    endloop
  endfacet
  facet normal 0.904829 -0.425776 0
    outer loop
      vertex 6.5723 -3.61315 5
      vertex 6.97332 -2.76093 0
      vertex 6.97332 -2.76093 5
    endloop
  endfacet
  facet normal 0.904829 -0.425776 0
    outer loop
      vertex 6.97332 -2.76093 0
      vertex 6.5723 -3.61315 5
      vertex 6.5723 -3.61315 0
    endloop
  endfacet
  facet normal -0.684552 -0.728964 0
    outer loop
      vertex -5.46726 -5.1341 0
      vertex -4.78068 -5.77885 5
      vertex -5.46726 -5.1341 5
    endloop
  endfacet
  facet normal -0.684552 -0.728964 -0
    outer loop
      vertex -4.78068 -5.77885 5
      vertex -5.46726 -5.1341 0
      vertex -4.78068 -5.77885 0
    endloop
  endfacet
  facet normal -0.84433 -0.535823 0
    outer loop
      vertex -6.06763 -4.40839 0
      vertex -6.5723 -3.61315 5
      vertex -6.5723 -3.61315 0
    endloop
  endfacet
  facet normal -0.84433 -0.535823 0
    outer loop
      vertex -6.5723 -3.61315 5
      vertex -6.06763 -4.40839 0
      vertex -6.06763 -4.40839 5
    endloop
  endfacet
  facet normal 0 0 -1
    outer loop
      vertex 7.44086 -0.939999 0
      vertex 7.44086 0.939999 0
      vertex 7.5 0 0
    endloop
  endfacet
  facet normal 0 0 -1
    outer loop
      vertex 7.26437 -1.86517 0
      vertex 7.44086 0.939999 0
      vertex 7.44086 -0.939999 0
    endloop
  endfacet
  facet normal 0 0 -1
    outer loop
      vertex 7.26437 -1.86517 0
      vertex 7.26437 1.86517 0
      vertex 7.44086 0.939999 0
    endloop
  endfacet
  facet normal 0 0 -1
    outer loop
      vertex 6.97332 -2.76093 0
      vertex 7.26437 1.86517 0
      vertex 7.26437 -1.86517 0
    endloop
  endfacet
  facet normal 0 0 -1
    outer loop
      vertex 6.97332 -2.76093 0
      vertex 6.97332 2.76093 0
      vertex 7.26437 1.86517 0
    endloop
  endfacet
  facet normal 0 0 -1
    outer loop
      vertex 6.5723 -3.61315 0
      vertex 6.97332 2.76093 0
      vertex 6.97332 -2.76093 0
    endloop
  endfacet
  facet normal 0 0 -1
    outer loop
      vertex 6.5723 -3.61315 0
      vertex 6.5723 3.61315 0
      vertex 6.97332 2.76093 0
    endloop
  endfacet
  facet normal 0 0 -1
    outer loop
      vertex 6.06763 -4.40839 0
      vertex 6.5723 3.61315 0
      vertex 6.5723 -3.61315 0
    endloop
  endfacet
  facet normal 0 0 -1
    outer loop
      vertex 6.06763 -4.40839 0
      vertex 6.06763 4.40839 0
      vertex 6.5723 3.61315 0
    endloop
  endfacet
  facet normal 0 0 -1
    outer loop
      vertex 5.46726 -5.1341 0
      vertex 6.06763 4.40839 0
      vertex 6.06763 -4.40839 0
    endloop
  endfacet
  facet normal 0 0 -1
    outer loop
      vertex 5.46726 -5.1341 0
      vertex 5.46726 5.1341 0
      vertex 6.06763 4.40839 0
    endloop
  endfacet
  facet normal 0 0 -1
    outer loop
      vertex 4.78068 -5.77885 0
      vertex 5.46726 5.1341 0
      vertex 5.46726 -5.1341 0
    endloop
  endfacet
  facet normal 0 0 -1
    outer loop
      vertex 4.78068 -5.77885 0
      vertex 4.78068 5.77885 0
      vertex 5.46726 5.1341 0
    endloop
  endfacet
  facet normal 0 0 -1
    outer loop
      vertex 4.0187 -6.33246 0
      vertex 4.78068 5.77885 0
      vertex 4.78068 -5.77885 0
    endloop
  endfacet
  facet normal 0 0 -1
    outer loop
      vertex 4.0187 -6.33246 0
      vertex 4.0187 6.33246 0
      vertex 4.78068 5.77885 0
    endloop
  endfacet
  facet normal 0 0 -1
    outer loop
      vertex 3.19334 -6.7862 0
      vertex 4.0187 6.33246 0
      vertex 4.0187 -6.33246 0
    endloop
  endfacet
  facet normal 0 0 -1
    outer loop
      vertex 3.19334 -6.7862 0
      vertex 3.19334 6.7862 0
      vertex 4.0187 6.33246 0
    endloop
  endfacet
  facet normal 0 0 -1
    outer loop
      vertex 2.31763 -7.13292 0
      vertex 3.19334 6.7862 0
      vertex 3.19334 -6.7862 0
    endloop
  endfacet
  facet normal 0 0 -1
    outer loop
      vertex 2.31763 -7.13292 0
      vertex 2.31763 7.13292 0
      vertex 3.19334 6.7862 0
    endloop
  endfacet
  facet normal 0 0 -1
    outer loop
      vertex 1.40536 -7.36715 0
      vertex 2.31763 7.13292 0
      vertex 2.31763 -7.13292 0
    endloop
  endfacet
  facet normal 0 0 -1
    outer loop
      vertex 1.40536 -7.36715 0
      vertex 1.40536 7.36715 0
      vertex 2.31763 7.13292 0
    endloop
  endfacet
  facet normal 0 0 -1
    outer loop
      vertex 0.470928 -7.4852 0
      vertex 1.40536 7.36715 0
      vertex 1.40536 -7.36715 0
    endloop
  endfacet
  facet normal 0 0 -1
    outer loop
      vertex 0.470928 -7.4852 0
      vertex 0.470928 7.4852 0
      vertex 1.40536 7.36715 0
    endloop
  endfacet
  facet normal 0 0 -1
    outer loop
      vertex -0.470928 -7.4852 0
      vertex 0.470928 7.4852 0
      vertex 0.470928 -7.4852 0
    endloop
  endfacet
  facet normal 0 0 -1
    outer loop
      vertex -0.470928 -7.4852 0
      vertex -0.470928 7.4852 0
      vertex 0.470928 7.4852 0
    endloop
  endfacet
  facet normal 0 0 -1
    outer loop
      vertex -1.40536 -7.36715 0
      vertex -0.470928 7.4852 0
      vertex -0.470928 -7.4852 0
    endloop
  endfacet
  facet normal 0 0 -1
    outer loop
      vertex -1.40536 -7.36715 0
      vertex -1.40536 7.36715 0
      vertex -0.470928 7.4852 0
    endloop
  endfacet
  facet normal 0 0 -1
    outer loop
      vertex -2.31763 -7.13292 0
      vertex -1.40536 7.36715 0
      vertex -1.40536 -7.36715 0
    endloop
  endfacet
  facet normal 0 0 -1
    outer loop
      vertex -2.31763 -7.13292 0
      vertex -2.31763 7.13292 0
      vertex -1.40536 7.36715 0
    endloop
  endfacet
  facet normal 0 0 -1
    outer loop
      vertex -3.19334 -6.7862 0
      vertex -2.31763 7.13292 0
      vertex -2.31763 -7.13292 0
    endloop
  endfacet
  facet normal 0 0 -1
    outer loop
      vertex -3.19334 -6.7862 0
      vertex -3.19334 6.7862 0
      vertex -2.31763 7.13292 0
    endloop
  endfacet
  facet normal 0 0 -1
    outer loop
      vertex -4.0187 -6.33246 0
      vertex -3.19334 6.7862 0
      vertex -3.19334 -6.7862 0
    endloop
  endfacet
  facet normal 0 0 -1
    outer loop
      vertex -4.0187 -6.33246 0
      vertex -4.0187 6.33246 0
      vertex -3.19334 6.7862 0
    endloop
  endfacet
  facet normal 0 0 -1
    outer loop
      vertex -4.78068 -5.77885 0
      vertex -4.0187 6.33246 0
      vertex -4.0187 -6.33246 0
    endloop
  endfacet
  facet normal 0 0 -1
    outer loop
      vertex -4.78068 -5.77885 0
      vertex -4.78068 5.77885 0
      vertex -4.0187 6.33246 0
    endloop
  endfacet
  facet normal 0 0 -1
    outer loop
      vertex -5.46726 -5.1341 0
      vertex -4.78068 5.77885 0
      vertex -4.78068 -5.77885 0
    endloop
  endfacet
  facet normal 0 0 -1
    outer loop
      vertex -5.46726 -5.1341 0
      vertex -5.46726 5.1341 0
      vertex -4.78068 5.77885 0
    endloop
  endfacet
  facet normal 0 0 -1
    outer loop
      vertex -6.06763 -4.40839 0
      vertex -5.46726 5.1341 0
      vertex -5.46726 -5.1341 0
    endloop
  endfacet
  facet normal 0 0 -1
    outer loop
      vertex -6.06763 -4.40839 0
      vertex -6.06763 4.40839 0
      vertex -5.46726 5.1341 0
    endloop
  endfacet
  facet normal 0 0 -1
    outer loop
      vertex -6.5723 -3.61315 0
      vertex -6.06763 4.40839 0
      vertex -6.06763 -4.40839 0
    endloop
  endfacet
  facet normal 0 0 -1
    outer loop
      vertex -6.5723 -3.61315 0
      vertex -6.5723 3.61315 0
      vertex -6.06763 4.40839 0
    endloop
  endfacet
  facet normal 0 0 -1
    outer loop
      vertex -6.97332 -2.76093 0
      vertex -6.5723 3.61315 0
      vertex -6.5723 -3.61315 0
    endloop
  endfacet
  facet normal 0 0 -1
    outer loop
      vertex -6.97332 -2.76093 0
      vertex -6.97332 2.76093 0
      vertex -6.5723 3.61315 0
    endloop
  endfacet
  facet normal 0 0 -1
    outer loop
      vertex -7.26437 -1.86517 0
      vertex -6.97332 2.76093 0
      vertex -6.97332 -2.76093 0
    endloop
  endfacet
  facet normal 0 0 -1
    outer loop
      vertex -7.26437 -1.86517 0
      vertex -7.26437 1.86517 0
      vertex -6.97332 2.76093 0
    endloop
  endfacet
  facet normal 0 0 -1
    outer loop
      vertex -7.44086 -0.939999 0
      vertex -7.26437 1.86517 0
      vertex -7.26437 -1.86517 0
    endloop
  endfacet
  facet normal 0 0 -1
    outer loop
      vertex -7.44086 -0.939999 0
      vertex -7.44086 0.939999 0
      vertex -7.26437 1.86517 0
    endloop
  endfacet
  facet normal 0 -0 -1
    outer loop
      vertex -7.44086 0.939999 0
      vertex -7.44086 -0.939999 0
      vertex -7.5 0 0
    endloop
  endfacet
  facet normal 0.248689 -0.968583 0
    outer loop
      vertex 1.40536 -7.36715 0
      vertex 2.31763 -7.13292 5
      vertex 1.40536 -7.36715 5
    endloop
  endfacet
  facet normal 0.248689 -0.968583 0
    outer loop
      vertex 2.31763 -7.13292 5
      vertex 1.40536 -7.36715 0
      vertex 2.31763 -7.13292 0
    endloop
  endfacet
  facet normal 0.587785 -0.809017 0
    outer loop
      vertex 4.0187 -6.33246 0
      vertex 4.78068 -5.77885 5
      vertex 4.0187 -6.33246 5
    endloop
  endfacet
  facet normal 0.587785 -0.809017 0
    outer loop
      vertex 4.78068 -5.77885 5
      vertex 4.0187 -6.33246 0
      vertex 4.78068 -5.77885 0
    endloop
  endfacet
  facet normal 0.481749 -0.876309 0
    outer loop
      vertex 3.19334 -6.7862 0
      vertex 4.0187 -6.33246 5
      vertex 3.19334 -6.7862 5
    endloop
  endfacet
  facet normal 0.481749 -0.876309 0
    outer loop
      vertex 4.0187 -6.33246 5
      vertex 3.19334 -6.7862 0
      vertex 4.0187 -6.33246 0
    endloop
  endfacet
  facet normal 0.951057 -0.309017 0
    outer loop
      vertex 6.97332 -2.76093 5
      vertex 7.26437 -1.86517 0
      vertex 7.26437 -1.86517 5
    endloop
  endfacet
  facet normal 0.951057 -0.309017 0
    outer loop
      vertex 7.26437 -1.86517 0
      vertex 6.97332 -2.76093 5
      vertex 6.97332 -2.76093 0
    endloop
  endfacet
  facet normal -0.368126 -0.929776 0
    outer loop
      vertex -3.19334 -6.7862 0
      vertex -2.31763 -7.13292 5
      vertex -3.19334 -6.7862 5
    endloop
  endfacet
  facet normal -0.368126 -0.929776 -0
    outer loop
      vertex -2.31763 -7.13292 5
      vertex -3.19334 -6.7862 0
      vertex -2.31763 -7.13292 0
    endloop
  endfacet
  facet normal -0.248689 -0.968583 0
    outer loop
      vertex -2.31763 -7.13292 0
      vertex -1.40536 -7.36715 5
      vertex -2.31763 -7.13292 5
    endloop
  endfacet
  facet normal -0.248689 -0.968583 -0
    outer loop
      vertex -1.40536 -7.36715 5
      vertex -2.31763 -7.13292 0
      vertex -1.40536 -7.36715 0
    endloop
  endfacet
  facet normal -0.904829 -0.425776 0
    outer loop
      vertex -6.5723 -3.61315 0
      vertex -6.97332 -2.76093 5
      vertex -6.97332 -2.76093 0
    endloop
  endfacet
  facet normal -0.904829 -0.425776 0
    outer loop
      vertex -6.97332 -2.76093 5
      vertex -6.5723 -3.61315 0
      vertex -6.5723 -3.61315 5
    endloop
  endfacet
  facet normal -0.982286 -0.187386 0
    outer loop
      vertex -7.26437 -1.86517 0
      vertex -7.44086 -0.939999 5
      vertex -7.44086 -0.939999 0
    endloop
  endfacet
  facet normal -0.982286 -0.187386 0
    outer loop
      vertex -7.44086 -0.939999 5
      vertex -7.26437 -1.86517 0
      vertex -7.26437 -1.86517 5
    endloop
  endfacet
  facet normal -0.998027 -0.0627908 0
    outer loop
      vertex -7.44086 -0.939999 0
      vertex -7.5 0 5
      vertex -7.5 0 0
    endloop
  endfacet
  facet normal -0.998027 -0.0627908 0
    outer loop
      vertex -7.5 0 5
      vertex -7.44086 -0.939999 0
      vertex -7.44086 -0.939999 5
    endloop
  endfacet
  facet normal -0.587785 -0.809017 0
    outer loop
      vertex -4.78068 -5.77885 0
      vertex -4.0187 -6.33246 5
      vertex -4.78068 -5.77885 5
    endloop
  endfacet
  facet normal -0.587785 -0.809017 -0
    outer loop
      vertex -4.0187 -6.33246 5
      vertex -4.78068 -5.77885 0
      vertex -4.0187 -6.33246 0
    endloop
  endfacet
  facet normal -0.481749 -0.876309 0
    outer loop
      vertex -4.0187 -6.33246 0
      vertex -3.19334 -6.7862 5
      vertex -4.0187 -6.33246 5
    endloop
  endfacet
  facet normal -0.481749 -0.876309 -0
    outer loop
      vertex -3.19334 -6.7862 5
      vertex -4.0187 -6.33246 0
      vertex -3.19334 -6.7862 0
    endloop
  endfacet
  facet normal -0.125337 -0.992114 0
    outer loop
      vertex -1.40536 -7.36715 0
      vertex -0.470928 -7.4852 5
      vertex -1.40536 -7.36715 5
    endloop
  endfacet
  facet normal -0.125337 -0.992114 -0
    outer loop
      vertex -0.470928 -7.4852 5
      vertex -1.40536 -7.36715 0
      vertex -0.470928 -7.4852 0
    endloop
  endfacet
  facet normal 0 0 1
    outer loop
      vertex 1.61774 5.47273 3
      vertex 1.81773 5.27274 3
      vertex 1.81616 5.29781 3
    endloop
  endfacet
  facet normal 0 0 1
    outer loop
      vertex 3.53773 -3.99925 3
      vertex 3.73773 -4.19925 3
      vertex 3.73616 -4.17418 3
    endloop
  endfacet
  facet normal 0 0 1
    outer loop
      vertex 3.73773 -4.19925 3
      vertex 3.53773 -3.99925 3
      vertex 3.73773 -5.03125 3
    endloop
  endfacet
  facet normal 0 0 1
    outer loop
      vertex 3.53773 -3.99925 3
      vertex 3.73616 -4.17418 3
      vertex 3.73145 -4.14951 3
    endloop
  endfacet
  facet normal 0 0 1
    outer loop
      vertex 3.73773 -5.03125 3
      vertex 3.53773 -3.99925 3
      vertex 3.53773 -5.23125 3
    endloop
  endfacet
  facet normal 0 0 1
    outer loop
      vertex 3.53773 -3.99925 3
      vertex 3.73145 -4.14951 3
      vertex 3.72369 -4.12563 3
    endloop
  endfacet
  facet normal 0 0 1
    outer loop
      vertex 3.73773 -5.03125 3
      vertex 3.53773 -5.23125 3
      vertex 3.73419 -5.06873 3
    endloop
  endfacet
  facet normal 0 0 1
    outer loop
      vertex 3.53773 -3.99925 3
      vertex 3.72369 -4.12563 3
      vertex 3.713 -4.10291 3
    endloop
  endfacet
  facet normal 0 0 1
    outer loop
      vertex 3.73419 -5.06873 3
      vertex 3.53773 -5.23125 3
      vertex 3.72795 -5.09305 3
    endloop
  endfacet
  facet normal 0 0 1
    outer loop
      vertex 3.53773 -3.99925 3
      vertex 3.713 -4.10291 3
      vertex 3.69954 -4.0817 3
    endloop
  endfacet
  facet normal 0 0 1
    outer loop
      vertex 3.72795 -5.09305 3
      vertex 3.53773 -5.23125 3
      vertex 3.7187 -5.11641 3
    endloop
  endfacet
  facet normal 0 0 1
    outer loop
      vertex 3.53773 -3.99925 3
      vertex 3.69954 -4.0817 3
      vertex 3.68353 -4.06235 3
    endloop
  endfacet
  facet normal 0 0 1
    outer loop
      vertex 3.7187 -5.11641 3
      vertex 3.53773 -5.23125 3
      vertex 3.7066 -5.13841 3
    endloop
  endfacet
  facet normal 0 0 1
    outer loop
      vertex 3.53773 -3.99925 3
      vertex 3.68353 -4.06235 3
      vertex 3.66522 -4.04515 3
    endloop
  endfacet
  facet normal 0 0 1
    outer loop
      vertex 3.7066 -5.13841 3
      vertex 3.53773 -5.23125 3
      vertex 3.69183 -5.15874 3
    endloop
  endfacet
  facet normal 0 0 1
    outer loop
      vertex 3.53773 -3.99925 3
      vertex 3.66522 -4.04515 3
      vertex 3.6449 -4.03038 3
    endloop
  endfacet
  facet normal 0 0 1
    outer loop
      vertex 3.69183 -5.15874 3
      vertex 3.53773 -5.23125 3
      vertex 3.67464 -5.17705 3
    endloop
  endfacet
  facet normal 0 0 1
    outer loop
      vertex 3.53773 -3.99925 3
      vertex 3.6449 -4.03038 3
      vertex 3.62289 -4.01828 3
    endloop
  endfacet
  facet normal 0 0 1
    outer loop
      vertex 3.67464 -5.17705 3
      vertex 3.53773 -5.23125 3
      vertex 3.65529 -5.19305 3
    endloop
  endfacet
  facet normal 0 0 1
    outer loop
      vertex 3.53773 -3.99925 3
      vertex 3.62289 -4.01828 3
      vertex 3.59953 -4.00903 3
    endloop
  endfacet
  facet normal 0 0 1
    outer loop
      vertex 3.65529 -5.19305 3
      vertex 3.53773 -5.23125 3
      vertex 3.63408 -5.20651 3
    endloop
  endfacet
  facet normal 0 0 1
    outer loop
      vertex 3.53773 -3.99925 3
      vertex 3.59953 -4.00903 3
      vertex 3.57521 -4.00279 3
    endloop
  endfacet
  facet normal 0 0 1
    outer loop
      vertex 3.63408 -5.20651 3
      vertex 3.53773 -5.23125 3
      vertex 3.61136 -5.21721 3
    endloop
  endfacet
  facet normal 0 0 1
    outer loop
      vertex 3.61136 -5.21721 3
      vertex 3.53773 -5.23125 3
      vertex 3.58748 -5.22496 3
    endloop
  endfacet
  facet normal 0 0 1
    outer loop
      vertex 3.58748 -5.22496 3
      vertex 3.53773 -5.23125 3
      vertex 3.56281 -5.22968 3
    endloop
  endfacet
  facet normal -0 0 1
    outer loop
      vertex 1.81773 -3.99925 3
      vertex 3.53773 -5.23125 3
      vertex 3.53773 -3.99925 3
    endloop
  endfacet
  facet normal 0 0 1
    outer loop
      vertex 1.61774 5.47273 3
      vertex 1.81616 5.29781 3
      vertex 1.81145 5.32248 3
    endloop
  endfacet
  facet normal 0 0 1
    outer loop
      vertex 1.61774 5.47273 3
      vertex 1.81145 5.32248 3
      vertex 1.8037 5.34636 3
    endloop
  endfacet
  facet normal 0 0 1
    outer loop
      vertex 1.61774 5.47273 3
      vertex 1.8037 5.34636 3
      vertex 1.793 5.36908 3
    endloop
  endfacet
  facet normal 0 0 1
    outer loop
      vertex 1.61774 5.47273 3
      vertex 1.793 5.36908 3
      vertex 1.77954 5.39029 3
    endloop
  endfacet
  facet normal 0 0 1
    outer loop
      vertex 1.61774 5.47273 3
      vertex 1.77954 5.39029 3
      vertex 1.76353 5.40964 3
    endloop
  endfacet
  facet normal 0 0 1
    outer loop
      vertex 1.61774 5.47273 3
      vertex 1.76353 5.40964 3
      vertex 1.74522 5.42683 3
    endloop
  endfacet
  facet normal 0 0 1
    outer loop
      vertex 1.61774 5.47273 3
      vertex 1.74522 5.42683 3
      vertex 1.7249 5.4416 3
    endloop
  endfacet
  facet normal 0 0 1
    outer loop
      vertex 1.61774 5.47273 3
      vertex 1.7249 5.4416 3
      vertex 1.7029 5.4537 3
    endloop
  endfacet
  facet normal 0 0 1
    outer loop
      vertex 1.61774 5.47273 3
      vertex 1.7029 5.4537 3
      vertex 1.67953 5.46295 3
    endloop
  endfacet
  facet normal 0 0 1
    outer loop
      vertex 1.61774 5.47273 3
      vertex 1.67953 5.46295 3
      vertex 1.65521 5.46919 3
    endloop
  endfacet
  facet normal -0 0 1
    outer loop
      vertex -0.515259 5.47273 3
      vertex 1.81773 5.27274 3
      vertex 1.61774 5.47273 3
    endloop
  endfacet
  facet normal 0 0 1
    outer loop
      vertex 1.81773 5.27274 3
      vertex -0.515259 5.47273 3
      vertex -1.14226 3.62953 3
    endloop
  endfacet
  facet normal 0 0 1
    outer loop
      vertex -0.618484 5.44403 3
      vertex -0.515259 5.47273 3
      vertex -0.540329 5.47116 3
    endloop
  endfacet
  facet normal 0 0 1
    outer loop
      vertex -0.618484 5.44403 3
      vertex -0.540329 5.47116 3
      vertex -0.565002 5.46645 3
    endloop
  endfacet
  facet normal 0 0 1
    outer loop
      vertex -0.618484 5.44403 3
      vertex -0.565002 5.46645 3
      vertex -0.588882 5.45869 3
    endloop
  endfacet
  facet normal 0 0 1
    outer loop
      vertex -0.515259 5.47273 3
      vertex -0.618484 5.44403 3
      vertex -1.14226 3.62953 3
    endloop
  endfacet
  facet normal 0 0 1
    outer loop
      vertex 1.81773 5.27274 3
      vertex -1.14226 3.62953 3
      vertex 1.81773 -3.99925 3
    endloop
  endfacet
  facet normal 0 0 1
    outer loop
      vertex -1.14226 -3.99925 3
      vertex 1.81773 -3.99925 3
      vertex -1.14226 3.62953 3
    endloop
  endfacet
  facet normal -0 0 1
    outer loop
      vertex -1.14226 -3.99925 3
      vertex 3.53773 -5.23125 3
      vertex 1.81773 -3.99925 3
    endloop
  endfacet
  facet normal 0 0 1
    outer loop
      vertex -2.86226 -5.23125 3
      vertex -1.14226 -3.99925 3
      vertex -2.86226 -3.99925 3
    endloop
  endfacet
  facet normal 0 0 1
    outer loop
      vertex -1.14226 -3.99925 3
      vertex -2.86226 -5.23125 3
      vertex 3.53773 -5.23125 3
    endloop
  endfacet
  facet normal 0 0 1
    outer loop
      vertex -3.06226 -4.19925 3
      vertex -2.86226 -3.99925 3
      vertex -2.88733 -4.00082 3
    endloop
  endfacet
  facet normal 0 0 1
    outer loop
      vertex -2.86226 -3.99925 3
      vertex -3.06226 -4.19925 3
      vertex -2.86226 -5.23125 3
    endloop
  endfacet
  facet normal 0 0 1
    outer loop
      vertex -3.06226 -4.19925 3
      vertex -2.88733 -4.00082 3
      vertex -2.912 -4.00554 3
    endloop
  endfacet
  facet normal 0 0 1
    outer loop
      vertex -2.86226 -5.23125 3
      vertex -3.06226 -4.19925 3
      vertex -3.06226 -5.03125 3
    endloop
  endfacet
  facet normal 0 0 1
    outer loop
      vertex -3.06226 -4.19925 3
      vertex -2.912 -4.00554 3
      vertex -2.93588 -4.01329 3
    endloop
  endfacet
  facet normal 0 0 1
    outer loop
      vertex -2.86226 -5.23125 3
      vertex -3.06226 -5.03125 3
      vertex -2.89973 -5.22771 3
    endloop
  endfacet
  facet normal 0 0 1
    outer loop
      vertex -3.06226 -4.19925 3
      vertex -2.93588 -4.01329 3
      vertex -2.9586 -4.02399 3
    endloop
  endfacet
  facet normal 0 0 1
    outer loop
      vertex -2.89973 -5.22771 3
      vertex -3.06226 -5.03125 3
      vertex -2.92406 -5.22147 3
    endloop
  endfacet
  facet normal 0 0 1
    outer loop
      vertex -3.06226 -4.19925 3
      vertex -2.9586 -4.02399 3
      vertex -2.97981 -4.03745 3
    endloop
  endfacet
  facet normal 0 0 1
    outer loop
      vertex -2.92406 -5.22147 3
      vertex -3.06226 -5.03125 3
      vertex -2.94742 -5.21222 3
    endloop
  endfacet
  facet normal 0 0 1
    outer loop
      vertex -3.06226 -4.19925 3
      vertex -2.97981 -4.03745 3
      vertex -2.99916 -4.05345 3
    endloop
  endfacet
  facet normal 0 0 1
    outer loop
      vertex -2.94742 -5.21222 3
      vertex -3.06226 -5.03125 3
      vertex -2.96942 -5.20012 3
    endloop
  endfacet
  facet normal 0 0 1
    outer loop
      vertex -3.06226 -4.19925 3
      vertex -2.99916 -4.05345 3
      vertex -3.01636 -4.07176 3
    endloop
  endfacet
  facet normal 0 0 1
    outer loop
      vertex -2.96942 -5.20012 3
      vertex -3.06226 -5.03125 3
      vertex -2.98975 -5.18535 3
    endloop
  endfacet
  facet normal 0 0 1
    outer loop
      vertex -3.06226 -4.19925 3
      vertex -3.01636 -4.07176 3
      vertex -3.03113 -4.09209 3
    endloop
  endfacet
  facet normal 0 0 1
    outer loop
      vertex -2.98975 -5.18535 3
      vertex -3.06226 -5.03125 3
      vertex -3.00806 -5.16815 3
    endloop
  endfacet
  facet normal 0 0 1
    outer loop
      vertex -3.06226 -4.19925 3
      vertex -3.03113 -4.09209 3
      vertex -3.04323 -4.11409 3
    endloop
  endfacet
  facet normal 0 0 1
    outer loop
      vertex -3.00806 -5.16815 3
      vertex -3.06226 -5.03125 3
      vertex -3.02406 -5.1488 3
    endloop
  endfacet
  facet normal 0 0 1
    outer loop
      vertex -3.06226 -4.19925 3
      vertex -3.04323 -4.11409 3
      vertex -3.05247 -4.13745 3
    endloop
  endfacet
  facet normal 0 0 1
    outer loop
      vertex -3.02406 -5.1488 3
      vertex -3.06226 -5.03125 3
      vertex -3.03752 -5.12759 3
    endloop
  endfacet
  facet normal 0 0 1
    outer loop
      vertex -3.06226 -4.19925 3
      vertex -3.05247 -4.13745 3
      vertex -3.05872 -4.16177 3
    endloop
  endfacet
  facet normal 0 0 1
    outer loop
      vertex -3.03752 -5.12759 3
      vertex -3.06226 -5.03125 3
      vertex -3.04822 -5.10487 3
    endloop
  endfacet
  facet normal 0 0 1
    outer loop
      vertex -3.04822 -5.10487 3
      vertex -3.06226 -5.03125 3
      vertex -3.05597 -5.08099 3
    endloop
  endfacet
  facet normal 0 0 1
    outer loop
      vertex -3.05597 -5.08099 3
      vertex -3.06226 -5.03125 3
      vertex -3.06068 -5.05632 3
    endloop
  endfacet
  facet normal -0 0 1
    outer loop
      vertex -3.15749 3.91403 3
      vertex -1.14226 3.62953 3
      vertex -0.618484 5.44403 3
    endloop
  endfacet
  facet normal 0 0 1
    outer loop
      vertex -1.14226 3.62953 3
      vertex -3.15749 3.91403 3
      vertex -2.95264 2.56149 3
    endloop
  endfacet
  facet normal -0 0 1
    outer loop
      vertex -3.25426 3.74274 3
      vertex -2.95264 2.56149 3
      vertex -3.15749 3.91403 3
    endloop
  endfacet
  facet normal -0 0 1
    outer loop
      vertex -3.25426 2.73375 3
      vertex -2.95264 2.56149 3
      vertex -3.25426 3.74274 3
    endloop
  endfacet
  facet normal 0 0 1
    outer loop
      vertex -2.95264 2.56149 3
      vertex -3.25426 2.73375 3
      vertex -2.9691 2.55278 3
    endloop
  endfacet
  facet normal 0 0 1
    outer loop
      vertex -2.9691 2.55278 3
      vertex -3.25426 2.73375 3
      vertex -2.99246 2.54353 3
    endloop
  endfacet
  facet normal 0 0 1
    outer loop
      vertex -2.99246 2.54353 3
      vertex -3.25426 2.73375 3
      vertex -3.01678 2.53729 3
    endloop
  endfacet
  facet normal 0 0 1
    outer loop
      vertex -3.01678 2.53729 3
      vertex -3.25426 2.73375 3
      vertex -3.0417 2.53415 3
    endloop
  endfacet
  facet normal 0 0 1
    outer loop
      vertex -3.0417 2.53415 3
      vertex -3.25426 2.73375 3
      vertex -3.06682 2.53415 3
    endloop
  endfacet
  facet normal 0 0 1
    outer loop
      vertex -3.06682 2.53415 3
      vertex -3.25426 2.73375 3
      vertex -3.09174 2.53729 3
    endloop
  endfacet
  facet normal 0 0 1
    outer loop
      vertex -3.09174 2.53729 3
      vertex -3.25426 2.73375 3
      vertex -3.11606 2.54353 3
    endloop
  endfacet
  facet normal 0 0 1
    outer loop
      vertex -3.25426 3.74274 3
      vertex -3.15749 3.91403 3
      vertex -3.17815 3.89975 3
    endloop
  endfacet
  facet normal 0 0 1
    outer loop
      vertex -3.11606 2.54353 3
      vertex -3.25426 2.73375 3
      vertex -3.13942 2.55278 3
    endloop
  endfacet
  facet normal 0 0 1
    outer loop
      vertex -3.25426 3.74274 3
      vertex -3.17815 3.89975 3
      vertex -3.19684 3.88298 3
    endloop
  endfacet
  facet normal 0 0 1
    outer loop
      vertex -3.13942 2.55278 3
      vertex -3.25426 2.73375 3
      vertex -3.16142 2.56488 3
    endloop
  endfacet
  facet normal 0 0 1
    outer loop
      vertex -3.25426 3.74274 3
      vertex -3.19684 3.88298 3
      vertex -3.2133 3.86401 3
    endloop
  endfacet
  facet normal 0 0 1
    outer loop
      vertex -3.16142 2.56488 3
      vertex -3.25426 2.73375 3
      vertex -3.18175 2.57965 3
    endloop
  endfacet
  facet normal 0 0 1
    outer loop
      vertex -3.25426 3.74274 3
      vertex -3.2133 3.86401 3
      vertex -3.22725 3.84312 3
    endloop
  endfacet
  facet normal 0 0 1
    outer loop
      vertex -3.18175 2.57965 3
      vertex -3.25426 2.73375 3
      vertex -3.20006 2.59685 3
    endloop
  endfacet
  facet normal 0 0 1
    outer loop
      vertex -3.25426 3.74274 3
      vertex -3.22725 3.84312 3
      vertex -3.23846 3.82065 3
    endloop
  endfacet
  facet normal 0 0 1
    outer loop
      vertex -3.20006 2.59685 3
      vertex -3.25426 2.73375 3
      vertex -3.21606 2.6162 3
    endloop
  endfacet
  facet normal 0 0 1
    outer loop
      vertex -3.25426 3.74274 3
      vertex -3.23846 3.82065 3
      vertex -3.24678 3.79695 3
    endloop
  endfacet
  facet normal 0 0 1
    outer loop
      vertex -3.21606 2.6162 3
      vertex -3.25426 2.73375 3
      vertex -3.22952 2.63741 3
    endloop
  endfacet
  facet normal 0 0 1
    outer loop
      vertex -3.25426 3.74274 3
      vertex -3.24678 3.79695 3
      vertex -3.25204 3.77238 3
    endloop
  endfacet
  facet normal 0 0 1
    outer loop
      vertex -3.22952 2.63741 3
      vertex -3.25426 2.73375 3
      vertex -3.24022 2.66013 3
    endloop
  endfacet
  facet normal 0 0 1
    outer loop
      vertex -3.24022 2.66013 3
      vertex -3.25426 2.73375 3
      vertex -3.24797 2.68401 3
    endloop
  endfacet
  facet normal 0 0 1
    outer loop
      vertex -3.24797 2.68401 3
      vertex -3.25426 2.73375 3
      vertex -3.25269 2.70868 3
    endloop
  endfacet
  facet normal -0.187917 0.982185 0
    outer loop
      vertex 3.58748 -5.22496 3
      vertex 3.56281 -5.22968 5
      vertex 3.58748 -5.22496 5
    endloop
  endfacet
  facet normal -0.187917 0.982185 0
    outer loop
      vertex 3.56281 -5.22968 5
      vertex 3.58748 -5.22496 3
      vertex 3.56281 -5.22968 3
    endloop
  endfacet
  facet normal -0.30869 0.951163 0
    outer loop
      vertex 3.61136 -5.21721 3
      vertex 3.58748 -5.22496 5
      vertex 3.61136 -5.21721 5
    endloop
  endfacet
  facet normal -0.30869 0.951163 0
    outer loop
      vertex 3.58748 -5.22496 5
      vertex 3.61136 -5.21721 3
      vertex 3.58748 -5.22496 3
    endloop
  endfacet
  facet normal -0.426065 0.904692 0
    outer loop
      vertex 3.63408 -5.20651 3
      vertex 3.61136 -5.21721 5
      vertex 3.63408 -5.20651 5
    endloop
  endfacet
  facet normal -0.426065 0.904692 0
    outer loop
      vertex 3.61136 -5.21721 5
      vertex 3.63408 -5.20651 3
      vertex 3.61136 -5.21721 3
    endloop
  endfacet
  facet normal -0.535819 0.844333 0
    outer loop
      vertex 3.65529 -5.19305 3
      vertex 3.63408 -5.20651 5
      vertex 3.65529 -5.19305 5
    endloop
  endfacet
  facet normal -0.535819 0.844333 0
    outer loop
      vertex 3.63408 -5.20651 5
      vertex 3.65529 -5.19305 3
      vertex 3.63408 -5.20651 3
    endloop
  endfacet
  facet normal -0.637242 0.770664 0
    outer loop
      vertex 3.67464 -5.17705 3
      vertex 3.65529 -5.19305 5
      vertex 3.67464 -5.17705 5
    endloop
  endfacet
  facet normal -0.637242 0.770664 0
    outer loop
      vertex 3.65529 -5.19305 5
      vertex 3.67464 -5.17705 3
      vertex 3.65529 -5.19305 3
    endloop
  endfacet
  facet normal -0.729053 0.684458 0
    outer loop
      vertex 3.67464 -5.17705 3
      vertex 3.69183 -5.15874 5
      vertex 3.69183 -5.15874 3
    endloop
  endfacet
  facet normal -0.729053 0.684458 0
    outer loop
      vertex 3.69183 -5.15874 5
      vertex 3.67464 -5.17705 3
      vertex 3.67464 -5.17705 5
    endloop
  endfacet
  facet normal -0.809029 0.587769 0
    outer loop
      vertex 3.69183 -5.15874 3
      vertex 3.7066 -5.13841 5
      vertex 3.7066 -5.13841 3
    endloop
  endfacet
  facet normal -0.809029 0.587769 0
    outer loop
      vertex 3.7066 -5.13841 5
      vertex 3.69183 -5.15874 3
      vertex 3.69183 -5.15874 5
    endloop
  endfacet
  facet normal -0.876216 0.481919 0
    outer loop
      vertex 3.7066 -5.13841 3
      vertex 3.7187 -5.11641 5
      vertex 3.7187 -5.11641 3
    endloop
  endfacet
  facet normal -0.876216 0.481919 0
    outer loop
      vertex 3.7187 -5.11641 5
      vertex 3.7066 -5.13841 3
      vertex 3.7066 -5.13841 5
    endloop
  endfacet
  facet normal -0.929761 0.368163 0
    outer loop
      vertex 3.7187 -5.11641 3
      vertex 3.72795 -5.09305 5
      vertex 3.72795 -5.09305 3
    endloop
  endfacet
  facet normal -0.929761 0.368163 0
    outer loop
      vertex 3.72795 -5.09305 5
      vertex 3.7187 -5.11641 3
      vertex 3.7187 -5.11641 5
    endloop
  endfacet
  facet normal -0.968625 0.248529 0
    outer loop
      vertex 3.72795 -5.09305 3
      vertex 3.73419 -5.06873 5
      vertex 3.73419 -5.06873 3
    endloop
  endfacet
  facet normal -0.968625 0.248529 0
    outer loop
      vertex 3.73419 -5.06873 5
      vertex 3.72795 -5.09305 3
      vertex 3.72795 -5.09305 5
    endloop
  endfacet
  facet normal -0.995569 0.0940319 0
    outer loop
      vertex 3.73419 -5.06873 3
      vertex 3.73773 -5.03125 5
      vertex 3.73773 -5.03125 3
    endloop
  endfacet
  facet normal -0.995569 0.0940319 0
    outer loop
      vertex 3.73773 -5.03125 5
      vertex 3.73419 -5.06873 3
      vertex 3.73419 -5.06873 5
    endloop
  endfacet
  facet normal -1 0 0
    outer loop
      vertex 3.73773 -5.03125 3
      vertex 3.73773 -4.19925 5
      vertex 3.73773 -4.19925 3
    endloop
  endfacet
  facet normal -1 -0 0
    outer loop
      vertex 3.73773 -4.19925 5
      vertex 3.73773 -5.03125 3
      vertex 3.73773 -5.03125 5
    endloop
  endfacet
  facet normal -0.998045 -0.0625022 0
    outer loop
      vertex 3.73773 -4.19925 3
      vertex 3.73616 -4.17418 5
      vertex 3.73616 -4.17418 3
    endloop
  endfacet
  facet normal -0.998045 -0.0625022 0
    outer loop
      vertex 3.73616 -4.17418 5
      vertex 3.73773 -4.19925 3
      vertex 3.73773 -4.19925 5
    endloop
  endfacet
  facet normal -0.982258 -0.187533 0
    outer loop
      vertex 3.73616 -4.17418 3
      vertex 3.73145 -4.14951 5
      vertex 3.73145 -4.14951 3
    endloop
  endfacet
  facet normal -0.982258 -0.187533 0
    outer loop
      vertex 3.73145 -4.14951 5
      vertex 3.73616 -4.17418 3
      vertex 3.73616 -4.17418 5
    endloop
  endfacet
  facet normal -0.951046 -0.30905 0
    outer loop
      vertex 3.73145 -4.14951 3
      vertex 3.72369 -4.12563 5
      vertex 3.72369 -4.12563 3
    endloop
  endfacet
  facet normal -0.951046 -0.30905 0
    outer loop
      vertex 3.72369 -4.12563 5
      vertex 3.73145 -4.14951 3
      vertex 3.73145 -4.14951 5
    endloop
  endfacet
  facet normal -0.904846 -0.425739 0
    outer loop
      vertex 3.72369 -4.12563 3
      vertex 3.713 -4.10291 5
      vertex 3.713 -4.10291 3
    endloop
  endfacet
  facet normal -0.904846 -0.425739 0
    outer loop
      vertex 3.713 -4.10291 5
      vertex 3.72369 -4.12563 3
      vertex 3.72369 -4.12563 5
    endloop
  endfacet
  facet normal -0.844333 -0.535819 0
    outer loop
      vertex 3.713 -4.10291 3
      vertex 3.69954 -4.0817 5
      vertex 3.69954 -4.0817 3
    endloop
  endfacet
  facet normal -0.844333 -0.535819 0
    outer loop
      vertex 3.69954 -4.0817 5
      vertex 3.713 -4.10291 3
      vertex 3.713 -4.10291 5
    endloop
  endfacet
  facet normal -0.770468 -0.637478 0
    outer loop
      vertex 3.69954 -4.0817 3
      vertex 3.68353 -4.06235 5
      vertex 3.68353 -4.06235 3
    endloop
  endfacet
  facet normal -0.770468 -0.637478 0
    outer loop
      vertex 3.68353 -4.06235 5
      vertex 3.69954 -4.0817 3
      vertex 3.69954 -4.0817 5
    endloop
  endfacet
  facet normal -0.684669 -0.728854 0
    outer loop
      vertex 3.66522 -4.04515 3
      vertex 3.68353 -4.06235 5
      vertex 3.66522 -4.04515 5
    endloop
  endfacet
  facet normal -0.684669 -0.728854 -0
    outer loop
      vertex 3.68353 -4.06235 5
      vertex 3.66522 -4.04515 3
      vertex 3.68353 -4.06235 3
    endloop
  endfacet
  facet normal -0.587959 -0.808891 0
    outer loop
      vertex 3.6449 -4.03038 3
      vertex 3.66522 -4.04515 5
      vertex 3.6449 -4.03038 5
    endloop
  endfacet
  facet normal -0.587959 -0.808891 -0
    outer loop
      vertex 3.66522 -4.04515 5
      vertex 3.6449 -4.03038 3
      vertex 3.66522 -4.04515 3
    endloop
  endfacet
  facet normal -0.481751 -0.876308 0
    outer loop
      vertex 3.62289 -4.01828 3
      vertex 3.6449 -4.03038 5
      vertex 3.62289 -4.01828 5
    endloop
  endfacet
  facet normal -0.481751 -0.876308 -0
    outer loop
      vertex 3.6449 -4.03038 5
      vertex 3.62289 -4.01828 3
      vertex 3.6449 -4.03038 3
    endloop
  endfacet
  facet normal -0.368163 -0.929761 0
    outer loop
      vertex 3.59953 -4.00903 3
      vertex 3.62289 -4.01828 5
      vertex 3.59953 -4.00903 5
    endloop
  endfacet
  facet normal -0.368163 -0.929761 -0
    outer loop
      vertex 3.62289 -4.01828 5
      vertex 3.59953 -4.00903 3
      vertex 3.62289 -4.01828 3
    endloop
  endfacet
  facet normal -0.248529 -0.968625 0
    outer loop
      vertex 3.57521 -4.00279 3
      vertex 3.59953 -4.00903 5
      vertex 3.57521 -4.00279 5
    endloop
  endfacet
  facet normal -0.248529 -0.968625 -0
    outer loop
      vertex 3.59953 -4.00903 5
      vertex 3.57521 -4.00279 3
      vertex 3.59953 -4.00903 3
    endloop
  endfacet
  facet normal -0.0940319 -0.995569 0
    outer loop
      vertex 3.53773 -3.99925 3
      vertex 3.57521 -4.00279 5
      vertex 3.53773 -3.99925 5
    endloop
  endfacet
  facet normal -0.0940319 -0.995569 -0
    outer loop
      vertex 3.57521 -4.00279 5
      vertex 3.53773 -3.99925 3
      vertex 3.57521 -4.00279 3
    endloop
  endfacet
  facet normal 0 -1 0
    outer loop
      vertex 1.81773 -3.99925 3
      vertex 3.53773 -3.99925 5
      vertex 1.81773 -3.99925 5
    endloop
  endfacet
  facet normal 0 -1 -0
    outer loop
      vertex 3.53773 -3.99925 5
      vertex 1.81773 -3.99925 3
      vertex 3.53773 -3.99925 3
    endloop
  endfacet
  facet normal -1 0 0
    outer loop
      vertex 1.81773 -3.99925 3
      vertex 1.81773 5.27274 5
      vertex 1.81773 5.27274 3
    endloop
  endfacet
  facet normal -1 -0 0
    outer loop
      vertex 1.81773 5.27274 5
      vertex 1.81773 -3.99925 3
      vertex 1.81773 -3.99925 5
    endloop
  endfacet
  facet normal -0.998045 -0.0625022 0
    outer loop
      vertex 1.81773 5.27274 3
      vertex 1.81616 5.29781 5
      vertex 1.81616 5.29781 3
    endloop
  endfacet
  facet normal -0.998045 -0.0625022 0
    outer loop
      vertex 1.81616 5.29781 5
      vertex 1.81773 5.27274 3
      vertex 1.81773 5.27274 5
    endloop
  endfacet
  facet normal -0.982258 -0.187533 0
    outer loop
      vertex 1.81616 5.29781 3
      vertex 1.81145 5.32248 5
      vertex 1.81145 5.32248 3
    endloop
  endfacet
  facet normal -0.982258 -0.187533 0
    outer loop
      vertex 1.81145 5.32248 5
      vertex 1.81616 5.29781 3
      vertex 1.81616 5.29781 5
    endloop
  endfacet
  facet normal -0.951163 -0.30869 0
    outer loop
      vertex 1.81145 5.32248 3
      vertex 1.8037 5.34636 5
      vertex 1.8037 5.34636 3
    endloop
  endfacet
  facet normal -0.951163 -0.30869 0
    outer loop
      vertex 1.8037 5.34636 5
      vertex 1.81145 5.32248 3
      vertex 1.81145 5.32248 5
    endloop
  endfacet
  facet normal -0.904692 -0.426065 0
    outer loop
      vertex 1.8037 5.34636 3
      vertex 1.793 5.36908 5
      vertex 1.793 5.36908 3
    endloop
  endfacet
  facet normal -0.904692 -0.426065 0
    outer loop
      vertex 1.793 5.36908 5
      vertex 1.8037 5.34636 3
      vertex 1.8037 5.34636 5
    endloop
  endfacet
  facet normal -0.844333 -0.535819 0
    outer loop
      vertex 1.793 5.36908 3
      vertex 1.77954 5.39029 5
      vertex 1.77954 5.39029 3
    endloop
  endfacet
  facet normal -0.844333 -0.535819 0
    outer loop
      vertex 1.77954 5.39029 5
      vertex 1.793 5.36908 3
      vertex 1.793 5.36908 5
    endloop
  endfacet
  facet normal -0.770468 -0.637478 0
    outer loop
      vertex 1.77954 5.39029 3
      vertex 1.76353 5.40964 5
      vertex 1.76353 5.40964 3
    endloop
  endfacet
  facet normal -0.770468 -0.637478 0
    outer loop
      vertex 1.76353 5.40964 5
      vertex 1.77954 5.39029 3
      vertex 1.77954 5.39029 5
    endloop
  endfacet
  facet normal -0.684458 -0.729053 0
    outer loop
      vertex 1.74522 5.42683 3
      vertex 1.76353 5.40964 5
      vertex 1.74522 5.42683 5
    endloop
  endfacet
  facet normal -0.684458 -0.729053 -0
    outer loop
      vertex 1.76353 5.40964 5
      vertex 1.74522 5.42683 3
      vertex 1.76353 5.40964 3
    endloop
  endfacet
  facet normal -0.587959 -0.808891 0
    outer loop
      vertex 1.7249 5.4416 3
      vertex 1.74522 5.42683 5
      vertex 1.7249 5.4416 5
    endloop
  endfacet
  facet normal -0.587959 -0.808891 -0
    outer loop
      vertex 1.74522 5.42683 5
      vertex 1.7249 5.4416 3
      vertex 1.74522 5.42683 3
    endloop
  endfacet
  facet normal -0.481919 -0.876216 0
    outer loop
      vertex 1.7029 5.4537 3
      vertex 1.7249 5.4416 5
      vertex 1.7029 5.4537 5
    endloop
  endfacet
  facet normal -0.481919 -0.876216 -0
    outer loop
      vertex 1.7249 5.4416 5
      vertex 1.7029 5.4537 3
      vertex 1.7249 5.4416 3
    endloop
  endfacet
  facet normal -0.368027 -0.929815 0
    outer loop
      vertex 1.67953 5.46295 3
      vertex 1.7029 5.4537 5
      vertex 1.67953 5.46295 5
    endloop
  endfacet
  facet normal -0.368027 -0.929815 -0
    outer loop
      vertex 1.7029 5.4537 5
      vertex 1.67953 5.46295 3
      vertex 1.7029 5.4537 3
    endloop
  endfacet
  facet normal -0.248529 -0.968625 0
    outer loop
      vertex 1.65521 5.46919 3
      vertex 1.67953 5.46295 5
      vertex 1.65521 5.46919 5
    endloop
  endfacet
  facet normal -0.248529 -0.968625 -0
    outer loop
      vertex 1.67953 5.46295 5
      vertex 1.65521 5.46919 3
      vertex 1.67953 5.46295 3
    endloop
  endfacet
  facet normal -0.0940568 -0.995567 0
    outer loop
      vertex 1.61774 5.47273 3
      vertex 1.65521 5.46919 5
      vertex 1.61774 5.47273 5
    endloop
  endfacet
  facet normal -0.0940568 -0.995567 -0
    outer loop
      vertex 1.65521 5.46919 5
      vertex 1.61774 5.47273 3
      vertex 1.65521 5.46919 3
    endloop
  endfacet
  facet normal 0 -1 0
    outer loop
      vertex -0.515259 5.47273 3
      vertex 1.61774 5.47273 5
      vertex -0.515259 5.47273 5
    endloop
  endfacet
  facet normal 0 -1 -0
    outer loop
      vertex 1.61774 5.47273 5
      vertex -0.515259 5.47273 3
      vertex 1.61774 5.47273 3
    endloop
  endfacet
  facet normal 0.0625022 -0.998045 0
    outer loop
      vertex -0.540329 5.47116 3
      vertex -0.515259 5.47273 5
      vertex -0.540329 5.47116 5
    endloop
  endfacet
  facet normal 0.0625022 -0.998045 0
    outer loop
      vertex -0.515259 5.47273 5
      vertex -0.540329 5.47116 3
      vertex -0.515259 5.47273 3
    endloop
  endfacet
  facet normal 0.187511 -0.982263 0
    outer loop
      vertex -0.565002 5.46645 3
      vertex -0.540329 5.47116 5
      vertex -0.565002 5.46645 5
    endloop
  endfacet
  facet normal 0.187511 -0.982263 0
    outer loop
      vertex -0.540329 5.47116 5
      vertex -0.565002 5.46645 3
      vertex -0.540329 5.47116 3
    endloop
  endfacet
  facet normal 0.30905 -0.951046 0
    outer loop
      vertex -0.588882 5.45869 3
      vertex -0.565002 5.46645 5
      vertex -0.588882 5.45869 5
    endloop
  endfacet
  facet normal 0.30905 -0.951046 0
    outer loop
      vertex -0.565002 5.46645 5
      vertex -0.588882 5.45869 3
      vertex -0.565002 5.46645 3
    endloop
  endfacet
  facet normal 0.443796 -0.896128 0
    outer loop
      vertex -0.618484 5.44403 3
      vertex -0.588882 5.45869 5
      vertex -0.618484 5.44403 5
    endloop
  endfacet
  facet normal 0.443796 -0.896128 0
    outer loop
      vertex -0.588882 5.45869 5
      vertex -0.618484 5.44403 3
      vertex -0.588882 5.45869 3
    endloop
  endfacet
  facet normal 0.516131 -0.85651 0
    outer loop
      vertex -3.15749 3.91403 3
      vertex -0.618484 5.44403 5
      vertex -3.15749 3.91403 5
    endloop
  endfacet
  facet normal 0.516131 -0.85651 0
    outer loop
      vertex -0.618484 5.44403 5
      vertex -3.15749 3.91403 3
      vertex -0.618484 5.44403 3
    endloop
  endfacet
  facet normal 0.568589 -0.822622 0
    outer loop
      vertex -3.17815 3.89975 3
      vertex -3.15749 3.91403 5
      vertex -3.17815 3.89975 5
    endloop
  endfacet
  facet normal 0.568589 -0.822622 0
    outer loop
      vertex -3.15749 3.91403 5
      vertex -3.17815 3.89975 3
      vertex -3.15749 3.91403 3
    endloop
  endfacet
  facet normal 0.667842 -0.744303 0
    outer loop
      vertex -3.19684 3.88298 3
      vertex -3.17815 3.89975 5
      vertex -3.19684 3.88298 5
    endloop
  endfacet
  facet normal 0.667842 -0.744303 0
    outer loop
      vertex -3.17815 3.89975 5
      vertex -3.19684 3.88298 3
      vertex -3.17815 3.89975 3
    endloop
  endfacet
  facet normal 0.755308 -0.65537 0
    outer loop
      vertex -3.2133 3.86401 5
      vertex -3.19684 3.88298 3
      vertex -3.19684 3.88298 5
    endloop
  endfacet
  facet normal 0.755308 -0.65537 0
    outer loop
      vertex -3.19684 3.88298 3
      vertex -3.2133 3.86401 5
      vertex -3.2133 3.86401 3
    endloop
  endfacet
  facet normal 0.831621 -0.555343 0
    outer loop
      vertex -3.22725 3.84312 5
      vertex -3.2133 3.86401 3
      vertex -3.2133 3.86401 5
    endloop
  endfacet
  facet normal 0.831621 -0.555343 0
    outer loop
      vertex -3.2133 3.86401 3
      vertex -3.22725 3.84312 5
      vertex -3.22725 3.84312 3
    endloop
  endfacet
  facet normal 0.894825 -0.446417 0
    outer loop
      vertex -3.23846 3.82065 5
      vertex -3.22725 3.84312 3
      vertex -3.22725 3.84312 5
    endloop
  endfacet
  facet normal 0.894825 -0.446417 0
    outer loop
      vertex -3.22725 3.84312 3
      vertex -3.23846 3.82065 5
      vertex -3.23846 3.82065 3
    endloop
  endfacet
  facet normal 0.943548 -0.331237 0
    outer loop
      vertex -3.24678 3.79695 5
      vertex -3.23846 3.82065 3
      vertex -3.23846 3.82065 5
    endloop
  endfacet
  facet normal 0.943548 -0.331237 0
    outer loop
      vertex -3.23846 3.82065 3
      vertex -3.24678 3.79695 5
      vertex -3.24678 3.79695 3
    endloop
  endfacet
  facet normal 0.977843 -0.209339 0
    outer loop
      vertex -3.25204 3.77238 5
      vertex -3.24678 3.79695 3
      vertex -3.24678 3.79695 5
    endloop
  endfacet
  facet normal 0.977843 -0.209339 0
    outer loop
      vertex -3.24678 3.79695 3
      vertex -3.25204 3.77238 5
      vertex -3.25204 3.77238 3
    endloop
  endfacet
  facet normal 0.997207 -0.0746896 0
    outer loop
      vertex -3.25426 3.74274 5
      vertex -3.25204 3.77238 3
      vertex -3.25204 3.77238 5
    endloop
  endfacet
  facet normal 0.997207 -0.0746896 0
    outer loop
      vertex -3.25204 3.77238 3
      vertex -3.25426 3.74274 5
      vertex -3.25426 3.74274 3
    endloop
  endfacet
  facet normal 1 -0 0
    outer loop
      vertex -3.25426 2.73375 5
      vertex -3.25426 3.74274 3
      vertex -3.25426 3.74274 5
    endloop
  endfacet
  facet normal 1 0 0
    outer loop
      vertex -3.25426 3.74274 3
      vertex -3.25426 2.73375 5
      vertex -3.25426 2.73375 3
    endloop
  endfacet
  facet normal 0.998045 0.0625022 0
    outer loop
      vertex -3.25269 2.70868 5
      vertex -3.25426 2.73375 3
      vertex -3.25426 2.73375 5
    endloop
  endfacet
  facet normal 0.998045 0.0625022 0
    outer loop
      vertex -3.25426 2.73375 3
      vertex -3.25269 2.70868 5
      vertex -3.25269 2.70868 3
    endloop
  endfacet
  facet normal 0.982185 0.187917 0
    outer loop
      vertex -3.24797 2.68401 5
      vertex -3.25269 2.70868 3
      vertex -3.25269 2.70868 5
    endloop
  endfacet
  facet normal 0.982185 0.187917 0
    outer loop
      vertex -3.25269 2.70868 3
      vertex -3.24797 2.68401 5
      vertex -3.24797 2.68401 3
    endloop
  endfacet
  facet normal 0.951163 0.30869 0
    outer loop
      vertex -3.24022 2.66013 5
      vertex -3.24797 2.68401 3
      vertex -3.24797 2.68401 5
    endloop
  endfacet
  facet normal 0.951163 0.30869 0
    outer loop
      vertex -3.24797 2.68401 3
      vertex -3.24022 2.66013 5
      vertex -3.24022 2.66013 3
    endloop
  endfacet
  facet normal 0.904692 0.426065 0
    outer loop
      vertex -3.22952 2.63741 5
      vertex -3.24022 2.66013 3
      vertex -3.24022 2.66013 5
    endloop
  endfacet
  facet normal 0.904692 0.426065 0
    outer loop
      vertex -3.24022 2.66013 3
      vertex -3.22952 2.63741 5
      vertex -3.22952 2.63741 3
    endloop
  endfacet
  facet normal 0.844333 0.535819 0
    outer loop
      vertex -3.21606 2.6162 5
      vertex -3.22952 2.63741 3
      vertex -3.22952 2.63741 5
    endloop
  endfacet
  facet normal 0.844333 0.535819 0
    outer loop
      vertex -3.22952 2.63741 3
      vertex -3.21606 2.6162 5
      vertex -3.21606 2.6162 3
    endloop
  endfacet
  facet normal 0.770664 0.637242 0
    outer loop
      vertex -3.20006 2.59685 5
      vertex -3.21606 2.6162 3
      vertex -3.21606 2.6162 5
    endloop
  endfacet
  facet normal 0.770664 0.637242 0
    outer loop
      vertex -3.21606 2.6162 3
      vertex -3.20006 2.59685 5
      vertex -3.20006 2.59685 3
    endloop
  endfacet
  facet normal 0.684669 0.728854 -0
    outer loop
      vertex -3.18175 2.57965 3
      vertex -3.20006 2.59685 5
      vertex -3.18175 2.57965 5
    endloop
  endfacet
  facet normal 0.684669 0.728854 0
    outer loop
      vertex -3.20006 2.59685 5
      vertex -3.18175 2.57965 3
      vertex -3.20006 2.59685 3
    endloop
  endfacet
  facet normal 0.587769 0.809029 -0
    outer loop
      vertex -3.16142 2.56488 3
      vertex -3.18175 2.57965 5
      vertex -3.16142 2.56488 5
    endloop
  endfacet
  facet normal 0.587769 0.809029 0
    outer loop
      vertex -3.18175 2.57965 5
      vertex -3.16142 2.56488 3
      vertex -3.18175 2.57965 3
    endloop
  endfacet
  facet normal 0.481919 0.876216 -0
    outer loop
      vertex -3.13942 2.55278 3
      vertex -3.16142 2.56488 5
      vertex -3.13942 2.55278 5
    endloop
  endfacet
  facet normal 0.481919 0.876216 0
    outer loop
      vertex -3.16142 2.56488 5
      vertex -3.13942 2.55278 3
      vertex -3.16142 2.56488 3
    endloop
  endfacet
  facet normal 0.368163 0.929761 -0
    outer loop
      vertex -3.11606 2.54353 3
      vertex -3.13942 2.55278 5
      vertex -3.11606 2.54353 5
    endloop
  endfacet
  facet normal 0.368163 0.929761 0
    outer loop
      vertex -3.13942 2.55278 5
      vertex -3.11606 2.54353 3
      vertex -3.13942 2.55278 3
    endloop
  endfacet
  facet normal 0.248529 0.968625 -0
    outer loop
      vertex -3.09174 2.53729 3
      vertex -3.11606 2.54353 5
      vertex -3.09174 2.53729 5
    endloop
  endfacet
  facet normal 0.248529 0.968625 0
    outer loop
      vertex -3.11606 2.54353 5
      vertex -3.09174 2.53729 3
      vertex -3.11606 2.54353 3
    endloop
  endfacet
  facet normal 0.125015 0.992155 -0
    outer loop
      vertex -3.06682 2.53415 3
      vertex -3.09174 2.53729 5
      vertex -3.06682 2.53415 5
    endloop
  endfacet
  facet normal 0.125015 0.992155 0
    outer loop
      vertex -3.09174 2.53729 5
      vertex -3.06682 2.53415 3
      vertex -3.09174 2.53729 3
    endloop
  endfacet
  facet normal 0 1 -0
    outer loop
      vertex -3.0417 2.53415 3
      vertex -3.06682 2.53415 5
      vertex -3.0417 2.53415 5
    endloop
  endfacet
  facet normal 0 1 0
    outer loop
      vertex -3.06682 2.53415 5
      vertex -3.0417 2.53415 3
      vertex -3.06682 2.53415 3
    endloop
  endfacet
  facet normal -0.125015 0.992155 0
    outer loop
      vertex -3.01678 2.53729 3
      vertex -3.0417 2.53415 5
      vertex -3.01678 2.53729 5
    endloop
  endfacet
  facet normal -0.125015 0.992155 0
    outer loop
      vertex -3.0417 2.53415 5
      vertex -3.01678 2.53729 3
      vertex -3.0417 2.53415 3
    endloop
  endfacet
  facet normal -0.248529 0.968625 0
    outer loop
      vertex -2.99246 2.54353 3
      vertex -3.01678 2.53729 5
      vertex -2.99246 2.54353 5
    endloop
  endfacet
  facet normal -0.248529 0.968625 0
    outer loop
      vertex -3.01678 2.53729 5
      vertex -2.99246 2.54353 3
      vertex -3.01678 2.53729 3
    endloop
  endfacet
  facet normal -0.368163 0.929761 0
    outer loop
      vertex -2.9691 2.55278 3
      vertex -2.99246 2.54353 5
      vertex -2.9691 2.55278 5
    endloop
  endfacet
  facet normal -0.368163 0.929761 0
    outer loop
      vertex -2.99246 2.54353 5
      vertex -2.9691 2.55278 3
      vertex -2.99246 2.54353 3
    endloop
  endfacet
  facet normal -0.467715 0.883879 0
    outer loop
      vertex -2.95264 2.56149 3
      vertex -2.9691 2.55278 5
      vertex -2.95264 2.56149 5
    endloop
  endfacet
  facet normal -0.467715 0.883879 0
    outer loop
      vertex -2.9691 2.55278 5
      vertex -2.95264 2.56149 3
      vertex -2.9691 2.55278 3
    endloop
  endfacet
  facet normal -0.508119 0.861287 0
    outer loop
      vertex -1.14226 3.62953 3
      vertex -2.95264 2.56149 5
      vertex -1.14226 3.62953 5
    endloop
  endfacet
  facet normal -0.508119 0.861287 0
    outer loop
      vertex -2.95264 2.56149 5
      vertex -1.14226 3.62953 3
      vertex -2.95264 2.56149 3
    endloop
  endfacet
  facet normal 1 -0 0
    outer loop
      vertex -1.14226 -3.99925 5
      vertex -1.14226 3.62953 3
      vertex -1.14226 3.62953 5
    endloop
  endfacet
  facet normal 1 0 0
    outer loop
      vertex -1.14226 3.62953 3
      vertex -1.14226 -3.99925 5
      vertex -1.14226 -3.99925 3
    endloop
  endfacet
  facet normal 0 -1 0
    outer loop
      vertex -2.86226 -3.99925 3
      vertex -1.14226 -3.99925 5
      vertex -2.86226 -3.99925 5
    endloop
  endfacet
  facet normal 0 -1 -0
    outer loop
      vertex -1.14226 -3.99925 5
      vertex -2.86226 -3.99925 3
      vertex -1.14226 -3.99925 3
    endloop
  endfacet
  facet normal 0.0625022 -0.998045 0
    outer loop
      vertex -2.88733 -4.00082 3
      vertex -2.86226 -3.99925 5
      vertex -2.88733 -4.00082 5
    endloop
  endfacet
  facet normal 0.0625022 -0.998045 0
    outer loop
      vertex -2.86226 -3.99925 5
      vertex -2.88733 -4.00082 3
      vertex -2.86226 -3.99925 3
    endloop
  endfacet
  facet normal 0.187917 -0.982185 0
    outer loop
      vertex -2.912 -4.00554 3
      vertex -2.88733 -4.00082 5
      vertex -2.912 -4.00554 5
    endloop
  endfacet
  facet normal 0.187917 -0.982185 0
    outer loop
      vertex -2.88733 -4.00082 5
      vertex -2.912 -4.00554 3
      vertex -2.88733 -4.00082 3
    endloop
  endfacet
  facet normal 0.30869 -0.951163 0
    outer loop
      vertex -2.93588 -4.01329 3
      vertex -2.912 -4.00554 5
      vertex -2.93588 -4.01329 5
    endloop
  endfacet
  facet normal 0.30869 -0.951163 0
    outer loop
      vertex -2.912 -4.00554 5
      vertex -2.93588 -4.01329 3
      vertex -2.912 -4.00554 3
    endloop
  endfacet
  facet normal 0.426065 -0.904692 0
    outer loop
      vertex -2.9586 -4.02399 3
      vertex -2.93588 -4.01329 5
      vertex -2.9586 -4.02399 5
    endloop
  endfacet
  facet normal 0.426065 -0.904692 0
    outer loop
      vertex -2.93588 -4.01329 5
      vertex -2.9586 -4.02399 3
      vertex -2.93588 -4.01329 3
    endloop
  endfacet
  facet normal 0.535819 -0.844333 0
    outer loop
      vertex -2.97981 -4.03745 3
      vertex -2.9586 -4.02399 5
      vertex -2.97981 -4.03745 5
    endloop
  endfacet
  facet normal 0.535819 -0.844333 0
    outer loop
      vertex -2.9586 -4.02399 5
      vertex -2.97981 -4.03745 3
      vertex -2.9586 -4.02399 3
    endloop
  endfacet
  facet normal 0.637242 -0.770664 0
    outer loop
      vertex -2.99916 -4.05345 3
      vertex -2.97981 -4.03745 5
      vertex -2.99916 -4.05345 5
    endloop
  endfacet
  facet normal 0.637242 -0.770664 0
    outer loop
      vertex -2.97981 -4.03745 5
      vertex -2.99916 -4.05345 3
      vertex -2.97981 -4.03745 3
    endloop
  endfacet
  facet normal 0.728854 -0.684669 0
    outer loop
      vertex -3.01636 -4.07176 5
      vertex -2.99916 -4.05345 3
      vertex -2.99916 -4.05345 5
    endloop
  endfacet
  facet normal 0.728854 -0.684669 0
    outer loop
      vertex -2.99916 -4.05345 3
      vertex -3.01636 -4.07176 5
      vertex -3.01636 -4.07176 3
    endloop
  endfacet
  facet normal 0.809029 -0.587769 0
    outer loop
      vertex -3.03113 -4.09209 5
      vertex -3.01636 -4.07176 3
      vertex -3.01636 -4.07176 5
    endloop
  endfacet
  facet normal 0.809029 -0.587769 0
    outer loop
      vertex -3.01636 -4.07176 3
      vertex -3.03113 -4.09209 5
      vertex -3.03113 -4.09209 3
    endloop
  endfacet
  facet normal 0.876216 -0.481919 0
    outer loop
      vertex -3.04323 -4.11409 5
      vertex -3.03113 -4.09209 3
      vertex -3.03113 -4.09209 5
    endloop
  endfacet
  facet normal 0.876216 -0.481919 0
    outer loop
      vertex -3.03113 -4.09209 3
      vertex -3.04323 -4.11409 5
      vertex -3.04323 -4.11409 3
    endloop
  endfacet
  facet normal 0.929897 -0.367819 0
    outer loop
      vertex -3.05247 -4.13745 5
      vertex -3.04323 -4.11409 3
      vertex -3.04323 -4.11409 5
    endloop
  endfacet
  facet normal 0.929897 -0.367819 0
    outer loop
      vertex -3.04323 -4.11409 3
      vertex -3.05247 -4.13745 5
      vertex -3.05247 -4.13745 3
    endloop
  endfacet
  facet normal 0.968529 -0.248902 0
    outer loop
      vertex -3.05872 -4.16177 5
      vertex -3.05247 -4.13745 3
      vertex -3.05247 -4.13745 5
    endloop
  endfacet
  facet normal 0.968529 -0.248902 0
    outer loop
      vertex -3.05247 -4.13745 3
      vertex -3.05872 -4.16177 5
      vertex -3.05872 -4.16177 3
    endloop
  endfacet
  facet normal 0.995569 -0.0940319 0
    outer loop
      vertex -3.06226 -4.19925 5
      vertex -3.05872 -4.16177 3
      vertex -3.05872 -4.16177 5
    endloop
  endfacet
  facet normal 0.995569 -0.0940319 0
    outer loop
      vertex -3.05872 -4.16177 3
      vertex -3.06226 -4.19925 5
      vertex -3.06226 -4.19925 3
    endloop
  endfacet
  facet normal 1 -0 0
    outer loop
      vertex -3.06226 -5.03125 5
      vertex -3.06226 -4.19925 3
      vertex -3.06226 -4.19925 5
    endloop
  endfacet
  facet normal 1 0 0
    outer loop
      vertex -3.06226 -4.19925 3
      vertex -3.06226 -5.03125 5
      vertex -3.06226 -5.03125 3
    endloop
  endfacet
  facet normal 0.99802 0.0628987 0
    outer loop
      vertex -3.06068 -5.05632 5
      vertex -3.06226 -5.03125 3
      vertex -3.06226 -5.03125 5
    endloop
  endfacet
  facet normal 0.99802 0.0628987 0
    outer loop
      vertex -3.06226 -5.03125 3
      vertex -3.06068 -5.05632 5
      vertex -3.06068 -5.05632 3
    endloop
  endfacet
  facet normal 0.982258 0.187533 0
    outer loop
      vertex -3.05597 -5.08099 5
      vertex -3.06068 -5.05632 3
      vertex -3.06068 -5.05632 5
    endloop
  endfacet
  facet normal 0.982258 0.187533 0
    outer loop
      vertex -3.06068 -5.05632 3
      vertex -3.05597 -5.08099 5
      vertex -3.05597 -5.08099 3
    endloop
  endfacet
  facet normal 0.951163 0.30869 0
    outer loop
      vertex -3.04822 -5.10487 5
      vertex -3.05597 -5.08099 3
      vertex -3.05597 -5.08099 5
    endloop
  endfacet
  facet normal 0.951163 0.30869 0
    outer loop
      vertex -3.05597 -5.08099 3
      vertex -3.04822 -5.10487 5
      vertex -3.04822 -5.10487 3
    endloop
  endfacet
  facet normal 0.904692 0.426065 0
    outer loop
      vertex -3.03752 -5.12759 5
      vertex -3.04822 -5.10487 3
      vertex -3.04822 -5.10487 5
    endloop
  endfacet
  facet normal 0.904692 0.426065 0
    outer loop
      vertex -3.04822 -5.10487 3
      vertex -3.03752 -5.12759 5
      vertex -3.03752 -5.12759 3
    endloop
  endfacet
  facet normal 0.844333 0.535819 0
    outer loop
      vertex -3.02406 -5.1488 5
      vertex -3.03752 -5.12759 3
      vertex -3.03752 -5.12759 5
    endloop
  endfacet
  facet normal 0.844333 0.535819 0
    outer loop
      vertex -3.03752 -5.12759 3
      vertex -3.02406 -5.1488 5
      vertex -3.02406 -5.1488 3
    endloop
  endfacet
  facet normal 0.770664 0.637242 0
    outer loop
      vertex -3.00806 -5.16815 5
      vertex -3.02406 -5.1488 3
      vertex -3.02406 -5.1488 5
    endloop
  endfacet
  facet normal 0.770664 0.637242 0
    outer loop
      vertex -3.02406 -5.1488 3
      vertex -3.00806 -5.16815 5
      vertex -3.00806 -5.16815 3
    endloop
  endfacet
  facet normal 0.684669 0.728854 -0
    outer loop
      vertex -2.98975 -5.18535 3
      vertex -3.00806 -5.16815 5
      vertex -2.98975 -5.18535 5
    endloop
  endfacet
  facet normal 0.684669 0.728854 0
    outer loop
      vertex -3.00806 -5.16815 5
      vertex -2.98975 -5.18535 3
      vertex -3.00806 -5.16815 3
    endloop
  endfacet
  facet normal 0.587769 0.809029 -0
    outer loop
      vertex -2.96942 -5.20012 3
      vertex -2.98975 -5.18535 5
      vertex -2.96942 -5.20012 5
    endloop
  endfacet
  facet normal 0.587769 0.809029 0
    outer loop
      vertex -2.98975 -5.18535 5
      vertex -2.96942 -5.20012 3
      vertex -2.98975 -5.18535 3
    endloop
  endfacet
  facet normal 0.481919 0.876216 -0
    outer loop
      vertex -2.94742 -5.21222 3
      vertex -2.96942 -5.20012 5
      vertex -2.94742 -5.21222 5
    endloop
  endfacet
  facet normal 0.481919 0.876216 0
    outer loop
      vertex -2.96942 -5.20012 5
      vertex -2.94742 -5.21222 3
      vertex -2.96942 -5.20012 3
    endloop
  endfacet
  facet normal 0.368163 0.929761 -0
    outer loop
      vertex -2.92406 -5.22147 3
      vertex -2.94742 -5.21222 5
      vertex -2.92406 -5.22147 5
    endloop
  endfacet
  facet normal 0.368163 0.929761 0
    outer loop
      vertex -2.94742 -5.21222 5
      vertex -2.92406 -5.22147 3
      vertex -2.94742 -5.21222 3
    endloop
  endfacet
  facet normal 0.248433 0.968649 -0
    outer loop
      vertex -2.89973 -5.22771 3
      vertex -2.92406 -5.22147 5
      vertex -2.89973 -5.22771 5
    endloop
  endfacet
  facet normal 0.248433 0.968649 0
    outer loop
      vertex -2.92406 -5.22147 5
      vertex -2.89973 -5.22771 3
      vertex -2.92406 -5.22147 3
    endloop
  endfacet
  facet normal 0.0940568 0.995567 -0
    outer loop
      vertex -2.86226 -5.23125 3
      vertex -2.89973 -5.22771 5
      vertex -2.86226 -5.23125 5
    endloop
  endfacet
  facet normal 0.0940568 0.995567 0
    outer loop
      vertex -2.89973 -5.22771 5
      vertex -2.86226 -5.23125 3
      vertex -2.89973 -5.22771 3
    endloop
  endfacet
  facet normal 0 1 -0
    outer loop
      vertex 3.53773 -5.23125 3
      vertex -2.86226 -5.23125 5
      vertex 3.53773 -5.23125 5
    endloop
  endfacet
  facet normal 0 1 0
    outer loop
      vertex -2.86226 -5.23125 5
      vertex 3.53773 -5.23125 3
      vertex -2.86226 -5.23125 3
    endloop
  endfacet
  facet normal -0.0624774 0.998046 0
    outer loop
      vertex 3.56281 -5.22968 3
      vertex 3.53773 -5.23125 5
      vertex 3.56281 -5.22968 5
    endloop
  endfacet
  facet normal -0.0624774 0.998046 0
    outer loop
      vertex 3.53773 -5.23125 5
      vertex 3.56281 -5.22968 3
      vertex 3.53773 -5.23125 3
    endloop
  endfacet
endsolid OpenSCAD_Model
