solid OpenSCAD_Model
  facet normal 0.998035 0.0626658 0
    outer loop
      vertex 44.8284 60 2.66167
      vertex 44.7904 60.6052 1
      vertex 44.7904 60.6052 2.66167
    endloop
  endfacet
  facet normal 0.998035 0.0626658 0
    outer loop
      vertex 44.7904 60.6052 1
      vertex 44.8284 60 2.66167
      vertex 44.8284 60 1
    endloop
  endfacet
  facet normal 0 1 -0
    outer loop
      vertex 40.3032 64.8189 1
      vertex 39.6968 64.8189 2.66167
      vertex 40.3032 64.8189 2.66167
    endloop
  endfacet
  facet normal 0 1 0
    outer loop
      vertex 39.6968 64.8189 2.66167
      vertex 40.3032 64.8189 1
      vertex 39.6968 64.8189 1
    endloop
  endfacet
  facet normal -0.684577 -0.72894 0
    outer loop
      vertex 36.4802 56.6947 1
      vertex 36.9222 56.2796 2.66167
      vertex 36.4802 56.6947 2.66167
    endloop
  endfacet
  facet normal -0.684577 -0.72894 -0
    outer loop
      vertex 36.9222 56.2796 2.66167
      vertex 36.4802 56.6947 1
      vertex 36.9222 56.2796 1
    endloop
  endfacet
  facet normal 0.684577 0.72894 -0
    outer loop
      vertex 43.5198 63.3053 1
      vertex 43.0778 63.7204 2.66167
      vertex 43.5198 63.3053 2.66167
    endloop
  endfacet
  facet normal 0.684577 0.72894 0
    outer loop
      vertex 43.0778 63.7204 2.66167
      vertex 43.5198 63.3053 1
      vertex 43.0778 63.7204 1
    endloop
  endfacet
  facet normal -0.770514 0.637423 0
    outer loop
      vertex 36.0937 62.8381 1
      vertex 36.4802 63.3053 2.66167
      vertex 36.4802 63.3053 1
    endloop
  endfacet
  facet normal -0.770514 0.637423 0
    outer loop
      vertex 36.4802 63.3053 2.66167
      vertex 36.0937 62.8381 1
      vertex 36.0937 62.8381 2.66167
    endloop
  endfacet
  facet normal -0.481703 0.876334 0
    outer loop
      vertex 37.9442 64.3689 1
      vertex 37.4128 64.0768 2.66167
      vertex 37.9442 64.3689 2.66167
    endloop
  endfacet
  facet normal -0.481703 0.876334 0
    outer loop
      vertex 37.4128 64.0768 2.66167
      vertex 37.9442 64.3689 1
      vertex 37.4128 64.0768 1
    endloop
  endfacet
  facet normal 0.904796 0.425845 0
    outer loop
      vertex 44.4894 61.7775 2.66167
      vertex 44.2312 62.3261 1
      vertex 44.2312 62.3261 2.66167
    endloop
  endfacet
  facet normal 0.904796 0.425845 0
    outer loop
      vertex 44.2312 62.3261 1
      vertex 44.4894 61.7775 2.66167
      vertex 44.4894 61.7775 1
    endloop
  endfacet
  facet normal 0.844347 0.535797 0
    outer loop
      vertex 44.2312 62.3261 2.66167
      vertex 43.9063 62.8381 1
      vertex 43.9063 62.8381 2.66167
    endloop
  endfacet
  facet normal 0.844347 0.535797 0
    outer loop
      vertex 43.9063 62.8381 1
      vertex 44.2312 62.3261 2.66167
      vertex 44.2312 62.3261 1
    endloop
  endfacet
  facet normal 0.368146 0.929768 -0
    outer loop
      vertex 42.0558 64.3689 1
      vertex 41.4921 64.5921 2.66167
      vertex 42.0558 64.3689 2.66167
    endloop
  endfacet
  facet normal 0.368146 0.929768 0
    outer loop
      vertex 41.4921 64.5921 2.66167
      vertex 42.0558 64.3689 1
      vertex 41.4921 64.5921 1
    endloop
  endfacet
  facet normal 0.58774 0.80905 -0
    outer loop
      vertex 43.0778 63.7204 1
      vertex 42.5872 64.0768 2.66167
      vertex 43.0778 63.7204 2.66167
    endloop
  endfacet
  facet normal 0.58774 0.80905 0
    outer loop
      vertex 42.5872 64.0768 2.66167
      vertex 43.0778 63.7204 1
      vertex 42.5872 64.0768 1
    endloop
  endfacet
  facet normal -0.951096 0.308896 0
    outer loop
      vertex 35.3233 61.2008 1
      vertex 35.5106 61.7775 2.66167
      vertex 35.5106 61.7775 1
    endloop
  endfacet
  facet normal -0.951096 0.308896 0
    outer loop
      vertex 35.5106 61.7775 2.66167
      vertex 35.3233 61.2008 1
      vertex 35.3233 61.2008 2.66167
    endloop
  endfacet
  facet normal 0 0 1
    outer loop
      vertex 44.7904 60.6052 2.66167
      vertex 44.7904 59.3948 2.66167
      vertex 44.8284 60 2.66167
    endloop
  endfacet
  facet normal 0 0 1
    outer loop
      vertex 44.6767 61.2008 2.66167
      vertex 44.7904 59.3948 2.66167
      vertex 44.7904 60.6052 2.66167
    endloop
  endfacet
  facet normal 0 0 1
    outer loop
      vertex 44.6767 61.2008 2.66167
      vertex 44.6767 58.7992 2.66167
      vertex 44.7904 59.3948 2.66167
    endloop
  endfacet
  facet normal 0 0 1
    outer loop
      vertex 44.4894 61.7775 2.66167
      vertex 44.6767 58.7992 2.66167
      vertex 44.6767 61.2008 2.66167
    endloop
  endfacet
  facet normal 0 0 1
    outer loop
      vertex 44.4894 61.7775 2.66167
      vertex 44.4894 58.2225 2.66167
      vertex 44.6767 58.7992 2.66167
    endloop
  endfacet
  facet normal 0 0 1
    outer loop
      vertex 44.2312 62.3261 2.66167
      vertex 44.4894 58.2225 2.66167
      vertex 44.4894 61.7775 2.66167
    endloop
  endfacet
  facet normal 0 0 1
    outer loop
      vertex 44.2312 62.3261 2.66167
      vertex 44.2312 57.6739 2.66167
      vertex 44.4894 58.2225 2.66167
    endloop
  endfacet
  facet normal 0 0 1
    outer loop
      vertex 43.9063 62.8381 2.66167
      vertex 44.2312 57.6739 2.66167
      vertex 44.2312 62.3261 2.66167
    endloop
  endfacet
  facet normal 0 0 1
    outer loop
      vertex 43.9063 62.8381 2.66167
      vertex 43.9063 57.1619 2.66167
      vertex 44.2312 57.6739 2.66167
    endloop
  endfacet
  facet normal 0 0 1
    outer loop
      vertex 43.5198 63.3053 2.66167
      vertex 43.9063 57.1619 2.66167
      vertex 43.9063 62.8381 2.66167
    endloop
  endfacet
  facet normal 0 0 1
    outer loop
      vertex 43.5198 63.3053 2.66167
      vertex 43.5198 56.6947 2.66167
      vertex 43.9063 57.1619 2.66167
    endloop
  endfacet
  facet normal 0 0 1
    outer loop
      vertex 43.0778 63.7204 2.66167
      vertex 43.5198 56.6947 2.66167
      vertex 43.5198 63.3053 2.66167
    endloop
  endfacet
  facet normal 0 0 1
    outer loop
      vertex 43.0778 63.7204 2.66167
      vertex 43.0778 56.2796 2.66167
      vertex 43.5198 56.6947 2.66167
    endloop
  endfacet
  facet normal 0 0 1
    outer loop
      vertex 42.5872 64.0768 2.66167
      vertex 43.0778 56.2796 2.66167
      vertex 43.0778 63.7204 2.66167
    endloop
  endfacet
  facet normal 0 0 1
    outer loop
      vertex 42.5872 64.0768 2.66167
      vertex 42.5872 55.9232 2.66167
      vertex 43.0778 56.2796 2.66167
    endloop
  endfacet
  facet normal 0 0 1
    outer loop
      vertex 42.0558 64.3689 2.66167
      vertex 42.5872 55.9232 2.66167
      vertex 42.5872 64.0768 2.66167
    endloop
  endfacet
  facet normal 0 0 1
    outer loop
      vertex 42.0558 64.3689 2.66167
      vertex 42.0558 55.6311 2.66167
      vertex 42.5872 55.9232 2.66167
    endloop
  endfacet
  facet normal 0 0 1
    outer loop
      vertex 41.4921 64.5921 2.66167
      vertex 42.0558 55.6311 2.66167
      vertex 42.0558 64.3689 2.66167
    endloop
  endfacet
  facet normal 0 0 1
    outer loop
      vertex 41.4921 64.5921 2.66167
      vertex 41.4921 55.4079 2.66167
      vertex 42.0558 55.6311 2.66167
    endloop
  endfacet
  facet normal 0 0 1
    outer loop
      vertex 40.9048 64.7429 2.66167
      vertex 41.4921 55.4079 2.66167
      vertex 41.4921 64.5921 2.66167
    endloop
  endfacet
  facet normal 0 0 1
    outer loop
      vertex 40.9048 64.7429 2.66167
      vertex 40.9048 55.2571 2.66167
      vertex 41.4921 55.4079 2.66167
    endloop
  endfacet
  facet normal 0 0 1
    outer loop
      vertex 40.3032 64.8189 2.66167
      vertex 40.9048 55.2571 2.66167
      vertex 40.9048 64.7429 2.66167
    endloop
  endfacet
  facet normal 0 0 1
    outer loop
      vertex 40.3032 64.8189 2.66167
      vertex 40.3032 55.1811 2.66167
      vertex 40.9048 55.2571 2.66167
    endloop
  endfacet
  facet normal -0 0 1
    outer loop
      vertex 39.6968 64.8189 2.66167
      vertex 40.3032 55.1811 2.66167
      vertex 40.3032 64.8189 2.66167
    endloop
  endfacet
  facet normal 0 0 1
    outer loop
      vertex 39.6968 64.8189 2.66167
      vertex 39.6968 55.1811 2.66167
      vertex 40.3032 55.1811 2.66167
    endloop
  endfacet
  facet normal -0 0 1
    outer loop
      vertex 39.0952 64.7429 2.66167
      vertex 39.6968 55.1811 2.66167
      vertex 39.6968 64.8189 2.66167
    endloop
  endfacet
  facet normal 0 0 1
    outer loop
      vertex 39.0952 64.7429 2.66167
      vertex 39.0952 55.2571 2.66167
      vertex 39.6968 55.1811 2.66167
    endloop
  endfacet
  facet normal -0 0 1
    outer loop
      vertex 38.5079 64.5921 2.66167
      vertex 39.0952 55.2571 2.66167
      vertex 39.0952 64.7429 2.66167
    endloop
  endfacet
  facet normal 0 0 1
    outer loop
      vertex 38.5079 64.5921 2.66167
      vertex 38.5079 55.4079 2.66167
      vertex 39.0952 55.2571 2.66167
    endloop
  endfacet
  facet normal -0 0 1
    outer loop
      vertex 37.9442 64.3689 2.66167
      vertex 38.5079 55.4079 2.66167
      vertex 38.5079 64.5921 2.66167
    endloop
  endfacet
  facet normal 0 0 1
    outer loop
      vertex 37.9442 64.3689 2.66167
      vertex 37.9442 55.6311 2.66167
      vertex 38.5079 55.4079 2.66167
    endloop
  endfacet
  facet normal -0 0 1
    outer loop
      vertex 37.4128 64.0768 2.66167
      vertex 37.9442 55.6311 2.66167
      vertex 37.9442 64.3689 2.66167
    endloop
  endfacet
  facet normal 0 0 1
    outer loop
      vertex 37.4128 64.0768 2.66167
      vertex 37.4128 55.9232 2.66167
      vertex 37.9442 55.6311 2.66167
    endloop
  endfacet
  facet normal -0 0 1
    outer loop
      vertex 36.9222 63.7204 2.66167
      vertex 37.4128 55.9232 2.66167
      vertex 37.4128 64.0768 2.66167
    endloop
  endfacet
  facet normal 0 0 1
    outer loop
      vertex 36.9222 63.7204 2.66167
      vertex 36.9222 56.2796 2.66167
      vertex 37.4128 55.9232 2.66167
    endloop
  endfacet
  facet normal -0 0 1
    outer loop
      vertex 36.4802 63.3053 2.66167
      vertex 36.9222 56.2796 2.66167
      vertex 36.9222 63.7204 2.66167
    endloop
  endfacet
  facet normal 0 0 1
    outer loop
      vertex 36.4802 63.3053 2.66167
      vertex 36.4802 56.6947 2.66167
      vertex 36.9222 56.2796 2.66167
    endloop
  endfacet
  facet normal -0 0 1
    outer loop
      vertex 36.0937 62.8381 2.66167
      vertex 36.4802 56.6947 2.66167
      vertex 36.4802 63.3053 2.66167
    endloop
  endfacet
  facet normal 0 0 1
    outer loop
      vertex 36.0937 62.8381 2.66167
      vertex 36.0937 57.1619 2.66167
      vertex 36.4802 56.6947 2.66167
    endloop
  endfacet
  facet normal -0 0 1
    outer loop
      vertex 35.7688 62.3261 2.66167
      vertex 36.0937 57.1619 2.66167
      vertex 36.0937 62.8381 2.66167
    endloop
  endfacet
  facet normal 0 0 1
    outer loop
      vertex 35.7688 62.3261 2.66167
      vertex 35.7688 57.6739 2.66167
      vertex 36.0937 57.1619 2.66167
    endloop
  endfacet
  facet normal -0 0 1
    outer loop
      vertex 35.5106 61.7775 2.66167
      vertex 35.7688 57.6739 2.66167
      vertex 35.7688 62.3261 2.66167
    endloop
  endfacet
  facet normal 0 0 1
    outer loop
      vertex 35.5106 61.7775 2.66167
      vertex 35.5106 58.2225 2.66167
      vertex 35.7688 57.6739 2.66167
    endloop
  endfacet
  facet normal -0 0 1
    outer loop
      vertex 35.3233 61.2008 2.66167
      vertex 35.5106 58.2225 2.66167
      vertex 35.5106 61.7775 2.66167
    endloop
  endfacet
  facet normal 0 0 1
    outer loop
      vertex 35.3233 61.2008 2.66167
      vertex 35.3233 58.7992 2.66167
      vertex 35.5106 58.2225 2.66167
    endloop
  endfacet
  facet normal -0 0 1
    outer loop
      vertex 35.2096 60.6052 2.66167
      vertex 35.3233 58.7992 2.66167
      vertex 35.3233 61.2008 2.66167
    endloop
  endfacet
  facet normal 0 0 1
    outer loop
      vertex 35.2096 60.6052 2.66167
      vertex 35.2096 59.3948 2.66167
      vertex 35.3233 58.7992 2.66167
    endloop
  endfacet
  facet normal 0 -0 1
    outer loop
      vertex 35.2096 59.3948 2.66167
      vertex 35.2096 60.6052 2.66167
      vertex 35.1716 60 2.66167
    endloop
  endfacet
  facet normal -0.248701 0.96858 0
    outer loop
      vertex 39.0952 64.7429 1
      vertex 38.5079 64.5921 2.66167
      vertex 39.0952 64.7429 2.66167
    endloop
  endfacet
  facet normal -0.248701 0.96858 0
    outer loop
      vertex 38.5079 64.5921 2.66167
      vertex 39.0952 64.7429 1
      vertex 38.5079 64.5921 1
    endloop
  endfacet
  facet normal 0.982262 -0.187514 0
    outer loop
      vertex 44.6767 58.7992 2.66167
      vertex 44.7904 59.3948 1
      vertex 44.7904 59.3948 2.66167
    endloop
  endfacet
  facet normal 0.982262 -0.187514 0
    outer loop
      vertex 44.7904 59.3948 1
      vertex 44.6767 58.7992 2.66167
      vertex 44.6767 58.7992 1
    endloop
  endfacet
  facet normal -0.58774 -0.80905 0
    outer loop
      vertex 36.9222 56.2796 1
      vertex 37.4128 55.9232 2.66167
      vertex 36.9222 56.2796 2.66167
    endloop
  endfacet
  facet normal -0.58774 -0.80905 -0
    outer loop
      vertex 37.4128 55.9232 2.66167
      vertex 36.9222 56.2796 1
      vertex 37.4128 55.9232 1
    endloop
  endfacet
  facet normal -0.844347 -0.535797 0
    outer loop
      vertex 36.0937 57.1619 1
      vertex 35.7688 57.6739 2.66167
      vertex 35.7688 57.6739 1
    endloop
  endfacet
  facet normal -0.844347 -0.535797 0
    outer loop
      vertex 35.7688 57.6739 2.66167
      vertex 36.0937 57.1619 1
      vertex 36.0937 57.1619 2.66167
    endloop
  endfacet
  facet normal 0.951096 0.308896 0
    outer loop
      vertex 44.6767 61.2008 2.66167
      vertex 44.4894 61.7775 1
      vertex 44.4894 61.7775 2.66167
    endloop
  endfacet
  facet normal 0.951096 0.308896 0
    outer loop
      vertex 44.4894 61.7775 1
      vertex 44.6767 61.2008 2.66167
      vertex 44.6767 61.2008 1
    endloop
  endfacet
  facet normal 0.982262 0.187514 0
    outer loop
      vertex 44.7904 60.6052 2.66167
      vertex 44.6767 61.2008 1
      vertex 44.6767 61.2008 2.66167
    endloop
  endfacet
  facet normal 0.982262 0.187514 0
    outer loop
      vertex 44.6767 61.2008 1
      vertex 44.7904 60.6052 2.66167
      vertex 44.7904 60.6052 1
    endloop
  endfacet
  facet normal 0.770514 0.637423 0
    outer loop
      vertex 43.9063 62.8381 2.66167
      vertex 43.5198 63.3053 1
      vertex 43.5198 63.3053 2.66167
    endloop
  endfacet
  facet normal 0.770514 0.637423 0
    outer loop
      vertex 43.5198 63.3053 1
      vertex 43.9063 62.8381 2.66167
      vertex 43.9063 62.8381 1
    endloop
  endfacet
  facet normal 0.248701 0.96858 -0
    outer loop
      vertex 41.4921 64.5921 1
      vertex 40.9048 64.7429 2.66167
      vertex 41.4921 64.5921 2.66167
    endloop
  endfacet
  facet normal 0.248701 0.96858 0
    outer loop
      vertex 40.9048 64.7429 2.66167
      vertex 41.4921 64.5921 1
      vertex 40.9048 64.7429 1
    endloop
  endfacet
  facet normal 0.125334 0.992115 -0
    outer loop
      vertex 40.9048 64.7429 1
      vertex 40.3032 64.8189 2.66167
      vertex 40.9048 64.7429 2.66167
    endloop
  endfacet
  facet normal 0.125334 0.992115 0
    outer loop
      vertex 40.3032 64.8189 2.66167
      vertex 40.9048 64.7429 1
      vertex 40.3032 64.8189 1
    endloop
  endfacet
  facet normal 0.481703 0.876334 -0
    outer loop
      vertex 42.5872 64.0768 1
      vertex 42.0558 64.3689 2.66167
      vertex 42.5872 64.0768 2.66167
    endloop
  endfacet
  facet normal 0.481703 0.876334 0
    outer loop
      vertex 42.0558 64.3689 2.66167
      vertex 42.5872 64.0768 1
      vertex 42.0558 64.3689 1
    endloop
  endfacet
  facet normal -0.904796 0.425845 0
    outer loop
      vertex 35.5106 61.7775 1
      vertex 35.7688 62.3261 2.66167
      vertex 35.7688 62.3261 1
    endloop
  endfacet
  facet normal -0.904796 0.425845 0
    outer loop
      vertex 35.7688 62.3261 2.66167
      vertex 35.5106 61.7775 1
      vertex 35.5106 61.7775 2.66167
    endloop
  endfacet
  facet normal -0.844347 0.535797 0
    outer loop
      vertex 35.7688 62.3261 1
      vertex 36.0937 62.8381 2.66167
      vertex 36.0937 62.8381 1
    endloop
  endfacet
  facet normal -0.844347 0.535797 0
    outer loop
      vertex 36.0937 62.8381 2.66167
      vertex 35.7688 62.3261 1
      vertex 35.7688 62.3261 2.66167
    endloop
  endfacet
  facet normal -0.982262 0.187514 0
    outer loop
      vertex 35.2096 60.6052 1
      vertex 35.3233 61.2008 2.66167
      vertex 35.3233 61.2008 1
    endloop
  endfacet
  facet normal -0.982262 0.187514 0
    outer loop
      vertex 35.3233 61.2008 2.66167
      vertex 35.2096 60.6052 1
      vertex 35.2096 60.6052 2.66167
    endloop
  endfacet
  facet normal -0.998035 0.0626658 0
    outer loop
      vertex 35.1716 60 1
      vertex 35.2096 60.6052 2.66167
      vertex 35.2096 60.6052 1
    endloop
  endfacet
  facet normal -0.998035 0.0626658 0
    outer loop
      vertex 35.2096 60.6052 2.66167
      vertex 35.1716 60 1
      vertex 35.1716 60 2.66167
    endloop
  endfacet
  facet normal -0.998035 -0.0626658 0
    outer loop
      vertex 35.2096 59.3948 1
      vertex 35.1716 60 2.66167
      vertex 35.1716 60 1
    endloop
  endfacet
  facet normal -0.998035 -0.0626658 0
    outer loop
      vertex 35.1716 60 2.66167
      vertex 35.2096 59.3948 1
      vertex 35.2096 59.3948 2.66167
    endloop
  endfacet
  facet normal -0.58774 0.80905 0
    outer loop
      vertex 37.4128 64.0768 1
      vertex 36.9222 63.7204 2.66167
      vertex 37.4128 64.0768 2.66167
    endloop
  endfacet
  facet normal -0.58774 0.80905 0
    outer loop
      vertex 36.9222 63.7204 2.66167
      vertex 37.4128 64.0768 1
      vertex 36.9222 63.7204 1
    endloop
  endfacet
  facet normal -0.684577 0.72894 0
    outer loop
      vertex 36.9222 63.7204 1
      vertex 36.4802 63.3053 2.66167
      vertex 36.9222 63.7204 2.66167
    endloop
  endfacet
  facet normal -0.684577 0.72894 0
    outer loop
      vertex 36.4802 63.3053 2.66167
      vertex 36.9222 63.7204 1
      vertex 36.4802 63.3053 1
    endloop
  endfacet
  facet normal -0.368146 0.929768 0
    outer loop
      vertex 38.5079 64.5921 1
      vertex 37.9442 64.3689 2.66167
      vertex 38.5079 64.5921 2.66167
    endloop
  endfacet
  facet normal -0.368146 0.929768 0
    outer loop
      vertex 37.9442 64.3689 2.66167
      vertex 38.5079 64.5921 1
      vertex 37.9442 64.3689 1
    endloop
  endfacet
  facet normal -0.125334 0.992115 0
    outer loop
      vertex 39.6968 64.8189 1
      vertex 39.0952 64.7429 2.66167
      vertex 39.6968 64.8189 2.66167
    endloop
  endfacet
  facet normal -0.125334 0.992115 0
    outer loop
      vertex 39.0952 64.7429 2.66167
      vertex 39.6968 64.8189 1
      vertex 39.0952 64.7429 1
    endloop
  endfacet
  facet normal 0.998035 -0.0626658 0
    outer loop
      vertex 44.7904 59.3948 2.66167
      vertex 44.8284 60 1
      vertex 44.8284 60 2.66167
    endloop
  endfacet
  facet normal 0.998035 -0.0626658 0
    outer loop
      vertex 44.8284 60 1
      vertex 44.7904 59.3948 2.66167
      vertex 44.7904 59.3948 1
    endloop
  endfacet
  facet normal 0.125334 -0.992115 0
    outer loop
      vertex 40.3032 55.1811 1
      vertex 40.9048 55.2571 2.66167
      vertex 40.3032 55.1811 2.66167
    endloop
  endfacet
  facet normal 0.125334 -0.992115 0
    outer loop
      vertex 40.9048 55.2571 2.66167
      vertex 40.3032 55.1811 1
      vertex 40.9048 55.2571 1
    endloop
  endfacet
  facet normal 0.368146 -0.929768 0
    outer loop
      vertex 41.4921 55.4079 1
      vertex 42.0558 55.6311 2.66167
      vertex 41.4921 55.4079 2.66167
    endloop
  endfacet
  facet normal 0.368146 -0.929768 0
    outer loop
      vertex 42.0558 55.6311 2.66167
      vertex 41.4921 55.4079 1
      vertex 42.0558 55.6311 1
    endloop
  endfacet
  facet normal 0.770514 -0.637423 0
    outer loop
      vertex 43.5198 56.6947 2.66167
      vertex 43.9063 57.1619 1
      vertex 43.9063 57.1619 2.66167
    endloop
  endfacet
  facet normal 0.770514 -0.637423 0
    outer loop
      vertex 43.9063 57.1619 1
      vertex 43.5198 56.6947 2.66167
      vertex 43.5198 56.6947 1
    endloop
  endfacet
  facet normal 0.58774 -0.80905 0
    outer loop
      vertex 42.5872 55.9232 1
      vertex 43.0778 56.2796 2.66167
      vertex 42.5872 55.9232 2.66167
    endloop
  endfacet
  facet normal 0.58774 -0.80905 0
    outer loop
      vertex 43.0778 56.2796 2.66167
      vertex 42.5872 55.9232 1
      vertex 43.0778 56.2796 1
    endloop
  endfacet
  facet normal 0.844347 -0.535797 0
    outer loop
      vertex 43.9063 57.1619 2.66167
      vertex 44.2312 57.6739 1
      vertex 44.2312 57.6739 2.66167
    endloop
  endfacet
  facet normal 0.844347 -0.535797 0
    outer loop
      vertex 44.2312 57.6739 1
      vertex 43.9063 57.1619 2.66167
      vertex 43.9063 57.1619 1
    endloop
  endfacet
  facet normal 0.951096 -0.308896 0
    outer loop
      vertex 44.4894 58.2225 2.66167
      vertex 44.6767 58.7992 1
      vertex 44.6767 58.7992 2.66167
    endloop
  endfacet
  facet normal 0.951096 -0.308896 0
    outer loop
      vertex 44.6767 58.7992 1
      vertex 44.4894 58.2225 2.66167
      vertex 44.4894 58.2225 1
    endloop
  endfacet
  facet normal -0.481703 -0.876334 0
    outer loop
      vertex 37.4128 55.9232 1
      vertex 37.9442 55.6311 2.66167
      vertex 37.4128 55.9232 2.66167
    endloop
  endfacet
  facet normal -0.481703 -0.876334 -0
    outer loop
      vertex 37.9442 55.6311 2.66167
      vertex 37.4128 55.9232 1
      vertex 37.9442 55.6311 1
    endloop
  endfacet
  facet normal -0.248701 -0.96858 0
    outer loop
      vertex 38.5079 55.4079 1
      vertex 39.0952 55.2571 2.66167
      vertex 38.5079 55.4079 2.66167
    endloop
  endfacet
  facet normal -0.248701 -0.96858 -0
    outer loop
      vertex 39.0952 55.2571 2.66167
      vertex 38.5079 55.4079 1
      vertex 39.0952 55.2571 1
    endloop
  endfacet
  facet normal 0 -1 0
    outer loop
      vertex 39.6968 55.1811 1
      vertex 40.3032 55.1811 2.66167
      vertex 39.6968 55.1811 2.66167
    endloop
  endfacet
  facet normal 0 -1 -0
    outer loop
      vertex 40.3032 55.1811 2.66167
      vertex 39.6968 55.1811 1
      vertex 40.3032 55.1811 1
    endloop
  endfacet
  facet normal -0.770514 -0.637423 0
    outer loop
      vertex 36.4802 56.6947 1
      vertex 36.0937 57.1619 2.66167
      vertex 36.0937 57.1619 1
    endloop
  endfacet
  facet normal -0.770514 -0.637423 0
    outer loop
      vertex 36.0937 57.1619 2.66167
      vertex 36.4802 56.6947 1
      vertex 36.4802 56.6947 2.66167
    endloop
  endfacet
  facet normal -0.904796 -0.425845 0
    outer loop
      vertex 35.7688 57.6739 1
      vertex 35.5106 58.2225 2.66167
      vertex 35.5106 58.2225 1
    endloop
  endfacet
  facet normal -0.904796 -0.425845 0
    outer loop
      vertex 35.5106 58.2225 2.66167
      vertex 35.7688 57.6739 1
      vertex 35.7688 57.6739 2.66167
    endloop
  endfacet
  facet normal -0.982262 -0.187514 0
    outer loop
      vertex 35.3233 58.7992 1
      vertex 35.2096 59.3948 2.66167
      vertex 35.2096 59.3948 1
    endloop
  endfacet
  facet normal -0.982262 -0.187514 0
    outer loop
      vertex 35.2096 59.3948 2.66167
      vertex 35.3233 58.7992 1
      vertex 35.3233 58.7992 2.66167
    endloop
  endfacet
  facet normal 0.248701 -0.96858 0
    outer loop
      vertex 40.9048 55.2571 1
      vertex 41.4921 55.4079 2.66167
      vertex 40.9048 55.2571 2.66167
    endloop
  endfacet
  facet normal 0.248701 -0.96858 0
    outer loop
      vertex 41.4921 55.4079 2.66167
      vertex 40.9048 55.2571 1
      vertex 41.4921 55.4079 1
    endloop
  endfacet
  facet normal 0.481703 -0.876334 0
    outer loop
      vertex 42.0558 55.6311 1
      vertex 42.5872 55.9232 2.66167
      vertex 42.0558 55.6311 2.66167
    endloop
  endfacet
  facet normal 0.481703 -0.876334 0
    outer loop
      vertex 42.5872 55.9232 2.66167
      vertex 42.0558 55.6311 1
      vertex 42.5872 55.9232 1
    endloop
  endfacet
  facet normal 0.684577 -0.72894 0
    outer loop
      vertex 43.0778 56.2796 1
      vertex 43.5198 56.6947 2.66167
      vertex 43.0778 56.2796 2.66167
    endloop
  endfacet
  facet normal 0.684577 -0.72894 0
    outer loop
      vertex 43.5198 56.6947 2.66167
      vertex 43.0778 56.2796 1
      vertex 43.5198 56.6947 1
    endloop
  endfacet
  facet normal 0.904796 -0.425845 0
    outer loop
      vertex 44.2312 57.6739 2.66167
      vertex 44.4894 58.2225 1
      vertex 44.4894 58.2225 2.66167
    endloop
  endfacet
  facet normal 0.904796 -0.425845 0
    outer loop
      vertex 44.4894 58.2225 1
      vertex 44.2312 57.6739 2.66167
      vertex 44.2312 57.6739 1
    endloop
  endfacet
  facet normal -0.368146 -0.929768 0
    outer loop
      vertex 37.9442 55.6311 1
      vertex 38.5079 55.4079 2.66167
      vertex 37.9442 55.6311 2.66167
    endloop
  endfacet
  facet normal -0.368146 -0.929768 -0
    outer loop
      vertex 38.5079 55.4079 2.66167
      vertex 37.9442 55.6311 1
      vertex 38.5079 55.4079 1
    endloop
  endfacet
  facet normal -0.125334 -0.992115 0
    outer loop
      vertex 39.0952 55.2571 1
      vertex 39.6968 55.1811 2.66167
      vertex 39.0952 55.2571 2.66167
    endloop
  endfacet
  facet normal -0.125334 -0.992115 -0
    outer loop
      vertex 39.6968 55.1811 2.66167
      vertex 39.0952 55.2571 1
      vertex 39.6968 55.1811 1
    endloop
  endfacet
  facet normal -0.951096 -0.308896 0
    outer loop
      vertex 35.5106 58.2225 1
      vertex 35.3233 58.7992 2.66167
      vertex 35.3233 58.7992 1
    endloop
  endfacet
  facet normal -0.951096 -0.308896 0
    outer loop
      vertex 35.3233 58.7992 2.66167
      vertex 35.5106 58.2225 1
      vertex 35.5106 58.2225 2.66167
    endloop
  endfacet
  facet normal 0.58774 0.80905 -0
    outer loop
      vertex 63.0778 43.7204 1
      vertex 62.5872 44.0768 2.66167
      vertex 63.0778 43.7204 2.66167
    endloop
  endfacet
  facet normal 0.58774 0.80905 0
    outer loop
      vertex 62.5872 44.0768 2.66167
      vertex 63.0778 43.7204 1
      vertex 62.5872 44.0768 1
    endloop
  endfacet
  facet normal -0.481703 0.876334 0
    outer loop
      vertex 57.9442 44.3689 1
      vertex 57.4128 44.0768 2.66167
      vertex 57.9442 44.3689 2.66167
    endloop
  endfacet
  facet normal -0.481703 0.876334 0
    outer loop
      vertex 57.4128 44.0768 2.66167
      vertex 57.9442 44.3689 1
      vertex 57.4128 44.0768 1
    endloop
  endfacet
  facet normal -0.951096 0.308896 0
    outer loop
      vertex 55.3233 41.2008 1
      vertex 55.5106 41.7775 2.66167
      vertex 55.5106 41.7775 1
    endloop
  endfacet
  facet normal -0.951096 0.308896 0
    outer loop
      vertex 55.5106 41.7775 2.66167
      vertex 55.3233 41.2008 1
      vertex 55.3233 41.2008 2.66167
    endloop
  endfacet
  facet normal 0.904796 0.425845 0
    outer loop
      vertex 64.4894 41.7775 2.66167
      vertex 64.2312 42.3261 1
      vertex 64.2312 42.3261 2.66167
    endloop
  endfacet
  facet normal 0.904796 0.425845 0
    outer loop
      vertex 64.2312 42.3261 1
      vertex 64.4894 41.7775 2.66167
      vertex 64.4894 41.7775 1
    endloop
  endfacet
  facet normal 0.844347 0.535797 0
    outer loop
      vertex 64.2312 42.3261 2.66167
      vertex 63.9063 42.8381 1
      vertex 63.9063 42.8381 2.66167
    endloop
  endfacet
  facet normal 0.844347 0.535797 0
    outer loop
      vertex 63.9063 42.8381 1
      vertex 64.2312 42.3261 2.66167
      vertex 64.2312 42.3261 1
    endloop
  endfacet
  facet normal 0.368146 0.929768 -0
    outer loop
      vertex 62.0558 44.3689 1
      vertex 61.4921 44.5921 2.66167
      vertex 62.0558 44.3689 2.66167
    endloop
  endfacet
  facet normal 0.368146 0.929768 0
    outer loop
      vertex 61.4921 44.5921 2.66167
      vertex 62.0558 44.3689 1
      vertex 61.4921 44.5921 1
    endloop
  endfacet
  facet normal 0 1 -0
    outer loop
      vertex 60.3032 44.8189 1
      vertex 59.6968 44.8189 2.66167
      vertex 60.3032 44.8189 2.66167
    endloop
  endfacet
  facet normal 0 1 0
    outer loop
      vertex 59.6968 44.8189 2.66167
      vertex 60.3032 44.8189 1
      vertex 59.6968 44.8189 1
    endloop
  endfacet
  facet normal -0.998035 -0.0626658 0
    outer loop
      vertex 55.2096 39.3948 1
      vertex 55.1716 40 2.66167
      vertex 55.1716 40 1
    endloop
  endfacet
  facet normal -0.998035 -0.0626658 0
    outer loop
      vertex 55.1716 40 2.66167
      vertex 55.2096 39.3948 1
      vertex 55.2096 39.3948 2.66167
    endloop
  endfacet
  facet normal -0.844347 0.535797 0
    outer loop
      vertex 55.7688 42.3261 1
      vertex 56.0937 42.8381 2.66167
      vertex 56.0937 42.8381 1
    endloop
  endfacet
  facet normal -0.844347 0.535797 0
    outer loop
      vertex 56.0937 42.8381 2.66167
      vertex 55.7688 42.3261 1
      vertex 55.7688 42.3261 2.66167
    endloop
  endfacet
  facet normal -0.248701 0.96858 0
    outer loop
      vertex 59.0952 44.7429 1
      vertex 58.5079 44.5921 2.66167
      vertex 59.0952 44.7429 2.66167
    endloop
  endfacet
  facet normal -0.248701 0.96858 0
    outer loop
      vertex 58.5079 44.5921 2.66167
      vertex 59.0952 44.7429 1
      vertex 58.5079 44.5921 1
    endloop
  endfacet
  facet normal -0.770514 0.637423 0
    outer loop
      vertex 56.0937 42.8381 1
      vertex 56.4802 43.3053 2.66167
      vertex 56.4802 43.3053 1
    endloop
  endfacet
  facet normal -0.770514 0.637423 0
    outer loop
      vertex 56.4802 43.3053 2.66167
      vertex 56.0937 42.8381 1
      vertex 56.0937 42.8381 2.66167
    endloop
  endfacet
  facet normal 0.998035 0.0626658 0
    outer loop
      vertex 64.8284 40 2.66167
      vertex 64.7904 40.6052 1
      vertex 64.7904 40.6052 2.66167
    endloop
  endfacet
  facet normal 0.998035 0.0626658 0
    outer loop
      vertex 64.7904 40.6052 1
      vertex 64.8284 40 2.66167
      vertex 64.8284 40 1
    endloop
  endfacet
  facet normal 0.844347 -0.535797 0
    outer loop
      vertex 63.9063 37.1619 2.66167
      vertex 64.2312 37.6739 1
      vertex 64.2312 37.6739 2.66167
    endloop
  endfacet
  facet normal 0.844347 -0.535797 0
    outer loop
      vertex 64.2312 37.6739 1
      vertex 63.9063 37.1619 2.66167
      vertex 63.9063 37.1619 1
    endloop
  endfacet
  facet normal 0 -1 0
    outer loop
      vertex 59.6968 35.1811 1
      vertex 60.3032 35.1811 2.66167
      vertex 59.6968 35.1811 2.66167
    endloop
  endfacet
  facet normal 0 -1 -0
    outer loop
      vertex 60.3032 35.1811 2.66167
      vertex 59.6968 35.1811 1
      vertex 60.3032 35.1811 1
    endloop
  endfacet
  facet normal -0.58774 -0.80905 0
    outer loop
      vertex 56.9222 36.2796 1
      vertex 57.4128 35.9232 2.66167
      vertex 56.9222 36.2796 2.66167
    endloop
  endfacet
  facet normal -0.58774 -0.80905 -0
    outer loop
      vertex 57.4128 35.9232 2.66167
      vertex 56.9222 36.2796 1
      vertex 57.4128 35.9232 1
    endloop
  endfacet
  facet normal -0.844347 -0.535797 0
    outer loop
      vertex 56.0937 37.1619 1
      vertex 55.7688 37.6739 2.66167
      vertex 55.7688 37.6739 1
    endloop
  endfacet
  facet normal -0.844347 -0.535797 0
    outer loop
      vertex 55.7688 37.6739 2.66167
      vertex 56.0937 37.1619 1
      vertex 56.0937 37.1619 2.66167
    endloop
  endfacet
  facet normal 0.982262 0.187514 0
    outer loop
      vertex 64.7904 40.6052 2.66167
      vertex 64.6767 41.2008 1
      vertex 64.6767 41.2008 2.66167
    endloop
  endfacet
  facet normal 0.982262 0.187514 0
    outer loop
      vertex 64.6767 41.2008 1
      vertex 64.7904 40.6052 2.66167
      vertex 64.7904 40.6052 1
    endloop
  endfacet
  facet normal 0.951096 0.308896 0
    outer loop
      vertex 64.6767 41.2008 2.66167
      vertex 64.4894 41.7775 1
      vertex 64.4894 41.7775 2.66167
    endloop
  endfacet
  facet normal 0.951096 0.308896 0
    outer loop
      vertex 64.4894 41.7775 1
      vertex 64.6767 41.2008 2.66167
      vertex 64.6767 41.2008 1
    endloop
  endfacet
  facet normal 0.770514 0.637423 0
    outer loop
      vertex 63.9063 42.8381 2.66167
      vertex 63.5198 43.3053 1
      vertex 63.5198 43.3053 2.66167
    endloop
  endfacet
  facet normal 0.770514 0.637423 0
    outer loop
      vertex 63.5198 43.3053 1
      vertex 63.9063 42.8381 2.66167
      vertex 63.9063 42.8381 1
    endloop
  endfacet
  facet normal 0.684577 0.72894 -0
    outer loop
      vertex 63.5198 43.3053 1
      vertex 63.0778 43.7204 2.66167
      vertex 63.5198 43.3053 2.66167
    endloop
  endfacet
  facet normal 0.684577 0.72894 0
    outer loop
      vertex 63.0778 43.7204 2.66167
      vertex 63.5198 43.3053 1
      vertex 63.0778 43.7204 1
    endloop
  endfacet
  facet normal 0.481703 0.876334 -0
    outer loop
      vertex 62.5872 44.0768 1
      vertex 62.0558 44.3689 2.66167
      vertex 62.5872 44.0768 2.66167
    endloop
  endfacet
  facet normal 0.481703 0.876334 0
    outer loop
      vertex 62.0558 44.3689 2.66167
      vertex 62.5872 44.0768 1
      vertex 62.0558 44.3689 1
    endloop
  endfacet
  facet normal 0.248701 0.96858 -0
    outer loop
      vertex 61.4921 44.5921 1
      vertex 60.9048 44.7429 2.66167
      vertex 61.4921 44.5921 2.66167
    endloop
  endfacet
  facet normal 0.248701 0.96858 0
    outer loop
      vertex 60.9048 44.7429 2.66167
      vertex 61.4921 44.5921 1
      vertex 60.9048 44.7429 1
    endloop
  endfacet
  facet normal 0.125334 0.992115 -0
    outer loop
      vertex 60.9048 44.7429 1
      vertex 60.3032 44.8189 2.66167
      vertex 60.9048 44.7429 2.66167
    endloop
  endfacet
  facet normal 0.125334 0.992115 0
    outer loop
      vertex 60.3032 44.8189 2.66167
      vertex 60.9048 44.7429 1
      vertex 60.3032 44.8189 1
    endloop
  endfacet
  facet normal 0 0 1
    outer loop
      vertex 64.7904 40.6052 2.66167
      vertex 64.7904 39.3948 2.66167
      vertex 64.8284 40 2.66167
    endloop
  endfacet
  facet normal 0 0 1
    outer loop
      vertex 64.6767 41.2008 2.66167
      vertex 64.7904 39.3948 2.66167
      vertex 64.7904 40.6052 2.66167
    endloop
  endfacet
  facet normal 0 0 1
    outer loop
      vertex 64.6767 41.2008 2.66167
      vertex 64.6767 38.7992 2.66167
      vertex 64.7904 39.3948 2.66167
    endloop
  endfacet
  facet normal 0 0 1
    outer loop
      vertex 64.4894 41.7775 2.66167
      vertex 64.6767 38.7992 2.66167
      vertex 64.6767 41.2008 2.66167
    endloop
  endfacet
  facet normal 0 0 1
    outer loop
      vertex 64.4894 41.7775 2.66167
      vertex 64.4894 38.2225 2.66167
      vertex 64.6767 38.7992 2.66167
    endloop
  endfacet
  facet normal 0 0 1
    outer loop
      vertex 64.2312 42.3261 2.66167
      vertex 64.4894 38.2225 2.66167
      vertex 64.4894 41.7775 2.66167
    endloop
  endfacet
  facet normal 0 0 1
    outer loop
      vertex 64.2312 42.3261 2.66167
      vertex 64.2312 37.6739 2.66167
      vertex 64.4894 38.2225 2.66167
    endloop
  endfacet
  facet normal 0 0 1
    outer loop
      vertex 63.9063 42.8381 2.66167
      vertex 64.2312 37.6739 2.66167
      vertex 64.2312 42.3261 2.66167
    endloop
  endfacet
  facet normal 0 0 1
    outer loop
      vertex 63.9063 42.8381 2.66167
      vertex 63.9063 37.1619 2.66167
      vertex 64.2312 37.6739 2.66167
    endloop
  endfacet
  facet normal 0 0 1
    outer loop
      vertex 63.5198 43.3053 2.66167
      vertex 63.9063 37.1619 2.66167
      vertex 63.9063 42.8381 2.66167
    endloop
  endfacet
  facet normal 0 0 1
    outer loop
      vertex 63.5198 43.3053 2.66167
      vertex 63.5198 36.6947 2.66167
      vertex 63.9063 37.1619 2.66167
    endloop
  endfacet
  facet normal 0 0 1
    outer loop
      vertex 63.0778 43.7204 2.66167
      vertex 63.5198 36.6947 2.66167
      vertex 63.5198 43.3053 2.66167
    endloop
  endfacet
  facet normal 0 0 1
    outer loop
      vertex 63.0778 43.7204 2.66167
      vertex 63.0778 36.2796 2.66167
      vertex 63.5198 36.6947 2.66167
    endloop
  endfacet
  facet normal 0 0 1
    outer loop
      vertex 62.5872 44.0768 2.66167
      vertex 63.0778 36.2796 2.66167
      vertex 63.0778 43.7204 2.66167
    endloop
  endfacet
  facet normal 0 0 1
    outer loop
      vertex 62.5872 44.0768 2.66167
      vertex 62.5872 35.9232 2.66167
      vertex 63.0778 36.2796 2.66167
    endloop
  endfacet
  facet normal 0 0 1
    outer loop
      vertex 62.0558 44.3689 2.66167
      vertex 62.5872 35.9232 2.66167
      vertex 62.5872 44.0768 2.66167
    endloop
  endfacet
  facet normal 0 0 1
    outer loop
      vertex 62.0558 44.3689 2.66167
      vertex 62.0558 35.6311 2.66167
      vertex 62.5872 35.9232 2.66167
    endloop
  endfacet
  facet normal 0 0 1
    outer loop
      vertex 61.4921 44.5921 2.66167
      vertex 62.0558 35.6311 2.66167
      vertex 62.0558 44.3689 2.66167
    endloop
  endfacet
  facet normal 0 0 1
    outer loop
      vertex 61.4921 44.5921 2.66167
      vertex 61.4921 35.4079 2.66167
      vertex 62.0558 35.6311 2.66167
    endloop
  endfacet
  facet normal 0 0 1
    outer loop
      vertex 60.9048 44.7429 2.66167
      vertex 61.4921 35.4079 2.66167
      vertex 61.4921 44.5921 2.66167
    endloop
  endfacet
  facet normal 0 0 1
    outer loop
      vertex 60.9048 44.7429 2.66167
      vertex 60.9048 35.2571 2.66167
      vertex 61.4921 35.4079 2.66167
    endloop
  endfacet
  facet normal 0 0 1
    outer loop
      vertex 60.3032 44.8189 2.66167
      vertex 60.9048 35.2571 2.66167
      vertex 60.9048 44.7429 2.66167
    endloop
  endfacet
  facet normal 0 0 1
    outer loop
      vertex 60.3032 44.8189 2.66167
      vertex 60.3032 35.1811 2.66167
      vertex 60.9048 35.2571 2.66167
    endloop
  endfacet
  facet normal -0 0 1
    outer loop
      vertex 59.6968 44.8189 2.66167
      vertex 60.3032 35.1811 2.66167
      vertex 60.3032 44.8189 2.66167
    endloop
  endfacet
  facet normal 0 0 1
    outer loop
      vertex 59.6968 44.8189 2.66167
      vertex 59.6968 35.1811 2.66167
      vertex 60.3032 35.1811 2.66167
    endloop
  endfacet
  facet normal -0 0 1
    outer loop
      vertex 59.0952 44.7429 2.66167
      vertex 59.6968 35.1811 2.66167
      vertex 59.6968 44.8189 2.66167
    endloop
  endfacet
  facet normal 0 0 1
    outer loop
      vertex 59.0952 44.7429 2.66167
      vertex 59.0952 35.2571 2.66167
      vertex 59.6968 35.1811 2.66167
    endloop
  endfacet
  facet normal -0 0 1
    outer loop
      vertex 58.5079 44.5921 2.66167
      vertex 59.0952 35.2571 2.66167
      vertex 59.0952 44.7429 2.66167
    endloop
  endfacet
  facet normal 0 0 1
    outer loop
      vertex 58.5079 44.5921 2.66167
      vertex 58.5079 35.4079 2.66167
      vertex 59.0952 35.2571 2.66167
    endloop
  endfacet
  facet normal -0 0 1
    outer loop
      vertex 57.9442 44.3689 2.66167
      vertex 58.5079 35.4079 2.66167
      vertex 58.5079 44.5921 2.66167
    endloop
  endfacet
  facet normal 0 0 1
    outer loop
      vertex 57.9442 44.3689 2.66167
      vertex 57.9442 35.6311 2.66167
      vertex 58.5079 35.4079 2.66167
    endloop
  endfacet
  facet normal -0 0 1
    outer loop
      vertex 57.4128 44.0768 2.66167
      vertex 57.9442 35.6311 2.66167
      vertex 57.9442 44.3689 2.66167
    endloop
  endfacet
  facet normal 0 0 1
    outer loop
      vertex 57.4128 44.0768 2.66167
      vertex 57.4128 35.9232 2.66167
      vertex 57.9442 35.6311 2.66167
    endloop
  endfacet
  facet normal -0 0 1
    outer loop
      vertex 56.9222 43.7204 2.66167
      vertex 57.4128 35.9232 2.66167
      vertex 57.4128 44.0768 2.66167
    endloop
  endfacet
  facet normal 0 0 1
    outer loop
      vertex 56.9222 43.7204 2.66167
      vertex 56.9222 36.2796 2.66167
      vertex 57.4128 35.9232 2.66167
    endloop
  endfacet
  facet normal -0 0 1
    outer loop
      vertex 56.4802 43.3053 2.66167
      vertex 56.9222 36.2796 2.66167
      vertex 56.9222 43.7204 2.66167
    endloop
  endfacet
  facet normal 0 0 1
    outer loop
      vertex 56.4802 43.3053 2.66167
      vertex 56.4802 36.6947 2.66167
      vertex 56.9222 36.2796 2.66167
    endloop
  endfacet
  facet normal -0 0 1
    outer loop
      vertex 56.0937 42.8381 2.66167
      vertex 56.4802 36.6947 2.66167
      vertex 56.4802 43.3053 2.66167
    endloop
  endfacet
  facet normal 0 0 1
    outer loop
      vertex 56.0937 42.8381 2.66167
      vertex 56.0937 37.1619 2.66167
      vertex 56.4802 36.6947 2.66167
    endloop
  endfacet
  facet normal -0 0 1
    outer loop
      vertex 55.7688 42.3261 2.66167
      vertex 56.0937 37.1619 2.66167
      vertex 56.0937 42.8381 2.66167
    endloop
  endfacet
  facet normal 0 0 1
    outer loop
      vertex 55.7688 42.3261 2.66167
      vertex 55.7688 37.6739 2.66167
      vertex 56.0937 37.1619 2.66167
    endloop
  endfacet
  facet normal -0 0 1
    outer loop
      vertex 55.5106 41.7775 2.66167
      vertex 55.7688 37.6739 2.66167
      vertex 55.7688 42.3261 2.66167
    endloop
  endfacet
  facet normal 0 0 1
    outer loop
      vertex 55.5106 41.7775 2.66167
      vertex 55.5106 38.2225 2.66167
      vertex 55.7688 37.6739 2.66167
    endloop
  endfacet
  facet normal -0 0 1
    outer loop
      vertex 55.3233 41.2008 2.66167
      vertex 55.5106 38.2225 2.66167
      vertex 55.5106 41.7775 2.66167
    endloop
  endfacet
  facet normal 0 0 1
    outer loop
      vertex 55.3233 41.2008 2.66167
      vertex 55.3233 38.7992 2.66167
      vertex 55.5106 38.2225 2.66167
    endloop
  endfacet
  facet normal -0 0 1
    outer loop
      vertex 55.2096 40.6052 2.66167
      vertex 55.3233 38.7992 2.66167
      vertex 55.3233 41.2008 2.66167
    endloop
  endfacet
  facet normal 0 0 1
    outer loop
      vertex 55.2096 40.6052 2.66167
      vertex 55.2096 39.3948 2.66167
      vertex 55.3233 38.7992 2.66167
    endloop
  endfacet
  facet normal 0 -0 1
    outer loop
      vertex 55.2096 39.3948 2.66167
      vertex 55.2096 40.6052 2.66167
      vertex 55.1716 40 2.66167
    endloop
  endfacet
  facet normal -0.982262 0.187514 0
    outer loop
      vertex 55.2096 40.6052 1
      vertex 55.3233 41.2008 2.66167
      vertex 55.3233 41.2008 1
    endloop
  endfacet
  facet normal -0.982262 0.187514 0
    outer loop
      vertex 55.3233 41.2008 2.66167
      vertex 55.2096 40.6052 1
      vertex 55.2096 40.6052 2.66167
    endloop
  endfacet
  facet normal -0.998035 0.0626658 0
    outer loop
      vertex 55.1716 40 1
      vertex 55.2096 40.6052 2.66167
      vertex 55.2096 40.6052 1
    endloop
  endfacet
  facet normal -0.998035 0.0626658 0
    outer loop
      vertex 55.2096 40.6052 2.66167
      vertex 55.1716 40 1
      vertex 55.1716 40 2.66167
    endloop
  endfacet
  facet normal -0.904796 0.425845 0
    outer loop
      vertex 55.5106 41.7775 1
      vertex 55.7688 42.3261 2.66167
      vertex 55.7688 42.3261 1
    endloop
  endfacet
  facet normal -0.904796 0.425845 0
    outer loop
      vertex 55.7688 42.3261 2.66167
      vertex 55.5106 41.7775 1
      vertex 55.5106 41.7775 2.66167
    endloop
  endfacet
  facet normal -0.368146 0.929768 0
    outer loop
      vertex 58.5079 44.5921 1
      vertex 57.9442 44.3689 2.66167
      vertex 58.5079 44.5921 2.66167
    endloop
  endfacet
  facet normal -0.368146 0.929768 0
    outer loop
      vertex 57.9442 44.3689 2.66167
      vertex 58.5079 44.5921 1
      vertex 57.9442 44.3689 1
    endloop
  endfacet
  facet normal -0.125334 0.992115 0
    outer loop
      vertex 59.6968 44.8189 1
      vertex 59.0952 44.7429 2.66167
      vertex 59.6968 44.8189 2.66167
    endloop
  endfacet
  facet normal -0.125334 0.992115 0
    outer loop
      vertex 59.0952 44.7429 2.66167
      vertex 59.6968 44.8189 1
      vertex 59.0952 44.7429 1
    endloop
  endfacet
  facet normal -0.684577 0.72894 0
    outer loop
      vertex 56.9222 43.7204 1
      vertex 56.4802 43.3053 2.66167
      vertex 56.9222 43.7204 2.66167
    endloop
  endfacet
  facet normal -0.684577 0.72894 0
    outer loop
      vertex 56.4802 43.3053 2.66167
      vertex 56.9222 43.7204 1
      vertex 56.4802 43.3053 1
    endloop
  endfacet
  facet normal -0.58774 0.80905 0
    outer loop
      vertex 57.4128 44.0768 1
      vertex 56.9222 43.7204 2.66167
      vertex 57.4128 44.0768 2.66167
    endloop
  endfacet
  facet normal -0.58774 0.80905 0
    outer loop
      vertex 56.9222 43.7204 2.66167
      vertex 57.4128 44.0768 1
      vertex 56.9222 43.7204 1
    endloop
  endfacet
  facet normal 0.982262 -0.187514 0
    outer loop
      vertex 64.6767 38.7992 2.66167
      vertex 64.7904 39.3948 1
      vertex 64.7904 39.3948 2.66167
    endloop
  endfacet
  facet normal 0.982262 -0.187514 0
    outer loop
      vertex 64.7904 39.3948 1
      vertex 64.6767 38.7992 2.66167
      vertex 64.6767 38.7992 1
    endloop
  endfacet
  facet normal 0.125334 -0.992115 0
    outer loop
      vertex 60.3032 35.1811 1
      vertex 60.9048 35.2571 2.66167
      vertex 60.3032 35.1811 2.66167
    endloop
  endfacet
  facet normal 0.125334 -0.992115 0
    outer loop
      vertex 60.9048 35.2571 2.66167
      vertex 60.3032 35.1811 1
      vertex 60.9048 35.2571 1
    endloop
  endfacet
  facet normal 0.248701 -0.96858 0
    outer loop
      vertex 60.9048 35.2571 1
      vertex 61.4921 35.4079 2.66167
      vertex 60.9048 35.2571 2.66167
    endloop
  endfacet
  facet normal 0.248701 -0.96858 0
    outer loop
      vertex 61.4921 35.4079 2.66167
      vertex 60.9048 35.2571 1
      vertex 61.4921 35.4079 1
    endloop
  endfacet
  facet normal 0.368146 -0.929768 0
    outer loop
      vertex 61.4921 35.4079 1
      vertex 62.0558 35.6311 2.66167
      vertex 61.4921 35.4079 2.66167
    endloop
  endfacet
  facet normal 0.368146 -0.929768 0
    outer loop
      vertex 62.0558 35.6311 2.66167
      vertex 61.4921 35.4079 1
      vertex 62.0558 35.6311 1
    endloop
  endfacet
  facet normal 0.770514 -0.637423 0
    outer loop
      vertex 63.5198 36.6947 2.66167
      vertex 63.9063 37.1619 1
      vertex 63.9063 37.1619 2.66167
    endloop
  endfacet
  facet normal 0.770514 -0.637423 0
    outer loop
      vertex 63.9063 37.1619 1
      vertex 63.5198 36.6947 2.66167
      vertex 63.5198 36.6947 1
    endloop
  endfacet
  facet normal 0.58774 -0.80905 0
    outer loop
      vertex 62.5872 35.9232 1
      vertex 63.0778 36.2796 2.66167
      vertex 62.5872 35.9232 2.66167
    endloop
  endfacet
  facet normal 0.58774 -0.80905 0
    outer loop
      vertex 63.0778 36.2796 2.66167
      vertex 62.5872 35.9232 1
      vertex 63.0778 36.2796 1
    endloop
  endfacet
  facet normal 0.951096 -0.308896 0
    outer loop
      vertex 64.4894 38.2225 2.66167
      vertex 64.6767 38.7992 1
      vertex 64.6767 38.7992 2.66167
    endloop
  endfacet
  facet normal 0.951096 -0.308896 0
    outer loop
      vertex 64.6767 38.7992 1
      vertex 64.4894 38.2225 2.66167
      vertex 64.4894 38.2225 1
    endloop
  endfacet
  facet normal -0.248701 -0.96858 0
    outer loop
      vertex 58.5079 35.4079 1
      vertex 59.0952 35.2571 2.66167
      vertex 58.5079 35.4079 2.66167
    endloop
  endfacet
  facet normal -0.248701 -0.96858 -0
    outer loop
      vertex 59.0952 35.2571 2.66167
      vertex 58.5079 35.4079 1
      vertex 59.0952 35.2571 1
    endloop
  endfacet
  facet normal -0.481703 -0.876334 0
    outer loop
      vertex 57.4128 35.9232 1
      vertex 57.9442 35.6311 2.66167
      vertex 57.4128 35.9232 2.66167
    endloop
  endfacet
  facet normal -0.481703 -0.876334 -0
    outer loop
      vertex 57.9442 35.6311 2.66167
      vertex 57.4128 35.9232 1
      vertex 57.9442 35.6311 1
    endloop
  endfacet
  facet normal -0.904796 -0.425845 0
    outer loop
      vertex 55.7688 37.6739 1
      vertex 55.5106 38.2225 2.66167
      vertex 55.5106 38.2225 1
    endloop
  endfacet
  facet normal -0.904796 -0.425845 0
    outer loop
      vertex 55.5106 38.2225 2.66167
      vertex 55.7688 37.6739 1
      vertex 55.7688 37.6739 2.66167
    endloop
  endfacet
  facet normal -0.982262 -0.187514 0
    outer loop
      vertex 55.3233 38.7992 1
      vertex 55.2096 39.3948 2.66167
      vertex 55.2096 39.3948 1
    endloop
  endfacet
  facet normal -0.982262 -0.187514 0
    outer loop
      vertex 55.2096 39.3948 2.66167
      vertex 55.3233 38.7992 1
      vertex 55.3233 38.7992 2.66167
    endloop
  endfacet
  facet normal -0.770514 -0.637423 0
    outer loop
      vertex 56.4802 36.6947 1
      vertex 56.0937 37.1619 2.66167
      vertex 56.0937 37.1619 1
    endloop
  endfacet
  facet normal -0.770514 -0.637423 0
    outer loop
      vertex 56.0937 37.1619 2.66167
      vertex 56.4802 36.6947 1
      vertex 56.4802 36.6947 2.66167
    endloop
  endfacet
  facet normal -0.684577 -0.72894 0
    outer loop
      vertex 56.4802 36.6947 1
      vertex 56.9222 36.2796 2.66167
      vertex 56.4802 36.6947 2.66167
    endloop
  endfacet
  facet normal -0.684577 -0.72894 -0
    outer loop
      vertex 56.9222 36.2796 2.66167
      vertex 56.4802 36.6947 1
      vertex 56.9222 36.2796 1
    endloop
  endfacet
  facet normal 0.998035 -0.0626658 0
    outer loop
      vertex 64.7904 39.3948 2.66167
      vertex 64.8284 40 1
      vertex 64.8284 40 2.66167
    endloop
  endfacet
  facet normal 0.998035 -0.0626658 0
    outer loop
      vertex 64.8284 40 1
      vertex 64.7904 39.3948 2.66167
      vertex 64.7904 39.3948 1
    endloop
  endfacet
  facet normal 0.481703 -0.876334 0
    outer loop
      vertex 62.0558 35.6311 1
      vertex 62.5872 35.9232 2.66167
      vertex 62.0558 35.6311 2.66167
    endloop
  endfacet
  facet normal 0.481703 -0.876334 0
    outer loop
      vertex 62.5872 35.9232 2.66167
      vertex 62.0558 35.6311 1
      vertex 62.5872 35.9232 1
    endloop
  endfacet
  facet normal 0.684577 -0.72894 0
    outer loop
      vertex 63.0778 36.2796 1
      vertex 63.5198 36.6947 2.66167
      vertex 63.0778 36.2796 2.66167
    endloop
  endfacet
  facet normal 0.684577 -0.72894 0
    outer loop
      vertex 63.5198 36.6947 2.66167
      vertex 63.0778 36.2796 1
      vertex 63.5198 36.6947 1
    endloop
  endfacet
  facet normal 0.904796 -0.425845 0
    outer loop
      vertex 64.2312 37.6739 2.66167
      vertex 64.4894 38.2225 1
      vertex 64.4894 38.2225 2.66167
    endloop
  endfacet
  facet normal 0.904796 -0.425845 0
    outer loop
      vertex 64.4894 38.2225 1
      vertex 64.2312 37.6739 2.66167
      vertex 64.2312 37.6739 1
    endloop
  endfacet
  facet normal -0.125334 -0.992115 0
    outer loop
      vertex 59.0952 35.2571 1
      vertex 59.6968 35.1811 2.66167
      vertex 59.0952 35.2571 2.66167
    endloop
  endfacet
  facet normal -0.125334 -0.992115 -0
    outer loop
      vertex 59.6968 35.1811 2.66167
      vertex 59.0952 35.2571 1
      vertex 59.6968 35.1811 1
    endloop
  endfacet
  facet normal -0.368146 -0.929768 0
    outer loop
      vertex 57.9442 35.6311 1
      vertex 58.5079 35.4079 2.66167
      vertex 57.9442 35.6311 2.66167
    endloop
  endfacet
  facet normal -0.368146 -0.929768 -0
    outer loop
      vertex 58.5079 35.4079 2.66167
      vertex 57.9442 35.6311 1
      vertex 58.5079 35.4079 1
    endloop
  endfacet
  facet normal -0.951096 -0.308896 0
    outer loop
      vertex 55.5106 38.2225 1
      vertex 55.3233 38.7992 2.66167
      vertex 55.3233 38.7992 1
    endloop
  endfacet
  facet normal -0.951096 -0.308896 0
    outer loop
      vertex 55.3233 38.7992 2.66167
      vertex 55.5106 38.2225 1
      vertex 55.5106 38.2225 2.66167
    endloop
  endfacet
  facet normal 0 0 1
    outer loop
      vertex 46.2 46.2 1
      vertex 44 44 1
      vertex 46.2 33.8 1
    endloop
  endfacet
  facet normal 0 0 1
    outer loop
      vertex 46.2 46.2 1
      vertex 36 44 1
      vertex 44 44 1
    endloop
  endfacet
  facet normal 0 0 1
    outer loop
      vertex 36 44 1
      vertex 33.8 46.2 1
      vertex 36 36 1
    endloop
  endfacet
  facet normal -0 0 1
    outer loop
      vertex 33.8 46.2 1
      vertex 36 44 1
      vertex 46.2 46.2 1
    endloop
  endfacet
  facet normal -0 0 1
    outer loop
      vertex 44 36 1
      vertex 46.2 33.8 1
      vertex 44 44 1
    endloop
  endfacet
  facet normal -0 0 1
    outer loop
      vertex 36 36 1
      vertex 46.2 33.8 1
      vertex 44 36 1
    endloop
  endfacet
  facet normal 0 0 1
    outer loop
      vertex 36 36 1
      vertex 33.8 33.8 1
      vertex 46.2 33.8 1
    endloop
  endfacet
  facet normal 0 0 1
    outer loop
      vertex 33.8 33.8 1
      vertex 36 36 1
      vertex 33.8 46.2 1
    endloop
  endfacet
  facet normal -0 0 1
    outer loop
      vertex 44.8284 60 1
      vertex 49.995 49.995 1
      vertex 49.995 70 1
    endloop
  endfacet
  facet normal 0 0 1
    outer loop
      vertex 49.995 49.995 1
      vertex 44.8284 60 1
      vertex 44.7904 59.3948 1
    endloop
  endfacet
  facet normal 0 0 1
    outer loop
      vertex 49.995 70 1
      vertex 44.7904 60.6052 1
      vertex 44.8284 60 1
    endloop
  endfacet
  facet normal 0 0 1
    outer loop
      vertex 49.995 70 1
      vertex 44.6767 61.2008 1
      vertex 44.7904 60.6052 1
    endloop
  endfacet
  facet normal 0 0 1
    outer loop
      vertex 49.995 70 1
      vertex 44.4894 61.7775 1
      vertex 44.6767 61.2008 1
    endloop
  endfacet
  facet normal 0 0 1
    outer loop
      vertex 49.995 70 1
      vertex 44.2312 62.3261 1
      vertex 44.4894 61.7775 1
    endloop
  endfacet
  facet normal 0 0 1
    outer loop
      vertex 49.995 70 1
      vertex 43.9063 62.8381 1
      vertex 44.2312 62.3261 1
    endloop
  endfacet
  facet normal 0 0 1
    outer loop
      vertex 49.995 70 1
      vertex 43.5198 63.3053 1
      vertex 43.9063 62.8381 1
    endloop
  endfacet
  facet normal 0 0 1
    outer loop
      vertex 49.995 70 1
      vertex 43.0778 63.7204 1
      vertex 43.5198 63.3053 1
    endloop
  endfacet
  facet normal 0 0 1
    outer loop
      vertex 49.995 70 1
      vertex 42.5872 64.0768 1
      vertex 43.0778 63.7204 1
    endloop
  endfacet
  facet normal 0 0 1
    outer loop
      vertex 49.995 70 1
      vertex 42.0558 64.3689 1
      vertex 42.5872 64.0768 1
    endloop
  endfacet
  facet normal 0 0 1
    outer loop
      vertex 49.995 70 1
      vertex 41.4921 64.5921 1
      vertex 42.0558 64.3689 1
    endloop
  endfacet
  facet normal 0 0 1
    outer loop
      vertex 49.995 70 1
      vertex 40.9048 64.7429 1
      vertex 41.4921 64.5921 1
    endloop
  endfacet
  facet normal 0 0 1
    outer loop
      vertex 49.995 70 1
      vertex 40.3032 64.8189 1
      vertex 40.9048 64.7429 1
    endloop
  endfacet
  facet normal 0 0 1
    outer loop
      vertex 49.995 70 1
      vertex 39.6968 64.8189 1
      vertex 40.3032 64.8189 1
    endloop
  endfacet
  facet normal -0 0 1
    outer loop
      vertex 29.995 70 1
      vertex 39.6968 64.8189 1
      vertex 49.995 70 1
    endloop
  endfacet
  facet normal 0 0 1
    outer loop
      vertex 39.6968 64.8189 1
      vertex 29.995 70 1
      vertex 39.0952 64.7429 1
    endloop
  endfacet
  facet normal 0 0 1
    outer loop
      vertex 39.0952 64.7429 1
      vertex 29.995 70 1
      vertex 38.5079 64.5921 1
    endloop
  endfacet
  facet normal 0 0 1
    outer loop
      vertex 29.995 70 1
      vertex 35.1716 60 1
      vertex 35.2096 60.6052 1
    endloop
  endfacet
  facet normal 0 0 1
    outer loop
      vertex 29.995 70 1
      vertex 35.2096 60.6052 1
      vertex 35.3233 61.2008 1
    endloop
  endfacet
  facet normal 0 0 1
    outer loop
      vertex 29.995 29.995 1
      vertex 32.2 47.8 1
      vertex 29.995 70 1
    endloop
  endfacet
  facet normal 0 0 1
    outer loop
      vertex 35.1716 60 1
      vertex 29.995 70 1
      vertex 32.2 47.8 1
    endloop
  endfacet
  facet normal 0 0 1
    outer loop
      vertex 35.5106 61.7775 1
      vertex 29.995 70 1
      vertex 35.3233 61.2008 1
    endloop
  endfacet
  facet normal 0 0 1
    outer loop
      vertex 35.7688 62.3261 1
      vertex 29.995 70 1
      vertex 35.5106 61.7775 1
    endloop
  endfacet
  facet normal 0 0 1
    outer loop
      vertex 36.0937 62.8381 1
      vertex 29.995 70 1
      vertex 35.7688 62.3261 1
    endloop
  endfacet
  facet normal 0 0 1
    outer loop
      vertex 36.4802 63.3053 1
      vertex 29.995 70 1
      vertex 36.0937 62.8381 1
    endloop
  endfacet
  facet normal 0 0 1
    outer loop
      vertex 36.9222 63.7204 1
      vertex 29.995 70 1
      vertex 36.4802 63.3053 1
    endloop
  endfacet
  facet normal 0 0 1
    outer loop
      vertex 37.4128 64.0768 1
      vertex 29.995 70 1
      vertex 36.9222 63.7204 1
    endloop
  endfacet
  facet normal 0 0 1
    outer loop
      vertex 37.9442 64.3689 1
      vertex 29.995 70 1
      vertex 37.4128 64.0768 1
    endloop
  endfacet
  facet normal 0 0 1
    outer loop
      vertex 38.5079 64.5921 1
      vertex 29.995 70 1
      vertex 37.9442 64.3689 1
    endloop
  endfacet
  facet normal -0 0 1
    outer loop
      vertex 44.6767 58.7992 1
      vertex 49.995 49.995 1
      vertex 44.7904 59.3948 1
    endloop
  endfacet
  facet normal -0 0 1
    outer loop
      vertex 44.4894 58.2225 1
      vertex 49.995 49.995 1
      vertex 44.6767 58.7992 1
    endloop
  endfacet
  facet normal -0 0 1
    outer loop
      vertex 44.2312 57.6739 1
      vertex 49.995 49.995 1
      vertex 44.4894 58.2225 1
    endloop
  endfacet
  facet normal -0 0 1
    outer loop
      vertex 43.9063 57.1619 1
      vertex 49.995 49.995 1
      vertex 44.2312 57.6739 1
    endloop
  endfacet
  facet normal -0 0 1
    outer loop
      vertex 43.5198 56.6947 1
      vertex 49.995 49.995 1
      vertex 43.9063 57.1619 1
    endloop
  endfacet
  facet normal -0 0 1
    outer loop
      vertex 43.0778 56.2796 1
      vertex 49.995 49.995 1
      vertex 43.5198 56.6947 1
    endloop
  endfacet
  facet normal 0 0 1
    outer loop
      vertex 49.995 49.995 1
      vertex 43.0778 56.2796 1
      vertex 47.8 47.8 1
    endloop
  endfacet
  facet normal -0 0 1
    outer loop
      vertex 42.5872 55.9232 1
      vertex 47.8 47.8 1
      vertex 43.0778 56.2796 1
    endloop
  endfacet
  facet normal -0 0 1
    outer loop
      vertex 42.0558 55.6311 1
      vertex 47.8 47.8 1
      vertex 42.5872 55.9232 1
    endloop
  endfacet
  facet normal -0 0 1
    outer loop
      vertex 41.4921 55.4079 1
      vertex 47.8 47.8 1
      vertex 42.0558 55.6311 1
    endloop
  endfacet
  facet normal -0 0 1
    outer loop
      vertex 40.9048 55.2571 1
      vertex 47.8 47.8 1
      vertex 41.4921 55.4079 1
    endloop
  endfacet
  facet normal -0 0 1
    outer loop
      vertex 40.3032 55.1811 1
      vertex 47.8 47.8 1
      vertex 40.9048 55.2571 1
    endloop
  endfacet
  facet normal -0 0 1
    outer loop
      vertex 39.6968 55.1811 1
      vertex 47.8 47.8 1
      vertex 40.3032 55.1811 1
    endloop
  endfacet
  facet normal 0 0 1
    outer loop
      vertex 32.2 47.8 1
      vertex 39.6968 55.1811 1
      vertex 39.0952 55.2571 1
    endloop
  endfacet
  facet normal 0 0 1
    outer loop
      vertex 32.2 47.8 1
      vertex 39.0952 55.2571 1
      vertex 38.5079 55.4079 1
    endloop
  endfacet
  facet normal 0 0 1
    outer loop
      vertex 32.2 47.8 1
      vertex 38.5079 55.4079 1
      vertex 37.9442 55.6311 1
    endloop
  endfacet
  facet normal 0 0 1
    outer loop
      vertex 32.2 47.8 1
      vertex 37.9442 55.6311 1
      vertex 37.4128 55.9232 1
    endloop
  endfacet
  facet normal 0 0 1
    outer loop
      vertex 32.2 47.8 1
      vertex 37.4128 55.9232 1
      vertex 36.9222 56.2796 1
    endloop
  endfacet
  facet normal 0 0 1
    outer loop
      vertex 39.6968 55.1811 1
      vertex 32.2 47.8 1
      vertex 47.8 47.8 1
    endloop
  endfacet
  facet normal 0 0 1
    outer loop
      vertex 36.4802 56.6947 1
      vertex 32.2 47.8 1
      vertex 36.9222 56.2796 1
    endloop
  endfacet
  facet normal 0 0 1
    outer loop
      vertex 36.0937 57.1619 1
      vertex 32.2 47.8 1
      vertex 36.4802 56.6947 1
    endloop
  endfacet
  facet normal 0 0 1
    outer loop
      vertex 35.7688 57.6739 1
      vertex 32.2 47.8 1
      vertex 36.0937 57.1619 1
    endloop
  endfacet
  facet normal 0 0 1
    outer loop
      vertex 35.5106 58.2225 1
      vertex 32.2 47.8 1
      vertex 35.7688 57.6739 1
    endloop
  endfacet
  facet normal 0 0 1
    outer loop
      vertex 35.3233 58.7992 1
      vertex 32.2 47.8 1
      vertex 35.5106 58.2225 1
    endloop
  endfacet
  facet normal 0 0 1
    outer loop
      vertex 35.2096 59.3948 1
      vertex 32.2 47.8 1
      vertex 35.3233 58.7992 1
    endloop
  endfacet
  facet normal 0 0 1
    outer loop
      vertex 32.2 47.8 1
      vertex 35.2096 59.3948 1
      vertex 35.1716 60 1
    endloop
  endfacet
  facet normal 0 0 1
    outer loop
      vertex 70 49.995 1
      vertex 64.8284 40 1
      vertex 70 29.995 1
    endloop
  endfacet
  facet normal 0 0 1
    outer loop
      vertex 70 49.995 1
      vertex 64.7904 40.6052 1
      vertex 64.8284 40 1
    endloop
  endfacet
  facet normal 0 0 1
    outer loop
      vertex 70 49.995 1
      vertex 64.6767 41.2008 1
      vertex 64.7904 40.6052 1
    endloop
  endfacet
  facet normal 0 0 1
    outer loop
      vertex 70 49.995 1
      vertex 64.4894 41.7775 1
      vertex 64.6767 41.2008 1
    endloop
  endfacet
  facet normal 0 0 1
    outer loop
      vertex 70 49.995 1
      vertex 64.2312 42.3261 1
      vertex 64.4894 41.7775 1
    endloop
  endfacet
  facet normal 0 0 1
    outer loop
      vertex 70 49.995 1
      vertex 63.9063 42.8381 1
      vertex 64.2312 42.3261 1
    endloop
  endfacet
  facet normal 0 0 1
    outer loop
      vertex 70 49.995 1
      vertex 63.5198 43.3053 1
      vertex 63.9063 42.8381 1
    endloop
  endfacet
  facet normal 0 0 1
    outer loop
      vertex 70 49.995 1
      vertex 63.0778 43.7204 1
      vertex 63.5198 43.3053 1
    endloop
  endfacet
  facet normal 0 0 1
    outer loop
      vertex 70 49.995 1
      vertex 62.5872 44.0768 1
      vertex 63.0778 43.7204 1
    endloop
  endfacet
  facet normal 0 0 1
    outer loop
      vertex 70 49.995 1
      vertex 62.0558 44.3689 1
      vertex 62.5872 44.0768 1
    endloop
  endfacet
  facet normal 0 0 1
    outer loop
      vertex 70 49.995 1
      vertex 61.4921 44.5921 1
      vertex 62.0558 44.3689 1
    endloop
  endfacet
  facet normal 0 0 1
    outer loop
      vertex 70 49.995 1
      vertex 60.9048 44.7429 1
      vertex 61.4921 44.5921 1
    endloop
  endfacet
  facet normal 0 0 1
    outer loop
      vertex 70 49.995 1
      vertex 60.3032 44.8189 1
      vertex 60.9048 44.7429 1
    endloop
  endfacet
  facet normal 0 0 1
    outer loop
      vertex 70 49.995 1
      vertex 59.6968 44.8189 1
      vertex 60.3032 44.8189 1
    endloop
  endfacet
  facet normal -0 0 1
    outer loop
      vertex 49.995 49.995 1
      vertex 59.6968 44.8189 1
      vertex 70 49.995 1
    endloop
  endfacet
  facet normal 0 0 1
    outer loop
      vertex 59.6968 44.8189 1
      vertex 49.995 49.995 1
      vertex 59.0952 44.7429 1
    endloop
  endfacet
  facet normal 0 0 1
    outer loop
      vertex 59.0952 44.7429 1
      vertex 49.995 49.995 1
      vertex 58.5079 44.5921 1
    endloop
  endfacet
  facet normal 0 0 1
    outer loop
      vertex 55.3233 41.2008 1
      vertex 47.8 47.8 1
      vertex 55.2096 40.6052 1
    endloop
  endfacet
  facet normal 0 0 1
    outer loop
      vertex 55.5106 41.7775 1
      vertex 47.8 47.8 1
      vertex 55.3233 41.2008 1
    endloop
  endfacet
  facet normal 0 0 1
    outer loop
      vertex 55.7688 42.3261 1
      vertex 47.8 47.8 1
      vertex 55.5106 41.7775 1
    endloop
  endfacet
  facet normal 0 0 1
    outer loop
      vertex 56.0937 42.8381 1
      vertex 47.8 47.8 1
      vertex 55.7688 42.3261 1
    endloop
  endfacet
  facet normal -0 0 1
    outer loop
      vertex 47.8 47.8 1
      vertex 56.0937 42.8381 1
      vertex 49.995 49.995 1
    endloop
  endfacet
  facet normal 0 0 1
    outer loop
      vertex 56.4802 43.3053 1
      vertex 49.995 49.995 1
      vertex 56.0937 42.8381 1
    endloop
  endfacet
  facet normal 0 0 1
    outer loop
      vertex 56.9222 43.7204 1
      vertex 49.995 49.995 1
      vertex 56.4802 43.3053 1
    endloop
  endfacet
  facet normal 0 0 1
    outer loop
      vertex 57.4128 44.0768 1
      vertex 49.995 49.995 1
      vertex 56.9222 43.7204 1
    endloop
  endfacet
  facet normal 0 0 1
    outer loop
      vertex 57.9442 44.3689 1
      vertex 49.995 49.995 1
      vertex 57.4128 44.0768 1
    endloop
  endfacet
  facet normal 0 0 1
    outer loop
      vertex 58.5079 44.5921 1
      vertex 49.995 49.995 1
      vertex 57.9442 44.3689 1
    endloop
  endfacet
  facet normal -0 0 1
    outer loop
      vertex 64.7904 39.3948 1
      vertex 70 29.995 1
      vertex 64.8284 40 1
    endloop
  endfacet
  facet normal -0 0 1
    outer loop
      vertex 64.6767 38.7992 1
      vertex 70 29.995 1
      vertex 64.7904 39.3948 1
    endloop
  endfacet
  facet normal -0 0 1
    outer loop
      vertex 64.4894 38.2225 1
      vertex 70 29.995 1
      vertex 64.6767 38.7992 1
    endloop
  endfacet
  facet normal -0 0 1
    outer loop
      vertex 64.2312 37.6739 1
      vertex 70 29.995 1
      vertex 64.4894 38.2225 1
    endloop
  endfacet
  facet normal -0 0 1
    outer loop
      vertex 63.9063 37.1619 1
      vertex 70 29.995 1
      vertex 64.2312 37.6739 1
    endloop
  endfacet
  facet normal -0 0 1
    outer loop
      vertex 63.5198 36.6947 1
      vertex 70 29.995 1
      vertex 63.9063 37.1619 1
    endloop
  endfacet
  facet normal -0 0 1
    outer loop
      vertex 63.0778 36.2796 1
      vertex 70 29.995 1
      vertex 63.5198 36.6947 1
    endloop
  endfacet
  facet normal -0 0 1
    outer loop
      vertex 62.5872 35.9232 1
      vertex 70 29.995 1
      vertex 63.0778 36.2796 1
    endloop
  endfacet
  facet normal -0 0 1
    outer loop
      vertex 62.0558 35.6311 1
      vertex 70 29.995 1
      vertex 62.5872 35.9232 1
    endloop
  endfacet
  facet normal -0 0 1
    outer loop
      vertex 61.4921 35.4079 1
      vertex 70 29.995 1
      vertex 62.0558 35.6311 1
    endloop
  endfacet
  facet normal -0 0 1
    outer loop
      vertex 60.9048 35.2571 1
      vertex 70 29.995 1
      vertex 61.4921 35.4079 1
    endloop
  endfacet
  facet normal -0 0 1
    outer loop
      vertex 60.3032 35.1811 1
      vertex 70 29.995 1
      vertex 60.9048 35.2571 1
    endloop
  endfacet
  facet normal -0 0 1
    outer loop
      vertex 59.6968 35.1811 1
      vertex 70 29.995 1
      vertex 60.3032 35.1811 1
    endloop
  endfacet
  facet normal 0 0 1
    outer loop
      vertex 47.8 32.2 1
      vertex 59.6968 35.1811 1
      vertex 59.0952 35.2571 1
    endloop
  endfacet
  facet normal 0 0 1
    outer loop
      vertex 47.8 32.2 1
      vertex 59.0952 35.2571 1
      vertex 58.5079 35.4079 1
    endloop
  endfacet
  facet normal 0 0 1
    outer loop
      vertex 47.8 32.2 1
      vertex 58.5079 35.4079 1
      vertex 57.9442 35.6311 1
    endloop
  endfacet
  facet normal 0 0 1
    outer loop
      vertex 55.2096 40.6052 1
      vertex 47.8 47.8 1
      vertex 55.1716 40 1
    endloop
  endfacet
  facet normal 0 0 1
    outer loop
      vertex 47.8 32.2 1
      vertex 55.1716 40 1
      vertex 47.8 47.8 1
    endloop
  endfacet
  facet normal 0 0 1
    outer loop
      vertex 55.1716 40 1
      vertex 47.8 32.2 1
      vertex 55.2096 39.3948 1
    endloop
  endfacet
  facet normal 0 0 1
    outer loop
      vertex 55.2096 39.3948 1
      vertex 47.8 32.2 1
      vertex 55.3233 38.7992 1
    endloop
  endfacet
  facet normal 0 0 1
    outer loop
      vertex 55.3233 38.7992 1
      vertex 47.8 32.2 1
      vertex 55.5106 38.2225 1
    endloop
  endfacet
  facet normal 0 0 1
    outer loop
      vertex 55.5106 38.2225 1
      vertex 47.8 32.2 1
      vertex 55.7688 37.6739 1
    endloop
  endfacet
  facet normal 0 0 1
    outer loop
      vertex 55.7688 37.6739 1
      vertex 47.8 32.2 1
      vertex 56.0937 37.1619 1
    endloop
  endfacet
  facet normal 0 0 1
    outer loop
      vertex 47.8 32.2 1
      vertex 56.4802 36.6947 1
      vertex 56.0937 37.1619 1
    endloop
  endfacet
  facet normal 0 0 1
    outer loop
      vertex 47.8 32.2 1
      vertex 56.9222 36.2796 1
      vertex 56.4802 36.6947 1
    endloop
  endfacet
  facet normal 0 0 1
    outer loop
      vertex 47.8 32.2 1
      vertex 57.4128 35.9232 1
      vertex 56.9222 36.2796 1
    endloop
  endfacet
  facet normal 0 0 1
    outer loop
      vertex 47.8 32.2 1
      vertex 57.9442 35.6311 1
      vertex 57.4128 35.9232 1
    endloop
  endfacet
  facet normal 0 0 1
    outer loop
      vertex 59.6968 35.1811 1
      vertex 47.8 32.2 1
      vertex 70 29.995 1
    endloop
  endfacet
  facet normal 0 0 1
    outer loop
      vertex 29.995 29.995 1
      vertex 47.8 32.2 1
      vertex 32.2 32.2 1
    endloop
  endfacet
  facet normal 0 0 1
    outer loop
      vertex 47.8 32.2 1
      vertex 29.995 29.995 1
      vertex 70 29.995 1
    endloop
  endfacet
  facet normal 0 0 1
    outer loop
      vertex 32.2 47.8 1
      vertex 29.995 29.995 1
      vertex 32.2 32.2 1
    endloop
  endfacet
  facet normal 1 -0 0
    outer loop
      vertex 70 29.995 1
      vertex 70 49.995 -1
      vertex 70 49.995 1
    endloop
  endfacet
  facet normal 1 0 0
    outer loop
      vertex 70 49.995 -1
      vertex 70 29.995 1
      vertex 70 29.995 -1
    endloop
  endfacet
  facet normal 0 0 -1
    outer loop
      vertex 70 29.995 -1
      vertex 49.995 49.995 -1
      vertex 70 49.995 -1
    endloop
  endfacet
  facet normal 0 0 -1
    outer loop
      vertex 29.995 29.995 -1
      vertex 49.995 49.995 -1
      vertex 70 29.995 -1
    endloop
  endfacet
  facet normal 0 0 -1
    outer loop
      vertex 29.995 70 -1
      vertex 49.995 49.995 -1
      vertex 29.995 29.995 -1
    endloop
  endfacet
  facet normal 0 0 -1
    outer loop
      vertex 49.995 49.995 -1
      vertex 29.995 70 -1
      vertex 49.995 70 -1
    endloop
  endfacet
  facet normal 0 1 -0
    outer loop
      vertex 49.995 70 -1
      vertex 29.995 70 1
      vertex 49.995 70 1
    endloop
  endfacet
  facet normal 0 1 0
    outer loop
      vertex 29.995 70 1
      vertex 49.995 70 -1
      vertex 29.995 70 -1
    endloop
  endfacet
  facet normal 0 0 1
    outer loop
      vertex 47.8 47.8 0.00999928
      vertex 46.2 46.2 0.00999928
      vertex 47.8 32.2 0.00999928
    endloop
  endfacet
  facet normal 0 0 1
    outer loop
      vertex 47.8 47.8 0.00999928
      vertex 33.8 46.2 0.00999928
      vertex 46.2 46.2 0.00999928
    endloop
  endfacet
  facet normal 0 0 1
    outer loop
      vertex 33.8 46.2 0.00999928
      vertex 32.2 47.8 0.00999928
      vertex 33.8 33.8 0.00999928
    endloop
  endfacet
  facet normal -0 0 1
    outer loop
      vertex 32.2 47.8 0.00999928
      vertex 33.8 46.2 0.00999928
      vertex 47.8 47.8 0.00999928
    endloop
  endfacet
  facet normal -0 0 1
    outer loop
      vertex 46.2 33.8 0.00999928
      vertex 47.8 32.2 0.00999928
      vertex 46.2 46.2 0.00999928
    endloop
  endfacet
  facet normal -0 0 1
    outer loop
      vertex 33.8 33.8 0.00999928
      vertex 47.8 32.2 0.00999928
      vertex 46.2 33.8 0.00999928
    endloop
  endfacet
  facet normal 0 0 1
    outer loop
      vertex 33.8 33.8 0.00999928
      vertex 32.2 32.2 0.00999928
      vertex 47.8 32.2 0.00999928
    endloop
  endfacet
  facet normal 0 0 1
    outer loop
      vertex 32.2 32.2 0.00999928
      vertex 33.8 33.8 0.00999928
      vertex 32.2 47.8 0.00999928
    endloop
  endfacet
  facet normal 0 -1 0
    outer loop
      vertex 32.2 47.8 0.00999928
      vertex 47.8 47.8 1
      vertex 32.2 47.8 1
    endloop
  endfacet
  facet normal 0 -1 -0
    outer loop
      vertex 47.8 47.8 1
      vertex 32.2 47.8 0.00999928
      vertex 47.8 47.8 0.00999928
    endloop
  endfacet
  facet normal 1 -0 0
    outer loop
      vertex 32.2 32.2 1
      vertex 32.2 47.8 0.00999928
      vertex 32.2 47.8 1
    endloop
  endfacet
  facet normal 1 0 0
    outer loop
      vertex 32.2 47.8 0.00999928
      vertex 32.2 32.2 1
      vertex 32.2 32.2 0.00999928
    endloop
  endfacet
  facet normal 0 1 -0
    outer loop
      vertex 47.8 32.2 0.00999928
      vertex 32.2 32.2 1
      vertex 47.8 32.2 1
    endloop
  endfacet
  facet normal 0 1 0
    outer loop
      vertex 32.2 32.2 1
      vertex 47.8 32.2 0.00999928
      vertex 32.2 32.2 0.00999928
    endloop
  endfacet
  facet normal -1 0 0
    outer loop
      vertex 47.8 32.2 0.00999928
      vertex 47.8 47.8 1
      vertex 47.8 47.8 0.00999928
    endloop
  endfacet
  facet normal -1 -0 0
    outer loop
      vertex 47.8 47.8 1
      vertex 47.8 32.2 0.00999928
      vertex 47.8 32.2 1
    endloop
  endfacet
  facet normal -1 0 0
    outer loop
      vertex 33.8 33.8 0.00999928
      vertex 33.8 46.2 1
      vertex 33.8 46.2 0.00999928
    endloop
  endfacet
  facet normal -1 -0 0
    outer loop
      vertex 33.8 46.2 1
      vertex 33.8 33.8 0.00999928
      vertex 33.8 33.8 1
    endloop
  endfacet
  facet normal 0 1 -0
    outer loop
      vertex 46.2 46.2 0.00999928
      vertex 33.8 46.2 1
      vertex 46.2 46.2 1
    endloop
  endfacet
  facet normal 0 1 0
    outer loop
      vertex 33.8 46.2 1
      vertex 46.2 46.2 0.00999928
      vertex 33.8 46.2 0.00999928
    endloop
  endfacet
  facet normal 1 -0 0
    outer loop
      vertex 46.2 33.8 1
      vertex 46.2 46.2 0.00999928
      vertex 46.2 46.2 1
    endloop
  endfacet
  facet normal 1 0 0
    outer loop
      vertex 46.2 46.2 0.00999928
      vertex 46.2 33.8 1
      vertex 46.2 33.8 0.00999928
    endloop
  endfacet
  facet normal 0 -1 0
    outer loop
      vertex 33.8 33.8 0.00999928
      vertex 46.2 33.8 1
      vertex 33.8 33.8 1
    endloop
  endfacet
  facet normal 0 -1 -0
    outer loop
      vertex 46.2 33.8 1
      vertex 33.8 33.8 0.00999928
      vertex 46.2 33.8 0.00999928
    endloop
  endfacet
  facet normal 1 -0 0
    outer loop
      vertex 36 36 1
      vertex 36 44 0.00999928
      vertex 36 44 1
    endloop
  endfacet
  facet normal 1 0 0
    outer loop
      vertex 36 44 0.00999928
      vertex 36 36 1
      vertex 36 36 0.00999928
    endloop
  endfacet
  facet normal -1 0 0
    outer loop
      vertex 44 36 0.00999928
      vertex 44 44 1
      vertex 44 44 0.00999928
    endloop
  endfacet
  facet normal -1 -0 0
    outer loop
      vertex 44 44 1
      vertex 44 36 0.00999928
      vertex 44 36 1
    endloop
  endfacet
  facet normal 0 -1 0
    outer loop
      vertex 36 44 0.00999928
      vertex 44 44 1
      vertex 36 44 1
    endloop
  endfacet
  facet normal 0 -1 -0
    outer loop
      vertex 44 44 1
      vertex 36 44 0.00999928
      vertex 44 44 0.00999928
    endloop
  endfacet
  facet normal -0 0 1
    outer loop
      vertex 36 44 0.00999928
      vertex 44 36 0.00999928
      vertex 44 44 0.00999928
    endloop
  endfacet
  facet normal 0 0 1
    outer loop
      vertex 44 36 0.00999928
      vertex 36 44 0.00999928
      vertex 36 36 0.00999928
    endloop
  endfacet
  facet normal 0 1 -0
    outer loop
      vertex 44 36 0.00999928
      vertex 36 36 1
      vertex 44 36 1
    endloop
  endfacet
  facet normal 0 1 0
    outer loop
      vertex 36 36 1
      vertex 44 36 0.00999928
      vertex 36 36 0.00999928
    endloop
  endfacet
  facet normal 1 -0 0
    outer loop
      vertex 49.995 49.995 1
      vertex 49.995 70 -1
      vertex 49.995 70 1
    endloop
  endfacet
  facet normal 1 0 0
    outer loop
      vertex 49.995 70 -1
      vertex 49.995 49.995 1
      vertex 49.995 49.995 -1
    endloop
  endfacet
  facet normal 0 1 -0
    outer loop
      vertex 70 49.995 -1
      vertex 49.995 49.995 1
      vertex 70 49.995 1
    endloop
  endfacet
  facet normal 0 1 0
    outer loop
      vertex 49.995 49.995 1
      vertex 70 49.995 -1
      vertex 49.995 49.995 -1
    endloop
  endfacet
  facet normal -1 0 0
    outer loop
      vertex 29.995 29.995 -1
      vertex 29.995 70 1
      vertex 29.995 70 -1
    endloop
  endfacet
  facet normal -1 -0 0
    outer loop
      vertex 29.995 70 1
      vertex 29.995 29.995 -1
      vertex 29.995 29.995 1
    endloop
  endfacet
  facet normal 0 -1 0
    outer loop
      vertex 29.995 29.995 -1
      vertex 70 29.995 1
      vertex 29.995 29.995 1
    endloop
  endfacet
  facet normal 0 -1 -0
    outer loop
      vertex 70 29.995 1
      vertex 29.995 29.995 -1
      vertex 70 29.995 -1
    endloop
  endfacet
endsolid OpenSCAD_Model
