solid OpenSCAD_Model
  facet normal -1 0 0
    outer loop
      vertex -7.5 -7.5 -3.76
      vertex -7.5 7.5 -0.759999
      vertex -7.5 7.5 -3.76
    endloop
  endfacet
  facet normal -1 -0 0
    outer loop
      vertex -7.5 7.5 -0.759999
      vertex -7.5 -7.5 -3.76
      vertex -7.5 -7.5 -0.759999
    endloop
  endfacet
  facet normal 0 0 1
    outer loop
      vertex 7.5 7.5 -0.759999
      vertex 6.5 6.5 -0.759999
      vertex 7.5 -7.5 -0.759999
    endloop
  endfacet
  facet normal 0 0 1
    outer loop
      vertex 7.5 7.5 -0.759999
      vertex -6.5 6.5 -0.759999
      vertex 6.5 6.5 -0.759999
    endloop
  endfacet
  facet normal 0 0 1
    outer loop
      vertex -6.5 6.5 -0.759999
      vertex -7.5 7.5 -0.759999
      vertex -6.5 -6.5 -0.759999
    endloop
  endfacet
  facet normal -0 0 1
    outer loop
      vertex -7.5 7.5 -0.759999
      vertex -6.5 6.5 -0.759999
      vertex 7.5 7.5 -0.759999
    endloop
  endfacet
  facet normal -0 0 1
    outer loop
      vertex 6.5 -6.5 -0.759999
      vertex 7.5 -7.5 -0.759999
      vertex 6.5 6.5 -0.759999
    endloop
  endfacet
  facet normal -0 0 1
    outer loop
      vertex -6.5 -6.5 -0.759999
      vertex 7.5 -7.5 -0.759999
      vertex 6.5 -6.5 -0.759999
    endloop
  endfacet
  facet normal 0 0 1
    outer loop
      vertex -6.5 -6.5 -0.759999
      vertex -7.5 -7.5 -0.759999
      vertex 7.5 -7.5 -0.759999
    endloop
  endfacet
  facet normal 0 0 1
    outer loop
      vertex -7.5 -7.5 -0.759999
      vertex -6.5 -6.5 -0.759999
      vertex -7.5 7.5 -0.759999
    endloop
  endfacet
  facet normal 1 -0 0
    outer loop
      vertex 7.5 -7.5 -0.759999
      vertex 7.5 7.5 -3.76
      vertex 7.5 7.5 -0.759999
    endloop
  endfacet
  facet normal 1 0 0
    outer loop
      vertex 7.5 7.5 -3.76
      vertex 7.5 -7.5 -0.759999
      vertex 7.5 -7.5 -3.76
    endloop
  endfacet
  facet normal 0 1 -0
    outer loop
      vertex 7.5 7.5 -3.76
      vertex -7.5 7.5 -0.759999
      vertex 7.5 7.5 -0.759999
    endloop
  endfacet
  facet normal 0 1 0
    outer loop
      vertex -7.5 7.5 -0.759999
      vertex 7.5 7.5 -3.76
      vertex -7.5 7.5 -3.76
    endloop
  endfacet
  facet normal 0 0 -1
    outer loop
      vertex -7.5 -7.5 -3.76
      vertex 7.5 7.5 -3.76
      vertex 7.5 -7.5 -3.76
    endloop
  endfacet
  facet normal -0 0 -1
    outer loop
      vertex 7.5 7.5 -3.76
      vertex -7.5 -7.5 -3.76
      vertex -7.5 7.5 -3.76
    endloop
  endfacet
  facet normal 0 -1 0
    outer loop
      vertex -7.5 -7.5 -3.76
      vertex 7.5 -7.5 -0.759999
      vertex -7.5 -7.5 -0.759999
    endloop
  endfacet
  facet normal 0 -1 -0
    outer loop
      vertex 7.5 -7.5 -0.759999
      vertex -7.5 -7.5 -3.76
      vertex 7.5 -7.5 -3.76
    endloop
  endfacet
  facet normal -1 0 0
    outer loop
      vertex -6.5 5.2 1.8
      vertex -6.5 6.5 -0.759999
      vertex -6.5 5.2 0.499999
    endloop
  endfacet
  facet normal -1 0 0
    outer loop
      vertex -6.5 6.5 -0.759999
      vertex -6.5 2.6 0.499999
      vertex -6.5 5.2 0.499999
    endloop
  endfacet
  facet normal -1 0 0
    outer loop
      vertex -6.5 2.6 0.499999
      vertex -6.5 1.3 0.499999
      vertex -6.5 2.6 1.8
    endloop
  endfacet
  facet normal -1 0 0
    outer loop
      vertex -6.5 6.5 -0.759999
      vertex -6.5 1.3 0.499999
      vertex -6.5 2.6 0.499999
    endloop
  endfacet
  facet normal -1 0 0
    outer loop
      vertex -6.5 6.5 -0.759999
      vertex -6.5 -1.3 0.499999
      vertex -6.5 1.3 0.499999
    endloop
  endfacet
  facet normal -1 0 0
    outer loop
      vertex -6.5 -1.3 0.499999
      vertex -6.5 -2.6 0.499999
      vertex -6.5 -1.3 1.8
    endloop
  endfacet
  facet normal -1 0 0
    outer loop
      vertex -6.5 -6.5 -0.759999
      vertex -6.5 -1.3 0.499999
      vertex -6.5 6.5 -0.759999
    endloop
  endfacet
  facet normal -1 -0 0
    outer loop
      vertex -6.5 -1.3 0.499999
      vertex -6.5 -6.5 -0.759999
      vertex -6.5 -2.6 0.499999
    endloop
  endfacet
  facet normal -1 -0 0
    outer loop
      vertex -6.5 -5.2 0.499999
      vertex -6.5 -6.5 -0.759999
      vertex -6.5 -5.2 1.8
    endloop
  endfacet
  facet normal -1 -0 0
    outer loop
      vertex -6.5 -2.6 0.499999
      vertex -6.5 -6.5 -0.759999
      vertex -6.5 -5.2 0.499999
    endloop
  endfacet
  facet normal -1 0 0
    outer loop
      vertex -6.5 6.5 -0.759999
      vertex -6.5 5.2 1.8
      vertex -6.5 6.5 3.75
    endloop
  endfacet
  facet normal -1 0 0
    outer loop
      vertex -6.5 2.6 1.8
      vertex -6.5 6.5 3.75
      vertex -6.5 5.2 1.8
    endloop
  endfacet
  facet normal -1 0 0
    outer loop
      vertex -6.5 1.3 1.8
      vertex -6.5 2.6 1.8
      vertex -6.5 1.3 0.499999
    endloop
  endfacet
  facet normal -1 0 0
    outer loop
      vertex -6.5 1.3 1.8
      vertex -6.5 6.5 3.75
      vertex -6.5 2.6 1.8
    endloop
  endfacet
  facet normal -1 0 0
    outer loop
      vertex -6.5 -1.3 1.8
      vertex -6.5 6.5 3.75
      vertex -6.5 1.3 1.8
    endloop
  endfacet
  facet normal -1 0 0
    outer loop
      vertex -6.5 -2.6 1.8
      vertex -6.5 -1.3 1.8
      vertex -6.5 -2.6 0.499999
    endloop
  endfacet
  facet normal -1 0 0
    outer loop
      vertex -6.5 -6.5 3.75
      vertex -6.5 -1.3 1.8
      vertex -6.5 -2.6 1.8
    endloop
  endfacet
  facet normal -1 0 0
    outer loop
      vertex -6.5 -6.5 3.75
      vertex -6.5 -2.6 1.8
      vertex -6.5 -5.2 1.8
    endloop
  endfacet
  facet normal -1 0 0
    outer loop
      vertex -6.5 -1.3 1.8
      vertex -6.5 -6.5 3.75
      vertex -6.5 6.5 3.75
    endloop
  endfacet
  facet normal -1 0 0
    outer loop
      vertex -6.5 -6.5 3.75
      vertex -6.5 -5.2 1.8
      vertex -6.5 -6.5 -0.759999
    endloop
  endfacet
  facet normal 0 0 1
    outer loop
      vertex 6.5 6.5 3.75
      vertex 1.625 1.625 3.75
      vertex 6.5 -6.5 3.75
    endloop
  endfacet
  facet normal 0 0 1
    outer loop
      vertex 6.5 6.5 3.75
      vertex -1.625 1.625 3.75
      vertex 1.625 1.625 3.75
    endloop
  endfacet
  facet normal 0 0 1
    outer loop
      vertex -1.625 1.625 3.75
      vertex -6.5 6.5 3.75
      vertex -1.625 -1.625 3.75
    endloop
  endfacet
  facet normal -0 0 1
    outer loop
      vertex -6.5 6.5 3.75
      vertex -1.625 1.625 3.75
      vertex 6.5 6.5 3.75
    endloop
  endfacet
  facet normal -0 0 1
    outer loop
      vertex 1.625 -1.625 3.75
      vertex 6.5 -6.5 3.75
      vertex 1.625 1.625 3.75
    endloop
  endfacet
  facet normal -0 0 1
    outer loop
      vertex -1.625 -1.625 3.75
      vertex 6.5 -6.5 3.75
      vertex 1.625 -1.625 3.75
    endloop
  endfacet
  facet normal 0 0 1
    outer loop
      vertex -1.625 -1.625 3.75
      vertex -6.5 -6.5 3.75
      vertex 6.5 -6.5 3.75
    endloop
  endfacet
  facet normal 0 0 1
    outer loop
      vertex -6.5 -6.5 3.75
      vertex -1.625 -1.625 3.75
      vertex -6.5 6.5 3.75
    endloop
  endfacet
  facet normal 1 0 0
    outer loop
      vertex 6.5 6.5 3.75
      vertex 6.5 5.2 1.8
      vertex 6.5 6.5 -0.759999
    endloop
  endfacet
  facet normal 1 0 0
    outer loop
      vertex 6.5 6.5 3.75
      vertex 6.5 2.6 1.8
      vertex 6.5 5.2 1.8
    endloop
  endfacet
  facet normal 1 0 0
    outer loop
      vertex 6.5 2.6 1.8
      vertex 6.5 1.3 1.8
      vertex 6.5 2.6 0.499999
    endloop
  endfacet
  facet normal 1 0 0
    outer loop
      vertex 6.5 6.5 3.75
      vertex 6.5 1.3 1.8
      vertex 6.5 2.6 1.8
    endloop
  endfacet
  facet normal 1 0 0
    outer loop
      vertex 6.5 6.5 3.75
      vertex 6.5 -1.3 1.8
      vertex 6.5 1.3 1.8
    endloop
  endfacet
  facet normal 1 0 0
    outer loop
      vertex 6.5 -1.3 1.8
      vertex 6.5 -2.6 1.8
      vertex 6.5 -1.3 0.499999
    endloop
  endfacet
  facet normal 1 -0 0
    outer loop
      vertex 6.5 -6.5 3.75
      vertex 6.5 -1.3 1.8
      vertex 6.5 6.5 3.75
    endloop
  endfacet
  facet normal 1 0 0
    outer loop
      vertex 6.5 -1.3 1.8
      vertex 6.5 -6.5 3.75
      vertex 6.5 -2.6 1.8
    endloop
  endfacet
  facet normal 1 0 0
    outer loop
      vertex 6.5 -6.5 -0.759999
      vertex 6.5 -5.2 1.8
      vertex 6.5 -6.5 3.75
    endloop
  endfacet
  facet normal 1 0 0
    outer loop
      vertex 6.5 -2.6 1.8
      vertex 6.5 -6.5 3.75
      vertex 6.5 -5.2 1.8
    endloop
  endfacet
  facet normal 1 -0 0
    outer loop
      vertex 6.5 5.2 0.499999
      vertex 6.5 6.5 -0.759999
      vertex 6.5 5.2 1.8
    endloop
  endfacet
  facet normal 1 -0 0
    outer loop
      vertex 6.5 2.6 0.499999
      vertex 6.5 6.5 -0.759999
      vertex 6.5 5.2 0.499999
    endloop
  endfacet
  facet normal 1 0 0
    outer loop
      vertex 6.5 1.3 0.499999
      vertex 6.5 2.6 0.499999
      vertex 6.5 1.3 1.8
    endloop
  endfacet
  facet normal 1 -0 0
    outer loop
      vertex 6.5 1.3 0.499999
      vertex 6.5 6.5 -0.759999
      vertex 6.5 2.6 0.499999
    endloop
  endfacet
  facet normal 1 -0 0
    outer loop
      vertex 6.5 -1.3 0.499999
      vertex 6.5 6.5 -0.759999
      vertex 6.5 1.3 0.499999
    endloop
  endfacet
  facet normal 1 0 0
    outer loop
      vertex 6.5 -2.6 0.499999
      vertex 6.5 -1.3 0.499999
      vertex 6.5 -2.6 1.8
    endloop
  endfacet
  facet normal 1 0 0
    outer loop
      vertex 6.5 -6.5 -0.759999
      vertex 6.5 -1.3 0.499999
      vertex 6.5 -2.6 0.499999
    endloop
  endfacet
  facet normal 1 0 0
    outer loop
      vertex 6.5 -6.5 -0.759999
      vertex 6.5 -2.6 0.499999
      vertex 6.5 -5.2 0.499999
    endloop
  endfacet
  facet normal 1 0 0
    outer loop
      vertex 6.5 -1.3 0.499999
      vertex 6.5 -6.5 -0.759999
      vertex 6.5 6.5 -0.759999
    endloop
  endfacet
  facet normal 1 0 0
    outer loop
      vertex 6.5 -5.2 1.8
      vertex 6.5 -6.5 -0.759999
      vertex 6.5 -5.2 0.499999
    endloop
  endfacet
  facet normal 0 -1 0
    outer loop
      vertex 1.3 -6.5 0.499999
      vertex 2.6 -6.5 1.8
      vertex 1.3 -6.5 1.8
    endloop
  endfacet
  facet normal 0 -1 -0
    outer loop
      vertex 2.6 -6.5 1.8
      vertex 1.3 -6.5 0.499999
      vertex 2.6 -6.5 0.499999
    endloop
  endfacet
  facet normal 0 -1 0
    outer loop
      vertex -2.6 -6.5 0.499999
      vertex -1.3 -6.5 1.8
      vertex -2.6 -6.5 1.8
    endloop
  endfacet
  facet normal 0 -1 -0
    outer loop
      vertex -1.3 -6.5 1.8
      vertex -2.6 -6.5 0.499999
      vertex -1.3 -6.5 0.499999
    endloop
  endfacet
  facet normal 0 -1 0
    outer loop
      vertex -2.6 -6.5 1.8
      vertex -6.5 -6.5 3.75
      vertex -5.2 -6.5 1.8
    endloop
  endfacet
  facet normal 0 -1 0
    outer loop
      vertex -6.5 -6.5 -0.759999
      vertex -5.2 -6.5 1.8
      vertex -6.5 -6.5 3.75
    endloop
  endfacet
  facet normal 0 -1 0
    outer loop
      vertex -6.5 -6.5 -0.759999
      vertex -2.6 -6.5 0.499999
      vertex -5.2 -6.5 0.499999
    endloop
  endfacet
  facet normal 0 -1 -0
    outer loop
      vertex -2.6 -6.5 0.499999
      vertex -6.5 -6.5 -0.759999
      vertex -1.3 -6.5 0.499999
    endloop
  endfacet
  facet normal 0 -1 -0
    outer loop
      vertex -1.3 -6.5 0.499999
      vertex -6.5 -6.5 -0.759999
      vertex 1.3 -6.5 0.499999
    endloop
  endfacet
  facet normal 0 -1 0
    outer loop
      vertex 6.5 -6.5 -0.759999
      vertex 1.3 -6.5 0.499999
      vertex -6.5 -6.5 -0.759999
    endloop
  endfacet
  facet normal 0 -1 0
    outer loop
      vertex 1.3 -6.5 0.499999
      vertex 6.5 -6.5 -0.759999
      vertex 2.6 -6.5 0.499999
    endloop
  endfacet
  facet normal 0 -1 -0
    outer loop
      vertex -5.2 -6.5 1.8
      vertex -6.5 -6.5 -0.759999
      vertex -5.2 -6.5 0.499999
    endloop
  endfacet
  facet normal 0 -1 0
    outer loop
      vertex -1.3 -6.5 1.8
      vertex -6.5 -6.5 3.75
      vertex -2.6 -6.5 1.8
    endloop
  endfacet
  facet normal 0 -1 0
    outer loop
      vertex -6.5 -6.5 3.75
      vertex -1.3 -6.5 1.8
      vertex 6.5 -6.5 3.75
    endloop
  endfacet
  facet normal 0 -1 0
    outer loop
      vertex 1.3 -6.5 1.8
      vertex 6.5 -6.5 3.75
      vertex -1.3 -6.5 1.8
    endloop
  endfacet
  facet normal 0 -1 0
    outer loop
      vertex 2.6 -6.5 1.8
      vertex 6.5 -6.5 3.75
      vertex 1.3 -6.5 1.8
    endloop
  endfacet
  facet normal 0 -1 0
    outer loop
      vertex 5.2 -6.5 1.8
      vertex 6.5 -6.5 3.75
      vertex 2.6 -6.5 1.8
    endloop
  endfacet
  facet normal 0 -1 0
    outer loop
      vertex 6.5 -6.5 -0.759999
      vertex 5.2 -6.5 1.8
      vertex 5.2 -6.5 0.499999
    endloop
  endfacet
  facet normal 0 -1 0
    outer loop
      vertex 5.2 -6.5 1.8
      vertex 6.5 -6.5 -0.759999
      vertex 6.5 -6.5 3.75
    endloop
  endfacet
  facet normal 0 -1 0
    outer loop
      vertex 2.6 -6.5 0.499999
      vertex 6.5 -6.5 -0.759999
      vertex 5.2 -6.5 0.499999
    endloop
  endfacet
  facet normal 0 1 -0
    outer loop
      vertex -1.3 6.5 0.499999
      vertex -2.6 6.5 1.8
      vertex -1.3 6.5 1.8
    endloop
  endfacet
  facet normal 0 1 0
    outer loop
      vertex -2.6 6.5 1.8
      vertex -1.3 6.5 0.499999
      vertex -2.6 6.5 0.499999
    endloop
  endfacet
  facet normal 0 1 -0
    outer loop
      vertex 2.6 6.5 0.499999
      vertex 1.3 6.5 1.8
      vertex 2.6 6.5 1.8
    endloop
  endfacet
  facet normal 0 1 0
    outer loop
      vertex 1.3 6.5 1.8
      vertex 2.6 6.5 0.499999
      vertex 1.3 6.5 0.499999
    endloop
  endfacet
  facet normal 0 1 0
    outer loop
      vertex 2.6 6.5 1.8
      vertex 6.5 6.5 3.75
      vertex 5.2 6.5 1.8
    endloop
  endfacet
  facet normal 0 1 -0
    outer loop
      vertex 6.5 6.5 -0.759999
      vertex 5.2 6.5 1.8
      vertex 6.5 6.5 3.75
    endloop
  endfacet
  facet normal 0 1 0
    outer loop
      vertex 6.5 6.5 -0.759999
      vertex 2.6 6.5 0.499999
      vertex 5.2 6.5 0.499999
    endloop
  endfacet
  facet normal 0 1 0
    outer loop
      vertex 2.6 6.5 0.499999
      vertex 6.5 6.5 -0.759999
      vertex 1.3 6.5 0.499999
    endloop
  endfacet
  facet normal 0 1 0
    outer loop
      vertex 1.3 6.5 0.499999
      vertex 6.5 6.5 -0.759999
      vertex -1.3 6.5 0.499999
    endloop
  endfacet
  facet normal 0 1 0
    outer loop
      vertex -6.5 6.5 -0.759999
      vertex -1.3 6.5 0.499999
      vertex 6.5 6.5 -0.759999
    endloop
  endfacet
  facet normal 0 1 0
    outer loop
      vertex -1.3 6.5 0.499999
      vertex -6.5 6.5 -0.759999
      vertex -2.6 6.5 0.499999
    endloop
  endfacet
  facet normal 0 1 0
    outer loop
      vertex 5.2 6.5 1.8
      vertex 6.5 6.5 -0.759999
      vertex 5.2 6.5 0.499999
    endloop
  endfacet
  facet normal 0 1 0
    outer loop
      vertex 1.3 6.5 1.8
      vertex 6.5 6.5 3.75
      vertex 2.6 6.5 1.8
    endloop
  endfacet
  facet normal 0 1 0
    outer loop
      vertex 6.5 6.5 3.75
      vertex 1.3 6.5 1.8
      vertex -6.5 6.5 3.75
    endloop
  endfacet
  facet normal 0 1 -0
    outer loop
      vertex -1.3 6.5 1.8
      vertex -6.5 6.5 3.75
      vertex 1.3 6.5 1.8
    endloop
  endfacet
  facet normal 0 1 -0
    outer loop
      vertex -2.6 6.5 1.8
      vertex -6.5 6.5 3.75
      vertex -1.3 6.5 1.8
    endloop
  endfacet
  facet normal 0 1 -0
    outer loop
      vertex -5.2 6.5 1.8
      vertex -6.5 6.5 3.75
      vertex -2.6 6.5 1.8
    endloop
  endfacet
  facet normal 0 1 0
    outer loop
      vertex -6.5 6.5 -0.759999
      vertex -5.2 6.5 1.8
      vertex -5.2 6.5 0.499999
    endloop
  endfacet
  facet normal 0 1 0
    outer loop
      vertex -5.2 6.5 1.8
      vertex -6.5 6.5 -0.759999
      vertex -6.5 6.5 3.75
    endloop
  endfacet
  facet normal 0 1 0
    outer loop
      vertex -2.6 6.5 0.499999
      vertex -6.5 6.5 -0.759999
      vertex -5.2 6.5 0.499999
    endloop
  endfacet
  facet normal 0 0 -1
    outer loop
      vertex -6.5 2.6 1.8
      vertex -5.85 5.2 1.8
      vertex -5.85 2.6 1.8
    endloop
  endfacet
  facet normal -0 0 -1
    outer loop
      vertex -5.85 5.2 1.8
      vertex -6.5 2.6 1.8
      vertex -6.5 5.2 1.8
    endloop
  endfacet
  facet normal 0 0 -1
    outer loop
      vertex -6.5 -1.3 1.8
      vertex -5.85 1.3 1.8
      vertex -5.85 -1.3 1.8
    endloop
  endfacet
  facet normal -0 0 -1
    outer loop
      vertex -5.85 1.3 1.8
      vertex -6.5 -1.3 1.8
      vertex -6.5 1.3 1.8
    endloop
  endfacet
  facet normal 0 0 -1
    outer loop
      vertex -6.5 -5.2 1.8
      vertex -5.85 -2.6 1.8
      vertex -5.85 -5.2 1.8
    endloop
  endfacet
  facet normal -0 0 -1
    outer loop
      vertex -5.85 -2.6 1.8
      vertex -6.5 -5.2 1.8
      vertex -6.5 -2.6 1.8
    endloop
  endfacet
  facet normal 0 0 -1
    outer loop
      vertex -5.2 -6.5 1.8
      vertex -2.6 -5.85 1.8
      vertex -2.6 -6.5 1.8
    endloop
  endfacet
  facet normal -0 0 -1
    outer loop
      vertex -2.6 -5.85 1.8
      vertex -5.2 -6.5 1.8
      vertex -5.2 -5.85 1.8
    endloop
  endfacet
  facet normal 0 0 -1
    outer loop
      vertex -1.3 -6.5 1.8
      vertex 1.3 -5.85 1.8
      vertex 1.3 -6.5 1.8
    endloop
  endfacet
  facet normal -0 0 -1
    outer loop
      vertex 1.3 -5.85 1.8
      vertex -1.3 -6.5 1.8
      vertex -1.3 -5.85 1.8
    endloop
  endfacet
  facet normal 0 0 -1
    outer loop
      vertex 2.6 -6.5 1.8
      vertex 5.2 -5.85 1.8
      vertex 5.2 -6.5 1.8
    endloop
  endfacet
  facet normal -0 0 -1
    outer loop
      vertex 5.2 -5.85 1.8
      vertex 2.6 -6.5 1.8
      vertex 2.6 -5.85 1.8
    endloop
  endfacet
  facet normal 0 0 -1
    outer loop
      vertex -5.2 5.85 1.8
      vertex -2.6 6.5 1.8
      vertex -2.6 5.85 1.8
    endloop
  endfacet
  facet normal -0 0 -1
    outer loop
      vertex -2.6 6.5 1.8
      vertex -5.2 5.85 1.8
      vertex -5.2 6.5 1.8
    endloop
  endfacet
  facet normal 0 0 -1
    outer loop
      vertex -1.3 5.85 1.8
      vertex 1.3 6.5 1.8
      vertex 1.3 5.85 1.8
    endloop
  endfacet
  facet normal -0 0 -1
    outer loop
      vertex 1.3 6.5 1.8
      vertex -1.3 5.85 1.8
      vertex -1.3 6.5 1.8
    endloop
  endfacet
  facet normal 0 0 -1
    outer loop
      vertex 2.6 5.85 1.8
      vertex 5.2 6.5 1.8
      vertex 5.2 5.85 1.8
    endloop
  endfacet
  facet normal -0 0 -1
    outer loop
      vertex 5.2 6.5 1.8
      vertex 2.6 5.85 1.8
      vertex 2.6 6.5 1.8
    endloop
  endfacet
  facet normal 0 0 -1
    outer loop
      vertex 5.85 2.6 1.8
      vertex 6.5 5.2 1.8
      vertex 6.5 2.6 1.8
    endloop
  endfacet
  facet normal -0 0 -1
    outer loop
      vertex 6.5 5.2 1.8
      vertex 5.85 2.6 1.8
      vertex 5.85 5.2 1.8
    endloop
  endfacet
  facet normal 0 0 -1
    outer loop
      vertex 5.85 -1.3 1.8
      vertex 6.5 1.3 1.8
      vertex 6.5 -1.3 1.8
    endloop
  endfacet
  facet normal -0 0 -1
    outer loop
      vertex 6.5 1.3 1.8
      vertex 5.85 -1.3 1.8
      vertex 5.85 1.3 1.8
    endloop
  endfacet
  facet normal 0 0 -1
    outer loop
      vertex 5.85 -5.2 1.8
      vertex 6.5 -2.6 1.8
      vertex 6.5 -5.2 1.8
    endloop
  endfacet
  facet normal -0 0 -1
    outer loop
      vertex 6.5 -2.6 1.8
      vertex 5.85 -5.2 1.8
      vertex 5.85 -2.6 1.8
    endloop
  endfacet
  facet normal 0 -1 0
    outer loop
      vertex -6.5 -2.6 0.499999
      vertex -5.85 -2.6 1.8
      vertex -6.5 -2.6 1.8
    endloop
  endfacet
  facet normal 0 -1 -0
    outer loop
      vertex -5.85 -2.6 1.8
      vertex -6.5 -2.6 0.499999
      vertex -5.85 -2.6 0.499999
    endloop
  endfacet
  facet normal 0 -1 0
    outer loop
      vertex 5.85 -2.6 0.499999
      vertex 6.5 -2.6 1.8
      vertex 5.85 -2.6 1.8
    endloop
  endfacet
  facet normal 0 -1 -0
    outer loop
      vertex 6.5 -2.6 1.8
      vertex 5.85 -2.6 0.499999
      vertex 6.5 -2.6 0.499999
    endloop
  endfacet
  facet normal -0 0 1
    outer loop
      vertex -6.5 5.2 0.499999
      vertex -5.85 2.6 0.499999
      vertex -5.85 5.2 0.499999
    endloop
  endfacet
  facet normal 0 0 1
    outer loop
      vertex -5.85 2.6 0.499999
      vertex -6.5 5.2 0.499999
      vertex -6.5 2.6 0.499999
    endloop
  endfacet
  facet normal -0 0 1
    outer loop
      vertex -6.5 1.3 0.499999
      vertex -5.85 -1.3 0.499999
      vertex -5.85 1.3 0.499999
    endloop
  endfacet
  facet normal 0 0 1
    outer loop
      vertex -5.85 -1.3 0.499999
      vertex -6.5 1.3 0.499999
      vertex -6.5 -1.3 0.499999
    endloop
  endfacet
  facet normal -0 0 1
    outer loop
      vertex -6.5 -2.6 0.499999
      vertex -5.85 -5.2 0.499999
      vertex -5.85 -2.6 0.499999
    endloop
  endfacet
  facet normal 0 0 1
    outer loop
      vertex -5.85 -5.2 0.499999
      vertex -6.5 -2.6 0.499999
      vertex -6.5 -5.2 0.499999
    endloop
  endfacet
  facet normal -0 0 1
    outer loop
      vertex -5.2 -5.85 0.499999
      vertex -2.6 -6.5 0.499999
      vertex -2.6 -5.85 0.499999
    endloop
  endfacet
  facet normal 0 0 1
    outer loop
      vertex -2.6 -6.5 0.499999
      vertex -5.2 -5.85 0.499999
      vertex -5.2 -6.5 0.499999
    endloop
  endfacet
  facet normal -0 0 1
    outer loop
      vertex -1.3 -5.85 0.499999
      vertex 1.3 -6.5 0.499999
      vertex 1.3 -5.85 0.499999
    endloop
  endfacet
  facet normal 0 0 1
    outer loop
      vertex 1.3 -6.5 0.499999
      vertex -1.3 -5.85 0.499999
      vertex -1.3 -6.5 0.499999
    endloop
  endfacet
  facet normal -0 0 1
    outer loop
      vertex 2.6 -5.85 0.499999
      vertex 5.2 -6.5 0.499999
      vertex 5.2 -5.85 0.499999
    endloop
  endfacet
  facet normal 0 0 1
    outer loop
      vertex 5.2 -6.5 0.499999
      vertex 2.6 -5.85 0.499999
      vertex 2.6 -6.5 0.499999
    endloop
  endfacet
  facet normal -0 0 1
    outer loop
      vertex -5.2 6.5 0.499999
      vertex -2.6 5.85 0.499999
      vertex -2.6 6.5 0.499999
    endloop
  endfacet
  facet normal 0 0 1
    outer loop
      vertex -2.6 5.85 0.499999
      vertex -5.2 6.5 0.499999
      vertex -5.2 5.85 0.499999
    endloop
  endfacet
  facet normal -0 0 1
    outer loop
      vertex -1.3 6.5 0.499999
      vertex 1.3 5.85 0.499999
      vertex 1.3 6.5 0.499999
    endloop
  endfacet
  facet normal 0 0 1
    outer loop
      vertex 1.3 5.85 0.499999
      vertex -1.3 6.5 0.499999
      vertex -1.3 5.85 0.499999
    endloop
  endfacet
  facet normal -0 0 1
    outer loop
      vertex 2.6 6.5 0.499999
      vertex 5.2 5.85 0.499999
      vertex 5.2 6.5 0.499999
    endloop
  endfacet
  facet normal 0 0 1
    outer loop
      vertex 5.2 5.85 0.499999
      vertex 2.6 6.5 0.499999
      vertex 2.6 5.85 0.499999
    endloop
  endfacet
  facet normal -0 0 1
    outer loop
      vertex 5.85 5.2 0.499999
      vertex 6.5 2.6 0.499999
      vertex 6.5 5.2 0.499999
    endloop
  endfacet
  facet normal 0 0 1
    outer loop
      vertex 6.5 2.6 0.499999
      vertex 5.85 5.2 0.499999
      vertex 5.85 2.6 0.499999
    endloop
  endfacet
  facet normal -0 0 1
    outer loop
      vertex 5.85 1.3 0.499999
      vertex 6.5 -1.3 0.499999
      vertex 6.5 1.3 0.499999
    endloop
  endfacet
  facet normal 0 0 1
    outer loop
      vertex 6.5 -1.3 0.499999
      vertex 5.85 1.3 0.499999
      vertex 5.85 -1.3 0.499999
    endloop
  endfacet
  facet normal -0 0 1
    outer loop
      vertex 5.85 -2.6 0.499999
      vertex 6.5 -5.2 0.499999
      vertex 6.5 -2.6 0.499999
    endloop
  endfacet
  facet normal 0 0 1
    outer loop
      vertex 6.5 -5.2 0.499999
      vertex 5.85 -2.6 0.499999
      vertex 5.85 -5.2 0.499999
    endloop
  endfacet
  facet normal 0 1 -0
    outer loop
      vertex -5.85 -5.2 0.499999
      vertex -6.5 -5.2 1.8
      vertex -5.85 -5.2 1.8
    endloop
  endfacet
  facet normal 0 1 0
    outer loop
      vertex -6.5 -5.2 1.8
      vertex -5.85 -5.2 0.499999
      vertex -6.5 -5.2 0.499999
    endloop
  endfacet
  facet normal 0 1 -0
    outer loop
      vertex 6.5 -5.2 0.499999
      vertex 5.85 -5.2 1.8
      vertex 6.5 -5.2 1.8
    endloop
  endfacet
  facet normal 0 1 0
    outer loop
      vertex 5.85 -5.2 1.8
      vertex 6.5 -5.2 0.499999
      vertex 5.85 -5.2 0.499999
    endloop
  endfacet
  facet normal 0 -1 0
    outer loop
      vertex -6.5 1.3 0.499999
      vertex -5.85 1.3 1.8
      vertex -6.5 1.3 1.8
    endloop
  endfacet
  facet normal 0 -1 -0
    outer loop
      vertex -5.85 1.3 1.8
      vertex -6.5 1.3 0.499999
      vertex -5.85 1.3 0.499999
    endloop
  endfacet
  facet normal 0 -1 0
    outer loop
      vertex 5.85 1.3 0.499999
      vertex 6.5 1.3 1.8
      vertex 5.85 1.3 1.8
    endloop
  endfacet
  facet normal 0 -1 -0
    outer loop
      vertex 6.5 1.3 1.8
      vertex 5.85 1.3 0.499999
      vertex 6.5 1.3 0.499999
    endloop
  endfacet
  facet normal 0 1 -0
    outer loop
      vertex -5.85 -1.3 0.499999
      vertex -6.5 -1.3 1.8
      vertex -5.85 -1.3 1.8
    endloop
  endfacet
  facet normal 0 1 0
    outer loop
      vertex -6.5 -1.3 1.8
      vertex -5.85 -1.3 0.499999
      vertex -6.5 -1.3 0.499999
    endloop
  endfacet
  facet normal 0 1 -0
    outer loop
      vertex 6.5 -1.3 0.499999
      vertex 5.85 -1.3 1.8
      vertex 6.5 -1.3 1.8
    endloop
  endfacet
  facet normal 0 1 0
    outer loop
      vertex 5.85 -1.3 1.8
      vertex 6.5 -1.3 0.499999
      vertex 5.85 -1.3 0.499999
    endloop
  endfacet
  facet normal 0 -1 0
    outer loop
      vertex -6.5 5.2 0.499999
      vertex -5.85 5.2 1.8
      vertex -6.5 5.2 1.8
    endloop
  endfacet
  facet normal 0 -1 -0
    outer loop
      vertex -5.85 5.2 1.8
      vertex -6.5 5.2 0.499999
      vertex -5.85 5.2 0.499999
    endloop
  endfacet
  facet normal 0 -1 0
    outer loop
      vertex 5.85 5.2 0.499999
      vertex 6.5 5.2 1.8
      vertex 5.85 5.2 1.8
    endloop
  endfacet
  facet normal 0 -1 -0
    outer loop
      vertex 6.5 5.2 1.8
      vertex 5.85 5.2 0.499999
      vertex 6.5 5.2 0.499999
    endloop
  endfacet
  facet normal 0 1 -0
    outer loop
      vertex -5.85 2.6 0.499999
      vertex -6.5 2.6 1.8
      vertex -5.85 2.6 1.8
    endloop
  endfacet
  facet normal 0 1 0
    outer loop
      vertex -6.5 2.6 1.8
      vertex -5.85 2.6 0.499999
      vertex -6.5 2.6 0.499999
    endloop
  endfacet
  facet normal 0 1 -0
    outer loop
      vertex 6.5 2.6 0.499999
      vertex 5.85 2.6 1.8
      vertex 6.5 2.6 1.8
    endloop
  endfacet
  facet normal 0 1 0
    outer loop
      vertex 5.85 2.6 1.8
      vertex 6.5 2.6 0.499999
      vertex 5.85 2.6 0.499999
    endloop
  endfacet
  facet normal 1 -0 0
    outer loop
      vertex 2.6 -6.5 1.8
      vertex 2.6 -5.85 0.499999
      vertex 2.6 -5.85 1.8
    endloop
  endfacet
  facet normal 1 0 0
    outer loop
      vertex 2.6 -5.85 0.499999
      vertex 2.6 -6.5 1.8
      vertex 2.6 -6.5 0.499999
    endloop
  endfacet
  facet normal 1 -0 0
    outer loop
      vertex 2.6 5.85 1.8
      vertex 2.6 6.5 0.499999
      vertex 2.6 6.5 1.8
    endloop
  endfacet
  facet normal 1 0 0
    outer loop
      vertex 2.6 6.5 0.499999
      vertex 2.6 5.85 1.8
      vertex 2.6 5.85 0.499999
    endloop
  endfacet
  facet normal -1 0 0
    outer loop
      vertex 5.2 -6.5 0.499999
      vertex 5.2 -5.85 1.8
      vertex 5.2 -5.85 0.499999
    endloop
  endfacet
  facet normal -1 -0 0
    outer loop
      vertex 5.2 -5.85 1.8
      vertex 5.2 -6.5 0.499999
      vertex 5.2 -6.5 1.8
    endloop
  endfacet
  facet normal -1 0 0
    outer loop
      vertex 5.2 5.85 0.499999
      vertex 5.2 6.5 1.8
      vertex 5.2 6.5 0.499999
    endloop
  endfacet
  facet normal -1 -0 0
    outer loop
      vertex 5.2 6.5 1.8
      vertex 5.2 5.85 0.499999
      vertex 5.2 5.85 1.8
    endloop
  endfacet
  facet normal 1 -0 0
    outer loop
      vertex -1.3 -6.5 1.8
      vertex -1.3 -5.85 0.499999
      vertex -1.3 -5.85 1.8
    endloop
  endfacet
  facet normal 1 0 0
    outer loop
      vertex -1.3 -5.85 0.499999
      vertex -1.3 -6.5 1.8
      vertex -1.3 -6.5 0.499999
    endloop
  endfacet
  facet normal 1 -0 0
    outer loop
      vertex -1.3 5.85 1.8
      vertex -1.3 6.5 0.499999
      vertex -1.3 6.5 1.8
    endloop
  endfacet
  facet normal 1 0 0
    outer loop
      vertex -1.3 6.5 0.499999
      vertex -1.3 5.85 1.8
      vertex -1.3 5.85 0.499999
    endloop
  endfacet
  facet normal -1 0 0
    outer loop
      vertex 1.3 -6.5 0.499999
      vertex 1.3 -5.85 1.8
      vertex 1.3 -5.85 0.499999
    endloop
  endfacet
  facet normal -1 -0 0
    outer loop
      vertex 1.3 -5.85 1.8
      vertex 1.3 -6.5 0.499999
      vertex 1.3 -6.5 1.8
    endloop
  endfacet
  facet normal -1 0 0
    outer loop
      vertex 1.3 5.85 0.499999
      vertex 1.3 6.5 1.8
      vertex 1.3 6.5 0.499999
    endloop
  endfacet
  facet normal -1 -0 0
    outer loop
      vertex 1.3 6.5 1.8
      vertex 1.3 5.85 0.499999
      vertex 1.3 5.85 1.8
    endloop
  endfacet
  facet normal 1 -0 0
    outer loop
      vertex -5.2 -6.5 1.8
      vertex -5.2 -5.85 0.499999
      vertex -5.2 -5.85 1.8
    endloop
  endfacet
  facet normal 1 0 0
    outer loop
      vertex -5.2 -5.85 0.499999
      vertex -5.2 -6.5 1.8
      vertex -5.2 -6.5 0.499999
    endloop
  endfacet
  facet normal 1 -0 0
    outer loop
      vertex -5.2 5.85 1.8
      vertex -5.2 6.5 0.499999
      vertex -5.2 6.5 1.8
    endloop
  endfacet
  facet normal 1 0 0
    outer loop
      vertex -5.2 6.5 0.499999
      vertex -5.2 5.85 1.8
      vertex -5.2 5.85 0.499999
    endloop
  endfacet
  facet normal -1 0 0
    outer loop
      vertex -2.6 -6.5 0.499999
      vertex -2.6 -5.85 1.8
      vertex -2.6 -5.85 0.499999
    endloop
  endfacet
  facet normal -1 -0 0
    outer loop
      vertex -2.6 -5.85 1.8
      vertex -2.6 -6.5 0.499999
      vertex -2.6 -6.5 1.8
    endloop
  endfacet
  facet normal -1 0 0
    outer loop
      vertex -2.6 5.85 0.499999
      vertex -2.6 6.5 1.8
      vertex -2.6 6.5 0.499999
    endloop
  endfacet
  facet normal -1 -0 0
    outer loop
      vertex -2.6 6.5 1.8
      vertex -2.6 5.85 0.499999
      vertex -2.6 5.85 1.8
    endloop
  endfacet
  facet normal -1 0 0
    outer loop
      vertex -5.85 2.6 0.499999
      vertex -5.85 5.2 1.8
      vertex -5.85 5.2 0.499999
    endloop
  endfacet
  facet normal -1 -0 0
    outer loop
      vertex -5.85 5.2 1.8
      vertex -5.85 2.6 0.499999
      vertex -5.85 2.6 1.8
    endloop
  endfacet
  facet normal -1 0 0
    outer loop
      vertex -5.85 -1.3 0.499999
      vertex -5.85 1.3 1.8
      vertex -5.85 1.3 0.499999
    endloop
  endfacet
  facet normal -1 -0 0
    outer loop
      vertex -5.85 1.3 1.8
      vertex -5.85 -1.3 0.499999
      vertex -5.85 -1.3 1.8
    endloop
  endfacet
  facet normal -1 0 0
    outer loop
      vertex -5.85 -5.2 0.499999
      vertex -5.85 -2.6 1.8
      vertex -5.85 -2.6 0.499999
    endloop
  endfacet
  facet normal -1 -0 0
    outer loop
      vertex -5.85 -2.6 1.8
      vertex -5.85 -5.2 0.499999
      vertex -5.85 -5.2 1.8
    endloop
  endfacet
  facet normal 1 -0 0
    outer loop
      vertex 5.85 2.6 1.8
      vertex 5.85 5.2 0.499999
      vertex 5.85 5.2 1.8
    endloop
  endfacet
  facet normal 1 0 0
    outer loop
      vertex 5.85 5.2 0.499999
      vertex 5.85 2.6 1.8
      vertex 5.85 2.6 0.499999
    endloop
  endfacet
  facet normal 1 -0 0
    outer loop
      vertex 5.85 -1.3 1.8
      vertex 5.85 1.3 0.499999
      vertex 5.85 1.3 1.8
    endloop
  endfacet
  facet normal 1 0 0
    outer loop
      vertex 5.85 1.3 0.499999
      vertex 5.85 -1.3 1.8
      vertex 5.85 -1.3 0.499999
    endloop
  endfacet
  facet normal 1 -0 0
    outer loop
      vertex 5.85 -5.2 1.8
      vertex 5.85 -2.6 0.499999
      vertex 5.85 -2.6 1.8
    endloop
  endfacet
  facet normal 1 0 0
    outer loop
      vertex 5.85 -2.6 0.499999
      vertex 5.85 -5.2 1.8
      vertex 5.85 -5.2 0.499999
    endloop
  endfacet
  facet normal 0 -1 0
    outer loop
      vertex -5.2 -5.85 0.499999
      vertex -2.6 -5.85 1.8
      vertex -5.2 -5.85 1.8
    endloop
  endfacet
  facet normal 0 -1 -0
    outer loop
      vertex -2.6 -5.85 1.8
      vertex -5.2 -5.85 0.499999
      vertex -2.6 -5.85 0.499999
    endloop
  endfacet
  facet normal 0 -1 0
    outer loop
      vertex -1.3 -5.85 0.499999
      vertex 1.3 -5.85 1.8
      vertex -1.3 -5.85 1.8
    endloop
  endfacet
  facet normal 0 -1 -0
    outer loop
      vertex 1.3 -5.85 1.8
      vertex -1.3 -5.85 0.499999
      vertex 1.3 -5.85 0.499999
    endloop
  endfacet
  facet normal 0 -1 0
    outer loop
      vertex 2.6 -5.85 0.499999
      vertex 5.2 -5.85 1.8
      vertex 2.6 -5.85 1.8
    endloop
  endfacet
  facet normal 0 -1 -0
    outer loop
      vertex 5.2 -5.85 1.8
      vertex 2.6 -5.85 0.499999
      vertex 5.2 -5.85 0.499999
    endloop
  endfacet
  facet normal 0 1 -0
    outer loop
      vertex -2.6 5.85 0.499999
      vertex -5.2 5.85 1.8
      vertex -2.6 5.85 1.8
    endloop
  endfacet
  facet normal 0 1 0
    outer loop
      vertex -5.2 5.85 1.8
      vertex -2.6 5.85 0.499999
      vertex -5.2 5.85 0.499999
    endloop
  endfacet
  facet normal 0 1 -0
    outer loop
      vertex 1.3 5.85 0.499999
      vertex -1.3 5.85 1.8
      vertex 1.3 5.85 1.8
    endloop
  endfacet
  facet normal 0 1 0
    outer loop
      vertex -1.3 5.85 1.8
      vertex 1.3 5.85 0.499999
      vertex -1.3 5.85 0.499999
    endloop
  endfacet
  facet normal 0 1 -0
    outer loop
      vertex 5.2 5.85 0.499999
      vertex 2.6 5.85 1.8
      vertex 5.2 5.85 1.8
    endloop
  endfacet
  facet normal 0 1 0
    outer loop
      vertex 2.6 5.85 1.8
      vertex 5.2 5.85 0.499999
      vertex 2.6 5.85 0.499999
    endloop
  endfacet
  facet normal -0.998027 -0.0627869 0
    outer loop
      vertex 1.65 0 -3.05
      vertex 1.63699 0.2068 -0.75
      vertex 1.63699 0.2068 -3.05
    endloop
  endfacet
  facet normal -0.998027 -0.0627869 0
    outer loop
      vertex 1.63699 0.2068 -0.75
      vertex 1.65 0 -3.05
      vertex 1.65 0 -0.75
    endloop
  endfacet
  facet normal 0.998027 -0.0627869 0
    outer loop
      vertex -1.65 0 -0.75
      vertex -1.63699 0.2068 -3.05
      vertex -1.63699 0.2068 -0.75
    endloop
  endfacet
  facet normal 0.998027 -0.0627869 0
    outer loop
      vertex -1.63699 0.2068 -3.05
      vertex -1.65 0 -0.75
      vertex -1.65 0 -3.05
    endloop
  endfacet
  facet normal 0 -1 0
    outer loop
      vertex -0.103604 1.64674 -3.05
      vertex 0.103604 1.64674 -0.75
      vertex -0.103604 1.64674 -0.75
    endloop
  endfacet
  facet normal 0 -1 -0
    outer loop
      vertex 0.103604 1.64674 -0.75
      vertex -0.103604 1.64674 -3.05
      vertex 0.103604 1.64674 -3.05
    endloop
  endfacet
  facet normal 0 1 -0
    outer loop
      vertex 0.103604 -1.64674 -3.05
      vertex -0.103604 -1.64674 -0.75
      vertex 0.103604 -1.64674 -0.75
    endloop
  endfacet
  facet normal 0 1 0
    outer loop
      vertex -0.103604 -1.64674 -0.75
      vertex 0.103604 -1.64674 -3.05
      vertex -0.103604 -1.64674 -3.05
    endloop
  endfacet
  facet normal -0.684559 -0.728958 0
    outer loop
      vertex 1.05175 1.27135 -3.05
      vertex 1.2028 1.1295 -0.75
      vertex 1.05175 1.27135 -0.75
    endloop
  endfacet
  facet normal -0.684559 -0.728958 -0
    outer loop
      vertex 1.2028 1.1295 -0.75
      vertex 1.05175 1.27135 -3.05
      vertex 1.2028 1.1295 -3.05
    endloop
  endfacet
  facet normal 0.684559 -0.728958 0
    outer loop
      vertex -1.2028 1.1295 -3.05
      vertex -1.05175 1.27135 -0.75
      vertex -1.2028 1.1295 -0.75
    endloop
  endfacet
  facet normal 0.684559 -0.728958 0
    outer loop
      vertex -1.05175 1.27135 -0.75
      vertex -1.2028 1.1295 -3.05
      vertex -1.05175 1.27135 -3.05
    endloop
  endfacet
  facet normal 0.368128 -0.929775 0
    outer loop
      vertex -0.702536 1.49296 -3.05
      vertex -0.509877 1.56924 -0.75
      vertex -0.702536 1.49296 -0.75
    endloop
  endfacet
  facet normal 0.368128 -0.929775 0
    outer loop
      vertex -0.509877 1.56924 -0.75
      vertex -0.702536 1.49296 -3.05
      vertex -0.509877 1.56924 -3.05
    endloop
  endfacet
  facet normal -0.904837 -0.425759 0
    outer loop
      vertex 1.53413 0.607405 -3.05
      vertex 1.44591 0.794893 -0.75
      vertex 1.44591 0.794893 -3.05
    endloop
  endfacet
  facet normal -0.904837 -0.425759 0
    outer loop
      vertex 1.44591 0.794893 -0.75
      vertex 1.53413 0.607405 -3.05
      vertex 1.53413 0.607405 -0.75
    endloop
  endfacet
  facet normal -0.368128 -0.929775 0
    outer loop
      vertex 0.509877 1.56924 -3.05
      vertex 0.702536 1.49296 -0.75
      vertex 0.509877 1.56924 -0.75
    endloop
  endfacet
  facet normal -0.368128 -0.929775 -0
    outer loop
      vertex 0.702536 1.49296 -0.75
      vertex 0.509877 1.56924 -3.05
      vertex 0.702536 1.49296 -3.05
    endloop
  endfacet
  facet normal -0.587768 -0.809029 0
    outer loop
      vertex 0.884113 1.39314 -3.05
      vertex 1.05175 1.27135 -0.75
      vertex 0.884113 1.39314 -0.75
    endloop
  endfacet
  facet normal -0.587768 -0.809029 -0
    outer loop
      vertex 1.05175 1.27135 -0.75
      vertex 0.884113 1.39314 -3.05
      vertex 1.05175 1.27135 -3.05
    endloop
  endfacet
  facet normal 0.904837 -0.425759 0
    outer loop
      vertex -1.53413 0.607405 -0.75
      vertex -1.44591 0.794893 -3.05
      vertex -1.44591 0.794893 -0.75
    endloop
  endfacet
  facet normal 0.904837 -0.425759 0
    outer loop
      vertex -1.44591 0.794893 -3.05
      vertex -1.53413 0.607405 -0.75
      vertex -1.53413 0.607405 -3.05
    endloop
  endfacet
  facet normal 0 0 -1
    outer loop
      vertex 1.63699 -0.2068 -0.75
      vertex 1.63699 0.2068 -0.75
      vertex 1.65 0 -0.75
    endloop
  endfacet
  facet normal 0 0 -1
    outer loop
      vertex 1.59816 -0.410337 -0.75
      vertex 1.63699 0.2068 -0.75
      vertex 1.63699 -0.2068 -0.75
    endloop
  endfacet
  facet normal 0 0 -1
    outer loop
      vertex 1.59816 -0.410337 -0.75
      vertex 1.59816 0.410337 -0.75
      vertex 1.63699 0.2068 -0.75
    endloop
  endfacet
  facet normal 0 0 -1
    outer loop
      vertex 1.53413 -0.607405 -0.75
      vertex 1.59816 0.410337 -0.75
      vertex 1.59816 -0.410337 -0.75
    endloop
  endfacet
  facet normal 0 0 -1
    outer loop
      vertex 1.53413 -0.607405 -0.75
      vertex 1.53413 0.607405 -0.75
      vertex 1.59816 0.410337 -0.75
    endloop
  endfacet
  facet normal 0 0 -1
    outer loop
      vertex 1.44591 -0.794893 -0.75
      vertex 1.53413 0.607405 -0.75
      vertex 1.53413 -0.607405 -0.75
    endloop
  endfacet
  facet normal 0 0 -1
    outer loop
      vertex 1.44591 -0.794893 -0.75
      vertex 1.44591 0.794893 -0.75
      vertex 1.53413 0.607405 -0.75
    endloop
  endfacet
  facet normal 0 0 -1
    outer loop
      vertex 1.33488 -0.969845 -0.75
      vertex 1.44591 0.794893 -0.75
      vertex 1.44591 -0.794893 -0.75
    endloop
  endfacet
  facet normal 0 0 -1
    outer loop
      vertex 1.33488 -0.969845 -0.75
      vertex 1.33488 0.969845 -0.75
      vertex 1.44591 0.794893 -0.75
    endloop
  endfacet
  facet normal 0 0 -1
    outer loop
      vertex 1.2028 -1.1295 -0.75
      vertex 1.33488 0.969845 -0.75
      vertex 1.33488 -0.969845 -0.75
    endloop
  endfacet
  facet normal 0 0 -1
    outer loop
      vertex 1.2028 -1.1295 -0.75
      vertex 1.2028 1.1295 -0.75
      vertex 1.33488 0.969845 -0.75
    endloop
  endfacet
  facet normal 0 0 -1
    outer loop
      vertex 1.05175 -1.27135 -0.75
      vertex 1.2028 1.1295 -0.75
      vertex 1.2028 -1.1295 -0.75
    endloop
  endfacet
  facet normal 0 0 -1
    outer loop
      vertex 1.05175 -1.27135 -0.75
      vertex 1.05175 1.27135 -0.75
      vertex 1.2028 1.1295 -0.75
    endloop
  endfacet
  facet normal 0 0 -1
    outer loop
      vertex 0.884113 -1.39314 -0.75
      vertex 1.05175 1.27135 -0.75
      vertex 1.05175 -1.27135 -0.75
    endloop
  endfacet
  facet normal 0 0 -1
    outer loop
      vertex 0.884113 -1.39314 -0.75
      vertex 0.884113 1.39314 -0.75
      vertex 1.05175 1.27135 -0.75
    endloop
  endfacet
  facet normal 0 0 -1
    outer loop
      vertex 0.702536 -1.49296 -0.75
      vertex 0.884113 1.39314 -0.75
      vertex 0.884113 -1.39314 -0.75
    endloop
  endfacet
  facet normal 0 0 -1
    outer loop
      vertex 0.702536 -1.49296 -0.75
      vertex 0.702536 1.49296 -0.75
      vertex 0.884113 1.39314 -0.75
    endloop
  endfacet
  facet normal 0 0 -1
    outer loop
      vertex 0.509877 -1.56924 -0.75
      vertex 0.702536 1.49296 -0.75
      vertex 0.702536 -1.49296 -0.75
    endloop
  endfacet
  facet normal 0 0 -1
    outer loop
      vertex 0.509877 -1.56924 -0.75
      vertex 0.509877 1.56924 -0.75
      vertex 0.702536 1.49296 -0.75
    endloop
  endfacet
  facet normal 0 0 -1
    outer loop
      vertex 0.309178 -1.62077 -0.75
      vertex 0.509877 1.56924 -0.75
      vertex 0.509877 -1.56924 -0.75
    endloop
  endfacet
  facet normal 0 0 -1
    outer loop
      vertex 0.309178 -1.62077 -0.75
      vertex 0.309178 1.62077 -0.75
      vertex 0.509877 1.56924 -0.75
    endloop
  endfacet
  facet normal 0 0 -1
    outer loop
      vertex 0.103604 -1.64674 -0.75
      vertex 0.309178 1.62077 -0.75
      vertex 0.309178 -1.62077 -0.75
    endloop
  endfacet
  facet normal 0 0 -1
    outer loop
      vertex 0.103604 -1.64674 -0.75
      vertex 0.103604 1.64674 -0.75
      vertex 0.309178 1.62077 -0.75
    endloop
  endfacet
  facet normal 0 0 -1
    outer loop
      vertex -0.103604 -1.64674 -0.75
      vertex 0.103604 1.64674 -0.75
      vertex 0.103604 -1.64674 -0.75
    endloop
  endfacet
  facet normal 0 0 -1
    outer loop
      vertex -0.103604 -1.64674 -0.75
      vertex -0.103604 1.64674 -0.75
      vertex 0.103604 1.64674 -0.75
    endloop
  endfacet
  facet normal 0 0 -1
    outer loop
      vertex -0.309178 -1.62077 -0.75
      vertex -0.103604 1.64674 -0.75
      vertex -0.103604 -1.64674 -0.75
    endloop
  endfacet
  facet normal 0 0 -1
    outer loop
      vertex -0.309178 -1.62077 -0.75
      vertex -0.309178 1.62077 -0.75
      vertex -0.103604 1.64674 -0.75
    endloop
  endfacet
  facet normal 0 0 -1
    outer loop
      vertex -0.509877 -1.56924 -0.75
      vertex -0.309178 1.62077 -0.75
      vertex -0.309178 -1.62077 -0.75
    endloop
  endfacet
  facet normal 0 0 -1
    outer loop
      vertex -0.509877 -1.56924 -0.75
      vertex -0.509877 1.56924 -0.75
      vertex -0.309178 1.62077 -0.75
    endloop
  endfacet
  facet normal 0 0 -1
    outer loop
      vertex -0.702536 -1.49296 -0.75
      vertex -0.509877 1.56924 -0.75
      vertex -0.509877 -1.56924 -0.75
    endloop
  endfacet
  facet normal 0 0 -1
    outer loop
      vertex -0.702536 -1.49296 -0.75
      vertex -0.702536 1.49296 -0.75
      vertex -0.509877 1.56924 -0.75
    endloop
  endfacet
  facet normal 0 0 -1
    outer loop
      vertex -0.884113 -1.39314 -0.75
      vertex -0.702536 1.49296 -0.75
      vertex -0.702536 -1.49296 -0.75
    endloop
  endfacet
  facet normal 0 0 -1
    outer loop
      vertex -0.884113 -1.39314 -0.75
      vertex -0.884113 1.39314 -0.75
      vertex -0.702536 1.49296 -0.75
    endloop
  endfacet
  facet normal 0 0 -1
    outer loop
      vertex -1.05175 -1.27135 -0.75
      vertex -0.884113 1.39314 -0.75
      vertex -0.884113 -1.39314 -0.75
    endloop
  endfacet
  facet normal 0 0 -1
    outer loop
      vertex -1.05175 -1.27135 -0.75
      vertex -1.05175 1.27135 -0.75
      vertex -0.884113 1.39314 -0.75
    endloop
  endfacet
  facet normal 0 0 -1
    outer loop
      vertex -1.2028 -1.1295 -0.75
      vertex -1.05175 1.27135 -0.75
      vertex -1.05175 -1.27135 -0.75
    endloop
  endfacet
  facet normal 0 0 -1
    outer loop
      vertex -1.2028 -1.1295 -0.75
      vertex -1.2028 1.1295 -0.75
      vertex -1.05175 1.27135 -0.75
    endloop
  endfacet
  facet normal 0 0 -1
    outer loop
      vertex -1.33488 -0.969845 -0.75
      vertex -1.2028 1.1295 -0.75
      vertex -1.2028 -1.1295 -0.75
    endloop
  endfacet
  facet normal 0 0 -1
    outer loop
      vertex -1.33488 -0.969845 -0.75
      vertex -1.33488 0.969845 -0.75
      vertex -1.2028 1.1295 -0.75
    endloop
  endfacet
  facet normal 0 0 -1
    outer loop
      vertex -1.44591 -0.794893 -0.75
      vertex -1.33488 0.969845 -0.75
      vertex -1.33488 -0.969845 -0.75
    endloop
  endfacet
  facet normal 0 0 -1
    outer loop
      vertex -1.44591 -0.794893 -0.75
      vertex -1.44591 0.794893 -0.75
      vertex -1.33488 0.969845 -0.75
    endloop
  endfacet
  facet normal 0 0 -1
    outer loop
      vertex -1.53413 -0.607405 -0.75
      vertex -1.44591 0.794893 -0.75
      vertex -1.44591 -0.794893 -0.75
    endloop
  endfacet
  facet normal 0 0 -1
    outer loop
      vertex -1.53413 -0.607405 -0.75
      vertex -1.53413 0.607405 -0.75
      vertex -1.44591 0.794893 -0.75
    endloop
  endfacet
  facet normal 0 0 -1
    outer loop
      vertex -1.59816 -0.410337 -0.75
      vertex -1.53413 0.607405 -0.75
      vertex -1.53413 -0.607405 -0.75
    endloop
  endfacet
  facet normal 0 0 -1
    outer loop
      vertex -1.59816 -0.410337 -0.75
      vertex -1.59816 0.410337 -0.75
      vertex -1.53413 0.607405 -0.75
    endloop
  endfacet
  facet normal 0 0 -1
    outer loop
      vertex -1.63699 -0.2068 -0.75
      vertex -1.59816 0.410337 -0.75
      vertex -1.59816 -0.410337 -0.75
    endloop
  endfacet
  facet normal 0 0 -1
    outer loop
      vertex -1.63699 -0.2068 -0.75
      vertex -1.63699 0.2068 -0.75
      vertex -1.59816 0.410337 -0.75
    endloop
  endfacet
  facet normal 0 -0 -1
    outer loop
      vertex -1.63699 0.2068 -0.75
      vertex -1.63699 -0.2068 -0.75
      vertex -1.65 0 -0.75
    endloop
  endfacet
  facet normal 0.481743 -0.876312 0
    outer loop
      vertex -0.884113 1.39314 -3.05
      vertex -0.702536 1.49296 -0.75
      vertex -0.884113 1.39314 -0.75
    endloop
  endfacet
  facet normal 0.481743 -0.876312 0
    outer loop
      vertex -0.702536 1.49296 -0.75
      vertex -0.884113 1.39314 -3.05
      vertex -0.702536 1.49296 -3.05
    endloop
  endfacet
  facet normal 0.248687 -0.968584 0
    outer loop
      vertex -0.509877 1.56924 -3.05
      vertex -0.309178 1.62077 -0.75
      vertex -0.509877 1.56924 -0.75
    endloop
  endfacet
  facet normal 0.248687 -0.968584 0
    outer loop
      vertex -0.309178 1.62077 -0.75
      vertex -0.509877 1.56924 -3.05
      vertex -0.309178 1.62077 -3.05
    endloop
  endfacet
  facet normal -0.982284 0.187396 0
    outer loop
      vertex 1.59816 -0.410337 -3.05
      vertex 1.63699 -0.2068 -0.75
      vertex 1.63699 -0.2068 -3.05
    endloop
  endfacet
  facet normal -0.982284 0.187396 0
    outer loop
      vertex 1.63699 -0.2068 -0.75
      vertex 1.59816 -0.410337 -3.05
      vertex 1.59816 -0.410337 -0.75
    endloop
  endfacet
  facet normal 0 0 1
    outer loop
      vertex 1.63699 0.2068 -3.05
      vertex 1.63699 -0.2068 -3.05
      vertex 1.65 0 -3.05
    endloop
  endfacet
  facet normal 0 0 1
    outer loop
      vertex 1.59816 0.410337 -3.05
      vertex 1.63699 -0.2068 -3.05
      vertex 1.63699 0.2068 -3.05
    endloop
  endfacet
  facet normal 0 0 1
    outer loop
      vertex 1.59816 0.410337 -3.05
      vertex 1.59816 -0.410337 -3.05
      vertex 1.63699 -0.2068 -3.05
    endloop
  endfacet
  facet normal 0 0 1
    outer loop
      vertex 1.53413 0.607405 -3.05
      vertex 1.59816 -0.410337 -3.05
      vertex 1.59816 0.410337 -3.05
    endloop
  endfacet
  facet normal 0 0 1
    outer loop
      vertex 1.53413 0.607405 -3.05
      vertex 1.53413 -0.607405 -3.05
      vertex 1.59816 -0.410337 -3.05
    endloop
  endfacet
  facet normal 0 0 1
    outer loop
      vertex 1.44591 0.794893 -3.05
      vertex 1.53413 -0.607405 -3.05
      vertex 1.53413 0.607405 -3.05
    endloop
  endfacet
  facet normal 0 0 1
    outer loop
      vertex 1.44591 0.794893 -3.05
      vertex 1.44591 -0.794893 -3.05
      vertex 1.53413 -0.607405 -3.05
    endloop
  endfacet
  facet normal 0 0 1
    outer loop
      vertex 1.33488 0.969845 -3.05
      vertex 1.44591 -0.794893 -3.05
      vertex 1.44591 0.794893 -3.05
    endloop
  endfacet
  facet normal 0 0 1
    outer loop
      vertex 1.33488 0.969845 -3.05
      vertex 1.33488 -0.969845 -3.05
      vertex 1.44591 -0.794893 -3.05
    endloop
  endfacet
  facet normal 0 0 1
    outer loop
      vertex 1.2028 1.1295 -3.05
      vertex 1.33488 -0.969845 -3.05
      vertex 1.33488 0.969845 -3.05
    endloop
  endfacet
  facet normal 0 0 1
    outer loop
      vertex 1.2028 1.1295 -3.05
      vertex 1.2028 -1.1295 -3.05
      vertex 1.33488 -0.969845 -3.05
    endloop
  endfacet
  facet normal 0 0 1
    outer loop
      vertex 1.05175 1.27135 -3.05
      vertex 1.2028 -1.1295 -3.05
      vertex 1.2028 1.1295 -3.05
    endloop
  endfacet
  facet normal 0 0 1
    outer loop
      vertex 1.05175 1.27135 -3.05
      vertex 1.05175 -1.27135 -3.05
      vertex 1.2028 -1.1295 -3.05
    endloop
  endfacet
  facet normal 0 0 1
    outer loop
      vertex 0.884113 1.39314 -3.05
      vertex 1.05175 -1.27135 -3.05
      vertex 1.05175 1.27135 -3.05
    endloop
  endfacet
  facet normal 0 0 1
    outer loop
      vertex 0.884113 1.39314 -3.05
      vertex 0.884113 -1.39314 -3.05
      vertex 1.05175 -1.27135 -3.05
    endloop
  endfacet
  facet normal 0 0 1
    outer loop
      vertex 0.702536 1.49296 -3.05
      vertex 0.884113 -1.39314 -3.05
      vertex 0.884113 1.39314 -3.05
    endloop
  endfacet
  facet normal 0 0 1
    outer loop
      vertex 0.702536 1.49296 -3.05
      vertex 0.702536 -1.49296 -3.05
      vertex 0.884113 -1.39314 -3.05
    endloop
  endfacet
  facet normal 0 0 1
    outer loop
      vertex 0.509877 1.56924 -3.05
      vertex 0.702536 -1.49296 -3.05
      vertex 0.702536 1.49296 -3.05
    endloop
  endfacet
  facet normal 0 0 1
    outer loop
      vertex 0.509877 1.56924 -3.05
      vertex 0.509877 -1.56924 -3.05
      vertex 0.702536 -1.49296 -3.05
    endloop
  endfacet
  facet normal 0 0 1
    outer loop
      vertex 0.309178 1.62077 -3.05
      vertex 0.509877 -1.56924 -3.05
      vertex 0.509877 1.56924 -3.05
    endloop
  endfacet
  facet normal 0 0 1
    outer loop
      vertex 0.309178 1.62077 -3.05
      vertex 0.309178 -1.62077 -3.05
      vertex 0.509877 -1.56924 -3.05
    endloop
  endfacet
  facet normal 0 0 1
    outer loop
      vertex 0.103604 1.64674 -3.05
      vertex 0.309178 -1.62077 -3.05
      vertex 0.309178 1.62077 -3.05
    endloop
  endfacet
  facet normal 0 0 1
    outer loop
      vertex 0.103604 1.64674 -3.05
      vertex 0.103604 -1.64674 -3.05
      vertex 0.309178 -1.62077 -3.05
    endloop
  endfacet
  facet normal -0 0 1
    outer loop
      vertex -0.103604 1.64674 -3.05
      vertex 0.103604 -1.64674 -3.05
      vertex 0.103604 1.64674 -3.05
    endloop
  endfacet
  facet normal 0 0 1
    outer loop
      vertex -0.103604 1.64674 -3.05
      vertex -0.103604 -1.64674 -3.05
      vertex 0.103604 -1.64674 -3.05
    endloop
  endfacet
  facet normal -0 0 1
    outer loop
      vertex -0.309178 1.62077 -3.05
      vertex -0.103604 -1.64674 -3.05
      vertex -0.103604 1.64674 -3.05
    endloop
  endfacet
  facet normal 0 0 1
    outer loop
      vertex -0.309178 1.62077 -3.05
      vertex -0.309178 -1.62077 -3.05
      vertex -0.103604 -1.64674 -3.05
    endloop
  endfacet
  facet normal -0 0 1
    outer loop
      vertex -0.509877 1.56924 -3.05
      vertex -0.309178 -1.62077 -3.05
      vertex -0.309178 1.62077 -3.05
    endloop
  endfacet
  facet normal 0 0 1
    outer loop
      vertex -0.509877 1.56924 -3.05
      vertex -0.509877 -1.56924 -3.05
      vertex -0.309178 -1.62077 -3.05
    endloop
  endfacet
  facet normal -0 0 1
    outer loop
      vertex -0.702536 1.49296 -3.05
      vertex -0.509877 -1.56924 -3.05
      vertex -0.509877 1.56924 -3.05
    endloop
  endfacet
  facet normal 0 0 1
    outer loop
      vertex -0.702536 1.49296 -3.05
      vertex -0.702536 -1.49296 -3.05
      vertex -0.509877 -1.56924 -3.05
    endloop
  endfacet
  facet normal -0 0 1
    outer loop
      vertex -0.884113 1.39314 -3.05
      vertex -0.702536 -1.49296 -3.05
      vertex -0.702536 1.49296 -3.05
    endloop
  endfacet
  facet normal 0 0 1
    outer loop
      vertex -0.884113 1.39314 -3.05
      vertex -0.884113 -1.39314 -3.05
      vertex -0.702536 -1.49296 -3.05
    endloop
  endfacet
  facet normal -0 0 1
    outer loop
      vertex -1.05175 1.27135 -3.05
      vertex -0.884113 -1.39314 -3.05
      vertex -0.884113 1.39314 -3.05
    endloop
  endfacet
  facet normal 0 0 1
    outer loop
      vertex -1.05175 1.27135 -3.05
      vertex -1.05175 -1.27135 -3.05
      vertex -0.884113 -1.39314 -3.05
    endloop
  endfacet
  facet normal -0 0 1
    outer loop
      vertex -1.2028 1.1295 -3.05
      vertex -1.05175 -1.27135 -3.05
      vertex -1.05175 1.27135 -3.05
    endloop
  endfacet
  facet normal 0 0 1
    outer loop
      vertex -1.2028 1.1295 -3.05
      vertex -1.2028 -1.1295 -3.05
      vertex -1.05175 -1.27135 -3.05
    endloop
  endfacet
  facet normal -0 0 1
    outer loop
      vertex -1.33488 0.969845 -3.05
      vertex -1.2028 -1.1295 -3.05
      vertex -1.2028 1.1295 -3.05
    endloop
  endfacet
  facet normal 0 0 1
    outer loop
      vertex -1.33488 0.969845 -3.05
      vertex -1.33488 -0.969845 -3.05
      vertex -1.2028 -1.1295 -3.05
    endloop
  endfacet
  facet normal -0 0 1
    outer loop
      vertex -1.44591 0.794893 -3.05
      vertex -1.33488 -0.969845 -3.05
      vertex -1.33488 0.969845 -3.05
    endloop
  endfacet
  facet normal 0 0 1
    outer loop
      vertex -1.44591 0.794893 -3.05
      vertex -1.44591 -0.794893 -3.05
      vertex -1.33488 -0.969845 -3.05
    endloop
  endfacet
  facet normal -0 0 1
    outer loop
      vertex -1.53413 0.607405 -3.05
      vertex -1.44591 -0.794893 -3.05
      vertex -1.44591 0.794893 -3.05
    endloop
  endfacet
  facet normal 0 0 1
    outer loop
      vertex -1.53413 0.607405 -3.05
      vertex -1.53413 -0.607405 -3.05
      vertex -1.44591 -0.794893 -3.05
    endloop
  endfacet
  facet normal -0 0 1
    outer loop
      vertex -1.59816 0.410337 -3.05
      vertex -1.53413 -0.607405 -3.05
      vertex -1.53413 0.607405 -3.05
    endloop
  endfacet
  facet normal 0 0 1
    outer loop
      vertex -1.59816 0.410337 -3.05
      vertex -1.59816 -0.410337 -3.05
      vertex -1.53413 -0.607405 -3.05
    endloop
  endfacet
  facet normal -0 0 1
    outer loop
      vertex -1.63699 0.2068 -3.05
      vertex -1.59816 -0.410337 -3.05
      vertex -1.59816 0.410337 -3.05
    endloop
  endfacet
  facet normal 0 0 1
    outer loop
      vertex -1.63699 0.2068 -3.05
      vertex -1.63699 -0.2068 -3.05
      vertex -1.59816 -0.410337 -3.05
    endloop
  endfacet
  facet normal 0 -0 1
    outer loop
      vertex -1.63699 -0.2068 -3.05
      vertex -1.63699 0.2068 -3.05
      vertex -1.65 0 -3.05
    endloop
  endfacet
  facet normal -0.125333 0.992115 0
    outer loop
      vertex 0.309178 -1.62077 -3.05
      vertex 0.103604 -1.64674 -0.75
      vertex 0.309178 -1.62077 -0.75
    endloop
  endfacet
  facet normal -0.125333 0.992115 0
    outer loop
      vertex 0.103604 -1.64674 -0.75
      vertex 0.309178 -1.62077 -3.05
      vertex 0.103604 -1.64674 -3.05
    endloop
  endfacet
  facet normal -0.951058 -0.309011 0
    outer loop
      vertex 1.59816 0.410337 -3.05
      vertex 1.53413 0.607405 -0.75
      vertex 1.53413 0.607405 -3.05
    endloop
  endfacet
  facet normal -0.951058 -0.309011 0
    outer loop
      vertex 1.53413 0.607405 -0.75
      vertex 1.59816 0.410337 -3.05
      vertex 1.59816 0.410337 -0.75
    endloop
  endfacet
  facet normal -0.982284 -0.187396 0
    outer loop
      vertex 1.63699 0.2068 -3.05
      vertex 1.59816 0.410337 -0.75
      vertex 1.59816 0.410337 -3.05
    endloop
  endfacet
  facet normal -0.982284 -0.187396 0
    outer loop
      vertex 1.59816 0.410337 -0.75
      vertex 1.63699 0.2068 -3.05
      vertex 1.63699 0.2068 -0.75
    endloop
  endfacet
  facet normal -0.770509 -0.637429 0
    outer loop
      vertex 1.33488 0.969845 -3.05
      vertex 1.2028 1.1295 -0.75
      vertex 1.2028 1.1295 -3.05
    endloop
  endfacet
  facet normal -0.770509 -0.637429 0
    outer loop
      vertex 1.2028 1.1295 -0.75
      vertex 1.33488 0.969845 -3.05
      vertex 1.33488 0.969845 -0.75
    endloop
  endfacet
  facet normal -0.844323 -0.535834 0
    outer loop
      vertex 1.44591 0.794893 -3.05
      vertex 1.33488 0.969845 -0.75
      vertex 1.33488 0.969845 -3.05
    endloop
  endfacet
  facet normal -0.844323 -0.535834 0
    outer loop
      vertex 1.33488 0.969845 -0.75
      vertex 1.44591 0.794893 -3.05
      vertex 1.44591 0.794893 -0.75
    endloop
  endfacet
  facet normal -0.248687 -0.968584 0
    outer loop
      vertex 0.309178 1.62077 -3.05
      vertex 0.509877 1.56924 -0.75
      vertex 0.309178 1.62077 -0.75
    endloop
  endfacet
  facet normal -0.248687 -0.968584 -0
    outer loop
      vertex 0.509877 1.56924 -0.75
      vertex 0.309178 1.62077 -3.05
      vertex 0.509877 1.56924 -3.05
    endloop
  endfacet
  facet normal -0.125333 -0.992115 0
    outer loop
      vertex 0.103604 1.64674 -3.05
      vertex 0.309178 1.62077 -0.75
      vertex 0.103604 1.64674 -0.75
    endloop
  endfacet
  facet normal -0.125333 -0.992115 -0
    outer loop
      vertex 0.309178 1.62077 -0.75
      vertex 0.103604 1.64674 -3.05
      vertex 0.309178 1.62077 -3.05
    endloop
  endfacet
  facet normal -0.481743 -0.876312 0
    outer loop
      vertex 0.702536 1.49296 -3.05
      vertex 0.884113 1.39314 -0.75
      vertex 0.702536 1.49296 -0.75
    endloop
  endfacet
  facet normal -0.481743 -0.876312 -0
    outer loop
      vertex 0.884113 1.39314 -0.75
      vertex 0.702536 1.49296 -3.05
      vertex 0.884113 1.39314 -3.05
    endloop
  endfacet
  facet normal 0.844323 -0.535834 0
    outer loop
      vertex -1.44591 0.794893 -0.75
      vertex -1.33488 0.969845 -3.05
      vertex -1.33488 0.969845 -0.75
    endloop
  endfacet
  facet normal 0.844323 -0.535834 0
    outer loop
      vertex -1.33488 0.969845 -3.05
      vertex -1.44591 0.794893 -0.75
      vertex -1.44591 0.794893 -3.05
    endloop
  endfacet
  facet normal 0.770509 -0.637429 0
    outer loop
      vertex -1.33488 0.969845 -0.75
      vertex -1.2028 1.1295 -3.05
      vertex -1.2028 1.1295 -0.75
    endloop
  endfacet
  facet normal 0.770509 -0.637429 0
    outer loop
      vertex -1.2028 1.1295 -3.05
      vertex -1.33488 0.969845 -0.75
      vertex -1.33488 0.969845 -3.05
    endloop
  endfacet
  facet normal 0.951058 -0.309011 0
    outer loop
      vertex -1.59816 0.410337 -0.75
      vertex -1.53413 0.607405 -3.05
      vertex -1.53413 0.607405 -0.75
    endloop
  endfacet
  facet normal 0.951058 -0.309011 0
    outer loop
      vertex -1.53413 0.607405 -3.05
      vertex -1.59816 0.410337 -0.75
      vertex -1.59816 0.410337 -3.05
    endloop
  endfacet
  facet normal 0.982284 -0.187396 0
    outer loop
      vertex -1.63699 0.2068 -0.75
      vertex -1.59816 0.410337 -3.05
      vertex -1.59816 0.410337 -0.75
    endloop
  endfacet
  facet normal 0.982284 -0.187396 0
    outer loop
      vertex -1.59816 0.410337 -3.05
      vertex -1.63699 0.2068 -0.75
      vertex -1.63699 0.2068 -3.05
    endloop
  endfacet
  facet normal 0.587768 -0.809029 0
    outer loop
      vertex -1.05175 1.27135 -3.05
      vertex -0.884113 1.39314 -0.75
      vertex -1.05175 1.27135 -0.75
    endloop
  endfacet
  facet normal 0.587768 -0.809029 0
    outer loop
      vertex -0.884113 1.39314 -0.75
      vertex -1.05175 1.27135 -3.05
      vertex -0.884113 1.39314 -3.05
    endloop
  endfacet
  facet normal 0.125333 -0.992115 0
    outer loop
      vertex -0.309178 1.62077 -3.05
      vertex -0.103604 1.64674 -0.75
      vertex -0.309178 1.62077 -0.75
    endloop
  endfacet
  facet normal 0.125333 -0.992115 0
    outer loop
      vertex -0.103604 1.64674 -0.75
      vertex -0.309178 1.62077 -3.05
      vertex -0.103604 1.64674 -3.05
    endloop
  endfacet
  facet normal -0.998027 0.0627869 0
    outer loop
      vertex 1.63699 -0.2068 -3.05
      vertex 1.65 0 -0.75
      vertex 1.65 0 -3.05
    endloop
  endfacet
  facet normal -0.998027 0.0627869 0
    outer loop
      vertex 1.65 0 -0.75
      vertex 1.63699 -0.2068 -3.05
      vertex 1.63699 -0.2068 -0.75
    endloop
  endfacet
  facet normal -0.904837 0.425759 0
    outer loop
      vertex 1.44591 -0.794893 -3.05
      vertex 1.53413 -0.607405 -0.75
      vertex 1.53413 -0.607405 -3.05
    endloop
  endfacet
  facet normal -0.904837 0.425759 0
    outer loop
      vertex 1.53413 -0.607405 -0.75
      vertex 1.44591 -0.794893 -3.05
      vertex 1.44591 -0.794893 -0.75
    endloop
  endfacet
  facet normal 0.684559 0.728958 -0
    outer loop
      vertex -1.05175 -1.27135 -3.05
      vertex -1.2028 -1.1295 -0.75
      vertex -1.05175 -1.27135 -0.75
    endloop
  endfacet
  facet normal 0.684559 0.728958 0
    outer loop
      vertex -1.2028 -1.1295 -0.75
      vertex -1.05175 -1.27135 -3.05
      vertex -1.2028 -1.1295 -3.05
    endloop
  endfacet
  facet normal 0.904837 0.425759 0
    outer loop
      vertex -1.44591 -0.794893 -0.75
      vertex -1.53413 -0.607405 -3.05
      vertex -1.53413 -0.607405 -0.75
    endloop
  endfacet
  facet normal 0.904837 0.425759 0
    outer loop
      vertex -1.53413 -0.607405 -3.05
      vertex -1.44591 -0.794893 -0.75
      vertex -1.44591 -0.794893 -3.05
    endloop
  endfacet
  facet normal 0.844323 0.535834 0
    outer loop
      vertex -1.33488 -0.969845 -0.75
      vertex -1.44591 -0.794893 -3.05
      vertex -1.44591 -0.794893 -0.75
    endloop
  endfacet
  facet normal 0.844323 0.535834 0
    outer loop
      vertex -1.44591 -0.794893 -3.05
      vertex -1.33488 -0.969845 -0.75
      vertex -1.33488 -0.969845 -3.05
    endloop
  endfacet
  facet normal 0.998027 0.0627869 0
    outer loop
      vertex -1.63699 -0.2068 -0.75
      vertex -1.65 0 -3.05
      vertex -1.65 0 -0.75
    endloop
  endfacet
  facet normal 0.998027 0.0627869 0
    outer loop
      vertex -1.65 0 -3.05
      vertex -1.63699 -0.2068 -0.75
      vertex -1.63699 -0.2068 -3.05
    endloop
  endfacet
  facet normal -0.481743 0.876312 0
    outer loop
      vertex 0.884113 -1.39314 -3.05
      vertex 0.702536 -1.49296 -0.75
      vertex 0.884113 -1.39314 -0.75
    endloop
  endfacet
  facet normal -0.481743 0.876312 0
    outer loop
      vertex 0.702536 -1.49296 -0.75
      vertex 0.884113 -1.39314 -3.05
      vertex 0.702536 -1.49296 -3.05
    endloop
  endfacet
  facet normal -0.951058 0.309011 0
    outer loop
      vertex 1.53413 -0.607405 -3.05
      vertex 1.59816 -0.410337 -0.75
      vertex 1.59816 -0.410337 -3.05
    endloop
  endfacet
  facet normal -0.951058 0.309011 0
    outer loop
      vertex 1.59816 -0.410337 -0.75
      vertex 1.53413 -0.607405 -3.05
      vertex 1.53413 -0.607405 -0.75
    endloop
  endfacet
  facet normal -0.770509 0.637429 0
    outer loop
      vertex 1.2028 -1.1295 -3.05
      vertex 1.33488 -0.969845 -0.75
      vertex 1.33488 -0.969845 -3.05
    endloop
  endfacet
  facet normal -0.770509 0.637429 0
    outer loop
      vertex 1.33488 -0.969845 -0.75
      vertex 1.2028 -1.1295 -3.05
      vertex 1.2028 -1.1295 -0.75
    endloop
  endfacet
  facet normal 0.770509 0.637429 0
    outer loop
      vertex -1.2028 -1.1295 -0.75
      vertex -1.33488 -0.969845 -3.05
      vertex -1.33488 -0.969845 -0.75
    endloop
  endfacet
  facet normal 0.770509 0.637429 0
    outer loop
      vertex -1.33488 -0.969845 -3.05
      vertex -1.2028 -1.1295 -0.75
      vertex -1.2028 -1.1295 -3.05
    endloop
  endfacet
  facet normal 0.982284 0.187396 0
    outer loop
      vertex -1.59816 -0.410337 -0.75
      vertex -1.63699 -0.2068 -3.05
      vertex -1.63699 -0.2068 -0.75
    endloop
  endfacet
  facet normal 0.982284 0.187396 0
    outer loop
      vertex -1.63699 -0.2068 -3.05
      vertex -1.59816 -0.410337 -0.75
      vertex -1.59816 -0.410337 -3.05
    endloop
  endfacet
  facet normal 0.951058 0.309011 0
    outer loop
      vertex -1.53413 -0.607405 -0.75
      vertex -1.59816 -0.410337 -3.05
      vertex -1.59816 -0.410337 -0.75
    endloop
  endfacet
  facet normal 0.951058 0.309011 0
    outer loop
      vertex -1.59816 -0.410337 -3.05
      vertex -1.53413 -0.607405 -0.75
      vertex -1.53413 -0.607405 -3.05
    endloop
  endfacet
  facet normal -0.587768 0.809029 0
    outer loop
      vertex 1.05175 -1.27135 -3.05
      vertex 0.884113 -1.39314 -0.75
      vertex 1.05175 -1.27135 -0.75
    endloop
  endfacet
  facet normal -0.587768 0.809029 0
    outer loop
      vertex 0.884113 -1.39314 -0.75
      vertex 1.05175 -1.27135 -3.05
      vertex 0.884113 -1.39314 -3.05
    endloop
  endfacet
  facet normal -0.368128 0.929775 0
    outer loop
      vertex 0.702536 -1.49296 -3.05
      vertex 0.509877 -1.56924 -0.75
      vertex 0.702536 -1.49296 -0.75
    endloop
  endfacet
  facet normal -0.368128 0.929775 0
    outer loop
      vertex 0.509877 -1.56924 -0.75
      vertex 0.702536 -1.49296 -3.05
      vertex 0.509877 -1.56924 -3.05
    endloop
  endfacet
  facet normal -0.248687 0.968584 0
    outer loop
      vertex 0.509877 -1.56924 -3.05
      vertex 0.309178 -1.62077 -0.75
      vertex 0.509877 -1.56924 -0.75
    endloop
  endfacet
  facet normal -0.248687 0.968584 0
    outer loop
      vertex 0.309178 -1.62077 -0.75
      vertex 0.509877 -1.56924 -3.05
      vertex 0.309178 -1.62077 -3.05
    endloop
  endfacet
  facet normal -0.844323 0.535834 0
    outer loop
      vertex 1.33488 -0.969845 -3.05
      vertex 1.44591 -0.794893 -0.75
      vertex 1.44591 -0.794893 -3.05
    endloop
  endfacet
  facet normal -0.844323 0.535834 0
    outer loop
      vertex 1.44591 -0.794893 -0.75
      vertex 1.33488 -0.969845 -3.05
      vertex 1.33488 -0.969845 -0.75
    endloop
  endfacet
  facet normal 0.481743 0.876312 -0
    outer loop
      vertex -0.702536 -1.49296 -3.05
      vertex -0.884113 -1.39314 -0.75
      vertex -0.702536 -1.49296 -0.75
    endloop
  endfacet
  facet normal 0.481743 0.876312 0
    outer loop
      vertex -0.884113 -1.39314 -0.75
      vertex -0.702536 -1.49296 -3.05
      vertex -0.884113 -1.39314 -3.05
    endloop
  endfacet
  facet normal -0.684559 0.728958 0
    outer loop
      vertex 1.2028 -1.1295 -3.05
      vertex 1.05175 -1.27135 -0.75
      vertex 1.2028 -1.1295 -0.75
    endloop
  endfacet
  facet normal -0.684559 0.728958 0
    outer loop
      vertex 1.05175 -1.27135 -0.75
      vertex 1.2028 -1.1295 -3.05
      vertex 1.05175 -1.27135 -3.05
    endloop
  endfacet
  facet normal 0.248687 0.968584 -0
    outer loop
      vertex -0.309178 -1.62077 -3.05
      vertex -0.509877 -1.56924 -0.75
      vertex -0.309178 -1.62077 -0.75
    endloop
  endfacet
  facet normal 0.248687 0.968584 0
    outer loop
      vertex -0.509877 -1.56924 -0.75
      vertex -0.309178 -1.62077 -3.05
      vertex -0.509877 -1.56924 -3.05
    endloop
  endfacet
  facet normal 0.368128 0.929775 -0
    outer loop
      vertex -0.509877 -1.56924 -3.05
      vertex -0.702536 -1.49296 -0.75
      vertex -0.509877 -1.56924 -0.75
    endloop
  endfacet
  facet normal 0.368128 0.929775 0
    outer loop
      vertex -0.702536 -1.49296 -0.75
      vertex -0.509877 -1.56924 -3.05
      vertex -0.702536 -1.49296 -3.05
    endloop
  endfacet
  facet normal 0.125333 0.992115 -0
    outer loop
      vertex -0.103604 -1.64674 -3.05
      vertex -0.309178 -1.62077 -0.75
      vertex -0.103604 -1.64674 -0.75
    endloop
  endfacet
  facet normal 0.125333 0.992115 0
    outer loop
      vertex -0.309178 -1.62077 -0.75
      vertex -0.103604 -1.64674 -3.05
      vertex -0.309178 -1.62077 -3.05
    endloop
  endfacet
  facet normal 0.587768 0.809029 -0
    outer loop
      vertex -0.884113 -1.39314 -3.05
      vertex -1.05175 -1.27135 -0.75
      vertex -0.884113 -1.39314 -0.75
    endloop
  endfacet
  facet normal 0.587768 0.809029 0
    outer loop
      vertex -1.05175 -1.27135 -0.75
      vertex -0.884113 -1.39314 -3.05
      vertex -1.05175 -1.27135 -3.05
    endloop
  endfacet
  facet normal -1 0 0
    outer loop
      vertex -1.625 -1.625 3.75
      vertex -1.625 1.625 5.69
      vertex -1.625 1.625 3.75
    endloop
  endfacet
  facet normal -1 -0 0
    outer loop
      vertex -1.625 1.625 5.69
      vertex -1.625 -1.625 3.75
      vertex -1.625 -1.625 5.69
    endloop
  endfacet
  facet normal -0 0 1
    outer loop
      vertex -1.625 1.625 5.69
      vertex 1.625 -1.625 5.69
      vertex 1.625 1.625 5.69
    endloop
  endfacet
  facet normal 0 0 1
    outer loop
      vertex 1.625 -1.625 5.69
      vertex -1.625 1.625 5.69
      vertex -1.625 -1.625 5.69
    endloop
  endfacet
  facet normal 1 -0 0
    outer loop
      vertex 1.625 -1.625 5.69
      vertex 1.625 1.625 3.75
      vertex 1.625 1.625 5.69
    endloop
  endfacet
  facet normal 1 0 0
    outer loop
      vertex 1.625 1.625 3.75
      vertex 1.625 -1.625 5.69
      vertex 1.625 -1.625 3.75
    endloop
  endfacet
  facet normal 0 -1 0
    outer loop
      vertex -1.625 -1.625 3.75
      vertex 1.625 -1.625 5.69
      vertex -1.625 -1.625 5.69
    endloop
  endfacet
  facet normal 0 -1 -0
    outer loop
      vertex 1.625 -1.625 5.69
      vertex -1.625 -1.625 3.75
      vertex 1.625 -1.625 3.75
    endloop
  endfacet
  facet normal 0 1 -0
    outer loop
      vertex 1.625 1.625 3.75
      vertex -1.625 1.625 5.69
      vertex 1.625 1.625 5.69
    endloop
  endfacet
  facet normal 0 1 0
    outer loop
      vertex -1.625 1.625 5.69
      vertex 1.625 1.625 3.75
      vertex -1.625 1.625 3.75
    endloop
  endfacet
endsolid OpenSCAD_Model
