solid OpenSCAD_Model
  facet normal -1 0 0
    outer loop
      vertex -7.5 -7.5 -6.26
      vertex -7.5 7.5 -3.26
      vertex -7.5 7.5 -6.26
    endloop
  endfacet
  facet normal -1 -0 0
    outer loop
      vertex -7.5 7.5 -3.26
      vertex -7.5 -7.5 -6.26
      vertex -7.5 -7.5 -3.26
    endloop
  endfacet
  facet normal 0 0 1
    outer loop
      vertex 7.5 7.5 -3.26
      vertex 6.75 6.75 -3.26
      vertex 7.5 -7.5 -3.26
    endloop
  endfacet
  facet normal 0 0 1
    outer loop
      vertex 7.5 7.5 -3.26
      vertex -6.75 6.75 -3.26
      vertex 6.75 6.75 -3.26
    endloop
  endfacet
  facet normal 0 0 1
    outer loop
      vertex -6.75 6.75 -3.26
      vertex -7.5 7.5 -3.26
      vertex -6.75 -6.75 -3.26
    endloop
  endfacet
  facet normal -0 0 1
    outer loop
      vertex -7.5 7.5 -3.26
      vertex -6.75 6.75 -3.26
      vertex 7.5 7.5 -3.26
    endloop
  endfacet
  facet normal -0 0 1
    outer loop
      vertex 6.75 -6.75 -3.26
      vertex 7.5 -7.5 -3.26
      vertex 6.75 6.75 -3.26
    endloop
  endfacet
  facet normal -0 0 1
    outer loop
      vertex -6.75 -6.75 -3.26
      vertex 7.5 -7.5 -3.26
      vertex 6.75 -6.75 -3.26
    endloop
  endfacet
  facet normal 0 0 1
    outer loop
      vertex -6.75 -6.75 -3.26
      vertex -7.5 -7.5 -3.26
      vertex 7.5 -7.5 -3.26
    endloop
  endfacet
  facet normal 0 0 1
    outer loop
      vertex -7.5 -7.5 -3.26
      vertex -6.75 -6.75 -3.26
      vertex -7.5 7.5 -3.26
    endloop
  endfacet
  facet normal 1 -0 0
    outer loop
      vertex 7.5 -7.5 -3.26
      vertex 7.5 7.5 -6.26
      vertex 7.5 7.5 -3.26
    endloop
  endfacet
  facet normal 1 0 0
    outer loop
      vertex 7.5 7.5 -6.26
      vertex 7.5 -7.5 -3.26
      vertex 7.5 -7.5 -6.26
    endloop
  endfacet
  facet normal 0 1 -0
    outer loop
      vertex 7.5 7.5 -6.26
      vertex -7.5 7.5 -3.26
      vertex 7.5 7.5 -3.26
    endloop
  endfacet
  facet normal 0 1 0
    outer loop
      vertex -7.5 7.5 -3.26
      vertex 7.5 7.5 -6.26
      vertex -7.5 7.5 -6.26
    endloop
  endfacet
  facet normal 0 0 -1
    outer loop
      vertex -7.5 -7.5 -6.26
      vertex 7.5 7.5 -6.26
      vertex 7.5 -7.5 -6.26
    endloop
  endfacet
  facet normal -0 0 -1
    outer loop
      vertex 7.5 7.5 -6.26
      vertex -7.5 -7.5 -6.26
      vertex -7.5 7.5 -6.26
    endloop
  endfacet
  facet normal 0 -1 0
    outer loop
      vertex -7.5 -7.5 -6.26
      vertex 7.5 -7.5 -3.26
      vertex -7.5 -7.5 -3.26
    endloop
  endfacet
  facet normal 0 -1 -0
    outer loop
      vertex 7.5 -7.5 -3.26
      vertex -7.5 -7.5 -6.26
      vertex 7.5 -7.5 -6.26
    endloop
  endfacet
  facet normal -1 0 0
    outer loop
      vertex -6.75 -5.4 1.725
      vertex -6.75 -2.7 2.875
      vertex -6.75 -2.7 1.725
    endloop
  endfacet
  facet normal -1 -0 0
    outer loop
      vertex -6.75 -2.7 2.875
      vertex -6.75 -5.4 1.725
      vertex -6.75 -5.4 2.875
    endloop
  endfacet
  facet normal -1 0 0
    outer loop
      vertex -6.75 -5.4 -0.775
      vertex -6.75 -2.7 0.374999
      vertex -6.75 -2.7 -0.775
    endloop
  endfacet
  facet normal -1 -0 0
    outer loop
      vertex -6.75 -2.7 0.374999
      vertex -6.75 -5.4 -0.775
      vertex -6.75 -5.4 0.374999
    endloop
  endfacet
  facet normal -1 0 0
    outer loop
      vertex -6.75 -1.35 1.725
      vertex -6.75 1.35 2.875
      vertex -6.75 1.35 1.725
    endloop
  endfacet
  facet normal -1 -0 0
    outer loop
      vertex -6.75 1.35 2.875
      vertex -6.75 -1.35 1.725
      vertex -6.75 -1.35 2.875
    endloop
  endfacet
  facet normal -1 0 0
    outer loop
      vertex -6.75 -1.35 -0.775
      vertex -6.75 1.35 0.374999
      vertex -6.75 1.35 -0.775
    endloop
  endfacet
  facet normal -1 -0 0
    outer loop
      vertex -6.75 1.35 0.374999
      vertex -6.75 -1.35 -0.775
      vertex -6.75 -1.35 0.374999
    endloop
  endfacet
  facet normal -1 0 0
    outer loop
      vertex -6.75 2.7 1.725
      vertex -6.75 5.4 2.875
      vertex -6.75 5.4 1.725
    endloop
  endfacet
  facet normal -1 -0 0
    outer loop
      vertex -6.75 5.4 2.875
      vertex -6.75 2.7 1.725
      vertex -6.75 2.7 2.875
    endloop
  endfacet
  facet normal -1 0 0
    outer loop
      vertex -6.75 2.7 -0.775
      vertex -6.75 5.4 0.374999
      vertex -6.75 5.4 -0.775
    endloop
  endfacet
  facet normal -1 -0 0
    outer loop
      vertex -6.75 5.4 0.374999
      vertex -6.75 2.7 -0.775
      vertex -6.75 2.7 0.374999
    endloop
  endfacet
  facet normal -1 0 0
    outer loop
      vertex -6.75 5.4 -0.775
      vertex -6.75 6.75 -3.26
      vertex -6.75 5.4 -2.125
    endloop
  endfacet
  facet normal -1 0 0
    outer loop
      vertex -6.75 6.75 -3.26
      vertex -6.75 2.7 -2.125
      vertex -6.75 5.4 -2.125
    endloop
  endfacet
  facet normal -1 0 0
    outer loop
      vertex -6.75 1.35 -0.775
      vertex -6.75 2.7 -0.775
      vertex -6.75 2.7 -2.125
    endloop
  endfacet
  facet normal -1 0 0
    outer loop
      vertex -6.75 2.7 -0.775
      vertex -6.75 1.35 -0.775
      vertex -6.75 2.7 0.374999
    endloop
  endfacet
  facet normal -1 0 0
    outer loop
      vertex -6.75 2.7 0.374999
      vertex -6.75 1.35 0.374999
      vertex -6.75 2.7 1.725
    endloop
  endfacet
  facet normal -1 0 0
    outer loop
      vertex -6.75 1.35 1.725
      vertex -6.75 2.7 1.725
      vertex -6.75 1.35 0.374999
    endloop
  endfacet
  facet normal -1 0 0
    outer loop
      vertex -6.75 1.35 -0.775
      vertex -6.75 2.7 -2.125
      vertex -6.75 1.35 -2.125
    endloop
  endfacet
  facet normal -1 0 0
    outer loop
      vertex -6.75 6.75 -3.26
      vertex -6.75 1.35 -2.125
      vertex -6.75 2.7 -2.125
    endloop
  endfacet
  facet normal -1 0 0
    outer loop
      vertex -6.75 6.75 -3.26
      vertex -6.75 -1.35 -2.125
      vertex -6.75 1.35 -2.125
    endloop
  endfacet
  facet normal -1 0 0
    outer loop
      vertex -6.75 -2.7 -0.775
      vertex -6.75 -1.35 -0.775
      vertex -6.75 -1.35 -2.125
    endloop
  endfacet
  facet normal -1 0 0
    outer loop
      vertex -6.75 -1.35 -0.775
      vertex -6.75 -2.7 -0.775
      vertex -6.75 -1.35 0.374999
    endloop
  endfacet
  facet normal -1 0 0
    outer loop
      vertex -6.75 -1.35 0.374999
      vertex -6.75 -2.7 0.374999
      vertex -6.75 -1.35 1.725
    endloop
  endfacet
  facet normal -1 0 0
    outer loop
      vertex -6.75 -2.7 1.725
      vertex -6.75 -1.35 1.725
      vertex -6.75 -2.7 0.374999
    endloop
  endfacet
  facet normal -1 0 0
    outer loop
      vertex -6.75 -2.7 -0.775
      vertex -6.75 -1.35 -2.125
      vertex -6.75 -2.7 -2.125
    endloop
  endfacet
  facet normal -1 0 0
    outer loop
      vertex -6.75 -6.75 -3.26
      vertex -6.75 -1.35 -2.125
      vertex -6.75 6.75 -3.26
    endloop
  endfacet
  facet normal -1 -0 0
    outer loop
      vertex -6.75 -1.35 -2.125
      vertex -6.75 -6.75 -3.26
      vertex -6.75 -2.7 -2.125
    endloop
  endfacet
  facet normal -1 0 0
    outer loop
      vertex -6.75 -6.75 -3.26
      vertex -6.75 -5.4 -0.775
      vertex -6.75 -5.4 -2.125
    endloop
  endfacet
  facet normal -1 -0 0
    outer loop
      vertex -6.75 -5.4 -0.775
      vertex -6.75 -6.75 -3.26
      vertex -6.75 -5.4 0.374999
    endloop
  endfacet
  facet normal -1 -0 0
    outer loop
      vertex -6.75 -5.4 0.374999
      vertex -6.75 -6.75 -3.26
      vertex -6.75 -5.4 1.725
    endloop
  endfacet
  facet normal -1 0 0
    outer loop
      vertex -6.75 -6.75 6.25
      vertex -6.75 -5.4 1.725
      vertex -6.75 -6.75 -3.26
    endloop
  endfacet
  facet normal -1 0 0
    outer loop
      vertex -6.75 -5.4 1.725
      vertex -6.75 -6.75 6.25
      vertex -6.75 -5.4 2.875
    endloop
  endfacet
  facet normal -1 -0 0
    outer loop
      vertex -6.75 -2.7 -2.125
      vertex -6.75 -6.75 -3.26
      vertex -6.75 -5.4 -2.125
    endloop
  endfacet
  facet normal -1 0 0
    outer loop
      vertex -6.75 5.4 0.374999
      vertex -6.75 6.75 -3.26
      vertex -6.75 5.4 -0.775
    endloop
  endfacet
  facet normal -1 0 0
    outer loop
      vertex -6.75 5.4 1.725
      vertex -6.75 6.75 -3.26
      vertex -6.75 5.4 0.374999
    endloop
  endfacet
  facet normal -1 0 0
    outer loop
      vertex -6.75 6.75 -3.26
      vertex -6.75 5.4 1.725
      vertex -6.75 6.75 6.25
    endloop
  endfacet
  facet normal -1 0 0
    outer loop
      vertex -6.75 5.4 2.875
      vertex -6.75 6.75 6.25
      vertex -6.75 5.4 1.725
    endloop
  endfacet
  facet normal -1 0 0
    outer loop
      vertex -6.75 5.4 4.225
      vertex -6.75 6.75 6.25
      vertex -6.75 5.4 2.875
    endloop
  endfacet
  facet normal -1 0 0
    outer loop
      vertex -6.75 2.7 4.225
      vertex -6.75 6.75 6.25
      vertex -6.75 5.4 4.225
    endloop
  endfacet
  facet normal -1 -0 0
    outer loop
      vertex -6.75 2.7 0.374999
      vertex -6.75 1.35 -0.775
      vertex -6.75 1.35 0.374999
    endloop
  endfacet
  facet normal -1 0 0
    outer loop
      vertex -6.75 2.7 1.725
      vertex -6.75 1.35 1.725
      vertex -6.75 2.7 2.875
    endloop
  endfacet
  facet normal -1 0 0
    outer loop
      vertex -6.75 1.35 2.875
      vertex -6.75 2.7 2.875
      vertex -6.75 1.35 1.725
    endloop
  endfacet
  facet normal -1 0 0
    outer loop
      vertex -6.75 2.7 2.875
      vertex -6.75 1.35 2.875
      vertex -6.75 2.7 4.225
    endloop
  endfacet
  facet normal -1 0 0
    outer loop
      vertex -6.75 1.35 4.225
      vertex -6.75 2.7 4.225
      vertex -6.75 1.35 2.875
    endloop
  endfacet
  facet normal -1 0 0
    outer loop
      vertex -6.75 1.35 4.225
      vertex -6.75 6.75 6.25
      vertex -6.75 2.7 4.225
    endloop
  endfacet
  facet normal -1 0 0
    outer loop
      vertex -6.75 -1.35 4.225
      vertex -6.75 6.75 6.25
      vertex -6.75 1.35 4.225
    endloop
  endfacet
  facet normal -1 -0 0
    outer loop
      vertex -6.75 -1.35 0.374999
      vertex -6.75 -2.7 -0.775
      vertex -6.75 -2.7 0.374999
    endloop
  endfacet
  facet normal -1 0 0
    outer loop
      vertex -6.75 -1.35 1.725
      vertex -6.75 -2.7 1.725
      vertex -6.75 -1.35 2.875
    endloop
  endfacet
  facet normal -1 0 0
    outer loop
      vertex -6.75 -2.7 2.875
      vertex -6.75 -1.35 2.875
      vertex -6.75 -2.7 1.725
    endloop
  endfacet
  facet normal -1 0 0
    outer loop
      vertex -6.75 -1.35 2.875
      vertex -6.75 -2.7 2.875
      vertex -6.75 -1.35 4.225
    endloop
  endfacet
  facet normal -1 0 0
    outer loop
      vertex -6.75 -2.7 4.225
      vertex -6.75 -1.35 4.225
      vertex -6.75 -2.7 2.875
    endloop
  endfacet
  facet normal -1 0 0
    outer loop
      vertex -6.75 -6.75 6.25
      vertex -6.75 -1.35 4.225
      vertex -6.75 -2.7 4.225
    endloop
  endfacet
  facet normal -1 0 0
    outer loop
      vertex -6.75 -6.75 6.25
      vertex -6.75 -2.7 4.225
      vertex -6.75 -5.4 4.225
    endloop
  endfacet
  facet normal -1 0 0
    outer loop
      vertex -6.75 -1.35 4.225
      vertex -6.75 -6.75 6.25
      vertex -6.75 6.75 6.25
    endloop
  endfacet
  facet normal -1 0 0
    outer loop
      vertex -6.75 -5.4 2.875
      vertex -6.75 -6.75 6.25
      vertex -6.75 -5.4 4.225
    endloop
  endfacet
  facet normal 0 0 1
    outer loop
      vertex 6.75 6.75 6.25
      vertex 6.1875 -2.8125 6.25
      vertex 6.75 -6.75 6.25
    endloop
  endfacet
  facet normal -0 0 1
    outer loop
      vertex 1.6875 1.6875 6.25
      vertex 6.1875 -2.8125 6.25
      vertex 6.75 6.75 6.25
    endloop
  endfacet
  facet normal -0 0 1
    outer loop
      vertex 1.6875 -1.6875 6.25
      vertex 2.8125 -2.8125 6.25
      vertex 1.6875 1.6875 6.25
    endloop
  endfacet
  facet normal 0 0 1
    outer loop
      vertex 6.1875 -2.8125 6.25
      vertex 1.6875 1.6875 6.25
      vertex 2.8125 -2.8125 6.25
    endloop
  endfacet
  facet normal -0 0 1
    outer loop
      vertex -2.8125 6.1875 6.25
      vertex 1.6875 1.6875 6.25
      vertex 6.75 6.75 6.25
    endloop
  endfacet
  facet normal -0 0 1
    outer loop
      vertex -2.8125 2.8125 6.25
      vertex -1.6875 1.6875 6.25
      vertex -2.8125 6.1875 6.25
    endloop
  endfacet
  facet normal 0 0 1
    outer loop
      vertex 1.6875 1.6875 6.25
      vertex -2.8125 6.1875 6.25
      vertex -1.6875 1.6875 6.25
    endloop
  endfacet
  facet normal -0 0 1
    outer loop
      vertex -6.75 6.75 6.25
      vertex -2.8125 6.1875 6.25
      vertex 6.75 6.75 6.25
    endloop
  endfacet
  facet normal 0 0 1
    outer loop
      vertex -6.1875 6.1875 6.25
      vertex -6.75 6.75 6.25
      vertex -6.1875 2.8125 6.25
    endloop
  endfacet
  facet normal 0 0 1
    outer loop
      vertex -2.8125 6.1875 6.25
      vertex -6.75 6.75 6.25
      vertex -6.1875 6.1875 6.25
    endloop
  endfacet
  facet normal -0 0 1
    outer loop
      vertex 6.1875 -6.1875 6.25
      vertex 6.75 -6.75 6.25
      vertex 6.1875 -2.8125 6.25
    endloop
  endfacet
  facet normal -0 0 1
    outer loop
      vertex 2.8125 -6.1875 6.25
      vertex 6.75 -6.75 6.25
      vertex 6.1875 -6.1875 6.25
    endloop
  endfacet
  facet normal 0 0 1
    outer loop
      vertex 2.8125 -2.8125 6.25
      vertex 1.6875 -1.6875 6.25
      vertex 2.8125 -6.1875 6.25
    endloop
  endfacet
  facet normal -0 0 1
    outer loop
      vertex -1.6875 -1.6875 6.25
      vertex 2.8125 -6.1875 6.25
      vertex 1.6875 -1.6875 6.25
    endloop
  endfacet
  facet normal 0 0 1
    outer loop
      vertex -1.6875 1.6875 6.25
      vertex -2.8125 2.8125 6.25
      vertex -1.6875 -1.6875 6.25
    endloop
  endfacet
  facet normal -0 0 1
    outer loop
      vertex -6.1875 2.8125 6.25
      vertex -1.6875 -1.6875 6.25
      vertex -2.8125 2.8125 6.25
    endloop
  endfacet
  facet normal 0 0 1
    outer loop
      vertex -6.75 -6.75 6.25
      vertex -1.6875 -1.6875 6.25
      vertex -6.1875 2.8125 6.25
    endloop
  endfacet
  facet normal 0 0 1
    outer loop
      vertex 2.8125 -6.1875 6.25
      vertex -6.75 -6.75 6.25
      vertex 6.75 -6.75 6.25
    endloop
  endfacet
  facet normal 0 0 1
    outer loop
      vertex -1.6875 -1.6875 6.25
      vertex -6.75 -6.75 6.25
      vertex 2.8125 -6.1875 6.25
    endloop
  endfacet
  facet normal 0 0 1
    outer loop
      vertex -6.75 -6.75 6.25
      vertex -6.1875 2.8125 6.25
      vertex -6.75 6.75 6.25
    endloop
  endfacet
  facet normal 1 -0 0
    outer loop
      vertex 6.75 -5.4 0.374999
      vertex 6.75 -2.7 -0.775
      vertex 6.75 -2.7 0.374999
    endloop
  endfacet
  facet normal 1 0 0
    outer loop
      vertex 6.75 -2.7 -0.775
      vertex 6.75 -5.4 0.374999
      vertex 6.75 -5.4 -0.775
    endloop
  endfacet
  facet normal 1 -0 0
    outer loop
      vertex 6.75 -5.4 2.875
      vertex 6.75 -2.7 1.725
      vertex 6.75 -2.7 2.875
    endloop
  endfacet
  facet normal 1 0 0
    outer loop
      vertex 6.75 -2.7 1.725
      vertex 6.75 -5.4 2.875
      vertex 6.75 -5.4 1.725
    endloop
  endfacet
  facet normal 1 -0 0
    outer loop
      vertex 6.75 -1.35 0.374999
      vertex 6.75 1.35 -0.775
      vertex 6.75 1.35 0.374999
    endloop
  endfacet
  facet normal 1 0 0
    outer loop
      vertex 6.75 1.35 -0.775
      vertex 6.75 -1.35 0.374999
      vertex 6.75 -1.35 -0.775
    endloop
  endfacet
  facet normal 1 -0 0
    outer loop
      vertex 6.75 -1.35 2.875
      vertex 6.75 1.35 1.725
      vertex 6.75 1.35 2.875
    endloop
  endfacet
  facet normal 1 0 0
    outer loop
      vertex 6.75 1.35 1.725
      vertex 6.75 -1.35 2.875
      vertex 6.75 -1.35 1.725
    endloop
  endfacet
  facet normal 1 -0 0
    outer loop
      vertex 6.75 2.7 0.374999
      vertex 6.75 5.4 -0.775
      vertex 6.75 5.4 0.374999
    endloop
  endfacet
  facet normal 1 0 0
    outer loop
      vertex 6.75 5.4 -0.775
      vertex 6.75 2.7 0.374999
      vertex 6.75 2.7 -0.775
    endloop
  endfacet
  facet normal 1 -0 0
    outer loop
      vertex 6.75 2.7 2.875
      vertex 6.75 5.4 1.725
      vertex 6.75 5.4 2.875
    endloop
  endfacet
  facet normal 1 0 0
    outer loop
      vertex 6.75 5.4 1.725
      vertex 6.75 2.7 2.875
      vertex 6.75 2.7 1.725
    endloop
  endfacet
  facet normal 1 0 0
    outer loop
      vertex 6.75 5.4 2.875
      vertex 6.75 6.75 6.25
      vertex 6.75 5.4 4.225
    endloop
  endfacet
  facet normal 1 0 0
    outer loop
      vertex 6.75 6.75 6.25
      vertex 6.75 2.7 4.225
      vertex 6.75 5.4 4.225
    endloop
  endfacet
  facet normal 1 0 0
    outer loop
      vertex 6.75 1.35 2.875
      vertex 6.75 2.7 2.875
      vertex 6.75 2.7 4.225
    endloop
  endfacet
  facet normal 1 0 0
    outer loop
      vertex 6.75 2.7 2.875
      vertex 6.75 1.35 2.875
      vertex 6.75 2.7 1.725
    endloop
  endfacet
  facet normal 1 0 0
    outer loop
      vertex 6.75 2.7 1.725
      vertex 6.75 1.35 1.725
      vertex 6.75 2.7 0.374999
    endloop
  endfacet
  facet normal 1 0 0
    outer loop
      vertex 6.75 1.35 0.374999
      vertex 6.75 2.7 0.374999
      vertex 6.75 1.35 1.725
    endloop
  endfacet
  facet normal 1 0 0
    outer loop
      vertex 6.75 1.35 2.875
      vertex 6.75 2.7 4.225
      vertex 6.75 1.35 4.225
    endloop
  endfacet
  facet normal 1 0 0
    outer loop
      vertex 6.75 6.75 6.25
      vertex 6.75 1.35 4.225
      vertex 6.75 2.7 4.225
    endloop
  endfacet
  facet normal 1 0 0
    outer loop
      vertex 6.75 6.75 6.25
      vertex 6.75 -1.35 4.225
      vertex 6.75 1.35 4.225
    endloop
  endfacet
  facet normal 1 0 0
    outer loop
      vertex 6.75 -2.7 2.875
      vertex 6.75 -1.35 2.875
      vertex 6.75 -1.35 4.225
    endloop
  endfacet
  facet normal 1 0 0
    outer loop
      vertex 6.75 -1.35 2.875
      vertex 6.75 -2.7 2.875
      vertex 6.75 -1.35 1.725
    endloop
  endfacet
  facet normal 1 0 0
    outer loop
      vertex 6.75 -1.35 1.725
      vertex 6.75 -2.7 1.725
      vertex 6.75 -1.35 0.374999
    endloop
  endfacet
  facet normal 1 0 0
    outer loop
      vertex 6.75 -2.7 0.374999
      vertex 6.75 -1.35 0.374999
      vertex 6.75 -2.7 1.725
    endloop
  endfacet
  facet normal 1 0 0
    outer loop
      vertex 6.75 -2.7 2.875
      vertex 6.75 -1.35 4.225
      vertex 6.75 -2.7 4.225
    endloop
  endfacet
  facet normal 1 -0 0
    outer loop
      vertex 6.75 -6.75 6.25
      vertex 6.75 -1.35 4.225
      vertex 6.75 6.75 6.25
    endloop
  endfacet
  facet normal 1 0 0
    outer loop
      vertex 6.75 -1.35 4.225
      vertex 6.75 -6.75 6.25
      vertex 6.75 -2.7 4.225
    endloop
  endfacet
  facet normal 1 0 0
    outer loop
      vertex 6.75 -6.75 6.25
      vertex 6.75 -5.4 2.875
      vertex 6.75 -5.4 4.225
    endloop
  endfacet
  facet normal 1 0 0
    outer loop
      vertex 6.75 -5.4 2.875
      vertex 6.75 -6.75 6.25
      vertex 6.75 -5.4 1.725
    endloop
  endfacet
  facet normal 1 0 0
    outer loop
      vertex 6.75 -6.75 -3.26
      vertex 6.75 -5.4 1.725
      vertex 6.75 -6.75 6.25
    endloop
  endfacet
  facet normal 1 0 0
    outer loop
      vertex 6.75 -5.4 1.725
      vertex 6.75 -6.75 -3.26
      vertex 6.75 -5.4 0.374999
    endloop
  endfacet
  facet normal 1 0 0
    outer loop
      vertex 6.75 -5.4 0.374999
      vertex 6.75 -6.75 -3.26
      vertex 6.75 -5.4 -0.775
    endloop
  endfacet
  facet normal 1 0 0
    outer loop
      vertex 6.75 -2.7 4.225
      vertex 6.75 -6.75 6.25
      vertex 6.75 -5.4 4.225
    endloop
  endfacet
  facet normal 1 0 0
    outer loop
      vertex 6.75 5.4 1.725
      vertex 6.75 6.75 6.25
      vertex 6.75 5.4 2.875
    endloop
  endfacet
  facet normal 1 0 0
    outer loop
      vertex 6.75 6.75 6.25
      vertex 6.75 5.4 1.725
      vertex 6.75 6.75 -3.26
    endloop
  endfacet
  facet normal 1 -0 0
    outer loop
      vertex 6.75 5.4 0.374999
      vertex 6.75 6.75 -3.26
      vertex 6.75 5.4 1.725
    endloop
  endfacet
  facet normal 1 -0 0
    outer loop
      vertex 6.75 5.4 -0.775
      vertex 6.75 6.75 -3.26
      vertex 6.75 5.4 0.374999
    endloop
  endfacet
  facet normal 1 -0 0
    outer loop
      vertex 6.75 5.4 -2.125
      vertex 6.75 6.75 -3.26
      vertex 6.75 5.4 -0.775
    endloop
  endfacet
  facet normal 1 -0 0
    outer loop
      vertex 6.75 2.7 -2.125
      vertex 6.75 6.75 -3.26
      vertex 6.75 5.4 -2.125
    endloop
  endfacet
  facet normal 1 0 0
    outer loop
      vertex 6.75 2.7 1.725
      vertex 6.75 1.35 2.875
      vertex 6.75 1.35 1.725
    endloop
  endfacet
  facet normal 1 0 0
    outer loop
      vertex 6.75 2.7 0.374999
      vertex 6.75 1.35 0.374999
      vertex 6.75 2.7 -0.775
    endloop
  endfacet
  facet normal 1 0 0
    outer loop
      vertex 6.75 1.35 -0.775
      vertex 6.75 2.7 -0.775
      vertex 6.75 1.35 0.374999
    endloop
  endfacet
  facet normal 1 0 0
    outer loop
      vertex 6.75 2.7 -0.775
      vertex 6.75 1.35 -0.775
      vertex 6.75 2.7 -2.125
    endloop
  endfacet
  facet normal 1 0 0
    outer loop
      vertex 6.75 1.35 -2.125
      vertex 6.75 2.7 -2.125
      vertex 6.75 1.35 -0.775
    endloop
  endfacet
  facet normal 1 -0 0
    outer loop
      vertex 6.75 1.35 -2.125
      vertex 6.75 6.75 -3.26
      vertex 6.75 2.7 -2.125
    endloop
  endfacet
  facet normal 1 -0 0
    outer loop
      vertex 6.75 -1.35 -2.125
      vertex 6.75 6.75 -3.26
      vertex 6.75 1.35 -2.125
    endloop
  endfacet
  facet normal 1 0 0
    outer loop
      vertex 6.75 -1.35 1.725
      vertex 6.75 -2.7 2.875
      vertex 6.75 -2.7 1.725
    endloop
  endfacet
  facet normal 1 0 0
    outer loop
      vertex 6.75 -1.35 0.374999
      vertex 6.75 -2.7 0.374999
      vertex 6.75 -1.35 -0.775
    endloop
  endfacet
  facet normal 1 0 0
    outer loop
      vertex 6.75 -2.7 -0.775
      vertex 6.75 -1.35 -0.775
      vertex 6.75 -2.7 0.374999
    endloop
  endfacet
  facet normal 1 0 0
    outer loop
      vertex 6.75 -1.35 -0.775
      vertex 6.75 -2.7 -0.775
      vertex 6.75 -1.35 -2.125
    endloop
  endfacet
  facet normal 1 0 0
    outer loop
      vertex 6.75 -2.7 -2.125
      vertex 6.75 -1.35 -2.125
      vertex 6.75 -2.7 -0.775
    endloop
  endfacet
  facet normal 1 0 0
    outer loop
      vertex 6.75 -6.75 -3.26
      vertex 6.75 -1.35 -2.125
      vertex 6.75 -2.7 -2.125
    endloop
  endfacet
  facet normal 1 0 0
    outer loop
      vertex 6.75 -6.75 -3.26
      vertex 6.75 -2.7 -2.125
      vertex 6.75 -5.4 -2.125
    endloop
  endfacet
  facet normal 1 0 0
    outer loop
      vertex 6.75 -1.35 -2.125
      vertex 6.75 -6.75 -3.26
      vertex 6.75 6.75 -3.26
    endloop
  endfacet
  facet normal 1 0 0
    outer loop
      vertex 6.75 -5.4 -0.775
      vertex 6.75 -6.75 -3.26
      vertex 6.75 -5.4 -2.125
    endloop
  endfacet
  facet normal 0 -1 0
    outer loop
      vertex 1.35 -6.75 -2.125
      vertex 2.7 -6.75 -0.775
      vertex 1.35 -6.75 -0.775
    endloop
  endfacet
  facet normal 0 -1 -0
    outer loop
      vertex 2.7 -6.75 -0.775
      vertex 1.35 -6.75 -2.125
      vertex 2.7 -6.75 -2.125
    endloop
  endfacet
  facet normal 0 -1 0
    outer loop
      vertex -2.7 -6.75 -2.125
      vertex -1.35 -6.75 -0.775
      vertex -2.7 -6.75 -0.775
    endloop
  endfacet
  facet normal 0 -1 -0
    outer loop
      vertex -1.35 -6.75 -0.775
      vertex -2.7 -6.75 -2.125
      vertex -1.35 -6.75 -2.125
    endloop
  endfacet
  facet normal 0 -1 0
    outer loop
      vertex 1.35 -6.75 0.374999
      vertex 2.7 -6.75 1.725
      vertex 1.35 -6.75 1.725
    endloop
  endfacet
  facet normal 0 -1 -0
    outer loop
      vertex 2.7 -6.75 1.725
      vertex 1.35 -6.75 0.374999
      vertex 2.7 -6.75 0.374999
    endloop
  endfacet
  facet normal 0 -1 0
    outer loop
      vertex -2.7 -6.75 0.374999
      vertex -1.35 -6.75 1.725
      vertex -2.7 -6.75 1.725
    endloop
  endfacet
  facet normal 0 -1 -0
    outer loop
      vertex -1.35 -6.75 1.725
      vertex -2.7 -6.75 0.374999
      vertex -1.35 -6.75 0.374999
    endloop
  endfacet
  facet normal 0 -1 0
    outer loop
      vertex 1.35 -6.75 2.875
      vertex 2.7 -6.75 4.225
      vertex 1.35 -6.75 4.225
    endloop
  endfacet
  facet normal 0 -1 -0
    outer loop
      vertex 2.7 -6.75 4.225
      vertex 1.35 -6.75 2.875
      vertex 2.7 -6.75 2.875
    endloop
  endfacet
  facet normal 0 -1 0
    outer loop
      vertex -2.7 -6.75 2.875
      vertex -1.35 -6.75 4.225
      vertex -2.7 -6.75 4.225
    endloop
  endfacet
  facet normal 0 -1 -0
    outer loop
      vertex -1.35 -6.75 4.225
      vertex -2.7 -6.75 2.875
      vertex -1.35 -6.75 2.875
    endloop
  endfacet
  facet normal 0 -1 0
    outer loop
      vertex -2.7 -6.75 4.225
      vertex -6.75 -6.75 6.25
      vertex -5.4 -6.75 4.225
    endloop
  endfacet
  facet normal 0 -1 0
    outer loop
      vertex -6.75 -6.75 6.25
      vertex -5.4 -6.75 2.875
      vertex -5.4 -6.75 4.225
    endloop
  endfacet
  facet normal 0 -1 0
    outer loop
      vertex -2.7 -6.75 1.725
      vertex -2.7 -6.75 2.875
      vertex -5.4 -6.75 2.875
    endloop
  endfacet
  facet normal 0 -1 0
    outer loop
      vertex -2.7 -6.75 2.875
      vertex -2.7 -6.75 1.725
      vertex -1.35 -6.75 2.875
    endloop
  endfacet
  facet normal 0 -1 0
    outer loop
      vertex -1.35 -6.75 2.875
      vertex -1.35 -6.75 1.725
      vertex 1.35 -6.75 2.875
    endloop
  endfacet
  facet normal 0 -1 0
    outer loop
      vertex 1.35 -6.75 1.725
      vertex 1.35 -6.75 2.875
      vertex -1.35 -6.75 1.725
    endloop
  endfacet
  facet normal 0 -1 0
    outer loop
      vertex -2.7 -6.75 1.725
      vertex -5.4 -6.75 2.875
      vertex -5.4 -6.75 1.725
    endloop
  endfacet
  facet normal 0 -1 0
    outer loop
      vertex -6.75 -6.75 6.25
      vertex -5.4 -6.75 1.725
      vertex -5.4 -6.75 2.875
    endloop
  endfacet
  facet normal 0 -1 0
    outer loop
      vertex -6.75 -6.75 -3.26
      vertex -5.4 -6.75 1.725
      vertex -6.75 -6.75 6.25
    endloop
  endfacet
  facet normal 0 -1 0
    outer loop
      vertex -2.7 -6.75 -0.775
      vertex -2.7 -6.75 0.374999
      vertex -5.4 -6.75 0.374999
    endloop
  endfacet
  facet normal 0 -1 0
    outer loop
      vertex -2.7 -6.75 0.374999
      vertex -2.7 -6.75 -0.775
      vertex -1.35 -6.75 0.374999
    endloop
  endfacet
  facet normal 0 -1 0
    outer loop
      vertex -1.35 -6.75 0.374999
      vertex -1.35 -6.75 -0.775
      vertex 1.35 -6.75 0.374999
    endloop
  endfacet
  facet normal 0 -1 0
    outer loop
      vertex 1.35 -6.75 -0.775
      vertex 1.35 -6.75 0.374999
      vertex -1.35 -6.75 -0.775
    endloop
  endfacet
  facet normal 0 -1 0
    outer loop
      vertex -2.7 -6.75 -0.775
      vertex -5.4 -6.75 0.374999
      vertex -5.4 -6.75 -0.775
    endloop
  endfacet
  facet normal 0 -1 -0
    outer loop
      vertex -5.4 -6.75 1.725
      vertex -6.75 -6.75 -3.26
      vertex -5.4 -6.75 0.374999
    endloop
  endfacet
  facet normal 0 -1 -0
    outer loop
      vertex -5.4 -6.75 0.374999
      vertex -6.75 -6.75 -3.26
      vertex -5.4 -6.75 -0.775
    endloop
  endfacet
  facet normal 0 -1 0
    outer loop
      vertex -6.75 -6.75 -3.26
      vertex -2.7 -6.75 -2.125
      vertex -5.4 -6.75 -2.125
    endloop
  endfacet
  facet normal 0 -1 -0
    outer loop
      vertex -2.7 -6.75 -2.125
      vertex -6.75 -6.75 -3.26
      vertex -1.35 -6.75 -2.125
    endloop
  endfacet
  facet normal 0 -1 -0
    outer loop
      vertex -1.35 -6.75 -2.125
      vertex -6.75 -6.75 -3.26
      vertex 1.35 -6.75 -2.125
    endloop
  endfacet
  facet normal 0 -1 0
    outer loop
      vertex 6.75 -6.75 -3.26
      vertex 1.35 -6.75 -2.125
      vertex -6.75 -6.75 -3.26
    endloop
  endfacet
  facet normal 0 -1 0
    outer loop
      vertex 1.35 -6.75 -2.125
      vertex 6.75 -6.75 -3.26
      vertex 2.7 -6.75 -2.125
    endloop
  endfacet
  facet normal 0 -1 -0
    outer loop
      vertex -5.4 -6.75 -0.775
      vertex -6.75 -6.75 -3.26
      vertex -5.4 -6.75 -2.125
    endloop
  endfacet
  facet normal 0 -1 0
    outer loop
      vertex -1.35 -6.75 4.225
      vertex -6.75 -6.75 6.25
      vertex -2.7 -6.75 4.225
    endloop
  endfacet
  facet normal 0 -1 0
    outer loop
      vertex -6.75 -6.75 6.25
      vertex -1.35 -6.75 4.225
      vertex 6.75 -6.75 6.25
    endloop
  endfacet
  facet normal 0 -1 0
    outer loop
      vertex 1.35 -6.75 4.225
      vertex 6.75 -6.75 6.25
      vertex -1.35 -6.75 4.225
    endloop
  endfacet
  facet normal 0 -1 0
    outer loop
      vertex 2.7 -6.75 4.225
      vertex 6.75 -6.75 6.25
      vertex 1.35 -6.75 4.225
    endloop
  endfacet
  facet normal 0 -1 0
    outer loop
      vertex 5.4 -6.75 4.225
      vertex 6.75 -6.75 6.25
      vertex 2.7 -6.75 4.225
    endloop
  endfacet
  facet normal 0 -1 0
    outer loop
      vertex 5.4 -6.75 2.875
      vertex 6.75 -6.75 6.25
      vertex 5.4 -6.75 4.225
    endloop
  endfacet
  facet normal 0 -1 -0
    outer loop
      vertex -1.35 -6.75 2.875
      vertex -2.7 -6.75 1.725
      vertex -1.35 -6.75 1.725
    endloop
  endfacet
  facet normal 0 -1 0
    outer loop
      vertex 1.35 -6.75 2.875
      vertex 1.35 -6.75 1.725
      vertex 2.7 -6.75 2.875
    endloop
  endfacet
  facet normal 0 -1 0
    outer loop
      vertex 2.7 -6.75 1.725
      vertex 2.7 -6.75 2.875
      vertex 1.35 -6.75 1.725
    endloop
  endfacet
  facet normal 0 -1 0
    outer loop
      vertex 2.7 -6.75 2.875
      vertex 2.7 -6.75 1.725
      vertex 5.4 -6.75 2.875
    endloop
  endfacet
  facet normal 0 -1 0
    outer loop
      vertex 5.4 -6.75 1.725
      vertex 5.4 -6.75 2.875
      vertex 2.7 -6.75 1.725
    endloop
  endfacet
  facet normal 0 -1 0
    outer loop
      vertex 5.4 -6.75 1.725
      vertex 6.75 -6.75 6.25
      vertex 5.4 -6.75 2.875
    endloop
  endfacet
  facet normal 0 -1 0
    outer loop
      vertex 6.75 -6.75 -3.26
      vertex 5.4 -6.75 1.725
      vertex 5.4 -6.75 0.374999
    endloop
  endfacet
  facet normal 0 -1 -0
    outer loop
      vertex -1.35 -6.75 0.374999
      vertex -2.7 -6.75 -0.775
      vertex -1.35 -6.75 -0.775
    endloop
  endfacet
  facet normal 0 -1 0
    outer loop
      vertex 1.35 -6.75 0.374999
      vertex 1.35 -6.75 -0.775
      vertex 2.7 -6.75 0.374999
    endloop
  endfacet
  facet normal 0 -1 0
    outer loop
      vertex 2.7 -6.75 -0.775
      vertex 2.7 -6.75 0.374999
      vertex 1.35 -6.75 -0.775
    endloop
  endfacet
  facet normal 0 -1 0
    outer loop
      vertex 2.7 -6.75 0.374999
      vertex 2.7 -6.75 -0.775
      vertex 5.4 -6.75 0.374999
    endloop
  endfacet
  facet normal 0 -1 0
    outer loop
      vertex 5.4 -6.75 -0.775
      vertex 5.4 -6.75 0.374999
      vertex 2.7 -6.75 -0.775
    endloop
  endfacet
  facet normal 0 -1 0
    outer loop
      vertex 6.75 -6.75 -3.26
      vertex 5.4 -6.75 0.374999
      vertex 5.4 -6.75 -0.775
    endloop
  endfacet
  facet normal 0 -1 0
    outer loop
      vertex 6.75 -6.75 -3.26
      vertex 5.4 -6.75 -0.775
      vertex 5.4 -6.75 -2.125
    endloop
  endfacet
  facet normal 0 -1 0
    outer loop
      vertex 5.4 -6.75 1.725
      vertex 6.75 -6.75 -3.26
      vertex 6.75 -6.75 6.25
    endloop
  endfacet
  facet normal 0 -1 0
    outer loop
      vertex 2.7 -6.75 -2.125
      vertex 6.75 -6.75 -3.26
      vertex 5.4 -6.75 -2.125
    endloop
  endfacet
  facet normal 0 1 -0
    outer loop
      vertex -1.35 6.75 -2.125
      vertex -2.7 6.75 -0.775
      vertex -1.35 6.75 -0.775
    endloop
  endfacet
  facet normal 0 1 0
    outer loop
      vertex -2.7 6.75 -0.775
      vertex -1.35 6.75 -2.125
      vertex -2.7 6.75 -2.125
    endloop
  endfacet
  facet normal 0 1 -0
    outer loop
      vertex 2.7 6.75 -2.125
      vertex 1.35 6.75 -0.775
      vertex 2.7 6.75 -0.775
    endloop
  endfacet
  facet normal 0 1 0
    outer loop
      vertex 1.35 6.75 -0.775
      vertex 2.7 6.75 -2.125
      vertex 1.35 6.75 -2.125
    endloop
  endfacet
  facet normal 0 1 -0
    outer loop
      vertex -1.35 6.75 0.374999
      vertex -2.7 6.75 1.725
      vertex -1.35 6.75 1.725
    endloop
  endfacet
  facet normal 0 1 0
    outer loop
      vertex -2.7 6.75 1.725
      vertex -1.35 6.75 0.374999
      vertex -2.7 6.75 0.374999
    endloop
  endfacet
  facet normal 0 1 -0
    outer loop
      vertex 2.7 6.75 0.374999
      vertex 1.35 6.75 1.725
      vertex 2.7 6.75 1.725
    endloop
  endfacet
  facet normal 0 1 0
    outer loop
      vertex 1.35 6.75 1.725
      vertex 2.7 6.75 0.374999
      vertex 1.35 6.75 0.374999
    endloop
  endfacet
  facet normal 0 1 -0
    outer loop
      vertex -1.35 6.75 2.875
      vertex -2.7 6.75 4.225
      vertex -1.35 6.75 4.225
    endloop
  endfacet
  facet normal 0 1 0
    outer loop
      vertex -2.7 6.75 4.225
      vertex -1.35 6.75 2.875
      vertex -2.7 6.75 2.875
    endloop
  endfacet
  facet normal 0 1 -0
    outer loop
      vertex 2.7 6.75 2.875
      vertex 1.35 6.75 4.225
      vertex 2.7 6.75 4.225
    endloop
  endfacet
  facet normal 0 1 0
    outer loop
      vertex 1.35 6.75 4.225
      vertex 2.7 6.75 2.875
      vertex 1.35 6.75 2.875
    endloop
  endfacet
  facet normal 0 1 0
    outer loop
      vertex 2.7 6.75 4.225
      vertex 6.75 6.75 6.25
      vertex 5.4 6.75 4.225
    endloop
  endfacet
  facet normal 0 1 0
    outer loop
      vertex 6.75 6.75 6.25
      vertex 5.4 6.75 2.875
      vertex 5.4 6.75 4.225
    endloop
  endfacet
  facet normal 0 1 0
    outer loop
      vertex 2.7 6.75 1.725
      vertex 2.7 6.75 2.875
      vertex 5.4 6.75 2.875
    endloop
  endfacet
  facet normal 0 1 0
    outer loop
      vertex 2.7 6.75 2.875
      vertex 2.7 6.75 1.725
      vertex 1.35 6.75 2.875
    endloop
  endfacet
  facet normal 0 1 0
    outer loop
      vertex 1.35 6.75 2.875
      vertex 1.35 6.75 1.725
      vertex -1.35 6.75 2.875
    endloop
  endfacet
  facet normal 0 1 0
    outer loop
      vertex -1.35 6.75 1.725
      vertex -1.35 6.75 2.875
      vertex 1.35 6.75 1.725
    endloop
  endfacet
  facet normal 0 1 0
    outer loop
      vertex 2.7 6.75 1.725
      vertex 5.4 6.75 2.875
      vertex 5.4 6.75 1.725
    endloop
  endfacet
  facet normal 0 1 0
    outer loop
      vertex 6.75 6.75 6.25
      vertex 5.4 6.75 1.725
      vertex 5.4 6.75 2.875
    endloop
  endfacet
  facet normal 0 1 -0
    outer loop
      vertex 6.75 6.75 -3.26
      vertex 5.4 6.75 1.725
      vertex 6.75 6.75 6.25
    endloop
  endfacet
  facet normal 0 1 0
    outer loop
      vertex 2.7 6.75 -0.775
      vertex 2.7 6.75 0.374999
      vertex 5.4 6.75 0.374999
    endloop
  endfacet
  facet normal 0 1 0
    outer loop
      vertex 2.7 6.75 0.374999
      vertex 2.7 6.75 -0.775
      vertex 1.35 6.75 0.374999
    endloop
  endfacet
  facet normal 0 1 0
    outer loop
      vertex 1.35 6.75 0.374999
      vertex 1.35 6.75 -0.775
      vertex -1.35 6.75 0.374999
    endloop
  endfacet
  facet normal 0 1 0
    outer loop
      vertex -1.35 6.75 -0.775
      vertex -1.35 6.75 0.374999
      vertex 1.35 6.75 -0.775
    endloop
  endfacet
  facet normal 0 1 0
    outer loop
      vertex 2.7 6.75 -0.775
      vertex 5.4 6.75 0.374999
      vertex 5.4 6.75 -0.775
    endloop
  endfacet
  facet normal 0 1 0
    outer loop
      vertex 5.4 6.75 1.725
      vertex 6.75 6.75 -3.26
      vertex 5.4 6.75 0.374999
    endloop
  endfacet
  facet normal 0 1 0
    outer loop
      vertex 5.4 6.75 0.374999
      vertex 6.75 6.75 -3.26
      vertex 5.4 6.75 -0.775
    endloop
  endfacet
  facet normal 0 1 0
    outer loop
      vertex 6.75 6.75 -3.26
      vertex 2.7 6.75 -2.125
      vertex 5.4 6.75 -2.125
    endloop
  endfacet
  facet normal 0 1 0
    outer loop
      vertex 2.7 6.75 -2.125
      vertex 6.75 6.75 -3.26
      vertex 1.35 6.75 -2.125
    endloop
  endfacet
  facet normal 0 1 0
    outer loop
      vertex 1.35 6.75 -2.125
      vertex 6.75 6.75 -3.26
      vertex -1.35 6.75 -2.125
    endloop
  endfacet
  facet normal 0 1 0
    outer loop
      vertex -6.75 6.75 -3.26
      vertex -1.35 6.75 -2.125
      vertex 6.75 6.75 -3.26
    endloop
  endfacet
  facet normal 0 1 0
    outer loop
      vertex -1.35 6.75 -2.125
      vertex -6.75 6.75 -3.26
      vertex -2.7 6.75 -2.125
    endloop
  endfacet
  facet normal 0 1 0
    outer loop
      vertex 5.4 6.75 -0.775
      vertex 6.75 6.75 -3.26
      vertex 5.4 6.75 -2.125
    endloop
  endfacet
  facet normal 0 1 0
    outer loop
      vertex 1.35 6.75 4.225
      vertex 6.75 6.75 6.25
      vertex 2.7 6.75 4.225
    endloop
  endfacet
  facet normal 0 1 0
    outer loop
      vertex 6.75 6.75 6.25
      vertex 1.35 6.75 4.225
      vertex -6.75 6.75 6.25
    endloop
  endfacet
  facet normal 0 1 -0
    outer loop
      vertex -1.35 6.75 4.225
      vertex -6.75 6.75 6.25
      vertex 1.35 6.75 4.225
    endloop
  endfacet
  facet normal 0 1 -0
    outer loop
      vertex -2.7 6.75 4.225
      vertex -6.75 6.75 6.25
      vertex -1.35 6.75 4.225
    endloop
  endfacet
  facet normal 0 1 -0
    outer loop
      vertex -5.4 6.75 4.225
      vertex -6.75 6.75 6.25
      vertex -2.7 6.75 4.225
    endloop
  endfacet
  facet normal 0 1 -0
    outer loop
      vertex -5.4 6.75 2.875
      vertex -6.75 6.75 6.25
      vertex -5.4 6.75 4.225
    endloop
  endfacet
  facet normal 0 1 0
    outer loop
      vertex 1.35 6.75 2.875
      vertex 2.7 6.75 1.725
      vertex 1.35 6.75 1.725
    endloop
  endfacet
  facet normal 0 1 0
    outer loop
      vertex -1.35 6.75 2.875
      vertex -1.35 6.75 1.725
      vertex -2.7 6.75 2.875
    endloop
  endfacet
  facet normal 0 1 0
    outer loop
      vertex -2.7 6.75 1.725
      vertex -2.7 6.75 2.875
      vertex -1.35 6.75 1.725
    endloop
  endfacet
  facet normal 0 1 0
    outer loop
      vertex -2.7 6.75 2.875
      vertex -2.7 6.75 1.725
      vertex -5.4 6.75 2.875
    endloop
  endfacet
  facet normal 0 1 0
    outer loop
      vertex -5.4 6.75 1.725
      vertex -5.4 6.75 2.875
      vertex -2.7 6.75 1.725
    endloop
  endfacet
  facet normal 0 1 -0
    outer loop
      vertex -5.4 6.75 1.725
      vertex -6.75 6.75 6.25
      vertex -5.4 6.75 2.875
    endloop
  endfacet
  facet normal 0 1 0
    outer loop
      vertex -6.75 6.75 -3.26
      vertex -5.4 6.75 1.725
      vertex -5.4 6.75 0.374999
    endloop
  endfacet
  facet normal 0 1 0
    outer loop
      vertex 1.35 6.75 0.374999
      vertex 2.7 6.75 -0.775
      vertex 1.35 6.75 -0.775
    endloop
  endfacet
  facet normal 0 1 0
    outer loop
      vertex -1.35 6.75 0.374999
      vertex -1.35 6.75 -0.775
      vertex -2.7 6.75 0.374999
    endloop
  endfacet
  facet normal 0 1 0
    outer loop
      vertex -2.7 6.75 -0.775
      vertex -2.7 6.75 0.374999
      vertex -1.35 6.75 -0.775
    endloop
  endfacet
  facet normal 0 1 0
    outer loop
      vertex -2.7 6.75 0.374999
      vertex -2.7 6.75 -0.775
      vertex -5.4 6.75 0.374999
    endloop
  endfacet
  facet normal 0 1 0
    outer loop
      vertex -5.4 6.75 -0.775
      vertex -5.4 6.75 0.374999
      vertex -2.7 6.75 -0.775
    endloop
  endfacet
  facet normal 0 1 0
    outer loop
      vertex -6.75 6.75 -3.26
      vertex -5.4 6.75 0.374999
      vertex -5.4 6.75 -0.775
    endloop
  endfacet
  facet normal 0 1 0
    outer loop
      vertex -6.75 6.75 -3.26
      vertex -5.4 6.75 -0.775
      vertex -5.4 6.75 -2.125
    endloop
  endfacet
  facet normal 0 1 0
    outer loop
      vertex -5.4 6.75 1.725
      vertex -6.75 6.75 -3.26
      vertex -6.75 6.75 6.25
    endloop
  endfacet
  facet normal 0 1 0
    outer loop
      vertex -2.7 6.75 -2.125
      vertex -6.75 6.75 -3.26
      vertex -5.4 6.75 -2.125
    endloop
  endfacet
  facet normal 0 0 -1
    outer loop
      vertex -6.75 2.7 4.225
      vertex -6.075 5.4 4.225
      vertex -6.075 2.7 4.225
    endloop
  endfacet
  facet normal -0 0 -1
    outer loop
      vertex -6.075 5.4 4.225
      vertex -6.75 2.7 4.225
      vertex -6.75 5.4 4.225
    endloop
  endfacet
  facet normal 0 0 -1
    outer loop
      vertex -6.75 -1.35 4.225
      vertex -6.075 1.35 4.225
      vertex -6.075 -1.35 4.225
    endloop
  endfacet
  facet normal -0 0 -1
    outer loop
      vertex -6.075 1.35 4.225
      vertex -6.75 -1.35 4.225
      vertex -6.75 1.35 4.225
    endloop
  endfacet
  facet normal 0 0 -1
    outer loop
      vertex -6.75 -5.4 4.225
      vertex -6.075 -2.7 4.225
      vertex -6.075 -5.4 4.225
    endloop
  endfacet
  facet normal -0 0 -1
    outer loop
      vertex -6.075 -2.7 4.225
      vertex -6.75 -5.4 4.225
      vertex -6.75 -2.7 4.225
    endloop
  endfacet
  facet normal 0 0 -1
    outer loop
      vertex -5.4 -6.75 4.225
      vertex -2.7 -6.075 4.225
      vertex -2.7 -6.75 4.225
    endloop
  endfacet
  facet normal -0 0 -1
    outer loop
      vertex -2.7 -6.075 4.225
      vertex -5.4 -6.75 4.225
      vertex -5.4 -6.075 4.225
    endloop
  endfacet
  facet normal 0 0 -1
    outer loop
      vertex -1.35 -6.75 4.225
      vertex 1.35 -6.075 4.225
      vertex 1.35 -6.75 4.225
    endloop
  endfacet
  facet normal -0 0 -1
    outer loop
      vertex 1.35 -6.075 4.225
      vertex -1.35 -6.75 4.225
      vertex -1.35 -6.075 4.225
    endloop
  endfacet
  facet normal 0 0 -1
    outer loop
      vertex 2.7 -6.75 4.225
      vertex 5.4 -6.075 4.225
      vertex 5.4 -6.75 4.225
    endloop
  endfacet
  facet normal -0 0 -1
    outer loop
      vertex 5.4 -6.075 4.225
      vertex 2.7 -6.75 4.225
      vertex 2.7 -6.075 4.225
    endloop
  endfacet
  facet normal 0 0 -1
    outer loop
      vertex -5.4 6.075 4.225
      vertex -2.7 6.75 4.225
      vertex -2.7 6.075 4.225
    endloop
  endfacet
  facet normal -0 0 -1
    outer loop
      vertex -2.7 6.75 4.225
      vertex -5.4 6.075 4.225
      vertex -5.4 6.75 4.225
    endloop
  endfacet
  facet normal 0 0 -1
    outer loop
      vertex -1.35 6.075 4.225
      vertex 1.35 6.75 4.225
      vertex 1.35 6.075 4.225
    endloop
  endfacet
  facet normal -0 0 -1
    outer loop
      vertex 1.35 6.75 4.225
      vertex -1.35 6.075 4.225
      vertex -1.35 6.75 4.225
    endloop
  endfacet
  facet normal 0 0 -1
    outer loop
      vertex 2.7 6.075 4.225
      vertex 5.4 6.75 4.225
      vertex 5.4 6.075 4.225
    endloop
  endfacet
  facet normal -0 0 -1
    outer loop
      vertex 5.4 6.75 4.225
      vertex 2.7 6.075 4.225
      vertex 2.7 6.75 4.225
    endloop
  endfacet
  facet normal 0 0 -1
    outer loop
      vertex 6.075 2.7 4.225
      vertex 6.75 5.4 4.225
      vertex 6.75 2.7 4.225
    endloop
  endfacet
  facet normal -0 0 -1
    outer loop
      vertex 6.75 5.4 4.225
      vertex 6.075 2.7 4.225
      vertex 6.075 5.4 4.225
    endloop
  endfacet
  facet normal 0 0 -1
    outer loop
      vertex 6.075 -1.35 4.225
      vertex 6.75 1.35 4.225
      vertex 6.75 -1.35 4.225
    endloop
  endfacet
  facet normal -0 0 -1
    outer loop
      vertex 6.75 1.35 4.225
      vertex 6.075 -1.35 4.225
      vertex 6.075 1.35 4.225
    endloop
  endfacet
  facet normal 0 0 -1
    outer loop
      vertex 6.075 -5.4 4.225
      vertex 6.75 -2.7 4.225
      vertex 6.75 -5.4 4.225
    endloop
  endfacet
  facet normal -0 0 -1
    outer loop
      vertex 6.75 -2.7 4.225
      vertex 6.075 -5.4 4.225
      vertex 6.075 -2.7 4.225
    endloop
  endfacet
  facet normal 0 -1 0
    outer loop
      vertex -6.75 -2.7 2.875
      vertex -6.075 -2.7 4.225
      vertex -6.75 -2.7 4.225
    endloop
  endfacet
  facet normal 0 -1 -0
    outer loop
      vertex -6.075 -2.7 4.225
      vertex -6.75 -2.7 2.875
      vertex -6.075 -2.7 2.875
    endloop
  endfacet
  facet normal 0 -1 0
    outer loop
      vertex 6.075 -2.7 2.875
      vertex 6.75 -2.7 4.225
      vertex 6.075 -2.7 4.225
    endloop
  endfacet
  facet normal 0 -1 -0
    outer loop
      vertex 6.75 -2.7 4.225
      vertex 6.075 -2.7 2.875
      vertex 6.75 -2.7 2.875
    endloop
  endfacet
  facet normal -0 0 1
    outer loop
      vertex -6.75 5.4 2.875
      vertex -6.075 2.7 2.875
      vertex -6.075 5.4 2.875
    endloop
  endfacet
  facet normal 0 0 1
    outer loop
      vertex -6.075 2.7 2.875
      vertex -6.75 5.4 2.875
      vertex -6.75 2.7 2.875
    endloop
  endfacet
  facet normal -0 0 1
    outer loop
      vertex -6.75 1.35 2.875
      vertex -6.075 -1.35 2.875
      vertex -6.075 1.35 2.875
    endloop
  endfacet
  facet normal 0 0 1
    outer loop
      vertex -6.075 -1.35 2.875
      vertex -6.75 1.35 2.875
      vertex -6.75 -1.35 2.875
    endloop
  endfacet
  facet normal -0 0 1
    outer loop
      vertex -6.75 -2.7 2.875
      vertex -6.075 -5.4 2.875
      vertex -6.075 -2.7 2.875
    endloop
  endfacet
  facet normal 0 0 1
    outer loop
      vertex -6.075 -5.4 2.875
      vertex -6.75 -2.7 2.875
      vertex -6.75 -5.4 2.875
    endloop
  endfacet
  facet normal -0 0 1
    outer loop
      vertex -5.4 -6.075 2.875
      vertex -2.7 -6.75 2.875
      vertex -2.7 -6.075 2.875
    endloop
  endfacet
  facet normal 0 0 1
    outer loop
      vertex -2.7 -6.75 2.875
      vertex -5.4 -6.075 2.875
      vertex -5.4 -6.75 2.875
    endloop
  endfacet
  facet normal -0 0 1
    outer loop
      vertex -1.35 -6.075 2.875
      vertex 1.35 -6.75 2.875
      vertex 1.35 -6.075 2.875
    endloop
  endfacet
  facet normal 0 0 1
    outer loop
      vertex 1.35 -6.75 2.875
      vertex -1.35 -6.075 2.875
      vertex -1.35 -6.75 2.875
    endloop
  endfacet
  facet normal -0 0 1
    outer loop
      vertex 2.7 -6.075 2.875
      vertex 5.4 -6.75 2.875
      vertex 5.4 -6.075 2.875
    endloop
  endfacet
  facet normal 0 0 1
    outer loop
      vertex 5.4 -6.75 2.875
      vertex 2.7 -6.075 2.875
      vertex 2.7 -6.75 2.875
    endloop
  endfacet
  facet normal -0 0 1
    outer loop
      vertex -5.4 6.75 2.875
      vertex -2.7 6.075 2.875
      vertex -2.7 6.75 2.875
    endloop
  endfacet
  facet normal 0 0 1
    outer loop
      vertex -2.7 6.075 2.875
      vertex -5.4 6.75 2.875
      vertex -5.4 6.075 2.875
    endloop
  endfacet
  facet normal -0 0 1
    outer loop
      vertex -1.35 6.75 2.875
      vertex 1.35 6.075 2.875
      vertex 1.35 6.75 2.875
    endloop
  endfacet
  facet normal 0 0 1
    outer loop
      vertex 1.35 6.075 2.875
      vertex -1.35 6.75 2.875
      vertex -1.35 6.075 2.875
    endloop
  endfacet
  facet normal -0 0 1
    outer loop
      vertex 2.7 6.75 2.875
      vertex 5.4 6.075 2.875
      vertex 5.4 6.75 2.875
    endloop
  endfacet
  facet normal 0 0 1
    outer loop
      vertex 5.4 6.075 2.875
      vertex 2.7 6.75 2.875
      vertex 2.7 6.075 2.875
    endloop
  endfacet
  facet normal -0 0 1
    outer loop
      vertex 6.075 5.4 2.875
      vertex 6.75 2.7 2.875
      vertex 6.75 5.4 2.875
    endloop
  endfacet
  facet normal 0 0 1
    outer loop
      vertex 6.75 2.7 2.875
      vertex 6.075 5.4 2.875
      vertex 6.075 2.7 2.875
    endloop
  endfacet
  facet normal -0 0 1
    outer loop
      vertex 6.075 1.35 2.875
      vertex 6.75 -1.35 2.875
      vertex 6.75 1.35 2.875
    endloop
  endfacet
  facet normal 0 0 1
    outer loop
      vertex 6.75 -1.35 2.875
      vertex 6.075 1.35 2.875
      vertex 6.075 -1.35 2.875
    endloop
  endfacet
  facet normal -0 0 1
    outer loop
      vertex 6.075 -2.7 2.875
      vertex 6.75 -5.4 2.875
      vertex 6.75 -2.7 2.875
    endloop
  endfacet
  facet normal 0 0 1
    outer loop
      vertex 6.75 -5.4 2.875
      vertex 6.075 -2.7 2.875
      vertex 6.075 -5.4 2.875
    endloop
  endfacet
  facet normal 0 1 -0
    outer loop
      vertex -6.075 -5.4 2.875
      vertex -6.75 -5.4 4.225
      vertex -6.075 -5.4 4.225
    endloop
  endfacet
  facet normal 0 1 0
    outer loop
      vertex -6.75 -5.4 4.225
      vertex -6.075 -5.4 2.875
      vertex -6.75 -5.4 2.875
    endloop
  endfacet
  facet normal 0 1 -0
    outer loop
      vertex 6.75 -5.4 2.875
      vertex 6.075 -5.4 4.225
      vertex 6.75 -5.4 4.225
    endloop
  endfacet
  facet normal 0 1 0
    outer loop
      vertex 6.075 -5.4 4.225
      vertex 6.75 -5.4 2.875
      vertex 6.075 -5.4 2.875
    endloop
  endfacet
  facet normal 0 -1 0
    outer loop
      vertex -6.75 1.35 2.875
      vertex -6.075 1.35 4.225
      vertex -6.75 1.35 4.225
    endloop
  endfacet
  facet normal 0 -1 -0
    outer loop
      vertex -6.075 1.35 4.225
      vertex -6.75 1.35 2.875
      vertex -6.075 1.35 2.875
    endloop
  endfacet
  facet normal 0 -1 0
    outer loop
      vertex 6.075 1.35 2.875
      vertex 6.75 1.35 4.225
      vertex 6.075 1.35 4.225
    endloop
  endfacet
  facet normal 0 -1 -0
    outer loop
      vertex 6.75 1.35 4.225
      vertex 6.075 1.35 2.875
      vertex 6.75 1.35 2.875
    endloop
  endfacet
  facet normal 0 1 -0
    outer loop
      vertex -6.075 -1.35 2.875
      vertex -6.75 -1.35 4.225
      vertex -6.075 -1.35 4.225
    endloop
  endfacet
  facet normal 0 1 0
    outer loop
      vertex -6.75 -1.35 4.225
      vertex -6.075 -1.35 2.875
      vertex -6.75 -1.35 2.875
    endloop
  endfacet
  facet normal 0 1 -0
    outer loop
      vertex 6.75 -1.35 2.875
      vertex 6.075 -1.35 4.225
      vertex 6.75 -1.35 4.225
    endloop
  endfacet
  facet normal 0 1 0
    outer loop
      vertex 6.075 -1.35 4.225
      vertex 6.75 -1.35 2.875
      vertex 6.075 -1.35 2.875
    endloop
  endfacet
  facet normal 0 1 -0
    outer loop
      vertex -6.075 2.7 2.875
      vertex -6.75 2.7 4.225
      vertex -6.075 2.7 4.225
    endloop
  endfacet
  facet normal 0 1 0
    outer loop
      vertex -6.75 2.7 4.225
      vertex -6.075 2.7 2.875
      vertex -6.75 2.7 2.875
    endloop
  endfacet
  facet normal 0 1 -0
    outer loop
      vertex 6.75 2.7 2.875
      vertex 6.075 2.7 4.225
      vertex 6.75 2.7 4.225
    endloop
  endfacet
  facet normal 0 1 0
    outer loop
      vertex 6.075 2.7 4.225
      vertex 6.75 2.7 2.875
      vertex 6.075 2.7 2.875
    endloop
  endfacet
  facet normal 0 -1 0
    outer loop
      vertex -6.75 5.4 2.875
      vertex -6.075 5.4 4.225
      vertex -6.75 5.4 4.225
    endloop
  endfacet
  facet normal 0 -1 -0
    outer loop
      vertex -6.075 5.4 4.225
      vertex -6.75 5.4 2.875
      vertex -6.075 5.4 2.875
    endloop
  endfacet
  facet normal 0 -1 0
    outer loop
      vertex 6.075 5.4 2.875
      vertex 6.75 5.4 4.225
      vertex 6.075 5.4 4.225
    endloop
  endfacet
  facet normal 0 -1 -0
    outer loop
      vertex 6.75 5.4 4.225
      vertex 6.075 5.4 2.875
      vertex 6.75 5.4 2.875
    endloop
  endfacet
  facet normal 0 0 -1
    outer loop
      vertex -6.75 2.7 1.725
      vertex -6.075 5.4 1.725
      vertex -6.075 2.7 1.725
    endloop
  endfacet
  facet normal -0 0 -1
    outer loop
      vertex -6.075 5.4 1.725
      vertex -6.75 2.7 1.725
      vertex -6.75 5.4 1.725
    endloop
  endfacet
  facet normal 0 0 -1
    outer loop
      vertex -6.75 -1.35 1.725
      vertex -6.075 1.35 1.725
      vertex -6.075 -1.35 1.725
    endloop
  endfacet
  facet normal -0 0 -1
    outer loop
      vertex -6.075 1.35 1.725
      vertex -6.75 -1.35 1.725
      vertex -6.75 1.35 1.725
    endloop
  endfacet
  facet normal 0 0 -1
    outer loop
      vertex -6.75 -5.4 1.725
      vertex -6.075 -2.7 1.725
      vertex -6.075 -5.4 1.725
    endloop
  endfacet
  facet normal -0 0 -1
    outer loop
      vertex -6.075 -2.7 1.725
      vertex -6.75 -5.4 1.725
      vertex -6.75 -2.7 1.725
    endloop
  endfacet
  facet normal 0 0 -1
    outer loop
      vertex -5.4 -6.75 1.725
      vertex -2.7 -6.075 1.725
      vertex -2.7 -6.75 1.725
    endloop
  endfacet
  facet normal -0 0 -1
    outer loop
      vertex -2.7 -6.075 1.725
      vertex -5.4 -6.75 1.725
      vertex -5.4 -6.075 1.725
    endloop
  endfacet
  facet normal 0 0 -1
    outer loop
      vertex -1.35 -6.75 1.725
      vertex 1.35 -6.075 1.725
      vertex 1.35 -6.75 1.725
    endloop
  endfacet
  facet normal -0 0 -1
    outer loop
      vertex 1.35 -6.075 1.725
      vertex -1.35 -6.75 1.725
      vertex -1.35 -6.075 1.725
    endloop
  endfacet
  facet normal 0 0 -1
    outer loop
      vertex 2.7 -6.75 1.725
      vertex 5.4 -6.075 1.725
      vertex 5.4 -6.75 1.725
    endloop
  endfacet
  facet normal -0 0 -1
    outer loop
      vertex 5.4 -6.075 1.725
      vertex 2.7 -6.75 1.725
      vertex 2.7 -6.075 1.725
    endloop
  endfacet
  facet normal 0 0 -1
    outer loop
      vertex -5.4 6.075 1.725
      vertex -2.7 6.75 1.725
      vertex -2.7 6.075 1.725
    endloop
  endfacet
  facet normal -0 0 -1
    outer loop
      vertex -2.7 6.75 1.725
      vertex -5.4 6.075 1.725
      vertex -5.4 6.75 1.725
    endloop
  endfacet
  facet normal 0 0 -1
    outer loop
      vertex -1.35 6.075 1.725
      vertex 1.35 6.75 1.725
      vertex 1.35 6.075 1.725
    endloop
  endfacet
  facet normal -0 0 -1
    outer loop
      vertex 1.35 6.75 1.725
      vertex -1.35 6.075 1.725
      vertex -1.35 6.75 1.725
    endloop
  endfacet
  facet normal 0 0 -1
    outer loop
      vertex 2.7 6.075 1.725
      vertex 5.4 6.75 1.725
      vertex 5.4 6.075 1.725
    endloop
  endfacet
  facet normal -0 0 -1
    outer loop
      vertex 5.4 6.75 1.725
      vertex 2.7 6.075 1.725
      vertex 2.7 6.75 1.725
    endloop
  endfacet
  facet normal 0 0 -1
    outer loop
      vertex 6.075 2.7 1.725
      vertex 6.75 5.4 1.725
      vertex 6.75 2.7 1.725
    endloop
  endfacet
  facet normal -0 0 -1
    outer loop
      vertex 6.75 5.4 1.725
      vertex 6.075 2.7 1.725
      vertex 6.075 5.4 1.725
    endloop
  endfacet
  facet normal 0 0 -1
    outer loop
      vertex 6.075 -1.35 1.725
      vertex 6.75 1.35 1.725
      vertex 6.75 -1.35 1.725
    endloop
  endfacet
  facet normal -0 0 -1
    outer loop
      vertex 6.75 1.35 1.725
      vertex 6.075 -1.35 1.725
      vertex 6.075 1.35 1.725
    endloop
  endfacet
  facet normal 0 0 -1
    outer loop
      vertex 6.075 -5.4 1.725
      vertex 6.75 -2.7 1.725
      vertex 6.75 -5.4 1.725
    endloop
  endfacet
  facet normal -0 0 -1
    outer loop
      vertex 6.75 -2.7 1.725
      vertex 6.075 -5.4 1.725
      vertex 6.075 -2.7 1.725
    endloop
  endfacet
  facet normal -0 0 1
    outer loop
      vertex -6.75 5.4 0.374999
      vertex -6.075 2.7 0.374999
      vertex -6.075 5.4 0.374999
    endloop
  endfacet
  facet normal 0 0 1
    outer loop
      vertex -6.075 2.7 0.374999
      vertex -6.75 5.4 0.374999
      vertex -6.75 2.7 0.374999
    endloop
  endfacet
  facet normal -0 0 1
    outer loop
      vertex -6.75 1.35 0.374999
      vertex -6.075 -1.35 0.374999
      vertex -6.075 1.35 0.374999
    endloop
  endfacet
  facet normal 0 0 1
    outer loop
      vertex -6.075 -1.35 0.374999
      vertex -6.75 1.35 0.374999
      vertex -6.75 -1.35 0.374999
    endloop
  endfacet
  facet normal -0 0 1
    outer loop
      vertex -6.75 -2.7 0.374999
      vertex -6.075 -5.4 0.374999
      vertex -6.075 -2.7 0.374999
    endloop
  endfacet
  facet normal 0 0 1
    outer loop
      vertex -6.075 -5.4 0.374999
      vertex -6.75 -2.7 0.374999
      vertex -6.75 -5.4 0.374999
    endloop
  endfacet
  facet normal -0 0 1
    outer loop
      vertex -5.4 -6.075 0.374999
      vertex -2.7 -6.75 0.374999
      vertex -2.7 -6.075 0.374999
    endloop
  endfacet
  facet normal 0 0 1
    outer loop
      vertex -2.7 -6.75 0.374999
      vertex -5.4 -6.075 0.374999
      vertex -5.4 -6.75 0.374999
    endloop
  endfacet
  facet normal -0 0 1
    outer loop
      vertex -1.35 -6.075 0.374999
      vertex 1.35 -6.75 0.374999
      vertex 1.35 -6.075 0.374999
    endloop
  endfacet
  facet normal 0 0 1
    outer loop
      vertex 1.35 -6.75 0.374999
      vertex -1.35 -6.075 0.374999
      vertex -1.35 -6.75 0.374999
    endloop
  endfacet
  facet normal -0 0 1
    outer loop
      vertex 2.7 -6.075 0.374999
      vertex 5.4 -6.75 0.374999
      vertex 5.4 -6.075 0.374999
    endloop
  endfacet
  facet normal 0 0 1
    outer loop
      vertex 5.4 -6.75 0.374999
      vertex 2.7 -6.075 0.374999
      vertex 2.7 -6.75 0.374999
    endloop
  endfacet
  facet normal -0 0 1
    outer loop
      vertex -5.4 6.75 0.374999
      vertex -2.7 6.075 0.374999
      vertex -2.7 6.75 0.374999
    endloop
  endfacet
  facet normal 0 0 1
    outer loop
      vertex -2.7 6.075 0.374999
      vertex -5.4 6.75 0.374999
      vertex -5.4 6.075 0.374999
    endloop
  endfacet
  facet normal -0 0 1
    outer loop
      vertex -1.35 6.75 0.374999
      vertex 1.35 6.075 0.374999
      vertex 1.35 6.75 0.374999
    endloop
  endfacet
  facet normal 0 0 1
    outer loop
      vertex 1.35 6.075 0.374999
      vertex -1.35 6.75 0.374999
      vertex -1.35 6.075 0.374999
    endloop
  endfacet
  facet normal -0 0 1
    outer loop
      vertex 2.7 6.75 0.374999
      vertex 5.4 6.075 0.374999
      vertex 5.4 6.75 0.374999
    endloop
  endfacet
  facet normal 0 0 1
    outer loop
      vertex 5.4 6.075 0.374999
      vertex 2.7 6.75 0.374999
      vertex 2.7 6.075 0.374999
    endloop
  endfacet
  facet normal -0 0 1
    outer loop
      vertex 6.075 5.4 0.374999
      vertex 6.75 2.7 0.374999
      vertex 6.75 5.4 0.374999
    endloop
  endfacet
  facet normal 0 0 1
    outer loop
      vertex 6.75 2.7 0.374999
      vertex 6.075 5.4 0.374999
      vertex 6.075 2.7 0.374999
    endloop
  endfacet
  facet normal -0 0 1
    outer loop
      vertex 6.075 1.35 0.374999
      vertex 6.75 -1.35 0.374999
      vertex 6.75 1.35 0.374999
    endloop
  endfacet
  facet normal 0 0 1
    outer loop
      vertex 6.75 -1.35 0.374999
      vertex 6.075 1.35 0.374999
      vertex 6.075 -1.35 0.374999
    endloop
  endfacet
  facet normal -0 0 1
    outer loop
      vertex 6.075 -2.7 0.374999
      vertex 6.75 -5.4 0.374999
      vertex 6.75 -2.7 0.374999
    endloop
  endfacet
  facet normal 0 0 1
    outer loop
      vertex 6.75 -5.4 0.374999
      vertex 6.075 -2.7 0.374999
      vertex 6.075 -5.4 0.374999
    endloop
  endfacet
  facet normal 0 1 -0
    outer loop
      vertex -6.075 -5.4 0.374999
      vertex -6.75 -5.4 1.725
      vertex -6.075 -5.4 1.725
    endloop
  endfacet
  facet normal 0 1 0
    outer loop
      vertex -6.75 -5.4 1.725
      vertex -6.075 -5.4 0.374999
      vertex -6.75 -5.4 0.374999
    endloop
  endfacet
  facet normal 0 1 -0
    outer loop
      vertex 6.75 -5.4 0.374999
      vertex 6.075 -5.4 1.725
      vertex 6.75 -5.4 1.725
    endloop
  endfacet
  facet normal 0 1 0
    outer loop
      vertex 6.075 -5.4 1.725
      vertex 6.75 -5.4 0.374999
      vertex 6.075 -5.4 0.374999
    endloop
  endfacet
  facet normal 0 -1 0
    outer loop
      vertex -6.75 -2.7 0.374999
      vertex -6.075 -2.7 1.725
      vertex -6.75 -2.7 1.725
    endloop
  endfacet
  facet normal 0 -1 -0
    outer loop
      vertex -6.075 -2.7 1.725
      vertex -6.75 -2.7 0.374999
      vertex -6.075 -2.7 0.374999
    endloop
  endfacet
  facet normal 0 -1 0
    outer loop
      vertex 6.075 -2.7 0.374999
      vertex 6.75 -2.7 1.725
      vertex 6.075 -2.7 1.725
    endloop
  endfacet
  facet normal 0 -1 -0
    outer loop
      vertex 6.75 -2.7 1.725
      vertex 6.075 -2.7 0.374999
      vertex 6.75 -2.7 0.374999
    endloop
  endfacet
  facet normal 0 1 -0
    outer loop
      vertex -6.075 -1.35 0.374999
      vertex -6.75 -1.35 1.725
      vertex -6.075 -1.35 1.725
    endloop
  endfacet
  facet normal 0 1 0
    outer loop
      vertex -6.75 -1.35 1.725
      vertex -6.075 -1.35 0.374999
      vertex -6.75 -1.35 0.374999
    endloop
  endfacet
  facet normal 0 1 -0
    outer loop
      vertex 6.75 -1.35 0.374999
      vertex 6.075 -1.35 1.725
      vertex 6.75 -1.35 1.725
    endloop
  endfacet
  facet normal 0 1 0
    outer loop
      vertex 6.075 -1.35 1.725
      vertex 6.75 -1.35 0.374999
      vertex 6.075 -1.35 0.374999
    endloop
  endfacet
  facet normal 0 -1 0
    outer loop
      vertex -6.75 1.35 0.374999
      vertex -6.075 1.35 1.725
      vertex -6.75 1.35 1.725
    endloop
  endfacet
  facet normal 0 -1 -0
    outer loop
      vertex -6.075 1.35 1.725
      vertex -6.75 1.35 0.374999
      vertex -6.075 1.35 0.374999
    endloop
  endfacet
  facet normal 0 -1 0
    outer loop
      vertex 6.075 1.35 0.374999
      vertex 6.75 1.35 1.725
      vertex 6.075 1.35 1.725
    endloop
  endfacet
  facet normal 0 -1 -0
    outer loop
      vertex 6.75 1.35 1.725
      vertex 6.075 1.35 0.374999
      vertex 6.75 1.35 0.374999
    endloop
  endfacet
  facet normal 0 -1 0
    outer loop
      vertex -6.75 5.4 0.374999
      vertex -6.075 5.4 1.725
      vertex -6.75 5.4 1.725
    endloop
  endfacet
  facet normal 0 -1 -0
    outer loop
      vertex -6.075 5.4 1.725
      vertex -6.75 5.4 0.374999
      vertex -6.075 5.4 0.374999
    endloop
  endfacet
  facet normal 0 -1 0
    outer loop
      vertex 6.075 5.4 0.374999
      vertex 6.75 5.4 1.725
      vertex 6.075 5.4 1.725
    endloop
  endfacet
  facet normal 0 -1 -0
    outer loop
      vertex 6.75 5.4 1.725
      vertex 6.075 5.4 0.374999
      vertex 6.75 5.4 0.374999
    endloop
  endfacet
  facet normal 0 1 -0
    outer loop
      vertex -6.075 2.7 0.374999
      vertex -6.75 2.7 1.725
      vertex -6.075 2.7 1.725
    endloop
  endfacet
  facet normal 0 1 0
    outer loop
      vertex -6.75 2.7 1.725
      vertex -6.075 2.7 0.374999
      vertex -6.75 2.7 0.374999
    endloop
  endfacet
  facet normal 0 1 -0
    outer loop
      vertex 6.75 2.7 0.374999
      vertex 6.075 2.7 1.725
      vertex 6.75 2.7 1.725
    endloop
  endfacet
  facet normal 0 1 0
    outer loop
      vertex 6.075 2.7 1.725
      vertex 6.75 2.7 0.374999
      vertex 6.075 2.7 0.374999
    endloop
  endfacet
  facet normal 0 0 -1
    outer loop
      vertex -6.75 2.7 -0.775
      vertex -6.075 5.4 -0.775
      vertex -6.075 2.7 -0.775
    endloop
  endfacet
  facet normal -0 0 -1
    outer loop
      vertex -6.075 5.4 -0.775
      vertex -6.75 2.7 -0.775
      vertex -6.75 5.4 -0.775
    endloop
  endfacet
  facet normal 0 0 -1
    outer loop
      vertex -6.75 -1.35 -0.775
      vertex -6.075 1.35 -0.775
      vertex -6.075 -1.35 -0.775
    endloop
  endfacet
  facet normal -0 0 -1
    outer loop
      vertex -6.075 1.35 -0.775
      vertex -6.75 -1.35 -0.775
      vertex -6.75 1.35 -0.775
    endloop
  endfacet
  facet normal 0 0 -1
    outer loop
      vertex -6.75 -5.4 -0.775
      vertex -6.075 -2.7 -0.775
      vertex -6.075 -5.4 -0.775
    endloop
  endfacet
  facet normal -0 0 -1
    outer loop
      vertex -6.075 -2.7 -0.775
      vertex -6.75 -5.4 -0.775
      vertex -6.75 -2.7 -0.775
    endloop
  endfacet
  facet normal 0 0 -1
    outer loop
      vertex -5.4 -6.75 -0.775
      vertex -2.7 -6.075 -0.775
      vertex -2.7 -6.75 -0.775
    endloop
  endfacet
  facet normal -0 0 -1
    outer loop
      vertex -2.7 -6.075 -0.775
      vertex -5.4 -6.75 -0.775
      vertex -5.4 -6.075 -0.775
    endloop
  endfacet
  facet normal 0 0 -1
    outer loop
      vertex -1.35 -6.75 -0.775
      vertex 1.35 -6.075 -0.775
      vertex 1.35 -6.75 -0.775
    endloop
  endfacet
  facet normal -0 0 -1
    outer loop
      vertex 1.35 -6.075 -0.775
      vertex -1.35 -6.75 -0.775
      vertex -1.35 -6.075 -0.775
    endloop
  endfacet
  facet normal 0 0 -1
    outer loop
      vertex 2.7 -6.75 -0.775
      vertex 5.4 -6.075 -0.775
      vertex 5.4 -6.75 -0.775
    endloop
  endfacet
  facet normal -0 0 -1
    outer loop
      vertex 5.4 -6.075 -0.775
      vertex 2.7 -6.75 -0.775
      vertex 2.7 -6.075 -0.775
    endloop
  endfacet
  facet normal 0 0 -1
    outer loop
      vertex -5.4 6.075 -0.775
      vertex -2.7 6.75 -0.775
      vertex -2.7 6.075 -0.775
    endloop
  endfacet
  facet normal -0 0 -1
    outer loop
      vertex -2.7 6.75 -0.775
      vertex -5.4 6.075 -0.775
      vertex -5.4 6.75 -0.775
    endloop
  endfacet
  facet normal 0 0 -1
    outer loop
      vertex -1.35 6.075 -0.775
      vertex 1.35 6.75 -0.775
      vertex 1.35 6.075 -0.775
    endloop
  endfacet
  facet normal -0 0 -1
    outer loop
      vertex 1.35 6.75 -0.775
      vertex -1.35 6.075 -0.775
      vertex -1.35 6.75 -0.775
    endloop
  endfacet
  facet normal 0 0 -1
    outer loop
      vertex 2.7 6.075 -0.775
      vertex 5.4 6.75 -0.775
      vertex 5.4 6.075 -0.775
    endloop
  endfacet
  facet normal -0 0 -1
    outer loop
      vertex 5.4 6.75 -0.775
      vertex 2.7 6.075 -0.775
      vertex 2.7 6.75 -0.775
    endloop
  endfacet
  facet normal 0 0 -1
    outer loop
      vertex 6.075 2.7 -0.775
      vertex 6.75 5.4 -0.775
      vertex 6.75 2.7 -0.775
    endloop
  endfacet
  facet normal -0 0 -1
    outer loop
      vertex 6.75 5.4 -0.775
      vertex 6.075 2.7 -0.775
      vertex 6.075 5.4 -0.775
    endloop
  endfacet
  facet normal 0 0 -1
    outer loop
      vertex 6.075 -1.35 -0.775
      vertex 6.75 1.35 -0.775
      vertex 6.75 -1.35 -0.775
    endloop
  endfacet
  facet normal -0 0 -1
    outer loop
      vertex 6.75 1.35 -0.775
      vertex 6.075 -1.35 -0.775
      vertex 6.075 1.35 -0.775
    endloop
  endfacet
  facet normal 0 0 -1
    outer loop
      vertex 6.075 -5.4 -0.775
      vertex 6.75 -2.7 -0.775
      vertex 6.75 -5.4 -0.775
    endloop
  endfacet
  facet normal -0 0 -1
    outer loop
      vertex 6.75 -2.7 -0.775
      vertex 6.075 -5.4 -0.775
      vertex 6.075 -2.7 -0.775
    endloop
  endfacet
  facet normal -0 0 1
    outer loop
      vertex -6.75 5.4 -2.125
      vertex -6.075 2.7 -2.125
      vertex -6.075 5.4 -2.125
    endloop
  endfacet
  facet normal 0 0 1
    outer loop
      vertex -6.075 2.7 -2.125
      vertex -6.75 5.4 -2.125
      vertex -6.75 2.7 -2.125
    endloop
  endfacet
  facet normal -0 0 1
    outer loop
      vertex -6.75 1.35 -2.125
      vertex -6.075 -1.35 -2.125
      vertex -6.075 1.35 -2.125
    endloop
  endfacet
  facet normal 0 0 1
    outer loop
      vertex -6.075 -1.35 -2.125
      vertex -6.75 1.35 -2.125
      vertex -6.75 -1.35 -2.125
    endloop
  endfacet
  facet normal -0 0 1
    outer loop
      vertex -6.75 -2.7 -2.125
      vertex -6.075 -5.4 -2.125
      vertex -6.075 -2.7 -2.125
    endloop
  endfacet
  facet normal 0 0 1
    outer loop
      vertex -6.075 -5.4 -2.125
      vertex -6.75 -2.7 -2.125
      vertex -6.75 -5.4 -2.125
    endloop
  endfacet
  facet normal -0 0 1
    outer loop
      vertex -5.4 -6.075 -2.125
      vertex -2.7 -6.75 -2.125
      vertex -2.7 -6.075 -2.125
    endloop
  endfacet
  facet normal 0 0 1
    outer loop
      vertex -2.7 -6.75 -2.125
      vertex -5.4 -6.075 -2.125
      vertex -5.4 -6.75 -2.125
    endloop
  endfacet
  facet normal -0 0 1
    outer loop
      vertex -1.35 -6.075 -2.125
      vertex 1.35 -6.75 -2.125
      vertex 1.35 -6.075 -2.125
    endloop
  endfacet
  facet normal 0 0 1
    outer loop
      vertex 1.35 -6.75 -2.125
      vertex -1.35 -6.075 -2.125
      vertex -1.35 -6.75 -2.125
    endloop
  endfacet
  facet normal -0 0 1
    outer loop
      vertex 2.7 -6.075 -2.125
      vertex 5.4 -6.75 -2.125
      vertex 5.4 -6.075 -2.125
    endloop
  endfacet
  facet normal 0 0 1
    outer loop
      vertex 5.4 -6.75 -2.125
      vertex 2.7 -6.075 -2.125
      vertex 2.7 -6.75 -2.125
    endloop
  endfacet
  facet normal -0 0 1
    outer loop
      vertex -5.4 6.75 -2.125
      vertex -2.7 6.075 -2.125
      vertex -2.7 6.75 -2.125
    endloop
  endfacet
  facet normal 0 0 1
    outer loop
      vertex -2.7 6.075 -2.125
      vertex -5.4 6.75 -2.125
      vertex -5.4 6.075 -2.125
    endloop
  endfacet
  facet normal -0 0 1
    outer loop
      vertex -1.35 6.75 -2.125
      vertex 1.35 6.075 -2.125
      vertex 1.35 6.75 -2.125
    endloop
  endfacet
  facet normal 0 0 1
    outer loop
      vertex 1.35 6.075 -2.125
      vertex -1.35 6.75 -2.125
      vertex -1.35 6.075 -2.125
    endloop
  endfacet
  facet normal -0 0 1
    outer loop
      vertex 2.7 6.75 -2.125
      vertex 5.4 6.075 -2.125
      vertex 5.4 6.75 -2.125
    endloop
  endfacet
  facet normal 0 0 1
    outer loop
      vertex 5.4 6.075 -2.125
      vertex 2.7 6.75 -2.125
      vertex 2.7 6.075 -2.125
    endloop
  endfacet
  facet normal -0 0 1
    outer loop
      vertex 6.075 5.4 -2.125
      vertex 6.75 2.7 -2.125
      vertex 6.75 5.4 -2.125
    endloop
  endfacet
  facet normal 0 0 1
    outer loop
      vertex 6.75 2.7 -2.125
      vertex 6.075 5.4 -2.125
      vertex 6.075 2.7 -2.125
    endloop
  endfacet
  facet normal -0 0 1
    outer loop
      vertex 6.075 1.35 -2.125
      vertex 6.75 -1.35 -2.125
      vertex 6.75 1.35 -2.125
    endloop
  endfacet
  facet normal 0 0 1
    outer loop
      vertex 6.75 -1.35 -2.125
      vertex 6.075 1.35 -2.125
      vertex 6.075 -1.35 -2.125
    endloop
  endfacet
  facet normal -0 0 1
    outer loop
      vertex 6.075 -2.7 -2.125
      vertex 6.75 -5.4 -2.125
      vertex 6.75 -2.7 -2.125
    endloop
  endfacet
  facet normal 0 0 1
    outer loop
      vertex 6.75 -5.4 -2.125
      vertex 6.075 -2.7 -2.125
      vertex 6.075 -5.4 -2.125
    endloop
  endfacet
  facet normal 0 1 -0
    outer loop
      vertex -6.075 -5.4 -2.125
      vertex -6.75 -5.4 -0.775
      vertex -6.075 -5.4 -0.775
    endloop
  endfacet
  facet normal 0 1 0
    outer loop
      vertex -6.75 -5.4 -0.775
      vertex -6.075 -5.4 -2.125
      vertex -6.75 -5.4 -2.125
    endloop
  endfacet
  facet normal 0 1 -0
    outer loop
      vertex 6.75 -5.4 -2.125
      vertex 6.075 -5.4 -0.775
      vertex 6.75 -5.4 -0.775
    endloop
  endfacet
  facet normal 0 1 0
    outer loop
      vertex 6.075 -5.4 -0.775
      vertex 6.75 -5.4 -2.125
      vertex 6.075 -5.4 -2.125
    endloop
  endfacet
  facet normal 0 -1 0
    outer loop
      vertex -6.75 -2.7 -2.125
      vertex -6.075 -2.7 -0.775
      vertex -6.75 -2.7 -0.775
    endloop
  endfacet
  facet normal 0 -1 -0
    outer loop
      vertex -6.075 -2.7 -0.775
      vertex -6.75 -2.7 -2.125
      vertex -6.075 -2.7 -2.125
    endloop
  endfacet
  facet normal 0 -1 0
    outer loop
      vertex 6.075 -2.7 -2.125
      vertex 6.75 -2.7 -0.775
      vertex 6.075 -2.7 -0.775
    endloop
  endfacet
  facet normal 0 -1 -0
    outer loop
      vertex 6.75 -2.7 -0.775
      vertex 6.075 -2.7 -2.125
      vertex 6.75 -2.7 -2.125
    endloop
  endfacet
  facet normal 0 1 -0
    outer loop
      vertex -6.075 -1.35 -2.125
      vertex -6.75 -1.35 -0.775
      vertex -6.075 -1.35 -0.775
    endloop
  endfacet
  facet normal 0 1 0
    outer loop
      vertex -6.75 -1.35 -0.775
      vertex -6.075 -1.35 -2.125
      vertex -6.75 -1.35 -2.125
    endloop
  endfacet
  facet normal 0 1 -0
    outer loop
      vertex 6.75 -1.35 -2.125
      vertex 6.075 -1.35 -0.775
      vertex 6.75 -1.35 -0.775
    endloop
  endfacet
  facet normal 0 1 0
    outer loop
      vertex 6.075 -1.35 -0.775
      vertex 6.75 -1.35 -2.125
      vertex 6.075 -1.35 -2.125
    endloop
  endfacet
  facet normal 0 -1 0
    outer loop
      vertex -6.75 1.35 -2.125
      vertex -6.075 1.35 -0.775
      vertex -6.75 1.35 -0.775
    endloop
  endfacet
  facet normal 0 -1 -0
    outer loop
      vertex -6.075 1.35 -0.775
      vertex -6.75 1.35 -2.125
      vertex -6.075 1.35 -2.125
    endloop
  endfacet
  facet normal 0 -1 0
    outer loop
      vertex 6.075 1.35 -2.125
      vertex 6.75 1.35 -0.775
      vertex 6.075 1.35 -0.775
    endloop
  endfacet
  facet normal 0 -1 -0
    outer loop
      vertex 6.75 1.35 -0.775
      vertex 6.075 1.35 -2.125
      vertex 6.75 1.35 -2.125
    endloop
  endfacet
  facet normal 0 1 -0
    outer loop
      vertex -6.075 2.7 -2.125
      vertex -6.75 2.7 -0.775
      vertex -6.075 2.7 -0.775
    endloop
  endfacet
  facet normal 0 1 0
    outer loop
      vertex -6.75 2.7 -0.775
      vertex -6.075 2.7 -2.125
      vertex -6.75 2.7 -2.125
    endloop
  endfacet
  facet normal 0 1 -0
    outer loop
      vertex 6.75 2.7 -2.125
      vertex 6.075 2.7 -0.775
      vertex 6.75 2.7 -0.775
    endloop
  endfacet
  facet normal 0 1 0
    outer loop
      vertex 6.075 2.7 -0.775
      vertex 6.75 2.7 -2.125
      vertex 6.075 2.7 -2.125
    endloop
  endfacet
  facet normal 0 -1 0
    outer loop
      vertex -6.75 5.4 -2.125
      vertex -6.075 5.4 -0.775
      vertex -6.75 5.4 -0.775
    endloop
  endfacet
  facet normal 0 -1 -0
    outer loop
      vertex -6.075 5.4 -0.775
      vertex -6.75 5.4 -2.125
      vertex -6.075 5.4 -2.125
    endloop
  endfacet
  facet normal 0 -1 0
    outer loop
      vertex 6.075 5.4 -2.125
      vertex 6.75 5.4 -0.775
      vertex 6.075 5.4 -0.775
    endloop
  endfacet
  facet normal 0 -1 -0
    outer loop
      vertex 6.75 5.4 -0.775
      vertex 6.075 5.4 -2.125
      vertex 6.75 5.4 -2.125
    endloop
  endfacet
  facet normal 1 -0 0
    outer loop
      vertex 2.7 -6.75 4.225
      vertex 2.7 -6.075 2.875
      vertex 2.7 -6.075 4.225
    endloop
  endfacet
  facet normal 1 0 0
    outer loop
      vertex 2.7 -6.075 2.875
      vertex 2.7 -6.75 4.225
      vertex 2.7 -6.75 2.875
    endloop
  endfacet
  facet normal 1 -0 0
    outer loop
      vertex 2.7 6.075 4.225
      vertex 2.7 6.75 2.875
      vertex 2.7 6.75 4.225
    endloop
  endfacet
  facet normal 1 0 0
    outer loop
      vertex 2.7 6.75 2.875
      vertex 2.7 6.075 4.225
      vertex 2.7 6.075 2.875
    endloop
  endfacet
  facet normal -1 0 0
    outer loop
      vertex 5.4 -6.75 2.875
      vertex 5.4 -6.075 4.225
      vertex 5.4 -6.075 2.875
    endloop
  endfacet
  facet normal -1 -0 0
    outer loop
      vertex 5.4 -6.075 4.225
      vertex 5.4 -6.75 2.875
      vertex 5.4 -6.75 4.225
    endloop
  endfacet
  facet normal -1 0 0
    outer loop
      vertex 5.4 6.075 2.875
      vertex 5.4 6.75 4.225
      vertex 5.4 6.75 2.875
    endloop
  endfacet
  facet normal -1 -0 0
    outer loop
      vertex 5.4 6.75 4.225
      vertex 5.4 6.075 2.875
      vertex 5.4 6.075 4.225
    endloop
  endfacet
  facet normal 1 -0 0
    outer loop
      vertex -1.35 -6.75 4.225
      vertex -1.35 -6.075 2.875
      vertex -1.35 -6.075 4.225
    endloop
  endfacet
  facet normal 1 0 0
    outer loop
      vertex -1.35 -6.075 2.875
      vertex -1.35 -6.75 4.225
      vertex -1.35 -6.75 2.875
    endloop
  endfacet
  facet normal 1 -0 0
    outer loop
      vertex -1.35 6.075 4.225
      vertex -1.35 6.75 2.875
      vertex -1.35 6.75 4.225
    endloop
  endfacet
  facet normal 1 0 0
    outer loop
      vertex -1.35 6.75 2.875
      vertex -1.35 6.075 4.225
      vertex -1.35 6.075 2.875
    endloop
  endfacet
  facet normal -1 0 0
    outer loop
      vertex 1.35 -6.75 2.875
      vertex 1.35 -6.075 4.225
      vertex 1.35 -6.075 2.875
    endloop
  endfacet
  facet normal -1 -0 0
    outer loop
      vertex 1.35 -6.075 4.225
      vertex 1.35 -6.75 2.875
      vertex 1.35 -6.75 4.225
    endloop
  endfacet
  facet normal -1 0 0
    outer loop
      vertex 1.35 6.075 2.875
      vertex 1.35 6.75 4.225
      vertex 1.35 6.75 2.875
    endloop
  endfacet
  facet normal -1 -0 0
    outer loop
      vertex 1.35 6.75 4.225
      vertex 1.35 6.075 2.875
      vertex 1.35 6.075 4.225
    endloop
  endfacet
  facet normal -1 0 0
    outer loop
      vertex -2.7 -6.75 2.875
      vertex -2.7 -6.075 4.225
      vertex -2.7 -6.075 2.875
    endloop
  endfacet
  facet normal -1 -0 0
    outer loop
      vertex -2.7 -6.075 4.225
      vertex -2.7 -6.75 2.875
      vertex -2.7 -6.75 4.225
    endloop
  endfacet
  facet normal -1 0 0
    outer loop
      vertex -2.7 6.075 2.875
      vertex -2.7 6.75 4.225
      vertex -2.7 6.75 2.875
    endloop
  endfacet
  facet normal -1 -0 0
    outer loop
      vertex -2.7 6.75 4.225
      vertex -2.7 6.075 2.875
      vertex -2.7 6.075 4.225
    endloop
  endfacet
  facet normal 1 -0 0
    outer loop
      vertex -5.4 -6.75 4.225
      vertex -5.4 -6.075 2.875
      vertex -5.4 -6.075 4.225
    endloop
  endfacet
  facet normal 1 0 0
    outer loop
      vertex -5.4 -6.075 2.875
      vertex -5.4 -6.75 4.225
      vertex -5.4 -6.75 2.875
    endloop
  endfacet
  facet normal 1 -0 0
    outer loop
      vertex -5.4 6.075 4.225
      vertex -5.4 6.75 2.875
      vertex -5.4 6.75 4.225
    endloop
  endfacet
  facet normal 1 0 0
    outer loop
      vertex -5.4 6.75 2.875
      vertex -5.4 6.075 4.225
      vertex -5.4 6.075 2.875
    endloop
  endfacet
  facet normal -1 0 0
    outer loop
      vertex 5.4 -6.75 0.374999
      vertex 5.4 -6.075 1.725
      vertex 5.4 -6.075 0.374999
    endloop
  endfacet
  facet normal -1 -0 0
    outer loop
      vertex 5.4 -6.075 1.725
      vertex 5.4 -6.75 0.374999
      vertex 5.4 -6.75 1.725
    endloop
  endfacet
  facet normal -1 0 0
    outer loop
      vertex 5.4 6.075 0.374999
      vertex 5.4 6.75 1.725
      vertex 5.4 6.75 0.374999
    endloop
  endfacet
  facet normal -1 -0 0
    outer loop
      vertex 5.4 6.75 1.725
      vertex 5.4 6.075 0.374999
      vertex 5.4 6.075 1.725
    endloop
  endfacet
  facet normal 1 -0 0
    outer loop
      vertex 2.7 -6.75 1.725
      vertex 2.7 -6.075 0.374999
      vertex 2.7 -6.075 1.725
    endloop
  endfacet
  facet normal 1 0 0
    outer loop
      vertex 2.7 -6.075 0.374999
      vertex 2.7 -6.75 1.725
      vertex 2.7 -6.75 0.374999
    endloop
  endfacet
  facet normal 1 -0 0
    outer loop
      vertex 2.7 6.075 1.725
      vertex 2.7 6.75 0.374999
      vertex 2.7 6.75 1.725
    endloop
  endfacet
  facet normal 1 0 0
    outer loop
      vertex 2.7 6.75 0.374999
      vertex 2.7 6.075 1.725
      vertex 2.7 6.075 0.374999
    endloop
  endfacet
  facet normal -1 0 0
    outer loop
      vertex 1.35 -6.75 0.374999
      vertex 1.35 -6.075 1.725
      vertex 1.35 -6.075 0.374999
    endloop
  endfacet
  facet normal -1 -0 0
    outer loop
      vertex 1.35 -6.075 1.725
      vertex 1.35 -6.75 0.374999
      vertex 1.35 -6.75 1.725
    endloop
  endfacet
  facet normal -1 0 0
    outer loop
      vertex 1.35 6.075 0.374999
      vertex 1.35 6.75 1.725
      vertex 1.35 6.75 0.374999
    endloop
  endfacet
  facet normal -1 -0 0
    outer loop
      vertex 1.35 6.75 1.725
      vertex 1.35 6.075 0.374999
      vertex 1.35 6.075 1.725
    endloop
  endfacet
  facet normal 1 -0 0
    outer loop
      vertex -1.35 -6.75 1.725
      vertex -1.35 -6.075 0.374999
      vertex -1.35 -6.075 1.725
    endloop
  endfacet
  facet normal 1 0 0
    outer loop
      vertex -1.35 -6.075 0.374999
      vertex -1.35 -6.75 1.725
      vertex -1.35 -6.75 0.374999
    endloop
  endfacet
  facet normal 1 -0 0
    outer loop
      vertex -1.35 6.075 1.725
      vertex -1.35 6.75 0.374999
      vertex -1.35 6.75 1.725
    endloop
  endfacet
  facet normal 1 0 0
    outer loop
      vertex -1.35 6.75 0.374999
      vertex -1.35 6.075 1.725
      vertex -1.35 6.075 0.374999
    endloop
  endfacet
  facet normal 1 -0 0
    outer loop
      vertex -5.4 -6.75 1.725
      vertex -5.4 -6.075 0.374999
      vertex -5.4 -6.075 1.725
    endloop
  endfacet
  facet normal 1 0 0
    outer loop
      vertex -5.4 -6.075 0.374999
      vertex -5.4 -6.75 1.725
      vertex -5.4 -6.75 0.374999
    endloop
  endfacet
  facet normal 1 -0 0
    outer loop
      vertex -5.4 6.075 1.725
      vertex -5.4 6.75 0.374999
      vertex -5.4 6.75 1.725
    endloop
  endfacet
  facet normal 1 0 0
    outer loop
      vertex -5.4 6.75 0.374999
      vertex -5.4 6.075 1.725
      vertex -5.4 6.075 0.374999
    endloop
  endfacet
  facet normal -1 0 0
    outer loop
      vertex -2.7 -6.75 0.374999
      vertex -2.7 -6.075 1.725
      vertex -2.7 -6.075 0.374999
    endloop
  endfacet
  facet normal -1 -0 0
    outer loop
      vertex -2.7 -6.075 1.725
      vertex -2.7 -6.75 0.374999
      vertex -2.7 -6.75 1.725
    endloop
  endfacet
  facet normal -1 0 0
    outer loop
      vertex -2.7 6.075 0.374999
      vertex -2.7 6.75 1.725
      vertex -2.7 6.75 0.374999
    endloop
  endfacet
  facet normal -1 -0 0
    outer loop
      vertex -2.7 6.75 1.725
      vertex -2.7 6.075 0.374999
      vertex -2.7 6.075 1.725
    endloop
  endfacet
  facet normal -1 0 0
    outer loop
      vertex 5.4 -6.75 -2.125
      vertex 5.4 -6.075 -0.775
      vertex 5.4 -6.075 -2.125
    endloop
  endfacet
  facet normal -1 -0 0
    outer loop
      vertex 5.4 -6.075 -0.775
      vertex 5.4 -6.75 -2.125
      vertex 5.4 -6.75 -0.775
    endloop
  endfacet
  facet normal -1 0 0
    outer loop
      vertex 5.4 6.075 -2.125
      vertex 5.4 6.75 -0.775
      vertex 5.4 6.75 -2.125
    endloop
  endfacet
  facet normal -1 -0 0
    outer loop
      vertex 5.4 6.75 -0.775
      vertex 5.4 6.075 -2.125
      vertex 5.4 6.075 -0.775
    endloop
  endfacet
  facet normal 1 -0 0
    outer loop
      vertex 2.7 -6.75 -0.775
      vertex 2.7 -6.075 -2.125
      vertex 2.7 -6.075 -0.775
    endloop
  endfacet
  facet normal 1 0 0
    outer loop
      vertex 2.7 -6.075 -2.125
      vertex 2.7 -6.75 -0.775
      vertex 2.7 -6.75 -2.125
    endloop
  endfacet
  facet normal 1 -0 0
    outer loop
      vertex 2.7 6.075 -0.775
      vertex 2.7 6.75 -2.125
      vertex 2.7 6.75 -0.775
    endloop
  endfacet
  facet normal 1 0 0
    outer loop
      vertex 2.7 6.75 -2.125
      vertex 2.7 6.075 -0.775
      vertex 2.7 6.075 -2.125
    endloop
  endfacet
  facet normal -1 0 0
    outer loop
      vertex 1.35 -6.75 -2.125
      vertex 1.35 -6.075 -0.775
      vertex 1.35 -6.075 -2.125
    endloop
  endfacet
  facet normal -1 -0 0
    outer loop
      vertex 1.35 -6.075 -0.775
      vertex 1.35 -6.75 -2.125
      vertex 1.35 -6.75 -0.775
    endloop
  endfacet
  facet normal -1 0 0
    outer loop
      vertex 1.35 6.075 -2.125
      vertex 1.35 6.75 -0.775
      vertex 1.35 6.75 -2.125
    endloop
  endfacet
  facet normal -1 -0 0
    outer loop
      vertex 1.35 6.75 -0.775
      vertex 1.35 6.075 -2.125
      vertex 1.35 6.075 -0.775
    endloop
  endfacet
  facet normal 1 -0 0
    outer loop
      vertex -1.35 -6.75 -0.775
      vertex -1.35 -6.075 -2.125
      vertex -1.35 -6.075 -0.775
    endloop
  endfacet
  facet normal 1 0 0
    outer loop
      vertex -1.35 -6.075 -2.125
      vertex -1.35 -6.75 -0.775
      vertex -1.35 -6.75 -2.125
    endloop
  endfacet
  facet normal 1 -0 0
    outer loop
      vertex -1.35 6.075 -0.775
      vertex -1.35 6.75 -2.125
      vertex -1.35 6.75 -0.775
    endloop
  endfacet
  facet normal 1 0 0
    outer loop
      vertex -1.35 6.75 -2.125
      vertex -1.35 6.075 -0.775
      vertex -1.35 6.075 -2.125
    endloop
  endfacet
  facet normal -1 0 0
    outer loop
      vertex -2.7 -6.75 -2.125
      vertex -2.7 -6.075 -0.775
      vertex -2.7 -6.075 -2.125
    endloop
  endfacet
  facet normal -1 -0 0
    outer loop
      vertex -2.7 -6.075 -0.775
      vertex -2.7 -6.75 -2.125
      vertex -2.7 -6.75 -0.775
    endloop
  endfacet
  facet normal -1 0 0
    outer loop
      vertex -2.7 6.075 -2.125
      vertex -2.7 6.75 -0.775
      vertex -2.7 6.75 -2.125
    endloop
  endfacet
  facet normal -1 -0 0
    outer loop
      vertex -2.7 6.75 -0.775
      vertex -2.7 6.075 -2.125
      vertex -2.7 6.075 -0.775
    endloop
  endfacet
  facet normal 1 -0 0
    outer loop
      vertex -5.4 -6.75 -0.775
      vertex -5.4 -6.075 -2.125
      vertex -5.4 -6.075 -0.775
    endloop
  endfacet
  facet normal 1 0 0
    outer loop
      vertex -5.4 -6.075 -2.125
      vertex -5.4 -6.75 -0.775
      vertex -5.4 -6.75 -2.125
    endloop
  endfacet
  facet normal 1 -0 0
    outer loop
      vertex -5.4 6.075 -0.775
      vertex -5.4 6.75 -2.125
      vertex -5.4 6.75 -0.775
    endloop
  endfacet
  facet normal 1 0 0
    outer loop
      vertex -5.4 6.75 -2.125
      vertex -5.4 6.075 -0.775
      vertex -5.4 6.075 -2.125
    endloop
  endfacet
  facet normal -1 0 0
    outer loop
      vertex -6.075 2.7 -2.125
      vertex -6.075 5.4 -0.775
      vertex -6.075 5.4 -2.125
    endloop
  endfacet
  facet normal -1 -0 0
    outer loop
      vertex -6.075 5.4 -0.775
      vertex -6.075 2.7 -2.125
      vertex -6.075 2.7 -0.775
    endloop
  endfacet
  facet normal -1 0 0
    outer loop
      vertex -6.075 -1.35 -2.125
      vertex -6.075 1.35 -0.775
      vertex -6.075 1.35 -2.125
    endloop
  endfacet
  facet normal -1 -0 0
    outer loop
      vertex -6.075 1.35 -0.775
      vertex -6.075 -1.35 -2.125
      vertex -6.075 -1.35 -0.775
    endloop
  endfacet
  facet normal -1 0 0
    outer loop
      vertex -6.075 -5.4 -2.125
      vertex -6.075 -2.7 -0.775
      vertex -6.075 -2.7 -2.125
    endloop
  endfacet
  facet normal -1 -0 0
    outer loop
      vertex -6.075 -2.7 -0.775
      vertex -6.075 -5.4 -2.125
      vertex -6.075 -5.4 -0.775
    endloop
  endfacet
  facet normal -1 0 0
    outer loop
      vertex -6.075 2.7 0.374999
      vertex -6.075 5.4 1.725
      vertex -6.075 5.4 0.374999
    endloop
  endfacet
  facet normal -1 -0 0
    outer loop
      vertex -6.075 5.4 1.725
      vertex -6.075 2.7 0.374999
      vertex -6.075 2.7 1.725
    endloop
  endfacet
  facet normal -1 0 0
    outer loop
      vertex -6.075 -1.35 0.374999
      vertex -6.075 1.35 1.725
      vertex -6.075 1.35 0.374999
    endloop
  endfacet
  facet normal -1 -0 0
    outer loop
      vertex -6.075 1.35 1.725
      vertex -6.075 -1.35 0.374999
      vertex -6.075 -1.35 1.725
    endloop
  endfacet
  facet normal -1 0 0
    outer loop
      vertex -6.075 -5.4 0.374999
      vertex -6.075 -2.7 1.725
      vertex -6.075 -2.7 0.374999
    endloop
  endfacet
  facet normal -1 -0 0
    outer loop
      vertex -6.075 -2.7 1.725
      vertex -6.075 -5.4 0.374999
      vertex -6.075 -5.4 1.725
    endloop
  endfacet
  facet normal -1 0 0
    outer loop
      vertex -6.075 2.7 2.875
      vertex -6.075 5.4 4.225
      vertex -6.075 5.4 2.875
    endloop
  endfacet
  facet normal -1 -0 0
    outer loop
      vertex -6.075 5.4 4.225
      vertex -6.075 2.7 2.875
      vertex -6.075 2.7 4.225
    endloop
  endfacet
  facet normal -1 0 0
    outer loop
      vertex -6.075 -1.35 2.875
      vertex -6.075 1.35 4.225
      vertex -6.075 1.35 2.875
    endloop
  endfacet
  facet normal -1 -0 0
    outer loop
      vertex -6.075 1.35 4.225
      vertex -6.075 -1.35 2.875
      vertex -6.075 -1.35 4.225
    endloop
  endfacet
  facet normal -1 0 0
    outer loop
      vertex -6.075 -5.4 2.875
      vertex -6.075 -2.7 4.225
      vertex -6.075 -2.7 2.875
    endloop
  endfacet
  facet normal -1 -0 0
    outer loop
      vertex -6.075 -2.7 4.225
      vertex -6.075 -5.4 2.875
      vertex -6.075 -5.4 4.225
    endloop
  endfacet
  facet normal 1 -0 0
    outer loop
      vertex 6.075 2.7 -0.775
      vertex 6.075 5.4 -2.125
      vertex 6.075 5.4 -0.775
    endloop
  endfacet
  facet normal 1 0 0
    outer loop
      vertex 6.075 5.4 -2.125
      vertex 6.075 2.7 -0.775
      vertex 6.075 2.7 -2.125
    endloop
  endfacet
  facet normal 1 -0 0
    outer loop
      vertex 6.075 -1.35 -0.775
      vertex 6.075 1.35 -2.125
      vertex 6.075 1.35 -0.775
    endloop
  endfacet
  facet normal 1 0 0
    outer loop
      vertex 6.075 1.35 -2.125
      vertex 6.075 -1.35 -0.775
      vertex 6.075 -1.35 -2.125
    endloop
  endfacet
  facet normal 1 -0 0
    outer loop
      vertex 6.075 -5.4 -0.775
      vertex 6.075 -2.7 -2.125
      vertex 6.075 -2.7 -0.775
    endloop
  endfacet
  facet normal 1 0 0
    outer loop
      vertex 6.075 -2.7 -2.125
      vertex 6.075 -5.4 -0.775
      vertex 6.075 -5.4 -2.125
    endloop
  endfacet
  facet normal 1 -0 0
    outer loop
      vertex 6.075 2.7 1.725
      vertex 6.075 5.4 0.374999
      vertex 6.075 5.4 1.725
    endloop
  endfacet
  facet normal 1 0 0
    outer loop
      vertex 6.075 5.4 0.374999
      vertex 6.075 2.7 1.725
      vertex 6.075 2.7 0.374999
    endloop
  endfacet
  facet normal 1 -0 0
    outer loop
      vertex 6.075 -1.35 1.725
      vertex 6.075 1.35 0.374999
      vertex 6.075 1.35 1.725
    endloop
  endfacet
  facet normal 1 0 0
    outer loop
      vertex 6.075 1.35 0.374999
      vertex 6.075 -1.35 1.725
      vertex 6.075 -1.35 0.374999
    endloop
  endfacet
  facet normal 1 -0 0
    outer loop
      vertex 6.075 -5.4 1.725
      vertex 6.075 -2.7 0.374999
      vertex 6.075 -2.7 1.725
    endloop
  endfacet
  facet normal 1 0 0
    outer loop
      vertex 6.075 -2.7 0.374999
      vertex 6.075 -5.4 1.725
      vertex 6.075 -5.4 0.374999
    endloop
  endfacet
  facet normal 1 -0 0
    outer loop
      vertex 6.075 2.7 4.225
      vertex 6.075 5.4 2.875
      vertex 6.075 5.4 4.225
    endloop
  endfacet
  facet normal 1 0 0
    outer loop
      vertex 6.075 5.4 2.875
      vertex 6.075 2.7 4.225
      vertex 6.075 2.7 2.875
    endloop
  endfacet
  facet normal 1 -0 0
    outer loop
      vertex 6.075 -1.35 4.225
      vertex 6.075 1.35 2.875
      vertex 6.075 1.35 4.225
    endloop
  endfacet
  facet normal 1 0 0
    outer loop
      vertex 6.075 1.35 2.875
      vertex 6.075 -1.35 4.225
      vertex 6.075 -1.35 2.875
    endloop
  endfacet
  facet normal 1 -0 0
    outer loop
      vertex 6.075 -5.4 4.225
      vertex 6.075 -2.7 2.875
      vertex 6.075 -2.7 4.225
    endloop
  endfacet
  facet normal 1 0 0
    outer loop
      vertex 6.075 -2.7 2.875
      vertex 6.075 -5.4 4.225
      vertex 6.075 -5.4 2.875
    endloop
  endfacet
  facet normal 0 -1 0
    outer loop
      vertex -5.4 -6.075 -2.125
      vertex -2.7 -6.075 -0.775
      vertex -5.4 -6.075 -0.775
    endloop
  endfacet
  facet normal 0 -1 -0
    outer loop
      vertex -2.7 -6.075 -0.775
      vertex -5.4 -6.075 -2.125
      vertex -2.7 -6.075 -2.125
    endloop
  endfacet
  facet normal 0 -1 0
    outer loop
      vertex -5.4 -6.075 0.374999
      vertex -2.7 -6.075 1.725
      vertex -5.4 -6.075 1.725
    endloop
  endfacet
  facet normal 0 -1 -0
    outer loop
      vertex -2.7 -6.075 1.725
      vertex -5.4 -6.075 0.374999
      vertex -2.7 -6.075 0.374999
    endloop
  endfacet
  facet normal 0 -1 0
    outer loop
      vertex -5.4 -6.075 2.875
      vertex -2.7 -6.075 4.225
      vertex -5.4 -6.075 4.225
    endloop
  endfacet
  facet normal 0 -1 -0
    outer loop
      vertex -2.7 -6.075 4.225
      vertex -5.4 -6.075 2.875
      vertex -2.7 -6.075 2.875
    endloop
  endfacet
  facet normal 0 -1 0
    outer loop
      vertex -1.35 -6.075 -2.125
      vertex 1.35 -6.075 -0.775
      vertex -1.35 -6.075 -0.775
    endloop
  endfacet
  facet normal 0 -1 -0
    outer loop
      vertex 1.35 -6.075 -0.775
      vertex -1.35 -6.075 -2.125
      vertex 1.35 -6.075 -2.125
    endloop
  endfacet
  facet normal 0 -1 0
    outer loop
      vertex -1.35 -6.075 0.374999
      vertex 1.35 -6.075 1.725
      vertex -1.35 -6.075 1.725
    endloop
  endfacet
  facet normal 0 -1 -0
    outer loop
      vertex 1.35 -6.075 1.725
      vertex -1.35 -6.075 0.374999
      vertex 1.35 -6.075 0.374999
    endloop
  endfacet
  facet normal 0 -1 0
    outer loop
      vertex -1.35 -6.075 2.875
      vertex 1.35 -6.075 4.225
      vertex -1.35 -6.075 4.225
    endloop
  endfacet
  facet normal 0 -1 -0
    outer loop
      vertex 1.35 -6.075 4.225
      vertex -1.35 -6.075 2.875
      vertex 1.35 -6.075 2.875
    endloop
  endfacet
  facet normal 0 -1 0
    outer loop
      vertex 2.7 -6.075 -2.125
      vertex 5.4 -6.075 -0.775
      vertex 2.7 -6.075 -0.775
    endloop
  endfacet
  facet normal 0 -1 -0
    outer loop
      vertex 5.4 -6.075 -0.775
      vertex 2.7 -6.075 -2.125
      vertex 5.4 -6.075 -2.125
    endloop
  endfacet
  facet normal 0 -1 0
    outer loop
      vertex 2.7 -6.075 0.374999
      vertex 5.4 -6.075 1.725
      vertex 2.7 -6.075 1.725
    endloop
  endfacet
  facet normal 0 -1 -0
    outer loop
      vertex 5.4 -6.075 1.725
      vertex 2.7 -6.075 0.374999
      vertex 5.4 -6.075 0.374999
    endloop
  endfacet
  facet normal 0 -1 0
    outer loop
      vertex 2.7 -6.075 2.875
      vertex 5.4 -6.075 4.225
      vertex 2.7 -6.075 4.225
    endloop
  endfacet
  facet normal 0 -1 -0
    outer loop
      vertex 5.4 -6.075 4.225
      vertex 2.7 -6.075 2.875
      vertex 5.4 -6.075 2.875
    endloop
  endfacet
  facet normal 0 1 -0
    outer loop
      vertex -2.7 6.075 -2.125
      vertex -5.4 6.075 -0.775
      vertex -2.7 6.075 -0.775
    endloop
  endfacet
  facet normal 0 1 0
    outer loop
      vertex -5.4 6.075 -0.775
      vertex -2.7 6.075 -2.125
      vertex -5.4 6.075 -2.125
    endloop
  endfacet
  facet normal 0 1 -0
    outer loop
      vertex -2.7 6.075 0.374999
      vertex -5.4 6.075 1.725
      vertex -2.7 6.075 1.725
    endloop
  endfacet
  facet normal 0 1 0
    outer loop
      vertex -5.4 6.075 1.725
      vertex -2.7 6.075 0.374999
      vertex -5.4 6.075 0.374999
    endloop
  endfacet
  facet normal 0 1 -0
    outer loop
      vertex -2.7 6.075 2.875
      vertex -5.4 6.075 4.225
      vertex -2.7 6.075 4.225
    endloop
  endfacet
  facet normal 0 1 0
    outer loop
      vertex -5.4 6.075 4.225
      vertex -2.7 6.075 2.875
      vertex -5.4 6.075 2.875
    endloop
  endfacet
  facet normal 0 1 -0
    outer loop
      vertex 1.35 6.075 -2.125
      vertex -1.35 6.075 -0.775
      vertex 1.35 6.075 -0.775
    endloop
  endfacet
  facet normal 0 1 0
    outer loop
      vertex -1.35 6.075 -0.775
      vertex 1.35 6.075 -2.125
      vertex -1.35 6.075 -2.125
    endloop
  endfacet
  facet normal 0 1 -0
    outer loop
      vertex 1.35 6.075 0.374999
      vertex -1.35 6.075 1.725
      vertex 1.35 6.075 1.725
    endloop
  endfacet
  facet normal 0 1 0
    outer loop
      vertex -1.35 6.075 1.725
      vertex 1.35 6.075 0.374999
      vertex -1.35 6.075 0.374999
    endloop
  endfacet
  facet normal 0 1 -0
    outer loop
      vertex 1.35 6.075 2.875
      vertex -1.35 6.075 4.225
      vertex 1.35 6.075 4.225
    endloop
  endfacet
  facet normal 0 1 0
    outer loop
      vertex -1.35 6.075 4.225
      vertex 1.35 6.075 2.875
      vertex -1.35 6.075 2.875
    endloop
  endfacet
  facet normal 0 1 -0
    outer loop
      vertex 5.4 6.075 -2.125
      vertex 2.7 6.075 -0.775
      vertex 5.4 6.075 -0.775
    endloop
  endfacet
  facet normal 0 1 0
    outer loop
      vertex 2.7 6.075 -0.775
      vertex 5.4 6.075 -2.125
      vertex 2.7 6.075 -2.125
    endloop
  endfacet
  facet normal 0 1 -0
    outer loop
      vertex 5.4 6.075 0.374999
      vertex 2.7 6.075 1.725
      vertex 5.4 6.075 1.725
    endloop
  endfacet
  facet normal 0 1 0
    outer loop
      vertex 2.7 6.075 1.725
      vertex 5.4 6.075 0.374999
      vertex 2.7 6.075 0.374999
    endloop
  endfacet
  facet normal 0 1 -0
    outer loop
      vertex 5.4 6.075 2.875
      vertex 2.7 6.075 4.225
      vertex 5.4 6.075 4.225
    endloop
  endfacet
  facet normal 0 1 0
    outer loop
      vertex 2.7 6.075 4.225
      vertex 5.4 6.075 2.875
      vertex 2.7 6.075 2.875
    endloop
  endfacet
  facet normal -1 0 0
    outer loop
      vertex -6.1875 2.8125 6.25
      vertex -6.1875 6.1875 8.265
      vertex -6.1875 6.1875 6.25
    endloop
  endfacet
  facet normal -1 -0 0
    outer loop
      vertex -6.1875 6.1875 8.265
      vertex -6.1875 2.8125 6.25
      vertex -6.1875 2.8125 8.265
    endloop
  endfacet
  facet normal -0 0 1
    outer loop
      vertex -6.1875 6.1875 8.265
      vertex -2.8125 2.8125 8.265
      vertex -2.8125 6.1875 8.265
    endloop
  endfacet
  facet normal 0 0 1
    outer loop
      vertex -2.8125 2.8125 8.265
      vertex -6.1875 6.1875 8.265
      vertex -6.1875 2.8125 8.265
    endloop
  endfacet
  facet normal 1 -0 0
    outer loop
      vertex -2.8125 2.8125 8.265
      vertex -2.8125 6.1875 6.25
      vertex -2.8125 6.1875 8.265
    endloop
  endfacet
  facet normal 1 0 0
    outer loop
      vertex -2.8125 6.1875 6.25
      vertex -2.8125 2.8125 8.265
      vertex -2.8125 2.8125 6.25
    endloop
  endfacet
  facet normal 0 1 -0
    outer loop
      vertex -2.8125 6.1875 6.25
      vertex -6.1875 6.1875 8.265
      vertex -2.8125 6.1875 8.265
    endloop
  endfacet
  facet normal 0 1 0
    outer loop
      vertex -6.1875 6.1875 8.265
      vertex -2.8125 6.1875 6.25
      vertex -6.1875 6.1875 6.25
    endloop
  endfacet
  facet normal 0 -1 0
    outer loop
      vertex -6.1875 2.8125 6.25
      vertex -2.8125 2.8125 8.265
      vertex -6.1875 2.8125 8.265
    endloop
  endfacet
  facet normal 0 -1 -0
    outer loop
      vertex -2.8125 2.8125 8.265
      vertex -6.1875 2.8125 6.25
      vertex -2.8125 2.8125 6.25
    endloop
  endfacet
  facet normal -1 0 0
    outer loop
      vertex -1.6875 -1.6875 6.25
      vertex -1.6875 1.6875 8.265
      vertex -1.6875 1.6875 6.25
    endloop
  endfacet
  facet normal -1 -0 0
    outer loop
      vertex -1.6875 1.6875 8.265
      vertex -1.6875 -1.6875 6.25
      vertex -1.6875 -1.6875 8.265
    endloop
  endfacet
  facet normal -0 0 1
    outer loop
      vertex -1.6875 1.6875 8.265
      vertex 1.6875 -1.6875 8.265
      vertex 1.6875 1.6875 8.265
    endloop
  endfacet
  facet normal 0 0 1
    outer loop
      vertex 1.6875 -1.6875 8.265
      vertex -1.6875 1.6875 8.265
      vertex -1.6875 -1.6875 8.265
    endloop
  endfacet
  facet normal 1 -0 0
    outer loop
      vertex 1.6875 -1.6875 8.265
      vertex 1.6875 1.6875 6.25
      vertex 1.6875 1.6875 8.265
    endloop
  endfacet
  facet normal 1 0 0
    outer loop
      vertex 1.6875 1.6875 6.25
      vertex 1.6875 -1.6875 8.265
      vertex 1.6875 -1.6875 6.25
    endloop
  endfacet
  facet normal 0 1 -0
    outer loop
      vertex 1.6875 1.6875 6.25
      vertex -1.6875 1.6875 8.265
      vertex 1.6875 1.6875 8.265
    endloop
  endfacet
  facet normal 0 1 0
    outer loop
      vertex -1.6875 1.6875 8.265
      vertex 1.6875 1.6875 6.25
      vertex -1.6875 1.6875 6.25
    endloop
  endfacet
  facet normal 0 -1 0
    outer loop
      vertex -1.6875 -1.6875 6.25
      vertex 1.6875 -1.6875 8.265
      vertex -1.6875 -1.6875 8.265
    endloop
  endfacet
  facet normal 0 -1 -0
    outer loop
      vertex 1.6875 -1.6875 8.265
      vertex -1.6875 -1.6875 6.25
      vertex 1.6875 -1.6875 6.25
    endloop
  endfacet
  facet normal -1 0 0
    outer loop
      vertex 2.8125 -6.1875 6.25
      vertex 2.8125 -2.8125 8.265
      vertex 2.8125 -2.8125 6.25
    endloop
  endfacet
  facet normal -1 -0 0
    outer loop
      vertex 2.8125 -2.8125 8.265
      vertex 2.8125 -6.1875 6.25
      vertex 2.8125 -6.1875 8.265
    endloop
  endfacet
  facet normal -0 0 1
    outer loop
      vertex 2.8125 -2.8125 8.265
      vertex 6.1875 -6.1875 8.265
      vertex 6.1875 -2.8125 8.265
    endloop
  endfacet
  facet normal 0 0 1
    outer loop
      vertex 6.1875 -6.1875 8.265
      vertex 2.8125 -2.8125 8.265
      vertex 2.8125 -6.1875 8.265
    endloop
  endfacet
  facet normal 1 -0 0
    outer loop
      vertex 6.1875 -6.1875 8.265
      vertex 6.1875 -2.8125 6.25
      vertex 6.1875 -2.8125 8.265
    endloop
  endfacet
  facet normal 1 0 0
    outer loop
      vertex 6.1875 -2.8125 6.25
      vertex 6.1875 -6.1875 8.265
      vertex 6.1875 -6.1875 6.25
    endloop
  endfacet
  facet normal 0 1 -0
    outer loop
      vertex 6.1875 -2.8125 6.25
      vertex 2.8125 -2.8125 8.265
      vertex 6.1875 -2.8125 8.265
    endloop
  endfacet
  facet normal 0 1 0
    outer loop
      vertex 2.8125 -2.8125 8.265
      vertex 6.1875 -2.8125 6.25
      vertex 2.8125 -2.8125 6.25
    endloop
  endfacet
  facet normal 0 -1 0
    outer loop
      vertex 2.8125 -6.1875 6.25
      vertex 6.1875 -6.1875 8.265
      vertex 2.8125 -6.1875 8.265
    endloop
  endfacet
  facet normal 0 -1 -0
    outer loop
      vertex 6.1875 -6.1875 8.265
      vertex 2.8125 -6.1875 6.25
      vertex 6.1875 -6.1875 6.25
    endloop
  endfacet
endsolid OpenSCAD_Model
