solid OpenSCAD_Model
  facet normal 1 -0 0
    outer loop
      vertex 7.5 -7.5 -0.759999
      vertex 7.5 7.5 -3.76
      vertex 7.5 7.5 -0.759999
    endloop
  endfacet
  facet normal 1 0 0
    outer loop
      vertex 7.5 7.5 -3.76
      vertex 7.5 -7.5 -0.759999
      vertex 7.5 -7.5 -3.76
    endloop
  endfacet
  facet normal 0 0 1
    outer loop
      vertex 7.5 7.5 -0.759999
      vertex 6.45 6.45 -0.759999
      vertex 7.5 -7.5 -0.759999
    endloop
  endfacet
  facet normal 0 0 1
    outer loop
      vertex 7.5 7.5 -0.759999
      vertex -6.45 6.45 -0.759999
      vertex 6.45 6.45 -0.759999
    endloop
  endfacet
  facet normal 0 0 1
    outer loop
      vertex -6.45 6.45 -0.759999
      vertex -7.5 7.5 -0.759999
      vertex -6.45 -6.45 -0.759999
    endloop
  endfacet
  facet normal -0 0 1
    outer loop
      vertex -7.5 7.5 -0.759999
      vertex -6.45 6.45 -0.759999
      vertex 7.5 7.5 -0.759999
    endloop
  endfacet
  facet normal -0 0 1
    outer loop
      vertex 6.45 -6.45 -0.759999
      vertex 7.5 -7.5 -0.759999
      vertex 6.45 6.45 -0.759999
    endloop
  endfacet
  facet normal -0 0 1
    outer loop
      vertex -6.45 -6.45 -0.759999
      vertex 7.5 -7.5 -0.759999
      vertex 6.45 -6.45 -0.759999
    endloop
  endfacet
  facet normal 0 0 1
    outer loop
      vertex -6.45 -6.45 -0.759999
      vertex -7.5 -7.5 -0.759999
      vertex 7.5 -7.5 -0.759999
    endloop
  endfacet
  facet normal 0 0 1
    outer loop
      vertex -7.5 -7.5 -0.759999
      vertex -6.45 -6.45 -0.759999
      vertex -7.5 7.5 -0.759999
    endloop
  endfacet
  facet normal 0 0 -1
    outer loop
      vertex -7.5 -7.5 -3.76
      vertex 7.5 7.5 -3.76
      vertex 7.5 -7.5 -3.76
    endloop
  endfacet
  facet normal -0 0 -1
    outer loop
      vertex 7.5 7.5 -3.76
      vertex -7.5 -7.5 -3.76
      vertex -7.5 7.5 -3.76
    endloop
  endfacet
  facet normal -1 0 0
    outer loop
      vertex -7.5 -7.5 -3.76
      vertex -7.5 7.5 -0.759999
      vertex -7.5 7.5 -3.76
    endloop
  endfacet
  facet normal -1 -0 0
    outer loop
      vertex -7.5 7.5 -0.759999
      vertex -7.5 -7.5 -3.76
      vertex -7.5 -7.5 -0.759999
    endloop
  endfacet
  facet normal 0 1 -0
    outer loop
      vertex 7.5 7.5 -3.76
      vertex -7.5 7.5 -0.759999
      vertex 7.5 7.5 -0.759999
    endloop
  endfacet
  facet normal 0 1 0
    outer loop
      vertex -7.5 7.5 -0.759999
      vertex 7.5 7.5 -3.76
      vertex -7.5 7.5 -3.76
    endloop
  endfacet
  facet normal 0 -1 0
    outer loop
      vertex -7.5 -7.5 -3.76
      vertex 7.5 -7.5 -0.759999
      vertex -7.5 -7.5 -0.759999
    endloop
  endfacet
  facet normal 0 -1 -0
    outer loop
      vertex 7.5 -7.5 -0.759999
      vertex -7.5 -7.5 -3.76
      vertex 7.5 -7.5 -3.76
    endloop
  endfacet
  facet normal 1 0 0
    outer loop
      vertex 6.45 6.45 3.75
      vertex 6.45 5.16 1.815
      vertex 6.45 6.45 -0.759999
    endloop
  endfacet
  facet normal 1 0 0
    outer loop
      vertex 6.45 6.45 3.75
      vertex 6.45 2.58 1.815
      vertex 6.45 5.16 1.815
    endloop
  endfacet
  facet normal 1 0 0
    outer loop
      vertex 6.45 2.58 1.815
      vertex 6.45 1.29 1.815
      vertex 6.45 2.58 0.525
    endloop
  endfacet
  facet normal 1 0 0
    outer loop
      vertex 6.45 6.45 3.75
      vertex 6.45 1.29 1.815
      vertex 6.45 2.58 1.815
    endloop
  endfacet
  facet normal 1 0 0
    outer loop
      vertex 6.45 6.45 3.75
      vertex 6.45 -1.29 1.815
      vertex 6.45 1.29 1.815
    endloop
  endfacet
  facet normal 1 0 0
    outer loop
      vertex 6.45 -1.29 1.815
      vertex 6.45 -2.58 1.815
      vertex 6.45 -1.29 0.525
    endloop
  endfacet
  facet normal 1 -0 0
    outer loop
      vertex 6.45 -6.45 3.75
      vertex 6.45 -1.29 1.815
      vertex 6.45 6.45 3.75
    endloop
  endfacet
  facet normal 1 0 0
    outer loop
      vertex 6.45 -1.29 1.815
      vertex 6.45 -6.45 3.75
      vertex 6.45 -2.58 1.815
    endloop
  endfacet
  facet normal 1 0 0
    outer loop
      vertex 6.45 -6.45 -0.759999
      vertex 6.45 -5.16 1.815
      vertex 6.45 -6.45 3.75
    endloop
  endfacet
  facet normal 1 0 0
    outer loop
      vertex 6.45 -2.58 1.815
      vertex 6.45 -6.45 3.75
      vertex 6.45 -5.16 1.815
    endloop
  endfacet
  facet normal 1 -0 0
    outer loop
      vertex 6.45 5.16 0.525
      vertex 6.45 6.45 -0.759999
      vertex 6.45 5.16 1.815
    endloop
  endfacet
  facet normal 1 -0 0
    outer loop
      vertex 6.45 2.58 0.525
      vertex 6.45 6.45 -0.759999
      vertex 6.45 5.16 0.525
    endloop
  endfacet
  facet normal 1 0 0
    outer loop
      vertex 6.45 1.29 0.525
      vertex 6.45 2.58 0.525
      vertex 6.45 1.29 1.815
    endloop
  endfacet
  facet normal 1 -0 0
    outer loop
      vertex 6.45 1.29 0.525
      vertex 6.45 6.45 -0.759999
      vertex 6.45 2.58 0.525
    endloop
  endfacet
  facet normal 1 -0 0
    outer loop
      vertex 6.45 -1.29 0.525
      vertex 6.45 6.45 -0.759999
      vertex 6.45 1.29 0.525
    endloop
  endfacet
  facet normal 1 0 0
    outer loop
      vertex 6.45 -2.58 0.525
      vertex 6.45 -1.29 0.525
      vertex 6.45 -2.58 1.815
    endloop
  endfacet
  facet normal 1 0 0
    outer loop
      vertex 6.45 -6.45 -0.759999
      vertex 6.45 -1.29 0.525
      vertex 6.45 -2.58 0.525
    endloop
  endfacet
  facet normal 1 0 0
    outer loop
      vertex 6.45 -6.45 -0.759999
      vertex 6.45 -2.58 0.525
      vertex 6.45 -5.16 0.525
    endloop
  endfacet
  facet normal 1 0 0
    outer loop
      vertex 6.45 -1.29 0.525
      vertex 6.45 -6.45 -0.759999
      vertex 6.45 6.45 -0.759999
    endloop
  endfacet
  facet normal 1 0 0
    outer loop
      vertex 6.45 -5.16 1.815
      vertex 6.45 -6.45 -0.759999
      vertex 6.45 -5.16 0.525
    endloop
  endfacet
  facet normal 0 0 1
    outer loop
      vertex 6.45 6.45 3.75
      vertex 1.6125 1.6125 3.75
      vertex 6.45 -6.45 3.75
    endloop
  endfacet
  facet normal 0 0 1
    outer loop
      vertex 6.45 6.45 3.75
      vertex -1.6125 1.6125 3.75
      vertex 1.6125 1.6125 3.75
    endloop
  endfacet
  facet normal 0 0 1
    outer loop
      vertex -1.6125 1.6125 3.75
      vertex -6.45 6.45 3.75
      vertex -1.6125 -1.6125 3.75
    endloop
  endfacet
  facet normal -0 0 1
    outer loop
      vertex -6.45 6.45 3.75
      vertex -1.6125 1.6125 3.75
      vertex 6.45 6.45 3.75
    endloop
  endfacet
  facet normal -0 0 1
    outer loop
      vertex 1.6125 -1.6125 3.75
      vertex 6.45 -6.45 3.75
      vertex 1.6125 1.6125 3.75
    endloop
  endfacet
  facet normal -0 0 1
    outer loop
      vertex -1.6125 -1.6125 3.75
      vertex 6.45 -6.45 3.75
      vertex 1.6125 -1.6125 3.75
    endloop
  endfacet
  facet normal 0 0 1
    outer loop
      vertex -1.6125 -1.6125 3.75
      vertex -6.45 -6.45 3.75
      vertex 6.45 -6.45 3.75
    endloop
  endfacet
  facet normal 0 0 1
    outer loop
      vertex -6.45 -6.45 3.75
      vertex -1.6125 -1.6125 3.75
      vertex -6.45 6.45 3.75
    endloop
  endfacet
  facet normal -1 0 0
    outer loop
      vertex -6.45 5.16 1.815
      vertex -6.45 6.45 -0.759999
      vertex -6.45 5.16 0.525
    endloop
  endfacet
  facet normal -1 0 0
    outer loop
      vertex -6.45 6.45 -0.759999
      vertex -6.45 2.58 0.525
      vertex -6.45 5.16 0.525
    endloop
  endfacet
  facet normal -1 0 0
    outer loop
      vertex -6.45 2.58 0.525
      vertex -6.45 1.29 0.525
      vertex -6.45 2.58 1.815
    endloop
  endfacet
  facet normal -1 0 0
    outer loop
      vertex -6.45 6.45 -0.759999
      vertex -6.45 1.29 0.525
      vertex -6.45 2.58 0.525
    endloop
  endfacet
  facet normal -1 0 0
    outer loop
      vertex -6.45 6.45 -0.759999
      vertex -6.45 -1.29 0.525
      vertex -6.45 1.29 0.525
    endloop
  endfacet
  facet normal -1 0 0
    outer loop
      vertex -6.45 -1.29 0.525
      vertex -6.45 -2.58 0.525
      vertex -6.45 -1.29 1.815
    endloop
  endfacet
  facet normal -1 0 0
    outer loop
      vertex -6.45 -6.45 -0.759999
      vertex -6.45 -1.29 0.525
      vertex -6.45 6.45 -0.759999
    endloop
  endfacet
  facet normal -1 -0 0
    outer loop
      vertex -6.45 -1.29 0.525
      vertex -6.45 -6.45 -0.759999
      vertex -6.45 -2.58 0.525
    endloop
  endfacet
  facet normal -1 -0 0
    outer loop
      vertex -6.45 -5.16 0.525
      vertex -6.45 -6.45 -0.759999
      vertex -6.45 -5.16 1.815
    endloop
  endfacet
  facet normal -1 -0 0
    outer loop
      vertex -6.45 -2.58 0.525
      vertex -6.45 -6.45 -0.759999
      vertex -6.45 -5.16 0.525
    endloop
  endfacet
  facet normal -1 0 0
    outer loop
      vertex -6.45 6.45 -0.759999
      vertex -6.45 5.16 1.815
      vertex -6.45 6.45 3.75
    endloop
  endfacet
  facet normal -1 0 0
    outer loop
      vertex -6.45 2.58 1.815
      vertex -6.45 6.45 3.75
      vertex -6.45 5.16 1.815
    endloop
  endfacet
  facet normal -1 0 0
    outer loop
      vertex -6.45 1.29 1.815
      vertex -6.45 2.58 1.815
      vertex -6.45 1.29 0.525
    endloop
  endfacet
  facet normal -1 0 0
    outer loop
      vertex -6.45 1.29 1.815
      vertex -6.45 6.45 3.75
      vertex -6.45 2.58 1.815
    endloop
  endfacet
  facet normal -1 0 0
    outer loop
      vertex -6.45 -1.29 1.815
      vertex -6.45 6.45 3.75
      vertex -6.45 1.29 1.815
    endloop
  endfacet
  facet normal -1 0 0
    outer loop
      vertex -6.45 -2.58 1.815
      vertex -6.45 -1.29 1.815
      vertex -6.45 -2.58 0.525
    endloop
  endfacet
  facet normal -1 0 0
    outer loop
      vertex -6.45 -6.45 3.75
      vertex -6.45 -1.29 1.815
      vertex -6.45 -2.58 1.815
    endloop
  endfacet
  facet normal -1 0 0
    outer loop
      vertex -6.45 -6.45 3.75
      vertex -6.45 -2.58 1.815
      vertex -6.45 -5.16 1.815
    endloop
  endfacet
  facet normal -1 0 0
    outer loop
      vertex -6.45 -1.29 1.815
      vertex -6.45 -6.45 3.75
      vertex -6.45 6.45 3.75
    endloop
  endfacet
  facet normal -1 0 0
    outer loop
      vertex -6.45 -6.45 3.75
      vertex -6.45 -5.16 1.815
      vertex -6.45 -6.45 -0.759999
    endloop
  endfacet
  facet normal 0 1 -0
    outer loop
      vertex -1.29 6.45 0.525
      vertex -2.58 6.45 1.815
      vertex -1.29 6.45 1.815
    endloop
  endfacet
  facet normal 0 1 0
    outer loop
      vertex -2.58 6.45 1.815
      vertex -1.29 6.45 0.525
      vertex -2.58 6.45 0.525
    endloop
  endfacet
  facet normal 0 1 -0
    outer loop
      vertex 2.58 6.45 0.525
      vertex 1.29 6.45 1.815
      vertex 2.58 6.45 1.815
    endloop
  endfacet
  facet normal 0 1 0
    outer loop
      vertex 1.29 6.45 1.815
      vertex 2.58 6.45 0.525
      vertex 1.29 6.45 0.525
    endloop
  endfacet
  facet normal 0 1 0
    outer loop
      vertex 2.58 6.45 1.815
      vertex 6.45 6.45 3.75
      vertex 5.16 6.45 1.815
    endloop
  endfacet
  facet normal 0 1 -0
    outer loop
      vertex 6.45 6.45 -0.759999
      vertex 5.16 6.45 1.815
      vertex 6.45 6.45 3.75
    endloop
  endfacet
  facet normal 0 1 0
    outer loop
      vertex 6.45 6.45 -0.759999
      vertex 2.58 6.45 0.525
      vertex 5.16 6.45 0.525
    endloop
  endfacet
  facet normal 0 1 0
    outer loop
      vertex 2.58 6.45 0.525
      vertex 6.45 6.45 -0.759999
      vertex 1.29 6.45 0.525
    endloop
  endfacet
  facet normal 0 1 0
    outer loop
      vertex 1.29 6.45 0.525
      vertex 6.45 6.45 -0.759999
      vertex -1.29 6.45 0.525
    endloop
  endfacet
  facet normal 0 1 0
    outer loop
      vertex -6.45 6.45 -0.759999
      vertex -1.29 6.45 0.525
      vertex 6.45 6.45 -0.759999
    endloop
  endfacet
  facet normal 0 1 0
    outer loop
      vertex -1.29 6.45 0.525
      vertex -6.45 6.45 -0.759999
      vertex -2.58 6.45 0.525
    endloop
  endfacet
  facet normal 0 1 0
    outer loop
      vertex 5.16 6.45 1.815
      vertex 6.45 6.45 -0.759999
      vertex 5.16 6.45 0.525
    endloop
  endfacet
  facet normal 0 1 0
    outer loop
      vertex 1.29 6.45 1.815
      vertex 6.45 6.45 3.75
      vertex 2.58 6.45 1.815
    endloop
  endfacet
  facet normal 0 1 0
    outer loop
      vertex 6.45 6.45 3.75
      vertex 1.29 6.45 1.815
      vertex -6.45 6.45 3.75
    endloop
  endfacet
  facet normal 0 1 -0
    outer loop
      vertex -1.29 6.45 1.815
      vertex -6.45 6.45 3.75
      vertex 1.29 6.45 1.815
    endloop
  endfacet
  facet normal 0 1 -0
    outer loop
      vertex -2.58 6.45 1.815
      vertex -6.45 6.45 3.75
      vertex -1.29 6.45 1.815
    endloop
  endfacet
  facet normal 0 1 -0
    outer loop
      vertex -5.16 6.45 1.815
      vertex -6.45 6.45 3.75
      vertex -2.58 6.45 1.815
    endloop
  endfacet
  facet normal 0 1 0
    outer loop
      vertex -6.45 6.45 -0.759999
      vertex -5.16 6.45 1.815
      vertex -5.16 6.45 0.525
    endloop
  endfacet
  facet normal 0 1 0
    outer loop
      vertex -5.16 6.45 1.815
      vertex -6.45 6.45 -0.759999
      vertex -6.45 6.45 3.75
    endloop
  endfacet
  facet normal 0 1 0
    outer loop
      vertex -2.58 6.45 0.525
      vertex -6.45 6.45 -0.759999
      vertex -5.16 6.45 0.525
    endloop
  endfacet
  facet normal 0 -1 0
    outer loop
      vertex 1.29 -6.45 0.525
      vertex 2.58 -6.45 1.815
      vertex 1.29 -6.45 1.815
    endloop
  endfacet
  facet normal 0 -1 -0
    outer loop
      vertex 2.58 -6.45 1.815
      vertex 1.29 -6.45 0.525
      vertex 2.58 -6.45 0.525
    endloop
  endfacet
  facet normal 0 -1 0
    outer loop
      vertex -2.58 -6.45 0.525
      vertex -1.29 -6.45 1.815
      vertex -2.58 -6.45 1.815
    endloop
  endfacet
  facet normal 0 -1 -0
    outer loop
      vertex -1.29 -6.45 1.815
      vertex -2.58 -6.45 0.525
      vertex -1.29 -6.45 0.525
    endloop
  endfacet
  facet normal 0 -1 0
    outer loop
      vertex -2.58 -6.45 1.815
      vertex -6.45 -6.45 3.75
      vertex -5.16 -6.45 1.815
    endloop
  endfacet
  facet normal 0 -1 0
    outer loop
      vertex -6.45 -6.45 -0.759999
      vertex -5.16 -6.45 1.815
      vertex -6.45 -6.45 3.75
    endloop
  endfacet
  facet normal 0 -1 0
    outer loop
      vertex -6.45 -6.45 -0.759999
      vertex -2.58 -6.45 0.525
      vertex -5.16 -6.45 0.525
    endloop
  endfacet
  facet normal 0 -1 -0
    outer loop
      vertex -2.58 -6.45 0.525
      vertex -6.45 -6.45 -0.759999
      vertex -1.29 -6.45 0.525
    endloop
  endfacet
  facet normal 0 -1 -0
    outer loop
      vertex -1.29 -6.45 0.525
      vertex -6.45 -6.45 -0.759999
      vertex 1.29 -6.45 0.525
    endloop
  endfacet
  facet normal 0 -1 0
    outer loop
      vertex 6.45 -6.45 -0.759999
      vertex 1.29 -6.45 0.525
      vertex -6.45 -6.45 -0.759999
    endloop
  endfacet
  facet normal 0 -1 0
    outer loop
      vertex 1.29 -6.45 0.525
      vertex 6.45 -6.45 -0.759999
      vertex 2.58 -6.45 0.525
    endloop
  endfacet
  facet normal 0 -1 -0
    outer loop
      vertex -5.16 -6.45 1.815
      vertex -6.45 -6.45 -0.759999
      vertex -5.16 -6.45 0.525
    endloop
  endfacet
  facet normal 0 -1 0
    outer loop
      vertex -1.29 -6.45 1.815
      vertex -6.45 -6.45 3.75
      vertex -2.58 -6.45 1.815
    endloop
  endfacet
  facet normal 0 -1 0
    outer loop
      vertex -6.45 -6.45 3.75
      vertex -1.29 -6.45 1.815
      vertex 6.45 -6.45 3.75
    endloop
  endfacet
  facet normal 0 -1 0
    outer loop
      vertex 1.29 -6.45 1.815
      vertex 6.45 -6.45 3.75
      vertex -1.29 -6.45 1.815
    endloop
  endfacet
  facet normal 0 -1 0
    outer loop
      vertex 2.58 -6.45 1.815
      vertex 6.45 -6.45 3.75
      vertex 1.29 -6.45 1.815
    endloop
  endfacet
  facet normal 0 -1 0
    outer loop
      vertex 5.16 -6.45 1.815
      vertex 6.45 -6.45 3.75
      vertex 2.58 -6.45 1.815
    endloop
  endfacet
  facet normal 0 -1 0
    outer loop
      vertex 6.45 -6.45 -0.759999
      vertex 5.16 -6.45 1.815
      vertex 5.16 -6.45 0.525
    endloop
  endfacet
  facet normal 0 -1 0
    outer loop
      vertex 5.16 -6.45 1.815
      vertex 6.45 -6.45 -0.759999
      vertex 6.45 -6.45 3.75
    endloop
  endfacet
  facet normal 0 -1 0
    outer loop
      vertex 2.58 -6.45 0.525
      vertex 6.45 -6.45 -0.759999
      vertex 5.16 -6.45 0.525
    endloop
  endfacet
  facet normal 0 0 -1
    outer loop
      vertex -6.45 2.58 1.815
      vertex -5.805 5.16 1.815
      vertex -5.805 2.58 1.815
    endloop
  endfacet
  facet normal -0 0 -1
    outer loop
      vertex -5.805 5.16 1.815
      vertex -6.45 2.58 1.815
      vertex -6.45 5.16 1.815
    endloop
  endfacet
  facet normal 0 0 -1
    outer loop
      vertex -6.45 -5.16 1.815
      vertex -5.805 -2.58 1.815
      vertex -5.805 -5.16 1.815
    endloop
  endfacet
  facet normal -0 0 -1
    outer loop
      vertex -5.805 -2.58 1.815
      vertex -6.45 -5.16 1.815
      vertex -6.45 -2.58 1.815
    endloop
  endfacet
  facet normal 0 0 -1
    outer loop
      vertex -6.45 -1.29 1.815
      vertex -5.805 1.29 1.815
      vertex -5.805 -1.29 1.815
    endloop
  endfacet
  facet normal -0 0 -1
    outer loop
      vertex -5.805 1.29 1.815
      vertex -6.45 -1.29 1.815
      vertex -6.45 1.29 1.815
    endloop
  endfacet
  facet normal 0 0 -1
    outer loop
      vertex -5.16 5.805 1.815
      vertex -2.58 6.45 1.815
      vertex -2.58 5.805 1.815
    endloop
  endfacet
  facet normal -0 0 -1
    outer loop
      vertex -2.58 6.45 1.815
      vertex -5.16 5.805 1.815
      vertex -5.16 6.45 1.815
    endloop
  endfacet
  facet normal 0 0 -1
    outer loop
      vertex -1.29 5.805 1.815
      vertex 1.29 6.45 1.815
      vertex 1.29 5.805 1.815
    endloop
  endfacet
  facet normal -0 0 -1
    outer loop
      vertex 1.29 6.45 1.815
      vertex -1.29 5.805 1.815
      vertex -1.29 6.45 1.815
    endloop
  endfacet
  facet normal 0 0 -1
    outer loop
      vertex 2.58 5.805 1.815
      vertex 5.16 6.45 1.815
      vertex 5.16 5.805 1.815
    endloop
  endfacet
  facet normal -0 0 -1
    outer loop
      vertex 5.16 6.45 1.815
      vertex 2.58 5.805 1.815
      vertex 2.58 6.45 1.815
    endloop
  endfacet
  facet normal 0 0 -1
    outer loop
      vertex -5.16 -6.45 1.815
      vertex -2.58 -5.805 1.815
      vertex -2.58 -6.45 1.815
    endloop
  endfacet
  facet normal -0 0 -1
    outer loop
      vertex -2.58 -5.805 1.815
      vertex -5.16 -6.45 1.815
      vertex -5.16 -5.805 1.815
    endloop
  endfacet
  facet normal 0 0 -1
    outer loop
      vertex -1.29 -6.45 1.815
      vertex 1.29 -5.805 1.815
      vertex 1.29 -6.45 1.815
    endloop
  endfacet
  facet normal -0 0 -1
    outer loop
      vertex 1.29 -5.805 1.815
      vertex -1.29 -6.45 1.815
      vertex -1.29 -5.805 1.815
    endloop
  endfacet
  facet normal 0 0 -1
    outer loop
      vertex 2.58 -6.45 1.815
      vertex 5.16 -5.805 1.815
      vertex 5.16 -6.45 1.815
    endloop
  endfacet
  facet normal -0 0 -1
    outer loop
      vertex 5.16 -5.805 1.815
      vertex 2.58 -6.45 1.815
      vertex 2.58 -5.805 1.815
    endloop
  endfacet
  facet normal 0 0 -1
    outer loop
      vertex 5.805 2.58 1.815
      vertex 6.45 5.16 1.815
      vertex 6.45 2.58 1.815
    endloop
  endfacet
  facet normal -0 0 -1
    outer loop
      vertex 6.45 5.16 1.815
      vertex 5.805 2.58 1.815
      vertex 5.805 5.16 1.815
    endloop
  endfacet
  facet normal 0 0 -1
    outer loop
      vertex 5.805 -5.16 1.815
      vertex 6.45 -2.58 1.815
      vertex 6.45 -5.16 1.815
    endloop
  endfacet
  facet normal -0 0 -1
    outer loop
      vertex 6.45 -2.58 1.815
      vertex 5.805 -5.16 1.815
      vertex 5.805 -2.58 1.815
    endloop
  endfacet
  facet normal 0 0 -1
    outer loop
      vertex 5.805 -1.29 1.815
      vertex 6.45 1.29 1.815
      vertex 6.45 -1.29 1.815
    endloop
  endfacet
  facet normal -0 0 -1
    outer loop
      vertex 6.45 1.29 1.815
      vertex 5.805 -1.29 1.815
      vertex 5.805 1.29 1.815
    endloop
  endfacet
  facet normal -0 0 1
    outer loop
      vertex -6.45 5.16 0.525
      vertex -5.805 2.58 0.525
      vertex -5.805 5.16 0.525
    endloop
  endfacet
  facet normal 0 0 1
    outer loop
      vertex -5.805 2.58 0.525
      vertex -6.45 5.16 0.525
      vertex -6.45 2.58 0.525
    endloop
  endfacet
  facet normal -0 0 1
    outer loop
      vertex -6.45 -2.58 0.525
      vertex -5.805 -5.16 0.525
      vertex -5.805 -2.58 0.525
    endloop
  endfacet
  facet normal 0 0 1
    outer loop
      vertex -5.805 -5.16 0.525
      vertex -6.45 -2.58 0.525
      vertex -6.45 -5.16 0.525
    endloop
  endfacet
  facet normal -0 0 1
    outer loop
      vertex -6.45 1.29 0.525
      vertex -5.805 -1.29 0.525
      vertex -5.805 1.29 0.525
    endloop
  endfacet
  facet normal 0 0 1
    outer loop
      vertex -5.805 -1.29 0.525
      vertex -6.45 1.29 0.525
      vertex -6.45 -1.29 0.525
    endloop
  endfacet
  facet normal -0 0 1
    outer loop
      vertex -5.16 6.45 0.525
      vertex -2.58 5.805 0.525
      vertex -2.58 6.45 0.525
    endloop
  endfacet
  facet normal 0 0 1
    outer loop
      vertex -2.58 5.805 0.525
      vertex -5.16 6.45 0.525
      vertex -5.16 5.805 0.525
    endloop
  endfacet
  facet normal -0 0 1
    outer loop
      vertex -1.29 6.45 0.525
      vertex 1.29 5.805 0.525
      vertex 1.29 6.45 0.525
    endloop
  endfacet
  facet normal 0 0 1
    outer loop
      vertex 1.29 5.805 0.525
      vertex -1.29 6.45 0.525
      vertex -1.29 5.805 0.525
    endloop
  endfacet
  facet normal -0 0 1
    outer loop
      vertex 2.58 6.45 0.525
      vertex 5.16 5.805 0.525
      vertex 5.16 6.45 0.525
    endloop
  endfacet
  facet normal 0 0 1
    outer loop
      vertex 5.16 5.805 0.525
      vertex 2.58 6.45 0.525
      vertex 2.58 5.805 0.525
    endloop
  endfacet
  facet normal -0 0 1
    outer loop
      vertex -5.16 -5.805 0.525
      vertex -2.58 -6.45 0.525
      vertex -2.58 -5.805 0.525
    endloop
  endfacet
  facet normal 0 0 1
    outer loop
      vertex -2.58 -6.45 0.525
      vertex -5.16 -5.805 0.525
      vertex -5.16 -6.45 0.525
    endloop
  endfacet
  facet normal -0 0 1
    outer loop
      vertex -1.29 -5.805 0.525
      vertex 1.29 -6.45 0.525
      vertex 1.29 -5.805 0.525
    endloop
  endfacet
  facet normal 0 0 1
    outer loop
      vertex 1.29 -6.45 0.525
      vertex -1.29 -5.805 0.525
      vertex -1.29 -6.45 0.525
    endloop
  endfacet
  facet normal -0 0 1
    outer loop
      vertex 2.58 -5.805 0.525
      vertex 5.16 -6.45 0.525
      vertex 5.16 -5.805 0.525
    endloop
  endfacet
  facet normal 0 0 1
    outer loop
      vertex 5.16 -6.45 0.525
      vertex 2.58 -5.805 0.525
      vertex 2.58 -6.45 0.525
    endloop
  endfacet
  facet normal -0 0 1
    outer loop
      vertex 5.805 5.16 0.525
      vertex 6.45 2.58 0.525
      vertex 6.45 5.16 0.525
    endloop
  endfacet
  facet normal 0 0 1
    outer loop
      vertex 6.45 2.58 0.525
      vertex 5.805 5.16 0.525
      vertex 5.805 2.58 0.525
    endloop
  endfacet
  facet normal -0 0 1
    outer loop
      vertex 5.805 -2.58 0.525
      vertex 6.45 -5.16 0.525
      vertex 6.45 -2.58 0.525
    endloop
  endfacet
  facet normal 0 0 1
    outer loop
      vertex 6.45 -5.16 0.525
      vertex 5.805 -2.58 0.525
      vertex 5.805 -5.16 0.525
    endloop
  endfacet
  facet normal -0 0 1
    outer loop
      vertex 5.805 1.29 0.525
      vertex 6.45 -1.29 0.525
      vertex 6.45 1.29 0.525
    endloop
  endfacet
  facet normal 0 0 1
    outer loop
      vertex 6.45 -1.29 0.525
      vertex 5.805 1.29 0.525
      vertex 5.805 -1.29 0.525
    endloop
  endfacet
  facet normal 0 -1 0
    outer loop
      vertex -6.45 -2.58 0.525
      vertex -5.805 -2.58 1.815
      vertex -6.45 -2.58 1.815
    endloop
  endfacet
  facet normal 0 -1 -0
    outer loop
      vertex -5.805 -2.58 1.815
      vertex -6.45 -2.58 0.525
      vertex -5.805 -2.58 0.525
    endloop
  endfacet
  facet normal 0 -1 0
    outer loop
      vertex 5.805 -2.58 0.525
      vertex 6.45 -2.58 1.815
      vertex 5.805 -2.58 1.815
    endloop
  endfacet
  facet normal 0 -1 -0
    outer loop
      vertex 6.45 -2.58 1.815
      vertex 5.805 -2.58 0.525
      vertex 6.45 -2.58 0.525
    endloop
  endfacet
  facet normal 0 1 -0
    outer loop
      vertex -5.805 -5.16 0.525
      vertex -6.45 -5.16 1.815
      vertex -5.805 -5.16 1.815
    endloop
  endfacet
  facet normal 0 1 0
    outer loop
      vertex -6.45 -5.16 1.815
      vertex -5.805 -5.16 0.525
      vertex -6.45 -5.16 0.525
    endloop
  endfacet
  facet normal 0 1 -0
    outer loop
      vertex 6.45 -5.16 0.525
      vertex 5.805 -5.16 1.815
      vertex 6.45 -5.16 1.815
    endloop
  endfacet
  facet normal 0 1 0
    outer loop
      vertex 5.805 -5.16 1.815
      vertex 6.45 -5.16 0.525
      vertex 5.805 -5.16 0.525
    endloop
  endfacet
  facet normal 0 -1 0
    outer loop
      vertex -6.45 1.29 0.525
      vertex -5.805 1.29 1.815
      vertex -6.45 1.29 1.815
    endloop
  endfacet
  facet normal 0 -1 -0
    outer loop
      vertex -5.805 1.29 1.815
      vertex -6.45 1.29 0.525
      vertex -5.805 1.29 0.525
    endloop
  endfacet
  facet normal 0 -1 0
    outer loop
      vertex 5.805 1.29 0.525
      vertex 6.45 1.29 1.815
      vertex 5.805 1.29 1.815
    endloop
  endfacet
  facet normal 0 -1 -0
    outer loop
      vertex 6.45 1.29 1.815
      vertex 5.805 1.29 0.525
      vertex 6.45 1.29 0.525
    endloop
  endfacet
  facet normal 0 1 -0
    outer loop
      vertex -5.805 -1.29 0.525
      vertex -6.45 -1.29 1.815
      vertex -5.805 -1.29 1.815
    endloop
  endfacet
  facet normal 0 1 0
    outer loop
      vertex -6.45 -1.29 1.815
      vertex -5.805 -1.29 0.525
      vertex -6.45 -1.29 0.525
    endloop
  endfacet
  facet normal 0 1 -0
    outer loop
      vertex 6.45 -1.29 0.525
      vertex 5.805 -1.29 1.815
      vertex 6.45 -1.29 1.815
    endloop
  endfacet
  facet normal 0 1 0
    outer loop
      vertex 5.805 -1.29 1.815
      vertex 6.45 -1.29 0.525
      vertex 5.805 -1.29 0.525
    endloop
  endfacet
  facet normal 0 -1 0
    outer loop
      vertex -6.45 5.16 0.525
      vertex -5.805 5.16 1.815
      vertex -6.45 5.16 1.815
    endloop
  endfacet
  facet normal 0 -1 -0
    outer loop
      vertex -5.805 5.16 1.815
      vertex -6.45 5.16 0.525
      vertex -5.805 5.16 0.525
    endloop
  endfacet
  facet normal 0 -1 0
    outer loop
      vertex 5.805 5.16 0.525
      vertex 6.45 5.16 1.815
      vertex 5.805 5.16 1.815
    endloop
  endfacet
  facet normal 0 -1 -0
    outer loop
      vertex 6.45 5.16 1.815
      vertex 5.805 5.16 0.525
      vertex 6.45 5.16 0.525
    endloop
  endfacet
  facet normal 0 1 -0
    outer loop
      vertex -5.805 2.58 0.525
      vertex -6.45 2.58 1.815
      vertex -5.805 2.58 1.815
    endloop
  endfacet
  facet normal 0 1 0
    outer loop
      vertex -6.45 2.58 1.815
      vertex -5.805 2.58 0.525
      vertex -6.45 2.58 0.525
    endloop
  endfacet
  facet normal 0 1 -0
    outer loop
      vertex 6.45 2.58 0.525
      vertex 5.805 2.58 1.815
      vertex 6.45 2.58 1.815
    endloop
  endfacet
  facet normal 0 1 0
    outer loop
      vertex 5.805 2.58 1.815
      vertex 6.45 2.58 0.525
      vertex 5.805 2.58 0.525
    endloop
  endfacet
  facet normal 1 -0 0
    outer loop
      vertex 2.58 5.805 1.815
      vertex 2.58 6.45 0.525
      vertex 2.58 6.45 1.815
    endloop
  endfacet
  facet normal 1 0 0
    outer loop
      vertex 2.58 6.45 0.525
      vertex 2.58 5.805 1.815
      vertex 2.58 5.805 0.525
    endloop
  endfacet
  facet normal 1 -0 0
    outer loop
      vertex 2.58 -6.45 1.815
      vertex 2.58 -5.805 0.525
      vertex 2.58 -5.805 1.815
    endloop
  endfacet
  facet normal 1 0 0
    outer loop
      vertex 2.58 -5.805 0.525
      vertex 2.58 -6.45 1.815
      vertex 2.58 -6.45 0.525
    endloop
  endfacet
  facet normal -1 0 0
    outer loop
      vertex 5.16 5.805 0.525
      vertex 5.16 6.45 1.815
      vertex 5.16 6.45 0.525
    endloop
  endfacet
  facet normal -1 -0 0
    outer loop
      vertex 5.16 6.45 1.815
      vertex 5.16 5.805 0.525
      vertex 5.16 5.805 1.815
    endloop
  endfacet
  facet normal -1 0 0
    outer loop
      vertex 5.16 -6.45 0.525
      vertex 5.16 -5.805 1.815
      vertex 5.16 -5.805 0.525
    endloop
  endfacet
  facet normal -1 -0 0
    outer loop
      vertex 5.16 -5.805 1.815
      vertex 5.16 -6.45 0.525
      vertex 5.16 -6.45 1.815
    endloop
  endfacet
  facet normal 1 -0 0
    outer loop
      vertex -1.29 5.805 1.815
      vertex -1.29 6.45 0.525
      vertex -1.29 6.45 1.815
    endloop
  endfacet
  facet normal 1 0 0
    outer loop
      vertex -1.29 6.45 0.525
      vertex -1.29 5.805 1.815
      vertex -1.29 5.805 0.525
    endloop
  endfacet
  facet normal 1 -0 0
    outer loop
      vertex -1.29 -6.45 1.815
      vertex -1.29 -5.805 0.525
      vertex -1.29 -5.805 1.815
    endloop
  endfacet
  facet normal 1 0 0
    outer loop
      vertex -1.29 -5.805 0.525
      vertex -1.29 -6.45 1.815
      vertex -1.29 -6.45 0.525
    endloop
  endfacet
  facet normal -1 0 0
    outer loop
      vertex 1.29 5.805 0.525
      vertex 1.29 6.45 1.815
      vertex 1.29 6.45 0.525
    endloop
  endfacet
  facet normal -1 -0 0
    outer loop
      vertex 1.29 6.45 1.815
      vertex 1.29 5.805 0.525
      vertex 1.29 5.805 1.815
    endloop
  endfacet
  facet normal -1 0 0
    outer loop
      vertex 1.29 -6.45 0.525
      vertex 1.29 -5.805 1.815
      vertex 1.29 -5.805 0.525
    endloop
  endfacet
  facet normal -1 -0 0
    outer loop
      vertex 1.29 -5.805 1.815
      vertex 1.29 -6.45 0.525
      vertex 1.29 -6.45 1.815
    endloop
  endfacet
  facet normal 1 -0 0
    outer loop
      vertex -5.16 5.805 1.815
      vertex -5.16 6.45 0.525
      vertex -5.16 6.45 1.815
    endloop
  endfacet
  facet normal 1 0 0
    outer loop
      vertex -5.16 6.45 0.525
      vertex -5.16 5.805 1.815
      vertex -5.16 5.805 0.525
    endloop
  endfacet
  facet normal 1 -0 0
    outer loop
      vertex -5.16 -6.45 1.815
      vertex -5.16 -5.805 0.525
      vertex -5.16 -5.805 1.815
    endloop
  endfacet
  facet normal 1 0 0
    outer loop
      vertex -5.16 -5.805 0.525
      vertex -5.16 -6.45 1.815
      vertex -5.16 -6.45 0.525
    endloop
  endfacet
  facet normal -1 0 0
    outer loop
      vertex -2.58 5.805 0.525
      vertex -2.58 6.45 1.815
      vertex -2.58 6.45 0.525
    endloop
  endfacet
  facet normal -1 -0 0
    outer loop
      vertex -2.58 6.45 1.815
      vertex -2.58 5.805 0.525
      vertex -2.58 5.805 1.815
    endloop
  endfacet
  facet normal -1 0 0
    outer loop
      vertex -2.58 -6.45 0.525
      vertex -2.58 -5.805 1.815
      vertex -2.58 -5.805 0.525
    endloop
  endfacet
  facet normal -1 -0 0
    outer loop
      vertex -2.58 -5.805 1.815
      vertex -2.58 -6.45 0.525
      vertex -2.58 -6.45 1.815
    endloop
  endfacet
  facet normal 1 -0 0
    outer loop
      vertex 5.805 2.58 1.815
      vertex 5.805 5.16 0.525
      vertex 5.805 5.16 1.815
    endloop
  endfacet
  facet normal 1 0 0
    outer loop
      vertex 5.805 5.16 0.525
      vertex 5.805 2.58 1.815
      vertex 5.805 2.58 0.525
    endloop
  endfacet
  facet normal 1 -0 0
    outer loop
      vertex 5.805 -5.16 1.815
      vertex 5.805 -2.58 0.525
      vertex 5.805 -2.58 1.815
    endloop
  endfacet
  facet normal 1 0 0
    outer loop
      vertex 5.805 -2.58 0.525
      vertex 5.805 -5.16 1.815
      vertex 5.805 -5.16 0.525
    endloop
  endfacet
  facet normal 1 -0 0
    outer loop
      vertex 5.805 -1.29 1.815
      vertex 5.805 1.29 0.525
      vertex 5.805 1.29 1.815
    endloop
  endfacet
  facet normal 1 0 0
    outer loop
      vertex 5.805 1.29 0.525
      vertex 5.805 -1.29 1.815
      vertex 5.805 -1.29 0.525
    endloop
  endfacet
  facet normal -1 0 0
    outer loop
      vertex -5.805 2.58 0.525
      vertex -5.805 5.16 1.815
      vertex -5.805 5.16 0.525
    endloop
  endfacet
  facet normal -1 -0 0
    outer loop
      vertex -5.805 5.16 1.815
      vertex -5.805 2.58 0.525
      vertex -5.805 2.58 1.815
    endloop
  endfacet
  facet normal -1 0 0
    outer loop
      vertex -5.805 -5.16 0.525
      vertex -5.805 -2.58 1.815
      vertex -5.805 -2.58 0.525
    endloop
  endfacet
  facet normal -1 -0 0
    outer loop
      vertex -5.805 -2.58 1.815
      vertex -5.805 -5.16 0.525
      vertex -5.805 -5.16 1.815
    endloop
  endfacet
  facet normal -1 0 0
    outer loop
      vertex -5.805 -1.29 0.525
      vertex -5.805 1.29 1.815
      vertex -5.805 1.29 0.525
    endloop
  endfacet
  facet normal -1 -0 0
    outer loop
      vertex -5.805 1.29 1.815
      vertex -5.805 -1.29 0.525
      vertex -5.805 -1.29 1.815
    endloop
  endfacet
  facet normal 0 1 -0
    outer loop
      vertex -2.58 5.805 0.525
      vertex -5.16 5.805 1.815
      vertex -2.58 5.805 1.815
    endloop
  endfacet
  facet normal 0 1 0
    outer loop
      vertex -5.16 5.805 1.815
      vertex -2.58 5.805 0.525
      vertex -5.16 5.805 0.525
    endloop
  endfacet
  facet normal 0 1 -0
    outer loop
      vertex 1.29 5.805 0.525
      vertex -1.29 5.805 1.815
      vertex 1.29 5.805 1.815
    endloop
  endfacet
  facet normal 0 1 0
    outer loop
      vertex -1.29 5.805 1.815
      vertex 1.29 5.805 0.525
      vertex -1.29 5.805 0.525
    endloop
  endfacet
  facet normal 0 1 -0
    outer loop
      vertex 5.16 5.805 0.525
      vertex 2.58 5.805 1.815
      vertex 5.16 5.805 1.815
    endloop
  endfacet
  facet normal 0 1 0
    outer loop
      vertex 2.58 5.805 1.815
      vertex 5.16 5.805 0.525
      vertex 2.58 5.805 0.525
    endloop
  endfacet
  facet normal 0 -1 0
    outer loop
      vertex -5.16 -5.805 0.525
      vertex -2.58 -5.805 1.815
      vertex -5.16 -5.805 1.815
    endloop
  endfacet
  facet normal 0 -1 -0
    outer loop
      vertex -2.58 -5.805 1.815
      vertex -5.16 -5.805 0.525
      vertex -2.58 -5.805 0.525
    endloop
  endfacet
  facet normal 0 -1 0
    outer loop
      vertex -1.29 -5.805 0.525
      vertex 1.29 -5.805 1.815
      vertex -1.29 -5.805 1.815
    endloop
  endfacet
  facet normal 0 -1 -0
    outer loop
      vertex 1.29 -5.805 1.815
      vertex -1.29 -5.805 0.525
      vertex 1.29 -5.805 0.525
    endloop
  endfacet
  facet normal 0 -1 0
    outer loop
      vertex 2.58 -5.805 0.525
      vertex 5.16 -5.805 1.815
      vertex 2.58 -5.805 1.815
    endloop
  endfacet
  facet normal 0 -1 -0
    outer loop
      vertex 5.16 -5.805 1.815
      vertex 2.58 -5.805 0.525
      vertex 5.16 -5.805 0.525
    endloop
  endfacet
  facet normal 1 -0 0
    outer loop
      vertex 1.6125 -1.6125 5.675
      vertex 1.6125 1.6125 3.75
      vertex 1.6125 1.6125 5.675
    endloop
  endfacet
  facet normal 1 0 0
    outer loop
      vertex 1.6125 1.6125 3.75
      vertex 1.6125 -1.6125 5.675
      vertex 1.6125 -1.6125 3.75
    endloop
  endfacet
  facet normal -0 0 1
    outer loop
      vertex -1.6125 1.6125 5.675
      vertex 1.6125 -1.6125 5.675
      vertex 1.6125 1.6125 5.675
    endloop
  endfacet
  facet normal 0 0 1
    outer loop
      vertex 1.6125 -1.6125 5.675
      vertex -1.6125 1.6125 5.675
      vertex -1.6125 -1.6125 5.675
    endloop
  endfacet
  facet normal -1 0 0
    outer loop
      vertex -1.6125 -1.6125 3.75
      vertex -1.6125 1.6125 5.675
      vertex -1.6125 1.6125 3.75
    endloop
  endfacet
  facet normal -1 -0 0
    outer loop
      vertex -1.6125 1.6125 5.675
      vertex -1.6125 -1.6125 3.75
      vertex -1.6125 -1.6125 5.675
    endloop
  endfacet
  facet normal 0 1 -0
    outer loop
      vertex 1.6125 1.6125 3.75
      vertex -1.6125 1.6125 5.675
      vertex 1.6125 1.6125 5.675
    endloop
  endfacet
  facet normal 0 1 0
    outer loop
      vertex -1.6125 1.6125 5.675
      vertex 1.6125 1.6125 3.75
      vertex -1.6125 1.6125 3.75
    endloop
  endfacet
  facet normal 0 -1 0
    outer loop
      vertex -1.6125 -1.6125 3.75
      vertex 1.6125 -1.6125 5.675
      vertex -1.6125 -1.6125 5.675
    endloop
  endfacet
  facet normal 0 -1 -0
    outer loop
      vertex 1.6125 -1.6125 5.675
      vertex -1.6125 -1.6125 3.75
      vertex 1.6125 -1.6125 3.75
    endloop
  endfacet
endsolid OpenSCAD_Model
