solid OpenSCAD_Model
  facet normal -1 0 0
    outer loop
      vertex -7.5 -7.5 -3.76
      vertex -7.5 7.5 -0.759999
      vertex -7.5 7.5 -3.76
    endloop
  endfacet
  facet normal -1 -0 0
    outer loop
      vertex -7.5 7.5 -0.759999
      vertex -7.5 -7.5 -3.76
      vertex -7.5 -7.5 -0.759999
    endloop
  endfacet
  facet normal 0 0 1
    outer loop
      vertex 7.5 7.5 -0.759999
      vertex 6.75 6.75 -0.759999
      vertex 7.5 -7.5 -0.759999
    endloop
  endfacet
  facet normal 0 0 1
    outer loop
      vertex 7.5 7.5 -0.759999
      vertex -6.75 6.75 -0.759999
      vertex 6.75 6.75 -0.759999
    endloop
  endfacet
  facet normal 0 0 1
    outer loop
      vertex -6.75 6.75 -0.759999
      vertex -7.5 7.5 -0.759999
      vertex -6.75 -6.75 -0.759999
    endloop
  endfacet
  facet normal -0 0 1
    outer loop
      vertex -7.5 7.5 -0.759999
      vertex -6.75 6.75 -0.759999
      vertex 7.5 7.5 -0.759999
    endloop
  endfacet
  facet normal -0 0 1
    outer loop
      vertex 6.75 -6.75 -0.759999
      vertex 7.5 -7.5 -0.759999
      vertex 6.75 6.75 -0.759999
    endloop
  endfacet
  facet normal -0 0 1
    outer loop
      vertex -6.75 -6.75 -0.759999
      vertex 7.5 -7.5 -0.759999
      vertex 6.75 -6.75 -0.759999
    endloop
  endfacet
  facet normal 0 0 1
    outer loop
      vertex -6.75 -6.75 -0.759999
      vertex -7.5 -7.5 -0.759999
      vertex 7.5 -7.5 -0.759999
    endloop
  endfacet
  facet normal 0 0 1
    outer loop
      vertex -7.5 -7.5 -0.759999
      vertex -6.75 -6.75 -0.759999
      vertex -7.5 7.5 -0.759999
    endloop
  endfacet
  facet normal 1 -0 0
    outer loop
      vertex 7.5 -7.5 -0.759999
      vertex 7.5 7.5 -3.76
      vertex 7.5 7.5 -0.759999
    endloop
  endfacet
  facet normal 1 0 0
    outer loop
      vertex 7.5 7.5 -3.76
      vertex 7.5 -7.5 -0.759999
      vertex 7.5 -7.5 -3.76
    endloop
  endfacet
  facet normal 0 1 -0
    outer loop
      vertex 7.5 7.5 -3.76
      vertex -7.5 7.5 -0.759999
      vertex 7.5 7.5 -0.759999
    endloop
  endfacet
  facet normal 0 1 0
    outer loop
      vertex -7.5 7.5 -0.759999
      vertex 7.5 7.5 -3.76
      vertex -7.5 7.5 -3.76
    endloop
  endfacet
  facet normal 0 0 -1
    outer loop
      vertex -7.5 -7.5 -3.76
      vertex 7.5 7.5 -3.76
      vertex 7.5 -7.5 -3.76
    endloop
  endfacet
  facet normal -0 0 -1
    outer loop
      vertex 7.5 7.5 -3.76
      vertex -7.5 -7.5 -3.76
      vertex -7.5 7.5 -3.76
    endloop
  endfacet
  facet normal 0 -1 0
    outer loop
      vertex -7.5 -7.5 -3.76
      vertex 7.5 -7.5 -0.759999
      vertex -7.5 -7.5 -0.759999
    endloop
  endfacet
  facet normal 0 -1 -0
    outer loop
      vertex 7.5 -7.5 -0.759999
      vertex -7.5 -7.5 -3.76
      vertex 7.5 -7.5 -3.76
    endloop
  endfacet
  facet normal -1 0 0
    outer loop
      vertex -6.75 5.4 1.725
      vertex -6.75 6.75 -0.759999
      vertex -6.75 5.4 0.374999
    endloop
  endfacet
  facet normal -1 0 0
    outer loop
      vertex -6.75 6.75 -0.759999
      vertex -6.75 2.7 0.374999
      vertex -6.75 5.4 0.374999
    endloop
  endfacet
  facet normal -1 0 0
    outer loop
      vertex -6.75 2.7 0.374999
      vertex -6.75 1.35 0.374999
      vertex -6.75 2.7 1.725
    endloop
  endfacet
  facet normal -1 0 0
    outer loop
      vertex -6.75 6.75 -0.759999
      vertex -6.75 1.35 0.374999
      vertex -6.75 2.7 0.374999
    endloop
  endfacet
  facet normal -1 0 0
    outer loop
      vertex -6.75 6.75 -0.759999
      vertex -6.75 -1.35 0.374999
      vertex -6.75 1.35 0.374999
    endloop
  endfacet
  facet normal -1 0 0
    outer loop
      vertex -6.75 -1.35 0.374999
      vertex -6.75 -2.7 0.374999
      vertex -6.75 -1.35 1.725
    endloop
  endfacet
  facet normal -1 0 0
    outer loop
      vertex -6.75 -6.75 -0.759999
      vertex -6.75 -1.35 0.374999
      vertex -6.75 6.75 -0.759999
    endloop
  endfacet
  facet normal -1 -0 0
    outer loop
      vertex -6.75 -1.35 0.374999
      vertex -6.75 -6.75 -0.759999
      vertex -6.75 -2.7 0.374999
    endloop
  endfacet
  facet normal -1 -0 0
    outer loop
      vertex -6.75 -5.4 0.374999
      vertex -6.75 -6.75 -0.759999
      vertex -6.75 -5.4 1.725
    endloop
  endfacet
  facet normal -1 -0 0
    outer loop
      vertex -6.75 -2.7 0.374999
      vertex -6.75 -6.75 -0.759999
      vertex -6.75 -5.4 0.374999
    endloop
  endfacet
  facet normal -1 0 0
    outer loop
      vertex -6.75 6.75 -0.759999
      vertex -6.75 5.4 1.725
      vertex -6.75 6.75 3.75
    endloop
  endfacet
  facet normal -1 0 0
    outer loop
      vertex -6.75 2.7 1.725
      vertex -6.75 6.75 3.75
      vertex -6.75 5.4 1.725
    endloop
  endfacet
  facet normal -1 0 0
    outer loop
      vertex -6.75 1.35 1.725
      vertex -6.75 2.7 1.725
      vertex -6.75 1.35 0.374999
    endloop
  endfacet
  facet normal -1 0 0
    outer loop
      vertex -6.75 1.35 1.725
      vertex -6.75 6.75 3.75
      vertex -6.75 2.7 1.725
    endloop
  endfacet
  facet normal -1 0 0
    outer loop
      vertex -6.75 -1.35 1.725
      vertex -6.75 6.75 3.75
      vertex -6.75 1.35 1.725
    endloop
  endfacet
  facet normal -1 0 0
    outer loop
      vertex -6.75 -2.7 1.725
      vertex -6.75 -1.35 1.725
      vertex -6.75 -2.7 0.374999
    endloop
  endfacet
  facet normal -1 0 0
    outer loop
      vertex -6.75 -6.75 3.75
      vertex -6.75 -1.35 1.725
      vertex -6.75 -2.7 1.725
    endloop
  endfacet
  facet normal -1 0 0
    outer loop
      vertex -6.75 -6.75 3.75
      vertex -6.75 -2.7 1.725
      vertex -6.75 -5.4 1.725
    endloop
  endfacet
  facet normal -1 0 0
    outer loop
      vertex -6.75 -1.35 1.725
      vertex -6.75 -6.75 3.75
      vertex -6.75 6.75 3.75
    endloop
  endfacet
  facet normal -1 0 0
    outer loop
      vertex -6.75 -6.75 3.75
      vertex -6.75 -5.4 1.725
      vertex -6.75 -6.75 -0.759999
    endloop
  endfacet
  facet normal 0 0 1
    outer loop
      vertex 6.75 6.75 3.75
      vertex 1.6875 1.6875 3.75
      vertex 6.75 -6.75 3.75
    endloop
  endfacet
  facet normal 0 0 1
    outer loop
      vertex 6.75 6.75 3.75
      vertex -1.6875 1.6875 3.75
      vertex 1.6875 1.6875 3.75
    endloop
  endfacet
  facet normal 0 0 1
    outer loop
      vertex -1.6875 1.6875 3.75
      vertex -6.75 6.75 3.75
      vertex -1.6875 -1.6875 3.75
    endloop
  endfacet
  facet normal -0 0 1
    outer loop
      vertex -6.75 6.75 3.75
      vertex -1.6875 1.6875 3.75
      vertex 6.75 6.75 3.75
    endloop
  endfacet
  facet normal -0 0 1
    outer loop
      vertex 1.6875 -1.6875 3.75
      vertex 6.75 -6.75 3.75
      vertex 1.6875 1.6875 3.75
    endloop
  endfacet
  facet normal -0 0 1
    outer loop
      vertex -1.6875 -1.6875 3.75
      vertex 6.75 -6.75 3.75
      vertex 1.6875 -1.6875 3.75
    endloop
  endfacet
  facet normal 0 0 1
    outer loop
      vertex -1.6875 -1.6875 3.75
      vertex -6.75 -6.75 3.75
      vertex 6.75 -6.75 3.75
    endloop
  endfacet
  facet normal 0 0 1
    outer loop
      vertex -6.75 -6.75 3.75
      vertex -1.6875 -1.6875 3.75
      vertex -6.75 6.75 3.75
    endloop
  endfacet
  facet normal 1 0 0
    outer loop
      vertex 6.75 6.75 3.75
      vertex 6.75 5.4 1.725
      vertex 6.75 6.75 -0.759999
    endloop
  endfacet
  facet normal 1 0 0
    outer loop
      vertex 6.75 6.75 3.75
      vertex 6.75 2.7 1.725
      vertex 6.75 5.4 1.725
    endloop
  endfacet
  facet normal 1 0 0
    outer loop
      vertex 6.75 2.7 1.725
      vertex 6.75 1.35 1.725
      vertex 6.75 2.7 0.374999
    endloop
  endfacet
  facet normal 1 0 0
    outer loop
      vertex 6.75 6.75 3.75
      vertex 6.75 1.35 1.725
      vertex 6.75 2.7 1.725
    endloop
  endfacet
  facet normal 1 0 0
    outer loop
      vertex 6.75 6.75 3.75
      vertex 6.75 -1.35 1.725
      vertex 6.75 1.35 1.725
    endloop
  endfacet
  facet normal 1 0 0
    outer loop
      vertex 6.75 -1.35 1.725
      vertex 6.75 -2.7 1.725
      vertex 6.75 -1.35 0.374999
    endloop
  endfacet
  facet normal 1 -0 0
    outer loop
      vertex 6.75 -6.75 3.75
      vertex 6.75 -1.35 1.725
      vertex 6.75 6.75 3.75
    endloop
  endfacet
  facet normal 1 0 0
    outer loop
      vertex 6.75 -1.35 1.725
      vertex 6.75 -6.75 3.75
      vertex 6.75 -2.7 1.725
    endloop
  endfacet
  facet normal 1 0 0
    outer loop
      vertex 6.75 -6.75 -0.759999
      vertex 6.75 -5.4 1.725
      vertex 6.75 -6.75 3.75
    endloop
  endfacet
  facet normal 1 0 0
    outer loop
      vertex 6.75 -2.7 1.725
      vertex 6.75 -6.75 3.75
      vertex 6.75 -5.4 1.725
    endloop
  endfacet
  facet normal 1 -0 0
    outer loop
      vertex 6.75 5.4 0.374999
      vertex 6.75 6.75 -0.759999
      vertex 6.75 5.4 1.725
    endloop
  endfacet
  facet normal 1 -0 0
    outer loop
      vertex 6.75 2.7 0.374999
      vertex 6.75 6.75 -0.759999
      vertex 6.75 5.4 0.374999
    endloop
  endfacet
  facet normal 1 0 0
    outer loop
      vertex 6.75 1.35 0.374999
      vertex 6.75 2.7 0.374999
      vertex 6.75 1.35 1.725
    endloop
  endfacet
  facet normal 1 -0 0
    outer loop
      vertex 6.75 1.35 0.374999
      vertex 6.75 6.75 -0.759999
      vertex 6.75 2.7 0.374999
    endloop
  endfacet
  facet normal 1 -0 0
    outer loop
      vertex 6.75 -1.35 0.374999
      vertex 6.75 6.75 -0.759999
      vertex 6.75 1.35 0.374999
    endloop
  endfacet
  facet normal 1 0 0
    outer loop
      vertex 6.75 -2.7 0.374999
      vertex 6.75 -1.35 0.374999
      vertex 6.75 -2.7 1.725
    endloop
  endfacet
  facet normal 1 0 0
    outer loop
      vertex 6.75 -6.75 -0.759999
      vertex 6.75 -1.35 0.374999
      vertex 6.75 -2.7 0.374999
    endloop
  endfacet
  facet normal 1 0 0
    outer loop
      vertex 6.75 -6.75 -0.759999
      vertex 6.75 -2.7 0.374999
      vertex 6.75 -5.4 0.374999
    endloop
  endfacet
  facet normal 1 0 0
    outer loop
      vertex 6.75 -1.35 0.374999
      vertex 6.75 -6.75 -0.759999
      vertex 6.75 6.75 -0.759999
    endloop
  endfacet
  facet normal 1 0 0
    outer loop
      vertex 6.75 -5.4 1.725
      vertex 6.75 -6.75 -0.759999
      vertex 6.75 -5.4 0.374999
    endloop
  endfacet
  facet normal 0 -1 0
    outer loop
      vertex 1.35 -6.75 0.374999
      vertex 2.7 -6.75 1.725
      vertex 1.35 -6.75 1.725
    endloop
  endfacet
  facet normal 0 -1 -0
    outer loop
      vertex 2.7 -6.75 1.725
      vertex 1.35 -6.75 0.374999
      vertex 2.7 -6.75 0.374999
    endloop
  endfacet
  facet normal 0 -1 0
    outer loop
      vertex -2.7 -6.75 0.374999
      vertex -1.35 -6.75 1.725
      vertex -2.7 -6.75 1.725
    endloop
  endfacet
  facet normal 0 -1 -0
    outer loop
      vertex -1.35 -6.75 1.725
      vertex -2.7 -6.75 0.374999
      vertex -1.35 -6.75 0.374999
    endloop
  endfacet
  facet normal 0 -1 0
    outer loop
      vertex -2.7 -6.75 1.725
      vertex -6.75 -6.75 3.75
      vertex -5.4 -6.75 1.725
    endloop
  endfacet
  facet normal 0 -1 0
    outer loop
      vertex -6.75 -6.75 -0.759999
      vertex -5.4 -6.75 1.725
      vertex -6.75 -6.75 3.75
    endloop
  endfacet
  facet normal 0 -1 0
    outer loop
      vertex -6.75 -6.75 -0.759999
      vertex -2.7 -6.75 0.374999
      vertex -5.4 -6.75 0.374999
    endloop
  endfacet
  facet normal 0 -1 -0
    outer loop
      vertex -2.7 -6.75 0.374999
      vertex -6.75 -6.75 -0.759999
      vertex -1.35 -6.75 0.374999
    endloop
  endfacet
  facet normal 0 -1 -0
    outer loop
      vertex -1.35 -6.75 0.374999
      vertex -6.75 -6.75 -0.759999
      vertex 1.35 -6.75 0.374999
    endloop
  endfacet
  facet normal 0 -1 0
    outer loop
      vertex 6.75 -6.75 -0.759999
      vertex 1.35 -6.75 0.374999
      vertex -6.75 -6.75 -0.759999
    endloop
  endfacet
  facet normal 0 -1 0
    outer loop
      vertex 1.35 -6.75 0.374999
      vertex 6.75 -6.75 -0.759999
      vertex 2.7 -6.75 0.374999
    endloop
  endfacet
  facet normal 0 -1 -0
    outer loop
      vertex -5.4 -6.75 1.725
      vertex -6.75 -6.75 -0.759999
      vertex -5.4 -6.75 0.374999
    endloop
  endfacet
  facet normal 0 -1 0
    outer loop
      vertex -1.35 -6.75 1.725
      vertex -6.75 -6.75 3.75
      vertex -2.7 -6.75 1.725
    endloop
  endfacet
  facet normal 0 -1 0
    outer loop
      vertex -6.75 -6.75 3.75
      vertex -1.35 -6.75 1.725
      vertex 6.75 -6.75 3.75
    endloop
  endfacet
  facet normal 0 -1 0
    outer loop
      vertex 1.35 -6.75 1.725
      vertex 6.75 -6.75 3.75
      vertex -1.35 -6.75 1.725
    endloop
  endfacet
  facet normal 0 -1 0
    outer loop
      vertex 2.7 -6.75 1.725
      vertex 6.75 -6.75 3.75
      vertex 1.35 -6.75 1.725
    endloop
  endfacet
  facet normal 0 -1 0
    outer loop
      vertex 5.4 -6.75 1.725
      vertex 6.75 -6.75 3.75
      vertex 2.7 -6.75 1.725
    endloop
  endfacet
  facet normal 0 -1 0
    outer loop
      vertex 6.75 -6.75 -0.759999
      vertex 5.4 -6.75 1.725
      vertex 5.4 -6.75 0.374999
    endloop
  endfacet
  facet normal 0 -1 0
    outer loop
      vertex 5.4 -6.75 1.725
      vertex 6.75 -6.75 -0.759999
      vertex 6.75 -6.75 3.75
    endloop
  endfacet
  facet normal 0 -1 0
    outer loop
      vertex 2.7 -6.75 0.374999
      vertex 6.75 -6.75 -0.759999
      vertex 5.4 -6.75 0.374999
    endloop
  endfacet
  facet normal 0 1 -0
    outer loop
      vertex -1.35 6.75 0.374999
      vertex -2.7 6.75 1.725
      vertex -1.35 6.75 1.725
    endloop
  endfacet
  facet normal 0 1 0
    outer loop
      vertex -2.7 6.75 1.725
      vertex -1.35 6.75 0.374999
      vertex -2.7 6.75 0.374999
    endloop
  endfacet
  facet normal 0 1 -0
    outer loop
      vertex 2.7 6.75 0.374999
      vertex 1.35 6.75 1.725
      vertex 2.7 6.75 1.725
    endloop
  endfacet
  facet normal 0 1 0
    outer loop
      vertex 1.35 6.75 1.725
      vertex 2.7 6.75 0.374999
      vertex 1.35 6.75 0.374999
    endloop
  endfacet
  facet normal 0 1 0
    outer loop
      vertex 2.7 6.75 1.725
      vertex 6.75 6.75 3.75
      vertex 5.4 6.75 1.725
    endloop
  endfacet
  facet normal 0 1 -0
    outer loop
      vertex 6.75 6.75 -0.759999
      vertex 5.4 6.75 1.725
      vertex 6.75 6.75 3.75
    endloop
  endfacet
  facet normal 0 1 0
    outer loop
      vertex 6.75 6.75 -0.759999
      vertex 2.7 6.75 0.374999
      vertex 5.4 6.75 0.374999
    endloop
  endfacet
  facet normal 0 1 0
    outer loop
      vertex 2.7 6.75 0.374999
      vertex 6.75 6.75 -0.759999
      vertex 1.35 6.75 0.374999
    endloop
  endfacet
  facet normal 0 1 0
    outer loop
      vertex 1.35 6.75 0.374999
      vertex 6.75 6.75 -0.759999
      vertex -1.35 6.75 0.374999
    endloop
  endfacet
  facet normal 0 1 0
    outer loop
      vertex -6.75 6.75 -0.759999
      vertex -1.35 6.75 0.374999
      vertex 6.75 6.75 -0.759999
    endloop
  endfacet
  facet normal 0 1 0
    outer loop
      vertex -1.35 6.75 0.374999
      vertex -6.75 6.75 -0.759999
      vertex -2.7 6.75 0.374999
    endloop
  endfacet
  facet normal 0 1 0
    outer loop
      vertex 5.4 6.75 1.725
      vertex 6.75 6.75 -0.759999
      vertex 5.4 6.75 0.374999
    endloop
  endfacet
  facet normal 0 1 0
    outer loop
      vertex 1.35 6.75 1.725
      vertex 6.75 6.75 3.75
      vertex 2.7 6.75 1.725
    endloop
  endfacet
  facet normal 0 1 0
    outer loop
      vertex 6.75 6.75 3.75
      vertex 1.35 6.75 1.725
      vertex -6.75 6.75 3.75
    endloop
  endfacet
  facet normal 0 1 -0
    outer loop
      vertex -1.35 6.75 1.725
      vertex -6.75 6.75 3.75
      vertex 1.35 6.75 1.725
    endloop
  endfacet
  facet normal 0 1 -0
    outer loop
      vertex -2.7 6.75 1.725
      vertex -6.75 6.75 3.75
      vertex -1.35 6.75 1.725
    endloop
  endfacet
  facet normal 0 1 -0
    outer loop
      vertex -5.4 6.75 1.725
      vertex -6.75 6.75 3.75
      vertex -2.7 6.75 1.725
    endloop
  endfacet
  facet normal 0 1 0
    outer loop
      vertex -6.75 6.75 -0.759999
      vertex -5.4 6.75 1.725
      vertex -5.4 6.75 0.374999
    endloop
  endfacet
  facet normal 0 1 0
    outer loop
      vertex -5.4 6.75 1.725
      vertex -6.75 6.75 -0.759999
      vertex -6.75 6.75 3.75
    endloop
  endfacet
  facet normal 0 1 0
    outer loop
      vertex -2.7 6.75 0.374999
      vertex -6.75 6.75 -0.759999
      vertex -5.4 6.75 0.374999
    endloop
  endfacet
  facet normal 0 0 -1
    outer loop
      vertex -6.75 2.7 1.725
      vertex -6.075 5.4 1.725
      vertex -6.075 2.7 1.725
    endloop
  endfacet
  facet normal -0 0 -1
    outer loop
      vertex -6.075 5.4 1.725
      vertex -6.75 2.7 1.725
      vertex -6.75 5.4 1.725
    endloop
  endfacet
  facet normal 0 0 -1
    outer loop
      vertex -6.75 -1.35 1.725
      vertex -6.075 1.35 1.725
      vertex -6.075 -1.35 1.725
    endloop
  endfacet
  facet normal -0 0 -1
    outer loop
      vertex -6.075 1.35 1.725
      vertex -6.75 -1.35 1.725
      vertex -6.75 1.35 1.725
    endloop
  endfacet
  facet normal 0 0 -1
    outer loop
      vertex -6.75 -5.4 1.725
      vertex -6.075 -2.7 1.725
      vertex -6.075 -5.4 1.725
    endloop
  endfacet
  facet normal -0 0 -1
    outer loop
      vertex -6.075 -2.7 1.725
      vertex -6.75 -5.4 1.725
      vertex -6.75 -2.7 1.725
    endloop
  endfacet
  facet normal 0 0 -1
    outer loop
      vertex -5.4 -6.75 1.725
      vertex -2.7 -6.075 1.725
      vertex -2.7 -6.75 1.725
    endloop
  endfacet
  facet normal -0 0 -1
    outer loop
      vertex -2.7 -6.075 1.725
      vertex -5.4 -6.75 1.725
      vertex -5.4 -6.075 1.725
    endloop
  endfacet
  facet normal 0 0 -1
    outer loop
      vertex -1.35 -6.75 1.725
      vertex 1.35 -6.075 1.725
      vertex 1.35 -6.75 1.725
    endloop
  endfacet
  facet normal -0 0 -1
    outer loop
      vertex 1.35 -6.075 1.725
      vertex -1.35 -6.75 1.725
      vertex -1.35 -6.075 1.725
    endloop
  endfacet
  facet normal 0 0 -1
    outer loop
      vertex 2.7 -6.75 1.725
      vertex 5.4 -6.075 1.725
      vertex 5.4 -6.75 1.725
    endloop
  endfacet
  facet normal -0 0 -1
    outer loop
      vertex 5.4 -6.075 1.725
      vertex 2.7 -6.75 1.725
      vertex 2.7 -6.075 1.725
    endloop
  endfacet
  facet normal 0 0 -1
    outer loop
      vertex -5.4 6.075 1.725
      vertex -2.7 6.75 1.725
      vertex -2.7 6.075 1.725
    endloop
  endfacet
  facet normal -0 0 -1
    outer loop
      vertex -2.7 6.75 1.725
      vertex -5.4 6.075 1.725
      vertex -5.4 6.75 1.725
    endloop
  endfacet
  facet normal 0 0 -1
    outer loop
      vertex -1.35 6.075 1.725
      vertex 1.35 6.75 1.725
      vertex 1.35 6.075 1.725
    endloop
  endfacet
  facet normal -0 0 -1
    outer loop
      vertex 1.35 6.75 1.725
      vertex -1.35 6.075 1.725
      vertex -1.35 6.75 1.725
    endloop
  endfacet
  facet normal 0 0 -1
    outer loop
      vertex 2.7 6.075 1.725
      vertex 5.4 6.75 1.725
      vertex 5.4 6.075 1.725
    endloop
  endfacet
  facet normal -0 0 -1
    outer loop
      vertex 5.4 6.75 1.725
      vertex 2.7 6.075 1.725
      vertex 2.7 6.75 1.725
    endloop
  endfacet
  facet normal 0 0 -1
    outer loop
      vertex 6.075 2.7 1.725
      vertex 6.75 5.4 1.725
      vertex 6.75 2.7 1.725
    endloop
  endfacet
  facet normal -0 0 -1
    outer loop
      vertex 6.75 5.4 1.725
      vertex 6.075 2.7 1.725
      vertex 6.075 5.4 1.725
    endloop
  endfacet
  facet normal 0 0 -1
    outer loop
      vertex 6.075 -1.35 1.725
      vertex 6.75 1.35 1.725
      vertex 6.75 -1.35 1.725
    endloop
  endfacet
  facet normal -0 0 -1
    outer loop
      vertex 6.75 1.35 1.725
      vertex 6.075 -1.35 1.725
      vertex 6.075 1.35 1.725
    endloop
  endfacet
  facet normal 0 0 -1
    outer loop
      vertex 6.075 -5.4 1.725
      vertex 6.75 -2.7 1.725
      vertex 6.75 -5.4 1.725
    endloop
  endfacet
  facet normal -0 0 -1
    outer loop
      vertex 6.75 -2.7 1.725
      vertex 6.075 -5.4 1.725
      vertex 6.075 -2.7 1.725
    endloop
  endfacet
  facet normal -0 0 1
    outer loop
      vertex -6.75 5.4 0.374999
      vertex -6.075 2.7 0.374999
      vertex -6.075 5.4 0.374999
    endloop
  endfacet
  facet normal 0 0 1
    outer loop
      vertex -6.075 2.7 0.374999
      vertex -6.75 5.4 0.374999
      vertex -6.75 2.7 0.374999
    endloop
  endfacet
  facet normal -0 0 1
    outer loop
      vertex -6.75 1.35 0.374999
      vertex -6.075 -1.35 0.374999
      vertex -6.075 1.35 0.374999
    endloop
  endfacet
  facet normal 0 0 1
    outer loop
      vertex -6.075 -1.35 0.374999
      vertex -6.75 1.35 0.374999
      vertex -6.75 -1.35 0.374999
    endloop
  endfacet
  facet normal -0 0 1
    outer loop
      vertex -6.75 -2.7 0.374999
      vertex -6.075 -5.4 0.374999
      vertex -6.075 -2.7 0.374999
    endloop
  endfacet
  facet normal 0 0 1
    outer loop
      vertex -6.075 -5.4 0.374999
      vertex -6.75 -2.7 0.374999
      vertex -6.75 -5.4 0.374999
    endloop
  endfacet
  facet normal -0 0 1
    outer loop
      vertex -5.4 -6.075 0.374999
      vertex -2.7 -6.75 0.374999
      vertex -2.7 -6.075 0.374999
    endloop
  endfacet
  facet normal 0 0 1
    outer loop
      vertex -2.7 -6.75 0.374999
      vertex -5.4 -6.075 0.374999
      vertex -5.4 -6.75 0.374999
    endloop
  endfacet
  facet normal -0 0 1
    outer loop
      vertex -1.35 -6.075 0.374999
      vertex 1.35 -6.75 0.374999
      vertex 1.35 -6.075 0.374999
    endloop
  endfacet
  facet normal 0 0 1
    outer loop
      vertex 1.35 -6.75 0.374999
      vertex -1.35 -6.075 0.374999
      vertex -1.35 -6.75 0.374999
    endloop
  endfacet
  facet normal -0 0 1
    outer loop
      vertex 2.7 -6.075 0.374999
      vertex 5.4 -6.75 0.374999
      vertex 5.4 -6.075 0.374999
    endloop
  endfacet
  facet normal 0 0 1
    outer loop
      vertex 5.4 -6.75 0.374999
      vertex 2.7 -6.075 0.374999
      vertex 2.7 -6.75 0.374999
    endloop
  endfacet
  facet normal -0 0 1
    outer loop
      vertex -5.4 6.75 0.374999
      vertex -2.7 6.075 0.374999
      vertex -2.7 6.75 0.374999
    endloop
  endfacet
  facet normal 0 0 1
    outer loop
      vertex -2.7 6.075 0.374999
      vertex -5.4 6.75 0.374999
      vertex -5.4 6.075 0.374999
    endloop
  endfacet
  facet normal -0 0 1
    outer loop
      vertex -1.35 6.75 0.374999
      vertex 1.35 6.075 0.374999
      vertex 1.35 6.75 0.374999
    endloop
  endfacet
  facet normal 0 0 1
    outer loop
      vertex 1.35 6.075 0.374999
      vertex -1.35 6.75 0.374999
      vertex -1.35 6.075 0.374999
    endloop
  endfacet
  facet normal -0 0 1
    outer loop
      vertex 2.7 6.75 0.374999
      vertex 5.4 6.075 0.374999
      vertex 5.4 6.75 0.374999
    endloop
  endfacet
  facet normal 0 0 1
    outer loop
      vertex 5.4 6.075 0.374999
      vertex 2.7 6.75 0.374999
      vertex 2.7 6.075 0.374999
    endloop
  endfacet
  facet normal -0 0 1
    outer loop
      vertex 6.075 5.4 0.374999
      vertex 6.75 2.7 0.374999
      vertex 6.75 5.4 0.374999
    endloop
  endfacet
  facet normal 0 0 1
    outer loop
      vertex 6.75 2.7 0.374999
      vertex 6.075 5.4 0.374999
      vertex 6.075 2.7 0.374999
    endloop
  endfacet
  facet normal -0 0 1
    outer loop
      vertex 6.075 1.35 0.374999
      vertex 6.75 -1.35 0.374999
      vertex 6.75 1.35 0.374999
    endloop
  endfacet
  facet normal 0 0 1
    outer loop
      vertex 6.75 -1.35 0.374999
      vertex 6.075 1.35 0.374999
      vertex 6.075 -1.35 0.374999
    endloop
  endfacet
  facet normal -0 0 1
    outer loop
      vertex 6.075 -2.7 0.374999
      vertex 6.75 -5.4 0.374999
      vertex 6.75 -2.7 0.374999
    endloop
  endfacet
  facet normal 0 0 1
    outer loop
      vertex 6.75 -5.4 0.374999
      vertex 6.075 -2.7 0.374999
      vertex 6.075 -5.4 0.374999
    endloop
  endfacet
  facet normal 0 1 -0
    outer loop
      vertex -6.075 -5.4 0.374999
      vertex -6.75 -5.4 1.725
      vertex -6.075 -5.4 1.725
    endloop
  endfacet
  facet normal 0 1 0
    outer loop
      vertex -6.75 -5.4 1.725
      vertex -6.075 -5.4 0.374999
      vertex -6.75 -5.4 0.374999
    endloop
  endfacet
  facet normal 0 1 -0
    outer loop
      vertex 6.75 -5.4 0.374999
      vertex 6.075 -5.4 1.725
      vertex 6.75 -5.4 1.725
    endloop
  endfacet
  facet normal 0 1 0
    outer loop
      vertex 6.075 -5.4 1.725
      vertex 6.75 -5.4 0.374999
      vertex 6.075 -5.4 0.374999
    endloop
  endfacet
  facet normal 0 -1 0
    outer loop
      vertex -6.75 -2.7 0.374999
      vertex -6.075 -2.7 1.725
      vertex -6.75 -2.7 1.725
    endloop
  endfacet
  facet normal 0 -1 -0
    outer loop
      vertex -6.075 -2.7 1.725
      vertex -6.75 -2.7 0.374999
      vertex -6.075 -2.7 0.374999
    endloop
  endfacet
  facet normal 0 -1 0
    outer loop
      vertex 6.075 -2.7 0.374999
      vertex 6.75 -2.7 1.725
      vertex 6.075 -2.7 1.725
    endloop
  endfacet
  facet normal 0 -1 -0
    outer loop
      vertex 6.75 -2.7 1.725
      vertex 6.075 -2.7 0.374999
      vertex 6.75 -2.7 0.374999
    endloop
  endfacet
  facet normal 0 -1 0
    outer loop
      vertex -6.75 1.35 0.374999
      vertex -6.075 1.35 1.725
      vertex -6.75 1.35 1.725
    endloop
  endfacet
  facet normal 0 -1 -0
    outer loop
      vertex -6.075 1.35 1.725
      vertex -6.75 1.35 0.374999
      vertex -6.075 1.35 0.374999
    endloop
  endfacet
  facet normal 0 -1 0
    outer loop
      vertex 6.075 1.35 0.374999
      vertex 6.75 1.35 1.725
      vertex 6.075 1.35 1.725
    endloop
  endfacet
  facet normal 0 -1 -0
    outer loop
      vertex 6.75 1.35 1.725
      vertex 6.075 1.35 0.374999
      vertex 6.75 1.35 0.374999
    endloop
  endfacet
  facet normal 0 1 -0
    outer loop
      vertex -6.075 -1.35 0.374999
      vertex -6.75 -1.35 1.725
      vertex -6.075 -1.35 1.725
    endloop
  endfacet
  facet normal 0 1 0
    outer loop
      vertex -6.75 -1.35 1.725
      vertex -6.075 -1.35 0.374999
      vertex -6.75 -1.35 0.374999
    endloop
  endfacet
  facet normal 0 1 -0
    outer loop
      vertex 6.75 -1.35 0.374999
      vertex 6.075 -1.35 1.725
      vertex 6.75 -1.35 1.725
    endloop
  endfacet
  facet normal 0 1 0
    outer loop
      vertex 6.075 -1.35 1.725
      vertex 6.75 -1.35 0.374999
      vertex 6.075 -1.35 0.374999
    endloop
  endfacet
  facet normal 0 -1 0
    outer loop
      vertex -6.75 5.4 0.374999
      vertex -6.075 5.4 1.725
      vertex -6.75 5.4 1.725
    endloop
  endfacet
  facet normal 0 -1 -0
    outer loop
      vertex -6.075 5.4 1.725
      vertex -6.75 5.4 0.374999
      vertex -6.075 5.4 0.374999
    endloop
  endfacet
  facet normal 0 -1 0
    outer loop
      vertex 6.075 5.4 0.374999
      vertex 6.75 5.4 1.725
      vertex 6.075 5.4 1.725
    endloop
  endfacet
  facet normal 0 -1 -0
    outer loop
      vertex 6.75 5.4 1.725
      vertex 6.075 5.4 0.374999
      vertex 6.75 5.4 0.374999
    endloop
  endfacet
  facet normal 0 1 -0
    outer loop
      vertex -6.075 2.7 0.374999
      vertex -6.75 2.7 1.725
      vertex -6.075 2.7 1.725
    endloop
  endfacet
  facet normal 0 1 0
    outer loop
      vertex -6.75 2.7 1.725
      vertex -6.075 2.7 0.374999
      vertex -6.75 2.7 0.374999
    endloop
  endfacet
  facet normal 0 1 -0
    outer loop
      vertex 6.75 2.7 0.374999
      vertex 6.075 2.7 1.725
      vertex 6.75 2.7 1.725
    endloop
  endfacet
  facet normal 0 1 0
    outer loop
      vertex 6.075 2.7 1.725
      vertex 6.75 2.7 0.374999
      vertex 6.075 2.7 0.374999
    endloop
  endfacet
  facet normal -1 0 0
    outer loop
      vertex 5.4 -6.75 0.374999
      vertex 5.4 -6.075 1.725
      vertex 5.4 -6.075 0.374999
    endloop
  endfacet
  facet normal -1 -0 0
    outer loop
      vertex 5.4 -6.075 1.725
      vertex 5.4 -6.75 0.374999
      vertex 5.4 -6.75 1.725
    endloop
  endfacet
  facet normal -1 0 0
    outer loop
      vertex 5.4 6.075 0.374999
      vertex 5.4 6.75 1.725
      vertex 5.4 6.75 0.374999
    endloop
  endfacet
  facet normal -1 -0 0
    outer loop
      vertex 5.4 6.75 1.725
      vertex 5.4 6.075 0.374999
      vertex 5.4 6.075 1.725
    endloop
  endfacet
  facet normal 1 -0 0
    outer loop
      vertex 2.7 -6.75 1.725
      vertex 2.7 -6.075 0.374999
      vertex 2.7 -6.075 1.725
    endloop
  endfacet
  facet normal 1 0 0
    outer loop
      vertex 2.7 -6.075 0.374999
      vertex 2.7 -6.75 1.725
      vertex 2.7 -6.75 0.374999
    endloop
  endfacet
  facet normal 1 -0 0
    outer loop
      vertex 2.7 6.075 1.725
      vertex 2.7 6.75 0.374999
      vertex 2.7 6.75 1.725
    endloop
  endfacet
  facet normal 1 0 0
    outer loop
      vertex 2.7 6.75 0.374999
      vertex 2.7 6.075 1.725
      vertex 2.7 6.075 0.374999
    endloop
  endfacet
  facet normal 1 -0 0
    outer loop
      vertex -1.35 -6.75 1.725
      vertex -1.35 -6.075 0.374999
      vertex -1.35 -6.075 1.725
    endloop
  endfacet
  facet normal 1 0 0
    outer loop
      vertex -1.35 -6.075 0.374999
      vertex -1.35 -6.75 1.725
      vertex -1.35 -6.75 0.374999
    endloop
  endfacet
  facet normal 1 -0 0
    outer loop
      vertex -1.35 6.075 1.725
      vertex -1.35 6.75 0.374999
      vertex -1.35 6.75 1.725
    endloop
  endfacet
  facet normal 1 0 0
    outer loop
      vertex -1.35 6.75 0.374999
      vertex -1.35 6.075 1.725
      vertex -1.35 6.075 0.374999
    endloop
  endfacet
  facet normal -1 0 0
    outer loop
      vertex 1.35 -6.75 0.374999
      vertex 1.35 -6.075 1.725
      vertex 1.35 -6.075 0.374999
    endloop
  endfacet
  facet normal -1 -0 0
    outer loop
      vertex 1.35 -6.075 1.725
      vertex 1.35 -6.75 0.374999
      vertex 1.35 -6.75 1.725
    endloop
  endfacet
  facet normal -1 0 0
    outer loop
      vertex 1.35 6.075 0.374999
      vertex 1.35 6.75 1.725
      vertex 1.35 6.75 0.374999
    endloop
  endfacet
  facet normal -1 -0 0
    outer loop
      vertex 1.35 6.75 1.725
      vertex 1.35 6.075 0.374999
      vertex 1.35 6.075 1.725
    endloop
  endfacet
  facet normal 1 -0 0
    outer loop
      vertex -5.4 -6.75 1.725
      vertex -5.4 -6.075 0.374999
      vertex -5.4 -6.075 1.725
    endloop
  endfacet
  facet normal 1 0 0
    outer loop
      vertex -5.4 -6.075 0.374999
      vertex -5.4 -6.75 1.725
      vertex -5.4 -6.75 0.374999
    endloop
  endfacet
  facet normal 1 -0 0
    outer loop
      vertex -5.4 6.075 1.725
      vertex -5.4 6.75 0.374999
      vertex -5.4 6.75 1.725
    endloop
  endfacet
  facet normal 1 0 0
    outer loop
      vertex -5.4 6.75 0.374999
      vertex -5.4 6.075 1.725
      vertex -5.4 6.075 0.374999
    endloop
  endfacet
  facet normal -1 0 0
    outer loop
      vertex -2.7 -6.75 0.374999
      vertex -2.7 -6.075 1.725
      vertex -2.7 -6.075 0.374999
    endloop
  endfacet
  facet normal -1 -0 0
    outer loop
      vertex -2.7 -6.075 1.725
      vertex -2.7 -6.75 0.374999
      vertex -2.7 -6.75 1.725
    endloop
  endfacet
  facet normal -1 0 0
    outer loop
      vertex -2.7 6.075 0.374999
      vertex -2.7 6.75 1.725
      vertex -2.7 6.75 0.374999
    endloop
  endfacet
  facet normal -1 -0 0
    outer loop
      vertex -2.7 6.75 1.725
      vertex -2.7 6.075 0.374999
      vertex -2.7 6.075 1.725
    endloop
  endfacet
  facet normal -1 0 0
    outer loop
      vertex -6.075 2.7 0.374999
      vertex -6.075 5.4 1.725
      vertex -6.075 5.4 0.374999
    endloop
  endfacet
  facet normal -1 -0 0
    outer loop
      vertex -6.075 5.4 1.725
      vertex -6.075 2.7 0.374999
      vertex -6.075 2.7 1.725
    endloop
  endfacet
  facet normal -1 0 0
    outer loop
      vertex -6.075 -1.35 0.374999
      vertex -6.075 1.35 1.725
      vertex -6.075 1.35 0.374999
    endloop
  endfacet
  facet normal -1 -0 0
    outer loop
      vertex -6.075 1.35 1.725
      vertex -6.075 -1.35 0.374999
      vertex -6.075 -1.35 1.725
    endloop
  endfacet
  facet normal -1 0 0
    outer loop
      vertex -6.075 -5.4 0.374999
      vertex -6.075 -2.7 1.725
      vertex -6.075 -2.7 0.374999
    endloop
  endfacet
  facet normal -1 -0 0
    outer loop
      vertex -6.075 -2.7 1.725
      vertex -6.075 -5.4 0.374999
      vertex -6.075 -5.4 1.725
    endloop
  endfacet
  facet normal 1 -0 0
    outer loop
      vertex 6.075 2.7 1.725
      vertex 6.075 5.4 0.374999
      vertex 6.075 5.4 1.725
    endloop
  endfacet
  facet normal 1 0 0
    outer loop
      vertex 6.075 5.4 0.374999
      vertex 6.075 2.7 1.725
      vertex 6.075 2.7 0.374999
    endloop
  endfacet
  facet normal 1 -0 0
    outer loop
      vertex 6.075 -1.35 1.725
      vertex 6.075 1.35 0.374999
      vertex 6.075 1.35 1.725
    endloop
  endfacet
  facet normal 1 0 0
    outer loop
      vertex 6.075 1.35 0.374999
      vertex 6.075 -1.35 1.725
      vertex 6.075 -1.35 0.374999
    endloop
  endfacet
  facet normal 1 -0 0
    outer loop
      vertex 6.075 -5.4 1.725
      vertex 6.075 -2.7 0.374999
      vertex 6.075 -2.7 1.725
    endloop
  endfacet
  facet normal 1 0 0
    outer loop
      vertex 6.075 -2.7 0.374999
      vertex 6.075 -5.4 1.725
      vertex 6.075 -5.4 0.374999
    endloop
  endfacet
  facet normal 0 -1 0
    outer loop
      vertex -5.4 -6.075 0.374999
      vertex -2.7 -6.075 1.725
      vertex -5.4 -6.075 1.725
    endloop
  endfacet
  facet normal 0 -1 -0
    outer loop
      vertex -2.7 -6.075 1.725
      vertex -5.4 -6.075 0.374999
      vertex -2.7 -6.075 0.374999
    endloop
  endfacet
  facet normal 0 -1 0
    outer loop
      vertex -1.35 -6.075 0.374999
      vertex 1.35 -6.075 1.725
      vertex -1.35 -6.075 1.725
    endloop
  endfacet
  facet normal 0 -1 -0
    outer loop
      vertex 1.35 -6.075 1.725
      vertex -1.35 -6.075 0.374999
      vertex 1.35 -6.075 0.374999
    endloop
  endfacet
  facet normal 0 -1 0
    outer loop
      vertex 2.7 -6.075 0.374999
      vertex 5.4 -6.075 1.725
      vertex 2.7 -6.075 1.725
    endloop
  endfacet
  facet normal 0 -1 -0
    outer loop
      vertex 5.4 -6.075 1.725
      vertex 2.7 -6.075 0.374999
      vertex 5.4 -6.075 0.374999
    endloop
  endfacet
  facet normal 0 1 -0
    outer loop
      vertex -2.7 6.075 0.374999
      vertex -5.4 6.075 1.725
      vertex -2.7 6.075 1.725
    endloop
  endfacet
  facet normal 0 1 0
    outer loop
      vertex -5.4 6.075 1.725
      vertex -2.7 6.075 0.374999
      vertex -5.4 6.075 0.374999
    endloop
  endfacet
  facet normal 0 1 -0
    outer loop
      vertex 1.35 6.075 0.374999
      vertex -1.35 6.075 1.725
      vertex 1.35 6.075 1.725
    endloop
  endfacet
  facet normal 0 1 0
    outer loop
      vertex -1.35 6.075 1.725
      vertex 1.35 6.075 0.374999
      vertex -1.35 6.075 0.374999
    endloop
  endfacet
  facet normal 0 1 -0
    outer loop
      vertex 5.4 6.075 0.374999
      vertex 2.7 6.075 1.725
      vertex 5.4 6.075 1.725
    endloop
  endfacet
  facet normal 0 1 0
    outer loop
      vertex 2.7 6.075 1.725
      vertex 5.4 6.075 0.374999
      vertex 2.7 6.075 0.374999
    endloop
  endfacet
  facet normal -1 0 0
    outer loop
      vertex -1.6875 -1.6875 3.75
      vertex -1.6875 1.6875 5.765
      vertex -1.6875 1.6875 3.75
    endloop
  endfacet
  facet normal -1 -0 0
    outer loop
      vertex -1.6875 1.6875 5.765
      vertex -1.6875 -1.6875 3.75
      vertex -1.6875 -1.6875 5.765
    endloop
  endfacet
  facet normal -0 0 1
    outer loop
      vertex -1.6875 1.6875 5.765
      vertex 1.6875 -1.6875 5.765
      vertex 1.6875 1.6875 5.765
    endloop
  endfacet
  facet normal 0 0 1
    outer loop
      vertex 1.6875 -1.6875 5.765
      vertex -1.6875 1.6875 5.765
      vertex -1.6875 -1.6875 5.765
    endloop
  endfacet
  facet normal 1 -0 0
    outer loop
      vertex 1.6875 -1.6875 5.765
      vertex 1.6875 1.6875 3.75
      vertex 1.6875 1.6875 5.765
    endloop
  endfacet
  facet normal 1 0 0
    outer loop
      vertex 1.6875 1.6875 3.75
      vertex 1.6875 -1.6875 5.765
      vertex 1.6875 -1.6875 3.75
    endloop
  endfacet
  facet normal 0 1 -0
    outer loop
      vertex 1.6875 1.6875 3.75
      vertex -1.6875 1.6875 5.765
      vertex 1.6875 1.6875 5.765
    endloop
  endfacet
  facet normal 0 1 0
    outer loop
      vertex -1.6875 1.6875 5.765
      vertex 1.6875 1.6875 3.75
      vertex -1.6875 1.6875 3.75
    endloop
  endfacet
  facet normal 0 -1 0
    outer loop
      vertex -1.6875 -1.6875 3.75
      vertex 1.6875 -1.6875 5.765
      vertex -1.6875 -1.6875 5.765
    endloop
  endfacet
  facet normal 0 -1 -0
    outer loop
      vertex 1.6875 -1.6875 5.765
      vertex -1.6875 -1.6875 3.75
      vertex 1.6875 -1.6875 3.75
    endloop
  endfacet
endsolid OpenSCAD_Model
