solid OpenSCAD_Model
  facet normal -1 0 0
    outer loop
      vertex 2.2 2.2 0
      vertex 2.2 2.18795 2.36004
      vertex 2.2 2.2 4.79
    endloop
  endfacet
  facet normal -1 0 0
    outer loop
      vertex 2.2 2.2 0
      vertex 2.2 2.09232 1.91016
      vertex 2.2 2.18795 2.36004
    endloop
  endfacet
  facet normal -1 0 0
    outer loop
      vertex 2.2 2.2 0
      vertex 2.2 1.90526 1.49
      vertex 2.2 2.09232 1.91016
    endloop
  endfacet
  facet normal -1 0 0
    outer loop
      vertex 2.2 2.2 0
      vertex 2.2 1.63492 1.11791
      vertex 2.2 1.90526 1.49
    endloop
  endfacet
  facet normal -1 0 0
    outer loop
      vertex 2.2 2.2 0
      vertex 2.2 1.29313 0.810163
      vertex 2.2 1.63492 1.11791
    endloop
  endfacet
  facet normal -1 0 0
    outer loop
      vertex 2.2 2.2 0
      vertex 2.2 0.89482 0.5802
      vertex 2.2 1.29313 0.810163
    endloop
  endfacet
  facet normal -1 0 0
    outer loop
      vertex 2.2 2.2 0
      vertex 2.2 0.457405 0.438076
      vertex 2.2 0.89482 0.5802
    endloop
  endfacet
  facet normal -1 0 0
    outer loop
      vertex 2.2 2.2 0
      vertex 2.2 0 0.39
      vertex 2.2 0.457405 0.438076
    endloop
  endfacet
  facet normal -1 0 0
    outer loop
      vertex 2.2 -2.2 0
      vertex 2.2 0 0.39
      vertex 2.2 2.2 0
    endloop
  endfacet
  facet normal -1 -0 0
    outer loop
      vertex 2.2 -2.18795 2.36004
      vertex 2.2 -2.2 0
      vertex 2.2 -2.18795 2.81996
    endloop
  endfacet
  facet normal -1 -0 0
    outer loop
      vertex 2.2 -2.09232 1.91016
      vertex 2.2 -2.2 0
      vertex 2.2 -2.18795 2.36004
    endloop
  endfacet
  facet normal -1 -0 0
    outer loop
      vertex 2.2 -1.90526 1.49
      vertex 2.2 -2.2 0
      vertex 2.2 -2.09232 1.91016
    endloop
  endfacet
  facet normal -1 -0 0
    outer loop
      vertex 2.2 -1.63492 1.11791
      vertex 2.2 -2.2 0
      vertex 2.2 -1.90526 1.49
    endloop
  endfacet
  facet normal -1 -0 0
    outer loop
      vertex 2.2 -1.29313 0.810163
      vertex 2.2 -2.2 0
      vertex 2.2 -1.63492 1.11791
    endloop
  endfacet
  facet normal -1 -0 0
    outer loop
      vertex 2.2 -0.89482 0.5802
      vertex 2.2 -2.2 0
      vertex 2.2 -1.29313 0.810163
    endloop
  endfacet
  facet normal -1 -0 0
    outer loop
      vertex 2.2 -0.457405 0.438076
      vertex 2.2 -2.2 0
      vertex 2.2 -0.89482 0.5802
    endloop
  endfacet
  facet normal -1 -0 0
    outer loop
      vertex 2.2 0 0.39
      vertex 2.2 -2.2 0
      vertex 2.2 -0.457405 0.438076
    endloop
  endfacet
  facet normal -1 0 0
    outer loop
      vertex 2.2 2.18795 2.81996
      vertex 2.2 2.2 4.79
      vertex 2.2 2.18795 2.36004
    endloop
  endfacet
  facet normal -1 0 0
    outer loop
      vertex 2.2 2.09232 3.26984
      vertex 2.2 2.2 4.79
      vertex 2.2 2.18795 2.81996
    endloop
  endfacet
  facet normal -1 0 0
    outer loop
      vertex 2.2 1.90526 3.69
      vertex 2.2 2.2 4.79
      vertex 2.2 2.09232 3.26984
    endloop
  endfacet
  facet normal -1 0 0
    outer loop
      vertex 2.2 1.63492 4.06209
      vertex 2.2 2.2 4.79
      vertex 2.2 1.90526 3.69
    endloop
  endfacet
  facet normal -1 0 0
    outer loop
      vertex 2.2 1.29313 4.36984
      vertex 2.2 2.2 4.79
      vertex 2.2 1.63492 4.06209
    endloop
  endfacet
  facet normal -1 0 0
    outer loop
      vertex 2.2 0.89482 4.5998
      vertex 2.2 2.2 4.79
      vertex 2.2 1.29313 4.36984
    endloop
  endfacet
  facet normal -1 0 0
    outer loop
      vertex 2.2 0.457405 4.74192
      vertex 2.2 2.2 4.79
      vertex 2.2 0.89482 4.5998
    endloop
  endfacet
  facet normal -1 -0 0
    outer loop
      vertex 2.2 2.2 4.79
      vertex 2.2 0.457405 4.74192
      vertex 2.2 0 4.79
    endloop
  endfacet
  facet normal -1 0 0
    outer loop
      vertex 2.2 -0.457405 4.74192
      vertex 2.2 -2.2 4.79
      vertex 2.2 0 4.79
    endloop
  endfacet
  facet normal -1 0 0
    outer loop
      vertex 2.2 -0.89482 4.5998
      vertex 2.2 -2.2 4.79
      vertex 2.2 -0.457405 4.74192
    endloop
  endfacet
  facet normal -1 0 0
    outer loop
      vertex 2.2 -1.29313 4.36984
      vertex 2.2 -2.2 4.79
      vertex 2.2 -0.89482 4.5998
    endloop
  endfacet
  facet normal -1 0 0
    outer loop
      vertex 2.2 -1.63492 4.06209
      vertex 2.2 -2.2 4.79
      vertex 2.2 -1.29313 4.36984
    endloop
  endfacet
  facet normal -1 0 0
    outer loop
      vertex 2.2 -1.90526 3.69
      vertex 2.2 -2.2 4.79
      vertex 2.2 -1.63492 4.06209
    endloop
  endfacet
  facet normal -1 0 0
    outer loop
      vertex 2.2 -2.09232 3.26984
      vertex 2.2 -2.2 4.79
      vertex 2.2 -1.90526 3.69
    endloop
  endfacet
  facet normal -1 0 0
    outer loop
      vertex 2.2 -2.18795 2.81996
      vertex 2.2 -2.2 4.79
      vertex 2.2 -2.09232 3.26984
    endloop
  endfacet
  facet normal -1 0 0
    outer loop
      vertex 2.2 -2.2 4.79
      vertex 2.2 -2.18795 2.81996
      vertex 2.2 -2.2 0
    endloop
  endfacet
  facet normal 0 0 -1
    outer loop
      vertex -2.2 -2.2 4.79
      vertex 2.2 0 4.79
      vertex 2.2 -2.2 4.79
    endloop
  endfacet
  facet normal 0 0 -1
    outer loop
      vertex -2.2 2.2 4.79
      vertex 2.2 0 4.79
      vertex -2.2 -2.2 4.79
    endloop
  endfacet
  facet normal 0 0 -1
    outer loop
      vertex 2.2 0 4.79
      vertex -2.2 2.2 4.79
      vertex 2.2 2.2 4.79
    endloop
  endfacet
  facet normal 1 -0 0
    outer loop
      vertex -2.2 -2.2 4.79
      vertex -2.2 2.2 0
      vertex -2.2 2.2 4.79
    endloop
  endfacet
  facet normal 1 0 0
    outer loop
      vertex -2.2 2.2 0
      vertex -2.2 -2.2 4.79
      vertex -2.2 -2.2 0
    endloop
  endfacet
  facet normal 0 -1 0
    outer loop
      vertex -2.2 2.2 0
      vertex 2.2 2.2 4.79
      vertex -2.2 2.2 4.79
    endloop
  endfacet
  facet normal 0 -1 -0
    outer loop
      vertex 2.2 2.2 4.79
      vertex -2.2 2.2 0
      vertex 2.2 2.2 0
    endloop
  endfacet
  facet normal 0 1 -0
    outer loop
      vertex 2.2 -2.2 0
      vertex -2.2 -2.2 4.79
      vertex 2.2 -2.2 4.79
    endloop
  endfacet
  facet normal 0 1 0
    outer loop
      vertex -2.2 -2.2 4.79
      vertex 2.2 -2.2 0
      vertex -2.2 -2.2 0
    endloop
  endfacet
  facet normal -0 0.309016 0.951057
    outer loop
      vertex 29.9871 -0.457405 0.438076
      vertex 30 -0.89482 0.5802
      vertex 30 -0.457405 0.438076
    endloop
  endfacet
  facet normal 0 0.309016 0.951057
    outer loop
      vertex 30 -0.89482 0.5802
      vertex 29.9871 -0.457405 0.438076
      vertex 29.949 -0.89482 0.5802
    endloop
  endfacet
  facet normal -0 0.309012 0.951058
    outer loop
      vertex 2.2 -0.457405 0.438076
      vertex 29.9523 -0.563587 0.472576
      vertex 29.9722 -0.457405 0.438076
    endloop
  endfacet
  facet normal 1.99606e-08 0.309017 0.951057
    outer loop
      vertex 29.9523 -0.563587 0.472576
      vertex 2.2 -0.457405 0.438076
      vertex 29.8902 -0.89482 0.5802
    endloop
  endfacet
  facet normal 0 0.309016 0.951057
    outer loop
      vertex 29.8902 -0.89482 0.5802
      vertex 2.2 -0.457405 0.438076
      vertex 2.2 -0.89482 0.5802
    endloop
  endfacet
  facet normal 0 0.809016 -0.587786
    outer loop
      vertex 2.2 -1.90526 3.69
      vertex 29.0161 -1.63492 4.06209
      vertex 29.1158 -1.90526 3.69
    endloop
  endfacet
  facet normal 0 0.809016 -0.587786
    outer loop
      vertex 29.0161 -1.63492 4.06209
      vertex 2.2 -1.90526 3.69
      vertex 2.2 -1.63492 4.06209
    endloop
  endfacet
  facet normal 0 -0.978153 0.207888
    outer loop
      vertex 29.4753 2.18544 2.34823
      vertex 30 2.18795 2.36004
      vertex 29.4721 2.18795 2.36004
    endloop
  endfacet
  facet normal -8.10039e-07 -0.978145 0.207923
    outer loop
      vertex 29.5927 2.09232 1.91016
      vertex 30 2.18795 2.36004
      vertex 29.4753 2.18544 2.34823
    endloop
  endfacet
  facet normal 0 -0.978145 0.207922
    outer loop
      vertex 30 2.18795 2.36004
      vertex 29.5927 2.09232 1.91016
      vertex 30 2.09232 1.91016
    endloop
  endfacet
  facet normal 0 -0.978145 0.207922
    outer loop
      vertex 2.2 2.09232 1.91016
      vertex 28.8626 2.18795 2.36004
      vertex 2.2 2.18795 2.36004
    endloop
  endfacet
  facet normal 3.19806e-07 -0.978149 0.207904
    outer loop
      vertex 28.8626 2.18795 2.36004
      vertex 2.2 2.09232 1.91016
      vertex 28.9658 2.14994 2.18121
    endloop
  endfacet
  facet normal 0 -0.978143 0.207934
    outer loop
      vertex 28.9658 2.14994 2.18121
      vertex 2.2 2.09232 1.91016
      vertex 29.1223 2.09232 1.91016
    endloop
  endfacet
  facet normal -2.79191e-08 -0.104529 0.994522
    outer loop
      vertex 2.2 0 0.39
      vertex 29.976 0.396123 0.431635
      vertex 29.9722 0.457405 0.438076
    endloop
  endfacet
  facet normal 0 -0.10453 0.994522
    outer loop
      vertex 2.2 0 0.39
      vertex 29.9722 0.457405 0.438076
      vertex 2.2 0.457405 0.438076
    endloop
  endfacet
  facet normal 0 -0.10453 0.994522
    outer loop
      vertex 29.976 0.396123 0.431635
      vertex 2.2 0 0.39
      vertex 30 0 0.39
    endloop
  endfacet
  facet normal 0 -0.10453 0.994522
    outer loop
      vertex 30 0 0.39
      vertex 30 0.457405 0.438076
      vertex 29.9871 0.457405 0.438076
    endloop
  endfacet
  facet normal 0 0.978153 0.207888
    outer loop
      vertex 30 -2.18795 2.36004
      vertex 29.4753 -2.18544 2.34823
      vertex 29.4721 -2.18795 2.36004
    endloop
  endfacet
  facet normal -0 0.978145 0.207922
    outer loop
      vertex 29.5927 -2.09232 1.91016
      vertex 30 -2.18795 2.36004
      vertex 30 -2.09232 1.91016
    endloop
  endfacet
  facet normal -8.10039e-07 0.978145 0.207923
    outer loop
      vertex 30 -2.18795 2.36004
      vertex 29.5927 -2.09232 1.91016
      vertex 29.4753 -2.18544 2.34823
    endloop
  endfacet
  facet normal 3.19806e-07 0.978149 0.207904
    outer loop
      vertex 2.2 -2.09232 1.91016
      vertex 28.8626 -2.18795 2.36004
      vertex 28.9658 -2.14994 2.18121
    endloop
  endfacet
  facet normal -0 0.978143 0.207934
    outer loop
      vertex 2.2 -2.09232 1.91016
      vertex 28.9658 -2.14994 2.18121
      vertex 29.1223 -2.09232 1.91016
    endloop
  endfacet
  facet normal 0 0.978145 0.207922
    outer loop
      vertex 28.8626 -2.18795 2.36004
      vertex 2.2 -2.09232 1.91016
      vertex 2.2 -2.18795 2.36004
    endloop
  endfacet
  facet normal 0 -0.669128 0.743147
    outer loop
      vertex 30 1.63492 1.11791
      vertex 29.8874 1.29313 0.810163
      vertex 30 1.29313 0.810163
    endloop
  endfacet
  facet normal 0 -0.669128 0.743147
    outer loop
      vertex 29.8874 1.29313 0.810163
      vertex 30 1.63492 1.11791
      vertex 29.805 1.63492 1.11791
    endloop
  endfacet
  facet normal 5.079e-08 -0.66913 0.743145
    outer loop
      vertex 2.2 1.29313 0.810163
      vertex 29.6571 1.48619 0.983993
      vertex 29.5797 1.63492 1.11791
    endloop
  endfacet
  facet normal 0 -0.669128 0.743147
    outer loop
      vertex 2.2 1.29313 0.810163
      vertex 29.5797 1.63492 1.11791
      vertex 2.2 1.63492 1.11791
    endloop
  endfacet
  facet normal -1.43628e-07 -0.669115 0.743159
    outer loop
      vertex 29.6571 1.48619 0.983993
      vertex 2.2 1.29313 0.810163
      vertex 29.7408 1.32502 0.838881
    endloop
  endfacet
  facet normal 0 -0.669184 0.743097
    outer loop
      vertex 29.7408 1.32502 0.838881
      vertex 2.2 1.29313 0.810163
      vertex 29.7574 1.29313 0.810163
    endloop
  endfacet
  facet normal 0 0.499993 -0.86603
    outer loop
      vertex 2.2 -1.29313 4.36984
      vertex 28.872 -0.89482 4.5998
      vertex 28.9336 -1.29313 4.36984
    endloop
  endfacet
  facet normal 0 0.499993 -0.86603
    outer loop
      vertex 28.872 -0.89482 4.5998
      vertex 2.2 -1.29313 4.36984
      vertex 2.2 -0.89482 4.5998
    endloop
  endfacet
  facet normal 0 0.309008 -0.95106
    outer loop
      vertex 2.2 -0.89482 4.5998
      vertex 28.8339 -0.457405 4.74192
      vertex 28.872 -0.89482 4.5998
    endloop
  endfacet
  facet normal 0 0.309008 -0.95106
    outer loop
      vertex 28.8339 -0.457405 4.74192
      vertex 2.2 -0.89482 4.5998
      vertex 2.2 -0.457405 4.74192
    endloop
  endfacet
  facet normal 0 -0.309016 0.951057
    outer loop
      vertex 30 0.89482 0.5802
      vertex 29.9871 0.457405 0.438076
      vertex 30 0.457405 0.438076
    endloop
  endfacet
  facet normal 0 -0.309016 0.951057
    outer loop
      vertex 29.9871 0.457405 0.438076
      vertex 30 0.89482 0.5802
      vertex 29.949 0.89482 0.5802
    endloop
  endfacet
  facet normal 1.99606e-08 -0.309017 0.951057
    outer loop
      vertex 2.2 0.457405 0.438076
      vertex 29.9523 0.563587 0.472576
      vertex 29.8902 0.89482 0.5802
    endloop
  endfacet
  facet normal 0 -0.309016 0.951057
    outer loop
      vertex 2.2 0.457405 0.438076
      vertex 29.8902 0.89482 0.5802
      vertex 2.2 0.89482 0.5802
    endloop
  endfacet
  facet normal 0 -0.309012 0.951058
    outer loop
      vertex 29.9523 0.563587 0.472576
      vertex 2.2 0.457405 0.438076
      vertex 29.9722 0.457405 0.438076
    endloop
  endfacet
  facet normal 1.21035e-07 0.978144 -0.207929
    outer loop
      vertex 2.2 -2.18795 2.81996
      vertex 29.2283 -2.09232 3.26984
      vertex 29.3449 -2.18482 2.8347
    endloop
  endfacet
  facet normal 0 0.978189 -0.207716
    outer loop
      vertex 2.2 -2.18795 2.81996
      vertex 29.3449 -2.18482 2.8347
      vertex 29.3489 -2.18795 2.81996
    endloop
  endfacet
  facet normal 0 0.978145 -0.207922
    outer loop
      vertex 29.2283 -2.09232 3.26984
      vertex 2.2 -2.18795 2.81996
      vertex 2.2 -2.09232 3.26984
    endloop
  endfacet
  facet normal 0 -0.809016 0.587786
    outer loop
      vertex 29.805 1.63492 1.11791
      vertex 30 1.90526 1.49
      vertex 29.7053 1.90526 1.49
    endloop
  endfacet
  facet normal 0 -0.809016 0.587786
    outer loop
      vertex 30 1.90526 1.49
      vertex 29.805 1.63492 1.11791
      vertex 30 1.63492 1.11791
    endloop
  endfacet
  facet normal 0 -0.809016 0.587786
    outer loop
      vertex 2.2 1.63492 1.11791
      vertex 29.3649 1.90526 1.49
      vertex 2.2 1.90526 1.49
    endloop
  endfacet
  facet normal -5.68954e-07 -0.808996 0.587814
    outer loop
      vertex 29.3649 1.90526 1.49
      vertex 2.2 1.63492 1.11791
      vertex 29.3929 1.8701 1.44161
    endloop
  endfacet
  facet normal 0 -0.809019 0.587782
    outer loop
      vertex 29.3929 1.8701 1.44161
      vertex 2.2 1.63492 1.11791
      vertex 29.5797 1.63492 1.11791
    endloop
  endfacet
  facet normal 0 -0.913548 0.40673
    outer loop
      vertex 29.7036 1.90803 1.49623
      vertex 30 2.09232 1.91016
      vertex 29.5927 2.09232 1.91016
    endloop
  endfacet
  facet normal 0 -0.913751 0.406275
    outer loop
      vertex 30 1.90526 1.49
      vertex 29.7036 1.90803 1.49623
      vertex 29.7053 1.90526 1.49
    endloop
  endfacet
  facet normal 1.13013e-05 -0.913551 0.406723
    outer loop
      vertex 29.7036 1.90803 1.49623
      vertex 30 1.90526 1.49
      vertex 30 2.09232 1.91016
    endloop
  endfacet
  facet normal 0 -0.913551 0.406723
    outer loop
      vertex 2.2 1.90526 1.49
      vertex 29.1223 2.09232 1.91016
      vertex 2.2 2.09232 1.91016
    endloop
  endfacet
  facet normal 0 -0.913551 0.406723
    outer loop
      vertex 29.1223 2.09232 1.91016
      vertex 2.2 1.90526 1.49
      vertex 29.3649 1.90526 1.49
    endloop
  endfacet
  facet normal 0 -0.309008 -0.95106
    outer loop
      vertex 2.2 0.89482 4.5998
      vertex 28.8339 0.457405 4.74192
      vertex 2.2 0.457405 4.74192
    endloop
  endfacet
  facet normal 0 -0.309008 -0.95106
    outer loop
      vertex 28.8339 0.457405 4.74192
      vertex 2.2 0.89482 4.5998
      vertex 28.872 0.89482 4.5998
    endloop
  endfacet
  facet normal 0 -0.499993 -0.86603
    outer loop
      vertex 2.2 1.29313 4.36984
      vertex 28.872 0.89482 4.5998
      vertex 2.2 0.89482 4.5998
    endloop
  endfacet
  facet normal 0 -0.499993 -0.86603
    outer loop
      vertex 28.872 0.89482 4.5998
      vertex 2.2 1.29313 4.36984
      vertex 28.9336 1.29313 4.36984
    endloop
  endfacet
  facet normal -0 0.809016 0.587786
    outer loop
      vertex 29.805 -1.63492 1.11791
      vertex 30 -1.90526 1.49
      vertex 30 -1.63492 1.11791
    endloop
  endfacet
  facet normal 0 0.809016 0.587786
    outer loop
      vertex 30 -1.90526 1.49
      vertex 29.805 -1.63492 1.11791
      vertex 29.7053 -1.90526 1.49
    endloop
  endfacet
  facet normal -5.68954e-07 0.808996 0.587814
    outer loop
      vertex 2.2 -1.63492 1.11791
      vertex 29.3649 -1.90526 1.49
      vertex 29.3929 -1.8701 1.44161
    endloop
  endfacet
  facet normal -0 0.809019 0.587782
    outer loop
      vertex 2.2 -1.63492 1.11791
      vertex 29.3929 -1.8701 1.44161
      vertex 29.5797 -1.63492 1.11791
    endloop
  endfacet
  facet normal 0 0.809016 0.587786
    outer loop
      vertex 29.3649 -1.90526 1.49
      vertex 2.2 -1.63492 1.11791
      vertex 2.2 -1.90526 1.49
    endloop
  endfacet
  facet normal 0 -0.978145 -0.207922
    outer loop
      vertex 2.2 2.18795 2.81996
      vertex 29.2283 2.09232 3.26984
      vertex 2.2 2.09232 3.26984
    endloop
  endfacet
  facet normal 1.21035e-07 -0.978144 -0.207929
    outer loop
      vertex 29.2283 2.09232 3.26984
      vertex 2.2 2.18795 2.81996
      vertex 29.3449 2.18482 2.8347
    endloop
  endfacet
  facet normal 0 -0.978189 -0.207716
    outer loop
      vertex 29.3449 2.18482 2.8347
      vertex 2.2 2.18795 2.81996
      vertex 29.3489 2.18795 2.81996
    endloop
  endfacet
  facet normal -0 0.10453 0.994522
    outer loop
      vertex 2.2 0 0.39
      vertex 29.976 -0.396123 0.431635
      vertex 30 0 0.39
    endloop
  endfacet
  facet normal -2.79191e-08 0.104529 0.994522
    outer loop
      vertex 29.976 -0.396123 0.431635
      vertex 2.2 0 0.39
      vertex 29.9722 -0.457405 0.438076
    endloop
  endfacet
  facet normal 0 0.10453 0.994522
    outer loop
      vertex 29.9722 -0.457405 0.438076
      vertex 2.2 0 0.39
      vertex 2.2 -0.457405 0.438076
    endloop
  endfacet
  facet normal 0 0.10453 0.994522
    outer loop
      vertex 30 -0.457405 0.438076
      vertex 30 0 0.39
      vertex 29.9871 -0.457405 0.438076
    endloop
  endfacet
  facet normal 0 -1 0
    outer loop
      vertex 28.8626 2.18795 2.36004
      vertex 29.015 2.18795 2.0961
      vertex 29.4721 2.18795 2.36004
    endloop
  endfacet
  facet normal 0 -1 0
    outer loop
      vertex 28.8626 2.18795 2.36004
      vertex 29.3489 2.18795 2.81996
      vertex 2.2 2.18795 2.81996
    endloop
  endfacet
  facet normal 0 -1 0
    outer loop
      vertex 28.8626 2.18795 2.36004
      vertex 2.2 2.18795 2.81996
      vertex 2.2 2.18795 2.36004
    endloop
  endfacet
  facet normal 0 -1 0
    outer loop
      vertex 29.4721 2.18795 2.36004
      vertex 29.3489 2.18795 2.81996
      vertex 28.8626 2.18795 2.36004
    endloop
  endfacet
  facet normal 0 -1 0
    outer loop
      vertex 29.3489 2.18795 2.81996
      vertex 29.4721 2.18795 2.36004
      vertex 30 2.18795 2.6648
    endloop
  endfacet
  facet normal 0 -1 -0
    outer loop
      vertex 30 2.18795 2.6648
      vertex 29.4721 2.18795 2.36004
      vertex 30 2.18795 2.36004
    endloop
  endfacet
  facet normal 0 -1 0
    outer loop
      vertex 30 2.18795 2.6648
      vertex 33.1248 2.18795 5
      vertex 29.3489 2.18795 2.81996
    endloop
  endfacet
  facet normal 0 -1 -0
    outer loop
      vertex 33.1248 2.18795 5
      vertex 30 2.18795 2.6648
      vertex 34.0447 2.18795 5
    endloop
  endfacet
  facet normal -0 0.499998 0.866027
    outer loop
      vertex 29.949 -0.89482 0.5802
      vertex 30 -1.29313 0.810163
      vertex 30 -0.89482 0.5802
    endloop
  endfacet
  facet normal 0 0.499998 0.866027
    outer loop
      vertex 30 -1.29313 0.810163
      vertex 29.949 -0.89482 0.5802
      vertex 29.8874 -1.29313 0.810163
    endloop
  endfacet
  facet normal -0 0.500001 0.866025
    outer loop
      vertex 2.2 -0.89482 0.5802
      vertex 29.8553 -0.999595 0.640692
      vertex 29.8902 -0.89482 0.5802
    endloop
  endfacet
  facet normal -0.0441001 0.510494 0.85875
    outer loop
      vertex 29.7899 -1.19563 0.753872
      vertex 29.7574 -1.29313 0.810163
      vertex 29.7632 -1.27577 0.800141
    endloop
  endfacet
  facet normal -1.83025e-08 0.499997 0.866027
    outer loop
      vertex 29.8553 -0.999595 0.640692
      vertex 2.2 -0.89482 0.5802
      vertex 29.7899 -1.19563 0.753872
    endloop
  endfacet
  facet normal -3.98692e-08 0.499996 0.866028
    outer loop
      vertex 2.2 -0.89482 0.5802
      vertex 29.7574 -1.29313 0.810163
      vertex 29.7899 -1.19563 0.753872
    endloop
  endfacet
  facet normal 0 0.499998 0.866027
    outer loop
      vertex 29.7574 -1.29313 0.810163
      vertex 2.2 -0.89482 0.5802
      vertex 2.2 -1.29313 0.810163
    endloop
  endfacet
  facet normal 0 -0.809016 -0.587786
    outer loop
      vertex 2.2 1.90526 3.69
      vertex 29.0161 1.63492 4.06209
      vertex 2.2 1.63492 4.06209
    endloop
  endfacet
  facet normal 0 -0.809016 -0.587786
    outer loop
      vertex 29.0161 1.63492 4.06209
      vertex 2.2 1.90526 3.69
      vertex 29.1158 1.90526 3.69
    endloop
  endfacet
  facet normal 0 0.913548 0.40673
    outer loop
      vertex 30 -2.09232 1.91016
      vertex 29.7036 -1.90803 1.49623
      vertex 29.5927 -2.09232 1.91016
    endloop
  endfacet
  facet normal 1.13013e-05 0.913551 0.406723
    outer loop
      vertex 30 -1.90526 1.49
      vertex 29.7036 -1.90803 1.49623
      vertex 30 -2.09232 1.91016
    endloop
  endfacet
  facet normal 0 0.913751 0.406275
    outer loop
      vertex 29.7036 -1.90803 1.49623
      vertex 30 -1.90526 1.49
      vertex 29.7053 -1.90526 1.49
    endloop
  endfacet
  facet normal -0 0.913551 0.406723
    outer loop
      vertex 2.2 -1.90526 1.49
      vertex 29.1223 -2.09232 1.91016
      vertex 29.3649 -1.90526 1.49
    endloop
  endfacet
  facet normal 0 0.913551 0.406723
    outer loop
      vertex 29.1223 -2.09232 1.91016
      vertex 2.2 -1.90526 1.49
      vertex 2.2 -2.09232 1.91016
    endloop
  endfacet
  facet normal 0 -0.913551 -0.406723
    outer loop
      vertex 2.2 2.09232 3.26984
      vertex 29.1158 1.90526 3.69
      vertex 2.2 1.90526 3.69
    endloop
  endfacet
  facet normal 0 -0.913551 -0.406723
    outer loop
      vertex 29.1158 1.90526 3.69
      vertex 2.2 2.09232 3.26984
      vertex 29.2283 2.09232 3.26984
    endloop
  endfacet
  facet normal -0 0.669128 0.743147
    outer loop
      vertex 29.8874 -1.29313 0.810163
      vertex 30 -1.63492 1.11791
      vertex 30 -1.29313 0.810163
    endloop
  endfacet
  facet normal 0 0.669128 0.743147
    outer loop
      vertex 30 -1.63492 1.11791
      vertex 29.8874 -1.29313 0.810163
      vertex 29.805 -1.63492 1.11791
    endloop
  endfacet
  facet normal -1.43628e-07 0.669115 0.743159
    outer loop
      vertex 2.2 -1.29313 0.810163
      vertex 29.6571 -1.48619 0.983993
      vertex 29.7408 -1.32502 0.838881
    endloop
  endfacet
  facet normal -0 0.669184 0.743097
    outer loop
      vertex 2.2 -1.29313 0.810163
      vertex 29.7408 -1.32502 0.838881
      vertex 29.7574 -1.29313 0.810163
    endloop
  endfacet
  facet normal 5.079e-08 0.66913 0.743145
    outer loop
      vertex 29.6571 -1.48619 0.983993
      vertex 2.2 -1.29313 0.810163
      vertex 29.5797 -1.63492 1.11791
    endloop
  endfacet
  facet normal 0 0.669128 0.743147
    outer loop
      vertex 29.5797 -1.63492 1.11791
      vertex 2.2 -1.29313 0.810163
      vertex 2.2 -1.63492 1.11791
    endloop
  endfacet
  facet normal 0 -0.104539 -0.994521
    outer loop
      vertex 2.2 0.457405 4.74192
      vertex 28.821 0 4.79
      vertex 2.2 0 4.79
    endloop
  endfacet
  facet normal 0 -0.104539 -0.994521
    outer loop
      vertex 28.821 0 4.79
      vertex 2.2 0.457405 4.74192
      vertex 28.8339 0.457405 4.74192
    endloop
  endfacet
  facet normal 0 1 0
    outer loop
      vertex 29.4721 -2.18795 2.36004
      vertex 29.015 -2.18795 2.0961
      vertex 28.8626 -2.18795 2.36004
    endloop
  endfacet
  facet normal 0 1 0
    outer loop
      vertex 30 -2.18795 2.6648
      vertex 33.1248 -2.18795 5
      vertex 34.0447 -2.18795 5
    endloop
  endfacet
  facet normal 0 1 0
    outer loop
      vertex 33.1248 -2.18795 5
      vertex 30 -2.18795 2.6648
      vertex 29.3489 -2.18795 2.81996
    endloop
  endfacet
  facet normal 0 1 -0
    outer loop
      vertex 29.4721 -2.18795 2.36004
      vertex 29.3489 -2.18795 2.81996
      vertex 30 -2.18795 2.6648
    endloop
  endfacet
  facet normal 0 1 0
    outer loop
      vertex 29.4721 -2.18795 2.36004
      vertex 30 -2.18795 2.6648
      vertex 30 -2.18795 2.36004
    endloop
  endfacet
  facet normal 0 1 0
    outer loop
      vertex 29.3489 -2.18795 2.81996
      vertex 29.4721 -2.18795 2.36004
      vertex 28.8626 -2.18795 2.36004
    endloop
  endfacet
  facet normal 0 1 0
    outer loop
      vertex 29.3489 -2.18795 2.81996
      vertex 28.8626 -2.18795 2.36004
      vertex 2.2 -2.18795 2.81996
    endloop
  endfacet
  facet normal 0 1 0
    outer loop
      vertex 2.2 -2.18795 2.81996
      vertex 28.8626 -2.18795 2.36004
      vertex 2.2 -2.18795 2.36004
    endloop
  endfacet
  facet normal 0 -0.499998 0.866027
    outer loop
      vertex 30 1.29313 0.810163
      vertex 29.949 0.89482 0.5802
      vertex 30 0.89482 0.5802
    endloop
  endfacet
  facet normal 0 -0.499998 0.866027
    outer loop
      vertex 29.949 0.89482 0.5802
      vertex 30 1.29313 0.810163
      vertex 29.8874 1.29313 0.810163
    endloop
  endfacet
  facet normal -1.83025e-08 -0.499997 0.866027
    outer loop
      vertex 2.2 0.89482 0.5802
      vertex 29.8553 0.999595 0.640692
      vertex 29.7899 1.19563 0.753872
    endloop
  endfacet
  facet normal -0.0441001 -0.510494 0.85875
    outer loop
      vertex 29.7574 1.29313 0.810163
      vertex 29.7899 1.19563 0.753872
      vertex 29.7632 1.27577 0.800141
    endloop
  endfacet
  facet normal 0 -0.499998 0.866027
    outer loop
      vertex 2.2 0.89482 0.5802
      vertex 29.7574 1.29313 0.810163
      vertex 2.2 1.29313 0.810163
    endloop
  endfacet
  facet normal -3.98692e-08 -0.499996 0.866028
    outer loop
      vertex 29.7574 1.29313 0.810163
      vertex 2.2 0.89482 0.5802
      vertex 29.7899 1.19563 0.753872
    endloop
  endfacet
  facet normal 0 -0.500001 0.866025
    outer loop
      vertex 29.8553 0.999595 0.640692
      vertex 2.2 0.89482 0.5802
      vertex 29.8902 0.89482 0.5802
    endloop
  endfacet
  facet normal 0 -0.669132 -0.743144
    outer loop
      vertex 2.2 1.63492 4.06209
      vertex 28.9336 1.29313 4.36984
      vertex 2.2 1.29313 4.36984
    endloop
  endfacet
  facet normal 0 -0.669132 -0.743144
    outer loop
      vertex 28.9336 1.29313 4.36984
      vertex 2.2 1.63492 4.06209
      vertex 29.0161 1.63492 4.06209
    endloop
  endfacet
  facet normal 0 0.669132 -0.743144
    outer loop
      vertex 2.2 -1.63492 4.06209
      vertex 28.9336 -1.29313 4.36984
      vertex 29.0161 -1.63492 4.06209
    endloop
  endfacet
  facet normal 0 0.669132 -0.743144
    outer loop
      vertex 28.9336 -1.29313 4.36984
      vertex 2.2 -1.63492 4.06209
      vertex 2.2 -1.29313 4.36984
    endloop
  endfacet
  facet normal -1 0 0
    outer loop
      vertex 30 -0.457405 0.438076
      vertex 30 -0.457405 0.445513
      vertex 30 0 0.39
    endloop
  endfacet
  facet normal -1 0 0
    outer loop
      vertex 30 -0.89482 0.5802
      vertex 30 -0.457405 0.445513
      vertex 30 -0.457405 0.438076
    endloop
  endfacet
  facet normal -1 0 0
    outer loop
      vertex 30 -0.89482 0.5802
      vertex 30 -0.89482 0.609625
      vertex 30 -0.457405 0.445513
    endloop
  endfacet
  facet normal -1 0 0
    outer loop
      vertex 30 -1.29313 0.810163
      vertex 30 -0.89482 0.609625
      vertex 30 -0.89482 0.5802
    endloop
  endfacet
  facet normal -1 0 0
    outer loop
      vertex 30 -1.29313 0.810163
      vertex 30 -1.29313 0.875163
      vertex 30 -0.89482 0.609625
    endloop
  endfacet
  facet normal -1 0 0
    outer loop
      vertex 30 -1.63492 1.11791
      vertex 30 -1.29313 0.875163
      vertex 30 -1.29313 0.810163
    endloop
  endfacet
  facet normal -1 0 0
    outer loop
      vertex 30 -1.63492 1.11791
      vertex 30 -1.63492 1.23052
      vertex 30 -1.29313 0.875163
    endloop
  endfacet
  facet normal -1 0 0
    outer loop
      vertex 30 -1.90526 1.49
      vertex 30 -1.63492 1.23052
      vertex 30 -1.63492 1.11791
    endloop
  endfacet
  facet normal -1 0 0
    outer loop
      vertex 30 -1.90526 1.49
      vertex 30 -1.90526 1.66017
      vertex 30 -1.63492 1.23052
    endloop
  endfacet
  facet normal -1 0 0
    outer loop
      vertex 30 -1.90526 1.49
      vertex 30 -1.91127 1.67577
      vertex 30 -1.90526 1.66017
    endloop
  endfacet
  facet normal -1 0 0
    outer loop
      vertex 30 -2.09232 1.91016
      vertex 30 -1.91127 1.67577
      vertex 30 -1.90526 1.49
    endloop
  endfacet
  facet normal -1 0 0
    outer loop
      vertex 30 -2.09232 1.91016
      vertex 30 -2.09232 2.14533
      vertex 30 -1.91127 1.67577
    endloop
  endfacet
  facet normal -1 0 0
    outer loop
      vertex 30 -2.18795 2.36004
      vertex 30 -2.09232 2.14533
      vertex 30 -2.09232 1.91016
    endloop
  endfacet
  facet normal -1 0 0
    outer loop
      vertex 30 -2.09232 2.14533
      vertex 30 -2.18795 2.36004
      vertex 30 -2.18258 2.63564
    endloop
  endfacet
  facet normal -1 -0 0
    outer loop
      vertex 30 -2.18258 2.63564
      vertex 30 -2.18795 2.36004
      vertex 30 -2.18795 2.6648
    endloop
  endfacet
  facet normal -1 0 0
    outer loop
      vertex 30 2.18795 2.36004
      vertex 30 2.18258 2.63564
      vertex 30 2.18795 2.6648
    endloop
  endfacet
  facet normal -1 0 0
    outer loop
      vertex 30 2.09232 2.14533
      vertex 30 2.18795 2.36004
      vertex 30 2.09232 1.91016
    endloop
  endfacet
  facet normal -1 -0 0
    outer loop
      vertex 30 2.18795 2.36004
      vertex 30 2.09232 2.14533
      vertex 30 2.18258 2.63564
    endloop
  endfacet
  facet normal -1 -0 0
    outer loop
      vertex 30 2.09232 1.91016
      vertex 30 1.91127 1.67577
      vertex 30 2.09232 2.14533
    endloop
  endfacet
  facet normal -1 0 0
    outer loop
      vertex 30 1.90526 1.49
      vertex 30 1.91127 1.67577
      vertex 30 2.09232 1.91016
    endloop
  endfacet
  facet normal -1 0 0
    outer loop
      vertex 30 1.90526 1.49
      vertex 30 1.90526 1.66017
      vertex 30 1.91127 1.67577
    endloop
  endfacet
  facet normal -1 0 0
    outer loop
      vertex 30 1.63492 1.23052
      vertex 30 1.90526 1.49
      vertex 30 1.63492 1.11791
    endloop
  endfacet
  facet normal -1 -0 0
    outer loop
      vertex 30 1.90526 1.49
      vertex 30 1.63492 1.23052
      vertex 30 1.90526 1.66017
    endloop
  endfacet
  facet normal -1 0 0
    outer loop
      vertex 30 1.29313 0.875163
      vertex 30 1.63492 1.11791
      vertex 30 1.29313 0.810163
    endloop
  endfacet
  facet normal -1 -0 0
    outer loop
      vertex 30 1.63492 1.11791
      vertex 30 1.29313 0.875163
      vertex 30 1.63492 1.23052
    endloop
  endfacet
  facet normal -1 0 0
    outer loop
      vertex 30 0.89482 0.609625
      vertex 30 1.29313 0.810163
      vertex 30 0.89482 0.5802
    endloop
  endfacet
  facet normal -1 -0 0
    outer loop
      vertex 30 1.29313 0.810163
      vertex 30 0.89482 0.609625
      vertex 30 1.29313 0.875163
    endloop
  endfacet
  facet normal -1 0 0
    outer loop
      vertex 30 0.457405 0.445513
      vertex 30 0.89482 0.5802
      vertex 30 0.457405 0.438076
    endloop
  endfacet
  facet normal -1 -0 0
    outer loop
      vertex 30 0.89482 0.5802
      vertex 30 0.457405 0.445513
      vertex 30 0.89482 0.609625
    endloop
  endfacet
  facet normal -1 0 -0
    outer loop
      vertex 30 0.457405 0.445513
      vertex 30 0.457405 0.438076
      vertex 30 0 0.39
    endloop
  endfacet
  facet normal 0 0.104539 -0.994521
    outer loop
      vertex 2.2 -0.457405 4.74192
      vertex 28.821 0 4.79
      vertex 28.8339 -0.457405 4.74192
    endloop
  endfacet
  facet normal 0 0.104539 -0.994521
    outer loop
      vertex 28.821 0 4.79
      vertex 2.2 -0.457405 4.74192
      vertex 2.2 0 4.79
    endloop
  endfacet
  facet normal 0 0.913551 -0.406723
    outer loop
      vertex 2.2 -2.09232 3.26984
      vertex 29.1158 -1.90526 3.69
      vertex 29.2283 -2.09232 3.26984
    endloop
  endfacet
  facet normal 0 0.913551 -0.406723
    outer loop
      vertex 29.1158 -1.90526 3.69
      vertex 2.2 -2.09232 3.26984
      vertex 2.2 -1.90526 3.69
    endloop
  endfacet
  facet normal 0.475505 0.309057 -0.823638
    outer loop
      vertex 28.872 -0.89482 4.5998
      vertex 29.2809 -0.457405 5
      vertex 29.5652 -0.89482 5
    endloop
  endfacet
  facet normal 0.475533 0.309026 -0.823633
    outer loop
      vertex 29.2809 -0.457405 5
      vertex 28.872 -0.89482 4.5998
      vertex 28.8339 -0.457405 4.74192
    endloop
  endfacet
  facet normal -0.499146 -0.104489 0.860195
    outer loop
      vertex 30 0 0.39
      vertex 29.9871 0.457405 0.438076
      vertex 29.976 0.457405 0.431635
    endloop
  endfacet
  facet normal -0.497261 -0.104529 0.861281
    outer loop
      vertex 30 0 0.39
      vertex 37.8886 0.457405 5
      vertex 30 0.457405 0.445513
    endloop
  endfacet
  facet normal -0.497256 -0.104581 0.861278
    outer loop
      vertex 37.8886 0.457405 5
      vertex 30 0 0.39
      vertex 37.9848 0 5
    endloop
  endfacet
  facet normal 0.866023 -0.000684869 0.500004
    outer loop
      vertex 29.7574 -1.29313 0.810163
      vertex 29.7899 -1.29313 0.753872
      vertex 29.7632 -1.27577 0.800141
    endloop
  endfacet
  facet normal 0.866023 -0.000528552 0.500004
    outer loop
      vertex 29.7899 -1.29313 0.753872
      vertex 29.7574 -1.29313 0.810163
      vertex 29.7408 -1.32502 0.838881
    endloop
  endfacet
  facet normal -0.203358 0.913555 0.352226
    outer loop
      vertex 30 -1.91127 1.67577
      vertex 34.9444 -2.09232 5
      vertex 35.4882 -1.97127 5
    endloop
  endfacet
  facet normal -0.203367 0.913547 0.35224
    outer loop
      vertex 34.9444 -2.09232 5
      vertex 30 -1.91127 1.67577
      vertex 30 -2.09232 2.14533
    endloop
  endfacet
  facet normal -0.203343 0.913549 0.352251
    outer loop
      vertex 29.7036 -1.90803 1.49623
      vertex 29.2399 -2.09232 1.7065
      vertex 29.5927 -2.09232 1.91016
    endloop
  endfacet
  facet normal -0.203357 0.913555 0.352226
    outer loop
      vertex 29.2399 -2.09232 1.7065
      vertex 29.7036 -1.90803 1.49623
      vertex 29.45 -1.90526 1.34263
    endloop
  endfacet
  facet normal -0.103966 0.978143 0.180076
    outer loop
      vertex 30 -2.18258 2.63564
      vertex 34.0447 -2.18795 5
      vertex 34.3166 -2.15905 5
    endloop
  endfacet
  facet normal -0.103997 0.97813 0.180129
    outer loop
      vertex 34.0447 -2.18795 5
      vertex 30 -2.18258 2.63564
      vertex 30 -2.18795 2.6648
    endloop
  endfacet
  facet normal -0.103806 0.978215 0.179775
    outer loop
      vertex 29.4721 -2.18795 2.36004
      vertex 29.4753 -2.18544 2.34823
      vertex 29.015 -2.18795 2.0961
    endloop
  endfacet
  facet normal 0.865994 -6.59214e-05 0.500054
    outer loop
      vertex 29.3649 1.90526 1.49
      vertex 29.2399 2.09232 1.7065
      vertex 29.1223 2.09232 1.91016
    endloop
  endfacet
  facet normal 0.863005 -0.00794253 0.505133
    outer loop
      vertex 29.2399 2.09232 1.7065
      vertex 29.3649 1.90526 1.49
      vertex 29.3929 1.8701 1.44161
    endloop
  endfacet
  facet normal 0.865786 -0.000929968 0.500414
    outer loop
      vertex 29.7408 1.32502 0.838881
      vertex 29.7899 1.29313 0.753872
      vertex 29.6571 1.48619 0.983993
    endloop
  endfacet
  facet normal 0.433013 -0.499969 -0.750021
    outer loop
      vertex 29.5652 0.89482 5
      vertex 28.9336 1.29313 4.36984
      vertex 30.0251 1.29313 5
    endloop
  endfacet
  facet normal 0.433003 -0.499981 -0.750019
    outer loop
      vertex 28.9336 1.29313 4.36984
      vertex 29.5652 0.89482 5
      vertex 28.872 0.89482 4.5998
    endloop
  endfacet
  facet normal 0.203377 -0.913537 -0.352262
    outer loop
      vertex 29.2283 2.09232 3.26984
      vertex 31.3848 1.90526 5
      vertex 29.1158 1.90526 3.69
    endloop
  endfacet
  facet normal 0.203365 -0.913545 -0.352248
    outer loop
      vertex 31.3848 1.90526 5
      vertex 29.2283 2.09232 3.26984
      vertex 32.2251 2.09232 5
    endloop
  endfacet
  facet normal -0.203219 -0.913673 0.351999
    outer loop
      vertex 30 1.90526 1.66017
      vertex 35.4882 1.97127 5
      vertex 30 1.91127 1.67577
    endloop
  endfacet
  facet normal -0.203323 -0.913584 0.352169
    outer loop
      vertex 35.4882 1.97127 5
      vertex 30 1.90526 1.66017
      vertex 35.7848 1.90526 5
    endloop
  endfacet
  facet normal -0.202688 -0.914124 0.351132
    outer loop
      vertex 29.7053 1.90526 1.49
      vertex 29.7036 1.90803 1.49623
      vertex 29.45 1.90526 1.34263
    endloop
  endfacet
  facet normal -0.103969 0.978142 0.180078
    outer loop
      vertex 30 -2.09232 2.14533
      vertex 34.3166 -2.15905 5
      vertex 34.9444 -2.09232 5
    endloop
  endfacet
  facet normal -0.10396 0.978146 0.180065
    outer loop
      vertex 34.3166 -2.15905 5
      vertex 30 -2.09232 2.14533
      vertex 30 -2.18258 2.63564
    endloop
  endfacet
  facet normal -0.103963 0.978146 0.180062
    outer loop
      vertex 29.5927 -2.09232 1.91016
      vertex 29.015 -2.18795 2.0961
      vertex 29.4753 -2.18544 2.34823
    endloop
  endfacet
  facet normal -0.103956 0.978143 0.180083
    outer loop
      vertex 29.015 -2.18795 2.0961
      vertex 29.5927 -2.09232 1.91016
      vertex 29.2399 -2.09232 1.7065
    endloop
  endfacet
  facet normal -0.103997 -0.97813 0.180129
    outer loop
      vertex 30 2.18258 2.63564
      vertex 34.0447 2.18795 5
      vertex 30 2.18795 2.6648
    endloop
  endfacet
  facet normal -0.103966 -0.978143 0.180076
    outer loop
      vertex 34.0447 2.18795 5
      vertex 30 2.18258 2.63564
      vertex 34.3166 2.15905 5
    endloop
  endfacet
  facet normal -0.103806 -0.978215 0.179775
    outer loop
      vertex 29.4753 2.18544 2.34823
      vertex 29.4721 2.18795 2.36004
      vertex 29.015 2.18795 2.0961
    endloop
  endfacet
  facet normal -0.475526 -0.309018 0.82364
    outer loop
      vertex 30 0.457405 0.445513
      vertex 37.6044 0.89482 5
      vertex 30 0.89482 0.609625
    endloop
  endfacet
  facet normal -0.475536 -0.308968 0.823653
    outer loop
      vertex 37.6044 0.89482 5
      vertex 30 0.457405 0.445513
      vertex 37.8886 0.457405 5
    endloop
  endfacet
  facet normal -0.477353 -0.308869 0.822639
    outer loop
      vertex 29.949 0.89482 0.5802
      vertex 29.976 0.457405 0.431635
      vertex 29.9871 0.457405 0.438076
    endloop
  endfacet
  facet normal -0.4758 -0.309055 0.823468
    outer loop
      vertex 29.976 0.457405 0.431635
      vertex 29.949 0.89482 0.5802
      vertex 29.9049 0.89482 0.554719
    endloop
  endfacet
  facet normal -0.10396 -0.978146 0.180065
    outer loop
      vertex 30 2.09232 2.14533
      vertex 34.3166 2.15905 5
      vertex 30 2.18258 2.63564
    endloop
  endfacet
  facet normal -0.103969 -0.978142 0.180078
    outer loop
      vertex 34.3166 2.15905 5
      vertex 30 2.09232 2.14533
      vertex 34.9444 2.09232 5
    endloop
  endfacet
  facet normal -0.103963 -0.978146 0.180062
    outer loop
      vertex 29.015 2.18795 2.0961
      vertex 29.5927 2.09232 1.91016
      vertex 29.4753 2.18544 2.34823
    endloop
  endfacet
  facet normal -0.103956 -0.978143 0.180083
    outer loop
      vertex 29.5927 2.09232 1.91016
      vertex 29.015 2.18795 2.0961
      vertex 29.2399 2.09232 1.7065
    endloop
  endfacet
  facet normal 0.866194 1.76823e-05 0.499708
    outer loop
      vertex 29.9049 0.89482 0.554719
      vertex 29.8553 0.999595 0.640692
      vertex 29.8902 0.89482 0.5802
    endloop
  endfacet
  facet normal 0.866489 0.000576867 0.499196
    outer loop
      vertex 29.8553 0.999595 0.640692
      vertex 29.9049 0.89482 0.554719
      vertex 29.7899 1.29313 0.753872
    endloop
  endfacet
  facet normal 0.866194 3.05113e-05 0.499708
    outer loop
      vertex 29.9523 0.563587 0.472576
      vertex 29.9049 0.89482 0.554719
      vertex 29.8902 0.89482 0.5802
    endloop
  endfacet
  facet normal 0.864205 -0.00110474 0.503138
    outer loop
      vertex 29.9049 0.89482 0.554719
      vertex 29.9523 0.563587 0.472576
      vertex 29.976 0.457405 0.431635
    endloop
  endfacet
  facet normal 0.866367 0 0.499407
    outer loop
      vertex 30 0 0.39
      vertex 29.976 -0.396123 0.431635
      vertex 29.976 -0.457405 0.431635
    endloop
  endfacet
  facet normal 0.866367 0 0.499407
    outer loop
      vertex 30 0 0.39
      vertex 29.976 0.457405 0.431635
      vertex 29.976 0.396123 0.431635
    endloop
  endfacet
  facet normal -0.371573 0.669133 0.64358
    outer loop
      vertex 30 -1.29313 0.875163
      vertex 36.5289 -1.63492 5
      vertex 37.1444 -1.29313 5
    endloop
  endfacet
  facet normal -0.371574 0.669129 0.643583
    outer loop
      vertex 36.5289 -1.63492 5
      vertex 30 -1.29313 0.875163
      vertex 30 -1.63492 1.23052
    endloop
  endfacet
  facet normal -0.37143 0.669115 0.643681
    outer loop
      vertex 29.8874 -1.29313 0.810163
      vertex 29.636 -1.63492 1.02039
      vertex 29.805 -1.63492 1.11791
    endloop
  endfacet
  facet normal -0.371563 0.669145 0.643573
    outer loop
      vertex 29.636 -1.63492 1.02039
      vertex 29.8874 -1.29313 0.810163
      vertex 29.7899 -1.29313 0.753872
    endloop
  endfacet
  facet normal -0.499146 0.104489 0.860195
    outer loop
      vertex 29.9871 -0.457405 0.438076
      vertex 30 0 0.39
      vertex 29.976 -0.457405 0.431635
    endloop
  endfacet
  facet normal -0.497256 0.104581 0.861278
    outer loop
      vertex 30 0 0.39
      vertex 37.8886 -0.457405 5
      vertex 37.9848 0 5
    endloop
  endfacet
  facet normal -0.497261 0.104529 0.861281
    outer loop
      vertex 37.8886 -0.457405 5
      vertex 30 0 0.39
      vertex 30 -0.457405 0.445513
    endloop
  endfacet
  facet normal -0.432994 0.500056 0.749973
    outer loop
      vertex 30 -0.89482 0.609625
      vertex 37.1444 -1.29313 5
      vertex 37.6044 -0.89482 5
    endloop
  endfacet
  facet normal -0.433015 0.499997 0.750001
    outer loop
      vertex 37.1444 -1.29313 5
      vertex 30 -0.89482 0.609625
      vertex 30 -1.29313 0.875163
    endloop
  endfacet
  facet normal -0.433281 0.499949 0.749879
    outer loop
      vertex 29.9049 -0.89482 0.554719
      vertex 29.8874 -1.29313 0.810163
      vertex 29.949 -0.89482 0.5802
    endloop
  endfacet
  facet normal -0.433006 0.500012 0.749996
    outer loop
      vertex 29.8874 -1.29313 0.810163
      vertex 29.9049 -0.89482 0.554719
      vertex 29.7899 -1.29313 0.753872
    endloop
  endfacet
  facet normal 0.103975 0.97814 -0.180089
    outer loop
      vertex 29.3449 -2.18482 2.8347
      vertex 32.2251 -2.09232 5
      vertex 32.9078 -2.16489 5
    endloop
  endfacet
  facet normal 0.103962 0.978144 -0.180072
    outer loop
      vertex 32.2251 -2.09232 5
      vertex 29.3449 -2.18482 2.8347
      vertex 29.2283 -2.09232 3.26984
    endloop
  endfacet
  facet normal 0.865994 0.000198513 0.500054
    outer loop
      vertex 29.2399 -2.09232 1.7065
      vertex 29.1223 -2.09232 1.91016
      vertex 28.9658 -2.14994 2.18121
    endloop
  endfacet
  facet normal 0.861275 -0.00368239 0.508127
    outer loop
      vertex 29.9722 0.457405 0.438076
      vertex 29.976 0.457405 0.431635
      vertex 29.9523 0.563587 0.472576
    endloop
  endfacet
  facet normal 0.86128 0 0.50813
    outer loop
      vertex 29.976 0.457405 0.431635
      vertex 29.9722 0.457405 0.438076
      vertex 29.976 0.396123 0.431635
    endloop
  endfacet
  facet normal 0.86128 0 0.50813
    outer loop
      vertex 29.9722 -0.457405 0.438076
      vertex 29.976 -0.457405 0.431635
      vertex 29.976 -0.396123 0.431635
    endloop
  endfacet
  facet normal 0.861275 0.00368239 0.508127
    outer loop
      vertex 29.976 -0.457405 0.431635
      vertex 29.9722 -0.457405 0.438076
      vertex 29.9523 -0.563587 0.472576
    endloop
  endfacet
  facet normal 0.865842 0 0.500318
    outer loop
      vertex 29.8553 -0.999595 0.640692
      vertex 29.7899 -1.19563 0.753872
      vertex 29.7899 -1.29313 0.753872
    endloop
  endfacet
  facet normal 0.865842 0 0.500318
    outer loop
      vertex 29.8553 0.999595 0.640692
      vertex 29.7899 1.29313 0.753872
      vertex 29.7899 1.19563 0.753872
    endloop
  endfacet
  facet normal 0.866134 -0 0.499812
    outer loop
      vertex 29.7899 -1.29313 0.753872
      vertex 29.7899 -1.19563 0.753872
      vertex 29.7632 -1.27577 0.800141
    endloop
  endfacet
  facet normal 0.866134 -0 0.499812
    outer loop
      vertex 29.7899 1.19563 0.753872
      vertex 29.7899 1.29313 0.753872
      vertex 29.7632 1.27577 0.800141
    endloop
  endfacet
  facet normal 0.49727 -0.104476 -0.861282
    outer loop
      vertex 29.1848 0 5
      vertex 28.8339 0.457405 4.74192
      vertex 29.2809 0.457405 5
    endloop
  endfacet
  facet normal 0.497188 -0.104559 -0.861319
    outer loop
      vertex 28.8339 0.457405 4.74192
      vertex 29.1848 0 5
      vertex 28.821 0 4.79
    endloop
  endfacet
  facet normal 0.293888 0.809022 -0.509031
    outer loop
      vertex 29.1158 -1.90526 3.69
      vertex 30.6406 -1.63492 5
      vertex 31.3848 -1.90526 5
    endloop
  endfacet
  facet normal 0.293895 0.809016 -0.509038
    outer loop
      vertex 30.6406 -1.63492 5
      vertex 29.1158 -1.90526 3.69
      vertex 29.0161 -1.63492 4.06209
    endloop
  endfacet
  facet normal -0.203367 -0.913547 0.35224
    outer loop
      vertex 30 1.91127 1.67577
      vertex 34.9444 2.09232 5
      vertex 30 2.09232 2.14533
    endloop
  endfacet
  facet normal -0.203358 -0.913555 0.352226
    outer loop
      vertex 34.9444 2.09232 5
      vertex 30 1.91127 1.67577
      vertex 35.4882 1.97127 5
    endloop
  endfacet
  facet normal -0.203343 -0.913549 0.352251
    outer loop
      vertex 29.2399 2.09232 1.7065
      vertex 29.7036 1.90803 1.49623
      vertex 29.5927 2.09232 1.91016
    endloop
  endfacet
  facet normal -0.203357 -0.913555 0.352226
    outer loop
      vertex 29.7036 1.90803 1.49623
      vertex 29.2399 2.09232 1.7065
      vertex 29.45 1.90526 1.34263
    endloop
  endfacet
  facet normal 0.866246 0.000463691 0.499617
    outer loop
      vertex 29.7899 1.29313 0.753872
      vertex 29.636 1.63492 1.02039
      vertex 29.45 1.90526 1.34263
    endloop
  endfacet
  facet normal 0.866023 0.000528552 0.500004
    outer loop
      vertex 29.7574 1.29313 0.810163
      vertex 29.7899 1.29313 0.753872
      vertex 29.7408 1.32502 0.838881
    endloop
  endfacet
  facet normal 0.866023 0.000684869 0.500004
    outer loop
      vertex 29.7899 1.29313 0.753872
      vertex 29.7574 1.29313 0.810163
      vertex 29.7632 1.27577 0.800141
    endloop
  endfacet
  facet normal 0.866246 -0.000463691 0.499617
    outer loop
      vertex 29.636 -1.63492 1.02039
      vertex 29.7899 -1.29313 0.753872
      vertex 29.45 -1.90526 1.34263
    endloop
  endfacet
  facet normal 0.866194 -3.05113e-05 0.499708
    outer loop
      vertex 29.9049 -0.89482 0.554719
      vertex 29.9523 -0.563587 0.472576
      vertex 29.8902 -0.89482 0.5802
    endloop
  endfacet
  facet normal 0.864205 0.00110474 0.503138
    outer loop
      vertex 29.9523 -0.563587 0.472576
      vertex 29.9049 -0.89482 0.554719
      vertex 29.976 -0.457405 0.431635
    endloop
  endfacet
  facet normal 0.866194 -1.76823e-05 0.499708
    outer loop
      vertex 29.8553 -0.999595 0.640692
      vertex 29.9049 -0.89482 0.554719
      vertex 29.8902 -0.89482 0.5802
    endloop
  endfacet
  facet normal 0.866489 -0.000576867 0.499196
    outer loop
      vertex 29.9049 -0.89482 0.554719
      vertex 29.8553 -0.999595 0.640692
      vertex 29.7899 -1.29313 0.753872
    endloop
  endfacet
  facet normal 0.866005 0.00130207 0.500034
    outer loop
      vertex 29.015 -2.18795 2.0961
      vertex 28.9658 -2.14994 2.18121
      vertex 28.8626 -2.18795 2.36004
    endloop
  endfacet
  facet normal 0.865951 0.00102192 0.500128
    outer loop
      vertex 28.9658 -2.14994 2.18121
      vertex 29.015 -2.18795 2.0961
      vertex 29.2399 -2.09232 1.7065
    endloop
  endfacet
  facet normal 0.103962 -0.978144 -0.180072
    outer loop
      vertex 29.3449 2.18482 2.8347
      vertex 32.2251 2.09232 5
      vertex 29.2283 2.09232 3.26984
    endloop
  endfacet
  facet normal 0.103975 -0.97814 -0.180089
    outer loop
      vertex 32.2251 2.09232 5
      vertex 29.3449 2.18482 2.8347
      vertex 32.9078 2.16489 5
    endloop
  endfacet
  facet normal 0.86612 0.000517893 0.499835
    outer loop
      vertex 29.3929 1.8701 1.44161
      vertex 29.45 1.90526 1.34263
      vertex 29.2399 2.09232 1.7065
    endloop
  endfacet
  facet normal 0.866176 0.000154795 0.499738
    outer loop
      vertex 29.5797 1.63492 1.11791
      vertex 29.45 1.90526 1.34263
      vertex 29.3929 1.8701 1.44161
    endloop
  endfacet
  facet normal 0.867141 0.00281605 0.498054
    outer loop
      vertex 29.7899 1.29313 0.753872
      vertex 29.5797 1.63492 1.11791
      vertex 29.6571 1.48619 0.983993
    endloop
  endfacet
  facet normal 0.865669 -0.000817929 0.500616
    outer loop
      vertex 29.5797 1.63492 1.11791
      vertex 29.7899 1.29313 0.753872
      vertex 29.45 1.90526 1.34263
    endloop
  endfacet
  facet normal -0.433281 -0.499949 0.749879
    outer loop
      vertex 29.8874 1.29313 0.810163
      vertex 29.9049 0.89482 0.554719
      vertex 29.949 0.89482 0.5802
    endloop
  endfacet
  facet normal -0.433006 -0.500012 0.749996
    outer loop
      vertex 29.9049 0.89482 0.554719
      vertex 29.8874 1.29313 0.810163
      vertex 29.7899 1.29313 0.753872
    endloop
  endfacet
  facet normal -0.433015 -0.499997 0.750001
    outer loop
      vertex 30 0.89482 0.609625
      vertex 37.1444 1.29313 5
      vertex 30 1.29313 0.875163
    endloop
  endfacet
  facet normal -0.432994 -0.500056 0.749973
    outer loop
      vertex 37.1444 1.29313 5
      vertex 30 0.89482 0.609625
      vertex 37.6044 0.89482 5
    endloop
  endfacet
  facet normal 0.863005 0.00794253 0.505133
    outer loop
      vertex 29.3649 -1.90526 1.49
      vertex 29.2399 -2.09232 1.7065
      vertex 29.3929 -1.8701 1.44161
    endloop
  endfacet
  facet normal 0.865994 6.59214e-05 0.500054
    outer loop
      vertex 29.2399 -2.09232 1.7065
      vertex 29.3649 -1.90526 1.49
      vertex 29.1223 -2.09232 1.91016
    endloop
  endfacet
  facet normal 0.865786 0.000929968 0.500414
    outer loop
      vertex 29.7899 -1.29313 0.753872
      vertex 29.7408 -1.32502 0.838881
      vertex 29.6571 -1.48619 0.983993
    endloop
  endfacet
  facet normal 0.867141 -0.00281605 0.498054
    outer loop
      vertex 29.5797 -1.63492 1.11791
      vertex 29.7899 -1.29313 0.753872
      vertex 29.6571 -1.48619 0.983993
    endloop
  endfacet
  facet normal 0.865669 0.000817929 0.500616
    outer loop
      vertex 29.5797 -1.63492 1.11791
      vertex 29.45 -1.90526 1.34263
      vertex 29.7899 -1.29313 0.753872
    endloop
  endfacet
  facet normal 0.866176 -0.000154795 0.499738
    outer loop
      vertex 29.3929 -1.8701 1.44161
      vertex 29.45 -1.90526 1.34263
      vertex 29.5797 -1.63492 1.11791
    endloop
  endfacet
  facet normal 0.86612 -0.000517893 0.499835
    outer loop
      vertex 29.45 -1.90526 1.34263
      vertex 29.3929 -1.8701 1.44161
      vertex 29.2399 -2.09232 1.7065
    endloop
  endfacet
  facet normal 0.475505 -0.309057 -0.823638
    outer loop
      vertex 29.2809 0.457405 5
      vertex 28.872 0.89482 4.5998
      vertex 29.5652 0.89482 5
    endloop
  endfacet
  facet normal 0.475533 -0.309026 -0.823633
    outer loop
      vertex 28.872 0.89482 4.5998
      vertex 29.2809 0.457405 5
      vertex 28.8339 0.457405 4.74192
    endloop
  endfacet
  facet normal 0.203365 0.913545 -0.352248
    outer loop
      vertex 29.2283 -2.09232 3.26984
      vertex 31.3848 -1.90526 5
      vertex 32.2251 -2.09232 5
    endloop
  endfacet
  facet normal 0.203377 0.913537 -0.352262
    outer loop
      vertex 31.3848 -1.90526 5
      vertex 29.2283 -2.09232 3.26984
      vertex 29.1158 -1.90526 3.69
    endloop
  endfacet
  facet normal 0.371553 -0.669156 -0.643567
    outer loop
      vertex 29.0161 1.63492 4.06209
      vertex 30.0251 1.29313 5
      vertex 28.9336 1.29313 4.36984
    endloop
  endfacet
  facet normal 0.371573 -0.669133 -0.64358
    outer loop
      vertex 30.0251 1.29313 5
      vertex 29.0161 1.63492 4.06209
      vertex 30.6406 1.63492 5
    endloop
  endfacet
  facet normal 0.103675 -0.978262 -0.179597
    outer loop
      vertex 29.3489 2.18795 2.81996
      vertex 32.9078 2.16489 5
      vertex 29.3449 2.18482 2.8347
    endloop
  endfacet
  facet normal 0.103946 -0.978152 -0.180037
    outer loop
      vertex 32.9078 2.16489 5
      vertex 29.3489 2.18795 2.81996
      vertex 33.1248 2.18795 5
    endloop
  endfacet
  facet normal -0.475536 0.308968 0.823653
    outer loop
      vertex 30 -0.457405 0.445513
      vertex 37.6044 -0.89482 5
      vertex 37.8886 -0.457405 5
    endloop
  endfacet
  facet normal -0.475526 0.309018 0.82364
    outer loop
      vertex 37.6044 -0.89482 5
      vertex 30 -0.457405 0.445513
      vertex 30 -0.89482 0.609625
    endloop
  endfacet
  facet normal -0.477353 0.308869 0.822639
    outer loop
      vertex 29.976 -0.457405 0.431635
      vertex 29.949 -0.89482 0.5802
      vertex 29.9871 -0.457405 0.438076
    endloop
  endfacet
  facet normal -0.4758 0.309055 0.823468
    outer loop
      vertex 29.949 -0.89482 0.5802
      vertex 29.976 -0.457405 0.431635
      vertex 29.9049 -0.89482 0.554719
    endloop
  endfacet
  facet normal -0.203323 0.913584 0.352169
    outer loop
      vertex 30 -1.90526 1.66017
      vertex 35.4882 -1.97127 5
      vertex 35.7848 -1.90526 5
    endloop
  endfacet
  facet normal -0.203219 0.913673 0.351999
    outer loop
      vertex 35.4882 -1.97127 5
      vertex 30 -1.90526 1.66017
      vertex 30 -1.91127 1.67577
    endloop
  endfacet
  facet normal -0.202688 0.914124 0.351132
    outer loop
      vertex 29.7036 -1.90803 1.49623
      vertex 29.7053 -1.90526 1.49
      vertex 29.45 -1.90526 1.34263
    endloop
  endfacet
  facet normal -0.293848 0.809022 0.509055
    outer loop
      vertex 29.805 -1.63492 1.11791
      vertex 29.45 -1.90526 1.34263
      vertex 29.7053 -1.90526 1.49
    endloop
  endfacet
  facet normal -0.293787 0.809 0.509126
    outer loop
      vertex 29.45 -1.90526 1.34263
      vertex 29.805 -1.63492 1.11791
      vertex 29.636 -1.63492 1.02039
    endloop
  endfacet
  facet normal -0.293914 0.808987 0.509072
    outer loop
      vertex 30 -1.63492 1.23052
      vertex 35.7848 -1.90526 5
      vertex 36.5289 -1.63492 5
    endloop
  endfacet
  facet normal -0.293892 0.809015 0.50904
    outer loop
      vertex 35.7848 -1.90526 5
      vertex 30 -1.63492 1.23052
      vertex 30 -1.90526 1.66017
    endloop
  endfacet
  facet normal 0.865994 -0.000198513 0.500054
    outer loop
      vertex 29.1223 2.09232 1.91016
      vertex 29.2399 2.09232 1.7065
      vertex 28.9658 2.14994 2.18121
    endloop
  endfacet
  facet normal 0.866005 -0.00130207 0.500034
    outer loop
      vertex 28.9658 2.14994 2.18121
      vertex 29.015 2.18795 2.0961
      vertex 28.8626 2.18795 2.36004
    endloop
  endfacet
  facet normal 0.865951 -0.00102192 0.500128
    outer loop
      vertex 29.015 2.18795 2.0961
      vertex 28.9658 2.14994 2.18121
      vertex 29.2399 2.09232 1.7065
    endloop
  endfacet
  facet normal -0.293892 -0.809015 0.50904
    outer loop
      vertex 30 1.63492 1.23052
      vertex 35.7848 1.90526 5
      vertex 30 1.90526 1.66017
    endloop
  endfacet
  facet normal -0.293914 -0.808987 0.509072
    outer loop
      vertex 35.7848 1.90526 5
      vertex 30 1.63492 1.23052
      vertex 36.5289 1.63492 5
    endloop
  endfacet
  facet normal -0.293848 -0.809022 0.509055
    outer loop
      vertex 29.45 1.90526 1.34263
      vertex 29.805 1.63492 1.11791
      vertex 29.7053 1.90526 1.49
    endloop
  endfacet
  facet normal -0.293787 -0.809 0.509126
    outer loop
      vertex 29.805 1.63492 1.11791
      vertex 29.45 1.90526 1.34263
      vertex 29.636 1.63492 1.02039
    endloop
  endfacet
  facet normal -0.37143 -0.669115 0.643681
    outer loop
      vertex 29.636 1.63492 1.02039
      vertex 29.8874 1.29313 0.810163
      vertex 29.805 1.63492 1.11791
    endloop
  endfacet
  facet normal -0.371563 -0.669145 0.643573
    outer loop
      vertex 29.8874 1.29313 0.810163
      vertex 29.636 1.63492 1.02039
      vertex 29.7899 1.29313 0.753872
    endloop
  endfacet
  facet normal -0.371574 -0.669129 0.643583
    outer loop
      vertex 30 1.29313 0.875163
      vertex 36.5289 1.63492 5
      vertex 30 1.63492 1.23052
    endloop
  endfacet
  facet normal -0.371573 -0.669133 0.64358
    outer loop
      vertex 36.5289 1.63492 5
      vertex 30 1.29313 0.875163
      vertex 37.1444 1.29313 5
    endloop
  endfacet
  facet normal 0.103946 0.978152 -0.180037
    outer loop
      vertex 29.3489 -2.18795 2.81996
      vertex 32.9078 -2.16489 5
      vertex 33.1248 -2.18795 5
    endloop
  endfacet
  facet normal 0.103675 0.978262 -0.179597
    outer loop
      vertex 32.9078 -2.16489 5
      vertex 29.3489 -2.18795 2.81996
      vertex 29.3449 -2.18482 2.8347
    endloop
  endfacet
  facet normal 0.433013 0.499969 -0.750021
    outer loop
      vertex 28.9336 -1.29313 4.36984
      vertex 29.5652 -0.89482 5
      vertex 30.0251 -1.29313 5
    endloop
  endfacet
  facet normal 0.433003 0.499981 -0.750019
    outer loop
      vertex 29.5652 -0.89482 5
      vertex 28.9336 -1.29313 4.36984
      vertex 28.872 -0.89482 4.5998
    endloop
  endfacet
  facet normal 0.293895 -0.809016 -0.509038
    outer loop
      vertex 29.1158 1.90526 3.69
      vertex 30.6406 1.63492 5
      vertex 29.0161 1.63492 4.06209
    endloop
  endfacet
  facet normal 0.293888 -0.809022 -0.509031
    outer loop
      vertex 30.6406 1.63492 5
      vertex 29.1158 1.90526 3.69
      vertex 31.3848 1.90526 5
    endloop
  endfacet
  facet normal 0.371573 0.669133 -0.64358
    outer loop
      vertex 29.0161 -1.63492 4.06209
      vertex 30.0251 -1.29313 5
      vertex 30.6406 -1.63492 5
    endloop
  endfacet
  facet normal 0.371553 0.669156 -0.643567
    outer loop
      vertex 30.0251 -1.29313 5
      vertex 29.0161 -1.63492 4.06209
      vertex 28.9336 -1.29313 4.36984
    endloop
  endfacet
  facet normal 0.49727 0.104476 -0.861282
    outer loop
      vertex 28.8339 -0.457405 4.74192
      vertex 29.1848 0 5
      vertex 29.2809 -0.457405 5
    endloop
  endfacet
  facet normal 0.497188 0.104559 -0.861319
    outer loop
      vertex 29.1848 0 5
      vertex 28.8339 -0.457405 4.74192
      vertex 28.821 0 4.79
    endloop
  endfacet
  facet normal 1 -0 0
    outer loop
      vertex 40 -4 5
      vertex 40 4 0
      vertex 40 4 5
    endloop
  endfacet
  facet normal 1 0 0
    outer loop
      vertex 40 4 0
      vertex 40 -4 5
      vertex 40 -4 0
    endloop
  endfacet
  facet normal 0 0 1
    outer loop
      vertex 40 4 5
      vertex 37.9848 0 5
      vertex 40 -4 5
    endloop
  endfacet
  facet normal 0 0 1
    outer loop
      vertex 40 4 5
      vertex 37.8886 0.457405 5
      vertex 37.9848 0 5
    endloop
  endfacet
  facet normal 0 0 1
    outer loop
      vertex 40 4 5
      vertex 37.6044 0.89482 5
      vertex 37.8886 0.457405 5
    endloop
  endfacet
  facet normal 0 0 1
    outer loop
      vertex 40 4 5
      vertex 37.1444 1.29313 5
      vertex 37.6044 0.89482 5
    endloop
  endfacet
  facet normal 0 0 1
    outer loop
      vertex 40 4 5
      vertex 36.5289 1.63492 5
      vertex 37.1444 1.29313 5
    endloop
  endfacet
  facet normal 0 0 1
    outer loop
      vertex 40 4 5
      vertex 35.7848 1.90526 5
      vertex 36.5289 1.63492 5
    endloop
  endfacet
  facet normal 0 0 1
    outer loop
      vertex 40 4 5
      vertex 35.4882 1.97127 5
      vertex 35.7848 1.90526 5
    endloop
  endfacet
  facet normal 0 0 1
    outer loop
      vertex 40 4 5
      vertex 34.9444 2.09232 5
      vertex 35.4882 1.97127 5
    endloop
  endfacet
  facet normal 0 0 1
    outer loop
      vertex 40 4 5
      vertex 34.3166 2.15905 5
      vertex 34.9444 2.09232 5
    endloop
  endfacet
  facet normal 0 0 1
    outer loop
      vertex 40 4 5
      vertex 34.0447 2.18795 5
      vertex 34.3166 2.15905 5
    endloop
  endfacet
  facet normal 0 0 1
    outer loop
      vertex 40 4 5
      vertex 33.1248 2.18795 5
      vertex 34.0447 2.18795 5
    endloop
  endfacet
  facet normal 0 0 1
    outer loop
      vertex 40 4 5
      vertex 32.9078 2.16489 5
      vertex 33.1248 2.18795 5
    endloop
  endfacet
  facet normal 0 0 1
    outer loop
      vertex 40 4 5
      vertex 32.2251 2.09232 5
      vertex 32.9078 2.16489 5
    endloop
  endfacet
  facet normal -0 0 1
    outer loop
      vertex -5 4 5
      vertex 32.2251 2.09232 5
      vertex 40 4 5
    endloop
  endfacet
  facet normal 0 0 1
    outer loop
      vertex 29.2809 0.457405 5
      vertex -5 4 5
      vertex 29.1848 0 5
    endloop
  endfacet
  facet normal 0 0 1
    outer loop
      vertex 29.5652 0.89482 5
      vertex -5 4 5
      vertex 29.2809 0.457405 5
    endloop
  endfacet
  facet normal 0 0 1
    outer loop
      vertex 30.0251 1.29313 5
      vertex -5 4 5
      vertex 29.5652 0.89482 5
    endloop
  endfacet
  facet normal 0 0 1
    outer loop
      vertex 30.6406 1.63492 5
      vertex -5 4 5
      vertex 30.0251 1.29313 5
    endloop
  endfacet
  facet normal 0 0 1
    outer loop
      vertex 31.3848 1.90526 5
      vertex -5 4 5
      vertex 30.6406 1.63492 5
    endloop
  endfacet
  facet normal 0 0 1
    outer loop
      vertex 32.2251 2.09232 5
      vertex -5 4 5
      vertex 31.3848 1.90526 5
    endloop
  endfacet
  facet normal -0 0 1
    outer loop
      vertex 37.8886 -0.457405 5
      vertex 40 -4 5
      vertex 37.9848 0 5
    endloop
  endfacet
  facet normal -0 0 1
    outer loop
      vertex 37.6044 -0.89482 5
      vertex 40 -4 5
      vertex 37.8886 -0.457405 5
    endloop
  endfacet
  facet normal -0 0 1
    outer loop
      vertex 37.1444 -1.29313 5
      vertex 40 -4 5
      vertex 37.6044 -0.89482 5
    endloop
  endfacet
  facet normal -0 0 1
    outer loop
      vertex 36.5289 -1.63492 5
      vertex 40 -4 5
      vertex 37.1444 -1.29313 5
    endloop
  endfacet
  facet normal -0 0 1
    outer loop
      vertex 35.7848 -1.90526 5
      vertex 40 -4 5
      vertex 36.5289 -1.63492 5
    endloop
  endfacet
  facet normal -0 0 1
    outer loop
      vertex 35.4882 -1.97127 5
      vertex 40 -4 5
      vertex 35.7848 -1.90526 5
    endloop
  endfacet
  facet normal -0 0 1
    outer loop
      vertex 34.9444 -2.09232 5
      vertex 40 -4 5
      vertex 35.4882 -1.97127 5
    endloop
  endfacet
  facet normal -0 0 1
    outer loop
      vertex 34.3166 -2.15905 5
      vertex 40 -4 5
      vertex 34.9444 -2.09232 5
    endloop
  endfacet
  facet normal -0 0 1
    outer loop
      vertex 34.0447 -2.18795 5
      vertex 40 -4 5
      vertex 34.3166 -2.15905 5
    endloop
  endfacet
  facet normal -0 0 1
    outer loop
      vertex 33.1248 -2.18795 5
      vertex 40 -4 5
      vertex 34.0447 -2.18795 5
    endloop
  endfacet
  facet normal 0 0 1
    outer loop
      vertex 32.9078 -2.16489 5
      vertex 40 -4 5
      vertex 33.1248 -2.18795 5
    endloop
  endfacet
  facet normal 0 0 1
    outer loop
      vertex 32.2251 -2.09232 5
      vertex 40 -4 5
      vertex 32.9078 -2.16489 5
    endloop
  endfacet
  facet normal 0 0 1
    outer loop
      vertex -5 -4 5
      vertex 32.2251 -2.09232 5
      vertex 31.3848 -1.90526 5
    endloop
  endfacet
  facet normal 0 0 1
    outer loop
      vertex -5 -4 5
      vertex 29.1848 0 5
      vertex -5 4 5
    endloop
  endfacet
  facet normal 0 0 1
    outer loop
      vertex 29.1848 0 5
      vertex -5 -4 5
      vertex 29.2809 -0.457405 5
    endloop
  endfacet
  facet normal 0 0 1
    outer loop
      vertex 29.2809 -0.457405 5
      vertex -5 -4 5
      vertex 29.5652 -0.89482 5
    endloop
  endfacet
  facet normal 0 0 1
    outer loop
      vertex 29.5652 -0.89482 5
      vertex -5 -4 5
      vertex 30.0251 -1.29313 5
    endloop
  endfacet
  facet normal 0 0 1
    outer loop
      vertex 30.0251 -1.29313 5
      vertex -5 -4 5
      vertex 30.6406 -1.63492 5
    endloop
  endfacet
  facet normal 0 0 1
    outer loop
      vertex 30.6406 -1.63492 5
      vertex -5 -4 5
      vertex 31.3848 -1.90526 5
    endloop
  endfacet
  facet normal 0 0 1
    outer loop
      vertex 32.2251 -2.09232 5
      vertex -5 -4 5
      vertex 40 -4 5
    endloop
  endfacet
  facet normal 0 0 -1
    outer loop
      vertex 40 -4 0
      vertex 2.2 -2.2 0
      vertex 40 4 0
    endloop
  endfacet
  facet normal 0 0 -1
    outer loop
      vertex -5 -4 0
      vertex 2.2 -2.2 0
      vertex 40 -4 0
    endloop
  endfacet
  facet normal -0 0 -1
    outer loop
      vertex -2.2 -2.2 0
      vertex -5 -4 0
      vertex -2.2 2.2 0
    endloop
  endfacet
  facet normal -0 0 -1
    outer loop
      vertex 2.2 -2.2 0
      vertex -5 -4 0
      vertex -2.2 -2.2 0
    endloop
  endfacet
  facet normal 0 0 -1
    outer loop
      vertex 2.2 2.2 0
      vertex 40 4 0
      vertex 2.2 -2.2 0
    endloop
  endfacet
  facet normal 0 0 -1
    outer loop
      vertex -5 4 0
      vertex 2.2 2.2 0
      vertex -2.2 2.2 0
    endloop
  endfacet
  facet normal 0 0 -1
    outer loop
      vertex 2.2 2.2 0
      vertex -5 4 0
      vertex 40 4 0
    endloop
  endfacet
  facet normal 0 0 -1
    outer loop
      vertex -5 4 0
      vertex -2.2 2.2 0
      vertex -5 -4 0
    endloop
  endfacet
  facet normal -1 0 0
    outer loop
      vertex -5 -4 0
      vertex -5 4 5
      vertex -5 4 0
    endloop
  endfacet
  facet normal -1 -0 0
    outer loop
      vertex -5 4 5
      vertex -5 -4 0
      vertex -5 -4 5
    endloop
  endfacet
  facet normal 0 1 -0
    outer loop
      vertex 40 4 0
      vertex -5 4 5
      vertex 40 4 5
    endloop
  endfacet
  facet normal 0 1 0
    outer loop
      vertex -5 4 5
      vertex 40 4 0
      vertex -5 4 0
    endloop
  endfacet
  facet normal 0 -1 0
    outer loop
      vertex -5 -4 0
      vertex 40 -4 5
      vertex -5 -4 5
    endloop
  endfacet
  facet normal 0 -1 -0
    outer loop
      vertex 40 -4 5
      vertex -5 -4 0
      vertex 40 -4 0
    endloop
  endfacet
endsolid OpenSCAD_Model
