solid OpenSCAD_Model
  facet normal 0 0 1
    outer loop
      vertex 0 14.5 10
      vertex -1.24993 6.99997 10
      vertex 0 2.5 10
    endloop
  endfacet
  facet normal 0 0 1
    outer loop
      vertex -1.50464 12.0828 10
      vertex 0 14.5 10
      vertex -1.49996 12.1254 10
    endloop
  endfacet
  facet normal 0 0 1
    outer loop
      vertex 0 14.5 10
      vertex -1.54135 12.3963 10
      vertex -1.49996 12.1254 10
    endloop
  endfacet
  facet normal 0 0 1
    outer loop
      vertex 0 14.5 10
      vertex -1.66555 12.6843 10
      vertex -1.54135 12.3963 10
    endloop
  endfacet
  facet normal 0 0 1
    outer loop
      vertex 0 14.5 10
      vertex -1.87255 12.9896 10
      vertex -1.66555 12.6843 10
    endloop
  endfacet
  facet normal 0 0 1
    outer loop
      vertex 0 14.5 10
      vertex -2.16236 13.312 10
      vertex -1.87255 12.9896 10
    endloop
  endfacet
  facet normal 0 0 1
    outer loop
      vertex 0 14.5 10
      vertex -2.51468 13.6017 10
      vertex -2.16236 13.312 10
    endloop
  endfacet
  facet normal 0 0 1
    outer loop
      vertex 0 14.5 10
      vertex -2.9092 13.8086 10
      vertex -2.51468 13.6017 10
    endloop
  endfacet
  facet normal 0 0 1
    outer loop
      vertex 0 14.5 10
      vertex -3.34587 13.9328 10
      vertex -2.9092 13.8086 10
    endloop
  endfacet
  facet normal 0 0 1
    outer loop
      vertex 0 14.5 10
      vertex -3.82474 13.9742 10
      vertex -3.34587 13.9328 10
    endloop
  endfacet
  facet normal -0 0 1
    outer loop
      vertex -8 14.5 10
      vertex -3.82474 13.9742 10
      vertex 0 14.5 10
    endloop
  endfacet
  facet normal 0 0 1
    outer loop
      vertex -6.04491 11.2966 10
      vertex -8 14.5 10
      vertex -6.15901 7.36165 10
    endloop
  endfacet
  facet normal 0 0 1
    outer loop
      vertex -6.15901 7.36165 10
      vertex -8 2.5 10
      vertex -6.17464 7.21381 10
    endloop
  endfacet
  facet normal 0 0 1
    outer loop
      vertex -8 2.5 10
      vertex -6.15901 7.36165 10
      vertex -8 14.5 10
    endloop
  endfacet
  facet normal 0 0 1
    outer loop
      vertex -6.08124 12.2378 10
      vertex -8 14.5 10
      vertex -6.12461 11.8256 10
    endloop
  endfacet
  facet normal 0 0 1
    outer loop
      vertex -5.95117 12.625 10
      vertex -8 14.5 10
      vertex -6.08124 12.2378 10
    endloop
  endfacet
  facet normal 0 0 1
    outer loop
      vertex -5.73438 12.9873 10
      vertex -8 14.5 10
      vertex -5.95117 12.625 10
    endloop
  endfacet
  facet normal 0 0 1
    outer loop
      vertex -5.43088 13.3245 10
      vertex -8 14.5 10
      vertex -5.73438 12.9873 10
    endloop
  endfacet
  facet normal 0 0 1
    outer loop
      vertex -5.07035 13.6087 10
      vertex -8 14.5 10
      vertex -5.43088 13.3245 10
    endloop
  endfacet
  facet normal 0 0 1
    outer loop
      vertex -4.68248 13.8118 10
      vertex -8 14.5 10
      vertex -5.07035 13.6087 10
    endloop
  endfacet
  facet normal 0 0 1
    outer loop
      vertex -4.26728 13.9335 10
      vertex -8 14.5 10
      vertex -4.68248 13.8118 10
    endloop
  endfacet
  facet normal 0 0 1
    outer loop
      vertex -3.82474 13.9742 10
      vertex -8 14.5 10
      vertex -4.26728 13.9335 10
    endloop
  endfacet
  facet normal -0 0 1
    outer loop
      vertex -1.24993 6.25 10
      vertex 0 2.5 10
      vertex -1.24993 6.99997 10
    endloop
  endfacet
  facet normal -0 0 1
    outer loop
      vertex -6.17464 6.25 10
      vertex 0 2.5 10
      vertex -1.24993 6.25 10
    endloop
  endfacet
  facet normal 0 0 1
    outer loop
      vertex -6.17464 6.25 10
      vertex -8 2.5 10
      vertex 0 2.5 10
    endloop
  endfacet
  facet normal 0 0 1
    outer loop
      vertex -6.17464 7.21381 10
      vertex -8 2.5 10
      vertex -6.17464 6.25 10
    endloop
  endfacet
  facet normal 0 0 1
    outer loop
      vertex 0 14.5 10
      vertex -1.50464 12.0828 10
      vertex -1.24993 6.99997 10
    endloop
  endfacet
  facet normal -0 0 1
    outer loop
      vertex -1.51869 12.0426 10
      vertex -1.24993 6.99997 10
      vertex -1.50464 12.0828 10
    endloop
  endfacet
  facet normal -0 0 1
    outer loop
      vertex -1.54212 12.0048 10
      vertex -1.24993 6.99997 10
      vertex -1.51869 12.0426 10
    endloop
  endfacet
  facet normal -0 0 1
    outer loop
      vertex -1.57492 11.9692 10
      vertex -1.24993 6.99997 10
      vertex -1.54212 12.0048 10
    endloop
  endfacet
  facet normal -0 0 1
    outer loop
      vertex -1.61319 11.9392 10
      vertex -1.24993 6.99997 10
      vertex -1.57492 11.9692 10
    endloop
  endfacet
  facet normal -0 0 1
    outer loop
      vertex -1.65302 11.9177 10
      vertex -1.24993 6.99997 10
      vertex -1.61319 11.9392 10
    endloop
  endfacet
  facet normal -0 0 1
    outer loop
      vertex -1.69442 11.9048 10
      vertex -1.24993 6.99997 10
      vertex -1.65302 11.9177 10
    endloop
  endfacet
  facet normal -0 0 1
    outer loop
      vertex -1.73737 11.9006 10
      vertex -1.24993 6.99997 10
      vertex -1.69442 11.9048 10
    endloop
  endfacet
  facet normal 0 0 1
    outer loop
      vertex -4.19977 9.77475 10
      vertex -1.73737 11.9006 10
      vertex -1.82411 11.9162 10
    endloop
  endfacet
  facet normal 0 0 1
    outer loop
      vertex -4.19977 9.77475 10
      vertex -1.82411 11.9162 10
      vertex -1.89678 11.963 10
    endloop
  endfacet
  facet normal 0 0 1
    outer loop
      vertex -4.19977 9.77475 10
      vertex -1.89678 11.963 10
      vertex -1.95539 12.041 10
    endloop
  endfacet
  facet normal 0 0 1
    outer loop
      vertex -4.59934 10.1608 10
      vertex -1.95539 12.041 10
      vertex -1.9999 12.1503 10
    endloop
  endfacet
  facet normal 0 0 1
    outer loop
      vertex -2.2421 12.6654 10
      vertex -1.9999 12.1503 10
      vertex -2.09796 12.4196 10
    endloop
  endfacet
  facet normal 0 0 1
    outer loop
      vertex -2.4323 12.8878 10
      vertex -1.9999 12.1503 10
      vertex -2.2421 12.6654 10
    endloop
  endfacet
  facet normal 0 0 1
    outer loop
      vertex -1.9999 12.1503 10
      vertex -2.4323 12.8878 10
      vertex -4.92313 10.4938 10
    endloop
  endfacet
  facet normal 0 0 1
    outer loop
      vertex -4.92313 10.4938 10
      vertex -2.4323 12.8878 10
      vertex -2.6686 13.0868 10
    endloop
  endfacet
  facet normal 0 0 1
    outer loop
      vertex -4.92313 10.4938 10
      vertex -2.6686 13.0868 10
      vertex -2.93537 13.2508 10
    endloop
  endfacet
  facet normal 0 0 1
    outer loop
      vertex -4.92313 10.4938 10
      vertex -2.93537 13.2508 10
      vertex -3.21697 13.3678 10
    endloop
  endfacet
  facet normal 0 0 1
    outer loop
      vertex -4.92313 10.4938 10
      vertex -3.21697 13.3678 10
      vertex -3.51343 13.4381 10
    endloop
  endfacet
  facet normal 0 0 1
    outer loop
      vertex -4.92313 10.4938 10
      vertex -3.51343 13.4381 10
      vertex -3.82474 13.4615 10
    endloop
  endfacet
  facet normal 0 0 1
    outer loop
      vertex -5.17115 10.7735 10
      vertex -3.82474 13.4615 10
      vertex -4.17003 13.4311 10
    endloop
  endfacet
  facet normal 0 0 1
    outer loop
      vertex -1.73737 11.9006 10
      vertex -4.19977 9.77475 10
      vertex -1.24993 6.99997 10
    endloop
  endfacet
  facet normal 0 0 1
    outer loop
      vertex -5.17115 10.7735 10
      vertex -4.17003 13.4311 10
      vertex -4.49344 13.3397 10
    endloop
  endfacet
  facet normal 0 0 1
    outer loop
      vertex -1.95539 12.041 10
      vertex -4.59934 10.1608 10
      vertex -4.19977 9.77475 10
    endloop
  endfacet
  facet normal 0 0 1
    outer loop
      vertex -5.17115 10.7735 10
      vertex -4.49344 13.3397 10
      vertex -4.79499 13.1875 10
    endloop
  endfacet
  facet normal 0 0 1
    outer loop
      vertex -1.9999 12.1503 10
      vertex -4.92313 10.4938 10
      vertex -4.59934 10.1608 10
    endloop
  endfacet
  facet normal 0 0 1
    outer loop
      vertex -5.17115 10.7735 10
      vertex -4.79499 13.1875 10
      vertex -5.07466 12.9744 10
    endloop
  endfacet
  facet normal 0 0 1
    outer loop
      vertex -3.82474 13.4615 10
      vertex -5.17115 10.7735 10
      vertex -4.92313 10.4938 10
    endloop
  endfacet
  facet normal 0 0 1
    outer loop
      vertex -5.3434 11.0002 10
      vertex -5.07466 12.9744 10
      vertex -5.3098 12.7208 10
    endloop
  endfacet
  facet normal 0 0 1
    outer loop
      vertex -5.07466 12.9744 10
      vertex -5.3434 11.0002 10
      vertex -5.17115 10.7735 10
    endloop
  endfacet
  facet normal 0 0 1
    outer loop
      vertex -5.3098 12.7208 10
      vertex -5.46097 11.2027 10
      vertex -5.3434 11.0002 10
    endloop
  endfacet
  facet normal -0 0 1
    outer loop
      vertex -5.47777 12.4469 10
      vertex -5.46097 11.2027 10
      vertex -5.3098 12.7208 10
    endloop
  endfacet
  facet normal 0 0 1
    outer loop
      vertex -5.47777 12.4469 10
      vertex -5.54496 11.4098 10
      vertex -5.46097 11.2027 10
    endloop
  endfacet
  facet normal -0 0 1
    outer loop
      vertex -5.57856 12.1526 10
      vertex -5.54496 11.4098 10
      vertex -5.47777 12.4469 10
    endloop
  endfacet
  facet normal 0 0 1
    outer loop
      vertex -5.57856 12.1526 10
      vertex -5.59534 11.6216 10
      vertex -5.54496 11.4098 10
    endloop
  endfacet
  facet normal 0 -0 1
    outer loop
      vertex -5.59534 11.6216 10
      vertex -5.57856 12.1526 10
      vertex -5.61214 11.8381 10
    endloop
  endfacet
  facet normal 0 0 1
    outer loop
      vertex -3.56301 8.46532 10
      vertex -5.67859 7.36151 10
      vertex -5.66219 7.21353 10
    endloop
  endfacet
  facet normal 0 0 1
    outer loop
      vertex -5.2762 10.1792 10
      vertex -5.72779 7.46719 10
      vertex -5.67859 7.36151 10
    endloop
  endfacet
  facet normal 0 0 1
    outer loop
      vertex -6.034 7.53062 10
      vertex -5.59374 10.5376 10
      vertex -5.80582 10.8115 10
    endloop
  endfacet
  facet normal 0 0 1
    outer loop
      vertex -5.2762 10.1792 10
      vertex -5.8098 7.53061 10
      vertex -5.72779 7.46719 10
    endloop
  endfacet
  facet normal 0 0 1
    outer loop
      vertex -5.2762 10.1792 10
      vertex -5.92462 7.55176 10
      vertex -5.8098 7.53061 10
    endloop
  endfacet
  facet normal 0 0 1
    outer loop
      vertex -6.11214 7.46727 10
      vertex -5.80582 10.8115 10
      vertex -5.94528 11.0486 10
    endloop
  endfacet
  facet normal 0 0 1
    outer loop
      vertex -5.2762 10.1792 10
      vertex -6.034 7.53062 10
      vertex -5.92462 7.55176 10
    endloop
  endfacet
  facet normal 0 0 1
    outer loop
      vertex -6.11214 7.46727 10
      vertex -5.94528 11.0486 10
      vertex -6.04491 11.2966 10
    endloop
  endfacet
  facet normal 0 0 1
    outer loop
      vertex -8 14.5 10
      vertex -6.04491 11.2966 10
      vertex -6.10468 11.5556 10
    endloop
  endfacet
  facet normal 0 0 1
    outer loop
      vertex -5.80582 10.8115 10
      vertex -6.11214 7.46727 10
      vertex -6.034 7.53062 10
    endloop
  endfacet
  facet normal 0 0 1
    outer loop
      vertex -8 14.5 10
      vertex -6.10468 11.5556 10
      vertex -6.12461 11.8256 10
    endloop
  endfacet
  facet normal 0 0 1
    outer loop
      vertex -6.04491 11.2966 10
      vertex -6.15901 7.36165 10
      vertex -6.11214 7.46727 10
    endloop
  endfacet
  facet normal 0 0 1
    outer loop
      vertex -2.26935 7.25549 10
      vertex -1.73737 6.76263 10
      vertex -1.73737 6.78928 10
    endloop
  endfacet
  facet normal 0 0 1
    outer loop
      vertex -5.66219 6.76263 10
      vertex -2.26935 7.25549 10
      vertex -2.8779 7.81416 10
    endloop
  endfacet
  facet normal 0 0 1
    outer loop
      vertex -6.034 7.53062 10
      vertex -5.2762 10.1792 10
      vertex -5.59374 10.5376 10
    endloop
  endfacet
  facet normal 0 0 1
    outer loop
      vertex -5.67859 7.36151 10
      vertex -4.85318 9.73633 10
      vertex -5.2762 10.1792 10
    endloop
  endfacet
  facet normal 0 0 1
    outer loop
      vertex -5.67859 7.36151 10
      vertex -4.32469 9.20892 10
      vertex -4.85318 9.73633 10
    endloop
  endfacet
  facet normal 0 0 1
    outer loop
      vertex -5.67859 7.36151 10
      vertex -3.56301 8.46532 10
      vertex -4.32469 9.20892 10
    endloop
  endfacet
  facet normal 0 0 1
    outer loop
      vertex -5.66219 7.21353 10
      vertex -2.8779 7.81416 10
      vertex -3.56301 8.46532 10
    endloop
  endfacet
  facet normal 0 0 1
    outer loop
      vertex -5.66219 6.76263 10
      vertex -2.8779 7.81416 10
      vertex -5.66219 7.21353 10
    endloop
  endfacet
  facet normal 0 0 1
    outer loop
      vertex -2.26935 7.25549 10
      vertex -5.66219 6.76263 10
      vertex -1.73737 6.76263 10
    endloop
  endfacet
  facet normal -1 0 0
    outer loop
      vertex -8 0 3
      vertex -8 17 3
      vertex -8 17 0
    endloop
  endfacet
  facet normal -1 0 0
    outer loop
      vertex -8 17 3
      vertex -8 0 3
      vertex -8 14.5 10
    endloop
  endfacet
  facet normal -1 0 0
    outer loop
      vertex -8 0 3
      vertex -8 17 0
      vertex -8 0 0
    endloop
  endfacet
  facet normal -1 -0 0
    outer loop
      vertex -8 14.5 10
      vertex -8 0 3
      vertex -8 2.5 10
    endloop
  endfacet
  facet normal 0 1 -0
    outer loop
      vertex 0 17 0
      vertex -8 17 3
      vertex 0 17 3
    endloop
  endfacet
  facet normal 0 1 0
    outer loop
      vertex -8 17 3
      vertex 0 17 0
      vertex -8 17 0
    endloop
  endfacet
  facet normal 0 0 -1
    outer loop
      vertex -8 0 0
      vertex 0 17 0
      vertex 0 0 0
    endloop
  endfacet
  facet normal -0 0 -1
    outer loop
      vertex 0 17 0
      vertex -8 0 0
      vertex -8 17 0
    endloop
  endfacet
  facet normal 1 0 0
    outer loop
      vertex 0 0 3
      vertex 0 17 3
      vertex 0 14.5 10
    endloop
  endfacet
  facet normal 1 0 0
    outer loop
      vertex 0 0 3
      vertex 0 14.5 10
      vertex 0 2.5 10
    endloop
  endfacet
  facet normal 1 0 0
    outer loop
      vertex 0 17 3
      vertex 0 0 3
      vertex 0 17 0
    endloop
  endfacet
  facet normal 1 0 0
    outer loop
      vertex 0 17 0
      vertex 0 0 3
      vertex 0 0 0
    endloop
  endfacet
  facet normal 0 -0.941742 0.336336
    outer loop
      vertex -8 0 3
      vertex 0 2.5 10
      vertex -8 2.5 10
    endloop
  endfacet
  facet normal 0 -0.941742 0.336336
    outer loop
      vertex 0 2.5 10
      vertex -8 0 3
      vertex 0 0 3
    endloop
  endfacet
  facet normal 0 -1 0
    outer loop
      vertex -8 0 0
      vertex 0 0 3
      vertex -8 0 3
    endloop
  endfacet
  facet normal 0 -1 -0
    outer loop
      vertex 0 0 3
      vertex -8 0 0
      vertex 0 0 0
    endloop
  endfacet
  facet normal 0 0.941742 0.336336
    outer loop
      vertex 0 17 3
      vertex -8 14.5 10
      vertex 0 14.5 10
    endloop
  endfacet
  facet normal 0 0.941742 0.336336
    outer loop
      vertex -8 14.5 10
      vertex 0 17 3
      vertex -8 17 3
    endloop
  endfacet
  facet normal -0 0 1
    outer loop
      vertex -6.17464 7.21381 11.99
      vertex -5.66219 7.21353 11.99
      vertex -5.67859 7.36151 11.99
    endloop
  endfacet
  facet normal 0 0 1
    outer loop
      vertex -1.49996 12.1254 11.99
      vertex -1.51869 12.0426 11.99
      vertex -1.50464 12.0828 11.99
    endloop
  endfacet
  facet normal -0 0 1
    outer loop
      vertex -1.9999 12.1503 11.99
      vertex -1.49996 12.1254 11.99
      vertex -1.54135 12.3963 11.99
    endloop
  endfacet
  facet normal 0 -0 1
    outer loop
      vertex -1.95539 12.041 11.99
      vertex -1.49996 12.1254 11.99
      vertex -1.9999 12.1503 11.99
    endloop
  endfacet
  facet normal 0 -0 1
    outer loop
      vertex -1.57492 11.9692 11.99
      vertex -1.49996 12.1254 11.99
      vertex -1.95539 12.041 11.99
    endloop
  endfacet
  facet normal 0 0 1
    outer loop
      vertex -1.49996 12.1254 11.99
      vertex -1.57492 11.9692 11.99
      vertex -1.54212 12.0048 11.99
    endloop
  endfacet
  facet normal 0 0 1
    outer loop
      vertex -1.57492 11.9692 11.99
      vertex -1.95539 12.041 11.99
      vertex -1.61319 11.9392 11.99
    endloop
  endfacet
  facet normal -0 0 1
    outer loop
      vertex -2.09796 12.4196 11.99
      vertex -1.54135 12.3963 11.99
      vertex -1.66555 12.6843 11.99
    endloop
  endfacet
  facet normal 0 0 1
    outer loop
      vertex -1.49996 12.1254 11.99
      vertex -1.54212 12.0048 11.99
      vertex -1.51869 12.0426 11.99
    endloop
  endfacet
  facet normal -0 -0 1
    outer loop
      vertex -1.89678 11.963 11.99
      vertex -1.61319 11.9392 11.99
      vertex -1.95539 12.041 11.99
    endloop
  endfacet
  facet normal 0 0 1
    outer loop
      vertex -1.61319 11.9392 11.99
      vertex -1.89678 11.963 11.99
      vertex -1.65302 11.9177 11.99
    endloop
  endfacet
  facet normal 0 0 1
    outer loop
      vertex -2.2421 12.6654 11.99
      vertex -1.66555 12.6843 11.99
      vertex -1.87255 12.9896 11.99
    endloop
  endfacet
  facet normal 0 -0 1
    outer loop
      vertex -1.73737 11.9006 11.99
      vertex -1.65302 11.9177 11.99
      vertex -1.89678 11.963 11.99
    endloop
  endfacet
  facet normal 0 0 1
    outer loop
      vertex -1.65302 11.9177 11.99
      vertex -1.73737 11.9006 11.99
      vertex -1.69442 11.9048 11.99
    endloop
  endfacet
  facet normal 0 0 1
    outer loop
      vertex -1.73737 11.9006 11.99
      vertex -1.89678 11.963 11.99
      vertex -1.82411 11.9162 11.99
    endloop
  endfacet
  facet normal 0 0 1
    outer loop
      vertex -1.54135 12.3963 11.99
      vertex -2.09796 12.4196 11.99
      vertex -1.9999 12.1503 11.99
    endloop
  endfacet
  facet normal 0 0 1
    outer loop
      vertex -2.4323 12.8878 11.99
      vertex -1.87255 12.9896 11.99
      vertex -2.16236 13.312 11.99
    endloop
  endfacet
  facet normal 0 0 1
    outer loop
      vertex -1.66555 12.6843 11.99
      vertex -2.2421 12.6654 11.99
      vertex -2.09796 12.4196 11.99
    endloop
  endfacet
  facet normal 0 0 1
    outer loop
      vertex -1.87255 12.9896 11.99
      vertex -2.4323 12.8878 11.99
      vertex -2.2421 12.6654 11.99
    endloop
  endfacet
  facet normal 0 0 1
    outer loop
      vertex -2.6686 13.0868 11.99
      vertex -2.16236 13.312 11.99
      vertex -2.51468 13.6017 11.99
    endloop
  endfacet
  facet normal 0 0 1
    outer loop
      vertex -2.16236 13.312 11.99
      vertex -2.6686 13.0868 11.99
      vertex -2.4323 12.8878 11.99
    endloop
  endfacet
  facet normal 0 0 1
    outer loop
      vertex -2.93537 13.2508 11.99
      vertex -2.51468 13.6017 11.99
      vertex -2.9092 13.8086 11.99
    endloop
  endfacet
  facet normal 0 0 1
    outer loop
      vertex -2.51468 13.6017 11.99
      vertex -2.93537 13.2508 11.99
      vertex -2.6686 13.0868 11.99
    endloop
  endfacet
  facet normal 0 0 1
    outer loop
      vertex -2.9092 13.8086 11.99
      vertex -3.21697 13.3678 11.99
      vertex -2.93537 13.2508 11.99
    endloop
  endfacet
  facet normal 0 0 1
    outer loop
      vertex -3.34587 13.9328 11.99
      vertex -3.21697 13.3678 11.99
      vertex -2.9092 13.8086 11.99
    endloop
  endfacet
  facet normal 0 0 1
    outer loop
      vertex -3.34587 13.9328 11.99
      vertex -3.51343 13.4381 11.99
      vertex -3.21697 13.3678 11.99
    endloop
  endfacet
  facet normal 0 0 1
    outer loop
      vertex -3.82474 13.9742 11.99
      vertex -3.51343 13.4381 11.99
      vertex -3.34587 13.9328 11.99
    endloop
  endfacet
  facet normal 0 0 1
    outer loop
      vertex -3.82474 13.9742 11.99
      vertex -3.82474 13.4615 11.99
      vertex -3.51343 13.4381 11.99
    endloop
  endfacet
  facet normal 0 0 1
    outer loop
      vertex -3.82474 13.9742 11.99
      vertex -4.17003 13.4311 11.99
      vertex -3.82474 13.4615 11.99
    endloop
  endfacet
  facet normal -0 0 1
    outer loop
      vertex -4.26728 13.9335 11.99
      vertex -4.17003 13.4311 11.99
      vertex -3.82474 13.9742 11.99
    endloop
  endfacet
  facet normal 0 0 1
    outer loop
      vertex -4.26728 13.9335 11.99
      vertex -4.49344 13.3397 11.99
      vertex -4.17003 13.4311 11.99
    endloop
  endfacet
  facet normal -0 0 1
    outer loop
      vertex -4.68248 13.8118 11.99
      vertex -4.49344 13.3397 11.99
      vertex -4.26728 13.9335 11.99
    endloop
  endfacet
  facet normal 0 0 1
    outer loop
      vertex -4.68248 13.8118 11.99
      vertex -4.79499 13.1875 11.99
      vertex -4.49344 13.3397 11.99
    endloop
  endfacet
  facet normal -0 0 1
    outer loop
      vertex -5.07035 13.6087 11.99
      vertex -4.79499 13.1875 11.99
      vertex -4.68248 13.8118 11.99
    endloop
  endfacet
  facet normal 0 0 1
    outer loop
      vertex -5.07035 13.6087 11.99
      vertex -5.07466 12.9744 11.99
      vertex -4.79499 13.1875 11.99
    endloop
  endfacet
  facet normal -0 0 1
    outer loop
      vertex -5.43088 13.3245 11.99
      vertex -5.07466 12.9744 11.99
      vertex -5.07035 13.6087 11.99
    endloop
  endfacet
  facet normal 0 0 1
    outer loop
      vertex -5.07466 12.9744 11.99
      vertex -5.43088 13.3245 11.99
      vertex -5.3098 12.7208 11.99
    endloop
  endfacet
  facet normal -0 0 1
    outer loop
      vertex -5.73438 12.9873 11.99
      vertex -5.3098 12.7208 11.99
      vertex -5.43088 13.3245 11.99
    endloop
  endfacet
  facet normal 0 0 1
    outer loop
      vertex -5.3098 12.7208 11.99
      vertex -5.73438 12.9873 11.99
      vertex -5.47777 12.4469 11.99
    endloop
  endfacet
  facet normal 0 0 1
    outer loop
      vertex -5.47777 12.4469 11.99
      vertex -5.95117 12.625 11.99
      vertex -5.57856 12.1526 11.99
    endloop
  endfacet
  facet normal -0 0 1
    outer loop
      vertex -5.95117 12.625 11.99
      vertex -5.47777 12.4469 11.99
      vertex -5.73438 12.9873 11.99
    endloop
  endfacet
  facet normal 0 0 1
    outer loop
      vertex -1.73737 6.76263 11.99
      vertex -1.24993 6.99997 11.99
      vertex -1.73737 6.78928 11.99
    endloop
  endfacet
  facet normal 0 0 1
    outer loop
      vertex -1.24993 6.99997 11.99
      vertex -2.26935 7.25549 11.99
      vertex -1.73737 6.78928 11.99
    endloop
  endfacet
  facet normal 0 0 1
    outer loop
      vertex -1.24993 6.99997 11.99
      vertex -2.8779 7.81416 11.99
      vertex -2.26935 7.25549 11.99
    endloop
  endfacet
  facet normal 0 0 1
    outer loop
      vertex -4.19977 9.77475 11.99
      vertex -2.8779 7.81416 11.99
      vertex -1.24993 6.99997 11.99
    endloop
  endfacet
  facet normal 0 0 1
    outer loop
      vertex -2.8779 7.81416 11.99
      vertex -4.19977 9.77475 11.99
      vertex -3.56301 8.46532 11.99
    endloop
  endfacet
  facet normal 0 0 1
    outer loop
      vertex -4.19977 9.77475 11.99
      vertex -4.32469 9.20892 11.99
      vertex -3.56301 8.46532 11.99
    endloop
  endfacet
  facet normal 0 0 1
    outer loop
      vertex -4.85318 9.73633 11.99
      vertex -4.19977 9.77475 11.99
      vertex -4.59934 10.1608 11.99
    endloop
  endfacet
  facet normal 0 0 1
    outer loop
      vertex -4.19977 9.77475 11.99
      vertex -4.85318 9.73633 11.99
      vertex -4.32469 9.20892 11.99
    endloop
  endfacet
  facet normal -0 0 1
    outer loop
      vertex -5.2762 10.1792 11.99
      vertex -4.59934 10.1608 11.99
      vertex -4.92313 10.4938 11.99
    endloop
  endfacet
  facet normal 0 0 1
    outer loop
      vertex -5.2762 10.1792 11.99
      vertex -4.92313 10.4938 11.99
      vertex -5.17115 10.7735 11.99
    endloop
  endfacet
  facet normal 0 0 1
    outer loop
      vertex -4.59934 10.1608 11.99
      vertex -5.2762 10.1792 11.99
      vertex -4.85318 9.73633 11.99
    endloop
  endfacet
  facet normal 0 0 1
    outer loop
      vertex -5.59374 10.5376 11.99
      vertex -5.17115 10.7735 11.99
      vertex -5.3434 11.0002 11.99
    endloop
  endfacet
  facet normal 0 0 1
    outer loop
      vertex -5.80582 10.8115 11.99
      vertex -5.3434 11.0002 11.99
      vertex -5.46097 11.2027 11.99
    endloop
  endfacet
  facet normal 0 0 1
    outer loop
      vertex -5.94528 11.0486 11.99
      vertex -5.46097 11.2027 11.99
      vertex -5.54496 11.4098 11.99
    endloop
  endfacet
  facet normal 0 0 1
    outer loop
      vertex -5.17115 10.7735 11.99
      vertex -5.59374 10.5376 11.99
      vertex -5.2762 10.1792 11.99
    endloop
  endfacet
  facet normal 0 0 1
    outer loop
      vertex -6.04491 11.2966 11.99
      vertex -5.54496 11.4098 11.99
      vertex -5.59534 11.6216 11.99
    endloop
  endfacet
  facet normal 0 0 1
    outer loop
      vertex -6.10468 11.5556 11.99
      vertex -5.59534 11.6216 11.99
      vertex -5.61214 11.8381 11.99
    endloop
  endfacet
  facet normal -0 0 1
    outer loop
      vertex -6.08124 12.2378 11.99
      vertex -5.57856 12.1526 11.99
      vertex -5.95117 12.625 11.99
    endloop
  endfacet
  facet normal 0 0 1
    outer loop
      vertex -5.3434 11.0002 11.99
      vertex -5.80582 10.8115 11.99
      vertex -5.59374 10.5376 11.99
    endloop
  endfacet
  facet normal 0 0 1
    outer loop
      vertex -5.57856 12.1526 11.99
      vertex -6.08124 12.2378 11.99
      vertex -5.61214 11.8381 11.99
    endloop
  endfacet
  facet normal 0 0 1
    outer loop
      vertex -6.12461 11.8256 11.99
      vertex -5.61214 11.8381 11.99
      vertex -6.08124 12.2378 11.99
    endloop
  endfacet
  facet normal 0 0 1
    outer loop
      vertex -5.46097 11.2027 11.99
      vertex -5.94528 11.0486 11.99
      vertex -5.80582 10.8115 11.99
    endloop
  endfacet
  facet normal 0 0 1
    outer loop
      vertex -5.54496 11.4098 11.99
      vertex -6.04491 11.2966 11.99
      vertex -5.94528 11.0486 11.99
    endloop
  endfacet
  facet normal 0 0 1
    outer loop
      vertex -5.59534 11.6216 11.99
      vertex -6.10468 11.5556 11.99
      vertex -6.04491 11.2966 11.99
    endloop
  endfacet
  facet normal 0 0 1
    outer loop
      vertex -5.61214 11.8381 11.99
      vertex -6.12461 11.8256 11.99
      vertex -6.10468 11.5556 11.99
    endloop
  endfacet
  facet normal 0 0 1
    outer loop
      vertex -1.24993 6.99997 11.99
      vertex -1.73737 6.76263 11.99
      vertex -1.24993 6.25 11.99
    endloop
  endfacet
  facet normal -0 0 1
    outer loop
      vertex -5.66219 6.76263 11.99
      vertex -1.24993 6.25 11.99
      vertex -1.73737 6.76263 11.99
    endloop
  endfacet
  facet normal 0 0 1
    outer loop
      vertex -5.92462 7.55176 11.99
      vertex -5.67859 7.36151 11.99
      vertex -5.72779 7.46719 11.99
    endloop
  endfacet
  facet normal 0 0 1
    outer loop
      vertex -5.92462 7.55176 11.99
      vertex -5.72779 7.46719 11.99
      vertex -5.8098 7.53061 11.99
    endloop
  endfacet
  facet normal 0 0 1
    outer loop
      vertex -5.67859 7.36151 11.99
      vertex -5.92462 7.55176 11.99
      vertex -6.15901 7.36165 11.99
    endloop
  endfacet
  facet normal 0 0 1
    outer loop
      vertex -6.11214 7.46727 11.99
      vertex -5.92462 7.55176 11.99
      vertex -6.034 7.53062 11.99
    endloop
  endfacet
  facet normal 0 0 1
    outer loop
      vertex -5.92462 7.55176 11.99
      vertex -6.11214 7.46727 11.99
      vertex -6.15901 7.36165 11.99
    endloop
  endfacet
  facet normal 0 0 1
    outer loop
      vertex -5.67859 7.36151 11.99
      vertex -6.15901 7.36165 11.99
      vertex -6.17464 7.21381 11.99
    endloop
  endfacet
  facet normal 0 0 1
    outer loop
      vertex -5.66219 7.21353 11.99
      vertex -6.17464 7.21381 11.99
      vertex -5.66219 6.76263 11.99
    endloop
  endfacet
  facet normal 0 0 1
    outer loop
      vertex -5.66219 6.76263 11.99
      vertex -6.17464 6.25 11.99
      vertex -1.24993 6.25 11.99
    endloop
  endfacet
  facet normal 0 0 1
    outer loop
      vertex -6.17464 6.25 11.99
      vertex -5.66219 6.76263 11.99
      vertex -6.17464 7.21381 11.99
    endloop
  endfacet
  facet normal -0.994458 0.105136 0
    outer loop
      vertex -6.17464 7.21381 10
      vertex -6.15901 7.36165 11.99
      vertex -6.15901 7.36165 10
    endloop
  endfacet
  facet normal -0.994458 0.105136 0
    outer loop
      vertex -6.15901 7.36165 11.99
      vertex -6.17464 7.21381 10
      vertex -6.17464 7.21381 11.99
    endloop
  endfacet
  facet normal -0.914043 0.405616 0
    outer loop
      vertex -6.15901 7.36165 10
      vertex -6.11214 7.46727 11.99
      vertex -6.11214 7.46727 10
    endloop
  endfacet
  facet normal -0.914043 0.405616 0
    outer loop
      vertex -6.11214 7.46727 11.99
      vertex -6.15901 7.36165 10
      vertex -6.15901 7.36165 11.99
    endloop
  endfacet
  facet normal -0.629761 0.776789 0
    outer loop
      vertex -6.034 7.53062 10
      vertex -6.11214 7.46727 11.99
      vertex -6.034 7.53062 11.99
    endloop
  endfacet
  facet normal -0.629761 0.776789 0
    outer loop
      vertex -6.11214 7.46727 11.99
      vertex -6.034 7.53062 10
      vertex -6.11214 7.46727 10
    endloop
  endfacet
  facet normal -0.18976 0.981831 0
    outer loop
      vertex -5.92462 7.55176 10
      vertex -6.034 7.53062 11.99
      vertex -5.92462 7.55176 11.99
    endloop
  endfacet
  facet normal -0.18976 0.981831 0
    outer loop
      vertex -6.034 7.53062 11.99
      vertex -5.92462 7.55176 10
      vertex -6.034 7.53062 10
    endloop
  endfacet
  facet normal 0.181154 0.983455 -0
    outer loop
      vertex -5.8098 7.53061 10
      vertex -5.92462 7.55176 11.99
      vertex -5.8098 7.53061 11.99
    endloop
  endfacet
  facet normal 0.181154 0.983455 0
    outer loop
      vertex -5.92462 7.55176 11.99
      vertex -5.8098 7.53061 10
      vertex -5.92462 7.55176 10
    endloop
  endfacet
  facet normal 0.611741 0.791058 -0
    outer loop
      vertex -5.72779 7.46719 10
      vertex -5.8098 7.53061 11.99
      vertex -5.72779 7.46719 11.99
    endloop
  endfacet
  facet normal 0.611741 0.791058 0
    outer loop
      vertex -5.8098 7.53061 11.99
      vertex -5.72779 7.46719 10
      vertex -5.8098 7.53061 10
    endloop
  endfacet
  facet normal 0.906568 0.422059 0
    outer loop
      vertex -5.67859 7.36151 11.99
      vertex -5.72779 7.46719 10
      vertex -5.72779 7.46719 11.99
    endloop
  endfacet
  facet normal 0.906568 0.422059 0
    outer loop
      vertex -5.72779 7.46719 10
      vertex -5.67859 7.36151 11.99
      vertex -5.67859 7.36151 10
    endloop
  endfacet
  facet normal 0.993915 0.110151 0
    outer loop
      vertex -5.66219 7.21353 11.99
      vertex -5.67859 7.36151 10
      vertex -5.67859 7.36151 11.99
    endloop
  endfacet
  facet normal 0.993915 0.110151 0
    outer loop
      vertex -5.67859 7.36151 10
      vertex -5.66219 7.21353 11.99
      vertex -5.66219 7.21353 10
    endloop
  endfacet
  facet normal 1 -0 0
    outer loop
      vertex -5.66219 6.76263 11.99
      vertex -5.66219 7.21353 10
      vertex -5.66219 7.21353 11.99
    endloop
  endfacet
  facet normal 1 0 0
    outer loop
      vertex -5.66219 7.21353 10
      vertex -5.66219 6.76263 11.99
      vertex -5.66219 6.76263 10
    endloop
  endfacet
  facet normal 0 1 -0
    outer loop
      vertex -1.73737 6.76263 10
      vertex -5.66219 6.76263 11.99
      vertex -1.73737 6.76263 11.99
    endloop
  endfacet
  facet normal 0 1 0
    outer loop
      vertex -5.66219 6.76263 11.99
      vertex -1.73737 6.76263 10
      vertex -5.66219 6.76263 10
    endloop
  endfacet
  facet normal -1 0 0
    outer loop
      vertex -1.73737 6.76263 10
      vertex -1.73737 6.78928 11.99
      vertex -1.73737 6.78928 10
    endloop
  endfacet
  facet normal -1 -0 0
    outer loop
      vertex -1.73737 6.78928 11.99
      vertex -1.73737 6.76263 10
      vertex -1.73737 6.76263 11.99
    endloop
  endfacet
  facet normal -0.659087 -0.752067 0
    outer loop
      vertex -2.26935 7.25549 10
      vertex -1.73737 6.78928 11.99
      vertex -2.26935 7.25549 11.99
    endloop
  endfacet
  facet normal -0.659087 -0.752067 -0
    outer loop
      vertex -1.73737 6.78928 11.99
      vertex -2.26935 7.25549 10
      vertex -1.73737 6.78928 10
    endloop
  endfacet
  facet normal -0.676272 -0.736652 0
    outer loop
      vertex -2.8779 7.81416 10
      vertex -2.26935 7.25549 11.99
      vertex -2.8779 7.81416 11.99
    endloop
  endfacet
  facet normal -0.676272 -0.736652 -0
    outer loop
      vertex -2.26935 7.25549 11.99
      vertex -2.8779 7.81416 10
      vertex -2.26935 7.25549 10
    endloop
  endfacet
  facet normal -0.688919 -0.724838 0
    outer loop
      vertex -3.56301 8.46532 10
      vertex -2.8779 7.81416 11.99
      vertex -3.56301 8.46532 11.99
    endloop
  endfacet
  facet normal -0.688919 -0.724838 -0
    outer loop
      vertex -2.8779 7.81416 11.99
      vertex -3.56301 8.46532 10
      vertex -2.8779 7.81416 10
    endloop
  endfacet
  facet normal -0.698563 -0.715548 0
    outer loop
      vertex -4.32469 9.20892 10
      vertex -3.56301 8.46532 11.99
      vertex -4.32469 9.20892 11.99
    endloop
  endfacet
  facet normal -0.698563 -0.715548 -0
    outer loop
      vertex -3.56301 8.46532 11.99
      vertex -4.32469 9.20892 10
      vertex -3.56301 8.46532 10
    endloop
  endfacet
  facet normal -0.706383 -0.70783 0
    outer loop
      vertex -4.85318 9.73633 10
      vertex -4.32469 9.20892 11.99
      vertex -4.85318 9.73633 11.99
    endloop
  endfacet
  facet normal -0.706383 -0.70783 -0
    outer loop
      vertex -4.32469 9.20892 11.99
      vertex -4.85318 9.73633 10
      vertex -4.32469 9.20892 10
    endloop
  endfacet
  facet normal -0.723127 -0.690715 0
    outer loop
      vertex -4.85318 9.73633 10
      vertex -5.2762 10.1792 11.99
      vertex -5.2762 10.1792 10
    endloop
  endfacet
  facet normal -0.723127 -0.690715 0
    outer loop
      vertex -5.2762 10.1792 11.99
      vertex -4.85318 9.73633 10
      vertex -4.85318 9.73633 11.99
    endloop
  endfacet
  facet normal -0.748485 -0.663152 0
    outer loop
      vertex -5.2762 10.1792 10
      vertex -5.59374 10.5376 11.99
      vertex -5.59374 10.5376 10
    endloop
  endfacet
  facet normal -0.748485 -0.663152 0
    outer loop
      vertex -5.59374 10.5376 11.99
      vertex -5.2762 10.1792 10
      vertex -5.2762 10.1792 11.99
    endloop
  endfacet
  facet normal -0.790684 -0.612224 0
    outer loop
      vertex -5.59374 10.5376 10
      vertex -5.80582 10.8115 11.99
      vertex -5.80582 10.8115 10
    endloop
  endfacet
  facet normal -0.790684 -0.612224 0
    outer loop
      vertex -5.80582 10.8115 11.99
      vertex -5.59374 10.5376 10
      vertex -5.59374 10.5376 11.99
    endloop
  endfacet
  facet normal -0.861951 -0.506992 0
    outer loop
      vertex -5.80582 10.8115 10
      vertex -5.94528 11.0486 11.99
      vertex -5.94528 11.0486 10
    endloop
  endfacet
  facet normal -0.861951 -0.506992 0
    outer loop
      vertex -5.94528 11.0486 11.99
      vertex -5.80582 10.8115 10
      vertex -5.80582 10.8115 11.99
    endloop
  endfacet
  facet normal -0.927921 -0.372777 0
    outer loop
      vertex -5.94528 11.0486 10
      vertex -6.04491 11.2966 11.99
      vertex -6.04491 11.2966 10
    endloop
  endfacet
  facet normal -0.927921 -0.372777 0
    outer loop
      vertex -6.04491 11.2966 11.99
      vertex -5.94528 11.0486 10
      vertex -5.94528 11.0486 11.99
    endloop
  endfacet
  facet normal -0.974391 -0.224862 0
    outer loop
      vertex -6.04491 11.2966 10
      vertex -6.10468 11.5556 11.99
      vertex -6.10468 11.5556 10
    endloop
  endfacet
  facet normal -0.974391 -0.224862 0
    outer loop
      vertex -6.10468 11.5556 11.99
      vertex -6.04491 11.2966 10
      vertex -6.04491 11.2966 11.99
    endloop
  endfacet
  facet normal -0.997287 -0.0736145 0
    outer loop
      vertex -6.10468 11.5556 10
      vertex -6.12461 11.8256 11.99
      vertex -6.12461 11.8256 10
    endloop
  endfacet
  facet normal -0.997287 -0.0736145 0
    outer loop
      vertex -6.12461 11.8256 11.99
      vertex -6.10468 11.5556 10
      vertex -6.10468 11.5556 11.99
    endloop
  endfacet
  facet normal -0.99451 0.104638 0
    outer loop
      vertex -6.12461 11.8256 10
      vertex -6.08124 12.2378 11.99
      vertex -6.08124 12.2378 10
    endloop
  endfacet
  facet normal -0.99451 0.104638 0
    outer loop
      vertex -6.08124 12.2378 11.99
      vertex -6.12461 11.8256 10
      vertex -6.12461 11.8256 11.99
    endloop
  endfacet
  facet normal -0.947944 0.318438 0
    outer loop
      vertex -6.08124 12.2378 10
      vertex -5.95117 12.625 11.99
      vertex -5.95117 12.625 10
    endloop
  endfacet
  facet normal -0.947944 0.318438 0
    outer loop
      vertex -5.95117 12.625 11.99
      vertex -6.08124 12.2378 10
      vertex -6.08124 12.2378 11.99
    endloop
  endfacet
  facet normal -0.858109 0.513468 0
    outer loop
      vertex -5.95117 12.625 10
      vertex -5.73438 12.9873 11.99
      vertex -5.73438 12.9873 10
    endloop
  endfacet
  facet normal -0.858109 0.513468 0
    outer loop
      vertex -5.73438 12.9873 11.99
      vertex -5.95117 12.625 10
      vertex -5.95117 12.625 11.99
    endloop
  endfacet
  facet normal -0.743272 0.668989 0
    outer loop
      vertex -5.73438 12.9873 10
      vertex -5.43088 13.3245 11.99
      vertex -5.43088 13.3245 10
    endloop
  endfacet
  facet normal -0.743272 0.668989 0
    outer loop
      vertex -5.43088 13.3245 11.99
      vertex -5.73438 12.9873 10
      vertex -5.73438 12.9873 11.99
    endloop
  endfacet
  facet normal -0.619069 0.785337 0
    outer loop
      vertex -5.07035 13.6087 10
      vertex -5.43088 13.3245 11.99
      vertex -5.07035 13.6087 11.99
    endloop
  endfacet
  facet normal -0.619069 0.785337 0
    outer loop
      vertex -5.43088 13.3245 11.99
      vertex -5.07035 13.6087 10
      vertex -5.43088 13.3245 10
    endloop
  endfacet
  facet normal -0.463882 0.885897 0
    outer loop
      vertex -4.68248 13.8118 10
      vertex -5.07035 13.6087 11.99
      vertex -4.68248 13.8118 11.99
    endloop
  endfacet
  facet normal -0.463882 0.885897 0
    outer loop
      vertex -5.07035 13.6087 11.99
      vertex -4.68248 13.8118 10
      vertex -5.07035 13.6087 10
    endloop
  endfacet
  facet normal -0.281278 0.959626 0
    outer loop
      vertex -4.26728 13.9335 10
      vertex -4.68248 13.8118 11.99
      vertex -4.26728 13.9335 11.99
    endloop
  endfacet
  facet normal -0.281278 0.959626 0
    outer loop
      vertex -4.68248 13.8118 11.99
      vertex -4.26728 13.9335 10
      vertex -4.68248 13.8118 10
    endloop
  endfacet
  facet normal -0.0915826 0.995797 0
    outer loop
      vertex -3.82474 13.9742 10
      vertex -4.26728 13.9335 11.99
      vertex -3.82474 13.9742 11.99
    endloop
  endfacet
  facet normal -0.0915826 0.995797 0
    outer loop
      vertex -4.26728 13.9335 11.99
      vertex -3.82474 13.9742 10
      vertex -4.26728 13.9335 10
    endloop
  endfacet
  facet normal 0.0861322 0.996284 -0
    outer loop
      vertex -3.34587 13.9328 10
      vertex -3.82474 13.9742 11.99
      vertex -3.34587 13.9328 11.99
    endloop
  endfacet
  facet normal 0.0861322 0.996284 0
    outer loop
      vertex -3.82474 13.9742 11.99
      vertex -3.34587 13.9328 10
      vertex -3.82474 13.9742 10
    endloop
  endfacet
  facet normal 0.273575 0.961851 -0
    outer loop
      vertex -2.9092 13.8086 10
      vertex -3.34587 13.9328 11.99
      vertex -2.9092 13.8086 11.99
    endloop
  endfacet
  facet normal 0.273575 0.961851 0
    outer loop
      vertex -3.34587 13.9328 11.99
      vertex -2.9092 13.8086 10
      vertex -3.34587 13.9328 10
    endloop
  endfacet
  facet normal 0.464441 0.885604 -0
    outer loop
      vertex -2.51468 13.6017 10
      vertex -2.9092 13.8086 11.99
      vertex -2.51468 13.6017 11.99
    endloop
  endfacet
  facet normal 0.464441 0.885604 0
    outer loop
      vertex -2.9092 13.8086 11.99
      vertex -2.51468 13.6017 10
      vertex -2.9092 13.8086 10
    endloop
  endfacet
  facet normal 0.635125 0.77241 -0
    outer loop
      vertex -2.16236 13.312 10
      vertex -2.51468 13.6017 11.99
      vertex -2.16236 13.312 11.99
    endloop
  endfacet
  facet normal 0.635125 0.77241 0
    outer loop
      vertex -2.51468 13.6017 11.99
      vertex -2.16236 13.312 10
      vertex -2.51468 13.6017 10
    endloop
  endfacet
  facet normal 0.743695 0.668519 0
    outer loop
      vertex -1.87255 12.9896 11.99
      vertex -2.16236 13.312 10
      vertex -2.16236 13.312 11.99
    endloop
  endfacet
  facet normal 0.743695 0.668519 0
    outer loop
      vertex -2.16236 13.312 10
      vertex -1.87255 12.9896 11.99
      vertex -1.87255 12.9896 10
    endloop
  endfacet
  facet normal 0.827687 0.56119 0
    outer loop
      vertex -1.66555 12.6843 11.99
      vertex -1.87255 12.9896 10
      vertex -1.87255 12.9896 11.99
    endloop
  endfacet
  facet normal 0.827687 0.56119 0
    outer loop
      vertex -1.87255 12.9896 10
      vertex -1.66555 12.6843 11.99
      vertex -1.66555 12.6843 10
    endloop
  endfacet
  facet normal 0.918252 0.395996 0
    outer loop
      vertex -1.54135 12.3963 11.99
      vertex -1.66555 12.6843 10
      vertex -1.66555 12.6843 11.99
    endloop
  endfacet
  facet normal 0.918252 0.395996 0
    outer loop
      vertex -1.66555 12.6843 10
      vertex -1.54135 12.3963 11.99
      vertex -1.54135 12.3963 10
    endloop
  endfacet
  facet normal 0.988529 0.151034 0
    outer loop
      vertex -1.49996 12.1254 11.99
      vertex -1.54135 12.3963 10
      vertex -1.54135 12.3963 11.99
    endloop
  endfacet
  facet normal 0.988529 0.151034 0
    outer loop
      vertex -1.54135 12.3963 10
      vertex -1.49996 12.1254 11.99
      vertex -1.49996 12.1254 10
    endloop
  endfacet
  facet normal 0.99402 -0.109202 0
    outer loop
      vertex -1.50464 12.0828 11.99
      vertex -1.49996 12.1254 10
      vertex -1.49996 12.1254 11.99
    endloop
  endfacet
  facet normal 0.99402 -0.109202 0
    outer loop
      vertex -1.49996 12.1254 10
      vertex -1.50464 12.0828 11.99
      vertex -1.50464 12.0828 10
    endloop
  endfacet
  facet normal 0.944005 -0.329932 0
    outer loop
      vertex -1.51869 12.0426 11.99
      vertex -1.50464 12.0828 10
      vertex -1.50464 12.0828 11.99
    endloop
  endfacet
  facet normal 0.944005 -0.329932 0
    outer loop
      vertex -1.50464 12.0828 10
      vertex -1.51869 12.0426 11.99
      vertex -1.51869 12.0426 10
    endloop
  endfacet
  facet normal 0.849963 -0.526842 0
    outer loop
      vertex -1.54212 12.0048 11.99
      vertex -1.51869 12.0426 10
      vertex -1.51869 12.0426 11.99
    endloop
  endfacet
  facet normal 0.849963 -0.526842 0
    outer loop
      vertex -1.51869 12.0426 10
      vertex -1.54212 12.0048 11.99
      vertex -1.54212 12.0048 10
    endloop
  endfacet
  facet normal 0.735437 -0.677593 0
    outer loop
      vertex -1.57492 11.9692 11.99
      vertex -1.54212 12.0048 10
      vertex -1.54212 12.0048 11.99
    endloop
  endfacet
  facet normal 0.735437 -0.677593 0
    outer loop
      vertex -1.54212 12.0048 10
      vertex -1.57492 11.9692 11.99
      vertex -1.57492 11.9692 10
    endloop
  endfacet
  facet normal 0.61694 -0.78701 0
    outer loop
      vertex -1.61319 11.9392 10
      vertex -1.57492 11.9692 11.99
      vertex -1.61319 11.9392 11.99
    endloop
  endfacet
  facet normal 0.61694 -0.78701 0
    outer loop
      vertex -1.57492 11.9692 11.99
      vertex -1.61319 11.9392 10
      vertex -1.57492 11.9692 10
    endloop
  endfacet
  facet normal 0.475009 -0.879981 0
    outer loop
      vertex -1.65302 11.9177 10
      vertex -1.61319 11.9392 11.99
      vertex -1.65302 11.9177 11.99
    endloop
  endfacet
  facet normal 0.475009 -0.879981 0
    outer loop
      vertex -1.61319 11.9392 11.99
      vertex -1.65302 11.9177 10
      vertex -1.61319 11.9392 10
    endloop
  endfacet
  facet normal 0.297487 -0.954726 0
    outer loop
      vertex -1.69442 11.9048 10
      vertex -1.65302 11.9177 11.99
      vertex -1.69442 11.9048 11.99
    endloop
  endfacet
  facet normal 0.297487 -0.954726 0
    outer loop
      vertex -1.65302 11.9177 11.99
      vertex -1.69442 11.9048 10
      vertex -1.65302 11.9177 10
    endloop
  endfacet
  facet normal 0.0973239 -0.995253 0
    outer loop
      vertex -1.73737 11.9006 10
      vertex -1.69442 11.9048 11.99
      vertex -1.73737 11.9006 11.99
    endloop
  endfacet
  facet normal 0.0973239 -0.995253 0
    outer loop
      vertex -1.69442 11.9048 11.99
      vertex -1.73737 11.9006 10
      vertex -1.69442 11.9048 10
    endloop
  endfacet
  facet normal -0.177008 -0.984209 0
    outer loop
      vertex -1.82411 11.9162 10
      vertex -1.73737 11.9006 11.99
      vertex -1.82411 11.9162 11.99
    endloop
  endfacet
  facet normal -0.177008 -0.984209 -0
    outer loop
      vertex -1.73737 11.9006 11.99
      vertex -1.82411 11.9162 10
      vertex -1.73737 11.9006 10
    endloop
  endfacet
  facet normal -0.541442 -0.840738 0
    outer loop
      vertex -1.89678 11.963 10
      vertex -1.82411 11.9162 11.99
      vertex -1.89678 11.963 11.99
    endloop
  endfacet
  facet normal -0.541442 -0.840738 -0
    outer loop
      vertex -1.82411 11.9162 11.99
      vertex -1.89678 11.963 10
      vertex -1.82411 11.9162 10
    endloop
  endfacet
  facet normal -0.799459 -0.600721 0
    outer loop
      vertex -1.89678 11.963 10
      vertex -1.95539 12.041 11.99
      vertex -1.95539 12.041 10
    endloop
  endfacet
  facet normal -0.799459 -0.600721 0
    outer loop
      vertex -1.95539 12.041 11.99
      vertex -1.89678 11.963 10
      vertex -1.89678 11.963 11.99
    endloop
  endfacet
  facet normal -0.92615 -0.377154 0
    outer loop
      vertex -1.95539 12.041 10
      vertex -1.9999 12.1503 11.99
      vertex -1.9999 12.1503 10
    endloop
  endfacet
  facet normal -0.92615 -0.377154 0
    outer loop
      vertex -1.9999 12.1503 11.99
      vertex -1.95539 12.041 10
      vertex -1.95539 12.041 11.99
    endloop
  endfacet
  facet normal -0.939645 -0.342152 0
    outer loop
      vertex -1.9999 12.1503 10
      vertex -2.09796 12.4196 11.99
      vertex -2.09796 12.4196 10
    endloop
  endfacet
  facet normal -0.939645 -0.342152 0
    outer loop
      vertex -2.09796 12.4196 11.99
      vertex -1.9999 12.1503 10
      vertex -1.9999 12.1503 11.99
    endloop
  endfacet
  facet normal -0.862621 -0.505851 0
    outer loop
      vertex -2.09796 12.4196 10
      vertex -2.2421 12.6654 11.99
      vertex -2.2421 12.6654 10
    endloop
  endfacet
  facet normal -0.862621 -0.505851 0
    outer loop
      vertex -2.2421 12.6654 11.99
      vertex -2.09796 12.4196 10
      vertex -2.09796 12.4196 11.99
    endloop
  endfacet
  facet normal -0.75998 -0.649947 0
    outer loop
      vertex -2.2421 12.6654 10
      vertex -2.4323 12.8878 11.99
      vertex -2.4323 12.8878 10
    endloop
  endfacet
  facet normal -0.75998 -0.649947 0
    outer loop
      vertex -2.4323 12.8878 11.99
      vertex -2.2421 12.6654 10
      vertex -2.2421 12.6654 11.99
    endloop
  endfacet
  facet normal -0.644156 -0.764894 0
    outer loop
      vertex -2.6686 13.0868 10
      vertex -2.4323 12.8878 11.99
      vertex -2.6686 13.0868 11.99
    endloop
  endfacet
  facet normal -0.644156 -0.764894 -0
    outer loop
      vertex -2.4323 12.8878 11.99
      vertex -2.6686 13.0868 10
      vertex -2.4323 12.8878 10
    endloop
  endfacet
  facet normal -0.523713 -0.851895 0
    outer loop
      vertex -2.93537 13.2508 10
      vertex -2.6686 13.0868 11.99
      vertex -2.93537 13.2508 11.99
    endloop
  endfacet
  facet normal -0.523713 -0.851895 -0
    outer loop
      vertex -2.6686 13.0868 11.99
      vertex -2.93537 13.2508 10
      vertex -2.6686 13.0868 10
    endloop
  endfacet
  facet normal -0.383684 -0.923465 0
    outer loop
      vertex -3.21697 13.3678 10
      vertex -2.93537 13.2508 11.99
      vertex -3.21697 13.3678 11.99
    endloop
  endfacet
  facet normal -0.383684 -0.923465 -0
    outer loop
      vertex -2.93537 13.2508 11.99
      vertex -3.21697 13.3678 10
      vertex -2.93537 13.2508 10
    endloop
  endfacet
  facet normal -0.230733 -0.973017 0
    outer loop
      vertex -3.51343 13.4381 10
      vertex -3.21697 13.3678 11.99
      vertex -3.51343 13.4381 11.99
    endloop
  endfacet
  facet normal -0.230733 -0.973017 -0
    outer loop
      vertex -3.21697 13.3678 11.99
      vertex -3.51343 13.4381 10
      vertex -3.21697 13.3678 10
    endloop
  endfacet
  facet normal -0.0749548 -0.997187 0
    outer loop
      vertex -3.82474 13.4615 10
      vertex -3.51343 13.4381 11.99
      vertex -3.82474 13.4615 11.99
    endloop
  endfacet
  facet normal -0.0749548 -0.997187 -0
    outer loop
      vertex -3.51343 13.4381 11.99
      vertex -3.82474 13.4615 10
      vertex -3.51343 13.4381 10
    endloop
  endfacet
  facet normal 0.0877027 -0.996147 0
    outer loop
      vertex -4.17003 13.4311 10
      vertex -3.82474 13.4615 11.99
      vertex -4.17003 13.4311 11.99
    endloop
  endfacet
  facet normal 0.0877027 -0.996147 0
    outer loop
      vertex -3.82474 13.4615 11.99
      vertex -4.17003 13.4311 10
      vertex -3.82474 13.4615 10
    endloop
  endfacet
  facet normal 0.271961 -0.962308 0
    outer loop
      vertex -4.49344 13.3397 10
      vertex -4.17003 13.4311 11.99
      vertex -4.49344 13.3397 11.99
    endloop
  endfacet
  facet normal 0.271961 -0.962308 0
    outer loop
      vertex -4.17003 13.4311 11.99
      vertex -4.49344 13.3397 10
      vertex -4.17003 13.4311 10
    endloop
  endfacet
  facet normal 0.450585 -0.892733 0
    outer loop
      vertex -4.79499 13.1875 10
      vertex -4.49344 13.3397 11.99
      vertex -4.79499 13.1875 11.99
    endloop
  endfacet
  facet normal 0.450585 -0.892733 0
    outer loop
      vertex -4.49344 13.3397 11.99
      vertex -4.79499 13.1875 10
      vertex -4.49344 13.3397 10
    endloop
  endfacet
  facet normal 0.606076 -0.795407 0
    outer loop
      vertex -5.07466 12.9744 10
      vertex -4.79499 13.1875 11.99
      vertex -5.07466 12.9744 11.99
    endloop
  endfacet
  facet normal 0.606076 -0.795407 0
    outer loop
      vertex -4.79499 13.1875 11.99
      vertex -5.07466 12.9744 10
      vertex -4.79499 13.1875 10
    endloop
  endfacet
  facet normal 0.733292 -0.679914 0
    outer loop
      vertex -5.3098 12.7208 11.99
      vertex -5.07466 12.9744 10
      vertex -5.07466 12.9744 11.99
    endloop
  endfacet
  facet normal 0.733292 -0.679914 0
    outer loop
      vertex -5.07466 12.9744 10
      vertex -5.3098 12.7208 11.99
      vertex -5.3098 12.7208 10
    endloop
  endfacet
  facet normal 0.852468 -0.522779 0
    outer loop
      vertex -5.47777 12.4469 11.99
      vertex -5.3098 12.7208 10
      vertex -5.3098 12.7208 11.99
    endloop
  endfacet
  facet normal 0.852468 -0.522779 0
    outer loop
      vertex -5.3098 12.7208 10
      vertex -5.47777 12.4469 11.99
      vertex -5.47777 12.4469 10
    endloop
  endfacet
  facet normal 0.946057 -0.324 0
    outer loop
      vertex -5.57856 12.1526 11.99
      vertex -5.47777 12.4469 10
      vertex -5.47777 12.4469 11.99
    endloop
  endfacet
  facet normal 0.946057 -0.324 0
    outer loop
      vertex -5.47777 12.4469 10
      vertex -5.57856 12.1526 11.99
      vertex -5.57856 12.1526 10
    endloop
  endfacet
  facet normal 0.994348 -0.106169 0
    outer loop
      vertex -5.61214 11.8381 11.99
      vertex -5.57856 12.1526 10
      vertex -5.57856 12.1526 11.99
    endloop
  endfacet
  facet normal 0.994348 -0.106169 0
    outer loop
      vertex -5.57856 12.1526 10
      vertex -5.61214 11.8381 11.99
      vertex -5.61214 11.8381 10
    endloop
  endfacet
  facet normal 0.997003 0.0773656 0
    outer loop
      vertex -5.59534 11.6216 11.99
      vertex -5.61214 11.8381 10
      vertex -5.61214 11.8381 11.99
    endloop
  endfacet
  facet normal 0.997003 0.0773656 0
    outer loop
      vertex -5.61214 11.8381 10
      vertex -5.59534 11.6216 11.99
      vertex -5.59534 11.6216 10
    endloop
  endfacet
  facet normal 0.972856 0.231409 0
    outer loop
      vertex -5.54496 11.4098 11.99
      vertex -5.59534 11.6216 10
      vertex -5.59534 11.6216 11.99
    endloop
  endfacet
  facet normal 0.972856 0.231409 0
    outer loop
      vertex -5.59534 11.6216 10
      vertex -5.54496 11.4098 11.99
      vertex -5.54496 11.4098 10
    endloop
  endfacet
  facet normal 0.926692 0.375822 0
    outer loop
      vertex -5.46097 11.2027 11.99
      vertex -5.54496 11.4098 10
      vertex -5.54496 11.4098 11.99
    endloop
  endfacet
  facet normal 0.926692 0.375822 0
    outer loop
      vertex -5.54496 11.4098 10
      vertex -5.46097 11.2027 11.99
      vertex -5.46097 11.2027 10
    endloop
  endfacet
  facet normal 0.864809 0.502102 0
    outer loop
      vertex -5.3434 11.0002 11.99
      vertex -5.46097 11.2027 10
      vertex -5.46097 11.2027 11.99
    endloop
  endfacet
  facet normal 0.864809 0.502102 0
    outer loop
      vertex -5.46097 11.2027 10
      vertex -5.3434 11.0002 11.99
      vertex -5.3434 11.0002 10
    endloop
  endfacet
  facet normal 0.796233 0.60499 0
    outer loop
      vertex -5.17115 10.7735 11.99
      vertex -5.3434 11.0002 10
      vertex -5.3434 11.0002 11.99
    endloop
  endfacet
  facet normal 0.796233 0.60499 0
    outer loop
      vertex -5.3434 11.0002 10
      vertex -5.17115 10.7735 11.99
      vertex -5.17115 10.7735 10
    endloop
  endfacet
  facet normal 0.748209 0.663463 0
    outer loop
      vertex -4.92313 10.4938 11.99
      vertex -5.17115 10.7735 10
      vertex -5.17115 10.7735 11.99
    endloop
  endfacet
  facet normal 0.748209 0.663463 0
    outer loop
      vertex -5.17115 10.7735 10
      vertex -4.92313 10.4938 11.99
      vertex -4.92313 10.4938 10
    endloop
  endfacet
  facet normal 0.716952 0.697123 0
    outer loop
      vertex -4.59934 10.1608 11.99
      vertex -4.92313 10.4938 10
      vertex -4.92313 10.4938 11.99
    endloop
  endfacet
  facet normal 0.716952 0.697123 0
    outer loop
      vertex -4.92313 10.4938 10
      vertex -4.59934 10.1608 11.99
      vertex -4.59934 10.1608 10
    endloop
  endfacet
  facet normal 0.694835 0.719169 -0
    outer loop
      vertex -4.19977 9.77475 10
      vertex -4.59934 10.1608 11.99
      vertex -4.19977 9.77475 11.99
    endloop
  endfacet
  facet normal 0.694835 0.719169 0
    outer loop
      vertex -4.59934 10.1608 11.99
      vertex -4.19977 9.77475 10
      vertex -4.59934 10.1608 10
    endloop
  endfacet
  facet normal 0.685163 0.72839 -0
    outer loop
      vertex -1.24993 6.99997 10
      vertex -4.19977 9.77475 11.99
      vertex -1.24993 6.99997 11.99
    endloop
  endfacet
  facet normal 0.685163 0.72839 0
    outer loop
      vertex -4.19977 9.77475 11.99
      vertex -1.24993 6.99997 10
      vertex -4.19977 9.77475 10
    endloop
  endfacet
  facet normal 1 -0 0
    outer loop
      vertex -1.24993 6.25 11.99
      vertex -1.24993 6.99997 10
      vertex -1.24993 6.99997 11.99
    endloop
  endfacet
  facet normal 1 0 0
    outer loop
      vertex -1.24993 6.99997 10
      vertex -1.24993 6.25 11.99
      vertex -1.24993 6.25 10
    endloop
  endfacet
  facet normal 0 -1 0
    outer loop
      vertex -6.17464 6.25 10
      vertex -1.24993 6.25 11.99
      vertex -6.17464 6.25 11.99
    endloop
  endfacet
  facet normal 0 -1 -0
    outer loop
      vertex -1.24993 6.25 11.99
      vertex -6.17464 6.25 10
      vertex -1.24993 6.25 10
    endloop
  endfacet
  facet normal -1 0 0
    outer loop
      vertex -6.17464 6.25 10
      vertex -6.17464 7.21381 11.99
      vertex -6.17464 7.21381 10
    endloop
  endfacet
  facet normal -1 -0 0
    outer loop
      vertex -6.17464 7.21381 11.99
      vertex -6.17464 6.25 10
      vertex -6.17464 6.25 11.99
    endloop
  endfacet
endsolid OpenSCAD_Model
