solid OpenSCAD_Model
  facet normal 0 0 1
    outer loop
      vertex 0 14.5 10
      vertex -1.39987 7.27275 10
      vertex 0 2.5 10
    endloop
  endfacet
  facet normal 0 0 1
    outer loop
      vertex 0 14.5 10
      vertex -1.40456 7.32118 10
      vertex -1.39987 7.27275 10
    endloop
  endfacet
  facet normal 0 0 1
    outer loop
      vertex 0 14.5 10
      vertex -1.41861 7.36649 10
      vertex -1.40456 7.32118 10
    endloop
  endfacet
  facet normal -0 0 1
    outer loop
      vertex -2.06237 10.4416 10
      vertex -1.41861 7.36649 10
      vertex 0 14.5 10
    endloop
  endfacet
  facet normal 0 0 1
    outer loop
      vertex -1.41861 7.36649 10
      vertex -2.06237 10.4416 10
      vertex -1.44205 7.40866 10
    endloop
  endfacet
  facet normal -0 0 1
    outer loop
      vertex -2.07721 10.3214 10
      vertex -1.44205 7.40866 10
      vertex -2.06237 10.4416 10
    endloop
  endfacet
  facet normal 0 0 1
    outer loop
      vertex -1.44205 7.40866 10
      vertex -2.07721 10.3214 10
      vertex -1.47484 7.44771 10
    endloop
  endfacet
  facet normal 0 0 1
    outer loop
      vertex -1.47484 7.44771 10
      vertex -2.07721 10.3214 10
      vertex -1.51393 7.48055 10
    endloop
  endfacet
  facet normal -0 0 1
    outer loop
      vertex -2.12174 10.2355 10
      vertex -1.51393 7.48055 10
      vertex -2.07721 10.3214 10
    endloop
  endfacet
  facet normal 0 0 1
    outer loop
      vertex -1.51393 7.48055 10
      vertex -2.12174 10.2355 10
      vertex -1.55614 7.50401 10
    endloop
  endfacet
  facet normal 0 0 1
    outer loop
      vertex -1.55614 7.50401 10
      vertex -2.12174 10.2355 10
      vertex -1.60146 7.51808 10
    endloop
  endfacet
  facet normal -0 0 1
    outer loop
      vertex -2.19596 10.184 10
      vertex -1.60146 7.51808 10
      vertex -2.12174 10.2355 10
    endloop
  endfacet
  facet normal 0 0 1
    outer loop
      vertex -1.64989 7.52277 10
      vertex -2.19596 10.184 10
      vertex -1.70067 7.51575 10
    endloop
  endfacet
  facet normal 0 0 1
    outer loop
      vertex -2.06237 10.4416 10
      vertex 0 14.5 10
      vertex -2.06237 13.8013 10
    endloop
  endfacet
  facet normal 0 0 1
    outer loop
      vertex 0 14.5 10
      vertex -5.58712 13.8013 10
      vertex -2.06237 13.8013 10
    endloop
  endfacet
  facet normal -0 0 1
    outer loop
      vertex -8 14.5 10
      vertex -5.58712 13.8013 10
      vertex 0 14.5 10
    endloop
  endfacet
  facet normal 0 0 1
    outer loop
      vertex -5.91526 13.4364 10
      vertex -6.28084 9.72028 10
      vertex -6.08554 10.1321 10
    endloop
  endfacet
  facet normal 0 0 1
    outer loop
      vertex -5.91526 13.4364 10
      vertex -8 14.5 10
      vertex -6.28084 9.72028 10
    endloop
  endfacet
  facet normal 0 0 1
    outer loop
      vertex -6.39803 9.26312 10
      vertex -8 14.5 10
      vertex -6.43708 8.76064 10
    endloop
  endfacet
  facet normal 0 0 1
    outer loop
      vertex -6.28084 9.72028 10
      vertex -8 14.5 10
      vertex -6.39803 9.26312 10
    endloop
  endfacet
  facet normal 0 0 1
    outer loop
      vertex -5.91526 13.6607 10
      vertex -8 14.5 10
      vertex -5.93714 13.5512 10
    endloop
  endfacet
  facet normal 0 0 1
    outer loop
      vertex -5.84963 13.7388 10
      vertex -8 14.5 10
      vertex -5.91526 13.6607 10
    endloop
  endfacet
  facet normal 0 0 1
    outer loop
      vertex -5.74025 13.7857 10
      vertex -8 14.5 10
      vertex -5.84963 13.7388 10
    endloop
  endfacet
  facet normal 0 0 1
    outer loop
      vertex -5.58712 13.8013 10
      vertex -8 14.5 10
      vertex -5.74025 13.7857 10
    endloop
  endfacet
  facet normal -0 0 1
    outer loop
      vertex -1.45066 7.11803 10
      vertex 0 2.5 10
      vertex -1.39987 7.27275 10
    endloop
  endfacet
  facet normal -0 0 1
    outer loop
      vertex -1.60298 6.94142 10
      vertex 0 2.5 10
      vertex -1.45066 7.11803 10
    endloop
  endfacet
  facet normal -0 0 1
    outer loop
      vertex -1.85686 6.7429 10
      vertex 0 2.5 10
      vertex -1.60298 6.94142 10
    endloop
  endfacet
  facet normal -0 0 1
    outer loop
      vertex -2.2123 6.52251 10
      vertex 0 2.5 10
      vertex -1.85686 6.7429 10
    endloop
  endfacet
  facet normal -0 0 1
    outer loop
      vertex -2.62168 6.32013 10
      vertex 0 2.5 10
      vertex -2.2123 6.52251 10
    endloop
  endfacet
  facet normal -0 0 1
    outer loop
      vertex -3.03731 6.17558 10
      vertex 0 2.5 10
      vertex -2.62168 6.32013 10
    endloop
  endfacet
  facet normal -0 0 1
    outer loop
      vertex -3.45919 6.08884 10
      vertex 0 2.5 10
      vertex -3.03731 6.17558 10
    endloop
  endfacet
  facet normal -0 0 1
    outer loop
      vertex -3.88729 6.05992 10
      vertex 0 2.5 10
      vertex -3.45919 6.08884 10
    endloop
  endfacet
  facet normal 0 0 1
    outer loop
      vertex -8 2.5 10
      vertex -3.88729 6.05992 10
      vertex -4.41889 6.10759 10
    endloop
  endfacet
  facet normal 0 0 1
    outer loop
      vertex -8 2.5 10
      vertex -4.41889 6.10759 10
      vertex -4.90125 6.25058 10
    endloop
  endfacet
  facet normal 0 0 1
    outer loop
      vertex -8 2.5 10
      vertex -4.90125 6.25058 10
      vertex -5.33441 6.48891 10
    endloop
  endfacet
  facet normal 0 0 1
    outer loop
      vertex -8 2.5 10
      vertex -6.43708 8.76064 10
      vertex -8 14.5 10
    endloop
  endfacet
  facet normal 0 0 1
    outer loop
      vertex -3.88729 6.05992 10
      vertex -8 2.5 10
      vertex 0 2.5 10
    endloop
  endfacet
  facet normal 0 0 1
    outer loop
      vertex -5.71834 6.82257 10
      vertex -8 2.5 10
      vertex -5.33441 6.48891 10
    endloop
  endfacet
  facet normal 0 0 1
    outer loop
      vertex -6.03279 7.22974 10
      vertex -8 2.5 10
      vertex -5.71834 6.82257 10
    endloop
  endfacet
  facet normal 0 0 1
    outer loop
      vertex -6.2574 7.68846 10
      vertex -8 2.5 10
      vertex -6.03279 7.22974 10
    endloop
  endfacet
  facet normal 0 0 1
    outer loop
      vertex -6.39215 8.19876 10
      vertex -8 2.5 10
      vertex -6.2574 7.68846 10
    endloop
  endfacet
  facet normal 0 0 1
    outer loop
      vertex -6.43708 8.76064 10
      vertex -8 2.5 10
      vertex -6.39215 8.19876 10
    endloop
  endfacet
  facet normal 0 0 1
    outer loop
      vertex -1.60146 7.51808 10
      vertex -2.19596 10.184 10
      vertex -1.64989 7.52277 10
    endloop
  endfacet
  facet normal -0 0 1
    outer loop
      vertex -2.29987 10.1668 10
      vertex -1.70067 7.51575 10
      vertex -2.19596 10.184 10
    endloop
  endfacet
  facet normal 0 0 1
    outer loop
      vertex -1.70067 7.51575 10
      vertex -2.29987 10.1668 10
      vertex -1.75301 7.49464 10
    endloop
  endfacet
  facet normal 0 0 1
    outer loop
      vertex -1.75301 7.49464 10
      vertex -2.29987 10.1668 10
      vertex -1.80692 7.45949 10
    endloop
  endfacet
  facet normal 0 0 1
    outer loop
      vertex -2.33817 10.1749 10
      vertex -1.80692 7.45949 10
      vertex -2.29987 10.1668 10
    endloop
  endfacet
  facet normal 0 0 1
    outer loop
      vertex -1.80692 7.45949 10
      vertex -2.33817 10.1749 10
      vertex -1.86238 7.41028 10
    endloop
  endfacet
  facet normal 0 0 1
    outer loop
      vertex -2.40302 10.1992 10
      vertex -1.86238 7.41028 10
      vertex -2.33817 10.1749 10
    endloop
  endfacet
  facet normal 0 0 1
    outer loop
      vertex -1.86238 7.41028 10
      vertex -2.40302 10.1992 10
      vertex -2.32953 7.04378 10
    endloop
  endfacet
  facet normal 0 0 1
    outer loop
      vertex -2.4944 10.2398 10
      vertex -2.32953 7.04378 10
      vertex -2.40302 10.1992 10
    endloop
  endfacet
  facet normal 0 0 1
    outer loop
      vertex -2.61235 10.2966 10
      vertex -2.32953 7.04378 10
      vertex -2.4944 10.2398 10
    endloop
  endfacet
  facet normal 0 0 1
    outer loop
      vertex -2.75334 10.3611 10
      vertex -2.32953 7.04378 10
      vertex -2.61235 10.2966 10
    endloop
  endfacet
  facet normal 0 0 1
    outer loop
      vertex -2.75334 10.3611 10
      vertex -2.81856 6.78198 10
      vertex -2.32953 7.04378 10
    endloop
  endfacet
  facet normal 0 0 1
    outer loop
      vertex -2.91385 10.4249 10
      vertex -2.81856 6.78198 10
      vertex -2.75334 10.3611 10
    endloop
  endfacet
  facet normal 0 0 1
    outer loop
      vertex -3.09389 10.4878 10
      vertex -2.81856 6.78198 10
      vertex -2.91385 10.4249 10
    endloop
  endfacet
  facet normal 0 0 1
    outer loop
      vertex -3.32947 6.62491 10
      vertex -3.09389 10.4878 10
      vertex -3.29348 10.55 10
    endloop
  endfacet
  facet normal 0 0 1
    outer loop
      vertex -3.09389 10.4878 10
      vertex -3.32947 6.62491 10
      vertex -2.81856 6.78198 10
    endloop
  endfacet
  facet normal 0 0 1
    outer loop
      vertex -5.88869 8.31522 10
      vertex -3.29348 10.55 10
      vertex -3.50403 10.6041 10
    endloop
  endfacet
  facet normal 0 0 1
    outer loop
      vertex -5.88869 8.31522 10
      vertex -3.50403 10.6041 10
      vertex -3.71692 10.6428 10
    endloop
  endfacet
  facet normal 0 0 1
    outer loop
      vertex -3.29348 10.55 10
      vertex -3.86228 6.57256 10
      vertex -3.32947 6.62491 10
    endloop
  endfacet
  facet normal 0 0 1
    outer loop
      vertex -5.92462 8.78566 10
      vertex -3.71692 10.6428 10
      vertex -3.93216 10.6659 10
    endloop
  endfacet
  facet normal 0 0 1
    outer loop
      vertex -5.92462 8.78566 10
      vertex -3.93216 10.6659 10
      vertex -4.14974 10.6737 10
    endloop
  endfacet
  facet normal 0 0 1
    outer loop
      vertex -3.29348 10.55 10
      vertex -5.88869 8.31522 10
      vertex -3.86228 6.57256 10
    endloop
  endfacet
  facet normal 0 0 1
    outer loop
      vertex -5.89376 9.18498 10
      vertex -4.14974 10.6737 10
      vertex -4.52509 10.6409 10
    endloop
  endfacet
  facet normal -0 -0 1
    outer loop
      vertex -5.78087 7.89166 10
      vertex -3.86228 6.57256 10
      vertex -5.88869 8.31522 10
    endloop
  endfacet
  facet normal 0 0 1
    outer loop
      vertex -5.43088 10.1485 10
      vertex -4.52509 10.6409 10
      vertex -4.86373 10.5424 10
    endloop
  endfacet
  facet normal 0 0 1
    outer loop
      vertex -3.86228 6.57256 10
      vertex -5.78087 7.89166 10
      vertex -4.29738 6.61084 10
    endloop
  endfacet
  facet normal 0 0 1
    outer loop
      vertex -5.43088 10.1485 10
      vertex -4.86373 10.5424 10
      vertex -5.16565 10.3783 10
    endloop
  endfacet
  facet normal -0 -0 1
    outer loop
      vertex -5.34961 7.18518 10
      vertex -4.29738 6.61084 10
      vertex -5.78087 7.89166 10
    endloop
  endfacet
  facet normal 0 0 1
    outer loop
      vertex -5.6469 9.86641 10
      vertex -4.52509 10.6409 10
      vertex -5.43088 10.1485 10
    endloop
  endfacet
  facet normal 0 0 1
    outer loop
      vertex -4.29738 6.61084 10
      vertex -5.34961 7.18518 10
      vertex -4.69031 6.72571 10
    endloop
  endfacet
  facet normal 0 0 1
    outer loop
      vertex -5.80118 9.54523 10
      vertex -4.52509 10.6409 10
      vertex -5.6469 9.86641 10
    endloop
  endfacet
  facet normal 0 0 1
    outer loop
      vertex -4.69031 6.72571 10
      vertex -5.34961 7.18518 10
      vertex -5.04106 6.91716 10
    endloop
  endfacet
  facet normal 0 0 1
    outer loop
      vertex -4.52509 10.6409 10
      vertex -5.80118 9.54523 10
      vertex -5.89376 9.18498 10
    endloop
  endfacet
  facet normal 0 0 1
    outer loop
      vertex -5.34961 7.18518 10
      vertex -5.78087 7.89166 10
      vertex -5.60118 7.51498 10
    endloop
  endfacet
  facet normal 0 0 1
    outer loop
      vertex -4.14974 10.6737 10
      vertex -5.89376 9.18498 10
      vertex -5.92462 8.78566 10
    endloop
  endfacet
  facet normal 0 0 1
    outer loop
      vertex -3.71692 10.6428 10
      vertex -5.92462 8.78566 10
      vertex -5.88869 8.31522 10
    endloop
  endfacet
  facet normal 0 0 1
    outer loop
      vertex -2.57482 13.2887 10
      vertex -3.0201 10.9753 10
      vertex -2.57482 10.8112 10
    endloop
  endfacet
  facet normal 0 0 1
    outer loop
      vertex -2.57482 13.2887 10
      vertex -3.4435 11.0925 10
      vertex -3.0201 10.9753 10
    endloop
  endfacet
  facet normal 0 0 1
    outer loop
      vertex -2.57482 13.2887 10
      vertex -3.84503 11.1629 10
      vertex -3.4435 11.0925 10
    endloop
  endfacet
  facet normal 0 0 1
    outer loop
      vertex -2.57482 13.2887 10
      vertex -4.2247 11.1863 10
      vertex -3.84503 11.1629 10
    endloop
  endfacet
  facet normal -0 0 1
    outer loop
      vertex -5.58712 13.2887 10
      vertex -4.2247 11.1863 10
      vertex -2.57482 13.2887 10
    endloop
  endfacet
  facet normal 0 0 1
    outer loop
      vertex -4.2247 11.1863 10
      vertex -5.58712 13.2887 10
      vertex -4.68483 11.1433 10
    endloop
  endfacet
  facet normal 0 0 1
    outer loop
      vertex -4.68483 11.1433 10
      vertex -5.58712 13.2887 10
      vertex -5.10279 11.0144 10
    endloop
  endfacet
  facet normal 0 0 1
    outer loop
      vertex -5.74025 13.3051 10
      vertex -5.10279 11.0144 10
      vertex -5.58712 13.2887 10
    endloop
  endfacet
  facet normal 0 0 1
    outer loop
      vertex -5.10279 11.0144 10
      vertex -5.74025 13.3051 10
      vertex -5.47855 10.7995 10
    endloop
  endfacet
  facet normal 0 0 1
    outer loop
      vertex -5.84963 13.3543 10
      vertex -5.47855 10.7995 10
      vertex -5.74025 13.3051 10
    endloop
  endfacet
  facet normal 0 0 1
    outer loop
      vertex -5.47855 10.7995 10
      vertex -5.84963 13.3543 10
      vertex -5.81212 10.4986 10
    endloop
  endfacet
  facet normal 0 0 1
    outer loop
      vertex -5.91526 13.4364 10
      vertex -5.81212 10.4986 10
      vertex -5.84963 13.3543 10
    endloop
  endfacet
  facet normal 0 0 1
    outer loop
      vertex -8 14.5 10
      vertex -5.91526 13.4364 10
      vertex -5.93714 13.5512 10
    endloop
  endfacet
  facet normal 0 0 1
    outer loop
      vertex -5.91526 13.4364 10
      vertex -6.08554 10.1321 10
      vertex -5.81212 10.4986 10
    endloop
  endfacet
  facet normal -1 0 0
    outer loop
      vertex -8 0 3
      vertex -8 17 3
      vertex -8 17 0
    endloop
  endfacet
  facet normal -1 0 0
    outer loop
      vertex -8 17 3
      vertex -8 0 3
      vertex -8 14.5 10
    endloop
  endfacet
  facet normal -1 0 0
    outer loop
      vertex -8 0 3
      vertex -8 17 0
      vertex -8 0 0
    endloop
  endfacet
  facet normal -1 -0 0
    outer loop
      vertex -8 14.5 10
      vertex -8 0 3
      vertex -8 2.5 10
    endloop
  endfacet
  facet normal 0 1 -0
    outer loop
      vertex 0 17 0
      vertex -8 17 3
      vertex 0 17 3
    endloop
  endfacet
  facet normal 0 1 0
    outer loop
      vertex -8 17 3
      vertex 0 17 0
      vertex -8 17 0
    endloop
  endfacet
  facet normal 0 0 -1
    outer loop
      vertex -8 0 0
      vertex 0 17 0
      vertex 0 0 0
    endloop
  endfacet
  facet normal -0 0 -1
    outer loop
      vertex 0 17 0
      vertex -8 0 0
      vertex -8 17 0
    endloop
  endfacet
  facet normal 1 0 0
    outer loop
      vertex 0 0 3
      vertex 0 17 3
      vertex 0 14.5 10
    endloop
  endfacet
  facet normal 1 0 0
    outer loop
      vertex 0 0 3
      vertex 0 14.5 10
      vertex 0 2.5 10
    endloop
  endfacet
  facet normal 1 0 0
    outer loop
      vertex 0 17 3
      vertex 0 0 3
      vertex 0 17 0
    endloop
  endfacet
  facet normal 1 0 0
    outer loop
      vertex 0 17 0
      vertex 0 0 3
      vertex 0 0 0
    endloop
  endfacet
  facet normal 0 -0.941742 0.336336
    outer loop
      vertex -8 0 3
      vertex 0 2.5 10
      vertex -8 2.5 10
    endloop
  endfacet
  facet normal 0 -0.941742 0.336336
    outer loop
      vertex 0 2.5 10
      vertex -8 0 3
      vertex 0 0 3
    endloop
  endfacet
  facet normal 0 -1 0
    outer loop
      vertex -8 0 0
      vertex 0 0 3
      vertex -8 0 3
    endloop
  endfacet
  facet normal 0 -1 -0
    outer loop
      vertex 0 0 3
      vertex -8 0 0
      vertex 0 0 0
    endloop
  endfacet
  facet normal 0 0.941742 0.336336
    outer loop
      vertex 0 17 3
      vertex -8 14.5 10
      vertex 0 14.5 10
    endloop
  endfacet
  facet normal 0 0.941742 0.336336
    outer loop
      vertex -8 14.5 10
      vertex 0 17 3
      vertex -8 17 3
    endloop
  endfacet
  facet normal -0 0 1
    outer loop
      vertex -2.57482 13.2887 11.99
      vertex -2.06237 10.4416 11.99
      vertex -2.06237 13.8013 11.99
    endloop
  endfacet
  facet normal -0 0 1
    outer loop
      vertex -2.57482 10.8112 11.99
      vertex -2.06237 10.4416 11.99
      vertex -2.57482 13.2887 11.99
    endloop
  endfacet
  facet normal 0 -0 1
    outer loop
      vertex -2.40302 10.1992 11.99
      vertex -2.06237 10.4416 11.99
      vertex -2.4944 10.2398 11.99
    endloop
  endfacet
  facet normal 0 0 1
    outer loop
      vertex -2.06237 10.4416 11.99
      vertex -2.40302 10.1992 11.99
      vertex -2.07721 10.3214 11.99
    endloop
  endfacet
  facet normal 0 -0 1
    outer loop
      vertex -2.19596 10.184 11.99
      vertex -2.07721 10.3214 11.99
      vertex -2.33817 10.1749 11.99
    endloop
  endfacet
  facet normal 0 0 1
    outer loop
      vertex -2.07721 10.3214 11.99
      vertex -2.19596 10.184 11.99
      vertex -2.12174 10.2355 11.99
    endloop
  endfacet
  facet normal 0 0 1
    outer loop
      vertex -2.19596 10.184 11.99
      vertex -2.33817 10.1749 11.99
      vertex -2.29987 10.1668 11.99
    endloop
  endfacet
  facet normal 0 -0 1
    outer loop
      vertex -2.4944 10.2398 11.99
      vertex -2.06237 10.4416 11.99
      vertex -2.57482 10.8112 11.99
    endloop
  endfacet
  facet normal -0 0 1
    outer loop
      vertex -5.58712 13.8013 11.99
      vertex -2.57482 13.2887 11.99
      vertex -2.06237 13.8013 11.99
    endloop
  endfacet
  facet normal 0 0 1
    outer loop
      vertex -5.58712 13.8013 11.99
      vertex -5.58712 13.2887 11.99
      vertex -2.57482 13.2887 11.99
    endloop
  endfacet
  facet normal -0 0 1
    outer loop
      vertex -5.74025 13.7857 11.99
      vertex -5.58712 13.2887 11.99
      vertex -5.58712 13.8013 11.99
    endloop
  endfacet
  facet normal 0 0 1
    outer loop
      vertex -5.74025 13.7857 11.99
      vertex -5.74025 13.3051 11.99
      vertex -5.58712 13.2887 11.99
    endloop
  endfacet
  facet normal 0 0 1
    outer loop
      vertex -5.93714 13.5512 11.99
      vertex -5.74025 13.7857 11.99
      vertex -5.84963 13.7388 11.99
    endloop
  endfacet
  facet normal 0 0 1
    outer loop
      vertex -5.74025 13.7857 11.99
      vertex -5.93714 13.5512 11.99
      vertex -5.74025 13.3051 11.99
    endloop
  endfacet
  facet normal 0 0 1
    outer loop
      vertex -5.93714 13.5512 11.99
      vertex -5.84963 13.7388 11.99
      vertex -5.91526 13.6607 11.99
    endloop
  endfacet
  facet normal 0 0 1
    outer loop
      vertex -5.74025 13.3051 11.99
      vertex -5.93714 13.5512 11.99
      vertex -5.84963 13.3543 11.99
    endloop
  endfacet
  facet normal 0 0 1
    outer loop
      vertex -5.84963 13.3543 11.99
      vertex -5.93714 13.5512 11.99
      vertex -5.91526 13.4364 11.99
    endloop
  endfacet
  facet normal 0 -0 1
    outer loop
      vertex -2.33817 10.1749 11.99
      vertex -2.07721 10.3214 11.99
      vertex -2.40302 10.1992 11.99
    endloop
  endfacet
  facet normal 0 0 1
    outer loop
      vertex -2.57482 10.8112 11.99
      vertex -2.61235 10.2966 11.99
      vertex -2.4944 10.2398 11.99
    endloop
  endfacet
  facet normal 0 0 1
    outer loop
      vertex -2.57482 10.8112 11.99
      vertex -2.75334 10.3611 11.99
      vertex -2.61235 10.2966 11.99
    endloop
  endfacet
  facet normal 0 0 1
    outer loop
      vertex -2.57482 10.8112 11.99
      vertex -2.91385 10.4249 11.99
      vertex -2.75334 10.3611 11.99
    endloop
  endfacet
  facet normal 0 0 1
    outer loop
      vertex -3.0201 10.9753 11.99
      vertex -2.91385 10.4249 11.99
      vertex -2.57482 10.8112 11.99
    endloop
  endfacet
  facet normal 0 0 1
    outer loop
      vertex -3.0201 10.9753 11.99
      vertex -3.09389 10.4878 11.99
      vertex -2.91385 10.4249 11.99
    endloop
  endfacet
  facet normal 0 0 1
    outer loop
      vertex -3.0201 10.9753 11.99
      vertex -3.29348 10.55 11.99
      vertex -3.09389 10.4878 11.99
    endloop
  endfacet
  facet normal 0 0 1
    outer loop
      vertex -3.4435 11.0925 11.99
      vertex -3.29348 10.55 11.99
      vertex -3.0201 10.9753 11.99
    endloop
  endfacet
  facet normal 0 0 1
    outer loop
      vertex -3.4435 11.0925 11.99
      vertex -3.50403 10.6041 11.99
      vertex -3.29348 10.55 11.99
    endloop
  endfacet
  facet normal 0 0 1
    outer loop
      vertex -3.4435 11.0925 11.99
      vertex -3.71692 10.6428 11.99
      vertex -3.50403 10.6041 11.99
    endloop
  endfacet
  facet normal 0 0 1
    outer loop
      vertex -3.84503 11.1629 11.99
      vertex -3.71692 10.6428 11.99
      vertex -3.4435 11.0925 11.99
    endloop
  endfacet
  facet normal 0 0 1
    outer loop
      vertex -3.84503 11.1629 11.99
      vertex -3.93216 10.6659 11.99
      vertex -3.71692 10.6428 11.99
    endloop
  endfacet
  facet normal 0 0 1
    outer loop
      vertex -3.84503 11.1629 11.99
      vertex -4.14974 10.6737 11.99
      vertex -3.93216 10.6659 11.99
    endloop
  endfacet
  facet normal 0 0 1
    outer loop
      vertex -4.2247 11.1863 11.99
      vertex -4.14974 10.6737 11.99
      vertex -3.84503 11.1629 11.99
    endloop
  endfacet
  facet normal 0 0 1
    outer loop
      vertex -4.2247 11.1863 11.99
      vertex -4.52509 10.6409 11.99
      vertex -4.14974 10.6737 11.99
    endloop
  endfacet
  facet normal -0 0 1
    outer loop
      vertex -4.68483 11.1433 11.99
      vertex -4.52509 10.6409 11.99
      vertex -4.2247 11.1863 11.99
    endloop
  endfacet
  facet normal 0 0 1
    outer loop
      vertex -4.68483 11.1433 11.99
      vertex -4.86373 10.5424 11.99
      vertex -4.52509 10.6409 11.99
    endloop
  endfacet
  facet normal -0 0 1
    outer loop
      vertex -5.10279 11.0144 11.99
      vertex -4.86373 10.5424 11.99
      vertex -4.68483 11.1433 11.99
    endloop
  endfacet
  facet normal 0 0 1
    outer loop
      vertex -5.10279 11.0144 11.99
      vertex -5.16565 10.3783 11.99
      vertex -4.86373 10.5424 11.99
    endloop
  endfacet
  facet normal -0 0 1
    outer loop
      vertex -5.47855 10.7995 11.99
      vertex -5.16565 10.3783 11.99
      vertex -5.10279 11.0144 11.99
    endloop
  endfacet
  facet normal 0 0 1
    outer loop
      vertex -5.16565 10.3783 11.99
      vertex -5.47855 10.7995 11.99
      vertex -5.43088 10.1485 11.99
    endloop
  endfacet
  facet normal -0 0 1
    outer loop
      vertex -5.81212 10.4986 11.99
      vertex -5.43088 10.1485 11.99
      vertex -5.47855 10.7995 11.99
    endloop
  endfacet
  facet normal 0 0 1
    outer loop
      vertex -5.43088 10.1485 11.99
      vertex -5.81212 10.4986 11.99
      vertex -5.6469 9.86641 11.99
    endloop
  endfacet
  facet normal -0 0 1
    outer loop
      vertex -6.08554 10.1321 11.99
      vertex -5.6469 9.86641 11.99
      vertex -5.81212 10.4986 11.99
    endloop
  endfacet
  facet normal 0 0 1
    outer loop
      vertex -5.6469 9.86641 11.99
      vertex -6.08554 10.1321 11.99
      vertex -5.80118 9.54523 11.99
    endloop
  endfacet
  facet normal -0 0 1
    outer loop
      vertex -6.28084 9.72028 11.99
      vertex -5.80118 9.54523 11.99
      vertex -6.08554 10.1321 11.99
    endloop
  endfacet
  facet normal 0 0 1
    outer loop
      vertex -5.80118 9.54523 11.99
      vertex -6.28084 9.72028 11.99
      vertex -5.89376 9.18498 11.99
    endloop
  endfacet
  facet normal -0 0 1
    outer loop
      vertex -6.39803 9.26312 11.99
      vertex -5.89376 9.18498 11.99
      vertex -6.28084 9.72028 11.99
    endloop
  endfacet
  facet normal 0 -0 1
    outer loop
      vertex -6.2574 7.68846 11.99
      vertex -5.92462 8.78566 11.99
      vertex -6.39215 8.19876 11.99
    endloop
  endfacet
  facet normal 0 0 1
    outer loop
      vertex -5.89376 9.18498 11.99
      vertex -6.39803 9.26312 11.99
      vertex -5.92462 8.78566 11.99
    endloop
  endfacet
  facet normal 0 0 1
    outer loop
      vertex -5.92462 8.78566 11.99
      vertex -6.2574 7.68846 11.99
      vertex -6.03279 7.22974 11.99
    endloop
  endfacet
  facet normal 0 0 1
    outer loop
      vertex -5.92462 8.78566 11.99
      vertex -6.39803 9.26312 11.99
      vertex -6.43708 8.76064 11.99
    endloop
  endfacet
  facet normal 0 0 1
    outer loop
      vertex -5.92462 8.78566 11.99
      vertex -6.43708 8.76064 11.99
      vertex -6.39215 8.19876 11.99
    endloop
  endfacet
  facet normal 0 0 1
    outer loop
      vertex -1.41861 7.36649 11.99
      vertex -1.39987 7.27275 11.99
      vertex -1.40456 7.32118 11.99
    endloop
  endfacet
  facet normal 0 0 1
    outer loop
      vertex -1.44205 7.40866 11.99
      vertex -1.39987 7.27275 11.99
      vertex -1.41861 7.36649 11.99
    endloop
  endfacet
  facet normal 0 0 1
    outer loop
      vertex -1.44205 7.40866 11.99
      vertex -1.45066 7.11803 11.99
      vertex -1.39987 7.27275 11.99
    endloop
  endfacet
  facet normal 0 0 1
    outer loop
      vertex -1.47484 7.44771 11.99
      vertex -1.45066 7.11803 11.99
      vertex -1.44205 7.40866 11.99
    endloop
  endfacet
  facet normal 0 0 1
    outer loop
      vertex -1.75301 7.49464 11.99
      vertex -1.47484 7.44771 11.99
      vertex -1.51393 7.48055 11.99
    endloop
  endfacet
  facet normal -0 0 1
    outer loop
      vertex -1.75301 7.49464 11.99
      vertex -1.51393 7.48055 11.99
      vertex -1.55614 7.50401 11.99
    endloop
  endfacet
  facet normal 0 0 1
    outer loop
      vertex -1.75301 7.49464 11.99
      vertex -1.55614 7.50401 11.99
      vertex -1.60146 7.51808 11.99
    endloop
  endfacet
  facet normal -0 0 1
    outer loop
      vertex -1.80692 7.45949 11.99
      vertex -1.47484 7.44771 11.99
      vertex -1.75301 7.49464 11.99
    endloop
  endfacet
  facet normal 0 0 1
    outer loop
      vertex -1.75301 7.49464 11.99
      vertex -1.60146 7.51808 11.99
      vertex -1.64989 7.52277 11.99
    endloop
  endfacet
  facet normal 0 0 1
    outer loop
      vertex -1.75301 7.49464 11.99
      vertex -1.64989 7.52277 11.99
      vertex -1.70067 7.51575 11.99
    endloop
  endfacet
  facet normal 0 0 1
    outer loop
      vertex -1.47484 7.44771 11.99
      vertex -1.80692 7.45949 11.99
      vertex -1.45066 7.11803 11.99
    endloop
  endfacet
  facet normal -0 0 1
    outer loop
      vertex -1.86238 7.41028 11.99
      vertex -1.45066 7.11803 11.99
      vertex -1.80692 7.45949 11.99
    endloop
  endfacet
  facet normal 0 0 1
    outer loop
      vertex -1.45066 7.11803 11.99
      vertex -1.86238 7.41028 11.99
      vertex -1.60298 6.94142 11.99
    endloop
  endfacet
  facet normal 0 0 1
    outer loop
      vertex -1.60298 6.94142 11.99
      vertex -1.86238 7.41028 11.99
      vertex -1.85686 6.7429 11.99
    endloop
  endfacet
  facet normal -0 0 1
    outer loop
      vertex -2.32953 7.04378 11.99
      vertex -1.85686 6.7429 11.99
      vertex -1.86238 7.41028 11.99
    endloop
  endfacet
  facet normal 0 0 1
    outer loop
      vertex -1.85686 6.7429 11.99
      vertex -2.32953 7.04378 11.99
      vertex -2.2123 6.52251 11.99
    endloop
  endfacet
  facet normal -0 0 1
    outer loop
      vertex -2.81856 6.78198 11.99
      vertex -2.2123 6.52251 11.99
      vertex -2.32953 7.04378 11.99
    endloop
  endfacet
  facet normal 0 0 1
    outer loop
      vertex -2.2123 6.52251 11.99
      vertex -2.81856 6.78198 11.99
      vertex -2.62168 6.32013 11.99
    endloop
  endfacet
  facet normal 0 0 1
    outer loop
      vertex -2.81856 6.78198 11.99
      vertex -3.03731 6.17558 11.99
      vertex -2.62168 6.32013 11.99
    endloop
  endfacet
  facet normal -0 0 1
    outer loop
      vertex -3.32947 6.62491 11.99
      vertex -3.03731 6.17558 11.99
      vertex -2.81856 6.78198 11.99
    endloop
  endfacet
  facet normal 0 0 1
    outer loop
      vertex -3.32947 6.62491 11.99
      vertex -3.45919 6.08884 11.99
      vertex -3.03731 6.17558 11.99
    endloop
  endfacet
  facet normal -0 0 1
    outer loop
      vertex -3.86228 6.57256 11.99
      vertex -3.45919 6.08884 11.99
      vertex -3.32947 6.62491 11.99
    endloop
  endfacet
  facet normal 0 0 1
    outer loop
      vertex -3.86228 6.57256 11.99
      vertex -3.88729 6.05992 11.99
      vertex -3.45919 6.08884 11.99
    endloop
  endfacet
  facet normal 0 0 1
    outer loop
      vertex -4.29738 6.61084 11.99
      vertex -3.88729 6.05992 11.99
      vertex -3.86228 6.57256 11.99
    endloop
  endfacet
  facet normal 0 0 1
    outer loop
      vertex -4.29738 6.61084 11.99
      vertex -4.41889 6.10759 11.99
      vertex -3.88729 6.05992 11.99
    endloop
  endfacet
  facet normal 0 0 1
    outer loop
      vertex -4.69031 6.72571 11.99
      vertex -4.41889 6.10759 11.99
      vertex -4.29738 6.61084 11.99
    endloop
  endfacet
  facet normal 0 0 1
    outer loop
      vertex -4.69031 6.72571 11.99
      vertex -4.90125 6.25058 11.99
      vertex -4.41889 6.10759 11.99
    endloop
  endfacet
  facet normal 0 0 1
    outer loop
      vertex -5.04106 6.91716 11.99
      vertex -4.90125 6.25058 11.99
      vertex -4.69031 6.72571 11.99
    endloop
  endfacet
  facet normal 0 0 1
    outer loop
      vertex -5.04106 6.91716 11.99
      vertex -5.33441 6.48891 11.99
      vertex -4.90125 6.25058 11.99
    endloop
  endfacet
  facet normal 0 0 1
    outer loop
      vertex -5.71834 6.82257 11.99
      vertex -5.04106 6.91716 11.99
      vertex -5.34961 7.18518 11.99
    endloop
  endfacet
  facet normal -0 0 1
    outer loop
      vertex -6.03279 7.22974 11.99
      vertex -5.34961 7.18518 11.99
      vertex -5.60118 7.51498 11.99
    endloop
  endfacet
  facet normal 0 0 1
    outer loop
      vertex -5.04106 6.91716 11.99
      vertex -5.71834 6.82257 11.99
      vertex -5.33441 6.48891 11.99
    endloop
  endfacet
  facet normal 0 0 1
    outer loop
      vertex -6.03279 7.22974 11.99
      vertex -5.60118 7.51498 11.99
      vertex -5.78087 7.89166 11.99
    endloop
  endfacet
  facet normal 0 0 1
    outer loop
      vertex -6.03279 7.22974 11.99
      vertex -5.78087 7.89166 11.99
      vertex -5.88869 8.31522 11.99
    endloop
  endfacet
  facet normal 0 0 1
    outer loop
      vertex -5.34961 7.18518 11.99
      vertex -6.03279 7.22974 11.99
      vertex -5.71834 6.82257 11.99
    endloop
  endfacet
  facet normal 0 0 1
    outer loop
      vertex -6.03279 7.22974 11.99
      vertex -5.88869 8.31522 11.99
      vertex -5.92462 8.78566 11.99
    endloop
  endfacet
  facet normal -0.284214 -0.958761 0
    outer loop
      vertex -4.90125 6.25058 10
      vertex -4.41889 6.10759 11.99
      vertex -4.90125 6.25058 11.99
    endloop
  endfacet
  facet normal -0.284214 -0.958761 -0
    outer loop
      vertex -4.41889 6.10759 11.99
      vertex -4.90125 6.25058 10
      vertex -4.41889 6.10759 10
    endloop
  endfacet
  facet normal -0.482062 -0.876137 0
    outer loop
      vertex -5.33441 6.48891 10
      vertex -4.90125 6.25058 11.99
      vertex -5.33441 6.48891 11.99
    endloop
  endfacet
  facet normal -0.482062 -0.876137 -0
    outer loop
      vertex -4.90125 6.25058 11.99
      vertex -5.33441 6.48891 10
      vertex -4.90125 6.25058 10
    endloop
  endfacet
  facet normal -0.655964 -0.754793 0
    outer loop
      vertex -5.71834 6.82257 10
      vertex -5.33441 6.48891 11.99
      vertex -5.71834 6.82257 11.99
    endloop
  endfacet
  facet normal -0.655964 -0.754793 -0
    outer loop
      vertex -5.33441 6.48891 11.99
      vertex -5.71834 6.82257 10
      vertex -5.33441 6.48891 10
    endloop
  endfacet
  facet normal -0.791456 -0.611227 0
    outer loop
      vertex -5.71834 6.82257 10
      vertex -6.03279 7.22974 11.99
      vertex -6.03279 7.22974 10
    endloop
  endfacet
  facet normal -0.791456 -0.611227 0
    outer loop
      vertex -6.03279 7.22974 11.99
      vertex -5.71834 6.82257 10
      vertex -5.71834 6.82257 11.99
    endloop
  endfacet
  facet normal -0.898116 -0.439758 0
    outer loop
      vertex -6.03279 7.22974 10
      vertex -6.2574 7.68846 11.99
      vertex -6.2574 7.68846 10
    endloop
  endfacet
  facet normal -0.898116 -0.439758 0
    outer loop
      vertex -6.2574 7.68846 11.99
      vertex -6.03279 7.22974 10
      vertex -6.03279 7.22974 11.99
    endloop
  endfacet
  facet normal -0.966859 -0.255309 0
    outer loop
      vertex -6.2574 7.68846 10
      vertex -6.39215 8.19876 11.99
      vertex -6.39215 8.19876 10
    endloop
  endfacet
  facet normal -0.966859 -0.255309 0
    outer loop
      vertex -6.39215 8.19876 11.99
      vertex -6.2574 7.68846 10
      vertex -6.2574 7.68846 11.99
    endloop
  endfacet
  facet normal -0.996818 -0.0797093 0
    outer loop
      vertex -6.39215 8.19876 10
      vertex -6.43708 8.76064 11.99
      vertex -6.43708 8.76064 10
    endloop
  endfacet
  facet normal -0.996818 -0.0797093 0
    outer loop
      vertex -6.43708 8.76064 11.99
      vertex -6.39215 8.19876 10
      vertex -6.39215 8.19876 11.99
    endloop
  endfacet
  facet normal -0.996994 0.0774809 0
    outer loop
      vertex -6.43708 8.76064 10
      vertex -6.39803 9.26312 11.99
      vertex -6.39803 9.26312 10
    endloop
  endfacet
  facet normal -0.996994 0.0774809 0
    outer loop
      vertex -6.39803 9.26312 11.99
      vertex -6.43708 8.76064 10
      vertex -6.43708 8.76064 11.99
    endloop
  endfacet
  facet normal -0.968679 0.248315 0
    outer loop
      vertex -6.39803 9.26312 10
      vertex -6.28084 9.72028 11.99
      vertex -6.28084 9.72028 10
    endloop
  endfacet
  facet normal -0.968679 0.248315 0
    outer loop
      vertex -6.28084 9.72028 11.99
      vertex -6.39803 9.26312 10
      vertex -6.39803 9.26312 11.99
    endloop
  endfacet
  facet normal -0.903545 0.428494 0
    outer loop
      vertex -6.28084 9.72028 10
      vertex -6.08554 10.1321 11.99
      vertex -6.08554 10.1321 10
    endloop
  endfacet
  facet normal -0.903545 0.428494 0
    outer loop
      vertex -6.08554 10.1321 11.99
      vertex -6.28084 9.72028 10
      vertex -6.28084 9.72028 11.99
    endloop
  endfacet
  facet normal -0.801525 0.597962 0
    outer loop
      vertex -6.08554 10.1321 10
      vertex -5.81212 10.4986 11.99
      vertex -5.81212 10.4986 10
    endloop
  endfacet
  facet normal -0.801525 0.597962 0
    outer loop
      vertex -5.81212 10.4986 11.99
      vertex -6.08554 10.1321 10
      vertex -6.08554 10.1321 11.99
    endloop
  endfacet
  facet normal -0.669809 0.742533 0
    outer loop
      vertex -5.47855 10.7995 10
      vertex -5.81212 10.4986 11.99
      vertex -5.47855 10.7995 11.99
    endloop
  endfacet
  facet normal -0.669809 0.742533 0
    outer loop
      vertex -5.81212 10.4986 11.99
      vertex -5.47855 10.7995 10
      vertex -5.81212 10.4986 10
    endloop
  endfacet
  facet normal -0.496452 0.868064 0
    outer loop
      vertex -5.10279 11.0144 10
      vertex -5.47855 10.7995 11.99
      vertex -5.10279 11.0144 11.99
    endloop
  endfacet
  facet normal -0.496452 0.868064 0
    outer loop
      vertex -5.47855 10.7995 11.99
      vertex -5.10279 11.0144 10
      vertex -5.47855 10.7995 10
    endloop
  endfacet
  facet normal -0.294706 0.955588 0
    outer loop
      vertex -4.68483 11.1433 10
      vertex -5.10279 11.0144 11.99
      vertex -4.68483 11.1433 11.99
    endloop
  endfacet
  facet normal -0.294706 0.955588 0
    outer loop
      vertex -5.10279 11.0144 11.99
      vertex -4.68483 11.1433 10
      vertex -5.10279 11.0144 10
    endloop
  endfacet
  facet normal -0.0930464 0.995662 0
    outer loop
      vertex -4.2247 11.1863 10
      vertex -4.68483 11.1433 11.99
      vertex -4.2247 11.1863 11.99
    endloop
  endfacet
  facet normal -0.0930464 0.995662 0
    outer loop
      vertex -4.68483 11.1433 11.99
      vertex -4.2247 11.1863 10
      vertex -4.68483 11.1433 10
    endloop
  endfacet
  facet normal 0.0615157 0.998106 -0
    outer loop
      vertex -3.84503 11.1629 10
      vertex -4.2247 11.1863 11.99
      vertex -3.84503 11.1629 11.99
    endloop
  endfacet
  facet normal 0.0615157 0.998106 0
    outer loop
      vertex -4.2247 11.1863 11.99
      vertex -3.84503 11.1629 10
      vertex -4.2247 11.1863 10
    endloop
  endfacet
  facet normal 0.172695 0.984975 -0
    outer loop
      vertex -3.4435 11.0925 10
      vertex -3.84503 11.1629 11.99
      vertex -3.4435 11.0925 11.99
    endloop
  endfacet
  facet normal 0.172695 0.984975 0
    outer loop
      vertex -3.84503 11.1629 11.99
      vertex -3.4435 11.0925 10
      vertex -3.84503 11.1629 10
    endloop
  endfacet
  facet normal 0.266775 0.963759 -0
    outer loop
      vertex -3.0201 10.9753 10
      vertex -3.4435 11.0925 11.99
      vertex -3.0201 10.9753 11.99
    endloop
  endfacet
  facet normal 0.266775 0.963759 0
    outer loop
      vertex -3.4435 11.0925 11.99
      vertex -3.0201 10.9753 10
      vertex -3.4435 11.0925 10
    endloop
  endfacet
  facet normal 0.345797 0.938309 -0
    outer loop
      vertex -2.57482 10.8112 10
      vertex -3.0201 10.9753 11.99
      vertex -2.57482 10.8112 11.99
    endloop
  endfacet
  facet normal 0.345797 0.938309 0
    outer loop
      vertex -3.0201 10.9753 11.99
      vertex -2.57482 10.8112 10
      vertex -3.0201 10.9753 10
    endloop
  endfacet
  facet normal -1 0 0
    outer loop
      vertex -2.57482 10.8112 10
      vertex -2.57482 13.2887 11.99
      vertex -2.57482 13.2887 10
    endloop
  endfacet
  facet normal -1 -0 0
    outer loop
      vertex -2.57482 13.2887 11.99
      vertex -2.57482 10.8112 10
      vertex -2.57482 10.8112 11.99
    endloop
  endfacet
  facet normal 0 -1 0
    outer loop
      vertex -5.58712 13.2887 10
      vertex -2.57482 13.2887 11.99
      vertex -5.58712 13.2887 11.99
    endloop
  endfacet
  facet normal 0 -1 -0
    outer loop
      vertex -2.57482 13.2887 11.99
      vertex -5.58712 13.2887 10
      vertex -2.57482 13.2887 10
    endloop
  endfacet
  facet normal -0.10649 -0.994314 0
    outer loop
      vertex -5.74025 13.3051 10
      vertex -5.58712 13.2887 11.99
      vertex -5.74025 13.3051 11.99
    endloop
  endfacet
  facet normal -0.10649 -0.994314 -0
    outer loop
      vertex -5.58712 13.2887 11.99
      vertex -5.74025 13.3051 10
      vertex -5.58712 13.2887 10
    endloop
  endfacet
  facet normal -0.410219 -0.911987 0
    outer loop
      vertex -5.84963 13.3543 10
      vertex -5.74025 13.3051 11.99
      vertex -5.84963 13.3543 11.99
    endloop
  endfacet
  facet normal -0.410219 -0.911987 -0
    outer loop
      vertex -5.74025 13.3051 11.99
      vertex -5.84963 13.3543 10
      vertex -5.74025 13.3051 10
    endloop
  endfacet
  facet normal -0.781101 -0.624405 0
    outer loop
      vertex -5.84963 13.3543 10
      vertex -5.91526 13.4364 11.99
      vertex -5.91526 13.4364 10
    endloop
  endfacet
  facet normal -0.781101 -0.624405 0
    outer loop
      vertex -5.91526 13.4364 11.99
      vertex -5.84963 13.3543 10
      vertex -5.84963 13.3543 11.99
    endloop
  endfacet
  facet normal -0.982318 -0.187222 0
    outer loop
      vertex -5.91526 13.4364 10
      vertex -5.93714 13.5512 11.99
      vertex -5.93714 13.5512 10
    endloop
  endfacet
  facet normal -0.982318 -0.187222 0
    outer loop
      vertex -5.93714 13.5512 11.99
      vertex -5.91526 13.4364 10
      vertex -5.91526 13.4364 11.99
    endloop
  endfacet
  facet normal -0.980615 0.195944 0
    outer loop
      vertex -5.93714 13.5512 10
      vertex -5.91526 13.6607 11.99
      vertex -5.91526 13.6607 10
    endloop
  endfacet
  facet normal -0.980615 0.195944 0
    outer loop
      vertex -5.91526 13.6607 11.99
      vertex -5.93714 13.5512 10
      vertex -5.93714 13.5512 11.99
    endloop
  endfacet
  facet normal -0.765579 0.643342 0
    outer loop
      vertex -5.91526 13.6607 10
      vertex -5.84963 13.7388 11.99
      vertex -5.84963 13.7388 10
    endloop
  endfacet
  facet normal -0.765579 0.643342 0
    outer loop
      vertex -5.84963 13.7388 11.99
      vertex -5.91526 13.6607 10
      vertex -5.91526 13.6607 11.99
    endloop
  endfacet
  facet normal -0.394082 0.919075 0
    outer loop
      vertex -5.74025 13.7857 10
      vertex -5.84963 13.7388 11.99
      vertex -5.74025 13.7857 11.99
    endloop
  endfacet
  facet normal -0.394082 0.919075 0
    outer loop
      vertex -5.84963 13.7388 11.99
      vertex -5.74025 13.7857 10
      vertex -5.84963 13.7388 10
    endloop
  endfacet
  facet normal -0.10135 0.994851 0
    outer loop
      vertex -5.58712 13.8013 10
      vertex -5.74025 13.7857 11.99
      vertex -5.58712 13.8013 11.99
    endloop
  endfacet
  facet normal -0.10135 0.994851 0
    outer loop
      vertex -5.74025 13.7857 11.99
      vertex -5.58712 13.8013 10
      vertex -5.74025 13.7857 10
    endloop
  endfacet
  facet normal 0 1 -0
    outer loop
      vertex -2.06237 13.8013 10
      vertex -5.58712 13.8013 11.99
      vertex -2.06237 13.8013 11.99
    endloop
  endfacet
  facet normal 0 1 0
    outer loop
      vertex -5.58712 13.8013 11.99
      vertex -2.06237 13.8013 10
      vertex -5.58712 13.8013 10
    endloop
  endfacet
  facet normal 1 -0 0
    outer loop
      vertex -2.06237 10.4416 11.99
      vertex -2.06237 13.8013 10
      vertex -2.06237 13.8013 11.99
    endloop
  endfacet
  facet normal 1 0 0
    outer loop
      vertex -2.06237 13.8013 10
      vertex -2.06237 10.4416 11.99
      vertex -2.06237 10.4416 10
    endloop
  endfacet
  facet normal 0.992465 -0.122531 0
    outer loop
      vertex -2.07721 10.3214 11.99
      vertex -2.06237 10.4416 10
      vertex -2.06237 10.4416 11.99
    endloop
  endfacet
  facet normal 0.992465 -0.122531 0
    outer loop
      vertex -2.06237 10.4416 10
      vertex -2.07721 10.3214 11.99
      vertex -2.07721 10.3214 10
    endloop
  endfacet
  facet normal 0.8878 -0.46023 0
    outer loop
      vertex -2.12174 10.2355 11.99
      vertex -2.07721 10.3214 10
      vertex -2.07721 10.3214 11.99
    endloop
  endfacet
  facet normal 0.8878 -0.46023 0
    outer loop
      vertex -2.07721 10.3214 10
      vertex -2.12174 10.2355 11.99
      vertex -2.12174 10.2355 10
    endloop
  endfacet
  facet normal 0.570085 -0.821586 0
    outer loop
      vertex -2.19596 10.184 10
      vertex -2.12174 10.2355 11.99
      vertex -2.19596 10.184 11.99
    endloop
  endfacet
  facet normal 0.570085 -0.821586 0
    outer loop
      vertex -2.12174 10.2355 11.99
      vertex -2.19596 10.184 10
      vertex -2.12174 10.2355 10
    endloop
  endfacet
  facet normal 0.163306 -0.986576 0
    outer loop
      vertex -2.29987 10.1668 10
      vertex -2.19596 10.184 11.99
      vertex -2.29987 10.1668 11.99
    endloop
  endfacet
  facet normal 0.163306 -0.986576 0
    outer loop
      vertex -2.19596 10.184 11.99
      vertex -2.29987 10.1668 10
      vertex -2.19596 10.184 10
    endloop
  endfacet
  facet normal -0.206912 -0.97836 0
    outer loop
      vertex -2.33817 10.1749 10
      vertex -2.29987 10.1668 11.99
      vertex -2.33817 10.1749 11.99
    endloop
  endfacet
  facet normal -0.206912 -0.97836 -0
    outer loop
      vertex -2.29987 10.1668 11.99
      vertex -2.33817 10.1749 10
      vertex -2.29987 10.1668 10
    endloop
  endfacet
  facet normal -0.350886 -0.936418 0
    outer loop
      vertex -2.40302 10.1992 10
      vertex -2.33817 10.1749 11.99
      vertex -2.40302 10.1992 11.99
    endloop
  endfacet
  facet normal -0.350886 -0.936418 -0
    outer loop
      vertex -2.33817 10.1749 11.99
      vertex -2.40302 10.1992 10
      vertex -2.33817 10.1749 10
    endloop
  endfacet
  facet normal -0.406027 -0.913861 0
    outer loop
      vertex -2.4944 10.2398 10
      vertex -2.40302 10.1992 11.99
      vertex -2.4944 10.2398 11.99
    endloop
  endfacet
  facet normal -0.406027 -0.913861 -0
    outer loop
      vertex -2.40302 10.1992 11.99
      vertex -2.4944 10.2398 10
      vertex -2.40302 10.1992 10
    endloop
  endfacet
  facet normal -0.433873 -0.900974 0
    outer loop
      vertex -2.61235 10.2966 10
      vertex -2.4944 10.2398 11.99
      vertex -2.61235 10.2966 11.99
    endloop
  endfacet
  facet normal -0.433873 -0.900974 -0
    outer loop
      vertex -2.4944 10.2398 11.99
      vertex -2.61235 10.2966 10
      vertex -2.4944 10.2398 10
    endloop
  endfacet
  facet normal -0.416013 -0.909359 0
    outer loop
      vertex -2.75334 10.3611 10
      vertex -2.61235 10.2966 11.99
      vertex -2.75334 10.3611 11.99
    endloop
  endfacet
  facet normal -0.416013 -0.909359 -0
    outer loop
      vertex -2.61235 10.2966 11.99
      vertex -2.75334 10.3611 10
      vertex -2.61235 10.2966 10
    endloop
  endfacet
  facet normal -0.369373 -0.929281 0
    outer loop
      vertex -2.91385 10.4249 10
      vertex -2.75334 10.3611 11.99
      vertex -2.91385 10.4249 11.99
    endloop
  endfacet
  facet normal -0.369373 -0.929281 -0
    outer loop
      vertex -2.75334 10.3611 11.99
      vertex -2.91385 10.4249 10
      vertex -2.75334 10.3611 10
    endloop
  endfacet
  facet normal -0.329818 -0.944045 0
    outer loop
      vertex -3.09389 10.4878 10
      vertex -2.91385 10.4249 11.99
      vertex -3.09389 10.4878 11.99
    endloop
  endfacet
  facet normal -0.329818 -0.944045 -0
    outer loop
      vertex -2.91385 10.4249 11.99
      vertex -3.09389 10.4878 10
      vertex -2.91385 10.4249 10
    endloop
  endfacet
  facet normal -0.297526 -0.954714 0
    outer loop
      vertex -3.29348 10.55 10
      vertex -3.09389 10.4878 11.99
      vertex -3.29348 10.55 11.99
    endloop
  endfacet
  facet normal -0.297526 -0.954714 -0
    outer loop
      vertex -3.09389 10.4878 11.99
      vertex -3.29348 10.55 10
      vertex -3.09389 10.4878 10
    endloop
  endfacet
  facet normal -0.248862 -0.968539 0
    outer loop
      vertex -3.50403 10.6041 10
      vertex -3.29348 10.55 11.99
      vertex -3.50403 10.6041 11.99
    endloop
  endfacet
  facet normal -0.248862 -0.968539 -0
    outer loop
      vertex -3.29348 10.55 11.99
      vertex -3.50403 10.6041 10
      vertex -3.29348 10.55 10
    endloop
  endfacet
  facet normal -0.178853 -0.983876 0
    outer loop
      vertex -3.71692 10.6428 10
      vertex -3.50403 10.6041 11.99
      vertex -3.71692 10.6428 11.99
    endloop
  endfacet
  facet normal -0.178853 -0.983876 -0
    outer loop
      vertex -3.50403 10.6041 11.99
      vertex -3.71692 10.6428 10
      vertex -3.50403 10.6041 10
    endloop
  endfacet
  facet normal -0.106709 -0.99429 0
    outer loop
      vertex -3.93216 10.6659 10
      vertex -3.71692 10.6428 11.99
      vertex -3.93216 10.6659 11.99
    endloop
  endfacet
  facet normal -0.106709 -0.99429 -0
    outer loop
      vertex -3.71692 10.6428 11.99
      vertex -3.93216 10.6659 10
      vertex -3.71692 10.6428 10
    endloop
  endfacet
  facet normal -0.0358259 -0.999358 0
    outer loop
      vertex -4.14974 10.6737 10
      vertex -3.93216 10.6659 11.99
      vertex -4.14974 10.6737 11.99
    endloop
  endfacet
  facet normal -0.0358259 -0.999358 -0
    outer loop
      vertex -3.93216 10.6659 11.99
      vertex -4.14974 10.6737 10
      vertex -3.93216 10.6659 10
    endloop
  endfacet
  facet normal 0.0870534 -0.996204 0
    outer loop
      vertex -4.52509 10.6409 10
      vertex -4.14974 10.6737 11.99
      vertex -4.52509 10.6409 11.99
    endloop
  endfacet
  facet normal 0.0870534 -0.996204 0
    outer loop
      vertex -4.14974 10.6737 11.99
      vertex -4.52509 10.6409 10
      vertex -4.14974 10.6737 10
    endloop
  endfacet
  facet normal 0.279294 -0.960206 0
    outer loop
      vertex -4.86373 10.5424 10
      vertex -4.52509 10.6409 11.99
      vertex -4.86373 10.5424 11.99
    endloop
  endfacet
  facet normal 0.279294 -0.960206 0
    outer loop
      vertex -4.52509 10.6409 11.99
      vertex -4.86373 10.5424 10
      vertex -4.52509 10.6409 10
    endloop
  endfacet
  facet normal 0.477543 -0.878609 0
    outer loop
      vertex -5.16565 10.3783 10
      vertex -4.86373 10.5424 11.99
      vertex -5.16565 10.3783 11.99
    endloop
  endfacet
  facet normal 0.477543 -0.878609 0
    outer loop
      vertex -4.86373 10.5424 11.99
      vertex -5.16565 10.3783 10
      vertex -4.86373 10.5424 10
    endloop
  endfacet
  facet normal 0.654823 -0.755782 0
    outer loop
      vertex -5.43088 10.1485 10
      vertex -5.16565 10.3783 11.99
      vertex -5.43088 10.1485 11.99
    endloop
  endfacet
  facet normal 0.654823 -0.755782 0
    outer loop
      vertex -5.16565 10.3783 11.99
      vertex -5.43088 10.1485 10
      vertex -5.16565 10.3783 10
    endloop
  endfacet
  facet normal 0.793945 -0.60799 0
    outer loop
      vertex -5.6469 9.86641 11.99
      vertex -5.43088 10.1485 10
      vertex -5.43088 10.1485 11.99
    endloop
  endfacet
  facet normal 0.793945 -0.60799 0
    outer loop
      vertex -5.43088 10.1485 10
      vertex -5.6469 9.86641 11.99
      vertex -5.6469 9.86641 10
    endloop
  endfacet
  facet normal 0.901399 -0.43299 0
    outer loop
      vertex -5.80118 9.54523 11.99
      vertex -5.6469 9.86641 10
      vertex -5.6469 9.86641 11.99
    endloop
  endfacet
  facet normal 0.901399 -0.43299 0
    outer loop
      vertex -5.6469 9.86641 10
      vertex -5.80118 9.54523 11.99
      vertex -5.80118 9.54523 10
    endloop
  endfacet
  facet normal 0.968529 -0.248901 0
    outer loop
      vertex -5.89376 9.18498 11.99
      vertex -5.80118 9.54523 10
      vertex -5.80118 9.54523 11.99
    endloop
  endfacet
  facet normal 0.968529 -0.248901 0
    outer loop
      vertex -5.80118 9.54523 10
      vertex -5.89376 9.18498 11.99
      vertex -5.89376 9.18498 10
    endloop
  endfacet
  facet normal 0.997027 -0.0770516 0
    outer loop
      vertex -5.92462 8.78566 11.99
      vertex -5.89376 9.18498 10
      vertex -5.89376 9.18498 11.99
    endloop
  endfacet
  facet normal 0.997027 -0.0770516 0
    outer loop
      vertex -5.89376 9.18498 10
      vertex -5.92462 8.78566 11.99
      vertex -5.92462 8.78566 10
    endloop
  endfacet
  facet normal 0.997096 0.0761535 0
    outer loop
      vertex -5.88869 8.31522 11.99
      vertex -5.92462 8.78566 10
      vertex -5.92462 8.78566 11.99
    endloop
  endfacet
  facet normal 0.997096 0.0761535 0
    outer loop
      vertex -5.92462 8.78566 10
      vertex -5.88869 8.31522 11.99
      vertex -5.88869 8.31522 10
    endloop
  endfacet
  facet normal 0.969095 0.246689 0
    outer loop
      vertex -5.78087 7.89166 11.99
      vertex -5.88869 8.31522 10
      vertex -5.88869 8.31522 11.99
    endloop
  endfacet
  facet normal 0.969095 0.246689 0
    outer loop
      vertex -5.88869 8.31522 10
      vertex -5.78087 7.89166 11.99
      vertex -5.78087 7.89166 10
    endloop
  endfacet
  facet normal 0.902564 0.430556 0
    outer loop
      vertex -5.60118 7.51498 11.99
      vertex -5.78087 7.89166 10
      vertex -5.78087 7.89166 11.99
    endloop
  endfacet
  facet normal 0.902564 0.430556 0
    outer loop
      vertex -5.78087 7.89166 10
      vertex -5.60118 7.51498 11.99
      vertex -5.60118 7.51498 10
    endloop
  endfacet
  facet normal 0.79509 0.606491 0
    outer loop
      vertex -5.34961 7.18518 11.99
      vertex -5.60118 7.51498 10
      vertex -5.60118 7.51498 11.99
    endloop
  endfacet
  facet normal 0.79509 0.606491 0
    outer loop
      vertex -5.60118 7.51498 10
      vertex -5.34961 7.18518 11.99
      vertex -5.34961 7.18518 10
    endloop
  endfacet
  facet normal 0.655782 0.75495 -0
    outer loop
      vertex -5.04106 6.91716 10
      vertex -5.34961 7.18518 11.99
      vertex -5.04106 6.91716 11.99
    endloop
  endfacet
  facet normal 0.655782 0.75495 0
    outer loop
      vertex -5.34961 7.18518 11.99
      vertex -5.04106 6.91716 10
      vertex -5.34961 7.18518 10
    endloop
  endfacet
  facet normal 0.479106 0.877757 -0
    outer loop
      vertex -4.69031 6.72571 10
      vertex -5.04106 6.91716 11.99
      vertex -4.69031 6.72571 11.99
    endloop
  endfacet
  facet normal 0.479106 0.877757 0
    outer loop
      vertex -5.04106 6.91716 11.99
      vertex -4.69031 6.72571 10
      vertex -5.04106 6.91716 10
    endloop
  endfacet
  facet normal 0.280597 0.959826 -0
    outer loop
      vertex -4.29738 6.61084 10
      vertex -4.69031 6.72571 11.99
      vertex -4.29738 6.61084 11.99
    endloop
  endfacet
  facet normal 0.280597 0.959826 0
    outer loop
      vertex -4.69031 6.72571 11.99
      vertex -4.29738 6.61084 10
      vertex -4.69031 6.72571 10
    endloop
  endfacet
  facet normal 0.0876412 0.996152 -0
    outer loop
      vertex -3.86228 6.57256 10
      vertex -4.29738 6.61084 11.99
      vertex -3.86228 6.57256 11.99
    endloop
  endfacet
  facet normal 0.0876412 0.996152 0
    outer loop
      vertex -4.29738 6.61084 11.99
      vertex -3.86228 6.57256 10
      vertex -4.29738 6.61084 10
    endloop
  endfacet
  facet normal -0.0977818 0.995208 0
    outer loop
      vertex -3.32947 6.62491 10
      vertex -3.86228 6.57256 11.99
      vertex -3.32947 6.62491 11.99
    endloop
  endfacet
  facet normal -0.0977818 0.995208 0
    outer loop
      vertex -3.86228 6.57256 11.99
      vertex -3.32947 6.62491 10
      vertex -3.86228 6.57256 10
    endloop
  endfacet
  facet normal -0.293858 0.955849 0
    outer loop
      vertex -2.81856 6.78198 10
      vertex -3.32947 6.62491 11.99
      vertex -2.81856 6.78198 11.99
    endloop
  endfacet
  facet normal -0.293858 0.955849 0
    outer loop
      vertex -3.32947 6.62491 11.99
      vertex -2.81856 6.78198 10
      vertex -3.32947 6.62491 10
    endloop
  endfacet
  facet normal -0.471969 0.881615 0
    outer loop
      vertex -2.32953 7.04378 10
      vertex -2.81856 6.78198 11.99
      vertex -2.32953 7.04378 11.99
    endloop
  endfacet
  facet normal -0.471969 0.881615 0
    outer loop
      vertex -2.81856 6.78198 11.99
      vertex -2.32953 7.04378 10
      vertex -2.81856 6.78198 10
    endloop
  endfacet
  facet normal -0.617252 0.786765 0
    outer loop
      vertex -1.86238 7.41028 10
      vertex -2.32953 7.04378 11.99
      vertex -1.86238 7.41028 11.99
    endloop
  endfacet
  facet normal -0.617252 0.786765 0
    outer loop
      vertex -2.32953 7.04378 11.99
      vertex -1.86238 7.41028 10
      vertex -2.32953 7.04378 10
    endloop
  endfacet
  facet normal -0.663702 0.747997 0
    outer loop
      vertex -1.80692 7.45949 10
      vertex -1.86238 7.41028 11.99
      vertex -1.80692 7.45949 11.99
    endloop
  endfacet
  facet normal -0.663702 0.747997 0
    outer loop
      vertex -1.86238 7.41028 11.99
      vertex -1.80692 7.45949 10
      vertex -1.86238 7.41028 10
    endloop
  endfacet
  facet normal -0.546173 0.837672 0
    outer loop
      vertex -1.75301 7.49464 10
      vertex -1.80692 7.45949 11.99
      vertex -1.75301 7.49464 11.99
    endloop
  endfacet
  facet normal -0.546173 0.837672 0
    outer loop
      vertex -1.80692 7.45949 11.99
      vertex -1.75301 7.49464 10
      vertex -1.80692 7.45949 10
    endloop
  endfacet
  facet normal -0.374047 0.92741 0
    outer loop
      vertex -1.70067 7.51575 10
      vertex -1.75301 7.49464 11.99
      vertex -1.70067 7.51575 11.99
    endloop
  endfacet
  facet normal -0.374047 0.92741 0
    outer loop
      vertex -1.75301 7.49464 11.99
      vertex -1.70067 7.51575 10
      vertex -1.75301 7.49464 10
    endloop
  endfacet
  facet normal -0.136941 0.990579 0
    outer loop
      vertex -1.64989 7.52277 10
      vertex -1.70067 7.51575 11.99
      vertex -1.64989 7.52277 11.99
    endloop
  endfacet
  facet normal -0.136941 0.990579 0
    outer loop
      vertex -1.70067 7.51575 11.99
      vertex -1.64989 7.52277 10
      vertex -1.70067 7.51575 10
    endloop
  endfacet
  facet normal 0.0963899 0.995344 -0
    outer loop
      vertex -1.60146 7.51808 10
      vertex -1.64989 7.52277 11.99
      vertex -1.60146 7.51808 11.99
    endloop
  endfacet
  facet normal 0.0963899 0.995344 0
    outer loop
      vertex -1.64989 7.52277 11.99
      vertex -1.60146 7.51808 10
      vertex -1.64989 7.52277 10
    endloop
  endfacet
  facet normal 0.296499 0.955033 -0
    outer loop
      vertex -1.55614 7.50401 10
      vertex -1.60146 7.51808 11.99
      vertex -1.55614 7.50401 11.99
    endloop
  endfacet
  facet normal 0.296499 0.955033 0
    outer loop
      vertex -1.60146 7.51808 11.99
      vertex -1.55614 7.50401 10
      vertex -1.60146 7.51808 10
    endloop
  endfacet
  facet normal 0.485801 0.874069 -0
    outer loop
      vertex -1.51393 7.48055 10
      vertex -1.55614 7.50401 11.99
      vertex -1.51393 7.48055 11.99
    endloop
  endfacet
  facet normal 0.485801 0.874069 0
    outer loop
      vertex -1.55614 7.50401 11.99
      vertex -1.51393 7.48055 10
      vertex -1.55614 7.50401 10
    endloop
  endfacet
  facet normal 0.643243 0.765662 -0
    outer loop
      vertex -1.47484 7.44771 10
      vertex -1.51393 7.48055 11.99
      vertex -1.47484 7.44771 11.99
    endloop
  endfacet
  facet normal 0.643243 0.765662 0
    outer loop
      vertex -1.51393 7.48055 11.99
      vertex -1.47484 7.44771 10
      vertex -1.51393 7.48055 10
    endloop
  endfacet
  facet normal 0.765821 0.643054 0
    outer loop
      vertex -1.44205 7.40866 11.99
      vertex -1.47484 7.44771 10
      vertex -1.47484 7.44771 11.99
    endloop
  endfacet
  facet normal 0.765821 0.643054 0
    outer loop
      vertex -1.47484 7.44771 10
      vertex -1.44205 7.40866 11.99
      vertex -1.44205 7.40866 10
    endloop
  endfacet
  facet normal 0.87405 0.485836 0
    outer loop
      vertex -1.41861 7.36649 11.99
      vertex -1.44205 7.40866 10
      vertex -1.44205 7.40866 11.99
    endloop
  endfacet
  facet normal 0.87405 0.485836 0
    outer loop
      vertex -1.44205 7.40866 10
      vertex -1.41861 7.36649 11.99
      vertex -1.41861 7.36649 10
    endloop
  endfacet
  facet normal 0.955134 0.296174 0
    outer loop
      vertex -1.40456 7.32118 11.99
      vertex -1.41861 7.36649 10
      vertex -1.41861 7.36649 11.99
    endloop
  endfacet
  facet normal 0.955134 0.296174 0
    outer loop
      vertex -1.41861 7.36649 10
      vertex -1.40456 7.32118 11.99
      vertex -1.40456 7.32118 10
    endloop
  endfacet
  facet normal 0.995344 0.0963899 0
    outer loop
      vertex -1.39987 7.27275 11.99
      vertex -1.40456 7.32118 10
      vertex -1.40456 7.32118 11.99
    endloop
  endfacet
  facet normal 0.995344 0.0963899 0
    outer loop
      vertex -1.40456 7.32118 10
      vertex -1.39987 7.27275 11.99
      vertex -1.39987 7.27275 10
    endloop
  endfacet
  facet normal 0.950117 -0.311895 0
    outer loop
      vertex -1.45066 7.11803 11.99
      vertex -1.39987 7.27275 10
      vertex -1.39987 7.27275 11.99
    endloop
  endfacet
  facet normal 0.950117 -0.311895 0
    outer loop
      vertex -1.39987 7.27275 10
      vertex -1.45066 7.11803 11.99
      vertex -1.45066 7.11803 10
    endloop
  endfacet
  facet normal 0.757262 -0.653112 0
    outer loop
      vertex -1.60298 6.94142 11.99
      vertex -1.45066 7.11803 10
      vertex -1.45066 7.11803 11.99
    endloop
  endfacet
  facet normal 0.757262 -0.653112 0
    outer loop
      vertex -1.45066 7.11803 10
      vertex -1.60298 6.94142 11.99
      vertex -1.60298 6.94142 10
    endloop
  endfacet
  facet normal 0.615984 -0.787759 0
    outer loop
      vertex -1.85686 6.7429 10
      vertex -1.60298 6.94142 11.99
      vertex -1.85686 6.7429 11.99
    endloop
  endfacet
  facet normal 0.615984 -0.787759 0
    outer loop
      vertex -1.60298 6.94142 11.99
      vertex -1.85686 6.7429 10
      vertex -1.60298 6.94142 10
    endloop
  endfacet
  facet normal 0.526969 -0.849884 0
    outer loop
      vertex -2.2123 6.52251 10
      vertex -1.85686 6.7429 11.99
      vertex -2.2123 6.52251 11.99
    endloop
  endfacet
  facet normal 0.526969 -0.849884 0
    outer loop
      vertex -1.85686 6.7429 11.99
      vertex -2.2123 6.52251 10
      vertex -1.85686 6.7429 10
    endloop
  endfacet
  facet normal 0.443162 -0.896441 0
    outer loop
      vertex -2.62168 6.32013 10
      vertex -2.2123 6.52251 11.99
      vertex -2.62168 6.32013 11.99
    endloop
  endfacet
  facet normal 0.443162 -0.896441 0
    outer loop
      vertex -2.2123 6.52251 11.99
      vertex -2.62168 6.32013 10
      vertex -2.2123 6.52251 10
    endloop
  endfacet
  facet normal 0.328486 -0.944509 0
    outer loop
      vertex -3.03731 6.17558 10
      vertex -2.62168 6.32013 11.99
      vertex -3.03731 6.17558 11.99
    endloop
  endfacet
  facet normal 0.328486 -0.944509 0
    outer loop
      vertex -2.62168 6.32013 11.99
      vertex -3.03731 6.17558 10
      vertex -2.62168 6.32013 10
    endloop
  endfacet
  facet normal 0.201391 -0.979511 0
    outer loop
      vertex -3.45919 6.08884 10
      vertex -3.03731 6.17558 11.99
      vertex -3.45919 6.08884 11.99
    endloop
  endfacet
  facet normal 0.201391 -0.979511 0
    outer loop
      vertex -3.03731 6.17558 11.99
      vertex -3.45919 6.08884 10
      vertex -3.03731 6.17558 10
    endloop
  endfacet
  facet normal 0.0674007 -0.997726 0
    outer loop
      vertex -3.88729 6.05992 10
      vertex -3.45919 6.08884 11.99
      vertex -3.88729 6.05992 11.99
    endloop
  endfacet
  facet normal 0.0674007 -0.997726 0
    outer loop
      vertex -3.45919 6.08884 11.99
      vertex -3.88729 6.05992 10
      vertex -3.45919 6.08884 10
    endloop
  endfacet
  facet normal -0.0893143 -0.996003 0
    outer loop
      vertex -4.41889 6.10759 10
      vertex -3.88729 6.05992 11.99
      vertex -4.41889 6.10759 11.99
    endloop
  endfacet
  facet normal -0.0893143 -0.996003 -0
    outer loop
      vertex -3.88729 6.05992 11.99
      vertex -4.41889 6.10759 10
      vertex -3.88729 6.05992 10
    endloop
  endfacet
endsolid OpenSCAD_Model
