solid OpenSCAD_Model
  facet normal -0 0 1
    outer loop
      vertex -5.66219 13.0633 10
      vertex -2.02483 12.8503 10
      vertex -2.02483 13.2887 10
    endloop
  endfacet
  facet normal 0 0 1
    outer loop
      vertex -2.02483 12.8503 10
      vertex -3.63884 6.52199 10
      vertex -3.63727 6.4884 10
    endloop
  endfacet
  facet normal 0 0 1
    outer loop
      vertex -2.02483 12.8503 10
      vertex -3.64353 6.56027 10
      vertex -3.63884 6.52199 10
    endloop
  endfacet
  facet normal 0 0 1
    outer loop
      vertex -2.02483 12.8503 10
      vertex -3.65134 6.60326 10
      vertex -3.64353 6.56027 10
    endloop
  endfacet
  facet normal 0 0 1
    outer loop
      vertex -2.02483 12.8503 10
      vertex -3.6623 6.65094 10
      vertex -3.65134 6.60326 10
    endloop
  endfacet
  facet normal 0 0 1
    outer loop
      vertex -5.66219 13.0633 10
      vertex -2.02483 13.2887 10
      vertex -5.66219 13.2887 10
    endloop
  endfacet
  facet normal 0 0 1
    outer loop
      vertex -2.02483 12.8503 10
      vertex -5.66219 13.0633 10
      vertex -3.6623 6.65094 10
    endloop
  endfacet
  facet normal 0 0 1
    outer loop
      vertex -1.51238 12.8501 10
      vertex 0 14.5 10
      vertex -1.51238 13.8013 10
    endloop
  endfacet
  facet normal 0 0 1
    outer loop
      vertex 0 14.5 10
      vertex -6.17464 13.8013 10
      vertex -1.51238 13.8013 10
    endloop
  endfacet
  facet normal 0 0 1
    outer loop
      vertex -6.17464 13.8013 10
      vertex -8 14.5 10
      vertex -6.17464 12.9881 10
    endloop
  endfacet
  facet normal -0 0 1
    outer loop
      vertex -8 14.5 10
      vertex -6.17464 13.8013 10
      vertex 0 14.5 10
    endloop
  endfacet
  facet normal 0 0 1
    outer loop
      vertex -1.52878 12.6967 10
      vertex 0 14.5 10
      vertex -1.51238 12.8501 10
    endloop
  endfacet
  facet normal 0 0 1
    outer loop
      vertex -1.57798 12.5872 10
      vertex 0 14.5 10
      vertex -1.52878 12.6967 10
    endloop
  endfacet
  facet normal 0 0 1
    outer loop
      vertex 0 14.5 10
      vertex -1.57798 12.5872 10
      vertex 0 2.5 10
    endloop
  endfacet
  facet normal -0 0 1
    outer loop
      vertex -1.65999 12.5215 10
      vertex 0 2.5 10
      vertex -1.57798 12.5872 10
    endloop
  endfacet
  facet normal 0 0 1
    outer loop
      vertex -3.63727 6.4884 10
      vertex -1.65999 12.5215 10
      vertex -1.77481 12.4996 10
    endloop
  endfacet
  facet normal 0 0 1
    outer loop
      vertex -3.63727 6.4884 10
      vertex -1.77481 12.4996 10
      vertex -1.88419 12.5215 10
    endloop
  endfacet
  facet normal 0 0 1
    outer loop
      vertex -3.63727 6.4884 10
      vertex -1.88419 12.5215 10
      vertex -1.96233 12.5873 10
    endloop
  endfacet
  facet normal 0 0 1
    outer loop
      vertex -3.63727 6.4884 10
      vertex -1.96233 12.5873 10
      vertex -2.0092 12.6969 10
    endloop
  endfacet
  facet normal 0 0 1
    outer loop
      vertex -3.63727 6.4884 10
      vertex -2.0092 12.6969 10
      vertex -2.02483 12.8503 10
    endloop
  endfacet
  facet normal 0 0 1
    outer loop
      vertex -1.65999 12.5215 10
      vertex -3.63727 6.4884 10
      vertex 0 2.5 10
    endloop
  endfacet
  facet normal -0 0 1
    outer loop
      vertex -3.64196 6.43997 10
      vertex 0 2.5 10
      vertex -3.63727 6.4884 10
    endloop
  endfacet
  facet normal -0 0 1
    outer loop
      vertex -3.65601 6.39467 10
      vertex 0 2.5 10
      vertex -3.64196 6.43997 10
    endloop
  endfacet
  facet normal -0 0 1
    outer loop
      vertex -3.67945 6.35249 10
      vertex 0 2.5 10
      vertex -3.65601 6.39467 10
    endloop
  endfacet
  facet normal -0 0 1
    outer loop
      vertex -3.71224 6.31345 10
      vertex 0 2.5 10
      vertex -3.67945 6.35249 10
    endloop
  endfacet
  facet normal -0 0 1
    outer loop
      vertex -3.75133 6.28064 10
      vertex 0 2.5 10
      vertex -3.71224 6.31345 10
    endloop
  endfacet
  facet normal -0 0 1
    outer loop
      vertex -3.79354 6.25722 10
      vertex 0 2.5 10
      vertex -3.75133 6.28064 10
    endloop
  endfacet
  facet normal -0 0 1
    outer loop
      vertex -3.83885 6.24318 10
      vertex 0 2.5 10
      vertex -3.79354 6.25722 10
    endloop
  endfacet
  facet normal -0 0 1
    outer loop
      vertex -3.88729 6.23849 10
      vertex 0 2.5 10
      vertex -3.83885 6.24318 10
    endloop
  endfacet
  facet normal 0 0 1
    outer loop
      vertex -8 2.5 10
      vertex -3.88729 6.23849 10
      vertex -3.96384 6.25488 10
    endloop
  endfacet
  facet normal 0 0 1
    outer loop
      vertex -8 2.5 10
      vertex -3.96384 6.25488 10
      vertex -4.03102 6.30411 10
    endloop
  endfacet
  facet normal 0 0 1
    outer loop
      vertex -8 2.5 10
      vertex -6.17464 12.9881 10
      vertex -8 14.5 10
    endloop
  endfacet
  facet normal 0 0 1
    outer loop
      vertex -6.17464 12.9881 10
      vertex -8 2.5 10
      vertex -4.13732 6.50101 10
    endloop
  endfacet
  facet normal 0 0 1
    outer loop
      vertex -3.88729 6.23849 10
      vertex -8 2.5 10
      vertex 0 2.5 10
    endloop
  endfacet
  facet normal 0 0 1
    outer loop
      vertex -4.08885 6.38614 10
      vertex -8 2.5 10
      vertex -4.03102 6.30411 10
    endloop
  endfacet
  facet normal 0 0 1
    outer loop
      vertex -4.13732 6.50101 10
      vertex -8 2.5 10
      vertex -4.08885 6.38614 10
    endloop
  endfacet
  facet normal -1 0 0
    outer loop
      vertex -8 0 3
      vertex -8 17 3
      vertex -8 17 0
    endloop
  endfacet
  facet normal -1 0 0
    outer loop
      vertex -8 17 3
      vertex -8 0 3
      vertex -8 14.5 10
    endloop
  endfacet
  facet normal -1 0 0
    outer loop
      vertex -8 0 3
      vertex -8 17 0
      vertex -8 0 0
    endloop
  endfacet
  facet normal -1 -0 0
    outer loop
      vertex -8 14.5 10
      vertex -8 0 3
      vertex -8 2.5 10
    endloop
  endfacet
  facet normal 0 1 -0
    outer loop
      vertex 0 17 0
      vertex -8 17 3
      vertex 0 17 3
    endloop
  endfacet
  facet normal 0 1 0
    outer loop
      vertex -8 17 3
      vertex 0 17 0
      vertex -8 17 0
    endloop
  endfacet
  facet normal 0 0 -1
    outer loop
      vertex -8 0 0
      vertex 0 17 0
      vertex 0 0 0
    endloop
  endfacet
  facet normal -0 0 -1
    outer loop
      vertex 0 17 0
      vertex -8 0 0
      vertex -8 17 0
    endloop
  endfacet
  facet normal 1 0 0
    outer loop
      vertex 0 0 3
      vertex 0 17 3
      vertex 0 14.5 10
    endloop
  endfacet
  facet normal 1 0 0
    outer loop
      vertex 0 0 3
      vertex 0 14.5 10
      vertex 0 2.5 10
    endloop
  endfacet
  facet normal 1 0 0
    outer loop
      vertex 0 17 3
      vertex 0 0 3
      vertex 0 17 0
    endloop
  endfacet
  facet normal 1 0 0
    outer loop
      vertex 0 17 0
      vertex 0 0 3
      vertex 0 0 0
    endloop
  endfacet
  facet normal 0 -0.941742 0.336336
    outer loop
      vertex -8 0 3
      vertex 0 2.5 10
      vertex -8 2.5 10
    endloop
  endfacet
  facet normal 0 -0.941742 0.336336
    outer loop
      vertex 0 2.5 10
      vertex -8 0 3
      vertex 0 0 3
    endloop
  endfacet
  facet normal 0 -1 0
    outer loop
      vertex -8 0 0
      vertex 0 0 3
      vertex -8 0 3
    endloop
  endfacet
  facet normal 0 -1 -0
    outer loop
      vertex 0 0 3
      vertex -8 0 0
      vertex 0 0 0
    endloop
  endfacet
  facet normal 0 0.941742 0.336336
    outer loop
      vertex 0 17 3
      vertex -8 14.5 10
      vertex 0 14.5 10
    endloop
  endfacet
  facet normal 0 0.941742 0.336336
    outer loop
      vertex -8 14.5 10
      vertex 0 17 3
      vertex -8 17 3
    endloop
  endfacet
  facet normal -0 0 1
    outer loop
      vertex -2.02483 13.2887 11.99
      vertex -1.51238 12.8501 11.99
      vertex -1.51238 13.8013 11.99
    endloop
  endfacet
  facet normal -0 0 1
    outer loop
      vertex -2.02483 12.8503 11.99
      vertex -1.51238 12.8501 11.99
      vertex -2.02483 13.2887 11.99
    endloop
  endfacet
  facet normal 0 0 1
    outer loop
      vertex -1.51238 12.8501 11.99
      vertex -2.02483 12.8503 11.99
      vertex -1.52878 12.6967 11.99
    endloop
  endfacet
  facet normal -0 -0 1
    outer loop
      vertex -2.0092 12.6969 11.99
      vertex -1.52878 12.6967 11.99
      vertex -2.02483 12.8503 11.99
    endloop
  endfacet
  facet normal 0 -0 1
    outer loop
      vertex -1.77481 12.4996 11.99
      vertex -1.52878 12.6967 11.99
      vertex -2.0092 12.6969 11.99
    endloop
  endfacet
  facet normal 0 0 1
    outer loop
      vertex -1.57798 12.5872 11.99
      vertex -1.77481 12.4996 11.99
      vertex -1.65999 12.5215 11.99
    endloop
  endfacet
  facet normal -0 -0 1
    outer loop
      vertex -1.96233 12.5873 11.99
      vertex -1.77481 12.4996 11.99
      vertex -2.0092 12.6969 11.99
    endloop
  endfacet
  facet normal 0 0 1
    outer loop
      vertex -1.52878 12.6967 11.99
      vertex -1.77481 12.4996 11.99
      vertex -1.57798 12.5872 11.99
    endloop
  endfacet
  facet normal 0 0 1
    outer loop
      vertex -1.51238 13.8013 11.99
      vertex -5.66219 13.2887 11.99
      vertex -2.02483 13.2887 11.99
    endloop
  endfacet
  facet normal 0 0 1
    outer loop
      vertex -6.17464 12.9881 11.99
      vertex -5.66219 13.2887 11.99
      vertex -6.17464 13.8013 11.99
    endloop
  endfacet
  facet normal -0 0 1
    outer loop
      vertex -6.17464 13.8013 11.99
      vertex -5.66219 13.2887 11.99
      vertex -1.51238 13.8013 11.99
    endloop
  endfacet
  facet normal 0 0 1
    outer loop
      vertex -1.77481 12.4996 11.99
      vertex -1.96233 12.5873 11.99
      vertex -1.88419 12.5215 11.99
    endloop
  endfacet
  facet normal 0 0 1
    outer loop
      vertex -4.08885 6.38614 11.99
      vertex -3.63727 6.4884 11.99
      vertex -3.63884 6.52199 11.99
    endloop
  endfacet
  facet normal 0 0 1
    outer loop
      vertex -4.08885 6.38614 11.99
      vertex -3.63884 6.52199 11.99
      vertex -3.64353 6.56027 11.99
    endloop
  endfacet
  facet normal 0 0 1
    outer loop
      vertex -4.08885 6.38614 11.99
      vertex -3.64353 6.56027 11.99
      vertex -3.65134 6.60326 11.99
    endloop
  endfacet
  facet normal 0 0 1
    outer loop
      vertex -3.63727 6.4884 11.99
      vertex -4.08885 6.38614 11.99
      vertex -3.64196 6.43997 11.99
    endloop
  endfacet
  facet normal 0 0 1
    outer loop
      vertex -4.13732 6.50101 11.99
      vertex -3.65134 6.60326 11.99
      vertex -3.6623 6.65094 11.99
    endloop
  endfacet
  facet normal 0 0 1
    outer loop
      vertex -3.64196 6.43997 11.99
      vertex -4.08885 6.38614 11.99
      vertex -3.65601 6.39467 11.99
    endloop
  endfacet
  facet normal 0 0 1
    outer loop
      vertex -3.65601 6.39467 11.99
      vertex -4.08885 6.38614 11.99
      vertex -3.67945 6.35249 11.99
    endloop
  endfacet
  facet normal 0 0 1
    outer loop
      vertex -3.67945 6.35249 11.99
      vertex -4.08885 6.38614 11.99
      vertex -3.71224 6.31345 11.99
    endloop
  endfacet
  facet normal 0 -0 1
    outer loop
      vertex -4.03102 6.30411 11.99
      vertex -3.71224 6.31345 11.99
      vertex -4.08885 6.38614 11.99
    endloop
  endfacet
  facet normal 0 0 1
    outer loop
      vertex -3.71224 6.31345 11.99
      vertex -4.03102 6.30411 11.99
      vertex -3.75133 6.28064 11.99
    endloop
  endfacet
  facet normal 0 0 1
    outer loop
      vertex -3.75133 6.28064 11.99
      vertex -4.03102 6.30411 11.99
      vertex -3.79354 6.25722 11.99
    endloop
  endfacet
  facet normal 0 0 1
    outer loop
      vertex -3.79354 6.25722 11.99
      vertex -4.03102 6.30411 11.99
      vertex -3.83885 6.24318 11.99
    endloop
  endfacet
  facet normal 0 0 1
    outer loop
      vertex -3.88729 6.23849 11.99
      vertex -4.03102 6.30411 11.99
      vertex -3.96384 6.25488 11.99
    endloop
  endfacet
  facet normal 0 0 1
    outer loop
      vertex -3.83885 6.24318 11.99
      vertex -4.03102 6.30411 11.99
      vertex -3.88729 6.23849 11.99
    endloop
  endfacet
  facet normal 0 0 1
    outer loop
      vertex -3.65134 6.60326 11.99
      vertex -4.13732 6.50101 11.99
      vertex -4.08885 6.38614 11.99
    endloop
  endfacet
  facet normal 0 0 1
    outer loop
      vertex -5.66219 13.0633 11.99
      vertex -4.13732 6.50101 11.99
      vertex -3.6623 6.65094 11.99
    endloop
  endfacet
  facet normal 0 0 1
    outer loop
      vertex -5.66219 13.2887 11.99
      vertex -6.17464 12.9881 11.99
      vertex -5.66219 13.0633 11.99
    endloop
  endfacet
  facet normal 0 0 1
    outer loop
      vertex -5.66219 13.0633 11.99
      vertex -6.17464 12.9881 11.99
      vertex -4.13732 6.50101 11.99
    endloop
  endfacet
  facet normal -0.591088 -0.806607 0
    outer loop
      vertex -4.03102 6.30411 10
      vertex -3.96384 6.25488 11.99
      vertex -4.03102 6.30411 11.99
    endloop
  endfacet
  facet normal -0.591088 -0.806607 -0
    outer loop
      vertex -3.96384 6.25488 11.99
      vertex -4.03102 6.30411 10
      vertex -3.96384 6.25488 10
    endloop
  endfacet
  facet normal -0.817313 -0.576194 0
    outer loop
      vertex -4.03102 6.30411 10
      vertex -4.08885 6.38614 11.99
      vertex -4.08885 6.38614 10
    endloop
  endfacet
  facet normal -0.817313 -0.576194 0
    outer loop
      vertex -4.08885 6.38614 11.99
      vertex -4.03102 6.30411 10
      vertex -4.03102 6.30411 11.99
    endloop
  endfacet
  facet normal -0.921338 -0.388763 0
    outer loop
      vertex -4.08885 6.38614 10
      vertex -4.13732 6.50101 11.99
      vertex -4.13732 6.50101 10
    endloop
  endfacet
  facet normal -0.921338 -0.388763 0
    outer loop
      vertex -4.13732 6.50101 11.99
      vertex -4.08885 6.38614 10
      vertex -4.08885 6.38614 11.99
    endloop
  endfacet
  facet normal -0.954056 -0.299629 0
    outer loop
      vertex -4.13732 6.50101 10
      vertex -6.17464 12.9881 11.99
      vertex -6.17464 12.9881 10
    endloop
  endfacet
  facet normal -0.954056 -0.299629 0
    outer loop
      vertex -6.17464 12.9881 11.99
      vertex -4.13732 6.50101 10
      vertex -4.13732 6.50101 11.99
    endloop
  endfacet
  facet normal -1 0 0
    outer loop
      vertex -6.17464 12.9881 10
      vertex -6.17464 13.8013 11.99
      vertex -6.17464 13.8013 10
    endloop
  endfacet
  facet normal -1 -0 0
    outer loop
      vertex -6.17464 13.8013 11.99
      vertex -6.17464 12.9881 10
      vertex -6.17464 12.9881 11.99
    endloop
  endfacet
  facet normal 0 1 -0
    outer loop
      vertex -1.51238 13.8013 10
      vertex -6.17464 13.8013 11.99
      vertex -1.51238 13.8013 11.99
    endloop
  endfacet
  facet normal 0 1 0
    outer loop
      vertex -6.17464 13.8013 11.99
      vertex -1.51238 13.8013 10
      vertex -6.17464 13.8013 10
    endloop
  endfacet
  facet normal 1 -0 0
    outer loop
      vertex -1.51238 12.8501 11.99
      vertex -1.51238 13.8013 10
      vertex -1.51238 13.8013 11.99
    endloop
  endfacet
  facet normal 1 0 0
    outer loop
      vertex -1.51238 13.8013 10
      vertex -1.51238 12.8501 11.99
      vertex -1.51238 12.8501 10
    endloop
  endfacet
  facet normal 0.994334 -0.106304 0
    outer loop
      vertex -1.52878 12.6967 11.99
      vertex -1.51238 12.8501 10
      vertex -1.51238 12.8501 11.99
    endloop
  endfacet
  facet normal 0.994334 -0.106304 0
    outer loop
      vertex -1.51238 12.8501 10
      vertex -1.52878 12.6967 11.99
      vertex -1.52878 12.6967 10
    endloop
  endfacet
  facet normal 0.912155 -0.409845 0
    outer loop
      vertex -1.57798 12.5872 11.99
      vertex -1.52878 12.6967 10
      vertex -1.52878 12.6967 11.99
    endloop
  endfacet
  facet normal 0.912155 -0.409845 0
    outer loop
      vertex -1.52878 12.6967 10
      vertex -1.57798 12.5872 11.99
      vertex -1.57798 12.5872 10
    endloop
  endfacet
  facet normal 0.625229 -0.780442 0
    outer loop
      vertex -1.65999 12.5215 10
      vertex -1.57798 12.5872 11.99
      vertex -1.65999 12.5215 11.99
    endloop
  endfacet
  facet normal 0.625229 -0.780442 0
    outer loop
      vertex -1.57798 12.5872 11.99
      vertex -1.65999 12.5215 10
      vertex -1.57798 12.5872 10
    endloop
  endfacet
  facet normal 0.187356 -0.982292 0
    outer loop
      vertex -1.77481 12.4996 10
      vertex -1.65999 12.5215 11.99
      vertex -1.77481 12.4996 11.99
    endloop
  endfacet
  facet normal 0.187356 -0.982292 0
    outer loop
      vertex -1.65999 12.5215 11.99
      vertex -1.77481 12.4996 10
      vertex -1.65999 12.5215 10
    endloop
  endfacet
  facet normal -0.196323 -0.980539 0
    outer loop
      vertex -1.88419 12.5215 10
      vertex -1.77481 12.4996 11.99
      vertex -1.88419 12.5215 11.99
    endloop
  endfacet
  facet normal -0.196323 -0.980539 -0
    outer loop
      vertex -1.77481 12.4996 11.99
      vertex -1.88419 12.5215 10
      vertex -1.77481 12.4996 10
    endloop
  endfacet
  facet normal -0.644124 -0.764921 0
    outer loop
      vertex -1.96233 12.5873 10
      vertex -1.88419 12.5215 11.99
      vertex -1.96233 12.5873 11.99
    endloop
  endfacet
  facet normal -0.644124 -0.764921 -0
    outer loop
      vertex -1.88419 12.5215 11.99
      vertex -1.96233 12.5873 10
      vertex -1.88419 12.5215 10
    endloop
  endfacet
  facet normal -0.919453 -0.3932 0
    outer loop
      vertex -1.96233 12.5873 10
      vertex -2.0092 12.6969 11.99
      vertex -2.0092 12.6969 10
    endloop
  endfacet
  facet normal -0.919453 -0.3932 0
    outer loop
      vertex -2.0092 12.6969 11.99
      vertex -1.96233 12.5873 10
      vertex -1.96233 12.5873 11.99
    endloop
  endfacet
  facet normal -0.994849 -0.101366 0
    outer loop
      vertex -2.0092 12.6969 10
      vertex -2.02483 12.8503 11.99
      vertex -2.02483 12.8503 10
    endloop
  endfacet
  facet normal -0.994849 -0.101366 0
    outer loop
      vertex -2.02483 12.8503 11.99
      vertex -2.0092 12.6969 10
      vertex -2.0092 12.6969 11.99
    endloop
  endfacet
  facet normal -1 0 0
    outer loop
      vertex -2.02483 12.8503 10
      vertex -2.02483 13.2887 11.99
      vertex -2.02483 13.2887 10
    endloop
  endfacet
  facet normal -1 -0 0
    outer loop
      vertex -2.02483 13.2887 11.99
      vertex -2.02483 12.8503 10
      vertex -2.02483 12.8503 11.99
    endloop
  endfacet
  facet normal 0 -1 0
    outer loop
      vertex -5.66219 13.2887 10
      vertex -2.02483 13.2887 11.99
      vertex -5.66219 13.2887 11.99
    endloop
  endfacet
  facet normal 0 -1 -0
    outer loop
      vertex -2.02483 13.2887 11.99
      vertex -5.66219 13.2887 10
      vertex -2.02483 13.2887 10
    endloop
  endfacet
  facet normal 1 -0 0
    outer loop
      vertex -5.66219 13.0633 11.99
      vertex -5.66219 13.2887 10
      vertex -5.66219 13.2887 11.99
    endloop
  endfacet
  facet normal 1 0 0
    outer loop
      vertex -5.66219 13.2887 10
      vertex -5.66219 13.0633 11.99
      vertex -5.66219 13.0633 10
    endloop
  endfacet
  facet normal 0.954648 0.297736 0
    outer loop
      vertex -3.6623 6.65094 11.99
      vertex -5.66219 13.0633 10
      vertex -5.66219 13.0633 11.99
    endloop
  endfacet
  facet normal 0.954648 0.297736 0
    outer loop
      vertex -5.66219 13.0633 10
      vertex -3.6623 6.65094 11.99
      vertex -3.6623 6.65094 10
    endloop
  endfacet
  facet normal 0.974584 0.224023 0
    outer loop
      vertex -3.65134 6.60326 11.99
      vertex -3.6623 6.65094 10
      vertex -3.6623 6.65094 11.99
    endloop
  endfacet
  facet normal 0.974584 0.224023 0
    outer loop
      vertex -3.6623 6.65094 10
      vertex -3.65134 6.60326 11.99
      vertex -3.65134 6.60326 10
    endloop
  endfacet
  facet normal 0.983896 0.178744 0
    outer loop
      vertex -3.64353 6.56027 11.99
      vertex -3.65134 6.60326 10
      vertex -3.65134 6.60326 11.99
    endloop
  endfacet
  facet normal 0.983896 0.178744 0
    outer loop
      vertex -3.65134 6.60326 10
      vertex -3.64353 6.56027 11.99
      vertex -3.64353 6.56027 10
    endloop
  endfacet
  facet normal 0.992578 0.121609 0
    outer loop
      vertex -3.63884 6.52199 11.99
      vertex -3.64353 6.56027 10
      vertex -3.64353 6.56027 11.99
    endloop
  endfacet
  facet normal 0.992578 0.121609 0
    outer loop
      vertex -3.64353 6.56027 10
      vertex -3.63884 6.52199 11.99
      vertex -3.63884 6.52199 10
    endloop
  endfacet
  facet normal 0.998909 0.0466891 0
    outer loop
      vertex -3.63727 6.4884 11.99
      vertex -3.63884 6.52199 10
      vertex -3.63884 6.52199 11.99
    endloop
  endfacet
  facet normal 0.998909 0.0466891 0
    outer loop
      vertex -3.63884 6.52199 10
      vertex -3.63727 6.4884 11.99
      vertex -3.63727 6.4884 10
    endloop
  endfacet
  facet normal 0.995344 -0.0963899 0
    outer loop
      vertex -3.64196 6.43997 11.99
      vertex -3.63727 6.4884 10
      vertex -3.63727 6.4884 11.99
    endloop
  endfacet
  facet normal 0.995344 -0.0963899 0
    outer loop
      vertex -3.63727 6.4884 10
      vertex -3.64196 6.43997 11.99
      vertex -3.64196 6.43997 10
    endloop
  endfacet
  facet normal 0.955116 -0.296233 0
    outer loop
      vertex -3.65601 6.39467 11.99
      vertex -3.64196 6.43997 10
      vertex -3.64196 6.43997 11.99
    endloop
  endfacet
  facet normal 0.955116 -0.296233 0
    outer loop
      vertex -3.64196 6.43997 10
      vertex -3.65601 6.39467 11.99
      vertex -3.65601 6.39467 10
    endloop
  endfacet
  facet normal 0.874099 -0.485748 0
    outer loop
      vertex -3.67945 6.35249 11.99
      vertex -3.65601 6.39467 10
      vertex -3.65601 6.39467 11.99
    endloop
  endfacet
  facet normal 0.874099 -0.485748 0
    outer loop
      vertex -3.65601 6.39467 10
      vertex -3.67945 6.35249 11.99
      vertex -3.67945 6.35249 10
    endloop
  endfacet
  facet normal 0.76574 -0.643151 0
    outer loop
      vertex -3.71224 6.31345 11.99
      vertex -3.67945 6.35249 10
      vertex -3.67945 6.35249 11.99
    endloop
  endfacet
  facet normal 0.76574 -0.643151 0
    outer loop
      vertex -3.67945 6.35249 10
      vertex -3.71224 6.31345 11.99
      vertex -3.71224 6.31345 10
    endloop
  endfacet
  facet normal 0.642898 -0.765952 0
    outer loop
      vertex -3.75133 6.28064 10
      vertex -3.71224 6.31345 11.99
      vertex -3.75133 6.28064 11.99
    endloop
  endfacet
  facet normal 0.642898 -0.765952 0
    outer loop
      vertex -3.71224 6.31345 11.99
      vertex -3.75133 6.28064 10
      vertex -3.71224 6.31345 10
    endloop
  endfacet
  facet normal 0.485168 -0.874421 0
    outer loop
      vertex -3.79354 6.25722 10
      vertex -3.75133 6.28064 11.99
      vertex -3.79354 6.25722 11.99
    endloop
  endfacet
  facet normal 0.485168 -0.874421 0
    outer loop
      vertex -3.75133 6.28064 11.99
      vertex -3.79354 6.25722 10
      vertex -3.75133 6.28064 10
    endloop
  endfacet
  facet normal 0.295981 -0.955194 0
    outer loop
      vertex -3.83885 6.24318 10
      vertex -3.79354 6.25722 11.99
      vertex -3.83885 6.24318 11.99
    endloop
  endfacet
  facet normal 0.295981 -0.955194 0
    outer loop
      vertex -3.79354 6.25722 11.99
      vertex -3.83885 6.24318 10
      vertex -3.79354 6.25722 10
    endloop
  endfacet
  facet normal 0.0963702 -0.995346 0
    outer loop
      vertex -3.88729 6.23849 10
      vertex -3.83885 6.24318 11.99
      vertex -3.88729 6.23849 11.99
    endloop
  endfacet
  facet normal 0.0963702 -0.995346 0
    outer loop
      vertex -3.83885 6.24318 11.99
      vertex -3.88729 6.23849 10
      vertex -3.83885 6.24318 10
    endloop
  endfacet
  facet normal -0.209363 -0.977838 0
    outer loop
      vertex -3.96384 6.25488 10
      vertex -3.88729 6.23849 11.99
      vertex -3.96384 6.25488 11.99
    endloop
  endfacet
  facet normal -0.209363 -0.977838 -0
    outer loop
      vertex -3.88729 6.23849 11.99
      vertex -3.96384 6.25488 10
      vertex -3.88729 6.23849 10
    endloop
  endfacet
endsolid OpenSCAD_Model
