solid OpenSCAD_Model
  facet normal 0 0 1
    outer loop
      vertex -1.94165 6.5444 10
      vertex 0 14.5 10
      vertex -1.93857 11.1013 10
    endloop
  endfacet
  facet normal 0 0 1
    outer loop
      vertex 0 14.5 10
      vertex -1.94165 6.5444 10
      vertex -1.93735 6.49614 10
    endloop
  endfacet
  facet normal 0 0 1
    outer loop
      vertex -1.93857 11.1013 10
      vertex -1.95455 6.58957 10
      vertex -1.94165 6.5444 10
    endloop
  endfacet
  facet normal -0 0 1
    outer loop
      vertex -2.05458 10.6752 10
      vertex -1.95455 6.58957 10
      vertex -1.93857 11.1013 10
    endloop
  endfacet
  facet normal 0 0 1
    outer loop
      vertex -1.95455 6.58957 10
      vertex -2.05458 10.6752 10
      vertex -1.97603 6.63162 10
    endloop
  endfacet
  facet normal -0 0 1
    outer loop
      vertex -2.24791 10.282 10
      vertex -1.97603 6.63162 10
      vertex -2.05458 10.6752 10
    endloop
  endfacet
  facet normal 0 0 1
    outer loop
      vertex -1.97603 6.63162 10
      vertex -2.24791 10.282 10
      vertex -2.00611 6.67056 10
    endloop
  endfacet
  facet normal 0 0 1
    outer loop
      vertex -2.00611 6.67056 10
      vertex -2.24791 10.282 10
      vertex -2.04244 6.70328 10
    endloop
  endfacet
  facet normal -0 0 1
    outer loop
      vertex -2.51857 9.92163 10
      vertex -2.04244 6.70328 10
      vertex -2.24791 10.282 10
    endloop
  endfacet
  facet normal 0 0 1
    outer loop
      vertex -2.04244 6.70328 10
      vertex -2.51857 9.92163 10
      vertex -2.08267 6.72665 10
    endloop
  endfacet
  facet normal -0 0 1
    outer loop
      vertex -2.84239 9.62065 10
      vertex -2.08267 6.72665 10
      vertex -2.51857 9.92163 10
    endloop
  endfacet
  facet normal 0 0 1
    outer loop
      vertex -2.08267 6.72665 10
      vertex -2.84239 9.62065 10
      vertex -2.12682 6.74068 10
    endloop
  endfacet
  facet normal 0 0 1
    outer loop
      vertex -2.12682 6.74068 10
      vertex -2.84239 9.62065 10
      vertex -2.17487 6.74535 10
    endloop
  endfacet
  facet normal -0 0 1
    outer loop
      vertex -3.19513 9.40565 10
      vertex -2.17487 6.74535 10
      vertex -2.84239 9.62065 10
    endloop
  endfacet
  facet normal 0 0 1
    outer loop
      vertex -2.17487 6.74535 10
      vertex -3.19513 9.40565 10
      vertex -2.19948 6.73996 10
    endloop
  endfacet
  facet normal 0 0 1
    outer loop
      vertex -2.19948 6.73996 10
      vertex -3.19513 9.40565 10
      vertex -2.24831 6.72375 10
    endloop
  endfacet
  facet normal 0 0 1
    outer loop
      vertex -2.24831 6.72375 10
      vertex -3.19513 9.40565 10
      vertex -2.32134 6.69675 10
    endloop
  endfacet
  facet normal 0 0 1
    outer loop
      vertex -2.32134 6.69675 10
      vertex -3.19513 9.40565 10
      vertex -2.41858 6.65895 10
    endloop
  endfacet
  facet normal 0 -0 1
    outer loop
      vertex -2.66698 6.59415 10
      vertex -2.41858 6.65895 10
      vertex -3.19513 9.40565 10
    endloop
  endfacet
  facet normal 0 0 1
    outer loop
      vertex -2.41858 6.65895 10
      vertex -2.66698 6.59415 10
      vertex -2.53536 6.62115 10
    endloop
  endfacet
  facet normal 0 0 1
    outer loop
      vertex -2.66698 6.59415 10
      vertex -3.19513 9.40565 10
      vertex -2.81346 6.57796 10
    endloop
  endfacet
  facet normal 0 0 1
    outer loop
      vertex -2.81346 6.57796 10
      vertex -3.19513 9.40565 10
      vertex -2.97478 6.57256 10
    endloop
  endfacet
  facet normal -0 0 1
    outer loop
      vertex -3.57675 9.27667 10
      vertex -2.97478 6.57256 10
      vertex -3.19513 9.40565 10
    endloop
  endfacet
  facet normal 0 0 1
    outer loop
      vertex -2.97478 6.57256 10
      vertex -3.57675 9.27667 10
      vertex -3.22632 6.58701 10
    endloop
  endfacet
  facet normal 0 0 1
    outer loop
      vertex -3.22632 6.58701 10
      vertex -3.57675 9.27667 10
      vertex -3.48099 6.63036 10
    endloop
  endfacet
  facet normal 0 0 1
    outer loop
      vertex -3.57675 9.27667 10
      vertex -3.73879 6.70261 10
      vertex -3.48099 6.63036 10
    endloop
  endfacet
  facet normal 0 0 1
    outer loop
      vertex -4.25907 6.93147 10
      vertex -3.57675 9.27667 10
      vertex -3.98728 9.23367 10
    endloop
  endfacet
  facet normal 0 0 1
    outer loop
      vertex -3.57675 9.27667 10
      vertex -3.9997 6.80376 10
      vertex -3.73879 6.70261 10
    endloop
  endfacet
  facet normal 0 0 1
    outer loop
      vertex -3.57675 9.27667 10
      vertex -4.25907 6.93147 10
      vertex -3.9997 6.80376 10
    endloop
  endfacet
  facet normal 0 0 1
    outer loop
      vertex -3.98728 9.23367 10
      vertex -4.51216 7.08339 10
      vertex -4.25907 6.93147 10
    endloop
  endfacet
  facet normal 0 0 1
    outer loop
      vertex -5.22657 7.69106 10
      vertex -3.98728 9.23367 10
      vertex -4.6091 9.32904 10
    endloop
  endfacet
  facet normal 0 0 1
    outer loop
      vertex -3.98728 9.23367 10
      vertex -4.75901 7.25952 10
      vertex -4.51216 7.08339 10
    endloop
  endfacet
  facet normal 0 0 1
    outer loop
      vertex -3.98728 9.23367 10
      vertex -4.99961 7.45987 10
      vertex -4.75901 7.25952 10
    endloop
  endfacet
  facet normal 0 0 1
    outer loop
      vertex -5.7808 8.60953 10
      vertex -4.6091 9.32904 10
      vertex -5.16216 9.61514 10
    endloop
  endfacet
  facet normal 0 0 1
    outer loop
      vertex -3.98728 9.23367 10
      vertex -5.22657 7.69106 10
      vertex -4.99961 7.45987 10
    endloop
  endfacet
  facet normal 0 0 1
    outer loop
      vertex -4.6091 9.32904 10
      vertex -5.43241 7.95972 10
      vertex -5.22657 7.69106 10
    endloop
  endfacet
  facet normal 0 0 1
    outer loop
      vertex -4.6091 9.32904 10
      vertex -5.61716 8.26588 10
      vertex -5.43241 7.95972 10
    endloop
  endfacet
  facet normal 0 0 1
    outer loop
      vertex -6.0105 9.375 10
      vertex -5.16216 9.61514 10
      vertex -5.64649 10.092 10
    endloop
  endfacet
  facet normal 0 0 1
    outer loop
      vertex -4.6091 9.32904 10
      vertex -5.7808 8.60953 10
      vertex -5.61716 8.26588 10
    endloop
  endfacet
  facet normal 0 0 1
    outer loop
      vertex -5.16216 9.61514 10
      vertex -5.9148 8.9821 10
      vertex -5.7808 8.60953 10
    endloop
  endfacet
  facet normal 0 0 1
    outer loop
      vertex -5.16216 9.61514 10
      vertex -6.0105 9.375 10
      vertex -5.9148 8.9821 10
    endloop
  endfacet
  facet normal -0 0 1
    outer loop
      vertex -6.073 10.5477 10
      vertex -5.64649 10.092 10
      vertex -6.06205 10.7595 10
    endloop
  endfacet
  facet normal -0 0 1
    outer loop
      vertex -6.08081 10.3874 10
      vertex -5.64649 10.092 10
      vertex -6.073 10.5477 10
    endloop
  endfacet
  facet normal -0 0 1
    outer loop
      vertex -6.08551 10.2788 10
      vertex -5.64649 10.092 10
      vertex -6.08081 10.3874 10
    endloop
  endfacet
  facet normal 0 0 1
    outer loop
      vertex -5.64649 10.092 10
      vertex -6.06793 9.78819 10
      vertex -6.0105 9.375 10
    endloop
  endfacet
  facet normal -0 0 1
    outer loop
      vertex -6.08707 10.2217 10
      vertex -5.64649 10.092 10
      vertex -6.08551 10.2788 10
    endloop
  endfacet
  facet normal 0 0 1
    outer loop
      vertex -5.64649 10.092 10
      vertex -6.08707 10.2217 10
      vertex -6.06793 9.78819 10
    endloop
  endfacet
  facet normal 0 0 1
    outer loop
      vertex -1.93857 11.1013 10
      vertex 0 14.5 10
      vertex -1.89991 11.5602 10
    endloop
  endfacet
  facet normal 0 0 1
    outer loop
      vertex 0 14.5 10
      vertex -1.93897 12.0472 10
      vertex -1.89991 11.5602 10
    endloop
  endfacet
  facet normal 0 0 1
    outer loop
      vertex 0 14.5 10
      vertex -2.05616 12.4951 10
      vertex -1.93897 12.0472 10
    endloop
  endfacet
  facet normal 0 0 1
    outer loop
      vertex 0 14.5 10
      vertex -2.25145 12.9039 10
      vertex -2.05616 12.4951 10
    endloop
  endfacet
  facet normal 0 0 1
    outer loop
      vertex 0 14.5 10
      vertex -2.52487 13.2737 10
      vertex -2.25145 12.9039 10
    endloop
  endfacet
  facet normal 0 0 1
    outer loop
      vertex 0 14.5 10
      vertex -2.85532 13.5801 10
      vertex -2.52487 13.2737 10
    endloop
  endfacet
  facet normal 0 0 1
    outer loop
      vertex 0 14.5 10
      vertex -3.2217 13.799 10
      vertex -2.85532 13.5801 10
    endloop
  endfacet
  facet normal 0 0 1
    outer loop
      vertex 0 14.5 10
      vertex -3.62401 13.9304 10
      vertex -3.2217 13.799 10
    endloop
  endfacet
  facet normal 0 0 1
    outer loop
      vertex 0 14.5 10
      vertex -4.06226 13.9742 10
      vertex -3.62401 13.9304 10
    endloop
  endfacet
  facet normal -0 0 1
    outer loop
      vertex -8 14.5 10
      vertex -4.06226 13.9742 10
      vertex 0 14.5 10
    endloop
  endfacet
  facet normal 0 0 1
    outer loop
      vertex -6.53086 11.041 10
      vertex -8 14.5 10
      vertex -6.5746 10.2592 10
    endloop
  endfacet
  facet normal 0 0 1
    outer loop
      vertex -6.3996 11.7477 10
      vertex -8 14.5 10
      vertex -6.53086 11.041 10
    endloop
  endfacet
  facet normal 0 0 1
    outer loop
      vertex -6.18083 12.3793 10
      vertex -8 14.5 10
      vertex -6.3996 11.7477 10
    endloop
  endfacet
  facet normal 0 0 1
    outer loop
      vertex -5.87458 12.9359 10
      vertex -8 14.5 10
      vertex -6.18083 12.3793 10
    endloop
  endfacet
  facet normal 0 0 1
    outer loop
      vertex -5.49884 13.3901 10
      vertex -8 14.5 10
      vertex -5.87458 12.9359 10
    endloop
  endfacet
  facet normal 0 0 1
    outer loop
      vertex -5.07154 13.7146 10
      vertex -8 14.5 10
      vertex -5.49884 13.3901 10
    endloop
  endfacet
  facet normal 0 0 1
    outer loop
      vertex -4.59267 13.9093 10
      vertex -8 14.5 10
      vertex -5.07154 13.7146 10
    endloop
  endfacet
  facet normal 0 0 1
    outer loop
      vertex -4.06226 13.9742 10
      vertex -8 14.5 10
      vertex -4.59267 13.9093 10
    endloop
  endfacet
  facet normal 0 0 1
    outer loop
      vertex 0 14.5 10
      vertex -1.93735 6.49614 10
      vertex 0 2.5 10
    endloop
  endfacet
  facet normal -0 0 1
    outer loop
      vertex -1.95571 6.41162 10
      vertex 0 2.5 10
      vertex -1.93735 6.49614 10
    endloop
  endfacet
  facet normal -0 0 1
    outer loop
      vertex -2.01079 6.33255 10
      vertex 0 2.5 10
      vertex -1.95571 6.41162 10
    endloop
  endfacet
  facet normal -0 0 1
    outer loop
      vertex -2.10259 6.25893 10
      vertex 0 2.5 10
      vertex -2.01079 6.33255 10
    endloop
  endfacet
  facet normal -0 0 1
    outer loop
      vertex -2.23111 6.19078 10
      vertex 0 2.5 10
      vertex -2.10259 6.25893 10
    endloop
  endfacet
  facet normal -0 0 1
    outer loop
      vertex -2.38463 6.13353 10
      vertex 0 2.5 10
      vertex -2.23111 6.19078 10
    endloop
  endfacet
  facet normal -0 0 1
    outer loop
      vertex -2.55142 6.09264 10
      vertex 0 2.5 10
      vertex -2.38463 6.13353 10
    endloop
  endfacet
  facet normal -0 0 1
    outer loop
      vertex -2.73149 6.0681 10
      vertex 0 2.5 10
      vertex -2.55142 6.09264 10
    endloop
  endfacet
  facet normal -0 0 1
    outer loop
      vertex -2.92484 6.05992 10
      vertex 0 2.5 10
      vertex -2.73149 6.0681 10
    endloop
  endfacet
  facet normal 0 0 1
    outer loop
      vertex -3.24826 6.07594 10
      vertex 0 2.5 10
      vertex -2.92484 6.05992 10
    endloop
  endfacet
  facet normal 0 0 1
    outer loop
      vertex -3.56856 6.12398 10
      vertex 0 2.5 10
      vertex -3.24826 6.07594 10
    endloop
  endfacet
  facet normal 0 0 1
    outer loop
      vertex -8 2.5 10
      vertex -3.56856 6.12398 10
      vertex -3.88573 6.20406 10
    endloop
  endfacet
  facet normal 0 0 1
    outer loop
      vertex -8 2.5 10
      vertex -3.88573 6.20406 10
      vertex -4.19977 6.31615 10
    endloop
  endfacet
  facet normal 0 0 1
    outer loop
      vertex -8 2.5 10
      vertex -4.19977 6.31615 10
      vertex -4.50717 6.45871 10
    endloop
  endfacet
  facet normal 0 0 1
    outer loop
      vertex -8 2.5 10
      vertex -4.50717 6.45871 10
      vertex -4.80442 6.63016 10
    endloop
  endfacet
  facet normal 0 0 1
    outer loop
      vertex -8 2.5 10
      vertex -4.80442 6.63016 10
      vertex -5.09149 6.83049 10
    endloop
  endfacet
  facet normal 0 0 1
    outer loop
      vertex -8 2.5 10
      vertex -5.09149 6.83049 10
      vertex -5.36843 7.05972 10
    endloop
  endfacet
  facet normal 0 0 1
    outer loop
      vertex -8 14.5 10
      vertex -6.5539 9.74797 10
      vertex -6.5746 10.2592 10
    endloop
  endfacet
  facet normal 0 0 1
    outer loop
      vertex -8 2.5 10
      vertex -6.5539 9.74797 10
      vertex -8 14.5 10
    endloop
  endfacet
  facet normal 0 0 1
    outer loop
      vertex -6.5539 9.74797 10
      vertex -8 2.5 10
      vertex -6.49178 9.26405 10
    endloop
  endfacet
  facet normal 0 0 1
    outer loop
      vertex -3.56856 6.12398 10
      vertex -8 2.5 10
      vertex 0 2.5 10
    endloop
  endfacet
  facet normal 0 0 1
    outer loop
      vertex -5.62699 7.32492 10
      vertex -8 2.5 10
      vertex -5.36843 7.05972 10
    endloop
  endfacet
  facet normal 0 0 1
    outer loop
      vertex -5.859 7.63307 10
      vertex -8 2.5 10
      vertex -5.62699 7.32492 10
    endloop
  endfacet
  facet normal 0 0 1
    outer loop
      vertex -6.06443 7.98416 10
      vertex -8 2.5 10
      vertex -5.859 7.63307 10
    endloop
  endfacet
  facet normal 0 0 1
    outer loop
      vertex -6.24332 8.37822 10
      vertex -8 2.5 10
      vertex -6.06443 7.98416 10
    endloop
  endfacet
  facet normal 0 0 1
    outer loop
      vertex -6.38825 8.80746 10
      vertex -8 2.5 10
      vertex -6.24332 8.37822 10
    endloop
  endfacet
  facet normal 0 0 1
    outer loop
      vertex -6.49178 9.26405 10
      vertex -8 2.5 10
      vertex -6.38825 8.80746 10
    endloop
  endfacet
  facet normal 0 0 1
    outer loop
      vertex -5.39182 10.514 10
      vertex -2.41237 11.5602 10
      vertex -2.44167 11.9448 10
    endloop
  endfacet
  facet normal 0 0 1
    outer loop
      vertex -5.48088 12.6699 10
      vertex -2.44167 11.9448 10
      vertex -2.52956 12.2982 10
    endloop
  endfacet
  facet normal 0 -0 1
    outer loop
      vertex -5.33519 10.448 10
      vertex -2.41237 11.5602 10
      vertex -5.39182 10.514 10
    endloop
  endfacet
  facet normal 0 0 1
    outer loop
      vertex -5.48088 12.6699 10
      vertex -2.52956 12.2982 10
      vertex -2.67603 12.6203 10
    endloop
  endfacet
  facet normal 0 0 1
    outer loop
      vertex -2.41237 11.5602 10
      vertex -5.33519 10.448 10
      vertex -2.44167 11.2036 10
    endloop
  endfacet
  facet normal -0 0 1
    outer loop
      vertex -5.48088 12.6699 10
      vertex -2.67603 12.6203 10
      vertex -2.88109 12.9111 10
    endloop
  endfacet
  facet normal 0 -0 1
    outer loop
      vertex -5.27465 10.378 10
      vertex -2.44167 11.2036 10
      vertex -5.33519 10.448 10
    endloop
  endfacet
  facet normal 0 -0 1
    outer loop
      vertex -4.94222 10.0845 10
      vertex -2.52956 10.8721 10
      vertex -5.27465 10.378 10
    endloop
  endfacet
  facet normal 0 0 1
    outer loop
      vertex -4.04975 13.4615 10
      vertex -2.88109 12.9111 10
      vertex -3.1299 13.1519 10
    endloop
  endfacet
  facet normal 0 0 1
    outer loop
      vertex -2.52956 10.8721 10
      vertex -4.94222 10.0845 10
      vertex -2.67603 10.5656 10
    endloop
  endfacet
  facet normal 0 0 1
    outer loop
      vertex -4.04975 13.4615 10
      vertex -3.1299 13.1519 10
      vertex -3.40761 13.3239 10
    endloop
  endfacet
  facet normal 0 0 1
    outer loop
      vertex -2.67603 10.5656 10
      vertex -4.86998 10.0356 10
      vertex -2.88109 10.2841 10
    endloop
  endfacet
  facet normal 0 0 1
    outer loop
      vertex -4.04975 13.4615 10
      vertex -3.40761 13.3239 10
      vertex -3.71422 13.4271 10
    endloop
  endfacet
  facet normal 0 0 1
    outer loop
      vertex -2.88109 10.2841 10
      vertex -4.79538 9.9875 10
      vertex -3.12677 10.0488 10
    endloop
  endfacet
  facet normal 0 0 1
    outer loop
      vertex -2.88109 12.9111 10
      vertex -4.04975 13.4615 10
      vertex -5.48088 12.6699 10
    endloop
  endfacet
  facet normal 0 0 1
    outer loop
      vertex -3.3951 9.88077 10
      vertex -4.79538 9.9875 10
      vertex -3.68608 9.77992 10
    endloop
  endfacet
  facet normal 0 0 1
    outer loop
      vertex -3.68608 9.77992 10
      vertex -4.79538 9.9875 10
      vertex -3.9997 9.74631 10
    endloop
  endfacet
  facet normal 0 0 1
    outer loop
      vertex -3.9997 9.74631 10
      vertex -4.79538 9.9875 10
      vertex -4.09348 9.74944 10
    endloop
  endfacet
  facet normal 0 0 1
    outer loop
      vertex -4.18724 9.75882 10
      vertex -4.79538 9.9875 10
      vertex -4.28099 9.77446 10
    endloop
  endfacet
  facet normal 0 0 1
    outer loop
      vertex -5.48088 12.6699 10
      vertex -4.04975 13.4615 10
      vertex -4.40676 13.4299 10
    endloop
  endfacet
  facet normal 0 0 1
    outer loop
      vertex -4.28099 9.77446 10
      vertex -4.79538 9.9875 10
      vertex -4.37473 9.79636 10
    endloop
  endfacet
  facet normal -0 -0 1
    outer loop
      vertex -4.71845 9.94017 10
      vertex -4.37473 9.79636 10
      vertex -4.79538 9.9875 10
    endloop
  endfacet
  facet normal 0 0 1
    outer loop
      vertex -4.37473 9.79636 10
      vertex -4.71845 9.94017 10
      vertex -4.46651 9.82411 10
    endloop
  endfacet
  facet normal 0 0 1
    outer loop
      vertex -4.5544 9.85733 10
      vertex -4.71845 9.94017 10
      vertex -4.63837 9.89601 10
    endloop
  endfacet
  facet normal 0 0 1
    outer loop
      vertex -5.26213 12.9549 10
      vertex -4.40676 13.4299 10
      vertex -4.72783 13.3349 10
    endloop
  endfacet
  facet normal 0 0 1
    outer loop
      vertex -4.46651 9.82411 10
      vertex -4.71845 9.94017 10
      vertex -4.5544 9.85733 10
    endloop
  endfacet
  facet normal 0 0 1
    outer loop
      vertex -4.09348 9.74944 10
      vertex -4.79538 9.9875 10
      vertex -4.18724 9.75882 10
    endloop
  endfacet
  facet normal 0 0 1
    outer loop
      vertex -3.12677 10.0488 10
      vertex -4.79538 9.9875 10
      vertex -3.3951 9.88077 10
    endloop
  endfacet
  facet normal 0 -0 1
    outer loop
      vertex -4.79538 9.9875 10
      vertex -2.88109 10.2841 10
      vertex -4.86998 10.0356 10
    endloop
  endfacet
  facet normal 0 0 1
    outer loop
      vertex -5.26213 12.9549 10
      vertex -4.72783 13.3349 10
      vertex -5.01296 13.1765 10
    endloop
  endfacet
  facet normal 0 0 1
    outer loop
      vertex -4.94222 10.0845 10
      vertex -5.27465 10.378 10
      vertex -5.01212 10.1341 10
    endloop
  endfacet
  facet normal 0 0 1
    outer loop
      vertex -5.01212 10.1341 10
      vertex -5.1465 10.2451 10
      vertex -5.0801 10.1869 10
    endloop
  endfacet
  facet normal 0 0 1
    outer loop
      vertex -5.01212 10.1341 10
      vertex -5.21135 10.3089 10
      vertex -5.1465 10.2451 10
    endloop
  endfacet
  facet normal 0 0 1
    outer loop
      vertex -4.40676 13.4299 10
      vertex -5.26213 12.9549 10
      vertex -5.48088 12.6699 10
    endloop
  endfacet
  facet normal 0 0 1
    outer loop
      vertex -5.01212 10.1341 10
      vertex -5.27465 10.378 10
      vertex -5.21135 10.3089 10
    endloop
  endfacet
  facet normal 0 -0 1
    outer loop
      vertex -4.86998 10.0356 10
      vertex -2.67603 10.5656 10
      vertex -4.94222 10.0845 10
    endloop
  endfacet
  facet normal 0 0 1
    outer loop
      vertex -2.44167 11.9448 10
      vertex -5.48088 12.6699 10
      vertex -5.67462 12.3216 10
    endloop
  endfacet
  facet normal 0 0 1
    outer loop
      vertex -2.44167 11.2036 10
      vertex -5.27465 10.378 10
      vertex -2.52956 10.8721 10
    endloop
  endfacet
  facet normal 0 0 1
    outer loop
      vertex -2.44167 11.9448 10
      vertex -5.67462 12.3216 10
      vertex -5.39182 10.514 10
    endloop
  endfacet
  facet normal 0 0 1
    outer loop
      vertex -5.39182 10.514 10
      vertex -5.67462 12.3216 10
      vertex -5.44454 10.5762 10
    endloop
  endfacet
  facet normal 0 0 1
    outer loop
      vertex -5.44454 10.5762 10
      vertex -5.67462 12.3216 10
      vertex -5.49333 10.6344 10
    endloop
  endfacet
  facet normal 0 0 1
    outer loop
      vertex -5.49333 10.6344 10
      vertex -5.67462 12.3216 10
      vertex -5.54023 10.6931 10
    endloop
  endfacet
  facet normal 0 0 1
    outer loop
      vertex -5.54023 10.6931 10
      vertex -5.67462 12.3216 10
      vertex -5.5871 10.7564 10
    endloop
  endfacet
  facet normal 0 0 1
    outer loop
      vertex -5.5871 10.7564 10
      vertex -5.67462 12.3216 10
      vertex -5.63396 10.8244 10
    endloop
  endfacet
  facet normal 0 0 1
    outer loop
      vertex -5.67462 12.3216 10
      vertex -5.68082 10.8971 10
      vertex -5.63396 10.8244 10
    endloop
  endfacet
  facet normal -0 0 1
    outer loop
      vertex -5.84336 11.91 10
      vertex -5.68082 10.8971 10
      vertex -5.67462 12.3216 10
    endloop
  endfacet
  facet normal 0 0 1
    outer loop
      vertex -5.68082 10.8971 10
      vertex -5.84336 11.91 10
      vertex -5.72458 10.9679 10
    endloop
  endfacet
  facet normal 0 0 1
    outer loop
      vertex -5.72458 10.9679 10
      vertex -5.84336 11.91 10
      vertex -5.76209 11.03 10
    endloop
  endfacet
  facet normal 0 0 1
    outer loop
      vertex -5.76209 11.03 10
      vertex -5.84336 11.91 10
      vertex -5.79334 11.0836 10
    endloop
  endfacet
  facet normal 0 0 1
    outer loop
      vertex -5.79334 11.0836 10
      vertex -5.84336 11.91 10
      vertex -5.81833 11.1285 10
    endloop
  endfacet
  facet normal 0 0 1
    outer loop
      vertex -5.81833 11.1285 10
      vertex -5.84336 11.91 10
      vertex -5.84137 11.1712 10
    endloop
  endfacet
  facet normal 0 0 1
    outer loop
      vertex -5.84336 11.91 10
      vertex -5.86678 11.2177 10
      vertex -5.84137 11.1712 10
    endloop
  endfacet
  facet normal 0 0 1
    outer loop
      vertex -5.84336 11.91 10
      vertex -5.89452 11.2681 10
      vertex -5.86678 11.2177 10
    endloop
  endfacet
  facet normal 0 -0 1
    outer loop
      vertex -5.89452 11.2681 10
      vertex -5.84336 11.91 10
      vertex -5.98708 11.4351 10
    endloop
  endfacet
  facet normal -1 0 0
    outer loop
      vertex -8 0 3
      vertex -8 17 3
      vertex -8 17 0
    endloop
  endfacet
  facet normal -1 0 0
    outer loop
      vertex -8 17 3
      vertex -8 0 3
      vertex -8 14.5 10
    endloop
  endfacet
  facet normal -1 0 0
    outer loop
      vertex -8 0 3
      vertex -8 17 0
      vertex -8 0 0
    endloop
  endfacet
  facet normal -1 -0 0
    outer loop
      vertex -8 14.5 10
      vertex -8 0 3
      vertex -8 2.5 10
    endloop
  endfacet
  facet normal 0 1 -0
    outer loop
      vertex 0 17 0
      vertex -8 17 3
      vertex 0 17 3
    endloop
  endfacet
  facet normal 0 1 0
    outer loop
      vertex -8 17 3
      vertex 0 17 0
      vertex -8 17 0
    endloop
  endfacet
  facet normal 0 0 -1
    outer loop
      vertex -8 0 0
      vertex 0 17 0
      vertex 0 0 0
    endloop
  endfacet
  facet normal -0 0 -1
    outer loop
      vertex 0 17 0
      vertex -8 0 0
      vertex -8 17 0
    endloop
  endfacet
  facet normal 1 0 0
    outer loop
      vertex 0 0 3
      vertex 0 17 3
      vertex 0 14.5 10
    endloop
  endfacet
  facet normal 1 0 0
    outer loop
      vertex 0 0 3
      vertex 0 14.5 10
      vertex 0 2.5 10
    endloop
  endfacet
  facet normal 1 0 0
    outer loop
      vertex 0 17 3
      vertex 0 0 3
      vertex 0 17 0
    endloop
  endfacet
  facet normal 1 0 0
    outer loop
      vertex 0 17 0
      vertex 0 0 3
      vertex 0 0 0
    endloop
  endfacet
  facet normal 0 -0.941742 0.336336
    outer loop
      vertex -8 0 3
      vertex 0 2.5 10
      vertex -8 2.5 10
    endloop
  endfacet
  facet normal 0 -0.941742 0.336336
    outer loop
      vertex 0 2.5 10
      vertex -8 0 3
      vertex 0 0 3
    endloop
  endfacet
  facet normal 0 -1 0
    outer loop
      vertex -8 0 0
      vertex 0 0 3
      vertex -8 0 3
    endloop
  endfacet
  facet normal 0 -1 -0
    outer loop
      vertex 0 0 3
      vertex -8 0 0
      vertex 0 0 0
    endloop
  endfacet
  facet normal 0 0.941742 0.336336
    outer loop
      vertex 0 17 3
      vertex -8 14.5 10
      vertex 0 14.5 10
    endloop
  endfacet
  facet normal 0 0.941742 0.336336
    outer loop
      vertex -8 14.5 10
      vertex 0 17 3
      vertex -8 17 3
    endloop
  endfacet
  facet normal 0 0 1
    outer loop
      vertex -1.89991 11.5602 11.99
      vertex -2.44167 11.9448 11.99
      vertex -2.41237 11.5602 11.99
    endloop
  endfacet
  facet normal -0 0 1
    outer loop
      vertex -2.88109 12.9111 11.99
      vertex -2.25145 12.9039 11.99
      vertex -2.52487 13.2737 11.99
    endloop
  endfacet
  facet normal 0 0 1
    outer loop
      vertex -2.05616 12.4951 11.99
      vertex -2.52956 12.2982 11.99
      vertex -2.44167 11.9448 11.99
    endloop
  endfacet
  facet normal 0 0 1
    outer loop
      vertex -2.05616 12.4951 11.99
      vertex -2.67603 12.6203 11.99
      vertex -2.52956 12.2982 11.99
    endloop
  endfacet
  facet normal 0 0 1
    outer loop
      vertex -3.1299 13.1519 11.99
      vertex -2.52487 13.2737 11.99
      vertex -2.85532 13.5801 11.99
    endloop
  endfacet
  facet normal 0 0 1
    outer loop
      vertex -2.25145 12.9039 11.99
      vertex -2.88109 12.9111 11.99
      vertex -2.67603 12.6203 11.99
    endloop
  endfacet
  facet normal 0 0 1
    outer loop
      vertex -2.52487 13.2737 11.99
      vertex -3.1299 13.1519 11.99
      vertex -2.88109 12.9111 11.99
    endloop
  endfacet
  facet normal 0 0 1
    outer loop
      vertex -3.40761 13.3239 11.99
      vertex -2.85532 13.5801 11.99
      vertex -3.2217 13.799 11.99
    endloop
  endfacet
  facet normal 0 0 1
    outer loop
      vertex -2.85532 13.5801 11.99
      vertex -3.40761 13.3239 11.99
      vertex -3.1299 13.1519 11.99
    endloop
  endfacet
  facet normal 0 0 1
    outer loop
      vertex -3.71422 13.4271 11.99
      vertex -3.2217 13.799 11.99
      vertex -3.62401 13.9304 11.99
    endloop
  endfacet
  facet normal 0 0 1
    outer loop
      vertex -3.2217 13.799 11.99
      vertex -3.71422 13.4271 11.99
      vertex -3.40761 13.3239 11.99
    endloop
  endfacet
  facet normal 0 0 1
    outer loop
      vertex -3.62401 13.9304 11.99
      vertex -4.04975 13.4615 11.99
      vertex -3.71422 13.4271 11.99
    endloop
  endfacet
  facet normal 0 0 1
    outer loop
      vertex -4.06226 13.9742 11.99
      vertex -4.04975 13.4615 11.99
      vertex -3.62401 13.9304 11.99
    endloop
  endfacet
  facet normal 0 0 1
    outer loop
      vertex -4.06226 13.9742 11.99
      vertex -4.40676 13.4299 11.99
      vertex -4.04975 13.4615 11.99
    endloop
  endfacet
  facet normal -0 0 1
    outer loop
      vertex -4.59267 13.9093 11.99
      vertex -4.40676 13.4299 11.99
      vertex -4.06226 13.9742 11.99
    endloop
  endfacet
  facet normal 0 0 1
    outer loop
      vertex -4.59267 13.9093 11.99
      vertex -4.72783 13.3349 11.99
      vertex -4.40676 13.4299 11.99
    endloop
  endfacet
  facet normal -0 0 1
    outer loop
      vertex -5.07154 13.7146 11.99
      vertex -4.72783 13.3349 11.99
      vertex -4.59267 13.9093 11.99
    endloop
  endfacet
  facet normal 0 0 1
    outer loop
      vertex -4.72783 13.3349 11.99
      vertex -5.07154 13.7146 11.99
      vertex -5.01296 13.1765 11.99
    endloop
  endfacet
  facet normal -0 0 1
    outer loop
      vertex -5.49884 13.3901 11.99
      vertex -5.01296 13.1765 11.99
      vertex -5.07154 13.7146 11.99
    endloop
  endfacet
  facet normal 0 0 1
    outer loop
      vertex -5.01296 13.1765 11.99
      vertex -5.49884 13.3901 11.99
      vertex -5.26213 12.9549 11.99
    endloop
  endfacet
  facet normal 0 0 1
    outer loop
      vertex -5.87458 12.9359 11.99
      vertex -5.26213 12.9549 11.99
      vertex -5.49884 13.3901 11.99
    endloop
  endfacet
  facet normal 0 0 1
    outer loop
      vertex -5.26213 12.9549 11.99
      vertex -5.87458 12.9359 11.99
      vertex -5.48088 12.6699 11.99
    endloop
  endfacet
  facet normal 0 0 1
    outer loop
      vertex -5.48088 12.6699 11.99
      vertex -5.87458 12.9359 11.99
      vertex -5.67462 12.3216 11.99
    endloop
  endfacet
  facet normal -0 0 1
    outer loop
      vertex -6.18083 12.3793 11.99
      vertex -5.67462 12.3216 11.99
      vertex -5.87458 12.9359 11.99
    endloop
  endfacet
  facet normal 0 0 1
    outer loop
      vertex -5.67462 12.3216 11.99
      vertex -6.18083 12.3793 11.99
      vertex -5.84336 11.91 11.99
    endloop
  endfacet
  facet normal 0 0 1
    outer loop
      vertex -6.3996 11.7477 11.99
      vertex -5.84336 11.91 11.99
      vertex -6.18083 12.3793 11.99
    endloop
  endfacet
  facet normal 0 0 1
    outer loop
      vertex -6.5746 10.2592 11.99
      vertex -6.073 10.5477 11.99
      vertex -6.53086 11.041 11.99
    endloop
  endfacet
  facet normal 0 0 1
    outer loop
      vertex -6.06205 10.7595 11.99
      vertex -6.53086 11.041 11.99
      vertex -6.073 10.5477 11.99
    endloop
  endfacet
  facet normal 0 0 1
    outer loop
      vertex -5.98708 11.4351 11.99
      vertex -6.53086 11.041 11.99
      vertex -6.06205 10.7595 11.99
    endloop
  endfacet
  facet normal 0 0 1
    outer loop
      vertex -6.53086 11.041 11.99
      vertex -5.98708 11.4351 11.99
      vertex -6.3996 11.7477 11.99
    endloop
  endfacet
  facet normal 0 0 1
    outer loop
      vertex -5.84336 11.91 11.99
      vertex -6.3996 11.7477 11.99
      vertex -5.98708 11.4351 11.99
    endloop
  endfacet
  facet normal -0 0 1
    outer loop
      vertex -2.44167 11.9448 11.99
      vertex -1.89991 11.5602 11.99
      vertex -1.93897 12.0472 11.99
    endloop
  endfacet
  facet normal 0 0 1
    outer loop
      vertex -2.44167 11.2036 11.99
      vertex -1.89991 11.5602 11.99
      vertex -2.41237 11.5602 11.99
    endloop
  endfacet
  facet normal 0 0 1
    outer loop
      vertex -2.44167 11.9448 11.99
      vertex -1.93897 12.0472 11.99
      vertex -2.05616 12.4951 11.99
    endloop
  endfacet
  facet normal 0 0 1
    outer loop
      vertex -1.89991 11.5602 11.99
      vertex -2.44167 11.2036 11.99
      vertex -1.93857 11.1013 11.99
    endloop
  endfacet
  facet normal -0 0 1
    outer loop
      vertex -2.67603 12.6203 11.99
      vertex -2.05616 12.4951 11.99
      vertex -2.25145 12.9039 11.99
    endloop
  endfacet
  facet normal 0 0 1
    outer loop
      vertex -2.52956 10.8721 11.99
      vertex -1.93857 11.1013 11.99
      vertex -2.44167 11.2036 11.99
    endloop
  endfacet
  facet normal 0 0 1
    outer loop
      vertex -1.93857 11.1013 11.99
      vertex -2.52956 10.8721 11.99
      vertex -2.05458 10.6752 11.99
    endloop
  endfacet
  facet normal 0 0 1
    outer loop
      vertex -2.67603 10.5656 11.99
      vertex -2.05458 10.6752 11.99
      vertex -2.52956 10.8721 11.99
    endloop
  endfacet
  facet normal 0 0 1
    outer loop
      vertex -2.05458 10.6752 11.99
      vertex -2.67603 10.5656 11.99
      vertex -2.24791 10.282 11.99
    endloop
  endfacet
  facet normal -0 0 1
    outer loop
      vertex -2.88109 10.2841 11.99
      vertex -2.24791 10.282 11.99
      vertex -2.67603 10.5656 11.99
    endloop
  endfacet
  facet normal 0 0 1
    outer loop
      vertex -2.24791 10.282 11.99
      vertex -2.88109 10.2841 11.99
      vertex -2.51857 9.92163 11.99
    endloop
  endfacet
  facet normal -0 0 1
    outer loop
      vertex -3.12677 10.0488 11.99
      vertex -2.51857 9.92163 11.99
      vertex -2.88109 10.2841 11.99
    endloop
  endfacet
  facet normal 0 0 1
    outer loop
      vertex -2.51857 9.92163 11.99
      vertex -3.12677 10.0488 11.99
      vertex -2.84239 9.62065 11.99
    endloop
  endfacet
  facet normal -0 0 1
    outer loop
      vertex -3.3951 9.88077 11.99
      vertex -2.84239 9.62065 11.99
      vertex -3.12677 10.0488 11.99
    endloop
  endfacet
  facet normal 0 0 1
    outer loop
      vertex -2.84239 9.62065 11.99
      vertex -3.3951 9.88077 11.99
      vertex -3.19513 9.40565 11.99
    endloop
  endfacet
  facet normal -0 0 1
    outer loop
      vertex -3.68608 9.77992 11.99
      vertex -3.19513 9.40565 11.99
      vertex -3.3951 9.88077 11.99
    endloop
  endfacet
  facet normal 0 0 1
    outer loop
      vertex -3.19513 9.40565 11.99
      vertex -3.68608 9.77992 11.99
      vertex -3.57675 9.27667 11.99
    endloop
  endfacet
  facet normal 0 0 1
    outer loop
      vertex -3.68608 9.77992 11.99
      vertex -3.98728 9.23367 11.99
      vertex -3.57675 9.27667 11.99
    endloop
  endfacet
  facet normal -0 0 1
    outer loop
      vertex -3.9997 9.74631 11.99
      vertex -3.98728 9.23367 11.99
      vertex -3.68608 9.77992 11.99
    endloop
  endfacet
  facet normal 0 0 1
    outer loop
      vertex -4.09348 9.74944 11.99
      vertex -3.98728 9.23367 11.99
      vertex -3.9997 9.74631 11.99
    endloop
  endfacet
  facet normal 0 0 1
    outer loop
      vertex -4.18724 9.75882 11.99
      vertex -3.98728 9.23367 11.99
      vertex -4.09348 9.74944 11.99
    endloop
  endfacet
  facet normal 0 0 1
    outer loop
      vertex -4.6091 9.32904 11.99
      vertex -4.18724 9.75882 11.99
      vertex -4.28099 9.77446 11.99
    endloop
  endfacet
  facet normal 0 0 1
    outer loop
      vertex -4.6091 9.32904 11.99
      vertex -4.28099 9.77446 11.99
      vertex -4.37473 9.79636 11.99
    endloop
  endfacet
  facet normal 0 0 1
    outer loop
      vertex -4.6091 9.32904 11.99
      vertex -4.37473 9.79636 11.99
      vertex -4.46651 9.82411 11.99
    endloop
  endfacet
  facet normal 0 0 1
    outer loop
      vertex -4.6091 9.32904 11.99
      vertex -4.46651 9.82411 11.99
      vertex -4.5544 9.85733 11.99
    endloop
  endfacet
  facet normal 0 0 1
    outer loop
      vertex -4.18724 9.75882 11.99
      vertex -4.6091 9.32904 11.99
      vertex -3.98728 9.23367 11.99
    endloop
  endfacet
  facet normal 0 0 1
    outer loop
      vertex -4.63837 9.89601 11.99
      vertex -4.6091 9.32904 11.99
      vertex -4.5544 9.85733 11.99
    endloop
  endfacet
  facet normal 0 0 1
    outer loop
      vertex -5.16216 9.61514 11.99
      vertex -4.63837 9.89601 11.99
      vertex -4.71845 9.94017 11.99
    endloop
  endfacet
  facet normal 0 0 1
    outer loop
      vertex -5.16216 9.61514 11.99
      vertex -4.71845 9.94017 11.99
      vertex -4.79538 9.9875 11.99
    endloop
  endfacet
  facet normal 0 0 1
    outer loop
      vertex -5.16216 9.61514 11.99
      vertex -4.79538 9.9875 11.99
      vertex -4.86998 10.0356 11.99
    endloop
  endfacet
  facet normal 0 0 1
    outer loop
      vertex -5.16216 9.61514 11.99
      vertex -4.86998 10.0356 11.99
      vertex -4.94222 10.0845 11.99
    endloop
  endfacet
  facet normal 0 0 1
    outer loop
      vertex -5.16216 9.61514 11.99
      vertex -4.94222 10.0845 11.99
      vertex -5.01212 10.1341 11.99
    endloop
  endfacet
  facet normal 0 0 1
    outer loop
      vertex -5.16216 9.61514 11.99
      vertex -5.01212 10.1341 11.99
      vertex -5.0801 10.1869 11.99
    endloop
  endfacet
  facet normal 0 0 1
    outer loop
      vertex -5.64649 10.092 11.99
      vertex -5.0801 10.1869 11.99
      vertex -5.1465 10.2451 11.99
    endloop
  endfacet
  facet normal 0 0 1
    outer loop
      vertex -4.63837 9.89601 11.99
      vertex -5.16216 9.61514 11.99
      vertex -4.6091 9.32904 11.99
    endloop
  endfacet
  facet normal 0 0 1
    outer loop
      vertex -5.64649 10.092 11.99
      vertex -5.1465 10.2451 11.99
      vertex -5.21135 10.3089 11.99
    endloop
  endfacet
  facet normal 0 0 1
    outer loop
      vertex -5.64649 10.092 11.99
      vertex -5.21135 10.3089 11.99
      vertex -5.27465 10.378 11.99
    endloop
  endfacet
  facet normal 0 0 1
    outer loop
      vertex -5.64649 10.092 11.99
      vertex -5.27465 10.378 11.99
      vertex -5.33519 10.448 11.99
    endloop
  endfacet
  facet normal 0 0 1
    outer loop
      vertex -5.64649 10.092 11.99
      vertex -5.33519 10.448 11.99
      vertex -5.39182 10.514 11.99
    endloop
  endfacet
  facet normal 0 0 1
    outer loop
      vertex -5.64649 10.092 11.99
      vertex -5.39182 10.514 11.99
      vertex -5.44454 10.5762 11.99
    endloop
  endfacet
  facet normal 0 0 1
    outer loop
      vertex -5.64649 10.092 11.99
      vertex -5.44454 10.5762 11.99
      vertex -5.49333 10.6344 11.99
    endloop
  endfacet
  facet normal 0 0 1
    outer loop
      vertex -5.64649 10.092 11.99
      vertex -5.49333 10.6344 11.99
      vertex -5.54023 10.6931 11.99
    endloop
  endfacet
  facet normal 0 0 1
    outer loop
      vertex -6.06205 10.7595 11.99
      vertex -5.54023 10.6931 11.99
      vertex -5.5871 10.7564 11.99
    endloop
  endfacet
  facet normal -0 0 1
    outer loop
      vertex -6.06205 10.7595 11.99
      vertex -5.5871 10.7564 11.99
      vertex -5.63396 10.8244 11.99
    endloop
  endfacet
  facet normal 0 0 1
    outer loop
      vertex -5.0801 10.1869 11.99
      vertex -5.64649 10.092 11.99
      vertex -5.16216 9.61514 11.99
    endloop
  endfacet
  facet normal 0 0 1
    outer loop
      vertex -6.06205 10.7595 11.99
      vertex -5.63396 10.8244 11.99
      vertex -5.68082 10.8971 11.99
    endloop
  endfacet
  facet normal 0 0 1
    outer loop
      vertex -6.06205 10.7595 11.99
      vertex -5.68082 10.8971 11.99
      vertex -5.72458 10.9679 11.99
    endloop
  endfacet
  facet normal 0 0 1
    outer loop
      vertex -6.06205 10.7595 11.99
      vertex -5.72458 10.9679 11.99
      vertex -5.76209 11.03 11.99
    endloop
  endfacet
  facet normal 0 0 1
    outer loop
      vertex -6.06205 10.7595 11.99
      vertex -5.76209 11.03 11.99
      vertex -5.79334 11.0836 11.99
    endloop
  endfacet
  facet normal 0 0 1
    outer loop
      vertex -6.06205 10.7595 11.99
      vertex -5.79334 11.0836 11.99
      vertex -5.81833 11.1285 11.99
    endloop
  endfacet
  facet normal 0 0 1
    outer loop
      vertex -6.06205 10.7595 11.99
      vertex -5.81833 11.1285 11.99
      vertex -5.84137 11.1712 11.99
    endloop
  endfacet
  facet normal 0 0 1
    outer loop
      vertex -6.06205 10.7595 11.99
      vertex -5.84137 11.1712 11.99
      vertex -5.86678 11.2177 11.99
    endloop
  endfacet
  facet normal 0 0 1
    outer loop
      vertex -6.06205 10.7595 11.99
      vertex -5.86678 11.2177 11.99
      vertex -5.89452 11.2681 11.99
    endloop
  endfacet
  facet normal 0 0 1
    outer loop
      vertex -6.06205 10.7595 11.99
      vertex -5.89452 11.2681 11.99
      vertex -5.98708 11.4351 11.99
    endloop
  endfacet
  facet normal 0 0 1
    outer loop
      vertex -5.54023 10.6931 11.99
      vertex -6.06205 10.7595 11.99
      vertex -5.64649 10.092 11.99
    endloop
  endfacet
  facet normal 0 0 1
    outer loop
      vertex -1.95571 6.41162 11.99
      vertex -1.94165 6.5444 11.99
      vertex -1.95455 6.58957 11.99
    endloop
  endfacet
  facet normal 0 0 1
    outer loop
      vertex -1.94165 6.5444 11.99
      vertex -1.95571 6.41162 11.99
      vertex -1.93735 6.49614 11.99
    endloop
  endfacet
  facet normal 0 0 1
    outer loop
      vertex -2.24831 6.72375 11.99
      vertex -1.95455 6.58957 11.99
      vertex -1.97603 6.63162 11.99
    endloop
  endfacet
  facet normal 0 0 1
    outer loop
      vertex -2.24831 6.72375 11.99
      vertex -1.97603 6.63162 11.99
      vertex -2.00611 6.67056 11.99
    endloop
  endfacet
  facet normal 0 0 1
    outer loop
      vertex -1.95455 6.58957 11.99
      vertex -2.01079 6.33255 11.99
      vertex -1.95571 6.41162 11.99
    endloop
  endfacet
  facet normal 0 0 1
    outer loop
      vertex -2.24831 6.72375 11.99
      vertex -2.00611 6.67056 11.99
      vertex -2.04244 6.70328 11.99
    endloop
  endfacet
  facet normal -0 0 1
    outer loop
      vertex -2.24831 6.72375 11.99
      vertex -2.04244 6.70328 11.99
      vertex -2.08267 6.72665 11.99
    endloop
  endfacet
  facet normal 0 0 1
    outer loop
      vertex -1.95455 6.58957 11.99
      vertex -2.24831 6.72375 11.99
      vertex -2.01079 6.33255 11.99
    endloop
  endfacet
  facet normal -0 0 1
    outer loop
      vertex -2.19948 6.73996 11.99
      vertex -2.08267 6.72665 11.99
      vertex -2.12682 6.74068 11.99
    endloop
  endfacet
  facet normal 0 0 1
    outer loop
      vertex -2.19948 6.73996 11.99
      vertex -2.12682 6.74068 11.99
      vertex -2.17487 6.74535 11.99
    endloop
  endfacet
  facet normal 0 0 1
    outer loop
      vertex -2.08267 6.72665 11.99
      vertex -2.19948 6.73996 11.99
      vertex -2.24831 6.72375 11.99
    endloop
  endfacet
  facet normal -0 0 1
    outer loop
      vertex -2.32134 6.69675 11.99
      vertex -2.01079 6.33255 11.99
      vertex -2.24831 6.72375 11.99
    endloop
  endfacet
  facet normal 0 0 1
    outer loop
      vertex -2.01079 6.33255 11.99
      vertex -2.32134 6.69675 11.99
      vertex -2.10259 6.25893 11.99
    endloop
  endfacet
  facet normal -0 0 1
    outer loop
      vertex -2.41858 6.65895 11.99
      vertex -2.10259 6.25893 11.99
      vertex -2.32134 6.69675 11.99
    endloop
  endfacet
  facet normal 0 0 1
    outer loop
      vertex -2.10259 6.25893 11.99
      vertex -2.41858 6.65895 11.99
      vertex -2.23111 6.19078 11.99
    endloop
  endfacet
  facet normal 0 0 1
    outer loop
      vertex -2.23111 6.19078 11.99
      vertex -2.41858 6.65895 11.99
      vertex -2.38463 6.13353 11.99
    endloop
  endfacet
  facet normal -0 0 1
    outer loop
      vertex -2.53536 6.62115 11.99
      vertex -2.38463 6.13353 11.99
      vertex -2.41858 6.65895 11.99
    endloop
  endfacet
  facet normal 0 0 1
    outer loop
      vertex -2.53536 6.62115 11.99
      vertex -2.55142 6.09264 11.99
      vertex -2.38463 6.13353 11.99
    endloop
  endfacet
  facet normal -0 0 1
    outer loop
      vertex -2.66698 6.59415 11.99
      vertex -2.55142 6.09264 11.99
      vertex -2.53536 6.62115 11.99
    endloop
  endfacet
  facet normal 0 0 1
    outer loop
      vertex -2.66698 6.59415 11.99
      vertex -2.73149 6.0681 11.99
      vertex -2.55142 6.09264 11.99
    endloop
  endfacet
  facet normal -0 0 1
    outer loop
      vertex -2.81346 6.57796 11.99
      vertex -2.73149 6.0681 11.99
      vertex -2.66698 6.59415 11.99
    endloop
  endfacet
  facet normal 0 0 1
    outer loop
      vertex -2.81346 6.57796 11.99
      vertex -2.92484 6.05992 11.99
      vertex -2.73149 6.0681 11.99
    endloop
  endfacet
  facet normal -0 0 1
    outer loop
      vertex -2.97478 6.57256 11.99
      vertex -2.92484 6.05992 11.99
      vertex -2.81346 6.57796 11.99
    endloop
  endfacet
  facet normal 0 0 1
    outer loop
      vertex -3.24826 6.07594 11.99
      vertex -2.97478 6.57256 11.99
      vertex -3.22632 6.58701 11.99
    endloop
  endfacet
  facet normal 0 0 1
    outer loop
      vertex -2.97478 6.57256 11.99
      vertex -3.24826 6.07594 11.99
      vertex -2.92484 6.05992 11.99
    endloop
  endfacet
  facet normal 0 0 1
    outer loop
      vertex -3.56856 6.12398 11.99
      vertex -3.22632 6.58701 11.99
      vertex -3.48099 6.63036 11.99
    endloop
  endfacet
  facet normal 0 0 1
    outer loop
      vertex -3.22632 6.58701 11.99
      vertex -3.56856 6.12398 11.99
      vertex -3.24826 6.07594 11.99
    endloop
  endfacet
  facet normal 0 0 1
    outer loop
      vertex -3.88573 6.20406 11.99
      vertex -3.48099 6.63036 11.99
      vertex -3.73879 6.70261 11.99
    endloop
  endfacet
  facet normal 0 0 1
    outer loop
      vertex -3.48099 6.63036 11.99
      vertex -3.88573 6.20406 11.99
      vertex -3.56856 6.12398 11.99
    endloop
  endfacet
  facet normal 0 0 1
    outer loop
      vertex -4.19977 6.31615 11.99
      vertex -3.73879 6.70261 11.99
      vertex -3.9997 6.80376 11.99
    endloop
  endfacet
  facet normal 0 0 1
    outer loop
      vertex -3.73879 6.70261 11.99
      vertex -4.19977 6.31615 11.99
      vertex -3.88573 6.20406 11.99
    endloop
  endfacet
  facet normal 0 0 1
    outer loop
      vertex -4.50717 6.45871 11.99
      vertex -3.9997 6.80376 11.99
      vertex -4.25907 6.93147 11.99
    endloop
  endfacet
  facet normal 0 0 1
    outer loop
      vertex -3.9997 6.80376 11.99
      vertex -4.50717 6.45871 11.99
      vertex -4.19977 6.31615 11.99
    endloop
  endfacet
  facet normal 0 0 1
    outer loop
      vertex -4.51216 7.08339 11.99
      vertex -4.50717 6.45871 11.99
      vertex -4.25907 6.93147 11.99
    endloop
  endfacet
  facet normal 0 0 1
    outer loop
      vertex -4.80442 6.63016 11.99
      vertex -4.51216 7.08339 11.99
      vertex -4.75901 7.25952 11.99
    endloop
  endfacet
  facet normal 0 0 1
    outer loop
      vertex -4.51216 7.08339 11.99
      vertex -4.80442 6.63016 11.99
      vertex -4.50717 6.45871 11.99
    endloop
  endfacet
  facet normal 0 0 1
    outer loop
      vertex -5.09149 6.83049 11.99
      vertex -4.75901 7.25952 11.99
      vertex -4.99961 7.45987 11.99
    endloop
  endfacet
  facet normal 0 0 1
    outer loop
      vertex -4.75901 7.25952 11.99
      vertex -5.09149 6.83049 11.99
      vertex -4.80442 6.63016 11.99
    endloop
  endfacet
  facet normal 0 0 1
    outer loop
      vertex -5.62699 7.32492 11.99
      vertex -4.99961 7.45987 11.99
      vertex -5.22657 7.69106 11.99
    endloop
  endfacet
  facet normal 0 0 1
    outer loop
      vertex -4.99961 7.45987 11.99
      vertex -5.36843 7.05972 11.99
      vertex -5.09149 6.83049 11.99
    endloop
  endfacet
  facet normal 0 0 1
    outer loop
      vertex -5.859 7.63307 11.99
      vertex -5.22657 7.69106 11.99
      vertex -5.43241 7.95972 11.99
    endloop
  endfacet
  facet normal -0 0 1
    outer loop
      vertex -6.06443 7.98416 11.99
      vertex -5.43241 7.95972 11.99
      vertex -5.61716 8.26588 11.99
    endloop
  endfacet
  facet normal 0 0 1
    outer loop
      vertex -4.99961 7.45987 11.99
      vertex -5.62699 7.32492 11.99
      vertex -5.36843 7.05972 11.99
    endloop
  endfacet
  facet normal -0 0 1
    outer loop
      vertex -6.24332 8.37822 11.99
      vertex -5.61716 8.26588 11.99
      vertex -5.7808 8.60953 11.99
    endloop
  endfacet
  facet normal 0 0 1
    outer loop
      vertex -5.22657 7.69106 11.99
      vertex -5.859 7.63307 11.99
      vertex -5.62699 7.32492 11.99
    endloop
  endfacet
  facet normal -0 0 1
    outer loop
      vertex -6.38825 8.80746 11.99
      vertex -5.7808 8.60953 11.99
      vertex -5.9148 8.9821 11.99
    endloop
  endfacet
  facet normal -0 0 1
    outer loop
      vertex -6.49178 9.26405 11.99
      vertex -5.9148 8.9821 11.99
      vertex -6.0105 9.375 11.99
    endloop
  endfacet
  facet normal 0 0 1
    outer loop
      vertex -5.43241 7.95972 11.99
      vertex -6.06443 7.98416 11.99
      vertex -5.859 7.63307 11.99
    endloop
  endfacet
  facet normal -0 0 1
    outer loop
      vertex -6.5539 9.74797 11.99
      vertex -6.0105 9.375 11.99
      vertex -6.06793 9.78819 11.99
    endloop
  endfacet
  facet normal 0 0 1
    outer loop
      vertex -6.5539 9.74797 11.99
      vertex -6.06793 9.78819 11.99
      vertex -6.08707 10.2217 11.99
    endloop
  endfacet
  facet normal 0 0 1
    outer loop
      vertex -6.073 10.5477 11.99
      vertex -6.5746 10.2592 11.99
      vertex -6.08081 10.3874 11.99
    endloop
  endfacet
  facet normal 0 -0 1
    outer loop
      vertex -6.5539 9.74797 11.99
      vertex -6.08707 10.2217 11.99
      vertex -6.5746 10.2592 11.99
    endloop
  endfacet
  facet normal 0 0 1
    outer loop
      vertex -6.0105 9.375 11.99
      vertex -6.5539 9.74797 11.99
      vertex -6.49178 9.26405 11.99
    endloop
  endfacet
  facet normal 0 0 1
    outer loop
      vertex -6.08081 10.3874 11.99
      vertex -6.5746 10.2592 11.99
      vertex -6.08551 10.2788 11.99
    endloop
  endfacet
  facet normal 0 0 1
    outer loop
      vertex -6.08551 10.2788 11.99
      vertex -6.5746 10.2592 11.99
      vertex -6.08707 10.2217 11.99
    endloop
  endfacet
  facet normal 0 0 1
    outer loop
      vertex -5.61716 8.26588 11.99
      vertex -6.24332 8.37822 11.99
      vertex -6.06443 7.98416 11.99
    endloop
  endfacet
  facet normal 0 0 1
    outer loop
      vertex -5.9148 8.9821 11.99
      vertex -6.49178 9.26405 11.99
      vertex -6.38825 8.80746 11.99
    endloop
  endfacet
  facet normal 0 0 1
    outer loop
      vertex -5.7808 8.60953 11.99
      vertex -6.38825 8.80746 11.99
      vertex -6.24332 8.37822 11.99
    endloop
  endfacet
  facet normal -0.148325 -0.988939 0
    outer loop
      vertex -3.56856 6.12398 10
      vertex -3.24826 6.07594 11.99
      vertex -3.56856 6.12398 11.99
    endloop
  endfacet
  facet normal -0.148325 -0.988939 -0
    outer loop
      vertex -3.24826 6.07594 11.99
      vertex -3.56856 6.12398 10
      vertex -3.24826 6.07594 10
    endloop
  endfacet
  facet normal -0.244801 -0.969573 0
    outer loop
      vertex -3.88573 6.20406 10
      vertex -3.56856 6.12398 11.99
      vertex -3.88573 6.20406 11.99
    endloop
  endfacet
  facet normal -0.244801 -0.969573 -0
    outer loop
      vertex -3.56856 6.12398 11.99
      vertex -3.88573 6.20406 10
      vertex -3.56856 6.12398 10
    endloop
  endfacet
  facet normal -0.336158 -0.941806 0
    outer loop
      vertex -4.19977 6.31615 10
      vertex -3.88573 6.20406 11.99
      vertex -4.19977 6.31615 11.99
    endloop
  endfacet
  facet normal -0.336158 -0.941806 -0
    outer loop
      vertex -3.88573 6.20406 11.99
      vertex -4.19977 6.31615 10
      vertex -3.88573 6.20406 10
    endloop
  endfacet
  facet normal -0.420719 -0.907191 0
    outer loop
      vertex -4.50717 6.45871 10
      vertex -4.19977 6.31615 11.99
      vertex -4.50717 6.45871 11.99
    endloop
  endfacet
  facet normal -0.420719 -0.907191 -0
    outer loop
      vertex -4.19977 6.31615 11.99
      vertex -4.50717 6.45871 10
      vertex -4.19977 6.31615 10
    endloop
  endfacet
  facet normal -0.499634 -0.866237 0
    outer loop
      vertex -4.80442 6.63016 10
      vertex -4.50717 6.45871 11.99
      vertex -4.80442 6.63016 11.99
    endloop
  endfacet
  facet normal -0.499634 -0.866237 -0
    outer loop
      vertex -4.50717 6.45871 11.99
      vertex -4.80442 6.63016 10
      vertex -4.50717 6.45871 10
    endloop
  endfacet
  facet normal -0.572275 -0.820062 0
    outer loop
      vertex -5.09149 6.83049 10
      vertex -4.80442 6.63016 11.99
      vertex -5.09149 6.83049 11.99
    endloop
  endfacet
  facet normal -0.572275 -0.820062 -0
    outer loop
      vertex -4.80442 6.63016 11.99
      vertex -5.09149 6.83049 10
      vertex -4.80442 6.63016 10
    endloop
  endfacet
  facet normal -0.637631 -0.770342 0
    outer loop
      vertex -5.36843 7.05972 10
      vertex -5.09149 6.83049 11.99
      vertex -5.36843 7.05972 11.99
    endloop
  endfacet
  facet normal -0.637631 -0.770342 -0
    outer loop
      vertex -5.09149 6.83049 11.99
      vertex -5.36843 7.05972 10
      vertex -5.09149 6.83049 10
    endloop
  endfacet
  facet normal -0.716014 -0.698086 0
    outer loop
      vertex -5.36843 7.05972 10
      vertex -5.62699 7.32492 11.99
      vertex -5.62699 7.32492 10
    endloop
  endfacet
  facet normal -0.716014 -0.698086 0
    outer loop
      vertex -5.62699 7.32492 11.99
      vertex -5.36843 7.05972 10
      vertex -5.36843 7.05972 11.99
    endloop
  endfacet
  facet normal -0.798882 -0.601488 0
    outer loop
      vertex -5.62699 7.32492 10
      vertex -5.859 7.63307 11.99
      vertex -5.859 7.63307 10
    endloop
  endfacet
  facet normal -0.798882 -0.601488 0
    outer loop
      vertex -5.859 7.63307 11.99
      vertex -5.62699 7.32492 10
      vertex -5.62699 7.32492 11.99
    endloop
  endfacet
  facet normal -0.863107 -0.505022 0
    outer loop
      vertex -5.859 7.63307 10
      vertex -6.06443 7.98416 11.99
      vertex -6.06443 7.98416 10
    endloop
  endfacet
  facet normal -0.863107 -0.505022 0
    outer loop
      vertex -6.06443 7.98416 11.99
      vertex -5.859 7.63307 10
      vertex -5.859 7.63307 11.99
    endloop
  endfacet
  facet normal -0.910565 -0.413366 0
    outer loop
      vertex -6.06443 7.98416 10
      vertex -6.24332 8.37822 11.99
      vertex -6.24332 8.37822 10
    endloop
  endfacet
  facet normal -0.910565 -0.413366 0
    outer loop
      vertex -6.24332 8.37822 11.99
      vertex -6.06443 7.98416 10
      vertex -6.06443 7.98416 11.99
    endloop
  endfacet
  facet normal -0.947451 -0.319901 0
    outer loop
      vertex -6.24332 8.37822 10
      vertex -6.38825 8.80746 11.99
      vertex -6.38825 8.80746 10
    endloop
  endfacet
  facet normal -0.947451 -0.319901 0
    outer loop
      vertex -6.38825 8.80746 11.99
      vertex -6.24332 8.37822 10
      vertex -6.24332 8.37822 11.99
    endloop
  endfacet
  facet normal -0.975244 -0.221133 0
    outer loop
      vertex -6.38825 8.80746 10
      vertex -6.49178 9.26405 11.99
      vertex -6.49178 9.26405 10
    endloop
  endfacet
  facet normal -0.975244 -0.221133 0
    outer loop
      vertex -6.49178 9.26405 11.99
      vertex -6.38825 8.80746 10
      vertex -6.38825 8.80746 11.99
    endloop
  endfacet
  facet normal -0.991861 -0.127324 0
    outer loop
      vertex -6.49178 9.26405 10
      vertex -6.5539 9.74797 11.99
      vertex -6.5539 9.74797 10
    endloop
  endfacet
  facet normal -0.991861 -0.127324 0
    outer loop
      vertex -6.5539 9.74797 11.99
      vertex -6.49178 9.26405 10
      vertex -6.49178 9.26405 11.99
    endloop
  endfacet
  facet normal -0.999181 -0.0404574 0
    outer loop
      vertex -6.5539 9.74797 10
      vertex -6.5746 10.2592 11.99
      vertex -6.5746 10.2592 10
    endloop
  endfacet
  facet normal -0.999181 -0.0404574 0
    outer loop
      vertex -6.5746 10.2592 11.99
      vertex -6.5539 9.74797 10
      vertex -6.5539 9.74797 11.99
    endloop
  endfacet
  facet normal -0.998439 0.0558605 0
    outer loop
      vertex -6.5746 10.2592 10
      vertex -6.53086 11.041 11.99
      vertex -6.53086 11.041 10
    endloop
  endfacet
  facet normal -0.998439 0.0558605 0
    outer loop
      vertex -6.53086 11.041 11.99
      vertex -6.5746 10.2592 10
      vertex -6.5746 10.2592 11.99
    endloop
  endfacet
  facet normal -0.983185 0.182613 0
    outer loop
      vertex -6.53086 11.041 10
      vertex -6.3996 11.7477 11.99
      vertex -6.3996 11.7477 10
    endloop
  endfacet
  facet normal -0.983185 0.182613 0
    outer loop
      vertex -6.3996 11.7477 11.99
      vertex -6.53086 11.041 10
      vertex -6.53086 11.041 11.99
    endloop
  endfacet
  facet normal -0.944922 0.327297 0
    outer loop
      vertex -6.3996 11.7477 10
      vertex -6.18083 12.3793 11.99
      vertex -6.18083 12.3793 10
    endloop
  endfacet
  facet normal -0.944922 0.327297 0
    outer loop
      vertex -6.18083 12.3793 11.99
      vertex -6.3996 11.7477 10
      vertex -6.3996 11.7477 11.99
    endloop
  endfacet
  facet normal -0.876136 0.482064 0
    outer loop
      vertex -6.18083 12.3793 10
      vertex -5.87458 12.9359 11.99
      vertex -5.87458 12.9359 10
    endloop
  endfacet
  facet normal -0.876136 0.482064 0
    outer loop
      vertex -5.87458 12.9359 11.99
      vertex -6.18083 12.3793 10
      vertex -6.18083 12.3793 11.99
    endloop
  endfacet
  facet normal -0.770519 0.637417 0
    outer loop
      vertex -5.87458 12.9359 10
      vertex -5.49884 13.3901 11.99
      vertex -5.49884 13.3901 10
    endloop
  endfacet
  facet normal -0.770519 0.637417 0
    outer loop
      vertex -5.49884 13.3901 11.99
      vertex -5.87458 12.9359 10
      vertex -5.87458 12.9359 11.99
    endloop
  endfacet
  facet normal -0.60479 0.796385 0
    outer loop
      vertex -5.07154 13.7146 10
      vertex -5.49884 13.3901 11.99
      vertex -5.07154 13.7146 11.99
    endloop
  endfacet
  facet normal -0.60479 0.796385 0
    outer loop
      vertex -5.49884 13.3901 11.99
      vertex -5.07154 13.7146 10
      vertex -5.49884 13.3901 10
    endloop
  endfacet
  facet normal -0.376641 0.926359 0
    outer loop
      vertex -4.59267 13.9093 10
      vertex -5.07154 13.7146 11.99
      vertex -4.59267 13.9093 11.99
    endloop
  endfacet
  facet normal -0.376641 0.926359 0
    outer loop
      vertex -5.07154 13.7146 11.99
      vertex -4.59267 13.9093 10
      vertex -5.07154 13.7146 10
    endloop
  endfacet
  facet normal -0.121452 0.992597 0
    outer loop
      vertex -4.06226 13.9742 10
      vertex -4.59267 13.9093 11.99
      vertex -4.06226 13.9742 11.99
    endloop
  endfacet
  facet normal -0.121452 0.992597 0
    outer loop
      vertex -4.59267 13.9093 11.99
      vertex -4.06226 13.9742 10
      vertex -4.59267 13.9093 10
    endloop
  endfacet
  facet normal 0.0994475 0.995043 -0
    outer loop
      vertex -3.62401 13.9304 10
      vertex -4.06226 13.9742 11.99
      vertex -3.62401 13.9304 11.99
    endloop
  endfacet
  facet normal 0.0994475 0.995043 0
    outer loop
      vertex -4.06226 13.9742 11.99
      vertex -3.62401 13.9304 10
      vertex -4.06226 13.9742 10
    endloop
  endfacet
  facet normal 0.310473 0.950582 -0
    outer loop
      vertex -3.2217 13.799 10
      vertex -3.62401 13.9304 11.99
      vertex -3.2217 13.799 11.99
    endloop
  endfacet
  facet normal 0.310473 0.950582 0
    outer loop
      vertex -3.62401 13.9304 11.99
      vertex -3.2217 13.799 10
      vertex -3.62401 13.9304 10
    endloop
  endfacet
  facet normal 0.512896 0.858451 -0
    outer loop
      vertex -2.85532 13.5801 10
      vertex -3.2217 13.799 11.99
      vertex -2.85532 13.5801 11.99
    endloop
  endfacet
  facet normal 0.512896 0.858451 0
    outer loop
      vertex -3.2217 13.799 11.99
      vertex -2.85532 13.5801 10
      vertex -3.2217 13.799 10
    endloop
  endfacet
  facet normal 0.679919 0.733287 -0
    outer loop
      vertex -2.52487 13.2737 10
      vertex -2.85532 13.5801 11.99
      vertex -2.52487 13.2737 11.99
    endloop
  endfacet
  facet normal 0.679919 0.733287 0
    outer loop
      vertex -2.85532 13.5801 11.99
      vertex -2.52487 13.2737 10
      vertex -2.85532 13.5801 10
    endloop
  endfacet
  facet normal 0.804083 0.594517 0
    outer loop
      vertex -2.25145 12.9039 11.99
      vertex -2.52487 13.2737 10
      vertex -2.52487 13.2737 11.99
    endloop
  endfacet
  facet normal 0.804083 0.594517 0
    outer loop
      vertex -2.52487 13.2737 10
      vertex -2.25145 12.9039 11.99
      vertex -2.25145 12.9039 10
    endloop
  endfacet
  facet normal 0.902326 0.431055 0
    outer loop
      vertex -2.05616 12.4951 11.99
      vertex -2.25145 12.9039 10
      vertex -2.25145 12.9039 11.99
    endloop
  endfacet
  facet normal 0.902326 0.431055 0
    outer loop
      vertex -2.25145 12.9039 10
      vertex -2.05616 12.4951 11.99
      vertex -2.05616 12.4951 10
    endloop
  endfacet
  facet normal 0.967434 0.253123 0
    outer loop
      vertex -1.93897 12.0472 11.99
      vertex -2.05616 12.4951 10
      vertex -2.05616 12.4951 11.99
    endloop
  endfacet
  facet normal 0.967434 0.253123 0
    outer loop
      vertex -2.05616 12.4951 10
      vertex -1.93897 12.0472 11.99
      vertex -1.93897 12.0472 10
    endloop
  endfacet
  facet normal 0.996799 0.0799486 0
    outer loop
      vertex -1.89991 11.5602 11.99
      vertex -1.93897 12.0472 10
      vertex -1.93897 12.0472 11.99
    endloop
  endfacet
  facet normal 0.996799 0.0799486 0
    outer loop
      vertex -1.93897 12.0472 10
      vertex -1.89991 11.5602 11.99
      vertex -1.89991 11.5602 10
    endloop
  endfacet
  facet normal 0.99647 -0.0839476 0
    outer loop
      vertex -1.93857 11.1013 11.99
      vertex -1.89991 11.5602 10
      vertex -1.89991 11.5602 11.99
    endloop
  endfacet
  facet normal 0.99647 -0.0839476 0
    outer loop
      vertex -1.89991 11.5602 10
      vertex -1.93857 11.1013 11.99
      vertex -1.93857 11.1013 10
    endloop
  endfacet
  facet normal 0.964878 -0.262698 0
    outer loop
      vertex -2.05458 10.6752 11.99
      vertex -1.93857 11.1013 10
      vertex -1.93857 11.1013 11.99
    endloop
  endfacet
  facet normal 0.964878 -0.262698 0
    outer loop
      vertex -1.93857 11.1013 10
      vertex -2.05458 10.6752 11.99
      vertex -2.05458 10.6752 10
    endloop
  endfacet
  facet normal 0.897392 -0.441233 0
    outer loop
      vertex -2.24791 10.282 11.99
      vertex -2.05458 10.6752 10
      vertex -2.05458 10.6752 11.99
    endloop
  endfacet
  facet normal 0.897392 -0.441233 0
    outer loop
      vertex -2.05458 10.6752 10
      vertex -2.24791 10.282 11.99
      vertex -2.24791 10.282 10
    endloop
  endfacet
  facet normal 0.799592 -0.600543 0
    outer loop
      vertex -2.51857 9.92163 11.99
      vertex -2.24791 10.282 10
      vertex -2.24791 10.282 11.99
    endloop
  endfacet
  facet normal 0.799592 -0.600543 0
    outer loop
      vertex -2.24791 10.282 10
      vertex -2.51857 9.92163 11.99
      vertex -2.51857 9.92163 10
    endloop
  endfacet
  facet normal 0.680803 -0.732466 0
    outer loop
      vertex -2.84239 9.62065 10
      vertex -2.51857 9.92163 11.99
      vertex -2.84239 9.62065 11.99
    endloop
  endfacet
  facet normal 0.680803 -0.732466 0
    outer loop
      vertex -2.51857 9.92163 11.99
      vertex -2.84239 9.62065 10
      vertex -2.51857 9.92163 10
    endloop
  endfacet
  facet normal 0.520457 -0.853888 0
    outer loop
      vertex -3.19513 9.40565 10
      vertex -2.84239 9.62065 11.99
      vertex -3.19513 9.40565 11.99
    endloop
  endfacet
  facet normal 0.520457 -0.853888 0
    outer loop
      vertex -2.84239 9.62065 11.99
      vertex -3.19513 9.40565 10
      vertex -2.84239 9.62065 10
    endloop
  endfacet
  facet normal 0.320187 -0.947354 0
    outer loop
      vertex -3.57675 9.27667 10
      vertex -3.19513 9.40565 11.99
      vertex -3.57675 9.27667 11.99
    endloop
  endfacet
  facet normal 0.320187 -0.947354 0
    outer loop
      vertex -3.19513 9.40565 11.99
      vertex -3.57675 9.27667 10
      vertex -3.19513 9.40565 10
    endloop
  endfacet
  facet normal 0.104173 -0.994559 0
    outer loop
      vertex -3.98728 9.23367 10
      vertex -3.57675 9.27667 11.99
      vertex -3.98728 9.23367 11.99
    endloop
  endfacet
  facet normal 0.104173 -0.994559 0
    outer loop
      vertex -3.57675 9.27667 11.99
      vertex -3.98728 9.23367 10
      vertex -3.57675 9.27667 10
    endloop
  endfacet
  facet normal -0.1516 -0.988442 0
    outer loop
      vertex -4.6091 9.32904 10
      vertex -3.98728 9.23367 11.99
      vertex -4.6091 9.32904 11.99
    endloop
  endfacet
  facet normal -0.1516 -0.988442 -0
    outer loop
      vertex -3.98728 9.23367 11.99
      vertex -4.6091 9.32904 10
      vertex -3.98728 9.23367 10
    endloop
  endfacet
  facet normal -0.459467 -0.888195 0
    outer loop
      vertex -5.16216 9.61514 10
      vertex -4.6091 9.32904 11.99
      vertex -5.16216 9.61514 11.99
    endloop
  endfacet
  facet normal -0.459467 -0.888195 -0
    outer loop
      vertex -4.6091 9.32904 11.99
      vertex -5.16216 9.61514 10
      vertex -4.6091 9.32904 10
    endloop
  endfacet
  facet normal -0.70159 -0.712581 0
    outer loop
      vertex -5.64649 10.092 10
      vertex -5.16216 9.61514 11.99
      vertex -5.64649 10.092 11.99
    endloop
  endfacet
  facet normal -0.70159 -0.712581 -0
    outer loop
      vertex -5.16216 9.61514 11.99
      vertex -5.64649 10.092 10
      vertex -5.16216 9.61514 10
    endloop
  endfacet
  facet normal -0.848927 -0.52851 0
    outer loop
      vertex -5.64649 10.092 10
      vertex -6.06205 10.7595 11.99
      vertex -6.06205 10.7595 10
    endloop
  endfacet
  facet normal -0.848927 -0.52851 0
    outer loop
      vertex -6.06205 10.7595 11.99
      vertex -5.64649 10.092 10
      vertex -5.64649 10.092 11.99
    endloop
  endfacet
  facet normal 0.998666 -0.0516308 0
    outer loop
      vertex -6.073 10.5477 11.99
      vertex -6.06205 10.7595 10
      vertex -6.06205 10.7595 11.99
    endloop
  endfacet
  facet normal 0.998666 -0.0516308 0
    outer loop
      vertex -6.06205 10.7595 10
      vertex -6.073 10.5477 11.99
      vertex -6.073 10.5477 10
    endloop
  endfacet
  facet normal 0.998815 -0.0486634 0
    outer loop
      vertex -6.08081 10.3874 11.99
      vertex -6.073 10.5477 10
      vertex -6.073 10.5477 11.99
    endloop
  endfacet
  facet normal 0.998815 -0.0486634 0
    outer loop
      vertex -6.073 10.5477 10
      vertex -6.08081 10.3874 11.99
      vertex -6.08081 10.3874 10
    endloop
  endfacet
  facet normal 0.999065 -0.0432376 0
    outer loop
      vertex -6.08551 10.2788 11.99
      vertex -6.08081 10.3874 10
      vertex -6.08081 10.3874 11.99
    endloop
  endfacet
  facet normal 0.999065 -0.0432376 0
    outer loop
      vertex -6.08081 10.3874 10
      vertex -6.08551 10.2788 11.99
      vertex -6.08551 10.2788 10
    endloop
  endfacet
  facet normal 0.999627 -0.0273103 0
    outer loop
      vertex -6.08707 10.2217 11.99
      vertex -6.08551 10.2788 10
      vertex -6.08551 10.2788 11.99
    endloop
  endfacet
  facet normal 0.999627 -0.0273103 0
    outer loop
      vertex -6.08551 10.2788 10
      vertex -6.08707 10.2217 11.99
      vertex -6.08707 10.2217 10
    endloop
  endfacet
  facet normal 0.999027 0.0441083 0
    outer loop
      vertex -6.06793 9.78819 11.99
      vertex -6.08707 10.2217 10
      vertex -6.08707 10.2217 11.99
    endloop
  endfacet
  facet normal 0.999027 0.0441083 0
    outer loop
      vertex -6.08707 10.2217 10
      vertex -6.06793 9.78819 11.99
      vertex -6.06793 9.78819 10
    endloop
  endfacet
  facet normal 0.990478 0.137668 0
    outer loop
      vertex -6.0105 9.375 11.99
      vertex -6.06793 9.78819 10
      vertex -6.06793 9.78819 11.99
    endloop
  endfacet
  facet normal 0.990478 0.137668 0
    outer loop
      vertex -6.06793 9.78819 10
      vertex -6.0105 9.375 11.99
      vertex -6.0105 9.375 10
    endloop
  endfacet
  facet normal 0.971594 0.236654 0
    outer loop
      vertex -5.9148 8.9821 11.99
      vertex -6.0105 9.375 10
      vertex -6.0105 9.375 11.99
    endloop
  endfacet
  facet normal 0.971594 0.236654 0
    outer loop
      vertex -6.0105 9.375 10
      vertex -5.9148 8.9821 11.99
      vertex -5.9148 8.9821 10
    endloop
  endfacet
  facet normal 0.940988 0.33844 0
    outer loop
      vertex -5.7808 8.60953 11.99
      vertex -5.9148 8.9821 10
      vertex -5.9148 8.9821 11.99
    endloop
  endfacet
  facet normal 0.940988 0.33844 0
    outer loop
      vertex -5.9148 8.9821 10
      vertex -5.7808 8.60953 11.99
      vertex -5.7808 8.60953 10
    endloop
  endfacet
  facet normal 0.902863 0.429927 0
    outer loop
      vertex -5.61716 8.26588 11.99
      vertex -5.7808 8.60953 10
      vertex -5.7808 8.60953 11.99
    endloop
  endfacet
  facet normal 0.902863 0.429927 0
    outer loop
      vertex -5.7808 8.60953 10
      vertex -5.61716 8.26588 11.99
      vertex -5.61716 8.26588 10
    endloop
  endfacet
  facet normal 0.85619 0.516661 0
    outer loop
      vertex -5.43241 7.95972 11.99
      vertex -5.61716 8.26588 10
      vertex -5.61716 8.26588 11.99
    endloop
  endfacet
  facet normal 0.85619 0.516661 0
    outer loop
      vertex -5.61716 8.26588 10
      vertex -5.43241 7.95972 11.99
      vertex -5.43241 7.95972 10
    endloop
  endfacet
  facet normal 0.793796 0.608185 0
    outer loop
      vertex -5.22657 7.69106 11.99
      vertex -5.43241 7.95972 10
      vertex -5.43241 7.95972 11.99
    endloop
  endfacet
  facet normal 0.793796 0.608185 0
    outer loop
      vertex -5.43241 7.95972 10
      vertex -5.22657 7.69106 11.99
      vertex -5.22657 7.69106 10
    endloop
  endfacet
  facet normal 0.713605 0.700548 0
    outer loop
      vertex -4.99961 7.45987 11.99
      vertex -5.22657 7.69106 10
      vertex -5.22657 7.69106 11.99
    endloop
  endfacet
  facet normal 0.713605 0.700548 0
    outer loop
      vertex -5.22657 7.69106 10
      vertex -4.99961 7.45987 11.99
      vertex -4.99961 7.45987 10
    endloop
  endfacet
  facet normal 0.639902 0.768457 -0
    outer loop
      vertex -4.75901 7.25952 10
      vertex -4.99961 7.45987 11.99
      vertex -4.75901 7.25952 11.99
    endloop
  endfacet
  facet normal 0.639902 0.768457 0
    outer loop
      vertex -4.99961 7.45987 11.99
      vertex -4.75901 7.25952 10
      vertex -4.99961 7.45987 10
    endloop
  endfacet
  facet normal 0.58082 0.814032 -0
    outer loop
      vertex -4.51216 7.08339 10
      vertex -4.75901 7.25952 11.99
      vertex -4.51216 7.08339 11.99
    endloop
  endfacet
  facet normal 0.58082 0.814032 0
    outer loop
      vertex -4.75901 7.25952 11.99
      vertex -4.51216 7.08339 10
      vertex -4.75901 7.25952 10
    endloop
  endfacet
  facet normal 0.51466 0.857394 -0
    outer loop
      vertex -4.25907 6.93147 10
      vertex -4.51216 7.08339 11.99
      vertex -4.25907 6.93147 11.99
    endloop
  endfacet
  facet normal 0.51466 0.857394 0
    outer loop
      vertex -4.51216 7.08339 11.99
      vertex -4.25907 6.93147 10
      vertex -4.51216 7.08339 10
    endloop
  endfacet
  facet normal 0.44174 0.897143 -0
    outer loop
      vertex -3.9997 6.80376 10
      vertex -4.25907 6.93147 11.99
      vertex -3.9997 6.80376 11.99
    endloop
  endfacet
  facet normal 0.44174 0.897143 0
    outer loop
      vertex -4.25907 6.93147 11.99
      vertex -3.9997 6.80376 10
      vertex -4.25907 6.93147 10
    endloop
  endfacet
  facet normal 0.361468 0.932384 -0
    outer loop
      vertex -3.73879 6.70261 10
      vertex -3.9997 6.80376 11.99
      vertex -3.73879 6.70261 11.99
    endloop
  endfacet
  facet normal 0.361468 0.932384 0
    outer loop
      vertex -3.9997 6.80376 11.99
      vertex -3.73879 6.70261 10
      vertex -3.9997 6.80376 10
    endloop
  endfacet
  facet normal 0.269859 0.9629 -0
    outer loop
      vertex -3.48099 6.63036 10
      vertex -3.73879 6.70261 11.99
      vertex -3.48099 6.63036 11.99
    endloop
  endfacet
  facet normal 0.269859 0.9629 0
    outer loop
      vertex -3.73879 6.70261 11.99
      vertex -3.48099 6.63036 10
      vertex -3.73879 6.70261 10
    endloop
  endfacet
  facet normal 0.167807 0.98582 -0
    outer loop
      vertex -3.22632 6.58701 10
      vertex -3.48099 6.63036 11.99
      vertex -3.22632 6.58701 11.99
    endloop
  endfacet
  facet normal 0.167807 0.98582 0
    outer loop
      vertex -3.48099 6.63036 11.99
      vertex -3.22632 6.58701 10
      vertex -3.48099 6.63036 10
    endloop
  endfacet
  facet normal 0.0573516 0.998354 -0
    outer loop
      vertex -2.97478 6.57256 10
      vertex -3.22632 6.58701 11.99
      vertex -2.97478 6.57256 11.99
    endloop
  endfacet
  facet normal 0.0573516 0.998354 0
    outer loop
      vertex -3.22632 6.58701 11.99
      vertex -2.97478 6.57256 10
      vertex -3.22632 6.58701 10
    endloop
  endfacet
  facet normal -0.0334551 0.99944 0
    outer loop
      vertex -2.81346 6.57796 10
      vertex -2.97478 6.57256 11.99
      vertex -2.81346 6.57796 11.99
    endloop
  endfacet
  facet normal -0.0334551 0.99944 0
    outer loop
      vertex -2.97478 6.57256 11.99
      vertex -2.81346 6.57796 10
      vertex -2.97478 6.57256 10
    endloop
  endfacet
  facet normal -0.109858 0.993947 0
    outer loop
      vertex -2.66698 6.59415 10
      vertex -2.81346 6.57796 11.99
      vertex -2.66698 6.59415 11.99
    endloop
  endfacet
  facet normal -0.109858 0.993947 0
    outer loop
      vertex -2.81346 6.57796 11.99
      vertex -2.66698 6.59415 10
      vertex -2.81346 6.57796 10
    endloop
  endfacet
  facet normal -0.200951 0.979601 0
    outer loop
      vertex -2.53536 6.62115 10
      vertex -2.66698 6.59415 11.99
      vertex -2.53536 6.62115 11.99
    endloop
  endfacet
  facet normal -0.200951 0.979601 0
    outer loop
      vertex -2.66698 6.59415 11.99
      vertex -2.53536 6.62115 10
      vertex -2.66698 6.59415 10
    endloop
  endfacet
  facet normal -0.307955 0.951401 0
    outer loop
      vertex -2.41858 6.65895 10
      vertex -2.53536 6.62115 11.99
      vertex -2.41858 6.65895 11.99
    endloop
  endfacet
  facet normal -0.307955 0.951401 0
    outer loop
      vertex -2.53536 6.62115 11.99
      vertex -2.41858 6.65895 10
      vertex -2.53536 6.62115 10
    endloop
  endfacet
  facet normal -0.362317 0.932055 0
    outer loop
      vertex -2.32134 6.69675 10
      vertex -2.41858 6.65895 11.99
      vertex -2.32134 6.69675 11.99
    endloop
  endfacet
  facet normal -0.362317 0.932055 0
    outer loop
      vertex -2.41858 6.65895 11.99
      vertex -2.32134 6.69675 10
      vertex -2.41858 6.65895 10
    endloop
  endfacet
  facet normal -0.346771 0.93795 0
    outer loop
      vertex -2.24831 6.72375 10
      vertex -2.32134 6.69675 11.99
      vertex -2.24831 6.72375 11.99
    endloop
  endfacet
  facet normal -0.346771 0.93795 0
    outer loop
      vertex -2.32134 6.69675 11.99
      vertex -2.24831 6.72375 10
      vertex -2.32134 6.69675 10
    endloop
  endfacet
  facet normal -0.315061 0.949071 0
    outer loop
      vertex -2.19948 6.73996 10
      vertex -2.24831 6.72375 11.99
      vertex -2.19948 6.73996 11.99
    endloop
  endfacet
  facet normal -0.315061 0.949071 0
    outer loop
      vertex -2.24831 6.72375 11.99
      vertex -2.19948 6.73996 10
      vertex -2.24831 6.72375 10
    endloop
  endfacet
  facet normal -0.213945 0.976846 0
    outer loop
      vertex -2.17487 6.74535 10
      vertex -2.19948 6.73996 11.99
      vertex -2.17487 6.74535 11.99
    endloop
  endfacet
  facet normal -0.213945 0.976846 0
    outer loop
      vertex -2.19948 6.73996 11.99
      vertex -2.17487 6.74535 10
      vertex -2.19948 6.73996 10
    endloop
  endfacet
  facet normal 0.0967346 0.99531 -0
    outer loop
      vertex -2.12682 6.74068 10
      vertex -2.17487 6.74535 11.99
      vertex -2.12682 6.74068 11.99
    endloop
  endfacet
  facet normal 0.0967346 0.99531 0
    outer loop
      vertex -2.17487 6.74535 11.99
      vertex -2.12682 6.74068 10
      vertex -2.17487 6.74535 10
    endloop
  endfacet
  facet normal 0.302856 0.953036 -0
    outer loop
      vertex -2.08267 6.72665 10
      vertex -2.12682 6.74068 11.99
      vertex -2.08267 6.72665 11.99
    endloop
  endfacet
  facet normal 0.302856 0.953036 0
    outer loop
      vertex -2.12682 6.74068 11.99
      vertex -2.08267 6.72665 10
      vertex -2.12682 6.74068 10
    endloop
  endfacet
  facet normal 0.502307 0.86469 -0
    outer loop
      vertex -2.04244 6.70328 10
      vertex -2.08267 6.72665 11.99
      vertex -2.04244 6.70328 11.99
    endloop
  endfacet
  facet normal 0.502307 0.86469 0
    outer loop
      vertex -2.08267 6.72665 11.99
      vertex -2.04244 6.70328 10
      vertex -2.08267 6.72665 10
    endloop
  endfacet
  facet normal 0.669225 0.74306 -0
    outer loop
      vertex -2.00611 6.67056 10
      vertex -2.04244 6.70328 11.99
      vertex -2.00611 6.67056 11.99
    endloop
  endfacet
  facet normal 0.669225 0.74306 0
    outer loop
      vertex -2.04244 6.70328 11.99
      vertex -2.00611 6.67056 10
      vertex -2.04244 6.70328 10
    endloop
  endfacet
  facet normal 0.791383 0.61132 0
    outer loop
      vertex -1.97603 6.63162 11.99
      vertex -2.00611 6.67056 10
      vertex -2.00611 6.67056 11.99
    endloop
  endfacet
  facet normal 0.791383 0.61132 0
    outer loop
      vertex -2.00611 6.67056 10
      vertex -1.97603 6.63162 11.99
      vertex -1.97603 6.63162 10
    endloop
  endfacet
  facet normal 0.89054 0.454906 0
    outer loop
      vertex -1.95455 6.58957 11.99
      vertex -1.97603 6.63162 10
      vertex -1.97603 6.63162 11.99
    endloop
  endfacet
  facet normal 0.89054 0.454906 0
    outer loop
      vertex -1.97603 6.63162 10
      vertex -1.95455 6.58957 11.99
      vertex -1.95455 6.58957 10
    endloop
  endfacet
  facet normal 0.961556 0.274609 0
    outer loop
      vertex -1.94165 6.5444 11.99
      vertex -1.95455 6.58957 10
      vertex -1.95455 6.58957 11.99
    endloop
  endfacet
  facet normal 0.961556 0.274609 0
    outer loop
      vertex -1.95455 6.58957 10
      vertex -1.94165 6.5444 11.99
      vertex -1.94165 6.5444 10
    endloop
  endfacet
  facet normal 0.996054 0.0887491 0
    outer loop
      vertex -1.93735 6.49614 11.99
      vertex -1.94165 6.5444 10
      vertex -1.94165 6.5444 11.99
    endloop
  endfacet
  facet normal 0.996054 0.0887491 0
    outer loop
      vertex -1.94165 6.5444 10
      vertex -1.93735 6.49614 11.99
      vertex -1.93735 6.49614 10
    endloop
  endfacet
  facet normal 0.97721 -0.212276 0
    outer loop
      vertex -1.95571 6.41162 11.99
      vertex -1.93735 6.49614 10
      vertex -1.93735 6.49614 11.99
    endloop
  endfacet
  facet normal 0.97721 -0.212276 0
    outer loop
      vertex -1.93735 6.49614 10
      vertex -1.95571 6.41162 11.99
      vertex -1.95571 6.41162 10
    endloop
  endfacet
  facet normal 0.820541 -0.571587 0
    outer loop
      vertex -2.01079 6.33255 11.99
      vertex -1.95571 6.41162 10
      vertex -1.95571 6.41162 11.99
    endloop
  endfacet
  facet normal 0.820541 -0.571587 0
    outer loop
      vertex -1.95571 6.41162 10
      vertex -2.01079 6.33255 11.99
      vertex -2.01079 6.33255 10
    endloop
  endfacet
  facet normal 0.625627 -0.780122 0
    outer loop
      vertex -2.10259 6.25893 10
      vertex -2.01079 6.33255 11.99
      vertex -2.10259 6.25893 11.99
    endloop
  endfacet
  facet normal 0.625627 -0.780122 0
    outer loop
      vertex -2.01079 6.33255 11.99
      vertex -2.10259 6.25893 10
      vertex -2.01079 6.33255 10
    endloop
  endfacet
  facet normal 0.468478 -0.883475 0
    outer loop
      vertex -2.23111 6.19078 10
      vertex -2.10259 6.25893 11.99
      vertex -2.23111 6.19078 11.99
    endloop
  endfacet
  facet normal 0.468478 -0.883475 0
    outer loop
      vertex -2.10259 6.25893 11.99
      vertex -2.23111 6.19078 10
      vertex -2.10259 6.25893 10
    endloop
  endfacet
  facet normal 0.349411 -0.93697 0
    outer loop
      vertex -2.38463 6.13353 10
      vertex -2.23111 6.19078 11.99
      vertex -2.38463 6.13353 11.99
    endloop
  endfacet
  facet normal 0.349411 -0.93697 0
    outer loop
      vertex -2.23111 6.19078 11.99
      vertex -2.38463 6.13353 10
      vertex -2.23111 6.19078 10
    endloop
  endfacet
  facet normal 0.238108 -0.971239 0
    outer loop
      vertex -2.55142 6.09264 10
      vertex -2.38463 6.13353 11.99
      vertex -2.55142 6.09264 11.99
    endloop
  endfacet
  facet normal 0.238108 -0.971239 0
    outer loop
      vertex -2.38463 6.13353 11.99
      vertex -2.55142 6.09264 10
      vertex -2.38463 6.13353 10
    endloop
  endfacet
  facet normal 0.135032 -0.990841 0
    outer loop
      vertex -2.73149 6.0681 10
      vertex -2.55142 6.09264 11.99
      vertex -2.73149 6.0681 11.99
    endloop
  endfacet
  facet normal 0.135032 -0.990841 0
    outer loop
      vertex -2.55142 6.09264 11.99
      vertex -2.73149 6.0681 10
      vertex -2.55142 6.09264 10
    endloop
  endfacet
  facet normal 0.0422689 -0.999106 0
    outer loop
      vertex -2.92484 6.05992 10
      vertex -2.73149 6.0681 11.99
      vertex -2.92484 6.05992 11.99
    endloop
  endfacet
  facet normal 0.0422689 -0.999106 0
    outer loop
      vertex -2.73149 6.0681 11.99
      vertex -2.92484 6.05992 10
      vertex -2.73149 6.0681 10
    endloop
  endfacet
  facet normal -0.0494725 -0.998775 0
    outer loop
      vertex -3.24826 6.07594 10
      vertex -2.92484 6.05992 11.99
      vertex -3.24826 6.07594 11.99
    endloop
  endfacet
  facet normal -0.0494725 -0.998775 -0
    outer loop
      vertex -2.92484 6.05992 11.99
      vertex -3.24826 6.07594 10
      vertex -2.92484 6.05992 10
    endloop
  endfacet
  facet normal -0.327476 0.944859 0
    outer loop
      vertex -3.3951 9.88077 10
      vertex -3.68608 9.77992 11.99
      vertex -3.3951 9.88077 11.99
    endloop
  endfacet
  facet normal -0.327476 0.944859 0
    outer loop
      vertex -3.68608 9.77992 11.99
      vertex -3.3951 9.88077 10
      vertex -3.68608 9.77992 10
    endloop
  endfacet
  facet normal -0.530734 0.847538 0
    outer loop
      vertex -3.12677 10.0488 10
      vertex -3.3951 9.88077 11.99
      vertex -3.12677 10.0488 11.99
    endloop
  endfacet
  facet normal -0.530734 0.847538 0
    outer loop
      vertex -3.3951 9.88077 11.99
      vertex -3.12677 10.0488 10
      vertex -3.3951 9.88077 10
    endloop
  endfacet
  facet normal -0.691686 0.722199 0
    outer loop
      vertex -2.88109 10.2841 10
      vertex -3.12677 10.0488 11.99
      vertex -2.88109 10.2841 11.99
    endloop
  endfacet
  facet normal -0.691686 0.722199 0
    outer loop
      vertex -3.12677 10.0488 11.99
      vertex -2.88109 10.2841 10
      vertex -3.12677 10.0488 10
    endloop
  endfacet
  facet normal -0.808281 0.588796 0
    outer loop
      vertex -2.88109 10.2841 10
      vertex -2.67603 10.5656 11.99
      vertex -2.67603 10.5656 10
    endloop
  endfacet
  facet normal -0.808281 0.588796 0
    outer loop
      vertex -2.67603 10.5656 11.99
      vertex -2.88109 10.2841 10
      vertex -2.88109 10.2841 11.99
    endloop
  endfacet
  facet normal -0.902268 0.431175 0
    outer loop
      vertex -2.67603 10.5656 10
      vertex -2.52956 10.8721 11.99
      vertex -2.52956 10.8721 10
    endloop
  endfacet
  facet normal -0.902268 0.431175 0
    outer loop
      vertex -2.52956 10.8721 11.99
      vertex -2.67603 10.5656 10
      vertex -2.67603 10.5656 11.99
    endloop
  endfacet
  facet normal -0.966604 0.256274 0
    outer loop
      vertex -2.52956 10.8721 10
      vertex -2.44167 11.2036 11.99
      vertex -2.44167 11.2036 10
    endloop
  endfacet
  facet normal -0.966604 0.256274 0
    outer loop
      vertex -2.44167 11.2036 11.99
      vertex -2.52956 10.8721 10
      vertex -2.52956 10.8721 11.99
    endloop
  endfacet
  facet normal -0.996641 0.0818889 0
    outer loop
      vertex -2.44167 11.2036 10
      vertex -2.41237 11.5602 11.99
      vertex -2.41237 11.5602 10
    endloop
  endfacet
  facet normal -0.996641 0.0818889 0
    outer loop
      vertex -2.41237 11.5602 11.99
      vertex -2.44167 11.2036 10
      vertex -2.44167 11.2036 11.99
    endloop
  endfacet
  facet normal -0.997111 -0.0759629 0
    outer loop
      vertex -2.41237 11.5602 10
      vertex -2.44167 11.9448 11.99
      vertex -2.44167 11.9448 10
    endloop
  endfacet
  facet normal -0.997111 -0.0759629 0
    outer loop
      vertex -2.44167 11.9448 11.99
      vertex -2.41237 11.5602 10
      vertex -2.41237 11.5602 11.99
    endloop
  endfacet
  facet normal -0.970439 -0.241347 0
    outer loop
      vertex -2.44167 11.9448 10
      vertex -2.52956 12.2982 11.99
      vertex -2.52956 12.2982 10
    endloop
  endfacet
  facet normal -0.970439 -0.241347 0
    outer loop
      vertex -2.52956 12.2982 11.99
      vertex -2.44167 11.9448 10
      vertex -2.44167 11.9448 11.99
    endloop
  endfacet
  facet normal -0.910302 -0.413946 0
    outer loop
      vertex -2.52956 12.2982 10
      vertex -2.67603 12.6203 11.99
      vertex -2.67603 12.6203 10
    endloop
  endfacet
  facet normal -0.910302 -0.413946 0
    outer loop
      vertex -2.67603 12.6203 11.99
      vertex -2.52956 12.2982 10
      vertex -2.52956 12.2982 11.99
    endloop
  endfacet
  facet normal -0.817247 -0.576288 0
    outer loop
      vertex -2.67603 12.6203 10
      vertex -2.88109 12.9111 11.99
      vertex -2.88109 12.9111 10
    endloop
  endfacet
  facet normal -0.817247 -0.576288 0
    outer loop
      vertex -2.88109 12.9111 11.99
      vertex -2.67603 12.6203 10
      vertex -2.67603 12.6203 11.99
    endloop
  endfacet
  facet normal -0.695445 -0.718579 0
    outer loop
      vertex -3.1299 13.1519 10
      vertex -2.88109 12.9111 11.99
      vertex -3.1299 13.1519 11.99
    endloop
  endfacet
  facet normal -0.695445 -0.718579 -0
    outer loop
      vertex -2.88109 12.9111 11.99
      vertex -3.1299 13.1519 10
      vertex -2.88109 12.9111 10
    endloop
  endfacet
  facet normal -0.526541 -0.85015 0
    outer loop
      vertex -3.40761 13.3239 10
      vertex -3.1299 13.1519 11.99
      vertex -3.40761 13.3239 11.99
    endloop
  endfacet
  facet normal -0.526541 -0.85015 -0
    outer loop
      vertex -3.1299 13.1519 11.99
      vertex -3.40761 13.3239 10
      vertex -3.1299 13.1519 10
    endloop
  endfacet
  facet normal -0.318999 -0.947755 0
    outer loop
      vertex -3.71422 13.4271 10
      vertex -3.40761 13.3239 11.99
      vertex -3.71422 13.4271 11.99
    endloop
  endfacet
  facet normal -0.318999 -0.947755 -0
    outer loop
      vertex -3.40761 13.3239 11.99
      vertex -3.71422 13.4271 10
      vertex -3.40761 13.3239 10
    endloop
  endfacet
  facet normal -0.10199 -0.994785 0
    outer loop
      vertex -4.04975 13.4615 10
      vertex -3.71422 13.4271 11.99
      vertex -4.04975 13.4615 11.99
    endloop
  endfacet
  facet normal -0.10199 -0.994785 -0
    outer loop
      vertex -3.71422 13.4271 11.99
      vertex -4.04975 13.4615 10
      vertex -3.71422 13.4271 10
    endloop
  endfacet
  facet normal 0.0881682 -0.996106 0
    outer loop
      vertex -4.40676 13.4299 10
      vertex -4.04975 13.4615 11.99
      vertex -4.40676 13.4299 11.99
    endloop
  endfacet
  facet normal 0.0881682 -0.996106 0
    outer loop
      vertex -4.04975 13.4615 11.99
      vertex -4.40676 13.4299 10
      vertex -4.04975 13.4615 10
    endloop
  endfacet
  facet normal 0.283726 -0.958905 0
    outer loop
      vertex -4.72783 13.3349 10
      vertex -4.40676 13.4299 11.99
      vertex -4.72783 13.3349 11.99
    endloop
  endfacet
  facet normal 0.283726 -0.958905 0
    outer loop
      vertex -4.40676 13.4299 11.99
      vertex -4.72783 13.3349 10
      vertex -4.40676 13.4299 10
    endloop
  endfacet
  facet normal 0.48563 -0.874165 0
    outer loop
      vertex -5.01296 13.1765 10
      vertex -4.72783 13.3349 11.99
      vertex -5.01296 13.1765 11.99
    endloop
  endfacet
  facet normal 0.48563 -0.874165 0
    outer loop
      vertex -4.72783 13.3349 11.99
      vertex -5.01296 13.1765 10
      vertex -4.72783 13.3349 10
    endloop
  endfacet
  facet normal 0.664557 -0.747237 0
    outer loop
      vertex -5.26213 12.9549 10
      vertex -5.01296 13.1765 11.99
      vertex -5.26213 12.9549 11.99
    endloop
  endfacet
  facet normal 0.664557 -0.747237 0
    outer loop
      vertex -5.01296 13.1765 11.99
      vertex -5.26213 12.9549 10
      vertex -5.01296 13.1765 10
    endloop
  endfacet
  facet normal 0.79327 -0.60887 0
    outer loop
      vertex -5.48088 12.6699 11.99
      vertex -5.26213 12.9549 10
      vertex -5.26213 12.9549 11.99
    endloop
  endfacet
  facet normal 0.79327 -0.60887 0
    outer loop
      vertex -5.26213 12.9549 10
      vertex -5.48088 12.6699 11.99
      vertex -5.48088 12.6699 10
    endloop
  endfacet
  facet normal 0.873902 -0.486103 0
    outer loop
      vertex -5.67462 12.3216 11.99
      vertex -5.48088 12.6699 10
      vertex -5.48088 12.6699 11.99
    endloop
  endfacet
  facet normal 0.873902 -0.486103 0
    outer loop
      vertex -5.48088 12.6699 10
      vertex -5.67462 12.3216 11.99
      vertex -5.67462 12.3216 10
    endloop
  endfacet
  facet normal 0.925265 -0.379322 0
    outer loop
      vertex -5.84336 11.91 11.99
      vertex -5.67462 12.3216 10
      vertex -5.67462 12.3216 11.99
    endloop
  endfacet
  facet normal 0.925265 -0.379322 0
    outer loop
      vertex -5.67462 12.3216 10
      vertex -5.84336 11.91 11.99
      vertex -5.84336 11.91 10
    endloop
  endfacet
  facet normal 0.95713 -0.289658 0
    outer loop
      vertex -5.98708 11.4351 11.99
      vertex -5.84336 11.91 10
      vertex -5.84336 11.91 11.99
    endloop
  endfacet
  facet normal 0.95713 -0.289658 0
    outer loop
      vertex -5.84336 11.91 10
      vertex -5.98708 11.4351 11.99
      vertex -5.98708 11.4351 10
    endloop
  endfacet
  facet normal 0.874641 0.484771 0
    outer loop
      vertex -5.89452 11.2681 11.99
      vertex -5.98708 11.4351 10
      vertex -5.98708 11.4351 11.99
    endloop
  endfacet
  facet normal 0.874641 0.484771 0
    outer loop
      vertex -5.98708 11.4351 10
      vertex -5.89452 11.2681 11.99
      vertex -5.89452 11.2681 10
    endloop
  endfacet
  facet normal 0.876069 0.482186 0
    outer loop
      vertex -5.86678 11.2177 11.99
      vertex -5.89452 11.2681 10
      vertex -5.89452 11.2681 11.99
    endloop
  endfacet
  facet normal 0.876069 0.482186 0
    outer loop
      vertex -5.89452 11.2681 10
      vertex -5.86678 11.2177 11.99
      vertex -5.86678 11.2177 10
    endloop
  endfacet
  facet normal 0.877527 0.479526 0
    outer loop
      vertex -5.84137 11.1712 11.99
      vertex -5.86678 11.2177 10
      vertex -5.86678 11.2177 11.99
    endloop
  endfacet
  facet normal 0.877527 0.479526 0
    outer loop
      vertex -5.86678 11.2177 10
      vertex -5.84137 11.1712 11.99
      vertex -5.84137 11.1712 10
    endloop
  endfacet
  facet normal 0.88006 0.474862 0
    outer loop
      vertex -5.81833 11.1285 11.99
      vertex -5.84137 11.1712 10
      vertex -5.84137 11.1712 11.99
    endloop
  endfacet
  facet normal 0.88006 0.474862 0
    outer loop
      vertex -5.84137 11.1712 10
      vertex -5.81833 11.1285 11.99
      vertex -5.81833 11.1285 10
    endloop
  endfacet
  facet normal 0.873781 0.48632 0
    outer loop
      vertex -5.79334 11.0836 11.99
      vertex -5.81833 11.1285 10
      vertex -5.81833 11.1285 11.99
    endloop
  endfacet
  facet normal 0.873781 0.48632 0
    outer loop
      vertex -5.81833 11.1285 10
      vertex -5.79334 11.0836 11.99
      vertex -5.79334 11.0836 10
    endloop
  endfacet
  facet normal 0.863896 0.503671 0
    outer loop
      vertex -5.76209 11.03 11.99
      vertex -5.79334 11.0836 10
      vertex -5.79334 11.0836 11.99
    endloop
  endfacet
  facet normal 0.863896 0.503671 0
    outer loop
      vertex -5.79334 11.0836 10
      vertex -5.76209 11.03 11.99
      vertex -5.76209 11.03 10
    endloop
  endfacet
  facet normal 0.855969 0.517027 0
    outer loop
      vertex -5.72458 10.9679 11.99
      vertex -5.76209 11.03 10
      vertex -5.76209 11.03 11.99
    endloop
  endfacet
  facet normal 0.855969 0.517027 0
    outer loop
      vertex -5.76209 11.03 10
      vertex -5.72458 10.9679 11.99
      vertex -5.72458 10.9679 10
    endloop
  endfacet
  facet normal 0.850634 0.525759 0
    outer loop
      vertex -5.68082 10.8971 11.99
      vertex -5.72458 10.9679 10
      vertex -5.72458 10.9679 11.99
    endloop
  endfacet
  facet normal 0.850634 0.525759 0
    outer loop
      vertex -5.72458 10.9679 10
      vertex -5.68082 10.8971 11.99
      vertex -5.68082 10.8971 10
    endloop
  endfacet
  facet normal 0.840524 0.541774 0
    outer loop
      vertex -5.63396 10.8244 11.99
      vertex -5.68082 10.8971 10
      vertex -5.68082 10.8971 11.99
    endloop
  endfacet
  facet normal 0.840524 0.541774 0
    outer loop
      vertex -5.68082 10.8971 10
      vertex -5.63396 10.8244 11.99
      vertex -5.63396 10.8244 10
    endloop
  endfacet
  facet normal 0.82342 0.567433 0
    outer loop
      vertex -5.5871 10.7564 11.99
      vertex -5.63396 10.8244 10
      vertex -5.63396 10.8244 11.99
    endloop
  endfacet
  facet normal 0.82342 0.567433 0
    outer loop
      vertex -5.63396 10.8244 10
      vertex -5.5871 10.7564 11.99
      vertex -5.5871 10.7564 10
    endloop
  endfacet
  facet normal 0.803672 0.595073 0
    outer loop
      vertex -5.54023 10.6931 11.99
      vertex -5.5871 10.7564 10
      vertex -5.5871 10.7564 11.99
    endloop
  endfacet
  facet normal 0.803672 0.595073 0
    outer loop
      vertex -5.5871 10.7564 10
      vertex -5.54023 10.6931 11.99
      vertex -5.54023 10.6931 10
    endloop
  endfacet
  facet normal 0.781258 0.624208 0
    outer loop
      vertex -5.49333 10.6344 11.99
      vertex -5.54023 10.6931 10
      vertex -5.54023 10.6931 11.99
    endloop
  endfacet
  facet normal 0.781258 0.624208 0
    outer loop
      vertex -5.54023 10.6931 10
      vertex -5.49333 10.6344 11.99
      vertex -5.49333 10.6344 10
    endloop
  endfacet
  facet normal 0.76634 0.642435 0
    outer loop
      vertex -5.44454 10.5762 11.99
      vertex -5.49333 10.6344 10
      vertex -5.49333 10.6344 11.99
    endloop
  endfacet
  facet normal 0.76634 0.642435 0
    outer loop
      vertex -5.49333 10.6344 10
      vertex -5.44454 10.5762 11.99
      vertex -5.44454 10.5762 10
    endloop
  endfacet
  facet normal 0.762846 0.64658 0
    outer loop
      vertex -5.39182 10.514 11.99
      vertex -5.44454 10.5762 10
      vertex -5.44454 10.5762 11.99
    endloop
  endfacet
  facet normal 0.762846 0.64658 0
    outer loop
      vertex -5.44454 10.5762 10
      vertex -5.39182 10.514 11.99
      vertex -5.39182 10.514 10
    endloop
  endfacet
  facet normal 0.758924 0.65118 0
    outer loop
      vertex -5.33519 10.448 11.99
      vertex -5.39182 10.514 10
      vertex -5.39182 10.514 11.99
    endloop
  endfacet
  facet normal 0.758924 0.65118 0
    outer loop
      vertex -5.39182 10.514 10
      vertex -5.33519 10.448 11.99
      vertex -5.33519 10.448 10
    endloop
  endfacet
  facet normal 0.756366 0.654149 0
    outer loop
      vertex -5.27465 10.378 11.99
      vertex -5.33519 10.448 10
      vertex -5.33519 10.448 11.99
    endloop
  endfacet
  facet normal 0.756366 0.654149 0
    outer loop
      vertex -5.33519 10.448 10
      vertex -5.27465 10.378 11.99
      vertex -5.27465 10.378 10
    endloop
  endfacet
  facet normal 0.737376 0.675483 0
    outer loop
      vertex -5.21135 10.3089 11.99
      vertex -5.27465 10.378 10
      vertex -5.27465 10.378 11.99
    endloop
  endfacet
  facet normal 0.737376 0.675483 0
    outer loop
      vertex -5.27465 10.378 10
      vertex -5.21135 10.3089 11.99
      vertex -5.21135 10.3089 10
    endloop
  endfacet
  facet normal 0.701312 0.712854 -0
    outer loop
      vertex -5.1465 10.2451 10
      vertex -5.21135 10.3089 11.99
      vertex -5.1465 10.2451 11.99
    endloop
  endfacet
  facet normal 0.701312 0.712854 0
    outer loop
      vertex -5.21135 10.3089 11.99
      vertex -5.1465 10.2451 10
      vertex -5.21135 10.3089 10
    endloop
  endfacet
  facet normal 0.659146 0.752015 -0
    outer loop
      vertex -5.0801 10.1869 10
      vertex -5.1465 10.2451 11.99
      vertex -5.0801 10.1869 11.99
    endloop
  endfacet
  facet normal 0.659146 0.752015 0
    outer loop
      vertex -5.1465 10.2451 11.99
      vertex -5.0801 10.1869 10
      vertex -5.1465 10.2451 10
    endloop
  endfacet
  facet normal 0.61341 0.789765 -0
    outer loop
      vertex -5.01212 10.1341 10
      vertex -5.0801 10.1869 11.99
      vertex -5.01212 10.1341 11.99
    endloop
  endfacet
  facet normal 0.61341 0.789765 0
    outer loop
      vertex -5.0801 10.1869 11.99
      vertex -5.01212 10.1341 10
      vertex -5.0801 10.1869 10
    endloop
  endfacet
  facet normal 0.578697 0.815543 -0
    outer loop
      vertex -4.94222 10.0845 10
      vertex -5.01212 10.1341 11.99
      vertex -4.94222 10.0845 11.99
    endloop
  endfacet
  facet normal 0.578697 0.815543 0
    outer loop
      vertex -5.01212 10.1341 11.99
      vertex -4.94222 10.0845 10
      vertex -5.01212 10.1341 10
    endloop
  endfacet
  facet normal 0.560559 0.828114 -0
    outer loop
      vertex -4.86998 10.0356 10
      vertex -4.94222 10.0845 11.99
      vertex -4.86998 10.0356 11.99
    endloop
  endfacet
  facet normal 0.560559 0.828114 0
    outer loop
      vertex -4.94222 10.0845 11.99
      vertex -4.86998 10.0356 10
      vertex -4.94222 10.0845 10
    endloop
  endfacet
  facet normal 0.541896 0.840446 -0
    outer loop
      vertex -4.79538 9.9875 10
      vertex -4.86998 10.0356 11.99
      vertex -4.79538 9.9875 11.99
    endloop
  endfacet
  facet normal 0.541896 0.840446 0
    outer loop
      vertex -4.86998 10.0356 11.99
      vertex -4.79538 9.9875 10
      vertex -4.86998 10.0356 10
    endloop
  endfacet
  facet normal 0.524005 0.851715 -0
    outer loop
      vertex -4.71845 9.94017 10
      vertex -4.79538 9.9875 11.99
      vertex -4.71845 9.94017 11.99
    endloop
  endfacet
  facet normal 0.524005 0.851715 0
    outer loop
      vertex -4.79538 9.9875 11.99
      vertex -4.71845 9.94017 10
      vertex -4.79538 9.9875 10
    endloop
  endfacet
  facet normal 0.482892 0.87568 -0
    outer loop
      vertex -4.63837 9.89601 10
      vertex -4.71845 9.94017 11.99
      vertex -4.63837 9.89601 11.99
    endloop
  endfacet
  facet normal 0.482892 0.87568 0
    outer loop
      vertex -4.71845 9.94017 11.99
      vertex -4.63837 9.89601 10
      vertex -4.71845 9.94017 10
    endloop
  endfacet
  facet normal 0.418386 0.908269 -0
    outer loop
      vertex -4.5544 9.85733 10
      vertex -4.63837 9.89601 11.99
      vertex -4.5544 9.85733 11.99
    endloop
  endfacet
  facet normal 0.418386 0.908269 0
    outer loop
      vertex -4.63837 9.89601 11.99
      vertex -4.5544 9.85733 10
      vertex -4.63837 9.89601 10
    endloop
  endfacet
  facet normal 0.35356 0.935412 -0
    outer loop
      vertex -4.46651 9.82411 10
      vertex -4.5544 9.85733 11.99
      vertex -4.46651 9.82411 11.99
    endloop
  endfacet
  facet normal 0.35356 0.935412 0
    outer loop
      vertex -4.5544 9.85733 11.99
      vertex -4.46651 9.82411 10
      vertex -4.5544 9.85733 10
    endloop
  endfacet
  facet normal 0.289414 0.957204 -0
    outer loop
      vertex -4.37473 9.79636 10
      vertex -4.46651 9.82411 11.99
      vertex -4.37473 9.79636 11.99
    endloop
  endfacet
  facet normal 0.289414 0.957204 0
    outer loop
      vertex -4.46651 9.82411 11.99
      vertex -4.37473 9.79636 10
      vertex -4.46651 9.82411 10
    endloop
  endfacet
  facet normal 0.227499 0.973778 -0
    outer loop
      vertex -4.28099 9.77446 10
      vertex -4.37473 9.79636 11.99
      vertex -4.28099 9.77446 11.99
    endloop
  endfacet
  facet normal 0.227499 0.973778 0
    outer loop
      vertex -4.37473 9.79636 11.99
      vertex -4.28099 9.77446 10
      vertex -4.37473 9.79636 10
    endloop
  endfacet
  facet normal 0.164553 0.986368 -0
    outer loop
      vertex -4.18724 9.75882 10
      vertex -4.28099 9.77446 11.99
      vertex -4.18724 9.75882 11.99
    endloop
  endfacet
  facet normal 0.164553 0.986368 0
    outer loop
      vertex -4.28099 9.77446 11.99
      vertex -4.18724 9.75882 10
      vertex -4.28099 9.77446 10
    endloop
  endfacet
  facet normal 0.0995457 0.995033 -0
    outer loop
      vertex -4.09348 9.74944 10
      vertex -4.18724 9.75882 11.99
      vertex -4.09348 9.74944 11.99
    endloop
  endfacet
  facet normal 0.0995457 0.995033 0
    outer loop
      vertex -4.18724 9.75882 11.99
      vertex -4.09348 9.74944 10
      vertex -4.18724 9.75882 10
    endloop
  endfacet
  facet normal 0.0333574 0.999443 -0
    outer loop
      vertex -3.9997 9.74631 10
      vertex -4.09348 9.74944 11.99
      vertex -3.9997 9.74631 11.99
    endloop
  endfacet
  facet normal 0.0333574 0.999443 0
    outer loop
      vertex -4.09348 9.74944 11.99
      vertex -3.9997 9.74631 10
      vertex -4.09348 9.74944 10
    endloop
  endfacet
  facet normal -0.106558 0.994307 0
    outer loop
      vertex -3.68608 9.77992 10
      vertex -3.9997 9.74631 11.99
      vertex -3.68608 9.77992 11.99
    endloop
  endfacet
  facet normal -0.106558 0.994307 0
    outer loop
      vertex -3.9997 9.74631 11.99
      vertex -3.68608 9.77992 10
      vertex -3.9997 9.74631 10
    endloop
  endfacet
endsolid OpenSCAD_Model
