solid OpenSCAD_Model
  facet normal 0 0 1
    outer loop
      vertex -1.9999 7.34988 10
      vertex -2.4686 6.78049 10
      vertex -1.9999 6.25 10
    endloop
  endfacet
  facet normal 0 0 1
    outer loop
      vertex -0.496036 6.62123 10
      vertex 0 14.5 10
      vertex -0.496036 13.4364 10
    endloop
  endfacet
  facet normal 0 0 1
    outer loop
      vertex 0 14.5 10
      vertex -0.496036 6.62123 10
      vertex -0.474948 6.51126 10
    endloop
  endfacet
  facet normal -0 0 1
    outer loop
      vertex -0.559314 13.3543 10
      vertex -0.496036 6.62123 10
      vertex -0.496036 13.4364 10
    endloop
  endfacet
  facet normal 0 0 1
    outer loop
      vertex -0.559314 13.3543 10
      vertex -0.559314 6.69978 10
      vertex -0.496036 6.62123 10
    endloop
  endfacet
  facet normal -0 0 1
    outer loop
      vertex -0.664783 13.3051 10
      vertex -0.559314 6.69978 10
      vertex -0.559314 13.3543 10
    endloop
  endfacet
  facet normal 0 0 1
    outer loop
      vertex -0.664783 13.3051 10
      vertex -0.664783 6.74692 10
      vertex -0.559314 6.69978 10
    endloop
  endfacet
  facet normal -0 0 1
    outer loop
      vertex -0.812442 13.2887 10
      vertex -0.664783 6.74692 10
      vertex -0.664783 13.3051 10
    endloop
  endfacet
  facet normal 0 0 1
    outer loop
      vertex -0.812442 13.2887 10
      vertex -0.812442 6.76263 10
      vertex -0.664783 6.74692 10
    endloop
  endfacet
  facet normal -0 0 1
    outer loop
      vertex -1.48744 13.2887 10
      vertex -0.812442 6.76263 10
      vertex -0.812442 13.2887 10
    endloop
  endfacet
  facet normal 0 0 1
    outer loop
      vertex -0.812442 6.76263 10
      vertex -1.48744 13.2887 10
      vertex -1.48744 6.76263 10
    endloop
  endfacet
  facet normal 0 0 1
    outer loop
      vertex -0.496036 13.4364 10
      vertex 0 14.5 10
      vertex -0.474948 13.5512 10
    endloop
  endfacet
  facet normal 0 0 1
    outer loop
      vertex 0 14.5 10
      vertex -0.496036 13.6607 10
      vertex -0.474948 13.5512 10
    endloop
  endfacet
  facet normal 0 0 1
    outer loop
      vertex 0 14.5 10
      vertex -0.559314 13.7388 10
      vertex -0.496036 13.6607 10
    endloop
  endfacet
  facet normal 0 0 1
    outer loop
      vertex 0 14.5 10
      vertex -0.664783 13.7857 10
      vertex -0.559314 13.7388 10
    endloop
  endfacet
  facet normal 0 0 1
    outer loop
      vertex 0 14.5 10
      vertex -0.812442 13.8013 10
      vertex -0.664783 13.7857 10
    endloop
  endfacet
  facet normal 0 0 1
    outer loop
      vertex 0 14.5 10
      vertex -1.9999 13.8013 10
      vertex -0.812442 13.8013 10
    endloop
  endfacet
  facet normal 0 0 1
    outer loop
      vertex -1.9999 13.8013 10
      vertex -2.48267 10.9115 10
      vertex -1.9999 10.3483 10
    endloop
  endfacet
  facet normal 0 0 1
    outer loop
      vertex -1.9999 13.8013 10
      vertex -3.01857 11.3138 10
      vertex -2.48267 10.9115 10
    endloop
  endfacet
  facet normal 0 0 1
    outer loop
      vertex -1.9999 13.8013 10
      vertex -3.60758 11.5551 10
      vertex -3.01857 11.3138 10
    endloop
  endfacet
  facet normal 0 0 1
    outer loop
      vertex -1.9999 13.8013 10
      vertex -4.24973 11.6356 10
      vertex -3.60758 11.5551 10
    endloop
  endfacet
  facet normal 0 0 1
    outer loop
      vertex -1.9999 13.8013 10
      vertex -4.79656 11.5856 10
      vertex -4.24973 11.6356 10
    endloop
  endfacet
  facet normal 0 0 1
    outer loop
      vertex -8 14.5 10
      vertex -4.79656 11.5856 10
      vertex -1.9999 13.8013 10
    endloop
  endfacet
  facet normal 0 0 1
    outer loop
      vertex -4.79656 11.5856 10
      vertex -8 14.5 10
      vertex -5.29964 11.4357 10
    endloop
  endfacet
  facet normal 0 0 1
    outer loop
      vertex -6.91283 9.43242 10
      vertex -8 14.5 10
      vertex -6.96205 8.87404 10
    endloop
  endfacet
  facet normal 0 0 1
    outer loop
      vertex -6.76517 9.94553 10
      vertex -8 14.5 10
      vertex -6.91283 9.43242 10
    endloop
  endfacet
  facet normal 0 0 1
    outer loop
      vertex -6.51908 10.4133 10
      vertex -8 14.5 10
      vertex -6.76517 9.94553 10
    endloop
  endfacet
  facet normal 0 0 1
    outer loop
      vertex -6.17455 10.8358 10
      vertex -8 14.5 10
      vertex -6.51908 10.4133 10
    endloop
  endfacet
  facet normal 0 0 1
    outer loop
      vertex -5.75898 11.1857 10
      vertex -8 14.5 10
      vertex -6.17455 10.8358 10
    endloop
  endfacet
  facet normal 0 0 1
    outer loop
      vertex -5.29964 11.4357 10
      vertex -8 14.5 10
      vertex -5.75898 11.1857 10
    endloop
  endfacet
  facet normal -0 0 1
    outer loop
      vertex -8 14.5 10
      vertex -1.9999 13.8013 10
      vertex 0 14.5 10
    endloop
  endfacet
  facet normal 0 0 1
    outer loop
      vertex 0 14.5 10
      vertex -0.474948 6.51126 10
      vertex 0 2.5 10
    endloop
  endfacet
  facet normal -0 0 1
    outer loop
      vertex -0.496036 6.39696 10
      vertex 0 2.5 10
      vertex -0.474948 6.51126 10
    endloop
  endfacet
  facet normal -0 0 1
    outer loop
      vertex -0.559314 6.31531 10
      vertex 0 2.5 10
      vertex -0.496036 6.39696 10
    endloop
  endfacet
  facet normal -0 0 1
    outer loop
      vertex -0.664783 6.26633 10
      vertex 0 2.5 10
      vertex -0.559314 6.31531 10
    endloop
  endfacet
  facet normal -0 0 1
    outer loop
      vertex -0.812442 6.25 10
      vertex 0 2.5 10
      vertex -0.664783 6.26633 10
    endloop
  endfacet
  facet normal -0 0 1
    outer loop
      vertex -1.9999 6.25 10
      vertex 0 2.5 10
      vertex -0.812442 6.25 10
    endloop
  endfacet
  facet normal -0 0 1
    outer loop
      vertex -2.9998 6.37376 10
      vertex -1.9999 6.25 10
      vertex -2.4686 6.78049 10
    endloop
  endfacet
  facet normal 0 0 1
    outer loop
      vertex -3.59351 6.12975 10
      vertex -1.9999 6.25 10
      vertex -2.9998 6.37376 10
    endloop
  endfacet
  facet normal 0 0 1
    outer loop
      vertex -1.9999 6.25 10
      vertex -3.59351 6.12975 10
      vertex 0 2.5 10
    endloop
  endfacet
  facet normal -0 0 1
    outer loop
      vertex -4.24973 6.0484 10
      vertex 0 2.5 10
      vertex -3.59351 6.12975 10
    endloop
  endfacet
  facet normal 0 0 1
    outer loop
      vertex -8 2.5 10
      vertex -4.24973 6.0484 10
      vertex -4.79148 6.09998 10
    endloop
  endfacet
  facet normal 0 0 1
    outer loop
      vertex -8 2.5 10
      vertex -4.79148 6.09998 10
      vertex -5.29183 6.25467 10
    endloop
  endfacet
  facet normal 0 0 1
    outer loop
      vertex -8 2.5 10
      vertex -5.29183 6.25467 10
      vertex -5.75078 6.51253 10
    endloop
  endfacet
  facet normal 0 0 1
    outer loop
      vertex -8 2.5 10
      vertex -6.96205 8.87404 10
      vertex -8 14.5 10
    endloop
  endfacet
  facet normal 0 0 1
    outer loop
      vertex -4.24973 6.0484 10
      vertex -8 2.5 10
      vertex 0 2.5 10
    endloop
  endfacet
  facet normal 0 0 1
    outer loop
      vertex -6.16834 6.87352 10
      vertex -8 2.5 10
      vertex -5.75078 6.51253 10
    endloop
  endfacet
  facet normal 0 0 1
    outer loop
      vertex -6.5156 7.308 10
      vertex -8 2.5 10
      vertex -6.16834 6.87352 10
    endloop
  endfacet
  facet normal 0 0 1
    outer loop
      vertex -6.76363 7.78625 10
      vertex -8 2.5 10
      vertex -6.5156 7.308 10
    endloop
  endfacet
  facet normal 0 0 1
    outer loop
      vertex -6.91245 8.30826 10
      vertex -8 2.5 10
      vertex -6.76363 7.78625 10
    endloop
  endfacet
  facet normal 0 0 1
    outer loop
      vertex -6.96205 8.87404 10
      vertex -8 2.5 10
      vertex -6.91245 8.30826 10
    endloop
  endfacet
  facet normal -0 0 1
    outer loop
      vertex -6.40935 9.27971 10
      vertex -1.9999 8.84911 10
      vertex -2.04051 9.30589 10
    endloop
  endfacet
  facet normal 0 0 1
    outer loop
      vertex -6.40935 9.27971 10
      vertex -2.04051 9.30589 10
      vertex -2.16237 9.72676 10
    endloop
  endfacet
  facet normal 0 0 1
    outer loop
      vertex -6.44959 8.81157 10
      vertex -1.9999 8.84911 10
      vertex -6.40935 9.27971 10
    endloop
  endfacet
  facet normal 0 0 1
    outer loop
      vertex -6.40935 9.27971 10
      vertex -2.16237 9.72676 10
      vertex -2.36547 10.1117 10
    endloop
  endfacet
  facet normal 0 0 1
    outer loop
      vertex -1.9999 8.84911 10
      vertex -6.44959 8.81157 10
      vertex -2.04051 8.39186 10
    endloop
  endfacet
  facet normal 0 0 1
    outer loop
      vertex -6.40935 9.27971 10
      vertex -2.36547 10.1117 10
      vertex -2.6498 10.4607 10
    endloop
  endfacet
  facet normal 0 0 1
    outer loop
      vertex -2.04051 8.39186 10
      vertex -6.44959 8.81157 10
      vertex -2.16237 7.96965 10
    endloop
  endfacet
  facet normal 0 0 1
    outer loop
      vertex -4.2247 11.123 10
      vertex -2.6498 10.4607 10
      vertex -2.99196 10.7505 10
    endloop
  endfacet
  facet normal 0 0 1
    outer loop
      vertex -2.16237 7.96965 10
      vertex -6.44959 8.81157 10
      vertex -2.36547 7.58244 10
    endloop
  endfacet
  facet normal 0 0 1
    outer loop
      vertex -3.77942 11.0816 10
      vertex -2.99196 10.7505 10
      vertex -3.3685 10.9574 10
    endloop
  endfacet
  facet normal 0 0 1
    outer loop
      vertex -2.36547 7.58244 10
      vertex -6.44959 8.81157 10
      vertex -2.6498 7.23027 10
    endloop
  endfacet
  facet normal 0 0 1
    outer loop
      vertex -4.2247 11.123 10
      vertex -2.99196 10.7505 10
      vertex -3.77942 11.0816 10
    endloop
  endfacet
  facet normal 0 -0 1
    outer loop
      vertex -5.7934 7.22371 10
      vertex -2.6498 7.23027 10
      vertex -6.44959 8.81157 10
    endloop
  endfacet
  facet normal 0 0 1
    outer loop
      vertex -2.6498 10.4607 10
      vertex -4.2247 11.123 10
      vertex -6.40935 9.27971 10
    endloop
  endfacet
  facet normal 0 0 1
    outer loop
      vertex -2.6498 7.23027 10
      vertex -5.7934 7.22371 10
      vertex -2.99196 6.93748 10
    endloop
  endfacet
  facet normal 0 0 1
    outer loop
      vertex -2.99196 6.93748 10
      vertex -3.77942 6.60286 10
      vertex -3.3685 6.72835 10
    endloop
  endfacet
  facet normal 0 0 1
    outer loop
      vertex -5.80582 10.4545 10
      vertex -4.2247 11.123 10
      vertex -4.67507 11.0812 10
    endloop
  endfacet
  facet normal 0 0 1
    outer loop
      vertex -4.2247 6.56104 10
      vertex -5.7934 7.22371 10
      vertex -4.66494 6.60245 10
    endloop
  endfacet
  facet normal 0 0 1
    outer loop
      vertex -5.80582 10.4545 10
      vertex -4.67507 11.0812 10
      vertex -5.0887 10.9558 10
    endloop
  endfacet
  facet normal 0 0 1
    outer loop
      vertex -4.66494 6.60245 10
      vertex -5.44928 6.93378 10
      vertex -5.07314 6.7267 10
    endloop
  endfacet
  facet normal 0 0 1
    outer loop
      vertex -5.80582 10.4545 10
      vertex -5.0887 10.9558 10
      vertex -5.46562 10.747 10
    endloop
  endfacet
  facet normal 0 0 1
    outer loop
      vertex -4.66494 6.60245 10
      vertex -5.7934 7.22371 10
      vertex -5.44928 6.93378 10
    endloop
  endfacet
  facet normal 0 0 1
    outer loop
      vertex -4.2247 11.123 10
      vertex -5.80582 10.4545 10
      vertex -6.40935 9.27971 10
    endloop
  endfacet
  facet normal 0 0 1
    outer loop
      vertex -2.99196 6.93748 10
      vertex -4.2247 6.56104 10
      vertex -3.77942 6.60286 10
    endloop
  endfacet
  facet normal 0 0 1
    outer loop
      vertex -6.40935 9.27971 10
      vertex -5.80582 10.4545 10
      vertex -6.08747 10.1012 10
    endloop
  endfacet
  facet normal 0 0 1
    outer loop
      vertex -2.99196 6.93748 10
      vertex -5.7934 7.22371 10
      vertex -4.2247 6.56104 10
    endloop
  endfacet
  facet normal 0 0 1
    outer loop
      vertex -6.40935 9.27971 10
      vertex -6.08747 10.1012 10
      vertex -6.28865 9.70956 10
    endloop
  endfacet
  facet normal 0 0 1
    outer loop
      vertex -5.7934 7.22371 10
      vertex -6.44959 8.81157 10
      vertex -6.08048 7.57144 10
    endloop
  endfacet
  facet normal 0 0 1
    outer loop
      vertex -6.08048 7.57144 10
      vertex -6.44959 8.81157 10
      vertex -6.28554 7.95201 10
    endloop
  endfacet
  facet normal 0 0 1
    outer loop
      vertex -6.28554 7.95201 10
      vertex -6.44959 8.81157 10
      vertex -6.40859 8.36539 10
    endloop
  endfacet
  facet normal -1 0 0
    outer loop
      vertex -8 0 3
      vertex -8 17 3
      vertex -8 17 0
    endloop
  endfacet
  facet normal -1 0 0
    outer loop
      vertex -8 17 3
      vertex -8 0 3
      vertex -8 14.5 10
    endloop
  endfacet
  facet normal -1 0 0
    outer loop
      vertex -8 0 3
      vertex -8 17 0
      vertex -8 0 0
    endloop
  endfacet
  facet normal -1 -0 0
    outer loop
      vertex -8 14.5 10
      vertex -8 0 3
      vertex -8 2.5 10
    endloop
  endfacet
  facet normal 0 1 -0
    outer loop
      vertex 0 17 0
      vertex -8 17 3
      vertex 0 17 3
    endloop
  endfacet
  facet normal 0 1 0
    outer loop
      vertex -8 17 3
      vertex 0 17 0
      vertex -8 17 0
    endloop
  endfacet
  facet normal 0 0 -1
    outer loop
      vertex -8 0 0
      vertex 0 17 0
      vertex 0 0 0
    endloop
  endfacet
  facet normal -0 0 -1
    outer loop
      vertex 0 17 0
      vertex -8 0 0
      vertex -8 17 0
    endloop
  endfacet
  facet normal 1 0 0
    outer loop
      vertex 0 0 3
      vertex 0 17 3
      vertex 0 14.5 10
    endloop
  endfacet
  facet normal 1 0 0
    outer loop
      vertex 0 0 3
      vertex 0 14.5 10
      vertex 0 2.5 10
    endloop
  endfacet
  facet normal 1 0 0
    outer loop
      vertex 0 17 3
      vertex 0 0 3
      vertex 0 17 0
    endloop
  endfacet
  facet normal 1 0 0
    outer loop
      vertex 0 17 0
      vertex 0 0 3
      vertex 0 0 0
    endloop
  endfacet
  facet normal 0 -0.941742 0.336336
    outer loop
      vertex -8 0 3
      vertex 0 2.5 10
      vertex -8 2.5 10
    endloop
  endfacet
  facet normal 0 -0.941742 0.336336
    outer loop
      vertex 0 2.5 10
      vertex -8 0 3
      vertex 0 0 3
    endloop
  endfacet
  facet normal 0 -1 0
    outer loop
      vertex -8 0 0
      vertex 0 0 3
      vertex -8 0 3
    endloop
  endfacet
  facet normal 0 -1 -0
    outer loop
      vertex 0 0 3
      vertex -8 0 0
      vertex 0 0 0
    endloop
  endfacet
  facet normal 0 0.941742 0.336336
    outer loop
      vertex 0 17 3
      vertex -8 14.5 10
      vertex 0 14.5 10
    endloop
  endfacet
  facet normal 0 0.941742 0.336336
    outer loop
      vertex -8 14.5 10
      vertex 0 17 3
      vertex -8 17 3
    endloop
  endfacet
  facet normal 0 0 1
    outer loop
      vertex -0.559314 13.7388 11.99
      vertex -0.474948 13.5512 11.99
      vertex -0.496036 13.6607 11.99
    endloop
  endfacet
  facet normal 0 0 1
    outer loop
      vertex -0.474948 13.5512 11.99
      vertex -0.559314 13.7388 11.99
      vertex -0.664783 13.7857 11.99
    endloop
  endfacet
  facet normal 0 0 1
    outer loop
      vertex -0.664783 13.3051 11.99
      vertex -0.474948 13.5512 11.99
      vertex -0.664783 13.7857 11.99
    endloop
  endfacet
  facet normal 0 0 1
    outer loop
      vertex -0.474948 13.5512 11.99
      vertex -0.664783 13.3051 11.99
      vertex -0.496036 13.4364 11.99
    endloop
  endfacet
  facet normal 0 0 1
    outer loop
      vertex -0.496036 13.4364 11.99
      vertex -0.664783 13.3051 11.99
      vertex -0.559314 13.3543 11.99
    endloop
  endfacet
  facet normal 0 0 1
    outer loop
      vertex -0.812442 13.8013 11.99
      vertex -0.664783 13.3051 11.99
      vertex -0.664783 13.7857 11.99
    endloop
  endfacet
  facet normal 0 0 1
    outer loop
      vertex -0.812442 13.8013 11.99
      vertex -0.812442 13.2887 11.99
      vertex -0.664783 13.3051 11.99
    endloop
  endfacet
  facet normal 0 0 1
    outer loop
      vertex -0.812442 13.8013 11.99
      vertex -1.48744 13.2887 11.99
      vertex -0.812442 13.2887 11.99
    endloop
  endfacet
  facet normal 0 0 1
    outer loop
      vertex -1.9999 10.3483 11.99
      vertex -1.48744 13.2887 11.99
      vertex -1.9999 13.8013 11.99
    endloop
  endfacet
  facet normal -0 0 1
    outer loop
      vertex -1.9999 13.8013 11.99
      vertex -1.48744 13.2887 11.99
      vertex -0.812442 13.8013 11.99
    endloop
  endfacet
  facet normal 0 0 1
    outer loop
      vertex -0.559314 6.69978 11.99
      vertex -0.474948 6.51126 11.99
      vertex -0.496036 6.62123 11.99
    endloop
  endfacet
  facet normal 0 0 1
    outer loop
      vertex -0.474948 6.51126 11.99
      vertex -0.559314 6.69978 11.99
      vertex -0.664783 6.74692 11.99
    endloop
  endfacet
  facet normal 0 0 1
    outer loop
      vertex -0.664783 6.26633 11.99
      vertex -0.474948 6.51126 11.99
      vertex -0.664783 6.74692 11.99
    endloop
  endfacet
  facet normal 0 0 1
    outer loop
      vertex -0.474948 6.51126 11.99
      vertex -0.664783 6.26633 11.99
      vertex -0.496036 6.39696 11.99
    endloop
  endfacet
  facet normal 0 0 1
    outer loop
      vertex -0.496036 6.39696 11.99
      vertex -0.664783 6.26633 11.99
      vertex -0.559314 6.31531 11.99
    endloop
  endfacet
  facet normal 0 0 1
    outer loop
      vertex -0.812442 6.76263 11.99
      vertex -0.664783 6.26633 11.99
      vertex -0.664783 6.74692 11.99
    endloop
  endfacet
  facet normal 0 0 1
    outer loop
      vertex -0.812442 6.76263 11.99
      vertex -0.812442 6.25 11.99
      vertex -0.664783 6.26633 11.99
    endloop
  endfacet
  facet normal -0 0 1
    outer loop
      vertex -1.48744 6.76263 11.99
      vertex -0.812442 6.25 11.99
      vertex -0.812442 6.76263 11.99
    endloop
  endfacet
  facet normal 0 0 1
    outer loop
      vertex -1.48744 13.2887 11.99
      vertex -1.9999 10.3483 11.99
      vertex -1.48744 6.76263 11.99
    endloop
  endfacet
  facet normal -0 0 1
    outer loop
      vertex -1.9999 8.84911 11.99
      vertex -1.48744 6.76263 11.99
      vertex -1.9999 10.3483 11.99
    endloop
  endfacet
  facet normal -0 0 1
    outer loop
      vertex -2.04051 8.39186 11.99
      vertex -1.48744 6.76263 11.99
      vertex -1.9999 8.84911 11.99
    endloop
  endfacet
  facet normal 0 0 1
    outer loop
      vertex -1.48744 6.76263 11.99
      vertex -1.9999 6.25 11.99
      vertex -0.812442 6.25 11.99
    endloop
  endfacet
  facet normal 0 0 1
    outer loop
      vertex -1.9999 6.25 11.99
      vertex -1.48744 6.76263 11.99
      vertex -1.9999 7.34988 11.99
    endloop
  endfacet
  facet normal 0 0 1
    outer loop
      vertex -1.48744 6.76263 11.99
      vertex -2.04051 8.39186 11.99
      vertex -1.9999 7.34988 11.99
    endloop
  endfacet
  facet normal -0 0 1
    outer loop
      vertex -2.16237 7.96965 11.99
      vertex -1.9999 7.34988 11.99
      vertex -2.04051 8.39186 11.99
    endloop
  endfacet
  facet normal -0 0 1
    outer loop
      vertex -2.36547 7.58244 11.99
      vertex -1.9999 7.34988 11.99
      vertex -2.16237 7.96965 11.99
    endloop
  endfacet
  facet normal 0 0 1
    outer loop
      vertex -2.6498 7.23027 11.99
      vertex -1.9999 7.34988 11.99
      vertex -2.36547 7.58244 11.99
    endloop
  endfacet
  facet normal 0 0 1
    outer loop
      vertex -1.9999 7.34988 11.99
      vertex -2.6498 7.23027 11.99
      vertex -2.4686 6.78049 11.99
    endloop
  endfacet
  facet normal -0 0 1
    outer loop
      vertex -2.99196 6.93748 11.99
      vertex -2.4686 6.78049 11.99
      vertex -2.6498 7.23027 11.99
    endloop
  endfacet
  facet normal 0 0 1
    outer loop
      vertex -2.99196 6.93748 11.99
      vertex -2.9998 6.37376 11.99
      vertex -2.4686 6.78049 11.99
    endloop
  endfacet
  facet normal -0 0 1
    outer loop
      vertex -3.3685 6.72835 11.99
      vertex -2.9998 6.37376 11.99
      vertex -2.99196 6.93748 11.99
    endloop
  endfacet
  facet normal 0 0 1
    outer loop
      vertex -3.3685 6.72835 11.99
      vertex -3.59351 6.12975 11.99
      vertex -2.9998 6.37376 11.99
    endloop
  endfacet
  facet normal -0 0 1
    outer loop
      vertex -3.77942 6.60286 11.99
      vertex -3.59351 6.12975 11.99
      vertex -3.3685 6.72835 11.99
    endloop
  endfacet
  facet normal 0 0 1
    outer loop
      vertex -4.24973 6.0484 11.99
      vertex -3.77942 6.60286 11.99
      vertex -4.2247 6.56104 11.99
    endloop
  endfacet
  facet normal 0 0 1
    outer loop
      vertex -3.77942 6.60286 11.99
      vertex -4.24973 6.0484 11.99
      vertex -3.59351 6.12975 11.99
    endloop
  endfacet
  facet normal 0 0 1
    outer loop
      vertex -4.66494 6.60245 11.99
      vertex -4.24973 6.0484 11.99
      vertex -4.2247 6.56104 11.99
    endloop
  endfacet
  facet normal 0 0 1
    outer loop
      vertex -4.66494 6.60245 11.99
      vertex -4.79148 6.09998 11.99
      vertex -4.24973 6.0484 11.99
    endloop
  endfacet
  facet normal 0 0 1
    outer loop
      vertex -5.07314 6.7267 11.99
      vertex -4.79148 6.09998 11.99
      vertex -4.66494 6.60245 11.99
    endloop
  endfacet
  facet normal 0 0 1
    outer loop
      vertex -5.07314 6.7267 11.99
      vertex -5.29183 6.25467 11.99
      vertex -4.79148 6.09998 11.99
    endloop
  endfacet
  facet normal 0 0 1
    outer loop
      vertex -5.44928 6.93378 11.99
      vertex -5.29183 6.25467 11.99
      vertex -5.07314 6.7267 11.99
    endloop
  endfacet
  facet normal 0 0 1
    outer loop
      vertex -5.44928 6.93378 11.99
      vertex -5.75078 6.51253 11.99
      vertex -5.29183 6.25467 11.99
    endloop
  endfacet
  facet normal 0 0 1
    outer loop
      vertex -5.7934 7.22371 11.99
      vertex -5.75078 6.51253 11.99
      vertex -5.44928 6.93378 11.99
    endloop
  endfacet
  facet normal 0 0 1
    outer loop
      vertex -6.16834 6.87352 11.99
      vertex -5.7934 7.22371 11.99
      vertex -6.08048 7.57144 11.99
    endloop
  endfacet
  facet normal 0 0 1
    outer loop
      vertex -5.7934 7.22371 11.99
      vertex -6.16834 6.87352 11.99
      vertex -5.75078 6.51253 11.99
    endloop
  endfacet
  facet normal 0 0 1
    outer loop
      vertex -6.5156 7.308 11.99
      vertex -6.08048 7.57144 11.99
      vertex -6.28554 7.95201 11.99
    endloop
  endfacet
  facet normal 0 0 1
    outer loop
      vertex -6.76363 7.78625 11.99
      vertex -6.28554 7.95201 11.99
      vertex -6.40859 8.36539 11.99
    endloop
  endfacet
  facet normal 0 0 1
    outer loop
      vertex -6.08048 7.57144 11.99
      vertex -6.5156 7.308 11.99
      vertex -6.16834 6.87352 11.99
    endloop
  endfacet
  facet normal 0 0 1
    outer loop
      vertex -6.91245 8.30826 11.99
      vertex -6.40859 8.36539 11.99
      vertex -6.44959 8.81157 11.99
    endloop
  endfacet
  facet normal 0 0 1
    outer loop
      vertex -1.9999 10.3483 11.99
      vertex -2.04051 9.30589 11.99
      vertex -1.9999 8.84911 11.99
    endloop
  endfacet
  facet normal 0 0 1
    outer loop
      vertex -1.9999 10.3483 11.99
      vertex -2.16237 9.72676 11.99
      vertex -2.04051 9.30589 11.99
    endloop
  endfacet
  facet normal 0 0 1
    outer loop
      vertex -1.9999 10.3483 11.99
      vertex -2.36547 10.1117 11.99
      vertex -2.16237 9.72676 11.99
    endloop
  endfacet
  facet normal -0 0 1
    outer loop
      vertex -2.6498 10.4607 11.99
      vertex -1.9999 10.3483 11.99
      vertex -2.48267 10.9115 11.99
    endloop
  endfacet
  facet normal 0 0 1
    outer loop
      vertex -1.9999 10.3483 11.99
      vertex -2.6498 10.4607 11.99
      vertex -2.36547 10.1117 11.99
    endloop
  endfacet
  facet normal 0 0 1
    outer loop
      vertex -2.48267 10.9115 11.99
      vertex -2.99196 10.7505 11.99
      vertex -2.6498 10.4607 11.99
    endloop
  endfacet
  facet normal 0 0 1
    outer loop
      vertex -3.01857 11.3138 11.99
      vertex -2.99196 10.7505 11.99
      vertex -2.48267 10.9115 11.99
    endloop
  endfacet
  facet normal 0 0 1
    outer loop
      vertex -3.01857 11.3138 11.99
      vertex -3.3685 10.9574 11.99
      vertex -2.99196 10.7505 11.99
    endloop
  endfacet
  facet normal 0 0 1
    outer loop
      vertex -3.60758 11.5551 11.99
      vertex -3.3685 10.9574 11.99
      vertex -3.01857 11.3138 11.99
    endloop
  endfacet
  facet normal 0 0 1
    outer loop
      vertex -3.60758 11.5551 11.99
      vertex -3.77942 11.0816 11.99
      vertex -3.3685 10.9574 11.99
    endloop
  endfacet
  facet normal 0 0 1
    outer loop
      vertex -4.24973 11.6356 11.99
      vertex -3.77942 11.0816 11.99
      vertex -3.60758 11.5551 11.99
    endloop
  endfacet
  facet normal 0 0 1
    outer loop
      vertex -3.77942 11.0816 11.99
      vertex -4.24973 11.6356 11.99
      vertex -4.2247 11.123 11.99
    endloop
  endfacet
  facet normal 0 0 1
    outer loop
      vertex -4.24973 11.6356 11.99
      vertex -4.67507 11.0812 11.99
      vertex -4.2247 11.123 11.99
    endloop
  endfacet
  facet normal -0 0 1
    outer loop
      vertex -4.79656 11.5856 11.99
      vertex -4.67507 11.0812 11.99
      vertex -4.24973 11.6356 11.99
    endloop
  endfacet
  facet normal 0 0 1
    outer loop
      vertex -4.79656 11.5856 11.99
      vertex -5.0887 10.9558 11.99
      vertex -4.67507 11.0812 11.99
    endloop
  endfacet
  facet normal -0 0 1
    outer loop
      vertex -5.29964 11.4357 11.99
      vertex -5.0887 10.9558 11.99
      vertex -4.79656 11.5856 11.99
    endloop
  endfacet
  facet normal 0 0 1
    outer loop
      vertex -5.29964 11.4357 11.99
      vertex -5.46562 10.747 11.99
      vertex -5.0887 10.9558 11.99
    endloop
  endfacet
  facet normal -0 0 1
    outer loop
      vertex -5.75898 11.1857 11.99
      vertex -5.46562 10.747 11.99
      vertex -5.29964 11.4357 11.99
    endloop
  endfacet
  facet normal -0 0 1
    outer loop
      vertex -6.17455 10.8358 11.99
      vertex -5.46562 10.747 11.99
      vertex -5.75898 11.1857 11.99
    endloop
  endfacet
  facet normal 0 0 1
    outer loop
      vertex -5.46562 10.747 11.99
      vertex -6.17455 10.8358 11.99
      vertex -5.80582 10.4545 11.99
    endloop
  endfacet
  facet normal 0 0 1
    outer loop
      vertex -6.51908 10.4133 11.99
      vertex -5.80582 10.4545 11.99
      vertex -6.17455 10.8358 11.99
    endloop
  endfacet
  facet normal 0 0 1
    outer loop
      vertex -5.80582 10.4545 11.99
      vertex -6.51908 10.4133 11.99
      vertex -6.08747 10.1012 11.99
    endloop
  endfacet
  facet normal 0 0 1
    outer loop
      vertex -6.76517 9.94553 11.99
      vertex -6.08747 10.1012 11.99
      vertex -6.51908 10.4133 11.99
    endloop
  endfacet
  facet normal 0 0 1
    outer loop
      vertex -6.08747 10.1012 11.99
      vertex -6.76517 9.94553 11.99
      vertex -6.28865 9.70956 11.99
    endloop
  endfacet
  facet normal 0 0 1
    outer loop
      vertex -6.91283 9.43242 11.99
      vertex -6.28865 9.70956 11.99
      vertex -6.76517 9.94553 11.99
    endloop
  endfacet
  facet normal 0 0 1
    outer loop
      vertex -6.28865 9.70956 11.99
      vertex -6.91283 9.43242 11.99
      vertex -6.40935 9.27971 11.99
    endloop
  endfacet
  facet normal 0 0 1
    outer loop
      vertex -6.40859 8.36539 11.99
      vertex -6.91245 8.30826 11.99
      vertex -6.76363 7.78625 11.99
    endloop
  endfacet
  facet normal 0 0 1
    outer loop
      vertex -6.96205 8.87404 11.99
      vertex -6.40935 9.27971 11.99
      vertex -6.91283 9.43242 11.99
    endloop
  endfacet
  facet normal 0 0 1
    outer loop
      vertex -6.28554 7.95201 11.99
      vertex -6.76363 7.78625 11.99
      vertex -6.5156 7.308 11.99
    endloop
  endfacet
  facet normal 0 0 1
    outer loop
      vertex -6.40935 9.27971 11.99
      vertex -6.96205 8.87404 11.99
      vertex -6.44959 8.81157 11.99
    endloop
  endfacet
  facet normal 0 0 1
    outer loop
      vertex -6.44959 8.81157 11.99
      vertex -6.96205 8.87404 11.99
      vertex -6.91245 8.30826 11.99
    endloop
  endfacet
  facet normal -0.29537 -0.955383 0
    outer loop
      vertex -5.29183 6.25467 10
      vertex -4.79148 6.09998 11.99
      vertex -5.29183 6.25467 11.99
    endloop
  endfacet
  facet normal -0.29537 -0.955383 -0
    outer loop
      vertex -4.79148 6.09998 11.99
      vertex -5.29183 6.25467 10
      vertex -4.79148 6.09998 10
    endloop
  endfacet
  facet normal -0.489829 -0.871818 0
    outer loop
      vertex -5.75078 6.51253 10
      vertex -5.29183 6.25467 11.99
      vertex -5.75078 6.51253 11.99
    endloop
  endfacet
  facet normal -0.489829 -0.871818 -0
    outer loop
      vertex -5.29183 6.25467 11.99
      vertex -5.75078 6.51253 10
      vertex -5.29183 6.25467 10
    endloop
  endfacet
  facet normal -0.654004 -0.756491 0
    outer loop
      vertex -6.16834 6.87352 10
      vertex -5.75078 6.51253 11.99
      vertex -6.16834 6.87352 11.99
    endloop
  endfacet
  facet normal -0.654004 -0.756491 -0
    outer loop
      vertex -5.75078 6.51253 11.99
      vertex -6.16834 6.87352 10
      vertex -5.75078 6.51253 10
    endloop
  endfacet
  facet normal -0.781153 -0.62434 0
    outer loop
      vertex -6.16834 6.87352 10
      vertex -6.5156 7.308 11.99
      vertex -6.5156 7.308 10
    endloop
  endfacet
  facet normal -0.781153 -0.62434 0
    outer loop
      vertex -6.5156 7.308 11.99
      vertex -6.16834 6.87352 10
      vertex -6.16834 6.87352 11.99
    endloop
  endfacet
  facet normal -0.887718 -0.460388 0
    outer loop
      vertex -6.5156 7.308 10
      vertex -6.76363 7.78625 11.99
      vertex -6.76363 7.78625 10
    endloop
  endfacet
  facet normal -0.887718 -0.460388 0
    outer loop
      vertex -6.76363 7.78625 11.99
      vertex -6.5156 7.308 10
      vertex -6.5156 7.308 11.99
    endloop
  endfacet
  facet normal -0.961682 -0.274166 0
    outer loop
      vertex -6.76363 7.78625 10
      vertex -6.91245 8.30826 11.99
      vertex -6.91245 8.30826 10
    endloop
  endfacet
  facet normal -0.961682 -0.274166 0
    outer loop
      vertex -6.91245 8.30826 11.99
      vertex -6.76363 7.78625 10
      vertex -6.76363 7.78625 11.99
    endloop
  endfacet
  facet normal -0.996179 -0.0873316 0
    outer loop
      vertex -6.91245 8.30826 10
      vertex -6.96205 8.87404 11.99
      vertex -6.96205 8.87404 10
    endloop
  endfacet
  facet normal -0.996179 -0.0873316 0
    outer loop
      vertex -6.96205 8.87404 11.99
      vertex -6.91245 8.30826 10
      vertex -6.91245 8.30826 11.99
    endloop
  endfacet
  facet normal -0.996137 0.0878074 0
    outer loop
      vertex -6.96205 8.87404 10
      vertex -6.91283 9.43242 11.99
      vertex -6.91283 9.43242 10
    endloop
  endfacet
  facet normal -0.996137 0.0878074 0
    outer loop
      vertex -6.91283 9.43242 11.99
      vertex -6.96205 8.87404 10
      vertex -6.96205 8.87404 11.99
    endloop
  endfacet
  facet normal -0.960999 0.276551 0
    outer loop
      vertex -6.91283 9.43242 10
      vertex -6.76517 9.94553 11.99
      vertex -6.76517 9.94553 10
    endloop
  endfacet
  facet normal -0.960999 0.276551 0
    outer loop
      vertex -6.76517 9.94553 11.99
      vertex -6.91283 9.43242 10
      vertex -6.91283 9.43242 11.99
    endloop
  endfacet
  facet normal -0.885 0.465591 0
    outer loop
      vertex -6.76517 9.94553 10
      vertex -6.51908 10.4133 11.99
      vertex -6.51908 10.4133 10
    endloop
  endfacet
  facet normal -0.885 0.465591 0
    outer loop
      vertex -6.51908 10.4133 11.99
      vertex -6.76517 9.94553 10
      vertex -6.76517 9.94553 11.99
    endloop
  endfacet
  facet normal -0.774992 0.631971 0
    outer loop
      vertex -6.51908 10.4133 10
      vertex -6.17455 10.8358 11.99
      vertex -6.17455 10.8358 10
    endloop
  endfacet
  facet normal -0.774992 0.631971 0
    outer loop
      vertex -6.17455 10.8358 11.99
      vertex -6.51908 10.4133 10
      vertex -6.51908 10.4133 11.99
    endloop
  endfacet
  facet normal -0.644078 0.76496 0
    outer loop
      vertex -5.75898 11.1857 10
      vertex -6.17455 10.8358 11.99
      vertex -5.75898 11.1857 11.99
    endloop
  endfacet
  facet normal -0.644078 0.76496 0
    outer loop
      vertex -6.17455 10.8358 11.99
      vertex -5.75898 11.1857 10
      vertex -6.17455 10.8358 10
    endloop
  endfacet
  facet normal -0.478043 0.878337 0
    outer loop
      vertex -5.29964 11.4357 10
      vertex -5.75898 11.1857 11.99
      vertex -5.29964 11.4357 11.99
    endloop
  endfacet
  facet normal -0.478043 0.878337 0
    outer loop
      vertex -5.75898 11.1857 11.99
      vertex -5.29964 11.4357 10
      vertex -5.75898 11.1857 10
    endloop
  endfacet
  facet normal -0.285558 0.958362 0
    outer loop
      vertex -4.79656 11.5856 10
      vertex -5.29964 11.4357 11.99
      vertex -4.79656 11.5856 11.99
    endloop
  endfacet
  facet normal -0.285558 0.958362 0
    outer loop
      vertex -5.29964 11.4357 11.99
      vertex -4.79656 11.5856 10
      vertex -5.29964 11.4357 10
    endloop
  endfacet
  facet normal -0.0910562 0.995846 0
    outer loop
      vertex -4.24973 11.6356 10
      vertex -4.79656 11.5856 11.99
      vertex -4.24973 11.6356 11.99
    endloop
  endfacet
  facet normal -0.0910562 0.995846 0
    outer loop
      vertex -4.79656 11.5856 11.99
      vertex -4.24973 11.6356 10
      vertex -4.79656 11.5856 10
    endloop
  endfacet
  facet normal 0.124387 0.992234 -0
    outer loop
      vertex -3.60758 11.5551 10
      vertex -4.24973 11.6356 11.99
      vertex -3.60758 11.5551 11.99
    endloop
  endfacet
  facet normal 0.124387 0.992234 0
    outer loop
      vertex -4.24973 11.6356 11.99
      vertex -3.60758 11.5551 10
      vertex -4.24973 11.6356 10
    endloop
  endfacet
  facet normal 0.379092 0.925359 -0
    outer loop
      vertex -3.01857 11.3138 10
      vertex -3.60758 11.5551 11.99
      vertex -3.01857 11.3138 11.99
    endloop
  endfacet
  facet normal 0.379092 0.925359 0
    outer loop
      vertex -3.60758 11.5551 11.99
      vertex -3.01857 11.3138 10
      vertex -3.60758 11.5551 10
    endloop
  endfacet
  facet normal 0.600358 0.799731 -0
    outer loop
      vertex -2.48267 10.9115 10
      vertex -3.01857 11.3138 11.99
      vertex -2.48267 10.9115 11.99
    endloop
  endfacet
  facet normal 0.600358 0.799731 0
    outer loop
      vertex -3.01857 11.3138 11.99
      vertex -2.48267 10.9115 10
      vertex -3.01857 11.3138 10
    endloop
  endfacet
  facet normal 0.759239 0.650812 0
    outer loop
      vertex -1.9999 10.3483 11.99
      vertex -2.48267 10.9115 10
      vertex -2.48267 10.9115 11.99
    endloop
  endfacet
  facet normal 0.759239 0.650812 0
    outer loop
      vertex -2.48267 10.9115 10
      vertex -1.9999 10.3483 11.99
      vertex -1.9999 10.3483 10
    endloop
  endfacet
  facet normal -1 0 0
    outer loop
      vertex -1.9999 10.3483 10
      vertex -1.9999 13.8013 11.99
      vertex -1.9999 13.8013 10
    endloop
  endfacet
  facet normal -1 -0 0
    outer loop
      vertex -1.9999 13.8013 11.99
      vertex -1.9999 10.3483 10
      vertex -1.9999 10.3483 11.99
    endloop
  endfacet
  facet normal 0 1 -0
    outer loop
      vertex -0.812442 13.8013 10
      vertex -1.9999 13.8013 11.99
      vertex -0.812442 13.8013 11.99
    endloop
  endfacet
  facet normal 0 1 0
    outer loop
      vertex -1.9999 13.8013 11.99
      vertex -0.812442 13.8013 10
      vertex -1.9999 13.8013 10
    endloop
  endfacet
  facet normal 0.105064 0.994465 -0
    outer loop
      vertex -0.664783 13.7857 10
      vertex -0.812442 13.8013 11.99
      vertex -0.664783 13.7857 11.99
    endloop
  endfacet
  facet normal 0.105064 0.994465 0
    outer loop
      vertex -0.812442 13.8013 11.99
      vertex -0.664783 13.7857 10
      vertex -0.812442 13.8013 10
    endloop
  endfacet
  facet normal 0.406319 0.913732 -0
    outer loop
      vertex -0.559314 13.7388 10
      vertex -0.664783 13.7857 11.99
      vertex -0.559314 13.7388 11.99
    endloop
  endfacet
  facet normal 0.406319 0.913732 0
    outer loop
      vertex -0.664783 13.7857 11.99
      vertex -0.559314 13.7388 10
      vertex -0.664783 13.7857 10
    endloop
  endfacet
  facet normal 0.776981 0.629524 0
    outer loop
      vertex -0.496036 13.6607 11.99
      vertex -0.559314 13.7388 10
      vertex -0.559314 13.7388 11.99
    endloop
  endfacet
  facet normal 0.776981 0.629524 0
    outer loop
      vertex -0.559314 13.7388 10
      vertex -0.496036 13.6607 11.99
      vertex -0.496036 13.6607 10
    endloop
  endfacet
  facet normal 0.981956 0.189109 0
    outer loop
      vertex -0.474948 13.5512 11.99
      vertex -0.496036 13.6607 10
      vertex -0.496036 13.6607 11.99
    endloop
  endfacet
  facet normal 0.981956 0.189109 0
    outer loop
      vertex -0.496036 13.6607 10
      vertex -0.474948 13.5512 11.99
      vertex -0.474948 13.5512 10
    endloop
  endfacet
  facet normal 0.983544 -0.18067 0
    outer loop
      vertex -0.496036 13.4364 11.99
      vertex -0.474948 13.5512 10
      vertex -0.474948 13.5512 11.99
    endloop
  endfacet
  facet normal 0.983544 -0.18067 0
    outer loop
      vertex -0.474948 13.5512 10
      vertex -0.496036 13.4364 11.99
      vertex -0.496036 13.4364 10
    endloop
  endfacet
  facet normal 0.792045 -0.610463 0
    outer loop
      vertex -0.559314 13.3543 11.99
      vertex -0.496036 13.4364 10
      vertex -0.496036 13.4364 11.99
    endloop
  endfacet
  facet normal 0.792045 -0.610463 0
    outer loop
      vertex -0.496036 13.4364 10
      vertex -0.559314 13.3543 11.99
      vertex -0.559314 13.3543 10
    endloop
  endfacet
  facet normal 0.422752 -0.906245 0
    outer loop
      vertex -0.664783 13.3051 10
      vertex -0.559314 13.3543 11.99
      vertex -0.664783 13.3051 11.99
    endloop
  endfacet
  facet normal 0.422752 -0.906245 0
    outer loop
      vertex -0.559314 13.3543 11.99
      vertex -0.664783 13.3051 10
      vertex -0.559314 13.3543 10
    endloop
  endfacet
  facet normal 0.110388 -0.993889 0
    outer loop
      vertex -0.812442 13.2887 10
      vertex -0.664783 13.3051 11.99
      vertex -0.812442 13.2887 11.99
    endloop
  endfacet
  facet normal 0.110388 -0.993889 0
    outer loop
      vertex -0.664783 13.3051 11.99
      vertex -0.812442 13.2887 10
      vertex -0.664783 13.3051 10
    endloop
  endfacet
  facet normal 0 -1 0
    outer loop
      vertex -1.48744 13.2887 10
      vertex -0.812442 13.2887 11.99
      vertex -1.48744 13.2887 11.99
    endloop
  endfacet
  facet normal 0 -1 -0
    outer loop
      vertex -0.812442 13.2887 11.99
      vertex -1.48744 13.2887 10
      vertex -0.812442 13.2887 10
    endloop
  endfacet
  facet normal 1 -0 0
    outer loop
      vertex -1.48744 6.76263 11.99
      vertex -1.48744 13.2887 10
      vertex -1.48744 13.2887 11.99
    endloop
  endfacet
  facet normal 1 0 0
    outer loop
      vertex -1.48744 13.2887 10
      vertex -1.48744 6.76263 11.99
      vertex -1.48744 6.76263 10
    endloop
  endfacet
  facet normal 0 1 -0
    outer loop
      vertex -0.812442 6.76263 10
      vertex -1.48744 6.76263 11.99
      vertex -0.812442 6.76263 11.99
    endloop
  endfacet
  facet normal 0 1 0
    outer loop
      vertex -1.48744 6.76263 11.99
      vertex -0.812442 6.76263 10
      vertex -1.48744 6.76263 10
    endloop
  endfacet
  facet normal 0.105797 0.994388 -0
    outer loop
      vertex -0.664783 6.74692 10
      vertex -0.812442 6.76263 11.99
      vertex -0.664783 6.74692 11.99
    endloop
  endfacet
  facet normal 0.105797 0.994388 0
    outer loop
      vertex -0.812442 6.76263 11.99
      vertex -0.664783 6.74692 10
      vertex -0.812442 6.76263 10
    endloop
  endfacet
  facet normal 0.408052 0.912959 -0
    outer loop
      vertex -0.559314 6.69978 10
      vertex -0.664783 6.74692 11.99
      vertex -0.559314 6.69978 11.99
    endloop
  endfacet
  facet normal 0.408052 0.912959 0
    outer loop
      vertex -0.664783 6.74692 11.99
      vertex -0.559314 6.69978 10
      vertex -0.664783 6.74692 10
    endloop
  endfacet
  facet normal 0.778746 0.627339 0
    outer loop
      vertex -0.496036 6.62123 11.99
      vertex -0.559314 6.69978 10
      vertex -0.559314 6.69978 11.99
    endloop
  endfacet
  facet normal 0.778746 0.627339 0
    outer loop
      vertex -0.559314 6.69978 10
      vertex -0.496036 6.62123 11.99
      vertex -0.496036 6.62123 10
    endloop
  endfacet
  facet normal 0.982106 0.18833 0
    outer loop
      vertex -0.474948 6.51126 11.99
      vertex -0.496036 6.62123 10
      vertex -0.496036 6.62123 11.99
    endloop
  endfacet
  facet normal 0.982106 0.18833 0
    outer loop
      vertex -0.496036 6.62123 10
      vertex -0.474948 6.51126 11.99
      vertex -0.474948 6.51126 10
    endloop
  endfacet
  facet normal 0.983403 -0.181435 0
    outer loop
      vertex -0.496036 6.39696 11.99
      vertex -0.474948 6.51126 10
      vertex -0.474948 6.51126 11.99
    endloop
  endfacet
  facet normal 0.983403 -0.181435 0
    outer loop
      vertex -0.474948 6.51126 10
      vertex -0.496036 6.39696 11.99
      vertex -0.496036 6.39696 10
    endloop
  endfacet
  facet normal 0.790419 -0.612567 0
    outer loop
      vertex -0.559314 6.31531 11.99
      vertex -0.496036 6.39696 10
      vertex -0.496036 6.39696 11.99
    endloop
  endfacet
  facet normal 0.790419 -0.612567 0
    outer loop
      vertex -0.496036 6.39696 10
      vertex -0.559314 6.31531 11.99
      vertex -0.559314 6.31531 10
    endloop
  endfacet
  facet normal 0.421198 -0.906969 0
    outer loop
      vertex -0.664783 6.26633 10
      vertex -0.559314 6.31531 11.99
      vertex -0.664783 6.26633 11.99
    endloop
  endfacet
  facet normal 0.421198 -0.906969 0
    outer loop
      vertex -0.559314 6.31531 11.99
      vertex -0.664783 6.26633 10
      vertex -0.559314 6.31531 10
    endloop
  endfacet
  facet normal 0.109922 -0.99394 0
    outer loop
      vertex -0.812442 6.25 10
      vertex -0.664783 6.26633 11.99
      vertex -0.812442 6.25 11.99
    endloop
  endfacet
  facet normal 0.109922 -0.99394 0
    outer loop
      vertex -0.664783 6.26633 11.99
      vertex -0.812442 6.25 10
      vertex -0.664783 6.26633 10
    endloop
  endfacet
  facet normal 0 -1 0
    outer loop
      vertex -1.9999 6.25 10
      vertex -0.812442 6.25 11.99
      vertex -1.9999 6.25 11.99
    endloop
  endfacet
  facet normal 0 -1 -0
    outer loop
      vertex -0.812442 6.25 11.99
      vertex -1.9999 6.25 10
      vertex -0.812442 6.25 10
    endloop
  endfacet
  facet normal -1 0 0
    outer loop
      vertex -1.9999 6.25 10
      vertex -1.9999 7.34988 11.99
      vertex -1.9999 7.34988 10
    endloop
  endfacet
  facet normal -1 -0 0
    outer loop
      vertex -1.9999 7.34988 11.99
      vertex -1.9999 6.25 10
      vertex -1.9999 6.25 11.99
    endloop
  endfacet
  facet normal 0.77207 -0.635538 0
    outer loop
      vertex -2.4686 6.78049 11.99
      vertex -1.9999 7.34988 10
      vertex -1.9999 7.34988 11.99
    endloop
  endfacet
  facet normal 0.77207 -0.635538 0
    outer loop
      vertex -1.9999 7.34988 10
      vertex -2.4686 6.78049 11.99
      vertex -2.4686 6.78049 10
    endloop
  endfacet
  facet normal 0.607939 -0.793984 0
    outer loop
      vertex -2.9998 6.37376 10
      vertex -2.4686 6.78049 11.99
      vertex -2.9998 6.37376 11.99
    endloop
  endfacet
  facet normal 0.607939 -0.793984 0
    outer loop
      vertex -2.4686 6.78049 11.99
      vertex -2.9998 6.37376 10
      vertex -2.4686 6.78049 10
    endloop
  endfacet
  facet normal 0.380139 -0.92493 0
    outer loop
      vertex -3.59351 6.12975 10
      vertex -2.9998 6.37376 11.99
      vertex -3.59351 6.12975 11.99
    endloop
  endfacet
  facet normal 0.380139 -0.92493 0
    outer loop
      vertex -2.9998 6.37376 11.99
      vertex -3.59351 6.12975 10
      vertex -2.9998 6.37376 10
    endloop
  endfacet
  facet normal 0.123026 -0.992403 0
    outer loop
      vertex -4.24973 6.0484 10
      vertex -3.59351 6.12975 11.99
      vertex -4.24973 6.0484 11.99
    endloop
  endfacet
  facet normal 0.123026 -0.992403 0
    outer loop
      vertex -3.59351 6.12975 11.99
      vertex -4.24973 6.0484 10
      vertex -3.59351 6.12975 10
    endloop
  endfacet
  facet normal -0.0947813 -0.995498 0
    outer loop
      vertex -4.79148 6.09998 10
      vertex -4.24973 6.0484 11.99
      vertex -4.79148 6.09998 11.99
    endloop
  endfacet
  facet normal -0.0947813 -0.995498 -0
    outer loop
      vertex -4.24973 6.0484 11.99
      vertex -4.79148 6.09998 10
      vertex -4.24973 6.0484 10
    endloop
  endfacet
  facet normal -0.292072 0.956396 0
    outer loop
      vertex -3.3685 6.72835 10
      vertex -3.77942 6.60286 11.99
      vertex -3.3685 6.72835 11.99
    endloop
  endfacet
  facet normal -0.292072 0.956396 0
    outer loop
      vertex -3.77942 6.60286 11.99
      vertex -3.3685 6.72835 10
      vertex -3.77942 6.60286 10
    endloop
  endfacet
  facet normal -0.485538 0.874215 0
    outer loop
      vertex -2.99196 6.93748 10
      vertex -3.3685 6.72835 11.99
      vertex -2.99196 6.93748 11.99
    endloop
  endfacet
  facet normal -0.485538 0.874215 0
    outer loop
      vertex -3.3685 6.72835 11.99
      vertex -2.99196 6.93748 10
      vertex -3.3685 6.72835 10
    endloop
  endfacet
  facet normal -0.650164 0.759794 0
    outer loop
      vertex -2.6498 7.23027 10
      vertex -2.99196 6.93748 11.99
      vertex -2.6498 7.23027 11.99
    endloop
  endfacet
  facet normal -0.650164 0.759794 0
    outer loop
      vertex -2.99196 6.93748 11.99
      vertex -2.6498 7.23027 10
      vertex -2.99196 6.93748 10
    endloop
  endfacet
  facet normal -0.778065 0.628183 0
    outer loop
      vertex -2.6498 7.23027 10
      vertex -2.36547 7.58244 11.99
      vertex -2.36547 7.58244 10
    endloop
  endfacet
  facet normal -0.778065 0.628183 0
    outer loop
      vertex -2.36547 7.58244 11.99
      vertex -2.6498 7.23027 10
      vertex -2.6498 7.23027 11.99
    endloop
  endfacet
  facet normal -0.885572 0.464502 0
    outer loop
      vertex -2.36547 7.58244 10
      vertex -2.16237 7.96965 11.99
      vertex -2.16237 7.96965 10
    endloop
  endfacet
  facet normal -0.885572 0.464502 0
    outer loop
      vertex -2.16237 7.96965 11.99
      vertex -2.36547 7.58244 10
      vertex -2.36547 7.58244 11.99
    endloop
  endfacet
  facet normal -0.960782 0.277305 0
    outer loop
      vertex -2.16237 7.96965 10
      vertex -2.04051 8.39186 11.99
      vertex -2.04051 8.39186 10
    endloop
  endfacet
  facet normal -0.960782 0.277305 0
    outer loop
      vertex -2.04051 8.39186 11.99
      vertex -2.16237 7.96965 10
      vertex -2.16237 7.96965 11.99
    endloop
  endfacet
  facet normal -0.996079 0.0884653 0
    outer loop
      vertex -2.04051 8.39186 10
      vertex -1.9999 8.84911 11.99
      vertex -1.9999 8.84911 10
    endloop
  endfacet
  facet normal -0.996079 0.0884653 0
    outer loop
      vertex -1.9999 8.84911 11.99
      vertex -2.04051 8.39186 10
      vertex -2.04051 8.39186 11.99
    endloop
  endfacet
  facet normal -0.996071 -0.0885557 0
    outer loop
      vertex -1.9999 8.84911 10
      vertex -2.04051 9.30589 11.99
      vertex -2.04051 9.30589 10
    endloop
  endfacet
  facet normal -0.996071 -0.0885557 0
    outer loop
      vertex -2.04051 9.30589 11.99
      vertex -1.9999 8.84911 10
      vertex -1.9999 8.84911 11.99
    endloop
  endfacet
  facet normal -0.960546 -0.27812 0
    outer loop
      vertex -2.04051 9.30589 10
      vertex -2.16237 9.72676 11.99
      vertex -2.16237 9.72676 10
    endloop
  endfacet
  facet normal -0.960546 -0.27812 0
    outer loop
      vertex -2.16237 9.72676 11.99
      vertex -2.04051 9.30589 10
      vertex -2.04051 9.30589 11.99
    endloop
  endfacet
  facet normal -0.884444 -0.466646 0
    outer loop
      vertex -2.16237 9.72676 10
      vertex -2.36547 10.1117 11.99
      vertex -2.36547 10.1117 10
    endloop
  endfacet
  facet normal -0.884444 -0.466646 0
    outer loop
      vertex -2.36547 10.1117 11.99
      vertex -2.16237 9.72676 10
      vertex -2.16237 9.72676 11.99
    endloop
  endfacet
  facet normal -0.775279 -0.631619 0
    outer loop
      vertex -2.36547 10.1117 10
      vertex -2.6498 10.4607 11.99
      vertex -2.6498 10.4607 10
    endloop
  endfacet
  facet normal -0.775279 -0.631619 0
    outer loop
      vertex -2.6498 10.4607 11.99
      vertex -2.36547 10.1117 10
      vertex -2.36547 10.1117 11.99
    endloop
  endfacet
  facet normal -0.646306 -0.763078 0
    outer loop
      vertex -2.99196 10.7505 10
      vertex -2.6498 10.4607 11.99
      vertex -2.99196 10.7505 11.99
    endloop
  endfacet
  facet normal -0.646306 -0.763078 -0
    outer loop
      vertex -2.6498 10.4607 11.99
      vertex -2.99196 10.7505 10
      vertex -2.6498 10.4607 10
    endloop
  endfacet
  facet normal -0.481567 -0.876409 0
    outer loop
      vertex -3.3685 10.9574 10
      vertex -2.99196 10.7505 11.99
      vertex -3.3685 10.9574 11.99
    endloop
  endfacet
  facet normal -0.481567 -0.876409 -0
    outer loop
      vertex -2.99196 10.7505 11.99
      vertex -3.3685 10.9574 10
      vertex -2.99196 10.7505 10
    endloop
  endfacet
  facet normal -0.289322 -0.957232 0
    outer loop
      vertex -3.77942 11.0816 10
      vertex -3.3685 10.9574 11.99
      vertex -3.77942 11.0816 11.99
    endloop
  endfacet
  facet normal -0.289322 -0.957232 -0
    outer loop
      vertex -3.3685 10.9574 11.99
      vertex -3.77942 11.0816 10
      vertex -3.3685 10.9574 10
    endloop
  endfacet
  facet normal -0.0925759 -0.995706 0
    outer loop
      vertex -4.2247 11.123 10
      vertex -3.77942 11.0816 11.99
      vertex -4.2247 11.123 11.99
    endloop
  endfacet
  facet normal -0.0925759 -0.995706 -0
    outer loop
      vertex -3.77942 11.0816 11.99
      vertex -4.2247 11.123 10
      vertex -3.77942 11.0816 10
    endloop
  endfacet
  facet normal 0.0924154 -0.995721 0
    outer loop
      vertex -4.67507 11.0812 10
      vertex -4.2247 11.123 11.99
      vertex -4.67507 11.0812 11.99
    endloop
  endfacet
  facet normal 0.0924154 -0.995721 0
    outer loop
      vertex -4.2247 11.123 11.99
      vertex -4.67507 11.0812 10
      vertex -4.2247 11.123 10
    endloop
  endfacet
  facet normal 0.290129 -0.956987 0
    outer loop
      vertex -5.0887 10.9558 10
      vertex -4.67507 11.0812 11.99
      vertex -5.0887 10.9558 11.99
    endloop
  endfacet
  facet normal 0.290129 -0.956987 0
    outer loop
      vertex -4.67507 11.0812 11.99
      vertex -5.0887 10.9558 10
      vertex -4.67507 11.0812 10
    endloop
  endfacet
  facet normal 0.484579 -0.874748 0
    outer loop
      vertex -5.46562 10.747 10
      vertex -5.0887 10.9558 11.99
      vertex -5.46562 10.747 11.99
    endloop
  endfacet
  facet normal 0.484579 -0.874748 0
    outer loop
      vertex -5.0887 10.9558 11.99
      vertex -5.46562 10.747 10
      vertex -5.0887 10.9558 10
    endloop
  endfacet
  facet normal 0.651947 -0.758265 0
    outer loop
      vertex -5.80582 10.4545 10
      vertex -5.46562 10.747 11.99
      vertex -5.80582 10.4545 11.99
    endloop
  endfacet
  facet normal 0.651947 -0.758265 0
    outer loop
      vertex -5.46562 10.747 11.99
      vertex -5.80582 10.4545 10
      vertex -5.46562 10.747 10
    endloop
  endfacet
  facet normal 0.781936 -0.623358 0
    outer loop
      vertex -6.08747 10.1012 11.99
      vertex -5.80582 10.4545 10
      vertex -5.80582 10.4545 11.99
    endloop
  endfacet
  facet normal 0.781936 -0.623358 0
    outer loop
      vertex -5.80582 10.4545 10
      vertex -6.08747 10.1012 11.99
      vertex -6.08747 10.1012 10
    endloop
  endfacet
  facet normal 0.889505 -0.456926 0
    outer loop
      vertex -6.28865 9.70956 11.99
      vertex -6.08747 10.1012 10
      vertex -6.08747 10.1012 11.99
    endloop
  endfacet
  facet normal 0.889505 -0.456926 0
    outer loop
      vertex -6.08747 10.1012 10
      vertex -6.28865 9.70956 11.99
      vertex -6.28865 9.70956 10
    endloop
  endfacet
  facet normal 0.962765 -0.27034 0
    outer loop
      vertex -6.40935 9.27971 11.99
      vertex -6.28865 9.70956 10
      vertex -6.28865 9.70956 11.99
    endloop
  endfacet
  facet normal 0.962765 -0.27034 0
    outer loop
      vertex -6.28865 9.70956 10
      vertex -6.40935 9.27971 11.99
      vertex -6.40935 9.27971 10
    endloop
  endfacet
  facet normal 0.996326 -0.0856414 0
    outer loop
      vertex -6.44959 8.81157 11.99
      vertex -6.40935 9.27971 10
      vertex -6.40935 9.27971 11.99
    endloop
  endfacet
  facet normal 0.996326 -0.0856414 0
    outer loop
      vertex -6.40935 9.27971 10
      vertex -6.44959 8.81157 11.99
      vertex -6.44959 8.81157 10
    endloop
  endfacet
  facet normal 0.995805 0.0915056 0
    outer loop
      vertex -6.40859 8.36539 11.99
      vertex -6.44959 8.81157 10
      vertex -6.44959 8.81157 11.99
    endloop
  endfacet
  facet normal 0.995805 0.0915056 0
    outer loop
      vertex -6.44959 8.81157 10
      vertex -6.40859 8.36539 11.99
      vertex -6.40859 8.36539 10
    endloop
  endfacet
  facet normal 0.958439 0.285297 0
    outer loop
      vertex -6.28554 7.95201 11.99
      vertex -6.40859 8.36539 10
      vertex -6.40859 8.36539 11.99
    endloop
  endfacet
  facet normal 0.958439 0.285297 0
    outer loop
      vertex -6.40859 8.36539 10
      vertex -6.28554 7.95201 11.99
      vertex -6.28554 7.95201 10
    endloop
  endfacet
  facet normal 0.880338 0.474347 0
    outer loop
      vertex -6.08048 7.57144 11.99
      vertex -6.28554 7.95201 10
      vertex -6.28554 7.95201 11.99
    endloop
  endfacet
  facet normal 0.880338 0.474347 0
    outer loop
      vertex -6.28554 7.95201 10
      vertex -6.08048 7.57144 11.99
      vertex -6.08048 7.57144 10
    endloop
  endfacet
  facet normal 0.771153 0.63665 0
    outer loop
      vertex -5.7934 7.22371 11.99
      vertex -6.08048 7.57144 10
      vertex -6.08048 7.57144 11.99
    endloop
  endfacet
  facet normal 0.771153 0.63665 0
    outer loop
      vertex -6.08048 7.57144 10
      vertex -5.7934 7.22371 11.99
      vertex -5.7934 7.22371 10
    endloop
  endfacet
  facet normal 0.644324 0.764753 -0
    outer loop
      vertex -5.44928 6.93378 10
      vertex -5.7934 7.22371 11.99
      vertex -5.44928 6.93378 11.99
    endloop
  endfacet
  facet normal 0.644324 0.764753 0
    outer loop
      vertex -5.7934 7.22371 11.99
      vertex -5.44928 6.93378 10
      vertex -5.7934 7.22371 10
    endloop
  endfacet
  facet normal 0.482282 0.876016 -0
    outer loop
      vertex -5.07314 6.7267 10
      vertex -5.44928 6.93378 11.99
      vertex -5.07314 6.7267 11.99
    endloop
  endfacet
  facet normal 0.482282 0.876016 0
    outer loop
      vertex -5.44928 6.93378 11.99
      vertex -5.07314 6.7267 10
      vertex -5.44928 6.93378 10
    endloop
  endfacet
  facet normal 0.291194 0.956664 -0
    outer loop
      vertex -4.66494 6.60245 10
      vertex -5.07314 6.7267 11.99
      vertex -4.66494 6.60245 11.99
    endloop
  endfacet
  facet normal 0.291194 0.956664 0
    outer loop
      vertex -5.07314 6.7267 11.99
      vertex -4.66494 6.60245 10
      vertex -5.07314 6.7267 10
    endloop
  endfacet
  facet normal 0.093649 0.995605 -0
    outer loop
      vertex -4.2247 6.56104 10
      vertex -4.66494 6.60245 11.99
      vertex -4.2247 6.56104 11.99
    endloop
  endfacet
  facet normal 0.093649 0.995605 0
    outer loop
      vertex -4.66494 6.60245 11.99
      vertex -4.2247 6.56104 10
      vertex -4.66494 6.60245 10
    endloop
  endfacet
  facet normal -0.0935069 0.995619 0
    outer loop
      vertex -3.77942 6.60286 10
      vertex -4.2247 6.56104 11.99
      vertex -3.77942 6.60286 11.99
    endloop
  endfacet
  facet normal -0.0935069 0.995619 0
    outer loop
      vertex -4.2247 6.56104 11.99
      vertex -3.77942 6.60286 10
      vertex -4.2247 6.56104 10
    endloop
  endfacet
endsolid OpenSCAD_Model
