solid OpenSCAD_Model
  facet normal 0 0 1
    outer loop
      vertex -0.558563 6.62195 10
      vertex 0 14.5 10
      vertex -0.558563 12.9238 10
    endloop
  endfacet
  facet normal 0 0 1
    outer loop
      vertex 0 14.5 10
      vertex -0.558563 6.62195 10
      vertex -0.537476 6.51253 10
    endloop
  endfacet
  facet normal -0 0 1
    outer loop
      vertex -0.621841 12.8417 10
      vertex -0.558563 6.62195 10
      vertex -0.558563 12.9238 10
    endloop
  endfacet
  facet normal 0 0 1
    outer loop
      vertex -0.621841 12.8417 10
      vertex -0.621841 6.7001 10
      vertex -0.558563 6.62195 10
    endloop
  endfacet
  facet normal -0 0 1
    outer loop
      vertex -0.72731 12.7925 10
      vertex -0.621841 6.7001 10
      vertex -0.621841 12.8417 10
    endloop
  endfacet
  facet normal 0 0 1
    outer loop
      vertex -0.72731 12.7925 10
      vertex -0.72731 6.74699 10
      vertex -0.621841 6.7001 10
    endloop
  endfacet
  facet normal -0 0 1
    outer loop
      vertex -0.874969 12.7761 10
      vertex -0.72731 6.74699 10
      vertex -0.72731 12.7925 10
    endloop
  endfacet
  facet normal 0 0 1
    outer loop
      vertex -0.874969 12.7761 10
      vertex -0.874969 6.76263 10
      vertex -0.72731 6.74699 10
    endloop
  endfacet
  facet normal -0 0 1
    outer loop
      vertex -1.29996 12.7761 10
      vertex -0.874969 6.76263 10
      vertex -0.874969 12.7761 10
    endloop
  endfacet
  facet normal 0 0 1
    outer loop
      vertex -0.874969 6.76263 10
      vertex -1.29996 12.7761 10
      vertex -1.29996 6.76263 10
    endloop
  endfacet
  facet normal 0 0 1
    outer loop
      vertex -0.558563 12.9238 10
      vertex 0 14.5 10
      vertex -0.537476 13.0386 10
    endloop
  endfacet
  facet normal 0 0 1
    outer loop
      vertex 0 14.5 10
      vertex -0.558563 13.148 10
      vertex -0.537476 13.0386 10
    endloop
  endfacet
  facet normal 0 0 1
    outer loop
      vertex 0 14.5 10
      vertex -0.621841 13.2262 10
      vertex -0.558563 13.148 10
    endloop
  endfacet
  facet normal 0 0 1
    outer loop
      vertex 0 14.5 10
      vertex -0.72731 13.2731 10
      vertex -0.621841 13.2262 10
    endloop
  endfacet
  facet normal 0 0 1
    outer loop
      vertex 0 14.5 10
      vertex -0.874969 13.2887 10
      vertex -0.72731 13.2731 10
    endloop
  endfacet
  facet normal 0 0 1
    outer loop
      vertex 0 14.5 10
      vertex -3.62474 13.2887 10
      vertex -0.874969 13.2887 10
    endloop
  endfacet
  facet normal -0 0 1
    outer loop
      vertex -7.5 14.5 10
      vertex -3.62474 13.2887 10
      vertex 0 14.5 10
    endloop
  endfacet
  facet normal 0 0 1
    outer loop
      vertex -7.5 14.5 10
      vertex -6.49962 9.42555 10
      vertex -6.49962 10.1257 10
    endloop
  endfacet
  facet normal 0 0 1
    outer loop
      vertex -3.62474 13.2887 10
      vertex -7.5 14.5 10
      vertex -4.20715 13.2313 10
    endloop
  endfacet
  facet normal 0 0 1
    outer loop
      vertex -7.5 14.5 10
      vertex -4.74188 13.059 10
      vertex -4.20715 13.2313 10
    endloop
  endfacet
  facet normal 0 0 1
    outer loop
      vertex -7.5 14.5 10
      vertex -5.22896 12.7718 10
      vertex -4.74188 13.059 10
    endloop
  endfacet
  facet normal 0 0 1
    outer loop
      vertex -7.5 14.5 10
      vertex -5.66837 12.3698 10
      vertex -5.22896 12.7718 10
    endloop
  endfacet
  facet normal 0 0 1
    outer loop
      vertex -7.5 14.5 10
      vertex -6.03204 11.885 10
      vertex -5.66837 12.3698 10
    endloop
  endfacet
  facet normal 0 0 1
    outer loop
      vertex -7.5 14.5 10
      vertex -6.29181 11.3493 10
      vertex -6.03204 11.885 10
    endloop
  endfacet
  facet normal 0 0 1
    outer loop
      vertex -7.5 14.5 10
      vertex -6.44766 10.7629 10
      vertex -6.29181 11.3493 10
    endloop
  endfacet
  facet normal 0 0 1
    outer loop
      vertex -7.5 14.5 10
      vertex -6.49962 10.1257 10
      vertex -6.44766 10.7629 10
    endloop
  endfacet
  facet normal 0 0 1
    outer loop
      vertex -6.49962 9.42555 10
      vertex -7.5 14.5 10
      vertex -7.5 3.5 10
    endloop
  endfacet
  facet normal 0 0 1
    outer loop
      vertex -6.49962 9.42555 10
      vertex -7.5 3.5 10
      vertex -6.51 3.5 10
    endloop
  endfacet
  facet normal 0 0 1
    outer loop
      vertex 0 14.5 10
      vertex -0.537476 6.51253 10
      vertex 0 2.5 10
    endloop
  endfacet
  facet normal -0 0 1
    outer loop
      vertex -0.558563 6.39766 10
      vertex 0 2.5 10
      vertex -0.537476 6.51253 10
    endloop
  endfacet
  facet normal -0 0 1
    outer loop
      vertex -0.621841 6.31563 10
      vertex 0 2.5 10
      vertex -0.558563 6.39766 10
    endloop
  endfacet
  facet normal -0 0 1
    outer loop
      vertex -0.72731 6.2664 10
      vertex 0 2.5 10
      vertex -0.621841 6.31563 10
    endloop
  endfacet
  facet normal -0 0 1
    outer loop
      vertex -0.874969 6.25 10
      vertex 0 2.5 10
      vertex -0.72731 6.2664 10
    endloop
  endfacet
  facet normal -0 0 1
    outer loop
      vertex -3.62474 6.25 10
      vertex 0 2.5 10
      vertex -0.874969 6.25 10
    endloop
  endfacet
  facet normal 0 0 1
    outer loop
      vertex -6.51 3.5 10
      vertex -3.62474 6.25 10
      vertex -4.20715 6.30742 10
    endloop
  endfacet
  facet normal 0 0 1
    outer loop
      vertex -6.51 3.5 10
      vertex -4.20715 6.30742 10
      vertex -4.74188 6.47972 10
    endloop
  endfacet
  facet normal 0 0 1
    outer loop
      vertex -6.51 3.5 10
      vertex -4.74188 6.47972 10
      vertex -5.22896 6.76688 10
    endloop
  endfacet
  facet normal 0 0 1
    outer loop
      vertex -6.51 3.5 10
      vertex -6.44766 8.78285 10
      vertex -6.49962 9.42555 10
    endloop
  endfacet
  facet normal 0 0 1
    outer loop
      vertex -6.51 3.5 10
      vertex -6.29181 8.1925 10
      vertex -6.44766 8.78285 10
    endloop
  endfacet
  facet normal 0 0 1
    outer loop
      vertex -6.51 3.5 10
      vertex -6.03204 7.65453 10
      vertex -6.29181 8.1925 10
    endloop
  endfacet
  facet normal 0 0 1
    outer loop
      vertex -6.51 3.5 10
      vertex -5.66837 7.1689 10
      vertex -6.03204 7.65453 10
    endloop
  endfacet
  facet normal 0 0 1
    outer loop
      vertex -6.51 3.5 10
      vertex -5.22896 6.76688 10
      vertex -5.66837 7.1689 10
    endloop
  endfacet
  facet normal 0 0 1
    outer loop
      vertex -3.62474 6.25 10
      vertex -6.51 3.5 10
      vertex 0 2.5 10
    endloop
  endfacet
  facet normal 0 0 1
    outer loop
      vertex 0 2.5 10
      vertex -6.51 3.5 10
      vertex -6.51 2.5 10
    endloop
  endfacet
  facet normal -0 0 1
    outer loop
      vertex -3.59981 12.7761 10
      vertex -1.81241 6.76263 10
      vertex -1.81241 12.7761 10
    endloop
  endfacet
  facet normal 0 0 1
    outer loop
      vertex -3.59981 12.7761 10
      vertex -3.68729 6.76263 10
      vertex -1.81241 6.76263 10
    endloop
  endfacet
  facet normal 0 0 1
    outer loop
      vertex -5.60081 11.5774 10
      vertex -3.59981 12.7761 10
      vertex -3.90956 12.7585 10
    endloop
  endfacet
  facet normal 0 0 1
    outer loop
      vertex -3.59981 12.7761 10
      vertex -5.98715 9.31305 10
      vertex -3.68729 6.76263 10
    endloop
  endfacet
  facet normal 0 0 1
    outer loop
      vertex -5.60081 11.5774 10
      vertex -3.90956 12.7585 10
      vertex -4.20132 12.7057 10
    endloop
  endfacet
  facet normal 0 0 1
    outer loop
      vertex -5.60081 11.5774 10
      vertex -4.20132 12.7057 10
      vertex -4.47511 12.6178 10
    endloop
  endfacet
  facet normal 0 0 1
    outer loop
      vertex -3.59981 12.7761 10
      vertex -5.98715 10.2256 10
      vertex -5.98715 9.31305 10
    endloop
  endfacet
  facet normal 0 0 1
    outer loop
      vertex -5.60081 11.5774 10
      vertex -4.47511 12.6178 10
      vertex -4.73093 12.4947 10
    endloop
  endfacet
  facet normal -0 -0 1
    outer loop
      vertex -5.59338 7.93936 10
      vertex -3.68729 6.76263 10
      vertex -5.98715 9.31305 10
    endloop
  endfacet
  facet normal 0 0 1
    outer loop
      vertex -5.60081 11.5774 10
      vertex -4.73093 12.4947 10
      vertex -4.96295 12.3451 10
    endloop
  endfacet
  facet normal 0 0 1
    outer loop
      vertex -5.4809 11.7884 10
      vertex -4.96295 12.3451 10
      vertex -5.1653 12.1775 10
    endloop
  endfacet
  facet normal -0 -0 1
    outer loop
      vertex -4.92467 7.19861 10
      vertex -3.68729 6.76263 10
      vertex -5.28714 7.53772 10
    endloop
  endfacet
  facet normal 0 0 1
    outer loop
      vertex -5.4809 11.7884 10
      vertex -5.1653 12.1775 10
      vertex -5.33794 11.992 10
    endloop
  endfacet
  facet normal 0 0 1
    outer loop
      vertex -4.96295 12.3451 10
      vertex -5.4809 11.7884 10
      vertex -5.60081 11.5774 10
    endloop
  endfacet
  facet normal 0 0 1
    outer loop
      vertex -3.68729 6.76263 10
      vertex -4.92467 7.19861 10
      vertex -4.12476 6.81108 10
    endloop
  endfacet
  facet normal 0 0 1
    outer loop
      vertex -3.59981 12.7761 10
      vertex -5.60081 11.5774 10
      vertex -5.70433 11.3696 10
    endloop
  endfacet
  facet normal 0 0 1
    outer loop
      vertex -3.59981 12.7761 10
      vertex -5.70433 11.3696 10
      vertex -5.79144 11.1649 10
    endloop
  endfacet
  facet normal 0 0 1
    outer loop
      vertex -3.59981 12.7761 10
      vertex -5.79144 11.1649 10
      vertex -5.86214 10.9633 10
    endloop
  endfacet
  facet normal 0 0 1
    outer loop
      vertex -4.12476 6.81108 10
      vertex -4.92467 7.19861 10
      vertex -4.5372 6.95641 10
    endloop
  endfacet
  facet normal 0 0 1
    outer loop
      vertex -3.59981 12.7761 10
      vertex -5.86214 10.9633 10
      vertex -5.98715 10.2256 10
    endloop
  endfacet
  facet normal 0 0 1
    outer loop
      vertex -5.98715 10.2256 10
      vertex -5.86214 10.9633 10
      vertex -5.91684 10.7672 10
    endloop
  endfacet
  facet normal 0 0 1
    outer loop
      vertex -3.68729 6.76263 10
      vertex -5.59338 7.93936 10
      vertex -5.28714 7.53772 10
    endloop
  endfacet
  facet normal 0 0 1
    outer loop
      vertex -5.98715 10.2256 10
      vertex -5.91684 10.7672 10
      vertex -5.9559 10.5789 10
    endloop
  endfacet
  facet normal 0 0 1
    outer loop
      vertex -5.98715 10.2256 10
      vertex -5.9559 10.5789 10
      vertex -5.97934 10.3983 10
    endloop
  endfacet
  facet normal 0 0 1
    outer loop
      vertex -5.59338 7.93936 10
      vertex -5.98715 9.31305 10
      vertex -5.81215 8.36913 10
    endloop
  endfacet
  facet normal 0 0 1
    outer loop
      vertex -5.81215 8.36913 10
      vertex -5.98715 9.31305 10
      vertex -5.94341 8.82703 10
    endloop
  endfacet
  facet normal -1 0 0
    outer loop
      vertex -7.5 0 3
      vertex -7.5 17 3
      vertex -7.5 17 0
    endloop
  endfacet
  facet normal -1 0 0
    outer loop
      vertex -7.5 17 3
      vertex -7.5 3.5 9.01
      vertex -7.5 14.5 10
    endloop
  endfacet
  facet normal -1 0 0
    outer loop
      vertex -7.5 17 3
      vertex -7.5 0 3
      vertex -7.5 3.5 9.01
    endloop
  endfacet
  facet normal -1 0 0
    outer loop
      vertex -7.5 0 3
      vertex -7.5 17 0
      vertex -7.5 0 0
    endloop
  endfacet
  facet normal -1 -0 0
    outer loop
      vertex -7.5 3.5 9.01
      vertex -7.5 0 3
      vertex -7.5 2.14643 9.01
    endloop
  endfacet
  facet normal -1 -0 0
    outer loop
      vertex -7.5 14.5 10
      vertex -7.5 3.5 9.01
      vertex -7.5 3.5 10
    endloop
  endfacet
  facet normal 0 1 -0
    outer loop
      vertex 0 17 0
      vertex -7.5 17 3
      vertex 0 17 3
    endloop
  endfacet
  facet normal 0 1 0
    outer loop
      vertex -7.5 17 3
      vertex 0 17 0
      vertex -7.5 17 0
    endloop
  endfacet
  facet normal 0 0 -1
    outer loop
      vertex -7.5 0 0
      vertex 0 17 0
      vertex 0 0 0
    endloop
  endfacet
  facet normal -0 0 -1
    outer loop
      vertex 0 17 0
      vertex -7.5 0 0
      vertex -7.5 17 0
    endloop
  endfacet
  facet normal 1 0 0
    outer loop
      vertex 0 0 3
      vertex 0 17 3
      vertex 0 14.5 10
    endloop
  endfacet
  facet normal 1 0 0
    outer loop
      vertex 0 0 3
      vertex 0 14.5 10
      vertex 0 2.5 10
    endloop
  endfacet
  facet normal 1 0 0
    outer loop
      vertex 0 17 3
      vertex 0 0 3
      vertex 0 17 0
    endloop
  endfacet
  facet normal 1 0 0
    outer loop
      vertex 0 17 0
      vertex 0 0 3
      vertex 0 0 0
    endloop
  endfacet
  facet normal 0 -0.941742 0.336337
    outer loop
      vertex -7.5 2.14643 9.01
      vertex -7.5 0 3
      vertex -6.51 2.14643 9.01
    endloop
  endfacet
  facet normal 0 -0.941742 0.336335
    outer loop
      vertex -6.51 2.14643 9.01
      vertex 0 2.5 10
      vertex -6.51 2.5 10
    endloop
  endfacet
  facet normal 0 -0.941742 0.336337
    outer loop
      vertex 0 0 3
      vertex -6.51 2.14643 9.01
      vertex -7.5 0 3
    endloop
  endfacet
  facet normal -2.06658e-07 -0.941742 0.336336
    outer loop
      vertex -6.51 2.14643 9.01
      vertex 0 0 3
      vertex 0 2.5 10
    endloop
  endfacet
  facet normal 0 -1 0
    outer loop
      vertex -7.5 0 0
      vertex 0 0 3
      vertex -7.5 0 3
    endloop
  endfacet
  facet normal 0 -1 -0
    outer loop
      vertex 0 0 3
      vertex -7.5 0 0
      vertex 0 0 0
    endloop
  endfacet
  facet normal 0 0.941742 0.336336
    outer loop
      vertex 0 17 3
      vertex -7.5 14.5 10
      vertex 0 14.5 10
    endloop
  endfacet
  facet normal 0 0.941742 0.336336
    outer loop
      vertex -7.5 14.5 10
      vertex 0 17 3
      vertex -7.5 17 3
    endloop
  endfacet
  facet normal -0 0 1
    outer loop
      vertex -7.5 3.5 9.01
      vertex -6.51 2.14643 9.01
      vertex -6.51 3.5 9.01
    endloop
  endfacet
  facet normal 0 0 1
    outer loop
      vertex -6.51 2.14643 9.01
      vertex -7.5 3.5 9.01
      vertex -7.5 2.14643 9.01
    endloop
  endfacet
  facet normal -1 0 0
    outer loop
      vertex -6.51 3.5 9.01
      vertex -6.51 2.5 10
      vertex -6.51 3.5 10
    endloop
  endfacet
  facet normal -1 0 -0
    outer loop
      vertex -6.51 2.5 10
      vertex -6.51 3.5 9.01
      vertex -6.51 2.14643 9.01
    endloop
  endfacet
  facet normal 0 -1 0
    outer loop
      vertex -7.5 3.5 9.01
      vertex -6.51 3.5 10
      vertex -7.5 3.5 10
    endloop
  endfacet
  facet normal 0 -1 -0
    outer loop
      vertex -6.51 3.5 10
      vertex -7.5 3.5 9.01
      vertex -6.51 3.5 9.01
    endloop
  endfacet
  facet normal 0 0 1
    outer loop
      vertex -0.621841 13.2262 11.99
      vertex -0.537476 13.0386 11.99
      vertex -0.558563 13.148 11.99
    endloop
  endfacet
  facet normal 0 0 1
    outer loop
      vertex -0.537476 13.0386 11.99
      vertex -0.621841 13.2262 11.99
      vertex -0.72731 13.2731 11.99
    endloop
  endfacet
  facet normal 0 0 1
    outer loop
      vertex -0.72731 12.7925 11.99
      vertex -0.537476 13.0386 11.99
      vertex -0.72731 13.2731 11.99
    endloop
  endfacet
  facet normal 0 0 1
    outer loop
      vertex -0.537476 13.0386 11.99
      vertex -0.72731 12.7925 11.99
      vertex -0.558563 12.9238 11.99
    endloop
  endfacet
  facet normal 0 0 1
    outer loop
      vertex -0.558563 12.9238 11.99
      vertex -0.72731 12.7925 11.99
      vertex -0.621841 12.8417 11.99
    endloop
  endfacet
  facet normal 0 0 1
    outer loop
      vertex -0.874969 13.2887 11.99
      vertex -0.72731 12.7925 11.99
      vertex -0.72731 13.2731 11.99
    endloop
  endfacet
  facet normal 0 0 1
    outer loop
      vertex -0.874969 13.2887 11.99
      vertex -0.874969 12.7761 11.99
      vertex -0.72731 12.7925 11.99
    endloop
  endfacet
  facet normal 0 0 1
    outer loop
      vertex -0.874969 13.2887 11.99
      vertex -1.29996 12.7761 11.99
      vertex -0.874969 12.7761 11.99
    endloop
  endfacet
  facet normal 0 0 1
    outer loop
      vertex -1.29996 12.7761 11.99
      vertex -1.81241 12.7761 11.99
      vertex -1.29996 6.76263 11.99
    endloop
  endfacet
  facet normal 0 0 1
    outer loop
      vertex -0.874969 13.2887 11.99
      vertex -1.81241 12.7761 11.99
      vertex -1.29996 12.7761 11.99
    endloop
  endfacet
  facet normal -0 0 1
    outer loop
      vertex -3.62474 13.2887 11.99
      vertex -1.81241 12.7761 11.99
      vertex -0.874969 13.2887 11.99
    endloop
  endfacet
  facet normal 0 0 1
    outer loop
      vertex -1.81241 12.7761 11.99
      vertex -3.62474 13.2887 11.99
      vertex -3.59981 12.7761 11.99
    endloop
  endfacet
  facet normal 0 0 1
    outer loop
      vertex -3.62474 13.2887 11.99
      vertex -3.90956 12.7585 11.99
      vertex -3.59981 12.7761 11.99
    endloop
  endfacet
  facet normal -0 0 1
    outer loop
      vertex -4.20715 13.2313 11.99
      vertex -3.90956 12.7585 11.99
      vertex -3.62474 13.2887 11.99
    endloop
  endfacet
  facet normal 0 0 1
    outer loop
      vertex -3.90956 12.7585 11.99
      vertex -4.20715 13.2313 11.99
      vertex -4.20132 12.7057 11.99
    endloop
  endfacet
  facet normal -0 0 1
    outer loop
      vertex -4.74188 13.059 11.99
      vertex -4.20132 12.7057 11.99
      vertex -4.20715 13.2313 11.99
    endloop
  endfacet
  facet normal 0 0 1
    outer loop
      vertex -4.20132 12.7057 11.99
      vertex -4.74188 13.059 11.99
      vertex -4.47511 12.6178 11.99
    endloop
  endfacet
  facet normal 0 0 1
    outer loop
      vertex -4.47511 12.6178 11.99
      vertex -4.74188 13.059 11.99
      vertex -4.73093 12.4947 11.99
    endloop
  endfacet
  facet normal -0 0 1
    outer loop
      vertex -5.22896 12.7718 11.99
      vertex -4.73093 12.4947 11.99
      vertex -4.74188 13.059 11.99
    endloop
  endfacet
  facet normal 0 0 1
    outer loop
      vertex -4.73093 12.4947 11.99
      vertex -5.22896 12.7718 11.99
      vertex -4.96295 12.3451 11.99
    endloop
  endfacet
  facet normal 0 0 1
    outer loop
      vertex -4.96295 12.3451 11.99
      vertex -5.22896 12.7718 11.99
      vertex -5.1653 12.1775 11.99
    endloop
  endfacet
  facet normal -0 0 1
    outer loop
      vertex -5.66837 12.3698 11.99
      vertex -5.1653 12.1775 11.99
      vertex -5.22896 12.7718 11.99
    endloop
  endfacet
  facet normal 0 0 1
    outer loop
      vertex -5.1653 12.1775 11.99
      vertex -5.66837 12.3698 11.99
      vertex -5.33794 11.992 11.99
    endloop
  endfacet
  facet normal 0 0 1
    outer loop
      vertex -5.33794 11.992 11.99
      vertex -5.66837 12.3698 11.99
      vertex -5.4809 11.7884 11.99
    endloop
  endfacet
  facet normal -0 0 1
    outer loop
      vertex -6.03204 11.885 11.99
      vertex -5.4809 11.7884 11.99
      vertex -5.66837 12.3698 11.99
    endloop
  endfacet
  facet normal 0 0 1
    outer loop
      vertex -5.4809 11.7884 11.99
      vertex -6.03204 11.885 11.99
      vertex -5.60081 11.5774 11.99
    endloop
  endfacet
  facet normal 0 0 1
    outer loop
      vertex -5.60081 11.5774 11.99
      vertex -6.03204 11.885 11.99
      vertex -5.70433 11.3696 11.99
    endloop
  endfacet
  facet normal 0 0 1
    outer loop
      vertex -6.29181 11.3493 11.99
      vertex -5.70433 11.3696 11.99
      vertex -6.03204 11.885 11.99
    endloop
  endfacet
  facet normal 0 0 1
    outer loop
      vertex -5.70433 11.3696 11.99
      vertex -6.29181 11.3493 11.99
      vertex -5.79144 11.1649 11.99
    endloop
  endfacet
  facet normal 0 0 1
    outer loop
      vertex -5.79144 11.1649 11.99
      vertex -6.29181 11.3493 11.99
      vertex -5.86214 10.9633 11.99
    endloop
  endfacet
  facet normal 0 0 1
    outer loop
      vertex -5.9559 10.5789 11.99
      vertex -6.44766 10.7629 11.99
      vertex -5.97934 10.3983 11.99
    endloop
  endfacet
  facet normal 0 0 1
    outer loop
      vertex -5.91684 10.7672 11.99
      vertex -6.44766 10.7629 11.99
      vertex -5.9559 10.5789 11.99
    endloop
  endfacet
  facet normal 0 0 1
    outer loop
      vertex -5.86214 10.9633 11.99
      vertex -6.44766 10.7629 11.99
      vertex -5.91684 10.7672 11.99
    endloop
  endfacet
  facet normal 0 0 1
    outer loop
      vertex -6.44766 10.7629 11.99
      vertex -5.86214 10.9633 11.99
      vertex -6.29181 11.3493 11.99
    endloop
  endfacet
  facet normal 0 0 1
    outer loop
      vertex -0.621841 6.7001 11.99
      vertex -0.537476 6.51253 11.99
      vertex -0.558563 6.62195 11.99
    endloop
  endfacet
  facet normal 0 0 1
    outer loop
      vertex -0.537476 6.51253 11.99
      vertex -0.621841 6.7001 11.99
      vertex -0.72731 6.74699 11.99
    endloop
  endfacet
  facet normal 0 0 1
    outer loop
      vertex -0.72731 6.2664 11.99
      vertex -0.537476 6.51253 11.99
      vertex -0.72731 6.74699 11.99
    endloop
  endfacet
  facet normal 0 0 1
    outer loop
      vertex -0.537476 6.51253 11.99
      vertex -0.72731 6.2664 11.99
      vertex -0.558563 6.39766 11.99
    endloop
  endfacet
  facet normal 0 0 1
    outer loop
      vertex -0.558563 6.39766 11.99
      vertex -0.72731 6.2664 11.99
      vertex -0.621841 6.31563 11.99
    endloop
  endfacet
  facet normal 0 0 1
    outer loop
      vertex -0.874969 6.76263 11.99
      vertex -0.72731 6.2664 11.99
      vertex -0.72731 6.74699 11.99
    endloop
  endfacet
  facet normal 0 0 1
    outer loop
      vertex -0.874969 6.76263 11.99
      vertex -0.874969 6.25 11.99
      vertex -0.72731 6.2664 11.99
    endloop
  endfacet
  facet normal -0 0 1
    outer loop
      vertex -1.29996 6.76263 11.99
      vertex -0.874969 6.25 11.99
      vertex -0.874969 6.76263 11.99
    endloop
  endfacet
  facet normal 0 0 1
    outer loop
      vertex -1.81241 6.76263 11.99
      vertex -1.29996 6.76263 11.99
      vertex -1.81241 12.7761 11.99
    endloop
  endfacet
  facet normal -0 0 1
    outer loop
      vertex -1.81241 6.76263 11.99
      vertex -0.874969 6.25 11.99
      vertex -1.29996 6.76263 11.99
    endloop
  endfacet
  facet normal 0 0 1
    outer loop
      vertex -1.81241 6.76263 11.99
      vertex -3.62474 6.25 11.99
      vertex -0.874969 6.25 11.99
    endloop
  endfacet
  facet normal -0 0 1
    outer loop
      vertex -3.68729 6.76263 11.99
      vertex -3.62474 6.25 11.99
      vertex -1.81241 6.76263 11.99
    endloop
  endfacet
  facet normal 0 0 1
    outer loop
      vertex -4.20715 6.30742 11.99
      vertex -3.68729 6.76263 11.99
      vertex -4.12476 6.81108 11.99
    endloop
  endfacet
  facet normal 0 0 1
    outer loop
      vertex -3.68729 6.76263 11.99
      vertex -4.20715 6.30742 11.99
      vertex -3.62474 6.25 11.99
    endloop
  endfacet
  facet normal 0 0 1
    outer loop
      vertex -4.74188 6.47972 11.99
      vertex -4.12476 6.81108 11.99
      vertex -4.5372 6.95641 11.99
    endloop
  endfacet
  facet normal 0 0 1
    outer loop
      vertex -4.12476 6.81108 11.99
      vertex -4.74188 6.47972 11.99
      vertex -4.20715 6.30742 11.99
    endloop
  endfacet
  facet normal 0 0 1
    outer loop
      vertex -5.22896 6.76688 11.99
      vertex -4.5372 6.95641 11.99
      vertex -4.92467 7.19861 11.99
    endloop
  endfacet
  facet normal 0 0 1
    outer loop
      vertex -4.5372 6.95641 11.99
      vertex -5.22896 6.76688 11.99
      vertex -4.74188 6.47972 11.99
    endloop
  endfacet
  facet normal 0 0 1
    outer loop
      vertex -5.66837 7.1689 11.99
      vertex -4.92467 7.19861 11.99
      vertex -5.28714 7.53772 11.99
    endloop
  endfacet
  facet normal -0 0 1
    outer loop
      vertex -6.03204 7.65453 11.99
      vertex -5.28714 7.53772 11.99
      vertex -5.59338 7.93936 11.99
    endloop
  endfacet
  facet normal 0 0 1
    outer loop
      vertex -4.92467 7.19861 11.99
      vertex -5.66837 7.1689 11.99
      vertex -5.22896 6.76688 11.99
    endloop
  endfacet
  facet normal 0 0 1
    outer loop
      vertex -6.03204 7.65453 11.99
      vertex -5.59338 7.93936 11.99
      vertex -5.81215 8.36913 11.99
    endloop
  endfacet
  facet normal 0 0 1
    outer loop
      vertex -6.29181 8.1925 11.99
      vertex -5.81215 8.36913 11.99
      vertex -5.94341 8.82703 11.99
    endloop
  endfacet
  facet normal 0 0 1
    outer loop
      vertex -5.28714 7.53772 11.99
      vertex -6.03204 7.65453 11.99
      vertex -5.66837 7.1689 11.99
    endloop
  endfacet
  facet normal 0 0 1
    outer loop
      vertex -6.44766 8.78285 11.99
      vertex -5.94341 8.82703 11.99
      vertex -5.98715 9.31305 11.99
    endloop
  endfacet
  facet normal 0 0 1
    outer loop
      vertex -6.49962 10.1257 11.99
      vertex -5.97934 10.3983 11.99
      vertex -6.44766 10.7629 11.99
    endloop
  endfacet
  facet normal 0 0 1
    outer loop
      vertex -5.97934 10.3983 11.99
      vertex -6.49962 10.1257 11.99
      vertex -5.98715 10.2256 11.99
    endloop
  endfacet
  facet normal 0 0 1
    outer loop
      vertex -5.98715 10.2256 11.99
      vertex -6.49962 9.42555 11.99
      vertex -5.98715 9.31305 11.99
    endloop
  endfacet
  facet normal 0 0 1
    outer loop
      vertex -6.49962 9.42555 11.99
      vertex -5.98715 10.2256 11.99
      vertex -6.49962 10.1257 11.99
    endloop
  endfacet
  facet normal 0 -0 1
    outer loop
      vertex -6.44766 8.78285 11.99
      vertex -5.98715 9.31305 11.99
      vertex -6.49962 9.42555 11.99
    endloop
  endfacet
  facet normal 0 0 1
    outer loop
      vertex -5.94341 8.82703 11.99
      vertex -6.44766 8.78285 11.99
      vertex -6.29181 8.1925 11.99
    endloop
  endfacet
  facet normal 0 0 1
    outer loop
      vertex -5.81215 8.36913 11.99
      vertex -6.29181 8.1925 11.99
      vertex -6.03204 7.65453 11.99
    endloop
  endfacet
  facet normal -0.306691 -0.951809 0
    outer loop
      vertex -4.74188 6.47972 10
      vertex -4.20715 6.30742 11.99
      vertex -4.74188 6.47972 11.99
    endloop
  endfacet
  facet normal -0.306691 -0.951809 -0
    outer loop
      vertex -4.20715 6.30742 11.99
      vertex -4.74188 6.47972 10
      vertex -4.20715 6.30742 10
    endloop
  endfacet
  facet normal -0.507864 -0.861437 0
    outer loop
      vertex -5.22896 6.76688 10
      vertex -4.74188 6.47972 11.99
      vertex -5.22896 6.76688 11.99
    endloop
  endfacet
  facet normal -0.507864 -0.861437 -0
    outer loop
      vertex -4.74188 6.47972 11.99
      vertex -5.22896 6.76688 10
      vertex -4.74188 6.47972 10
    endloop
  endfacet
  facet normal -0.675019 -0.7378 0
    outer loop
      vertex -5.66837 7.1689 10
      vertex -5.22896 6.76688 11.99
      vertex -5.66837 7.1689 11.99
    endloop
  endfacet
  facet normal -0.675019 -0.7378 -0
    outer loop
      vertex -5.22896 6.76688 11.99
      vertex -5.66837 7.1689 10
      vertex -5.22896 6.76688 10
    endloop
  endfacet
  facet normal -0.800437 -0.599417 0
    outer loop
      vertex -5.66837 7.1689 10
      vertex -6.03204 7.65453 11.99
      vertex -6.03204 7.65453 10
    endloop
  endfacet
  facet normal -0.800437 -0.599417 0
    outer loop
      vertex -6.03204 7.65453 11.99
      vertex -5.66837 7.1689 10
      vertex -5.66837 7.1689 11.99
    endloop
  endfacet
  facet normal -0.900512 -0.434831 0
    outer loop
      vertex -6.03204 7.65453 10
      vertex -6.29181 8.1925 11.99
      vertex -6.29181 8.1925 10
    endloop
  endfacet
  facet normal -0.900512 -0.434831 0
    outer loop
      vertex -6.29181 8.1925 11.99
      vertex -6.03204 7.65453 10
      vertex -6.03204 7.65453 11.99
    endloop
  endfacet
  facet normal -0.966875 -0.255251 0
    outer loop
      vertex -6.29181 8.1925 10
      vertex -6.44766 8.78285 11.99
      vertex -6.44766 8.78285 10
    endloop
  endfacet
  facet normal -0.966875 -0.255251 0
    outer loop
      vertex -6.44766 8.78285 11.99
      vertex -6.29181 8.1925 10
      vertex -6.29181 8.1925 11.99
    endloop
  endfacet
  facet normal -0.996748 -0.0805835 0
    outer loop
      vertex -6.44766 8.78285 10
      vertex -6.49962 9.42555 11.99
      vertex -6.49962 9.42555 10
    endloop
  endfacet
  facet normal -0.996748 -0.0805835 0
    outer loop
      vertex -6.49962 9.42555 11.99
      vertex -6.44766 8.78285 10
      vertex -6.44766 8.78285 11.99
    endloop
  endfacet
  facet normal -1 0 0
    outer loop
      vertex -6.49962 9.42555 10
      vertex -6.49962 10.1257 11.99
      vertex -6.49962 10.1257 10
    endloop
  endfacet
  facet normal -1 -0 0
    outer loop
      vertex -6.49962 10.1257 11.99
      vertex -6.49962 9.42555 10
      vertex -6.49962 9.42555 11.99
    endloop
  endfacet
  facet normal -0.996692 0.0812745 0
    outer loop
      vertex -6.49962 10.1257 10
      vertex -6.44766 10.7629 11.99
      vertex -6.44766 10.7629 10
    endloop
  endfacet
  facet normal -0.996692 0.0812745 0
    outer loop
      vertex -6.44766 10.7629 11.99
      vertex -6.49962 10.1257 10
      vertex -6.49962 10.1257 11.99
    endloop
  endfacet
  facet normal -0.966449 0.256857 0
    outer loop
      vertex -6.44766 10.7629 10
      vertex -6.29181 11.3493 11.99
      vertex -6.29181 11.3493 10
    endloop
  endfacet
  facet normal -0.966449 0.256857 0
    outer loop
      vertex -6.29181 11.3493 11.99
      vertex -6.44766 10.7629 10
      vertex -6.44766 10.7629 11.99
    endloop
  endfacet
  facet normal -0.89979 0.436323 0
    outer loop
      vertex -6.29181 11.3493 10
      vertex -6.03204 11.885 11.99
      vertex -6.03204 11.885 10
    endloop
  endfacet
  facet normal -0.89979 0.436323 0
    outer loop
      vertex -6.03204 11.885 11.99
      vertex -6.29181 11.3493 10
      vertex -6.29181 11.3493 11.99
    endloop
  endfacet
  facet normal -0.799945 0.600074 0
    outer loop
      vertex -6.03204 11.885 10
      vertex -5.66837 12.3698 11.99
      vertex -5.66837 12.3698 10
    endloop
  endfacet
  facet normal -0.799945 0.600074 0
    outer loop
      vertex -5.66837 12.3698 11.99
      vertex -6.03204 11.885 10
      vertex -6.03204 11.885 11.99
    endloop
  endfacet
  facet normal -0.675001 0.737817 0
    outer loop
      vertex -5.22896 12.7718 10
      vertex -5.66837 12.3698 11.99
      vertex -5.22896 12.7718 11.99
    endloop
  endfacet
  facet normal -0.675001 0.737817 0
    outer loop
      vertex -5.66837 12.3698 11.99
      vertex -5.22896 12.7718 10
      vertex -5.66837 12.3698 10
    endloop
  endfacet
  facet normal -0.507916 0.861406 0
    outer loop
      vertex -4.74188 13.059 10
      vertex -5.22896 12.7718 11.99
      vertex -4.74188 13.059 11.99
    endloop
  endfacet
  facet normal -0.507916 0.861406 0
    outer loop
      vertex -5.22896 12.7718 11.99
      vertex -4.74188 13.059 10
      vertex -5.22896 12.7718 10
    endloop
  endfacet
  facet normal -0.306691 0.951809 0
    outer loop
      vertex -4.20715 13.2313 10
      vertex -4.74188 13.059 11.99
      vertex -4.20715 13.2313 11.99
    endloop
  endfacet
  facet normal -0.306691 0.951809 0
    outer loop
      vertex -4.74188 13.059 11.99
      vertex -4.20715 13.2313 10
      vertex -4.74188 13.059 10
    endloop
  endfacet
  facet normal -0.0980808 0.995178 0
    outer loop
      vertex -3.62474 13.2887 10
      vertex -4.20715 13.2313 11.99
      vertex -3.62474 13.2887 11.99
    endloop
  endfacet
  facet normal -0.0980808 0.995178 0
    outer loop
      vertex -4.20715 13.2313 11.99
      vertex -3.62474 13.2887 10
      vertex -4.20715 13.2313 10
    endloop
  endfacet
  facet normal 0 1 -0
    outer loop
      vertex -0.874969 13.2887 10
      vertex -3.62474 13.2887 11.99
      vertex -0.874969 13.2887 11.99
    endloop
  endfacet
  facet normal 0 1 0
    outer loop
      vertex -3.62474 13.2887 11.99
      vertex -0.874969 13.2887 10
      vertex -3.62474 13.2887 10
    endloop
  endfacet
  facet normal 0.105064 0.994465 -0
    outer loop
      vertex -0.72731 13.2731 10
      vertex -0.874969 13.2887 11.99
      vertex -0.72731 13.2731 11.99
    endloop
  endfacet
  facet normal 0.105064 0.994465 0
    outer loop
      vertex -0.874969 13.2887 11.99
      vertex -0.72731 13.2731 10
      vertex -0.874969 13.2887 10
    endloop
  endfacet
  facet normal 0.406319 0.913732 -0
    outer loop
      vertex -0.621841 13.2262 10
      vertex -0.72731 13.2731 11.99
      vertex -0.621841 13.2262 11.99
    endloop
  endfacet
  facet normal 0.406319 0.913732 0
    outer loop
      vertex -0.72731 13.2731 11.99
      vertex -0.621841 13.2262 10
      vertex -0.72731 13.2731 10
    endloop
  endfacet
  facet normal 0.777375 0.629038 0
    outer loop
      vertex -0.558563 13.148 11.99
      vertex -0.621841 13.2262 10
      vertex -0.621841 13.2262 11.99
    endloop
  endfacet
  facet normal 0.777375 0.629038 0
    outer loop
      vertex -0.621841 13.2262 10
      vertex -0.558563 13.148 11.99
      vertex -0.558563 13.148 10
    endloop
  endfacet
  facet normal 0.981926 0.189267 0
    outer loop
      vertex -0.537476 13.0386 11.99
      vertex -0.558563 13.148 10
      vertex -0.558563 13.148 11.99
    endloop
  endfacet
  facet normal 0.981926 0.189267 0
    outer loop
      vertex -0.558563 13.148 10
      vertex -0.537476 13.0386 11.99
      vertex -0.537476 13.0386 10
    endloop
  endfacet
  facet normal 0.983545 -0.180662 0
    outer loop
      vertex -0.558563 12.9238 11.99
      vertex -0.537476 13.0386 10
      vertex -0.537476 13.0386 11.99
    endloop
  endfacet
  facet normal 0.983545 -0.180662 0
    outer loop
      vertex -0.537476 13.0386 10
      vertex -0.558563 12.9238 11.99
      vertex -0.558563 12.9238 10
    endloop
  endfacet
  facet normal 0.792045 -0.610463 0
    outer loop
      vertex -0.621841 12.8417 11.99
      vertex -0.558563 12.9238 10
      vertex -0.558563 12.9238 11.99
    endloop
  endfacet
  facet normal 0.792045 -0.610463 0
    outer loop
      vertex -0.558563 12.9238 10
      vertex -0.621841 12.8417 11.99
      vertex -0.621841 12.8417 10
    endloop
  endfacet
  facet normal 0.422752 -0.906245 0
    outer loop
      vertex -0.72731 12.7925 10
      vertex -0.621841 12.8417 11.99
      vertex -0.72731 12.7925 11.99
    endloop
  endfacet
  facet normal 0.422752 -0.906245 0
    outer loop
      vertex -0.621841 12.8417 11.99
      vertex -0.72731 12.7925 10
      vertex -0.621841 12.8417 10
    endloop
  endfacet
  facet normal 0.110388 -0.993889 0
    outer loop
      vertex -0.874969 12.7761 10
      vertex -0.72731 12.7925 11.99
      vertex -0.874969 12.7761 11.99
    endloop
  endfacet
  facet normal 0.110388 -0.993889 0
    outer loop
      vertex -0.72731 12.7925 11.99
      vertex -0.874969 12.7761 10
      vertex -0.72731 12.7925 10
    endloop
  endfacet
  facet normal 0 -1 0
    outer loop
      vertex -1.29996 12.7761 10
      vertex -0.874969 12.7761 11.99
      vertex -1.29996 12.7761 11.99
    endloop
  endfacet
  facet normal 0 -1 -0
    outer loop
      vertex -0.874969 12.7761 11.99
      vertex -1.29996 12.7761 10
      vertex -0.874969 12.7761 10
    endloop
  endfacet
  facet normal 1 -0 0
    outer loop
      vertex -1.29996 6.76263 11.99
      vertex -1.29996 12.7761 10
      vertex -1.29996 12.7761 11.99
    endloop
  endfacet
  facet normal 1 0 0
    outer loop
      vertex -1.29996 12.7761 10
      vertex -1.29996 6.76263 11.99
      vertex -1.29996 6.76263 10
    endloop
  endfacet
  facet normal 0 1 -0
    outer loop
      vertex -0.874969 6.76263 10
      vertex -1.29996 6.76263 11.99
      vertex -0.874969 6.76263 11.99
    endloop
  endfacet
  facet normal 0 1 0
    outer loop
      vertex -1.29996 6.76263 11.99
      vertex -0.874969 6.76263 10
      vertex -1.29996 6.76263 10
    endloop
  endfacet
  facet normal 0.105331 0.994437 -0
    outer loop
      vertex -0.72731 6.74699 10
      vertex -0.874969 6.76263 11.99
      vertex -0.72731 6.74699 11.99
    endloop
  endfacet
  facet normal 0.105331 0.994437 0
    outer loop
      vertex -0.874969 6.76263 11.99
      vertex -0.72731 6.74699 10
      vertex -0.874969 6.76263 10
    endloop
  endfacet
  facet normal 0.406246 0.913764 -0
    outer loop
      vertex -0.621841 6.7001 10
      vertex -0.72731 6.74699 11.99
      vertex -0.621841 6.7001 11.99
    endloop
  endfacet
  facet normal 0.406246 0.913764 0
    outer loop
      vertex -0.72731 6.74699 11.99
      vertex -0.621841 6.7001 10
      vertex -0.72731 6.74699 10
    endloop
  endfacet
  facet normal 0.777178 0.629281 0
    outer loop
      vertex -0.558563 6.62195 11.99
      vertex -0.621841 6.7001 10
      vertex -0.621841 6.7001 11.99
    endloop
  endfacet
  facet normal 0.777178 0.629281 0
    outer loop
      vertex -0.621841 6.7001 10
      vertex -0.558563 6.62195 11.99
      vertex -0.558563 6.62195 10
    endloop
  endfacet
  facet normal 0.981932 0.189234 0
    outer loop
      vertex -0.537476 6.51253 11.99
      vertex -0.558563 6.62195 10
      vertex -0.558563 6.62195 11.99
    endloop
  endfacet
  facet normal 0.981932 0.189234 0
    outer loop
      vertex -0.558563 6.62195 10
      vertex -0.537476 6.51253 11.99
      vertex -0.537476 6.51253 10
    endloop
  endfacet
  facet normal 0.983565 -0.180556 0
    outer loop
      vertex -0.558563 6.39766 11.99
      vertex -0.537476 6.51253 10
      vertex -0.537476 6.51253 11.99
    endloop
  endfacet
  facet normal 0.983565 -0.180556 0
    outer loop
      vertex -0.537476 6.51253 10
      vertex -0.558563 6.39766 11.99
      vertex -0.558563 6.39766 10
    endloop
  endfacet
  facet normal 0.791793 -0.61079 0
    outer loop
      vertex -0.621841 6.31563 11.99
      vertex -0.558563 6.39766 10
      vertex -0.558563 6.39766 11.99
    endloop
  endfacet
  facet normal 0.791793 -0.61079 0
    outer loop
      vertex -0.558563 6.39766 10
      vertex -0.621841 6.31563 11.99
      vertex -0.621841 6.31563 10
    endloop
  endfacet
  facet normal 0.422964 -0.906146 0
    outer loop
      vertex -0.72731 6.2664 10
      vertex -0.621841 6.31563 11.99
      vertex -0.72731 6.2664 11.99
    endloop
  endfacet
  facet normal 0.422964 -0.906146 0
    outer loop
      vertex -0.621841 6.31563 11.99
      vertex -0.72731 6.2664 10
      vertex -0.621841 6.31563 10
    endloop
  endfacet
  facet normal 0.110388 -0.993889 0
    outer loop
      vertex -0.874969 6.25 10
      vertex -0.72731 6.2664 11.99
      vertex -0.874969 6.25 11.99
    endloop
  endfacet
  facet normal 0.110388 -0.993889 0
    outer loop
      vertex -0.72731 6.2664 11.99
      vertex -0.874969 6.25 10
      vertex -0.72731 6.2664 10
    endloop
  endfacet
  facet normal 0 -1 0
    outer loop
      vertex -3.62474 6.25 10
      vertex -0.874969 6.25 11.99
      vertex -3.62474 6.25 11.99
    endloop
  endfacet
  facet normal 0 -1 -0
    outer loop
      vertex -0.874969 6.25 11.99
      vertex -3.62474 6.25 10
      vertex -0.874969 6.25 10
    endloop
  endfacet
  facet normal -0.0981147 -0.995175 0
    outer loop
      vertex -4.20715 6.30742 10
      vertex -3.62474 6.25 11.99
      vertex -4.20715 6.30742 11.99
    endloop
  endfacet
  facet normal -0.0981147 -0.995175 -0
    outer loop
      vertex -3.62474 6.25 11.99
      vertex -4.20715 6.30742 10
      vertex -3.62474 6.25 10
    endloop
  endfacet
  facet normal -1 0 0
    outer loop
      vertex -1.81241 6.76263 10
      vertex -1.81241 12.7761 11.99
      vertex -1.81241 12.7761 10
    endloop
  endfacet
  facet normal -1 -0 0
    outer loop
      vertex -1.81241 12.7761 11.99
      vertex -1.81241 6.76263 10
      vertex -1.81241 6.76263 11.99
    endloop
  endfacet
  facet normal 0 -1 0
    outer loop
      vertex -3.59981 12.7761 10
      vertex -1.81241 12.7761 11.99
      vertex -3.59981 12.7761 11.99
    endloop
  endfacet
  facet normal 0 -1 -0
    outer loop
      vertex -1.81241 12.7761 11.99
      vertex -3.59981 12.7761 10
      vertex -1.81241 12.7761 10
    endloop
  endfacet
  facet normal 0.0567285 -0.99839 0
    outer loop
      vertex -3.90956 12.7585 10
      vertex -3.59981 12.7761 11.99
      vertex -3.90956 12.7585 11.99
    endloop
  endfacet
  facet normal 0.0567285 -0.99839 0
    outer loop
      vertex -3.59981 12.7761 11.99
      vertex -3.90956 12.7585 10
      vertex -3.59981 12.7761 10
    endloop
  endfacet
  facet normal 0.178078 -0.984016 0
    outer loop
      vertex -4.20132 12.7057 10
      vertex -3.90956 12.7585 11.99
      vertex -4.20132 12.7057 11.99
    endloop
  endfacet
  facet normal 0.178078 -0.984016 0
    outer loop
      vertex -3.90956 12.7585 11.99
      vertex -4.20132 12.7057 10
      vertex -3.90956 12.7585 10
    endloop
  endfacet
  facet normal 0.305682 -0.952134 0
    outer loop
      vertex -4.47511 12.6178 10
      vertex -4.20132 12.7057 11.99
      vertex -4.47511 12.6178 11.99
    endloop
  endfacet
  facet normal 0.305682 -0.952134 0
    outer loop
      vertex -4.20132 12.7057 11.99
      vertex -4.47511 12.6178 10
      vertex -4.20132 12.7057 10
    endloop
  endfacet
  facet normal 0.433608 -0.901102 0
    outer loop
      vertex -4.73093 12.4947 10
      vertex -4.47511 12.6178 11.99
      vertex -4.73093 12.4947 11.99
    endloop
  endfacet
  facet normal 0.433608 -0.901102 0
    outer loop
      vertex -4.47511 12.6178 11.99
      vertex -4.73093 12.4947 10
      vertex -4.47511 12.6178 10
    endloop
  endfacet
  facet normal 0.541896 -0.840446 0
    outer loop
      vertex -4.96295 12.3451 10
      vertex -4.73093 12.4947 11.99
      vertex -4.96295 12.3451 11.99
    endloop
  endfacet
  facet normal 0.541896 -0.840446 0
    outer loop
      vertex -4.73093 12.4947 11.99
      vertex -4.96295 12.3451 10
      vertex -4.73093 12.4947 10
    endloop
  endfacet
  facet normal 0.637879 -0.770136 0
    outer loop
      vertex -5.1653 12.1775 10
      vertex -4.96295 12.3451 11.99
      vertex -5.1653 12.1775 11.99
    endloop
  endfacet
  facet normal 0.637879 -0.770136 0
    outer loop
      vertex -4.96295 12.3451 11.99
      vertex -5.1653 12.1775 10
      vertex -4.96295 12.3451 10
    endloop
  endfacet
  facet normal 0.732026 -0.681277 0
    outer loop
      vertex -5.33794 11.992 11.99
      vertex -5.1653 12.1775 10
      vertex -5.1653 12.1775 11.99
    endloop
  endfacet
  facet normal 0.732026 -0.681277 0
    outer loop
      vertex -5.1653 12.1775 10
      vertex -5.33794 11.992 11.99
      vertex -5.33794 11.992 10
    endloop
  endfacet
  facet normal 0.8184 -0.574649 0
    outer loop
      vertex -5.4809 11.7884 11.99
      vertex -5.33794 11.992 10
      vertex -5.33794 11.992 11.99
    endloop
  endfacet
  facet normal 0.8184 -0.574649 0
    outer loop
      vertex -5.33794 11.992 10
      vertex -5.4809 11.7884 11.99
      vertex -5.4809 11.7884 10
    endloop
  endfacet
  facet normal 0.869415 -0.494083 0
    outer loop
      vertex -5.60081 11.5774 11.99
      vertex -5.4809 11.7884 10
      vertex -5.4809 11.7884 11.99
    endloop
  endfacet
  facet normal 0.869415 -0.494083 0
    outer loop
      vertex -5.4809 11.7884 10
      vertex -5.60081 11.5774 11.99
      vertex -5.60081 11.5774 10
    endloop
  endfacet
  facet normal 0.895081 -0.445904 0
    outer loop
      vertex -5.70433 11.3696 11.99
      vertex -5.60081 11.5774 10
      vertex -5.60081 11.5774 11.99
    endloop
  endfacet
  facet normal 0.895081 -0.445904 0
    outer loop
      vertex -5.60081 11.5774 10
      vertex -5.70433 11.3696 11.99
      vertex -5.70433 11.3696 10
    endloop
  endfacet
  facet normal 0.920149 -0.391569 0
    outer loop
      vertex -5.79144 11.1649 11.99
      vertex -5.70433 11.3696 10
      vertex -5.70433 11.3696 11.99
    endloop
  endfacet
  facet normal 0.920149 -0.391569 0
    outer loop
      vertex -5.70433 11.3696 10
      vertex -5.79144 11.1649 11.99
      vertex -5.79144 11.1649 10
    endloop
  endfacet
  facet normal 0.943654 -0.330934 0
    outer loop
      vertex -5.86214 10.9633 11.99
      vertex -5.79144 11.1649 10
      vertex -5.79144 11.1649 11.99
    endloop
  endfacet
  facet normal 0.943654 -0.330934 0
    outer loop
      vertex -5.79144 11.1649 10
      vertex -5.86214 10.9633 11.99
      vertex -5.86214 10.9633 10
    endloop
  endfacet
  facet normal 0.963229 -0.268682 0
    outer loop
      vertex -5.91684 10.7672 11.99
      vertex -5.86214 10.9633 10
      vertex -5.86214 10.9633 11.99
    endloop
  endfacet
  facet normal 0.963229 -0.268682 0
    outer loop
      vertex -5.86214 10.9633 10
      vertex -5.91684 10.7672 11.99
      vertex -5.91684 10.7672 10
    endloop
  endfacet
  facet normal 0.979156 -0.203111 0
    outer loop
      vertex -5.9559 10.5789 11.99
      vertex -5.91684 10.7672 10
      vertex -5.91684 10.7672 11.99
    endloop
  endfacet
  facet normal 0.979156 -0.203111 0
    outer loop
      vertex -5.91684 10.7672 10
      vertex -5.9559 10.5789 11.99
      vertex -5.9559 10.5789 10
    endloop
  endfacet
  facet normal 0.991682 -0.12871 0
    outer loop
      vertex -5.97934 10.3983 11.99
      vertex -5.9559 10.5789 10
      vertex -5.9559 10.5789 11.99
    endloop
  endfacet
  facet normal 0.991682 -0.12871 0
    outer loop
      vertex -5.9559 10.5789 10
      vertex -5.97934 10.3983 11.99
      vertex -5.97934 10.3983 10
    endloop
  endfacet
  facet normal 0.998979 -0.0451768 0
    outer loop
      vertex -5.98715 10.2256 11.99
      vertex -5.97934 10.3983 10
      vertex -5.97934 10.3983 11.99
    endloop
  endfacet
  facet normal 0.998979 -0.0451768 0
    outer loop
      vertex -5.97934 10.3983 10
      vertex -5.98715 10.2256 11.99
      vertex -5.98715 10.2256 10
    endloop
  endfacet
  facet normal 1 -0 0
    outer loop
      vertex -5.98715 9.31305 11.99
      vertex -5.98715 10.2256 10
      vertex -5.98715 10.2256 11.99
    endloop
  endfacet
  facet normal 1 0 0
    outer loop
      vertex -5.98715 10.2256 10
      vertex -5.98715 9.31305 11.99
      vertex -5.98715 9.31305 10
    endloop
  endfacet
  facet normal 0.995975 0.089634 0
    outer loop
      vertex -5.94341 8.82703 11.99
      vertex -5.98715 9.31305 10
      vertex -5.98715 9.31305 11.99
    endloop
  endfacet
  facet normal 0.995975 0.089634 0
    outer loop
      vertex -5.98715 9.31305 10
      vertex -5.94341 8.82703 11.99
      vertex -5.94341 8.82703 10
    endloop
  endfacet
  facet normal 0.961284 0.275558 0
    outer loop
      vertex -5.81215 8.36913 11.99
      vertex -5.94341 8.82703 10
      vertex -5.94341 8.82703 11.99
    endloop
  endfacet
  facet normal 0.961284 0.275558 0
    outer loop
      vertex -5.94341 8.82703 10
      vertex -5.81215 8.36913 11.99
      vertex -5.81215 8.36913 10
    endloop
  endfacet
  facet normal 0.891182 0.453647 0
    outer loop
      vertex -5.59338 7.93936 11.99
      vertex -5.81215 8.36913 10
      vertex -5.81215 8.36913 11.99
    endloop
  endfacet
  facet normal 0.891182 0.453647 0
    outer loop
      vertex -5.81215 8.36913 10
      vertex -5.59338 7.93936 11.99
      vertex -5.59338 7.93936 10
    endloop
  endfacet
  facet normal 0.795214 0.60633 0
    outer loop
      vertex -5.28714 7.53772 11.99
      vertex -5.59338 7.93936 10
      vertex -5.59338 7.93936 11.99
    endloop
  endfacet
  facet normal 0.795214 0.60633 0
    outer loop
      vertex -5.59338 7.93936 10
      vertex -5.28714 7.53772 11.99
      vertex -5.28714 7.53772 10
    endloop
  endfacet
  facet normal 0.683184 0.730246 -0
    outer loop
      vertex -4.92467 7.19861 10
      vertex -5.28714 7.53772 11.99
      vertex -4.92467 7.19861 11.99
    endloop
  endfacet
  facet normal 0.683184 0.730246 0
    outer loop
      vertex -5.28714 7.53772 11.99
      vertex -4.92467 7.19861 10
      vertex -5.28714 7.53772 10
    endloop
  endfacet
  facet normal 0.530048 0.847968 -0
    outer loop
      vertex -4.5372 6.95641 10
      vertex -4.92467 7.19861 11.99
      vertex -4.5372 6.95641 11.99
    endloop
  endfacet
  facet normal 0.530048 0.847968 0
    outer loop
      vertex -4.92467 7.19861 11.99
      vertex -4.5372 6.95641 10
      vertex -4.92467 7.19861 10
    endloop
  endfacet
  facet normal 0.332338 0.94316 -0
    outer loop
      vertex -4.12476 6.81108 10
      vertex -4.5372 6.95641 11.99
      vertex -4.12476 6.81108 11.99
    endloop
  endfacet
  facet normal 0.332338 0.94316 0
    outer loop
      vertex -4.5372 6.95641 11.99
      vertex -4.12476 6.81108 10
      vertex -4.5372 6.95641 10
    endloop
  endfacet
  facet normal 0.110077 0.993923 -0
    outer loop
      vertex -3.68729 6.76263 10
      vertex -4.12476 6.81108 11.99
      vertex -3.68729 6.76263 11.99
    endloop
  endfacet
  facet normal 0.110077 0.993923 0
    outer loop
      vertex -4.12476 6.81108 11.99
      vertex -3.68729 6.76263 10
      vertex -4.12476 6.81108 10
    endloop
  endfacet
  facet normal 0 1 -0
    outer loop
      vertex -1.81241 6.76263 10
      vertex -3.68729 6.76263 11.99
      vertex -1.81241 6.76263 11.99
    endloop
  endfacet
  facet normal 0 1 0
    outer loop
      vertex -3.68729 6.76263 11.99
      vertex -1.81241 6.76263 10
      vertex -3.68729 6.76263 10
    endloop
  endfacet
endsolid OpenSCAD_Model
