solid OpenSCAD_Model
  facet normal 0 0 1
    outer loop
      vertex -3.53882 6.59818 10
      vertex -1.60305 8.26868 10
      vertex -1.49996 8.73831 10
    endloop
  endfacet
  facet normal 0 0 1
    outer loop
      vertex -1.60305 8.26868 10
      vertex -2.01546 7.4772 10
      vertex -1.77487 7.8483 10
    endloop
  endfacet
  facet normal 0 0 1
    outer loop
      vertex -1.60305 8.26868 10
      vertex -2.3248 7.1554 10
      vertex -2.01546 7.4772 10
    endloop
  endfacet
  facet normal 0 0 1
    outer loop
      vertex -1.60305 8.26868 10
      vertex -2.68886 6.89536 10
      vertex -2.3248 7.1554 10
    endloop
  endfacet
  facet normal 0 0 1
    outer loop
      vertex -1.60305 8.26868 10
      vertex -3.09354 6.70963 10
      vertex -2.68886 6.89536 10
    endloop
  endfacet
  facet normal 0 0 1
    outer loop
      vertex -1.60305 8.26868 10
      vertex -3.53882 6.59818 10
      vertex -3.09354 6.70963 10
    endloop
  endfacet
  facet normal 0 0 1
    outer loop
      vertex -1.49996 8.73831 10
      vertex -4.02472 6.56104 10
      vertex -3.53882 6.59818 10
    endloop
  endfacet
  facet normal 0 0 1
    outer loop
      vertex -1.49996 8.73831 10
      vertex -4.32004 6.57275 10
      vertex -4.02472 6.56104 10
    endloop
  endfacet
  facet normal -0 0 1
    outer loop
      vertex -6.69962 8.73831 10
      vertex -4.32004 6.57275 10
      vertex -1.49996 8.73831 10
    endloop
  endfacet
  facet normal 0 0 1
    outer loop
      vertex -4.32004 6.57275 10
      vertex -6.69962 8.73831 10
      vertex -4.61847 6.60794 10
    endloop
  endfacet
  facet normal 0 0 1
    outer loop
      vertex -4.61847 6.60794 10
      vertex -6.69962 8.73831 10
      vertex -4.92003 6.66658 10
    endloop
  endfacet
  facet normal 0 0 1
    outer loop
      vertex -4.92003 6.66658 10
      vertex -6.69962 8.73831 10
      vertex -5.22469 6.74869 10
    endloop
  endfacet
  facet normal 0 0 1
    outer loop
      vertex -5.22469 6.74869 10
      vertex -6.69962 8.73831 10
      vertex -5.51607 6.84959 10
    endloop
  endfacet
  facet normal 0 0 1
    outer loop
      vertex -5.51607 6.84959 10
      vertex -6.69962 8.73831 10
      vertex -5.77776 6.96457 10
    endloop
  endfacet
  facet normal 0 0 1
    outer loop
      vertex -5.77776 6.96457 10
      vertex -6.69962 8.73831 10
      vertex -6.00977 7.09363 10
    endloop
  endfacet
  facet normal 0 0 1
    outer loop
      vertex -6.00977 7.09363 10
      vertex -6.69962 8.73831 10
      vertex -6.21208 7.23676 10
    endloop
  endfacet
  facet normal 0 0 1
    outer loop
      vertex -6.21208 7.23676 10
      vertex -6.69962 8.73831 10
      vertex -6.27146 7.27507 10
    endloop
  endfacet
  facet normal 0 0 1
    outer loop
      vertex -6.27146 7.27507 10
      vertex -6.69962 8.73831 10
      vertex -6.32459 7.30243 10
    endloop
  endfacet
  facet normal 0 0 1
    outer loop
      vertex -6.32459 7.30243 10
      vertex -6.69962 8.73831 10
      vertex -6.37145 7.31885 10
    endloop
  endfacet
  facet normal 0 0 1
    outer loop
      vertex -6.37145 7.31885 10
      vertex -6.69962 8.73831 10
      vertex -6.41207 7.32433 10
    endloop
  endfacet
  facet normal 0 0 1
    outer loop
      vertex -6.64528 7.12251 10
      vertex -6.69962 8.73831 10
      vertex -6.64957 7.07404 10
    endloop
  endfacet
  facet normal 0 0 1
    outer loop
      vertex -6.63239 7.16786 10
      vertex -6.69962 8.73831 10
      vertex -6.64528 7.12251 10
    endloop
  endfacet
  facet normal 0 0 1
    outer loop
      vertex -6.61089 7.21008 10
      vertex -6.69962 8.73831 10
      vertex -6.63239 7.16786 10
    endloop
  endfacet
  facet normal 0 0 1
    outer loop
      vertex -6.58081 7.24918 10
      vertex -6.69962 8.73831 10
      vertex -6.61089 7.21008 10
    endloop
  endfacet
  facet normal 0 0 1
    outer loop
      vertex -6.54448 7.28204 10
      vertex -6.69962 8.73831 10
      vertex -6.58081 7.24918 10
    endloop
  endfacet
  facet normal 0 0 1
    outer loop
      vertex -6.50424 7.30554 10
      vertex -6.69962 8.73831 10
      vertex -6.54448 7.28204 10
    endloop
  endfacet
  facet normal 0 0 1
    outer loop
      vertex -6.4601 7.31963 10
      vertex -6.69962 8.73831 10
      vertex -6.50424 7.30554 10
    endloop
  endfacet
  facet normal 0 0 1
    outer loop
      vertex -6.41207 7.32433 10
      vertex -6.69962 8.73831 10
      vertex -6.4601 7.31963 10
    endloop
  endfacet
  facet normal 0 0 1
    outer loop
      vertex 0 14.5 10
      vertex -0.987399 8.96341 10
      vertex 0 2.5 10
    endloop
  endfacet
  facet normal 0 0 1
    outer loop
      vertex 0 14.5 10
      vertex -1.03896 9.50854 10
      vertex -0.987399 8.96341 10
    endloop
  endfacet
  facet normal 0 0 1
    outer loop
      vertex 0 14.5 10
      vertex -1.19364 10.0076 10
      vertex -1.03896 9.50854 10
    endloop
  endfacet
  facet normal 0 0 1
    outer loop
      vertex 0 14.5 10
      vertex -1.45143 10.4606 10
      vertex -1.19364 10.0076 10
    endloop
  endfacet
  facet normal 0 0 1
    outer loop
      vertex 0 14.5 10
      vertex -1.81234 10.8676 10
      vertex -1.45143 10.4606 10
    endloop
  endfacet
  facet normal 0 0 1
    outer loop
      vertex 0 14.5 10
      vertex -2.24828 11.2036 10
      vertex -1.81234 10.8676 10
    endloop
  endfacet
  facet normal 0 0 1
    outer loop
      vertex 0 14.5 10
      vertex -2.73108 11.4436 10
      vertex -2.24828 11.2036 10
    endloop
  endfacet
  facet normal 0 0 1
    outer loop
      vertex 0 14.5 10
      vertex -3.26075 11.5876 10
      vertex -2.73108 11.4436 10
    endloop
  endfacet
  facet normal 0 0 1
    outer loop
      vertex 0 14.5 10
      vertex -3.83725 11.6356 10
      vertex -3.26075 11.5876 10
    endloop
  endfacet
  facet normal -0 0 1
    outer loop
      vertex -8 14.5 10
      vertex -3.83725 11.6356 10
      vertex 0 14.5 10
    endloop
  endfacet
  facet normal 0 0 1
    outer loop
      vertex -3.83725 11.6356 10
      vertex -8 14.5 10
      vertex -4.4294 11.5864 10
    endloop
  endfacet
  facet normal 0 0 1
    outer loop
      vertex -4.4294 11.5864 10
      vertex -8 14.5 10
      vertex -4.96842 11.4389 10
    endloop
  endfacet
  facet normal 0 0 1
    outer loop
      vertex -6.64884 9.36661 10
      vertex -8 14.5 10
      vertex -6.69962 8.73831 10
    endloop
  endfacet
  facet normal 0 0 1
    outer loop
      vertex -6.49648 9.9278 10
      vertex -8 14.5 10
      vertex -6.64884 9.36661 10
    endloop
  endfacet
  facet normal 0 0 1
    outer loop
      vertex -6.24257 10.4219 10
      vertex -8 14.5 10
      vertex -6.49648 9.9278 10
    endloop
  endfacet
  facet normal 0 0 1
    outer loop
      vertex -5.88709 10.8488 10
      vertex -8 14.5 10
      vertex -6.24257 10.4219 10
    endloop
  endfacet
  facet normal 0 0 1
    outer loop
      vertex -5.45432 11.193 10
      vertex -8 14.5 10
      vertex -5.88709 10.8488 10
    endloop
  endfacet
  facet normal 0 0 1
    outer loop
      vertex -4.96842 11.4389 10
      vertex -8 14.5 10
      vertex -5.45432 11.193 10
    endloop
  endfacet
  facet normal -0 0 1
    outer loop
      vertex -1.04248 8.3793 10
      vertex 0 2.5 10
      vertex -0.987399 8.96341 10
    endloop
  endfacet
  facet normal -0 0 1
    outer loop
      vertex -1.20771 7.84055 10
      vertex 0 2.5 10
      vertex -1.04248 8.3793 10
    endloop
  endfacet
  facet normal -0 0 1
    outer loop
      vertex -1.48307 7.34714 10
      vertex 0 2.5 10
      vertex -1.20771 7.84055 10
    endloop
  endfacet
  facet normal -0 0 1
    outer loop
      vertex -1.86859 6.89908 10
      vertex 0 2.5 10
      vertex -1.48307 7.34714 10
    endloop
  endfacet
  facet normal -0 0 1
    outer loop
      vertex -2.33304 6.5269 10
      vertex 0 2.5 10
      vertex -1.86859 6.89908 10
    endloop
  endfacet
  facet normal -0 0 1
    outer loop
      vertex -2.84514 6.26106 10
      vertex 0 2.5 10
      vertex -2.33304 6.5269 10
    endloop
  endfacet
  facet normal -0 0 1
    outer loop
      vertex -3.40486 6.10158 10
      vertex 0 2.5 10
      vertex -2.84514 6.26106 10
    endloop
  endfacet
  facet normal -0 0 1
    outer loop
      vertex -4.01221 6.0484 10
      vertex 0 2.5 10
      vertex -3.40486 6.10158 10
    endloop
  endfacet
  facet normal 0 0 1
    outer loop
      vertex -8 2.5 10
      vertex -4.01221 6.0484 10
      vertex -4.43993 6.0703 10
    endloop
  endfacet
  facet normal 0 0 1
    outer loop
      vertex -8 2.5 10
      vertex -4.43993 6.0703 10
      vertex -4.87311 6.13596 10
    endloop
  endfacet
  facet normal 0 0 1
    outer loop
      vertex -8 2.5 10
      vertex -4.87311 6.13596 10
      vertex -5.31176 6.24539 10
    endloop
  endfacet
  facet normal 0 0 1
    outer loop
      vertex -8 2.5 10
      vertex -5.31176 6.24539 10
      vertex -5.75588 6.39857 10
    endloop
  endfacet
  facet normal 0 0 1
    outer loop
      vertex -8 2.5 10
      vertex -5.75588 6.39857 10
      vertex -6.14687 6.57216 10
    endloop
  endfacet
  facet normal 0 0 1
    outer loop
      vertex -8 2.5 10
      vertex -6.14687 6.57216 10
      vertex -6.42615 6.74258 10
    endloop
  endfacet
  facet normal 0 0 1
    outer loop
      vertex -8 2.5 10
      vertex -6.69962 8.73831 10
      vertex -8 14.5 10
    endloop
  endfacet
  facet normal 0 0 1
    outer loop
      vertex -4.01221 6.0484 10
      vertex -8 2.5 10
      vertex 0 2.5 10
    endloop
  endfacet
  facet normal 0 0 1
    outer loop
      vertex -6.59372 6.90988 10
      vertex -8 2.5 10
      vertex -6.42615 6.74258 10
    endloop
  endfacet
  facet normal 0 0 1
    outer loop
      vertex -6.64957 7.07404 10
      vertex -8 2.5 10
      vertex -6.59372 6.90988 10
    endloop
  endfacet
  facet normal 0 0 1
    outer loop
      vertex -6.69962 8.73831 10
      vertex -8 2.5 10
      vertex -6.64957 7.07404 10
    endloop
  endfacet
  facet normal 0 0 1
    outer loop
      vertex -2.01552 10.3426 10
      vertex -1.61556 9.65929 10
      vertex -1.78742 10.0231 10
    endloop
  endfacet
  facet normal 0 0 1
    outer loop
      vertex -2.29987 10.6175 10
      vertex -1.61556 9.65929 10
      vertex -2.01552 10.3426 10
    endloop
  endfacet
  facet normal 0 0 1
    outer loop
      vertex -2.63031 10.8386 10
      vertex -1.61556 9.65929 10
      vertex -2.29987 10.6175 10
    endloop
  endfacet
  facet normal 0 0 1
    outer loop
      vertex -2.99669 10.9966 10
      vertex -1.61556 9.65929 10
      vertex -2.63031 10.8386 10
    endloop
  endfacet
  facet normal 0 0 1
    outer loop
      vertex -3.399 11.0914 10
      vertex -1.61556 9.65929 10
      vertex -2.99669 10.9966 10
    endloop
  endfacet
  facet normal 0 0 1
    outer loop
      vertex -1.61556 9.65929 10
      vertex -3.399 11.0914 10
      vertex -1.49996 9.25095 10
    endloop
  endfacet
  facet normal 0 0 1
    outer loop
      vertex -3.83725 11.123 10
      vertex -1.49996 9.25095 10
      vertex -3.399 11.0914 10
    endloop
  endfacet
  facet normal 0 0 1
    outer loop
      vertex -6.17464 9.25095 10
      vertex -3.83725 11.123 10
      vertex -4.27628 11.091 10
    endloop
  endfacet
  facet normal 0 0 1
    outer loop
      vertex -6.17464 9.25095 10
      vertex -4.27628 11.091 10
      vertex -4.68094 10.995 10
    endloop
  endfacet
  facet normal 0 0 1
    outer loop
      vertex -6.17464 9.25095 10
      vertex -4.68094 10.995 10
      vertex -5.05123 10.8351 10
    endloop
  endfacet
  facet normal 0 0 1
    outer loop
      vertex -6.17464 9.25095 10
      vertex -5.05123 10.8351 10
      vertex -5.38715 10.6112 10
    endloop
  endfacet
  facet normal 0 0 1
    outer loop
      vertex -6.06916 9.65419 10
      vertex -5.38715 10.6112 10
      vertex -5.67542 10.3343 10
    endloop
  endfacet
  facet normal 0 0 1
    outer loop
      vertex -6.06916 9.65419 10
      vertex -5.67542 10.3343 10
      vertex -5.90276 10.0153 10
    endloop
  endfacet
  facet normal 0 0 1
    outer loop
      vertex -5.38715 10.6112 10
      vertex -6.06916 9.65419 10
      vertex -6.17464 9.25095 10
    endloop
  endfacet
  facet normal 0 0 1
    outer loop
      vertex -3.83725 11.123 10
      vertex -6.17464 9.25095 10
      vertex -1.49996 9.25095 10
    endloop
  endfacet
  facet normal -1 0 0
    outer loop
      vertex -8 0 3
      vertex -8 17 3
      vertex -8 17 0
    endloop
  endfacet
  facet normal -1 0 0
    outer loop
      vertex -8 17 3
      vertex -8 0 3
      vertex -8 14.5 10
    endloop
  endfacet
  facet normal -1 0 0
    outer loop
      vertex -8 0 3
      vertex -8 17 0
      vertex -8 0 0
    endloop
  endfacet
  facet normal -1 -0 0
    outer loop
      vertex -8 14.5 10
      vertex -8 0 3
      vertex -8 2.5 10
    endloop
  endfacet
  facet normal 0 1 -0
    outer loop
      vertex 0 17 0
      vertex -8 17 3
      vertex 0 17 3
    endloop
  endfacet
  facet normal 0 1 0
    outer loop
      vertex -8 17 3
      vertex 0 17 0
      vertex -8 17 0
    endloop
  endfacet
  facet normal 0 0 -1
    outer loop
      vertex -8 0 0
      vertex 0 17 0
      vertex 0 0 0
    endloop
  endfacet
  facet normal -0 0 -1
    outer loop
      vertex 0 17 0
      vertex -8 0 0
      vertex -8 17 0
    endloop
  endfacet
  facet normal 1 0 0
    outer loop
      vertex 0 0 3
      vertex 0 17 3
      vertex 0 14.5 10
    endloop
  endfacet
  facet normal 1 0 0
    outer loop
      vertex 0 0 3
      vertex 0 14.5 10
      vertex 0 2.5 10
    endloop
  endfacet
  facet normal 1 0 0
    outer loop
      vertex 0 17 3
      vertex 0 0 3
      vertex 0 17 0
    endloop
  endfacet
  facet normal 1 0 0
    outer loop
      vertex 0 17 0
      vertex 0 0 3
      vertex 0 0 0
    endloop
  endfacet
  facet normal 0 -0.941742 0.336336
    outer loop
      vertex -8 0 3
      vertex 0 2.5 10
      vertex -8 2.5 10
    endloop
  endfacet
  facet normal 0 -0.941742 0.336336
    outer loop
      vertex 0 2.5 10
      vertex -8 0 3
      vertex 0 0 3
    endloop
  endfacet
  facet normal 0 -1 0
    outer loop
      vertex -8 0 0
      vertex 0 0 3
      vertex -8 0 3
    endloop
  endfacet
  facet normal 0 -1 -0
    outer loop
      vertex 0 0 3
      vertex -8 0 0
      vertex 0 0 0
    endloop
  endfacet
  facet normal 0 0.941742 0.336336
    outer loop
      vertex 0 17 3
      vertex -8 14.5 10
      vertex 0 14.5 10
    endloop
  endfacet
  facet normal 0 0.941742 0.336336
    outer loop
      vertex -8 14.5 10
      vertex 0 17 3
      vertex -8 17 3
    endloop
  endfacet
  facet normal -0 0 1
    outer loop
      vertex -6.17464 9.25095 11.99
      vertex -1.49996 8.73831 11.99
      vertex -1.49996 9.25095 11.99
    endloop
  endfacet
  facet normal 0 0 1
    outer loop
      vertex -6.64884 9.36661 11.99
      vertex -6.06916 9.65419 11.99
      vertex -6.49648 9.9278 11.99
    endloop
  endfacet
  facet normal 0 0 1
    outer loop
      vertex -6.06916 9.65419 11.99
      vertex -6.64884 9.36661 11.99
      vertex -6.17464 9.25095 11.99
    endloop
  endfacet
  facet normal 0 0 1
    outer loop
      vertex -6.17464 9.25095 11.99
      vertex -6.69962 8.73831 11.99
      vertex -1.49996 8.73831 11.99
    endloop
  endfacet
  facet normal 0 0 1
    outer loop
      vertex -6.69962 8.73831 11.99
      vertex -6.17464 9.25095 11.99
      vertex -6.64884 9.36661 11.99
    endloop
  endfacet
  facet normal -0 0 1
    outer loop
      vertex -1.49996 9.25095 11.99
      vertex -0.987399 8.96341 11.99
      vertex -1.03896 9.50854 11.99
    endloop
  endfacet
  facet normal -0 0 1
    outer loop
      vertex -1.61556 9.65929 11.99
      vertex -1.03896 9.50854 11.99
      vertex -1.19364 10.0076 11.99
    endloop
  endfacet
  facet normal 0 0 1
    outer loop
      vertex -0.987399 8.96341 11.99
      vertex -1.49996 9.25095 11.99
      vertex -1.49996 8.73831 11.99
    endloop
  endfacet
  facet normal -0 0 1
    outer loop
      vertex -1.78742 10.0231 11.99
      vertex -1.19364 10.0076 11.99
      vertex -1.45143 10.4606 11.99
    endloop
  endfacet
  facet normal 0 0 1
    outer loop
      vertex -0.987399 8.96341 11.99
      vertex -1.49996 8.73831 11.99
      vertex -1.04248 8.3793 11.99
    endloop
  endfacet
  facet normal 0 0 1
    outer loop
      vertex -1.60305 8.26868 11.99
      vertex -1.04248 8.3793 11.99
      vertex -1.49996 8.73831 11.99
    endloop
  endfacet
  facet normal 0 0 1
    outer loop
      vertex -1.03896 9.50854 11.99
      vertex -1.61556 9.65929 11.99
      vertex -1.49996 9.25095 11.99
    endloop
  endfacet
  facet normal 0 0 1
    outer loop
      vertex -1.19364 10.0076 11.99
      vertex -1.78742 10.0231 11.99
      vertex -1.61556 9.65929 11.99
    endloop
  endfacet
  facet normal 0 0 1
    outer loop
      vertex -2.01552 10.3426 11.99
      vertex -1.45143 10.4606 11.99
      vertex -1.81234 10.8676 11.99
    endloop
  endfacet
  facet normal 0 0 1
    outer loop
      vertex -1.45143 10.4606 11.99
      vertex -2.01552 10.3426 11.99
      vertex -1.78742 10.0231 11.99
    endloop
  endfacet
  facet normal 0 0 1
    outer loop
      vertex -2.29987 10.6175 11.99
      vertex -1.81234 10.8676 11.99
      vertex -2.24828 11.2036 11.99
    endloop
  endfacet
  facet normal 0 0 1
    outer loop
      vertex -1.81234 10.8676 11.99
      vertex -2.29987 10.6175 11.99
      vertex -2.01552 10.3426 11.99
    endloop
  endfacet
  facet normal 0 0 1
    outer loop
      vertex -2.24828 11.2036 11.99
      vertex -2.63031 10.8386 11.99
      vertex -2.29987 10.6175 11.99
    endloop
  endfacet
  facet normal 0 0 1
    outer loop
      vertex -2.73108 11.4436 11.99
      vertex -2.63031 10.8386 11.99
      vertex -2.24828 11.2036 11.99
    endloop
  endfacet
  facet normal 0 0 1
    outer loop
      vertex -2.73108 11.4436 11.99
      vertex -2.99669 10.9966 11.99
      vertex -2.63031 10.8386 11.99
    endloop
  endfacet
  facet normal 0 0 1
    outer loop
      vertex -3.26075 11.5876 11.99
      vertex -2.99669 10.9966 11.99
      vertex -2.73108 11.4436 11.99
    endloop
  endfacet
  facet normal 0 0 1
    outer loop
      vertex -3.26075 11.5876 11.99
      vertex -3.399 11.0914 11.99
      vertex -2.99669 10.9966 11.99
    endloop
  endfacet
  facet normal 0 0 1
    outer loop
      vertex -3.83725 11.6356 11.99
      vertex -3.399 11.0914 11.99
      vertex -3.26075 11.5876 11.99
    endloop
  endfacet
  facet normal 0 0 1
    outer loop
      vertex -3.83725 11.6356 11.99
      vertex -3.83725 11.123 11.99
      vertex -3.399 11.0914 11.99
    endloop
  endfacet
  facet normal 0 0 1
    outer loop
      vertex -3.83725 11.6356 11.99
      vertex -4.27628 11.091 11.99
      vertex -3.83725 11.123 11.99
    endloop
  endfacet
  facet normal -0 0 1
    outer loop
      vertex -4.4294 11.5864 11.99
      vertex -4.27628 11.091 11.99
      vertex -3.83725 11.6356 11.99
    endloop
  endfacet
  facet normal 0 0 1
    outer loop
      vertex -4.4294 11.5864 11.99
      vertex -4.68094 10.995 11.99
      vertex -4.27628 11.091 11.99
    endloop
  endfacet
  facet normal -0 0 1
    outer loop
      vertex -4.96842 11.4389 11.99
      vertex -4.68094 10.995 11.99
      vertex -4.4294 11.5864 11.99
    endloop
  endfacet
  facet normal 0 0 1
    outer loop
      vertex -4.96842 11.4389 11.99
      vertex -5.05123 10.8351 11.99
      vertex -4.68094 10.995 11.99
    endloop
  endfacet
  facet normal -0 0 1
    outer loop
      vertex -5.45432 11.193 11.99
      vertex -5.05123 10.8351 11.99
      vertex -4.96842 11.4389 11.99
    endloop
  endfacet
  facet normal 0 0 1
    outer loop
      vertex -5.05123 10.8351 11.99
      vertex -5.45432 11.193 11.99
      vertex -5.38715 10.6112 11.99
    endloop
  endfacet
  facet normal -0 0 1
    outer loop
      vertex -5.88709 10.8488 11.99
      vertex -5.38715 10.6112 11.99
      vertex -5.45432 11.193 11.99
    endloop
  endfacet
  facet normal 0 0 1
    outer loop
      vertex -5.38715 10.6112 11.99
      vertex -5.88709 10.8488 11.99
      vertex -5.67542 10.3343 11.99
    endloop
  endfacet
  facet normal -0 0 1
    outer loop
      vertex -6.24257 10.4219 11.99
      vertex -5.67542 10.3343 11.99
      vertex -5.88709 10.8488 11.99
    endloop
  endfacet
  facet normal 0 0 1
    outer loop
      vertex -5.67542 10.3343 11.99
      vertex -6.24257 10.4219 11.99
      vertex -5.90276 10.0153 11.99
    endloop
  endfacet
  facet normal 0 0 1
    outer loop
      vertex -6.49648 9.9278 11.99
      vertex -5.90276 10.0153 11.99
      vertex -6.24257 10.4219 11.99
    endloop
  endfacet
  facet normal 0 0 1
    outer loop
      vertex -5.90276 10.0153 11.99
      vertex -6.49648 9.9278 11.99
      vertex -6.06916 9.65419 11.99
    endloop
  endfacet
  facet normal 0 0 1
    outer loop
      vertex -1.04248 8.3793 11.99
      vertex -1.60305 8.26868 11.99
      vertex -1.20771 7.84055 11.99
    endloop
  endfacet
  facet normal -0 0 1
    outer loop
      vertex -1.77487 7.8483 11.99
      vertex -1.20771 7.84055 11.99
      vertex -1.60305 8.26868 11.99
    endloop
  endfacet
  facet normal 0 0 1
    outer loop
      vertex -1.20771 7.84055 11.99
      vertex -1.77487 7.8483 11.99
      vertex -1.48307 7.34714 11.99
    endloop
  endfacet
  facet normal -0 0 1
    outer loop
      vertex -2.01546 7.4772 11.99
      vertex -1.48307 7.34714 11.99
      vertex -1.77487 7.8483 11.99
    endloop
  endfacet
  facet normal 0 0 1
    outer loop
      vertex -1.48307 7.34714 11.99
      vertex -2.01546 7.4772 11.99
      vertex -1.86859 6.89908 11.99
    endloop
  endfacet
  facet normal -0 0 1
    outer loop
      vertex -2.3248 7.1554 11.99
      vertex -1.86859 6.89908 11.99
      vertex -2.01546 7.4772 11.99
    endloop
  endfacet
  facet normal 0 0 1
    outer loop
      vertex -2.3248 7.1554 11.99
      vertex -2.33304 6.5269 11.99
      vertex -1.86859 6.89908 11.99
    endloop
  endfacet
  facet normal -0 0 1
    outer loop
      vertex -2.68886 6.89536 11.99
      vertex -2.33304 6.5269 11.99
      vertex -2.3248 7.1554 11.99
    endloop
  endfacet
  facet normal 0 0 1
    outer loop
      vertex -2.68886 6.89536 11.99
      vertex -2.84514 6.26106 11.99
      vertex -2.33304 6.5269 11.99
    endloop
  endfacet
  facet normal -0 0 1
    outer loop
      vertex -3.09354 6.70963 11.99
      vertex -2.84514 6.26106 11.99
      vertex -2.68886 6.89536 11.99
    endloop
  endfacet
  facet normal 0 0 1
    outer loop
      vertex -3.09354 6.70963 11.99
      vertex -3.40486 6.10158 11.99
      vertex -2.84514 6.26106 11.99
    endloop
  endfacet
  facet normal -0 0 1
    outer loop
      vertex -3.53882 6.59818 11.99
      vertex -3.40486 6.10158 11.99
      vertex -3.09354 6.70963 11.99
    endloop
  endfacet
  facet normal 0 0 1
    outer loop
      vertex -3.53882 6.59818 11.99
      vertex -4.01221 6.0484 11.99
      vertex -3.40486 6.10158 11.99
    endloop
  endfacet
  facet normal -0 0 1
    outer loop
      vertex -4.02472 6.56104 11.99
      vertex -4.01221 6.0484 11.99
      vertex -3.53882 6.59818 11.99
    endloop
  endfacet
  facet normal 0 0 1
    outer loop
      vertex -4.32004 6.57275 11.99
      vertex -4.01221 6.0484 11.99
      vertex -4.02472 6.56104 11.99
    endloop
  endfacet
  facet normal 0 0 1
    outer loop
      vertex -4.32004 6.57275 11.99
      vertex -4.43993 6.0703 11.99
      vertex -4.01221 6.0484 11.99
    endloop
  endfacet
  facet normal 0 0 1
    outer loop
      vertex -4.61847 6.60794 11.99
      vertex -4.43993 6.0703 11.99
      vertex -4.32004 6.57275 11.99
    endloop
  endfacet
  facet normal 0 0 1
    outer loop
      vertex -4.61847 6.60794 11.99
      vertex -4.87311 6.13596 11.99
      vertex -4.43993 6.0703 11.99
    endloop
  endfacet
  facet normal 0 0 1
    outer loop
      vertex -4.92003 6.66658 11.99
      vertex -4.87311 6.13596 11.99
      vertex -4.61847 6.60794 11.99
    endloop
  endfacet
  facet normal 0 0 1
    outer loop
      vertex -5.31176 6.24539 11.99
      vertex -4.92003 6.66658 11.99
      vertex -5.22469 6.74869 11.99
    endloop
  endfacet
  facet normal 0 0 1
    outer loop
      vertex -4.92003 6.66658 11.99
      vertex -5.31176 6.24539 11.99
      vertex -4.87311 6.13596 11.99
    endloop
  endfacet
  facet normal 0 0 1
    outer loop
      vertex -5.51607 6.84959 11.99
      vertex -5.31176 6.24539 11.99
      vertex -5.22469 6.74869 11.99
    endloop
  endfacet
  facet normal 0 0 1
    outer loop
      vertex -5.51607 6.84959 11.99
      vertex -5.75588 6.39857 11.99
      vertex -5.31176 6.24539 11.99
    endloop
  endfacet
  facet normal 0 0 1
    outer loop
      vertex -5.77776 6.96457 11.99
      vertex -5.75588 6.39857 11.99
      vertex -5.51607 6.84959 11.99
    endloop
  endfacet
  facet normal 0 0 1
    outer loop
      vertex -6.14687 6.57216 11.99
      vertex -5.77776 6.96457 11.99
      vertex -6.00977 7.09363 11.99
    endloop
  endfacet
  facet normal 0 0 1
    outer loop
      vertex -5.77776 6.96457 11.99
      vertex -6.14687 6.57216 11.99
      vertex -5.75588 6.39857 11.99
    endloop
  endfacet
  facet normal 0 0 1
    outer loop
      vertex -6.42615 6.74258 11.99
      vertex -6.00977 7.09363 11.99
      vertex -6.21208 7.23676 11.99
    endloop
  endfacet
  facet normal 0 0 1
    outer loop
      vertex -6.59372 6.90988 11.99
      vertex -6.21208 7.23676 11.99
      vertex -6.27146 7.27507 11.99
    endloop
  endfacet
  facet normal 0 0 1
    outer loop
      vertex -6.64957 7.07404 11.99
      vertex -6.27146 7.27507 11.99
      vertex -6.32459 7.30243 11.99
    endloop
  endfacet
  facet normal 0 0 1
    outer loop
      vertex -6.54448 7.28204 11.99
      vertex -6.32459 7.30243 11.99
      vertex -6.37145 7.31885 11.99
    endloop
  endfacet
  facet normal -0 0 1
    outer loop
      vertex -6.4601 7.31963 11.99
      vertex -6.37145 7.31885 11.99
      vertex -6.41207 7.32433 11.99
    endloop
  endfacet
  facet normal 0 0 1
    outer loop
      vertex -6.00977 7.09363 11.99
      vertex -6.42615 6.74258 11.99
      vertex -6.14687 6.57216 11.99
    endloop
  endfacet
  facet normal 0 0 1
    outer loop
      vertex -6.54448 7.28204 11.99
      vertex -6.37145 7.31885 11.99
      vertex -6.4601 7.31963 11.99
    endloop
  endfacet
  facet normal 0 0 1
    outer loop
      vertex -6.54448 7.28204 11.99
      vertex -6.4601 7.31963 11.99
      vertex -6.50424 7.30554 11.99
    endloop
  endfacet
  facet normal 0 0 1
    outer loop
      vertex -6.32459 7.30243 11.99
      vertex -6.54448 7.28204 11.99
      vertex -6.58081 7.24918 11.99
    endloop
  endfacet
  facet normal 0 0 1
    outer loop
      vertex -6.32459 7.30243 11.99
      vertex -6.58081 7.24918 11.99
      vertex -6.61089 7.21008 11.99
    endloop
  endfacet
  facet normal 0 0 1
    outer loop
      vertex -6.21208 7.23676 11.99
      vertex -6.59372 6.90988 11.99
      vertex -6.42615 6.74258 11.99
    endloop
  endfacet
  facet normal 0 0 1
    outer loop
      vertex -6.64528 7.12251 11.99
      vertex -6.32459 7.30243 11.99
      vertex -6.61089 7.21008 11.99
    endloop
  endfacet
  facet normal 0 0 1
    outer loop
      vertex -6.64528 7.12251 11.99
      vertex -6.61089 7.21008 11.99
      vertex -6.63239 7.16786 11.99
    endloop
  endfacet
  facet normal 0 0 1
    outer loop
      vertex -6.32459 7.30243 11.99
      vertex -6.64528 7.12251 11.99
      vertex -6.64957 7.07404 11.99
    endloop
  endfacet
  facet normal 0 0 1
    outer loop
      vertex -6.27146 7.27507 11.99
      vertex -6.64957 7.07404 11.99
      vertex -6.59372 6.90988 11.99
    endloop
  endfacet
  facet normal -0.149865 -0.988706 0
    outer loop
      vertex -4.87311 6.13596 10
      vertex -4.43993 6.0703 11.99
      vertex -4.87311 6.13596 11.99
    endloop
  endfacet
  facet normal -0.149865 -0.988706 -0
    outer loop
      vertex -4.43993 6.0703 11.99
      vertex -4.87311 6.13596 10
      vertex -4.43993 6.0703 10
    endloop
  endfacet
  facet normal -0.242052 -0.970263 0
    outer loop
      vertex -5.31176 6.24539 10
      vertex -4.87311 6.13596 11.99
      vertex -5.31176 6.24539 11.99
    endloop
  endfacet
  facet normal -0.242052 -0.970263 -0
    outer loop
      vertex -4.87311 6.13596 11.99
      vertex -5.31176 6.24539 10
      vertex -4.87311 6.13596 10
    endloop
  endfacet
  facet normal -0.326058 -0.94535 0
    outer loop
      vertex -5.75588 6.39857 10
      vertex -5.31176 6.24539 11.99
      vertex -5.75588 6.39857 11.99
    endloop
  endfacet
  facet normal -0.326058 -0.94535 -0
    outer loop
      vertex -5.31176 6.24539 11.99
      vertex -5.75588 6.39857 10
      vertex -5.31176 6.24539 10
    endloop
  endfacet
  facet normal -0.405781 -0.913971 0
    outer loop
      vertex -6.14687 6.57216 10
      vertex -5.75588 6.39857 11.99
      vertex -6.14687 6.57216 11.99
    endloop
  endfacet
  facet normal -0.405781 -0.913971 -0
    outer loop
      vertex -5.75588 6.39857 11.99
      vertex -6.14687 6.57216 10
      vertex -5.75588 6.39857 10
    endloop
  endfacet
  facet normal -0.520891 -0.853623 0
    outer loop
      vertex -6.42615 6.74258 10
      vertex -6.14687 6.57216 11.99
      vertex -6.42615 6.74258 11.99
    endloop
  endfacet
  facet normal -0.520891 -0.853623 -0
    outer loop
      vertex -6.14687 6.57216 11.99
      vertex -6.42615 6.74258 10
      vertex -6.14687 6.57216 10
    endloop
  endfacet
  facet normal -0.706536 -0.707677 0
    outer loop
      vertex -6.59372 6.90988 10
      vertex -6.42615 6.74258 11.99
      vertex -6.59372 6.90988 11.99
    endloop
  endfacet
  facet normal -0.706536 -0.707677 -0
    outer loop
      vertex -6.42615 6.74258 11.99
      vertex -6.59372 6.90988 10
      vertex -6.42615 6.74258 10
    endloop
  endfacet
  facet normal -0.94671 -0.322087 0
    outer loop
      vertex -6.59372 6.90988 10
      vertex -6.64957 7.07404 11.99
      vertex -6.64957 7.07404 10
    endloop
  endfacet
  facet normal -0.94671 -0.322087 0
    outer loop
      vertex -6.64957 7.07404 11.99
      vertex -6.59372 6.90988 10
      vertex -6.59372 6.90988 11.99
    endloop
  endfacet
  facet normal -0.996106 0.0881637 0
    outer loop
      vertex -6.64957 7.07404 10
      vertex -6.64528 7.12251 11.99
      vertex -6.64528 7.12251 10
    endloop
  endfacet
  facet normal -0.996106 0.0881637 0
    outer loop
      vertex -6.64528 7.12251 11.99
      vertex -6.64957 7.07404 10
      vertex -6.64957 7.07404 11.99
    endloop
  endfacet
  facet normal -0.961899 0.273404 0
    outer loop
      vertex -6.64528 7.12251 10
      vertex -6.63239 7.16786 11.99
      vertex -6.63239 7.16786 10
    endloop
  endfacet
  facet normal -0.961899 0.273404 0
    outer loop
      vertex -6.63239 7.16786 11.99
      vertex -6.64528 7.12251 10
      vertex -6.64528 7.12251 11.99
    endloop
  endfacet
  facet normal -0.89111 0.453787 0
    outer loop
      vertex -6.63239 7.16786 10
      vertex -6.61089 7.21008 11.99
      vertex -6.61089 7.21008 10
    endloop
  endfacet
  facet normal -0.89111 0.453787 0
    outer loop
      vertex -6.61089 7.21008 11.99
      vertex -6.63239 7.16786 10
      vertex -6.63239 7.16786 11.99
    endloop
  endfacet
  facet normal -0.792594 0.60975 0
    outer loop
      vertex -6.61089 7.21008 10
      vertex -6.58081 7.24918 11.99
      vertex -6.58081 7.24918 10
    endloop
  endfacet
  facet normal -0.792594 0.60975 0
    outer loop
      vertex -6.58081 7.24918 11.99
      vertex -6.61089 7.21008 10
      vertex -6.61089 7.21008 11.99
    endloop
  endfacet
  facet normal -0.670801 0.741637 0
    outer loop
      vertex -6.54448 7.28204 10
      vertex -6.58081 7.24918 11.99
      vertex -6.54448 7.28204 11.99
    endloop
  endfacet
  facet normal -0.670801 0.741637 0
    outer loop
      vertex -6.58081 7.24918 11.99
      vertex -6.54448 7.28204 10
      vertex -6.58081 7.24918 10
    endloop
  endfacet
  facet normal -0.504298 0.86353 0
    outer loop
      vertex -6.50424 7.30554 10
      vertex -6.54448 7.28204 11.99
      vertex -6.50424 7.30554 11.99
    endloop
  endfacet
  facet normal -0.504298 0.86353 0
    outer loop
      vertex -6.54448 7.28204 11.99
      vertex -6.50424 7.30554 10
      vertex -6.54448 7.28204 10
    endloop
  endfacet
  facet normal -0.304094 0.952642 0
    outer loop
      vertex -6.4601 7.31963 10
      vertex -6.50424 7.30554 11.99
      vertex -6.4601 7.31963 11.99
    endloop
  endfacet
  facet normal -0.304094 0.952642 0
    outer loop
      vertex -6.50424 7.30554 11.99
      vertex -6.4601 7.31963 10
      vertex -6.50424 7.30554 10
    endloop
  endfacet
  facet normal -0.0973903 0.995246 0
    outer loop
      vertex -6.41207 7.32433 10
      vertex -6.4601 7.31963 11.99
      vertex -6.41207 7.32433 11.99
    endloop
  endfacet
  facet normal -0.0973903 0.995246 0
    outer loop
      vertex -6.4601 7.31963 11.99
      vertex -6.41207 7.32433 10
      vertex -6.4601 7.31963 10
    endloop
  endfacet
  facet normal 0.133698 0.991022 -0
    outer loop
      vertex -6.37145 7.31885 10
      vertex -6.41207 7.32433 11.99
      vertex -6.37145 7.31885 11.99
    endloop
  endfacet
  facet normal 0.133698 0.991022 0
    outer loop
      vertex -6.41207 7.32433 11.99
      vertex -6.37145 7.31885 10
      vertex -6.41207 7.32433 10
    endloop
  endfacet
  facet normal 0.330691 0.943739 -0
    outer loop
      vertex -6.32459 7.30243 10
      vertex -6.37145 7.31885 11.99
      vertex -6.32459 7.30243 11.99
    endloop
  endfacet
  facet normal 0.330691 0.943739 0
    outer loop
      vertex -6.37145 7.31885 11.99
      vertex -6.32459 7.30243 10
      vertex -6.37145 7.31885 10
    endloop
  endfacet
  facet normal 0.457824 0.889043 -0
    outer loop
      vertex -6.27146 7.27507 10
      vertex -6.32459 7.30243 11.99
      vertex -6.27146 7.27507 11.99
    endloop
  endfacet
  facet normal 0.457824 0.889043 0
    outer loop
      vertex -6.32459 7.30243 11.99
      vertex -6.27146 7.27507 10
      vertex -6.32459 7.30243 10
    endloop
  endfacet
  facet normal 0.54213 0.840295 -0
    outer loop
      vertex -6.21208 7.23676 10
      vertex -6.27146 7.27507 11.99
      vertex -6.21208 7.23676 11.99
    endloop
  endfacet
  facet normal 0.54213 0.840295 0
    outer loop
      vertex -6.27146 7.27507 11.99
      vertex -6.21208 7.23676 10
      vertex -6.27146 7.27507 10
    endloop
  endfacet
  facet normal 0.577553 0.816353 -0
    outer loop
      vertex -6.00977 7.09363 10
      vertex -6.21208 7.23676 11.99
      vertex -6.00977 7.09363 11.99
    endloop
  endfacet
  facet normal 0.577553 0.816353 0
    outer loop
      vertex -6.21208 7.23676 11.99
      vertex -6.00977 7.09363 10
      vertex -6.21208 7.23676 10
    endloop
  endfacet
  facet normal 0.486119 0.873892 -0
    outer loop
      vertex -5.77776 6.96457 10
      vertex -6.00977 7.09363 11.99
      vertex -5.77776 6.96457 11.99
    endloop
  endfacet
  facet normal 0.486119 0.873892 0
    outer loop
      vertex -6.00977 7.09363 11.99
      vertex -5.77776 6.96457 10
      vertex -6.00977 7.09363 10
    endloop
  endfacet
  facet normal 0.402259 0.915526 -0
    outer loop
      vertex -5.51607 6.84959 10
      vertex -5.77776 6.96457 11.99
      vertex -5.51607 6.84959 11.99
    endloop
  endfacet
  facet normal 0.402259 0.915526 0
    outer loop
      vertex -5.77776 6.96457 11.99
      vertex -5.51607 6.84959 10
      vertex -5.77776 6.96457 10
    endloop
  endfacet
  facet normal 0.32722 0.944948 -0
    outer loop
      vertex -5.22469 6.74869 10
      vertex -5.51607 6.84959 11.99
      vertex -5.22469 6.74869 11.99
    endloop
  endfacet
  facet normal 0.32722 0.944948 0
    outer loop
      vertex -5.51607 6.84959 11.99
      vertex -5.22469 6.74869 10
      vertex -5.51607 6.84959 10
    endloop
  endfacet
  facet normal 0.260228 0.965547 -0
    outer loop
      vertex -4.92003 6.66658 10
      vertex -5.22469 6.74869 11.99
      vertex -4.92003 6.66658 11.99
    endloop
  endfacet
  facet normal 0.260228 0.965547 0
    outer loop
      vertex -5.22469 6.74869 11.99
      vertex -4.92003 6.66658 10
      vertex -5.22469 6.74869 10
    endloop
  endfacet
  facet normal 0.19088 0.981613 -0
    outer loop
      vertex -4.61847 6.60794 10
      vertex -4.92003 6.66658 11.99
      vertex -4.61847 6.60794 11.99
    endloop
  endfacet
  facet normal 0.19088 0.981613 0
    outer loop
      vertex -4.92003 6.66658 11.99
      vertex -4.61847 6.60794 10
      vertex -4.92003 6.66658 10
    endloop
  endfacet
  facet normal 0.117106 0.993119 -0
    outer loop
      vertex -4.32004 6.57275 10
      vertex -4.61847 6.60794 11.99
      vertex -4.32004 6.57275 11.99
    endloop
  endfacet
  facet normal 0.117106 0.993119 0
    outer loop
      vertex -4.61847 6.60794 11.99
      vertex -4.32004 6.57275 10
      vertex -4.61847 6.60794 10
    endloop
  endfacet
  facet normal 0.0396208 0.999215 -0
    outer loop
      vertex -4.02472 6.56104 10
      vertex -4.32004 6.57275 11.99
      vertex -4.02472 6.56104 11.99
    endloop
  endfacet
  facet normal 0.0396208 0.999215 0
    outer loop
      vertex -4.32004 6.57275 11.99
      vertex -4.02472 6.56104 10
      vertex -4.32004 6.57275 10
    endloop
  endfacet
  facet normal -0.0762132 0.997092 0
    outer loop
      vertex -3.53882 6.59818 10
      vertex -4.02472 6.56104 11.99
      vertex -3.53882 6.59818 11.99
    endloop
  endfacet
  facet normal -0.0762132 0.997092 0
    outer loop
      vertex -4.02472 6.56104 11.99
      vertex -3.53882 6.59818 10
      vertex -4.02472 6.56104 10
    endloop
  endfacet
  facet normal -0.242802 0.970076 0
    outer loop
      vertex -3.09354 6.70963 10
      vertex -3.53882 6.59818 11.99
      vertex -3.09354 6.70963 11.99
    endloop
  endfacet
  facet normal -0.242802 0.970076 0
    outer loop
      vertex -3.53882 6.59818 11.99
      vertex -3.09354 6.70963 10
      vertex -3.53882 6.59818 10
    endloop
  endfacet
  facet normal -0.417122 0.908851 0
    outer loop
      vertex -2.68886 6.89536 10
      vertex -3.09354 6.70963 11.99
      vertex -2.68886 6.89536 11.99
    endloop
  endfacet
  facet normal -0.417122 0.908851 0
    outer loop
      vertex -3.09354 6.70963 11.99
      vertex -2.68886 6.89536 10
      vertex -3.09354 6.70963 10
    endloop
  endfacet
  facet normal -0.581234 0.813736 0
    outer loop
      vertex -2.3248 7.1554 10
      vertex -2.68886 6.89536 11.99
      vertex -2.3248 7.1554 11.99
    endloop
  endfacet
  facet normal -0.581234 0.813736 0
    outer loop
      vertex -2.68886 6.89536 11.99
      vertex -2.3248 7.1554 10
      vertex -2.68886 6.89536 10
    endloop
  endfacet
  facet normal -0.720926 0.693012 0
    outer loop
      vertex -2.3248 7.1554 10
      vertex -2.01546 7.4772 11.99
      vertex -2.01546 7.4772 10
    endloop
  endfacet
  facet normal -0.720926 0.693012 0
    outer loop
      vertex -2.01546 7.4772 11.99
      vertex -2.3248 7.1554 10
      vertex -2.3248 7.1554 11.99
    endloop
  endfacet
  facet normal -0.839089 0.543995 0
    outer loop
      vertex -2.01546 7.4772 10
      vertex -1.77487 7.8483 11.99
      vertex -1.77487 7.8483 10
    endloop
  endfacet
  facet normal -0.839089 0.543995 0
    outer loop
      vertex -1.77487 7.8483 11.99
      vertex -2.01546 7.4772 10
      vertex -2.01546 7.4772 11.99
    endloop
  endfacet
  facet normal -0.925665 0.378343 0
    outer loop
      vertex -1.77487 7.8483 10
      vertex -1.60305 8.26868 11.99
      vertex -1.60305 8.26868 10
    endloop
  endfacet
  facet normal -0.925665 0.378343 0
    outer loop
      vertex -1.60305 8.26868 11.99
      vertex -1.77487 7.8483 10
      vertex -1.77487 7.8483 11.99
    endloop
  endfacet
  facet normal -0.976744 0.214408 0
    outer loop
      vertex -1.60305 8.26868 10
      vertex -1.49996 8.73831 11.99
      vertex -1.49996 8.73831 10
    endloop
  endfacet
  facet normal -0.976744 0.214408 0
    outer loop
      vertex -1.49996 8.73831 11.99
      vertex -1.60305 8.26868 10
      vertex -1.60305 8.26868 11.99
    endloop
  endfacet
  facet normal 0 -1 0
    outer loop
      vertex -6.69962 8.73831 10
      vertex -1.49996 8.73831 11.99
      vertex -6.69962 8.73831 11.99
    endloop
  endfacet
  facet normal 0 -1 -0
    outer loop
      vertex -1.49996 8.73831 11.99
      vertex -6.69962 8.73831 10
      vertex -1.49996 8.73831 10
    endloop
  endfacet
  facet normal -0.99675 0.0805586 0
    outer loop
      vertex -6.69962 8.73831 10
      vertex -6.64884 9.36661 11.99
      vertex -6.64884 9.36661 10
    endloop
  endfacet
  facet normal -0.99675 0.0805586 0
    outer loop
      vertex -6.64884 9.36661 11.99
      vertex -6.69962 8.73831 10
      vertex -6.69962 8.73831 11.99
    endloop
  endfacet
  facet normal -0.965065 0.26201 0
    outer loop
      vertex -6.64884 9.36661 10
      vertex -6.49648 9.9278 11.99
      vertex -6.49648 9.9278 10
    endloop
  endfacet
  facet normal -0.965065 0.26201 0
    outer loop
      vertex -6.49648 9.9278 11.99
      vertex -6.64884 9.36661 10
      vertex -6.64884 9.36661 11.99
    endloop
  endfacet
  facet normal -0.889433 0.457065 0
    outer loop
      vertex -6.49648 9.9278 10
      vertex -6.24257 10.4219 11.99
      vertex -6.24257 10.4219 10
    endloop
  endfacet
  facet normal -0.889433 0.457065 0
    outer loop
      vertex -6.24257 10.4219 11.99
      vertex -6.49648 9.9278 10
      vertex -6.49648 9.9278 11.99
    endloop
  endfacet
  facet normal -0.76846 0.639898 0
    outer loop
      vertex -6.24257 10.4219 10
      vertex -5.88709 10.8488 11.99
      vertex -5.88709 10.8488 10
    endloop
  endfacet
  facet normal -0.76846 0.639898 0
    outer loop
      vertex -5.88709 10.8488 11.99
      vertex -6.24257 10.4219 10
      vertex -6.24257 10.4219 11.99
    endloop
  endfacet
  facet normal -0.622469 0.782644 0
    outer loop
      vertex -5.45432 11.193 10
      vertex -5.88709 10.8488 11.99
      vertex -5.45432 11.193 11.99
    endloop
  endfacet
  facet normal -0.622469 0.782644 0
    outer loop
      vertex -5.88709 10.8488 11.99
      vertex -5.45432 11.193 10
      vertex -5.88709 10.8488 10
    endloop
  endfacet
  facet normal -0.451542 0.89225 0
    outer loop
      vertex -4.96842 11.4389 10
      vertex -5.45432 11.193 11.99
      vertex -4.96842 11.4389 11.99
    endloop
  endfacet
  facet normal -0.451542 0.89225 0
    outer loop
      vertex -5.45432 11.193 11.99
      vertex -4.96842 11.4389 10
      vertex -5.45432 11.193 10
    endloop
  endfacet
  facet normal -0.263941 0.964539 0
    outer loop
      vertex -4.4294 11.5864 10
      vertex -4.96842 11.4389 11.99
      vertex -4.4294 11.5864 11.99
    endloop
  endfacet
  facet normal -0.263941 0.964539 0
    outer loop
      vertex -4.96842 11.4389 11.99
      vertex -4.4294 11.5864 10
      vertex -4.96842 11.4389 10
    endloop
  endfacet
  facet normal -0.0828017 0.996566 0
    outer loop
      vertex -3.83725 11.6356 10
      vertex -4.4294 11.5864 11.99
      vertex -3.83725 11.6356 11.99
    endloop
  endfacet
  facet normal -0.0828017 0.996566 0
    outer loop
      vertex -4.4294 11.5864 11.99
      vertex -3.83725 11.6356 10
      vertex -4.4294 11.5864 10
    endloop
  endfacet
  facet normal 0.082974 0.996552 -0
    outer loop
      vertex -3.26075 11.5876 10
      vertex -3.83725 11.6356 11.99
      vertex -3.26075 11.5876 11.99
    endloop
  endfacet
  facet normal 0.082974 0.996552 0
    outer loop
      vertex -3.83725 11.6356 11.99
      vertex -3.26075 11.5876 10
      vertex -3.83725 11.6356 10
    endloop
  endfacet
  facet normal 0.262345 0.964974 -0
    outer loop
      vertex -2.73108 11.4436 10
      vertex -3.26075 11.5876 11.99
      vertex -2.73108 11.4436 11.99
    endloop
  endfacet
  facet normal 0.262345 0.964974 0
    outer loop
      vertex -3.26075 11.5876 11.99
      vertex -2.73108 11.4436 10
      vertex -3.26075 11.5876 10
    endloop
  endfacet
  facet normal 0.445135 0.895463 -0
    outer loop
      vertex -2.24828 11.2036 10
      vertex -2.73108 11.4436 11.99
      vertex -2.24828 11.2036 11.99
    endloop
  endfacet
  facet normal 0.445135 0.895463 0
    outer loop
      vertex -2.73108 11.4436 11.99
      vertex -2.24828 11.2036 10
      vertex -2.73108 11.4436 10
    endloop
  endfacet
  facet normal 0.610466 0.792043 -0
    outer loop
      vertex -1.81234 10.8676 10
      vertex -2.24828 11.2036 11.99
      vertex -1.81234 10.8676 11.99
    endloop
  endfacet
  facet normal 0.610466 0.792043 0
    outer loop
      vertex -2.24828 11.2036 11.99
      vertex -1.81234 10.8676 10
      vertex -2.24828 11.2036 10
    endloop
  endfacet
  facet normal 0.748201 0.663472 0
    outer loop
      vertex -1.45143 10.4606 11.99
      vertex -1.81234 10.8676 10
      vertex -1.81234 10.8676 11.99
    endloop
  endfacet
  facet normal 0.748201 0.663472 0
    outer loop
      vertex -1.81234 10.8676 10
      vertex -1.45143 10.4606 11.99
      vertex -1.45143 10.4606 10
    endloop
  endfacet
  facet normal 0.869124 0.494595 0
    outer loop
      vertex -1.19364 10.0076 11.99
      vertex -1.45143 10.4606 10
      vertex -1.45143 10.4606 11.99
    endloop
  endfacet
  facet normal 0.869124 0.494595 0
    outer loop
      vertex -1.45143 10.4606 10
      vertex -1.19364 10.0076 11.99
      vertex -1.19364 10.0076 10
    endloop
  endfacet
  facet normal 0.955173 0.296049 0
    outer loop
      vertex -1.03896 9.50854 11.99
      vertex -1.19364 10.0076 10
      vertex -1.19364 10.0076 11.99
    endloop
  endfacet
  facet normal 0.955173 0.296049 0
    outer loop
      vertex -1.19364 10.0076 10
      vertex -1.03896 9.50854 11.99
      vertex -1.03896 9.50854 10
    endloop
  endfacet
  facet normal 0.995557 0.0941645 0
    outer loop
      vertex -0.987399 8.96341 11.99
      vertex -1.03896 9.50854 10
      vertex -1.03896 9.50854 11.99
    endloop
  endfacet
  facet normal 0.995557 0.0941645 0
    outer loop
      vertex -1.03896 9.50854 10
      vertex -0.987399 8.96341 11.99
      vertex -0.987399 8.96341 10
    endloop
  endfacet
  facet normal 0.995583 -0.0938825 0
    outer loop
      vertex -1.04248 8.3793 11.99
      vertex -0.987399 8.96341 10
      vertex -0.987399 8.96341 11.99
    endloop
  endfacet
  facet normal 0.995583 -0.0938825 0
    outer loop
      vertex -0.987399 8.96341 10
      vertex -1.04248 8.3793 11.99
      vertex -1.04248 8.3793 10
    endloop
  endfacet
  facet normal 0.956048 -0.293212 0
    outer loop
      vertex -1.20771 7.84055 11.99
      vertex -1.04248 8.3793 10
      vertex -1.04248 8.3793 11.99
    endloop
  endfacet
  facet normal 0.956048 -0.293212 0
    outer loop
      vertex -1.04248 8.3793 10
      vertex -1.20771 7.84055 11.99
      vertex -1.20771 7.84055 10
    endloop
  endfacet
  facet normal 0.873222 -0.487323 0
    outer loop
      vertex -1.48307 7.34714 11.99
      vertex -1.20771 7.84055 10
      vertex -1.20771 7.84055 11.99
    endloop
  endfacet
  facet normal 0.873222 -0.487323 0
    outer loop
      vertex -1.20771 7.84055 10
      vertex -1.48307 7.34714 11.99
      vertex -1.48307 7.34714 10
    endloop
  endfacet
  facet normal 0.758028 -0.652222 0
    outer loop
      vertex -1.86859 6.89908 11.99
      vertex -1.48307 7.34714 10
      vertex -1.48307 7.34714 11.99
    endloop
  endfacet
  facet normal 0.758028 -0.652222 0
    outer loop
      vertex -1.48307 7.34714 10
      vertex -1.86859 6.89908 11.99
      vertex -1.86859 6.89908 10
    endloop
  endfacet
  facet normal 0.62533 -0.78036 0
    outer loop
      vertex -2.33304 6.5269 10
      vertex -1.86859 6.89908 11.99
      vertex -2.33304 6.5269 11.99
    endloop
  endfacet
  facet normal 0.62533 -0.78036 0
    outer loop
      vertex -1.86859 6.89908 11.99
      vertex -2.33304 6.5269 10
      vertex -1.86859 6.89908 10
    endloop
  endfacet
  facet normal 0.460736 -0.887537 0
    outer loop
      vertex -2.84514 6.26106 10
      vertex -2.33304 6.5269 11.99
      vertex -2.84514 6.26106 11.99
    endloop
  endfacet
  facet normal 0.460736 -0.887537 0
    outer loop
      vertex -2.33304 6.5269 11.99
      vertex -2.84514 6.26106 10
      vertex -2.33304 6.5269 10
    endloop
  endfacet
  facet normal 0.274022 -0.961723 0
    outer loop
      vertex -3.40486 6.10158 10
      vertex -2.84514 6.26106 11.99
      vertex -3.40486 6.10158 11.99
    endloop
  endfacet
  facet normal 0.274022 -0.961723 0
    outer loop
      vertex -2.84514 6.26106 11.99
      vertex -3.40486 6.10158 10
      vertex -2.84514 6.26106 10
    endloop
  endfacet
  facet normal 0.087227 -0.996188 0
    outer loop
      vertex -4.01221 6.0484 10
      vertex -3.40486 6.10158 11.99
      vertex -4.01221 6.0484 11.99
    endloop
  endfacet
  facet normal 0.087227 -0.996188 0
    outer loop
      vertex -3.40486 6.10158 11.99
      vertex -4.01221 6.0484 10
      vertex -3.40486 6.10158 10
    endloop
  endfacet
  facet normal -0.0511347 -0.998692 0
    outer loop
      vertex -4.43993 6.0703 10
      vertex -4.01221 6.0484 11.99
      vertex -4.43993 6.0703 11.99
    endloop
  endfacet
  facet normal -0.0511347 -0.998692 -0
    outer loop
      vertex -4.01221 6.0484 11.99
      vertex -4.43993 6.0703 10
      vertex -4.01221 6.0484 10
    endloop
  endfacet
  facet normal -0.962186 -0.272392 0
    outer loop
      vertex -1.49996 9.25095 10
      vertex -1.61556 9.65929 11.99
      vertex -1.61556 9.65929 10
    endloop
  endfacet
  facet normal -0.962186 -0.272392 0
    outer loop
      vertex -1.61556 9.65929 11.99
      vertex -1.49996 9.25095 10
      vertex -1.49996 9.25095 11.99
    endloop
  endfacet
  facet normal -0.90419 -0.42713 0
    outer loop
      vertex -1.61556 9.65929 10
      vertex -1.78742 10.0231 11.99
      vertex -1.78742 10.0231 10
    endloop
  endfacet
  facet normal -0.90419 -0.42713 0
    outer loop
      vertex -1.78742 10.0231 11.99
      vertex -1.61556 9.65929 10
      vertex -1.61556 9.65929 11.99
    endloop
  endfacet
  facet normal -0.813871 -0.581045 0
    outer loop
      vertex -1.78742 10.0231 10
      vertex -2.01552 10.3426 11.99
      vertex -2.01552 10.3426 10
    endloop
  endfacet
  facet normal -0.813871 -0.581045 0
    outer loop
      vertex -2.01552 10.3426 11.99
      vertex -1.78742 10.0231 10
      vertex -1.78742 10.0231 11.99
    endloop
  endfacet
  facet normal -0.695059 -0.718953 0
    outer loop
      vertex -2.29987 10.6175 10
      vertex -2.01552 10.3426 11.99
      vertex -2.29987 10.6175 11.99
    endloop
  endfacet
  facet normal -0.695059 -0.718953 -0
    outer loop
      vertex -2.01552 10.3426 11.99
      vertex -2.29987 10.6175 10
      vertex -2.01552 10.3426 10
    endloop
  endfacet
  facet normal -0.556104 -0.831113 0
    outer loop
      vertex -2.63031 10.8386 10
      vertex -2.29987 10.6175 11.99
      vertex -2.63031 10.8386 11.99
    endloop
  endfacet
  facet normal -0.556104 -0.831113 -0
    outer loop
      vertex -2.29987 10.6175 11.99
      vertex -2.63031 10.8386 10
      vertex -2.29987 10.6175 10
    endloop
  endfacet
  facet normal -0.395993 -0.918253 0
    outer loop
      vertex -2.99669 10.9966 10
      vertex -2.63031 10.8386 11.99
      vertex -2.99669 10.9966 11.99
    endloop
  endfacet
  facet normal -0.395993 -0.918253 -0
    outer loop
      vertex -2.63031 10.8386 11.99
      vertex -2.99669 10.9966 10
      vertex -2.63031 10.8386 10
    endloop
  endfacet
  facet normal -0.229358 -0.973342 0
    outer loop
      vertex -3.399 11.0914 10
      vertex -2.99669 10.9966 11.99
      vertex -3.399 11.0914 11.99
    endloop
  endfacet
  facet normal -0.229358 -0.973342 -0
    outer loop
      vertex -2.99669 10.9966 11.99
      vertex -3.399 11.0914 10
      vertex -2.99669 10.9966 10
    endloop
  endfacet
  facet normal -0.0719182 -0.997411 0
    outer loop
      vertex -3.83725 11.123 10
      vertex -3.399 11.0914 11.99
      vertex -3.83725 11.123 11.99
    endloop
  endfacet
  facet normal -0.0719182 -0.997411 -0
    outer loop
      vertex -3.399 11.0914 11.99
      vertex -3.83725 11.123 10
      vertex -3.399 11.0914 10
    endloop
  endfacet
  facet normal 0.0726951 -0.997354 0
    outer loop
      vertex -4.27628 11.091 10
      vertex -3.83725 11.123 11.99
      vertex -4.27628 11.091 11.99
    endloop
  endfacet
  facet normal 0.0726951 -0.997354 0
    outer loop
      vertex -3.83725 11.123 11.99
      vertex -4.27628 11.091 10
      vertex -3.83725 11.123 10
    endloop
  endfacet
  facet normal 0.230829 -0.972994 0
    outer loop
      vertex -4.68094 10.995 10
      vertex -4.27628 11.091 11.99
      vertex -4.68094 10.995 11.99
    endloop
  endfacet
  facet normal 0.230829 -0.972994 0
    outer loop
      vertex -4.27628 11.091 11.99
      vertex -4.68094 10.995 10
      vertex -4.27628 11.091 10
    endloop
  endfacet
  facet normal 0.39644 -0.918061 0
    outer loop
      vertex -5.05123 10.8351 10
      vertex -4.68094 10.995 11.99
      vertex -5.05123 10.8351 11.99
    endloop
  endfacet
  facet normal 0.39644 -0.918061 0
    outer loop
      vertex -4.68094 10.995 11.99
      vertex -5.05123 10.8351 10
      vertex -4.68094 10.995 10
    endloop
  endfacet
  facet normal 0.55462 -0.832104 0
    outer loop
      vertex -5.38715 10.6112 10
      vertex -5.05123 10.8351 11.99
      vertex -5.38715 10.6112 11.99
    endloop
  endfacet
  facet normal 0.55462 -0.832104 0
    outer loop
      vertex -5.05123 10.8351 11.99
      vertex -5.38715 10.6112 10
      vertex -5.05123 10.8351 10
    endloop
  endfacet
  facet normal 0.692741 -0.721186 0
    outer loop
      vertex -5.67542 10.3343 10
      vertex -5.38715 10.6112 11.99
      vertex -5.67542 10.3343 11.99
    endloop
  endfacet
  facet normal 0.692741 -0.721186 0
    outer loop
      vertex -5.38715 10.6112 11.99
      vertex -5.67542 10.3343 10
      vertex -5.38715 10.6112 10
    endloop
  endfacet
  facet normal 0.814357 -0.580364 0
    outer loop
      vertex -5.90276 10.0153 11.99
      vertex -5.67542 10.3343 10
      vertex -5.67542 10.3343 11.99
    endloop
  endfacet
  facet normal 0.814357 -0.580364 0
    outer loop
      vertex -5.67542 10.3343 10
      vertex -5.90276 10.0153 11.99
      vertex -5.90276 10.0153 10
    endloop
  endfacet
  facet normal 0.908214 -0.418506 0
    outer loop
      vertex -6.06916 9.65419 11.99
      vertex -5.90276 10.0153 10
      vertex -5.90276 10.0153 11.99
    endloop
  endfacet
  facet normal 0.908214 -0.418506 0
    outer loop
      vertex -5.90276 10.0153 10
      vertex -6.06916 9.65419 11.99
      vertex -6.06916 9.65419 10
    endloop
  endfacet
  facet normal 0.967449 -0.253066 0
    outer loop
      vertex -6.17464 9.25095 11.99
      vertex -6.06916 9.65419 10
      vertex -6.06916 9.65419 11.99
    endloop
  endfacet
  facet normal 0.967449 -0.253066 0
    outer loop
      vertex -6.06916 9.65419 10
      vertex -6.17464 9.25095 11.99
      vertex -6.17464 9.25095 10
    endloop
  endfacet
  facet normal 0 1 -0
    outer loop
      vertex -1.49996 9.25095 10
      vertex -6.17464 9.25095 11.99
      vertex -1.49996 9.25095 11.99
    endloop
  endfacet
  facet normal 0 1 0
    outer loop
      vertex -6.17464 9.25095 11.99
      vertex -1.49996 9.25095 10
      vertex -6.17464 9.25095 10
    endloop
  endfacet
endsolid OpenSCAD_Model
