solid OpenSCAD_Model
  facet normal -0 0 1
    outer loop
      vertex -6.54956 6.25 10
      vertex -6.51 3.5 10
      vertex -4.78719 6.25 10
    endloop
  endfacet
  facet normal 0 0 1
    outer loop
      vertex -6.69722 6.2664 10
      vertex -6.51 3.5 10
      vertex -6.54956 6.25 10
    endloop
  endfacet
  facet normal 0 0 1
    outer loop
      vertex -7.5 3.5 10
      vertex -6.69722 6.2664 10
      vertex -6.80269 6.31563 10
    endloop
  endfacet
  facet normal 0 0 1
    outer loop
      vertex -7.5 3.5 10
      vertex -6.80269 6.31563 10
      vertex -6.86597 6.39766 10
    endloop
  endfacet
  facet normal 0 0 1
    outer loop
      vertex -7.5 3.5 10
      vertex -6.86597 6.39766 10
      vertex -6.88707 6.51253 10
    endloop
  endfacet
  facet normal 0 0 1
    outer loop
      vertex -6.69722 6.2664 10
      vertex -7.5 3.5 10
      vertex -6.51 3.5 10
    endloop
  endfacet
  facet normal 0 0 1
    outer loop
      vertex -7.5 3.5 10
      vertex -6.88707 6.51253 10
      vertex -7.5 14.5 10
    endloop
  endfacet
  facet normal 0 0 1
    outer loop
      vertex -2.08736 9.64839 10
      vertex -2.76227 6.76263 10
      vertex -2.08736 6.76263 10
    endloop
  endfacet
  facet normal 0 0 1
    outer loop
      vertex -2.08736 9.64839 10
      vertex -2.90993 6.74699 10
      vertex -2.76227 6.76263 10
    endloop
  endfacet
  facet normal 0 0 1
    outer loop
      vertex -2.08736 9.64839 10
      vertex -3.0154 6.7001 10
      vertex -2.90993 6.74699 10
    endloop
  endfacet
  facet normal 0 0 1
    outer loop
      vertex -4.53406 6.7001 10
      vertex -3.0154 6.7001 10
      vertex -2.08736 9.64839 10
    endloop
  endfacet
  facet normal 0 0 1
    outer loop
      vertex -3.07867 6.62195 10
      vertex -4.44968 6.51253 10
      vertex -3.09978 6.51253 10
    endloop
  endfacet
  facet normal 0 0 1
    outer loop
      vertex -3.0154 6.7001 10
      vertex -4.53406 6.7001 10
      vertex -3.07867 6.62195 10
    endloop
  endfacet
  facet normal 0 0 1
    outer loop
      vertex -3.07867 6.62195 10
      vertex -4.47078 6.62195 10
      vertex -4.44968 6.51253 10
    endloop
  endfacet
  facet normal 0 0 1
    outer loop
      vertex -3.07867 6.62195 10
      vertex -4.53406 6.7001 10
      vertex -4.47078 6.62195 10
    endloop
  endfacet
  facet normal 0 0 1
    outer loop
      vertex -2.08736 9.64839 10
      vertex -4.63953 6.74699 10
      vertex -4.53406 6.7001 10
    endloop
  endfacet
  facet normal -0 0 1
    outer loop
      vertex -5.46219 9.64839 10
      vertex -4.63953 6.74699 10
      vertex -2.08736 9.64839 10
    endloop
  endfacet
  facet normal 0 0 1
    outer loop
      vertex -4.63953 6.74699 10
      vertex -5.46219 9.64839 10
      vertex -4.78719 6.76263 10
    endloop
  endfacet
  facet normal 0 0 1
    outer loop
      vertex -4.78719 6.76263 10
      vertex -5.46219 9.64839 10
      vertex -5.46219 6.76263 10
    endloop
  endfacet
  facet normal 0 0 1
    outer loop
      vertex 0 14.5 10
      vertex -0.662476 6.51253 10
      vertex 0 2.5 10
    endloop
  endfacet
  facet normal 0 0 1
    outer loop
      vertex 0 14.5 10
      vertex -0.684357 6.62195 10
      vertex -0.662476 6.51253 10
    endloop
  endfacet
  facet normal -0 0 1
    outer loop
      vertex -0.946014 12.9238 10
      vertex -0.684357 6.62195 10
      vertex 0 14.5 10
    endloop
  endfacet
  facet normal 0 0 1
    outer loop
      vertex -0.684357 6.62195 10
      vertex -0.946014 12.9238 10
      vertex -0.749985 6.7001 10
    endloop
  endfacet
  facet normal 0 0 1
    outer loop
      vertex -0.946014 12.9238 10
      vertex 0 14.5 10
      vertex -0.924927 13.0386 10
    endloop
  endfacet
  facet normal 0 0 1
    outer loop
      vertex 0 14.5 10
      vertex -0.946014 13.148 10
      vertex -0.924927 13.0386 10
    endloop
  endfacet
  facet normal 0 0 1
    outer loop
      vertex 0 14.5 10
      vertex -1.00929 13.2262 10
      vertex -0.946014 13.148 10
    endloop
  endfacet
  facet normal 0 0 1
    outer loop
      vertex 0 14.5 10
      vertex -1.11476 13.2731 10
      vertex -1.00929 13.2262 10
    endloop
  endfacet
  facet normal 0 0 1
    outer loop
      vertex 0 14.5 10
      vertex -1.26242 13.2887 10
      vertex -1.11476 13.2731 10
    endloop
  endfacet
  facet normal 0 0 1
    outer loop
      vertex 0 14.5 10
      vertex -2.76227 13.2887 10
      vertex -1.26242 13.2887 10
    endloop
  endfacet
  facet normal 0 0 1
    outer loop
      vertex 0 14.5 10
      vertex -2.90993 13.2731 10
      vertex -2.76227 13.2887 10
    endloop
  endfacet
  facet normal 0 0 1
    outer loop
      vertex -3.07867 13.148 10
      vertex -4.44968 13.0386 10
      vertex -3.09978 13.0386 10
    endloop
  endfacet
  facet normal 0 0 1
    outer loop
      vertex -4.47078 13.148 10
      vertex -3.07867 13.148 10
      vertex -3.0154 13.2262 10
    endloop
  endfacet
  facet normal 0 0 1
    outer loop
      vertex -4.53406 13.2262 10
      vertex -3.0154 13.2262 10
      vertex -2.90993 13.2731 10
    endloop
  endfacet
  facet normal 0 0 1
    outer loop
      vertex -4.63953 13.2731 10
      vertex -2.90993 13.2731 10
      vertex 0 14.5 10
    endloop
  endfacet
  facet normal 0 0 1
    outer loop
      vertex -3.07867 13.148 10
      vertex -4.47078 13.148 10
      vertex -4.44968 13.0386 10
    endloop
  endfacet
  facet normal 0 0 1
    outer loop
      vertex -3.0154 13.2262 10
      vertex -4.53406 13.2262 10
      vertex -4.47078 13.148 10
    endloop
  endfacet
  facet normal 0 0 1
    outer loop
      vertex -2.90993 13.2731 10
      vertex -4.63953 13.2731 10
      vertex -4.53406 13.2262 10
    endloop
  endfacet
  facet normal -0 0 1
    outer loop
      vertex -7.5 14.5 10
      vertex -4.63953 13.2731 10
      vertex 0 14.5 10
    endloop
  endfacet
  facet normal 0 0 1
    outer loop
      vertex -4.63953 13.2731 10
      vertex -7.5 14.5 10
      vertex -4.78719 13.2887 10
    endloop
  endfacet
  facet normal 0 0 1
    outer loop
      vertex -4.78719 13.2887 10
      vertex -7.5 14.5 10
      vertex -6.28703 13.2887 10
    endloop
  endfacet
  facet normal 0 0 1
    outer loop
      vertex -6.54018 12.8417 10
      vertex -6.80269 6.7001 10
      vertex -6.69722 6.74699 10
    endloop
  endfacet
  facet normal 0 0 1
    outer loop
      vertex -6.60344 12.9238 10
      vertex -6.86597 6.62195 10
      vertex -6.80269 6.7001 10
    endloop
  endfacet
  facet normal 0 0 1
    outer loop
      vertex -6.60344 12.9238 10
      vertex -7.5 14.5 10
      vertex -6.86597 6.62195 10
    endloop
  endfacet
  facet normal 0 0 1
    outer loop
      vertex -6.86597 6.62195 10
      vertex -7.5 14.5 10
      vertex -6.88707 6.51253 10
    endloop
  endfacet
  facet normal 0 0 1
    outer loop
      vertex -6.60344 13.148 10
      vertex -7.5 14.5 10
      vertex -6.62453 13.0386 10
    endloop
  endfacet
  facet normal 0 0 1
    outer loop
      vertex -6.54016 13.2262 10
      vertex -7.5 14.5 10
      vertex -6.60344 13.148 10
    endloop
  endfacet
  facet normal 0 0 1
    outer loop
      vertex -6.43469 13.2731 10
      vertex -7.5 14.5 10
      vertex -6.54016 13.2262 10
    endloop
  endfacet
  facet normal 0 0 1
    outer loop
      vertex -6.28703 13.2887 10
      vertex -7.5 14.5 10
      vertex -6.43469 13.2731 10
    endloop
  endfacet
  facet normal -0 0 1
    outer loop
      vertex -0.684357 6.39766 10
      vertex 0 2.5 10
      vertex -0.662476 6.51253 10
    endloop
  endfacet
  facet normal -0 0 1
    outer loop
      vertex -0.749985 6.31563 10
      vertex 0 2.5 10
      vertex -0.684357 6.39766 10
    endloop
  endfacet
  facet normal -0 0 1
    outer loop
      vertex -0.85936 6.2664 10
      vertex 0 2.5 10
      vertex -0.749985 6.31563 10
    endloop
  endfacet
  facet normal -0 0 1
    outer loop
      vertex -1.0125 6.25 10
      vertex 0 2.5 10
      vertex -0.85936 6.2664 10
    endloop
  endfacet
  facet normal -0 0 1
    outer loop
      vertex -2.76227 6.25 10
      vertex 0 2.5 10
      vertex -1.0125 6.25 10
    endloop
  endfacet
  facet normal 0 0 1
    outer loop
      vertex -2.90993 6.2664 10
      vertex 0 2.5 10
      vertex -2.76227 6.25 10
    endloop
  endfacet
  facet normal 0 0 1
    outer loop
      vertex -4.63953 6.2664 10
      vertex -2.90993 6.2664 10
      vertex -3.0154 6.31563 10
    endloop
  endfacet
  facet normal -0 0 1
    outer loop
      vertex -4.44968 6.51253 10
      vertex -3.07867 6.39766 10
      vertex -3.09978 6.51253 10
    endloop
  endfacet
  facet normal 0 0 1
    outer loop
      vertex -4.47078 6.39766 10
      vertex -3.07867 6.39766 10
      vertex -4.44968 6.51253 10
    endloop
  endfacet
  facet normal 0 0 1
    outer loop
      vertex -3.07867 6.39766 10
      vertex -4.47078 6.39766 10
      vertex -3.0154 6.31563 10
    endloop
  endfacet
  facet normal 0 0 1
    outer loop
      vertex -4.53406 6.31563 10
      vertex -3.0154 6.31563 10
      vertex -4.47078 6.39766 10
    endloop
  endfacet
  facet normal 0 0 1
    outer loop
      vertex -4.63953 6.2664 10
      vertex -3.0154 6.31563 10
      vertex -4.53406 6.31563 10
    endloop
  endfacet
  facet normal 0 0 1
    outer loop
      vertex -2.90993 6.2664 10
      vertex -4.63953 6.2664 10
      vertex -6.51 3.5 10
    endloop
  endfacet
  facet normal 0 0 1
    outer loop
      vertex -6.51 3.5 10
      vertex -4.63953 6.2664 10
      vertex -4.78719 6.25 10
    endloop
  endfacet
  facet normal 0 0 1
    outer loop
      vertex -2.90993 6.2664 10
      vertex -6.51 3.5 10
      vertex 0 2.5 10
    endloop
  endfacet
  facet normal 0 0 1
    outer loop
      vertex 0 2.5 10
      vertex -6.51 3.5 10
      vertex -6.51 2.5 10
    endloop
  endfacet
  facet normal -0 0 1
    outer loop
      vertex -1.00929 12.8417 10
      vertex -0.749985 6.7001 10
      vertex -0.946014 12.9238 10
    endloop
  endfacet
  facet normal 0 0 1
    outer loop
      vertex -0.749985 6.7001 10
      vertex -1.00929 12.8417 10
      vertex -0.85936 6.74699 10
    endloop
  endfacet
  facet normal -0 0 1
    outer loop
      vertex -1.11476 12.7925 10
      vertex -0.85936 6.74699 10
      vertex -1.00929 12.8417 10
    endloop
  endfacet
  facet normal 0 0 1
    outer loop
      vertex -0.85936 6.74699 10
      vertex -1.11476 12.7925 10
      vertex -1.0125 6.76263 10
    endloop
  endfacet
  facet normal -0 0 1
    outer loop
      vertex -1.26242 12.7761 10
      vertex -1.0125 6.76263 10
      vertex -1.11476 12.7925 10
    endloop
  endfacet
  facet normal 0 0 1
    outer loop
      vertex -1.57491 6.76263 10
      vertex -1.26242 12.7761 10
      vertex -1.57491 12.7761 10
    endloop
  endfacet
  facet normal 0 0 1
    outer loop
      vertex -1.26242 12.7761 10
      vertex -1.57491 6.76263 10
      vertex -1.0125 6.76263 10
    endloop
  endfacet
  facet normal -0 0 1
    outer loop
      vertex -2.76227 12.7761 10
      vertex -2.08736 10.161 10
      vertex -2.08736 12.7761 10
    endloop
  endfacet
  facet normal 0 0 1
    outer loop
      vertex -2.90993 12.7925 10
      vertex -2.08736 10.161 10
      vertex -2.76227 12.7761 10
    endloop
  endfacet
  facet normal 0 0 1
    outer loop
      vertex -3.0154 12.8417 10
      vertex -2.08736 10.161 10
      vertex -2.90993 12.7925 10
    endloop
  endfacet
  facet normal 0 0 1
    outer loop
      vertex -4.53406 12.8417 10
      vertex -3.0154 12.8417 10
      vertex -3.07867 12.9238 10
    endloop
  endfacet
  facet normal -0 0 1
    outer loop
      vertex -4.44968 13.0386 10
      vertex -3.07867 12.9238 10
      vertex -3.09978 13.0386 10
    endloop
  endfacet
  facet normal 0 0 1
    outer loop
      vertex -4.47078 12.9238 10
      vertex -3.07867 12.9238 10
      vertex -4.44968 13.0386 10
    endloop
  endfacet
  facet normal 0 0 1
    outer loop
      vertex -4.53406 12.8417 10
      vertex -3.07867 12.9238 10
      vertex -4.47078 12.9238 10
    endloop
  endfacet
  facet normal 0 0 1
    outer loop
      vertex -3.0154 12.8417 10
      vertex -4.53406 12.8417 10
      vertex -2.08736 10.161 10
    endloop
  endfacet
  facet normal -0 0 1
    outer loop
      vertex -4.63953 12.7925 10
      vertex -2.08736 10.161 10
      vertex -4.53406 12.8417 10
    endloop
  endfacet
  facet normal 0 0 1
    outer loop
      vertex -5.46219 10.161 10
      vertex -4.63953 12.7925 10
      vertex -4.78719 12.7761 10
    endloop
  endfacet
  facet normal 0 0 1
    outer loop
      vertex -5.46219 10.161 10
      vertex -4.78719 12.7761 10
      vertex -5.46219 12.7761 10
    endloop
  endfacet
  facet normal 0 0 1
    outer loop
      vertex -4.63953 12.7925 10
      vertex -5.46219 10.161 10
      vertex -2.08736 10.161 10
    endloop
  endfacet
  facet normal -0 0 1
    outer loop
      vertex -6.28712 12.7761 10
      vertex -5.97464 6.76263 10
      vertex -5.97464 12.7761 10
    endloop
  endfacet
  facet normal 0 0 1
    outer loop
      vertex -6.54956 6.76263 10
      vertex -6.28712 12.7761 10
      vertex -6.43474 12.7925 10
    endloop
  endfacet
  facet normal 0 0 1
    outer loop
      vertex -6.69722 6.74699 10
      vertex -6.43474 12.7925 10
      vertex -6.54018 12.8417 10
    endloop
  endfacet
  facet normal 0 0 1
    outer loop
      vertex -6.28712 12.7761 10
      vertex -6.54956 6.76263 10
      vertex -5.97464 6.76263 10
    endloop
  endfacet
  facet normal 0 0 1
    outer loop
      vertex -6.80269 6.7001 10
      vertex -6.54018 12.8417 10
      vertex -6.60344 12.9238 10
    endloop
  endfacet
  facet normal 0 0 1
    outer loop
      vertex -7.5 14.5 10
      vertex -6.60344 12.9238 10
      vertex -6.62453 13.0386 10
    endloop
  endfacet
  facet normal 0 0 1
    outer loop
      vertex -6.43474 12.7925 10
      vertex -6.69722 6.74699 10
      vertex -6.54956 6.76263 10
    endloop
  endfacet
  facet normal -1 0 0
    outer loop
      vertex -7.5 0 3
      vertex -7.5 17 3
      vertex -7.5 17 0
    endloop
  endfacet
  facet normal -1 0 0
    outer loop
      vertex -7.5 17 3
      vertex -7.5 3.5 9.01
      vertex -7.5 14.5 10
    endloop
  endfacet
  facet normal -1 0 0
    outer loop
      vertex -7.5 17 3
      vertex -7.5 0 3
      vertex -7.5 3.5 9.01
    endloop
  endfacet
  facet normal -1 0 0
    outer loop
      vertex -7.5 0 3
      vertex -7.5 17 0
      vertex -7.5 0 0
    endloop
  endfacet
  facet normal -1 -0 0
    outer loop
      vertex -7.5 3.5 9.01
      vertex -7.5 0 3
      vertex -7.5 2.14643 9.01
    endloop
  endfacet
  facet normal -1 -0 0
    outer loop
      vertex -7.5 14.5 10
      vertex -7.5 3.5 9.01
      vertex -7.5 3.5 10
    endloop
  endfacet
  facet normal 0 1 -0
    outer loop
      vertex 0 17 0
      vertex -7.5 17 3
      vertex 0 17 3
    endloop
  endfacet
  facet normal 0 1 0
    outer loop
      vertex -7.5 17 3
      vertex 0 17 0
      vertex -7.5 17 0
    endloop
  endfacet
  facet normal 0 0 -1
    outer loop
      vertex -7.5 0 0
      vertex 0 17 0
      vertex 0 0 0
    endloop
  endfacet
  facet normal -0 0 -1
    outer loop
      vertex 0 17 0
      vertex -7.5 0 0
      vertex -7.5 17 0
    endloop
  endfacet
  facet normal 1 0 0
    outer loop
      vertex 0 0 3
      vertex 0 17 3
      vertex 0 14.5 10
    endloop
  endfacet
  facet normal 1 0 0
    outer loop
      vertex 0 0 3
      vertex 0 14.5 10
      vertex 0 2.5 10
    endloop
  endfacet
  facet normal 1 0 0
    outer loop
      vertex 0 17 3
      vertex 0 0 3
      vertex 0 17 0
    endloop
  endfacet
  facet normal 1 0 0
    outer loop
      vertex 0 17 0
      vertex 0 0 3
      vertex 0 0 0
    endloop
  endfacet
  facet normal 0 -0.941742 0.336337
    outer loop
      vertex -7.5 2.14643 9.01
      vertex -7.5 0 3
      vertex -6.51 2.14643 9.01
    endloop
  endfacet
  facet normal 0 -0.941742 0.336335
    outer loop
      vertex -6.51 2.14643 9.01
      vertex 0 2.5 10
      vertex -6.51 2.5 10
    endloop
  endfacet
  facet normal 0 -0.941742 0.336337
    outer loop
      vertex 0 0 3
      vertex -6.51 2.14643 9.01
      vertex -7.5 0 3
    endloop
  endfacet
  facet normal -2.06658e-07 -0.941742 0.336336
    outer loop
      vertex -6.51 2.14643 9.01
      vertex 0 0 3
      vertex 0 2.5 10
    endloop
  endfacet
  facet normal 0 -1 0
    outer loop
      vertex -7.5 0 0
      vertex 0 0 3
      vertex -7.5 0 3
    endloop
  endfacet
  facet normal 0 -1 -0
    outer loop
      vertex 0 0 3
      vertex -7.5 0 0
      vertex 0 0 0
    endloop
  endfacet
  facet normal 0 0.941742 0.336336
    outer loop
      vertex 0 17 3
      vertex -7.5 14.5 10
      vertex 0 14.5 10
    endloop
  endfacet
  facet normal 0 0.941742 0.336336
    outer loop
      vertex -7.5 14.5 10
      vertex 0 17 3
      vertex -7.5 17 3
    endloop
  endfacet
  facet normal -0 0 1
    outer loop
      vertex -7.5 3.5 9.01
      vertex -6.51 2.14643 9.01
      vertex -6.51 3.5 9.01
    endloop
  endfacet
  facet normal 0 0 1
    outer loop
      vertex -6.51 2.14643 9.01
      vertex -7.5 3.5 9.01
      vertex -7.5 2.14643 9.01
    endloop
  endfacet
  facet normal -1 0 0
    outer loop
      vertex -6.51 3.5 9.01
      vertex -6.51 2.5 10
      vertex -6.51 3.5 10
    endloop
  endfacet
  facet normal -1 0 -0
    outer loop
      vertex -6.51 2.5 10
      vertex -6.51 3.5 9.01
      vertex -6.51 2.14643 9.01
    endloop
  endfacet
  facet normal 0 -1 0
    outer loop
      vertex -7.5 3.5 9.01
      vertex -6.51 3.5 10
      vertex -7.5 3.5 10
    endloop
  endfacet
  facet normal 0 -1 -0
    outer loop
      vertex -6.51 3.5 10
      vertex -7.5 3.5 9.01
      vertex -6.51 3.5 9.01
    endloop
  endfacet
  facet normal 0 0 1
    outer loop
      vertex -4.53406 13.2262 11.99
      vertex -4.44968 13.0386 11.99
      vertex -4.47078 13.148 11.99
    endloop
  endfacet
  facet normal 0 0 1
    outer loop
      vertex -4.44968 13.0386 11.99
      vertex -4.53406 13.2262 11.99
      vertex -4.63953 13.2731 11.99
    endloop
  endfacet
  facet normal 0 0 1
    outer loop
      vertex -4.63953 12.7925 11.99
      vertex -4.44968 13.0386 11.99
      vertex -4.63953 13.2731 11.99
    endloop
  endfacet
  facet normal 0 0 1
    outer loop
      vertex -4.44968 13.0386 11.99
      vertex -4.63953 12.7925 11.99
      vertex -4.47078 12.9238 11.99
    endloop
  endfacet
  facet normal 0 0 1
    outer loop
      vertex -4.47078 12.9238 11.99
      vertex -4.63953 12.7925 11.99
      vertex -4.53406 12.8417 11.99
    endloop
  endfacet
  facet normal 0 0 1
    outer loop
      vertex -4.78719 13.2887 11.99
      vertex -4.63953 12.7925 11.99
      vertex -4.63953 13.2731 11.99
    endloop
  endfacet
  facet normal 0 0 1
    outer loop
      vertex -4.78719 13.2887 11.99
      vertex -4.78719 12.7761 11.99
      vertex -4.63953 12.7925 11.99
    endloop
  endfacet
  facet normal 0 0 1
    outer loop
      vertex -4.78719 13.2887 11.99
      vertex -5.46219 12.7761 11.99
      vertex -4.78719 12.7761 11.99
    endloop
  endfacet
  facet normal -0 0 1
    outer loop
      vertex -5.97464 12.7761 11.99
      vertex -5.46219 10.161 11.99
      vertex -5.46219 12.7761 11.99
    endloop
  endfacet
  facet normal 0 0 1
    outer loop
      vertex -5.46219 10.161 11.99
      vertex -5.97464 12.7761 11.99
      vertex -5.46219 9.64839 11.99
    endloop
  endfacet
  facet normal 0 0 1
    outer loop
      vertex -5.97464 6.76263 11.99
      vertex -5.46219 9.64839 11.99
      vertex -5.97464 12.7761 11.99
    endloop
  endfacet
  facet normal -0 0 1
    outer loop
      vertex -6.28703 13.2887 11.99
      vertex -5.46219 12.7761 11.99
      vertex -4.78719 13.2887 11.99
    endloop
  endfacet
  facet normal 0 0 1
    outer loop
      vertex -5.46219 12.7761 11.99
      vertex -6.28703 13.2887 11.99
      vertex -5.97464 12.7761 11.99
    endloop
  endfacet
  facet normal 0 0 1
    outer loop
      vertex -6.28703 13.2887 11.99
      vertex -6.28712 12.7761 11.99
      vertex -5.97464 12.7761 11.99
    endloop
  endfacet
  facet normal -0 0 1
    outer loop
      vertex -6.43469 13.2731 11.99
      vertex -6.28712 12.7761 11.99
      vertex -6.28703 13.2887 11.99
    endloop
  endfacet
  facet normal 0 0 1
    outer loop
      vertex -6.43469 13.2731 11.99
      vertex -6.43474 12.7925 11.99
      vertex -6.28712 12.7761 11.99
    endloop
  endfacet
  facet normal 0 0 1
    outer loop
      vertex -6.62453 13.0386 11.99
      vertex -6.43469 13.2731 11.99
      vertex -6.54016 13.2262 11.99
    endloop
  endfacet
  facet normal 0 0 1
    outer loop
      vertex -6.43469 13.2731 11.99
      vertex -6.62453 13.0386 11.99
      vertex -6.43474 12.7925 11.99
    endloop
  endfacet
  facet normal 0 0 1
    outer loop
      vertex -6.62453 13.0386 11.99
      vertex -6.54016 13.2262 11.99
      vertex -6.60344 13.148 11.99
    endloop
  endfacet
  facet normal 0 0 1
    outer loop
      vertex -6.43474 12.7925 11.99
      vertex -6.62453 13.0386 11.99
      vertex -6.54018 12.8417 11.99
    endloop
  endfacet
  facet normal 0 0 1
    outer loop
      vertex -6.54018 12.8417 11.99
      vertex -6.62453 13.0386 11.99
      vertex -6.60344 12.9238 11.99
    endloop
  endfacet
  facet normal -0 0 1
    outer loop
      vertex -5.46219 10.161 11.99
      vertex -2.08736 9.64839 11.99
      vertex -2.08736 10.161 11.99
    endloop
  endfacet
  facet normal 0 0 1
    outer loop
      vertex -2.08736 9.64839 11.99
      vertex -5.46219 10.161 11.99
      vertex -5.46219 9.64839 11.99
    endloop
  endfacet
  facet normal 0 0 1
    outer loop
      vertex -1.00929 13.2262 11.99
      vertex -0.924927 13.0386 11.99
      vertex -0.946014 13.148 11.99
    endloop
  endfacet
  facet normal 0 0 1
    outer loop
      vertex -0.924927 13.0386 11.99
      vertex -1.00929 13.2262 11.99
      vertex -1.11476 13.2731 11.99
    endloop
  endfacet
  facet normal 0 0 1
    outer loop
      vertex -1.11476 12.7925 11.99
      vertex -0.924927 13.0386 11.99
      vertex -1.11476 13.2731 11.99
    endloop
  endfacet
  facet normal 0 0 1
    outer loop
      vertex -0.924927 13.0386 11.99
      vertex -1.11476 12.7925 11.99
      vertex -0.946014 12.9238 11.99
    endloop
  endfacet
  facet normal 0 0 1
    outer loop
      vertex -0.946014 12.9238 11.99
      vertex -1.11476 12.7925 11.99
      vertex -1.00929 12.8417 11.99
    endloop
  endfacet
  facet normal 0 0 1
    outer loop
      vertex -1.26242 13.2887 11.99
      vertex -1.11476 12.7925 11.99
      vertex -1.11476 13.2731 11.99
    endloop
  endfacet
  facet normal 0 0 1
    outer loop
      vertex -1.26242 13.2887 11.99
      vertex -1.26242 12.7761 11.99
      vertex -1.11476 12.7925 11.99
    endloop
  endfacet
  facet normal 0 0 1
    outer loop
      vertex -1.26242 13.2887 11.99
      vertex -1.57491 12.7761 11.99
      vertex -1.26242 12.7761 11.99
    endloop
  endfacet
  facet normal 0 0 1
    outer loop
      vertex -2.08736 10.161 11.99
      vertex -1.57491 12.7761 11.99
      vertex -2.08736 12.7761 11.99
    endloop
  endfacet
  facet normal 0 0 1
    outer loop
      vertex -1.26242 13.2887 11.99
      vertex -2.08736 12.7761 11.99
      vertex -1.57491 12.7761 11.99
    endloop
  endfacet
  facet normal -0 0 1
    outer loop
      vertex -2.76227 13.2887 11.99
      vertex -2.08736 12.7761 11.99
      vertex -1.26242 13.2887 11.99
    endloop
  endfacet
  facet normal 0 0 1
    outer loop
      vertex -2.76227 13.2887 11.99
      vertex -2.76227 12.7761 11.99
      vertex -2.08736 12.7761 11.99
    endloop
  endfacet
  facet normal -0 0 1
    outer loop
      vertex -2.90993 13.2731 11.99
      vertex -2.76227 12.7761 11.99
      vertex -2.76227 13.2887 11.99
    endloop
  endfacet
  facet normal 0 0 1
    outer loop
      vertex -2.90993 13.2731 11.99
      vertex -2.90993 12.7925 11.99
      vertex -2.76227 12.7761 11.99
    endloop
  endfacet
  facet normal 0 0 1
    outer loop
      vertex -3.09978 13.0386 11.99
      vertex -2.90993 13.2731 11.99
      vertex -3.0154 13.2262 11.99
    endloop
  endfacet
  facet normal 0 0 1
    outer loop
      vertex -2.90993 13.2731 11.99
      vertex -3.09978 13.0386 11.99
      vertex -2.90993 12.7925 11.99
    endloop
  endfacet
  facet normal 0 0 1
    outer loop
      vertex -3.09978 13.0386 11.99
      vertex -3.0154 13.2262 11.99
      vertex -3.07867 13.148 11.99
    endloop
  endfacet
  facet normal 0 0 1
    outer loop
      vertex -2.90993 12.7925 11.99
      vertex -3.09978 13.0386 11.99
      vertex -3.0154 12.8417 11.99
    endloop
  endfacet
  facet normal 0 0 1
    outer loop
      vertex -3.0154 12.8417 11.99
      vertex -3.09978 13.0386 11.99
      vertex -3.07867 12.9238 11.99
    endloop
  endfacet
  facet normal 0 0 1
    outer loop
      vertex -0.749985 6.7001 11.99
      vertex -0.662476 6.51253 11.99
      vertex -0.684357 6.62195 11.99
    endloop
  endfacet
  facet normal 0 0 1
    outer loop
      vertex -0.85936 6.74699 11.99
      vertex -0.662476 6.51253 11.99
      vertex -0.749985 6.7001 11.99
    endloop
  endfacet
  facet normal 0 0 1
    outer loop
      vertex -0.85936 6.2664 11.99
      vertex -0.662476 6.51253 11.99
      vertex -0.85936 6.74699 11.99
    endloop
  endfacet
  facet normal 0 0 1
    outer loop
      vertex -0.662476 6.51253 11.99
      vertex -0.749985 6.31563 11.99
      vertex -0.684357 6.39766 11.99
    endloop
  endfacet
  facet normal 0 0 1
    outer loop
      vertex -0.662476 6.51253 11.99
      vertex -0.85936 6.2664 11.99
      vertex -0.749985 6.31563 11.99
    endloop
  endfacet
  facet normal 0 0 1
    outer loop
      vertex -1.0125 6.76263 11.99
      vertex -0.85936 6.2664 11.99
      vertex -0.85936 6.74699 11.99
    endloop
  endfacet
  facet normal 0 0 1
    outer loop
      vertex -1.0125 6.76263 11.99
      vertex -1.0125 6.25 11.99
      vertex -0.85936 6.2664 11.99
    endloop
  endfacet
  facet normal -0 0 1
    outer loop
      vertex -1.57491 6.76263 11.99
      vertex -1.0125 6.25 11.99
      vertex -1.0125 6.76263 11.99
    endloop
  endfacet
  facet normal 0 0 1
    outer loop
      vertex -2.08736 9.64839 11.99
      vertex -1.57491 12.7761 11.99
      vertex -2.08736 10.161 11.99
    endloop
  endfacet
  facet normal 0 0 1
    outer loop
      vertex -1.57491 12.7761 11.99
      vertex -2.08736 9.64839 11.99
      vertex -1.57491 6.76263 11.99
    endloop
  endfacet
  facet normal 0 0 1
    outer loop
      vertex -2.08736 6.76263 11.99
      vertex -1.57491 6.76263 11.99
      vertex -2.08736 9.64839 11.99
    endloop
  endfacet
  facet normal -0 0 1
    outer loop
      vertex -2.08736 6.76263 11.99
      vertex -1.0125 6.25 11.99
      vertex -1.57491 6.76263 11.99
    endloop
  endfacet
  facet normal 0 0 1
    outer loop
      vertex -2.76227 6.25 11.99
      vertex -2.08736 6.76263 11.99
      vertex -2.76227 6.76263 11.99
    endloop
  endfacet
  facet normal 0 0 1
    outer loop
      vertex -2.08736 6.76263 11.99
      vertex -2.76227 6.25 11.99
      vertex -1.0125 6.25 11.99
    endloop
  endfacet
  facet normal -0 0 1
    outer loop
      vertex -2.90993 6.74699 11.99
      vertex -2.76227 6.25 11.99
      vertex -2.76227 6.76263 11.99
    endloop
  endfacet
  facet normal 0 0 1
    outer loop
      vertex -2.90993 6.74699 11.99
      vertex -2.90993 6.2664 11.99
      vertex -2.76227 6.25 11.99
    endloop
  endfacet
  facet normal 0 0 1
    outer loop
      vertex -3.09978 6.51253 11.99
      vertex -2.90993 6.74699 11.99
      vertex -3.0154 6.7001 11.99
    endloop
  endfacet
  facet normal 0 0 1
    outer loop
      vertex -2.90993 6.74699 11.99
      vertex -3.09978 6.51253 11.99
      vertex -2.90993 6.2664 11.99
    endloop
  endfacet
  facet normal 0 0 1
    outer loop
      vertex -3.09978 6.51253 11.99
      vertex -3.0154 6.7001 11.99
      vertex -3.07867 6.62195 11.99
    endloop
  endfacet
  facet normal 0 0 1
    outer loop
      vertex -2.90993 6.2664 11.99
      vertex -3.09978 6.51253 11.99
      vertex -3.0154 6.31563 11.99
    endloop
  endfacet
  facet normal 0 0 1
    outer loop
      vertex -3.0154 6.31563 11.99
      vertex -3.09978 6.51253 11.99
      vertex -3.07867 6.39766 11.99
    endloop
  endfacet
  facet normal 0 0 1
    outer loop
      vertex -4.53406 6.7001 11.99
      vertex -4.44968 6.51253 11.99
      vertex -4.47078 6.62195 11.99
    endloop
  endfacet
  facet normal 0 0 1
    outer loop
      vertex -4.44968 6.51253 11.99
      vertex -4.53406 6.7001 11.99
      vertex -4.63953 6.74699 11.99
    endloop
  endfacet
  facet normal 0 0 1
    outer loop
      vertex -4.63953 6.2664 11.99
      vertex -4.44968 6.51253 11.99
      vertex -4.63953 6.74699 11.99
    endloop
  endfacet
  facet normal 0 0 1
    outer loop
      vertex -4.44968 6.51253 11.99
      vertex -4.63953 6.2664 11.99
      vertex -4.47078 6.39766 11.99
    endloop
  endfacet
  facet normal 0 0 1
    outer loop
      vertex -4.47078 6.39766 11.99
      vertex -4.63953 6.2664 11.99
      vertex -4.53406 6.31563 11.99
    endloop
  endfacet
  facet normal 0 0 1
    outer loop
      vertex -4.78719 6.76263 11.99
      vertex -4.63953 6.2664 11.99
      vertex -4.63953 6.74699 11.99
    endloop
  endfacet
  facet normal 0 0 1
    outer loop
      vertex -4.78719 6.76263 11.99
      vertex -4.78719 6.25 11.99
      vertex -4.63953 6.2664 11.99
    endloop
  endfacet
  facet normal -0 0 1
    outer loop
      vertex -5.46219 6.76263 11.99
      vertex -4.78719 6.25 11.99
      vertex -4.78719 6.76263 11.99
    endloop
  endfacet
  facet normal 0 0 1
    outer loop
      vertex -5.46219 9.64839 11.99
      vertex -5.97464 6.76263 11.99
      vertex -5.46219 6.76263 11.99
    endloop
  endfacet
  facet normal 0 0 1
    outer loop
      vertex -6.54956 6.25 11.99
      vertex -5.46219 6.76263 11.99
      vertex -5.97464 6.76263 11.99
    endloop
  endfacet
  facet normal 0 0 1
    outer loop
      vertex -6.54956 6.25 11.99
      vertex -5.97464 6.76263 11.99
      vertex -6.54956 6.76263 11.99
    endloop
  endfacet
  facet normal 0 0 1
    outer loop
      vertex -5.46219 6.76263 11.99
      vertex -6.54956 6.25 11.99
      vertex -4.78719 6.25 11.99
    endloop
  endfacet
  facet normal -0 0 1
    outer loop
      vertex -6.69722 6.74699 11.99
      vertex -6.54956 6.25 11.99
      vertex -6.54956 6.76263 11.99
    endloop
  endfacet
  facet normal 0 0 1
    outer loop
      vertex -6.69722 6.74699 11.99
      vertex -6.69722 6.2664 11.99
      vertex -6.54956 6.25 11.99
    endloop
  endfacet
  facet normal 0 0 1
    outer loop
      vertex -6.88707 6.51253 11.99
      vertex -6.69722 6.74699 11.99
      vertex -6.80269 6.7001 11.99
    endloop
  endfacet
  facet normal 0 0 1
    outer loop
      vertex -6.69722 6.74699 11.99
      vertex -6.88707 6.51253 11.99
      vertex -6.69722 6.2664 11.99
    endloop
  endfacet
  facet normal 0 0 1
    outer loop
      vertex -6.88707 6.51253 11.99
      vertex -6.80269 6.7001 11.99
      vertex -6.86597 6.62195 11.99
    endloop
  endfacet
  facet normal 0 0 1
    outer loop
      vertex -6.69722 6.2664 11.99
      vertex -6.88707 6.51253 11.99
      vertex -6.80269 6.31563 11.99
    endloop
  endfacet
  facet normal 0 0 1
    outer loop
      vertex -6.80269 6.31563 11.99
      vertex -6.88707 6.51253 11.99
      vertex -6.86597 6.39766 11.99
    endloop
  endfacet
  facet normal -0.422961 -0.906148 0
    outer loop
      vertex -3.0154 6.31563 10
      vertex -2.90993 6.2664 11.99
      vertex -3.0154 6.31563 11.99
    endloop
  endfacet
  facet normal -0.422961 -0.906148 -0
    outer loop
      vertex -2.90993 6.2664 11.99
      vertex -3.0154 6.31563 10
      vertex -2.90993 6.2664 10
    endloop
  endfacet
  facet normal -0.79183 -0.610741 0
    outer loop
      vertex -3.0154 6.31563 10
      vertex -3.07867 6.39766 11.99
      vertex -3.07867 6.39766 10
    endloop
  endfacet
  facet normal -0.79183 -0.610741 0
    outer loop
      vertex -3.07867 6.39766 11.99
      vertex -3.0154 6.31563 10
      vertex -3.0154 6.31563 11.99
    endloop
  endfacet
  facet normal -0.98353 -0.180746 0
    outer loop
      vertex -3.07867 6.39766 10
      vertex -3.09978 6.51253 11.99
      vertex -3.09978 6.51253 10
    endloop
  endfacet
  facet normal -0.98353 -0.180746 0
    outer loop
      vertex -3.09978 6.51253 11.99
      vertex -3.07867 6.39766 10
      vertex -3.07867 6.39766 11.99
    endloop
  endfacet
  facet normal -0.981894 0.189433 0
    outer loop
      vertex -3.09978 6.51253 10
      vertex -3.07867 6.62195 11.99
      vertex -3.07867 6.62195 10
    endloop
  endfacet
  facet normal -0.981894 0.189433 0
    outer loop
      vertex -3.07867 6.62195 11.99
      vertex -3.09978 6.51253 10
      vertex -3.09978 6.51253 11.99
    endloop
  endfacet
  facet normal -0.777217 0.629233 0
    outer loop
      vertex -3.07867 6.62195 10
      vertex -3.0154 6.7001 11.99
      vertex -3.0154 6.7001 10
    endloop
  endfacet
  facet normal -0.777217 0.629233 0
    outer loop
      vertex -3.0154 6.7001 11.99
      vertex -3.07867 6.62195 10
      vertex -3.07867 6.62195 11.99
    endloop
  endfacet
  facet normal -0.406243 0.913765 0
    outer loop
      vertex -2.90993 6.74699 10
      vertex -3.0154 6.7001 11.99
      vertex -2.90993 6.74699 11.99
    endloop
  endfacet
  facet normal -0.406243 0.913765 0
    outer loop
      vertex -3.0154 6.7001 11.99
      vertex -2.90993 6.74699 10
      vertex -3.0154 6.7001 10
    endloop
  endfacet
  facet normal -0.10533 0.994437 0
    outer loop
      vertex -2.76227 6.76263 10
      vertex -2.90993 6.74699 11.99
      vertex -2.76227 6.76263 11.99
    endloop
  endfacet
  facet normal -0.10533 0.994437 0
    outer loop
      vertex -2.90993 6.74699 11.99
      vertex -2.76227 6.76263 10
      vertex -2.90993 6.74699 10
    endloop
  endfacet
  facet normal 0 1 -0
    outer loop
      vertex -2.08736 6.76263 10
      vertex -2.76227 6.76263 11.99
      vertex -2.08736 6.76263 11.99
    endloop
  endfacet
  facet normal 0 1 0
    outer loop
      vertex -2.76227 6.76263 11.99
      vertex -2.08736 6.76263 10
      vertex -2.76227 6.76263 10
    endloop
  endfacet
  facet normal -1 0 0
    outer loop
      vertex -2.08736 6.76263 10
      vertex -2.08736 9.64839 11.99
      vertex -2.08736 9.64839 10
    endloop
  endfacet
  facet normal -1 -0 0
    outer loop
      vertex -2.08736 9.64839 11.99
      vertex -2.08736 6.76263 10
      vertex -2.08736 6.76263 11.99
    endloop
  endfacet
  facet normal 0 -1 0
    outer loop
      vertex -5.46219 9.64839 10
      vertex -2.08736 9.64839 11.99
      vertex -5.46219 9.64839 11.99
    endloop
  endfacet
  facet normal 0 -1 -0
    outer loop
      vertex -2.08736 9.64839 11.99
      vertex -5.46219 9.64839 10
      vertex -2.08736 9.64839 10
    endloop
  endfacet
  facet normal 1 -0 0
    outer loop
      vertex -5.46219 6.76263 11.99
      vertex -5.46219 9.64839 10
      vertex -5.46219 9.64839 11.99
    endloop
  endfacet
  facet normal 1 0 0
    outer loop
      vertex -5.46219 9.64839 10
      vertex -5.46219 6.76263 11.99
      vertex -5.46219 6.76263 10
    endloop
  endfacet
  facet normal 0 1 -0
    outer loop
      vertex -4.78719 6.76263 10
      vertex -5.46219 6.76263 11.99
      vertex -4.78719 6.76263 11.99
    endloop
  endfacet
  facet normal 0 1 0
    outer loop
      vertex -5.46219 6.76263 11.99
      vertex -4.78719 6.76263 10
      vertex -5.46219 6.76263 10
    endloop
  endfacet
  facet normal 0.10533 0.994437 -0
    outer loop
      vertex -4.63953 6.74699 10
      vertex -4.78719 6.76263 11.99
      vertex -4.63953 6.74699 11.99
    endloop
  endfacet
  facet normal 0.10533 0.994437 0
    outer loop
      vertex -4.78719 6.76263 11.99
      vertex -4.63953 6.74699 10
      vertex -4.78719 6.76263 10
    endloop
  endfacet
  facet normal 0.406243 0.913765 -0
    outer loop
      vertex -4.53406 6.7001 10
      vertex -4.63953 6.74699 11.99
      vertex -4.53406 6.7001 11.99
    endloop
  endfacet
  facet normal 0.406243 0.913765 0
    outer loop
      vertex -4.63953 6.74699 11.99
      vertex -4.53406 6.7001 10
      vertex -4.63953 6.74699 10
    endloop
  endfacet
  facet normal 0.777168 0.629293 0
    outer loop
      vertex -4.47078 6.62195 11.99
      vertex -4.53406 6.7001 10
      vertex -4.53406 6.7001 11.99
    endloop
  endfacet
  facet normal 0.777168 0.629293 0
    outer loop
      vertex -4.53406 6.7001 10
      vertex -4.47078 6.62195 11.99
      vertex -4.47078 6.62195 10
    endloop
  endfacet
  facet normal 0.98191 0.189347 0
    outer loop
      vertex -4.44968 6.51253 11.99
      vertex -4.47078 6.62195 10
      vertex -4.47078 6.62195 11.99
    endloop
  endfacet
  facet normal 0.98191 0.189347 0
    outer loop
      vertex -4.47078 6.62195 10
      vertex -4.44968 6.51253 11.99
      vertex -4.44968 6.51253 10
    endloop
  endfacet
  facet normal 0.983545 -0.180663 0
    outer loop
      vertex -4.47078 6.39766 11.99
      vertex -4.44968 6.51253 10
      vertex -4.44968 6.51253 11.99
    endloop
  endfacet
  facet normal 0.983545 -0.180663 0
    outer loop
      vertex -4.44968 6.51253 10
      vertex -4.47078 6.39766 11.99
      vertex -4.47078 6.39766 10
    endloop
  endfacet
  facet normal 0.791784 -0.610802 0
    outer loop
      vertex -4.53406 6.31563 11.99
      vertex -4.47078 6.39766 10
      vertex -4.47078 6.39766 11.99
    endloop
  endfacet
  facet normal 0.791784 -0.610802 0
    outer loop
      vertex -4.47078 6.39766 10
      vertex -4.53406 6.31563 11.99
      vertex -4.53406 6.31563 10
    endloop
  endfacet
  facet normal 0.422961 -0.906148 0
    outer loop
      vertex -4.63953 6.2664 10
      vertex -4.53406 6.31563 11.99
      vertex -4.63953 6.2664 11.99
    endloop
  endfacet
  facet normal 0.422961 -0.906148 0
    outer loop
      vertex -4.53406 6.31563 11.99
      vertex -4.63953 6.2664 10
      vertex -4.53406 6.31563 10
    endloop
  endfacet
  facet normal 0.110387 -0.993889 0
    outer loop
      vertex -4.78719 6.25 10
      vertex -4.63953 6.2664 11.99
      vertex -4.78719 6.25 11.99
    endloop
  endfacet
  facet normal 0.110387 -0.993889 0
    outer loop
      vertex -4.63953 6.2664 11.99
      vertex -4.78719 6.25 10
      vertex -4.63953 6.2664 10
    endloop
  endfacet
  facet normal 0 -1 0
    outer loop
      vertex -6.54956 6.25 10
      vertex -4.78719 6.25 11.99
      vertex -6.54956 6.25 11.99
    endloop
  endfacet
  facet normal 0 -1 -0
    outer loop
      vertex -4.78719 6.25 11.99
      vertex -6.54956 6.25 10
      vertex -4.78719 6.25 10
    endloop
  endfacet
  facet normal -0.110387 -0.993889 0
    outer loop
      vertex -6.69722 6.2664 10
      vertex -6.54956 6.25 11.99
      vertex -6.69722 6.2664 11.99
    endloop
  endfacet
  facet normal -0.110387 -0.993889 -0
    outer loop
      vertex -6.54956 6.25 11.99
      vertex -6.69722 6.2664 10
      vertex -6.54956 6.25 10
    endloop
  endfacet
  facet normal -0.422961 -0.906148 0
    outer loop
      vertex -6.80269 6.31563 10
      vertex -6.69722 6.2664 11.99
      vertex -6.80269 6.31563 11.99
    endloop
  endfacet
  facet normal -0.422961 -0.906148 -0
    outer loop
      vertex -6.69722 6.2664 11.99
      vertex -6.80269 6.31563 10
      vertex -6.69722 6.2664 10
    endloop
  endfacet
  facet normal -0.791784 -0.610802 0
    outer loop
      vertex -6.80269 6.31563 10
      vertex -6.86597 6.39766 11.99
      vertex -6.86597 6.39766 10
    endloop
  endfacet
  facet normal -0.791784 -0.610802 0
    outer loop
      vertex -6.86597 6.39766 11.99
      vertex -6.80269 6.31563 10
      vertex -6.80269 6.31563 11.99
    endloop
  endfacet
  facet normal -0.983545 -0.180663 0
    outer loop
      vertex -6.86597 6.39766 10
      vertex -6.88707 6.51253 11.99
      vertex -6.88707 6.51253 10
    endloop
  endfacet
  facet normal -0.983545 -0.180663 0
    outer loop
      vertex -6.88707 6.51253 11.99
      vertex -6.86597 6.39766 10
      vertex -6.86597 6.39766 11.99
    endloop
  endfacet
  facet normal -0.98191 0.189347 0
    outer loop
      vertex -6.88707 6.51253 10
      vertex -6.86597 6.62195 11.99
      vertex -6.86597 6.62195 10
    endloop
  endfacet
  facet normal -0.98191 0.189347 0
    outer loop
      vertex -6.86597 6.62195 11.99
      vertex -6.88707 6.51253 10
      vertex -6.88707 6.51253 11.99
    endloop
  endfacet
  facet normal -0.777168 0.629293 0
    outer loop
      vertex -6.86597 6.62195 10
      vertex -6.80269 6.7001 11.99
      vertex -6.80269 6.7001 10
    endloop
  endfacet
  facet normal -0.777168 0.629293 0
    outer loop
      vertex -6.80269 6.7001 11.99
      vertex -6.86597 6.62195 10
      vertex -6.86597 6.62195 11.99
    endloop
  endfacet
  facet normal -0.406243 0.913765 0
    outer loop
      vertex -6.69722 6.74699 10
      vertex -6.80269 6.7001 11.99
      vertex -6.69722 6.74699 11.99
    endloop
  endfacet
  facet normal -0.406243 0.913765 0
    outer loop
      vertex -6.80269 6.7001 11.99
      vertex -6.69722 6.74699 10
      vertex -6.80269 6.7001 10
    endloop
  endfacet
  facet normal -0.10533 0.994437 0
    outer loop
      vertex -6.54956 6.76263 10
      vertex -6.69722 6.74699 11.99
      vertex -6.54956 6.76263 11.99
    endloop
  endfacet
  facet normal -0.10533 0.994437 0
    outer loop
      vertex -6.69722 6.74699 11.99
      vertex -6.54956 6.76263 10
      vertex -6.69722 6.74699 10
    endloop
  endfacet
  facet normal 0 1 -0
    outer loop
      vertex -5.97464 6.76263 10
      vertex -6.54956 6.76263 11.99
      vertex -5.97464 6.76263 11.99
    endloop
  endfacet
  facet normal 0 1 0
    outer loop
      vertex -6.54956 6.76263 11.99
      vertex -5.97464 6.76263 10
      vertex -6.54956 6.76263 10
    endloop
  endfacet
  facet normal -1 0 0
    outer loop
      vertex -5.97464 6.76263 10
      vertex -5.97464 12.7761 11.99
      vertex -5.97464 12.7761 10
    endloop
  endfacet
  facet normal -1 -0 0
    outer loop
      vertex -5.97464 12.7761 11.99
      vertex -5.97464 6.76263 10
      vertex -5.97464 6.76263 11.99
    endloop
  endfacet
  facet normal 0 -1 0
    outer loop
      vertex -6.28712 12.7761 10
      vertex -5.97464 12.7761 11.99
      vertex -6.28712 12.7761 11.99
    endloop
  endfacet
  facet normal 0 -1 -0
    outer loop
      vertex -5.97464 12.7761 11.99
      vertex -6.28712 12.7761 10
      vertex -5.97464 12.7761 10
    endloop
  endfacet
  facet normal -0.110417 -0.993885 0
    outer loop
      vertex -6.43474 12.7925 10
      vertex -6.28712 12.7761 11.99
      vertex -6.43474 12.7925 11.99
    endloop
  endfacet
  facet normal -0.110417 -0.993885 -0
    outer loop
      vertex -6.28712 12.7761 11.99
      vertex -6.43474 12.7925 10
      vertex -6.28712 12.7761 10
    endloop
  endfacet
  facet normal -0.422848 -0.906201 0
    outer loop
      vertex -6.54018 12.8417 10
      vertex -6.43474 12.7925 11.99
      vertex -6.54018 12.8417 11.99
    endloop
  endfacet
  facet normal -0.422848 -0.906201 -0
    outer loop
      vertex -6.43474 12.7925 11.99
      vertex -6.54018 12.8417 10
      vertex -6.43474 12.7925 10
    endloop
  endfacet
  facet normal -0.792129 -0.610354 0
    outer loop
      vertex -6.54018 12.8417 10
      vertex -6.60344 12.9238 11.99
      vertex -6.60344 12.9238 10
    endloop
  endfacet
  facet normal -0.792129 -0.610354 0
    outer loop
      vertex -6.60344 12.9238 11.99
      vertex -6.54018 12.8417 10
      vertex -6.54018 12.8417 11.99
    endloop
  endfacet
  facet normal -0.983541 -0.180687 0
    outer loop
      vertex -6.60344 12.9238 10
      vertex -6.62453 13.0386 11.99
      vertex -6.62453 13.0386 10
    endloop
  endfacet
  facet normal -0.983541 -0.180687 0
    outer loop
      vertex -6.62453 13.0386 11.99
      vertex -6.60344 12.9238 10
      vertex -6.60344 12.9238 11.99
    endloop
  endfacet
  facet normal -0.981921 0.189293 0
    outer loop
      vertex -6.62453 13.0386 10
      vertex -6.60344 13.148 11.99
      vertex -6.60344 13.148 10
    endloop
  endfacet
  facet normal -0.981921 0.189293 0
    outer loop
      vertex -6.60344 13.148 11.99
      vertex -6.62453 13.0386 10
      vertex -6.62453 13.0386 11.99
    endloop
  endfacet
  facet normal -0.777365 0.62905 0
    outer loop
      vertex -6.60344 13.148 10
      vertex -6.54016 13.2262 11.99
      vertex -6.54016 13.2262 10
    endloop
  endfacet
  facet normal -0.777365 0.62905 0
    outer loop
      vertex -6.54016 13.2262 11.99
      vertex -6.60344 13.148 10
      vertex -6.60344 13.148 11.99
    endloop
  endfacet
  facet normal -0.406315 0.913733 0
    outer loop
      vertex -6.43469 13.2731 10
      vertex -6.54016 13.2262 11.99
      vertex -6.43469 13.2731 11.99
    endloop
  endfacet
  facet normal -0.406315 0.913733 0
    outer loop
      vertex -6.54016 13.2262 11.99
      vertex -6.43469 13.2731 10
      vertex -6.54016 13.2262 10
    endloop
  endfacet
  facet normal -0.105063 0.994466 0
    outer loop
      vertex -6.28703 13.2887 10
      vertex -6.43469 13.2731 11.99
      vertex -6.28703 13.2887 11.99
    endloop
  endfacet
  facet normal -0.105063 0.994466 0
    outer loop
      vertex -6.43469 13.2731 11.99
      vertex -6.28703 13.2887 10
      vertex -6.43469 13.2731 10
    endloop
  endfacet
  facet normal 0 1 -0
    outer loop
      vertex -4.78719 13.2887 10
      vertex -6.28703 13.2887 11.99
      vertex -4.78719 13.2887 11.99
    endloop
  endfacet
  facet normal 0 1 0
    outer loop
      vertex -6.28703 13.2887 11.99
      vertex -4.78719 13.2887 10
      vertex -6.28703 13.2887 10
    endloop
  endfacet
  facet normal 0.105063 0.994466 -0
    outer loop
      vertex -4.63953 13.2731 10
      vertex -4.78719 13.2887 11.99
      vertex -4.63953 13.2731 11.99
    endloop
  endfacet
  facet normal 0.105063 0.994466 0
    outer loop
      vertex -4.78719 13.2887 11.99
      vertex -4.63953 13.2731 10
      vertex -4.78719 13.2887 10
    endloop
  endfacet
  facet normal 0.406315 0.913733 -0
    outer loop
      vertex -4.53406 13.2262 10
      vertex -4.63953 13.2731 11.99
      vertex -4.53406 13.2262 11.99
    endloop
  endfacet
  facet normal 0.406315 0.913733 0
    outer loop
      vertex -4.63953 13.2731 11.99
      vertex -4.53406 13.2262 10
      vertex -4.63953 13.2731 10
    endloop
  endfacet
  facet normal 0.777365 0.62905 0
    outer loop
      vertex -4.47078 13.148 11.99
      vertex -4.53406 13.2262 10
      vertex -4.53406 13.2262 11.99
    endloop
  endfacet
  facet normal 0.777365 0.62905 0
    outer loop
      vertex -4.53406 13.2262 10
      vertex -4.47078 13.148 11.99
      vertex -4.47078 13.148 10
    endloop
  endfacet
  facet normal 0.981904 0.18938 0
    outer loop
      vertex -4.44968 13.0386 11.99
      vertex -4.47078 13.148 10
      vertex -4.47078 13.148 11.99
    endloop
  endfacet
  facet normal 0.981904 0.18938 0
    outer loop
      vertex -4.47078 13.148 10
      vertex -4.44968 13.0386 11.99
      vertex -4.44968 13.0386 10
    endloop
  endfacet
  facet normal 0.983525 -0.18077 0
    outer loop
      vertex -4.47078 12.9238 11.99
      vertex -4.44968 13.0386 10
      vertex -4.44968 13.0386 11.99
    endloop
  endfacet
  facet normal 0.983525 -0.18077 0
    outer loop
      vertex -4.44968 13.0386 10
      vertex -4.47078 12.9238 11.99
      vertex -4.47078 12.9238 10
    endloop
  endfacet
  facet normal 0.792035 -0.610475 0
    outer loop
      vertex -4.53406 12.8417 11.99
      vertex -4.47078 12.9238 10
      vertex -4.47078 12.9238 11.99
    endloop
  endfacet
  facet normal 0.792035 -0.610475 0
    outer loop
      vertex -4.47078 12.9238 10
      vertex -4.53406 12.8417 11.99
      vertex -4.53406 12.8417 10
    endloop
  endfacet
  facet normal 0.422749 -0.906247 0
    outer loop
      vertex -4.63953 12.7925 10
      vertex -4.53406 12.8417 11.99
      vertex -4.63953 12.7925 11.99
    endloop
  endfacet
  facet normal 0.422749 -0.906247 0
    outer loop
      vertex -4.53406 12.8417 11.99
      vertex -4.63953 12.7925 10
      vertex -4.53406 12.8417 10
    endloop
  endfacet
  facet normal 0.110387 -0.993889 0
    outer loop
      vertex -4.78719 12.7761 10
      vertex -4.63953 12.7925 11.99
      vertex -4.78719 12.7761 11.99
    endloop
  endfacet
  facet normal 0.110387 -0.993889 0
    outer loop
      vertex -4.63953 12.7925 11.99
      vertex -4.78719 12.7761 10
      vertex -4.63953 12.7925 10
    endloop
  endfacet
  facet normal 0 -1 0
    outer loop
      vertex -5.46219 12.7761 10
      vertex -4.78719 12.7761 11.99
      vertex -5.46219 12.7761 11.99
    endloop
  endfacet
  facet normal 0 -1 -0
    outer loop
      vertex -4.78719 12.7761 11.99
      vertex -5.46219 12.7761 10
      vertex -4.78719 12.7761 10
    endloop
  endfacet
  facet normal 1 -0 0
    outer loop
      vertex -5.46219 10.161 11.99
      vertex -5.46219 12.7761 10
      vertex -5.46219 12.7761 11.99
    endloop
  endfacet
  facet normal 1 0 0
    outer loop
      vertex -5.46219 12.7761 10
      vertex -5.46219 10.161 11.99
      vertex -5.46219 10.161 10
    endloop
  endfacet
  facet normal 0 1 -0
    outer loop
      vertex -2.08736 10.161 10
      vertex -5.46219 10.161 11.99
      vertex -2.08736 10.161 11.99
    endloop
  endfacet
  facet normal 0 1 0
    outer loop
      vertex -5.46219 10.161 11.99
      vertex -2.08736 10.161 10
      vertex -5.46219 10.161 10
    endloop
  endfacet
  facet normal -1 0 0
    outer loop
      vertex -2.08736 10.161 10
      vertex -2.08736 12.7761 11.99
      vertex -2.08736 12.7761 10
    endloop
  endfacet
  facet normal -1 -0 0
    outer loop
      vertex -2.08736 12.7761 11.99
      vertex -2.08736 10.161 10
      vertex -2.08736 10.161 11.99
    endloop
  endfacet
  facet normal 0 -1 0
    outer loop
      vertex -2.76227 12.7761 10
      vertex -2.08736 12.7761 11.99
      vertex -2.76227 12.7761 11.99
    endloop
  endfacet
  facet normal 0 -1 -0
    outer loop
      vertex -2.08736 12.7761 11.99
      vertex -2.76227 12.7761 10
      vertex -2.08736 12.7761 10
    endloop
  endfacet
  facet normal -0.110387 -0.993889 0
    outer loop
      vertex -2.90993 12.7925 10
      vertex -2.76227 12.7761 11.99
      vertex -2.90993 12.7925 11.99
    endloop
  endfacet
  facet normal -0.110387 -0.993889 -0
    outer loop
      vertex -2.76227 12.7761 11.99
      vertex -2.90993 12.7925 10
      vertex -2.76227 12.7761 10
    endloop
  endfacet
  facet normal -0.422749 -0.906247 0
    outer loop
      vertex -3.0154 12.8417 10
      vertex -2.90993 12.7925 11.99
      vertex -3.0154 12.8417 11.99
    endloop
  endfacet
  facet normal -0.422749 -0.906247 -0
    outer loop
      vertex -2.90993 12.7925 11.99
      vertex -3.0154 12.8417 10
      vertex -2.90993 12.7925 10
    endloop
  endfacet
  facet normal -0.792082 -0.610415 0
    outer loop
      vertex -3.0154 12.8417 10
      vertex -3.07867 12.9238 11.99
      vertex -3.07867 12.9238 10
    endloop
  endfacet
  facet normal -0.792082 -0.610415 0
    outer loop
      vertex -3.07867 12.9238 11.99
      vertex -3.0154 12.8417 10
      vertex -3.0154 12.8417 11.99
    endloop
  endfacet
  facet normal -0.98351 -0.180853 0
    outer loop
      vertex -3.07867 12.9238 10
      vertex -3.09978 13.0386 11.99
      vertex -3.09978 13.0386 10
    endloop
  endfacet
  facet normal -0.98351 -0.180853 0
    outer loop
      vertex -3.09978 13.0386 11.99
      vertex -3.07867 12.9238 10
      vertex -3.07867 12.9238 11.99
    endloop
  endfacet
  facet normal -0.981887 0.189467 0
    outer loop
      vertex -3.09978 13.0386 10
      vertex -3.07867 13.148 11.99
      vertex -3.07867 13.148 10
    endloop
  endfacet
  facet normal -0.981887 0.189467 0
    outer loop
      vertex -3.07867 13.148 11.99
      vertex -3.09978 13.0386 10
      vertex -3.09978 13.0386 11.99
    endloop
  endfacet
  facet normal -0.777414 0.628989 0
    outer loop
      vertex -3.07867 13.148 10
      vertex -3.0154 13.2262 11.99
      vertex -3.0154 13.2262 10
    endloop
  endfacet
  facet normal -0.777414 0.628989 0
    outer loop
      vertex -3.0154 13.2262 11.99
      vertex -3.07867 13.148 10
      vertex -3.07867 13.148 11.99
    endloop
  endfacet
  facet normal -0.406315 0.913733 0
    outer loop
      vertex -2.90993 13.2731 10
      vertex -3.0154 13.2262 11.99
      vertex -2.90993 13.2731 11.99
    endloop
  endfacet
  facet normal -0.406315 0.913733 0
    outer loop
      vertex -3.0154 13.2262 11.99
      vertex -2.90993 13.2731 10
      vertex -3.0154 13.2262 10
    endloop
  endfacet
  facet normal -0.105063 0.994466 0
    outer loop
      vertex -2.76227 13.2887 10
      vertex -2.90993 13.2731 11.99
      vertex -2.76227 13.2887 11.99
    endloop
  endfacet
  facet normal -0.105063 0.994466 0
    outer loop
      vertex -2.90993 13.2731 11.99
      vertex -2.76227 13.2887 10
      vertex -2.90993 13.2731 10
    endloop
  endfacet
  facet normal 0 1 -0
    outer loop
      vertex -1.26242 13.2887 10
      vertex -2.76227 13.2887 11.99
      vertex -1.26242 13.2887 11.99
    endloop
  endfacet
  facet normal 0 1 0
    outer loop
      vertex -2.76227 13.2887 11.99
      vertex -1.26242 13.2887 10
      vertex -2.76227 13.2887 10
    endloop
  endfacet
  facet normal 0.105063 0.994466 -0
    outer loop
      vertex -1.11476 13.2731 10
      vertex -1.26242 13.2887 11.99
      vertex -1.11476 13.2731 11.99
    endloop
  endfacet
  facet normal 0.105063 0.994466 0
    outer loop
      vertex -1.26242 13.2887 11.99
      vertex -1.11476 13.2731 10
      vertex -1.26242 13.2887 10
    endloop
  endfacet
  facet normal 0.406315 0.913733 -0
    outer loop
      vertex -1.00929 13.2262 10
      vertex -1.11476 13.2731 11.99
      vertex -1.00929 13.2262 11.99
    endloop
  endfacet
  facet normal 0.406315 0.913733 0
    outer loop
      vertex -1.11476 13.2731 11.99
      vertex -1.00929 13.2262 10
      vertex -1.11476 13.2731 10
    endloop
  endfacet
  facet normal 0.777385 0.629025 0
    outer loop
      vertex -0.946014 13.148 11.99
      vertex -1.00929 13.2262 10
      vertex -1.00929 13.2262 11.99
    endloop
  endfacet
  facet normal 0.777385 0.629025 0
    outer loop
      vertex -1.00929 13.2262 10
      vertex -0.946014 13.148 11.99
      vertex -0.946014 13.148 10
    endloop
  endfacet
  facet normal 0.981926 0.189267 0
    outer loop
      vertex -0.924927 13.0386 11.99
      vertex -0.946014 13.148 10
      vertex -0.946014 13.148 11.99
    endloop
  endfacet
  facet normal 0.981926 0.189267 0
    outer loop
      vertex -0.946014 13.148 10
      vertex -0.924927 13.0386 11.99
      vertex -0.924927 13.0386 10
    endloop
  endfacet
  facet normal 0.983545 -0.180662 0
    outer loop
      vertex -0.946014 12.9238 11.99
      vertex -0.924927 13.0386 10
      vertex -0.924927 13.0386 11.99
    endloop
  endfacet
  facet normal 0.983545 -0.180662 0
    outer loop
      vertex -0.924927 13.0386 10
      vertex -0.946014 12.9238 11.99
      vertex -0.946014 12.9238 10
    endloop
  endfacet
  facet normal 0.792054 -0.610451 0
    outer loop
      vertex -1.00929 12.8417 11.99
      vertex -0.946014 12.9238 10
      vertex -0.946014 12.9238 11.99
    endloop
  endfacet
  facet normal 0.792054 -0.610451 0
    outer loop
      vertex -0.946014 12.9238 10
      vertex -1.00929 12.8417 11.99
      vertex -1.00929 12.8417 10
    endloop
  endfacet
  facet normal 0.422749 -0.906247 0
    outer loop
      vertex -1.11476 12.7925 10
      vertex -1.00929 12.8417 11.99
      vertex -1.11476 12.7925 11.99
    endloop
  endfacet
  facet normal 0.422749 -0.906247 0
    outer loop
      vertex -1.00929 12.8417 11.99
      vertex -1.11476 12.7925 10
      vertex -1.00929 12.8417 10
    endloop
  endfacet
  facet normal 0.110387 -0.993889 0
    outer loop
      vertex -1.26242 12.7761 10
      vertex -1.11476 12.7925 11.99
      vertex -1.26242 12.7761 11.99
    endloop
  endfacet
  facet normal 0.110387 -0.993889 0
    outer loop
      vertex -1.11476 12.7925 11.99
      vertex -1.26242 12.7761 10
      vertex -1.11476 12.7925 10
    endloop
  endfacet
  facet normal 0 -1 0
    outer loop
      vertex -1.57491 12.7761 10
      vertex -1.26242 12.7761 11.99
      vertex -1.57491 12.7761 11.99
    endloop
  endfacet
  facet normal 0 -1 -0
    outer loop
      vertex -1.26242 12.7761 11.99
      vertex -1.57491 12.7761 10
      vertex -1.26242 12.7761 10
    endloop
  endfacet
  facet normal 1 -0 0
    outer loop
      vertex -1.57491 6.76263 11.99
      vertex -1.57491 12.7761 10
      vertex -1.57491 12.7761 11.99
    endloop
  endfacet
  facet normal 1 0 0
    outer loop
      vertex -1.57491 12.7761 10
      vertex -1.57491 6.76263 11.99
      vertex -1.57491 6.76263 10
    endloop
  endfacet
  facet normal 0 1 -0
    outer loop
      vertex -1.0125 6.76263 10
      vertex -1.57491 6.76263 11.99
      vertex -1.0125 6.76263 11.99
    endloop
  endfacet
  facet normal 0 1 0
    outer loop
      vertex -1.57491 6.76263 11.99
      vertex -1.0125 6.76263 10
      vertex -1.57491 6.76263 10
    endloop
  endfacet
  facet normal 0.1016 0.994825 -0
    outer loop
      vertex -0.85936 6.74699 10
      vertex -1.0125 6.76263 11.99
      vertex -0.85936 6.74699 11.99
    endloop
  endfacet
  facet normal 0.1016 0.994825 0
    outer loop
      vertex -1.0125 6.76263 11.99
      vertex -0.85936 6.74699 10
      vertex -1.0125 6.76263 10
    endloop
  endfacet
  facet normal 0.394026 0.919099 -0
    outer loop
      vertex -0.749985 6.7001 10
      vertex -0.85936 6.74699 11.99
      vertex -0.749985 6.7001 11.99
    endloop
  endfacet
  facet normal 0.394026 0.919099 0
    outer loop
      vertex -0.85936 6.74699 11.99
      vertex -0.749985 6.7001 10
      vertex -0.85936 6.74699 10
    endloop
  endfacet
  facet normal 0.765792 0.643089 0
    outer loop
      vertex -0.684357 6.62195 11.99
      vertex -0.749985 6.7001 10
      vertex -0.749985 6.7001 11.99
    endloop
  endfacet
  facet normal 0.765792 0.643089 0
    outer loop
      vertex -0.749985 6.7001 10
      vertex -0.684357 6.62195 11.99
      vertex -0.684357 6.62195 10
    endloop
  endfacet
  facet normal 0.980586 0.19609 0
    outer loop
      vertex -0.662476 6.51253 11.99
      vertex -0.684357 6.62195 10
      vertex -0.684357 6.62195 11.99
    endloop
  endfacet
  facet normal 0.980586 0.19609 0
    outer loop
      vertex -0.684357 6.62195 10
      vertex -0.662476 6.51253 11.99
      vertex -0.662476 6.51253 10
    endloop
  endfacet
  facet normal 0.982337 -0.18712 0
    outer loop
      vertex -0.684357 6.39766 11.99
      vertex -0.662476 6.51253 10
      vertex -0.662476 6.51253 11.99
    endloop
  endfacet
  facet normal 0.982337 -0.18712 0
    outer loop
      vertex -0.662476 6.51253 10
      vertex -0.684357 6.39766 11.99
      vertex -0.684357 6.39766 10
    endloop
  endfacet
  facet normal 0.78085 -0.624718 0
    outer loop
      vertex -0.749985 6.31563 11.99
      vertex -0.684357 6.39766 10
      vertex -0.684357 6.39766 11.99
    endloop
  endfacet
  facet normal 0.78085 -0.624718 0
    outer loop
      vertex -0.684357 6.39766 10
      vertex -0.749985 6.31563 11.99
      vertex -0.749985 6.31563 10
    endloop
  endfacet
  facet normal 0.410443 -0.911886 0
    outer loop
      vertex -0.85936 6.2664 10
      vertex -0.749985 6.31563 11.99
      vertex -0.85936 6.2664 11.99
    endloop
  endfacet
  facet normal 0.410443 -0.911886 0
    outer loop
      vertex -0.749985 6.31563 11.99
      vertex -0.85936 6.2664 10
      vertex -0.749985 6.31563 10
    endloop
  endfacet
  facet normal 0.106483 -0.994315 0
    outer loop
      vertex -1.0125 6.25 10
      vertex -0.85936 6.2664 11.99
      vertex -1.0125 6.25 11.99
    endloop
  endfacet
  facet normal 0.106483 -0.994315 0
    outer loop
      vertex -0.85936 6.2664 11.99
      vertex -1.0125 6.25 10
      vertex -0.85936 6.2664 10
    endloop
  endfacet
  facet normal 0 -1 0
    outer loop
      vertex -2.76227 6.25 10
      vertex -1.0125 6.25 11.99
      vertex -2.76227 6.25 11.99
    endloop
  endfacet
  facet normal 0 -1 -0
    outer loop
      vertex -1.0125 6.25 11.99
      vertex -2.76227 6.25 10
      vertex -1.0125 6.25 10
    endloop
  endfacet
  facet normal -0.110387 -0.993889 0
    outer loop
      vertex -2.90993 6.2664 10
      vertex -2.76227 6.25 11.99
      vertex -2.90993 6.2664 11.99
    endloop
  endfacet
  facet normal -0.110387 -0.993889 -0
    outer loop
      vertex -2.76227 6.25 11.99
      vertex -2.90993 6.2664 10
      vertex -2.76227 6.25 10
    endloop
  endfacet
endsolid OpenSCAD_Model
