solid OpenSCAD_Model
  facet normal 0 0 1
    outer loop
      vertex -5.66219 9.84856 10
      vertex -2.26235 9.94855 10
      vertex -2.55216 10.2796 10
    endloop
  endfacet
  facet normal 0 0 1
    outer loop
      vertex -5.66219 9.84856 10
      vertex -2.55216 10.2796 10
      vertex -2.80918 10.5482 10
    endloop
  endfacet
  facet normal 0 0 1
    outer loop
      vertex -2.26235 9.94855 10
      vertex -2.82476 6.76263 10
      vertex -2.26235 6.76263 10
    endloop
  endfacet
  facet normal 0 0 1
    outer loop
      vertex -2.26235 9.94855 10
      vertex -2.97788 6.74699 10
      vertex -2.82476 6.76263 10
    endloop
  endfacet
  facet normal 0 0 1
    outer loop
      vertex -5.66219 9.84856 10
      vertex -2.80918 10.5482 10
      vertex -3.03339 10.7544 10
    endloop
  endfacet
  facet normal 0 0 1
    outer loop
      vertex -2.26235 9.94855 10
      vertex -5.66219 9.84856 10
      vertex -3.08725 6.7001 10
    endloop
  endfacet
  facet normal 0 0 1
    outer loop
      vertex -2.26235 9.94855 10
      vertex -3.08725 6.7001 10
      vertex -2.97788 6.74699 10
    endloop
  endfacet
  facet normal 0 -0 1
    outer loop
      vertex -4.84656 6.7001 10
      vertex -3.08725 6.7001 10
      vertex -5.66219 9.84856 10
    endloop
  endfacet
  facet normal 0 0 1
    outer loop
      vertex -3.62479 11.0667 10
      vertex -3.03339 10.7544 10
      vertex -3.2248 10.898 10
    endloop
  endfacet
  facet normal 0 0 1
    outer loop
      vertex 0 14.5 10
      vertex -0.858554 6.62195 10
      vertex -0.837466 6.51253 10
    endloop
  endfacet
  facet normal 0 0 1
    outer loop
      vertex -0.821841 13.3543 10
      vertex -0.921832 6.7001 10
      vertex -0.858554 6.62195 10
    endloop
  endfacet
  facet normal -0 0 1
    outer loop
      vertex -0.92731 13.3051 10
      vertex -0.921832 6.7001 10
      vertex -0.821841 13.3543 10
    endloop
  endfacet
  facet normal 0 0 1
    outer loop
      vertex -0.92731 13.3051 10
      vertex -1.0273 6.74699 10
      vertex -0.921832 6.7001 10
    endloop
  endfacet
  facet normal -0 0 1
    outer loop
      vertex -1.07497 13.2887 10
      vertex -1.0273 6.74699 10
      vertex -0.92731 13.3051 10
    endloop
  endfacet
  facet normal 0 0 1
    outer loop
      vertex -1.07497 13.2887 10
      vertex -1.17496 6.76263 10
      vertex -1.0273 6.74699 10
    endloop
  endfacet
  facet normal -0 0 1
    outer loop
      vertex -1.74988 13.2887 10
      vertex -1.17496 6.76263 10
      vertex -1.07497 13.2887 10
    endloop
  endfacet
  facet normal 0 0 1
    outer loop
      vertex -1.17496 6.76263 10
      vertex -1.74988 13.2887 10
      vertex -1.74988 6.76263 10
    endloop
  endfacet
  facet normal 0 0 1
    outer loop
      vertex -0.758563 13.4364 10
      vertex 0 14.5 10
      vertex -0.737475 13.5512 10
    endloop
  endfacet
  facet normal 0 0 1
    outer loop
      vertex 0 14.5 10
      vertex -0.758563 13.6607 10
      vertex -0.737475 13.5512 10
    endloop
  endfacet
  facet normal 0 0 1
    outer loop
      vertex 0 14.5 10
      vertex -0.821841 13.7388 10
      vertex -0.758563 13.6607 10
    endloop
  endfacet
  facet normal 0 0 1
    outer loop
      vertex 0 14.5 10
      vertex -0.92731 13.7857 10
      vertex -0.821841 13.7388 10
    endloop
  endfacet
  facet normal 0 0 1
    outer loop
      vertex 0 14.5 10
      vertex -1.07497 13.8013 10
      vertex -0.92731 13.7857 10
    endloop
  endfacet
  facet normal 0 0 1
    outer loop
      vertex 0 14.5 10
      vertex -2.26235 13.8013 10
      vertex -1.07497 13.8013 10
    endloop
  endfacet
  facet normal 0 0 1
    outer loop
      vertex -2.26235 13.8013 10
      vertex -2.4975 10.8521 10
      vertex -2.26235 10.5857 10
    endloop
  endfacet
  facet normal 0 0 1
    outer loop
      vertex -2.26235 13.8013 10
      vertex -2.72795 11.0763 10
      vertex -2.4975 10.8521 10
    endloop
  endfacet
  facet normal 0 0 1
    outer loop
      vertex -2.26235 13.8013 10
      vertex -2.95371 11.2583 10
      vertex -2.72795 11.0763 10
    endloop
  endfacet
  facet normal 0 0 1
    outer loop
      vertex -2.26235 13.8013 10
      vertex -3.17476 11.3981 10
      vertex -2.95371 11.2583 10
    endloop
  endfacet
  facet normal 0 0 1
    outer loop
      vertex -2.26235 13.8013 10
      vertex -3.4021 11.502 10
      vertex -3.17476 11.3981 10
    endloop
  endfacet
  facet normal 0 0 1
    outer loop
      vertex -2.26235 13.8013 10
      vertex -3.64662 11.5762 10
      vertex -3.4021 11.502 10
    endloop
  endfacet
  facet normal 0 0 1
    outer loop
      vertex -2.26235 13.8013 10
      vertex -3.90836 11.6207 10
      vertex -3.64662 11.5762 10
    endloop
  endfacet
  facet normal 0 0 1
    outer loop
      vertex -2.26235 13.8013 10
      vertex -4.18726 11.6356 10
      vertex -3.90836 11.6207 10
    endloop
  endfacet
  facet normal 0 0 1
    outer loop
      vertex -2.26235 13.8013 10
      vertex -4.60483 11.6048 10
      vertex -4.18726 11.6356 10
    endloop
  endfacet
  facet normal 0 0 1
    outer loop
      vertex -8 14.5 10
      vertex -4.60483 11.6048 10
      vertex -2.26235 13.8013 10
    endloop
  endfacet
  facet normal 0 0 1
    outer loop
      vertex -4.60483 11.6048 10
      vertex -8 14.5 10
      vertex -4.98255 11.5122 10
    endloop
  endfacet
  facet normal 0 0 1
    outer loop
      vertex -4.98255 11.5122 10
      vertex -8 14.5 10
      vertex -5.32042 11.358 10
    endloop
  endfacet
  facet normal 0 0 1
    outer loop
      vertex -6.17464 9.88635 10
      vertex -6.73705 6.76263 10
      vertex -6.17464 6.76263 10
    endloop
  endfacet
  facet normal 0 0 1
    outer loop
      vertex -8 14.5 10
      vertex -6.17464 9.88635 10
      vertex -6.13988 10.2506 10
    endloop
  endfacet
  facet normal 0 0 1
    outer loop
      vertex -6.17464 9.88635 10
      vertex -6.89019 6.74699 10
      vertex -6.73705 6.76263 10
    endloop
  endfacet
  facet normal 0 0 1
    outer loop
      vertex -6.17464 9.88635 10
      vertex -6.99956 6.7001 10
      vertex -6.89019 6.74699 10
    endloop
  endfacet
  facet normal 0 0 1
    outer loop
      vertex -6.17464 9.88635 10
      vertex -7.06519 6.62195 10
      vertex -6.99956 6.7001 10
    endloop
  endfacet
  facet normal 0 0 1
    outer loop
      vertex -7.06519 6.62195 10
      vertex -8 14.5 10
      vertex -7.08707 6.51253 10
    endloop
  endfacet
  facet normal 0 0 1
    outer loop
      vertex -6.17464 9.88635 10
      vertex -8 14.5 10
      vertex -7.06519 6.62195 10
    endloop
  endfacet
  facet normal 0 0 1
    outer loop
      vertex -6.03559 10.5813 10
      vertex -8 14.5 10
      vertex -6.13988 10.2506 10
    endloop
  endfacet
  facet normal 0 0 1
    outer loop
      vertex -5.86177 10.8785 10
      vertex -8 14.5 10
      vertex -6.03559 10.5813 10
    endloop
  endfacet
  facet normal 0 0 1
    outer loop
      vertex -5.61844 11.142 10
      vertex -8 14.5 10
      vertex -5.86177 10.8785 10
    endloop
  endfacet
  facet normal 0 0 1
    outer loop
      vertex -5.32042 11.358 10
      vertex -8 14.5 10
      vertex -5.61844 11.142 10
    endloop
  endfacet
  facet normal -0 0 1
    outer loop
      vertex -8 14.5 10
      vertex -2.26235 13.8013 10
      vertex 0 14.5 10
    endloop
  endfacet
  facet normal 0 0 1
    outer loop
      vertex -0.858554 6.62195 10
      vertex 0 14.5 10
      vertex -0.758563 13.4364 10
    endloop
  endfacet
  facet normal 0 0 1
    outer loop
      vertex -0.858554 6.62195 10
      vertex -0.758563 13.4364 10
      vertex -0.821841 13.3543 10
    endloop
  endfacet
  facet normal 0 0 1
    outer loop
      vertex 0 14.5 10
      vertex -0.837466 6.51253 10
      vertex 0 2.5 10
    endloop
  endfacet
  facet normal -0 0 1
    outer loop
      vertex -0.858554 6.39766 10
      vertex 0 2.5 10
      vertex -0.837466 6.51253 10
    endloop
  endfacet
  facet normal -0 0 1
    outer loop
      vertex -0.921832 6.31563 10
      vertex 0 2.5 10
      vertex -0.858554 6.39766 10
    endloop
  endfacet
  facet normal -0 0 1
    outer loop
      vertex -1.0273 6.2664 10
      vertex 0 2.5 10
      vertex -0.921832 6.31563 10
    endloop
  endfacet
  facet normal -0 0 1
    outer loop
      vertex -1.17496 6.25 10
      vertex 0 2.5 10
      vertex -1.0273 6.2664 10
    endloop
  endfacet
  facet normal -0 0 1
    outer loop
      vertex -2.82476 6.25 10
      vertex 0 2.5 10
      vertex -1.17496 6.25 10
    endloop
  endfacet
  facet normal 0 0 1
    outer loop
      vertex -2.97788 6.2664 10
      vertex 0 2.5 10
      vertex -2.82476 6.25 10
    endloop
  endfacet
  facet normal 0 0 1
    outer loop
      vertex -4.95203 6.2664 10
      vertex -2.97788 6.2664 10
      vertex -3.08725 6.31563 10
    endloop
  endfacet
  facet normal 0 0 1
    outer loop
      vertex -3.62479 11.0667 10
      vertex -3.2248 10.898 10
      vertex -3.4123 10.9964 10
    endloop
  endfacet
  facet normal 0 0 1
    outer loop
      vertex -3.03339 10.7544 10
      vertex -3.62479 11.0667 10
      vertex -3.86226 11.1089 10
    endloop
  endfacet
  facet normal 0 0 1
    outer loop
      vertex -3.03339 10.7544 10
      vertex -3.86226 11.1089 10
      vertex -5.66219 9.84856 10
    endloop
  endfacet
  facet normal 0 0 1
    outer loop
      vertex -5.66219 9.84856 10
      vertex -3.86226 11.1089 10
      vertex -4.12471 11.123 10
    endloop
  endfacet
  facet normal 0 0 1
    outer loop
      vertex -3.08725 6.7001 10
      vertex -4.84656 6.7001 10
      vertex -3.15288 6.62195 10
    endloop
  endfacet
  facet normal 0 0 1
    outer loop
      vertex -5.66219 9.84856 10
      vertex -4.12471 11.123 10
      vertex -4.50792 11.0976 10
    endloop
  endfacet
  facet normal 0 -0 1
    outer loop
      vertex -4.78328 6.62195 10
      vertex -3.15288 6.62195 10
      vertex -4.84656 6.7001 10
    endloop
  endfacet
  facet normal 0 0 1
    outer loop
      vertex -4.78328 6.39766 10
      vertex -3.15288 6.39766 10
      vertex -4.76218 6.51253 10
    endloop
  endfacet
  facet normal 0 0 1
    outer loop
      vertex -4.84656 6.31563 10
      vertex -3.15288 6.39766 10
      vertex -4.78328 6.39766 10
    endloop
  endfacet
  facet normal 0 0 1
    outer loop
      vertex -3.15288 6.39766 10
      vertex -4.84656 6.31563 10
      vertex -3.08725 6.31563 10
    endloop
  endfacet
  facet normal 0 0 1
    outer loop
      vertex -4.95203 6.2664 10
      vertex -3.08725 6.31563 10
      vertex -4.84656 6.31563 10
    endloop
  endfacet
  facet normal 0 0 1
    outer loop
      vertex -2.97788 6.2664 10
      vertex -4.95203 6.2664 10
      vertex 0 2.5 10
    endloop
  endfacet
  facet normal 0 0 1
    outer loop
      vertex -8 2.5 10
      vertex -4.95203 6.2664 10
      vertex -5.09969 6.25 10
    endloop
  endfacet
  facet normal 0 0 1
    outer loop
      vertex -8 2.5 10
      vertex -5.09969 6.25 10
      vertex -6.73705 6.25 10
    endloop
  endfacet
  facet normal 0 0 1
    outer loop
      vertex -8 2.5 10
      vertex -6.73705 6.25 10
      vertex -6.89019 6.2664 10
    endloop
  endfacet
  facet normal 0 0 1
    outer loop
      vertex -8 2.5 10
      vertex -6.89019 6.2664 10
      vertex -6.99956 6.31563 10
    endloop
  endfacet
  facet normal 0 0 1
    outer loop
      vertex -4.95203 6.2664 10
      vertex -8 2.5 10
      vertex 0 2.5 10
    endloop
  endfacet
  facet normal 0 0 1
    outer loop
      vertex -7.06519 6.39766 10
      vertex -8 2.5 10
      vertex -6.99956 6.31563 10
    endloop
  endfacet
  facet normal 0 0 1
    outer loop
      vertex -7.08707 6.51253 10
      vertex -8 2.5 10
      vertex -7.06519 6.39766 10
    endloop
  endfacet
  facet normal 0 0 1
    outer loop
      vertex -8 2.5 10
      vertex -7.08707 6.51253 10
      vertex -8 14.5 10
    endloop
  endfacet
  facet normal 0 0 1
    outer loop
      vertex -3.17476 6.51253 10
      vertex -4.76218 6.51253 10
      vertex -3.15288 6.39766 10
    endloop
  endfacet
  facet normal 0 0 1
    outer loop
      vertex -5.66219 9.84856 10
      vertex -4.50792 11.0976 10
      vertex -4.83254 11.0214 10
    endloop
  endfacet
  facet normal 0 -0 1
    outer loop
      vertex -4.76218 6.51253 10
      vertex -3.17476 6.51253 10
      vertex -4.78328 6.62195 10
    endloop
  endfacet
  facet normal 0 0 1
    outer loop
      vertex -3.15288 6.62195 10
      vertex -4.78328 6.62195 10
      vertex -3.17476 6.51253 10
    endloop
  endfacet
  facet normal 0 0 1
    outer loop
      vertex -5.30596 10.7169 10
      vertex -4.83254 11.0214 10
      vertex -5.09854 10.8945 10
    endloop
  endfacet
  facet normal 0 0 1
    outer loop
      vertex -4.84656 6.7001 10
      vertex -5.66219 9.84856 10
      vertex -4.95203 6.74699 10
    endloop
  endfacet
  facet normal 0 0 1
    outer loop
      vertex -4.83254 11.0214 10
      vertex -5.30596 10.7169 10
      vertex -5.46181 10.5104 10
    endloop
  endfacet
  facet normal 0 0 1
    outer loop
      vertex -4.83254 11.0214 10
      vertex -5.46181 10.5104 10
      vertex -5.66219 9.84856 10
    endloop
  endfacet
  facet normal 0 0 1
    outer loop
      vertex -5.66219 9.84856 10
      vertex -5.46181 10.5104 10
      vertex -5.57312 10.2968 10
    endloop
  endfacet
  facet normal 0 0 1
    outer loop
      vertex -5.66219 9.84856 10
      vertex -5.57312 10.2968 10
      vertex -5.63993 10.0762 10
    endloop
  endfacet
  facet normal 0 0 1
    outer loop
      vertex -4.95203 6.74699 10
      vertex -5.66219 9.84856 10
      vertex -5.09969 6.76263 10
    endloop
  endfacet
  facet normal 0 0 1
    outer loop
      vertex -5.09969 6.76263 10
      vertex -5.66219 9.84856 10
      vertex -5.66219 6.76263 10
    endloop
  endfacet
  facet normal -1 0 0
    outer loop
      vertex -8 0 3
      vertex -8 17 3
      vertex -8 17 0
    endloop
  endfacet
  facet normal -1 0 0
    outer loop
      vertex -8 17 3
      vertex -8 0 3
      vertex -8 14.5 10
    endloop
  endfacet
  facet normal -1 0 0
    outer loop
      vertex -8 0 3
      vertex -8 17 0
      vertex -8 0 0
    endloop
  endfacet
  facet normal -1 -0 0
    outer loop
      vertex -8 14.5 10
      vertex -8 0 3
      vertex -8 2.5 10
    endloop
  endfacet
  facet normal 0 1 -0
    outer loop
      vertex 0 17 0
      vertex -8 17 3
      vertex 0 17 3
    endloop
  endfacet
  facet normal 0 1 0
    outer loop
      vertex -8 17 3
      vertex 0 17 0
      vertex -8 17 0
    endloop
  endfacet
  facet normal 0 0 -1
    outer loop
      vertex -8 0 0
      vertex 0 17 0
      vertex 0 0 0
    endloop
  endfacet
  facet normal -0 0 -1
    outer loop
      vertex 0 17 0
      vertex -8 0 0
      vertex -8 17 0
    endloop
  endfacet
  facet normal 1 0 0
    outer loop
      vertex 0 0 3
      vertex 0 17 3
      vertex 0 14.5 10
    endloop
  endfacet
  facet normal 1 0 0
    outer loop
      vertex 0 0 3
      vertex 0 14.5 10
      vertex 0 2.5 10
    endloop
  endfacet
  facet normal 1 0 0
    outer loop
      vertex 0 17 3
      vertex 0 0 3
      vertex 0 17 0
    endloop
  endfacet
  facet normal 1 0 0
    outer loop
      vertex 0 17 0
      vertex 0 0 3
      vertex 0 0 0
    endloop
  endfacet
  facet normal 0 -0.941742 0.336336
    outer loop
      vertex -8 0 3
      vertex 0 2.5 10
      vertex -8 2.5 10
    endloop
  endfacet
  facet normal 0 -0.941742 0.336336
    outer loop
      vertex 0 2.5 10
      vertex -8 0 3
      vertex 0 0 3
    endloop
  endfacet
  facet normal 0 -1 0
    outer loop
      vertex -8 0 0
      vertex 0 0 3
      vertex -8 0 3
    endloop
  endfacet
  facet normal 0 -1 -0
    outer loop
      vertex 0 0 3
      vertex -8 0 0
      vertex 0 0 0
    endloop
  endfacet
  facet normal 0 0.941742 0.336336
    outer loop
      vertex 0 17 3
      vertex -8 14.5 10
      vertex 0 14.5 10
    endloop
  endfacet
  facet normal 0 0.941742 0.336336
    outer loop
      vertex -8 14.5 10
      vertex 0 17 3
      vertex -8 17 3
    endloop
  endfacet
  facet normal 0 0 1
    outer loop
      vertex -2.80918 10.5482 11.99
      vertex -2.26235 10.5857 11.99
      vertex -2.4975 10.8521 11.99
    endloop
  endfacet
  facet normal 0 0 1
    outer loop
      vertex -2.26235 10.5857 11.99
      vertex -2.55216 10.2796 11.99
      vertex -2.26235 9.94855 11.99
    endloop
  endfacet
  facet normal 0 0 1
    outer loop
      vertex -2.80918 10.5482 11.99
      vertex -2.4975 10.8521 11.99
      vertex -2.72795 11.0763 11.99
    endloop
  endfacet
  facet normal 0 0 1
    outer loop
      vertex -2.26235 10.5857 11.99
      vertex -2.80918 10.5482 11.99
      vertex -2.55216 10.2796 11.99
    endloop
  endfacet
  facet normal 0 0 1
    outer loop
      vertex -3.03339 10.7544 11.99
      vertex -2.72795 11.0763 11.99
      vertex -2.95371 11.2583 11.99
    endloop
  endfacet
  facet normal 0 0 1
    outer loop
      vertex -2.72795 11.0763 11.99
      vertex -3.03339 10.7544 11.99
      vertex -2.80918 10.5482 11.99
    endloop
  endfacet
  facet normal 0 0 1
    outer loop
      vertex -3.2248 10.898 11.99
      vertex -2.95371 11.2583 11.99
      vertex -3.17476 11.3981 11.99
    endloop
  endfacet
  facet normal 0 0 1
    outer loop
      vertex -2.95371 11.2583 11.99
      vertex -3.2248 10.898 11.99
      vertex -3.03339 10.7544 11.99
    endloop
  endfacet
  facet normal 0 0 1
    outer loop
      vertex -3.4123 10.9964 11.99
      vertex -3.17476 11.3981 11.99
      vertex -3.4021 11.502 11.99
    endloop
  endfacet
  facet normal 0 0 1
    outer loop
      vertex -3.17476 11.3981 11.99
      vertex -3.4123 10.9964 11.99
      vertex -3.2248 10.898 11.99
    endloop
  endfacet
  facet normal 0 0 1
    outer loop
      vertex -3.4021 11.502 11.99
      vertex -3.62479 11.0667 11.99
      vertex -3.4123 10.9964 11.99
    endloop
  endfacet
  facet normal 0 0 1
    outer loop
      vertex -3.64662 11.5762 11.99
      vertex -3.62479 11.0667 11.99
      vertex -3.4021 11.502 11.99
    endloop
  endfacet
  facet normal 0 0 1
    outer loop
      vertex -3.64662 11.5762 11.99
      vertex -3.86226 11.1089 11.99
      vertex -3.62479 11.0667 11.99
    endloop
  endfacet
  facet normal 0 0 1
    outer loop
      vertex -3.90836 11.6207 11.99
      vertex -3.86226 11.1089 11.99
      vertex -3.64662 11.5762 11.99
    endloop
  endfacet
  facet normal 0 0 1
    outer loop
      vertex -3.90836 11.6207 11.99
      vertex -4.12471 11.123 11.99
      vertex -3.86226 11.1089 11.99
    endloop
  endfacet
  facet normal 0 0 1
    outer loop
      vertex -4.18726 11.6356 11.99
      vertex -4.12471 11.123 11.99
      vertex -3.90836 11.6207 11.99
    endloop
  endfacet
  facet normal 0 0 1
    outer loop
      vertex -4.18726 11.6356 11.99
      vertex -4.50792 11.0976 11.99
      vertex -4.12471 11.123 11.99
    endloop
  endfacet
  facet normal -0 0 1
    outer loop
      vertex -4.60483 11.6048 11.99
      vertex -4.50792 11.0976 11.99
      vertex -4.18726 11.6356 11.99
    endloop
  endfacet
  facet normal 0 0 1
    outer loop
      vertex -4.60483 11.6048 11.99
      vertex -4.83254 11.0214 11.99
      vertex -4.50792 11.0976 11.99
    endloop
  endfacet
  facet normal -0 0 1
    outer loop
      vertex -4.98255 11.5122 11.99
      vertex -4.83254 11.0214 11.99
      vertex -4.60483 11.6048 11.99
    endloop
  endfacet
  facet normal -0 0 1
    outer loop
      vertex -5.32042 11.358 11.99
      vertex -4.83254 11.0214 11.99
      vertex -4.98255 11.5122 11.99
    endloop
  endfacet
  facet normal 0 0 1
    outer loop
      vertex -4.83254 11.0214 11.99
      vertex -5.32042 11.358 11.99
      vertex -5.09854 10.8945 11.99
    endloop
  endfacet
  facet normal -0 0 1
    outer loop
      vertex -5.61844 11.142 11.99
      vertex -5.09854 10.8945 11.99
      vertex -5.32042 11.358 11.99
    endloop
  endfacet
  facet normal 0 0 1
    outer loop
      vertex -5.09854 10.8945 11.99
      vertex -5.61844 11.142 11.99
      vertex -5.30596 10.7169 11.99
    endloop
  endfacet
  facet normal -0 0 1
    outer loop
      vertex -5.86177 10.8785 11.99
      vertex -5.30596 10.7169 11.99
      vertex -5.61844 11.142 11.99
    endloop
  endfacet
  facet normal 0 0 1
    outer loop
      vertex -5.30596 10.7169 11.99
      vertex -5.86177 10.8785 11.99
      vertex -5.46181 10.5104 11.99
    endloop
  endfacet
  facet normal -0 0 1
    outer loop
      vertex -6.03559 10.5813 11.99
      vertex -5.46181 10.5104 11.99
      vertex -5.86177 10.8785 11.99
    endloop
  endfacet
  facet normal 0 0 1
    outer loop
      vertex -5.46181 10.5104 11.99
      vertex -6.03559 10.5813 11.99
      vertex -5.57312 10.2968 11.99
    endloop
  endfacet
  facet normal 0 0 1
    outer loop
      vertex -5.57312 10.2968 11.99
      vertex -6.13988 10.2506 11.99
      vertex -5.63993 10.0762 11.99
    endloop
  endfacet
  facet normal 0 0 1
    outer loop
      vertex -6.13988 10.2506 11.99
      vertex -5.57312 10.2968 11.99
      vertex -6.03559 10.5813 11.99
    endloop
  endfacet
  facet normal 0 0 1
    outer loop
      vertex -0.821841 13.7388 11.99
      vertex -0.737475 13.5512 11.99
      vertex -0.758563 13.6607 11.99
    endloop
  endfacet
  facet normal 0 0 1
    outer loop
      vertex -0.737475 13.5512 11.99
      vertex -0.821841 13.7388 11.99
      vertex -0.92731 13.7857 11.99
    endloop
  endfacet
  facet normal 0 0 1
    outer loop
      vertex -0.92731 13.3051 11.99
      vertex -0.737475 13.5512 11.99
      vertex -0.92731 13.7857 11.99
    endloop
  endfacet
  facet normal 0 0 1
    outer loop
      vertex -0.737475 13.5512 11.99
      vertex -0.92731 13.3051 11.99
      vertex -0.758563 13.4364 11.99
    endloop
  endfacet
  facet normal 0 0 1
    outer loop
      vertex -0.758563 13.4364 11.99
      vertex -0.92731 13.3051 11.99
      vertex -0.821841 13.3543 11.99
    endloop
  endfacet
  facet normal 0 0 1
    outer loop
      vertex -1.07497 13.8013 11.99
      vertex -0.92731 13.3051 11.99
      vertex -0.92731 13.7857 11.99
    endloop
  endfacet
  facet normal 0 0 1
    outer loop
      vertex -1.07497 13.8013 11.99
      vertex -1.07497 13.2887 11.99
      vertex -0.92731 13.3051 11.99
    endloop
  endfacet
  facet normal 0 0 1
    outer loop
      vertex -1.07497 13.8013 11.99
      vertex -1.74988 13.2887 11.99
      vertex -1.07497 13.2887 11.99
    endloop
  endfacet
  facet normal 0 0 1
    outer loop
      vertex -2.26235 10.5857 11.99
      vertex -1.74988 13.2887 11.99
      vertex -2.26235 13.8013 11.99
    endloop
  endfacet
  facet normal -0 0 1
    outer loop
      vertex -2.26235 13.8013 11.99
      vertex -1.74988 13.2887 11.99
      vertex -1.07497 13.8013 11.99
    endloop
  endfacet
  facet normal 0 0 1
    outer loop
      vertex -0.921832 6.7001 11.99
      vertex -0.837466 6.51253 11.99
      vertex -0.858554 6.62195 11.99
    endloop
  endfacet
  facet normal 0 0 1
    outer loop
      vertex -0.837466 6.51253 11.99
      vertex -0.921832 6.7001 11.99
      vertex -1.0273 6.74699 11.99
    endloop
  endfacet
  facet normal 0 0 1
    outer loop
      vertex -1.0273 6.2664 11.99
      vertex -0.837466 6.51253 11.99
      vertex -1.0273 6.74699 11.99
    endloop
  endfacet
  facet normal 0 0 1
    outer loop
      vertex -0.837466 6.51253 11.99
      vertex -1.0273 6.2664 11.99
      vertex -0.858554 6.39766 11.99
    endloop
  endfacet
  facet normal 0 0 1
    outer loop
      vertex -0.858554 6.39766 11.99
      vertex -1.0273 6.2664 11.99
      vertex -0.921832 6.31563 11.99
    endloop
  endfacet
  facet normal 0 0 1
    outer loop
      vertex -1.17496 6.76263 11.99
      vertex -1.0273 6.2664 11.99
      vertex -1.0273 6.74699 11.99
    endloop
  endfacet
  facet normal 0 0 1
    outer loop
      vertex -1.17496 6.76263 11.99
      vertex -1.17496 6.25 11.99
      vertex -1.0273 6.2664 11.99
    endloop
  endfacet
  facet normal -0 0 1
    outer loop
      vertex -1.74988 6.76263 11.99
      vertex -1.17496 6.25 11.99
      vertex -1.17496 6.76263 11.99
    endloop
  endfacet
  facet normal 0 0 1
    outer loop
      vertex -2.26235 9.94855 11.99
      vertex -1.74988 13.2887 11.99
      vertex -2.26235 10.5857 11.99
    endloop
  endfacet
  facet normal 0 0 1
    outer loop
      vertex -1.74988 13.2887 11.99
      vertex -2.26235 9.94855 11.99
      vertex -1.74988 6.76263 11.99
    endloop
  endfacet
  facet normal 0 0 1
    outer loop
      vertex -2.26235 6.76263 11.99
      vertex -1.74988 6.76263 11.99
      vertex -2.26235 9.94855 11.99
    endloop
  endfacet
  facet normal 0 0 1
    outer loop
      vertex -2.82476 6.25 11.99
      vertex -1.74988 6.76263 11.99
      vertex -2.26235 6.76263 11.99
    endloop
  endfacet
  facet normal 0 0 1
    outer loop
      vertex -2.82476 6.25 11.99
      vertex -2.26235 6.76263 11.99
      vertex -2.82476 6.76263 11.99
    endloop
  endfacet
  facet normal 0 0 1
    outer loop
      vertex -1.74988 6.76263 11.99
      vertex -2.82476 6.25 11.99
      vertex -1.17496 6.25 11.99
    endloop
  endfacet
  facet normal -0 0 1
    outer loop
      vertex -2.97788 6.74699 11.99
      vertex -2.82476 6.25 11.99
      vertex -2.82476 6.76263 11.99
    endloop
  endfacet
  facet normal 0 0 1
    outer loop
      vertex -2.97788 6.74699 11.99
      vertex -2.97788 6.2664 11.99
      vertex -2.82476 6.25 11.99
    endloop
  endfacet
  facet normal 0 0 1
    outer loop
      vertex -3.17476 6.51253 11.99
      vertex -2.97788 6.74699 11.99
      vertex -3.08725 6.7001 11.99
    endloop
  endfacet
  facet normal 0 0 1
    outer loop
      vertex -2.97788 6.74699 11.99
      vertex -3.17476 6.51253 11.99
      vertex -2.97788 6.2664 11.99
    endloop
  endfacet
  facet normal 0 0 1
    outer loop
      vertex -3.17476 6.51253 11.99
      vertex -3.08725 6.7001 11.99
      vertex -3.15288 6.62195 11.99
    endloop
  endfacet
  facet normal 0 0 1
    outer loop
      vertex -2.97788 6.2664 11.99
      vertex -3.17476 6.51253 11.99
      vertex -3.08725 6.31563 11.99
    endloop
  endfacet
  facet normal 0 0 1
    outer loop
      vertex -3.08725 6.31563 11.99
      vertex -3.17476 6.51253 11.99
      vertex -3.15288 6.39766 11.99
    endloop
  endfacet
  facet normal 0 0 1
    outer loop
      vertex -4.84656 6.7001 11.99
      vertex -4.76218 6.51253 11.99
      vertex -4.78328 6.62195 11.99
    endloop
  endfacet
  facet normal 0 0 1
    outer loop
      vertex -4.76218 6.51253 11.99
      vertex -4.84656 6.7001 11.99
      vertex -4.95203 6.74699 11.99
    endloop
  endfacet
  facet normal 0 0 1
    outer loop
      vertex -4.95203 6.2664 11.99
      vertex -4.76218 6.51253 11.99
      vertex -4.95203 6.74699 11.99
    endloop
  endfacet
  facet normal 0 0 1
    outer loop
      vertex -4.76218 6.51253 11.99
      vertex -4.95203 6.2664 11.99
      vertex -4.78328 6.39766 11.99
    endloop
  endfacet
  facet normal 0 0 1
    outer loop
      vertex -4.78328 6.39766 11.99
      vertex -4.95203 6.2664 11.99
      vertex -4.84656 6.31563 11.99
    endloop
  endfacet
  facet normal 0 0 1
    outer loop
      vertex -5.09969 6.76263 11.99
      vertex -4.95203 6.2664 11.99
      vertex -4.95203 6.74699 11.99
    endloop
  endfacet
  facet normal 0 0 1
    outer loop
      vertex -5.09969 6.76263 11.99
      vertex -5.09969 6.25 11.99
      vertex -4.95203 6.2664 11.99
    endloop
  endfacet
  facet normal -0 0 1
    outer loop
      vertex -5.66219 6.76263 11.99
      vertex -5.09969 6.25 11.99
      vertex -5.09969 6.76263 11.99
    endloop
  endfacet
  facet normal 0 0 1
    outer loop
      vertex -6.17464 9.88635 11.99
      vertex -5.63993 10.0762 11.99
      vertex -6.13988 10.2506 11.99
    endloop
  endfacet
  facet normal 0 0 1
    outer loop
      vertex -5.63993 10.0762 11.99
      vertex -6.17464 9.88635 11.99
      vertex -5.66219 9.84856 11.99
    endloop
  endfacet
  facet normal 0 0 1
    outer loop
      vertex -6.17464 6.76263 11.99
      vertex -5.66219 9.84856 11.99
      vertex -6.17464 9.88635 11.99
    endloop
  endfacet
  facet normal 0 0 1
    outer loop
      vertex -5.66219 9.84856 11.99
      vertex -6.17464 6.76263 11.99
      vertex -5.66219 6.76263 11.99
    endloop
  endfacet
  facet normal -0 0 1
    outer loop
      vertex -6.17464 6.76263 11.99
      vertex -5.09969 6.25 11.99
      vertex -5.66219 6.76263 11.99
    endloop
  endfacet
  facet normal 0 0 1
    outer loop
      vertex -6.73705 6.25 11.99
      vertex -6.17464 6.76263 11.99
      vertex -6.73705 6.76263 11.99
    endloop
  endfacet
  facet normal 0 0 1
    outer loop
      vertex -6.17464 6.76263 11.99
      vertex -6.73705 6.25 11.99
      vertex -5.09969 6.25 11.99
    endloop
  endfacet
  facet normal -0 0 1
    outer loop
      vertex -6.89019 6.74699 11.99
      vertex -6.73705 6.25 11.99
      vertex -6.73705 6.76263 11.99
    endloop
  endfacet
  facet normal 0 0 1
    outer loop
      vertex -6.89019 6.74699 11.99
      vertex -6.89019 6.2664 11.99
      vertex -6.73705 6.25 11.99
    endloop
  endfacet
  facet normal 0 0 1
    outer loop
      vertex -7.08707 6.51253 11.99
      vertex -6.89019 6.74699 11.99
      vertex -6.99956 6.7001 11.99
    endloop
  endfacet
  facet normal 0 0 1
    outer loop
      vertex -6.89019 6.74699 11.99
      vertex -7.08707 6.51253 11.99
      vertex -6.89019 6.2664 11.99
    endloop
  endfacet
  facet normal 0 0 1
    outer loop
      vertex -7.08707 6.51253 11.99
      vertex -6.99956 6.7001 11.99
      vertex -7.06519 6.62195 11.99
    endloop
  endfacet
  facet normal 0 0 1
    outer loop
      vertex -6.89019 6.2664 11.99
      vertex -7.08707 6.51253 11.99
      vertex -6.99956 6.31563 11.99
    endloop
  endfacet
  facet normal 0 0 1
    outer loop
      vertex -6.99956 6.31563 11.99
      vertex -7.08707 6.51253 11.99
      vertex -7.06519 6.39766 11.99
    endloop
  endfacet
  facet normal -0.410458 -0.911879 0
    outer loop
      vertex -3.08725 6.31563 10
      vertex -2.97788 6.2664 11.99
      vertex -3.08725 6.31563 11.99
    endloop
  endfacet
  facet normal -0.410458 -0.911879 -0
    outer loop
      vertex -2.97788 6.2664 11.99
      vertex -3.08725 6.31563 10
      vertex -2.97788 6.2664 10
    endloop
  endfacet
  facet normal -0.780841 -0.62473 0
    outer loop
      vertex -3.08725 6.31563 10
      vertex -3.15288 6.39766 11.99
      vertex -3.15288 6.39766 10
    endloop
  endfacet
  facet normal -0.780841 -0.62473 0
    outer loop
      vertex -3.15288 6.39766 11.99
      vertex -3.08725 6.31563 10
      vertex -3.08725 6.31563 11.99
    endloop
  endfacet
  facet normal -0.982339 -0.187112 0
    outer loop
      vertex -3.15288 6.39766 10
      vertex -3.17476 6.51253 11.99
      vertex -3.17476 6.51253 10
    endloop
  endfacet
  facet normal -0.982339 -0.187112 0
    outer loop
      vertex -3.17476 6.51253 11.99
      vertex -3.15288 6.39766 10
      vertex -3.15288 6.39766 11.99
    endloop
  endfacet
  facet normal -0.980588 0.196082 0
    outer loop
      vertex -3.17476 6.51253 10
      vertex -3.15288 6.62195 11.99
      vertex -3.15288 6.62195 10
    endloop
  endfacet
  facet normal -0.980588 0.196082 0
    outer loop
      vertex -3.15288 6.62195 11.99
      vertex -3.17476 6.51253 10
      vertex -3.17476 6.51253 11.99
    endloop
  endfacet
  facet normal -0.765782 0.6431 0
    outer loop
      vertex -3.15288 6.62195 10
      vertex -3.08725 6.7001 11.99
      vertex -3.08725 6.7001 10
    endloop
  endfacet
  facet normal -0.765782 0.6431 0
    outer loop
      vertex -3.08725 6.7001 11.99
      vertex -3.15288 6.62195 10
      vertex -3.15288 6.62195 11.99
    endloop
  endfacet
  facet normal -0.394041 0.919093 0
    outer loop
      vertex -2.97788 6.74699 10
      vertex -3.08725 6.7001 11.99
      vertex -2.97788 6.74699 11.99
    endloop
  endfacet
  facet normal -0.394041 0.919093 0
    outer loop
      vertex -3.08725 6.7001 11.99
      vertex -2.97788 6.74699 10
      vertex -3.08725 6.7001 10
    endloop
  endfacet
  facet normal -0.101613 0.994824 0
    outer loop
      vertex -2.82476 6.76263 10
      vertex -2.97788 6.74699 11.99
      vertex -2.82476 6.76263 11.99
    endloop
  endfacet
  facet normal -0.101613 0.994824 0
    outer loop
      vertex -2.97788 6.74699 11.99
      vertex -2.82476 6.76263 10
      vertex -2.97788 6.74699 10
    endloop
  endfacet
  facet normal 0 1 -0
    outer loop
      vertex -2.26235 6.76263 10
      vertex -2.82476 6.76263 11.99
      vertex -2.26235 6.76263 11.99
    endloop
  endfacet
  facet normal 0 1 0
    outer loop
      vertex -2.82476 6.76263 11.99
      vertex -2.26235 6.76263 10
      vertex -2.82476 6.76263 10
    endloop
  endfacet
  facet normal -1 0 0
    outer loop
      vertex -2.26235 6.76263 10
      vertex -2.26235 9.94855 11.99
      vertex -2.26235 9.94855 10
    endloop
  endfacet
  facet normal -1 -0 0
    outer loop
      vertex -2.26235 9.94855 11.99
      vertex -2.26235 6.76263 10
      vertex -2.26235 6.76263 11.99
    endloop
  endfacet
  facet normal -0.752418 -0.658686 0
    outer loop
      vertex -2.26235 9.94855 10
      vertex -2.55216 10.2796 11.99
      vertex -2.55216 10.2796 10
    endloop
  endfacet
  facet normal -0.752418 -0.658686 0
    outer loop
      vertex -2.55216 10.2796 11.99
      vertex -2.26235 9.94855 10
      vertex -2.26235 9.94855 11.99
    endloop
  endfacet
  facet normal -0.72251 -0.691361 0
    outer loop
      vertex -2.55216 10.2796 10
      vertex -2.80918 10.5482 11.99
      vertex -2.80918 10.5482 10
    endloop
  endfacet
  facet normal -0.72251 -0.691361 0
    outer loop
      vertex -2.80918 10.5482 11.99
      vertex -2.55216 10.2796 10
      vertex -2.55216 10.2796 11.99
    endloop
  endfacet
  facet normal -0.676926 -0.736051 0
    outer loop
      vertex -3.03339 10.7544 10
      vertex -2.80918 10.5482 11.99
      vertex -3.03339 10.7544 11.99
    endloop
  endfacet
  facet normal -0.676926 -0.736051 -0
    outer loop
      vertex -2.80918 10.5482 11.99
      vertex -3.03339 10.7544 10
      vertex -2.80918 10.5482 10
    endloop
  endfacet
  facet normal -0.600114 -0.799915 0
    outer loop
      vertex -3.2248 10.898 10
      vertex -3.03339 10.7544 11.99
      vertex -3.2248 10.898 11.99
    endloop
  endfacet
  facet normal -0.600114 -0.799915 -0
    outer loop
      vertex -3.03339 10.7544 11.99
      vertex -3.2248 10.898 10
      vertex -3.03339 10.7544 10
    endloop
  endfacet
  facet normal -0.464695 -0.885471 0
    outer loop
      vertex -3.4123 10.9964 10
      vertex -3.2248 10.898 11.99
      vertex -3.4123 10.9964 11.99
    endloop
  endfacet
  facet normal -0.464695 -0.885471 -0
    outer loop
      vertex -3.2248 10.898 11.99
      vertex -3.4123 10.9964 10
      vertex -3.2248 10.898 10
    endloop
  endfacet
  facet normal -0.314096 -0.949391 0
    outer loop
      vertex -3.62479 11.0667 10
      vertex -3.4123 10.9964 11.99
      vertex -3.62479 11.0667 11.99
    endloop
  endfacet
  facet normal -0.314096 -0.949391 -0
    outer loop
      vertex -3.4123 10.9964 11.99
      vertex -3.62479 11.0667 10
      vertex -3.4123 10.9964 10
    endloop
  endfacet
  facet normal -0.174965 -0.984575 0
    outer loop
      vertex -3.86226 11.1089 10
      vertex -3.62479 11.0667 11.99
      vertex -3.86226 11.1089 11.99
    endloop
  endfacet
  facet normal -0.174965 -0.984575 -0
    outer loop
      vertex -3.62479 11.0667 11.99
      vertex -3.86226 11.1089 10
      vertex -3.62479 11.0667 10
    endloop
  endfacet
  facet normal -0.0536472 -0.99856 0
    outer loop
      vertex -4.12471 11.123 10
      vertex -3.86226 11.1089 11.99
      vertex -4.12471 11.123 11.99
    endloop
  endfacet
  facet normal -0.0536472 -0.99856 -0
    outer loop
      vertex -3.86226 11.1089 11.99
      vertex -4.12471 11.123 10
      vertex -3.86226 11.1089 10
    endloop
  endfacet
  facet normal 0.0661371 -0.997811 0
    outer loop
      vertex -4.50792 11.0976 10
      vertex -4.12471 11.123 11.99
      vertex -4.50792 11.0976 11.99
    endloop
  endfacet
  facet normal 0.0661371 -0.997811 0
    outer loop
      vertex -4.12471 11.123 11.99
      vertex -4.50792 11.0976 10
      vertex -4.12471 11.123 10
    endloop
  endfacet
  facet normal 0.228524 -0.973538 0
    outer loop
      vertex -4.83254 11.0214 10
      vertex -4.50792 11.0976 11.99
      vertex -4.83254 11.0214 11.99
    endloop
  endfacet
  facet normal 0.228524 -0.973538 0
    outer loop
      vertex -4.50792 11.0976 11.99
      vertex -4.83254 11.0214 10
      vertex -4.50792 11.0976 10
    endloop
  endfacet
  facet normal 0.430579 -0.902553 0
    outer loop
      vertex -5.09854 10.8945 10
      vertex -4.83254 11.0214 11.99
      vertex -5.09854 10.8945 11.99
    endloop
  endfacet
  facet normal 0.430579 -0.902553 0
    outer loop
      vertex -4.83254 11.0214 11.99
      vertex -5.09854 10.8945 10
      vertex -4.83254 11.0214 10
    endloop
  endfacet
  facet normal 0.650393 -0.759598 0
    outer loop
      vertex -5.30596 10.7169 10
      vertex -5.09854 10.8945 11.99
      vertex -5.30596 10.7169 11.99
    endloop
  endfacet
  facet normal 0.650393 -0.759598 0
    outer loop
      vertex -5.09854 10.8945 11.99
      vertex -5.30596 10.7169 10
      vertex -5.09854 10.8945 10
    endloop
  endfacet
  facet normal 0.798187 -0.602409 0
    outer loop
      vertex -5.46181 10.5104 11.99
      vertex -5.30596 10.7169 10
      vertex -5.30596 10.7169 11.99
    endloop
  endfacet
  facet normal 0.798187 -0.602409 0
    outer loop
      vertex -5.30596 10.7169 10
      vertex -5.46181 10.5104 11.99
      vertex -5.46181 10.5104 10
    endloop
  endfacet
  facet normal 0.886812 -0.46213 0
    outer loop
      vertex -5.57312 10.2968 11.99
      vertex -5.46181 10.5104 10
      vertex -5.46181 10.5104 11.99
    endloop
  endfacet
  facet normal 0.886812 -0.46213 0
    outer loop
      vertex -5.46181 10.5104 10
      vertex -5.57312 10.2968 11.99
      vertex -5.57312 10.2968 10
    endloop
  endfacet
  facet normal 0.957071 -0.289854 0
    outer loop
      vertex -5.63993 10.0762 11.99
      vertex -5.57312 10.2968 10
      vertex -5.57312 10.2968 11.99
    endloop
  endfacet
  facet normal 0.957071 -0.289854 0
    outer loop
      vertex -5.57312 10.2968 10
      vertex -5.63993 10.0762 11.99
      vertex -5.63993 10.0762 10
    endloop
  endfacet
  facet normal 0.995253 -0.0973218 0
    outer loop
      vertex -5.66219 9.84856 11.99
      vertex -5.63993 10.0762 10
      vertex -5.63993 10.0762 11.99
    endloop
  endfacet
  facet normal 0.995253 -0.0973218 0
    outer loop
      vertex -5.63993 10.0762 10
      vertex -5.66219 9.84856 11.99
      vertex -5.66219 9.84856 10
    endloop
  endfacet
  facet normal 1 -0 0
    outer loop
      vertex -5.66219 6.76263 11.99
      vertex -5.66219 9.84856 10
      vertex -5.66219 9.84856 11.99
    endloop
  endfacet
  facet normal 1 0 0
    outer loop
      vertex -5.66219 9.84856 10
      vertex -5.66219 6.76263 11.99
      vertex -5.66219 6.76263 10
    endloop
  endfacet
  facet normal 0 1 -0
    outer loop
      vertex -5.09969 6.76263 10
      vertex -5.66219 6.76263 11.99
      vertex -5.09969 6.76263 11.99
    endloop
  endfacet
  facet normal 0 1 0
    outer loop
      vertex -5.66219 6.76263 11.99
      vertex -5.09969 6.76263 10
      vertex -5.66219 6.76263 10
    endloop
  endfacet
  facet normal 0.10533 0.994437 -0
    outer loop
      vertex -4.95203 6.74699 10
      vertex -5.09969 6.76263 11.99
      vertex -4.95203 6.74699 11.99
    endloop
  endfacet
  facet normal 0.10533 0.994437 0
    outer loop
      vertex -5.09969 6.76263 11.99
      vertex -4.95203 6.74699 10
      vertex -5.09969 6.76263 10
    endloop
  endfacet
  facet normal 0.406243 0.913765 -0
    outer loop
      vertex -4.84656 6.7001 10
      vertex -4.95203 6.74699 11.99
      vertex -4.84656 6.7001 11.99
    endloop
  endfacet
  facet normal 0.406243 0.913765 0
    outer loop
      vertex -4.95203 6.74699 11.99
      vertex -4.84656 6.7001 10
      vertex -4.95203 6.74699 10
    endloop
  endfacet
  facet normal 0.777168 0.629293 0
    outer loop
      vertex -4.78328 6.62195 11.99
      vertex -4.84656 6.7001 10
      vertex -4.84656 6.7001 11.99
    endloop
  endfacet
  facet normal 0.777168 0.629293 0
    outer loop
      vertex -4.84656 6.7001 10
      vertex -4.78328 6.62195 11.99
      vertex -4.78328 6.62195 10
    endloop
  endfacet
  facet normal 0.98191 0.189347 0
    outer loop
      vertex -4.76218 6.51253 11.99
      vertex -4.78328 6.62195 10
      vertex -4.78328 6.62195 11.99
    endloop
  endfacet
  facet normal 0.98191 0.189347 0
    outer loop
      vertex -4.78328 6.62195 10
      vertex -4.76218 6.51253 11.99
      vertex -4.76218 6.51253 10
    endloop
  endfacet
  facet normal 0.983545 -0.180663 0
    outer loop
      vertex -4.78328 6.39766 11.99
      vertex -4.76218 6.51253 10
      vertex -4.76218 6.51253 11.99
    endloop
  endfacet
  facet normal 0.983545 -0.180663 0
    outer loop
      vertex -4.76218 6.51253 10
      vertex -4.78328 6.39766 11.99
      vertex -4.78328 6.39766 10
    endloop
  endfacet
  facet normal 0.791784 -0.610802 0
    outer loop
      vertex -4.84656 6.31563 11.99
      vertex -4.78328 6.39766 10
      vertex -4.78328 6.39766 11.99
    endloop
  endfacet
  facet normal 0.791784 -0.610802 0
    outer loop
      vertex -4.78328 6.39766 10
      vertex -4.84656 6.31563 11.99
      vertex -4.84656 6.31563 10
    endloop
  endfacet
  facet normal 0.422961 -0.906148 0
    outer loop
      vertex -4.95203 6.2664 10
      vertex -4.84656 6.31563 11.99
      vertex -4.95203 6.2664 11.99
    endloop
  endfacet
  facet normal 0.422961 -0.906148 0
    outer loop
      vertex -4.84656 6.31563 11.99
      vertex -4.95203 6.2664 10
      vertex -4.84656 6.31563 10
    endloop
  endfacet
  facet normal 0.110387 -0.993889 0
    outer loop
      vertex -5.09969 6.25 10
      vertex -4.95203 6.2664 11.99
      vertex -5.09969 6.25 11.99
    endloop
  endfacet
  facet normal 0.110387 -0.993889 0
    outer loop
      vertex -4.95203 6.2664 11.99
      vertex -5.09969 6.25 10
      vertex -4.95203 6.2664 10
    endloop
  endfacet
  facet normal 0 -1 0
    outer loop
      vertex -6.73705 6.25 10
      vertex -5.09969 6.25 11.99
      vertex -6.73705 6.25 11.99
    endloop
  endfacet
  facet normal 0 -1 -0
    outer loop
      vertex -5.09969 6.25 11.99
      vertex -6.73705 6.25 10
      vertex -5.09969 6.25 10
    endloop
  endfacet
  facet normal -0.106483 -0.994315 0
    outer loop
      vertex -6.89019 6.2664 10
      vertex -6.73705 6.25 11.99
      vertex -6.89019 6.2664 11.99
    endloop
  endfacet
  facet normal -0.106483 -0.994315 -0
    outer loop
      vertex -6.73705 6.25 11.99
      vertex -6.89019 6.2664 10
      vertex -6.73705 6.25 10
    endloop
  endfacet
  facet normal -0.410458 -0.911879 0
    outer loop
      vertex -6.99956 6.31563 10
      vertex -6.89019 6.2664 11.99
      vertex -6.99956 6.31563 11.99
    endloop
  endfacet
  facet normal -0.410458 -0.911879 -0
    outer loop
      vertex -6.89019 6.2664 11.99
      vertex -6.99956 6.31563 10
      vertex -6.89019 6.2664 10
    endloop
  endfacet
  facet normal -0.780841 -0.62473 0
    outer loop
      vertex -6.99956 6.31563 10
      vertex -7.06519 6.39766 11.99
      vertex -7.06519 6.39766 10
    endloop
  endfacet
  facet normal -0.780841 -0.62473 0
    outer loop
      vertex -7.06519 6.39766 11.99
      vertex -6.99956 6.31563 10
      vertex -6.99956 6.31563 11.99
    endloop
  endfacet
  facet normal -0.982339 -0.187112 0
    outer loop
      vertex -7.06519 6.39766 10
      vertex -7.08707 6.51253 11.99
      vertex -7.08707 6.51253 10
    endloop
  endfacet
  facet normal -0.982339 -0.187112 0
    outer loop
      vertex -7.08707 6.51253 11.99
      vertex -7.06519 6.39766 10
      vertex -7.06519 6.39766 11.99
    endloop
  endfacet
  facet normal -0.980588 0.196082 0
    outer loop
      vertex -7.08707 6.51253 10
      vertex -7.06519 6.62195 11.99
      vertex -7.06519 6.62195 10
    endloop
  endfacet
  facet normal -0.980588 0.196082 0
    outer loop
      vertex -7.06519 6.62195 11.99
      vertex -7.08707 6.51253 10
      vertex -7.08707 6.51253 11.99
    endloop
  endfacet
  facet normal -0.765782 0.6431 0
    outer loop
      vertex -7.06519 6.62195 10
      vertex -6.99956 6.7001 11.99
      vertex -6.99956 6.7001 10
    endloop
  endfacet
  facet normal -0.765782 0.6431 0
    outer loop
      vertex -6.99956 6.7001 11.99
      vertex -7.06519 6.62195 10
      vertex -7.06519 6.62195 11.99
    endloop
  endfacet
  facet normal -0.394041 0.919093 0
    outer loop
      vertex -6.89019 6.74699 10
      vertex -6.99956 6.7001 11.99
      vertex -6.89019 6.74699 11.99
    endloop
  endfacet
  facet normal -0.394041 0.919093 0
    outer loop
      vertex -6.99956 6.7001 11.99
      vertex -6.89019 6.74699 10
      vertex -6.99956 6.7001 10
    endloop
  endfacet
  facet normal -0.1016 0.994825 0
    outer loop
      vertex -6.73705 6.76263 10
      vertex -6.89019 6.74699 11.99
      vertex -6.73705 6.76263 11.99
    endloop
  endfacet
  facet normal -0.1016 0.994825 0
    outer loop
      vertex -6.89019 6.74699 11.99
      vertex -6.73705 6.76263 10
      vertex -6.89019 6.74699 10
    endloop
  endfacet
  facet normal 0 1 -0
    outer loop
      vertex -6.17464 6.76263 10
      vertex -6.73705 6.76263 11.99
      vertex -6.17464 6.76263 11.99
    endloop
  endfacet
  facet normal 0 1 0
    outer loop
      vertex -6.73705 6.76263 11.99
      vertex -6.17464 6.76263 10
      vertex -6.73705 6.76263 10
    endloop
  endfacet
  facet normal -1 0 0
    outer loop
      vertex -6.17464 6.76263 10
      vertex -6.17464 9.88635 11.99
      vertex -6.17464 9.88635 10
    endloop
  endfacet
  facet normal -1 -0 0
    outer loop
      vertex -6.17464 9.88635 11.99
      vertex -6.17464 6.76263 10
      vertex -6.17464 6.76263 11.99
    endloop
  endfacet
  facet normal -0.995478 0.0949974 0
    outer loop
      vertex -6.17464 9.88635 10
      vertex -6.13988 10.2506 11.99
      vertex -6.13988 10.2506 10
    endloop
  endfacet
  facet normal -0.995478 0.0949974 0
    outer loop
      vertex -6.13988 10.2506 11.99
      vertex -6.17464 9.88635 10
      vertex -6.17464 9.88635 11.99
    endloop
  endfacet
  facet normal -0.9537 0.30076 0
    outer loop
      vertex -6.13988 10.2506 10
      vertex -6.03559 10.5813 11.99
      vertex -6.03559 10.5813 10
    endloop
  endfacet
  facet normal -0.9537 0.30076 0
    outer loop
      vertex -6.03559 10.5813 11.99
      vertex -6.13988 10.2506 10
      vertex -6.13988 10.2506 11.99
    endloop
  endfacet
  facet normal -0.863205 0.504853 0
    outer loop
      vertex -6.03559 10.5813 10
      vertex -5.86177 10.8785 11.99
      vertex -5.86177 10.8785 10
    endloop
  endfacet
  facet normal -0.863205 0.504853 0
    outer loop
      vertex -5.86177 10.8785 11.99
      vertex -6.03559 10.5813 10
      vertex -6.03559 10.5813 11.99
    endloop
  endfacet
  facet normal -0.734666 0.678429 0
    outer loop
      vertex -5.86177 10.8785 10
      vertex -5.61844 11.142 11.99
      vertex -5.61844 11.142 10
    endloop
  endfacet
  facet normal -0.734666 0.678429 0
    outer loop
      vertex -5.61844 11.142 11.99
      vertex -5.86177 10.8785 10
      vertex -5.86177 10.8785 11.99
    endloop
  endfacet
  facet normal -0.586853 0.809694 0
    outer loop
      vertex -5.32042 11.358 10
      vertex -5.61844 11.142 11.99
      vertex -5.32042 11.358 11.99
    endloop
  endfacet
  facet normal -0.586853 0.809694 0
    outer loop
      vertex -5.61844 11.142 11.99
      vertex -5.32042 11.358 10
      vertex -5.61844 11.142 10
    endloop
  endfacet
  facet normal -0.415192 0.909734 0
    outer loop
      vertex -4.98255 11.5122 10
      vertex -5.32042 11.358 11.99
      vertex -4.98255 11.5122 11.99
    endloop
  endfacet
  facet normal -0.415192 0.909734 0
    outer loop
      vertex -5.32042 11.358 11.99
      vertex -4.98255 11.5122 10
      vertex -5.32042 11.358 10
    endloop
  endfacet
  facet normal -0.238104 0.97124 0
    outer loop
      vertex -4.60483 11.6048 10
      vertex -4.98255 11.5122 11.99
      vertex -4.60483 11.6048 11.99
    endloop
  endfacet
  facet normal -0.238104 0.97124 0
    outer loop
      vertex -4.98255 11.5122 11.99
      vertex -4.60483 11.6048 10
      vertex -4.98255 11.5122 10
    endloop
  endfacet
  facet normal -0.0735603 0.997291 0
    outer loop
      vertex -4.18726 11.6356 10
      vertex -4.60483 11.6048 11.99
      vertex -4.18726 11.6356 11.99
    endloop
  endfacet
  facet normal -0.0735603 0.997291 0
    outer loop
      vertex -4.60483 11.6048 11.99
      vertex -4.18726 11.6356 10
      vertex -4.60483 11.6048 10
    endloop
  endfacet
  facet normal 0.0533481 0.998576 -0
    outer loop
      vertex -3.90836 11.6207 10
      vertex -4.18726 11.6356 11.99
      vertex -3.90836 11.6207 11.99
    endloop
  endfacet
  facet normal 0.0533481 0.998576 0
    outer loop
      vertex -4.18726 11.6356 11.99
      vertex -3.90836 11.6207 10
      vertex -4.18726 11.6356 10
    endloop
  endfacet
  facet normal 0.167611 0.985853 -0
    outer loop
      vertex -3.64662 11.5762 10
      vertex -3.90836 11.6207 11.99
      vertex -3.64662 11.5762 11.99
    endloop
  endfacet
  facet normal 0.167611 0.985853 0
    outer loop
      vertex -3.90836 11.6207 11.99
      vertex -3.64662 11.5762 10
      vertex -3.90836 11.6207 10
    endloop
  endfacet
  facet normal 0.290377 0.956912 -0
    outer loop
      vertex -3.4021 11.502 10
      vertex -3.64662 11.5762 11.99
      vertex -3.4021 11.502 11.99
    endloop
  endfacet
  facet normal 0.290377 0.956912 0
    outer loop
      vertex -3.64662 11.5762 11.99
      vertex -3.4021 11.502 10
      vertex -3.64662 11.5762 10
    endloop
  endfacet
  facet normal 0.415671 0.909515 -0
    outer loop
      vertex -3.17476 11.3981 10
      vertex -3.4021 11.502 11.99
      vertex -3.17476 11.3981 11.99
    endloop
  endfacet
  facet normal 0.415671 0.909515 0
    outer loop
      vertex -3.4021 11.502 11.99
      vertex -3.17476 11.3981 10
      vertex -3.4021 11.502 10
    endloop
  endfacet
  facet normal 0.534511 0.845162 -0
    outer loop
      vertex -2.95371 11.2583 10
      vertex -3.17476 11.3981 11.99
      vertex -2.95371 11.2583 11.99
    endloop
  endfacet
  facet normal 0.534511 0.845162 0
    outer loop
      vertex -3.17476 11.3981 11.99
      vertex -2.95371 11.2583 10
      vertex -3.17476 11.3981 10
    endloop
  endfacet
  facet normal 0.627618 0.778522 -0
    outer loop
      vertex -2.72795 11.0763 10
      vertex -2.95371 11.2583 11.99
      vertex -2.72795 11.0763 11.99
    endloop
  endfacet
  facet normal 0.627618 0.778522 0
    outer loop
      vertex -2.95371 11.2583 11.99
      vertex -2.72795 11.0763 10
      vertex -2.95371 11.2583 10
    endloop
  endfacet
  facet normal 0.69732 0.71676 -0
    outer loop
      vertex -2.4975 10.8521 10
      vertex -2.72795 11.0763 11.99
      vertex -2.4975 10.8521 11.99
    endloop
  endfacet
  facet normal 0.69732 0.71676 0
    outer loop
      vertex -2.72795 11.0763 11.99
      vertex -2.4975 10.8521 10
      vertex -2.72795 11.0763 10
    endloop
  endfacet
  facet normal 0.749711 0.661766 0
    outer loop
      vertex -2.26235 10.5857 11.99
      vertex -2.4975 10.8521 10
      vertex -2.4975 10.8521 11.99
    endloop
  endfacet
  facet normal 0.749711 0.661766 0
    outer loop
      vertex -2.4975 10.8521 10
      vertex -2.26235 10.5857 11.99
      vertex -2.26235 10.5857 10
    endloop
  endfacet
  facet normal -1 0 0
    outer loop
      vertex -2.26235 10.5857 10
      vertex -2.26235 13.8013 11.99
      vertex -2.26235 13.8013 10
    endloop
  endfacet
  facet normal -1 -0 0
    outer loop
      vertex -2.26235 13.8013 11.99
      vertex -2.26235 10.5857 10
      vertex -2.26235 10.5857 11.99
    endloop
  endfacet
  facet normal 0 1 -0
    outer loop
      vertex -1.07497 13.8013 10
      vertex -2.26235 13.8013 11.99
      vertex -1.07497 13.8013 11.99
    endloop
  endfacet
  facet normal 0 1 0
    outer loop
      vertex -2.26235 13.8013 11.99
      vertex -1.07497 13.8013 10
      vertex -2.26235 13.8013 10
    endloop
  endfacet
  facet normal 0.105063 0.994466 -0
    outer loop
      vertex -0.92731 13.7857 10
      vertex -1.07497 13.8013 11.99
      vertex -0.92731 13.7857 11.99
    endloop
  endfacet
  facet normal 0.105063 0.994466 0
    outer loop
      vertex -1.07497 13.8013 11.99
      vertex -0.92731 13.7857 10
      vertex -1.07497 13.8013 10
    endloop
  endfacet
  facet normal 0.406319 0.913732 -0
    outer loop
      vertex -0.821841 13.7388 10
      vertex -0.92731 13.7857 11.99
      vertex -0.821841 13.7388 11.99
    endloop
  endfacet
  facet normal 0.406319 0.913732 0
    outer loop
      vertex -0.92731 13.7857 11.99
      vertex -0.821841 13.7388 10
      vertex -0.92731 13.7857 10
    endloop
  endfacet
  facet normal 0.776981 0.629524 0
    outer loop
      vertex -0.758563 13.6607 11.99
      vertex -0.821841 13.7388 10
      vertex -0.821841 13.7388 11.99
    endloop
  endfacet
  facet normal 0.776981 0.629524 0
    outer loop
      vertex -0.821841 13.7388 10
      vertex -0.758563 13.6607 11.99
      vertex -0.758563 13.6607 10
    endloop
  endfacet
  facet normal 0.981956 0.189109 0
    outer loop
      vertex -0.737475 13.5512 11.99
      vertex -0.758563 13.6607 10
      vertex -0.758563 13.6607 11.99
    endloop
  endfacet
  facet normal 0.981956 0.189109 0
    outer loop
      vertex -0.758563 13.6607 10
      vertex -0.737475 13.5512 11.99
      vertex -0.737475 13.5512 10
    endloop
  endfacet
  facet normal 0.983544 -0.18067 0
    outer loop
      vertex -0.758563 13.4364 11.99
      vertex -0.737475 13.5512 10
      vertex -0.737475 13.5512 11.99
    endloop
  endfacet
  facet normal 0.983544 -0.18067 0
    outer loop
      vertex -0.737475 13.5512 10
      vertex -0.758563 13.4364 11.99
      vertex -0.758563 13.4364 10
    endloop
  endfacet
  facet normal 0.792045 -0.610463 0
    outer loop
      vertex -0.821841 13.3543 11.99
      vertex -0.758563 13.4364 10
      vertex -0.758563 13.4364 11.99
    endloop
  endfacet
  facet normal 0.792045 -0.610463 0
    outer loop
      vertex -0.758563 13.4364 10
      vertex -0.821841 13.3543 11.99
      vertex -0.821841 13.3543 10
    endloop
  endfacet
  facet normal 0.422752 -0.906245 0
    outer loop
      vertex -0.92731 13.3051 10
      vertex -0.821841 13.3543 11.99
      vertex -0.92731 13.3051 11.99
    endloop
  endfacet
  facet normal 0.422752 -0.906245 0
    outer loop
      vertex -0.821841 13.3543 11.99
      vertex -0.92731 13.3051 10
      vertex -0.821841 13.3543 10
    endloop
  endfacet
  facet normal 0.110387 -0.993889 0
    outer loop
      vertex -1.07497 13.2887 10
      vertex -0.92731 13.3051 11.99
      vertex -1.07497 13.2887 11.99
    endloop
  endfacet
  facet normal 0.110387 -0.993889 0
    outer loop
      vertex -0.92731 13.3051 11.99
      vertex -1.07497 13.2887 10
      vertex -0.92731 13.3051 10
    endloop
  endfacet
  facet normal 0 -1 0
    outer loop
      vertex -1.74988 13.2887 10
      vertex -1.07497 13.2887 11.99
      vertex -1.74988 13.2887 11.99
    endloop
  endfacet
  facet normal 0 -1 -0
    outer loop
      vertex -1.07497 13.2887 11.99
      vertex -1.74988 13.2887 10
      vertex -1.07497 13.2887 10
    endloop
  endfacet
  facet normal 1 -0 0
    outer loop
      vertex -1.74988 6.76263 11.99
      vertex -1.74988 13.2887 10
      vertex -1.74988 13.2887 11.99
    endloop
  endfacet
  facet normal 1 0 0
    outer loop
      vertex -1.74988 13.2887 10
      vertex -1.74988 6.76263 11.99
      vertex -1.74988 6.76263 10
    endloop
  endfacet
  facet normal 0 1 -0
    outer loop
      vertex -1.17496 6.76263 10
      vertex -1.74988 6.76263 11.99
      vertex -1.17496 6.76263 11.99
    endloop
  endfacet
  facet normal 0 1 0
    outer loop
      vertex -1.74988 6.76263 11.99
      vertex -1.17496 6.76263 10
      vertex -1.74988 6.76263 10
    endloop
  endfacet
  facet normal 0.10533 0.994437 -0
    outer loop
      vertex -1.0273 6.74699 10
      vertex -1.17496 6.76263 11.99
      vertex -1.0273 6.74699 11.99
    endloop
  endfacet
  facet normal 0.10533 0.994437 0
    outer loop
      vertex -1.17496 6.76263 11.99
      vertex -1.0273 6.74699 10
      vertex -1.17496 6.76263 10
    endloop
  endfacet
  facet normal 0.406249 0.913762 -0
    outer loop
      vertex -0.921832 6.7001 10
      vertex -1.0273 6.74699 11.99
      vertex -0.921832 6.7001 11.99
    endloop
  endfacet
  facet normal 0.406249 0.913762 0
    outer loop
      vertex -1.0273 6.74699 11.99
      vertex -0.921832 6.7001 10
      vertex -1.0273 6.74699 10
    endloop
  endfacet
  facet normal 0.777178 0.629281 0
    outer loop
      vertex -0.858554 6.62195 11.99
      vertex -0.921832 6.7001 10
      vertex -0.921832 6.7001 11.99
    endloop
  endfacet
  facet normal 0.777178 0.629281 0
    outer loop
      vertex -0.921832 6.7001 10
      vertex -0.858554 6.62195 11.99
      vertex -0.858554 6.62195 10
    endloop
  endfacet
  facet normal 0.98193 0.189243 0
    outer loop
      vertex -0.837466 6.51253 11.99
      vertex -0.858554 6.62195 10
      vertex -0.858554 6.62195 11.99
    endloop
  endfacet
  facet normal 0.98193 0.189243 0
    outer loop
      vertex -0.858554 6.62195 10
      vertex -0.837466 6.51253 11.99
      vertex -0.837466 6.51253 10
    endloop
  endfacet
  facet normal 0.983563 -0.180564 0
    outer loop
      vertex -0.858554 6.39766 11.99
      vertex -0.837466 6.51253 10
      vertex -0.837466 6.51253 11.99
    endloop
  endfacet
  facet normal 0.983563 -0.180564 0
    outer loop
      vertex -0.837466 6.51253 10
      vertex -0.858554 6.39766 11.99
      vertex -0.858554 6.39766 10
    endloop
  endfacet
  facet normal 0.791793 -0.61079 0
    outer loop
      vertex -0.921832 6.31563 11.99
      vertex -0.858554 6.39766 10
      vertex -0.858554 6.39766 11.99
    endloop
  endfacet
  facet normal 0.791793 -0.61079 0
    outer loop
      vertex -0.858554 6.39766 10
      vertex -0.921832 6.31563 11.99
      vertex -0.921832 6.31563 10
    endloop
  endfacet
  facet normal 0.422967 -0.906145 0
    outer loop
      vertex -1.0273 6.2664 10
      vertex -0.921832 6.31563 11.99
      vertex -1.0273 6.2664 11.99
    endloop
  endfacet
  facet normal 0.422967 -0.906145 0
    outer loop
      vertex -0.921832 6.31563 11.99
      vertex -1.0273 6.2664 10
      vertex -0.921832 6.31563 10
    endloop
  endfacet
  facet normal 0.110387 -0.993889 0
    outer loop
      vertex -1.17496 6.25 10
      vertex -1.0273 6.2664 11.99
      vertex -1.17496 6.25 11.99
    endloop
  endfacet
  facet normal 0.110387 -0.993889 0
    outer loop
      vertex -1.0273 6.2664 11.99
      vertex -1.17496 6.25 10
      vertex -1.0273 6.2664 10
    endloop
  endfacet
  facet normal 0 -1 0
    outer loop
      vertex -2.82476 6.25 10
      vertex -1.17496 6.25 11.99
      vertex -2.82476 6.25 11.99
    endloop
  endfacet
  facet normal 0 -1 -0
    outer loop
      vertex -1.17496 6.25 11.99
      vertex -2.82476 6.25 10
      vertex -1.17496 6.25 10
    endloop
  endfacet
  facet normal -0.106496 -0.994313 0
    outer loop
      vertex -2.97788 6.2664 10
      vertex -2.82476 6.25 11.99
      vertex -2.97788 6.2664 11.99
    endloop
  endfacet
  facet normal -0.106496 -0.994313 -0
    outer loop
      vertex -2.82476 6.25 11.99
      vertex -2.97788 6.2664 10
      vertex -2.82476 6.25 10
    endloop
  endfacet
endsolid OpenSCAD_Model
