solid OpenSCAD_Model
  facet normal 0 0 1
    outer loop
      vertex 0 14.5 10
      vertex -1.14992 6.51253 10
      vertex 0 2.5 10
    endloop
  endfacet
  facet normal 0 0 1
    outer loop
      vertex 0 14.5 10
      vertex -1.17102 6.62195 10
      vertex -1.14992 6.51253 10
    endloop
  endfacet
  facet normal -0 0 1
    outer loop
      vertex -1.69598 11.0978 10
      vertex -1.17102 6.62195 10
      vertex 0 14.5 10
    endloop
  endfacet
  facet normal 0 0 1
    outer loop
      vertex -1.17102 6.62195 10
      vertex -1.69598 11.0978 10
      vertex -1.2343 6.7001 10
    endloop
  endfacet
  facet normal -0 0 1
    outer loop
      vertex -1.75926 11.0158 10
      vertex -1.2343 6.7001 10
      vertex -1.69598 11.0978 10
    endloop
  endfacet
  facet normal 0 0 1
    outer loop
      vertex -1.69598 11.0978 10
      vertex 0 14.5 10
      vertex -1.6749 11.2127 10
    endloop
  endfacet
  facet normal 0 0 1
    outer loop
      vertex 0 14.5 10
      vertex -1.69598 11.3221 10
      vertex -1.6749 11.2127 10
    endloop
  endfacet
  facet normal 0 0 1
    outer loop
      vertex 0 14.5 10
      vertex -1.75926 11.4003 10
      vertex -1.69598 11.3221 10
    endloop
  endfacet
  facet normal 0 0 1
    outer loop
      vertex 0 14.5 10
      vertex -1.86473 11.4472 10
      vertex -1.75926 11.4003 10
    endloop
  endfacet
  facet normal -0 0 1
    outer loop
      vertex -3.23729 12.7473 10
      vertex -1.86473 11.4472 10
      vertex 0 14.5 10
    endloop
  endfacet
  facet normal 0 0 1
    outer loop
      vertex -3.23729 12.7473 10
      vertex 0 14.5 10
      vertex -3.23729 14.049 10
    endloop
  endfacet
  facet normal 0 0 1
    outer loop
      vertex 0 14.5 10
      vertex -3.97475 14.049 10
      vertex -3.23729 14.049 10
    endloop
  endfacet
  facet normal 0 0 1
    outer loop
      vertex -7.5 14.5 10
      vertex -3.97475 12.7473 10
      vertex -3.97475 14.049 10
    endloop
  endfacet
  facet normal 0 0 1
    outer loop
      vertex -3.99977 11.4628 10
      vertex -5.99957 6.76263 10
      vertex -3.99977 6.76263 10
    endloop
  endfacet
  facet normal 0 0 1
    outer loop
      vertex -3.97475 12.7473 10
      vertex -7.5 14.5 10
      vertex -3.99977 11.4628 10
    endloop
  endfacet
  facet normal 0 -0 1
    outer loop
      vertex -6.26208 6.7001 10
      vertex -3.99977 11.4628 10
      vertex -7.5 14.5 10
    endloop
  endfacet
  facet normal 0 0 1
    outer loop
      vertex -3.99977 11.4628 10
      vertex -6.15269 6.74699 10
      vertex -5.99957 6.76263 10
    endloop
  endfacet
  facet normal 0 0 1
    outer loop
      vertex -3.99977 11.4628 10
      vertex -6.26208 6.7001 10
      vertex -6.15269 6.74699 10
    endloop
  endfacet
  facet normal -0 0 1
    outer loop
      vertex -7.5 14.5 10
      vertex -3.97475 14.049 10
      vertex 0 14.5 10
    endloop
  endfacet
  facet normal 0 0 1
    outer loop
      vertex -6.26208 6.7001 10
      vertex -7.5 14.5 10
      vertex -6.32771 6.62195 10
    endloop
  endfacet
  facet normal 0 0 1
    outer loop
      vertex -7.5 3.5 10
      vertex -6.32771 6.62195 10
      vertex -7.5 14.5 10
    endloop
  endfacet
  facet normal 0 0 1
    outer loop
      vertex -6.32771 6.62195 10
      vertex -7.5 3.5 10
      vertex -6.34958 6.51253 10
    endloop
  endfacet
  facet normal 0 0 1
    outer loop
      vertex -6.34958 6.51253 10
      vertex -7.5 3.5 10
      vertex -6.51 3.5 10
    endloop
  endfacet
  facet normal -0 0 1
    outer loop
      vertex -1.17102 6.39766 10
      vertex 0 2.5 10
      vertex -1.14992 6.51253 10
    endloop
  endfacet
  facet normal -0 0 1
    outer loop
      vertex -1.2343 6.31563 10
      vertex 0 2.5 10
      vertex -1.17102 6.39766 10
    endloop
  endfacet
  facet normal -0 0 1
    outer loop
      vertex -1.33977 6.2664 10
      vertex 0 2.5 10
      vertex -1.2343 6.31563 10
    endloop
  endfacet
  facet normal -0 0 1
    outer loop
      vertex -1.48743 6.25 10
      vertex 0 2.5 10
      vertex -1.33977 6.2664 10
    endloop
  endfacet
  facet normal 0 0 1
    outer loop
      vertex -6.51 3.5 10
      vertex -1.48743 6.25 10
      vertex -5.99957 6.25 10
    endloop
  endfacet
  facet normal 0 0 1
    outer loop
      vertex -6.51 3.5 10
      vertex -5.99957 6.25 10
      vertex -6.15269 6.2664 10
    endloop
  endfacet
  facet normal 0 0 1
    outer loop
      vertex -6.51 3.5 10
      vertex -6.15269 6.2664 10
      vertex -6.26208 6.31563 10
    endloop
  endfacet
  facet normal 0 0 1
    outer loop
      vertex -6.51 3.5 10
      vertex -6.32771 6.39766 10
      vertex -6.34958 6.51253 10
    endloop
  endfacet
  facet normal 0 0 1
    outer loop
      vertex -6.51 3.5 10
      vertex -6.26208 6.31563 10
      vertex -6.32771 6.39766 10
    endloop
  endfacet
  facet normal 0 0 1
    outer loop
      vertex -1.48743 6.25 10
      vertex -6.51 3.5 10
      vertex 0 2.5 10
    endloop
  endfacet
  facet normal 0 0 1
    outer loop
      vertex 0 2.5 10
      vertex -6.51 3.5 10
      vertex -6.51 2.5 10
    endloop
  endfacet
  facet normal 0 0 1
    outer loop
      vertex -1.2343 6.7001 10
      vertex -1.75926 11.0158 10
      vertex -1.33977 6.74699 10
    endloop
  endfacet
  facet normal -0 0 1
    outer loop
      vertex -1.86473 10.9666 10
      vertex -1.33977 6.74699 10
      vertex -1.75926 11.0158 10
    endloop
  endfacet
  facet normal 0 0 1
    outer loop
      vertex -1.33977 6.74699 10
      vertex -1.86473 10.9666 10
      vertex -1.48743 6.76263 10
    endloop
  endfacet
  facet normal -0 0 1
    outer loop
      vertex -2.01239 10.9501 10
      vertex -1.48743 6.76263 10
      vertex -1.86473 10.9666 10
    endloop
  endfacet
  facet normal 0 0 1
    outer loop
      vertex -3.48732 6.76263 10
      vertex -2.01239 10.9501 10
      vertex -3.48732 10.9501 10
    endloop
  endfacet
  facet normal 0 0 1
    outer loop
      vertex -2.01239 10.9501 10
      vertex -3.48732 6.76263 10
      vertex -1.48743 6.76263 10
    endloop
  endfacet
  facet normal 0 0 1
    outer loop
      vertex -1.86473 11.4472 10
      vertex -3.23729 12.7473 10
      vertex -2.01239 11.4628 10
    endloop
  endfacet
  facet normal 0 0 1
    outer loop
      vertex -3.99977 11.4628 10
      vertex -3.23729 12.7473 10
      vertex -3.97475 12.7473 10
    endloop
  endfacet
  facet normal 0 0 1
    outer loop
      vertex -3.23729 12.7473 10
      vertex -3.99977 11.4628 10
      vertex -2.01239 11.4628 10
    endloop
  endfacet
  facet normal -1 0 0
    outer loop
      vertex -7.5 0 3
      vertex -7.5 17 3
      vertex -7.5 17 0
    endloop
  endfacet
  facet normal -1 0 0
    outer loop
      vertex -7.5 17 3
      vertex -7.5 3.5 9.01
      vertex -7.5 14.5 10
    endloop
  endfacet
  facet normal -1 0 0
    outer loop
      vertex -7.5 17 3
      vertex -7.5 0 3
      vertex -7.5 3.5 9.01
    endloop
  endfacet
  facet normal -1 0 0
    outer loop
      vertex -7.5 0 3
      vertex -7.5 17 0
      vertex -7.5 0 0
    endloop
  endfacet
  facet normal -1 -0 0
    outer loop
      vertex -7.5 3.5 9.01
      vertex -7.5 0 3
      vertex -7.5 2.14643 9.01
    endloop
  endfacet
  facet normal -1 -0 0
    outer loop
      vertex -7.5 14.5 10
      vertex -7.5 3.5 9.01
      vertex -7.5 3.5 10
    endloop
  endfacet
  facet normal 0 1 -0
    outer loop
      vertex 0 17 0
      vertex -7.5 17 3
      vertex 0 17 3
    endloop
  endfacet
  facet normal 0 1 0
    outer loop
      vertex -7.5 17 3
      vertex 0 17 0
      vertex -7.5 17 0
    endloop
  endfacet
  facet normal 0 0 -1
    outer loop
      vertex -7.5 0 0
      vertex 0 17 0
      vertex 0 0 0
    endloop
  endfacet
  facet normal -0 0 -1
    outer loop
      vertex 0 17 0
      vertex -7.5 0 0
      vertex -7.5 17 0
    endloop
  endfacet
  facet normal 1 0 0
    outer loop
      vertex 0 0 3
      vertex 0 17 3
      vertex 0 14.5 10
    endloop
  endfacet
  facet normal 1 0 0
    outer loop
      vertex 0 0 3
      vertex 0 14.5 10
      vertex 0 2.5 10
    endloop
  endfacet
  facet normal 1 0 0
    outer loop
      vertex 0 17 3
      vertex 0 0 3
      vertex 0 17 0
    endloop
  endfacet
  facet normal 1 0 0
    outer loop
      vertex 0 17 0
      vertex 0 0 3
      vertex 0 0 0
    endloop
  endfacet
  facet normal 0 -0.941742 0.336337
    outer loop
      vertex -7.5 2.14643 9.01
      vertex -7.5 0 3
      vertex -6.51 2.14643 9.01
    endloop
  endfacet
  facet normal 0 -0.941742 0.336335
    outer loop
      vertex -6.51 2.14643 9.01
      vertex 0 2.5 10
      vertex -6.51 2.5 10
    endloop
  endfacet
  facet normal 0 -0.941742 0.336337
    outer loop
      vertex 0 0 3
      vertex -6.51 2.14643 9.01
      vertex -7.5 0 3
    endloop
  endfacet
  facet normal -2.06658e-07 -0.941742 0.336336
    outer loop
      vertex -6.51 2.14643 9.01
      vertex 0 0 3
      vertex 0 2.5 10
    endloop
  endfacet
  facet normal 0 -1 0
    outer loop
      vertex -7.5 0 0
      vertex 0 0 3
      vertex -7.5 0 3
    endloop
  endfacet
  facet normal 0 -1 -0
    outer loop
      vertex 0 0 3
      vertex -7.5 0 0
      vertex 0 0 0
    endloop
  endfacet
  facet normal 0 0.941742 0.336336
    outer loop
      vertex 0 17 3
      vertex -7.5 14.5 10
      vertex 0 14.5 10
    endloop
  endfacet
  facet normal 0 0.941742 0.336336
    outer loop
      vertex -7.5 14.5 10
      vertex 0 17 3
      vertex -7.5 17 3
    endloop
  endfacet
  facet normal -0 0 1
    outer loop
      vertex -7.5 3.5 9.01
      vertex -6.51 2.14643 9.01
      vertex -6.51 3.5 9.01
    endloop
  endfacet
  facet normal 0 0 1
    outer loop
      vertex -6.51 2.14643 9.01
      vertex -7.5 3.5 9.01
      vertex -7.5 2.14643 9.01
    endloop
  endfacet
  facet normal -1 0 0
    outer loop
      vertex -6.51 3.5 9.01
      vertex -6.51 2.5 10
      vertex -6.51 3.5 10
    endloop
  endfacet
  facet normal -1 0 -0
    outer loop
      vertex -6.51 2.5 10
      vertex -6.51 3.5 9.01
      vertex -6.51 2.14643 9.01
    endloop
  endfacet
  facet normal 0 -1 0
    outer loop
      vertex -7.5 3.5 9.01
      vertex -6.51 3.5 10
      vertex -7.5 3.5 10
    endloop
  endfacet
  facet normal 0 -1 -0
    outer loop
      vertex -6.51 3.5 10
      vertex -7.5 3.5 9.01
      vertex -6.51 3.5 9.01
    endloop
  endfacet
  facet normal -0 0 1
    outer loop
      vertex -3.97475 14.049 11.99
      vertex -3.23729 12.7473 11.99
      vertex -3.23729 14.049 11.99
    endloop
  endfacet
  facet normal 0 0 1
    outer loop
      vertex -3.23729 12.7473 11.99
      vertex -3.97475 14.049 11.99
      vertex -3.97475 12.7473 11.99
    endloop
  endfacet
  facet normal 0 0 1
    outer loop
      vertex -1.75926 11.4003 11.99
      vertex -1.6749 11.2127 11.99
      vertex -1.69598 11.3221 11.99
    endloop
  endfacet
  facet normal 0 0 1
    outer loop
      vertex -1.6749 11.2127 11.99
      vertex -1.75926 11.4003 11.99
      vertex -1.86473 11.4472 11.99
    endloop
  endfacet
  facet normal 0 0 1
    outer loop
      vertex -1.86473 10.9666 11.99
      vertex -1.6749 11.2127 11.99
      vertex -1.86473 11.4472 11.99
    endloop
  endfacet
  facet normal 0 0 1
    outer loop
      vertex -1.6749 11.2127 11.99
      vertex -1.86473 10.9666 11.99
      vertex -1.69598 11.0978 11.99
    endloop
  endfacet
  facet normal 0 0 1
    outer loop
      vertex -1.69598 11.0978 11.99
      vertex -1.86473 10.9666 11.99
      vertex -1.75926 11.0158 11.99
    endloop
  endfacet
  facet normal 0 0 1
    outer loop
      vertex -2.01239 11.4628 11.99
      vertex -1.86473 10.9666 11.99
      vertex -1.86473 11.4472 11.99
    endloop
  endfacet
  facet normal 0 0 1
    outer loop
      vertex -2.01239 11.4628 11.99
      vertex -2.01239 10.9501 11.99
      vertex -1.86473 10.9666 11.99
    endloop
  endfacet
  facet normal 0 0 1
    outer loop
      vertex -2.01239 11.4628 11.99
      vertex -3.48732 10.9501 11.99
      vertex -2.01239 10.9501 11.99
    endloop
  endfacet
  facet normal 0 0 1
    outer loop
      vertex -3.99977 6.76263 11.99
      vertex -3.48732 10.9501 11.99
      vertex -3.99977 11.4628 11.99
    endloop
  endfacet
  facet normal -0 0 1
    outer loop
      vertex -3.99977 11.4628 11.99
      vertex -3.48732 10.9501 11.99
      vertex -2.01239 11.4628 11.99
    endloop
  endfacet
  facet normal 0 0 1
    outer loop
      vertex -1.2343 6.7001 11.99
      vertex -1.14992 6.51253 11.99
      vertex -1.17102 6.62195 11.99
    endloop
  endfacet
  facet normal 0 0 1
    outer loop
      vertex -1.14992 6.51253 11.99
      vertex -1.2343 6.7001 11.99
      vertex -1.33977 6.74699 11.99
    endloop
  endfacet
  facet normal 0 0 1
    outer loop
      vertex -1.33977 6.2664 11.99
      vertex -1.14992 6.51253 11.99
      vertex -1.33977 6.74699 11.99
    endloop
  endfacet
  facet normal 0 0 1
    outer loop
      vertex -1.14992 6.51253 11.99
      vertex -1.33977 6.2664 11.99
      vertex -1.17102 6.39766 11.99
    endloop
  endfacet
  facet normal 0 0 1
    outer loop
      vertex -1.17102 6.39766 11.99
      vertex -1.33977 6.2664 11.99
      vertex -1.2343 6.31563 11.99
    endloop
  endfacet
  facet normal 0 0 1
    outer loop
      vertex -1.48743 6.76263 11.99
      vertex -1.33977 6.2664 11.99
      vertex -1.33977 6.74699 11.99
    endloop
  endfacet
  facet normal 0 0 1
    outer loop
      vertex -1.48743 6.76263 11.99
      vertex -1.48743 6.25 11.99
      vertex -1.33977 6.2664 11.99
    endloop
  endfacet
  facet normal -0 0 1
    outer loop
      vertex -3.48732 6.76263 11.99
      vertex -1.48743 6.25 11.99
      vertex -1.48743 6.76263 11.99
    endloop
  endfacet
  facet normal 0 0 1
    outer loop
      vertex -3.48732 10.9501 11.99
      vertex -3.99977 6.76263 11.99
      vertex -3.48732 6.76263 11.99
    endloop
  endfacet
  facet normal -0 0 1
    outer loop
      vertex -3.99977 6.76263 11.99
      vertex -1.48743 6.25 11.99
      vertex -3.48732 6.76263 11.99
    endloop
  endfacet
  facet normal 0 0 1
    outer loop
      vertex -5.99957 6.25 11.99
      vertex -3.99977 6.76263 11.99
      vertex -5.99957 6.76263 11.99
    endloop
  endfacet
  facet normal 0 0 1
    outer loop
      vertex -3.99977 6.76263 11.99
      vertex -5.99957 6.25 11.99
      vertex -1.48743 6.25 11.99
    endloop
  endfacet
  facet normal -0 0 1
    outer loop
      vertex -6.15269 6.74699 11.99
      vertex -5.99957 6.25 11.99
      vertex -5.99957 6.76263 11.99
    endloop
  endfacet
  facet normal 0 0 1
    outer loop
      vertex -6.15269 6.74699 11.99
      vertex -6.15269 6.2664 11.99
      vertex -5.99957 6.25 11.99
    endloop
  endfacet
  facet normal 0 0 1
    outer loop
      vertex -6.34958 6.51253 11.99
      vertex -6.15269 6.74699 11.99
      vertex -6.26208 6.7001 11.99
    endloop
  endfacet
  facet normal 0 0 1
    outer loop
      vertex -6.15269 6.74699 11.99
      vertex -6.34958 6.51253 11.99
      vertex -6.15269 6.2664 11.99
    endloop
  endfacet
  facet normal 0 0 1
    outer loop
      vertex -6.34958 6.51253 11.99
      vertex -6.26208 6.7001 11.99
      vertex -6.32771 6.62195 11.99
    endloop
  endfacet
  facet normal 0 0 1
    outer loop
      vertex -6.15269 6.2664 11.99
      vertex -6.34958 6.51253 11.99
      vertex -6.26208 6.31563 11.99
    endloop
  endfacet
  facet normal 0 0 1
    outer loop
      vertex -6.26208 6.31563 11.99
      vertex -6.34958 6.51253 11.99
      vertex -6.32771 6.39766 11.99
    endloop
  endfacet
  facet normal 0 1 -0
    outer loop
      vertex -3.23729 14.049 10
      vertex -3.97475 14.049 11.99
      vertex -3.23729 14.049 11.99
    endloop
  endfacet
  facet normal 0 1 0
    outer loop
      vertex -3.97475 14.049 11.99
      vertex -3.23729 14.049 10
      vertex -3.97475 14.049 10
    endloop
  endfacet
  facet normal 1 -0 0
    outer loop
      vertex -3.23729 12.7473 11.99
      vertex -3.23729 14.049 10
      vertex -3.23729 14.049 11.99
    endloop
  endfacet
  facet normal 1 0 0
    outer loop
      vertex -3.23729 14.049 10
      vertex -3.23729 12.7473 11.99
      vertex -3.23729 12.7473 10
    endloop
  endfacet
  facet normal 0 -1 0
    outer loop
      vertex -3.97475 12.7473 10
      vertex -3.23729 12.7473 11.99
      vertex -3.97475 12.7473 11.99
    endloop
  endfacet
  facet normal 0 -1 -0
    outer loop
      vertex -3.23729 12.7473 11.99
      vertex -3.97475 12.7473 10
      vertex -3.23729 12.7473 10
    endloop
  endfacet
  facet normal -1 0 0
    outer loop
      vertex -3.97475 12.7473 10
      vertex -3.97475 14.049 11.99
      vertex -3.97475 14.049 10
    endloop
  endfacet
  facet normal -1 -0 0
    outer loop
      vertex -3.97475 14.049 11.99
      vertex -3.97475 12.7473 10
      vertex -3.97475 12.7473 11.99
    endloop
  endfacet
  facet normal -0.410396 -0.911907 0
    outer loop
      vertex -6.26208 6.31563 10
      vertex -6.15269 6.2664 11.99
      vertex -6.26208 6.31563 11.99
    endloop
  endfacet
  facet normal -0.410396 -0.911907 -0
    outer loop
      vertex -6.15269 6.2664 11.99
      vertex -6.26208 6.31563 10
      vertex -6.15269 6.2664 10
    endloop
  endfacet
  facet normal -0.780841 -0.62473 0
    outer loop
      vertex -6.26208 6.31563 10
      vertex -6.32771 6.39766 11.99
      vertex -6.32771 6.39766 10
    endloop
  endfacet
  facet normal -0.780841 -0.62473 0
    outer loop
      vertex -6.32771 6.39766 11.99
      vertex -6.26208 6.31563 10
      vertex -6.26208 6.31563 11.99
    endloop
  endfacet
  facet normal -0.982354 -0.18703 0
    outer loop
      vertex -6.32771 6.39766 10
      vertex -6.34958 6.51253 11.99
      vertex -6.34958 6.51253 10
    endloop
  endfacet
  facet normal -0.982354 -0.18703 0
    outer loop
      vertex -6.34958 6.51253 11.99
      vertex -6.32771 6.39766 10
      vertex -6.32771 6.39766 11.99
    endloop
  endfacet
  facet normal -0.980605 0.195995 0
    outer loop
      vertex -6.34958 6.51253 10
      vertex -6.32771 6.62195 11.99
      vertex -6.32771 6.62195 10
    endloop
  endfacet
  facet normal -0.980605 0.195995 0
    outer loop
      vertex -6.32771 6.62195 11.99
      vertex -6.34958 6.51253 10
      vertex -6.34958 6.51253 11.99
    endloop
  endfacet
  facet normal -0.765782 0.6431 0
    outer loop
      vertex -6.32771 6.62195 10
      vertex -6.26208 6.7001 11.99
      vertex -6.26208 6.7001 10
    endloop
  endfacet
  facet normal -0.765782 0.6431 0
    outer loop
      vertex -6.26208 6.7001 11.99
      vertex -6.32771 6.62195 10
      vertex -6.32771 6.62195 11.99
    endloop
  endfacet
  facet normal -0.39398 0.919119 0
    outer loop
      vertex -6.15269 6.74699 10
      vertex -6.26208 6.7001 11.99
      vertex -6.15269 6.74699 11.99
    endloop
  endfacet
  facet normal -0.39398 0.919119 0
    outer loop
      vertex -6.26208 6.7001 11.99
      vertex -6.15269 6.74699 10
      vertex -6.26208 6.7001 10
    endloop
  endfacet
  facet normal -0.101613 0.994824 0
    outer loop
      vertex -5.99957 6.76263 10
      vertex -6.15269 6.74699 11.99
      vertex -5.99957 6.76263 11.99
    endloop
  endfacet
  facet normal -0.101613 0.994824 0
    outer loop
      vertex -6.15269 6.74699 11.99
      vertex -5.99957 6.76263 10
      vertex -6.15269 6.74699 10
    endloop
  endfacet
  facet normal 0 1 -0
    outer loop
      vertex -3.99977 6.76263 10
      vertex -5.99957 6.76263 11.99
      vertex -3.99977 6.76263 11.99
    endloop
  endfacet
  facet normal 0 1 0
    outer loop
      vertex -5.99957 6.76263 11.99
      vertex -3.99977 6.76263 10
      vertex -5.99957 6.76263 10
    endloop
  endfacet
  facet normal -1 0 0
    outer loop
      vertex -3.99977 6.76263 10
      vertex -3.99977 11.4628 11.99
      vertex -3.99977 11.4628 10
    endloop
  endfacet
  facet normal -1 -0 0
    outer loop
      vertex -3.99977 11.4628 11.99
      vertex -3.99977 6.76263 10
      vertex -3.99977 6.76263 11.99
    endloop
  endfacet
  facet normal 0 1 -0
    outer loop
      vertex -2.01239 11.4628 10
      vertex -3.99977 11.4628 11.99
      vertex -2.01239 11.4628 11.99
    endloop
  endfacet
  facet normal 0 1 0
    outer loop
      vertex -3.99977 11.4628 11.99
      vertex -2.01239 11.4628 10
      vertex -3.99977 11.4628 10
    endloop
  endfacet
  facet normal 0.105063 0.994466 -0
    outer loop
      vertex -1.86473 11.4472 10
      vertex -2.01239 11.4628 11.99
      vertex -1.86473 11.4472 11.99
    endloop
  endfacet
  facet normal 0.105063 0.994466 0
    outer loop
      vertex -2.01239 11.4628 11.99
      vertex -1.86473 11.4472 10
      vertex -2.01239 11.4628 10
    endloop
  endfacet
  facet normal 0.406315 0.913733 -0
    outer loop
      vertex -1.75926 11.4003 10
      vertex -1.86473 11.4472 11.99
      vertex -1.75926 11.4003 11.99
    endloop
  endfacet
  facet normal 0.406315 0.913733 0
    outer loop
      vertex -1.86473 11.4472 11.99
      vertex -1.75926 11.4003 10
      vertex -1.86473 11.4472 10
    endloop
  endfacet
  facet normal 0.777365 0.62905 0
    outer loop
      vertex -1.69598 11.3221 11.99
      vertex -1.75926 11.4003 10
      vertex -1.75926 11.4003 11.99
    endloop
  endfacet
  facet normal 0.777365 0.62905 0
    outer loop
      vertex -1.75926 11.4003 10
      vertex -1.69598 11.3221 11.99
      vertex -1.69598 11.3221 10
    endloop
  endfacet
  facet normal 0.981937 0.189207 0
    outer loop
      vertex -1.6749 11.2127 11.99
      vertex -1.69598 11.3221 10
      vertex -1.69598 11.3221 11.99
    endloop
  endfacet
  facet normal 0.981937 0.189207 0
    outer loop
      vertex -1.69598 11.3221 10
      vertex -1.6749 11.2127 11.99
      vertex -1.6749 11.2127 10
    endloop
  endfacet
  facet normal 0.983584 -0.180452 0
    outer loop
      vertex -1.69598 11.0978 11.99
      vertex -1.6749 11.2127 10
      vertex -1.6749 11.2127 11.99
    endloop
  endfacet
  facet normal 0.983584 -0.180452 0
    outer loop
      vertex -1.6749 11.2127 10
      vertex -1.69598 11.0978 11.99
      vertex -1.69598 11.0978 10
    endloop
  endfacet
  facet normal 0.791676 -0.610942 0
    outer loop
      vertex -1.75926 11.0158 11.99
      vertex -1.69598 11.0978 10
      vertex -1.69598 11.0978 11.99
    endloop
  endfacet
  facet normal 0.791676 -0.610942 0
    outer loop
      vertex -1.69598 11.0978 10
      vertex -1.75926 11.0158 11.99
      vertex -1.75926 11.0158 10
    endloop
  endfacet
  facet normal 0.422749 -0.906247 0
    outer loop
      vertex -1.86473 10.9666 10
      vertex -1.75926 11.0158 11.99
      vertex -1.86473 10.9666 11.99
    endloop
  endfacet
  facet normal 0.422749 -0.906247 0
    outer loop
      vertex -1.75926 11.0158 11.99
      vertex -1.86473 10.9666 10
      vertex -1.75926 11.0158 10
    endloop
  endfacet
  facet normal 0.111052 -0.993815 0
    outer loop
      vertex -2.01239 10.9501 10
      vertex -1.86473 10.9666 11.99
      vertex -2.01239 10.9501 11.99
    endloop
  endfacet
  facet normal 0.111052 -0.993815 0
    outer loop
      vertex -1.86473 10.9666 11.99
      vertex -2.01239 10.9501 10
      vertex -1.86473 10.9666 10
    endloop
  endfacet
  facet normal 0 -1 0
    outer loop
      vertex -3.48732 10.9501 10
      vertex -2.01239 10.9501 11.99
      vertex -3.48732 10.9501 11.99
    endloop
  endfacet
  facet normal 0 -1 -0
    outer loop
      vertex -2.01239 10.9501 11.99
      vertex -3.48732 10.9501 10
      vertex -2.01239 10.9501 10
    endloop
  endfacet
  facet normal 1 -0 0
    outer loop
      vertex -3.48732 6.76263 11.99
      vertex -3.48732 10.9501 10
      vertex -3.48732 10.9501 11.99
    endloop
  endfacet
  facet normal 1 0 0
    outer loop
      vertex -3.48732 10.9501 10
      vertex -3.48732 6.76263 11.99
      vertex -3.48732 6.76263 10
    endloop
  endfacet
  facet normal 0 1 -0
    outer loop
      vertex -1.48743 6.76263 10
      vertex -3.48732 6.76263 11.99
      vertex -1.48743 6.76263 11.99
    endloop
  endfacet
  facet normal 0 1 0
    outer loop
      vertex -3.48732 6.76263 11.99
      vertex -1.48743 6.76263 10
      vertex -3.48732 6.76263 10
    endloop
  endfacet
  facet normal 0.10533 0.994437 -0
    outer loop
      vertex -1.33977 6.74699 10
      vertex -1.48743 6.76263 11.99
      vertex -1.33977 6.74699 11.99
    endloop
  endfacet
  facet normal 0.10533 0.994437 0
    outer loop
      vertex -1.48743 6.76263 11.99
      vertex -1.33977 6.74699 10
      vertex -1.48743 6.76263 10
    endloop
  endfacet
  facet normal 0.406243 0.913765 -0
    outer loop
      vertex -1.2343 6.7001 10
      vertex -1.33977 6.74699 11.99
      vertex -1.2343 6.7001 11.99
    endloop
  endfacet
  facet normal 0.406243 0.913765 0
    outer loop
      vertex -1.33977 6.74699 11.99
      vertex -1.2343 6.7001 10
      vertex -1.33977 6.74699 10
    endloop
  endfacet
  facet normal 0.777168 0.629293 0
    outer loop
      vertex -1.17102 6.62195 11.99
      vertex -1.2343 6.7001 10
      vertex -1.2343 6.7001 11.99
    endloop
  endfacet
  facet normal 0.777168 0.629293 0
    outer loop
      vertex -1.2343 6.7001 10
      vertex -1.17102 6.62195 11.99
      vertex -1.17102 6.62195 10
    endloop
  endfacet
  facet normal 0.98191 0.189347 0
    outer loop
      vertex -1.14992 6.51253 11.99
      vertex -1.17102 6.62195 10
      vertex -1.17102 6.62195 11.99
    endloop
  endfacet
  facet normal 0.98191 0.189347 0
    outer loop
      vertex -1.17102 6.62195 10
      vertex -1.14992 6.51253 11.99
      vertex -1.14992 6.51253 10
    endloop
  endfacet
  facet normal 0.983545 -0.180663 0
    outer loop
      vertex -1.17102 6.39766 11.99
      vertex -1.14992 6.51253 10
      vertex -1.14992 6.51253 11.99
    endloop
  endfacet
  facet normal 0.983545 -0.180663 0
    outer loop
      vertex -1.14992 6.51253 10
      vertex -1.17102 6.39766 11.99
      vertex -1.17102 6.39766 10
    endloop
  endfacet
  facet normal 0.791784 -0.610802 0
    outer loop
      vertex -1.2343 6.31563 11.99
      vertex -1.17102 6.39766 10
      vertex -1.17102 6.39766 11.99
    endloop
  endfacet
  facet normal 0.791784 -0.610802 0
    outer loop
      vertex -1.17102 6.39766 10
      vertex -1.2343 6.31563 11.99
      vertex -1.2343 6.31563 10
    endloop
  endfacet
  facet normal 0.422961 -0.906148 0
    outer loop
      vertex -1.33977 6.2664 10
      vertex -1.2343 6.31563 11.99
      vertex -1.33977 6.2664 11.99
    endloop
  endfacet
  facet normal 0.422961 -0.906148 0
    outer loop
      vertex -1.2343 6.31563 11.99
      vertex -1.33977 6.2664 10
      vertex -1.2343 6.31563 10
    endloop
  endfacet
  facet normal 0.110387 -0.993889 0
    outer loop
      vertex -1.48743 6.25 10
      vertex -1.33977 6.2664 11.99
      vertex -1.48743 6.25 11.99
    endloop
  endfacet
  facet normal 0.110387 -0.993889 0
    outer loop
      vertex -1.33977 6.2664 11.99
      vertex -1.48743 6.25 10
      vertex -1.33977 6.2664 10
    endloop
  endfacet
  facet normal 0 -1 0
    outer loop
      vertex -5.99957 6.25 10
      vertex -1.48743 6.25 11.99
      vertex -5.99957 6.25 11.99
    endloop
  endfacet
  facet normal 0 -1 -0
    outer loop
      vertex -1.48743 6.25 11.99
      vertex -5.99957 6.25 10
      vertex -1.48743 6.25 10
    endloop
  endfacet
  facet normal -0.106496 -0.994313 0
    outer loop
      vertex -6.15269 6.2664 10
      vertex -5.99957 6.25 11.99
      vertex -6.15269 6.2664 11.99
    endloop
  endfacet
  facet normal -0.106496 -0.994313 -0
    outer loop
      vertex -5.99957 6.25 11.99
      vertex -6.15269 6.2664 10
      vertex -5.99957 6.25 10
    endloop
  endfacet
endsolid OpenSCAD_Model
