solid OpenSCAD_Model
  facet normal -0 0 1
    outer loop
      vertex -2.08345 11.0978 10
      vertex 0 2.5 10
      vertex 0 14.5 10
    endloop
  endfacet
  facet normal 0 0 1
    outer loop
      vertex 0 2.5 10
      vertex -2.05843 4.29492 10
      vertex -2.03734 4.1855 10
    endloop
  endfacet
  facet normal 0 0 1
    outer loop
      vertex -2.08345 11.0978 10
      vertex 0 14.5 10
      vertex -2.06237 11.2127 10
    endloop
  endfacet
  facet normal 0 0 1
    outer loop
      vertex 0 14.5 10
      vertex -2.08345 11.3221 10
      vertex -2.06237 11.2127 10
    endloop
  endfacet
  facet normal 0 0 1
    outer loop
      vertex 0 14.5 10
      vertex -2.14673 11.4003 10
      vertex -2.08345 11.3221 10
    endloop
  endfacet
  facet normal 0 0 1
    outer loop
      vertex 0 14.5 10
      vertex -2.2522 11.4472 10
      vertex -2.14673 11.4003 10
    endloop
  endfacet
  facet normal 0 0 1
    outer loop
      vertex 0 14.5 10
      vertex -2.39986 11.4628 10
      vertex -2.2522 11.4472 10
    endloop
  endfacet
  facet normal 0 0 1
    outer loop
      vertex 0 14.5 10
      vertex -4.63718 14.049 10
      vertex -2.39986 11.4628 10
    endloop
  endfacet
  facet normal -0 0 1
    outer loop
      vertex -8 14.5 10
      vertex -4.63718 14.049 10
      vertex 0 14.5 10
    endloop
  endfacet
  facet normal 0 0 1
    outer loop
      vertex -8 14.5 10
      vertex -5.37464 12.7473 10
      vertex -5.37464 14.049 10
    endloop
  endfacet
  facet normal 0 0 1
    outer loop
      vertex -5.92462 11.4628 10
      vertex -8 14.5 10
      vertex -5.92462 5.89856 10
    endloop
  endfacet
  facet normal 0 0 1
    outer loop
      vertex -5.37464 12.7473 10
      vertex -8 14.5 10
      vertex -5.92462 11.4628 10
    endloop
  endfacet
  facet normal 0 0 1
    outer loop
      vertex -4.63718 14.049 10
      vertex -8 14.5 10
      vertex -5.37464 14.049 10
    endloop
  endfacet
  facet normal -0 0 1
    outer loop
      vertex -2.05843 4.07065 10
      vertex 0 2.5 10
      vertex -2.03734 4.1855 10
    endloop
  endfacet
  facet normal -0 0 1
    outer loop
      vertex -2.12172 3.9886 10
      vertex 0 2.5 10
      vertex -2.05843 4.07065 10
    endloop
  endfacet
  facet normal -0 0 1
    outer loop
      vertex -2.22719 3.93938 10
      vertex 0 2.5 10
      vertex -2.12172 3.9886 10
    endloop
  endfacet
  facet normal -0 0 1
    outer loop
      vertex -2.37484 3.92297 10
      vertex 0 2.5 10
      vertex -2.22719 3.93938 10
    endloop
  endfacet
  facet normal -0 0 1
    outer loop
      vertex -3.98719 3.92297 10
      vertex 0 2.5 10
      vertex -2.37484 3.92297 10
    endloop
  endfacet
  facet normal 0 0 1
    outer loop
      vertex -8 2.5 10
      vertex -3.98719 3.92297 10
      vertex -4.39302 3.95735 10
    endloop
  endfacet
  facet normal 0 0 1
    outer loop
      vertex -8 2.5 10
      vertex -4.39302 3.95735 10
      vertex -4.76058 4.06052 10
    endloop
  endfacet
  facet normal 0 0 1
    outer loop
      vertex -8 2.5 10
      vertex -5.92462 5.89856 10
      vertex -8 14.5 10
    endloop
  endfacet
  facet normal 0 0 1
    outer loop
      vertex -3.98719 3.92297 10
      vertex -8 2.5 10
      vertex 0 2.5 10
    endloop
  endfacet
  facet normal 0 0 1
    outer loop
      vertex -5.08986 4.23244 10
      vertex -8 2.5 10
      vertex -4.76058 4.06052 10
    endloop
  endfacet
  facet normal 0 0 1
    outer loop
      vertex -5.38085 4.47314 10
      vertex -8 2.5 10
      vertex -5.08986 4.23244 10
    endloop
  endfacet
  facet normal 0 0 1
    outer loop
      vertex -5.61875 4.76854 10
      vertex -8 2.5 10
      vertex -5.38085 4.47314 10
    endloop
  endfacet
  facet normal 0 0 1
    outer loop
      vertex -5.78868 5.10458 10
      vertex -8 2.5 10
      vertex -5.61875 4.76854 10
    endloop
  endfacet
  facet normal 0 0 1
    outer loop
      vertex -5.89064 5.48125 10
      vertex -8 2.5 10
      vertex -5.78868 5.10458 10
    endloop
  endfacet
  facet normal 0 0 1
    outer loop
      vertex -5.92462 5.89856 10
      vertex -8 2.5 10
      vertex -5.89064 5.48125 10
    endloop
  endfacet
  facet normal 0 0 1
    outer loop
      vertex 0 2.5 10
      vertex -2.08345 11.0978 10
      vertex -2.05843 4.29492 10
    endloop
  endfacet
  facet normal -0 0 1
    outer loop
      vertex -2.14673 11.0158 10
      vertex -2.05843 4.29492 10
      vertex -2.08345 11.0978 10
    endloop
  endfacet
  facet normal 0 0 1
    outer loop
      vertex -2.05843 4.29492 10
      vertex -2.14673 11.0158 10
      vertex -2.12172 4.37308 10
    endloop
  endfacet
  facet normal -0 0 1
    outer loop
      vertex -2.2522 10.9666 10
      vertex -2.12172 4.37308 10
      vertex -2.14673 11.0158 10
    endloop
  endfacet
  facet normal 0 0 1
    outer loop
      vertex -2.12172 4.37308 10
      vertex -2.2522 10.9666 10
      vertex -2.22719 4.41998 10
    endloop
  endfacet
  facet normal 0 0 1
    outer loop
      vertex -2.2522 10.9666 10
      vertex -2.37484 4.43561 10
      vertex -2.22719 4.41998 10
    endloop
  endfacet
  facet normal -0 0 1
    outer loop
      vertex -2.39986 10.9501 10
      vertex -2.37484 4.43561 10
      vertex -2.2522 10.9666 10
    endloop
  endfacet
  facet normal -0 0 1
    outer loop
      vertex -5.41216 5.89856 10
      vertex -2.37484 4.43561 10
      vertex -2.39986 10.9501 10
    endloop
  endfacet
  facet normal 0 0 1
    outer loop
      vertex -2.37484 4.43561 10
      vertex -5.41216 5.89856 10
      vertex -3.97476 4.43561 10
    endloop
  endfacet
  facet normal -0 -0 1
    outer loop
      vertex -5.38677 5.5938 10
      vertex -3.97476 4.43561 10
      vertex -5.41216 5.89856 10
    endloop
  endfacet
  facet normal 0 0 1
    outer loop
      vertex -3.97476 4.43561 10
      vertex -5.38677 5.5938 10
      vertex -4.27358 4.4614 10
    endloop
  endfacet
  facet normal 0 0 1
    outer loop
      vertex -4.27358 4.4614 10
      vertex -5.38677 5.5938 10
      vertex -4.54503 4.53877 10
    endloop
  endfacet
  facet normal 0 0 1
    outer loop
      vertex -4.54503 4.53877 10
      vertex -5.38677 5.5938 10
      vertex -4.78914 4.66772 10
    endloop
  endfacet
  facet normal 0 0 1
    outer loop
      vertex -4.78914 4.66772 10
      vertex -5.38677 5.5938 10
      vertex -5.00591 4.84825 10
    endloop
  endfacet
  facet normal 0 0 1
    outer loop
      vertex -5.00591 4.84825 10
      vertex -5.38677 5.5938 10
      vertex -5.18364 5.06865 10
    endloop
  endfacet
  facet normal 0 0 1
    outer loop
      vertex -5.41216 5.89856 10
      vertex -2.39986 10.9501 10
      vertex -5.41216 10.9501 10
    endloop
  endfacet
  facet normal 0 0 1
    outer loop
      vertex -5.18364 5.06865 10
      vertex -5.38677 5.5938 10
      vertex -5.3106 5.31715 10
    endloop
  endfacet
  facet normal -0 0 1
    outer loop
      vertex -4.63718 12.7473 10
      vertex -2.39986 11.4628 10
      vertex -4.63718 14.049 10
    endloop
  endfacet
  facet normal 0 0 1
    outer loop
      vertex -5.92462 11.4628 10
      vertex -4.63718 12.7473 10
      vertex -5.37464 12.7473 10
    endloop
  endfacet
  facet normal 0 0 1
    outer loop
      vertex -4.63718 12.7473 10
      vertex -5.92462 11.4628 10
      vertex -2.39986 11.4628 10
    endloop
  endfacet
  facet normal -1 0 0
    outer loop
      vertex -8 0 3
      vertex -8 17 3
      vertex -8 17 0
    endloop
  endfacet
  facet normal -1 0 0
    outer loop
      vertex -8 17 3
      vertex -8 0 3
      vertex -8 14.5 10
    endloop
  endfacet
  facet normal -1 0 0
    outer loop
      vertex -8 0 3
      vertex -8 17 0
      vertex -8 0 0
    endloop
  endfacet
  facet normal -1 -0 0
    outer loop
      vertex -8 14.5 10
      vertex -8 0 3
      vertex -8 2.5 10
    endloop
  endfacet
  facet normal 0 1 -0
    outer loop
      vertex 0 17 0
      vertex -8 17 3
      vertex 0 17 3
    endloop
  endfacet
  facet normal 0 1 0
    outer loop
      vertex -8 17 3
      vertex 0 17 0
      vertex -8 17 0
    endloop
  endfacet
  facet normal 0 0 -1
    outer loop
      vertex -8 0 0
      vertex 0 17 0
      vertex 0 0 0
    endloop
  endfacet
  facet normal -0 0 -1
    outer loop
      vertex 0 17 0
      vertex -8 0 0
      vertex -8 17 0
    endloop
  endfacet
  facet normal 1 0 0
    outer loop
      vertex 0 0 3
      vertex 0 17 3
      vertex 0 14.5 10
    endloop
  endfacet
  facet normal 1 0 0
    outer loop
      vertex 0 0 3
      vertex 0 14.5 10
      vertex 0 2.5 10
    endloop
  endfacet
  facet normal 1 0 0
    outer loop
      vertex 0 17 3
      vertex 0 0 3
      vertex 0 17 0
    endloop
  endfacet
  facet normal 1 0 0
    outer loop
      vertex 0 17 0
      vertex 0 0 3
      vertex 0 0 0
    endloop
  endfacet
  facet normal 0 -0.941742 0.336336
    outer loop
      vertex -8 0 3
      vertex 0 2.5 10
      vertex -8 2.5 10
    endloop
  endfacet
  facet normal 0 -0.941742 0.336336
    outer loop
      vertex 0 2.5 10
      vertex -8 0 3
      vertex 0 0 3
    endloop
  endfacet
  facet normal 0 -1 0
    outer loop
      vertex -8 0 0
      vertex 0 0 3
      vertex -8 0 3
    endloop
  endfacet
  facet normal 0 -1 -0
    outer loop
      vertex 0 0 3
      vertex -8 0 0
      vertex 0 0 0
    endloop
  endfacet
  facet normal 0 0.941742 0.336336
    outer loop
      vertex 0 17 3
      vertex -8 14.5 10
      vertex 0 14.5 10
    endloop
  endfacet
  facet normal 0 0.941742 0.336336
    outer loop
      vertex -8 14.5 10
      vertex 0 17 3
      vertex -8 17 3
    endloop
  endfacet
  facet normal -0 0 1
    outer loop
      vertex -5.37464 14.049 11.99
      vertex -4.63718 12.7473 11.99
      vertex -4.63718 14.049 11.99
    endloop
  endfacet
  facet normal 0 0 1
    outer loop
      vertex -4.63718 12.7473 11.99
      vertex -5.37464 14.049 11.99
      vertex -5.37464 12.7473 11.99
    endloop
  endfacet
  facet normal 0 0 1
    outer loop
      vertex -2.14673 11.4003 11.99
      vertex -2.06237 11.2127 11.99
      vertex -2.08345 11.3221 11.99
    endloop
  endfacet
  facet normal 0 0 1
    outer loop
      vertex -2.06237 11.2127 11.99
      vertex -2.14673 11.4003 11.99
      vertex -2.2522 11.4472 11.99
    endloop
  endfacet
  facet normal 0 0 1
    outer loop
      vertex -2.2522 10.9666 11.99
      vertex -2.06237 11.2127 11.99
      vertex -2.2522 11.4472 11.99
    endloop
  endfacet
  facet normal 0 0 1
    outer loop
      vertex -2.06237 11.2127 11.99
      vertex -2.2522 10.9666 11.99
      vertex -2.08345 11.0978 11.99
    endloop
  endfacet
  facet normal 0 0 1
    outer loop
      vertex -2.08345 11.0978 11.99
      vertex -2.2522 10.9666 11.99
      vertex -2.14673 11.0158 11.99
    endloop
  endfacet
  facet normal 0 0 1
    outer loop
      vertex -2.39986 11.4628 11.99
      vertex -2.2522 10.9666 11.99
      vertex -2.2522 11.4472 11.99
    endloop
  endfacet
  facet normal 0 0 1
    outer loop
      vertex -2.39986 11.4628 11.99
      vertex -2.39986 10.9501 11.99
      vertex -2.2522 10.9666 11.99
    endloop
  endfacet
  facet normal 0 0 1
    outer loop
      vertex -2.39986 11.4628 11.99
      vertex -5.41216 10.9501 11.99
      vertex -2.39986 10.9501 11.99
    endloop
  endfacet
  facet normal 0 0 1
    outer loop
      vertex -5.92462 5.89856 11.99
      vertex -5.41216 5.89856 11.99
      vertex -5.41216 10.9501 11.99
    endloop
  endfacet
  facet normal 0 -0 1
    outer loop
      vertex -5.89064 5.48125 11.99
      vertex -5.41216 5.89856 11.99
      vertex -5.92462 5.89856 11.99
    endloop
  endfacet
  facet normal 0 -0 1
    outer loop
      vertex -5.78868 5.10458 11.99
      vertex -5.41216 5.89856 11.99
      vertex -5.89064 5.48125 11.99
    endloop
  endfacet
  facet normal -0 0 1
    outer loop
      vertex -5.92462 11.4628 11.99
      vertex -5.41216 10.9501 11.99
      vertex -2.39986 11.4628 11.99
    endloop
  endfacet
  facet normal 0 0 1
    outer loop
      vertex -5.92462 5.89856 11.99
      vertex -5.41216 10.9501 11.99
      vertex -5.92462 11.4628 11.99
    endloop
  endfacet
  facet normal 0 0 1
    outer loop
      vertex -5.41216 5.89856 11.99
      vertex -5.78868 5.10458 11.99
      vertex -5.61875 4.76854 11.99
    endloop
  endfacet
  facet normal 0 0 1
    outer loop
      vertex -2.12172 4.37308 11.99
      vertex -2.03734 4.1855 11.99
      vertex -2.05843 4.29492 11.99
    endloop
  endfacet
  facet normal 0 0 1
    outer loop
      vertex -2.03734 4.1855 11.99
      vertex -2.12172 4.37308 11.99
      vertex -2.22719 4.41998 11.99
    endloop
  endfacet
  facet normal 0 0 1
    outer loop
      vertex -2.22719 3.93938 11.99
      vertex -2.03734 4.1855 11.99
      vertex -2.22719 4.41998 11.99
    endloop
  endfacet
  facet normal 0 0 1
    outer loop
      vertex -2.03734 4.1855 11.99
      vertex -2.22719 3.93938 11.99
      vertex -2.05843 4.07065 11.99
    endloop
  endfacet
  facet normal 0 0 1
    outer loop
      vertex -2.05843 4.07065 11.99
      vertex -2.22719 3.93938 11.99
      vertex -2.12172 3.9886 11.99
    endloop
  endfacet
  facet normal 0 0 1
    outer loop
      vertex -2.37484 4.43561 11.99
      vertex -2.22719 3.93938 11.99
      vertex -2.22719 4.41998 11.99
    endloop
  endfacet
  facet normal 0 0 1
    outer loop
      vertex -2.37484 4.43561 11.99
      vertex -2.37484 3.92297 11.99
      vertex -2.22719 3.93938 11.99
    endloop
  endfacet
  facet normal -0 0 1
    outer loop
      vertex -3.97476 4.43561 11.99
      vertex -2.37484 3.92297 11.99
      vertex -2.37484 4.43561 11.99
    endloop
  endfacet
  facet normal 0 0 1
    outer loop
      vertex -3.97476 4.43561 11.99
      vertex -3.98719 3.92297 11.99
      vertex -2.37484 3.92297 11.99
    endloop
  endfacet
  facet normal 0 0 1
    outer loop
      vertex -4.27358 4.4614 11.99
      vertex -3.98719 3.92297 11.99
      vertex -3.97476 4.43561 11.99
    endloop
  endfacet
  facet normal 0 0 1
    outer loop
      vertex -4.27358 4.4614 11.99
      vertex -4.39302 3.95735 11.99
      vertex -3.98719 3.92297 11.99
    endloop
  endfacet
  facet normal 0 0 1
    outer loop
      vertex -4.54503 4.53877 11.99
      vertex -4.39302 3.95735 11.99
      vertex -4.27358 4.4614 11.99
    endloop
  endfacet
  facet normal 0 0 1
    outer loop
      vertex -4.54503 4.53877 11.99
      vertex -4.76058 4.06052 11.99
      vertex -4.39302 3.95735 11.99
    endloop
  endfacet
  facet normal 0 0 1
    outer loop
      vertex -4.78914 4.66772 11.99
      vertex -4.76058 4.06052 11.99
      vertex -4.54503 4.53877 11.99
    endloop
  endfacet
  facet normal 0 0 1
    outer loop
      vertex -5.08986 4.23244 11.99
      vertex -4.78914 4.66772 11.99
      vertex -5.00591 4.84825 11.99
    endloop
  endfacet
  facet normal 0 0 1
    outer loop
      vertex -4.78914 4.66772 11.99
      vertex -5.08986 4.23244 11.99
      vertex -4.76058 4.06052 11.99
    endloop
  endfacet
  facet normal 0 0 1
    outer loop
      vertex -5.61875 4.76854 11.99
      vertex -5.00591 4.84825 11.99
      vertex -5.18364 5.06865 11.99
    endloop
  endfacet
  facet normal 0 0 1
    outer loop
      vertex -5.61875 4.76854 11.99
      vertex -5.18364 5.06865 11.99
      vertex -5.3106 5.31715 11.99
    endloop
  endfacet
  facet normal 0 0 1
    outer loop
      vertex -5.00591 4.84825 11.99
      vertex -5.38085 4.47314 11.99
      vertex -5.08986 4.23244 11.99
    endloop
  endfacet
  facet normal 0 0 1
    outer loop
      vertex -5.61875 4.76854 11.99
      vertex -5.3106 5.31715 11.99
      vertex -5.38677 5.5938 11.99
    endloop
  endfacet
  facet normal 0 0 1
    outer loop
      vertex -5.61875 4.76854 11.99
      vertex -5.38677 5.5938 11.99
      vertex -5.41216 5.89856 11.99
    endloop
  endfacet
  facet normal 0 0 1
    outer loop
      vertex -5.00591 4.84825 11.99
      vertex -5.61875 4.76854 11.99
      vertex -5.38085 4.47314 11.99
    endloop
  endfacet
  facet normal 0 1 -0
    outer loop
      vertex -4.63718 14.049 10
      vertex -5.37464 14.049 11.99
      vertex -4.63718 14.049 11.99
    endloop
  endfacet
  facet normal 0 1 0
    outer loop
      vertex -5.37464 14.049 11.99
      vertex -4.63718 14.049 10
      vertex -5.37464 14.049 10
    endloop
  endfacet
  facet normal 1 -0 0
    outer loop
      vertex -4.63718 12.7473 11.99
      vertex -4.63718 14.049 10
      vertex -4.63718 14.049 11.99
    endloop
  endfacet
  facet normal 1 0 0
    outer loop
      vertex -4.63718 14.049 10
      vertex -4.63718 12.7473 11.99
      vertex -4.63718 12.7473 10
    endloop
  endfacet
  facet normal 0 -1 0
    outer loop
      vertex -5.37464 12.7473 10
      vertex -4.63718 12.7473 11.99
      vertex -5.37464 12.7473 11.99
    endloop
  endfacet
  facet normal 0 -1 -0
    outer loop
      vertex -4.63718 12.7473 11.99
      vertex -5.37464 12.7473 10
      vertex -4.63718 12.7473 10
    endloop
  endfacet
  facet normal -1 0 0
    outer loop
      vertex -5.37464 12.7473 10
      vertex -5.37464 14.049 11.99
      vertex -5.37464 14.049 10
    endloop
  endfacet
  facet normal -1 -0 0
    outer loop
      vertex -5.37464 14.049 11.99
      vertex -5.37464 12.7473 10
      vertex -5.37464 12.7473 11.99
    endloop
  endfacet
  facet normal -0.270245 -0.962792 0
    outer loop
      vertex -4.76058 4.06052 10
      vertex -4.39302 3.95735 11.99
      vertex -4.76058 4.06052 11.99
    endloop
  endfacet
  facet normal -0.270245 -0.962792 -0
    outer loop
      vertex -4.39302 3.95735 11.99
      vertex -4.76058 4.06052 10
      vertex -4.39302 3.95735 10
    endloop
  endfacet
  facet normal -0.462824 -0.88645 0
    outer loop
      vertex -5.08986 4.23244 10
      vertex -4.76058 4.06052 11.99
      vertex -5.08986 4.23244 11.99
    endloop
  endfacet
  facet normal -0.462824 -0.88645 -0
    outer loop
      vertex -4.76058 4.06052 11.99
      vertex -5.08986 4.23244 10
      vertex -4.76058 4.06052 10
    endloop
  endfacet
  facet normal -0.63738 -0.770549 0
    outer loop
      vertex -5.38085 4.47314 10
      vertex -5.08986 4.23244 11.99
      vertex -5.38085 4.47314 11.99
    endloop
  endfacet
  facet normal -0.63738 -0.770549 -0
    outer loop
      vertex -5.08986 4.23244 11.99
      vertex -5.38085 4.47314 10
      vertex -5.08986 4.23244 10
    endloop
  endfacet
  facet normal -0.778833 -0.627232 0
    outer loop
      vertex -5.38085 4.47314 10
      vertex -5.61875 4.76854 11.99
      vertex -5.61875 4.76854 10
    endloop
  endfacet
  facet normal -0.778833 -0.627232 0
    outer loop
      vertex -5.61875 4.76854 11.99
      vertex -5.38085 4.47314 10
      vertex -5.38085 4.47314 11.99
    endloop
  endfacet
  facet normal -0.892389 -0.451267 0
    outer loop
      vertex -5.61875 4.76854 10
      vertex -5.78868 5.10458 11.99
      vertex -5.78868 5.10458 10
    endloop
  endfacet
  facet normal -0.892389 -0.451267 0
    outer loop
      vertex -5.78868 5.10458 11.99
      vertex -5.61875 4.76854 10
      vertex -5.61875 4.76854 11.99
    endloop
  endfacet
  facet normal -0.965262 -0.261285 0
    outer loop
      vertex -5.78868 5.10458 10
      vertex -5.89064 5.48125 11.99
      vertex -5.89064 5.48125 10
    endloop
  endfacet
  facet normal -0.965262 -0.261285 0
    outer loop
      vertex -5.89064 5.48125 11.99
      vertex -5.78868 5.10458 10
      vertex -5.78868 5.10458 11.99
    endloop
  endfacet
  facet normal -0.996701 -0.0811577 0
    outer loop
      vertex -5.89064 5.48125 10
      vertex -5.92462 5.89856 11.99
      vertex -5.92462 5.89856 10
    endloop
  endfacet
  facet normal -0.996701 -0.0811577 0
    outer loop
      vertex -5.92462 5.89856 11.99
      vertex -5.89064 5.48125 10
      vertex -5.89064 5.48125 11.99
    endloop
  endfacet
  facet normal -1 0 0
    outer loop
      vertex -5.92462 5.89856 10
      vertex -5.92462 11.4628 11.99
      vertex -5.92462 11.4628 10
    endloop
  endfacet
  facet normal -1 -0 0
    outer loop
      vertex -5.92462 11.4628 11.99
      vertex -5.92462 5.89856 10
      vertex -5.92462 5.89856 11.99
    endloop
  endfacet
  facet normal 0 1 -0
    outer loop
      vertex -2.39986 11.4628 10
      vertex -5.92462 11.4628 11.99
      vertex -2.39986 11.4628 11.99
    endloop
  endfacet
  facet normal 0 1 0
    outer loop
      vertex -5.92462 11.4628 11.99
      vertex -2.39986 11.4628 10
      vertex -5.92462 11.4628 10
    endloop
  endfacet
  facet normal 0.105063 0.994466 -0
    outer loop
      vertex -2.2522 11.4472 10
      vertex -2.39986 11.4628 11.99
      vertex -2.2522 11.4472 11.99
    endloop
  endfacet
  facet normal 0.105063 0.994466 0
    outer loop
      vertex -2.39986 11.4628 11.99
      vertex -2.2522 11.4472 10
      vertex -2.39986 11.4628 10
    endloop
  endfacet
  facet normal 0.406315 0.913733 -0
    outer loop
      vertex -2.14673 11.4003 10
      vertex -2.2522 11.4472 11.99
      vertex -2.14673 11.4003 11.99
    endloop
  endfacet
  facet normal 0.406315 0.913733 0
    outer loop
      vertex -2.2522 11.4472 11.99
      vertex -2.14673 11.4003 10
      vertex -2.2522 11.4472 10
    endloop
  endfacet
  facet normal 0.777365 0.62905 0
    outer loop
      vertex -2.08345 11.3221 11.99
      vertex -2.14673 11.4003 10
      vertex -2.14673 11.4003 11.99
    endloop
  endfacet
  facet normal 0.777365 0.62905 0
    outer loop
      vertex -2.14673 11.4003 10
      vertex -2.08345 11.3221 11.99
      vertex -2.08345 11.3221 10
    endloop
  endfacet
  facet normal 0.981937 0.189207 0
    outer loop
      vertex -2.06237 11.2127 11.99
      vertex -2.08345 11.3221 10
      vertex -2.08345 11.3221 11.99
    endloop
  endfacet
  facet normal 0.981937 0.189207 0
    outer loop
      vertex -2.08345 11.3221 10
      vertex -2.06237 11.2127 11.99
      vertex -2.06237 11.2127 10
    endloop
  endfacet
  facet normal 0.983584 -0.180452 0
    outer loop
      vertex -2.08345 11.0978 11.99
      vertex -2.06237 11.2127 10
      vertex -2.06237 11.2127 11.99
    endloop
  endfacet
  facet normal 0.983584 -0.180452 0
    outer loop
      vertex -2.06237 11.2127 10
      vertex -2.08345 11.0978 11.99
      vertex -2.08345 11.0978 10
    endloop
  endfacet
  facet normal 0.791676 -0.610942 0
    outer loop
      vertex -2.14673 11.0158 11.99
      vertex -2.08345 11.0978 10
      vertex -2.08345 11.0978 11.99
    endloop
  endfacet
  facet normal 0.791676 -0.610942 0
    outer loop
      vertex -2.08345 11.0978 10
      vertex -2.14673 11.0158 11.99
      vertex -2.14673 11.0158 10
    endloop
  endfacet
  facet normal 0.422749 -0.906247 0
    outer loop
      vertex -2.2522 10.9666 10
      vertex -2.14673 11.0158 11.99
      vertex -2.2522 10.9666 11.99
    endloop
  endfacet
  facet normal 0.422749 -0.906247 0
    outer loop
      vertex -2.14673 11.0158 11.99
      vertex -2.2522 10.9666 10
      vertex -2.14673 11.0158 10
    endloop
  endfacet
  facet normal 0.111052 -0.993815 0
    outer loop
      vertex -2.39986 10.9501 10
      vertex -2.2522 10.9666 11.99
      vertex -2.39986 10.9501 11.99
    endloop
  endfacet
  facet normal 0.111052 -0.993815 0
    outer loop
      vertex -2.2522 10.9666 11.99
      vertex -2.39986 10.9501 10
      vertex -2.2522 10.9666 10
    endloop
  endfacet
  facet normal 0 -1 0
    outer loop
      vertex -5.41216 10.9501 10
      vertex -2.39986 10.9501 11.99
      vertex -5.41216 10.9501 11.99
    endloop
  endfacet
  facet normal 0 -1 -0
    outer loop
      vertex -2.39986 10.9501 11.99
      vertex -5.41216 10.9501 10
      vertex -2.39986 10.9501 10
    endloop
  endfacet
  facet normal 1 -0 0
    outer loop
      vertex -5.41216 5.89856 11.99
      vertex -5.41216 10.9501 10
      vertex -5.41216 10.9501 11.99
    endloop
  endfacet
  facet normal 1 0 0
    outer loop
      vertex -5.41216 10.9501 10
      vertex -5.41216 5.89856 11.99
      vertex -5.41216 5.89856 10
    endloop
  endfacet
  facet normal 0.996548 0.0830238 0
    outer loop
      vertex -5.38677 5.5938 11.99
      vertex -5.41216 5.89856 10
      vertex -5.41216 5.89856 11.99
    endloop
  endfacet
  facet normal 0.996548 0.0830238 0
    outer loop
      vertex -5.41216 5.89856 10
      vertex -5.38677 5.5938 11.99
      vertex -5.38677 5.5938 10
    endloop
  endfacet
  facet normal 0.964124 0.265452 0
    outer loop
      vertex -5.3106 5.31715 11.99
      vertex -5.38677 5.5938 10
      vertex -5.38677 5.5938 11.99
    endloop
  endfacet
  facet normal 0.964124 0.265452 0
    outer loop
      vertex -5.38677 5.5938 10
      vertex -5.3106 5.31715 11.99
      vertex -5.3106 5.31715 10
    endloop
  endfacet
  facet normal 0.890509 0.454966 0
    outer loop
      vertex -5.18364 5.06865 11.99
      vertex -5.3106 5.31715 10
      vertex -5.3106 5.31715 11.99
    endloop
  endfacet
  facet normal 0.890509 0.454966 0
    outer loop
      vertex -5.3106 5.31715 10
      vertex -5.18364 5.06865 11.99
      vertex -5.18364 5.06865 10
    endloop
  endfacet
  facet normal 0.778434 0.627727 0
    outer loop
      vertex -5.00591 4.84825 11.99
      vertex -5.18364 5.06865 10
      vertex -5.18364 5.06865 11.99
    endloop
  endfacet
  facet normal 0.778434 0.627727 0
    outer loop
      vertex -5.18364 5.06865 10
      vertex -5.00591 4.84825 11.99
      vertex -5.00591 4.84825 10
    endloop
  endfacet
  facet normal 0.639951 0.768416 -0
    outer loop
      vertex -4.78914 4.66772 10
      vertex -5.00591 4.84825 11.99
      vertex -4.78914 4.66772 11.99
    endloop
  endfacet
  facet normal 0.639951 0.768416 0
    outer loop
      vertex -5.00591 4.84825 11.99
      vertex -4.78914 4.66772 10
      vertex -5.00591 4.84825 10
    endloop
  endfacet
  facet normal 0.467082 0.884214 -0
    outer loop
      vertex -4.54503 4.53877 10
      vertex -4.78914 4.66772 11.99
      vertex -4.54503 4.53877 11.99
    endloop
  endfacet
  facet normal 0.467082 0.884214 0
    outer loop
      vertex -4.78914 4.66772 11.99
      vertex -4.54503 4.53877 10
      vertex -4.78914 4.66772 10
    endloop
  endfacet
  facet normal 0.274108 0.961699 -0
    outer loop
      vertex -4.27358 4.4614 10
      vertex -4.54503 4.53877 11.99
      vertex -4.27358 4.4614 11.99
    endloop
  endfacet
  facet normal 0.274108 0.961699 0
    outer loop
      vertex -4.54503 4.53877 11.99
      vertex -4.27358 4.4614 10
      vertex -4.54503 4.53877 10
    endloop
  endfacet
  facet normal 0.0859865 0.996296 -0
    outer loop
      vertex -3.97476 4.43561 10
      vertex -4.27358 4.4614 11.99
      vertex -3.97476 4.43561 11.99
    endloop
  endfacet
  facet normal 0.0859865 0.996296 0
    outer loop
      vertex -4.27358 4.4614 11.99
      vertex -3.97476 4.43561 10
      vertex -4.27358 4.4614 10
    endloop
  endfacet
  facet normal 0 1 -0
    outer loop
      vertex -2.37484 4.43561 10
      vertex -3.97476 4.43561 11.99
      vertex -2.37484 4.43561 11.99
    endloop
  endfacet
  facet normal 0 1 0
    outer loop
      vertex -3.97476 4.43561 11.99
      vertex -2.37484 4.43561 10
      vertex -3.97476 4.43561 10
    endloop
  endfacet
  facet normal 0.10527 0.994444 -0
    outer loop
      vertex -2.22719 4.41998 10
      vertex -2.37484 4.43561 11.99
      vertex -2.22719 4.41998 11.99
    endloop
  endfacet
  facet normal 0.10527 0.994444 0
    outer loop
      vertex -2.37484 4.43561 11.99
      vertex -2.22719 4.41998 10
      vertex -2.37484 4.43561 10
    endloop
  endfacet
  facet normal 0.406315 0.913733 -0
    outer loop
      vertex -2.12172 4.37308 10
      vertex -2.22719 4.41998 11.99
      vertex -2.12172 4.37308 11.99
    endloop
  endfacet
  facet normal 0.406315 0.913733 0
    outer loop
      vertex -2.22719 4.41998 11.99
      vertex -2.12172 4.37308 10
      vertex -2.22719 4.41998 10
    endloop
  endfacet
  facet normal 0.777159 0.629304 0
    outer loop
      vertex -2.05843 4.29492 11.99
      vertex -2.12172 4.37308 10
      vertex -2.12172 4.37308 11.99
    endloop
  endfacet
  facet normal 0.777159 0.629304 0
    outer loop
      vertex -2.12172 4.37308 10
      vertex -2.05843 4.29492 11.99
      vertex -2.05843 4.29492 10
    endloop
  endfacet
  facet normal 0.981927 0.18926 0
    outer loop
      vertex -2.03734 4.1855 11.99
      vertex -2.05843 4.29492 10
      vertex -2.05843 4.29492 11.99
    endloop
  endfacet
  facet normal 0.981927 0.18926 0
    outer loop
      vertex -2.05843 4.29492 10
      vertex -2.03734 4.1855 11.99
      vertex -2.03734 4.1855 10
    endloop
  endfacet
  facet normal 0.983555 -0.180611 0
    outer loop
      vertex -2.05843 4.07065 11.99
      vertex -2.03734 4.1855 10
      vertex -2.03734 4.1855 11.99
    endloop
  endfacet
  facet normal 0.983555 -0.180611 0
    outer loop
      vertex -2.03734 4.1855 10
      vertex -2.05843 4.07065 11.99
      vertex -2.05843 4.07065 10
    endloop
  endfacet
  facet normal 0.791809 -0.610769 0
    outer loop
      vertex -2.12172 3.9886 11.99
      vertex -2.05843 4.07065 10
      vertex -2.05843 4.07065 11.99
    endloop
  endfacet
  facet normal 0.791809 -0.610769 0
    outer loop
      vertex -2.05843 4.07065 10
      vertex -2.12172 3.9886 11.99
      vertex -2.12172 3.9886 10
    endloop
  endfacet
  facet normal 0.42289 -0.906181 0
    outer loop
      vertex -2.22719 3.93938 10
      vertex -2.12172 3.9886 11.99
      vertex -2.22719 3.93938 11.99
    endloop
  endfacet
  facet normal 0.42289 -0.906181 0
    outer loop
      vertex -2.12172 3.9886 11.99
      vertex -2.22719 3.93938 10
      vertex -2.12172 3.9886 10
    endloop
  endfacet
  facet normal 0.110461 -0.99388 0
    outer loop
      vertex -2.37484 3.92297 10
      vertex -2.22719 3.93938 11.99
      vertex -2.37484 3.92297 11.99
    endloop
  endfacet
  facet normal 0.110461 -0.99388 0
    outer loop
      vertex -2.22719 3.93938 11.99
      vertex -2.37484 3.92297 10
      vertex -2.22719 3.93938 10
    endloop
  endfacet
  facet normal 0 -1 0
    outer loop
      vertex -3.98719 3.92297 10
      vertex -2.37484 3.92297 11.99
      vertex -3.98719 3.92297 11.99
    endloop
  endfacet
  facet normal 0 -1 -0
    outer loop
      vertex -2.37484 3.92297 11.99
      vertex -3.98719 3.92297 10
      vertex -2.37484 3.92297 10
    endloop
  endfacet
  facet normal -0.0844129 -0.996431 0
    outer loop
      vertex -4.39302 3.95735 10
      vertex -3.98719 3.92297 11.99
      vertex -4.39302 3.95735 11.99
    endloop
  endfacet
  facet normal -0.0844129 -0.996431 -0
    outer loop
      vertex -3.98719 3.92297 11.99
      vertex -4.39302 3.95735 10
      vertex -3.98719 3.92297 10
    endloop
  endfacet
endsolid OpenSCAD_Model
