solid OpenSCAD_Model
  facet normal 0 0 1
    outer loop
      vertex -5.94965 12.7761 10
      vertex -7.14952 12.7761 10
      vertex -5.94965 8.3118 10
    endloop
  endfacet
  facet normal 0 0 1
    outer loop
      vertex 0 14.5 10
      vertex -1.24993 9.03459 10
      vertex 0 2.5 10
    endloop
  endfacet
  facet normal 0 0 1
    outer loop
      vertex 0 14.5 10
      vertex -1.26633 9.18217 10
      vertex -1.24993 9.03459 10
    endloop
  endfacet
  facet normal 0 0 1
    outer loop
      vertex 0 14.5 10
      vertex -1.31554 9.28758 10
      vertex -1.26633 9.18217 10
    endloop
  endfacet
  facet normal 0 0 1
    outer loop
      vertex 0 14.5 10
      vertex -1.39756 9.35083 10
      vertex -1.31554 9.28758 10
    endloop
  endfacet
  facet normal -0 0 1
    outer loop
      vertex -3.1334 12.9238 10
      vertex -1.39756 9.35083 10
      vertex 0 14.5 10
    endloop
  endfacet
  facet normal 0 0 1
    outer loop
      vertex -1.39756 9.35083 10
      vertex -3.1334 12.9238 10
      vertex -1.51238 9.37192 10
    endloop
  endfacet
  facet normal -0 0 1
    outer loop
      vertex -3.19667 12.8417 10
      vertex -1.51238 9.37192 10
      vertex -3.1334 12.9238 10
    endloop
  endfacet
  facet normal 0 0 1
    outer loop
      vertex -1.51238 9.37192 10
      vertex -3.19667 12.8417 10
      vertex -1.62175 9.35083 10
    endloop
  endfacet
  facet normal 0 0 1
    outer loop
      vertex -1.76239 9.03459 10
      vertex -2.22954 7.03888 10
      vertex -1.76239 7.41054 10
    endloop
  endfacet
  facet normal 0 0 1
    outer loop
      vertex -5.43718 8.31171 10
      vertex -1.76239 9.03459 10
      vertex -1.74677 9.18217 10
    endloop
  endfacet
  facet normal 0 0 1
    outer loop
      vertex -1.76239 9.03459 10
      vertex -2.69358 6.77341 10
      vertex -2.22954 7.03888 10
    endloop
  endfacet
  facet normal -0 0 1
    outer loop
      vertex -3.30214 12.7925 10
      vertex -1.62175 9.35083 10
      vertex -3.19667 12.8417 10
    endloop
  endfacet
  facet normal 0 0 1
    outer loop
      vertex -3.1334 12.9238 10
      vertex 0 14.5 10
      vertex -3.11231 13.0386 10
    endloop
  endfacet
  facet normal 0 0 1
    outer loop
      vertex 0 14.5 10
      vertex -3.1334 13.148 10
      vertex -3.11231 13.0386 10
    endloop
  endfacet
  facet normal 0 0 1
    outer loop
      vertex 0 14.5 10
      vertex -3.19667 13.2262 10
      vertex -3.1334 13.148 10
    endloop
  endfacet
  facet normal 0 0 1
    outer loop
      vertex 0 14.5 10
      vertex -3.30214 13.2731 10
      vertex -3.19667 13.2262 10
    endloop
  endfacet
  facet normal 0 0 1
    outer loop
      vertex 0 14.5 10
      vertex -3.4498 13.2887 10
      vertex -3.30214 13.2731 10
    endloop
  endfacet
  facet normal -0 0 1
    outer loop
      vertex -8 14.5 10
      vertex -3.4498 13.2887 10
      vertex 0 14.5 10
    endloop
  endfacet
  facet normal 0 0 1
    outer loop
      vertex -3.4498 13.2887 10
      vertex -8 14.5 10
      vertex -7.14952 13.2887 10
    endloop
  endfacet
  facet normal 0 0 1
    outer loop
      vertex -7.46593 13.148 10
      vertex -8 14.5 10
      vertex -7.48702 13.0386 10
    endloop
  endfacet
  facet normal 0 0 1
    outer loop
      vertex -7.40265 13.2262 10
      vertex -8 14.5 10
      vertex -7.46593 13.148 10
    endloop
  endfacet
  facet normal 0 0 1
    outer loop
      vertex -7.29718 13.2731 10
      vertex -8 14.5 10
      vertex -7.40265 13.2262 10
    endloop
  endfacet
  facet normal 0 0 1
    outer loop
      vertex -7.14952 13.2887 10
      vertex -8 14.5 10
      vertex -7.29718 13.2731 10
    endloop
  endfacet
  facet normal -0 0 1
    outer loop
      vertex -1.24993 7.17285 10
      vertex 0 2.5 10
      vertex -1.24993 9.03459 10
    endloop
  endfacet
  facet normal -0 0 1
    outer loop
      vertex -1.5788 6.88901 10
      vertex 0 2.5 10
      vertex -1.24993 7.17285 10
    endloop
  endfacet
  facet normal -0 0 1
    outer loop
      vertex -1.89049 6.64969 10
      vertex 0 2.5 10
      vertex -1.5788 6.88901 10
    endloop
  endfacet
  facet normal -0 0 1
    outer loop
      vertex -2.185 6.45485 10
      vertex 0 2.5 10
      vertex -1.89049 6.64969 10
    endloop
  endfacet
  facet normal -0 0 1
    outer loop
      vertex -2.46233 6.30453 10
      vertex 0 2.5 10
      vertex -2.185 6.45485 10
    endloop
  endfacet
  facet normal -0 0 1
    outer loop
      vertex -2.73497 6.19249 10
      vertex 0 2.5 10
      vertex -2.46233 6.30453 10
    endloop
  endfacet
  facet normal -0 0 1
    outer loop
      vertex -3.01541 6.11244 10
      vertex 0 2.5 10
      vertex -2.73497 6.19249 10
    endloop
  endfacet
  facet normal -0 0 1
    outer loop
      vertex -3.30368 6.06442 10
      vertex 0 2.5 10
      vertex -3.01541 6.11244 10
    endloop
  endfacet
  facet normal -0 0 1
    outer loop
      vertex -3.59975 6.0484 10
      vertex 0 2.5 10
      vertex -3.30368 6.06442 10
    endloop
  endfacet
  facet normal 0 0 1
    outer loop
      vertex -8 2.5 10
      vertex -3.59975 6.0484 10
      vertex -4.06418 6.09023 10
    endloop
  endfacet
  facet normal 0 0 1
    outer loop
      vertex -8 2.5 10
      vertex -4.06418 6.09023 10
      vertex -4.49501 6.21565 10
    endloop
  endfacet
  facet normal 0 0 1
    outer loop
      vertex -8 2.5 10
      vertex -4.49501 6.21565 10
      vertex -4.89226 6.42468 10
    endloop
  endfacet
  facet normal 0 0 1
    outer loop
      vertex -7.29718 12.7925 10
      vertex -5.94965 8.3118 10
      vertex -7.14952 12.7761 10
    endloop
  endfacet
  facet normal 0 0 1
    outer loop
      vertex -7.40265 12.8417 10
      vertex -5.94965 8.3118 10
      vertex -7.29718 12.7925 10
    endloop
  endfacet
  facet normal 0 0 1
    outer loop
      vertex -7.46593 12.9238 10
      vertex -5.94965 8.3118 10
      vertex -7.40265 12.8417 10
    endloop
  endfacet
  facet normal 0 0 1
    outer loop
      vertex -8 2.5 10
      vertex -5.94965 8.3118 10
      vertex -7.46593 12.9238 10
    endloop
  endfacet
  facet normal 0 0 1
    outer loop
      vertex -8 14.5 10
      vertex -7.46593 12.9238 10
      vertex -7.48702 13.0386 10
    endloop
  endfacet
  facet normal 0 0 1
    outer loop
      vertex -8 2.5 10
      vertex -7.46593 12.9238 10
      vertex -8 14.5 10
    endloop
  endfacet
  facet normal 0 0 1
    outer loop
      vertex -5.94965 8.3118 10
      vertex -8 2.5 10
      vertex -5.90628 7.86513 10
    endloop
  endfacet
  facet normal 0 0 1
    outer loop
      vertex -3.59975 6.0484 10
      vertex -8 2.5 10
      vertex 0 2.5 10
    endloop
  endfacet
  facet normal 0 0 1
    outer loop
      vertex -5.25592 6.71736 10
      vertex -8 2.5 10
      vertex -4.89226 6.42468 10
    endloop
  endfacet
  facet normal 0 0 1
    outer loop
      vertex -5.55942 7.06792 10
      vertex -8 2.5 10
      vertex -5.25592 6.71736 10
    endloop
  endfacet
  facet normal 0 0 1
    outer loop
      vertex -5.77622 7.4505 10
      vertex -8 2.5 10
      vertex -5.55942 7.06792 10
    endloop
  endfacet
  facet normal 0 0 1
    outer loop
      vertex -5.90628 7.86513 10
      vertex -8 2.5 10
      vertex -5.77622 7.4505 10
    endloop
  endfacet
  facet normal 0 0 1
    outer loop
      vertex -1.62175 9.35083 10
      vertex -3.30214 12.7925 10
      vertex -1.69989 9.28758 10
    endloop
  endfacet
  facet normal -0 0 1
    outer loop
      vertex -3.4498 12.7761 10
      vertex -1.69989 9.28758 10
      vertex -3.30214 12.7925 10
    endloop
  endfacet
  facet normal 0 0 1
    outer loop
      vertex -5.43718 8.31171 10
      vertex -1.69989 9.28758 10
      vertex -3.4498 12.7761 10
    endloop
  endfacet
  facet normal 0 -0 1
    outer loop
      vertex -3.15448 6.61412 10
      vertex -1.76239 9.03459 10
      vertex -5.43718 8.31171 10
    endloop
  endfacet
  facet normal 0 0 1
    outer loop
      vertex -1.69989 9.28758 10
      vertex -5.43718 8.31171 10
      vertex -1.74677 9.18217 10
    endloop
  endfacet
  facet normal 0 0 1
    outer loop
      vertex -1.76239 9.03459 10
      vertex -3.15448 6.61412 10
      vertex -2.69358 6.77341 10
    endloop
  endfacet
  facet normal 0 0 1
    outer loop
      vertex -3.15448 6.61412 10
      vertex -5.43718 8.31171 10
      vertex -3.61225 6.56104 10
    endloop
  endfacet
  facet normal 0 0 1
    outer loop
      vertex -3.61225 6.56104 10
      vertex -5.43718 8.31171 10
      vertex -3.97904 6.59308 10
    endloop
  endfacet
  facet normal 0 0 1
    outer loop
      vertex -3.97904 6.59308 10
      vertex -5.43718 8.31171 10
      vertex -4.31691 6.68921 10
    endloop
  endfacet
  facet normal 0 0 1
    outer loop
      vertex -4.31691 6.68921 10
      vertex -5.43718 8.31171 10
      vertex -4.62587 6.84944 10
    endloop
  endfacet
  facet normal 0 0 1
    outer loop
      vertex -4.62587 6.84944 10
      vertex -5.43718 8.31171 10
      vertex -4.90592 7.07376 10
    endloop
  endfacet
  facet normal 0 0 1
    outer loop
      vertex -4.90592 7.07376 10
      vertex -5.43718 8.31171 10
      vertex -5.13834 7.34341 10
    endloop
  endfacet
  facet normal 0 0 1
    outer loop
      vertex -5.13834 7.34341 10
      vertex -5.43718 8.31171 10
      vertex -5.30437 7.63962 10
    endloop
  endfacet
  facet normal 0 0 1
    outer loop
      vertex -5.43718 8.31171 10
      vertex -3.4498 12.7761 10
      vertex -5.43718 12.7761 10
    endloop
  endfacet
  facet normal 0 0 1
    outer loop
      vertex -5.30437 7.63962 10
      vertex -5.43718 8.31171 10
      vertex -5.40398 7.96239 10
    endloop
  endfacet
  facet normal -1 0 0
    outer loop
      vertex -8 0 3
      vertex -8 17 3
      vertex -8 17 0
    endloop
  endfacet
  facet normal -1 0 0
    outer loop
      vertex -8 17 3
      vertex -8 0 3
      vertex -8 14.5 10
    endloop
  endfacet
  facet normal -1 0 0
    outer loop
      vertex -8 0 3
      vertex -8 17 0
      vertex -8 0 0
    endloop
  endfacet
  facet normal -1 -0 0
    outer loop
      vertex -8 14.5 10
      vertex -8 0 3
      vertex -8 2.5 10
    endloop
  endfacet
  facet normal 0 1 -0
    outer loop
      vertex 0 17 0
      vertex -8 17 3
      vertex 0 17 3
    endloop
  endfacet
  facet normal 0 1 0
    outer loop
      vertex -8 17 3
      vertex 0 17 0
      vertex -8 17 0
    endloop
  endfacet
  facet normal 0 0 -1
    outer loop
      vertex -8 0 0
      vertex 0 17 0
      vertex 0 0 0
    endloop
  endfacet
  facet normal -0 0 -1
    outer loop
      vertex 0 17 0
      vertex -8 0 0
      vertex -8 17 0
    endloop
  endfacet
  facet normal 1 0 0
    outer loop
      vertex 0 0 3
      vertex 0 17 3
      vertex 0 14.5 10
    endloop
  endfacet
  facet normal 1 0 0
    outer loop
      vertex 0 0 3
      vertex 0 14.5 10
      vertex 0 2.5 10
    endloop
  endfacet
  facet normal 1 0 0
    outer loop
      vertex 0 17 3
      vertex 0 0 3
      vertex 0 17 0
    endloop
  endfacet
  facet normal 1 0 0
    outer loop
      vertex 0 17 0
      vertex 0 0 3
      vertex 0 0 0
    endloop
  endfacet
  facet normal 0 -0.941742 0.336336
    outer loop
      vertex -8 0 3
      vertex 0 2.5 10
      vertex -8 2.5 10
    endloop
  endfacet
  facet normal 0 -0.941742 0.336336
    outer loop
      vertex 0 2.5 10
      vertex -8 0 3
      vertex 0 0 3
    endloop
  endfacet
  facet normal 0 -1 0
    outer loop
      vertex -8 0 0
      vertex 0 0 3
      vertex -8 0 3
    endloop
  endfacet
  facet normal 0 -1 -0
    outer loop
      vertex 0 0 3
      vertex -8 0 0
      vertex 0 0 0
    endloop
  endfacet
  facet normal 0 0.941742 0.336336
    outer loop
      vertex 0 17 3
      vertex -8 14.5 10
      vertex 0 14.5 10
    endloop
  endfacet
  facet normal 0 0.941742 0.336336
    outer loop
      vertex -8 14.5 10
      vertex 0 17 3
      vertex -8 17 3
    endloop
  endfacet
  facet normal 0 0 1
    outer loop
      vertex -3.19667 13.2262 11.99
      vertex -3.11231 13.0386 11.99
      vertex -3.1334 13.148 11.99
    endloop
  endfacet
  facet normal 0 0 1
    outer loop
      vertex -3.11231 13.0386 11.99
      vertex -3.19667 13.2262 11.99
      vertex -3.30214 13.2731 11.99
    endloop
  endfacet
  facet normal 0 0 1
    outer loop
      vertex -3.30214 12.7925 11.99
      vertex -3.11231 13.0386 11.99
      vertex -3.30214 13.2731 11.99
    endloop
  endfacet
  facet normal 0 0 1
    outer loop
      vertex -3.11231 13.0386 11.99
      vertex -3.30214 12.7925 11.99
      vertex -3.1334 12.9238 11.99
    endloop
  endfacet
  facet normal 0 0 1
    outer loop
      vertex -3.1334 12.9238 11.99
      vertex -3.30214 12.7925 11.99
      vertex -3.19667 12.8417 11.99
    endloop
  endfacet
  facet normal 0 0 1
    outer loop
      vertex -3.4498 13.2887 11.99
      vertex -3.30214 12.7925 11.99
      vertex -3.30214 13.2731 11.99
    endloop
  endfacet
  facet normal 0 0 1
    outer loop
      vertex -3.4498 13.2887 11.99
      vertex -3.4498 12.7761 11.99
      vertex -3.30214 12.7925 11.99
    endloop
  endfacet
  facet normal 0 0 1
    outer loop
      vertex -3.4498 13.2887 11.99
      vertex -5.43718 12.7761 11.99
      vertex -3.4498 12.7761 11.99
    endloop
  endfacet
  facet normal -0 0 1
    outer loop
      vertex -5.94965 8.3118 11.99
      vertex -5.43718 8.31171 11.99
      vertex -5.43718 12.7761 11.99
    endloop
  endfacet
  facet normal 0 -0 1
    outer loop
      vertex -5.90628 7.86513 11.99
      vertex -5.43718 8.31171 11.99
      vertex -5.94965 8.3118 11.99
    endloop
  endfacet
  facet normal 0 0 1
    outer loop
      vertex -5.43718 8.31171 11.99
      vertex -5.77622 7.4505 11.99
      vertex -5.55942 7.06792 11.99
    endloop
  endfacet
  facet normal 0 0 1
    outer loop
      vertex -5.94965 8.3118 11.99
      vertex -5.43718 12.7761 11.99
      vertex -5.94965 12.7761 11.99
    endloop
  endfacet
  facet normal -0 0 1
    outer loop
      vertex -7.14952 13.2887 11.99
      vertex -5.43718 12.7761 11.99
      vertex -3.4498 13.2887 11.99
    endloop
  endfacet
  facet normal 0 0 1
    outer loop
      vertex -5.43718 12.7761 11.99
      vertex -7.14952 13.2887 11.99
      vertex -5.94965 12.7761 11.99
    endloop
  endfacet
  facet normal 0 0 1
    outer loop
      vertex -7.14952 13.2887 11.99
      vertex -7.14952 12.7761 11.99
      vertex -5.94965 12.7761 11.99
    endloop
  endfacet
  facet normal -0 0 1
    outer loop
      vertex -7.29718 13.2731 11.99
      vertex -7.14952 12.7761 11.99
      vertex -7.14952 13.2887 11.99
    endloop
  endfacet
  facet normal 0 0 1
    outer loop
      vertex -7.29718 13.2731 11.99
      vertex -7.29718 12.7925 11.99
      vertex -7.14952 12.7761 11.99
    endloop
  endfacet
  facet normal 0 0 1
    outer loop
      vertex -7.48702 13.0386 11.99
      vertex -7.29718 13.2731 11.99
      vertex -7.40265 13.2262 11.99
    endloop
  endfacet
  facet normal 0 0 1
    outer loop
      vertex -7.29718 13.2731 11.99
      vertex -7.48702 13.0386 11.99
      vertex -7.29718 12.7925 11.99
    endloop
  endfacet
  facet normal 0 0 1
    outer loop
      vertex -7.48702 13.0386 11.99
      vertex -7.40265 13.2262 11.99
      vertex -7.46593 13.148 11.99
    endloop
  endfacet
  facet normal 0 0 1
    outer loop
      vertex -7.29718 12.7925 11.99
      vertex -7.48702 13.0386 11.99
      vertex -7.40265 12.8417 11.99
    endloop
  endfacet
  facet normal 0 0 1
    outer loop
      vertex -7.40265 12.8417 11.99
      vertex -7.48702 13.0386 11.99
      vertex -7.46593 12.9238 11.99
    endloop
  endfacet
  facet normal 0 0 1
    outer loop
      vertex -1.76239 9.03459 11.99
      vertex -1.24993 9.03459 11.99
      vertex -1.26633 9.18217 11.99
    endloop
  endfacet
  facet normal 0 0 1
    outer loop
      vertex -1.51238 9.37192 11.99
      vertex -1.26633 9.18217 11.99
      vertex -1.31554 9.28758 11.99
    endloop
  endfacet
  facet normal 0 0 1
    outer loop
      vertex -1.51238 9.37192 11.99
      vertex -1.31554 9.28758 11.99
      vertex -1.39756 9.35083 11.99
    endloop
  endfacet
  facet normal 0 0 1
    outer loop
      vertex -1.26633 9.18217 11.99
      vertex -1.51238 9.37192 11.99
      vertex -1.74677 9.18217 11.99
    endloop
  endfacet
  facet normal 0 0 1
    outer loop
      vertex -1.24993 9.03459 11.99
      vertex -1.76239 9.03459 11.99
      vertex -1.76239 7.41054 11.99
    endloop
  endfacet
  facet normal 0 0 1
    outer loop
      vertex -1.69989 9.28758 11.99
      vertex -1.51238 9.37192 11.99
      vertex -1.62175 9.35083 11.99
    endloop
  endfacet
  facet normal 0 0 1
    outer loop
      vertex -1.51238 9.37192 11.99
      vertex -1.69989 9.28758 11.99
      vertex -1.74677 9.18217 11.99
    endloop
  endfacet
  facet normal 0 0 1
    outer loop
      vertex -1.26633 9.18217 11.99
      vertex -1.74677 9.18217 11.99
      vertex -1.76239 9.03459 11.99
    endloop
  endfacet
  facet normal 0 0 1
    outer loop
      vertex -1.24993 9.03459 11.99
      vertex -1.76239 7.41054 11.99
      vertex -1.24993 7.17285 11.99
    endloop
  endfacet
  facet normal 0 0 1
    outer loop
      vertex -1.24993 7.17285 11.99
      vertex -1.76239 7.41054 11.99
      vertex -1.5788 6.88901 11.99
    endloop
  endfacet
  facet normal -0 0 1
    outer loop
      vertex -2.22954 7.03888 11.99
      vertex -1.5788 6.88901 11.99
      vertex -1.76239 7.41054 11.99
    endloop
  endfacet
  facet normal 0 0 1
    outer loop
      vertex -1.5788 6.88901 11.99
      vertex -2.22954 7.03888 11.99
      vertex -1.89049 6.64969 11.99
    endloop
  endfacet
  facet normal 0 0 1
    outer loop
      vertex -1.89049 6.64969 11.99
      vertex -2.22954 7.03888 11.99
      vertex -2.185 6.45485 11.99
    endloop
  endfacet
  facet normal -0 0 1
    outer loop
      vertex -2.69358 6.77341 11.99
      vertex -2.185 6.45485 11.99
      vertex -2.22954 7.03888 11.99
    endloop
  endfacet
  facet normal 0 0 1
    outer loop
      vertex -2.185 6.45485 11.99
      vertex -2.69358 6.77341 11.99
      vertex -2.46233 6.30453 11.99
    endloop
  endfacet
  facet normal 0 0 1
    outer loop
      vertex -2.69358 6.77341 11.99
      vertex -2.73497 6.19249 11.99
      vertex -2.46233 6.30453 11.99
    endloop
  endfacet
  facet normal -0 0 1
    outer loop
      vertex -3.15448 6.61412 11.99
      vertex -2.73497 6.19249 11.99
      vertex -2.69358 6.77341 11.99
    endloop
  endfacet
  facet normal 0 0 1
    outer loop
      vertex -2.73497 6.19249 11.99
      vertex -3.15448 6.61412 11.99
      vertex -3.01541 6.11244 11.99
    endloop
  endfacet
  facet normal 0 0 1
    outer loop
      vertex -3.15448 6.61412 11.99
      vertex -3.30368 6.06442 11.99
      vertex -3.01541 6.11244 11.99
    endloop
  endfacet
  facet normal -0 0 1
    outer loop
      vertex -3.61225 6.56104 11.99
      vertex -3.30368 6.06442 11.99
      vertex -3.15448 6.61412 11.99
    endloop
  endfacet
  facet normal 0 0 1
    outer loop
      vertex -3.30368 6.06442 11.99
      vertex -3.61225 6.56104 11.99
      vertex -3.59975 6.0484 11.99
    endloop
  endfacet
  facet normal 0 0 1
    outer loop
      vertex -4.06418 6.09023 11.99
      vertex -3.61225 6.56104 11.99
      vertex -3.97904 6.59308 11.99
    endloop
  endfacet
  facet normal 0 0 1
    outer loop
      vertex -3.61225 6.56104 11.99
      vertex -4.06418 6.09023 11.99
      vertex -3.59975 6.0484 11.99
    endloop
  endfacet
  facet normal 0 0 1
    outer loop
      vertex -4.49501 6.21565 11.99
      vertex -3.97904 6.59308 11.99
      vertex -4.31691 6.68921 11.99
    endloop
  endfacet
  facet normal 0 0 1
    outer loop
      vertex -3.97904 6.59308 11.99
      vertex -4.49501 6.21565 11.99
      vertex -4.06418 6.09023 11.99
    endloop
  endfacet
  facet normal 0 0 1
    outer loop
      vertex -4.89226 6.42468 11.99
      vertex -4.31691 6.68921 11.99
      vertex -4.62587 6.84944 11.99
    endloop
  endfacet
  facet normal 0 0 1
    outer loop
      vertex -4.31691 6.68921 11.99
      vertex -4.89226 6.42468 11.99
      vertex -4.49501 6.21565 11.99
    endloop
  endfacet
  facet normal 0 0 1
    outer loop
      vertex -5.25592 6.71736 11.99
      vertex -4.62587 6.84944 11.99
      vertex -4.90592 7.07376 11.99
    endloop
  endfacet
  facet normal 0 0 1
    outer loop
      vertex -5.25592 6.71736 11.99
      vertex -4.90592 7.07376 11.99
      vertex -5.13834 7.34341 11.99
    endloop
  endfacet
  facet normal 0 0 1
    outer loop
      vertex -4.62587 6.84944 11.99
      vertex -5.25592 6.71736 11.99
      vertex -4.89226 6.42468 11.99
    endloop
  endfacet
  facet normal 0 0 1
    outer loop
      vertex -5.55942 7.06792 11.99
      vertex -5.13834 7.34341 11.99
      vertex -5.30437 7.63962 11.99
    endloop
  endfacet
  facet normal 0 0 1
    outer loop
      vertex -5.55942 7.06792 11.99
      vertex -5.30437 7.63962 11.99
      vertex -5.40398 7.96239 11.99
    endloop
  endfacet
  facet normal 0 0 1
    outer loop
      vertex -5.13834 7.34341 11.99
      vertex -5.55942 7.06792 11.99
      vertex -5.25592 6.71736 11.99
    endloop
  endfacet
  facet normal 0 0 1
    outer loop
      vertex -5.55942 7.06792 11.99
      vertex -5.40398 7.96239 11.99
      vertex -5.43718 8.31171 11.99
    endloop
  endfacet
  facet normal 0 0 1
    outer loop
      vertex -5.43718 8.31171 11.99
      vertex -5.90628 7.86513 11.99
      vertex -5.77622 7.4505 11.99
    endloop
  endfacet
  facet normal -0.27951 -0.960143 0
    outer loop
      vertex -4.49501 6.21565 10
      vertex -4.06418 6.09023 11.99
      vertex -4.49501 6.21565 11.99
    endloop
  endfacet
  facet normal -0.27951 -0.960143 -0
    outer loop
      vertex -4.06418 6.09023 11.99
      vertex -4.49501 6.21565 10
      vertex -4.06418 6.09023 10
    endloop
  endfacet
  facet normal -0.465661 -0.884963 0
    outer loop
      vertex -4.89226 6.42468 10
      vertex -4.49501 6.21565 11.99
      vertex -4.89226 6.42468 11.99
    endloop
  endfacet
  facet normal -0.465661 -0.884963 -0
    outer loop
      vertex -4.49501 6.21565 11.99
      vertex -4.89226 6.42468 10
      vertex -4.49501 6.21565 10
    endloop
  endfacet
  facet normal -0.626981 -0.779035 0
    outer loop
      vertex -5.25592 6.71736 10
      vertex -4.89226 6.42468 11.99
      vertex -5.25592 6.71736 11.99
    endloop
  endfacet
  facet normal -0.626981 -0.779035 -0
    outer loop
      vertex -4.89226 6.42468 11.99
      vertex -5.25592 6.71736 10
      vertex -4.89226 6.42468 10
    endloop
  endfacet
  facet normal -0.756029 -0.654538 0
    outer loop
      vertex -5.25592 6.71736 10
      vertex -5.55942 7.06792 11.99
      vertex -5.55942 7.06792 10
    endloop
  endfacet
  facet normal -0.756029 -0.654538 0
    outer loop
      vertex -5.55942 7.06792 11.99
      vertex -5.25592 6.71736 10
      vertex -5.25592 6.71736 11.99
    endloop
  endfacet
  facet normal -0.870018 -0.493021 0
    outer loop
      vertex -5.55942 7.06792 10
      vertex -5.77622 7.4505 11.99
      vertex -5.77622 7.4505 10
    endloop
  endfacet
  facet normal -0.870018 -0.493021 0
    outer loop
      vertex -5.77622 7.4505 11.99
      vertex -5.55942 7.06792 10
      vertex -5.55942 7.06792 11.99
    endloop
  endfacet
  facet normal -0.95416 -0.299298 0
    outer loop
      vertex -5.77622 7.4505 10
      vertex -5.90628 7.86513 11.99
      vertex -5.90628 7.86513 10
    endloop
  endfacet
  facet normal -0.95416 -0.299298 0
    outer loop
      vertex -5.90628 7.86513 11.99
      vertex -5.77622 7.4505 10
      vertex -5.77622 7.4505 11.99
    endloop
  endfacet
  facet normal -0.995319 -0.0966418 0
    outer loop
      vertex -5.90628 7.86513 10
      vertex -5.94965 8.3118 11.99
      vertex -5.94965 8.3118 10
    endloop
  endfacet
  facet normal -0.995319 -0.0966418 0
    outer loop
      vertex -5.94965 8.3118 11.99
      vertex -5.90628 7.86513 10
      vertex -5.90628 7.86513 11.99
    endloop
  endfacet
  facet normal -1 0 0
    outer loop
      vertex -5.94965 8.3118 10
      vertex -5.94965 12.7761 11.99
      vertex -5.94965 12.7761 10
    endloop
  endfacet
  facet normal -1 -0 0
    outer loop
      vertex -5.94965 12.7761 11.99
      vertex -5.94965 8.3118 10
      vertex -5.94965 8.3118 11.99
    endloop
  endfacet
  facet normal 0 -1 0
    outer loop
      vertex -7.14952 12.7761 10
      vertex -5.94965 12.7761 11.99
      vertex -7.14952 12.7761 11.99
    endloop
  endfacet
  facet normal 0 -1 -0
    outer loop
      vertex -5.94965 12.7761 11.99
      vertex -7.14952 12.7761 10
      vertex -5.94965 12.7761 10
    endloop
  endfacet
  facet normal -0.110387 -0.993889 0
    outer loop
      vertex -7.29718 12.7925 10
      vertex -7.14952 12.7761 11.99
      vertex -7.29718 12.7925 11.99
    endloop
  endfacet
  facet normal -0.110387 -0.993889 -0
    outer loop
      vertex -7.14952 12.7761 11.99
      vertex -7.29718 12.7925 10
      vertex -7.14952 12.7761 10
    endloop
  endfacet
  facet normal -0.422749 -0.906247 0
    outer loop
      vertex -7.40265 12.8417 10
      vertex -7.29718 12.7925 11.99
      vertex -7.40265 12.8417 11.99
    endloop
  endfacet
  facet normal -0.422749 -0.906247 -0
    outer loop
      vertex -7.29718 12.7925 11.99
      vertex -7.40265 12.8417 10
      vertex -7.29718 12.7925 10
    endloop
  endfacet
  facet normal -0.792035 -0.610475 0
    outer loop
      vertex -7.40265 12.8417 10
      vertex -7.46593 12.9238 11.99
      vertex -7.46593 12.9238 10
    endloop
  endfacet
  facet normal -0.792035 -0.610475 0
    outer loop
      vertex -7.46593 12.9238 11.99
      vertex -7.40265 12.8417 10
      vertex -7.40265 12.8417 11.99
    endloop
  endfacet
  facet normal -0.983541 -0.180687 0
    outer loop
      vertex -7.46593 12.9238 10
      vertex -7.48702 13.0386 11.99
      vertex -7.48702 13.0386 10
    endloop
  endfacet
  facet normal -0.983541 -0.180687 0
    outer loop
      vertex -7.48702 13.0386 11.99
      vertex -7.46593 12.9238 10
      vertex -7.46593 12.9238 11.99
    endloop
  endfacet
  facet normal -0.981921 0.189293 0
    outer loop
      vertex -7.48702 13.0386 10
      vertex -7.46593 13.148 11.99
      vertex -7.46593 13.148 10
    endloop
  endfacet
  facet normal -0.981921 0.189293 0
    outer loop
      vertex -7.46593 13.148 11.99
      vertex -7.48702 13.0386 10
      vertex -7.48702 13.0386 11.99
    endloop
  endfacet
  facet normal -0.777365 0.62905 0
    outer loop
      vertex -7.46593 13.148 10
      vertex -7.40265 13.2262 11.99
      vertex -7.40265 13.2262 10
    endloop
  endfacet
  facet normal -0.777365 0.62905 0
    outer loop
      vertex -7.40265 13.2262 11.99
      vertex -7.46593 13.148 10
      vertex -7.46593 13.148 11.99
    endloop
  endfacet
  facet normal -0.406315 0.913733 0
    outer loop
      vertex -7.29718 13.2731 10
      vertex -7.40265 13.2262 11.99
      vertex -7.29718 13.2731 11.99
    endloop
  endfacet
  facet normal -0.406315 0.913733 0
    outer loop
      vertex -7.40265 13.2262 11.99
      vertex -7.29718 13.2731 10
      vertex -7.40265 13.2262 10
    endloop
  endfacet
  facet normal -0.105063 0.994466 0
    outer loop
      vertex -7.14952 13.2887 10
      vertex -7.29718 13.2731 11.99
      vertex -7.14952 13.2887 11.99
    endloop
  endfacet
  facet normal -0.105063 0.994466 0
    outer loop
      vertex -7.29718 13.2731 11.99
      vertex -7.14952 13.2887 10
      vertex -7.29718 13.2731 10
    endloop
  endfacet
  facet normal 0 1 -0
    outer loop
      vertex -3.4498 13.2887 10
      vertex -7.14952 13.2887 11.99
      vertex -3.4498 13.2887 11.99
    endloop
  endfacet
  facet normal 0 1 0
    outer loop
      vertex -7.14952 13.2887 11.99
      vertex -3.4498 13.2887 10
      vertex -7.14952 13.2887 10
    endloop
  endfacet
  facet normal 0.105063 0.994466 -0
    outer loop
      vertex -3.30214 13.2731 10
      vertex -3.4498 13.2887 11.99
      vertex -3.30214 13.2731 11.99
    endloop
  endfacet
  facet normal 0.105063 0.994466 0
    outer loop
      vertex -3.4498 13.2887 11.99
      vertex -3.30214 13.2731 10
      vertex -3.4498 13.2887 10
    endloop
  endfacet
  facet normal 0.406315 0.913733 -0
    outer loop
      vertex -3.19667 13.2262 10
      vertex -3.30214 13.2731 11.99
      vertex -3.19667 13.2262 11.99
    endloop
  endfacet
  facet normal 0.406315 0.913733 0
    outer loop
      vertex -3.30214 13.2731 11.99
      vertex -3.19667 13.2262 10
      vertex -3.30214 13.2731 10
    endloop
  endfacet
  facet normal 0.777414 0.628989 0
    outer loop
      vertex -3.1334 13.148 11.99
      vertex -3.19667 13.2262 10
      vertex -3.19667 13.2262 11.99
    endloop
  endfacet
  facet normal 0.777414 0.628989 0
    outer loop
      vertex -3.19667 13.2262 10
      vertex -3.1334 13.148 11.99
      vertex -3.1334 13.148 10
    endloop
  endfacet
  facet normal 0.981921 0.189293 0
    outer loop
      vertex -3.11231 13.0386 11.99
      vertex -3.1334 13.148 10
      vertex -3.1334 13.148 11.99
    endloop
  endfacet
  facet normal 0.981921 0.189293 0
    outer loop
      vertex -3.1334 13.148 10
      vertex -3.11231 13.0386 11.99
      vertex -3.11231 13.0386 10
    endloop
  endfacet
  facet normal 0.983541 -0.180687 0
    outer loop
      vertex -3.1334 12.9238 11.99
      vertex -3.11231 13.0386 10
      vertex -3.11231 13.0386 11.99
    endloop
  endfacet
  facet normal 0.983541 -0.180687 0
    outer loop
      vertex -3.11231 13.0386 10
      vertex -3.1334 12.9238 11.99
      vertex -3.1334 12.9238 10
    endloop
  endfacet
  facet normal 0.792082 -0.610415 0
    outer loop
      vertex -3.19667 12.8417 11.99
      vertex -3.1334 12.9238 10
      vertex -3.1334 12.9238 11.99
    endloop
  endfacet
  facet normal 0.792082 -0.610415 0
    outer loop
      vertex -3.1334 12.9238 10
      vertex -3.19667 12.8417 11.99
      vertex -3.19667 12.8417 10
    endloop
  endfacet
  facet normal 0.422749 -0.906247 0
    outer loop
      vertex -3.30214 12.7925 10
      vertex -3.19667 12.8417 11.99
      vertex -3.30214 12.7925 11.99
    endloop
  endfacet
  facet normal 0.422749 -0.906247 0
    outer loop
      vertex -3.19667 12.8417 11.99
      vertex -3.30214 12.7925 10
      vertex -3.19667 12.8417 10
    endloop
  endfacet
  facet normal 0.110387 -0.993889 0
    outer loop
      vertex -3.4498 12.7761 10
      vertex -3.30214 12.7925 11.99
      vertex -3.4498 12.7761 11.99
    endloop
  endfacet
  facet normal 0.110387 -0.993889 0
    outer loop
      vertex -3.30214 12.7925 11.99
      vertex -3.4498 12.7761 10
      vertex -3.30214 12.7925 10
    endloop
  endfacet
  facet normal 0 -1 0
    outer loop
      vertex -5.43718 12.7761 10
      vertex -3.4498 12.7761 11.99
      vertex -5.43718 12.7761 11.99
    endloop
  endfacet
  facet normal 0 -1 -0
    outer loop
      vertex -3.4498 12.7761 11.99
      vertex -5.43718 12.7761 10
      vertex -3.4498 12.7761 10
    endloop
  endfacet
  facet normal 1 -0 0
    outer loop
      vertex -5.43718 8.31171 11.99
      vertex -5.43718 12.7761 10
      vertex -5.43718 12.7761 11.99
    endloop
  endfacet
  facet normal 1 0 0
    outer loop
      vertex -5.43718 12.7761 10
      vertex -5.43718 8.31171 11.99
      vertex -5.43718 8.31171 10
    endloop
  endfacet
  facet normal 0.995514 0.0946154 0
    outer loop
      vertex -5.40398 7.96239 11.99
      vertex -5.43718 8.31171 10
      vertex -5.43718 8.31171 11.99
    endloop
  endfacet
  facet normal 0.995514 0.0946154 0
    outer loop
      vertex -5.43718 8.31171 10
      vertex -5.40398 7.96239 11.99
      vertex -5.40398 7.96239 10
    endloop
  endfacet
  facet normal 0.955532 0.294887 0
    outer loop
      vertex -5.30437 7.63962 11.99
      vertex -5.40398 7.96239 10
      vertex -5.40398 7.96239 11.99
    endloop
  endfacet
  facet normal 0.955532 0.294887 0
    outer loop
      vertex -5.40398 7.96239 10
      vertex -5.30437 7.63962 11.99
      vertex -5.30437 7.63962 10
    endloop
  endfacet
  facet normal 0.872315 0.488945 0
    outer loop
      vertex -5.13834 7.34341 11.99
      vertex -5.30437 7.63962 10
      vertex -5.30437 7.63962 11.99
    endloop
  endfacet
  facet normal 0.872315 0.488945 0
    outer loop
      vertex -5.30437 7.63962 10
      vertex -5.13834 7.34341 11.99
      vertex -5.13834 7.34341 10
    endloop
  endfacet
  facet normal 0.757461 0.65288 0
    outer loop
      vertex -4.90592 7.07376 11.99
      vertex -5.13834 7.34341 10
      vertex -5.13834 7.34341 11.99
    endloop
  endfacet
  facet normal 0.757461 0.65288 0
    outer loop
      vertex -5.13834 7.34341 10
      vertex -4.90592 7.07376 11.99
      vertex -4.90592 7.07376 10
    endloop
  endfacet
  facet normal 0.625171 0.780488 -0
    outer loop
      vertex -4.62587 6.84944 10
      vertex -4.90592 7.07376 11.99
      vertex -4.62587 6.84944 11.99
    endloop
  endfacet
  facet normal 0.625171 0.780488 0
    outer loop
      vertex -4.90592 7.07376 11.99
      vertex -4.62587 6.84944 10
      vertex -4.90592 7.07376 10
    endloop
  endfacet
  facet normal 0.460382 0.887721 -0
    outer loop
      vertex -4.31691 6.68921 10
      vertex -4.62587 6.84944 11.99
      vertex -4.31691 6.68921 11.99
    endloop
  endfacet
  facet normal 0.460382 0.887721 0
    outer loop
      vertex -4.62587 6.84944 11.99
      vertex -4.31691 6.68921 10
      vertex -4.62587 6.84944 10
    endloop
  endfacet
  facet normal 0.273657 0.961827 -0
    outer loop
      vertex -3.97904 6.59308 10
      vertex -4.31691 6.68921 11.99
      vertex -3.97904 6.59308 11.99
    endloop
  endfacet
  facet normal 0.273657 0.961827 0
    outer loop
      vertex -4.31691 6.68921 11.99
      vertex -3.97904 6.59308 10
      vertex -4.31691 6.68921 10
    endloop
  endfacet
  facet normal 0.0870211 0.996206 -0
    outer loop
      vertex -3.61225 6.56104 10
      vertex -3.97904 6.59308 11.99
      vertex -3.61225 6.56104 11.99
    endloop
  endfacet
  facet normal 0.0870211 0.996206 0
    outer loop
      vertex -3.97904 6.59308 11.99
      vertex -3.61225 6.56104 10
      vertex -3.97904 6.59308 10
    endloop
  endfacet
  facet normal -0.115182 0.993344 0
    outer loop
      vertex -3.15448 6.61412 10
      vertex -3.61225 6.56104 11.99
      vertex -3.15448 6.61412 11.99
    endloop
  endfacet
  facet normal -0.115182 0.993344 0
    outer loop
      vertex -3.61225 6.56104 11.99
      vertex -3.15448 6.61412 10
      vertex -3.61225 6.56104 10
    endloop
  endfacet
  facet normal -0.326648 0.945146 0
    outer loop
      vertex -2.69358 6.77341 10
      vertex -3.15448 6.61412 11.99
      vertex -2.69358 6.77341 11.99
    endloop
  endfacet
  facet normal -0.326648 0.945146 0
    outer loop
      vertex -3.15448 6.61412 11.99
      vertex -2.69358 6.77341 10
      vertex -3.15448 6.61412 10
    endloop
  endfacet
  facet normal -0.496568 0.867998 0
    outer loop
      vertex -2.22954 7.03888 10
      vertex -2.69358 6.77341 11.99
      vertex -2.22954 7.03888 11.99
    endloop
  endfacet
  facet normal -0.496568 0.867998 0
    outer loop
      vertex -2.69358 6.77341 11.99
      vertex -2.22954 7.03888 10
      vertex -2.69358 6.77341 10
    endloop
  endfacet
  facet normal -0.622589 0.782549 0
    outer loop
      vertex -1.76239 7.41054 10
      vertex -2.22954 7.03888 11.99
      vertex -1.76239 7.41054 11.99
    endloop
  endfacet
  facet normal -0.622589 0.782549 0
    outer loop
      vertex -2.22954 7.03888 11.99
      vertex -1.76239 7.41054 10
      vertex -2.22954 7.03888 10
    endloop
  endfacet
  facet normal -1 0 0
    outer loop
      vertex -1.76239 7.41054 10
      vertex -1.76239 9.03459 11.99
      vertex -1.76239 9.03459 10
    endloop
  endfacet
  facet normal -1 -0 0
    outer loop
      vertex -1.76239 9.03459 11.99
      vertex -1.76239 7.41054 10
      vertex -1.76239 7.41054 11.99
    endloop
  endfacet
  facet normal -0.994445 0.105253 0
    outer loop
      vertex -1.76239 9.03459 10
      vertex -1.74677 9.18217 11.99
      vertex -1.74677 9.18217 10
    endloop
  endfacet
  facet normal -0.994445 0.105253 0
    outer loop
      vertex -1.74677 9.18217 11.99
      vertex -1.76239 9.03459 10
      vertex -1.76239 9.03459 11.99
    endloop
  endfacet
  facet normal -0.913711 0.406364 0
    outer loop
      vertex -1.74677 9.18217 10
      vertex -1.69989 9.28758 11.99
      vertex -1.69989 9.28758 10
    endloop
  endfacet
  facet normal -0.913711 0.406364 0
    outer loop
      vertex -1.69989 9.28758 11.99
      vertex -1.74677 9.18217 10
      vertex -1.74677 9.18217 11.99
    endloop
  endfacet
  facet normal -0.629161 0.777275 0
    outer loop
      vertex -1.62175 9.35083 10
      vertex -1.69989 9.28758 11.99
      vertex -1.62175 9.35083 11.99
    endloop
  endfacet
  facet normal -0.629161 0.777275 0
    outer loop
      vertex -1.69989 9.28758 11.99
      vertex -1.62175 9.35083 10
      vertex -1.69989 9.28758 10
    endloop
  endfacet
  facet normal -0.189344 0.981911 0
    outer loop
      vertex -1.51238 9.37192 10
      vertex -1.62175 9.35083 11.99
      vertex -1.51238 9.37192 11.99
    endloop
  endfacet
  facet normal -0.189344 0.981911 0
    outer loop
      vertex -1.62175 9.35083 11.99
      vertex -1.51238 9.37192 10
      vertex -1.62175 9.35083 10
    endloop
  endfacet
  facet normal 0.180657 0.983546 -0
    outer loop
      vertex -1.39756 9.35083 10
      vertex -1.51238 9.37192 11.99
      vertex -1.39756 9.35083 11.99
    endloop
  endfacet
  facet normal 0.180657 0.983546 0
    outer loop
      vertex -1.51238 9.37192 11.99
      vertex -1.39756 9.35083 10
      vertex -1.51238 9.37192 10
    endloop
  endfacet
  facet normal 0.610667 0.791888 -0
    outer loop
      vertex -1.31554 9.28758 10
      vertex -1.39756 9.35083 11.99
      vertex -1.31554 9.28758 11.99
    endloop
  endfacet
  facet normal 0.610667 0.791888 0
    outer loop
      vertex -1.39756 9.35083 11.99
      vertex -1.31554 9.28758 10
      vertex -1.39756 9.35083 10
    endloop
  endfacet
  facet normal 0.906122 0.423017 0
    outer loop
      vertex -1.26633 9.18217 11.99
      vertex -1.31554 9.28758 10
      vertex -1.31554 9.28758 11.99
    endloop
  endfacet
  facet normal 0.906122 0.423017 0
    outer loop
      vertex -1.31554 9.28758 10
      vertex -1.26633 9.18217 11.99
      vertex -1.26633 9.18217 10
    endloop
  endfacet
  facet normal 0.993882 0.110446 0
    outer loop
      vertex -1.24993 9.03459 11.99
      vertex -1.26633 9.18217 10
      vertex -1.26633 9.18217 11.99
    endloop
  endfacet
  facet normal 0.993882 0.110446 0
    outer loop
      vertex -1.26633 9.18217 10
      vertex -1.24993 9.03459 11.99
      vertex -1.24993 9.03459 10
    endloop
  endfacet
  facet normal 1 -0 0
    outer loop
      vertex -1.24993 7.17285 11.99
      vertex -1.24993 9.03459 10
      vertex -1.24993 9.03459 11.99
    endloop
  endfacet
  facet normal 1 0 0
    outer loop
      vertex -1.24993 9.03459 10
      vertex -1.24993 7.17285 11.99
      vertex -1.24993 7.17285 10
    endloop
  endfacet
  facet normal 0.653377 -0.757033 0
    outer loop
      vertex -1.5788 6.88901 10
      vertex -1.24993 7.17285 11.99
      vertex -1.5788 6.88901 11.99
    endloop
  endfacet
  facet normal 0.653377 -0.757033 0
    outer loop
      vertex -1.24993 7.17285 11.99
      vertex -1.5788 6.88901 10
      vertex -1.24993 7.17285 10
    endloop
  endfacet
  facet normal 0.609005 -0.793167 0
    outer loop
      vertex -1.89049 6.64969 10
      vertex -1.5788 6.88901 11.99
      vertex -1.89049 6.64969 11.99
    endloop
  endfacet
  facet normal 0.609005 -0.793167 0
    outer loop
      vertex -1.5788 6.88901 11.99
      vertex -1.89049 6.64969 10
      vertex -1.5788 6.88901 10
    endloop
  endfacet
  facet normal 0.551756 -0.834006 0
    outer loop
      vertex -2.185 6.45485 10
      vertex -1.89049 6.64969 11.99
      vertex -2.185 6.45485 11.99
    endloop
  endfacet
  facet normal 0.551756 -0.834006 0
    outer loop
      vertex -1.89049 6.64969 11.99
      vertex -2.185 6.45485 10
      vertex -1.89049 6.64969 10
    endloop
  endfacet
  facet normal 0.476527 -0.87916 0
    outer loop
      vertex -2.46233 6.30453 10
      vertex -2.185 6.45485 11.99
      vertex -2.46233 6.30453 11.99
    endloop
  endfacet
  facet normal 0.476527 -0.87916 0
    outer loop
      vertex -2.185 6.45485 11.99
      vertex -2.46233 6.30453 10
      vertex -2.185 6.45485 10
    endloop
  endfacet
  facet normal 0.380101 -0.924945 0
    outer loop
      vertex -2.73497 6.19249 10
      vertex -2.46233 6.30453 11.99
      vertex -2.73497 6.19249 11.99
    endloop
  endfacet
  facet normal 0.380101 -0.924945 0
    outer loop
      vertex -2.46233 6.30453 11.99
      vertex -2.73497 6.19249 10
      vertex -2.46233 6.30453 10
    endloop
  endfacet
  facet normal 0.274481 -0.961592 0
    outer loop
      vertex -3.01541 6.11244 10
      vertex -2.73497 6.19249 11.99
      vertex -3.01541 6.11244 11.99
    endloop
  endfacet
  facet normal 0.274481 -0.961592 0
    outer loop
      vertex -2.73497 6.19249 11.99
      vertex -3.01541 6.11244 10
      vertex -2.73497 6.19249 10
    endloop
  endfacet
  facet normal 0.164316 -0.986408 0
    outer loop
      vertex -3.30368 6.06442 10
      vertex -3.01541 6.11244 11.99
      vertex -3.30368 6.06442 11.99
    endloop
  endfacet
  facet normal 0.164316 -0.986408 0
    outer loop
      vertex -3.01541 6.11244 11.99
      vertex -3.30368 6.06442 10
      vertex -3.01541 6.11244 10
    endloop
  endfacet
  facet normal 0.0540298 -0.998539 0
    outer loop
      vertex -3.59975 6.0484 10
      vertex -3.30368 6.06442 11.99
      vertex -3.59975 6.0484 11.99
    endloop
  endfacet
  facet normal 0.0540298 -0.998539 0
    outer loop
      vertex -3.30368 6.06442 11.99
      vertex -3.59975 6.0484 10
      vertex -3.30368 6.06442 10
    endloop
  endfacet
  facet normal -0.0897043 -0.995968 0
    outer loop
      vertex -4.06418 6.09023 10
      vertex -3.59975 6.0484 11.99
      vertex -4.06418 6.09023 11.99
    endloop
  endfacet
  facet normal -0.0897043 -0.995968 -0
    outer loop
      vertex -3.59975 6.0484 11.99
      vertex -4.06418 6.09023 10
      vertex -3.59975 6.0484 10
    endloop
  endfacet
endsolid OpenSCAD_Model
