solid OpenSCAD_Model
  facet normal 0 0 1
    outer loop
      vertex -2.26235 9.01398 10
      vertex -3.19979 6.76263 10
      vertex -2.26235 6.76263 10
    endloop
  endfacet
  facet normal -0 0 1
    outer loop
      vertex -3.69663 9.75063 10
      vertex -2.26235 9.01398 10
      vertex -3.27475 9.92281 10
    endloop
  endfacet
  facet normal -0 0 1
    outer loop
      vertex -4.07474 9.52145 10
      vertex -2.26235 9.01398 10
      vertex -3.69663 9.75063 10
    endloop
  endfacet
  facet normal -0 0 1
    outer loop
      vertex -4.40911 9.23528 10
      vertex -2.26235 9.01398 10
      vertex -4.07474 9.52145 10
    endloop
  endfacet
  facet normal 0 0 1
    outer loop
      vertex -2.26235 9.01398 10
      vertex -4.40911 9.23528 10
      vertex -3.19979 6.76263 10
    endloop
  endfacet
  facet normal 0 0 1
    outer loop
      vertex -3.19979 6.76263 10
      vertex -4.40911 9.23528 10
      vertex -3.34745 6.74699 10
    endloop
  endfacet
  facet normal -0 0 1
    outer loop
      vertex -4.69973 8.89212 10
      vertex -3.34745 6.74699 10
      vertex -4.40911 9.23528 10
    endloop
  endfacet
  facet normal 0 0 1
    outer loop
      vertex -0.758563 6.62195 10
      vertex 0 14.5 10
      vertex -0.758563 12.9238 10
    endloop
  endfacet
  facet normal 0 0 1
    outer loop
      vertex 0 14.5 10
      vertex -0.758563 6.62195 10
      vertex -0.737475 6.51253 10
    endloop
  endfacet
  facet normal -0 0 1
    outer loop
      vertex -0.821841 12.8417 10
      vertex -0.758563 6.62195 10
      vertex -0.758563 12.9238 10
    endloop
  endfacet
  facet normal 0 0 1
    outer loop
      vertex -0.821841 12.8417 10
      vertex -0.821841 6.7001 10
      vertex -0.758563 6.62195 10
    endloop
  endfacet
  facet normal -0 0 1
    outer loop
      vertex -0.92731 12.7925 10
      vertex -0.821841 6.7001 10
      vertex -0.821841 12.8417 10
    endloop
  endfacet
  facet normal 0 0 1
    outer loop
      vertex -0.92731 12.7925 10
      vertex -0.92731 6.74699 10
      vertex -0.821841 6.7001 10
    endloop
  endfacet
  facet normal -0 0 1
    outer loop
      vertex -1.07497 12.7761 10
      vertex -0.92731 6.74699 10
      vertex -0.92731 12.7925 10
    endloop
  endfacet
  facet normal 0 0 1
    outer loop
      vertex -1.07497 12.7761 10
      vertex -1.07497 6.76263 10
      vertex -0.92731 6.74699 10
    endloop
  endfacet
  facet normal -0 0 1
    outer loop
      vertex -1.74988 12.7761 10
      vertex -1.07497 6.76263 10
      vertex -1.07497 12.7761 10
    endloop
  endfacet
  facet normal 0 0 1
    outer loop
      vertex -1.07497 6.76263 10
      vertex -1.74988 12.7761 10
      vertex -1.74988 6.76263 10
    endloop
  endfacet
  facet normal 0 0 1
    outer loop
      vertex -0.758563 12.9238 10
      vertex 0 14.5 10
      vertex -0.737475 13.0386 10
    endloop
  endfacet
  facet normal 0 0 1
    outer loop
      vertex 0 14.5 10
      vertex -0.758563 13.148 10
      vertex -0.737475 13.0386 10
    endloop
  endfacet
  facet normal 0 0 1
    outer loop
      vertex 0 14.5 10
      vertex -0.821841 13.2262 10
      vertex -0.758563 13.148 10
    endloop
  endfacet
  facet normal 0 0 1
    outer loop
      vertex 0 14.5 10
      vertex -0.92731 13.2731 10
      vertex -0.821841 13.2262 10
    endloop
  endfacet
  facet normal 0 0 1
    outer loop
      vertex 0 14.5 10
      vertex -1.07497 13.2887 10
      vertex -0.92731 13.2731 10
    endloop
  endfacet
  facet normal 0 0 1
    outer loop
      vertex 0 14.5 10
      vertex -3.19979 13.2887 10
      vertex -1.07497 13.2887 10
    endloop
  endfacet
  facet normal 0 0 1
    outer loop
      vertex 0 14.5 10
      vertex -3.34745 13.2731 10
      vertex -3.19979 13.2887 10
    endloop
  endfacet
  facet normal 0 0 1
    outer loop
      vertex -3.51619 13.148 10
      vertex -4.84966 13.0386 10
      vertex -3.53728 13.0386 10
    endloop
  endfacet
  facet normal 0 0 1
    outer loop
      vertex -4.87154 13.148 10
      vertex -3.51619 13.148 10
      vertex -3.45291 13.2262 10
    endloop
  endfacet
  facet normal 0 0 1
    outer loop
      vertex -4.93717 13.2262 10
      vertex -3.45291 13.2262 10
      vertex -3.34745 13.2731 10
    endloop
  endfacet
  facet normal -0 0 1
    outer loop
      vertex -8 14.5 10
      vertex -3.34745 13.2731 10
      vertex 0 14.5 10
    endloop
  endfacet
  facet normal 0 0 1
    outer loop
      vertex -3.51619 13.148 10
      vertex -4.87154 13.148 10
      vertex -4.84966 13.0386 10
    endloop
  endfacet
  facet normal 0 0 1
    outer loop
      vertex -3.45291 13.2262 10
      vertex -4.93717 13.2262 10
      vertex -4.87154 13.148 10
    endloop
  endfacet
  facet normal 0 0 1
    outer loop
      vertex -3.34745 13.2731 10
      vertex -5.04654 13.2731 10
      vertex -4.93717 13.2262 10
    endloop
  endfacet
  facet normal 0 0 1
    outer loop
      vertex -3.34745 13.2731 10
      vertex -8 14.5 10
      vertex -5.04654 13.2731 10
    endloop
  endfacet
  facet normal 0 0 1
    outer loop
      vertex -5.04654 13.2731 10
      vertex -8 14.5 10
      vertex -5.19968 13.2887 10
    endloop
  endfacet
  facet normal 0 0 1
    outer loop
      vertex -5.19968 13.2887 10
      vertex -8 14.5 10
      vertex -6.67459 13.2887 10
    endloop
  endfacet
  facet normal 0 0 1
    outer loop
      vertex -5.66214 8.28127 10
      vertex -7.26515 6.7001 10
      vertex -7.15972 6.74699 10
    endloop
  endfacet
  facet normal 0 0 1
    outer loop
      vertex -7.00264 12.9238 10
      vertex -7.32842 6.62195 10
      vertex -7.26515 6.7001 10
    endloop
  endfacet
  facet normal 0 0 1
    outer loop
      vertex -7.00264 12.9238 10
      vertex -8 14.5 10
      vertex -7.32842 6.62195 10
    endloop
  endfacet
  facet normal 0 0 1
    outer loop
      vertex -7.32842 6.62195 10
      vertex -8 14.5 10
      vertex -7.34951 6.51253 10
    endloop
  endfacet
  facet normal 0 0 1
    outer loop
      vertex -7.00264 13.148 10
      vertex -8 14.5 10
      vertex -7.02451 13.0386 10
    endloop
  endfacet
  facet normal 0 0 1
    outer loop
      vertex -6.93703 13.2262 10
      vertex -8 14.5 10
      vertex -7.00264 13.148 10
    endloop
  endfacet
  facet normal 0 0 1
    outer loop
      vertex -6.82769 13.2731 10
      vertex -8 14.5 10
      vertex -6.93703 13.2262 10
    endloop
  endfacet
  facet normal 0 0 1
    outer loop
      vertex -6.67459 13.2887 10
      vertex -8 14.5 10
      vertex -6.82769 13.2731 10
    endloop
  endfacet
  facet normal 0 0 1
    outer loop
      vertex 0 14.5 10
      vertex -0.737475 6.51253 10
      vertex 0 2.5 10
    endloop
  endfacet
  facet normal -0 0 1
    outer loop
      vertex -0.758563 6.39766 10
      vertex 0 2.5 10
      vertex -0.737475 6.51253 10
    endloop
  endfacet
  facet normal -0 0 1
    outer loop
      vertex -0.821841 6.31563 10
      vertex 0 2.5 10
      vertex -0.758563 6.39766 10
    endloop
  endfacet
  facet normal -0 0 1
    outer loop
      vertex -0.92731 6.2664 10
      vertex 0 2.5 10
      vertex -0.821841 6.31563 10
    endloop
  endfacet
  facet normal -0 0 1
    outer loop
      vertex -1.07497 6.25 10
      vertex 0 2.5 10
      vertex -0.92731 6.2664 10
    endloop
  endfacet
  facet normal -0 0 1
    outer loop
      vertex -3.19979 6.25 10
      vertex 0 2.5 10
      vertex -1.07497 6.25 10
    endloop
  endfacet
  facet normal 0 0 1
    outer loop
      vertex -3.34745 6.2664 10
      vertex 0 2.5 10
      vertex -3.19979 6.25 10
    endloop
  endfacet
  facet normal 0 0 1
    outer loop
      vertex -5.92462 6.25 10
      vertex -3.34745 6.2664 10
      vertex -3.45291 6.31563 10
    endloop
  endfacet
  facet normal -0 0 1
    outer loop
      vertex -4.97783 8.44829 10
      vertex -3.34745 6.74699 10
      vertex -4.69973 8.89212 10
    endloop
  endfacet
  facet normal 0 0 1
    outer loop
      vertex -3.34745 6.74699 10
      vertex -4.97783 8.44829 10
      vertex -3.45291 6.7001 10
    endloop
  endfacet
  facet normal -0 0 1
    outer loop
      vertex -5.27469 7.85999 10
      vertex -3.45291 6.7001 10
      vertex -4.97783 8.44829 10
    endloop
  endfacet
  facet normal 0 0 1
    outer loop
      vertex -3.45291 6.7001 10
      vertex -5.27469 7.85999 10
      vertex -3.51619 6.62195 10
    endloop
  endfacet
  facet normal -0 0 1
    outer loop
      vertex -5.59029 7.12721 10
      vertex -3.51619 6.62195 10
      vertex -5.27469 7.85999 10
    endloop
  endfacet
  facet normal 0 0 1
    outer loop
      vertex -3.51619 6.62195 10
      vertex -5.59029 7.12721 10
      vertex -3.53728 6.51253 10
    endloop
  endfacet
  facet normal 0 0 1
    outer loop
      vertex -5.92462 6.25 10
      vertex -3.53728 6.51253 10
      vertex -5.59029 7.12721 10
    endloop
  endfacet
  facet normal 0 0 1
    outer loop
      vertex -3.53728 6.51253 10
      vertex -5.92462 6.25 10
      vertex -3.51619 6.39766 10
    endloop
  endfacet
  facet normal 0 0 1
    outer loop
      vertex -3.51619 6.39766 10
      vertex -5.92462 6.25 10
      vertex -3.45291 6.31563 10
    endloop
  endfacet
  facet normal 0 0 1
    outer loop
      vertex -3.34745 6.2664 10
      vertex -5.92462 6.25 10
      vertex -8 2.5 10
    endloop
  endfacet
  facet normal 0 0 1
    outer loop
      vertex -8 2.5 10
      vertex -5.92462 6.25 10
      vertex -7.01209 6.25 10
    endloop
  endfacet
  facet normal 0 0 1
    outer loop
      vertex -8 2.5 10
      vertex -7.01209 6.25 10
      vertex -7.15972 6.2664 10
    endloop
  endfacet
  facet normal 0 0 1
    outer loop
      vertex -8 2.5 10
      vertex -7.15972 6.2664 10
      vertex -7.26515 6.31563 10
    endloop
  endfacet
  facet normal 0 0 1
    outer loop
      vertex -3.34745 6.2664 10
      vertex -8 2.5 10
      vertex 0 2.5 10
    endloop
  endfacet
  facet normal 0 0 1
    outer loop
      vertex -7.32842 6.39766 10
      vertex -8 2.5 10
      vertex -7.26515 6.31563 10
    endloop
  endfacet
  facet normal 0 0 1
    outer loop
      vertex -7.34951 6.51253 10
      vertex -8 2.5 10
      vertex -7.32842 6.39766 10
    endloop
  endfacet
  facet normal 0 0 1
    outer loop
      vertex -8 2.5 10
      vertex -7.34951 6.51253 10
      vertex -8 14.5 10
    endloop
  endfacet
  facet normal -0 0 1
    outer loop
      vertex -3.19979 12.7761 10
      vertex -2.26235 9.66711 10
      vertex -2.26235 12.7761 10
    endloop
  endfacet
  facet normal 0 0 1
    outer loop
      vertex -3.34745 12.7925 10
      vertex -2.26235 9.66711 10
      vertex -3.19979 12.7761 10
    endloop
  endfacet
  facet normal -0 0 1
    outer loop
      vertex -4.93717 12.8417 10
      vertex -3.34745 12.7925 10
      vertex -3.45291 12.8417 10
    endloop
  endfacet
  facet normal -0 0 1
    outer loop
      vertex -4.87154 12.9238 10
      vertex -3.45291 12.8417 10
      vertex -3.51619 12.9238 10
    endloop
  endfacet
  facet normal -0 0 1
    outer loop
      vertex -4.84966 13.0386 10
      vertex -3.51619 12.9238 10
      vertex -3.53728 13.0386 10
    endloop
  endfacet
  facet normal 0 0 1
    outer loop
      vertex -4.87154 12.9238 10
      vertex -3.51619 12.9238 10
      vertex -4.84966 13.0386 10
    endloop
  endfacet
  facet normal 0 0 1
    outer loop
      vertex -3.45291 12.8417 10
      vertex -4.87154 12.9238 10
      vertex -4.93717 12.8417 10
    endloop
  endfacet
  facet normal 0 0 1
    outer loop
      vertex -3.34745 12.7925 10
      vertex -4.93717 12.8417 10
      vertex -5.04654 12.7925 10
    endloop
  endfacet
  facet normal 0 0 1
    outer loop
      vertex -3.34745 12.7925 10
      vertex -5.04654 12.7925 10
      vertex -2.26235 9.66711 10
    endloop
  endfacet
  facet normal -0 0 1
    outer loop
      vertex -5.19968 12.7761 10
      vertex -2.26235 9.66711 10
      vertex -5.04654 12.7925 10
    endloop
  endfacet
  facet normal 0 0 1
    outer loop
      vertex -2.26235 9.66711 10
      vertex -5.19968 12.7761 10
      vertex -5.76218 12.7761 10
    endloop
  endfacet
  facet normal 0 0 1
    outer loop
      vertex -6.47461 12.7761 10
      vertex -4.13021 10.0898 10
      vertex -3.69973 10.2962 10
    endloop
  endfacet
  facet normal 0 0 1
    outer loop
      vertex -6.47461 12.7761 10
      vertex -4.5091 9.84515 10
      vertex -4.13021 10.0898 10
    endloop
  endfacet
  facet normal 0 0 1
    outer loop
      vertex -6.47461 12.7761 10
      vertex -4.83643 9.56227 10
      vertex -4.5091 9.84515 10
    endloop
  endfacet
  facet normal 0 0 1
    outer loop
      vertex -6.47461 12.7761 10
      vertex -5.11219 9.24115 10
      vertex -4.83643 9.56227 10
    endloop
  endfacet
  facet normal -0 0 1
    outer loop
      vertex -6.67459 12.7761 10
      vertex -5.11219 9.24115 10
      vertex -6.47461 12.7761 10
    endloop
  endfacet
  facet normal 0 0 1
    outer loop
      vertex -6.82769 12.7925 10
      vertex -5.11219 9.24115 10
      vertex -6.67459 12.7761 10
    endloop
  endfacet
  facet normal 0 0 1
    outer loop
      vertex -5.11219 9.24115 10
      vertex -6.82769 12.7925 10
      vertex -5.37467 8.83105 10
    endloop
  endfacet
  facet normal 0 0 1
    outer loop
      vertex -6.93703 12.8417 10
      vertex -5.37467 8.83105 10
      vertex -6.82769 12.7925 10
    endloop
  endfacet
  facet normal 0 0 1
    outer loop
      vertex -5.37467 8.83105 10
      vertex -6.93703 12.8417 10
      vertex -5.66214 8.28127 10
    endloop
  endfacet
  facet normal 0 0 1
    outer loop
      vertex -7.26515 6.7001 10
      vertex -5.66214 8.28127 10
      vertex -6.93703 12.8417 10
    endloop
  endfacet
  facet normal 0 0 1
    outer loop
      vertex -5.66214 8.28127 10
      vertex -7.15972 6.74699 10
      vertex -5.97461 7.5918 10
    endloop
  endfacet
  facet normal 0 0 1
    outer loop
      vertex -7.26515 6.7001 10
      vertex -6.93703 12.8417 10
      vertex -7.00264 12.9238 10
    endloop
  endfacet
  facet normal 0 0 1
    outer loop
      vertex -5.97461 7.5918 10
      vertex -7.01209 6.76263 10
      vertex -6.31208 6.76263 10
    endloop
  endfacet
  facet normal 0 0 1
    outer loop
      vertex -8 14.5 10
      vertex -7.00264 12.9238 10
      vertex -7.02451 13.0386 10
    endloop
  endfacet
  facet normal 0 0 1
    outer loop
      vertex -5.97461 7.5918 10
      vertex -7.15972 6.74699 10
      vertex -7.01209 6.76263 10
    endloop
  endfacet
  facet normal -1 0 0
    outer loop
      vertex -8 0 3
      vertex -8 17 3
      vertex -8 17 0
    endloop
  endfacet
  facet normal -1 0 0
    outer loop
      vertex -8 17 3
      vertex -8 0 3
      vertex -8 14.5 10
    endloop
  endfacet
  facet normal -1 0 0
    outer loop
      vertex -8 0 3
      vertex -8 17 0
      vertex -8 0 0
    endloop
  endfacet
  facet normal -1 -0 0
    outer loop
      vertex -8 14.5 10
      vertex -8 0 3
      vertex -8 2.5 10
    endloop
  endfacet
  facet normal 0 1 -0
    outer loop
      vertex 0 17 0
      vertex -8 17 3
      vertex 0 17 3
    endloop
  endfacet
  facet normal 0 1 0
    outer loop
      vertex -8 17 3
      vertex 0 17 0
      vertex -8 17 0
    endloop
  endfacet
  facet normal 0 0 -1
    outer loop
      vertex -8 0 0
      vertex 0 17 0
      vertex 0 0 0
    endloop
  endfacet
  facet normal -0 0 -1
    outer loop
      vertex 0 17 0
      vertex -8 0 0
      vertex -8 17 0
    endloop
  endfacet
  facet normal 1 0 0
    outer loop
      vertex 0 0 3
      vertex 0 17 3
      vertex 0 14.5 10
    endloop
  endfacet
  facet normal 1 0 0
    outer loop
      vertex 0 0 3
      vertex 0 14.5 10
      vertex 0 2.5 10
    endloop
  endfacet
  facet normal 1 0 0
    outer loop
      vertex 0 17 3
      vertex 0 0 3
      vertex 0 17 0
    endloop
  endfacet
  facet normal 1 0 0
    outer loop
      vertex 0 17 0
      vertex 0 0 3
      vertex 0 0 0
    endloop
  endfacet
  facet normal 0 -0.941742 0.336336
    outer loop
      vertex -8 0 3
      vertex 0 2.5 10
      vertex -8 2.5 10
    endloop
  endfacet
  facet normal 0 -0.941742 0.336336
    outer loop
      vertex 0 2.5 10
      vertex -8 0 3
      vertex 0 0 3
    endloop
  endfacet
  facet normal 0 -1 0
    outer loop
      vertex -8 0 0
      vertex 0 0 3
      vertex -8 0 3
    endloop
  endfacet
  facet normal 0 -1 -0
    outer loop
      vertex 0 0 3
      vertex -8 0 0
      vertex 0 0 0
    endloop
  endfacet
  facet normal 0 0.941742 0.336336
    outer loop
      vertex 0 17 3
      vertex -8 14.5 10
      vertex 0 14.5 10
    endloop
  endfacet
  facet normal 0 0.941742 0.336336
    outer loop
      vertex -8 14.5 10
      vertex 0 17 3
      vertex -8 17 3
    endloop
  endfacet
  facet normal 0 0 1
    outer loop
      vertex -2.26235 9.66711 11.99
      vertex -3.27475 9.92281 11.99
      vertex -2.26235 9.01398 11.99
    endloop
  endfacet
  facet normal 0 0 1
    outer loop
      vertex -3.27475 9.92281 11.99
      vertex -3.69973 10.2962 11.99
      vertex -3.69663 9.75063 11.99
    endloop
  endfacet
  facet normal 0 0 1
    outer loop
      vertex -2.26235 9.66711 11.99
      vertex -3.69973 10.2962 11.99
      vertex -3.27475 9.92281 11.99
    endloop
  endfacet
  facet normal 0 0 1
    outer loop
      vertex -5.76218 12.7761 11.99
      vertex -3.69973 10.2962 11.99
      vertex -2.26235 9.66711 11.99
    endloop
  endfacet
  facet normal 0 0 1
    outer loop
      vertex -3.69973 10.2962 11.99
      vertex -5.76218 12.7761 11.99
      vertex -6.47461 12.7761 11.99
    endloop
  endfacet
  facet normal 0 0 1
    outer loop
      vertex -0.821841 13.2262 11.99
      vertex -0.737475 13.0386 11.99
      vertex -0.758563 13.148 11.99
    endloop
  endfacet
  facet normal 0 0 1
    outer loop
      vertex -0.737475 13.0386 11.99
      vertex -0.821841 13.2262 11.99
      vertex -0.92731 13.2731 11.99
    endloop
  endfacet
  facet normal 0 0 1
    outer loop
      vertex -0.92731 12.7925 11.99
      vertex -0.737475 13.0386 11.99
      vertex -0.92731 13.2731 11.99
    endloop
  endfacet
  facet normal 0 0 1
    outer loop
      vertex -0.737475 13.0386 11.99
      vertex -0.92731 12.7925 11.99
      vertex -0.758563 12.9238 11.99
    endloop
  endfacet
  facet normal 0 0 1
    outer loop
      vertex -0.758563 12.9238 11.99
      vertex -0.92731 12.7925 11.99
      vertex -0.821841 12.8417 11.99
    endloop
  endfacet
  facet normal 0 0 1
    outer loop
      vertex -1.07497 13.2887 11.99
      vertex -0.92731 12.7925 11.99
      vertex -0.92731 13.2731 11.99
    endloop
  endfacet
  facet normal 0 0 1
    outer loop
      vertex -1.07497 13.2887 11.99
      vertex -1.07497 12.7761 11.99
      vertex -0.92731 12.7925 11.99
    endloop
  endfacet
  facet normal 0 0 1
    outer loop
      vertex -1.07497 13.2887 11.99
      vertex -1.74988 12.7761 11.99
      vertex -1.07497 12.7761 11.99
    endloop
  endfacet
  facet normal 0 0 1
    outer loop
      vertex -2.26235 9.66711 11.99
      vertex -1.74988 12.7761 11.99
      vertex -2.26235 12.7761 11.99
    endloop
  endfacet
  facet normal 0 0 1
    outer loop
      vertex -1.07497 13.2887 11.99
      vertex -2.26235 12.7761 11.99
      vertex -1.74988 12.7761 11.99
    endloop
  endfacet
  facet normal -0 0 1
    outer loop
      vertex -3.19979 13.2887 11.99
      vertex -2.26235 12.7761 11.99
      vertex -1.07497 13.2887 11.99
    endloop
  endfacet
  facet normal 0 0 1
    outer loop
      vertex -3.19979 13.2887 11.99
      vertex -3.19979 12.7761 11.99
      vertex -2.26235 12.7761 11.99
    endloop
  endfacet
  facet normal -0 0 1
    outer loop
      vertex -3.34745 13.2731 11.99
      vertex -3.19979 12.7761 11.99
      vertex -3.19979 13.2887 11.99
    endloop
  endfacet
  facet normal 0 0 1
    outer loop
      vertex -3.34745 13.2731 11.99
      vertex -3.34745 12.7925 11.99
      vertex -3.19979 12.7761 11.99
    endloop
  endfacet
  facet normal 0 0 1
    outer loop
      vertex -3.53728 13.0386 11.99
      vertex -3.34745 13.2731 11.99
      vertex -3.45291 13.2262 11.99
    endloop
  endfacet
  facet normal 0 0 1
    outer loop
      vertex -3.34745 13.2731 11.99
      vertex -3.53728 13.0386 11.99
      vertex -3.34745 12.7925 11.99
    endloop
  endfacet
  facet normal 0 0 1
    outer loop
      vertex -3.53728 13.0386 11.99
      vertex -3.45291 13.2262 11.99
      vertex -3.51619 13.148 11.99
    endloop
  endfacet
  facet normal 0 0 1
    outer loop
      vertex -3.34745 12.7925 11.99
      vertex -3.53728 13.0386 11.99
      vertex -3.45291 12.8417 11.99
    endloop
  endfacet
  facet normal 0 0 1
    outer loop
      vertex -3.45291 12.8417 11.99
      vertex -3.53728 13.0386 11.99
      vertex -3.51619 12.9238 11.99
    endloop
  endfacet
  facet normal 0 0 1
    outer loop
      vertex -0.821841 6.7001 11.99
      vertex -0.737475 6.51253 11.99
      vertex -0.758563 6.62195 11.99
    endloop
  endfacet
  facet normal 0 0 1
    outer loop
      vertex -0.737475 6.51253 11.99
      vertex -0.821841 6.7001 11.99
      vertex -0.92731 6.74699 11.99
    endloop
  endfacet
  facet normal 0 0 1
    outer loop
      vertex -0.92731 6.2664 11.99
      vertex -0.737475 6.51253 11.99
      vertex -0.92731 6.74699 11.99
    endloop
  endfacet
  facet normal 0 0 1
    outer loop
      vertex -0.737475 6.51253 11.99
      vertex -0.92731 6.2664 11.99
      vertex -0.758563 6.39766 11.99
    endloop
  endfacet
  facet normal 0 0 1
    outer loop
      vertex -0.758563 6.39766 11.99
      vertex -0.92731 6.2664 11.99
      vertex -0.821841 6.31563 11.99
    endloop
  endfacet
  facet normal 0 0 1
    outer loop
      vertex -1.07497 6.76263 11.99
      vertex -0.92731 6.2664 11.99
      vertex -0.92731 6.74699 11.99
    endloop
  endfacet
  facet normal 0 0 1
    outer loop
      vertex -1.07497 6.76263 11.99
      vertex -1.07497 6.25 11.99
      vertex -0.92731 6.2664 11.99
    endloop
  endfacet
  facet normal -0 0 1
    outer loop
      vertex -1.74988 6.76263 11.99
      vertex -1.07497 6.25 11.99
      vertex -1.07497 6.76263 11.99
    endloop
  endfacet
  facet normal 0 0 1
    outer loop
      vertex -1.74988 12.7761 11.99
      vertex -2.26235 9.66711 11.99
      vertex -1.74988 6.76263 11.99
    endloop
  endfacet
  facet normal -0 0 1
    outer loop
      vertex -2.26235 9.01398 11.99
      vertex -1.74988 6.76263 11.99
      vertex -2.26235 9.66711 11.99
    endloop
  endfacet
  facet normal 0 0 1
    outer loop
      vertex -2.26235 6.76263 11.99
      vertex -1.74988 6.76263 11.99
      vertex -2.26235 9.01398 11.99
    endloop
  endfacet
  facet normal -0 0 1
    outer loop
      vertex -2.26235 6.76263 11.99
      vertex -1.07497 6.25 11.99
      vertex -1.74988 6.76263 11.99
    endloop
  endfacet
  facet normal 0 0 1
    outer loop
      vertex -3.19979 6.25 11.99
      vertex -2.26235 6.76263 11.99
      vertex -3.19979 6.76263 11.99
    endloop
  endfacet
  facet normal 0 0 1
    outer loop
      vertex -2.26235 6.76263 11.99
      vertex -3.19979 6.25 11.99
      vertex -1.07497 6.25 11.99
    endloop
  endfacet
  facet normal -0 0 1
    outer loop
      vertex -3.34745 6.74699 11.99
      vertex -3.19979 6.25 11.99
      vertex -3.19979 6.76263 11.99
    endloop
  endfacet
  facet normal 0 0 1
    outer loop
      vertex -3.34745 6.74699 11.99
      vertex -3.34745 6.2664 11.99
      vertex -3.19979 6.25 11.99
    endloop
  endfacet
  facet normal 0 0 1
    outer loop
      vertex -3.53728 6.51253 11.99
      vertex -3.34745 6.74699 11.99
      vertex -3.45291 6.7001 11.99
    endloop
  endfacet
  facet normal 0 0 1
    outer loop
      vertex -3.34745 6.74699 11.99
      vertex -3.53728 6.51253 11.99
      vertex -3.34745 6.2664 11.99
    endloop
  endfacet
  facet normal 0 0 1
    outer loop
      vertex -3.53728 6.51253 11.99
      vertex -3.45291 6.7001 11.99
      vertex -3.51619 6.62195 11.99
    endloop
  endfacet
  facet normal 0 0 1
    outer loop
      vertex -3.34745 6.2664 11.99
      vertex -3.53728 6.51253 11.99
      vertex -3.45291 6.31563 11.99
    endloop
  endfacet
  facet normal 0 0 1
    outer loop
      vertex -3.45291 6.31563 11.99
      vertex -3.53728 6.51253 11.99
      vertex -3.51619 6.39766 11.99
    endloop
  endfacet
  facet normal 0 0 1
    outer loop
      vertex -4.93717 13.2262 11.99
      vertex -4.84966 13.0386 11.99
      vertex -4.87154 13.148 11.99
    endloop
  endfacet
  facet normal 0 0 1
    outer loop
      vertex -5.04654 13.2731 11.99
      vertex -4.84966 13.0386 11.99
      vertex -4.93717 13.2262 11.99
    endloop
  endfacet
  facet normal 0 0 1
    outer loop
      vertex -5.04654 12.7925 11.99
      vertex -4.84966 13.0386 11.99
      vertex -5.04654 13.2731 11.99
    endloop
  endfacet
  facet normal 0 0 1
    outer loop
      vertex -4.84966 13.0386 11.99
      vertex -4.93717 12.8417 11.99
      vertex -4.87154 12.9238 11.99
    endloop
  endfacet
  facet normal 0 0 1
    outer loop
      vertex -4.84966 13.0386 11.99
      vertex -5.04654 12.7925 11.99
      vertex -4.93717 12.8417 11.99
    endloop
  endfacet
  facet normal 0 0 1
    outer loop
      vertex -5.19968 13.2887 11.99
      vertex -5.04654 12.7925 11.99
      vertex -5.04654 13.2731 11.99
    endloop
  endfacet
  facet normal 0 0 1
    outer loop
      vertex -5.19968 13.2887 11.99
      vertex -5.19968 12.7761 11.99
      vertex -5.04654 12.7925 11.99
    endloop
  endfacet
  facet normal 0 0 1
    outer loop
      vertex -5.19968 13.2887 11.99
      vertex -5.76218 12.7761 11.99
      vertex -5.19968 12.7761 11.99
    endloop
  endfacet
  facet normal -0 0 1
    outer loop
      vertex -6.67459 13.2887 11.99
      vertex -5.76218 12.7761 11.99
      vertex -5.19968 13.2887 11.99
    endloop
  endfacet
  facet normal 0 0 1
    outer loop
      vertex -5.76218 12.7761 11.99
      vertex -6.67459 13.2887 11.99
      vertex -6.47461 12.7761 11.99
    endloop
  endfacet
  facet normal 0 0 1
    outer loop
      vertex -6.67459 13.2887 11.99
      vertex -6.67459 12.7761 11.99
      vertex -6.47461 12.7761 11.99
    endloop
  endfacet
  facet normal -0 0 1
    outer loop
      vertex -6.82769 13.2731 11.99
      vertex -6.67459 12.7761 11.99
      vertex -6.67459 13.2887 11.99
    endloop
  endfacet
  facet normal 0 0 1
    outer loop
      vertex -6.82769 13.2731 11.99
      vertex -6.82769 12.7925 11.99
      vertex -6.67459 12.7761 11.99
    endloop
  endfacet
  facet normal 0 0 1
    outer loop
      vertex -7.02451 13.0386 11.99
      vertex -6.82769 13.2731 11.99
      vertex -6.93703 13.2262 11.99
    endloop
  endfacet
  facet normal 0 0 1
    outer loop
      vertex -6.82769 13.2731 11.99
      vertex -7.02451 13.0386 11.99
      vertex -6.82769 12.7925 11.99
    endloop
  endfacet
  facet normal 0 0 1
    outer loop
      vertex -7.02451 13.0386 11.99
      vertex -6.93703 13.2262 11.99
      vertex -7.00264 13.148 11.99
    endloop
  endfacet
  facet normal 0 0 1
    outer loop
      vertex -6.82769 12.7925 11.99
      vertex -7.02451 13.0386 11.99
      vertex -6.93703 12.8417 11.99
    endloop
  endfacet
  facet normal 0 0 1
    outer loop
      vertex -6.93703 12.8417 11.99
      vertex -7.02451 13.0386 11.99
      vertex -7.00264 12.9238 11.99
    endloop
  endfacet
  facet normal -0 0 1
    outer loop
      vertex -4.13021 10.0898 11.99
      vertex -3.69663 9.75063 11.99
      vertex -3.69973 10.2962 11.99
    endloop
  endfacet
  facet normal 0 0 1
    outer loop
      vertex -3.69663 9.75063 11.99
      vertex -4.13021 10.0898 11.99
      vertex -4.07474 9.52145 11.99
    endloop
  endfacet
  facet normal -0 0 1
    outer loop
      vertex -4.5091 9.84515 11.99
      vertex -4.07474 9.52145 11.99
      vertex -4.13021 10.0898 11.99
    endloop
  endfacet
  facet normal 0 0 1
    outer loop
      vertex -4.07474 9.52145 11.99
      vertex -4.5091 9.84515 11.99
      vertex -4.40911 9.23528 11.99
    endloop
  endfacet
  facet normal -0 0 1
    outer loop
      vertex -4.83643 9.56227 11.99
      vertex -4.40911 9.23528 11.99
      vertex -4.5091 9.84515 11.99
    endloop
  endfacet
  facet normal 0 0 1
    outer loop
      vertex -4.40911 9.23528 11.99
      vertex -4.83643 9.56227 11.99
      vertex -4.69973 8.89212 11.99
    endloop
  endfacet
  facet normal -0 0 1
    outer loop
      vertex -5.11219 9.24115 11.99
      vertex -4.69973 8.89212 11.99
      vertex -4.83643 9.56227 11.99
    endloop
  endfacet
  facet normal 0 0 1
    outer loop
      vertex -5.37467 8.83105 11.99
      vertex -4.69973 8.89212 11.99
      vertex -5.11219 9.24115 11.99
    endloop
  endfacet
  facet normal 0 0 1
    outer loop
      vertex -4.69973 8.89212 11.99
      vertex -5.37467 8.83105 11.99
      vertex -4.97783 8.44829 11.99
    endloop
  endfacet
  facet normal 0 0 1
    outer loop
      vertex -5.66214 8.28127 11.99
      vertex -4.97783 8.44829 11.99
      vertex -5.37467 8.83105 11.99
    endloop
  endfacet
  facet normal 0 0 1
    outer loop
      vertex -4.97783 8.44829 11.99
      vertex -5.66214 8.28127 11.99
      vertex -5.27469 7.85999 11.99
    endloop
  endfacet
  facet normal 0 0 1
    outer loop
      vertex -5.97461 7.5918 11.99
      vertex -5.27469 7.85999 11.99
      vertex -5.66214 8.28127 11.99
    endloop
  endfacet
  facet normal 0 0 1
    outer loop
      vertex -5.27469 7.85999 11.99
      vertex -5.97461 7.5918 11.99
      vertex -5.59029 7.12721 11.99
    endloop
  endfacet
  facet normal 0 0 1
    outer loop
      vertex -6.31208 6.76263 11.99
      vertex -5.59029 7.12721 11.99
      vertex -5.97461 7.5918 11.99
    endloop
  endfacet
  facet normal 0 0 1
    outer loop
      vertex -5.59029 7.12721 11.99
      vertex -6.31208 6.76263 11.99
      vertex -5.92462 6.25 11.99
    endloop
  endfacet
  facet normal 0 0 1
    outer loop
      vertex -7.01209 6.25 11.99
      vertex -6.31208 6.76263 11.99
      vertex -7.01209 6.76263 11.99
    endloop
  endfacet
  facet normal 0 0 1
    outer loop
      vertex -6.31208 6.76263 11.99
      vertex -7.01209 6.25 11.99
      vertex -5.92462 6.25 11.99
    endloop
  endfacet
  facet normal -0 0 1
    outer loop
      vertex -7.15972 6.74699 11.99
      vertex -7.01209 6.25 11.99
      vertex -7.01209 6.76263 11.99
    endloop
  endfacet
  facet normal 0 0 1
    outer loop
      vertex -7.15972 6.74699 11.99
      vertex -7.15972 6.2664 11.99
      vertex -7.01209 6.25 11.99
    endloop
  endfacet
  facet normal 0 0 1
    outer loop
      vertex -7.34951 6.51253 11.99
      vertex -7.15972 6.74699 11.99
      vertex -7.26515 6.7001 11.99
    endloop
  endfacet
  facet normal 0 0 1
    outer loop
      vertex -7.15972 6.74699 11.99
      vertex -7.34951 6.51253 11.99
      vertex -7.15972 6.2664 11.99
    endloop
  endfacet
  facet normal 0 0 1
    outer loop
      vertex -7.34951 6.51253 11.99
      vertex -7.26515 6.7001 11.99
      vertex -7.32842 6.62195 11.99
    endloop
  endfacet
  facet normal 0 0 1
    outer loop
      vertex -7.15972 6.2664 11.99
      vertex -7.34951 6.51253 11.99
      vertex -7.26515 6.31563 11.99
    endloop
  endfacet
  facet normal 0 0 1
    outer loop
      vertex -7.26515 6.31563 11.99
      vertex -7.34951 6.51253 11.99
      vertex -7.32842 6.39766 11.99
    endloop
  endfacet
  facet normal -0.422994 -0.906133 0
    outer loop
      vertex -3.45291 6.31563 10
      vertex -3.34745 6.2664 11.99
      vertex -3.45291 6.31563 11.99
    endloop
  endfacet
  facet normal -0.422994 -0.906133 -0
    outer loop
      vertex -3.34745 6.2664 11.99
      vertex -3.45291 6.31563 10
      vertex -3.34745 6.2664 10
    endloop
  endfacet
  facet normal -0.791784 -0.610802 0
    outer loop
      vertex -3.45291 6.31563 10
      vertex -3.51619 6.39766 11.99
      vertex -3.51619 6.39766 10
    endloop
  endfacet
  facet normal -0.791784 -0.610802 0
    outer loop
      vertex -3.51619 6.39766 11.99
      vertex -3.45291 6.31563 10
      vertex -3.45291 6.31563 11.99
    endloop
  endfacet
  facet normal -0.98356 -0.180581 0
    outer loop
      vertex -3.51619 6.39766 10
      vertex -3.53728 6.51253 11.99
      vertex -3.53728 6.51253 10
    endloop
  endfacet
  facet normal -0.98356 -0.180581 0
    outer loop
      vertex -3.53728 6.51253 11.99
      vertex -3.51619 6.39766 10
      vertex -3.51619 6.39766 11.99
    endloop
  endfacet
  facet normal -0.981927 0.18926 0
    outer loop
      vertex -3.53728 6.51253 10
      vertex -3.51619 6.62195 11.99
      vertex -3.51619 6.62195 10
    endloop
  endfacet
  facet normal -0.981927 0.18926 0
    outer loop
      vertex -3.51619 6.62195 11.99
      vertex -3.53728 6.51253 10
      vertex -3.53728 6.51253 11.99
    endloop
  endfacet
  facet normal -0.777168 0.629293 0
    outer loop
      vertex -3.51619 6.62195 10
      vertex -3.45291 6.7001 11.99
      vertex -3.45291 6.7001 10
    endloop
  endfacet
  facet normal -0.777168 0.629293 0
    outer loop
      vertex -3.45291 6.7001 11.99
      vertex -3.51619 6.62195 10
      vertex -3.51619 6.62195 11.99
    endloop
  endfacet
  facet normal -0.406275 0.913751 0
    outer loop
      vertex -3.34745 6.74699 10
      vertex -3.45291 6.7001 11.99
      vertex -3.34745 6.74699 11.99
    endloop
  endfacet
  facet normal -0.406275 0.913751 0
    outer loop
      vertex -3.45291 6.7001 11.99
      vertex -3.34745 6.74699 10
      vertex -3.45291 6.7001 10
    endloop
  endfacet
  facet normal -0.10533 0.994437 0
    outer loop
      vertex -3.19979 6.76263 10
      vertex -3.34745 6.74699 11.99
      vertex -3.19979 6.76263 11.99
    endloop
  endfacet
  facet normal -0.10533 0.994437 0
    outer loop
      vertex -3.34745 6.74699 11.99
      vertex -3.19979 6.76263 10
      vertex -3.34745 6.74699 10
    endloop
  endfacet
  facet normal 0 1 -0
    outer loop
      vertex -2.26235 6.76263 10
      vertex -3.19979 6.76263 11.99
      vertex -2.26235 6.76263 11.99
    endloop
  endfacet
  facet normal 0 1 0
    outer loop
      vertex -3.19979 6.76263 11.99
      vertex -2.26235 6.76263 10
      vertex -3.19979 6.76263 10
    endloop
  endfacet
  facet normal -1 0 0
    outer loop
      vertex -2.26235 6.76263 10
      vertex -2.26235 9.01398 11.99
      vertex -2.26235 9.01398 10
    endloop
  endfacet
  facet normal -1 -0 0
    outer loop
      vertex -2.26235 9.01398 11.99
      vertex -2.26235 6.76263 10
      vertex -2.26235 6.76263 11.99
    endloop
  endfacet
  facet normal -0.668018 -0.744145 0
    outer loop
      vertex -3.27475 9.92281 10
      vertex -2.26235 9.01398 11.99
      vertex -3.27475 9.92281 11.99
    endloop
  endfacet
  facet normal -0.668018 -0.744145 -0
    outer loop
      vertex -2.26235 9.01398 11.99
      vertex -3.27475 9.92281 10
      vertex -2.26235 9.01398 10
    endloop
  endfacet
  facet normal 0.377867 -0.92586 0
    outer loop
      vertex -3.69663 9.75063 10
      vertex -3.27475 9.92281 11.99
      vertex -3.69663 9.75063 11.99
    endloop
  endfacet
  facet normal 0.377867 -0.92586 0
    outer loop
      vertex -3.27475 9.92281 11.99
      vertex -3.69663 9.75063 10
      vertex -3.27475 9.92281 10
    endloop
  endfacet
  facet normal 0.518339 -0.855175 0
    outer loop
      vertex -4.07474 9.52145 10
      vertex -3.69663 9.75063 11.99
      vertex -4.07474 9.52145 11.99
    endloop
  endfacet
  facet normal 0.518339 -0.855175 0
    outer loop
      vertex -3.69663 9.75063 11.99
      vertex -4.07474 9.52145 10
      vertex -3.69663 9.75063 10
    endloop
  endfacet
  facet normal 0.650224 -0.759742 0
    outer loop
      vertex -4.40911 9.23528 10
      vertex -4.07474 9.52145 11.99
      vertex -4.40911 9.23528 11.99
    endloop
  endfacet
  facet normal 0.650224 -0.759742 0
    outer loop
      vertex -4.07474 9.52145 11.99
      vertex -4.40911 9.23528 10
      vertex -4.07474 9.52145 10
    endloop
  endfacet
  facet normal 0.763108 -0.646271 0
    outer loop
      vertex -4.69973 8.89212 11.99
      vertex -4.40911 9.23528 10
      vertex -4.40911 9.23528 11.99
    endloop
  endfacet
  facet normal 0.763108 -0.646271 0
    outer loop
      vertex -4.40911 9.23528 10
      vertex -4.69973 8.89212 11.99
      vertex -4.69973 8.89212 10
    endloop
  endfacet
  facet normal 0.847392 -0.530968 0
    outer loop
      vertex -4.97783 8.44829 11.99
      vertex -4.69973 8.89212 10
      vertex -4.69973 8.89212 11.99
    endloop
  endfacet
  facet normal 0.847392 -0.530968 0
    outer loop
      vertex -4.69973 8.89212 10
      vertex -4.97783 8.44829 11.99
      vertex -4.97783 8.44829 10
    endloop
  endfacet
  facet normal 0.892776 -0.450501 0
    outer loop
      vertex -5.27469 7.85999 11.99
      vertex -4.97783 8.44829 10
      vertex -4.97783 8.44829 11.99
    endloop
  endfacet
  facet normal 0.892776 -0.450501 0
    outer loop
      vertex -4.97783 8.44829 10
      vertex -5.27469 7.85999 11.99
      vertex -5.27469 7.85999 10
    endloop
  endfacet
  facet normal 0.91844 -0.395561 0
    outer loop
      vertex -5.59029 7.12721 11.99
      vertex -5.27469 7.85999 10
      vertex -5.27469 7.85999 11.99
    endloop
  endfacet
  facet normal 0.91844 -0.395561 0
    outer loop
      vertex -5.27469 7.85999 10
      vertex -5.59029 7.12721 11.99
      vertex -5.59029 7.12721 10
    endloop
  endfacet
  facet normal 0.934433 -0.356139 0
    outer loop
      vertex -5.92462 6.25 11.99
      vertex -5.59029 7.12721 10
      vertex -5.59029 7.12721 11.99
    endloop
  endfacet
  facet normal 0.934433 -0.356139 0
    outer loop
      vertex -5.59029 7.12721 10
      vertex -5.92462 6.25 11.99
      vertex -5.92462 6.25 10
    endloop
  endfacet
  facet normal 0 -1 0
    outer loop
      vertex -7.01209 6.25 10
      vertex -5.92462 6.25 11.99
      vertex -7.01209 6.25 11.99
    endloop
  endfacet
  facet normal 0 -1 -0
    outer loop
      vertex -5.92462 6.25 11.99
      vertex -7.01209 6.25 10
      vertex -5.92462 6.25 10
    endloop
  endfacet
  facet normal -0.110409 -0.993886 0
    outer loop
      vertex -7.15972 6.2664 10
      vertex -7.01209 6.25 11.99
      vertex -7.15972 6.2664 11.99
    endloop
  endfacet
  facet normal -0.110409 -0.993886 -0
    outer loop
      vertex -7.01209 6.25 11.99
      vertex -7.15972 6.2664 10
      vertex -7.01209 6.25 10
    endloop
  endfacet
  facet normal -0.423092 -0.906087 0
    outer loop
      vertex -7.26515 6.31563 10
      vertex -7.15972 6.2664 11.99
      vertex -7.26515 6.31563 11.99
    endloop
  endfacet
  facet normal -0.423092 -0.906087 -0
    outer loop
      vertex -7.15972 6.2664 11.99
      vertex -7.26515 6.31563 10
      vertex -7.15972 6.2664 10
    endloop
  endfacet
  facet normal -0.79183 -0.610741 0
    outer loop
      vertex -7.26515 6.31563 10
      vertex -7.32842 6.39766 11.99
      vertex -7.32842 6.39766 10
    endloop
  endfacet
  facet normal -0.79183 -0.610741 0
    outer loop
      vertex -7.32842 6.39766 11.99
      vertex -7.26515 6.31563 10
      vertex -7.26515 6.31563 11.99
    endloop
  endfacet
  facet normal -0.98356 -0.180581 0
    outer loop
      vertex -7.32842 6.39766 10
      vertex -7.34951 6.51253 11.99
      vertex -7.34951 6.51253 10
    endloop
  endfacet
  facet normal -0.98356 -0.180581 0
    outer loop
      vertex -7.34951 6.51253 11.99
      vertex -7.32842 6.39766 10
      vertex -7.32842 6.39766 11.99
    endloop
  endfacet
  facet normal -0.981927 0.18926 0
    outer loop
      vertex -7.34951 6.51253 10
      vertex -7.32842 6.62195 11.99
      vertex -7.32842 6.62195 10
    endloop
  endfacet
  facet normal -0.981927 0.18926 0
    outer loop
      vertex -7.32842 6.62195 11.99
      vertex -7.34951 6.51253 10
      vertex -7.34951 6.51253 11.99
    endloop
  endfacet
  facet normal -0.777217 0.629233 0
    outer loop
      vertex -7.32842 6.62195 10
      vertex -7.26515 6.7001 11.99
      vertex -7.26515 6.7001 10
    endloop
  endfacet
  facet normal -0.777217 0.629233 0
    outer loop
      vertex -7.26515 6.7001 11.99
      vertex -7.32842 6.62195 10
      vertex -7.32842 6.62195 11.99
    endloop
  endfacet
  facet normal -0.406372 0.913708 0
    outer loop
      vertex -7.15972 6.74699 10
      vertex -7.26515 6.7001 11.99
      vertex -7.15972 6.74699 11.99
    endloop
  endfacet
  facet normal -0.406372 0.913708 0
    outer loop
      vertex -7.26515 6.7001 11.99
      vertex -7.15972 6.74699 10
      vertex -7.26515 6.7001 10
    endloop
  endfacet
  facet normal -0.105351 0.994435 0
    outer loop
      vertex -7.01209 6.76263 10
      vertex -7.15972 6.74699 11.99
      vertex -7.01209 6.76263 11.99
    endloop
  endfacet
  facet normal -0.105351 0.994435 0
    outer loop
      vertex -7.15972 6.74699 11.99
      vertex -7.01209 6.76263 10
      vertex -7.15972 6.74699 10
    endloop
  endfacet
  facet normal 0 1 -0
    outer loop
      vertex -6.31208 6.76263 10
      vertex -7.01209 6.76263 11.99
      vertex -6.31208 6.76263 11.99
    endloop
  endfacet
  facet normal 0 1 0
    outer loop
      vertex -7.01209 6.76263 11.99
      vertex -6.31208 6.76263 10
      vertex -7.01209 6.76263 10
    endloop
  endfacet
  facet normal -0.926225 0.376971 0
    outer loop
      vertex -6.31208 6.76263 10
      vertex -5.97461 7.5918 11.99
      vertex -5.97461 7.5918 10
    endloop
  endfacet
  facet normal -0.926225 0.376971 0
    outer loop
      vertex -5.97461 7.5918 11.99
      vertex -6.31208 6.76263 10
      vertex -6.31208 6.76263 11.99
    endloop
  endfacet
  facet normal -0.910826 0.412789 0
    outer loop
      vertex -5.97461 7.5918 10
      vertex -5.66214 8.28127 11.99
      vertex -5.66214 8.28127 10
    endloop
  endfacet
  facet normal -0.910826 0.412789 0
    outer loop
      vertex -5.66214 8.28127 11.99
      vertex -5.97461 7.5918 10
      vertex -5.97461 7.5918 11.99
    endloop
  endfacet
  facet normal -0.886169 0.463362 0
    outer loop
      vertex -5.66214 8.28127 10
      vertex -5.37467 8.83105 11.99
      vertex -5.37467 8.83105 10
    endloop
  endfacet
  facet normal -0.886169 0.463362 0
    outer loop
      vertex -5.37467 8.83105 11.99
      vertex -5.66214 8.28127 10
      vertex -5.66214 8.28127 11.99
    endloop
  endfacet
  facet normal -0.842256 0.539077 0
    outer loop
      vertex -5.37467 8.83105 10
      vertex -5.11219 9.24115 11.99
      vertex -5.11219 9.24115 10
    endloop
  endfacet
  facet normal -0.842256 0.539077 0
    outer loop
      vertex -5.11219 9.24115 11.99
      vertex -5.37467 8.83105 10
      vertex -5.37467 8.83105 11.99
    endloop
  endfacet
  facet normal -0.758656 0.651492 0
    outer loop
      vertex -5.11219 9.24115 10
      vertex -4.83643 9.56227 11.99
      vertex -4.83643 9.56227 10
    endloop
  endfacet
  facet normal -0.758656 0.651492 0
    outer loop
      vertex -4.83643 9.56227 11.99
      vertex -5.11219 9.24115 10
      vertex -5.11219 9.24115 11.99
    endloop
  endfacet
  facet normal -0.653866 0.75661 0
    outer loop
      vertex -4.5091 9.84515 10
      vertex -4.83643 9.56227 11.99
      vertex -4.5091 9.84515 11.99
    endloop
  endfacet
  facet normal -0.653866 0.75661 0
    outer loop
      vertex -4.83643 9.56227 11.99
      vertex -4.5091 9.84515 10
      vertex -4.83643 9.56227 10
    endloop
  endfacet
  facet normal -0.542448 0.84009 0
    outer loop
      vertex -4.13021 10.0898 10
      vertex -4.5091 9.84515 11.99
      vertex -4.13021 10.0898 11.99
    endloop
  endfacet
  facet normal -0.542448 0.84009 0
    outer loop
      vertex -4.5091 9.84515 11.99
      vertex -4.13021 10.0898 10
      vertex -4.5091 9.84515 10
    endloop
  endfacet
  facet normal -0.432339 0.901711 0
    outer loop
      vertex -3.69973 10.2962 10
      vertex -4.13021 10.0898 11.99
      vertex -3.69973 10.2962 11.99
    endloop
  endfacet
  facet normal -0.432339 0.901711 0
    outer loop
      vertex -4.13021 10.0898 11.99
      vertex -3.69973 10.2962 10
      vertex -4.13021 10.0898 10
    endloop
  endfacet
  facet normal -0.666364 -0.745627 0
    outer loop
      vertex -6.47461 12.7761 10
      vertex -3.69973 10.2962 11.99
      vertex -6.47461 12.7761 11.99
    endloop
  endfacet
  facet normal -0.666364 -0.745627 -0
    outer loop
      vertex -3.69973 10.2962 11.99
      vertex -6.47461 12.7761 10
      vertex -3.69973 10.2962 10
    endloop
  endfacet
  facet normal 0 -1 0
    outer loop
      vertex -6.67459 12.7761 10
      vertex -6.47461 12.7761 11.99
      vertex -6.67459 12.7761 11.99
    endloop
  endfacet
  facet normal 0 -1 -0
    outer loop
      vertex -6.47461 12.7761 11.99
      vertex -6.67459 12.7761 10
      vertex -6.47461 12.7761 10
    endloop
  endfacet
  facet normal -0.10651 -0.994312 0
    outer loop
      vertex -6.82769 12.7925 10
      vertex -6.67459 12.7761 11.99
      vertex -6.82769 12.7925 11.99
    endloop
  endfacet
  facet normal -0.10651 -0.994312 -0
    outer loop
      vertex -6.67459 12.7761 11.99
      vertex -6.82769 12.7925 10
      vertex -6.67459 12.7761 10
    endloop
  endfacet
  facet normal -0.410344 -0.911931 0
    outer loop
      vertex -6.93703 12.8417 10
      vertex -6.82769 12.7925 11.99
      vertex -6.93703 12.8417 11.99
    endloop
  endfacet
  facet normal -0.410344 -0.911931 -0
    outer loop
      vertex -6.82769 12.7925 11.99
      vertex -6.93703 12.8417 10
      vertex -6.82769 12.7925 10
    endloop
  endfacet
  facet normal -0.781194 -0.624289 0
    outer loop
      vertex -6.93703 12.8417 10
      vertex -7.00264 12.9238 11.99
      vertex -7.00264 12.9238 10
    endloop
  endfacet
  facet normal -0.781194 -0.624289 0
    outer loop
      vertex -7.00264 12.9238 11.99
      vertex -6.93703 12.8417 10
      vertex -6.93703 12.8417 11.99
    endloop
  endfacet
  facet normal -0.982333 -0.18714 0
    outer loop
      vertex -7.00264 12.9238 10
      vertex -7.02451 13.0386 11.99
      vertex -7.02451 13.0386 10
    endloop
  endfacet
  facet normal -0.982333 -0.18714 0
    outer loop
      vertex -7.02451 13.0386 11.99
      vertex -7.00264 12.9238 10
      vertex -7.00264 12.9238 11.99
    endloop
  endfacet
  facet normal -0.980598 0.19603 0
    outer loop
      vertex -7.02451 13.0386 10
      vertex -7.00264 13.148 11.99
      vertex -7.00264 13.148 10
    endloop
  endfacet
  facet normal -0.980598 0.19603 0
    outer loop
      vertex -7.00264 13.148 11.99
      vertex -7.02451 13.0386 10
      vertex -7.02451 13.0386 11.99
    endloop
  endfacet
  facet normal -0.766081 0.642744 0
    outer loop
      vertex -7.00264 13.148 10
      vertex -6.93703 13.2262 11.99
      vertex -6.93703 13.2262 10
    endloop
  endfacet
  facet normal -0.766081 0.642744 0
    outer loop
      vertex -6.93703 13.2262 11.99
      vertex -7.00264 13.148 10
      vertex -7.00264 13.148 11.99
    endloop
  endfacet
  facet normal -0.394203 0.919023 0
    outer loop
      vertex -6.82769 13.2731 10
      vertex -6.93703 13.2262 11.99
      vertex -6.82769 13.2731 11.99
    endloop
  endfacet
  facet normal -0.394203 0.919023 0
    outer loop
      vertex -6.93703 13.2262 11.99
      vertex -6.82769 13.2731 10
      vertex -6.93703 13.2262 10
    endloop
  endfacet
  facet normal -0.101369 0.994849 0
    outer loop
      vertex -6.67459 13.2887 10
      vertex -6.82769 13.2731 11.99
      vertex -6.67459 13.2887 11.99
    endloop
  endfacet
  facet normal -0.101369 0.994849 0
    outer loop
      vertex -6.82769 13.2731 11.99
      vertex -6.67459 13.2887 10
      vertex -6.82769 13.2731 10
    endloop
  endfacet
  facet normal 0 1 -0
    outer loop
      vertex -5.19968 13.2887 10
      vertex -6.67459 13.2887 11.99
      vertex -5.19968 13.2887 11.99
    endloop
  endfacet
  facet normal 0 1 0
    outer loop
      vertex -6.67459 13.2887 11.99
      vertex -5.19968 13.2887 10
      vertex -6.67459 13.2887 10
    endloop
  endfacet
  facet normal 0.101343 0.994852 -0
    outer loop
      vertex -5.04654 13.2731 10
      vertex -5.19968 13.2887 11.99
      vertex -5.04654 13.2731 11.99
    endloop
  endfacet
  facet normal 0.101343 0.994852 0
    outer loop
      vertex -5.19968 13.2887 11.99
      vertex -5.04654 13.2731 10
      vertex -5.19968 13.2887 10
    endloop
  endfacet
  facet normal 0.394112 0.919062 -0
    outer loop
      vertex -4.93717 13.2262 10
      vertex -5.04654 13.2731 11.99
      vertex -4.93717 13.2262 11.99
    endloop
  endfacet
  facet normal 0.394112 0.919062 0
    outer loop
      vertex -5.04654 13.2731 11.99
      vertex -4.93717 13.2262 10
      vertex -5.04654 13.2731 10
    endloop
  endfacet
  facet normal 0.765985 0.642859 0
    outer loop
      vertex -4.87154 13.148 11.99
      vertex -4.93717 13.2262 10
      vertex -4.93717 13.2262 11.99
    endloop
  endfacet
  facet normal 0.765985 0.642859 0
    outer loop
      vertex -4.93717 13.2262 10
      vertex -4.87154 13.148 11.99
      vertex -4.87154 13.148 10
    endloop
  endfacet
  facet normal 0.980581 0.196116 0
    outer loop
      vertex -4.84966 13.0386 11.99
      vertex -4.87154 13.148 10
      vertex -4.87154 13.148 11.99
    endloop
  endfacet
  facet normal 0.980581 0.196116 0
    outer loop
      vertex -4.87154 13.148 10
      vertex -4.84966 13.0386 11.99
      vertex -4.84966 13.0386 10
    endloop
  endfacet
  facet normal 0.982318 -0.187222 0
    outer loop
      vertex -4.87154 12.9238 11.99
      vertex -4.84966 13.0386 10
      vertex -4.84966 13.0386 11.99
    endloop
  endfacet
  facet normal 0.982318 -0.187222 0
    outer loop
      vertex -4.84966 13.0386 10
      vertex -4.87154 12.9238 11.99
      vertex -4.87154 12.9238 10
    endloop
  endfacet
  facet normal 0.781101 -0.624405 0
    outer loop
      vertex -4.93717 12.8417 11.99
      vertex -4.87154 12.9238 10
      vertex -4.87154 12.9238 11.99
    endloop
  endfacet
  facet normal 0.781101 -0.624405 0
    outer loop
      vertex -4.87154 12.9238 10
      vertex -4.93717 12.8417 11.99
      vertex -4.93717 12.8417 10
    endloop
  endfacet
  facet normal 0.41025 -0.911973 0
    outer loop
      vertex -5.04654 12.7925 10
      vertex -4.93717 12.8417 11.99
      vertex -5.04654 12.7925 11.99
    endloop
  endfacet
  facet normal 0.41025 -0.911973 0
    outer loop
      vertex -4.93717 12.8417 11.99
      vertex -5.04654 12.7925 10
      vertex -4.93717 12.8417 10
    endloop
  endfacet
  facet normal 0.106483 -0.994315 0
    outer loop
      vertex -5.19968 12.7761 10
      vertex -5.04654 12.7925 11.99
      vertex -5.19968 12.7761 11.99
    endloop
  endfacet
  facet normal 0.106483 -0.994315 0
    outer loop
      vertex -5.04654 12.7925 11.99
      vertex -5.19968 12.7761 10
      vertex -5.04654 12.7925 10
    endloop
  endfacet
  facet normal 0 -1 0
    outer loop
      vertex -5.76218 12.7761 10
      vertex -5.19968 12.7761 11.99
      vertex -5.76218 12.7761 11.99
    endloop
  endfacet
  facet normal 0 -1 -0
    outer loop
      vertex -5.19968 12.7761 11.99
      vertex -5.76218 12.7761 10
      vertex -5.19968 12.7761 10
    endloop
  endfacet
  facet normal 0.664129 0.747618 -0
    outer loop
      vertex -2.26235 9.66711 10
      vertex -5.76218 12.7761 11.99
      vertex -2.26235 9.66711 11.99
    endloop
  endfacet
  facet normal 0.664129 0.747618 0
    outer loop
      vertex -5.76218 12.7761 11.99
      vertex -2.26235 9.66711 10
      vertex -5.76218 12.7761 10
    endloop
  endfacet
  facet normal -1 0 0
    outer loop
      vertex -2.26235 9.66711 10
      vertex -2.26235 12.7761 11.99
      vertex -2.26235 12.7761 10
    endloop
  endfacet
  facet normal -1 -0 0
    outer loop
      vertex -2.26235 12.7761 11.99
      vertex -2.26235 9.66711 10
      vertex -2.26235 9.66711 11.99
    endloop
  endfacet
  facet normal 0 -1 0
    outer loop
      vertex -3.19979 12.7761 10
      vertex -2.26235 12.7761 11.99
      vertex -3.19979 12.7761 11.99
    endloop
  endfacet
  facet normal 0 -1 -0
    outer loop
      vertex -2.26235 12.7761 11.99
      vertex -3.19979 12.7761 10
      vertex -2.26235 12.7761 10
    endloop
  endfacet
  facet normal -0.110387 -0.993889 0
    outer loop
      vertex -3.34745 12.7925 10
      vertex -3.19979 12.7761 11.99
      vertex -3.34745 12.7925 11.99
    endloop
  endfacet
  facet normal -0.110387 -0.993889 -0
    outer loop
      vertex -3.19979 12.7761 11.99
      vertex -3.34745 12.7925 10
      vertex -3.19979 12.7761 10
    endloop
  endfacet
  facet normal -0.422782 -0.906231 0
    outer loop
      vertex -3.45291 12.8417 10
      vertex -3.34745 12.7925 11.99
      vertex -3.45291 12.8417 11.99
    endloop
  endfacet
  facet normal -0.422782 -0.906231 -0
    outer loop
      vertex -3.34745 12.7925 11.99
      vertex -3.45291 12.8417 10
      vertex -3.34745 12.7925 10
    endloop
  endfacet
  facet normal -0.792035 -0.610475 0
    outer loop
      vertex -3.45291 12.8417 10
      vertex -3.51619 12.9238 11.99
      vertex -3.51619 12.9238 10
    endloop
  endfacet
  facet normal -0.792035 -0.610475 0
    outer loop
      vertex -3.51619 12.9238 11.99
      vertex -3.45291 12.8417 10
      vertex -3.45291 12.8417 11.99
    endloop
  endfacet
  facet normal -0.983541 -0.180687 0
    outer loop
      vertex -3.51619 12.9238 10
      vertex -3.53728 13.0386 11.99
      vertex -3.53728 13.0386 10
    endloop
  endfacet
  facet normal -0.983541 -0.180687 0
    outer loop
      vertex -3.53728 13.0386 11.99
      vertex -3.51619 12.9238 10
      vertex -3.51619 12.9238 11.99
    endloop
  endfacet
  facet normal -0.981921 0.189293 0
    outer loop
      vertex -3.53728 13.0386 10
      vertex -3.51619 13.148 11.99
      vertex -3.51619 13.148 10
    endloop
  endfacet
  facet normal -0.981921 0.189293 0
    outer loop
      vertex -3.51619 13.148 11.99
      vertex -3.53728 13.0386 10
      vertex -3.53728 13.0386 11.99
    endloop
  endfacet
  facet normal -0.777365 0.62905 0
    outer loop
      vertex -3.51619 13.148 10
      vertex -3.45291 13.2262 11.99
      vertex -3.45291 13.2262 10
    endloop
  endfacet
  facet normal -0.777365 0.62905 0
    outer loop
      vertex -3.45291 13.2262 11.99
      vertex -3.51619 13.148 10
      vertex -3.51619 13.148 11.99
    endloop
  endfacet
  facet normal -0.406347 0.913719 0
    outer loop
      vertex -3.34745 13.2731 10
      vertex -3.45291 13.2262 11.99
      vertex -3.34745 13.2731 11.99
    endloop
  endfacet
  facet normal -0.406347 0.913719 0
    outer loop
      vertex -3.45291 13.2262 11.99
      vertex -3.34745 13.2731 10
      vertex -3.45291 13.2262 10
    endloop
  endfacet
  facet normal -0.105063 0.994466 0
    outer loop
      vertex -3.19979 13.2887 10
      vertex -3.34745 13.2731 11.99
      vertex -3.19979 13.2887 11.99
    endloop
  endfacet
  facet normal -0.105063 0.994466 0
    outer loop
      vertex -3.34745 13.2731 11.99
      vertex -3.19979 13.2887 10
      vertex -3.34745 13.2731 10
    endloop
  endfacet
  facet normal 0 1 -0
    outer loop
      vertex -1.07497 13.2887 10
      vertex -3.19979 13.2887 11.99
      vertex -1.07497 13.2887 11.99
    endloop
  endfacet
  facet normal 0 1 0
    outer loop
      vertex -3.19979 13.2887 11.99
      vertex -1.07497 13.2887 10
      vertex -3.19979 13.2887 10
    endloop
  endfacet
  facet normal 0.105063 0.994466 -0
    outer loop
      vertex -0.92731 13.2731 10
      vertex -1.07497 13.2887 11.99
      vertex -0.92731 13.2731 11.99
    endloop
  endfacet
  facet normal 0.105063 0.994466 0
    outer loop
      vertex -1.07497 13.2887 11.99
      vertex -0.92731 13.2731 10
      vertex -1.07497 13.2887 10
    endloop
  endfacet
  facet normal 0.406319 0.913732 -0
    outer loop
      vertex -0.821841 13.2262 10
      vertex -0.92731 13.2731 11.99
      vertex -0.821841 13.2262 11.99
    endloop
  endfacet
  facet normal 0.406319 0.913732 0
    outer loop
      vertex -0.92731 13.2731 11.99
      vertex -0.821841 13.2262 10
      vertex -0.92731 13.2731 10
    endloop
  endfacet
  facet normal 0.777375 0.629038 0
    outer loop
      vertex -0.758563 13.148 11.99
      vertex -0.821841 13.2262 10
      vertex -0.821841 13.2262 11.99
    endloop
  endfacet
  facet normal 0.777375 0.629038 0
    outer loop
      vertex -0.821841 13.2262 10
      vertex -0.758563 13.148 11.99
      vertex -0.758563 13.148 10
    endloop
  endfacet
  facet normal 0.981924 0.189276 0
    outer loop
      vertex -0.737475 13.0386 11.99
      vertex -0.758563 13.148 10
      vertex -0.758563 13.148 11.99
    endloop
  endfacet
  facet normal 0.981924 0.189276 0
    outer loop
      vertex -0.758563 13.148 10
      vertex -0.737475 13.0386 11.99
      vertex -0.737475 13.0386 10
    endloop
  endfacet
  facet normal 0.983544 -0.18067 0
    outer loop
      vertex -0.758563 12.9238 11.99
      vertex -0.737475 13.0386 10
      vertex -0.737475 13.0386 11.99
    endloop
  endfacet
  facet normal 0.983544 -0.18067 0
    outer loop
      vertex -0.737475 13.0386 10
      vertex -0.758563 12.9238 11.99
      vertex -0.758563 12.9238 10
    endloop
  endfacet
  facet normal 0.792045 -0.610463 0
    outer loop
      vertex -0.821841 12.8417 11.99
      vertex -0.758563 12.9238 10
      vertex -0.758563 12.9238 11.99
    endloop
  endfacet
  facet normal 0.792045 -0.610463 0
    outer loop
      vertex -0.758563 12.9238 10
      vertex -0.821841 12.8417 11.99
      vertex -0.821841 12.8417 10
    endloop
  endfacet
  facet normal 0.422752 -0.906245 0
    outer loop
      vertex -0.92731 12.7925 10
      vertex -0.821841 12.8417 11.99
      vertex -0.92731 12.7925 11.99
    endloop
  endfacet
  facet normal 0.422752 -0.906245 0
    outer loop
      vertex -0.821841 12.8417 11.99
      vertex -0.92731 12.7925 10
      vertex -0.821841 12.8417 10
    endloop
  endfacet
  facet normal 0.110387 -0.993889 0
    outer loop
      vertex -1.07497 12.7761 10
      vertex -0.92731 12.7925 11.99
      vertex -1.07497 12.7761 11.99
    endloop
  endfacet
  facet normal 0.110387 -0.993889 0
    outer loop
      vertex -0.92731 12.7925 11.99
      vertex -1.07497 12.7761 10
      vertex -0.92731 12.7925 10
    endloop
  endfacet
  facet normal 0 -1 0
    outer loop
      vertex -1.74988 12.7761 10
      vertex -1.07497 12.7761 11.99
      vertex -1.74988 12.7761 11.99
    endloop
  endfacet
  facet normal 0 -1 -0
    outer loop
      vertex -1.07497 12.7761 11.99
      vertex -1.74988 12.7761 10
      vertex -1.07497 12.7761 10
    endloop
  endfacet
  facet normal 1 -0 0
    outer loop
      vertex -1.74988 6.76263 11.99
      vertex -1.74988 12.7761 10
      vertex -1.74988 12.7761 11.99
    endloop
  endfacet
  facet normal 1 0 0
    outer loop
      vertex -1.74988 12.7761 10
      vertex -1.74988 6.76263 11.99
      vertex -1.74988 6.76263 10
    endloop
  endfacet
  facet normal 0 1 -0
    outer loop
      vertex -1.07497 6.76263 10
      vertex -1.74988 6.76263 11.99
      vertex -1.07497 6.76263 11.99
    endloop
  endfacet
  facet normal 0 1 0
    outer loop
      vertex -1.74988 6.76263 11.99
      vertex -1.07497 6.76263 10
      vertex -1.74988 6.76263 10
    endloop
  endfacet
  facet normal 0.10533 0.994437 -0
    outer loop
      vertex -0.92731 6.74699 10
      vertex -1.07497 6.76263 11.99
      vertex -0.92731 6.74699 11.99
    endloop
  endfacet
  facet normal 0.10533 0.994437 0
    outer loop
      vertex -1.07497 6.76263 11.99
      vertex -0.92731 6.74699 10
      vertex -1.07497 6.76263 10
    endloop
  endfacet
  facet normal 0.406246 0.913764 -0
    outer loop
      vertex -0.821841 6.7001 10
      vertex -0.92731 6.74699 11.99
      vertex -0.821841 6.7001 11.99
    endloop
  endfacet
  facet normal 0.406246 0.913764 0
    outer loop
      vertex -0.92731 6.74699 11.99
      vertex -0.821841 6.7001 10
      vertex -0.92731 6.74699 10
    endloop
  endfacet
  facet normal 0.777178 0.629281 0
    outer loop
      vertex -0.758563 6.62195 11.99
      vertex -0.821841 6.7001 10
      vertex -0.821841 6.7001 11.99
    endloop
  endfacet
  facet normal 0.777178 0.629281 0
    outer loop
      vertex -0.821841 6.7001 10
      vertex -0.758563 6.62195 11.99
      vertex -0.758563 6.62195 10
    endloop
  endfacet
  facet normal 0.98193 0.189243 0
    outer loop
      vertex -0.737475 6.51253 11.99
      vertex -0.758563 6.62195 10
      vertex -0.758563 6.62195 11.99
    endloop
  endfacet
  facet normal 0.98193 0.189243 0
    outer loop
      vertex -0.758563 6.62195 10
      vertex -0.737475 6.51253 11.99
      vertex -0.737475 6.51253 10
    endloop
  endfacet
  facet normal 0.983563 -0.180564 0
    outer loop
      vertex -0.758563 6.39766 11.99
      vertex -0.737475 6.51253 10
      vertex -0.737475 6.51253 11.99
    endloop
  endfacet
  facet normal 0.983563 -0.180564 0
    outer loop
      vertex -0.737475 6.51253 10
      vertex -0.758563 6.39766 11.99
      vertex -0.758563 6.39766 10
    endloop
  endfacet
  facet normal 0.791793 -0.61079 0
    outer loop
      vertex -0.821841 6.31563 11.99
      vertex -0.758563 6.39766 10
      vertex -0.758563 6.39766 11.99
    endloop
  endfacet
  facet normal 0.791793 -0.61079 0
    outer loop
      vertex -0.758563 6.39766 10
      vertex -0.821841 6.31563 11.99
      vertex -0.821841 6.31563 10
    endloop
  endfacet
  facet normal 0.422964 -0.906146 0
    outer loop
      vertex -0.92731 6.2664 10
      vertex -0.821841 6.31563 11.99
      vertex -0.92731 6.2664 11.99
    endloop
  endfacet
  facet normal 0.422964 -0.906146 0
    outer loop
      vertex -0.821841 6.31563 11.99
      vertex -0.92731 6.2664 10
      vertex -0.821841 6.31563 10
    endloop
  endfacet
  facet normal 0.110387 -0.993889 0
    outer loop
      vertex -1.07497 6.25 10
      vertex -0.92731 6.2664 11.99
      vertex -1.07497 6.25 11.99
    endloop
  endfacet
  facet normal 0.110387 -0.993889 0
    outer loop
      vertex -0.92731 6.2664 11.99
      vertex -1.07497 6.25 10
      vertex -0.92731 6.2664 10
    endloop
  endfacet
  facet normal 0 -1 0
    outer loop
      vertex -3.19979 6.25 10
      vertex -1.07497 6.25 11.99
      vertex -3.19979 6.25 11.99
    endloop
  endfacet
  facet normal 0 -1 -0
    outer loop
      vertex -1.07497 6.25 11.99
      vertex -3.19979 6.25 10
      vertex -1.07497 6.25 10
    endloop
  endfacet
  facet normal -0.110387 -0.993889 0
    outer loop
      vertex -3.34745 6.2664 10
      vertex -3.19979 6.25 11.99
      vertex -3.34745 6.2664 11.99
    endloop
  endfacet
  facet normal -0.110387 -0.993889 -0
    outer loop
      vertex -3.19979 6.25 11.99
      vertex -3.34745 6.2664 10
      vertex -3.19979 6.25 10
    endloop
  endfacet
endsolid OpenSCAD_Model
