solid OpenSCAD_Model
  facet normal -0 0 1
    outer loop
      vertex -6.76205 6.25 10
      vertex -6.51 3.5 10
      vertex -1.12491 6.25 10
    endloop
  endfacet
  facet normal 0 0 1
    outer loop
      vertex -6.76205 6.25 10
      vertex -7.5 3.5 10
      vertex -6.51 3.5 10
    endloop
  endfacet
  facet normal 0 0 1
    outer loop
      vertex -6.76205 8.75847 10
      vertex -7.5 3.5 10
      vertex -6.76205 6.25 10
    endloop
  endfacet
  facet normal 0 0 1
    outer loop
      vertex -0.808502 6.62195 10
      vertex 0 14.5 10
      vertex -0.808502 12.9238 10
    endloop
  endfacet
  facet normal 0 0 1
    outer loop
      vertex 0 14.5 10
      vertex -0.808502 6.62195 10
      vertex -0.787399 6.51253 10
    endloop
  endfacet
  facet normal -0 0 1
    outer loop
      vertex -0.87178 12.8417 10
      vertex -0.808502 6.62195 10
      vertex -0.808502 12.9238 10
    endloop
  endfacet
  facet normal 0 0 1
    outer loop
      vertex -0.87178 12.8417 10
      vertex -0.87178 6.7001 10
      vertex -0.808502 6.62195 10
    endloop
  endfacet
  facet normal -0 0 1
    outer loop
      vertex -0.977249 12.7925 10
      vertex -0.87178 6.7001 10
      vertex -0.87178 12.8417 10
    endloop
  endfacet
  facet normal 0 0 1
    outer loop
      vertex -0.977249 12.7925 10
      vertex -0.977249 6.74699 10
      vertex -0.87178 6.7001 10
    endloop
  endfacet
  facet normal -0 0 1
    outer loop
      vertex -1.12491 12.7761 10
      vertex -0.977249 6.74699 10
      vertex -0.977249 12.7925 10
    endloop
  endfacet
  facet normal 0 0 1
    outer loop
      vertex -1.12491 12.7761 10
      vertex -1.12491 6.76263 10
      vertex -0.977249 6.74699 10
    endloop
  endfacet
  facet normal -0 0 1
    outer loop
      vertex -2.32487 12.7761 10
      vertex -1.12491 6.76263 10
      vertex -1.12491 12.7761 10
    endloop
  endfacet
  facet normal 0 0 1
    outer loop
      vertex -1.12491 6.76263 10
      vertex -2.32487 12.7761 10
      vertex -2.32487 6.76263 10
    endloop
  endfacet
  facet normal 0 0 1
    outer loop
      vertex -0.808502 12.9238 10
      vertex 0 14.5 10
      vertex -0.787399 13.0386 10
    endloop
  endfacet
  facet normal 0 0 1
    outer loop
      vertex 0 14.5 10
      vertex -0.808502 13.148 10
      vertex -0.787399 13.0386 10
    endloop
  endfacet
  facet normal 0 0 1
    outer loop
      vertex 0 14.5 10
      vertex -0.87178 13.2262 10
      vertex -0.808502 13.148 10
    endloop
  endfacet
  facet normal 0 0 1
    outer loop
      vertex 0 14.5 10
      vertex -0.977249 13.2731 10
      vertex -0.87178 13.2262 10
    endloop
  endfacet
  facet normal 0 0 1
    outer loop
      vertex 0 14.5 10
      vertex -1.12491 13.2887 10
      vertex -0.977249 13.2731 10
    endloop
  endfacet
  facet normal 0 0 1
    outer loop
      vertex 0 14.5 10
      vertex -4.03722 13.2887 10
      vertex -1.12491 13.2887 10
    endloop
  endfacet
  facet normal -0 0 1
    outer loop
      vertex -7.5 14.5 10
      vertex -4.03722 13.2887 10
      vertex 0 14.5 10
    endloop
  endfacet
  facet normal 0 0 1
    outer loop
      vertex -7.5 14.5 10
      vertex -4.37471 13.0386 10
      vertex -4.35362 13.148 10
    endloop
  endfacet
  facet normal 0 0 1
    outer loop
      vertex -4.37471 13.0386 10
      vertex -6.26599 8.90599 10
      vertex -6.24959 8.75865 10
    endloop
  endfacet
  facet normal 0 0 1
    outer loop
      vertex -4.37471 13.0386 10
      vertex -6.3152 9.01123 10
      vertex -6.26599 8.90599 10
    endloop
  endfacet
  facet normal 0 0 1
    outer loop
      vertex -4.37471 13.0386 10
      vertex -6.39722 9.07439 10
      vertex -6.3152 9.01123 10
    endloop
  endfacet
  facet normal 0 0 1
    outer loop
      vertex -4.37471 13.0386 10
      vertex -6.51204 9.09543 10
      vertex -6.39722 9.07439 10
    endloop
  endfacet
  facet normal 0 0 1
    outer loop
      vertex -4.37471 13.0386 10
      vertex -7.5 14.5 10
      vertex -6.51204 9.09543 10
    endloop
  endfacet
  facet normal 0 0 1
    outer loop
      vertex -6.51204 9.09543 10
      vertex -7.5 14.5 10
      vertex -6.62141 9.07437 10
    endloop
  endfacet
  facet normal 0 0 1
    outer loop
      vertex -7.5 3.5 10
      vertex -6.76205 8.75847 10
      vertex -7.5 14.5 10
    endloop
  endfacet
  facet normal 0 0 1
    outer loop
      vertex -6.74643 8.9059 10
      vertex -7.5 14.5 10
      vertex -6.76205 8.75847 10
    endloop
  endfacet
  facet normal 0 0 1
    outer loop
      vertex -6.69955 9.0112 10
      vertex -7.5 14.5 10
      vertex -6.74643 8.9059 10
    endloop
  endfacet
  facet normal 0 0 1
    outer loop
      vertex -6.62141 9.07437 10
      vertex -7.5 14.5 10
      vertex -6.69955 9.0112 10
    endloop
  endfacet
  facet normal 0 0 1
    outer loop
      vertex -4.29034 13.2262 10
      vertex -7.5 14.5 10
      vertex -4.35362 13.148 10
    endloop
  endfacet
  facet normal 0 0 1
    outer loop
      vertex -4.18488 13.2731 10
      vertex -7.5 14.5 10
      vertex -4.29034 13.2262 10
    endloop
  endfacet
  facet normal 0 0 1
    outer loop
      vertex -4.03722 13.2887 10
      vertex -7.5 14.5 10
      vertex -4.18488 13.2731 10
    endloop
  endfacet
  facet normal 0 0 1
    outer loop
      vertex 0 14.5 10
      vertex -0.787399 6.51253 10
      vertex 0 2.5 10
    endloop
  endfacet
  facet normal -0 0 1
    outer loop
      vertex -0.808502 6.39766 10
      vertex 0 2.5 10
      vertex -0.787399 6.51253 10
    endloop
  endfacet
  facet normal -0 0 1
    outer loop
      vertex -0.87178 6.31563 10
      vertex 0 2.5 10
      vertex -0.808502 6.39766 10
    endloop
  endfacet
  facet normal -0 0 1
    outer loop
      vertex -0.977249 6.2664 10
      vertex 0 2.5 10
      vertex -0.87178 6.31563 10
    endloop
  endfacet
  facet normal -0 0 1
    outer loop
      vertex -1.12491 6.25 10
      vertex 0 2.5 10
      vertex -0.977249 6.2664 10
    endloop
  endfacet
  facet normal -0 0 1
    outer loop
      vertex -6.51 3.5 10
      vertex 0 2.5 10
      vertex -1.12491 6.25 10
    endloop
  endfacet
  facet normal 0 0 1
    outer loop
      vertex 0 2.5 10
      vertex -6.51 3.5 10
      vertex -6.51 2.5 10
    endloop
  endfacet
  facet normal 0 0 1
    outer loop
      vertex -6.24959 8.75865 10
      vertex -2.83733 12.7761 10
      vertex -4.03722 12.7761 10
    endloop
  endfacet
  facet normal 0 0 1
    outer loop
      vertex -6.24959 8.75865 10
      vertex -4.03722 12.7761 10
      vertex -4.18488 12.7925 10
    endloop
  endfacet
  facet normal 0 0 1
    outer loop
      vertex -6.24959 8.75865 10
      vertex -4.18488 12.7925 10
      vertex -4.29034 12.8417 10
    endloop
  endfacet
  facet normal 0 0 1
    outer loop
      vertex -6.24959 8.75865 10
      vertex -4.29034 12.8417 10
      vertex -4.35362 12.9238 10
    endloop
  endfacet
  facet normal 0 0 1
    outer loop
      vertex -6.24959 8.75865 10
      vertex -4.35362 12.9238 10
      vertex -4.37471 13.0386 10
    endloop
  endfacet
  facet normal 0 0 1
    outer loop
      vertex -2.83733 12.7761 10
      vertex -6.24959 8.75865 10
      vertex -2.83733 6.76263 10
    endloop
  endfacet
  facet normal 0 0 1
    outer loop
      vertex -2.83733 6.76263 10
      vertex -6.24959 8.75865 10
      vertex -6.24959 6.76263 10
    endloop
  endfacet
  facet normal -1 0 0
    outer loop
      vertex -7.5 0 3
      vertex -7.5 17 3
      vertex -7.5 17 0
    endloop
  endfacet
  facet normal -1 0 0
    outer loop
      vertex -7.5 17 3
      vertex -7.5 3.5 9.01
      vertex -7.5 14.5 10
    endloop
  endfacet
  facet normal -1 0 0
    outer loop
      vertex -7.5 17 3
      vertex -7.5 0 3
      vertex -7.5 3.5 9.01
    endloop
  endfacet
  facet normal -1 0 0
    outer loop
      vertex -7.5 0 3
      vertex -7.5 17 0
      vertex -7.5 0 0
    endloop
  endfacet
  facet normal -1 -0 0
    outer loop
      vertex -7.5 3.5 9.01
      vertex -7.5 0 3
      vertex -7.5 2.14643 9.01
    endloop
  endfacet
  facet normal -1 -0 0
    outer loop
      vertex -7.5 14.5 10
      vertex -7.5 3.5 9.01
      vertex -7.5 3.5 10
    endloop
  endfacet
  facet normal 0 1 -0
    outer loop
      vertex 0 17 0
      vertex -7.5 17 3
      vertex 0 17 3
    endloop
  endfacet
  facet normal 0 1 0
    outer loop
      vertex -7.5 17 3
      vertex 0 17 0
      vertex -7.5 17 0
    endloop
  endfacet
  facet normal 0 0 -1
    outer loop
      vertex -7.5 0 0
      vertex 0 17 0
      vertex 0 0 0
    endloop
  endfacet
  facet normal -0 0 -1
    outer loop
      vertex 0 17 0
      vertex -7.5 0 0
      vertex -7.5 17 0
    endloop
  endfacet
  facet normal 1 0 0
    outer loop
      vertex 0 0 3
      vertex 0 17 3
      vertex 0 14.5 10
    endloop
  endfacet
  facet normal 1 0 0
    outer loop
      vertex 0 0 3
      vertex 0 14.5 10
      vertex 0 2.5 10
    endloop
  endfacet
  facet normal 1 0 0
    outer loop
      vertex 0 17 3
      vertex 0 0 3
      vertex 0 17 0
    endloop
  endfacet
  facet normal 1 0 0
    outer loop
      vertex 0 17 0
      vertex 0 0 3
      vertex 0 0 0
    endloop
  endfacet
  facet normal 0 -0.941742 0.336337
    outer loop
      vertex -7.5 2.14643 9.01
      vertex -7.5 0 3
      vertex -6.51 2.14643 9.01
    endloop
  endfacet
  facet normal 0 -0.941742 0.336335
    outer loop
      vertex -6.51 2.14643 9.01
      vertex 0 2.5 10
      vertex -6.51 2.5 10
    endloop
  endfacet
  facet normal 0 -0.941742 0.336337
    outer loop
      vertex 0 0 3
      vertex -6.51 2.14643 9.01
      vertex -7.5 0 3
    endloop
  endfacet
  facet normal -2.06658e-07 -0.941742 0.336336
    outer loop
      vertex -6.51 2.14643 9.01
      vertex 0 0 3
      vertex 0 2.5 10
    endloop
  endfacet
  facet normal 0 -1 0
    outer loop
      vertex -7.5 0 0
      vertex 0 0 3
      vertex -7.5 0 3
    endloop
  endfacet
  facet normal 0 -1 -0
    outer loop
      vertex 0 0 3
      vertex -7.5 0 0
      vertex 0 0 0
    endloop
  endfacet
  facet normal 0 0.941742 0.336336
    outer loop
      vertex 0 17 3
      vertex -7.5 14.5 10
      vertex 0 14.5 10
    endloop
  endfacet
  facet normal 0 0.941742 0.336336
    outer loop
      vertex -7.5 14.5 10
      vertex 0 17 3
      vertex -7.5 17 3
    endloop
  endfacet
  facet normal -0 0 1
    outer loop
      vertex -7.5 3.5 9.01
      vertex -6.51 2.14643 9.01
      vertex -6.51 3.5 9.01
    endloop
  endfacet
  facet normal 0 0 1
    outer loop
      vertex -6.51 2.14643 9.01
      vertex -7.5 3.5 9.01
      vertex -7.5 2.14643 9.01
    endloop
  endfacet
  facet normal -1 0 0
    outer loop
      vertex -6.51 3.5 9.01
      vertex -6.51 2.5 10
      vertex -6.51 3.5 10
    endloop
  endfacet
  facet normal -1 0 -0
    outer loop
      vertex -6.51 2.5 10
      vertex -6.51 3.5 9.01
      vertex -6.51 2.14643 9.01
    endloop
  endfacet
  facet normal 0 -1 0
    outer loop
      vertex -7.5 3.5 9.01
      vertex -6.51 3.5 10
      vertex -7.5 3.5 10
    endloop
  endfacet
  facet normal 0 -1 -0
    outer loop
      vertex -6.51 3.5 10
      vertex -7.5 3.5 9.01
      vertex -6.51 3.5 9.01
    endloop
  endfacet
  facet normal 0 0 1
    outer loop
      vertex -6.76205 8.75847 11.99
      vertex -6.24959 8.75865 11.99
      vertex -6.26599 8.90599 11.99
    endloop
  endfacet
  facet normal 0 0 1
    outer loop
      vertex -0.87178 13.2262 11.99
      vertex -0.787399 13.0386 11.99
      vertex -0.808502 13.148 11.99
    endloop
  endfacet
  facet normal 0 0 1
    outer loop
      vertex -0.787399 13.0386 11.99
      vertex -0.87178 13.2262 11.99
      vertex -0.977249 13.2731 11.99
    endloop
  endfacet
  facet normal 0 0 1
    outer loop
      vertex -0.977249 12.7925 11.99
      vertex -0.787399 13.0386 11.99
      vertex -0.977249 13.2731 11.99
    endloop
  endfacet
  facet normal 0 0 1
    outer loop
      vertex -0.787399 13.0386 11.99
      vertex -0.977249 12.7925 11.99
      vertex -0.808502 12.9238 11.99
    endloop
  endfacet
  facet normal 0 0 1
    outer loop
      vertex -0.808502 12.9238 11.99
      vertex -0.977249 12.7925 11.99
      vertex -0.87178 12.8417 11.99
    endloop
  endfacet
  facet normal 0 0 1
    outer loop
      vertex -1.12491 13.2887 11.99
      vertex -0.977249 12.7925 11.99
      vertex -0.977249 13.2731 11.99
    endloop
  endfacet
  facet normal 0 0 1
    outer loop
      vertex -1.12491 13.2887 11.99
      vertex -1.12491 12.7761 11.99
      vertex -0.977249 12.7925 11.99
    endloop
  endfacet
  facet normal 0 0 1
    outer loop
      vertex -1.12491 13.2887 11.99
      vertex -2.32487 12.7761 11.99
      vertex -1.12491 12.7761 11.99
    endloop
  endfacet
  facet normal 0 0 1
    outer loop
      vertex -2.32487 12.7761 11.99
      vertex -2.83733 12.7761 11.99
      vertex -2.32487 6.76263 11.99
    endloop
  endfacet
  facet normal 0 0 1
    outer loop
      vertex -1.12491 13.2887 11.99
      vertex -2.83733 12.7761 11.99
      vertex -2.32487 12.7761 11.99
    endloop
  endfacet
  facet normal -0 0 1
    outer loop
      vertex -4.03722 13.2887 11.99
      vertex -2.83733 12.7761 11.99
      vertex -1.12491 13.2887 11.99
    endloop
  endfacet
  facet normal 0 0 1
    outer loop
      vertex -4.03722 13.2887 11.99
      vertex -4.03722 12.7761 11.99
      vertex -2.83733 12.7761 11.99
    endloop
  endfacet
  facet normal -0 0 1
    outer loop
      vertex -4.18488 13.2731 11.99
      vertex -4.03722 12.7761 11.99
      vertex -4.03722 13.2887 11.99
    endloop
  endfacet
  facet normal 0 0 1
    outer loop
      vertex -4.18488 13.2731 11.99
      vertex -4.18488 12.7925 11.99
      vertex -4.03722 12.7761 11.99
    endloop
  endfacet
  facet normal 0 0 1
    outer loop
      vertex -4.37471 13.0386 11.99
      vertex -4.18488 13.2731 11.99
      vertex -4.29034 13.2262 11.99
    endloop
  endfacet
  facet normal 0 0 1
    outer loop
      vertex -4.18488 13.2731 11.99
      vertex -4.37471 13.0386 11.99
      vertex -4.18488 12.7925 11.99
    endloop
  endfacet
  facet normal 0 0 1
    outer loop
      vertex -4.37471 13.0386 11.99
      vertex -4.29034 13.2262 11.99
      vertex -4.35362 13.148 11.99
    endloop
  endfacet
  facet normal 0 0 1
    outer loop
      vertex -4.18488 12.7925 11.99
      vertex -4.37471 13.0386 11.99
      vertex -4.29034 12.8417 11.99
    endloop
  endfacet
  facet normal 0 0 1
    outer loop
      vertex -4.29034 12.8417 11.99
      vertex -4.37471 13.0386 11.99
      vertex -4.35362 12.9238 11.99
    endloop
  endfacet
  facet normal 0 0 1
    outer loop
      vertex -0.87178 6.7001 11.99
      vertex -0.787399 6.51253 11.99
      vertex -0.808502 6.62195 11.99
    endloop
  endfacet
  facet normal 0 0 1
    outer loop
      vertex -0.787399 6.51253 11.99
      vertex -0.87178 6.7001 11.99
      vertex -0.977249 6.74699 11.99
    endloop
  endfacet
  facet normal 0 0 1
    outer loop
      vertex -0.977249 6.2664 11.99
      vertex -0.787399 6.51253 11.99
      vertex -0.977249 6.74699 11.99
    endloop
  endfacet
  facet normal 0 0 1
    outer loop
      vertex -0.787399 6.51253 11.99
      vertex -0.977249 6.2664 11.99
      vertex -0.808502 6.39766 11.99
    endloop
  endfacet
  facet normal 0 0 1
    outer loop
      vertex -0.808502 6.39766 11.99
      vertex -0.977249 6.2664 11.99
      vertex -0.87178 6.31563 11.99
    endloop
  endfacet
  facet normal 0 0 1
    outer loop
      vertex -1.12491 6.76263 11.99
      vertex -0.977249 6.2664 11.99
      vertex -0.977249 6.74699 11.99
    endloop
  endfacet
  facet normal 0 0 1
    outer loop
      vertex -1.12491 6.76263 11.99
      vertex -1.12491 6.25 11.99
      vertex -0.977249 6.2664 11.99
    endloop
  endfacet
  facet normal -0 0 1
    outer loop
      vertex -2.32487 6.76263 11.99
      vertex -1.12491 6.25 11.99
      vertex -1.12491 6.76263 11.99
    endloop
  endfacet
  facet normal 0 0 1
    outer loop
      vertex -2.83733 6.76263 11.99
      vertex -2.32487 6.76263 11.99
      vertex -2.83733 12.7761 11.99
    endloop
  endfacet
  facet normal -0 0 1
    outer loop
      vertex -2.83733 6.76263 11.99
      vertex -1.12491 6.25 11.99
      vertex -2.32487 6.76263 11.99
    endloop
  endfacet
  facet normal 0 0 1
    outer loop
      vertex -6.76205 6.25 11.99
      vertex -2.83733 6.76263 11.99
      vertex -6.24959 6.76263 11.99
    endloop
  endfacet
  facet normal 0 0 1
    outer loop
      vertex -6.51204 9.09543 11.99
      vertex -6.26599 8.90599 11.99
      vertex -6.3152 9.01123 11.99
    endloop
  endfacet
  facet normal 0 0 1
    outer loop
      vertex -6.51204 9.09543 11.99
      vertex -6.3152 9.01123 11.99
      vertex -6.39722 9.07439 11.99
    endloop
  endfacet
  facet normal 0 0 1
    outer loop
      vertex -6.26599 8.90599 11.99
      vertex -6.51204 9.09543 11.99
      vertex -6.74643 8.9059 11.99
    endloop
  endfacet
  facet normal 0 0 1
    outer loop
      vertex -6.69955 9.0112 11.99
      vertex -6.51204 9.09543 11.99
      vertex -6.62141 9.07437 11.99
    endloop
  endfacet
  facet normal 0 0 1
    outer loop
      vertex -6.51204 9.09543 11.99
      vertex -6.69955 9.0112 11.99
      vertex -6.74643 8.9059 11.99
    endloop
  endfacet
  facet normal 0 0 1
    outer loop
      vertex -6.26599 8.90599 11.99
      vertex -6.74643 8.9059 11.99
      vertex -6.76205 8.75847 11.99
    endloop
  endfacet
  facet normal 0 0 1
    outer loop
      vertex -6.24959 8.75865 11.99
      vertex -6.76205 8.75847 11.99
      vertex -6.24959 6.76263 11.99
    endloop
  endfacet
  facet normal 0 0 1
    outer loop
      vertex -2.83733 6.76263 11.99
      vertex -6.76205 6.25 11.99
      vertex -1.12491 6.25 11.99
    endloop
  endfacet
  facet normal 0 0 1
    outer loop
      vertex -6.76205 6.25 11.99
      vertex -6.24959 6.76263 11.99
      vertex -6.76205 8.75847 11.99
    endloop
  endfacet
  facet normal -0.994434 0.105359 0
    outer loop
      vertex -6.76205 8.75847 10
      vertex -6.74643 8.9059 11.99
      vertex -6.74643 8.9059 10
    endloop
  endfacet
  facet normal -0.994434 0.105359 0
    outer loop
      vertex -6.74643 8.9059 11.99
      vertex -6.76205 8.75847 10
      vertex -6.76205 8.75847 11.99
    endloop
  endfacet
  facet normal -0.913554 0.406718 0
    outer loop
      vertex -6.74643 8.9059 10
      vertex -6.69955 9.0112 11.99
      vertex -6.69955 9.0112 10
    endloop
  endfacet
  facet normal -0.913554 0.406718 0
    outer loop
      vertex -6.69955 9.0112 11.99
      vertex -6.74643 8.9059 10
      vertex -6.74643 8.9059 11.99
    endloop
  endfacet
  facet normal -0.62868 0.777664 0
    outer loop
      vertex -6.62141 9.07437 10
      vertex -6.69955 9.0112 11.99
      vertex -6.62141 9.07437 11.99
    endloop
  endfacet
  facet normal -0.62868 0.777664 0
    outer loop
      vertex -6.69955 9.0112 11.99
      vertex -6.62141 9.07437 10
      vertex -6.69955 9.0112 10
    endloop
  endfacet
  facet normal -0.189084 0.981961 0
    outer loop
      vertex -6.51204 9.09543 10
      vertex -6.62141 9.07437 11.99
      vertex -6.51204 9.09543 11.99
    endloop
  endfacet
  facet normal -0.189084 0.981961 0
    outer loop
      vertex -6.62141 9.07437 11.99
      vertex -6.51204 9.09543 10
      vertex -6.62141 9.07437 10
    endloop
  endfacet
  facet normal 0.180242 0.983622 -0
    outer loop
      vertex -6.39722 9.07439 10
      vertex -6.51204 9.09543 11.99
      vertex -6.39722 9.07439 11.99
    endloop
  endfacet
  facet normal 0.180242 0.983622 0
    outer loop
      vertex -6.51204 9.09543 11.99
      vertex -6.39722 9.07439 10
      vertex -6.51204 9.09543 10
    endloop
  endfacet
  facet normal 0.610121 0.792308 -0
    outer loop
      vertex -6.3152 9.01123 10
      vertex -6.39722 9.07439 11.99
      vertex -6.3152 9.01123 11.99
    endloop
  endfacet
  facet normal 0.610121 0.792308 0
    outer loop
      vertex -6.39722 9.07439 11.99
      vertex -6.3152 9.01123 10
      vertex -6.39722 9.07439 10
    endloop
  endfacet
  facet normal 0.90586 0.423578 0
    outer loop
      vertex -6.26599 8.90599 11.99
      vertex -6.3152 9.01123 10
      vertex -6.3152 9.01123 11.99
    endloop
  endfacet
  facet normal 0.90586 0.423578 0
    outer loop
      vertex -6.3152 9.01123 10
      vertex -6.26599 8.90599 11.99
      vertex -6.26599 8.90599 10
    endloop
  endfacet
  facet normal 0.993862 0.110624 0
    outer loop
      vertex -6.24959 8.75865 11.99
      vertex -6.26599 8.90599 10
      vertex -6.26599 8.90599 11.99
    endloop
  endfacet
  facet normal 0.993862 0.110624 0
    outer loop
      vertex -6.26599 8.90599 10
      vertex -6.24959 8.75865 11.99
      vertex -6.24959 8.75865 10
    endloop
  endfacet
  facet normal 1 -0 0
    outer loop
      vertex -6.24959 6.76263 11.99
      vertex -6.24959 8.75865 10
      vertex -6.24959 8.75865 11.99
    endloop
  endfacet
  facet normal 1 0 0
    outer loop
      vertex -6.24959 8.75865 10
      vertex -6.24959 6.76263 11.99
      vertex -6.24959 6.76263 10
    endloop
  endfacet
  facet normal 0 1 -0
    outer loop
      vertex -2.83733 6.76263 10
      vertex -6.24959 6.76263 11.99
      vertex -2.83733 6.76263 11.99
    endloop
  endfacet
  facet normal 0 1 0
    outer loop
      vertex -6.24959 6.76263 11.99
      vertex -2.83733 6.76263 10
      vertex -6.24959 6.76263 10
    endloop
  endfacet
  facet normal -1 0 0
    outer loop
      vertex -2.83733 6.76263 10
      vertex -2.83733 12.7761 11.99
      vertex -2.83733 12.7761 10
    endloop
  endfacet
  facet normal -1 -0 0
    outer loop
      vertex -2.83733 12.7761 11.99
      vertex -2.83733 6.76263 10
      vertex -2.83733 6.76263 11.99
    endloop
  endfacet
  facet normal 0 -1 0
    outer loop
      vertex -4.03722 12.7761 10
      vertex -2.83733 12.7761 11.99
      vertex -4.03722 12.7761 11.99
    endloop
  endfacet
  facet normal 0 -1 -0
    outer loop
      vertex -2.83733 12.7761 11.99
      vertex -4.03722 12.7761 10
      vertex -2.83733 12.7761 10
    endloop
  endfacet
  facet normal -0.110387 -0.993889 0
    outer loop
      vertex -4.18488 12.7925 10
      vertex -4.03722 12.7761 11.99
      vertex -4.18488 12.7925 11.99
    endloop
  endfacet
  facet normal -0.110387 -0.993889 -0
    outer loop
      vertex -4.03722 12.7761 11.99
      vertex -4.18488 12.7925 10
      vertex -4.03722 12.7761 10
    endloop
  endfacet
  facet normal -0.422782 -0.906231 0
    outer loop
      vertex -4.29034 12.8417 10
      vertex -4.18488 12.7925 11.99
      vertex -4.29034 12.8417 11.99
    endloop
  endfacet
  facet normal -0.422782 -0.906231 -0
    outer loop
      vertex -4.18488 12.7925 11.99
      vertex -4.29034 12.8417 10
      vertex -4.18488 12.7925 10
    endloop
  endfacet
  facet normal -0.792035 -0.610475 0
    outer loop
      vertex -4.29034 12.8417 10
      vertex -4.35362 12.9238 11.99
      vertex -4.35362 12.9238 10
    endloop
  endfacet
  facet normal -0.792035 -0.610475 0
    outer loop
      vertex -4.35362 12.9238 11.99
      vertex -4.29034 12.8417 10
      vertex -4.29034 12.8417 11.99
    endloop
  endfacet
  facet normal -0.983541 -0.180687 0
    outer loop
      vertex -4.35362 12.9238 10
      vertex -4.37471 13.0386 11.99
      vertex -4.37471 13.0386 10
    endloop
  endfacet
  facet normal -0.983541 -0.180687 0
    outer loop
      vertex -4.37471 13.0386 11.99
      vertex -4.35362 12.9238 10
      vertex -4.35362 12.9238 11.99
    endloop
  endfacet
  facet normal -0.981921 0.189293 0
    outer loop
      vertex -4.37471 13.0386 10
      vertex -4.35362 13.148 11.99
      vertex -4.35362 13.148 10
    endloop
  endfacet
  facet normal -0.981921 0.189293 0
    outer loop
      vertex -4.35362 13.148 11.99
      vertex -4.37471 13.0386 10
      vertex -4.37471 13.0386 11.99
    endloop
  endfacet
  facet normal -0.777365 0.62905 0
    outer loop
      vertex -4.35362 13.148 10
      vertex -4.29034 13.2262 11.99
      vertex -4.29034 13.2262 10
    endloop
  endfacet
  facet normal -0.777365 0.62905 0
    outer loop
      vertex -4.29034 13.2262 11.99
      vertex -4.35362 13.148 10
      vertex -4.35362 13.148 11.99
    endloop
  endfacet
  facet normal -0.406347 0.913719 0
    outer loop
      vertex -4.18488 13.2731 10
      vertex -4.29034 13.2262 11.99
      vertex -4.18488 13.2731 11.99
    endloop
  endfacet
  facet normal -0.406347 0.913719 0
    outer loop
      vertex -4.29034 13.2262 11.99
      vertex -4.18488 13.2731 10
      vertex -4.29034 13.2262 10
    endloop
  endfacet
  facet normal -0.105063 0.994466 0
    outer loop
      vertex -4.03722 13.2887 10
      vertex -4.18488 13.2731 11.99
      vertex -4.03722 13.2887 11.99
    endloop
  endfacet
  facet normal -0.105063 0.994466 0
    outer loop
      vertex -4.18488 13.2731 11.99
      vertex -4.03722 13.2887 10
      vertex -4.18488 13.2731 10
    endloop
  endfacet
  facet normal 0 1 -0
    outer loop
      vertex -1.12491 13.2887 10
      vertex -4.03722 13.2887 11.99
      vertex -1.12491 13.2887 11.99
    endloop
  endfacet
  facet normal 0 1 0
    outer loop
      vertex -4.03722 13.2887 11.99
      vertex -1.12491 13.2887 10
      vertex -4.03722 13.2887 10
    endloop
  endfacet
  facet normal 0.105063 0.994466 -0
    outer loop
      vertex -0.977249 13.2731 10
      vertex -1.12491 13.2887 11.99
      vertex -0.977249 13.2731 11.99
    endloop
  endfacet
  facet normal 0.105063 0.994466 0
    outer loop
      vertex -1.12491 13.2887 11.99
      vertex -0.977249 13.2731 10
      vertex -1.12491 13.2887 10
    endloop
  endfacet
  facet normal 0.406319 0.913732 -0
    outer loop
      vertex -0.87178 13.2262 10
      vertex -0.977249 13.2731 11.99
      vertex -0.87178 13.2262 11.99
    endloop
  endfacet
  facet normal 0.406319 0.913732 0
    outer loop
      vertex -0.977249 13.2731 11.99
      vertex -0.87178 13.2262 10
      vertex -0.977249 13.2731 10
    endloop
  endfacet
  facet normal 0.777375 0.629038 0
    outer loop
      vertex -0.808502 13.148 11.99
      vertex -0.87178 13.2262 10
      vertex -0.87178 13.2262 11.99
    endloop
  endfacet
  facet normal 0.777375 0.629038 0
    outer loop
      vertex -0.87178 13.2262 10
      vertex -0.808502 13.148 11.99
      vertex -0.808502 13.148 10
    endloop
  endfacet
  facet normal 0.981899 0.189406 0
    outer loop
      vertex -0.787399 13.0386 11.99
      vertex -0.808502 13.148 10
      vertex -0.808502 13.148 11.99
    endloop
  endfacet
  facet normal 0.981899 0.189406 0
    outer loop
      vertex -0.808502 13.148 10
      vertex -0.787399 13.0386 11.99
      vertex -0.787399 13.0386 10
    endloop
  endfacet
  facet normal 0.983521 -0.180795 0
    outer loop
      vertex -0.808502 12.9238 11.99
      vertex -0.787399 13.0386 10
      vertex -0.787399 13.0386 11.99
    endloop
  endfacet
  facet normal 0.983521 -0.180795 0
    outer loop
      vertex -0.787399 13.0386 10
      vertex -0.808502 12.9238 11.99
      vertex -0.808502 12.9238 10
    endloop
  endfacet
  facet normal 0.792045 -0.610463 0
    outer loop
      vertex -0.87178 12.8417 11.99
      vertex -0.808502 12.9238 10
      vertex -0.808502 12.9238 11.99
    endloop
  endfacet
  facet normal 0.792045 -0.610463 0
    outer loop
      vertex -0.808502 12.9238 10
      vertex -0.87178 12.8417 11.99
      vertex -0.87178 12.8417 10
    endloop
  endfacet
  facet normal 0.422752 -0.906245 0
    outer loop
      vertex -0.977249 12.7925 10
      vertex -0.87178 12.8417 11.99
      vertex -0.977249 12.7925 11.99
    endloop
  endfacet
  facet normal 0.422752 -0.906245 0
    outer loop
      vertex -0.87178 12.8417 11.99
      vertex -0.977249 12.7925 10
      vertex -0.87178 12.8417 10
    endloop
  endfacet
  facet normal 0.110386 -0.993889 0
    outer loop
      vertex -1.12491 12.7761 10
      vertex -0.977249 12.7925 11.99
      vertex -1.12491 12.7761 11.99
    endloop
  endfacet
  facet normal 0.110386 -0.993889 0
    outer loop
      vertex -0.977249 12.7925 11.99
      vertex -1.12491 12.7761 10
      vertex -0.977249 12.7925 10
    endloop
  endfacet
  facet normal 0 -1 0
    outer loop
      vertex -2.32487 12.7761 10
      vertex -1.12491 12.7761 11.99
      vertex -2.32487 12.7761 11.99
    endloop
  endfacet
  facet normal 0 -1 -0
    outer loop
      vertex -1.12491 12.7761 11.99
      vertex -2.32487 12.7761 10
      vertex -1.12491 12.7761 10
    endloop
  endfacet
  facet normal 1 -0 0
    outer loop
      vertex -2.32487 6.76263 11.99
      vertex -2.32487 12.7761 10
      vertex -2.32487 12.7761 11.99
    endloop
  endfacet
  facet normal 1 0 0
    outer loop
      vertex -2.32487 12.7761 10
      vertex -2.32487 6.76263 11.99
      vertex -2.32487 6.76263 10
    endloop
  endfacet
  facet normal 0 1 -0
    outer loop
      vertex -1.12491 6.76263 10
      vertex -2.32487 6.76263 11.99
      vertex -1.12491 6.76263 11.99
    endloop
  endfacet
  facet normal 0 1 0
    outer loop
      vertex -2.32487 6.76263 11.99
      vertex -1.12491 6.76263 10
      vertex -2.32487 6.76263 10
    endloop
  endfacet
  facet normal 0.105329 0.994437 -0
    outer loop
      vertex -0.977249 6.74699 10
      vertex -1.12491 6.76263 11.99
      vertex -0.977249 6.74699 11.99
    endloop
  endfacet
  facet normal 0.105329 0.994437 0
    outer loop
      vertex -1.12491 6.76263 11.99
      vertex -0.977249 6.74699 10
      vertex -1.12491 6.76263 10
    endloop
  endfacet
  facet normal 0.406246 0.913764 -0
    outer loop
      vertex -0.87178 6.7001 10
      vertex -0.977249 6.74699 11.99
      vertex -0.87178 6.7001 11.99
    endloop
  endfacet
  facet normal 0.406246 0.913764 0
    outer loop
      vertex -0.977249 6.74699 11.99
      vertex -0.87178 6.7001 10
      vertex -0.977249 6.74699 10
    endloop
  endfacet
  facet normal 0.777178 0.629281 0
    outer loop
      vertex -0.808502 6.62195 11.99
      vertex -0.87178 6.7001 10
      vertex -0.87178 6.7001 11.99
    endloop
  endfacet
  facet normal 0.777178 0.629281 0
    outer loop
      vertex -0.87178 6.7001 10
      vertex -0.808502 6.62195 11.99
      vertex -0.808502 6.62195 10
    endloop
  endfacet
  facet normal 0.981905 0.189373 0
    outer loop
      vertex -0.787399 6.51253 11.99
      vertex -0.808502 6.62195 10
      vertex -0.808502 6.62195 11.99
    endloop
  endfacet
  facet normal 0.981905 0.189373 0
    outer loop
      vertex -0.808502 6.62195 10
      vertex -0.787399 6.51253 11.99
      vertex -0.787399 6.51253 10
    endloop
  endfacet
  facet normal 0.98354 -0.180688 0
    outer loop
      vertex -0.808502 6.39766 11.99
      vertex -0.787399 6.51253 10
      vertex -0.787399 6.51253 11.99
    endloop
  endfacet
  facet normal 0.98354 -0.180688 0
    outer loop
      vertex -0.787399 6.51253 10
      vertex -0.808502 6.39766 11.99
      vertex -0.808502 6.39766 10
    endloop
  endfacet
  facet normal 0.791793 -0.61079 0
    outer loop
      vertex -0.87178 6.31563 11.99
      vertex -0.808502 6.39766 10
      vertex -0.808502 6.39766 11.99
    endloop
  endfacet
  facet normal 0.791793 -0.61079 0
    outer loop
      vertex -0.808502 6.39766 10
      vertex -0.87178 6.31563 11.99
      vertex -0.87178 6.31563 10
    endloop
  endfacet
  facet normal 0.422964 -0.906146 0
    outer loop
      vertex -0.977249 6.2664 10
      vertex -0.87178 6.31563 11.99
      vertex -0.977249 6.2664 11.99
    endloop
  endfacet
  facet normal 0.422964 -0.906146 0
    outer loop
      vertex -0.87178 6.31563 11.99
      vertex -0.977249 6.2664 10
      vertex -0.87178 6.31563 10
    endloop
  endfacet
  facet normal 0.110386 -0.993889 0
    outer loop
      vertex -1.12491 6.25 10
      vertex -0.977249 6.2664 11.99
      vertex -1.12491 6.25 11.99
    endloop
  endfacet
  facet normal 0.110386 -0.993889 0
    outer loop
      vertex -0.977249 6.2664 11.99
      vertex -1.12491 6.25 10
      vertex -0.977249 6.2664 10
    endloop
  endfacet
  facet normal 0 -1 0
    outer loop
      vertex -6.76205 6.25 10
      vertex -1.12491 6.25 11.99
      vertex -6.76205 6.25 11.99
    endloop
  endfacet
  facet normal 0 -1 -0
    outer loop
      vertex -1.12491 6.25 11.99
      vertex -6.76205 6.25 10
      vertex -1.12491 6.25 10
    endloop
  endfacet
  facet normal -1 0 0
    outer loop
      vertex -6.76205 6.25 10
      vertex -6.76205 8.75847 11.99
      vertex -6.76205 8.75847 10
    endloop
  endfacet
  facet normal -1 -0 0
    outer loop
      vertex -6.76205 8.75847 11.99
      vertex -6.76205 6.25 10
      vertex -6.76205 6.25 11.99
    endloop
  endfacet
endsolid OpenSCAD_Model
