solid OpenSCAD_Model
  facet normal 0 -0.9417419 0.3363364
    outer loop
      vertex -5.6604795 2.1464283 9.009999
      vertex -5.6604795 0 3
      vertex -4.67048 2.1464283 9.009999
    endloop
  endfacet
  facet normal 0 -0.94174194 0.33633637
    outer loop
      vertex -4.67048 2.1464283 9.009999
      vertex 0 2.5 10
      vertex -4.67048 2.5 10
    endloop
  endfacet
  facet normal 0 -0.9417419 0.3363364
    outer loop
      vertex 0 0 3
      vertex -4.67048 2.1464283 9.009999
      vertex -5.6604795 0 3
    endloop
  endfacet
  facet normal -6.867718e-9 -0.9417419 0.3363364
    outer loop
      vertex -4.67048 2.1464283 9.009999
      vertex 0 0 3
      vertex 0 2.5 10
    endloop
  endfacet
  facet normal 0 -1 0
    outer loop
      vertex -5.6604795 0 0
      vertex 0 0 3
      vertex -5.6604795 0 3
    endloop
  endfacet
  facet normal 0 -1 0
    outer loop
      vertex 0 0 3
      vertex -5.6604795 0 0
      vertex 0 0 0
    endloop
  endfacet
  facet normal -1 0 0
    outer loop
      vertex -5.6604795 3.5 9.009999
      vertex -5.6604795 19 3
      vertex -5.6604795 19 0
    endloop
  endfacet
  facet normal -1 0 0
    outer loop
      vertex -5.6604795 19 3
      vertex -5.6604795 3.5 9.009999
      vertex -5.6604795 16.5 10
    endloop
  endfacet
  facet normal -1 0 0
    outer loop
      vertex -5.6604795 0 3
      vertex -5.6604795 3.5 9.009999
      vertex -5.6604795 19 0
    endloop
  endfacet
  facet normal -1 0 0
    outer loop
      vertex -5.6604795 0 3
      vertex -5.6604795 19 0
      vertex -5.6604795 0 0
    endloop
  endfacet
  facet normal -1 0 0
    outer loop
      vertex -5.6604795 3.5 9.009999
      vertex -5.6604795 0 3
      vertex -5.6604795 2.1464283 9.009999
    endloop
  endfacet
  facet normal -1 0 0
    outer loop
      vertex -5.6604795 16.5 10
      vertex -5.6604795 3.5 9.009999
      vertex -5.6604795 3.5 10
    endloop
  endfacet
  facet normal 1 0 0
    outer loop
      vertex 0 0 3
      vertex 0 19 3
      vertex 0 16.5 10
    endloop
  endfacet
  facet normal 1 0 0
    outer loop
      vertex 0 0 3
      vertex 0 16.5 10
      vertex 0 2.5 10
    endloop
  endfacet
  facet normal 1 0 0
    outer loop
      vertex 0 19 3
      vertex 0 0 3
      vertex 0 19 0
    endloop
  endfacet
  facet normal 1 0 0
    outer loop
      vertex 0 19 0
      vertex 0 0 3
      vertex 0 0 0
    endloop
  endfacet
  facet normal 0 0 1
    outer loop
      vertex -5.1479197 5.799999 10
      vertex -4.67048 3.5 10
      vertex -1.5925598 5.799999 10
    endloop
  endfacet
  facet normal 0 0 1
    outer loop
      vertex -5.6604795 3.5 10
      vertex -5.1479197 5.799999 10
      vertex -5.1781244 5.8026648 10
    endloop
  endfacet
  facet normal 0 0 1
    outer loop
      vertex -5.6604795 3.5 10
      vertex -5.1781244 5.8026648 10
      vertex -5.205779 5.8106594 10
    endloop
  endfacet
  facet normal 0 0 1
    outer loop
      vertex -5.6604795 3.5 10
      vertex -5.205779 5.8106594 10
      vertex -5.2308846 5.823984 10
    endloop
  endfacet
  facet normal 0 0 1
    outer loop
      vertex -5.6604795 3.5 10
      vertex -5.2308846 5.823984 10
      vertex -5.25344 5.84264 10
    endloop
  endfacet
  facet normal 0 0 1
    outer loop
      vertex -5.6604795 3.5 10
      vertex -5.25344 5.84264 10
      vertex -5.2720594 5.8652744 10
    endloop
  endfacet
  facet normal 0 0 1
    outer loop
      vertex -5.6604795 3.5 10
      vertex -5.2720594 5.8652744 10
      vertex -5.2853594 5.890459 10
    endloop
  endfacet
  facet normal 0 0 1
    outer loop
      vertex -5.6604795 3.5 10
      vertex -5.2853594 5.890459 10
      vertex -5.2933397 5.918195 10
    endloop
  endfacet
  facet normal 0 0 1
    outer loop
      vertex -5.1479197 5.799999 10
      vertex -5.6604795 3.5 10
      vertex -4.67048 3.5 10
    endloop
  endfacet
  facet normal 0 0 1
    outer loop
      vertex -5.2959995 5.9484797 10
      vertex -5.6604795 3.5 10
      vertex -5.2933397 5.918195 10
    endloop
  endfacet
  facet normal 0 0 1
    outer loop
      vertex -5.2959995 6.39392 10
      vertex -5.6604795 3.5 10
      vertex -5.2959995 5.9484797 10
    endloop
  endfacet
  facet normal 0 0 1
    outer loop
      vertex -1.4470596 6.424199 10
      vertex 0 2.5 10
      vertex -1.4470596 12.5844345 10
    endloop
  endfacet
  facet normal 0 0 1
    outer loop
      vertex 0 2.5 10
      vertex -1.4470596 6.424199 10
      vertex -1.4443998 6.39392 10
    endloop
  endfacet
  facet normal 0 0 1
    outer loop
      vertex -1.45504 12.5567 10
      vertex -1.4470596 6.424199 10
      vertex -1.4470596 12.5844345 10
    endloop
  endfacet
  facet normal 0 0 1
    outer loop
      vertex -1.45504 12.5567 10
      vertex -1.45504 6.4519196 10
      vertex -1.4470596 6.424199 10
    endloop
  endfacet
  facet normal 0 0 1
    outer loop
      vertex -1.4683399 12.531514 10
      vertex -1.45504 6.4519196 10
      vertex -1.45504 12.5567 10
    endloop
  endfacet
  facet normal 0 0 1
    outer loop
      vertex -1.4683399 12.531514 10
      vertex -1.4683399 6.4770794 10
      vertex -1.45504 6.4519196 10
    endloop
  endfacet
  facet normal 0 0 1
    outer loop
      vertex -1.4869595 12.50888 10
      vertex -1.4683399 6.4770794 10
      vertex -1.4683399 12.531514 10
    endloop
  endfacet
  facet normal 0 0 1
    outer loop
      vertex -1.4869595 12.50888 10
      vertex -1.4869595 6.4996796 10
      vertex -1.4683399 6.4770794 10
    endloop
  endfacet
  facet normal 0 0 1
    outer loop
      vertex -1.5095491 12.490225 10
      vertex -1.4869595 6.4996796 10
      vertex -1.4869595 12.50888 10
    endloop
  endfacet
  facet normal 0 0 1
    outer loop
      vertex -1.5095491 12.490225 10
      vertex -1.5095491 6.5183697 10
      vertex -1.4869595 6.4996796 10
    endloop
  endfacet
  facet normal 0 0 1
    outer loop
      vertex -1.5346794 12.476899 10
      vertex -1.5095491 6.5183697 10
      vertex -1.5095491 12.490225 10
    endloop
  endfacet
  facet normal 0 0 1
    outer loop
      vertex -1.5346794 12.476899 10
      vertex -1.5346794 6.531719 10
      vertex -1.5095491 6.5183697 10
    endloop
  endfacet
  facet normal 0 0 1
    outer loop
      vertex -1.5623493 12.4689045 10
      vertex -1.5346794 6.531719 10
      vertex -1.5346794 12.476899 10
    endloop
  endfacet
  facet normal 0 0 1
    outer loop
      vertex -1.5623493 12.4689045 10
      vertex -1.5623493 6.539729 10
      vertex -1.5346794 6.531719 10
    endloop
  endfacet
  facet normal 0 0 1
    outer loop
      vertex -1.5925598 12.46624 10
      vertex -1.5623493 6.539729 10
      vertex -1.5623493 12.4689045 10
    endloop
  endfacet
  facet normal 0 0 1
    outer loop
      vertex -1.5925598 12.46624 10
      vertex -1.5925598 6.5423994 10
      vertex -1.5623493 6.539729 10
    endloop
  endfacet
  facet normal 0 0 1
    outer loop
      vertex -2.9258394 12.318159 10
      vertex -1.5925598 12.46624 10
      vertex -2.7776794 12.46624 10
    endloop
  endfacet
  facet normal 0 0 1
    outer loop
      vertex -1.5925598 12.46624 10
      vertex -2.9258394 12.318159 10
      vertex -1.5925598 6.5423994 10
    endloop
  endfacet
  facet normal 0 0 1
    outer loop
      vertex -2.9258394 12.318159 10
      vertex -2.7776794 12.46624 10
      vertex -2.8078842 12.463579 10
    endloop
  endfacet
  facet normal 0 0 1
    outer loop
      vertex -2.9258394 6.6904793 10
      vertex -1.5925598 6.5423994 10
      vertex -2.9258394 12.318159 10
    endloop
  endfacet
  facet normal 0 0 1
    outer loop
      vertex -2.9258394 12.318159 10
      vertex -2.8078842 12.463579 10
      vertex -2.8355398 12.4556 10
    endloop
  endfacet
  facet normal 0 0 1
    outer loop
      vertex -1.5925598 6.5423994 10
      vertex -2.9258394 6.6904793 10
      vertex -2.7776794 6.5423994 10
    endloop
  endfacet
  facet normal 0 0 1
    outer loop
      vertex -2.9258394 12.318159 10
      vertex -2.8355398 12.4556 10
      vertex -2.8606443 12.4423 10
    endloop
  endfacet
  facet normal 0 0 1
    outer loop
      vertex -2.7776794 6.5423994 10
      vertex -2.9258394 6.6904793 10
      vertex -2.8078842 6.545059 10
    endloop
  endfacet
  facet normal 0 0 1
    outer loop
      vertex -2.9258394 12.318159 10
      vertex -2.8606443 12.4423 10
      vertex -2.8831997 12.423679 10
    endloop
  endfacet
  facet normal 0 0 1
    outer loop
      vertex -2.8078842 6.545059 10
      vertex -2.9258394 6.6904793 10
      vertex -2.8355398 6.5530396 10
    endloop
  endfacet
  facet normal 0 0 1
    outer loop
      vertex -2.9231749 12.348365 10
      vertex -2.8831997 12.423679 10
      vertex -2.9018545 12.401125 10
    endloop
  endfacet
  facet normal 0 0 1
    outer loop
      vertex -2.8355398 6.5530396 10
      vertex -2.9258394 6.6904793 10
      vertex -2.8606443 6.5663395 10
    endloop
  endfacet
  facet normal 0 0 1
    outer loop
      vertex -2.9231749 12.348365 10
      vertex -2.9018545 12.401125 10
      vertex -2.9151793 12.3760195 10
    endloop
  endfacet
  facet normal 0 0 1
    outer loop
      vertex -2.8606443 6.5663395 10
      vertex -2.9258394 6.6904793 10
      vertex -2.8831997 6.58496 10
    endloop
  endfacet
  facet normal 0 0 1
    outer loop
      vertex -2.8831997 12.423679 10
      vertex -2.9231749 12.348365 10
      vertex -2.9258394 12.318159 10
    endloop
  endfacet
  facet normal 0 0 1
    outer loop
      vertex -2.9231749 6.6602745 10
      vertex -2.8831997 6.58496 10
      vertex -2.9258394 6.6904793 10
    endloop
  endfacet
  facet normal 0 0 1
    outer loop
      vertex -2.8831997 6.58496 10
      vertex -2.9231749 6.6602745 10
      vertex -2.9018545 6.6075144 10
    endloop
  endfacet
  facet normal 0 0 1
    outer loop
      vertex -2.9018545 6.6075144 10
      vertex -2.9231749 6.6602745 10
      vertex -2.9151793 6.63262 10
    endloop
  endfacet
  facet normal 0 0 1
    outer loop
      vertex -1.4443998 12.614719 10
      vertex 0 16.5 10
      vertex -1.4443998 13.06016 10
    endloop
  endfacet
  facet normal 0 0 1
    outer loop
      vertex 0 16.5 10
      vertex -1.4470596 13.09044 10
      vertex -1.4443998 13.06016 10
    endloop
  endfacet
  facet normal 0 0 1
    outer loop
      vertex 0 16.5 10
      vertex -1.45504 13.118159 10
      vertex -1.4470596 13.09044 10
    endloop
  endfacet
  facet normal 0 0 1
    outer loop
      vertex 0 16.5 10
      vertex -1.4683399 13.143319 10
      vertex -1.45504 13.118159 10
    endloop
  endfacet
  facet normal 0 0 1
    outer loop
      vertex 0 16.5 10
      vertex -1.4869595 13.165919 10
      vertex -1.4683399 13.143319 10
    endloop
  endfacet
  facet normal 0 0 1
    outer loop
      vertex 0 16.5 10
      vertex -1.5095491 13.184609 10
      vertex -1.4869595 13.165919 10
    endloop
  endfacet
  facet normal 0 0 1
    outer loop
      vertex 0 16.5 10
      vertex -1.5346794 13.19796 10
      vertex -1.5095491 13.184609 10
    endloop
  endfacet
  facet normal 0 0 1
    outer loop
      vertex 0 16.5 10
      vertex -1.5623493 13.20597 10
      vertex -1.5346794 13.19796 10
    endloop
  endfacet
  facet normal 0 0 1
    outer loop
      vertex 0 16.5 10
      vertex -1.5925598 13.208639 10
      vertex -1.5623493 13.20597 10
    endloop
  endfacet
  facet normal 0 0 1
    outer loop
      vertex 0 16.5 10
      vertex -3.666479 13.208639 10
      vertex -1.5925598 13.208639 10
    endloop
  endfacet
  facet normal 0 0 1
    outer loop
      vertex -5.6604795 16.5 10
      vertex -3.666479 13.208639 10
      vertex 0 16.5 10
    endloop
  endfacet
  facet normal 0 0 1
    outer loop
      vertex -3.666479 13.208639 10
      vertex -5.6604795 16.5 10
      vertex -3.6966848 13.205975 10
    endloop
  endfacet
  facet normal 0 0 1
    outer loop
      vertex -3.6966848 13.205975 10
      vertex -5.6604795 16.5 10
      vertex -3.7243395 13.19798 10
    endloop
  endfacet
  facet normal 0 0 1
    outer loop
      vertex -3.7243395 13.19798 10
      vertex -5.6604795 16.5 10
      vertex -3.749445 13.184654 10
    endloop
  endfacet
  facet normal 0 0 1
    outer loop
      vertex -5.1479197 6.5423994 10
      vertex -3.814639 6.6905594 10
      vertex -3.814639 13.060479 10
    endloop
  endfacet
  facet normal 0 0 1
    outer loop
      vertex -3.962799 6.5423994 10
      vertex -3.814639 6.6905594 10
      vertex -5.1479197 6.5423994 10
    endloop
  endfacet
  facet normal 0 0 1
    outer loop
      vertex -3.814639 6.6905594 10
      vertex -3.962799 6.5423994 10
      vertex -3.8172998 6.66035 10
    endloop
  endfacet
  facet normal 0 0 1
    outer loop
      vertex -3.8172998 6.66035 10
      vertex -3.962799 6.5423994 10
      vertex -3.8252792 6.63268 10
    endloop
  endfacet
  facet normal 0 0 1
    outer loop
      vertex -3.8252792 6.63268 10
      vertex -3.962799 6.5423994 10
      vertex -3.8385792 6.6075497 10
    endloop
  endfacet
  facet normal 0 0 1
    outer loop
      vertex -3.8385792 6.6075497 10
      vertex -3.962799 6.5423994 10
      vertex -3.8571997 6.58496 10
    endloop
  endfacet
  facet normal 0 0 1
    outer loop
      vertex -3.8571997 6.58496 10
      vertex -3.9325895 6.545059 10
      vertex -3.8797894 6.5663395 10
    endloop
  endfacet
  facet normal 0 0 1
    outer loop
      vertex -3.8797894 6.5663395 10
      vertex -3.9325895 6.545059 10
      vertex -3.9049196 6.5530396 10
    endloop
  endfacet
  facet normal 0 0 1
    outer loop
      vertex -3.9325895 6.545059 10
      vertex -3.8571997 6.58496 10
      vertex -3.962799 6.5423994 10
    endloop
  endfacet
  facet normal 0 0 1
    outer loop
      vertex -5.6604795 16.5 10
      vertex -3.814639 13.060479 10
      vertex -3.8119745 13.090685 10
    endloop
  endfacet
  facet normal 0 0 1
    outer loop
      vertex -3.814639 13.060479 10
      vertex -5.1781244 6.539729 10
      vertex -5.1479197 6.5423994 10
    endloop
  endfacet
  facet normal 0 0 1
    outer loop
      vertex -3.814639 13.060479 10
      vertex -5.205779 6.531719 10
      vertex -5.1781244 6.539729 10
    endloop
  endfacet
  facet normal 0 0 1
    outer loop
      vertex -3.814639 13.060479 10
      vertex -5.2308846 6.5183697 10
      vertex -5.205779 6.531719 10
    endloop
  endfacet
  facet normal 0 0 1
    outer loop
      vertex -3.814639 13.060479 10
      vertex -5.25344 6.4996796 10
      vertex -5.2308846 6.5183697 10
    endloop
  endfacet
  facet normal 0 0 1
    outer loop
      vertex -3.814639 13.060479 10
      vertex -5.2720594 6.4770794 10
      vertex -5.25344 6.4996796 10
    endloop
  endfacet
  facet normal 0 0 1
    outer loop
      vertex -3.814639 13.060479 10
      vertex -5.6604795 16.5 10
      vertex -5.2720594 6.4770794 10
    endloop
  endfacet
  facet normal 0 0 1
    outer loop
      vertex -5.2720594 6.4770794 10
      vertex -5.6604795 16.5 10
      vertex -5.2853594 6.4519196 10
    endloop
  endfacet
  facet normal 0 0 1
    outer loop
      vertex -5.6604795 3.5 10
      vertex -5.2959995 6.39392 10
      vertex -5.6604795 16.5 10
    endloop
  endfacet
  facet normal 0 0 1
    outer loop
      vertex -5.2933397 6.424199 10
      vertex -5.6604795 16.5 10
      vertex -5.2959995 6.39392 10
    endloop
  endfacet
  facet normal 0 0 1
    outer loop
      vertex -5.2853594 6.4519196 10
      vertex -5.6604795 16.5 10
      vertex -5.2933397 6.424199 10
    endloop
  endfacet
  facet normal 0 0 1
    outer loop
      vertex -3.8039799 13.11834 10
      vertex -5.6604795 16.5 10
      vertex -3.8119745 13.090685 10
    endloop
  endfacet
  facet normal 0 0 1
    outer loop
      vertex -3.7906542 13.143444 10
      vertex -5.6604795 16.5 10
      vertex -3.8039799 13.11834 10
    endloop
  endfacet
  facet normal 0 0 1
    outer loop
      vertex -3.7719994 13.165999 10
      vertex -5.6604795 16.5 10
      vertex -3.7906542 13.143444 10
    endloop
  endfacet
  facet normal 0 0 1
    outer loop
      vertex -3.749445 13.184654 10
      vertex -5.6604795 16.5 10
      vertex -3.7719994 13.165999 10
    endloop
  endfacet
  facet normal 0 0 1
    outer loop
      vertex -1.4470596 12.5844345 10
      vertex 0 16.5 10
      vertex -1.4443998 12.614719 10
    endloop
  endfacet
  facet normal 0 0 1
    outer loop
      vertex 0 16.5 10
      vertex -1.4470596 12.5844345 10
      vertex 0 2.5 10
    endloop
  endfacet
  facet normal 0 0 1
    outer loop
      vertex -1.4443998 5.9484797 10
      vertex 0 2.5 10
      vertex -1.4443998 6.39392 10
    endloop
  endfacet
  facet normal 0 0 1
    outer loop
      vertex -1.4470596 5.918195 10
      vertex 0 2.5 10
      vertex -1.4443998 5.9484797 10
    endloop
  endfacet
  facet normal 0 0 1
    outer loop
      vertex -1.45504 5.890459 10
      vertex 0 2.5 10
      vertex -1.4470596 5.918195 10
    endloop
  endfacet
  facet normal 0 0 1
    outer loop
      vertex -1.4683399 5.8652744 10
      vertex 0 2.5 10
      vertex -1.45504 5.890459 10
    endloop
  endfacet
  facet normal 0 0 1
    outer loop
      vertex -1.4869595 5.84264 10
      vertex 0 2.5 10
      vertex -1.4683399 5.8652744 10
    endloop
  endfacet
  facet normal 0 0 1
    outer loop
      vertex -1.5095491 5.823984 10
      vertex 0 2.5 10
      vertex -1.4869595 5.84264 10
    endloop
  endfacet
  facet normal 0 0 1
    outer loop
      vertex -1.5346794 5.8106594 10
      vertex 0 2.5 10
      vertex -1.5095491 5.823984 10
    endloop
  endfacet
  facet normal 0 0 1
    outer loop
      vertex -1.5623493 5.8026648 10
      vertex 0 2.5 10
      vertex -1.5346794 5.8106594 10
    endloop
  endfacet
  facet normal 0 0 1
    outer loop
      vertex -1.5925598 5.799999 10
      vertex 0 2.5 10
      vertex -1.5623493 5.8026648 10
    endloop
  endfacet
  facet normal 0 0 1
    outer loop
      vertex -4.67048 3.5 10
      vertex 0 2.5 10
      vertex -1.5925598 5.799999 10
    endloop
  endfacet
  facet normal 0 0 1
    outer loop
      vertex 0 2.5 10
      vertex -4.67048 3.5 10
      vertex -4.67048 2.5 10
    endloop
  endfacet
  facet normal 0 0 -1
    outer loop
      vertex -5.6604795 0 0
      vertex 0 19 0
      vertex 0 0 0
    endloop
  endfacet
  facet normal 0 0 -1
    outer loop
      vertex 0 19 0
      vertex -5.6604795 0 0
      vertex -5.6604795 19 0
    endloop
  endfacet
  facet normal 0 0.9417419 0.3363364
    outer loop
      vertex 0 19 3
      vertex -5.6604795 16.5 10
      vertex 0 16.5 10
    endloop
  endfacet
  facet normal 0 0.9417419 0.3363364
    outer loop
      vertex -5.6604795 16.5 10
      vertex 0 19 3
      vertex -5.6604795 19 3
    endloop
  endfacet
  facet normal 0 1 0
    outer loop
      vertex 0 19 0
      vertex -5.6604795 19 3
      vertex 0 19 3
    endloop
  endfacet
  facet normal 0 1 0
    outer loop
      vertex -5.6604795 19 3
      vertex 0 19 0
      vertex -5.6604795 19 0
    endloop
  endfacet
  facet normal 0 0 1
    outer loop
      vertex -5.6604795 3.5 9.009999
      vertex -4.67048 2.1464283 9.009999
      vertex -4.67048 3.5 9.009999
    endloop
  endfacet
  facet normal 0 0 1
    outer loop
      vertex -4.67048 2.1464283 9.009999
      vertex -5.6604795 3.5 9.009999
      vertex -5.6604795 2.1464283 9.009999
    endloop
  endfacet
  facet normal -1 0 0
    outer loop
      vertex -4.67048 3.5 9.009999
      vertex -4.67048 2.5 10
      vertex -4.67048 3.5 10
    endloop
  endfacet
  facet normal -1 0 0
    outer loop
      vertex -4.67048 2.5 10
      vertex -4.67048 3.5 9.009999
      vertex -4.67048 2.1464283 9.009999
    endloop
  endfacet
  facet normal 0 -1 0
    outer loop
      vertex -5.6604795 3.5 9.009999
      vertex -4.67048 3.5 10
      vertex -5.6604795 3.5 10
    endloop
  endfacet
  facet normal 0 -1 0
    outer loop
      vertex -4.67048 3.5 10
      vertex -5.6604795 3.5 9.009999
      vertex -4.67048 3.5 9.009999
    endloop
  endfacet
  facet normal -0.277717 -0.96066296 0
    outer loop
      vertex -5.205779 5.8106594 10
      vertex -5.1781244 5.8026648 11.99
      vertex -5.205779 5.8106594 11.99
    endloop
  endfacet
  facet normal -0.277717 -0.96066296 0
    outer loop
      vertex -5.1781244 5.8026648 11.99
      vertex -5.205779 5.8106594 10
      vertex -5.1781244 5.8026648 10
    endloop
  endfacet
  facet normal -0.46881092 -0.8832986 0
    outer loop
      vertex -5.2308846 5.823984 10
      vertex -5.205779 5.8106594 11.99
      vertex -5.2308846 5.823984 11.99
    endloop
  endfacet
  facet normal -0.46881092 -0.8832986 0
    outer loop
      vertex -5.205779 5.8106594 11.99
      vertex -5.2308846 5.823984 10
      vertex -5.205779 5.8106594 10
    endloop
  endfacet
  facet normal -0.6373503 -0.7705742 0
    outer loop
      vertex -5.25344 5.84264 10
      vertex -5.2308846 5.823984 11.99
      vertex -5.25344 5.84264 11.99
    endloop
  endfacet
  facet normal -0.6373503 -0.7705742 0
    outer loop
      vertex -5.2308846 5.823984 11.99
      vertex -5.25344 5.84264 10
      vertex -5.2308846 5.823984 10
    endloop
  endfacet
  facet normal -0.77227575 -0.63528746 0
    outer loop
      vertex -5.25344 5.84264 10
      vertex -5.2720594 5.8652744 11.99
      vertex -5.2720594 5.8652744 10
    endloop
  endfacet
  facet normal -0.77227575 -0.63528746 0
    outer loop
      vertex -5.2720594 5.8652744 11.99
      vertex -5.25344 5.84264 10
      vertex -5.25344 5.84264 11.99
    endloop
  endfacet
  facet normal -0.884268 -0.46697977 0
    outer loop
      vertex -5.2720594 5.8652744 10
      vertex -5.2853594 5.890459 11.99
      vertex -5.2853594 5.890459 10
    endloop
  endfacet
  facet normal -0.884268 -0.46697977 0
    outer loop
      vertex -5.2853594 5.890459 11.99
      vertex -5.2720594 5.8652744 10
      vertex -5.2720594 5.8652744 11.99
    endloop
  endfacet
  facet normal -0.96101105 -0.27651 0
    outer loop
      vertex -5.2853594 5.890459 10
      vertex -5.2933397 5.918195 11.99
      vertex -5.2933397 5.918195 10
    endloop
  endfacet
  facet normal -0.96101105 -0.27651 0
    outer loop
      vertex -5.2933397 5.918195 11.99
      vertex -5.2853594 5.890459 10
      vertex -5.2853594 5.890459 11.99
    endloop
  endfacet
  facet normal -0.99616545 -0.08748915 0
    outer loop
      vertex -5.2933397 5.918195 10
      vertex -5.2959995 5.9484797 11.99
      vertex -5.2959995 5.9484797 10
    endloop
  endfacet
  facet normal -0.99616545 -0.08748915 0
    outer loop
      vertex -5.2959995 5.9484797 11.99
      vertex -5.2933397 5.918195 10
      vertex -5.2933397 5.918195 11.99
    endloop
  endfacet
  facet normal -1 0 0
    outer loop
      vertex -5.2959995 5.9484797 10
      vertex -5.2959995 6.39392 11.99
      vertex -5.2959995 6.39392 10
    endloop
  endfacet
  facet normal -1 0 0
    outer loop
      vertex -5.2959995 6.39392 11.99
      vertex -5.2959995 5.9484797 10
      vertex -5.2959995 5.9484797 11.99
    endloop
  endfacet
  facet normal -0.996164 0.08750556 0
    outer loop
      vertex -5.2959995 6.39392 10
      vertex -5.2933397 6.424199 11.99
      vertex -5.2933397 6.424199 10
    endloop
  endfacet
  facet normal -0.996164 0.08750556 0
    outer loop
      vertex -5.2933397 6.424199 11.99
      vertex -5.2959995 6.39392 10
      vertex -5.2959995 6.39392 11.99
    endloop
  endfacet
  facet normal -0.9609706 0.27665055 0
    outer loop
      vertex -5.2933397 6.424199 10
      vertex -5.2853594 6.4519196 11.99
      vertex -5.2853594 6.4519196 10
    endloop
  endfacet
  facet normal -0.9609706 0.27665055 0
    outer loop
      vertex -5.2853594 6.4519196 11.99
      vertex -5.2933397 6.424199 10
      vertex -5.2933397 6.424199 11.99
    endloop
  endfacet
  facet normal -0.8840779 0.46733952 0
    outer loop
      vertex -5.2853594 6.4519196 10
      vertex -5.2720594 6.4770794 11.99
      vertex -5.2720594 6.4770794 10
    endloop
  endfacet
  facet normal -0.8840779 0.46733952 0
    outer loop
      vertex -5.2720594 6.4770794 11.99
      vertex -5.2853594 6.4519196 10
      vertex -5.2853594 6.4519196 11.99
    endloop
  endfacet
  facet normal -0.77180237 0.63586247 0
    outer loop
      vertex -5.2720594 6.4770794 10
      vertex -5.25344 6.4996796 11.99
      vertex -5.25344 6.4996796 10
    endloop
  endfacet
  facet normal -0.77180237 0.63586247 0
    outer loop
      vertex -5.25344 6.4996796 11.99
      vertex -5.2720594 6.4770794 10
      vertex -5.2720594 6.4770794 11.99
    endloop
  endfacet
  facet normal -0.63804597 0.76999825 0
    outer loop
      vertex -5.2308846 6.5183697 10
      vertex -5.25344 6.4996796 11.99
      vertex -5.2308846 6.5183697 11.99
    endloop
  endfacet
  facet normal -0.63804597 0.76999825 0
    outer loop
      vertex -5.25344 6.4996796 11.99
      vertex -5.2308846 6.5183697 10
      vertex -5.25344 6.4996796 10
    endloop
  endfacet
  facet normal -0.46949115 0.8829372 0
    outer loop
      vertex -5.205779 6.531719 10
      vertex -5.2308846 6.5183697 11.99
      vertex -5.205779 6.531719 11.99
    endloop
  endfacet
  facet normal -0.46949115 0.8829372 0
    outer loop
      vertex -5.2308846 6.5183697 11.99
      vertex -5.205779 6.531719 10
      vertex -5.2308846 6.5183697 10
    endloop
  endfacet
  facet normal -0.27820605 0.9605214 0
    outer loop
      vertex -5.1781244 6.539729 10
      vertex -5.205779 6.531719 11.99
      vertex -5.1781244 6.539729 11.99
    endloop
  endfacet
  facet normal -0.27820605 0.9605214 0
    outer loop
      vertex -5.205779 6.531719 11.99
      vertex -5.1781244 6.539729 10
      vertex -5.205779 6.531719 10
    endloop
  endfacet
  facet normal -0.088062696 0.9961149 0
    outer loop
      vertex -5.1479197 6.5423994 10
      vertex -5.1781244 6.539729 11.99
      vertex -5.1479197 6.5423994 11.99
    endloop
  endfacet
  facet normal -0.088062696 0.9961149 0
    outer loop
      vertex -5.1781244 6.539729 11.99
      vertex -5.1479197 6.5423994 10
      vertex -5.1781244 6.539729 10
    endloop
  endfacet
  facet normal 0 1 0
    outer loop
      vertex -3.962799 6.5423994 10
      vertex -5.1479197 6.5423994 11.99
      vertex -3.962799 6.5423994 11.99
    endloop
  endfacet
  facet normal 0 1 0
    outer loop
      vertex -5.1479197 6.5423994 11.99
      vertex -3.962799 6.5423994 10
      vertex -5.1479197 6.5423994 10
    endloop
  endfacet
  facet normal -0.087705664 0.99614644 0
    outer loop
      vertex -3.9325895 6.545059 10
      vertex -3.962799 6.5423994 11.99
      vertex -3.9325895 6.545059 11.99
    endloop
  endfacet
  facet normal -0.087705664 0.99614644 0
    outer loop
      vertex -3.962799 6.5423994 11.99
      vertex -3.9325895 6.545059 10
      vertex -3.962799 6.5423994 10
    endloop
  endfacet
  facet normal -0.27711713 0.9608361 0
    outer loop
      vertex -3.9049196 6.5530396 10
      vertex -3.9325895 6.545059 11.99
      vertex -3.9049196 6.5530396 11.99
    endloop
  endfacet
  facet normal -0.27711713 0.9608361 0
    outer loop
      vertex -3.9325895 6.545059 11.99
      vertex -3.9049196 6.5530396 10
      vertex -3.9325895 6.545059 10
    endloop
  endfacet
  facet normal -0.46776906 0.88385075 0
    outer loop
      vertex -3.8797894 6.5663395 10
      vertex -3.9049196 6.5530396 11.99
      vertex -3.8797894 6.5663395 11.99
    endloop
  endfacet
  facet normal -0.46776906 0.88385075 0
    outer loop
      vertex -3.9049196 6.5530396 11.99
      vertex -3.8797894 6.5663395 10
      vertex -3.9049196 6.5530396 10
    endloop
  endfacet
  facet normal -0.63605773 0.7716415 0
    outer loop
      vertex -3.8571997 6.58496 10
      vertex -3.8797894 6.5663395 11.99
      vertex -3.8571997 6.58496 11.99
    endloop
  endfacet
  facet normal -0.63605773 0.7716415 0
    outer loop
      vertex -3.8797894 6.5663395 11.99
      vertex -3.8571997 6.58496 10
      vertex -3.8797894 6.5663395 10
    endloop
  endfacet
  facet normal -0.7716415 0.63605773 0
    outer loop
      vertex -3.8571997 6.58496 10
      vertex -3.8385792 6.6075497 11.99
      vertex -3.8385792 6.6075497 10
    endloop
  endfacet
  facet normal -0.7716415 0.63605773 0
    outer loop
      vertex -3.8385792 6.6075497 11.99
      vertex -3.8571997 6.58496 10
      vertex -3.8571997 6.58496 11.99
    endloop
  endfacet
  facet normal -0.88385075 0.46776906 0
    outer loop
      vertex -3.8385792 6.6075497 10
      vertex -3.8252792 6.63268 11.99
      vertex -3.8252792 6.63268 10
    endloop
  endfacet
  facet normal -0.88385075 0.46776906 0
    outer loop
      vertex -3.8252792 6.63268 11.99
      vertex -3.8385792 6.6075497 10
      vertex -3.8385792 6.6075497 11.99
    endloop
  endfacet
  facet normal -0.96084493 0.27708656 0
    outer loop
      vertex -3.8252792 6.63268 10
      vertex -3.8172998 6.66035 11.99
      vertex -3.8172998 6.66035 10
    endloop
  endfacet
  facet normal -0.96084493 0.27708656 0
    outer loop
      vertex -3.8172998 6.66035 11.99
      vertex -3.8252792 6.63268 10
      vertex -3.8252792 6.63268 11.99
    endloop
  endfacet
  facet normal -0.9961437 0.087736875 0
    outer loop
      vertex -3.8172998 6.66035 10
      vertex -3.814639 6.6905594 11.99
      vertex -3.814639 6.6905594 10
    endloop
  endfacet
  facet normal -0.9961437 0.087736875 0
    outer loop
      vertex -3.814639 6.6905594 11.99
      vertex -3.8172998 6.66035 10
      vertex -3.8172998 6.66035 11.99
    endloop
  endfacet
  facet normal -1 0 0
    outer loop
      vertex -3.814639 6.6905594 10
      vertex -3.814639 13.060479 11.99
      vertex -3.814639 13.060479 10
    endloop
  endfacet
  facet normal -1 0 0
    outer loop
      vertex -3.814639 13.060479 11.99
      vertex -3.814639 6.6905594 10
      vertex -3.814639 6.6905594 11.99
    endloop
  endfacet
  facet normal -0.9961317 0.0878727 0
    outer loop
      vertex -3.814639 13.060479 10
      vertex -3.8119745 13.090685 11.99
      vertex -3.8119745 13.090685 10
    endloop
  endfacet
  facet normal -0.9961317 0.0878727 0
    outer loop
      vertex -3.8119745 13.090685 11.99
      vertex -3.814639 13.060479 10
      vertex -3.814639 13.060479 11.99
    endloop
  endfacet
  facet normal -0.96066296 0.277717 0
    outer loop
      vertex -3.8119745 13.090685 10
      vertex -3.8039799 13.11834 11.99
      vertex -3.8039799 13.11834 10
    endloop
  endfacet
  facet normal -0.96066296 0.277717 0
    outer loop
      vertex -3.8039799 13.11834 11.99
      vertex -3.8119745 13.090685 10
      vertex -3.8119745 13.090685 11.99
    endloop
  endfacet
  facet normal -0.8832773 0.468851 0
    outer loop
      vertex -3.8039799 13.11834 10
      vertex -3.7906542 13.143444 11.99
      vertex -3.7906542 13.143444 10
    endloop
  endfacet
  facet normal -0.8832773 0.468851 0
    outer loop
      vertex -3.7906542 13.143444 11.99
      vertex -3.8039799 13.11834 10
      vertex -3.8039799 13.11834 11.99
    endloop
  endfacet
  facet normal -0.7705902 0.63733095 0
    outer loop
      vertex -3.7906542 13.143444 10
      vertex -3.7719994 13.165999 11.99
      vertex -3.7719994 13.165999 10
    endloop
  endfacet
  facet normal -0.7705902 0.63733095 0
    outer loop
      vertex -3.7719994 13.165999 11.99
      vertex -3.7906542 13.143444 10
      vertex -3.7906542 13.143444 11.99
    endloop
  endfacet
  facet normal -0.637347 0.77057695 0
    outer loop
      vertex -3.749445 13.184654 10
      vertex -3.7719994 13.165999 11.99
      vertex -3.749445 13.184654 11.99
    endloop
  endfacet
  facet normal -0.637347 0.77057695 0
    outer loop
      vertex -3.7719994 13.165999 11.99
      vertex -3.749445 13.184654 10
      vertex -3.7719994 13.165999 10
    endloop
  endfacet
  facet normal -0.46883708 0.8832846 0
    outer loop
      vertex -3.7243395 13.19798 10
      vertex -3.749445 13.184654 11.99
      vertex -3.7243395 13.19798 11.99
    endloop
  endfacet
  facet normal -0.46883708 0.8832846 0
    outer loop
      vertex -3.749445 13.184654 11.99
      vertex -3.7243395 13.19798 10
      vertex -3.749445 13.184654 10
    endloop
  endfacet
  facet normal -0.277717 0.96066296 0
    outer loop
      vertex -3.6966848 13.205975 10
      vertex -3.7243395 13.19798 11.99
      vertex -3.6966848 13.205975 11.99
    endloop
  endfacet
  facet normal -0.277717 0.96066296 0
    outer loop
      vertex -3.7243395 13.19798 11.99
      vertex -3.6966848 13.205975 10
      vertex -3.7243395 13.19798 10
    endloop
  endfacet
  facet normal -0.0878727 0.9961317 0
    outer loop
      vertex -3.666479 13.208639 10
      vertex -3.6966848 13.205975 11.99
      vertex -3.666479 13.208639 11.99
    endloop
  endfacet
  facet normal -0.0878727 0.9961317 0
    outer loop
      vertex -3.6966848 13.205975 11.99
      vertex -3.666479 13.208639 10
      vertex -3.6966848 13.205975 10
    endloop
  endfacet
  facet normal 0 1 0
    outer loop
      vertex -1.5925598 13.208639 10
      vertex -3.666479 13.208639 11.99
      vertex -1.5925598 13.208639 11.99
    endloop
  endfacet
  facet normal 0 1 0
    outer loop
      vertex -3.666479 13.208639 11.99
      vertex -1.5925598 13.208639 10
      vertex -3.666479 13.208639 10
    endloop
  endfacet
  facet normal 0.088014945 0.99611914 0
    outer loop
      vertex -1.5623493 13.20597 10
      vertex -1.5925598 13.208639 11.99
      vertex -1.5623493 13.20597 11.99
    endloop
  endfacet
  facet normal 0.088014945 0.99611914 0
    outer loop
      vertex -1.5925598 13.208639 11.99
      vertex -1.5623493 13.20597 10
      vertex -1.5925598 13.208639 10
    endloop
  endfacet
  facet normal 0.27806452 0.9605624 0
    outer loop
      vertex -1.5346794 13.19796 10
      vertex -1.5623493 13.20597 11.99
      vertex -1.5346794 13.19796 11.99
    endloop
  endfacet
  facet normal 0.27806452 0.9605624 0
    outer loop
      vertex -1.5623493 13.20597 11.99
      vertex -1.5346794 13.19796 10
      vertex -1.5623493 13.20597 10
    endloop
  endfacet
  facet normal 0.46915606 0.8831153 0
    outer loop
      vertex -1.5095491 13.184609 10
      vertex -1.5346794 13.19796 11.99
      vertex -1.5095491 13.184609 11.99
    endloop
  endfacet
  facet normal 0.46915606 0.8831153 0
    outer loop
      vertex -1.5346794 13.19796 11.99
      vertex -1.5095491 13.184609 10
      vertex -1.5346794 13.19796 10
    endloop
  endfacet
  facet normal 0.63747054 0.77047473 0
    outer loop
      vertex -1.4869595 13.165919 10
      vertex -1.5095491 13.184609 11.99
      vertex -1.4869595 13.165919 11.99
    endloop
  endfacet
  facet normal 0.63747054 0.77047473 0
    outer loop
      vertex -1.5095491 13.184609 11.99
      vertex -1.4869595 13.165919 10
      vertex -1.5095491 13.184609 10
    endloop
  endfacet
  facet normal 0.77180237 0.63586247 0
    outer loop
      vertex -1.4683399 13.143319 11.99
      vertex -1.4869595 13.165919 10
      vertex -1.4869595 13.165919 11.99
    endloop
  endfacet
  facet normal 0.77180237 0.63586247 0
    outer loop
      vertex -1.4869595 13.165919 10
      vertex -1.4683399 13.143319 11.99
      vertex -1.4683399 13.143319 10
    endloop
  endfacet
  facet normal 0.8840779 0.46733952 0
    outer loop
      vertex -1.45504 13.118159 11.99
      vertex -1.4683399 13.143319 10
      vertex -1.4683399 13.143319 11.99
    endloop
  endfacet
  facet normal 0.8840779 0.46733952 0
    outer loop
      vertex -1.4683399 13.143319 10
      vertex -1.45504 13.118159 11.99
      vertex -1.45504 13.118159 10
    endloop
  endfacet
  facet normal 0.9609681 0.27665934 0
    outer loop
      vertex -1.4470596 13.09044 11.99
      vertex -1.45504 13.118159 10
      vertex -1.45504 13.118159 11.99
    endloop
  endfacet
  facet normal 0.9609681 0.27665934 0
    outer loop
      vertex -1.45504 13.118159 10
      vertex -1.4470596 13.09044 11.99
      vertex -1.4470596 13.09044 10
    endloop
  endfacet
  facet normal 0.99616426 0.08750282 0
    outer loop
      vertex -1.4443998 13.06016 11.99
      vertex -1.4470596 13.09044 10
      vertex -1.4470596 13.09044 11.99
    endloop
  endfacet
  facet normal 0.99616426 0.08750282 0
    outer loop
      vertex -1.4470596 13.09044 10
      vertex -1.4443998 13.06016 11.99
      vertex -1.4443998 13.06016 10
    endloop
  endfacet
  facet normal 1 0 0
    outer loop
      vertex -1.4443998 12.614719 11.99
      vertex -1.4443998 13.06016 10
      vertex -1.4443998 13.06016 11.99
    endloop
  endfacet
  facet normal 1 0 0
    outer loop
      vertex -1.4443998 13.06016 10
      vertex -1.4443998 12.614719 11.99
      vertex -1.4443998 12.614719 10
    endloop
  endfacet
  facet normal 0.99616545 -0.08748915 0
    outer loop
      vertex -1.4470596 12.5844345 11.99
      vertex -1.4443998 12.614719 10
      vertex -1.4443998 12.614719 11.99
    endloop
  endfacet
  facet normal 0.99616545 -0.08748915 0
    outer loop
      vertex -1.4443998 12.614719 10
      vertex -1.4470596 12.5844345 11.99
      vertex -1.4470596 12.5844345 10
    endloop
  endfacet
  facet normal 0.9610085 -0.2765188 0
    outer loop
      vertex -1.45504 12.5567 11.99
      vertex -1.4470596 12.5844345 10
      vertex -1.4470596 12.5844345 11.99
    endloop
  endfacet
  facet normal 0.9610085 -0.2765188 0
    outer loop
      vertex -1.4470596 12.5844345 10
      vertex -1.45504 12.5567 11.99
      vertex -1.45504 12.5567 10
    endloop
  endfacet
  facet normal 0.8842753 -0.46696594 0
    outer loop
      vertex -1.4683399 12.531514 11.99
      vertex -1.45504 12.5567 10
      vertex -1.45504 12.5567 11.99
    endloop
  endfacet
  facet normal 0.8842753 -0.46696594 0
    outer loop
      vertex -1.45504 12.5567 10
      vertex -1.4683399 12.531514 11.99
      vertex -1.4683399 12.531514 10
    endloop
  endfacet
  facet normal 0.77227575 -0.63528746 0
    outer loop
      vertex -1.4869595 12.50888 11.99
      vertex -1.4683399 12.531514 10
      vertex -1.4683399 12.531514 11.99
    endloop
  endfacet
  facet normal 0.77227575 -0.63528746 0
    outer loop
      vertex -1.4683399 12.531514 10
      vertex -1.4869595 12.50888 11.99
      vertex -1.4869595 12.50888 10
    endloop
  endfacet
  facet normal 0.6367552 -0.771066 0
    outer loop
      vertex -1.5095491 12.490225 10
      vertex -1.4869595 12.50888 11.99
      vertex -1.5095491 12.490225 11.99
    endloop
  endfacet
  facet normal 0.6367552 -0.771066 0
    outer loop
      vertex -1.4869595 12.50888 11.99
      vertex -1.5095491 12.490225 10
      vertex -1.4869595 12.50888 10
    endloop
  endfacet
  facet normal 0.46847606 -0.8834762 0
    outer loop
      vertex -1.5346794 12.476899 10
      vertex -1.5095491 12.490225 11.99
      vertex -1.5346794 12.476899 11.99
    endloop
  endfacet
  facet normal 0.46847606 -0.8834762 0
    outer loop
      vertex -1.5095491 12.490225 11.99
      vertex -1.5346794 12.476899 10
      vertex -1.5095491 12.490225 10
    endloop
  endfacet
  facet normal 0.27757564 -0.9607038 0
    outer loop
      vertex -1.5623493 12.4689045 10
      vertex -1.5346794 12.476899 11.99
      vertex -1.5623493 12.4689045 11.99
    endloop
  endfacet
  facet normal 0.27757564 -0.9607038 0
    outer loop
      vertex -1.5346794 12.476899 11.99
      vertex -1.5623493 12.4689045 10
      vertex -1.5346794 12.476899 10
    endloop
  endfacet
  facet normal 0.08785894 -0.9961329 0
    outer loop
      vertex -1.5925598 12.46624 10
      vertex -1.5623493 12.4689045 11.99
      vertex -1.5925598 12.46624 11.99
    endloop
  endfacet
  facet normal 0.08785894 -0.9961329 0
    outer loop
      vertex -1.5623493 12.4689045 11.99
      vertex -1.5925598 12.46624 10
      vertex -1.5623493 12.4689045 10
    endloop
  endfacet
  facet normal 0 -1 0
    outer loop
      vertex -2.7776794 12.46624 10
      vertex -1.5925598 12.46624 11.99
      vertex -2.7776794 12.46624 11.99
    endloop
  endfacet
  facet normal 0 -1 0
    outer loop
      vertex -1.5925598 12.46624 11.99
      vertex -2.7776794 12.46624 10
      vertex -1.5925598 12.46624 10
    endloop
  endfacet
  facet normal 0.08775061 -0.99614245 0
    outer loop
      vertex -2.8078842 12.463579 10
      vertex -2.7776794 12.46624 11.99
      vertex -2.8078842 12.463579 11.99
    endloop
  endfacet
  facet normal 0.08775061 -0.99614245 0
    outer loop
      vertex -2.7776794 12.46624 11.99
      vertex -2.8078842 12.463579 10
      vertex -2.7776794 12.46624 10
    endloop
  endfacet
  facet normal 0.27721888 -0.9608068 0
    outer loop
      vertex -2.8355398 12.4556 10
      vertex -2.8078842 12.463579 11.99
      vertex -2.8355398 12.4556 11.99
    endloop
  endfacet
  facet normal 0.27721888 -0.9608068 0
    outer loop
      vertex -2.8078842 12.463579 11.99
      vertex -2.8355398 12.4556 10
      vertex -2.8078842 12.463579 10
    endloop
  endfacet
  facet normal 0.46814373 -0.8836523 0
    outer loop
      vertex -2.8606443 12.4423 10
      vertex -2.8355398 12.4556 11.99
      vertex -2.8606443 12.4423 11.99
    endloop
  endfacet
  facet normal 0.46814373 -0.8836523 0
    outer loop
      vertex -2.8355398 12.4556 11.99
      vertex -2.8606443 12.4423 10
      vertex -2.8355398 12.4556 10
    endloop
  endfacet
  facet normal 0.6366337 -0.7711664 0
    outer loop
      vertex -2.8831997 12.423679 10
      vertex -2.8606443 12.4423 11.99
      vertex -2.8831997 12.423679 11.99
    endloop
  endfacet
  facet normal 0.6366337 -0.7711664 0
    outer loop
      vertex -2.8606443 12.4423 11.99
      vertex -2.8831997 12.423679 10
      vertex -2.8606443 12.4423 10
    endloop
  endfacet
  facet normal 0.77057695 -0.637347 0
    outer loop
      vertex -2.9018545 12.401125 11.99
      vertex -2.8831997 12.423679 10
      vertex -2.8831997 12.423679 11.99
    endloop
  endfacet
  facet normal 0.77057695 -0.637347 0
    outer loop
      vertex -2.8831997 12.423679 10
      vertex -2.9018545 12.401125 11.99
      vertex -2.9018545 12.401125 10
    endloop
  endfacet
  facet normal 0.8832986 -0.46881092 0
    outer loop
      vertex -2.9151793 12.3760195 11.99
      vertex -2.9018545 12.401125 10
      vertex -2.9018545 12.401125 11.99
    endloop
  endfacet
  facet normal 0.8832986 -0.46881092 0
    outer loop
      vertex -2.9018545 12.401125 10
      vertex -2.9151793 12.3760195 11.99
      vertex -2.9151793 12.3760195 10
    endloop
  endfacet
  facet normal 0.9606541 -0.27774757 0
    outer loop
      vertex -2.9231749 12.348365 11.99
      vertex -2.9151793 12.3760195 10
      vertex -2.9151793 12.3760195 11.99
    endloop
  endfacet
  facet normal 0.9606541 -0.27774757 0
    outer loop
      vertex -2.9151793 12.3760195 10
      vertex -2.9231749 12.348365 11.99
      vertex -2.9231749 12.348365 10
    endloop
  endfacet
  facet normal 0.9961317 -0.0878727 0
    outer loop
      vertex -2.9258394 12.318159 11.99
      vertex -2.9231749 12.348365 10
      vertex -2.9231749 12.348365 11.99
    endloop
  endfacet
  facet normal 0.9961317 -0.0878727 0
    outer loop
      vertex -2.9231749 12.348365 10
      vertex -2.9258394 12.318159 11.99
      vertex -2.9258394 12.318159 10
    endloop
  endfacet
  facet normal 1 0 0
    outer loop
      vertex -2.9258394 6.6904793 11.99
      vertex -2.9258394 12.318159 10
      vertex -2.9258394 12.318159 11.99
    endloop
  endfacet
  facet normal 1 0 0
    outer loop
      vertex -2.9258394 12.318159 10
      vertex -2.9258394 6.6904793 11.99
      vertex -2.9258394 6.6904793 10
    endloop
  endfacet
  facet normal 0.9961315 0.087875456 0
    outer loop
      vertex -2.9231749 6.6602745 11.99
      vertex -2.9258394 6.6904793 10
      vertex -2.9258394 6.6904793 11.99
    endloop
  endfacet
  facet normal 0.9961315 0.087875456 0
    outer loop
      vertex -2.9258394 6.6904793 10
      vertex -2.9231749 6.6602745 11.99
      vertex -2.9231749 6.6602745 10
    endloop
  endfacet
  facet normal 0.9606541 0.27774757 0
    outer loop
      vertex -2.9151793 6.63262 11.99
      vertex -2.9231749 6.6602745 10
      vertex -2.9231749 6.6602745 11.99
    endloop
  endfacet
  facet normal 0.9606541 0.27774757 0
    outer loop
      vertex -2.9231749 6.6602745 10
      vertex -2.9151793 6.63262 11.99
      vertex -2.9151793 6.63262 10
    endloop
  endfacet
  facet normal 0.8832986 0.46881092 0
    outer loop
      vertex -2.9018545 6.6075144 11.99
      vertex -2.9151793 6.63262 10
      vertex -2.9151793 6.63262 11.99
    endloop
  endfacet
  facet normal 0.8832986 0.46881092 0
    outer loop
      vertex -2.9151793 6.63262 10
      vertex -2.9018545 6.6075144 11.99
      vertex -2.9018545 6.6075144 10
    endloop
  endfacet
  facet normal 0.77057695 0.637347 0
    outer loop
      vertex -2.8831997 6.58496 11.99
      vertex -2.9018545 6.6075144 10
      vertex -2.9018545 6.6075144 11.99
    endloop
  endfacet
  facet normal 0.77057695 0.637347 0
    outer loop
      vertex -2.9018545 6.6075144 10
      vertex -2.8831997 6.58496 11.99
      vertex -2.8831997 6.58496 10
    endloop
  endfacet
  facet normal 0.6366337 0.7711664 0
    outer loop
      vertex -2.8606443 6.5663395 10
      vertex -2.8831997 6.58496 11.99
      vertex -2.8606443 6.5663395 11.99
    endloop
  endfacet
  facet normal 0.6366337 0.7711664 0
    outer loop
      vertex -2.8831997 6.58496 11.99
      vertex -2.8606443 6.5663395 10
      vertex -2.8831997 6.58496 10
    endloop
  endfacet
  facet normal 0.46814373 0.8836523 0
    outer loop
      vertex -2.8355398 6.5530396 10
      vertex -2.8606443 6.5663395 11.99
      vertex -2.8355398 6.5530396 11.99
    endloop
  endfacet
  facet normal 0.46814373 0.8836523 0
    outer loop
      vertex -2.8606443 6.5663395 11.99
      vertex -2.8355398 6.5530396 10
      vertex -2.8606443 6.5663395 10
    endloop
  endfacet
  facet normal 0.27724946 0.96079797 0
    outer loop
      vertex -2.8078842 6.545059 10
      vertex -2.8355398 6.5530396 11.99
      vertex -2.8078842 6.545059 11.99
    endloop
  endfacet
  facet normal 0.27724946 0.96079797 0
    outer loop
      vertex -2.8355398 6.5530396 11.99
      vertex -2.8078842 6.545059 10
      vertex -2.8355398 6.5530396 10
    endloop
  endfacet
  facet normal 0.0877194 0.99614525 0
    outer loop
      vertex -2.7776794 6.5423994 10
      vertex -2.8078842 6.545059 11.99
      vertex -2.7776794 6.5423994 11.99
    endloop
  endfacet
  facet normal 0.0877194 0.99614525 0
    outer loop
      vertex -2.8078842 6.545059 11.99
      vertex -2.7776794 6.5423994 10
      vertex -2.8078842 6.545059 10
    endloop
  endfacet
  facet normal 0 1 0
    outer loop
      vertex -1.5925598 6.5423994 10
      vertex -2.7776794 6.5423994 11.99
      vertex -1.5925598 6.5423994 11.99
    endloop
  endfacet
  facet normal 0 1 0
    outer loop
      vertex -2.7776794 6.5423994 11.99
      vertex -1.5925598 6.5423994 10
      vertex -2.7776794 6.5423994 10
    endloop
  endfacet
  facet normal 0.08804615 0.9961164 0
    outer loop
      vertex -1.5623493 6.539729 10
      vertex -1.5925598 6.5423994 11.99
      vertex -1.5623493 6.539729 11.99
    endloop
  endfacet
  facet normal 0.08804615 0.9961164 0
    outer loop
      vertex -1.5925598 6.5423994 11.99
      vertex -1.5623493 6.539729 10
      vertex -1.5925598 6.5423994 10
    endloop
  endfacet
  facet normal 0.27806452 0.9605624 0
    outer loop
      vertex -1.5346794 6.531719 10
      vertex -1.5623493 6.539729 11.99
      vertex -1.5346794 6.531719 11.99
    endloop
  endfacet
  facet normal 0.27806452 0.9605624 0
    outer loop
      vertex -1.5623493 6.539729 11.99
      vertex -1.5346794 6.531719 10
      vertex -1.5623493 6.539729 10
    endloop
  endfacet
  facet normal 0.46912992 0.8831292 0
    outer loop
      vertex -1.5095491 6.5183697 10
      vertex -1.5346794 6.531719 11.99
      vertex -1.5095491 6.5183697 11.99
    endloop
  endfacet
  facet normal 0.46912992 0.8831292 0
    outer loop
      vertex -1.5346794 6.531719 11.99
      vertex -1.5095491 6.5183697 10
      vertex -1.5346794 6.531719 10
    endloop
  endfacet
  facet normal 0.63747054 0.77047473 0
    outer loop
      vertex -1.4869595 6.4996796 10
      vertex -1.5095491 6.5183697 11.99
      vertex -1.4869595 6.4996796 11.99
    endloop
  endfacet
  facet normal 0.63747054 0.77047473 0
    outer loop
      vertex -1.5095491 6.5183697 11.99
      vertex -1.4869595 6.4996796 10
      vertex -1.5095491 6.5183697 10
    endloop
  endfacet
  facet normal 0.77180237 0.63586247 0
    outer loop
      vertex -1.4683399 6.4770794 11.99
      vertex -1.4869595 6.4996796 10
      vertex -1.4869595 6.4996796 11.99
    endloop
  endfacet
  facet normal 0.77180237 0.63586247 0
    outer loop
      vertex -1.4869595 6.4996796 10
      vertex -1.4683399 6.4770794 11.99
      vertex -1.4683399 6.4770794 10
    endloop
  endfacet
  facet normal 0.8840779 0.46733952 0
    outer loop
      vertex -1.45504 6.4519196 11.99
      vertex -1.4683399 6.4770794 10
      vertex -1.4683399 6.4770794 11.99
    endloop
  endfacet
  facet normal 0.8840779 0.46733952 0
    outer loop
      vertex -1.4683399 6.4770794 10
      vertex -1.45504 6.4519196 11.99
      vertex -1.45504 6.4519196 10
    endloop
  endfacet
  facet normal 0.9609706 0.27665055 0
    outer loop
      vertex -1.4470596 6.424199 11.99
      vertex -1.45504 6.4519196 10
      vertex -1.45504 6.4519196 11.99
    endloop
  endfacet
  facet normal 0.9609706 0.27665055 0
    outer loop
      vertex -1.45504 6.4519196 10
      vertex -1.4470596 6.424199 11.99
      vertex -1.4470596 6.424199 10
    endloop
  endfacet
  facet normal 0.996164 0.08750556 0
    outer loop
      vertex -1.4443998 6.39392 11.99
      vertex -1.4470596 6.424199 10
      vertex -1.4470596 6.424199 11.99
    endloop
  endfacet
  facet normal 0.996164 0.08750556 0
    outer loop
      vertex -1.4470596 6.424199 10
      vertex -1.4443998 6.39392 11.99
      vertex -1.4443998 6.39392 10
    endloop
  endfacet
  facet normal 1 0 0
    outer loop
      vertex -1.4443998 5.9484797 11.99
      vertex -1.4443998 6.39392 10
      vertex -1.4443998 6.39392 11.99
    endloop
  endfacet
  facet normal 1 0 0
    outer loop
      vertex -1.4443998 6.39392 10
      vertex -1.4443998 5.9484797 11.99
      vertex -1.4443998 5.9484797 10
    endloop
  endfacet
  facet normal 0.99616545 -0.08748915 0
    outer loop
      vertex -1.4470596 5.918195 11.99
      vertex -1.4443998 5.9484797 10
      vertex -1.4443998 5.9484797 11.99
    endloop
  endfacet
  facet normal 0.99616545 -0.08748915 0
    outer loop
      vertex -1.4443998 5.9484797 10
      vertex -1.4470596 5.918195 11.99
      vertex -1.4470596 5.918195 10
    endloop
  endfacet
  facet normal 0.96101105 -0.27651 0
    outer loop
      vertex -1.45504 5.890459 11.99
      vertex -1.4470596 5.918195 10
      vertex -1.4470596 5.918195 11.99
    endloop
  endfacet
  facet normal 0.96101105 -0.27651 0
    outer loop
      vertex -1.4470596 5.918195 10
      vertex -1.45504 5.890459 11.99
      vertex -1.45504 5.890459 10
    endloop
  endfacet
  facet normal 0.884268 -0.46697977 0
    outer loop
      vertex -1.4683399 5.8652744 11.99
      vertex -1.45504 5.890459 10
      vertex -1.45504 5.890459 11.99
    endloop
  endfacet
  facet normal 0.884268 -0.46697977 0
    outer loop
      vertex -1.45504 5.890459 10
      vertex -1.4683399 5.8652744 11.99
      vertex -1.4683399 5.8652744 10
    endloop
  endfacet
  facet normal 0.77227575 -0.63528746 0
    outer loop
      vertex -1.4869595 5.84264 11.99
      vertex -1.4683399 5.8652744 10
      vertex -1.4683399 5.8652744 11.99
    endloop
  endfacet
  facet normal 0.77227575 -0.63528746 0
    outer loop
      vertex -1.4683399 5.8652744 10
      vertex -1.4869595 5.84264 11.99
      vertex -1.4869595 5.84264 10
    endloop
  endfacet
  facet normal 0.6367746 -0.77105 0
    outer loop
      vertex -1.5095491 5.823984 10
      vertex -1.4869595 5.84264 11.99
      vertex -1.5095491 5.823984 11.99
    endloop
  endfacet
  facet normal 0.6367746 -0.77105 0
    outer loop
      vertex -1.4869595 5.84264 11.99
      vertex -1.5095491 5.823984 10
      vertex -1.4869595 5.84264 10
    endloop
  endfacet
  facet normal 0.4684499 -0.8834901 0
    outer loop
      vertex -1.5346794 5.8106594 10
      vertex -1.5095491 5.823984 11.99
      vertex -1.5346794 5.8106594 11.99
    endloop
  endfacet
  facet normal 0.4684499 -0.8834901 0
    outer loop
      vertex -1.5095491 5.823984 11.99
      vertex -1.5346794 5.8106594 10
      vertex -1.5095491 5.823984 10
    endloop
  endfacet
  facet normal 0.27757564 -0.9607038 0
    outer loop
      vertex -1.5623493 5.8026648 10
      vertex -1.5346794 5.8106594 11.99
      vertex -1.5623493 5.8026648 11.99
    endloop
  endfacet
  facet normal 0.27757564 -0.9607038 0
    outer loop
      vertex -1.5346794 5.8106594 11.99
      vertex -1.5623493 5.8026648 10
      vertex -1.5346794 5.8106594 10
    endloop
  endfacet
  facet normal 0.08789014 -0.99613017 0
    outer loop
      vertex -1.5925598 5.799999 10
      vertex -1.5623493 5.8026648 11.99
      vertex -1.5925598 5.799999 11.99
    endloop
  endfacet
  facet normal 0.08789014 -0.99613017 0
    outer loop
      vertex -1.5623493 5.8026648 11.99
      vertex -1.5925598 5.799999 10
      vertex -1.5623493 5.8026648 10
    endloop
  endfacet
  facet normal 0 -1 0
    outer loop
      vertex -5.1479197 5.799999 10
      vertex -1.5925598 5.799999 11.99
      vertex -5.1479197 5.799999 11.99
    endloop
  endfacet
  facet normal 0 -1 0
    outer loop
      vertex -1.5925598 5.799999 11.99
      vertex -5.1479197 5.799999 10
      vertex -1.5925598 5.799999 10
    endloop
  endfacet
  facet normal -0.08790666 -0.99612874 0
    outer loop
      vertex -5.1781244 5.8026648 10
      vertex -5.1479197 5.799999 11.99
      vertex -5.1781244 5.8026648 11.99
    endloop
  endfacet
  facet normal -0.08790666 -0.99612874 0
    outer loop
      vertex -5.1479197 5.799999 11.99
      vertex -5.1781244 5.8026648 10
      vertex -5.1479197 5.799999 10
    endloop
  endfacet
  facet normal 0 0 1
    outer loop
      vertex -1.5925598 13.208639 11.99
      vertex -1.4443998 13.06016 11.99
      vertex -1.4470596 13.09044 11.99
    endloop
  endfacet
  facet normal 0 0 1
    outer loop
      vertex -1.4443998 13.06016 11.99
      vertex -1.5925598 13.208639 11.99
      vertex -1.4443998 12.614719 11.99
    endloop
  endfacet
  facet normal 0 0 1
    outer loop
      vertex -1.5925598 13.208639 11.99
      vertex -1.4470596 13.09044 11.99
      vertex -1.45504 13.118159 11.99
    endloop
  endfacet
  facet normal 0 0 1
    outer loop
      vertex -1.5925598 12.46624 11.99
      vertex -1.4443998 12.614719 11.99
      vertex -1.5925598 13.208639 11.99
    endloop
  endfacet
  facet normal 0 0 1
    outer loop
      vertex -1.5925598 13.208639 11.99
      vertex -1.45504 13.118159 11.99
      vertex -1.4683399 13.143319 11.99
    endloop
  endfacet
  facet normal 0 0 1
    outer loop
      vertex -1.4443998 12.614719 11.99
      vertex -1.5925598 12.46624 11.99
      vertex -1.4470596 12.5844345 11.99
    endloop
  endfacet
  facet normal 0 0 1
    outer loop
      vertex -1.5925598 13.208639 11.99
      vertex -1.4683399 13.143319 11.99
      vertex -1.4869595 13.165919 11.99
    endloop
  endfacet
  facet normal 0 0 1
    outer loop
      vertex -1.4470596 12.5844345 11.99
      vertex -1.5925598 12.46624 11.99
      vertex -1.45504 12.5567 11.99
    endloop
  endfacet
  facet normal 0 0 1
    outer loop
      vertex -1.5623493 13.20597 11.99
      vertex -1.4869595 13.165919 11.99
      vertex -1.5095491 13.184609 11.99
    endloop
  endfacet
  facet normal 0 0 1
    outer loop
      vertex -1.45504 12.5567 11.99
      vertex -1.5925598 12.46624 11.99
      vertex -1.4683399 12.531514 11.99
    endloop
  endfacet
  facet normal 0 0 1
    outer loop
      vertex -1.5623493 13.20597 11.99
      vertex -1.5095491 13.184609 11.99
      vertex -1.5346794 13.19796 11.99
    endloop
  endfacet
  facet normal 0 0 1
    outer loop
      vertex -1.4683399 12.531514 11.99
      vertex -1.5925598 12.46624 11.99
      vertex -1.4869595 12.50888 11.99
    endloop
  endfacet
  facet normal 0 0 1
    outer loop
      vertex -1.4869595 13.165919 11.99
      vertex -1.5623493 13.20597 11.99
      vertex -1.5925598 13.208639 11.99
    endloop
  endfacet
  facet normal 0 0 1
    outer loop
      vertex -1.5623493 12.4689045 11.99
      vertex -1.4869595 12.50888 11.99
      vertex -1.5925598 12.46624 11.99
    endloop
  endfacet
  facet normal 0 0 1
    outer loop
      vertex -1.4869595 12.50888 11.99
      vertex -1.5623493 12.4689045 11.99
      vertex -1.5095491 12.490225 11.99
    endloop
  endfacet
  facet normal 0 0 1
    outer loop
      vertex -1.5095491 12.490225 11.99
      vertex -1.5623493 12.4689045 11.99
      vertex -1.5346794 12.476899 11.99
    endloop
  endfacet
  facet normal 0 0 1
    outer loop
      vertex -1.5925598 13.208639 11.99
      vertex -2.7776794 12.46624 11.99
      vertex -1.5925598 12.46624 11.99
    endloop
  endfacet
  facet normal 0 0 1
    outer loop
      vertex -3.666479 13.208639 11.99
      vertex -2.7776794 12.46624 11.99
      vertex -1.5925598 13.208639 11.99
    endloop
  endfacet
  facet normal 0 0 1
    outer loop
      vertex -2.7776794 12.46624 11.99
      vertex -3.666479 13.208639 11.99
      vertex -2.8078842 12.463579 11.99
    endloop
  endfacet
  facet normal 0 0 1
    outer loop
      vertex -2.8078842 12.463579 11.99
      vertex -3.666479 13.208639 11.99
      vertex -2.8355398 12.4556 11.99
    endloop
  endfacet
  facet normal 0 0 1
    outer loop
      vertex -2.9231749 12.348365 11.99
      vertex -3.814639 13.060479 11.99
      vertex -2.9258394 12.318159 11.99
    endloop
  endfacet
  facet normal 0 0 1
    outer loop
      vertex -2.9151793 12.3760195 11.99
      vertex -3.814639 13.060479 11.99
      vertex -2.9231749 12.348365 11.99
    endloop
  endfacet
  facet normal 0 0 1
    outer loop
      vertex -2.9018545 12.401125 11.99
      vertex -3.814639 13.060479 11.99
      vertex -2.9151793 12.3760195 11.99
    endloop
  endfacet
  facet normal 0 0 1
    outer loop
      vertex -3.814639 13.060479 11.99
      vertex -2.9018545 12.401125 11.99
      vertex -3.666479 13.208639 11.99
    endloop
  endfacet
  facet normal 0 0 1
    outer loop
      vertex -2.8831997 12.423679 11.99
      vertex -3.666479 13.208639 11.99
      vertex -2.9018545 12.401125 11.99
    endloop
  endfacet
  facet normal 0 0 1
    outer loop
      vertex -2.8606443 12.4423 11.99
      vertex -3.666479 13.208639 11.99
      vertex -2.8831997 12.423679 11.99
    endloop
  endfacet
  facet normal 0 0 1
    outer loop
      vertex -2.8355398 12.4556 11.99
      vertex -3.666479 13.208639 11.99
      vertex -2.8606443 12.4423 11.99
    endloop
  endfacet
  facet normal 0 0 1
    outer loop
      vertex -1.5925598 6.5423994 11.99
      vertex -1.4443998 6.39392 11.99
      vertex -1.4470596 6.424199 11.99
    endloop
  endfacet
  facet normal 0 0 1
    outer loop
      vertex -1.4443998 6.39392 11.99
      vertex -1.5925598 6.5423994 11.99
      vertex -1.4443998 5.9484797 11.99
    endloop
  endfacet
  facet normal 0 0 1
    outer loop
      vertex -1.5925598 6.5423994 11.99
      vertex -1.4470596 6.424199 11.99
      vertex -1.45504 6.4519196 11.99
    endloop
  endfacet
  facet normal 0 0 1
    outer loop
      vertex -1.5925598 5.799999 11.99
      vertex -1.4443998 5.9484797 11.99
      vertex -1.5925598 6.5423994 11.99
    endloop
  endfacet
  facet normal 0 0 1
    outer loop
      vertex -1.5925598 6.5423994 11.99
      vertex -1.45504 6.4519196 11.99
      vertex -1.4683399 6.4770794 11.99
    endloop
  endfacet
  facet normal 0 0 1
    outer loop
      vertex -1.4443998 5.9484797 11.99
      vertex -1.5925598 5.799999 11.99
      vertex -1.4470596 5.918195 11.99
    endloop
  endfacet
  facet normal 0 0 1
    outer loop
      vertex -1.5925598 6.5423994 11.99
      vertex -1.4683399 6.4770794 11.99
      vertex -1.4869595 6.4996796 11.99
    endloop
  endfacet
  facet normal 0 0 1
    outer loop
      vertex -1.4470596 5.918195 11.99
      vertex -1.5925598 5.799999 11.99
      vertex -1.45504 5.890459 11.99
    endloop
  endfacet
  facet normal 0 0 1
    outer loop
      vertex -1.5623493 6.539729 11.99
      vertex -1.4869595 6.4996796 11.99
      vertex -1.5095491 6.5183697 11.99
    endloop
  endfacet
  facet normal 0 0 1
    outer loop
      vertex -1.45504 5.890459 11.99
      vertex -1.5925598 5.799999 11.99
      vertex -1.4683399 5.8652744 11.99
    endloop
  endfacet
  facet normal 0 0 1
    outer loop
      vertex -1.5623493 6.539729 11.99
      vertex -1.5095491 6.5183697 11.99
      vertex -1.5346794 6.531719 11.99
    endloop
  endfacet
  facet normal 0 0 1
    outer loop
      vertex -1.4683399 5.8652744 11.99
      vertex -1.5925598 5.799999 11.99
      vertex -1.4869595 5.84264 11.99
    endloop
  endfacet
  facet normal 0 0 1
    outer loop
      vertex -1.4869595 6.4996796 11.99
      vertex -1.5623493 6.539729 11.99
      vertex -1.5925598 6.5423994 11.99
    endloop
  endfacet
  facet normal 0 0 1
    outer loop
      vertex -1.5623493 5.8026648 11.99
      vertex -1.4869595 5.84264 11.99
      vertex -1.5925598 5.799999 11.99
    endloop
  endfacet
  facet normal 0 0 1
    outer loop
      vertex -1.4869595 5.84264 11.99
      vertex -1.5623493 5.8026648 11.99
      vertex -1.5095491 5.823984 11.99
    endloop
  endfacet
  facet normal 0 0 1
    outer loop
      vertex -1.5095491 5.823984 11.99
      vertex -1.5623493 5.8026648 11.99
      vertex -1.5346794 5.8106594 11.99
    endloop
  endfacet
  facet normal 0 0 1
    outer loop
      vertex -2.7776794 6.5423994 11.99
      vertex -1.5925598 5.799999 11.99
      vertex -1.5925598 6.5423994 11.99
    endloop
  endfacet
  facet normal 0 0 1
    outer loop
      vertex -2.8078842 6.545059 11.99
      vertex -1.5925598 5.799999 11.99
      vertex -2.7776794 6.5423994 11.99
    endloop
  endfacet
  facet normal 0 0 1
    outer loop
      vertex -3.9325895 6.545059 11.99
      vertex -2.8078842 6.545059 11.99
      vertex -2.8355398 6.5530396 11.99
    endloop
  endfacet
  facet normal 0 0 1
    outer loop
      vertex -3.9049196 6.5530396 11.99
      vertex -2.8355398 6.5530396 11.99
      vertex -2.8606443 6.5663395 11.99
    endloop
  endfacet
  facet normal 0 0 1
    outer loop
      vertex -3.814639 6.6905594 11.99
      vertex -2.9258394 12.318159 11.99
      vertex -3.814639 13.060479 11.99
    endloop
  endfacet
  facet normal 0 0 1
    outer loop
      vertex -3.814639 13.060479 11.99
      vertex -3.666479 13.208639 11.99
      vertex -3.6966848 13.205975 11.99
    endloop
  endfacet
  facet normal 0 0 1
    outer loop
      vertex -3.814639 13.060479 11.99
      vertex -3.6966848 13.205975 11.99
      vertex -3.7243395 13.19798 11.99
    endloop
  endfacet
  facet normal 0 0 1
    outer loop
      vertex -3.814639 13.060479 11.99
      vertex -3.7243395 13.19798 11.99
      vertex -3.749445 13.184654 11.99
    endloop
  endfacet
  facet normal 0 0 1
    outer loop
      vertex -3.814639 13.060479 11.99
      vertex -3.749445 13.184654 11.99
      vertex -3.7719994 13.165999 11.99
    endloop
  endfacet
  facet normal 0 0 1
    outer loop
      vertex -3.8119745 13.090685 11.99
      vertex -3.7719994 13.165999 11.99
      vertex -3.7906542 13.143444 11.99
    endloop
  endfacet
  facet normal 0 0 1
    outer loop
      vertex -3.8119745 13.090685 11.99
      vertex -3.7906542 13.143444 11.99
      vertex -3.8039799 13.11834 11.99
    endloop
  endfacet
  facet normal 0 0 1
    outer loop
      vertex -3.7719994 13.165999 11.99
      vertex -3.8119745 13.090685 11.99
      vertex -3.814639 13.060479 11.99
    endloop
  endfacet
  facet normal 0 0 1
    outer loop
      vertex -2.9258394 12.318159 11.99
      vertex -3.814639 6.6905594 11.99
      vertex -2.9258394 6.6904793 11.99
    endloop
  endfacet
  facet normal 0 0 1
    outer loop
      vertex -2.9258394 6.6904793 11.99
      vertex -3.814639 6.6905594 11.99
      vertex -2.9231749 6.6602745 11.99
    endloop
  endfacet
  facet normal 0 0 1
    outer loop
      vertex -3.8172998 6.66035 11.99
      vertex -2.9231749 6.6602745 11.99
      vertex -3.814639 6.6905594 11.99
    endloop
  endfacet
  facet normal 0 0 1
    outer loop
      vertex -2.9231749 6.6602745 11.99
      vertex -3.8172998 6.66035 11.99
      vertex -2.9151793 6.63262 11.99
    endloop
  endfacet
  facet normal 0 0 1
    outer loop
      vertex -3.8252792 6.63268 11.99
      vertex -2.9151793 6.63262 11.99
      vertex -3.8172998 6.66035 11.99
    endloop
  endfacet
  facet normal 0 0 1
    outer loop
      vertex -2.9151793 6.63262 11.99
      vertex -3.8252792 6.63268 11.99
      vertex -2.9018545 6.6075144 11.99
    endloop
  endfacet
  facet normal 0 0 1
    outer loop
      vertex -3.8385792 6.6075497 11.99
      vertex -2.9018545 6.6075144 11.99
      vertex -3.8252792 6.63268 11.99
    endloop
  endfacet
  facet normal 0 0 1
    outer loop
      vertex -2.9018545 6.6075144 11.99
      vertex -3.8385792 6.6075497 11.99
      vertex -2.8831997 6.58496 11.99
    endloop
  endfacet
  facet normal 0 0 1
    outer loop
      vertex -3.8571997 6.58496 11.99
      vertex -2.8831997 6.58496 11.99
      vertex -3.8385792 6.6075497 11.99
    endloop
  endfacet
  facet normal 0 0 1
    outer loop
      vertex -2.8831997 6.58496 11.99
      vertex -3.8571997 6.58496 11.99
      vertex -2.8606443 6.5663395 11.99
    endloop
  endfacet
  facet normal 0 0 1
    outer loop
      vertex -3.8797894 6.5663395 11.99
      vertex -2.8606443 6.5663395 11.99
      vertex -3.8571997 6.58496 11.99
    endloop
  endfacet
  facet normal 0 0 1
    outer loop
      vertex -3.9049196 6.5530396 11.99
      vertex -2.8606443 6.5663395 11.99
      vertex -3.8797894 6.5663395 11.99
    endloop
  endfacet
  facet normal 0 0 1
    outer loop
      vertex -2.8355398 6.5530396 11.99
      vertex -3.9049196 6.5530396 11.99
      vertex -3.9325895 6.545059 11.99
    endloop
  endfacet
  facet normal 0 0 1
    outer loop
      vertex -2.8078842 6.545059 11.99
      vertex -3.9325895 6.545059 11.99
      vertex -1.5925598 5.799999 11.99
    endloop
  endfacet
  facet normal 0 0 1
    outer loop
      vertex -5.1479197 5.799999 11.99
      vertex -3.9325895 6.545059 11.99
      vertex -3.962799 6.5423994 11.99
    endloop
  endfacet
  facet normal 0 0 1
    outer loop
      vertex -5.1479197 5.799999 11.99
      vertex -3.962799 6.5423994 11.99
      vertex -5.1479197 6.5423994 11.99
    endloop
  endfacet
  facet normal 0 0 1
    outer loop
      vertex -3.9325895 6.545059 11.99
      vertex -5.1479197 5.799999 11.99
      vertex -1.5925598 5.799999 11.99
    endloop
  endfacet
  facet normal 0 0 1
    outer loop
      vertex -5.2959995 6.39392 11.99
      vertex -5.1479197 6.5423994 11.99
      vertex -5.1781244 6.539729 11.99
    endloop
  endfacet
  facet normal 0 0 1
    outer loop
      vertex -5.1479197 6.5423994 11.99
      vertex -5.2959995 6.39392 11.99
      vertex -5.1479197 5.799999 11.99
    endloop
  endfacet
  facet normal 0 0 1
    outer loop
      vertex -5.2959995 6.39392 11.99
      vertex -5.1781244 6.539729 11.99
      vertex -5.205779 6.531719 11.99
    endloop
  endfacet
  facet normal 0 0 1
    outer loop
      vertex -5.2959995 5.9484797 11.99
      vertex -5.1479197 5.799999 11.99
      vertex -5.2959995 6.39392 11.99
    endloop
  endfacet
  facet normal 0 0 1
    outer loop
      vertex -5.2959995 6.39392 11.99
      vertex -5.205779 6.531719 11.99
      vertex -5.2308846 6.5183697 11.99
    endloop
  endfacet
  facet normal 0 0 1
    outer loop
      vertex -5.1479197 5.799999 11.99
      vertex -5.2959995 5.9484797 11.99
      vertex -5.1781244 5.8026648 11.99
    endloop
  endfacet
  facet normal 0 0 1
    outer loop
      vertex -5.2959995 6.39392 11.99
      vertex -5.2308846 6.5183697 11.99
      vertex -5.25344 6.4996796 11.99
    endloop
  endfacet
  facet normal 0 0 1
    outer loop
      vertex -5.1781244 5.8026648 11.99
      vertex -5.2959995 5.9484797 11.99
      vertex -5.205779 5.8106594 11.99
    endloop
  endfacet
  facet normal 0 0 1
    outer loop
      vertex -5.2933397 6.424199 11.99
      vertex -5.25344 6.4996796 11.99
      vertex -5.2720594 6.4770794 11.99
    endloop
  endfacet
  facet normal 0 0 1
    outer loop
      vertex -5.205779 5.8106594 11.99
      vertex -5.2959995 5.9484797 11.99
      vertex -5.2308846 5.823984 11.99
    endloop
  endfacet
  facet normal 0 0 1
    outer loop
      vertex -5.2933397 6.424199 11.99
      vertex -5.2720594 6.4770794 11.99
      vertex -5.2853594 6.4519196 11.99
    endloop
  endfacet
  facet normal 0 0 1
    outer loop
      vertex -5.2308846 5.823984 11.99
      vertex -5.2959995 5.9484797 11.99
      vertex -5.25344 5.84264 11.99
    endloop
  endfacet
  facet normal 0 0 1
    outer loop
      vertex -5.25344 6.4996796 11.99
      vertex -5.2933397 6.424199 11.99
      vertex -5.2959995 6.39392 11.99
    endloop
  endfacet
  facet normal 0 0 1
    outer loop
      vertex -5.2933397 5.918195 11.99
      vertex -5.25344 5.84264 11.99
      vertex -5.2959995 5.9484797 11.99
    endloop
  endfacet
  facet normal 0 0 1
    outer loop
      vertex -5.25344 5.84264 11.99
      vertex -5.2933397 5.918195 11.99
      vertex -5.2720594 5.8652744 11.99
    endloop
  endfacet
  facet normal 0 0 1
    outer loop
      vertex -5.2720594 5.8652744 11.99
      vertex -5.2933397 5.918195 11.99
      vertex -5.2853594 5.890459 11.99
    endloop
  endfacet
endsolid OpenSCAD_Model
