solid OpenSCAD_Model
  facet normal -0 0 1
    outer loop
      vertex -6.3496 10.2358 10
      vertex -4.2247 10.1002 10
      vertex -4.55907 10.5477 10
    endloop
  endfacet
  facet normal 0 0 1
    outer loop
      vertex -4.2247 10.1002 10
      vertex -4.64968 6.76263 10
      vertex -4.2247 6.76263 10
    endloop
  endfacet
  facet normal 0 0 1
    outer loop
      vertex -4.2247 10.1002 10
      vertex -4.79734 6.74699 10
      vertex -4.64968 6.76263 10
    endloop
  endfacet
  facet normal 0 0 1
    outer loop
      vertex -6.3496 10.2358 10
      vertex -4.55907 10.5477 10
      vertex -4.88719 10.8673 10
    endloop
  endfacet
  facet normal 0 0 1
    outer loop
      vertex -4.2247 10.1002 10
      vertex -6.3496 10.2358 10
      vertex -4.79734 6.74699 10
    endloop
  endfacet
  facet normal 0 0 1
    outer loop
      vertex -4.79734 6.74699 10
      vertex -6.3496 10.2358 10
      vertex -4.9028 6.7001 10
    endloop
  endfacet
  facet normal 0 0 1
    outer loop
      vertex -6.3496 6.25 10
      vertex -4.9028 6.7001 10
      vertex -6.3496 10.2358 10
    endloop
  endfacet
  facet normal 0 0 1
    outer loop
      vertex -6.3496 10.2358 10
      vertex -4.88719 10.8673 10
      vertex -5.20905 11.059 10
    endloop
  endfacet
  facet normal -0 0 1
    outer loop
      vertex -3.72475 10.1984 10
      vertex -1.59995 10.1002 10
      vertex -1.93975 10.5477 10
    endloop
  endfacet
  facet normal 0 0 1
    outer loop
      vertex -1.59995 10.1002 10
      vertex -2.02492 6.76263 10
      vertex -1.59995 6.76263 10
    endloop
  endfacet
  facet normal 0 0 1
    outer loop
      vertex -1.59995 10.1002 10
      vertex -2.17253 6.74699 10
      vertex -2.02492 6.76263 10
    endloop
  endfacet
  facet normal 0 0 1
    outer loop
      vertex -3.72475 10.1984 10
      vertex -1.93975 10.5477 10
      vertex -2.27175 10.8673 10
    endloop
  endfacet
  facet normal 0 0 1
    outer loop
      vertex -1.59995 10.1002 10
      vertex -3.72475 10.1984 10
      vertex -2.17253 6.74699 10
    endloop
  endfacet
  facet normal 0 0 1
    outer loop
      vertex -2.17253 6.74699 10
      vertex -3.72475 10.1984 10
      vertex -2.27797 6.7001 10
    endloop
  endfacet
  facet normal 0 0 1
    outer loop
      vertex -3.72475 6.25 10
      vertex -2.27797 6.7001 10
      vertex -3.72475 10.1984 10
    endloop
  endfacet
  facet normal 0 0 1
    outer loop
      vertex -3.66382 10.5404 10
      vertex -2.27175 10.8673 10
      vertex -2.59593 11.059 10
    endloop
  endfacet
  facet normal -0 0 1
    outer loop
      vertex -0.3586 11.0969 10
      vertex -0.337512 6.51253 10
      vertex -0.337512 11.2111 10
    endloop
  endfacet
  facet normal 0 0 1
    outer loop
      vertex -0.3586 11.0969 10
      vertex -0.3586 6.62195 10
      vertex -0.337512 6.51253 10
    endloop
  endfacet
  facet normal -0 0 1
    outer loop
      vertex -0.421863 11.0154 10
      vertex -0.3586 6.62195 10
      vertex -0.3586 11.0969 10
    endloop
  endfacet
  facet normal 0 0 1
    outer loop
      vertex -0.421863 11.0154 10
      vertex -0.421863 6.7001 10
      vertex -0.3586 6.62195 10
    endloop
  endfacet
  facet normal -0 0 1
    outer loop
      vertex -0.527301 10.9665 10
      vertex -0.421863 6.7001 10
      vertex -0.421863 11.0154 10
    endloop
  endfacet
  facet normal 0 0 1
    outer loop
      vertex -0.527301 10.9665 10
      vertex -0.527301 6.74699 10
      vertex -0.421863 6.7001 10
    endloop
  endfacet
  facet normal -0 0 1
    outer loop
      vertex -0.67493 10.9501 10
      vertex -0.527301 6.74699 10
      vertex -0.527301 10.9665 10
    endloop
  endfacet
  facet normal 0 0 1
    outer loop
      vertex -0.67493 10.9501 10
      vertex -0.67493 6.76263 10
      vertex -0.527301 6.74699 10
    endloop
  endfacet
  facet normal -0 0 1
    outer loop
      vertex -1.0999 10.9501 10
      vertex -0.67493 6.76263 10
      vertex -0.67493 10.9501 10
    endloop
  endfacet
  facet normal 0 0 1
    outer loop
      vertex -0.67493 6.76263 10
      vertex -1.0999 10.9501 10
      vertex -1.0999 6.76263 10
    endloop
  endfacet
  facet normal 0 0 1
    outer loop
      vertex -0.337512 6.51253 10
      vertex 0 14.5 10
      vertex -0.337512 11.2111 10
    endloop
  endfacet
  facet normal 0 0 1
    outer loop
      vertex 0 14.5 10
      vertex -0.3586 11.3212 10
      vertex -0.337512 11.2111 10
    endloop
  endfacet
  facet normal 0 0 1
    outer loop
      vertex 0 14.5 10
      vertex -0.421893 11.3999 10
      vertex -0.3586 11.3212 10
    endloop
  endfacet
  facet normal 0 0 1
    outer loop
      vertex 0 14.5 10
      vertex -0.527362 11.4471 10
      vertex -0.421893 11.3999 10
    endloop
  endfacet
  facet normal 0 0 1
    outer loop
      vertex 0 14.5 10
      vertex -0.675006 11.4628 10
      vertex -0.527362 11.4471 10
    endloop
  endfacet
  facet normal 0 0 1
    outer loop
      vertex 0 14.5 10
      vertex -1.59995 11.4628 10
      vertex -0.675006 11.4628 10
    endloop
  endfacet
  facet normal 0 0 1
    outer loop
      vertex -1.59995 11.4628 10
      vertex -1.7554 11.0207 10
      vertex -1.59995 10.8126 10
    endloop
  endfacet
  facet normal 0 0 1
    outer loop
      vertex -1.59995 11.4628 10
      vertex -1.90929 11.1961 10
      vertex -1.7554 11.0207 10
    endloop
  endfacet
  facet normal -0 0 1
    outer loop
      vertex -2.53736 11.5888 10
      vertex -1.59995 11.4628 10
      vertex 0 14.5 10
    endloop
  endfacet
  facet normal 0 0 1
    outer loop
      vertex -1.59995 11.4628 10
      vertex -2.06162 11.3387 10
      vertex -1.90929 11.1961 10
    endloop
  endfacet
  facet normal 0 0 1
    outer loop
      vertex -1.59995 11.4628 10
      vertex -2.21239 11.4486 10
      vertex -2.06162 11.3387 10
    endloop
  endfacet
  facet normal 0 0 1
    outer loop
      vertex -1.59995 11.4628 10
      vertex -2.36862 11.5304 10
      vertex -2.21239 11.4486 10
    endloop
  endfacet
  facet normal 0 0 1
    outer loop
      vertex -1.59995 11.4628 10
      vertex -2.53736 11.5888 10
      vertex -2.36862 11.5304 10
    endloop
  endfacet
  facet normal 0 0 1
    outer loop
      vertex 0 14.5 10
      vertex -2.71859 11.6239 10
      vertex -2.53736 11.5888 10
    endloop
  endfacet
  facet normal 0 0 1
    outer loop
      vertex 0 14.5 10
      vertex -2.91233 11.6356 10
      vertex -2.71859 11.6239 10
    endloop
  endfacet
  facet normal 0 0 1
    outer loop
      vertex 0 14.5 10
      vertex -3.28807 11.5803 10
      vertex -2.91233 11.6356 10
    endloop
  endfacet
  facet normal -0 0 1
    outer loop
      vertex -8 14.5 10
      vertex -3.28807 11.5803 10
      vertex 0 14.5 10
    endloop
  endfacet
  facet normal 0 0 1
    outer loop
      vertex -3.89426 11.1375 10
      vertex -4.47081 11.1375 10
      vertex -4.12471 10.7502 10
    endloop
  endfacet
  facet normal 0 0 1
    outer loop
      vertex -3.61537 11.4142 10
      vertex -4.47081 11.1375 10
      vertex -3.89426 11.1375 10
    endloop
  endfacet
  facet normal 0 -0 1
    outer loop
      vertex -4.82158 11.4142 10
      vertex -3.28807 11.5803 10
      vertex -5.17704 11.5803 10
    endloop
  endfacet
  facet normal 0 0 1
    outer loop
      vertex -3.61537 11.4142 10
      vertex -4.82158 11.4142 10
      vertex -4.47081 11.1375 10
    endloop
  endfacet
  facet normal 0 0 1
    outer loop
      vertex -3.28807 11.5803 10
      vertex -4.82158 11.4142 10
      vertex -3.61537 11.4142 10
    endloop
  endfacet
  facet normal 0 0 1
    outer loop
      vertex -3.28807 11.5803 10
      vertex -8 14.5 10
      vertex -5.17704 11.5803 10
    endloop
  endfacet
  facet normal 0 0 1
    outer loop
      vertex -5.17704 11.5803 10
      vertex -8 14.5 10
      vertex -5.53717 11.6356 10
    endloop
  endfacet
  facet normal 0 0 1
    outer loop
      vertex -5.53717 11.6356 10
      vertex -8 14.5 10
      vertex -5.79654 11.6106 10
    endloop
  endfacet
  facet normal 0 0 1
    outer loop
      vertex -6.84955 10.2861 10
      vertex -7.27454 6.76263 10
      vertex -6.84955 6.76263 10
    endloop
  endfacet
  facet normal 0 0 1
    outer loop
      vertex -8 14.5 10
      vertex -6.84955 10.2861 10
      vertex -6.82534 10.5517 10
    endloop
  endfacet
  facet normal 0 0 1
    outer loop
      vertex -6.84955 10.2861 10
      vertex -7.42218 6.74699 10
      vertex -7.27454 6.76263 10
    endloop
  endfacet
  facet normal 0 0 1
    outer loop
      vertex -6.84955 10.2861 10
      vertex -7.52765 6.7001 10
      vertex -7.42218 6.74699 10
    endloop
  endfacet
  facet normal 0 0 1
    outer loop
      vertex -6.84955 10.2861 10
      vertex -7.59095 6.62195 10
      vertex -7.52765 6.7001 10
    endloop
  endfacet
  facet normal 0 0 1
    outer loop
      vertex -7.59095 6.62195 10
      vertex -8 14.5 10
      vertex -7.61203 6.51253 10
    endloop
  endfacet
  facet normal 0 0 1
    outer loop
      vertex -6.84955 10.2861 10
      vertex -8 14.5 10
      vertex -7.59095 6.62195 10
    endloop
  endfacet
  facet normal 0 0 1
    outer loop
      vertex -6.75269 10.7984 10
      vertex -8 14.5 10
      vertex -6.82534 10.5517 10
    endloop
  endfacet
  facet normal 0 0 1
    outer loop
      vertex -6.63161 11.0265 10
      vertex -8 14.5 10
      vertex -6.75269 10.7984 10
    endloop
  endfacet
  facet normal 0 0 1
    outer loop
      vertex -6.4621 11.2357 10
      vertex -8 14.5 10
      vertex -6.63161 11.0265 10
    endloop
  endfacet
  facet normal 0 0 1
    outer loop
      vertex -6.25901 11.4107 10
      vertex -8 14.5 10
      vertex -6.4621 11.2357 10
    endloop
  endfacet
  facet normal 0 0 1
    outer loop
      vertex -6.03714 11.5356 10
      vertex -8 14.5 10
      vertex -6.25901 11.4107 10
    endloop
  endfacet
  facet normal 0 0 1
    outer loop
      vertex -5.79654 11.6106 10
      vertex -8 14.5 10
      vertex -6.03714 11.5356 10
    endloop
  endfacet
  facet normal 0 0 1
    outer loop
      vertex 0 14.5 10
      vertex -0.337512 6.51253 10
      vertex 0 2.5 10
    endloop
  endfacet
  facet normal -0 0 1
    outer loop
      vertex -0.357821 6.39766 10
      vertex 0 2.5 10
      vertex -0.337512 6.51253 10
    endloop
  endfacet
  facet normal -0 0 1
    outer loop
      vertex -0.418765 6.31563 10
      vertex 0 2.5 10
      vertex -0.357821 6.39766 10
    endloop
  endfacet
  facet normal -0 0 1
    outer loop
      vertex -0.520312 6.2664 10
      vertex 0 2.5 10
      vertex -0.418765 6.31563 10
    endloop
  endfacet
  facet normal -0 0 1
    outer loop
      vertex -0.662509 6.25 10
      vertex 0 2.5 10
      vertex -0.520312 6.2664 10
    endloop
  endfacet
  facet normal -0 0 1
    outer loop
      vertex -2.02483 6.25 10
      vertex 0 2.5 10
      vertex -0.662509 6.25 10
    endloop
  endfacet
  facet normal 0 0 1
    outer loop
      vertex -2.17249 6.2664 10
      vertex 0 2.5 10
      vertex -2.02483 6.25 10
    endloop
  endfacet
  facet normal 0 0 1
    outer loop
      vertex -3.72475 6.25 10
      vertex -2.17249 6.2664 10
      vertex -2.27796 6.31563 10
    endloop
  endfacet
  facet normal 0 0 1
    outer loop
      vertex -3.72475 6.25 10
      vertex -2.27796 6.31563 10
      vertex -2.34124 6.39766 10
    endloop
  endfacet
  facet normal 0 0 1
    outer loop
      vertex -3.3541 10.9648 10
      vertex -2.59593 11.059 10
      vertex -2.91233 11.123 10
    endloop
  endfacet
  facet normal 0 0 1
    outer loop
      vertex -3.3541 10.9648 10
      vertex -2.91233 11.123 10
      vertex -3.06974 11.1054 10
    endloop
  endfacet
  facet normal 0 0 1
    outer loop
      vertex -3.3541 10.9648 10
      vertex -3.06974 11.1054 10
      vertex -3.217 11.0527 10
    endloop
  endfacet
  facet normal 0 0 1
    outer loop
      vertex -2.27797 6.7001 10
      vertex -3.72475 6.25 10
      vertex -2.34125 6.62195 10
    endloop
  endfacet
  facet normal 0 0 1
    outer loop
      vertex -2.59593 11.059 10
      vertex -3.3541 10.9648 10
      vertex -3.48104 10.8418 10
    endloop
  endfacet
  facet normal 0 0 1
    outer loop
      vertex -2.59593 11.059 10
      vertex -3.48104 10.8418 10
      vertex -3.58766 10.6962 10
    endloop
  endfacet
  facet normal 0 0 1
    outer loop
      vertex -3.66382 10.5404 10
      vertex -2.59593 11.059 10
      vertex -3.58766 10.6962 10
    endloop
  endfacet
  facet normal 0 0 1
    outer loop
      vertex -2.27175 10.8673 10
      vertex -3.66382 10.5404 10
      vertex -3.70952 10.3745 10
    endloop
  endfacet
  facet normal 0 0 1
    outer loop
      vertex -2.27175 10.8673 10
      vertex -3.70952 10.3745 10
      vertex -3.72475 10.1984 10
    endloop
  endfacet
  facet normal 0 0 1
    outer loop
      vertex -2.34125 6.62195 10
      vertex -3.72475 6.25 10
      vertex -2.36234 6.51253 10
    endloop
  endfacet
  facet normal 0 0 1
    outer loop
      vertex -2.36234 6.51253 10
      vertex -3.72475 6.25 10
      vertex -2.34124 6.39766 10
    endloop
  endfacet
  facet normal 0 0 1
    outer loop
      vertex -2.17249 6.2664 10
      vertex -3.72475 6.25 10
      vertex 0 2.5 10
    endloop
  endfacet
  facet normal 0 0 1
    outer loop
      vertex -8 2.5 10
      vertex -3.72475 6.25 10
      vertex -4.64968 6.25 10
    endloop
  endfacet
  facet normal 0 0 1
    outer loop
      vertex -8 2.5 10
      vertex -4.64968 6.25 10
      vertex -4.79734 6.2664 10
    endloop
  endfacet
  facet normal 0 0 1
    outer loop
      vertex -6.3496 6.25 10
      vertex -4.79734 6.2664 10
      vertex -4.9028 6.31563 10
    endloop
  endfacet
  facet normal 0 0 1
    outer loop
      vertex -5.96993 10.9718 10
      vertex -5.20905 11.059 10
      vertex -5.52466 11.123 10
    endloop
  endfacet
  facet normal 0 0 1
    outer loop
      vertex -5.96993 10.9718 10
      vertex -5.52466 11.123 10
      vertex -5.68247 11.1062 10
    endloop
  endfacet
  facet normal 0 0 1
    outer loop
      vertex -5.96993 10.9718 10
      vertex -5.68247 11.1062 10
      vertex -5.83089 11.0558 10
    endloop
  endfacet
  facet normal 0 0 1
    outer loop
      vertex -4.9028 6.7001 10
      vertex -6.3496 6.25 10
      vertex -4.96608 6.62195 10
    endloop
  endfacet
  facet normal 0 0 1
    outer loop
      vertex -5.20905 11.059 10
      vertex -5.96993 10.9718 10
      vertex -6.09958 10.8543 10
    endloop
  endfacet
  facet normal 0 0 1
    outer loop
      vertex -6.20897 10.7149 10
      vertex -5.20905 11.059 10
      vertex -6.09958 10.8543 10
    endloop
  endfacet
  facet normal 0 0 1
    outer loop
      vertex -5.20905 11.059 10
      vertex -6.20897 10.7149 10
      vertex -6.3496 10.2358 10
    endloop
  endfacet
  facet normal 0 0 1
    outer loop
      vertex -6.3496 10.2358 10
      vertex -6.20897 10.7149 10
      vertex -6.2871 10.5654 10
    endloop
  endfacet
  facet normal 0 0 1
    outer loop
      vertex -6.3496 10.2358 10
      vertex -6.2871 10.5654 10
      vertex -6.33397 10.4057 10
    endloop
  endfacet
  facet normal 0 0 1
    outer loop
      vertex -4.96608 6.62195 10
      vertex -6.3496 6.25 10
      vertex -4.98719 6.51253 10
    endloop
  endfacet
  facet normal 0 0 1
    outer loop
      vertex -4.98719 6.51253 10
      vertex -6.3496 6.25 10
      vertex -4.96608 6.39766 10
    endloop
  endfacet
  facet normal 0 0 1
    outer loop
      vertex -6.3496 6.25 10
      vertex -4.9028 6.31563 10
      vertex -4.96608 6.39766 10
    endloop
  endfacet
  facet normal 0 0 1
    outer loop
      vertex -4.79734 6.2664 10
      vertex -6.3496 6.25 10
      vertex -8 2.5 10
    endloop
  endfacet
  facet normal 0 0 1
    outer loop
      vertex -8 2.5 10
      vertex -6.3496 6.25 10
      vertex -7.27454 6.25 10
    endloop
  endfacet
  facet normal 0 0 1
    outer loop
      vertex -8 2.5 10
      vertex -7.27454 6.25 10
      vertex -7.42218 6.2664 10
    endloop
  endfacet
  facet normal 0 0 1
    outer loop
      vertex -8 2.5 10
      vertex -7.42218 6.2664 10
      vertex -7.52765 6.31563 10
    endloop
  endfacet
  facet normal 0 0 1
    outer loop
      vertex -3.72475 6.25 10
      vertex -8 2.5 10
      vertex 0 2.5 10
    endloop
  endfacet
  facet normal 0 0 1
    outer loop
      vertex -7.59095 6.39766 10
      vertex -8 2.5 10
      vertex -7.52765 6.31563 10
    endloop
  endfacet
  facet normal 0 0 1
    outer loop
      vertex -7.61203 6.51253 10
      vertex -8 2.5 10
      vertex -7.59095 6.39766 10
    endloop
  endfacet
  facet normal 0 0 1
    outer loop
      vertex -8 2.5 10
      vertex -7.61203 6.51253 10
      vertex -8 14.5 10
    endloop
  endfacet
  facet normal -1 0 0
    outer loop
      vertex -8 0 3
      vertex -8 17 3
      vertex -8 17 0
    endloop
  endfacet
  facet normal -1 0 0
    outer loop
      vertex -8 17 3
      vertex -8 0 3
      vertex -8 14.5 10
    endloop
  endfacet
  facet normal -1 0 0
    outer loop
      vertex -8 0 3
      vertex -8 17 0
      vertex -8 0 0
    endloop
  endfacet
  facet normal -1 -0 0
    outer loop
      vertex -8 14.5 10
      vertex -8 0 3
      vertex -8 2.5 10
    endloop
  endfacet
  facet normal 0 1 -0
    outer loop
      vertex 0 17 0
      vertex -8 17 3
      vertex 0 17 3
    endloop
  endfacet
  facet normal 0 1 0
    outer loop
      vertex -8 17 3
      vertex 0 17 0
      vertex -8 17 0
    endloop
  endfacet
  facet normal 0 0 -1
    outer loop
      vertex -8 0 0
      vertex 0 17 0
      vertex 0 0 0
    endloop
  endfacet
  facet normal -0 0 -1
    outer loop
      vertex 0 17 0
      vertex -8 0 0
      vertex -8 17 0
    endloop
  endfacet
  facet normal 1 0 0
    outer loop
      vertex 0 0 3
      vertex 0 17 3
      vertex 0 14.5 10
    endloop
  endfacet
  facet normal 1 0 0
    outer loop
      vertex 0 0 3
      vertex 0 14.5 10
      vertex 0 2.5 10
    endloop
  endfacet
  facet normal 1 0 0
    outer loop
      vertex 0 17 3
      vertex 0 0 3
      vertex 0 17 0
    endloop
  endfacet
  facet normal 1 0 0
    outer loop
      vertex 0 17 0
      vertex 0 0 3
      vertex 0 0 0
    endloop
  endfacet
  facet normal 0 -0.941742 0.336336
    outer loop
      vertex -8 0 3
      vertex 0 2.5 10
      vertex -8 2.5 10
    endloop
  endfacet
  facet normal 0 -0.941742 0.336336
    outer loop
      vertex 0 2.5 10
      vertex -8 0 3
      vertex 0 0 3
    endloop
  endfacet
  facet normal 0 -1 0
    outer loop
      vertex -8 0 0
      vertex 0 0 3
      vertex -8 0 3
    endloop
  endfacet
  facet normal 0 -1 -0
    outer loop
      vertex 0 0 3
      vertex -8 0 0
      vertex 0 0 0
    endloop
  endfacet
  facet normal 0 0.941742 0.336336
    outer loop
      vertex 0 17 3
      vertex -8 14.5 10
      vertex 0 14.5 10
    endloop
  endfacet
  facet normal 0 0.941742 0.336336
    outer loop
      vertex -8 14.5 10
      vertex 0 17 3
      vertex -8 17 3
    endloop
  endfacet
  facet normal 0 0 1
    outer loop
      vertex -0.421893 11.3999 11.99
      vertex -0.337512 11.2111 11.99
      vertex -0.3586 11.3212 11.99
    endloop
  endfacet
  facet normal 0 -0 1
    outer loop
      vertex -0.527301 10.9665 11.99
      vertex -0.337512 11.2111 11.99
      vertex -0.527362 11.4471 11.99
    endloop
  endfacet
  facet normal 0 0 1
    outer loop
      vertex -0.337512 11.2111 11.99
      vertex -0.421893 11.3999 11.99
      vertex -0.527362 11.4471 11.99
    endloop
  endfacet
  facet normal 0 0 1
    outer loop
      vertex -0.337512 11.2111 11.99
      vertex -0.527301 10.9665 11.99
      vertex -0.3586 11.0969 11.99
    endloop
  endfacet
  facet normal 0 0 1
    outer loop
      vertex -0.3586 11.0969 11.99
      vertex -0.527301 10.9665 11.99
      vertex -0.421863 11.0154 11.99
    endloop
  endfacet
  facet normal 0 0 1
    outer loop
      vertex -0.527362 11.4471 11.99
      vertex -0.67493 10.9501 11.99
      vertex -0.527301 10.9665 11.99
    endloop
  endfacet
  facet normal 0 0 1
    outer loop
      vertex -0.675006 11.4628 11.99
      vertex -0.67493 10.9501 11.99
      vertex -0.527362 11.4471 11.99
    endloop
  endfacet
  facet normal 0 0 1
    outer loop
      vertex -0.675006 11.4628 11.99
      vertex -1.0999 10.9501 11.99
      vertex -0.67493 10.9501 11.99
    endloop
  endfacet
  facet normal 0 0 1
    outer loop
      vertex -1.59995 10.8126 11.99
      vertex -1.0999 10.9501 11.99
      vertex -1.59995 11.4628 11.99
    endloop
  endfacet
  facet normal -0 0 1
    outer loop
      vertex -1.59995 11.4628 11.99
      vertex -1.0999 10.9501 11.99
      vertex -0.675006 11.4628 11.99
    endloop
  endfacet
  facet normal 0 0 1
    outer loop
      vertex -0.421863 6.7001 11.99
      vertex -0.337512 6.51253 11.99
      vertex -0.3586 6.62195 11.99
    endloop
  endfacet
  facet normal 0 -0 1
    outer loop
      vertex -0.520312 6.2664 11.99
      vertex -0.337512 6.51253 11.99
      vertex -0.527301 6.74699 11.99
    endloop
  endfacet
  facet normal 0 0 1
    outer loop
      vertex -0.337512 6.51253 11.99
      vertex -0.421863 6.7001 11.99
      vertex -0.527301 6.74699 11.99
    endloop
  endfacet
  facet normal 0 0 1
    outer loop
      vertex -0.337512 6.51253 11.99
      vertex -0.520312 6.2664 11.99
      vertex -0.357821 6.39766 11.99
    endloop
  endfacet
  facet normal 0 0 1
    outer loop
      vertex -0.357821 6.39766 11.99
      vertex -0.520312 6.2664 11.99
      vertex -0.418765 6.31563 11.99
    endloop
  endfacet
  facet normal 0 0 1
    outer loop
      vertex -0.527301 6.74699 11.99
      vertex -0.662509 6.25 11.99
      vertex -0.520312 6.2664 11.99
    endloop
  endfacet
  facet normal 0 0 1
    outer loop
      vertex -0.67493 6.76263 11.99
      vertex -0.662509 6.25 11.99
      vertex -0.527301 6.74699 11.99
    endloop
  endfacet
  facet normal -0 0 1
    outer loop
      vertex -1.0999 6.76263 11.99
      vertex -0.662509 6.25 11.99
      vertex -0.67493 6.76263 11.99
    endloop
  endfacet
  facet normal 0 0 1
    outer loop
      vertex -1.59995 10.1002 11.99
      vertex -1.0999 10.9501 11.99
      vertex -1.59995 10.8126 11.99
    endloop
  endfacet
  facet normal 0 0 1
    outer loop
      vertex -1.0999 10.9501 11.99
      vertex -1.59995 10.1002 11.99
      vertex -1.0999 6.76263 11.99
    endloop
  endfacet
  facet normal 0 0 1
    outer loop
      vertex -1.59995 6.76263 11.99
      vertex -1.0999 6.76263 11.99
      vertex -1.59995 10.1002 11.99
    endloop
  endfacet
  facet normal 0 0 1
    outer loop
      vertex -2.02483 6.25 11.99
      vertex -1.0999 6.76263 11.99
      vertex -1.59995 6.76263 11.99
    endloop
  endfacet
  facet normal 0 0 1
    outer loop
      vertex -1.0999 6.76263 11.99
      vertex -2.02483 6.25 11.99
      vertex -0.662509 6.25 11.99
    endloop
  endfacet
  facet normal -0 0 1
    outer loop
      vertex -2.02492 6.76263 11.99
      vertex -2.02483 6.25 11.99
      vertex -1.59995 6.76263 11.99
    endloop
  endfacet
  facet normal 0 0 1
    outer loop
      vertex -2.02492 6.76263 11.99
      vertex -2.17249 6.2664 11.99
      vertex -2.02483 6.25 11.99
    endloop
  endfacet
  facet normal -0 0 1
    outer loop
      vertex -2.17253 6.74699 11.99
      vertex -2.17249 6.2664 11.99
      vertex -2.02492 6.76263 11.99
    endloop
  endfacet
  facet normal -0 0 1
    outer loop
      vertex -2.36234 6.51253 11.99
      vertex -2.17249 6.2664 11.99
      vertex -2.17253 6.74699 11.99
    endloop
  endfacet
  facet normal 0 0 1
    outer loop
      vertex -2.36234 6.51253 11.99
      vertex -2.17253 6.74699 11.99
      vertex -2.27797 6.7001 11.99
    endloop
  endfacet
  facet normal 0 0 1
    outer loop
      vertex -2.17249 6.2664 11.99
      vertex -2.36234 6.51253 11.99
      vertex -2.27796 6.31563 11.99
    endloop
  endfacet
  facet normal 0 0 1
    outer loop
      vertex -2.36234 6.51253 11.99
      vertex -2.27797 6.7001 11.99
      vertex -2.34125 6.62195 11.99
    endloop
  endfacet
  facet normal 0 0 1
    outer loop
      vertex -2.27796 6.31563 11.99
      vertex -2.36234 6.51253 11.99
      vertex -2.34124 6.39766 11.99
    endloop
  endfacet
  facet normal 0 0 1
    outer loop
      vertex -4.55907 10.5477 11.99
      vertex -4.12471 10.7502 11.99
      vertex -4.47081 11.1375 11.99
    endloop
  endfacet
  facet normal 0 0 1
    outer loop
      vertex -4.12471 10.7502 11.99
      vertex -4.55907 10.5477 11.99
      vertex -4.2247 10.1002 11.99
    endloop
  endfacet
  facet normal 0 0 1
    outer loop
      vertex -4.88719 10.8673 11.99
      vertex -4.47081 11.1375 11.99
      vertex -4.82158 11.4142 11.99
    endloop
  endfacet
  facet normal 0 0 1
    outer loop
      vertex -4.47081 11.1375 11.99
      vertex -4.88719 10.8673 11.99
      vertex -4.55907 10.5477 11.99
    endloop
  endfacet
  facet normal 0 0 1
    outer loop
      vertex -5.20905 11.059 11.99
      vertex -4.82158 11.4142 11.99
      vertex -5.17704 11.5803 11.99
    endloop
  endfacet
  facet normal 0 0 1
    outer loop
      vertex -4.82158 11.4142 11.99
      vertex -5.20905 11.059 11.99
      vertex -4.88719 10.8673 11.99
    endloop
  endfacet
  facet normal 0 0 1
    outer loop
      vertex -5.17704 11.5803 11.99
      vertex -5.52466 11.123 11.99
      vertex -5.20905 11.059 11.99
    endloop
  endfacet
  facet normal 0 0 1
    outer loop
      vertex -5.53717 11.6356 11.99
      vertex -5.52466 11.123 11.99
      vertex -5.17704 11.5803 11.99
    endloop
  endfacet
  facet normal 0 0 1
    outer loop
      vertex -5.53717 11.6356 11.99
      vertex -5.68247 11.1062 11.99
      vertex -5.52466 11.123 11.99
    endloop
  endfacet
  facet normal -0 0 1
    outer loop
      vertex -5.79654 11.6106 11.99
      vertex -5.68247 11.1062 11.99
      vertex -5.53717 11.6356 11.99
    endloop
  endfacet
  facet normal 0 0 1
    outer loop
      vertex -5.79654 11.6106 11.99
      vertex -5.83089 11.0558 11.99
      vertex -5.68247 11.1062 11.99
    endloop
  endfacet
  facet normal -0 0 1
    outer loop
      vertex -6.03714 11.5356 11.99
      vertex -5.83089 11.0558 11.99
      vertex -5.79654 11.6106 11.99
    endloop
  endfacet
  facet normal -0 0 1
    outer loop
      vertex -6.25901 11.4107 11.99
      vertex -5.83089 11.0558 11.99
      vertex -6.03714 11.5356 11.99
    endloop
  endfacet
  facet normal 0 0 1
    outer loop
      vertex -5.83089 11.0558 11.99
      vertex -6.25901 11.4107 11.99
      vertex -5.96993 10.9718 11.99
    endloop
  endfacet
  facet normal -0 0 1
    outer loop
      vertex -6.4621 11.2357 11.99
      vertex -5.96993 10.9718 11.99
      vertex -6.25901 11.4107 11.99
    endloop
  endfacet
  facet normal 0 0 1
    outer loop
      vertex -5.96993 10.9718 11.99
      vertex -6.4621 11.2357 11.99
      vertex -6.09958 10.8543 11.99
    endloop
  endfacet
  facet normal -0 0 1
    outer loop
      vertex -6.63161 11.0265 11.99
      vertex -6.09958 10.8543 11.99
      vertex -6.4621 11.2357 11.99
    endloop
  endfacet
  facet normal 0 0 1
    outer loop
      vertex -6.09958 10.8543 11.99
      vertex -6.63161 11.0265 11.99
      vertex -6.20897 10.7149 11.99
    endloop
  endfacet
  facet normal -0 0 1
    outer loop
      vertex -6.75269 10.7984 11.99
      vertex -6.20897 10.7149 11.99
      vertex -6.63161 11.0265 11.99
    endloop
  endfacet
  facet normal 0 0 1
    outer loop
      vertex -6.20897 10.7149 11.99
      vertex -6.75269 10.7984 11.99
      vertex -6.2871 10.5654 11.99
    endloop
  endfacet
  facet normal 0 0 1
    outer loop
      vertex -6.82534 10.5517 11.99
      vertex -6.2871 10.5654 11.99
      vertex -6.75269 10.7984 11.99
    endloop
  endfacet
  facet normal 0 0 1
    outer loop
      vertex -6.2871 10.5654 11.99
      vertex -6.82534 10.5517 11.99
      vertex -6.33397 10.4057 11.99
    endloop
  endfacet
  facet normal 0 0 1
    outer loop
      vertex -6.84955 10.2861 11.99
      vertex -6.33397 10.4057 11.99
      vertex -6.82534 10.5517 11.99
    endloop
  endfacet
  facet normal 0 0 1
    outer loop
      vertex -6.33397 10.4057 11.99
      vertex -6.84955 10.2861 11.99
      vertex -6.3496 10.2358 11.99
    endloop
  endfacet
  facet normal 0 0 1
    outer loop
      vertex -6.84955 6.76263 11.99
      vertex -6.3496 10.2358 11.99
      vertex -6.84955 10.2861 11.99
    endloop
  endfacet
  facet normal 0 0 1
    outer loop
      vertex -6.3496 10.2358 11.99
      vertex -6.84955 6.76263 11.99
      vertex -6.3496 6.25 11.99
    endloop
  endfacet
  facet normal 0 0 1
    outer loop
      vertex -7.27454 6.25 11.99
      vertex -6.84955 6.76263 11.99
      vertex -7.27454 6.76263 11.99
    endloop
  endfacet
  facet normal 0 0 1
    outer loop
      vertex -6.84955 6.76263 11.99
      vertex -7.27454 6.25 11.99
      vertex -6.3496 6.25 11.99
    endloop
  endfacet
  facet normal -0 0 1
    outer loop
      vertex -7.42218 6.74699 11.99
      vertex -7.27454 6.25 11.99
      vertex -7.27454 6.76263 11.99
    endloop
  endfacet
  facet normal 0 0 1
    outer loop
      vertex -7.42218 6.74699 11.99
      vertex -7.42218 6.2664 11.99
      vertex -7.27454 6.25 11.99
    endloop
  endfacet
  facet normal 0 0 1
    outer loop
      vertex -7.61203 6.51253 11.99
      vertex -7.42218 6.74699 11.99
      vertex -7.52765 6.7001 11.99
    endloop
  endfacet
  facet normal 0 0 1
    outer loop
      vertex -7.42218 6.74699 11.99
      vertex -7.61203 6.51253 11.99
      vertex -7.42218 6.2664 11.99
    endloop
  endfacet
  facet normal 0 0 1
    outer loop
      vertex -7.61203 6.51253 11.99
      vertex -7.52765 6.7001 11.99
      vertex -7.59095 6.62195 11.99
    endloop
  endfacet
  facet normal 0 0 1
    outer loop
      vertex -7.42218 6.2664 11.99
      vertex -7.61203 6.51253 11.99
      vertex -7.52765 6.31563 11.99
    endloop
  endfacet
  facet normal 0 0 1
    outer loop
      vertex -7.52765 6.31563 11.99
      vertex -7.61203 6.51253 11.99
      vertex -7.59095 6.39766 11.99
    endloop
  endfacet
  facet normal 0 0 1
    outer loop
      vertex -1.93975 10.5477 11.99
      vertex -1.59995 10.8126 11.99
      vertex -1.7554 11.0207 11.99
    endloop
  endfacet
  facet normal 0 0 1
    outer loop
      vertex -2.27175 10.8673 11.99
      vertex -1.7554 11.0207 11.99
      vertex -1.90929 11.1961 11.99
    endloop
  endfacet
  facet normal 0 0 1
    outer loop
      vertex -1.59995 10.8126 11.99
      vertex -1.93975 10.5477 11.99
      vertex -1.59995 10.1002 11.99
    endloop
  endfacet
  facet normal 0 0 1
    outer loop
      vertex -2.27175 10.8673 11.99
      vertex -1.90929 11.1961 11.99
      vertex -2.06162 11.3387 11.99
    endloop
  endfacet
  facet normal 0 0 1
    outer loop
      vertex -2.27175 10.8673 11.99
      vertex -2.06162 11.3387 11.99
      vertex -2.21239 11.4486 11.99
    endloop
  endfacet
  facet normal 0 0 1
    outer loop
      vertex -1.7554 11.0207 11.99
      vertex -2.27175 10.8673 11.99
      vertex -1.93975 10.5477 11.99
    endloop
  endfacet
  facet normal 0 0 1
    outer loop
      vertex -2.59593 11.059 11.99
      vertex -2.21239 11.4486 11.99
      vertex -2.36862 11.5304 11.99
    endloop
  endfacet
  facet normal 0 0 1
    outer loop
      vertex -2.59593 11.059 11.99
      vertex -2.36862 11.5304 11.99
      vertex -2.53736 11.5888 11.99
    endloop
  endfacet
  facet normal 0 0 1
    outer loop
      vertex -2.21239 11.4486 11.99
      vertex -2.59593 11.059 11.99
      vertex -2.27175 10.8673 11.99
    endloop
  endfacet
  facet normal 0 0 1
    outer loop
      vertex -2.71859 11.6239 11.99
      vertex -2.59593 11.059 11.99
      vertex -2.53736 11.5888 11.99
    endloop
  endfacet
  facet normal 0 0 1
    outer loop
      vertex -2.91233 11.123 11.99
      vertex -2.71859 11.6239 11.99
      vertex -2.91233 11.6356 11.99
    endloop
  endfacet
  facet normal 0 0 1
    outer loop
      vertex -2.71859 11.6239 11.99
      vertex -2.91233 11.123 11.99
      vertex -2.59593 11.059 11.99
    endloop
  endfacet
  facet normal 0 0 1
    outer loop
      vertex -2.91233 11.6356 11.99
      vertex -3.06974 11.1054 11.99
      vertex -2.91233 11.123 11.99
    endloop
  endfacet
  facet normal -0 0 1
    outer loop
      vertex -3.28807 11.5803 11.99
      vertex -3.06974 11.1054 11.99
      vertex -2.91233 11.6356 11.99
    endloop
  endfacet
  facet normal 0 0 1
    outer loop
      vertex -3.06974 11.1054 11.99
      vertex -3.28807 11.5803 11.99
      vertex -3.217 11.0527 11.99
    endloop
  endfacet
  facet normal -0 0 1
    outer loop
      vertex -3.61537 11.4142 11.99
      vertex -3.217 11.0527 11.99
      vertex -3.28807 11.5803 11.99
    endloop
  endfacet
  facet normal 0 0 1
    outer loop
      vertex -3.217 11.0527 11.99
      vertex -3.61537 11.4142 11.99
      vertex -3.3541 10.9648 11.99
    endloop
  endfacet
  facet normal -0 0 1
    outer loop
      vertex -3.89426 11.1375 11.99
      vertex -3.3541 10.9648 11.99
      vertex -3.61537 11.4142 11.99
    endloop
  endfacet
  facet normal 0 0 1
    outer loop
      vertex -3.3541 10.9648 11.99
      vertex -3.89426 11.1375 11.99
      vertex -3.48104 10.8418 11.99
    endloop
  endfacet
  facet normal 0 0 1
    outer loop
      vertex -3.48104 10.8418 11.99
      vertex -3.89426 11.1375 11.99
      vertex -3.58766 10.6962 11.99
    endloop
  endfacet
  facet normal -0 0 1
    outer loop
      vertex -4.12471 10.7502 11.99
      vertex -3.58766 10.6962 11.99
      vertex -3.89426 11.1375 11.99
    endloop
  endfacet
  facet normal 0 0 1
    outer loop
      vertex -3.58766 10.6962 11.99
      vertex -4.12471 10.7502 11.99
      vertex -3.66382 10.5404 11.99
    endloop
  endfacet
  facet normal 0 0 1
    outer loop
      vertex -3.66382 10.5404 11.99
      vertex -4.12471 10.7502 11.99
      vertex -3.70952 10.3745 11.99
    endloop
  endfacet
  facet normal 0 0 1
    outer loop
      vertex -4.2247 10.1002 11.99
      vertex -3.70952 10.3745 11.99
      vertex -4.12471 10.7502 11.99
    endloop
  endfacet
  facet normal 0 0 1
    outer loop
      vertex -3.70952 10.3745 11.99
      vertex -4.2247 10.1002 11.99
      vertex -3.72475 10.1984 11.99
    endloop
  endfacet
  facet normal 0 0 1
    outer loop
      vertex -4.2247 6.76263 11.99
      vertex -3.72475 10.1984 11.99
      vertex -4.2247 10.1002 11.99
    endloop
  endfacet
  facet normal 0 0 1
    outer loop
      vertex -3.72475 10.1984 11.99
      vertex -4.2247 6.76263 11.99
      vertex -3.72475 6.25 11.99
    endloop
  endfacet
  facet normal 0 0 1
    outer loop
      vertex -4.64968 6.25 11.99
      vertex -4.2247 6.76263 11.99
      vertex -4.64968 6.76263 11.99
    endloop
  endfacet
  facet normal 0 0 1
    outer loop
      vertex -4.2247 6.76263 11.99
      vertex -4.64968 6.25 11.99
      vertex -3.72475 6.25 11.99
    endloop
  endfacet
  facet normal -0 0 1
    outer loop
      vertex -4.79734 6.74699 11.99
      vertex -4.64968 6.25 11.99
      vertex -4.64968 6.76263 11.99
    endloop
  endfacet
  facet normal 0 0 1
    outer loop
      vertex -4.79734 6.74699 11.99
      vertex -4.79734 6.2664 11.99
      vertex -4.64968 6.25 11.99
    endloop
  endfacet
  facet normal 0 0 1
    outer loop
      vertex -4.98719 6.51253 11.99
      vertex -4.79734 6.74699 11.99
      vertex -4.9028 6.7001 11.99
    endloop
  endfacet
  facet normal 0 0 1
    outer loop
      vertex -4.79734 6.74699 11.99
      vertex -4.98719 6.51253 11.99
      vertex -4.79734 6.2664 11.99
    endloop
  endfacet
  facet normal 0 0 1
    outer loop
      vertex -4.98719 6.51253 11.99
      vertex -4.9028 6.7001 11.99
      vertex -4.96608 6.62195 11.99
    endloop
  endfacet
  facet normal 0 0 1
    outer loop
      vertex -4.79734 6.2664 11.99
      vertex -4.98719 6.51253 11.99
      vertex -4.9028 6.31563 11.99
    endloop
  endfacet
  facet normal 0 0 1
    outer loop
      vertex -4.9028 6.31563 11.99
      vertex -4.98719 6.51253 11.99
      vertex -4.96608 6.39766 11.99
    endloop
  endfacet
  facet normal -0.422961 -0.906148 0
    outer loop
      vertex -2.27796 6.31563 10
      vertex -2.17249 6.2664 11.99
      vertex -2.27796 6.31563 11.99
    endloop
  endfacet
  facet normal -0.422961 -0.906148 -0
    outer loop
      vertex -2.17249 6.2664 11.99
      vertex -2.27796 6.31563 10
      vertex -2.17249 6.2664 10
    endloop
  endfacet
  facet normal -0.791784 -0.610802 0
    outer loop
      vertex -2.27796 6.31563 10
      vertex -2.34124 6.39766 11.99
      vertex -2.34124 6.39766 10
    endloop
  endfacet
  facet normal -0.791784 -0.610802 0
    outer loop
      vertex -2.34124 6.39766 11.99
      vertex -2.27796 6.31563 10
      vertex -2.27796 6.31563 11.99
    endloop
  endfacet
  facet normal -0.983545 -0.180663 0
    outer loop
      vertex -2.34124 6.39766 10
      vertex -2.36234 6.51253 11.99
      vertex -2.36234 6.51253 10
    endloop
  endfacet
  facet normal -0.983545 -0.180663 0
    outer loop
      vertex -2.36234 6.51253 11.99
      vertex -2.34124 6.39766 10
      vertex -2.34124 6.39766 11.99
    endloop
  endfacet
  facet normal -0.981927 0.18926 0
    outer loop
      vertex -2.36234 6.51253 10
      vertex -2.34125 6.62195 11.99
      vertex -2.34125 6.62195 10
    endloop
  endfacet
  facet normal -0.981927 0.18926 0
    outer loop
      vertex -2.34125 6.62195 11.99
      vertex -2.36234 6.51253 10
      vertex -2.36234 6.51253 11.99
    endloop
  endfacet
  facet normal -0.777168 0.629293 0
    outer loop
      vertex -2.34125 6.62195 10
      vertex -2.27797 6.7001 11.99
      vertex -2.27797 6.7001 10
    endloop
  endfacet
  facet normal -0.777168 0.629293 0
    outer loop
      vertex -2.27797 6.7001 11.99
      vertex -2.34125 6.62195 10
      vertex -2.34125 6.62195 11.99
    endloop
  endfacet
  facet normal -0.406339 0.913722 0
    outer loop
      vertex -2.17253 6.74699 10
      vertex -2.27797 6.7001 11.99
      vertex -2.17253 6.74699 11.99
    endloop
  endfacet
  facet normal -0.406339 0.913722 0
    outer loop
      vertex -2.27797 6.7001 11.99
      vertex -2.17253 6.74699 10
      vertex -2.27797 6.7001 10
    endloop
  endfacet
  facet normal -0.105365 0.994434 0
    outer loop
      vertex -2.02492 6.76263 10
      vertex -2.17253 6.74699 11.99
      vertex -2.02492 6.76263 11.99
    endloop
  endfacet
  facet normal -0.105365 0.994434 0
    outer loop
      vertex -2.17253 6.74699 11.99
      vertex -2.02492 6.76263 10
      vertex -2.17253 6.74699 10
    endloop
  endfacet
  facet normal 0 1 -0
    outer loop
      vertex -1.59995 6.76263 10
      vertex -2.02492 6.76263 11.99
      vertex -1.59995 6.76263 11.99
    endloop
  endfacet
  facet normal 0 1 0
    outer loop
      vertex -2.02492 6.76263 11.99
      vertex -1.59995 6.76263 10
      vertex -2.02492 6.76263 10
    endloop
  endfacet
  facet normal -1 0 0
    outer loop
      vertex -1.59995 6.76263 10
      vertex -1.59995 10.1002 11.99
      vertex -1.59995 10.1002 10
    endloop
  endfacet
  facet normal -1 -0 0
    outer loop
      vertex -1.59995 10.1002 11.99
      vertex -1.59995 6.76263 10
      vertex -1.59995 6.76263 11.99
    endloop
  endfacet
  facet normal -0.796419 -0.604745 0
    outer loop
      vertex -1.59995 10.1002 10
      vertex -1.93975 10.5477 11.99
      vertex -1.93975 10.5477 10
    endloop
  endfacet
  facet normal -0.796419 -0.604745 0
    outer loop
      vertex -1.93975 10.5477 11.99
      vertex -1.59995 10.1002 10
      vertex -1.59995 10.1002 11.99
    endloop
  endfacet
  facet normal -0.693525 -0.720433 0
    outer loop
      vertex -2.27175 10.8673 10
      vertex -1.93975 10.5477 11.99
      vertex -2.27175 10.8673 11.99
    endloop
  endfacet
  facet normal -0.693525 -0.720433 -0
    outer loop
      vertex -1.93975 10.5477 11.99
      vertex -2.27175 10.8673 10
      vertex -1.93975 10.5477 10
    endloop
  endfacet
  facet normal -0.509003 -0.860765 0
    outer loop
      vertex -2.59593 11.059 10
      vertex -2.27175 10.8673 11.99
      vertex -2.59593 11.059 11.99
    endloop
  endfacet
  facet normal -0.509003 -0.860765 -0
    outer loop
      vertex -2.27175 10.8673 11.99
      vertex -2.59593 11.059 10
      vertex -2.27175 10.8673 10
    endloop
  endfacet
  facet normal -0.19826 -0.980149 0
    outer loop
      vertex -2.91233 11.123 10
      vertex -2.59593 11.059 11.99
      vertex -2.91233 11.123 11.99
    endloop
  endfacet
  facet normal -0.19826 -0.980149 -0
    outer loop
      vertex -2.59593 11.059 11.99
      vertex -2.91233 11.123 10
      vertex -2.59593 11.059 10
    endloop
  endfacet
  facet normal 0.111118 -0.993807 0
    outer loop
      vertex -3.06974 11.1054 10
      vertex -2.91233 11.123 11.99
      vertex -3.06974 11.1054 11.99
    endloop
  endfacet
  facet normal 0.111118 -0.993807 0
    outer loop
      vertex -2.91233 11.123 11.99
      vertex -3.06974 11.1054 10
      vertex -2.91233 11.123 10
    endloop
  endfacet
  facet normal 0.336944 -0.941525 0
    outer loop
      vertex -3.217 11.0527 10
      vertex -3.06974 11.1054 11.99
      vertex -3.217 11.0527 11.99
    endloop
  endfacet
  facet normal 0.336944 -0.941525 0
    outer loop
      vertex -3.06974 11.1054 11.99
      vertex -3.217 11.0527 10
      vertex -3.06974 11.1054 10
    endloop
  endfacet
  facet normal 0.539733 -0.841836 0
    outer loop
      vertex -3.3541 10.9648 10
      vertex -3.217 11.0527 11.99
      vertex -3.3541 10.9648 11.99
    endloop
  endfacet
  facet normal 0.539733 -0.841836 0
    outer loop
      vertex -3.217 11.0527 11.99
      vertex -3.3541 10.9648 10
      vertex -3.217 11.0527 10
    endloop
  endfacet
  facet normal 0.695874 -0.718164 0
    outer loop
      vertex -3.48104 10.8418 10
      vertex -3.3541 10.9648 11.99
      vertex -3.48104 10.8418 11.99
    endloop
  endfacet
  facet normal 0.695874 -0.718164 0
    outer loop
      vertex -3.3541 10.9648 11.99
      vertex -3.48104 10.8418 10
      vertex -3.3541 10.9648 10
    endloop
  endfacet
  facet normal 0.80681 -0.590811 0
    outer loop
      vertex -3.58766 10.6962 11.99
      vertex -3.48104 10.8418 10
      vertex -3.48104 10.8418 11.99
    endloop
  endfacet
  facet normal 0.80681 -0.590811 0
    outer loop
      vertex -3.48104 10.8418 10
      vertex -3.58766 10.6962 11.99
      vertex -3.58766 10.6962 10
    endloop
  endfacet
  facet normal 0.898405 -0.439169 0
    outer loop
      vertex -3.66382 10.5404 11.99
      vertex -3.58766 10.6962 10
      vertex -3.58766 10.6962 11.99
    endloop
  endfacet
  facet normal 0.898405 -0.439169 0
    outer loop
      vertex -3.58766 10.6962 10
      vertex -3.66382 10.5404 11.99
      vertex -3.66382 10.5404 10
    endloop
  endfacet
  facet normal 0.96409 -0.265575 0
    outer loop
      vertex -3.70952 10.3745 11.99
      vertex -3.66382 10.5404 10
      vertex -3.66382 10.5404 11.99
    endloop
  endfacet
  facet normal 0.96409 -0.265575 0
    outer loop
      vertex -3.66382 10.5404 10
      vertex -3.70952 10.3745 11.99
      vertex -3.70952 10.3745 10
    endloop
  endfacet
  facet normal 0.996281 -0.0861633 0
    outer loop
      vertex -3.72475 10.1984 11.99
      vertex -3.70952 10.3745 10
      vertex -3.70952 10.3745 11.99
    endloop
  endfacet
  facet normal 0.996281 -0.0861633 0
    outer loop
      vertex -3.70952 10.3745 10
      vertex -3.72475 10.1984 11.99
      vertex -3.72475 10.1984 10
    endloop
  endfacet
  facet normal 1 -0 0
    outer loop
      vertex -3.72475 6.25 11.99
      vertex -3.72475 10.1984 10
      vertex -3.72475 10.1984 11.99
    endloop
  endfacet
  facet normal 1 0 0
    outer loop
      vertex -3.72475 10.1984 10
      vertex -3.72475 6.25 11.99
      vertex -3.72475 6.25 10
    endloop
  endfacet
  facet normal 0 -1 0
    outer loop
      vertex -4.64968 6.25 10
      vertex -3.72475 6.25 11.99
      vertex -4.64968 6.25 11.99
    endloop
  endfacet
  facet normal 0 -1 -0
    outer loop
      vertex -3.72475 6.25 11.99
      vertex -4.64968 6.25 10
      vertex -3.72475 6.25 10
    endloop
  endfacet
  facet normal -0.110387 -0.993889 0
    outer loop
      vertex -4.79734 6.2664 10
      vertex -4.64968 6.25 11.99
      vertex -4.79734 6.2664 11.99
    endloop
  endfacet
  facet normal -0.110387 -0.993889 -0
    outer loop
      vertex -4.64968 6.25 11.99
      vertex -4.79734 6.2664 10
      vertex -4.64968 6.25 10
    endloop
  endfacet
  facet normal -0.422994 -0.906133 0
    outer loop
      vertex -4.9028 6.31563 10
      vertex -4.79734 6.2664 11.99
      vertex -4.9028 6.31563 11.99
    endloop
  endfacet
  facet normal -0.422994 -0.906133 -0
    outer loop
      vertex -4.79734 6.2664 11.99
      vertex -4.9028 6.31563 10
      vertex -4.79734 6.2664 10
    endloop
  endfacet
  facet normal -0.791784 -0.610802 0
    outer loop
      vertex -4.9028 6.31563 10
      vertex -4.96608 6.39766 11.99
      vertex -4.96608 6.39766 10
    endloop
  endfacet
  facet normal -0.791784 -0.610802 0
    outer loop
      vertex -4.96608 6.39766 11.99
      vertex -4.9028 6.31563 10
      vertex -4.9028 6.31563 11.99
    endloop
  endfacet
  facet normal -0.98353 -0.180746 0
    outer loop
      vertex -4.96608 6.39766 10
      vertex -4.98719 6.51253 11.99
      vertex -4.98719 6.51253 10
    endloop
  endfacet
  facet normal -0.98353 -0.180746 0
    outer loop
      vertex -4.98719 6.51253 11.99
      vertex -4.96608 6.39766 10
      vertex -4.96608 6.39766 11.99
    endloop
  endfacet
  facet normal -0.981894 0.189433 0
    outer loop
      vertex -4.98719 6.51253 10
      vertex -4.96608 6.62195 11.99
      vertex -4.96608 6.62195 10
    endloop
  endfacet
  facet normal -0.981894 0.189433 0
    outer loop
      vertex -4.96608 6.62195 11.99
      vertex -4.98719 6.51253 10
      vertex -4.98719 6.51253 11.99
    endloop
  endfacet
  facet normal -0.777168 0.629293 0
    outer loop
      vertex -4.96608 6.62195 10
      vertex -4.9028 6.7001 11.99
      vertex -4.9028 6.7001 10
    endloop
  endfacet
  facet normal -0.777168 0.629293 0
    outer loop
      vertex -4.9028 6.7001 11.99
      vertex -4.96608 6.62195 10
      vertex -4.96608 6.62195 11.99
    endloop
  endfacet
  facet normal -0.406275 0.913751 0
    outer loop
      vertex -4.79734 6.74699 10
      vertex -4.9028 6.7001 11.99
      vertex -4.79734 6.74699 11.99
    endloop
  endfacet
  facet normal -0.406275 0.913751 0
    outer loop
      vertex -4.9028 6.7001 11.99
      vertex -4.79734 6.74699 10
      vertex -4.9028 6.7001 10
    endloop
  endfacet
  facet normal -0.10533 0.994437 0
    outer loop
      vertex -4.64968 6.76263 10
      vertex -4.79734 6.74699 11.99
      vertex -4.64968 6.76263 11.99
    endloop
  endfacet
  facet normal -0.10533 0.994437 0
    outer loop
      vertex -4.79734 6.74699 11.99
      vertex -4.64968 6.76263 10
      vertex -4.79734 6.74699 10
    endloop
  endfacet
  facet normal 0 1 -0
    outer loop
      vertex -4.2247 6.76263 10
      vertex -4.64968 6.76263 11.99
      vertex -4.2247 6.76263 11.99
    endloop
  endfacet
  facet normal 0 1 0
    outer loop
      vertex -4.64968 6.76263 11.99
      vertex -4.2247 6.76263 10
      vertex -4.64968 6.76263 10
    endloop
  endfacet
  facet normal -1 0 0
    outer loop
      vertex -4.2247 6.76263 10
      vertex -4.2247 10.1002 11.99
      vertex -4.2247 10.1002 10
    endloop
  endfacet
  facet normal -1 -0 0
    outer loop
      vertex -4.2247 10.1002 11.99
      vertex -4.2247 6.76263 10
      vertex -4.2247 6.76263 11.99
    endloop
  endfacet
  facet normal -0.801077 -0.598561 0
    outer loop
      vertex -4.2247 10.1002 10
      vertex -4.55907 10.5477 11.99
      vertex -4.55907 10.5477 10
    endloop
  endfacet
  facet normal -0.801077 -0.598561 0
    outer loop
      vertex -4.55907 10.5477 11.99
      vertex -4.2247 10.1002 10
      vertex -4.2247 10.1002 11.99
    endloop
  endfacet
  facet normal -0.697745 -0.716346 0
    outer loop
      vertex -4.88719 10.8673 10
      vertex -4.55907 10.5477 11.99
      vertex -4.88719 10.8673 11.99
    endloop
  endfacet
  facet normal -0.697745 -0.716346 -0
    outer loop
      vertex -4.55907 10.5477 11.99
      vertex -4.88719 10.8673 10
      vertex -4.55907 10.5477 10
    endloop
  endfacet
  facet normal -0.511714 -0.859156 0
    outer loop
      vertex -5.20905 11.059 10
      vertex -4.88719 10.8673 11.99
      vertex -5.20905 11.059 11.99
    endloop
  endfacet
  facet normal -0.511714 -0.859156 -0
    outer loop
      vertex -4.88719 10.8673 11.99
      vertex -5.20905 11.059 10
      vertex -4.88719 10.8673 10
    endloop
  endfacet
  facet normal -0.198737 -0.980053 0
    outer loop
      vertex -5.52466 11.123 10
      vertex -5.20905 11.059 11.99
      vertex -5.52466 11.123 11.99
    endloop
  endfacet
  facet normal -0.198737 -0.980053 -0
    outer loop
      vertex -5.20905 11.059 11.99
      vertex -5.52466 11.123 10
      vertex -5.20905 11.059 10
    endloop
  endfacet
  facet normal 0.105859 -0.994381 0
    outer loop
      vertex -5.68247 11.1062 10
      vertex -5.52466 11.123 11.99
      vertex -5.68247 11.1062 11.99
    endloop
  endfacet
  facet normal 0.105859 -0.994381 0
    outer loop
      vertex -5.52466 11.123 11.99
      vertex -5.68247 11.1062 10
      vertex -5.52466 11.123 10
    endloop
  endfacet
  facet normal 0.321544 -0.946895 0
    outer loop
      vertex -5.83089 11.0558 10
      vertex -5.68247 11.1062 11.99
      vertex -5.83089 11.0558 11.99
    endloop
  endfacet
  facet normal 0.321544 -0.946895 0
    outer loop
      vertex -5.68247 11.1062 11.99
      vertex -5.83089 11.0558 10
      vertex -5.68247 11.1062 10
    endloop
  endfacet
  facet normal 0.517101 -0.855925 0
    outer loop
      vertex -5.96993 10.9718 10
      vertex -5.83089 11.0558 11.99
      vertex -5.96993 10.9718 11.99
    endloop
  endfacet
  facet normal 0.517101 -0.855925 0
    outer loop
      vertex -5.83089 11.0558 11.99
      vertex -5.96993 10.9718 10
      vertex -5.83089 11.0558 10
    endloop
  endfacet
  facet normal 0.671534 -0.740974 0
    outer loop
      vertex -6.09958 10.8543 10
      vertex -5.96993 10.9718 11.99
      vertex -6.09958 10.8543 11.99
    endloop
  endfacet
  facet normal 0.671534 -0.740974 0
    outer loop
      vertex -5.96993 10.9718 11.99
      vertex -6.09958 10.8543 10
      vertex -5.96993 10.9718 10
    endloop
  endfacet
  facet normal 0.786698 -0.617338 0
    outer loop
      vertex -6.20897 10.7149 11.99
      vertex -6.09958 10.8543 10
      vertex -6.09958 10.8543 11.99
    endloop
  endfacet
  facet normal 0.786698 -0.617338 0
    outer loop
      vertex -6.09958 10.8543 10
      vertex -6.20897 10.7149 11.99
      vertex -6.20897 10.7149 10
    endloop
  endfacet
  facet normal 0.886269 -0.463172 0
    outer loop
      vertex -6.2871 10.5654 11.99
      vertex -6.20897 10.7149 10
      vertex -6.20897 10.7149 11.99
    endloop
  endfacet
  facet normal 0.886269 -0.463172 0
    outer loop
      vertex -6.20897 10.7149 10
      vertex -6.2871 10.5654 11.99
      vertex -6.2871 10.5654 10
    endloop
  endfacet
  facet normal 0.959529 -0.28161 0
    outer loop
      vertex -6.33397 10.4057 11.99
      vertex -6.2871 10.5654 10
      vertex -6.2871 10.5654 11.99
    endloop
  endfacet
  facet normal 0.959529 -0.28161 0
    outer loop
      vertex -6.2871 10.5654 10
      vertex -6.33397 10.4057 11.99
      vertex -6.33397 10.4057 10
    endloop
  endfacet
  facet normal 0.995795 -0.0916085 0
    outer loop
      vertex -6.3496 10.2358 11.99
      vertex -6.33397 10.4057 10
      vertex -6.33397 10.4057 11.99
    endloop
  endfacet
  facet normal 0.995795 -0.0916085 0
    outer loop
      vertex -6.33397 10.4057 10
      vertex -6.3496 10.2358 11.99
      vertex -6.3496 10.2358 10
    endloop
  endfacet
  facet normal 1 -0 0
    outer loop
      vertex -6.3496 6.25 11.99
      vertex -6.3496 10.2358 10
      vertex -6.3496 10.2358 11.99
    endloop
  endfacet
  facet normal 1 0 0
    outer loop
      vertex -6.3496 10.2358 10
      vertex -6.3496 6.25 11.99
      vertex -6.3496 6.25 10
    endloop
  endfacet
  facet normal 0 -1 0
    outer loop
      vertex -7.27454 6.25 10
      vertex -6.3496 6.25 11.99
      vertex -7.27454 6.25 11.99
    endloop
  endfacet
  facet normal 0 -1 -0
    outer loop
      vertex -6.3496 6.25 11.99
      vertex -7.27454 6.25 10
      vertex -6.3496 6.25 10
    endloop
  endfacet
  facet normal -0.110402 -0.993887 0
    outer loop
      vertex -7.42218 6.2664 10
      vertex -7.27454 6.25 11.99
      vertex -7.42218 6.2664 11.99
    endloop
  endfacet
  facet normal -0.110402 -0.993887 -0
    outer loop
      vertex -7.27454 6.25 11.99
      vertex -7.42218 6.2664 10
      vertex -7.27454 6.25 10
    endloop
  endfacet
  facet normal -0.422961 -0.906148 0
    outer loop
      vertex -7.52765 6.31563 10
      vertex -7.42218 6.2664 11.99
      vertex -7.52765 6.31563 11.99
    endloop
  endfacet
  facet normal -0.422961 -0.906148 -0
    outer loop
      vertex -7.42218 6.2664 11.99
      vertex -7.52765 6.31563 10
      vertex -7.42218 6.2664 10
    endloop
  endfacet
  facet normal -0.79169 -0.610923 0
    outer loop
      vertex -7.52765 6.31563 10
      vertex -7.59095 6.39766 11.99
      vertex -7.59095 6.39766 10
    endloop
  endfacet
  facet normal -0.79169 -0.610923 0
    outer loop
      vertex -7.59095 6.39766 11.99
      vertex -7.52765 6.31563 10
      vertex -7.52765 6.31563 11.99
    endloop
  endfacet
  facet normal -0.983575 -0.180498 0
    outer loop
      vertex -7.59095 6.39766 10
      vertex -7.61203 6.51253 11.99
      vertex -7.61203 6.51253 10
    endloop
  endfacet
  facet normal -0.983575 -0.180498 0
    outer loop
      vertex -7.61203 6.51253 11.99
      vertex -7.59095 6.39766 10
      vertex -7.59095 6.39766 11.99
    endloop
  endfacet
  facet normal -0.981944 0.189174 0
    outer loop
      vertex -7.61203 6.51253 10
      vertex -7.59095 6.62195 11.99
      vertex -7.59095 6.62195 10
    endloop
  endfacet
  facet normal -0.981944 0.189174 0
    outer loop
      vertex -7.59095 6.62195 11.99
      vertex -7.61203 6.51253 10
      vertex -7.61203 6.51253 11.99
    endloop
  endfacet
  facet normal -0.777071 0.629413 0
    outer loop
      vertex -7.59095 6.62195 10
      vertex -7.52765 6.7001 11.99
      vertex -7.52765 6.7001 10
    endloop
  endfacet
  facet normal -0.777071 0.629413 0
    outer loop
      vertex -7.52765 6.7001 11.99
      vertex -7.59095 6.62195 10
      vertex -7.59095 6.62195 11.99
    endloop
  endfacet
  facet normal -0.406243 0.913765 0
    outer loop
      vertex -7.42218 6.74699 10
      vertex -7.52765 6.7001 11.99
      vertex -7.42218 6.74699 11.99
    endloop
  endfacet
  facet normal -0.406243 0.913765 0
    outer loop
      vertex -7.52765 6.7001 11.99
      vertex -7.42218 6.74699 10
      vertex -7.52765 6.7001 10
    endloop
  endfacet
  facet normal -0.105344 0.994436 0
    outer loop
      vertex -7.27454 6.76263 10
      vertex -7.42218 6.74699 11.99
      vertex -7.27454 6.76263 11.99
    endloop
  endfacet
  facet normal -0.105344 0.994436 0
    outer loop
      vertex -7.42218 6.74699 11.99
      vertex -7.27454 6.76263 10
      vertex -7.42218 6.74699 10
    endloop
  endfacet
  facet normal 0 1 -0
    outer loop
      vertex -6.84955 6.76263 10
      vertex -7.27454 6.76263 11.99
      vertex -6.84955 6.76263 11.99
    endloop
  endfacet
  facet normal 0 1 0
    outer loop
      vertex -7.27454 6.76263 11.99
      vertex -6.84955 6.76263 10
      vertex -7.27454 6.76263 10
    endloop
  endfacet
  facet normal -1 0 0
    outer loop
      vertex -6.84955 6.76263 10
      vertex -6.84955 10.2861 11.99
      vertex -6.84955 10.2861 10
    endloop
  endfacet
  facet normal -1 -0 0
    outer loop
      vertex -6.84955 10.2861 11.99
      vertex -6.84955 6.76263 10
      vertex -6.84955 6.76263 11.99
    endloop
  endfacet
  facet normal -0.995871 0.0907758 0
    outer loop
      vertex -6.84955 10.2861 10
      vertex -6.82534 10.5517 11.99
      vertex -6.82534 10.5517 10
    endloop
  endfacet
  facet normal -0.995871 0.0907758 0
    outer loop
      vertex -6.82534 10.5517 11.99
      vertex -6.84955 10.2861 10
      vertex -6.84955 10.2861 11.99
    endloop
  endfacet
  facet normal -0.959269 0.282493 0
    outer loop
      vertex -6.82534 10.5517 10
      vertex -6.75269 10.7984 11.99
      vertex -6.75269 10.7984 10
    endloop
  endfacet
  facet normal -0.959269 0.282493 0
    outer loop
      vertex -6.75269 10.7984 11.99
      vertex -6.82534 10.5517 10
      vertex -6.82534 10.5517 11.99
    endloop
  endfacet
  facet normal -0.883273 0.468859 0
    outer loop
      vertex -6.75269 10.7984 10
      vertex -6.63161 11.0265 11.99
      vertex -6.63161 11.0265 10
    endloop
  endfacet
  facet normal -0.883273 0.468859 0
    outer loop
      vertex -6.63161 11.0265 11.99
      vertex -6.75269 10.7984 10
      vertex -6.75269 10.7984 11.99
    endloop
  endfacet
  facet normal -0.776959 0.629552 0
    outer loop
      vertex -6.63161 11.0265 10
      vertex -6.4621 11.2357 11.99
      vertex -6.4621 11.2357 10
    endloop
  endfacet
  facet normal -0.776959 0.629552 0
    outer loop
      vertex -6.4621 11.2357 11.99
      vertex -6.63161 11.0265 10
      vertex -6.63161 11.0265 11.99
    endloop
  endfacet
  facet normal -0.652774 0.757553 0
    outer loop
      vertex -6.25901 11.4107 10
      vertex -6.4621 11.2357 11.99
      vertex -6.25901 11.4107 11.99
    endloop
  endfacet
  facet normal -0.652774 0.757553 0
    outer loop
      vertex -6.4621 11.2357 11.99
      vertex -6.25901 11.4107 10
      vertex -6.4621 11.2357 10
    endloop
  endfacet
  facet normal -0.490554 0.871411 0
    outer loop
      vertex -6.03714 11.5356 10
      vertex -6.25901 11.4107 11.99
      vertex -6.03714 11.5356 11.99
    endloop
  endfacet
  facet normal -0.490554 0.871411 0
    outer loop
      vertex -6.25901 11.4107 11.99
      vertex -6.03714 11.5356 10
      vertex -6.25901 11.4107 10
    endloop
  endfacet
  facet normal -0.297597 0.954692 0
    outer loop
      vertex -5.79654 11.6106 10
      vertex -6.03714 11.5356 11.99
      vertex -5.79654 11.6106 11.99
    endloop
  endfacet
  facet normal -0.297597 0.954692 0
    outer loop
      vertex -6.03714 11.5356 11.99
      vertex -5.79654 11.6106 10
      vertex -6.03714 11.5356 10
    endloop
  endfacet
  facet normal -0.0959428 0.995387 0
    outer loop
      vertex -5.53717 11.6356 10
      vertex -5.79654 11.6106 11.99
      vertex -5.53717 11.6356 11.99
    endloop
  endfacet
  facet normal -0.0959428 0.995387 0
    outer loop
      vertex -5.79654 11.6106 11.99
      vertex -5.53717 11.6356 10
      vertex -5.79654 11.6106 10
    endloop
  endfacet
  facet normal 0.151777 0.988415 -0
    outer loop
      vertex -5.17704 11.5803 10
      vertex -5.53717 11.6356 11.99
      vertex -5.17704 11.5803 11.99
    endloop
  endfacet
  facet normal 0.151777 0.988415 0
    outer loop
      vertex -5.53717 11.6356 11.99
      vertex -5.17704 11.5803 10
      vertex -5.53717 11.6356 10
    endloop
  endfacet
  facet normal 0.423343 0.905969 -0
    outer loop
      vertex -4.82158 11.4142 10
      vertex -5.17704 11.5803 11.99
      vertex -4.82158 11.4142 11.99
    endloop
  endfacet
  facet normal 0.423343 0.905969 0
    outer loop
      vertex -5.17704 11.5803 11.99
      vertex -4.82158 11.4142 10
      vertex -5.17704 11.5803 10
    endloop
  endfacet
  facet normal 0.619336 0.785126 -0
    outer loop
      vertex -4.47081 11.1375 10
      vertex -4.82158 11.4142 11.99
      vertex -4.47081 11.1375 11.99
    endloop
  endfacet
  facet normal 0.619336 0.785126 0
    outer loop
      vertex -4.82158 11.4142 11.99
      vertex -4.47081 11.1375 10
      vertex -4.82158 11.4142 10
    endloop
  endfacet
  facet normal 0.745654 0.666333 0
    outer loop
      vertex -4.12471 10.7502 11.99
      vertex -4.47081 11.1375 10
      vertex -4.47081 11.1375 11.99
    endloop
  endfacet
  facet normal 0.745654 0.666333 0
    outer loop
      vertex -4.47081 11.1375 10
      vertex -4.12471 10.7502 11.99
      vertex -4.12471 10.7502 10
    endloop
  endfacet
  facet normal -0.859376 0.511343 0
    outer loop
      vertex -4.12471 10.7502 10
      vertex -3.89426 11.1375 11.99
      vertex -3.89426 11.1375 10
    endloop
  endfacet
  facet normal -0.859376 0.511343 0
    outer loop
      vertex -3.89426 11.1375 11.99
      vertex -4.12471 10.7502 10
      vertex -4.12471 10.7502 11.99
    endloop
  endfacet
  facet normal -0.704314 0.709889 0
    outer loop
      vertex -3.61537 11.4142 10
      vertex -3.89426 11.1375 11.99
      vertex -3.61537 11.4142 11.99
    endloop
  endfacet
  facet normal -0.704314 0.709889 0
    outer loop
      vertex -3.89426 11.1375 11.99
      vertex -3.61537 11.4142 10
      vertex -3.89426 11.1375 10
    endloop
  endfacet
  facet normal -0.452546 0.891741 0
    outer loop
      vertex -3.28807 11.5803 10
      vertex -3.61537 11.4142 11.99
      vertex -3.28807 11.5803 11.99
    endloop
  endfacet
  facet normal -0.452546 0.891741 0
    outer loop
      vertex -3.61537 11.4142 11.99
      vertex -3.28807 11.5803 10
      vertex -3.61537 11.4142 10
    endloop
  endfacet
  facet normal -0.145608 0.989342 0
    outer loop
      vertex -2.91233 11.6356 10
      vertex -3.28807 11.5803 11.99
      vertex -2.91233 11.6356 11.99
    endloop
  endfacet
  facet normal -0.145608 0.989342 0
    outer loop
      vertex -3.28807 11.5803 11.99
      vertex -2.91233 11.6356 10
      vertex -3.28807 11.5803 10
    endloop
  endfacet
  facet normal 0.0602804 0.998181 -0
    outer loop
      vertex -2.71859 11.6239 10
      vertex -2.91233 11.6356 11.99
      vertex -2.71859 11.6239 11.99
    endloop
  endfacet
  facet normal 0.0602804 0.998181 0
    outer loop
      vertex -2.91233 11.6356 11.99
      vertex -2.71859 11.6239 10
      vertex -2.91233 11.6356 10
    endloop
  endfacet
  facet normal 0.190143 0.981756 -0
    outer loop
      vertex -2.53736 11.5888 10
      vertex -2.71859 11.6239 11.99
      vertex -2.53736 11.5888 11.99
    endloop
  endfacet
  facet normal 0.190143 0.981756 0
    outer loop
      vertex -2.71859 11.6239 11.99
      vertex -2.53736 11.5888 10
      vertex -2.71859 11.6239 10
    endloop
  endfacet
  facet normal 0.327061 0.945003 -0
    outer loop
      vertex -2.36862 11.5304 10
      vertex -2.53736 11.5888 11.99
      vertex -2.36862 11.5304 11.99
    endloop
  endfacet
  facet normal 0.327061 0.945003 0
    outer loop
      vertex -2.53736 11.5888 11.99
      vertex -2.36862 11.5304 10
      vertex -2.53736 11.5888 10
    endloop
  endfacet
  facet normal 0.463852 0.885913 -0
    outer loop
      vertex -2.21239 11.4486 10
      vertex -2.36862 11.5304 11.99
      vertex -2.21239 11.4486 11.99
    endloop
  endfacet
  facet normal 0.463852 0.885913 0
    outer loop
      vertex -2.36862 11.5304 11.99
      vertex -2.21239 11.4486 10
      vertex -2.36862 11.5304 10
    endloop
  endfacet
  facet normal 0.589045 0.808101 -0
    outer loop
      vertex -2.06162 11.3387 10
      vertex -2.21239 11.4486 11.99
      vertex -2.06162 11.3387 11.99
    endloop
  endfacet
  facet normal 0.589045 0.808101 0
    outer loop
      vertex -2.21239 11.4486 11.99
      vertex -2.06162 11.3387 10
      vertex -2.21239 11.4486 10
    endloop
  endfacet
  facet normal 0.683407 0.730038 -0
    outer loop
      vertex -1.90929 11.1961 10
      vertex -2.06162 11.3387 11.99
      vertex -1.90929 11.1961 11.99
    endloop
  endfacet
  facet normal 0.683407 0.730038 0
    outer loop
      vertex -2.06162 11.3387 11.99
      vertex -1.90929 11.1961 10
      vertex -2.06162 11.3387 10
    endloop
  endfacet
  facet normal 0.751695 0.659511 0
    outer loop
      vertex -1.7554 11.0207 11.99
      vertex -1.90929 11.1961 10
      vertex -1.90929 11.1961 11.99
    endloop
  endfacet
  facet normal 0.751695 0.659511 0
    outer loop
      vertex -1.90929 11.1961 10
      vertex -1.7554 11.0207 11.99
      vertex -1.7554 11.0207 10
    endloop
  endfacet
  facet normal 0.801153 0.598459 0
    outer loop
      vertex -1.59995 10.8126 11.99
      vertex -1.7554 11.0207 10
      vertex -1.7554 11.0207 11.99
    endloop
  endfacet
  facet normal 0.801153 0.598459 0
    outer loop
      vertex -1.7554 11.0207 10
      vertex -1.59995 10.8126 11.99
      vertex -1.59995 10.8126 10
    endloop
  endfacet
  facet normal -1 0 0
    outer loop
      vertex -1.59995 10.8126 10
      vertex -1.59995 11.4628 11.99
      vertex -1.59995 11.4628 10
    endloop
  endfacet
  facet normal -1 -0 0
    outer loop
      vertex -1.59995 11.4628 11.99
      vertex -1.59995 10.8126 10
      vertex -1.59995 10.8126 11.99
    endloop
  endfacet
  facet normal 0 1 -0
    outer loop
      vertex -0.675006 11.4628 10
      vertex -1.59995 11.4628 11.99
      vertex -0.675006 11.4628 11.99
    endloop
  endfacet
  facet normal 0 1 0
    outer loop
      vertex -1.59995 11.4628 11.99
      vertex -0.675006 11.4628 10
      vertex -1.59995 11.4628 10
    endloop
  endfacet
  facet normal 0.105741 0.994394 -0
    outer loop
      vertex -0.527362 11.4471 10
      vertex -0.675006 11.4628 11.99
      vertex -0.527362 11.4471 11.99
    endloop
  endfacet
  facet normal 0.105741 0.994394 0
    outer loop
      vertex -0.675006 11.4628 11.99
      vertex -0.527362 11.4471 10
      vertex -0.675006 11.4628 10
    endloop
  endfacet
  facet normal 0.408485 0.912765 -0
    outer loop
      vertex -0.421893 11.3999 10
      vertex -0.527362 11.4471 11.99
      vertex -0.421893 11.3999 11.99
    endloop
  endfacet
  facet normal 0.408485 0.912765 0
    outer loop
      vertex -0.527362 11.4471 11.99
      vertex -0.421893 11.3999 10
      vertex -0.527362 11.4471 10
    endloop
  endfacet
  facet normal 0.779258 0.626703 0
    outer loop
      vertex -0.3586 11.3212 11.99
      vertex -0.421893 11.3999 10
      vertex -0.421893 11.3999 11.99
    endloop
  endfacet
  facet normal 0.779258 0.626703 0
    outer loop
      vertex -0.421893 11.3999 10
      vertex -0.3586 11.3212 11.99
      vertex -0.3586 11.3212 10
    endloop
  endfacet
  facet normal 0.982147 0.188115 0
    outer loop
      vertex -0.337512 11.2111 11.99
      vertex -0.3586 11.3212 10
      vertex -0.3586 11.3212 11.99
    endloop
  endfacet
  facet normal 0.982147 0.188115 0
    outer loop
      vertex -0.3586 11.3212 10
      vertex -0.337512 11.2111 11.99
      vertex -0.337512 11.2111 10
    endloop
  endfacet
  facet normal 0.983375 -0.181588 0
    outer loop
      vertex -0.3586 11.0969 11.99
      vertex -0.337512 11.2111 10
      vertex -0.337512 11.2111 11.99
    endloop
  endfacet
  facet normal 0.983375 -0.181588 0
    outer loop
      vertex -0.337512 11.2111 10
      vertex -0.3586 11.0969 11.99
      vertex -0.3586 11.0969 10
    endloop
  endfacet
  facet normal 0.789943 -0.61318 0
    outer loop
      vertex -0.421863 11.0154 11.99
      vertex -0.3586 11.0969 10
      vertex -0.3586 11.0969 11.99
    endloop
  endfacet
  facet normal 0.789943 -0.61318 0
    outer loop
      vertex -0.3586 11.0969 10
      vertex -0.421863 11.0154 11.99
      vertex -0.421863 11.0154 10
    endloop
  endfacet
  facet normal 0.420734 -0.907184 0
    outer loop
      vertex -0.527301 10.9665 10
      vertex -0.421863 11.0154 11.99
      vertex -0.527301 10.9665 11.99
    endloop
  endfacet
  facet normal 0.420734 -0.907184 0
    outer loop
      vertex -0.421863 11.0154 11.99
      vertex -0.527301 10.9665 10
      vertex -0.421863 11.0154 10
    endloop
  endfacet
  facet normal 0.11041 -0.993886 0
    outer loop
      vertex -0.67493 10.9501 10
      vertex -0.527301 10.9665 11.99
      vertex -0.67493 10.9501 11.99
    endloop
  endfacet
  facet normal 0.11041 -0.993886 0
    outer loop
      vertex -0.527301 10.9665 11.99
      vertex -0.67493 10.9501 10
      vertex -0.527301 10.9665 10
    endloop
  endfacet
  facet normal 0 -1 0
    outer loop
      vertex -1.0999 10.9501 10
      vertex -0.67493 10.9501 11.99
      vertex -1.0999 10.9501 11.99
    endloop
  endfacet
  facet normal 0 -1 -0
    outer loop
      vertex -0.67493 10.9501 11.99
      vertex -1.0999 10.9501 10
      vertex -0.67493 10.9501 10
    endloop
  endfacet
  facet normal 1 -0 0
    outer loop
      vertex -1.0999 6.76263 11.99
      vertex -1.0999 10.9501 10
      vertex -1.0999 10.9501 11.99
    endloop
  endfacet
  facet normal 1 0 0
    outer loop
      vertex -1.0999 10.9501 10
      vertex -1.0999 6.76263 11.99
      vertex -1.0999 6.76263 10
    endloop
  endfacet
  facet normal 0 1 -0
    outer loop
      vertex -0.67493 6.76263 10
      vertex -1.0999 6.76263 11.99
      vertex -0.67493 6.76263 11.99
    endloop
  endfacet
  facet normal 0 1 0
    outer loop
      vertex -1.0999 6.76263 11.99
      vertex -0.67493 6.76263 10
      vertex -1.0999 6.76263 10
    endloop
  endfacet
  facet normal 0.105352 0.994435 -0
    outer loop
      vertex -0.527301 6.74699 10
      vertex -0.67493 6.76263 11.99
      vertex -0.527301 6.74699 11.99
    endloop
  endfacet
  facet normal 0.105352 0.994435 0
    outer loop
      vertex -0.67493 6.76263 11.99
      vertex -0.527301 6.74699 10
      vertex -0.67493 6.76263 10
    endloop
  endfacet
  facet normal 0.406346 0.913719 -0
    outer loop
      vertex -0.421863 6.7001 10
      vertex -0.527301 6.74699 11.99
      vertex -0.421863 6.7001 11.99
    endloop
  endfacet
  facet normal 0.406346 0.913719 0
    outer loop
      vertex -0.527301 6.74699 11.99
      vertex -0.421863 6.7001 10
      vertex -0.527301 6.74699 10
    endloop
  endfacet
  facet normal 0.777251 0.629191 0
    outer loop
      vertex -0.3586 6.62195 11.99
      vertex -0.421863 6.7001 10
      vertex -0.421863 6.7001 11.99
    endloop
  endfacet
  facet normal 0.777251 0.629191 0
    outer loop
      vertex -0.421863 6.7001 10
      vertex -0.3586 6.62195 11.99
      vertex -0.3586 6.62195 10
    endloop
  endfacet
  facet normal 0.98193 0.189243 0
    outer loop
      vertex -0.337512 6.51253 11.99
      vertex -0.3586 6.62195 10
      vertex -0.3586 6.62195 11.99
    endloop
  endfacet
  facet normal 0.98193 0.189243 0
    outer loop
      vertex -0.3586 6.62195 10
      vertex -0.337512 6.51253 11.99
      vertex -0.337512 6.51253 10
    endloop
  endfacet
  facet normal 0.984728 -0.1741 0
    outer loop
      vertex -0.357821 6.39766 11.99
      vertex -0.337512 6.51253 10
      vertex -0.337512 6.51253 11.99
    endloop
  endfacet
  facet normal 0.984728 -0.1741 0
    outer loop
      vertex -0.337512 6.51253 10
      vertex -0.357821 6.39766 11.99
      vertex -0.357821 6.39766 10
    endloop
  endfacet
  facet normal 0.802709 -0.596371 0
    outer loop
      vertex -0.418765 6.31563 11.99
      vertex -0.357821 6.39766 10
      vertex -0.357821 6.39766 11.99
    endloop
  endfacet
  facet normal 0.802709 -0.596371 0
    outer loop
      vertex -0.357821 6.39766 10
      vertex -0.418765 6.31563 11.99
      vertex -0.418765 6.31563 10
    endloop
  endfacet
  facet normal 0.436238 -0.899831 0
    outer loop
      vertex -0.520312 6.2664 10
      vertex -0.418765 6.31563 11.99
      vertex -0.520312 6.2664 11.99
    endloop
  endfacet
  facet normal 0.436238 -0.899831 0
    outer loop
      vertex -0.418765 6.31563 11.99
      vertex -0.520312 6.2664 10
      vertex -0.418765 6.31563 10
    endloop
  endfacet
  facet normal 0.114573 -0.993415 0
    outer loop
      vertex -0.662509 6.25 10
      vertex -0.520312 6.2664 11.99
      vertex -0.662509 6.25 11.99
    endloop
  endfacet
  facet normal 0.114573 -0.993415 0
    outer loop
      vertex -0.520312 6.2664 11.99
      vertex -0.662509 6.25 10
      vertex -0.520312 6.2664 10
    endloop
  endfacet
  facet normal 0 -1 0
    outer loop
      vertex -2.02483 6.25 10
      vertex -0.662509 6.25 11.99
      vertex -2.02483 6.25 11.99
    endloop
  endfacet
  facet normal 0 -1 -0
    outer loop
      vertex -0.662509 6.25 11.99
      vertex -2.02483 6.25 10
      vertex -0.662509 6.25 10
    endloop
  endfacet
  facet normal -0.110387 -0.993889 0
    outer loop
      vertex -2.17249 6.2664 10
      vertex -2.02483 6.25 11.99
      vertex -2.17249 6.2664 11.99
    endloop
  endfacet
  facet normal -0.110387 -0.993889 -0
    outer loop
      vertex -2.02483 6.25 11.99
      vertex -2.17249 6.2664 10
      vertex -2.02483 6.25 10
    endloop
  endfacet
endsolid OpenSCAD_Model
