solid OpenSCAD_Model
  facet normal 0 0 1
    outer loop
      vertex -3.49973 8.36256 10
      vertex -1.41237 12.7761 10
      vertex -1.51236 12.7761 10
    endloop
  endfacet
  facet normal 0 0 1
    outer loop
      vertex -1.41237 12.7761 10
      vertex -3.49973 8.36256 10
      vertex -1.41237 6.76263 10
    endloop
  endfacet
  facet normal 0 0 1
    outer loop
      vertex -1.41237 6.76263 10
      vertex -3.49973 8.36256 10
      vertex -2.3373 6.76263 10
    endloop
  endfacet
  facet normal 0 0 1
    outer loop
      vertex -2.3373 6.76263 10
      vertex -3.49973 8.36256 10
      vertex -2.49042 6.74699 10
    endloop
  endfacet
  facet normal 0 0 1
    outer loop
      vertex -2.49042 6.74699 10
      vertex -3.49973 8.36256 10
      vertex -2.59979 6.7001 10
    endloop
  endfacet
  facet normal 0 0 1
    outer loop
      vertex -2.59979 6.7001 10
      vertex -3.49973 8.36256 10
      vertex -2.66542 6.62195 10
    endloop
  endfacet
  facet normal 0 0 1
    outer loop
      vertex -4.89575 6.62195 10
      vertex -2.66542 6.62195 10
      vertex -3.49973 8.36256 10
    endloop
  endfacet
  facet normal 0 0 1
    outer loop
      vertex 0 14.5 10
      vertex -0.137512 6.51253 10
      vertex 0 2.5 10
    endloop
  endfacet
  facet normal -0 0 1
    outer loop
      vertex -0.250015 13.0386 10
      vertex -0.137512 6.51253 10
      vertex 0 14.5 10
    endloop
  endfacet
  facet normal 0 0 1
    outer loop
      vertex -0.137512 6.51253 10
      vertex -0.250015 13.0386 10
      vertex -0.1586 6.62195 10
    endloop
  endfacet
  facet normal -0 0 1
    outer loop
      vertex -0.271103 12.9238 10
      vertex -0.1586 6.62195 10
      vertex -0.250015 13.0386 10
    endloop
  endfacet
  facet normal 0 0 1
    outer loop
      vertex 0 14.5 10
      vertex -0.271103 13.148 10
      vertex -0.250015 13.0386 10
    endloop
  endfacet
  facet normal 0 0 1
    outer loop
      vertex 0 14.5 10
      vertex -0.334381 13.2262 10
      vertex -0.271103 13.148 10
    endloop
  endfacet
  facet normal 0 0 1
    outer loop
      vertex 0 14.5 10
      vertex -0.43985 13.2731 10
      vertex -0.334381 13.2262 10
    endloop
  endfacet
  facet normal 0 0 1
    outer loop
      vertex 0 14.5 10
      vertex -0.587509 13.2887 10
      vertex -0.43985 13.2731 10
    endloop
  endfacet
  facet normal 0 0 1
    outer loop
      vertex 0 14.5 10
      vertex -1.82483 13.2887 10
      vertex -0.587509 13.2887 10
    endloop
  endfacet
  facet normal 0 0 1
    outer loop
      vertex -1.82483 13.2887 10
      vertex -5.71211 13.2887 10
      vertex -3.78728 8.93326 10
    endloop
  endfacet
  facet normal 0 0 1
    outer loop
      vertex 0 14.5 10
      vertex -5.71211 13.2887 10
      vertex -1.82483 13.2887 10
    endloop
  endfacet
  facet normal -0 0 1
    outer loop
      vertex -7.5 14.5 10
      vertex -5.71211 13.2887 10
      vertex 0 14.5 10
    endloop
  endfacet
  facet normal 0 0 1
    outer loop
      vertex -5.71211 13.2887 10
      vertex -7.5 14.5 10
      vertex -6.96204 13.2887 10
    endloop
  endfacet
  facet normal 0 0 1
    outer loop
      vertex -7.27844 12.9238 10
      vertex -7.39095 6.62195 10
      vertex -7.32765 6.7001 10
    endloop
  endfacet
  facet normal 0 0 1
    outer loop
      vertex -7.29953 13.0386 10
      vertex -7.41203 6.51253 10
      vertex -7.39095 6.62195 10
    endloop
  endfacet
  facet normal 0 0 1
    outer loop
      vertex -7.29953 13.0386 10
      vertex -7.5 14.5 10
      vertex -7.41203 6.51253 10
    endloop
  endfacet
  facet normal 0 0 1
    outer loop
      vertex -7.27844 13.148 10
      vertex -7.5 14.5 10
      vertex -7.29953 13.0386 10
    endloop
  endfacet
  facet normal 0 0 1
    outer loop
      vertex -7.21516 13.2262 10
      vertex -7.5 14.5 10
      vertex -7.27844 13.148 10
    endloop
  endfacet
  facet normal 0 0 1
    outer loop
      vertex -7.1097 13.2731 10
      vertex -7.5 14.5 10
      vertex -7.21516 13.2262 10
    endloop
  endfacet
  facet normal 0 0 1
    outer loop
      vertex -6.96204 13.2887 10
      vertex -7.5 14.5 10
      vertex -7.1097 13.2731 10
    endloop
  endfacet
  facet normal -0 0 1
    outer loop
      vertex -0.1586 6.39766 10
      vertex 0 2.5 10
      vertex -0.137512 6.51253 10
    endloop
  endfacet
  facet normal -0 0 1
    outer loop
      vertex -0.221893 6.31563 10
      vertex 0 2.5 10
      vertex -0.1586 6.39766 10
    endloop
  endfacet
  facet normal -0 0 1
    outer loop
      vertex -0.327362 6.2664 10
      vertex 0 2.5 10
      vertex -0.221893 6.31563 10
    endloop
  endfacet
  facet normal -0 0 1
    outer loop
      vertex -0.475006 6.25 10
      vertex 0 2.5 10
      vertex -0.327362 6.2664 10
    endloop
  endfacet
  facet normal -0 0 1
    outer loop
      vertex -2.3373 6.25 10
      vertex 0 2.5 10
      vertex -0.475006 6.25 10
    endloop
  endfacet
  facet normal 0 0 1
    outer loop
      vertex -2.49042 6.2664 10
      vertex 0 2.5 10
      vertex -2.3373 6.25 10
    endloop
  endfacet
  facet normal 0 0 1
    outer loop
      vertex -6.51 3.5 10
      vertex -2.49042 6.2664 10
      vertex -2.59979 6.31563 10
    endloop
  endfacet
  facet normal 0 0 1
    outer loop
      vertex -4.95903 6.31563 10
      vertex -2.59979 6.31563 10
      vertex -2.66542 6.39766 10
    endloop
  endfacet
  facet normal 0 0 1
    outer loop
      vertex -2.66542 6.62195 10
      vertex -4.89575 6.62195 10
      vertex -2.6873 6.51253 10
    endloop
  endfacet
  facet normal 0 0 1
    outer loop
      vertex -4.89575 6.62195 10
      vertex -3.49973 8.36256 10
      vertex -4.07474 8.36266 10
    endloop
  endfacet
  facet normal 0 -0 1
    outer loop
      vertex -4.87466 6.51253 10
      vertex -2.6873 6.51253 10
      vertex -4.89575 6.62195 10
    endloop
  endfacet
  facet normal 0 0 1
    outer loop
      vertex -4.89575 6.39766 10
      vertex -2.66542 6.39766 10
      vertex -4.87466 6.51253 10
    endloop
  endfacet
  facet normal 0 0 1
    outer loop
      vertex -4.95903 6.31563 10
      vertex -2.66542 6.39766 10
      vertex -4.89575 6.39766 10
    endloop
  endfacet
  facet normal 0 0 1
    outer loop
      vertex -2.59979 6.31563 10
      vertex -4.95903 6.31563 10
      vertex -6.51 3.5 10
    endloop
  endfacet
  facet normal 0 0 1
    outer loop
      vertex -6.51 3.5 10
      vertex -4.95903 6.31563 10
      vertex -5.0645 6.2664 10
    endloop
  endfacet
  facet normal 0 0 1
    outer loop
      vertex -6.51 3.5 10
      vertex -5.0645 6.2664 10
      vertex -5.21216 6.25 10
    endloop
  endfacet
  facet normal 0 0 1
    outer loop
      vertex -2.49042 6.2664 10
      vertex -6.51 3.5 10
      vertex 0 2.5 10
    endloop
  endfacet
  facet normal 0 0 1
    outer loop
      vertex 0 2.5 10
      vertex -6.51 3.5 10
      vertex -6.51 2.5 10
    endloop
  endfacet
  facet normal 0 0 1
    outer loop
      vertex -0.1586 6.62195 10
      vertex -0.271103 12.9238 10
      vertex -0.221863 6.7001 10
    endloop
  endfacet
  facet normal -0 0 1
    outer loop
      vertex -0.334366 12.8417 10
      vertex -0.221863 6.7001 10
      vertex -0.271103 12.9238 10
    endloop
  endfacet
  facet normal 0 0 1
    outer loop
      vertex -0.221863 6.7001 10
      vertex -0.334366 12.8417 10
      vertex -0.327301 6.74699 10
    endloop
  endfacet
  facet normal -0 0 1
    outer loop
      vertex -0.439804 12.7925 10
      vertex -0.327301 6.74699 10
      vertex -0.334366 12.8417 10
    endloop
  endfacet
  facet normal 0 0 1
    outer loop
      vertex -0.439804 12.7925 10
      vertex -0.47493 6.76263 10
      vertex -0.327301 6.74699 10
    endloop
  endfacet
  facet normal -0 0 1
    outer loop
      vertex -0.587418 12.7761 10
      vertex -0.47493 6.76263 10
      vertex -0.439804 12.7925 10
    endloop
  endfacet
  facet normal 0 0 1
    outer loop
      vertex -0.899902 6.76263 10
      vertex -0.587418 12.7761 10
      vertex -0.899902 12.7761 10
    endloop
  endfacet
  facet normal 0 0 1
    outer loop
      vertex -0.587418 12.7761 10
      vertex -0.899902 6.76263 10
      vertex -0.47493 6.76263 10
    endloop
  endfacet
  facet normal -0 0 1
    outer loop
      vertex -7.07454 6.25 10
      vertex -6.51 3.5 10
      vertex -5.21216 6.25 10
    endloop
  endfacet
  facet normal 0 0 1
    outer loop
      vertex -7.5 3.5 10
      vertex -7.07454 6.25 10
      vertex -7.22218 6.2664 10
    endloop
  endfacet
  facet normal 0 0 1
    outer loop
      vertex -7.5 3.5 10
      vertex -7.22218 6.2664 10
      vertex -7.32765 6.31563 10
    endloop
  endfacet
  facet normal 0 0 1
    outer loop
      vertex -7.5 3.5 10
      vertex -7.32765 6.31563 10
      vertex -7.39095 6.39766 10
    endloop
  endfacet
  facet normal 0 0 1
    outer loop
      vertex -7.07454 6.25 10
      vertex -7.5 3.5 10
      vertex -6.51 3.5 10
    endloop
  endfacet
  facet normal 0 0 1
    outer loop
      vertex -7.41203 6.51253 10
      vertex -7.5 3.5 10
      vertex -7.39095 6.39766 10
    endloop
  endfacet
  facet normal 0 0 1
    outer loop
      vertex -7.5 3.5 10
      vertex -7.41203 6.51253 10
      vertex -7.5 14.5 10
    endloop
  endfacet
  facet normal 0 0 1
    outer loop
      vertex -2.6873 6.51253 10
      vertex -4.87466 6.51253 10
      vertex -2.66542 6.39766 10
    endloop
  endfacet
  facet normal 0 0 1
    outer loop
      vertex -4.07474 8.36266 10
      vertex -4.95903 6.7001 10
      vertex -4.89575 6.62195 10
    endloop
  endfacet
  facet normal 0 0 1
    outer loop
      vertex -4.07474 8.36266 10
      vertex -5.0645 6.74699 10
      vertex -4.95903 6.7001 10
    endloop
  endfacet
  facet normal 0 0 1
    outer loop
      vertex -4.07474 8.36266 10
      vertex -5.21216 6.76263 10
      vertex -5.0645 6.74699 10
    endloop
  endfacet
  facet normal -0 0 1
    outer loop
      vertex -6.13708 12.7761 10
      vertex -4.07474 8.36266 10
      vertex -6.03711 12.7761 10
    endloop
  endfacet
  facet normal 0 0 1
    outer loop
      vertex -4.07474 8.36266 10
      vertex -6.13708 12.7761 10
      vertex -6.13708 6.76263 10
    endloop
  endfacet
  facet normal 0 0 1
    outer loop
      vertex -4.07474 8.36266 10
      vertex -6.13708 6.76263 10
      vertex -5.21216 6.76263 10
    endloop
  endfacet
  facet normal -0 0 1
    outer loop
      vertex -6.96204 12.7761 10
      vertex -6.64955 6.76263 10
      vertex -6.64955 12.7761 10
    endloop
  endfacet
  facet normal 0 0 1
    outer loop
      vertex -6.96204 12.7761 10
      vertex -7.07454 6.76263 10
      vertex -6.64955 6.76263 10
    endloop
  endfacet
  facet normal 0 0 1
    outer loop
      vertex -7.1097 12.7925 10
      vertex -7.07454 6.76263 10
      vertex -6.96204 12.7761 10
    endloop
  endfacet
  facet normal 0 0 1
    outer loop
      vertex -7.22218 6.74699 10
      vertex -7.1097 12.7925 10
      vertex -7.21516 12.8417 10
    endloop
  endfacet
  facet normal 0 0 1
    outer loop
      vertex -7.1097 12.7925 10
      vertex -7.22218 6.74699 10
      vertex -7.07454 6.76263 10
    endloop
  endfacet
  facet normal 0 0 1
    outer loop
      vertex -7.32765 6.7001 10
      vertex -7.21516 12.8417 10
      vertex -7.27844 12.9238 10
    endloop
  endfacet
  facet normal 0 0 1
    outer loop
      vertex -7.39095 6.62195 10
      vertex -7.27844 12.9238 10
      vertex -7.29953 13.0386 10
    endloop
  endfacet
  facet normal 0 0 1
    outer loop
      vertex -7.21516 12.8417 10
      vertex -7.32765 6.7001 10
      vertex -7.22218 6.74699 10
    endloop
  endfacet
  facet normal -1 0 0
    outer loop
      vertex -7.5 0 3
      vertex -7.5 17 3
      vertex -7.5 17 0
    endloop
  endfacet
  facet normal -1 0 0
    outer loop
      vertex -7.5 17 3
      vertex -7.5 3.5 9.01
      vertex -7.5 14.5 10
    endloop
  endfacet
  facet normal -1 0 0
    outer loop
      vertex -7.5 17 3
      vertex -7.5 0 3
      vertex -7.5 3.5 9.01
    endloop
  endfacet
  facet normal -1 0 0
    outer loop
      vertex -7.5 0 3
      vertex -7.5 17 0
      vertex -7.5 0 0
    endloop
  endfacet
  facet normal -1 -0 0
    outer loop
      vertex -7.5 3.5 9.01
      vertex -7.5 0 3
      vertex -7.5 2.14643 9.01
    endloop
  endfacet
  facet normal -1 -0 0
    outer loop
      vertex -7.5 14.5 10
      vertex -7.5 3.5 9.01
      vertex -7.5 3.5 10
    endloop
  endfacet
  facet normal 0 1 -0
    outer loop
      vertex 0 17 0
      vertex -7.5 17 3
      vertex 0 17 3
    endloop
  endfacet
  facet normal 0 1 0
    outer loop
      vertex -7.5 17 3
      vertex 0 17 0
      vertex -7.5 17 0
    endloop
  endfacet
  facet normal 0 0 -1
    outer loop
      vertex -7.5 0 0
      vertex 0 17 0
      vertex 0 0 0
    endloop
  endfacet
  facet normal -0 0 -1
    outer loop
      vertex 0 17 0
      vertex -7.5 0 0
      vertex -7.5 17 0
    endloop
  endfacet
  facet normal 1 0 0
    outer loop
      vertex 0 0 3
      vertex 0 17 3
      vertex 0 14.5 10
    endloop
  endfacet
  facet normal 1 0 0
    outer loop
      vertex 0 0 3
      vertex 0 14.5 10
      vertex 0 2.5 10
    endloop
  endfacet
  facet normal 1 0 0
    outer loop
      vertex 0 17 3
      vertex 0 0 3
      vertex 0 17 0
    endloop
  endfacet
  facet normal 1 0 0
    outer loop
      vertex 0 17 0
      vertex 0 0 3
      vertex 0 0 0
    endloop
  endfacet
  facet normal 0 -0.941742 0.336337
    outer loop
      vertex -7.5 2.14643 9.01
      vertex -7.5 0 3
      vertex -6.51 2.14643 9.01
    endloop
  endfacet
  facet normal 0 -0.941742 0.336335
    outer loop
      vertex -6.51 2.14643 9.01
      vertex 0 2.5 10
      vertex -6.51 2.5 10
    endloop
  endfacet
  facet normal 0 -0.941742 0.336337
    outer loop
      vertex 0 0 3
      vertex -6.51 2.14643 9.01
      vertex -7.5 0 3
    endloop
  endfacet
  facet normal -2.06658e-07 -0.941742 0.336336
    outer loop
      vertex -6.51 2.14643 9.01
      vertex 0 0 3
      vertex 0 2.5 10
    endloop
  endfacet
  facet normal 0 -1 0
    outer loop
      vertex -7.5 0 0
      vertex 0 0 3
      vertex -7.5 0 3
    endloop
  endfacet
  facet normal 0 -1 -0
    outer loop
      vertex 0 0 3
      vertex -7.5 0 0
      vertex 0 0 0
    endloop
  endfacet
  facet normal 0 0.941742 0.336336
    outer loop
      vertex 0 17 3
      vertex -7.5 14.5 10
      vertex 0 14.5 10
    endloop
  endfacet
  facet normal 0 0.941742 0.336336
    outer loop
      vertex -7.5 14.5 10
      vertex 0 17 3
      vertex -7.5 17 3
    endloop
  endfacet
  facet normal -0 0 1
    outer loop
      vertex -7.5 3.5 9.01
      vertex -6.51 2.14643 9.01
      vertex -6.51 3.5 9.01
    endloop
  endfacet
  facet normal 0 0 1
    outer loop
      vertex -6.51 2.14643 9.01
      vertex -7.5 3.5 9.01
      vertex -7.5 2.14643 9.01
    endloop
  endfacet
  facet normal -1 0 0
    outer loop
      vertex -6.51 3.5 9.01
      vertex -6.51 2.5 10
      vertex -6.51 3.5 10
    endloop
  endfacet
  facet normal -1 0 -0
    outer loop
      vertex -6.51 2.5 10
      vertex -6.51 3.5 9.01
      vertex -6.51 2.14643 9.01
    endloop
  endfacet
  facet normal 0 -1 0
    outer loop
      vertex -7.5 3.5 9.01
      vertex -6.51 3.5 10
      vertex -7.5 3.5 10
    endloop
  endfacet
  facet normal 0 -1 -0
    outer loop
      vertex -6.51 3.5 10
      vertex -7.5 3.5 9.01
      vertex -6.51 3.5 9.01
    endloop
  endfacet
  facet normal 0 0 1
    outer loop
      vertex -0.334381 13.2262 11.99
      vertex -0.250015 13.0386 11.99
      vertex -0.271103 13.148 11.99
    endloop
  endfacet
  facet normal 0 -0 1
    outer loop
      vertex -0.439804 12.7925 11.99
      vertex -0.250015 13.0386 11.99
      vertex -0.43985 13.2731 11.99
    endloop
  endfacet
  facet normal 0 0 1
    outer loop
      vertex -0.250015 13.0386 11.99
      vertex -0.334381 13.2262 11.99
      vertex -0.43985 13.2731 11.99
    endloop
  endfacet
  facet normal 0 0 1
    outer loop
      vertex -0.250015 13.0386 11.99
      vertex -0.439804 12.7925 11.99
      vertex -0.271103 12.9238 11.99
    endloop
  endfacet
  facet normal 0 0 1
    outer loop
      vertex -0.271103 12.9238 11.99
      vertex -0.439804 12.7925 11.99
      vertex -0.334366 12.8417 11.99
    endloop
  endfacet
  facet normal 0 0 1
    outer loop
      vertex -0.43985 13.2731 11.99
      vertex -0.587418 12.7761 11.99
      vertex -0.439804 12.7925 11.99
    endloop
  endfacet
  facet normal 0 0 1
    outer loop
      vertex -0.587509 13.2887 11.99
      vertex -0.587418 12.7761 11.99
      vertex -0.43985 13.2731 11.99
    endloop
  endfacet
  facet normal 0 0 1
    outer loop
      vertex -0.587509 13.2887 11.99
      vertex -0.899902 12.7761 11.99
      vertex -0.587418 12.7761 11.99
    endloop
  endfacet
  facet normal 0 0 1
    outer loop
      vertex -0.899902 12.7761 11.99
      vertex -1.41237 12.7761 11.99
      vertex -0.899902 6.76263 11.99
    endloop
  endfacet
  facet normal 0 0 1
    outer loop
      vertex -0.587509 13.2887 11.99
      vertex -1.41237 12.7761 11.99
      vertex -0.899902 12.7761 11.99
    endloop
  endfacet
  facet normal -0 0 1
    outer loop
      vertex -1.82483 13.2887 11.99
      vertex -1.41237 12.7761 11.99
      vertex -0.587509 13.2887 11.99
    endloop
  endfacet
  facet normal 0 0 1
    outer loop
      vertex -1.41237 12.7761 11.99
      vertex -1.82483 13.2887 11.99
      vertex -1.51236 12.7761 11.99
    endloop
  endfacet
  facet normal 0 0 1
    outer loop
      vertex -3.78728 8.93326 11.99
      vertex -1.51236 12.7761 11.99
      vertex -1.82483 13.2887 11.99
    endloop
  endfacet
  facet normal 0 0 1
    outer loop
      vertex -1.51236 12.7761 11.99
      vertex -3.78728 8.93326 11.99
      vertex -3.49973 8.36256 11.99
    endloop
  endfacet
  facet normal 0 0 1
    outer loop
      vertex -3.78728 8.93326 11.99
      vertex -4.07474 8.36266 11.99
      vertex -3.49973 8.36256 11.99
    endloop
  endfacet
  facet normal -0 0 1
    outer loop
      vertex -6.03711 12.7761 11.99
      vertex -3.78728 8.93326 11.99
      vertex -5.71211 13.2887 11.99
    endloop
  endfacet
  facet normal 0 0 1
    outer loop
      vertex -3.78728 8.93326 11.99
      vertex -6.03711 12.7761 11.99
      vertex -4.07474 8.36266 11.99
    endloop
  endfacet
  facet normal 0 0 1
    outer loop
      vertex -5.71211 13.2887 11.99
      vertex -6.13708 12.7761 11.99
      vertex -6.03711 12.7761 11.99
    endloop
  endfacet
  facet normal 0 0 1
    outer loop
      vertex -6.13708 12.7761 11.99
      vertex -6.64955 12.7761 11.99
      vertex -6.13708 6.76263 11.99
    endloop
  endfacet
  facet normal -0 0 1
    outer loop
      vertex -6.96204 13.2887 11.99
      vertex -6.13708 12.7761 11.99
      vertex -5.71211 13.2887 11.99
    endloop
  endfacet
  facet normal 0 0 1
    outer loop
      vertex -6.13708 12.7761 11.99
      vertex -6.96204 13.2887 11.99
      vertex -6.64955 12.7761 11.99
    endloop
  endfacet
  facet normal 0 0 1
    outer loop
      vertex -6.96204 13.2887 11.99
      vertex -6.96204 12.7761 11.99
      vertex -6.64955 12.7761 11.99
    endloop
  endfacet
  facet normal -0 0 1
    outer loop
      vertex -7.1097 13.2731 11.99
      vertex -6.96204 12.7761 11.99
      vertex -6.96204 13.2887 11.99
    endloop
  endfacet
  facet normal 0 0 1
    outer loop
      vertex -7.1097 13.2731 11.99
      vertex -7.1097 12.7925 11.99
      vertex -6.96204 12.7761 11.99
    endloop
  endfacet
  facet normal 0 0 1
    outer loop
      vertex -7.29953 13.0386 11.99
      vertex -7.1097 13.2731 11.99
      vertex -7.21516 13.2262 11.99
    endloop
  endfacet
  facet normal 0 0 1
    outer loop
      vertex -7.1097 13.2731 11.99
      vertex -7.29953 13.0386 11.99
      vertex -7.1097 12.7925 11.99
    endloop
  endfacet
  facet normal 0 0 1
    outer loop
      vertex -7.29953 13.0386 11.99
      vertex -7.21516 13.2262 11.99
      vertex -7.27844 13.148 11.99
    endloop
  endfacet
  facet normal 0 0 1
    outer loop
      vertex -7.1097 12.7925 11.99
      vertex -7.29953 13.0386 11.99
      vertex -7.21516 12.8417 11.99
    endloop
  endfacet
  facet normal 0 0 1
    outer loop
      vertex -7.21516 12.8417 11.99
      vertex -7.29953 13.0386 11.99
      vertex -7.27844 12.9238 11.99
    endloop
  endfacet
  facet normal 0 0 1
    outer loop
      vertex -0.221863 6.7001 11.99
      vertex -0.137512 6.51253 11.99
      vertex -0.1586 6.62195 11.99
    endloop
  endfacet
  facet normal 0 0 1
    outer loop
      vertex -0.137512 6.51253 11.99
      vertex -0.221863 6.7001 11.99
      vertex -0.327301 6.74699 11.99
    endloop
  endfacet
  facet normal 0 0 1
    outer loop
      vertex -0.327362 6.2664 11.99
      vertex -0.137512 6.51253 11.99
      vertex -0.327301 6.74699 11.99
    endloop
  endfacet
  facet normal 0 0 1
    outer loop
      vertex -0.137512 6.51253 11.99
      vertex -0.327362 6.2664 11.99
      vertex -0.1586 6.39766 11.99
    endloop
  endfacet
  facet normal 0 0 1
    outer loop
      vertex -0.1586 6.39766 11.99
      vertex -0.327362 6.2664 11.99
      vertex -0.221893 6.31563 11.99
    endloop
  endfacet
  facet normal 0 0 1
    outer loop
      vertex -0.47493 6.76263 11.99
      vertex -0.327362 6.2664 11.99
      vertex -0.327301 6.74699 11.99
    endloop
  endfacet
  facet normal 0 0 1
    outer loop
      vertex -0.47493 6.76263 11.99
      vertex -0.475006 6.25 11.99
      vertex -0.327362 6.2664 11.99
    endloop
  endfacet
  facet normal -0 0 1
    outer loop
      vertex -0.899902 6.76263 11.99
      vertex -0.475006 6.25 11.99
      vertex -0.47493 6.76263 11.99
    endloop
  endfacet
  facet normal 0 0 1
    outer loop
      vertex -1.41237 6.76263 11.99
      vertex -0.899902 6.76263 11.99
      vertex -1.41237 12.7761 11.99
    endloop
  endfacet
  facet normal -0 0 1
    outer loop
      vertex -1.41237 6.76263 11.99
      vertex -0.475006 6.25 11.99
      vertex -0.899902 6.76263 11.99
    endloop
  endfacet
  facet normal 0 0 1
    outer loop
      vertex -2.3373 6.25 11.99
      vertex -1.41237 6.76263 11.99
      vertex -2.3373 6.76263 11.99
    endloop
  endfacet
  facet normal 0 0 1
    outer loop
      vertex -1.41237 6.76263 11.99
      vertex -2.3373 6.25 11.99
      vertex -0.475006 6.25 11.99
    endloop
  endfacet
  facet normal -0 0 1
    outer loop
      vertex -2.49042 6.74699 11.99
      vertex -2.3373 6.25 11.99
      vertex -2.3373 6.76263 11.99
    endloop
  endfacet
  facet normal 0 0 1
    outer loop
      vertex -2.49042 6.74699 11.99
      vertex -2.49042 6.2664 11.99
      vertex -2.3373 6.25 11.99
    endloop
  endfacet
  facet normal 0 0 1
    outer loop
      vertex -2.6873 6.51253 11.99
      vertex -2.49042 6.74699 11.99
      vertex -2.59979 6.7001 11.99
    endloop
  endfacet
  facet normal 0 0 1
    outer loop
      vertex -2.49042 6.74699 11.99
      vertex -2.6873 6.51253 11.99
      vertex -2.49042 6.2664 11.99
    endloop
  endfacet
  facet normal 0 0 1
    outer loop
      vertex -2.6873 6.51253 11.99
      vertex -2.59979 6.7001 11.99
      vertex -2.66542 6.62195 11.99
    endloop
  endfacet
  facet normal 0 0 1
    outer loop
      vertex -2.49042 6.2664 11.99
      vertex -2.6873 6.51253 11.99
      vertex -2.59979 6.31563 11.99
    endloop
  endfacet
  facet normal 0 0 1
    outer loop
      vertex -2.59979 6.31563 11.99
      vertex -2.6873 6.51253 11.99
      vertex -2.66542 6.39766 11.99
    endloop
  endfacet
  facet normal 0 0 1
    outer loop
      vertex -4.95903 6.7001 11.99
      vertex -4.87466 6.51253 11.99
      vertex -4.89575 6.62195 11.99
    endloop
  endfacet
  facet normal 0 0 1
    outer loop
      vertex -4.87466 6.51253 11.99
      vertex -4.95903 6.7001 11.99
      vertex -5.0645 6.74699 11.99
    endloop
  endfacet
  facet normal 0 0 1
    outer loop
      vertex -5.0645 6.2664 11.99
      vertex -4.87466 6.51253 11.99
      vertex -5.0645 6.74699 11.99
    endloop
  endfacet
  facet normal 0 0 1
    outer loop
      vertex -4.87466 6.51253 11.99
      vertex -5.0645 6.2664 11.99
      vertex -4.89575 6.39766 11.99
    endloop
  endfacet
  facet normal 0 0 1
    outer loop
      vertex -4.89575 6.39766 11.99
      vertex -5.0645 6.2664 11.99
      vertex -4.95903 6.31563 11.99
    endloop
  endfacet
  facet normal 0 0 1
    outer loop
      vertex -5.21216 6.76263 11.99
      vertex -5.0645 6.2664 11.99
      vertex -5.0645 6.74699 11.99
    endloop
  endfacet
  facet normal 0 0 1
    outer loop
      vertex -5.21216 6.76263 11.99
      vertex -5.21216 6.25 11.99
      vertex -5.0645 6.2664 11.99
    endloop
  endfacet
  facet normal -0 0 1
    outer loop
      vertex -6.13708 6.76263 11.99
      vertex -5.21216 6.25 11.99
      vertex -5.21216 6.76263 11.99
    endloop
  endfacet
  facet normal 0 0 1
    outer loop
      vertex -6.64955 6.76263 11.99
      vertex -6.13708 6.76263 11.99
      vertex -6.64955 12.7761 11.99
    endloop
  endfacet
  facet normal 0 0 1
    outer loop
      vertex -7.07454 6.25 11.99
      vertex -6.13708 6.76263 11.99
      vertex -6.64955 6.76263 11.99
    endloop
  endfacet
  facet normal 0 0 1
    outer loop
      vertex -7.07454 6.25 11.99
      vertex -6.64955 6.76263 11.99
      vertex -7.07454 6.76263 11.99
    endloop
  endfacet
  facet normal 0 0 1
    outer loop
      vertex -6.13708 6.76263 11.99
      vertex -7.07454 6.25 11.99
      vertex -5.21216 6.25 11.99
    endloop
  endfacet
  facet normal -0 0 1
    outer loop
      vertex -7.22218 6.74699 11.99
      vertex -7.07454 6.25 11.99
      vertex -7.07454 6.76263 11.99
    endloop
  endfacet
  facet normal 0 0 1
    outer loop
      vertex -7.22218 6.74699 11.99
      vertex -7.22218 6.2664 11.99
      vertex -7.07454 6.25 11.99
    endloop
  endfacet
  facet normal 0 0 1
    outer loop
      vertex -7.41203 6.51253 11.99
      vertex -7.22218 6.74699 11.99
      vertex -7.32765 6.7001 11.99
    endloop
  endfacet
  facet normal 0 0 1
    outer loop
      vertex -7.22218 6.74699 11.99
      vertex -7.41203 6.51253 11.99
      vertex -7.22218 6.2664 11.99
    endloop
  endfacet
  facet normal 0 0 1
    outer loop
      vertex -7.41203 6.51253 11.99
      vertex -7.32765 6.7001 11.99
      vertex -7.39095 6.62195 11.99
    endloop
  endfacet
  facet normal 0 0 1
    outer loop
      vertex -7.22218 6.2664 11.99
      vertex -7.41203 6.51253 11.99
      vertex -7.32765 6.31563 11.99
    endloop
  endfacet
  facet normal 0 0 1
    outer loop
      vertex -7.32765 6.31563 11.99
      vertex -7.41203 6.51253 11.99
      vertex -7.39095 6.39766 11.99
    endloop
  endfacet
  facet normal -0.410458 -0.911879 0
    outer loop
      vertex -2.59979 6.31563 10
      vertex -2.49042 6.2664 11.99
      vertex -2.59979 6.31563 11.99
    endloop
  endfacet
  facet normal -0.410458 -0.911879 -0
    outer loop
      vertex -2.49042 6.2664 11.99
      vertex -2.59979 6.31563 10
      vertex -2.49042 6.2664 10
    endloop
  endfacet
  facet normal -0.780841 -0.62473 0
    outer loop
      vertex -2.59979 6.31563 10
      vertex -2.66542 6.39766 11.99
      vertex -2.66542 6.39766 10
    endloop
  endfacet
  facet normal -0.780841 -0.62473 0
    outer loop
      vertex -2.66542 6.39766 11.99
      vertex -2.59979 6.31563 10
      vertex -2.59979 6.31563 11.99
    endloop
  endfacet
  facet normal -0.982339 -0.187112 0
    outer loop
      vertex -2.66542 6.39766 10
      vertex -2.6873 6.51253 11.99
      vertex -2.6873 6.51253 10
    endloop
  endfacet
  facet normal -0.982339 -0.187112 0
    outer loop
      vertex -2.6873 6.51253 11.99
      vertex -2.66542 6.39766 10
      vertex -2.66542 6.39766 11.99
    endloop
  endfacet
  facet normal -0.980588 0.196082 0
    outer loop
      vertex -2.6873 6.51253 10
      vertex -2.66542 6.62195 11.99
      vertex -2.66542 6.62195 10
    endloop
  endfacet
  facet normal -0.980588 0.196082 0
    outer loop
      vertex -2.66542 6.62195 11.99
      vertex -2.6873 6.51253 10
      vertex -2.6873 6.51253 11.99
    endloop
  endfacet
  facet normal -0.765782 0.6431 0
    outer loop
      vertex -2.66542 6.62195 10
      vertex -2.59979 6.7001 11.99
      vertex -2.59979 6.7001 10
    endloop
  endfacet
  facet normal -0.765782 0.6431 0
    outer loop
      vertex -2.59979 6.7001 11.99
      vertex -2.66542 6.62195 10
      vertex -2.66542 6.62195 11.99
    endloop
  endfacet
  facet normal -0.394041 0.919093 0
    outer loop
      vertex -2.49042 6.74699 10
      vertex -2.59979 6.7001 11.99
      vertex -2.49042 6.74699 11.99
    endloop
  endfacet
  facet normal -0.394041 0.919093 0
    outer loop
      vertex -2.59979 6.7001 11.99
      vertex -2.49042 6.74699 10
      vertex -2.59979 6.7001 10
    endloop
  endfacet
  facet normal -0.101613 0.994824 0
    outer loop
      vertex -2.3373 6.76263 10
      vertex -2.49042 6.74699 11.99
      vertex -2.3373 6.76263 11.99
    endloop
  endfacet
  facet normal -0.101613 0.994824 0
    outer loop
      vertex -2.49042 6.74699 11.99
      vertex -2.3373 6.76263 10
      vertex -2.49042 6.74699 10
    endloop
  endfacet
  facet normal 0 1 -0
    outer loop
      vertex -1.41237 6.76263 10
      vertex -2.3373 6.76263 11.99
      vertex -1.41237 6.76263 11.99
    endloop
  endfacet
  facet normal 0 1 0
    outer loop
      vertex -2.3373 6.76263 11.99
      vertex -1.41237 6.76263 10
      vertex -2.3373 6.76263 10
    endloop
  endfacet
  facet normal -1 0 0
    outer loop
      vertex -1.41237 6.76263 10
      vertex -1.41237 12.7761 11.99
      vertex -1.41237 12.7761 10
    endloop
  endfacet
  facet normal -1 -0 0
    outer loop
      vertex -1.41237 12.7761 11.99
      vertex -1.41237 6.76263 10
      vertex -1.41237 6.76263 11.99
    endloop
  endfacet
  facet normal 0 -1 0
    outer loop
      vertex -1.51236 12.7761 10
      vertex -1.41237 12.7761 11.99
      vertex -1.51236 12.7761 11.99
    endloop
  endfacet
  facet normal 0 -1 -0
    outer loop
      vertex -1.41237 12.7761 11.99
      vertex -1.51236 12.7761 10
      vertex -1.41237 12.7761 10
    endloop
  endfacet
  facet normal 0.911823 -0.410584 0
    outer loop
      vertex -3.49973 8.36256 11.99
      vertex -1.51236 12.7761 10
      vertex -1.51236 12.7761 11.99
    endloop
  endfacet
  facet normal 0.911823 -0.410584 0
    outer loop
      vertex -1.51236 12.7761 10
      vertex -3.49973 8.36256 11.99
      vertex -3.49973 8.36256 10
    endloop
  endfacet
  facet normal -0.00017391 -1 0
    outer loop
      vertex -4.07474 8.36266 10
      vertex -3.49973 8.36256 11.99
      vertex -4.07474 8.36266 11.99
    endloop
  endfacet
  facet normal -0.00017391 -1 -0
    outer loop
      vertex -3.49973 8.36256 11.99
      vertex -4.07474 8.36266 10
      vertex -3.49973 8.36256 10
    endloop
  endfacet
  facet normal -0.913747 -0.406284 0
    outer loop
      vertex -4.07474 8.36266 10
      vertex -6.03711 12.7761 11.99
      vertex -6.03711 12.7761 10
    endloop
  endfacet
  facet normal -0.913747 -0.406284 0
    outer loop
      vertex -6.03711 12.7761 11.99
      vertex -4.07474 8.36266 10
      vertex -4.07474 8.36266 11.99
    endloop
  endfacet
  facet normal 0 -1 0
    outer loop
      vertex -6.13708 12.7761 10
      vertex -6.03711 12.7761 11.99
      vertex -6.13708 12.7761 11.99
    endloop
  endfacet
  facet normal 0 -1 -0
    outer loop
      vertex -6.03711 12.7761 11.99
      vertex -6.13708 12.7761 10
      vertex -6.03711 12.7761 10
    endloop
  endfacet
  facet normal 1 -0 0
    outer loop
      vertex -6.13708 6.76263 11.99
      vertex -6.13708 12.7761 10
      vertex -6.13708 12.7761 11.99
    endloop
  endfacet
  facet normal 1 0 0
    outer loop
      vertex -6.13708 12.7761 10
      vertex -6.13708 6.76263 11.99
      vertex -6.13708 6.76263 10
    endloop
  endfacet
  facet normal 0 1 -0
    outer loop
      vertex -5.21216 6.76263 10
      vertex -6.13708 6.76263 11.99
      vertex -5.21216 6.76263 11.99
    endloop
  endfacet
  facet normal 0 1 0
    outer loop
      vertex -6.13708 6.76263 11.99
      vertex -5.21216 6.76263 10
      vertex -6.13708 6.76263 10
    endloop
  endfacet
  facet normal 0.10533 0.994437 -0
    outer loop
      vertex -5.0645 6.74699 10
      vertex -5.21216 6.76263 11.99
      vertex -5.0645 6.74699 11.99
    endloop
  endfacet
  facet normal 0.10533 0.994437 0
    outer loop
      vertex -5.21216 6.76263 11.99
      vertex -5.0645 6.74699 10
      vertex -5.21216 6.76263 10
    endloop
  endfacet
  facet normal 0.406243 0.913765 -0
    outer loop
      vertex -4.95903 6.7001 10
      vertex -5.0645 6.74699 11.99
      vertex -4.95903 6.7001 11.99
    endloop
  endfacet
  facet normal 0.406243 0.913765 0
    outer loop
      vertex -5.0645 6.74699 11.99
      vertex -4.95903 6.7001 10
      vertex -5.0645 6.74699 10
    endloop
  endfacet
  facet normal 0.777168 0.629293 0
    outer loop
      vertex -4.89575 6.62195 11.99
      vertex -4.95903 6.7001 10
      vertex -4.95903 6.7001 11.99
    endloop
  endfacet
  facet normal 0.777168 0.629293 0
    outer loop
      vertex -4.95903 6.7001 10
      vertex -4.89575 6.62195 11.99
      vertex -4.89575 6.62195 10
    endloop
  endfacet
  facet normal 0.981927 0.18926 0
    outer loop
      vertex -4.87466 6.51253 11.99
      vertex -4.89575 6.62195 10
      vertex -4.89575 6.62195 11.99
    endloop
  endfacet
  facet normal 0.981927 0.18926 0
    outer loop
      vertex -4.89575 6.62195 10
      vertex -4.87466 6.51253 11.99
      vertex -4.87466 6.51253 10
    endloop
  endfacet
  facet normal 0.98356 -0.180581 0
    outer loop
      vertex -4.89575 6.39766 11.99
      vertex -4.87466 6.51253 10
      vertex -4.87466 6.51253 11.99
    endloop
  endfacet
  facet normal 0.98356 -0.180581 0
    outer loop
      vertex -4.87466 6.51253 10
      vertex -4.89575 6.39766 11.99
      vertex -4.89575 6.39766 10
    endloop
  endfacet
  facet normal 0.791784 -0.610802 0
    outer loop
      vertex -4.95903 6.31563 11.99
      vertex -4.89575 6.39766 10
      vertex -4.89575 6.39766 11.99
    endloop
  endfacet
  facet normal 0.791784 -0.610802 0
    outer loop
      vertex -4.89575 6.39766 10
      vertex -4.95903 6.31563 11.99
      vertex -4.95903 6.31563 10
    endloop
  endfacet
  facet normal 0.422961 -0.906148 0
    outer loop
      vertex -5.0645 6.2664 10
      vertex -4.95903 6.31563 11.99
      vertex -5.0645 6.2664 11.99
    endloop
  endfacet
  facet normal 0.422961 -0.906148 0
    outer loop
      vertex -4.95903 6.31563 11.99
      vertex -5.0645 6.2664 10
      vertex -4.95903 6.31563 10
    endloop
  endfacet
  facet normal 0.110387 -0.993889 0
    outer loop
      vertex -5.21216 6.25 10
      vertex -5.0645 6.2664 11.99
      vertex -5.21216 6.25 11.99
    endloop
  endfacet
  facet normal 0.110387 -0.993889 0
    outer loop
      vertex -5.0645 6.2664 11.99
      vertex -5.21216 6.25 10
      vertex -5.0645 6.2664 10
    endloop
  endfacet
  facet normal 0 -1 0
    outer loop
      vertex -7.07454 6.25 10
      vertex -5.21216 6.25 11.99
      vertex -7.07454 6.25 11.99
    endloop
  endfacet
  facet normal 0 -1 -0
    outer loop
      vertex -5.21216 6.25 11.99
      vertex -7.07454 6.25 10
      vertex -5.21216 6.25 10
    endloop
  endfacet
  facet normal -0.110402 -0.993887 0
    outer loop
      vertex -7.22218 6.2664 10
      vertex -7.07454 6.25 11.99
      vertex -7.22218 6.2664 11.99
    endloop
  endfacet
  facet normal -0.110402 -0.993887 -0
    outer loop
      vertex -7.07454 6.25 11.99
      vertex -7.22218 6.2664 10
      vertex -7.07454 6.25 10
    endloop
  endfacet
  facet normal -0.422961 -0.906148 0
    outer loop
      vertex -7.32765 6.31563 10
      vertex -7.22218 6.2664 11.99
      vertex -7.32765 6.31563 11.99
    endloop
  endfacet
  facet normal -0.422961 -0.906148 -0
    outer loop
      vertex -7.22218 6.2664 11.99
      vertex -7.32765 6.31563 10
      vertex -7.22218 6.2664 10
    endloop
  endfacet
  facet normal -0.79169 -0.610923 0
    outer loop
      vertex -7.32765 6.31563 10
      vertex -7.39095 6.39766 11.99
      vertex -7.39095 6.39766 10
    endloop
  endfacet
  facet normal -0.79169 -0.610923 0
    outer loop
      vertex -7.39095 6.39766 11.99
      vertex -7.32765 6.31563 10
      vertex -7.32765 6.31563 11.99
    endloop
  endfacet
  facet normal -0.983575 -0.180498 0
    outer loop
      vertex -7.39095 6.39766 10
      vertex -7.41203 6.51253 11.99
      vertex -7.41203 6.51253 10
    endloop
  endfacet
  facet normal -0.983575 -0.180498 0
    outer loop
      vertex -7.41203 6.51253 11.99
      vertex -7.39095 6.39766 10
      vertex -7.39095 6.39766 11.99
    endloop
  endfacet
  facet normal -0.981944 0.189174 0
    outer loop
      vertex -7.41203 6.51253 10
      vertex -7.39095 6.62195 11.99
      vertex -7.39095 6.62195 10
    endloop
  endfacet
  facet normal -0.981944 0.189174 0
    outer loop
      vertex -7.39095 6.62195 11.99
      vertex -7.41203 6.51253 10
      vertex -7.41203 6.51253 11.99
    endloop
  endfacet
  facet normal -0.777071 0.629413 0
    outer loop
      vertex -7.39095 6.62195 10
      vertex -7.32765 6.7001 11.99
      vertex -7.32765 6.7001 10
    endloop
  endfacet
  facet normal -0.777071 0.629413 0
    outer loop
      vertex -7.32765 6.7001 11.99
      vertex -7.39095 6.62195 10
      vertex -7.39095 6.62195 11.99
    endloop
  endfacet
  facet normal -0.406243 0.913765 0
    outer loop
      vertex -7.22218 6.74699 10
      vertex -7.32765 6.7001 11.99
      vertex -7.22218 6.74699 11.99
    endloop
  endfacet
  facet normal -0.406243 0.913765 0
    outer loop
      vertex -7.32765 6.7001 11.99
      vertex -7.22218 6.74699 10
      vertex -7.32765 6.7001 10
    endloop
  endfacet
  facet normal -0.105344 0.994436 0
    outer loop
      vertex -7.07454 6.76263 10
      vertex -7.22218 6.74699 11.99
      vertex -7.07454 6.76263 11.99
    endloop
  endfacet
  facet normal -0.105344 0.994436 0
    outer loop
      vertex -7.22218 6.74699 11.99
      vertex -7.07454 6.76263 10
      vertex -7.22218 6.74699 10
    endloop
  endfacet
  facet normal 0 1 -0
    outer loop
      vertex -6.64955 6.76263 10
      vertex -7.07454 6.76263 11.99
      vertex -6.64955 6.76263 11.99
    endloop
  endfacet
  facet normal 0 1 0
    outer loop
      vertex -7.07454 6.76263 11.99
      vertex -6.64955 6.76263 10
      vertex -7.07454 6.76263 10
    endloop
  endfacet
  facet normal -1 0 0
    outer loop
      vertex -6.64955 6.76263 10
      vertex -6.64955 12.7761 11.99
      vertex -6.64955 12.7761 10
    endloop
  endfacet
  facet normal -1 -0 0
    outer loop
      vertex -6.64955 12.7761 11.99
      vertex -6.64955 6.76263 10
      vertex -6.64955 6.76263 11.99
    endloop
  endfacet
  facet normal 0 -1 0
    outer loop
      vertex -6.96204 12.7761 10
      vertex -6.64955 12.7761 11.99
      vertex -6.96204 12.7761 11.99
    endloop
  endfacet
  facet normal 0 -1 -0
    outer loop
      vertex -6.64955 12.7761 11.99
      vertex -6.96204 12.7761 10
      vertex -6.64955 12.7761 10
    endloop
  endfacet
  facet normal -0.110387 -0.993889 0
    outer loop
      vertex -7.1097 12.7925 10
      vertex -6.96204 12.7761 11.99
      vertex -7.1097 12.7925 11.99
    endloop
  endfacet
  facet normal -0.110387 -0.993889 -0
    outer loop
      vertex -6.96204 12.7761 11.99
      vertex -7.1097 12.7925 10
      vertex -6.96204 12.7761 10
    endloop
  endfacet
  facet normal -0.422782 -0.906231 0
    outer loop
      vertex -7.21516 12.8417 10
      vertex -7.1097 12.7925 11.99
      vertex -7.21516 12.8417 11.99
    endloop
  endfacet
  facet normal -0.422782 -0.906231 -0
    outer loop
      vertex -7.1097 12.7925 11.99
      vertex -7.21516 12.8417 10
      vertex -7.1097 12.7925 10
    endloop
  endfacet
  facet normal -0.792035 -0.610475 0
    outer loop
      vertex -7.21516 12.8417 10
      vertex -7.27844 12.9238 11.99
      vertex -7.27844 12.9238 10
    endloop
  endfacet
  facet normal -0.792035 -0.610475 0
    outer loop
      vertex -7.27844 12.9238 11.99
      vertex -7.21516 12.8417 10
      vertex -7.21516 12.8417 11.99
    endloop
  endfacet
  facet normal -0.983541 -0.180687 0
    outer loop
      vertex -7.27844 12.9238 10
      vertex -7.29953 13.0386 11.99
      vertex -7.29953 13.0386 10
    endloop
  endfacet
  facet normal -0.983541 -0.180687 0
    outer loop
      vertex -7.29953 13.0386 11.99
      vertex -7.27844 12.9238 10
      vertex -7.27844 12.9238 11.99
    endloop
  endfacet
  facet normal -0.981921 0.189293 0
    outer loop
      vertex -7.29953 13.0386 10
      vertex -7.27844 13.148 11.99
      vertex -7.27844 13.148 10
    endloop
  endfacet
  facet normal -0.981921 0.189293 0
    outer loop
      vertex -7.27844 13.148 11.99
      vertex -7.29953 13.0386 10
      vertex -7.29953 13.0386 11.99
    endloop
  endfacet
  facet normal -0.777365 0.62905 0
    outer loop
      vertex -7.27844 13.148 10
      vertex -7.21516 13.2262 11.99
      vertex -7.21516 13.2262 10
    endloop
  endfacet
  facet normal -0.777365 0.62905 0
    outer loop
      vertex -7.21516 13.2262 11.99
      vertex -7.27844 13.148 10
      vertex -7.27844 13.148 11.99
    endloop
  endfacet
  facet normal -0.406347 0.913719 0
    outer loop
      vertex -7.1097 13.2731 10
      vertex -7.21516 13.2262 11.99
      vertex -7.1097 13.2731 11.99
    endloop
  endfacet
  facet normal -0.406347 0.913719 0
    outer loop
      vertex -7.21516 13.2262 11.99
      vertex -7.1097 13.2731 10
      vertex -7.21516 13.2262 10
    endloop
  endfacet
  facet normal -0.105063 0.994466 0
    outer loop
      vertex -6.96204 13.2887 10
      vertex -7.1097 13.2731 11.99
      vertex -6.96204 13.2887 11.99
    endloop
  endfacet
  facet normal -0.105063 0.994466 0
    outer loop
      vertex -7.1097 13.2731 11.99
      vertex -6.96204 13.2887 10
      vertex -7.1097 13.2731 10
    endloop
  endfacet
  facet normal 0 1 -0
    outer loop
      vertex -5.71211 13.2887 10
      vertex -6.96204 13.2887 11.99
      vertex -5.71211 13.2887 11.99
    endloop
  endfacet
  facet normal 0 1 0
    outer loop
      vertex -6.96204 13.2887 11.99
      vertex -5.71211 13.2887 10
      vertex -6.96204 13.2887 10
    endloop
  endfacet
  facet normal 0.914661 0.404222 0
    outer loop
      vertex -3.78728 8.93326 11.99
      vertex -5.71211 13.2887 10
      vertex -5.71211 13.2887 11.99
    endloop
  endfacet
  facet normal 0.914661 0.404222 0
    outer loop
      vertex -5.71211 13.2887 10
      vertex -3.78728 8.93326 11.99
      vertex -3.78728 8.93326 10
    endloop
  endfacet
  facet normal -0.911725 0.4108 0
    outer loop
      vertex -3.78728 8.93326 10
      vertex -1.82483 13.2887 11.99
      vertex -1.82483 13.2887 10
    endloop
  endfacet
  facet normal -0.911725 0.4108 0
    outer loop
      vertex -1.82483 13.2887 11.99
      vertex -3.78728 8.93326 10
      vertex -3.78728 8.93326 11.99
    endloop
  endfacet
  facet normal 0 1 -0
    outer loop
      vertex -0.587509 13.2887 10
      vertex -1.82483 13.2887 11.99
      vertex -0.587509 13.2887 11.99
    endloop
  endfacet
  facet normal 0 1 0
    outer loop
      vertex -1.82483 13.2887 11.99
      vertex -0.587509 13.2887 10
      vertex -1.82483 13.2887 10
    endloop
  endfacet
  facet normal 0.105064 0.994465 -0
    outer loop
      vertex -0.43985 13.2731 10
      vertex -0.587509 13.2887 11.99
      vertex -0.43985 13.2731 11.99
    endloop
  endfacet
  facet normal 0.105064 0.994465 0
    outer loop
      vertex -0.587509 13.2887 11.99
      vertex -0.43985 13.2731 10
      vertex -0.587509 13.2887 10
    endloop
  endfacet
  facet normal 0.406319 0.913732 -0
    outer loop
      vertex -0.334381 13.2262 10
      vertex -0.43985 13.2731 11.99
      vertex -0.334381 13.2262 11.99
    endloop
  endfacet
  facet normal 0.406319 0.913732 0
    outer loop
      vertex -0.43985 13.2731 11.99
      vertex -0.334381 13.2262 10
      vertex -0.43985 13.2731 10
    endloop
  endfacet
  facet normal 0.777375 0.629038 0
    outer loop
      vertex -0.271103 13.148 11.99
      vertex -0.334381 13.2262 10
      vertex -0.334381 13.2262 11.99
    endloop
  endfacet
  facet normal 0.777375 0.629038 0
    outer loop
      vertex -0.334381 13.2262 10
      vertex -0.271103 13.148 11.99
      vertex -0.271103 13.148 10
    endloop
  endfacet
  facet normal 0.981924 0.189276 0
    outer loop
      vertex -0.250015 13.0386 11.99
      vertex -0.271103 13.148 10
      vertex -0.271103 13.148 11.99
    endloop
  endfacet
  facet normal 0.981924 0.189276 0
    outer loop
      vertex -0.271103 13.148 10
      vertex -0.250015 13.0386 11.99
      vertex -0.250015 13.0386 10
    endloop
  endfacet
  facet normal 0.983544 -0.18067 0
    outer loop
      vertex -0.271103 12.9238 11.99
      vertex -0.250015 13.0386 10
      vertex -0.250015 13.0386 11.99
    endloop
  endfacet
  facet normal 0.983544 -0.18067 0
    outer loop
      vertex -0.250015 13.0386 10
      vertex -0.271103 12.9238 11.99
      vertex -0.271103 12.9238 10
    endloop
  endfacet
  facet normal 0.792115 -0.610372 0
    outer loop
      vertex -0.334366 12.8417 11.99
      vertex -0.271103 12.9238 10
      vertex -0.271103 12.9238 11.99
    endloop
  endfacet
  facet normal 0.792115 -0.610372 0
    outer loop
      vertex -0.271103 12.9238 10
      vertex -0.334366 12.8417 11.99
      vertex -0.334366 12.8417 10
    endloop
  endfacet
  facet normal 0.422854 -0.906198 0
    outer loop
      vertex -0.439804 12.7925 10
      vertex -0.334366 12.8417 11.99
      vertex -0.439804 12.7925 11.99
    endloop
  endfacet
  facet normal 0.422854 -0.906198 0
    outer loop
      vertex -0.334366 12.8417 11.99
      vertex -0.439804 12.7925 10
      vertex -0.334366 12.8417 10
    endloop
  endfacet
  facet normal 0.110421 -0.993885 0
    outer loop
      vertex -0.587418 12.7761 10
      vertex -0.439804 12.7925 11.99
      vertex -0.587418 12.7761 11.99
    endloop
  endfacet
  facet normal 0.110421 -0.993885 0
    outer loop
      vertex -0.439804 12.7925 11.99
      vertex -0.587418 12.7761 10
      vertex -0.439804 12.7925 10
    endloop
  endfacet
  facet normal 0 -1 0
    outer loop
      vertex -0.899902 12.7761 10
      vertex -0.587418 12.7761 11.99
      vertex -0.899902 12.7761 11.99
    endloop
  endfacet
  facet normal 0 -1 -0
    outer loop
      vertex -0.587418 12.7761 11.99
      vertex -0.899902 12.7761 10
      vertex -0.587418 12.7761 10
    endloop
  endfacet
  facet normal 1 -0 0
    outer loop
      vertex -0.899902 6.76263 11.99
      vertex -0.899902 12.7761 10
      vertex -0.899902 12.7761 11.99
    endloop
  endfacet
  facet normal 1 0 0
    outer loop
      vertex -0.899902 12.7761 10
      vertex -0.899902 6.76263 11.99
      vertex -0.899902 6.76263 10
    endloop
  endfacet
  facet normal 0 1 -0
    outer loop
      vertex -0.47493 6.76263 10
      vertex -0.899902 6.76263 11.99
      vertex -0.47493 6.76263 11.99
    endloop
  endfacet
  facet normal 0 1 0
    outer loop
      vertex -0.899902 6.76263 11.99
      vertex -0.47493 6.76263 10
      vertex -0.899902 6.76263 10
    endloop
  endfacet
  facet normal 0.105352 0.994435 -0
    outer loop
      vertex -0.327301 6.74699 10
      vertex -0.47493 6.76263 11.99
      vertex -0.327301 6.74699 11.99
    endloop
  endfacet
  facet normal 0.105352 0.994435 0
    outer loop
      vertex -0.47493 6.76263 11.99
      vertex -0.327301 6.74699 10
      vertex -0.47493 6.76263 10
    endloop
  endfacet
  facet normal 0.406346 0.913719 -0
    outer loop
      vertex -0.221863 6.7001 10
      vertex -0.327301 6.74699 11.99
      vertex -0.221863 6.7001 11.99
    endloop
  endfacet
  facet normal 0.406346 0.913719 0
    outer loop
      vertex -0.327301 6.74699 11.99
      vertex -0.221863 6.7001 10
      vertex -0.327301 6.74699 10
    endloop
  endfacet
  facet normal 0.777251 0.629191 0
    outer loop
      vertex -0.1586 6.62195 11.99
      vertex -0.221863 6.7001 10
      vertex -0.221863 6.7001 11.99
    endloop
  endfacet
  facet normal 0.777251 0.629191 0
    outer loop
      vertex -0.221863 6.7001 10
      vertex -0.1586 6.62195 11.99
      vertex -0.1586 6.62195 10
    endloop
  endfacet
  facet normal 0.98193 0.189243 0
    outer loop
      vertex -0.137512 6.51253 11.99
      vertex -0.1586 6.62195 10
      vertex -0.1586 6.62195 11.99
    endloop
  endfacet
  facet normal 0.98193 0.189243 0
    outer loop
      vertex -0.1586 6.62195 10
      vertex -0.137512 6.51253 11.99
      vertex -0.137512 6.51253 10
    endloop
  endfacet
  facet normal 0.983563 -0.180564 0
    outer loop
      vertex -0.1586 6.39766 11.99
      vertex -0.137512 6.51253 10
      vertex -0.137512 6.51253 11.99
    endloop
  endfacet
  facet normal 0.983563 -0.180564 0
    outer loop
      vertex -0.137512 6.51253 10
      vertex -0.1586 6.39766 11.99
      vertex -0.1586 6.39766 10
    endloop
  endfacet
  facet normal 0.791723 -0.61088 0
    outer loop
      vertex -0.221893 6.31563 11.99
      vertex -0.1586 6.39766 10
      vertex -0.1586 6.39766 11.99
    endloop
  endfacet
  facet normal 0.791723 -0.61088 0
    outer loop
      vertex -0.1586 6.39766 10
      vertex -0.221893 6.31563 11.99
      vertex -0.221893 6.31563 10
    endloop
  endfacet
  facet normal 0.422964 -0.906146 0
    outer loop
      vertex -0.327362 6.2664 10
      vertex -0.221893 6.31563 11.99
      vertex -0.327362 6.2664 11.99
    endloop
  endfacet
  facet normal 0.422964 -0.906146 0
    outer loop
      vertex -0.221893 6.31563 11.99
      vertex -0.327362 6.2664 10
      vertex -0.221893 6.31563 10
    endloop
  endfacet
  facet normal 0.110399 -0.993887 0
    outer loop
      vertex -0.475006 6.25 10
      vertex -0.327362 6.2664 11.99
      vertex -0.475006 6.25 11.99
    endloop
  endfacet
  facet normal 0.110399 -0.993887 0
    outer loop
      vertex -0.327362 6.2664 11.99
      vertex -0.475006 6.25 10
      vertex -0.327362 6.2664 10
    endloop
  endfacet
  facet normal 0 -1 0
    outer loop
      vertex -2.3373 6.25 10
      vertex -0.475006 6.25 11.99
      vertex -2.3373 6.25 11.99
    endloop
  endfacet
  facet normal 0 -1 -0
    outer loop
      vertex -0.475006 6.25 11.99
      vertex -2.3373 6.25 10
      vertex -0.475006 6.25 10
    endloop
  endfacet
  facet normal -0.106496 -0.994313 0
    outer loop
      vertex -2.49042 6.2664 10
      vertex -2.3373 6.25 11.99
      vertex -2.49042 6.2664 11.99
    endloop
  endfacet
  facet normal -0.106496 -0.994313 -0
    outer loop
      vertex -2.3373 6.25 11.99
      vertex -2.49042 6.2664 10
      vertex -2.3373 6.25 10
    endloop
  endfacet
endsolid OpenSCAD_Model
