solid OpenSCAD_Model
  facet normal 0 0 1
    outer loop
      vertex -3.69973 8.36256 10
      vertex -1.61237 12.7761 10
      vertex -1.71236 12.7761 10
    endloop
  endfacet
  facet normal 0 0 1
    outer loop
      vertex -1.61237 12.7761 10
      vertex -3.69973 8.36256 10
      vertex -1.61237 6.76263 10
    endloop
  endfacet
  facet normal 0 0 1
    outer loop
      vertex -1.61237 6.76263 10
      vertex -3.69973 8.36256 10
      vertex -2.5373 6.76263 10
    endloop
  endfacet
  facet normal 0 0 1
    outer loop
      vertex -2.5373 6.76263 10
      vertex -3.69973 8.36256 10
      vertex -2.69042 6.74699 10
    endloop
  endfacet
  facet normal 0 0 1
    outer loop
      vertex -2.69042 6.74699 10
      vertex -3.69973 8.36256 10
      vertex -2.79979 6.7001 10
    endloop
  endfacet
  facet normal 0 0 1
    outer loop
      vertex -2.79979 6.7001 10
      vertex -3.69973 8.36256 10
      vertex -2.86542 6.62195 10
    endloop
  endfacet
  facet normal 0 0 1
    outer loop
      vertex -5.09575 6.62195 10
      vertex -2.86542 6.62195 10
      vertex -3.69973 8.36256 10
    endloop
  endfacet
  facet normal 0 0 1
    outer loop
      vertex 0 14.5 10
      vertex -0.337512 6.51253 10
      vertex 0 2.5 10
    endloop
  endfacet
  facet normal 0 0 1
    outer loop
      vertex 0 14.5 10
      vertex -0.3586 6.62195 10
      vertex -0.337512 6.51253 10
    endloop
  endfacet
  facet normal -0 0 1
    outer loop
      vertex -0.471103 12.9238 10
      vertex -0.3586 6.62195 10
      vertex 0 14.5 10
    endloop
  endfacet
  facet normal 0 0 1
    outer loop
      vertex -0.471103 12.9238 10
      vertex 0 14.5 10
      vertex -0.450015 13.0386 10
    endloop
  endfacet
  facet normal 0 0 1
    outer loop
      vertex 0 14.5 10
      vertex -0.471103 13.148 10
      vertex -0.450015 13.0386 10
    endloop
  endfacet
  facet normal 0 0 1
    outer loop
      vertex 0 14.5 10
      vertex -0.534381 13.2262 10
      vertex -0.471103 13.148 10
    endloop
  endfacet
  facet normal 0 0 1
    outer loop
      vertex 0 14.5 10
      vertex -0.63985 13.2731 10
      vertex -0.534381 13.2262 10
    endloop
  endfacet
  facet normal 0 0 1
    outer loop
      vertex 0 14.5 10
      vertex -0.787509 13.2887 10
      vertex -0.63985 13.2731 10
    endloop
  endfacet
  facet normal 0 0 1
    outer loop
      vertex 0 14.5 10
      vertex -2.02483 13.2887 10
      vertex -0.787509 13.2887 10
    endloop
  endfacet
  facet normal 0 0 1
    outer loop
      vertex -2.02483 13.2887 10
      vertex -5.91211 13.2887 10
      vertex -3.98728 8.93326 10
    endloop
  endfacet
  facet normal 0 0 1
    outer loop
      vertex 0 14.5 10
      vertex -5.91211 13.2887 10
      vertex -2.02483 13.2887 10
    endloop
  endfacet
  facet normal -0 0 1
    outer loop
      vertex -8 14.5 10
      vertex -5.91211 13.2887 10
      vertex 0 14.5 10
    endloop
  endfacet
  facet normal 0 0 1
    outer loop
      vertex -5.91211 13.2887 10
      vertex -8 14.5 10
      vertex -7.16204 13.2887 10
    endloop
  endfacet
  facet normal 0 0 1
    outer loop
      vertex -7.47844 12.9238 10
      vertex -7.59095 6.62195 10
      vertex -7.52765 6.7001 10
    endloop
  endfacet
  facet normal 0 0 1
    outer loop
      vertex -7.47844 12.9238 10
      vertex -8 14.5 10
      vertex -7.59095 6.62195 10
    endloop
  endfacet
  facet normal 0 0 1
    outer loop
      vertex -7.59095 6.62195 10
      vertex -8 14.5 10
      vertex -7.61203 6.51253 10
    endloop
  endfacet
  facet normal 0 0 1
    outer loop
      vertex -7.47844 13.148 10
      vertex -8 14.5 10
      vertex -7.49953 13.0386 10
    endloop
  endfacet
  facet normal 0 0 1
    outer loop
      vertex -7.41516 13.2262 10
      vertex -8 14.5 10
      vertex -7.47844 13.148 10
    endloop
  endfacet
  facet normal 0 0 1
    outer loop
      vertex -7.3097 13.2731 10
      vertex -8 14.5 10
      vertex -7.41516 13.2262 10
    endloop
  endfacet
  facet normal 0 0 1
    outer loop
      vertex -7.16204 13.2887 10
      vertex -8 14.5 10
      vertex -7.3097 13.2731 10
    endloop
  endfacet
  facet normal -0 0 1
    outer loop
      vertex -0.3586 6.39766 10
      vertex 0 2.5 10
      vertex -0.337512 6.51253 10
    endloop
  endfacet
  facet normal -0 0 1
    outer loop
      vertex -0.421893 6.31563 10
      vertex 0 2.5 10
      vertex -0.3586 6.39766 10
    endloop
  endfacet
  facet normal -0 0 1
    outer loop
      vertex -0.527362 6.2664 10
      vertex 0 2.5 10
      vertex -0.421893 6.31563 10
    endloop
  endfacet
  facet normal -0 0 1
    outer loop
      vertex -0.675006 6.25 10
      vertex 0 2.5 10
      vertex -0.527362 6.2664 10
    endloop
  endfacet
  facet normal -0 0 1
    outer loop
      vertex -2.5373 6.25 10
      vertex 0 2.5 10
      vertex -0.675006 6.25 10
    endloop
  endfacet
  facet normal 0 0 1
    outer loop
      vertex -2.69042 6.2664 10
      vertex 0 2.5 10
      vertex -2.5373 6.25 10
    endloop
  endfacet
  facet normal 0 0 1
    outer loop
      vertex -5.2645 6.2664 10
      vertex -2.69042 6.2664 10
      vertex -2.79979 6.31563 10
    endloop
  endfacet
  facet normal 0 0 1
    outer loop
      vertex -5.15903 6.31563 10
      vertex -2.79979 6.31563 10
      vertex -2.86542 6.39766 10
    endloop
  endfacet
  facet normal 0 0 1
    outer loop
      vertex -2.86542 6.62195 10
      vertex -5.09575 6.62195 10
      vertex -2.8873 6.51253 10
    endloop
  endfacet
  facet normal 0 0 1
    outer loop
      vertex -5.09575 6.62195 10
      vertex -3.69973 8.36256 10
      vertex -4.27474 8.36266 10
    endloop
  endfacet
  facet normal 0 -0 1
    outer loop
      vertex -5.07466 6.51253 10
      vertex -2.8873 6.51253 10
      vertex -5.09575 6.62195 10
    endloop
  endfacet
  facet normal 0 0 1
    outer loop
      vertex -5.09575 6.39766 10
      vertex -2.86542 6.39766 10
      vertex -5.07466 6.51253 10
    endloop
  endfacet
  facet normal 0 0 1
    outer loop
      vertex -5.15903 6.31563 10
      vertex -2.86542 6.39766 10
      vertex -5.09575 6.39766 10
    endloop
  endfacet
  facet normal 0 0 1
    outer loop
      vertex -2.79979 6.31563 10
      vertex -5.15903 6.31563 10
      vertex -5.2645 6.2664 10
    endloop
  endfacet
  facet normal 0 0 1
    outer loop
      vertex -2.69042 6.2664 10
      vertex -5.2645 6.2664 10
      vertex 0 2.5 10
    endloop
  endfacet
  facet normal 0 0 1
    outer loop
      vertex -8 2.5 10
      vertex -5.2645 6.2664 10
      vertex -5.41216 6.25 10
    endloop
  endfacet
  facet normal 0 0 1
    outer loop
      vertex -8 2.5 10
      vertex -5.41216 6.25 10
      vertex -7.27454 6.25 10
    endloop
  endfacet
  facet normal 0 0 1
    outer loop
      vertex -8 2.5 10
      vertex -7.27454 6.25 10
      vertex -7.42218 6.2664 10
    endloop
  endfacet
  facet normal 0 0 1
    outer loop
      vertex -8 2.5 10
      vertex -7.42218 6.2664 10
      vertex -7.52765 6.31563 10
    endloop
  endfacet
  facet normal 0 0 1
    outer loop
      vertex -5.2645 6.2664 10
      vertex -8 2.5 10
      vertex 0 2.5 10
    endloop
  endfacet
  facet normal 0 0 1
    outer loop
      vertex -7.59095 6.39766 10
      vertex -8 2.5 10
      vertex -7.52765 6.31563 10
    endloop
  endfacet
  facet normal 0 0 1
    outer loop
      vertex -7.61203 6.51253 10
      vertex -8 2.5 10
      vertex -7.59095 6.39766 10
    endloop
  endfacet
  facet normal 0 0 1
    outer loop
      vertex -8 2.5 10
      vertex -7.61203 6.51253 10
      vertex -8 14.5 10
    endloop
  endfacet
  facet normal 0 0 1
    outer loop
      vertex -0.3586 6.62195 10
      vertex -0.471103 12.9238 10
      vertex -0.421863 6.7001 10
    endloop
  endfacet
  facet normal -0 0 1
    outer loop
      vertex -0.534366 12.8417 10
      vertex -0.421863 6.7001 10
      vertex -0.471103 12.9238 10
    endloop
  endfacet
  facet normal 0 0 1
    outer loop
      vertex -0.421863 6.7001 10
      vertex -0.534366 12.8417 10
      vertex -0.527301 6.74699 10
    endloop
  endfacet
  facet normal -0 0 1
    outer loop
      vertex -0.639804 12.7925 10
      vertex -0.527301 6.74699 10
      vertex -0.534366 12.8417 10
    endloop
  endfacet
  facet normal 0 0 1
    outer loop
      vertex -0.639804 12.7925 10
      vertex -0.67493 6.76263 10
      vertex -0.527301 6.74699 10
    endloop
  endfacet
  facet normal -0 0 1
    outer loop
      vertex -0.787417 12.7761 10
      vertex -0.67493 6.76263 10
      vertex -0.639804 12.7925 10
    endloop
  endfacet
  facet normal 0 0 1
    outer loop
      vertex -1.0999 6.76263 10
      vertex -0.787417 12.7761 10
      vertex -1.0999 12.7761 10
    endloop
  endfacet
  facet normal 0 0 1
    outer loop
      vertex -0.787417 12.7761 10
      vertex -1.0999 6.76263 10
      vertex -0.67493 6.76263 10
    endloop
  endfacet
  facet normal 0 0 1
    outer loop
      vertex -2.8873 6.51253 10
      vertex -5.07466 6.51253 10
      vertex -2.86542 6.39766 10
    endloop
  endfacet
  facet normal 0 0 1
    outer loop
      vertex -4.27474 8.36266 10
      vertex -5.15903 6.7001 10
      vertex -5.09575 6.62195 10
    endloop
  endfacet
  facet normal 0 0 1
    outer loop
      vertex -4.27474 8.36266 10
      vertex -5.2645 6.74699 10
      vertex -5.15903 6.7001 10
    endloop
  endfacet
  facet normal 0 0 1
    outer loop
      vertex -4.27474 8.36266 10
      vertex -5.41216 6.76263 10
      vertex -5.2645 6.74699 10
    endloop
  endfacet
  facet normal -0 0 1
    outer loop
      vertex -6.33708 12.7761 10
      vertex -4.27474 8.36266 10
      vertex -6.23711 12.7761 10
    endloop
  endfacet
  facet normal 0 0 1
    outer loop
      vertex -4.27474 8.36266 10
      vertex -6.33708 12.7761 10
      vertex -6.33708 6.76263 10
    endloop
  endfacet
  facet normal 0 0 1
    outer loop
      vertex -4.27474 8.36266 10
      vertex -6.33708 6.76263 10
      vertex -5.41216 6.76263 10
    endloop
  endfacet
  facet normal -0 0 1
    outer loop
      vertex -7.16204 12.7761 10
      vertex -6.84955 6.76263 10
      vertex -6.84955 12.7761 10
    endloop
  endfacet
  facet normal 0 0 1
    outer loop
      vertex -7.16204 12.7761 10
      vertex -7.27454 6.76263 10
      vertex -6.84955 6.76263 10
    endloop
  endfacet
  facet normal 0 0 1
    outer loop
      vertex -7.3097 12.7925 10
      vertex -7.27454 6.76263 10
      vertex -7.16204 12.7761 10
    endloop
  endfacet
  facet normal 0 0 1
    outer loop
      vertex -7.42218 6.74699 10
      vertex -7.3097 12.7925 10
      vertex -7.41516 12.8417 10
    endloop
  endfacet
  facet normal 0 0 1
    outer loop
      vertex -7.3097 12.7925 10
      vertex -7.42218 6.74699 10
      vertex -7.27454 6.76263 10
    endloop
  endfacet
  facet normal 0 0 1
    outer loop
      vertex -7.52765 6.7001 10
      vertex -7.41516 12.8417 10
      vertex -7.47844 12.9238 10
    endloop
  endfacet
  facet normal 0 0 1
    outer loop
      vertex -8 14.5 10
      vertex -7.47844 12.9238 10
      vertex -7.49953 13.0386 10
    endloop
  endfacet
  facet normal 0 0 1
    outer loop
      vertex -7.41516 12.8417 10
      vertex -7.52765 6.7001 10
      vertex -7.42218 6.74699 10
    endloop
  endfacet
  facet normal -1 0 0
    outer loop
      vertex -8 0 3
      vertex -8 17 3
      vertex -8 17 0
    endloop
  endfacet
  facet normal -1 0 0
    outer loop
      vertex -8 17 3
      vertex -8 0 3
      vertex -8 14.5 10
    endloop
  endfacet
  facet normal -1 0 0
    outer loop
      vertex -8 0 3
      vertex -8 17 0
      vertex -8 0 0
    endloop
  endfacet
  facet normal -1 -0 0
    outer loop
      vertex -8 14.5 10
      vertex -8 0 3
      vertex -8 2.5 10
    endloop
  endfacet
  facet normal 0 1 -0
    outer loop
      vertex 0 17 0
      vertex -8 17 3
      vertex 0 17 3
    endloop
  endfacet
  facet normal 0 1 0
    outer loop
      vertex -8 17 3
      vertex 0 17 0
      vertex -8 17 0
    endloop
  endfacet
  facet normal 0 0 -1
    outer loop
      vertex -8 0 0
      vertex 0 17 0
      vertex 0 0 0
    endloop
  endfacet
  facet normal -0 0 -1
    outer loop
      vertex 0 17 0
      vertex -8 0 0
      vertex -8 17 0
    endloop
  endfacet
  facet normal 1 0 0
    outer loop
      vertex 0 0 3
      vertex 0 17 3
      vertex 0 14.5 10
    endloop
  endfacet
  facet normal 1 0 0
    outer loop
      vertex 0 0 3
      vertex 0 14.5 10
      vertex 0 2.5 10
    endloop
  endfacet
  facet normal 1 0 0
    outer loop
      vertex 0 17 3
      vertex 0 0 3
      vertex 0 17 0
    endloop
  endfacet
  facet normal 1 0 0
    outer loop
      vertex 0 17 0
      vertex 0 0 3
      vertex 0 0 0
    endloop
  endfacet
  facet normal 0 -0.941742 0.336336
    outer loop
      vertex -8 0 3
      vertex 0 2.5 10
      vertex -8 2.5 10
    endloop
  endfacet
  facet normal 0 -0.941742 0.336336
    outer loop
      vertex 0 2.5 10
      vertex -8 0 3
      vertex 0 0 3
    endloop
  endfacet
  facet normal 0 -1 0
    outer loop
      vertex -8 0 0
      vertex 0 0 3
      vertex -8 0 3
    endloop
  endfacet
  facet normal 0 -1 -0
    outer loop
      vertex 0 0 3
      vertex -8 0 0
      vertex 0 0 0
    endloop
  endfacet
  facet normal 0 0.941742 0.336336
    outer loop
      vertex 0 17 3
      vertex -8 14.5 10
      vertex 0 14.5 10
    endloop
  endfacet
  facet normal 0 0.941742 0.336336
    outer loop
      vertex -8 14.5 10
      vertex 0 17 3
      vertex -8 17 3
    endloop
  endfacet
  facet normal 0 0 1
    outer loop
      vertex -0.534381 13.2262 11.99
      vertex -0.450015 13.0386 11.99
      vertex -0.471103 13.148 11.99
    endloop
  endfacet
  facet normal 0 -0 1
    outer loop
      vertex -0.639804 12.7925 11.99
      vertex -0.450015 13.0386 11.99
      vertex -0.63985 13.2731 11.99
    endloop
  endfacet
  facet normal 0 0 1
    outer loop
      vertex -0.450015 13.0386 11.99
      vertex -0.534381 13.2262 11.99
      vertex -0.63985 13.2731 11.99
    endloop
  endfacet
  facet normal 0 0 1
    outer loop
      vertex -0.450015 13.0386 11.99
      vertex -0.639804 12.7925 11.99
      vertex -0.471103 12.9238 11.99
    endloop
  endfacet
  facet normal 0 0 1
    outer loop
      vertex -0.471103 12.9238 11.99
      vertex -0.639804 12.7925 11.99
      vertex -0.534366 12.8417 11.99
    endloop
  endfacet
  facet normal 0 0 1
    outer loop
      vertex -0.63985 13.2731 11.99
      vertex -0.787417 12.7761 11.99
      vertex -0.639804 12.7925 11.99
    endloop
  endfacet
  facet normal 0 0 1
    outer loop
      vertex -0.787509 13.2887 11.99
      vertex -0.787417 12.7761 11.99
      vertex -0.63985 13.2731 11.99
    endloop
  endfacet
  facet normal 0 0 1
    outer loop
      vertex -0.787509 13.2887 11.99
      vertex -1.0999 12.7761 11.99
      vertex -0.787417 12.7761 11.99
    endloop
  endfacet
  facet normal 0 0 1
    outer loop
      vertex -1.0999 12.7761 11.99
      vertex -1.61237 12.7761 11.99
      vertex -1.0999 6.76263 11.99
    endloop
  endfacet
  facet normal 0 0 1
    outer loop
      vertex -0.787509 13.2887 11.99
      vertex -1.61237 12.7761 11.99
      vertex -1.0999 12.7761 11.99
    endloop
  endfacet
  facet normal -0 0 1
    outer loop
      vertex -2.02483 13.2887 11.99
      vertex -1.61237 12.7761 11.99
      vertex -0.787509 13.2887 11.99
    endloop
  endfacet
  facet normal 0 0 1
    outer loop
      vertex -1.61237 12.7761 11.99
      vertex -2.02483 13.2887 11.99
      vertex -1.71236 12.7761 11.99
    endloop
  endfacet
  facet normal 0 0 1
    outer loop
      vertex -3.98728 8.93326 11.99
      vertex -1.71236 12.7761 11.99
      vertex -2.02483 13.2887 11.99
    endloop
  endfacet
  facet normal 0 0 1
    outer loop
      vertex -1.71236 12.7761 11.99
      vertex -3.98728 8.93326 11.99
      vertex -3.69973 8.36256 11.99
    endloop
  endfacet
  facet normal 0 0 1
    outer loop
      vertex -3.98728 8.93326 11.99
      vertex -4.27474 8.36266 11.99
      vertex -3.69973 8.36256 11.99
    endloop
  endfacet
  facet normal -0 0 1
    outer loop
      vertex -6.23711 12.7761 11.99
      vertex -3.98728 8.93326 11.99
      vertex -5.91211 13.2887 11.99
    endloop
  endfacet
  facet normal 0 0 1
    outer loop
      vertex -3.98728 8.93326 11.99
      vertex -6.23711 12.7761 11.99
      vertex -4.27474 8.36266 11.99
    endloop
  endfacet
  facet normal 0 0 1
    outer loop
      vertex -5.91211 13.2887 11.99
      vertex -6.33708 12.7761 11.99
      vertex -6.23711 12.7761 11.99
    endloop
  endfacet
  facet normal 0 0 1
    outer loop
      vertex -6.33708 12.7761 11.99
      vertex -6.84955 12.7761 11.99
      vertex -6.33708 6.76263 11.99
    endloop
  endfacet
  facet normal -0 0 1
    outer loop
      vertex -7.16204 13.2887 11.99
      vertex -6.33708 12.7761 11.99
      vertex -5.91211 13.2887 11.99
    endloop
  endfacet
  facet normal 0 0 1
    outer loop
      vertex -6.33708 12.7761 11.99
      vertex -7.16204 13.2887 11.99
      vertex -6.84955 12.7761 11.99
    endloop
  endfacet
  facet normal 0 0 1
    outer loop
      vertex -7.16204 13.2887 11.99
      vertex -7.16204 12.7761 11.99
      vertex -6.84955 12.7761 11.99
    endloop
  endfacet
  facet normal -0 0 1
    outer loop
      vertex -7.3097 13.2731 11.99
      vertex -7.16204 12.7761 11.99
      vertex -7.16204 13.2887 11.99
    endloop
  endfacet
  facet normal 0 0 1
    outer loop
      vertex -7.3097 13.2731 11.99
      vertex -7.3097 12.7925 11.99
      vertex -7.16204 12.7761 11.99
    endloop
  endfacet
  facet normal 0 0 1
    outer loop
      vertex -7.49953 13.0386 11.99
      vertex -7.3097 13.2731 11.99
      vertex -7.41516 13.2262 11.99
    endloop
  endfacet
  facet normal 0 0 1
    outer loop
      vertex -7.3097 13.2731 11.99
      vertex -7.49953 13.0386 11.99
      vertex -7.3097 12.7925 11.99
    endloop
  endfacet
  facet normal 0 0 1
    outer loop
      vertex -7.49953 13.0386 11.99
      vertex -7.41516 13.2262 11.99
      vertex -7.47844 13.148 11.99
    endloop
  endfacet
  facet normal 0 0 1
    outer loop
      vertex -7.3097 12.7925 11.99
      vertex -7.49953 13.0386 11.99
      vertex -7.41516 12.8417 11.99
    endloop
  endfacet
  facet normal 0 0 1
    outer loop
      vertex -7.41516 12.8417 11.99
      vertex -7.49953 13.0386 11.99
      vertex -7.47844 12.9238 11.99
    endloop
  endfacet
  facet normal 0 0 1
    outer loop
      vertex -0.421863 6.7001 11.99
      vertex -0.337512 6.51253 11.99
      vertex -0.3586 6.62195 11.99
    endloop
  endfacet
  facet normal 0 0 1
    outer loop
      vertex -0.337512 6.51253 11.99
      vertex -0.421863 6.7001 11.99
      vertex -0.527301 6.74699 11.99
    endloop
  endfacet
  facet normal 0 0 1
    outer loop
      vertex -0.527362 6.2664 11.99
      vertex -0.337512 6.51253 11.99
      vertex -0.527301 6.74699 11.99
    endloop
  endfacet
  facet normal 0 0 1
    outer loop
      vertex -0.337512 6.51253 11.99
      vertex -0.527362 6.2664 11.99
      vertex -0.3586 6.39766 11.99
    endloop
  endfacet
  facet normal 0 0 1
    outer loop
      vertex -0.3586 6.39766 11.99
      vertex -0.527362 6.2664 11.99
      vertex -0.421893 6.31563 11.99
    endloop
  endfacet
  facet normal 0 0 1
    outer loop
      vertex -0.67493 6.76263 11.99
      vertex -0.527362 6.2664 11.99
      vertex -0.527301 6.74699 11.99
    endloop
  endfacet
  facet normal 0 0 1
    outer loop
      vertex -0.67493 6.76263 11.99
      vertex -0.675006 6.25 11.99
      vertex -0.527362 6.2664 11.99
    endloop
  endfacet
  facet normal -0 0 1
    outer loop
      vertex -1.0999 6.76263 11.99
      vertex -0.675006 6.25 11.99
      vertex -0.67493 6.76263 11.99
    endloop
  endfacet
  facet normal 0 0 1
    outer loop
      vertex -1.61237 6.76263 11.99
      vertex -1.0999 6.76263 11.99
      vertex -1.61237 12.7761 11.99
    endloop
  endfacet
  facet normal -0 0 1
    outer loop
      vertex -1.61237 6.76263 11.99
      vertex -0.675006 6.25 11.99
      vertex -1.0999 6.76263 11.99
    endloop
  endfacet
  facet normal 0 0 1
    outer loop
      vertex -2.5373 6.25 11.99
      vertex -1.61237 6.76263 11.99
      vertex -2.5373 6.76263 11.99
    endloop
  endfacet
  facet normal 0 0 1
    outer loop
      vertex -1.61237 6.76263 11.99
      vertex -2.5373 6.25 11.99
      vertex -0.675006 6.25 11.99
    endloop
  endfacet
  facet normal -0 0 1
    outer loop
      vertex -2.69042 6.74699 11.99
      vertex -2.5373 6.25 11.99
      vertex -2.5373 6.76263 11.99
    endloop
  endfacet
  facet normal 0 0 1
    outer loop
      vertex -2.69042 6.74699 11.99
      vertex -2.69042 6.2664 11.99
      vertex -2.5373 6.25 11.99
    endloop
  endfacet
  facet normal 0 0 1
    outer loop
      vertex -2.8873 6.51253 11.99
      vertex -2.69042 6.74699 11.99
      vertex -2.79979 6.7001 11.99
    endloop
  endfacet
  facet normal 0 0 1
    outer loop
      vertex -2.69042 6.74699 11.99
      vertex -2.8873 6.51253 11.99
      vertex -2.69042 6.2664 11.99
    endloop
  endfacet
  facet normal 0 0 1
    outer loop
      vertex -2.8873 6.51253 11.99
      vertex -2.79979 6.7001 11.99
      vertex -2.86542 6.62195 11.99
    endloop
  endfacet
  facet normal 0 0 1
    outer loop
      vertex -2.69042 6.2664 11.99
      vertex -2.8873 6.51253 11.99
      vertex -2.79979 6.31563 11.99
    endloop
  endfacet
  facet normal 0 0 1
    outer loop
      vertex -2.79979 6.31563 11.99
      vertex -2.8873 6.51253 11.99
      vertex -2.86542 6.39766 11.99
    endloop
  endfacet
  facet normal 0 0 1
    outer loop
      vertex -5.15903 6.7001 11.99
      vertex -5.07466 6.51253 11.99
      vertex -5.09575 6.62195 11.99
    endloop
  endfacet
  facet normal 0 0 1
    outer loop
      vertex -5.07466 6.51253 11.99
      vertex -5.15903 6.7001 11.99
      vertex -5.2645 6.74699 11.99
    endloop
  endfacet
  facet normal 0 0 1
    outer loop
      vertex -5.2645 6.2664 11.99
      vertex -5.07466 6.51253 11.99
      vertex -5.2645 6.74699 11.99
    endloop
  endfacet
  facet normal 0 0 1
    outer loop
      vertex -5.07466 6.51253 11.99
      vertex -5.2645 6.2664 11.99
      vertex -5.09575 6.39766 11.99
    endloop
  endfacet
  facet normal 0 0 1
    outer loop
      vertex -5.09575 6.39766 11.99
      vertex -5.2645 6.2664 11.99
      vertex -5.15903 6.31563 11.99
    endloop
  endfacet
  facet normal 0 0 1
    outer loop
      vertex -5.41216 6.76263 11.99
      vertex -5.2645 6.2664 11.99
      vertex -5.2645 6.74699 11.99
    endloop
  endfacet
  facet normal 0 0 1
    outer loop
      vertex -5.41216 6.76263 11.99
      vertex -5.41216 6.25 11.99
      vertex -5.2645 6.2664 11.99
    endloop
  endfacet
  facet normal -0 0 1
    outer loop
      vertex -6.33708 6.76263 11.99
      vertex -5.41216 6.25 11.99
      vertex -5.41216 6.76263 11.99
    endloop
  endfacet
  facet normal 0 0 1
    outer loop
      vertex -6.84955 6.76263 11.99
      vertex -6.33708 6.76263 11.99
      vertex -6.84955 12.7761 11.99
    endloop
  endfacet
  facet normal 0 0 1
    outer loop
      vertex -7.27454 6.25 11.99
      vertex -6.33708 6.76263 11.99
      vertex -6.84955 6.76263 11.99
    endloop
  endfacet
  facet normal 0 0 1
    outer loop
      vertex -7.27454 6.25 11.99
      vertex -6.84955 6.76263 11.99
      vertex -7.27454 6.76263 11.99
    endloop
  endfacet
  facet normal 0 0 1
    outer loop
      vertex -6.33708 6.76263 11.99
      vertex -7.27454 6.25 11.99
      vertex -5.41216 6.25 11.99
    endloop
  endfacet
  facet normal -0 0 1
    outer loop
      vertex -7.42218 6.74699 11.99
      vertex -7.27454 6.25 11.99
      vertex -7.27454 6.76263 11.99
    endloop
  endfacet
  facet normal 0 0 1
    outer loop
      vertex -7.42218 6.74699 11.99
      vertex -7.42218 6.2664 11.99
      vertex -7.27454 6.25 11.99
    endloop
  endfacet
  facet normal 0 0 1
    outer loop
      vertex -7.61203 6.51253 11.99
      vertex -7.42218 6.74699 11.99
      vertex -7.52765 6.7001 11.99
    endloop
  endfacet
  facet normal 0 0 1
    outer loop
      vertex -7.42218 6.74699 11.99
      vertex -7.61203 6.51253 11.99
      vertex -7.42218 6.2664 11.99
    endloop
  endfacet
  facet normal 0 0 1
    outer loop
      vertex -7.61203 6.51253 11.99
      vertex -7.52765 6.7001 11.99
      vertex -7.59095 6.62195 11.99
    endloop
  endfacet
  facet normal 0 0 1
    outer loop
      vertex -7.42218 6.2664 11.99
      vertex -7.61203 6.51253 11.99
      vertex -7.52765 6.31563 11.99
    endloop
  endfacet
  facet normal 0 0 1
    outer loop
      vertex -7.52765 6.31563 11.99
      vertex -7.61203 6.51253 11.99
      vertex -7.59095 6.39766 11.99
    endloop
  endfacet
  facet normal -0.410458 -0.911879 0
    outer loop
      vertex -2.79979 6.31563 10
      vertex -2.69042 6.2664 11.99
      vertex -2.79979 6.31563 11.99
    endloop
  endfacet
  facet normal -0.410458 -0.911879 -0
    outer loop
      vertex -2.69042 6.2664 11.99
      vertex -2.79979 6.31563 10
      vertex -2.69042 6.2664 10
    endloop
  endfacet
  facet normal -0.780841 -0.62473 0
    outer loop
      vertex -2.79979 6.31563 10
      vertex -2.86542 6.39766 11.99
      vertex -2.86542 6.39766 10
    endloop
  endfacet
  facet normal -0.780841 -0.62473 0
    outer loop
      vertex -2.86542 6.39766 11.99
      vertex -2.79979 6.31563 10
      vertex -2.79979 6.31563 11.99
    endloop
  endfacet
  facet normal -0.982339 -0.187112 0
    outer loop
      vertex -2.86542 6.39766 10
      vertex -2.8873 6.51253 11.99
      vertex -2.8873 6.51253 10
    endloop
  endfacet
  facet normal -0.982339 -0.187112 0
    outer loop
      vertex -2.8873 6.51253 11.99
      vertex -2.86542 6.39766 10
      vertex -2.86542 6.39766 11.99
    endloop
  endfacet
  facet normal -0.980588 0.196082 0
    outer loop
      vertex -2.8873 6.51253 10
      vertex -2.86542 6.62195 11.99
      vertex -2.86542 6.62195 10
    endloop
  endfacet
  facet normal -0.980588 0.196082 0
    outer loop
      vertex -2.86542 6.62195 11.99
      vertex -2.8873 6.51253 10
      vertex -2.8873 6.51253 11.99
    endloop
  endfacet
  facet normal -0.765782 0.6431 0
    outer loop
      vertex -2.86542 6.62195 10
      vertex -2.79979 6.7001 11.99
      vertex -2.79979 6.7001 10
    endloop
  endfacet
  facet normal -0.765782 0.6431 0
    outer loop
      vertex -2.79979 6.7001 11.99
      vertex -2.86542 6.62195 10
      vertex -2.86542 6.62195 11.99
    endloop
  endfacet
  facet normal -0.394041 0.919093 0
    outer loop
      vertex -2.69042 6.74699 10
      vertex -2.79979 6.7001 11.99
      vertex -2.69042 6.74699 11.99
    endloop
  endfacet
  facet normal -0.394041 0.919093 0
    outer loop
      vertex -2.79979 6.7001 11.99
      vertex -2.69042 6.74699 10
      vertex -2.79979 6.7001 10
    endloop
  endfacet
  facet normal -0.101613 0.994824 0
    outer loop
      vertex -2.5373 6.76263 10
      vertex -2.69042 6.74699 11.99
      vertex -2.5373 6.76263 11.99
    endloop
  endfacet
  facet normal -0.101613 0.994824 0
    outer loop
      vertex -2.69042 6.74699 11.99
      vertex -2.5373 6.76263 10
      vertex -2.69042 6.74699 10
    endloop
  endfacet
  facet normal 0 1 -0
    outer loop
      vertex -1.61237 6.76263 10
      vertex -2.5373 6.76263 11.99
      vertex -1.61237 6.76263 11.99
    endloop
  endfacet
  facet normal 0 1 0
    outer loop
      vertex -2.5373 6.76263 11.99
      vertex -1.61237 6.76263 10
      vertex -2.5373 6.76263 10
    endloop
  endfacet
  facet normal -1 0 0
    outer loop
      vertex -1.61237 6.76263 10
      vertex -1.61237 12.7761 11.99
      vertex -1.61237 12.7761 10
    endloop
  endfacet
  facet normal -1 -0 0
    outer loop
      vertex -1.61237 12.7761 11.99
      vertex -1.61237 6.76263 10
      vertex -1.61237 6.76263 11.99
    endloop
  endfacet
  facet normal 0 -1 0
    outer loop
      vertex -1.71236 12.7761 10
      vertex -1.61237 12.7761 11.99
      vertex -1.71236 12.7761 11.99
    endloop
  endfacet
  facet normal 0 -1 -0
    outer loop
      vertex -1.61237 12.7761 11.99
      vertex -1.71236 12.7761 10
      vertex -1.61237 12.7761 10
    endloop
  endfacet
  facet normal 0.911823 -0.410584 0
    outer loop
      vertex -3.69973 8.36256 11.99
      vertex -1.71236 12.7761 10
      vertex -1.71236 12.7761 11.99
    endloop
  endfacet
  facet normal 0.911823 -0.410584 0
    outer loop
      vertex -1.71236 12.7761 10
      vertex -3.69973 8.36256 11.99
      vertex -3.69973 8.36256 10
    endloop
  endfacet
  facet normal -0.00017391 -1 0
    outer loop
      vertex -4.27474 8.36266 10
      vertex -3.69973 8.36256 11.99
      vertex -4.27474 8.36266 11.99
    endloop
  endfacet
  facet normal -0.00017391 -1 -0
    outer loop
      vertex -3.69973 8.36256 11.99
      vertex -4.27474 8.36266 10
      vertex -3.69973 8.36256 10
    endloop
  endfacet
  facet normal -0.913747 -0.406284 0
    outer loop
      vertex -4.27474 8.36266 10
      vertex -6.23711 12.7761 11.99
      vertex -6.23711 12.7761 10
    endloop
  endfacet
  facet normal -0.913747 -0.406284 0
    outer loop
      vertex -6.23711 12.7761 11.99
      vertex -4.27474 8.36266 10
      vertex -4.27474 8.36266 11.99
    endloop
  endfacet
  facet normal 0 -1 0
    outer loop
      vertex -6.33708 12.7761 10
      vertex -6.23711 12.7761 11.99
      vertex -6.33708 12.7761 11.99
    endloop
  endfacet
  facet normal 0 -1 -0
    outer loop
      vertex -6.23711 12.7761 11.99
      vertex -6.33708 12.7761 10
      vertex -6.23711 12.7761 10
    endloop
  endfacet
  facet normal 1 -0 0
    outer loop
      vertex -6.33708 6.76263 11.99
      vertex -6.33708 12.7761 10
      vertex -6.33708 12.7761 11.99
    endloop
  endfacet
  facet normal 1 0 0
    outer loop
      vertex -6.33708 12.7761 10
      vertex -6.33708 6.76263 11.99
      vertex -6.33708 6.76263 10
    endloop
  endfacet
  facet normal 0 1 -0
    outer loop
      vertex -5.41216 6.76263 10
      vertex -6.33708 6.76263 11.99
      vertex -5.41216 6.76263 11.99
    endloop
  endfacet
  facet normal 0 1 0
    outer loop
      vertex -6.33708 6.76263 11.99
      vertex -5.41216 6.76263 10
      vertex -6.33708 6.76263 10
    endloop
  endfacet
  facet normal 0.10533 0.994437 -0
    outer loop
      vertex -5.2645 6.74699 10
      vertex -5.41216 6.76263 11.99
      vertex -5.2645 6.74699 11.99
    endloop
  endfacet
  facet normal 0.10533 0.994437 0
    outer loop
      vertex -5.41216 6.76263 11.99
      vertex -5.2645 6.74699 10
      vertex -5.41216 6.76263 10
    endloop
  endfacet
  facet normal 0.406243 0.913765 -0
    outer loop
      vertex -5.15903 6.7001 10
      vertex -5.2645 6.74699 11.99
      vertex -5.15903 6.7001 11.99
    endloop
  endfacet
  facet normal 0.406243 0.913765 0
    outer loop
      vertex -5.2645 6.74699 11.99
      vertex -5.15903 6.7001 10
      vertex -5.2645 6.74699 10
    endloop
  endfacet
  facet normal 0.777168 0.629293 0
    outer loop
      vertex -5.09575 6.62195 11.99
      vertex -5.15903 6.7001 10
      vertex -5.15903 6.7001 11.99
    endloop
  endfacet
  facet normal 0.777168 0.629293 0
    outer loop
      vertex -5.15903 6.7001 10
      vertex -5.09575 6.62195 11.99
      vertex -5.09575 6.62195 10
    endloop
  endfacet
  facet normal 0.981927 0.18926 0
    outer loop
      vertex -5.07466 6.51253 11.99
      vertex -5.09575 6.62195 10
      vertex -5.09575 6.62195 11.99
    endloop
  endfacet
  facet normal 0.981927 0.18926 0
    outer loop
      vertex -5.09575 6.62195 10
      vertex -5.07466 6.51253 11.99
      vertex -5.07466 6.51253 10
    endloop
  endfacet
  facet normal 0.98356 -0.180581 0
    outer loop
      vertex -5.09575 6.39766 11.99
      vertex -5.07466 6.51253 10
      vertex -5.07466 6.51253 11.99
    endloop
  endfacet
  facet normal 0.98356 -0.180581 0
    outer loop
      vertex -5.07466 6.51253 10
      vertex -5.09575 6.39766 11.99
      vertex -5.09575 6.39766 10
    endloop
  endfacet
  facet normal 0.791784 -0.610802 0
    outer loop
      vertex -5.15903 6.31563 11.99
      vertex -5.09575 6.39766 10
      vertex -5.09575 6.39766 11.99
    endloop
  endfacet
  facet normal 0.791784 -0.610802 0
    outer loop
      vertex -5.09575 6.39766 10
      vertex -5.15903 6.31563 11.99
      vertex -5.15903 6.31563 10
    endloop
  endfacet
  facet normal 0.422961 -0.906148 0
    outer loop
      vertex -5.2645 6.2664 10
      vertex -5.15903 6.31563 11.99
      vertex -5.2645 6.2664 11.99
    endloop
  endfacet
  facet normal 0.422961 -0.906148 0
    outer loop
      vertex -5.15903 6.31563 11.99
      vertex -5.2645 6.2664 10
      vertex -5.15903 6.31563 10
    endloop
  endfacet
  facet normal 0.110387 -0.993889 0
    outer loop
      vertex -5.41216 6.25 10
      vertex -5.2645 6.2664 11.99
      vertex -5.41216 6.25 11.99
    endloop
  endfacet
  facet normal 0.110387 -0.993889 0
    outer loop
      vertex -5.2645 6.2664 11.99
      vertex -5.41216 6.25 10
      vertex -5.2645 6.2664 10
    endloop
  endfacet
  facet normal 0 -1 0
    outer loop
      vertex -7.27454 6.25 10
      vertex -5.41216 6.25 11.99
      vertex -7.27454 6.25 11.99
    endloop
  endfacet
  facet normal 0 -1 -0
    outer loop
      vertex -5.41216 6.25 11.99
      vertex -7.27454 6.25 10
      vertex -5.41216 6.25 10
    endloop
  endfacet
  facet normal -0.110402 -0.993887 0
    outer loop
      vertex -7.42218 6.2664 10
      vertex -7.27454 6.25 11.99
      vertex -7.42218 6.2664 11.99
    endloop
  endfacet
  facet normal -0.110402 -0.993887 -0
    outer loop
      vertex -7.27454 6.25 11.99
      vertex -7.42218 6.2664 10
      vertex -7.27454 6.25 10
    endloop
  endfacet
  facet normal -0.422961 -0.906148 0
    outer loop
      vertex -7.52765 6.31563 10
      vertex -7.42218 6.2664 11.99
      vertex -7.52765 6.31563 11.99
    endloop
  endfacet
  facet normal -0.422961 -0.906148 -0
    outer loop
      vertex -7.42218 6.2664 11.99
      vertex -7.52765 6.31563 10
      vertex -7.42218 6.2664 10
    endloop
  endfacet
  facet normal -0.79169 -0.610923 0
    outer loop
      vertex -7.52765 6.31563 10
      vertex -7.59095 6.39766 11.99
      vertex -7.59095 6.39766 10
    endloop
  endfacet
  facet normal -0.79169 -0.610923 0
    outer loop
      vertex -7.59095 6.39766 11.99
      vertex -7.52765 6.31563 10
      vertex -7.52765 6.31563 11.99
    endloop
  endfacet
  facet normal -0.983575 -0.180498 0
    outer loop
      vertex -7.59095 6.39766 10
      vertex -7.61203 6.51253 11.99
      vertex -7.61203 6.51253 10
    endloop
  endfacet
  facet normal -0.983575 -0.180498 0
    outer loop
      vertex -7.61203 6.51253 11.99
      vertex -7.59095 6.39766 10
      vertex -7.59095 6.39766 11.99
    endloop
  endfacet
  facet normal -0.981944 0.189174 0
    outer loop
      vertex -7.61203 6.51253 10
      vertex -7.59095 6.62195 11.99
      vertex -7.59095 6.62195 10
    endloop
  endfacet
  facet normal -0.981944 0.189174 0
    outer loop
      vertex -7.59095 6.62195 11.99
      vertex -7.61203 6.51253 10
      vertex -7.61203 6.51253 11.99
    endloop
  endfacet
  facet normal -0.777071 0.629413 0
    outer loop
      vertex -7.59095 6.62195 10
      vertex -7.52765 6.7001 11.99
      vertex -7.52765 6.7001 10
    endloop
  endfacet
  facet normal -0.777071 0.629413 0
    outer loop
      vertex -7.52765 6.7001 11.99
      vertex -7.59095 6.62195 10
      vertex -7.59095 6.62195 11.99
    endloop
  endfacet
  facet normal -0.406243 0.913765 0
    outer loop
      vertex -7.42218 6.74699 10
      vertex -7.52765 6.7001 11.99
      vertex -7.42218 6.74699 11.99
    endloop
  endfacet
  facet normal -0.406243 0.913765 0
    outer loop
      vertex -7.52765 6.7001 11.99
      vertex -7.42218 6.74699 10
      vertex -7.52765 6.7001 10
    endloop
  endfacet
  facet normal -0.105344 0.994436 0
    outer loop
      vertex -7.27454 6.76263 10
      vertex -7.42218 6.74699 11.99
      vertex -7.27454 6.76263 11.99
    endloop
  endfacet
  facet normal -0.105344 0.994436 0
    outer loop
      vertex -7.42218 6.74699 11.99
      vertex -7.27454 6.76263 10
      vertex -7.42218 6.74699 10
    endloop
  endfacet
  facet normal 0 1 -0
    outer loop
      vertex -6.84955 6.76263 10
      vertex -7.27454 6.76263 11.99
      vertex -6.84955 6.76263 11.99
    endloop
  endfacet
  facet normal 0 1 0
    outer loop
      vertex -7.27454 6.76263 11.99
      vertex -6.84955 6.76263 10
      vertex -7.27454 6.76263 10
    endloop
  endfacet
  facet normal -1 0 0
    outer loop
      vertex -6.84955 6.76263 10
      vertex -6.84955 12.7761 11.99
      vertex -6.84955 12.7761 10
    endloop
  endfacet
  facet normal -1 -0 0
    outer loop
      vertex -6.84955 12.7761 11.99
      vertex -6.84955 6.76263 10
      vertex -6.84955 6.76263 11.99
    endloop
  endfacet
  facet normal 0 -1 0
    outer loop
      vertex -7.16204 12.7761 10
      vertex -6.84955 12.7761 11.99
      vertex -7.16204 12.7761 11.99
    endloop
  endfacet
  facet normal 0 -1 -0
    outer loop
      vertex -6.84955 12.7761 11.99
      vertex -7.16204 12.7761 10
      vertex -6.84955 12.7761 10
    endloop
  endfacet
  facet normal -0.110387 -0.993889 0
    outer loop
      vertex -7.3097 12.7925 10
      vertex -7.16204 12.7761 11.99
      vertex -7.3097 12.7925 11.99
    endloop
  endfacet
  facet normal -0.110387 -0.993889 -0
    outer loop
      vertex -7.16204 12.7761 11.99
      vertex -7.3097 12.7925 10
      vertex -7.16204 12.7761 10
    endloop
  endfacet
  facet normal -0.422782 -0.906231 0
    outer loop
      vertex -7.41516 12.8417 10
      vertex -7.3097 12.7925 11.99
      vertex -7.41516 12.8417 11.99
    endloop
  endfacet
  facet normal -0.422782 -0.906231 -0
    outer loop
      vertex -7.3097 12.7925 11.99
      vertex -7.41516 12.8417 10
      vertex -7.3097 12.7925 10
    endloop
  endfacet
  facet normal -0.792035 -0.610475 0
    outer loop
      vertex -7.41516 12.8417 10
      vertex -7.47844 12.9238 11.99
      vertex -7.47844 12.9238 10
    endloop
  endfacet
  facet normal -0.792035 -0.610475 0
    outer loop
      vertex -7.47844 12.9238 11.99
      vertex -7.41516 12.8417 10
      vertex -7.41516 12.8417 11.99
    endloop
  endfacet
  facet normal -0.983541 -0.180687 0
    outer loop
      vertex -7.47844 12.9238 10
      vertex -7.49953 13.0386 11.99
      vertex -7.49953 13.0386 10
    endloop
  endfacet
  facet normal -0.983541 -0.180687 0
    outer loop
      vertex -7.49953 13.0386 11.99
      vertex -7.47844 12.9238 10
      vertex -7.47844 12.9238 11.99
    endloop
  endfacet
  facet normal -0.981921 0.189293 0
    outer loop
      vertex -7.49953 13.0386 10
      vertex -7.47844 13.148 11.99
      vertex -7.47844 13.148 10
    endloop
  endfacet
  facet normal -0.981921 0.189293 0
    outer loop
      vertex -7.47844 13.148 11.99
      vertex -7.49953 13.0386 10
      vertex -7.49953 13.0386 11.99
    endloop
  endfacet
  facet normal -0.777365 0.62905 0
    outer loop
      vertex -7.47844 13.148 10
      vertex -7.41516 13.2262 11.99
      vertex -7.41516 13.2262 10
    endloop
  endfacet
  facet normal -0.777365 0.62905 0
    outer loop
      vertex -7.41516 13.2262 11.99
      vertex -7.47844 13.148 10
      vertex -7.47844 13.148 11.99
    endloop
  endfacet
  facet normal -0.406347 0.913719 0
    outer loop
      vertex -7.3097 13.2731 10
      vertex -7.41516 13.2262 11.99
      vertex -7.3097 13.2731 11.99
    endloop
  endfacet
  facet normal -0.406347 0.913719 0
    outer loop
      vertex -7.41516 13.2262 11.99
      vertex -7.3097 13.2731 10
      vertex -7.41516 13.2262 10
    endloop
  endfacet
  facet normal -0.105063 0.994466 0
    outer loop
      vertex -7.16204 13.2887 10
      vertex -7.3097 13.2731 11.99
      vertex -7.16204 13.2887 11.99
    endloop
  endfacet
  facet normal -0.105063 0.994466 0
    outer loop
      vertex -7.3097 13.2731 11.99
      vertex -7.16204 13.2887 10
      vertex -7.3097 13.2731 10
    endloop
  endfacet
  facet normal 0 1 -0
    outer loop
      vertex -5.91211 13.2887 10
      vertex -7.16204 13.2887 11.99
      vertex -5.91211 13.2887 11.99
    endloop
  endfacet
  facet normal 0 1 0
    outer loop
      vertex -7.16204 13.2887 11.99
      vertex -5.91211 13.2887 10
      vertex -7.16204 13.2887 10
    endloop
  endfacet
  facet normal 0.914661 0.404222 0
    outer loop
      vertex -3.98728 8.93326 11.99
      vertex -5.91211 13.2887 10
      vertex -5.91211 13.2887 11.99
    endloop
  endfacet
  facet normal 0.914661 0.404222 0
    outer loop
      vertex -5.91211 13.2887 10
      vertex -3.98728 8.93326 11.99
      vertex -3.98728 8.93326 10
    endloop
  endfacet
  facet normal -0.911725 0.4108 0
    outer loop
      vertex -3.98728 8.93326 10
      vertex -2.02483 13.2887 11.99
      vertex -2.02483 13.2887 10
    endloop
  endfacet
  facet normal -0.911725 0.4108 0
    outer loop
      vertex -2.02483 13.2887 11.99
      vertex -3.98728 8.93326 10
      vertex -3.98728 8.93326 11.99
    endloop
  endfacet
  facet normal 0 1 -0
    outer loop
      vertex -0.787509 13.2887 10
      vertex -2.02483 13.2887 11.99
      vertex -0.787509 13.2887 11.99
    endloop
  endfacet
  facet normal 0 1 0
    outer loop
      vertex -2.02483 13.2887 11.99
      vertex -0.787509 13.2887 10
      vertex -2.02483 13.2887 10
    endloop
  endfacet
  facet normal 0.105064 0.994465 -0
    outer loop
      vertex -0.63985 13.2731 10
      vertex -0.787509 13.2887 11.99
      vertex -0.63985 13.2731 11.99
    endloop
  endfacet
  facet normal 0.105064 0.994465 0
    outer loop
      vertex -0.787509 13.2887 11.99
      vertex -0.63985 13.2731 10
      vertex -0.787509 13.2887 10
    endloop
  endfacet
  facet normal 0.406319 0.913732 -0
    outer loop
      vertex -0.534381 13.2262 10
      vertex -0.63985 13.2731 11.99
      vertex -0.534381 13.2262 11.99
    endloop
  endfacet
  facet normal 0.406319 0.913732 0
    outer loop
      vertex -0.63985 13.2731 11.99
      vertex -0.534381 13.2262 10
      vertex -0.63985 13.2731 10
    endloop
  endfacet
  facet normal 0.777375 0.629038 0
    outer loop
      vertex -0.471103 13.148 11.99
      vertex -0.534381 13.2262 10
      vertex -0.534381 13.2262 11.99
    endloop
  endfacet
  facet normal 0.777375 0.629038 0
    outer loop
      vertex -0.534381 13.2262 10
      vertex -0.471103 13.148 11.99
      vertex -0.471103 13.148 10
    endloop
  endfacet
  facet normal 0.981924 0.189276 0
    outer loop
      vertex -0.450015 13.0386 11.99
      vertex -0.471103 13.148 10
      vertex -0.471103 13.148 11.99
    endloop
  endfacet
  facet normal 0.981924 0.189276 0
    outer loop
      vertex -0.471103 13.148 10
      vertex -0.450015 13.0386 11.99
      vertex -0.450015 13.0386 10
    endloop
  endfacet
  facet normal 0.983544 -0.18067 0
    outer loop
      vertex -0.471103 12.9238 11.99
      vertex -0.450015 13.0386 10
      vertex -0.450015 13.0386 11.99
    endloop
  endfacet
  facet normal 0.983544 -0.18067 0
    outer loop
      vertex -0.450015 13.0386 10
      vertex -0.471103 12.9238 11.99
      vertex -0.471103 12.9238 10
    endloop
  endfacet
  facet normal 0.792115 -0.610372 0
    outer loop
      vertex -0.534366 12.8417 11.99
      vertex -0.471103 12.9238 10
      vertex -0.471103 12.9238 11.99
    endloop
  endfacet
  facet normal 0.792115 -0.610372 0
    outer loop
      vertex -0.471103 12.9238 10
      vertex -0.534366 12.8417 11.99
      vertex -0.534366 12.8417 10
    endloop
  endfacet
  facet normal 0.422854 -0.906198 0
    outer loop
      vertex -0.639804 12.7925 10
      vertex -0.534366 12.8417 11.99
      vertex -0.639804 12.7925 11.99
    endloop
  endfacet
  facet normal 0.422854 -0.906198 0
    outer loop
      vertex -0.534366 12.8417 11.99
      vertex -0.639804 12.7925 10
      vertex -0.534366 12.8417 10
    endloop
  endfacet
  facet normal 0.110422 -0.993885 0
    outer loop
      vertex -0.787417 12.7761 10
      vertex -0.639804 12.7925 11.99
      vertex -0.787417 12.7761 11.99
    endloop
  endfacet
  facet normal 0.110422 -0.993885 0
    outer loop
      vertex -0.639804 12.7925 11.99
      vertex -0.787417 12.7761 10
      vertex -0.639804 12.7925 10
    endloop
  endfacet
  facet normal 0 -1 0
    outer loop
      vertex -1.0999 12.7761 10
      vertex -0.787417 12.7761 11.99
      vertex -1.0999 12.7761 11.99
    endloop
  endfacet
  facet normal 0 -1 -0
    outer loop
      vertex -0.787417 12.7761 11.99
      vertex -1.0999 12.7761 10
      vertex -0.787417 12.7761 10
    endloop
  endfacet
  facet normal 1 -0 0
    outer loop
      vertex -1.0999 6.76263 11.99
      vertex -1.0999 12.7761 10
      vertex -1.0999 12.7761 11.99
    endloop
  endfacet
  facet normal 1 0 0
    outer loop
      vertex -1.0999 12.7761 10
      vertex -1.0999 6.76263 11.99
      vertex -1.0999 6.76263 10
    endloop
  endfacet
  facet normal 0 1 -0
    outer loop
      vertex -0.67493 6.76263 10
      vertex -1.0999 6.76263 11.99
      vertex -0.67493 6.76263 11.99
    endloop
  endfacet
  facet normal 0 1 0
    outer loop
      vertex -1.0999 6.76263 11.99
      vertex -0.67493 6.76263 10
      vertex -1.0999 6.76263 10
    endloop
  endfacet
  facet normal 0.105352 0.994435 -0
    outer loop
      vertex -0.527301 6.74699 10
      vertex -0.67493 6.76263 11.99
      vertex -0.527301 6.74699 11.99
    endloop
  endfacet
  facet normal 0.105352 0.994435 0
    outer loop
      vertex -0.67493 6.76263 11.99
      vertex -0.527301 6.74699 10
      vertex -0.67493 6.76263 10
    endloop
  endfacet
  facet normal 0.406346 0.913719 -0
    outer loop
      vertex -0.421863 6.7001 10
      vertex -0.527301 6.74699 11.99
      vertex -0.421863 6.7001 11.99
    endloop
  endfacet
  facet normal 0.406346 0.913719 0
    outer loop
      vertex -0.527301 6.74699 11.99
      vertex -0.421863 6.7001 10
      vertex -0.527301 6.74699 10
    endloop
  endfacet
  facet normal 0.777251 0.629191 0
    outer loop
      vertex -0.3586 6.62195 11.99
      vertex -0.421863 6.7001 10
      vertex -0.421863 6.7001 11.99
    endloop
  endfacet
  facet normal 0.777251 0.629191 0
    outer loop
      vertex -0.421863 6.7001 10
      vertex -0.3586 6.62195 11.99
      vertex -0.3586 6.62195 10
    endloop
  endfacet
  facet normal 0.98193 0.189243 0
    outer loop
      vertex -0.337512 6.51253 11.99
      vertex -0.3586 6.62195 10
      vertex -0.3586 6.62195 11.99
    endloop
  endfacet
  facet normal 0.98193 0.189243 0
    outer loop
      vertex -0.3586 6.62195 10
      vertex -0.337512 6.51253 11.99
      vertex -0.337512 6.51253 10
    endloop
  endfacet
  facet normal 0.983563 -0.180564 0
    outer loop
      vertex -0.3586 6.39766 11.99
      vertex -0.337512 6.51253 10
      vertex -0.337512 6.51253 11.99
    endloop
  endfacet
  facet normal 0.983563 -0.180564 0
    outer loop
      vertex -0.337512 6.51253 10
      vertex -0.3586 6.39766 11.99
      vertex -0.3586 6.39766 10
    endloop
  endfacet
  facet normal 0.791723 -0.61088 0
    outer loop
      vertex -0.421893 6.31563 11.99
      vertex -0.3586 6.39766 10
      vertex -0.3586 6.39766 11.99
    endloop
  endfacet
  facet normal 0.791723 -0.61088 0
    outer loop
      vertex -0.3586 6.39766 10
      vertex -0.421893 6.31563 11.99
      vertex -0.421893 6.31563 10
    endloop
  endfacet
  facet normal 0.422964 -0.906146 0
    outer loop
      vertex -0.527362 6.2664 10
      vertex -0.421893 6.31563 11.99
      vertex -0.527362 6.2664 11.99
    endloop
  endfacet
  facet normal 0.422964 -0.906146 0
    outer loop
      vertex -0.421893 6.31563 11.99
      vertex -0.527362 6.2664 10
      vertex -0.421893 6.31563 10
    endloop
  endfacet
  facet normal 0.110399 -0.993887 0
    outer loop
      vertex -0.675006 6.25 10
      vertex -0.527362 6.2664 11.99
      vertex -0.675006 6.25 11.99
    endloop
  endfacet
  facet normal 0.110399 -0.993887 0
    outer loop
      vertex -0.527362 6.2664 11.99
      vertex -0.675006 6.25 10
      vertex -0.527362 6.2664 10
    endloop
  endfacet
  facet normal 0 -1 0
    outer loop
      vertex -2.5373 6.25 10
      vertex -0.675006 6.25 11.99
      vertex -2.5373 6.25 11.99
    endloop
  endfacet
  facet normal 0 -1 -0
    outer loop
      vertex -0.675006 6.25 11.99
      vertex -2.5373 6.25 10
      vertex -0.675006 6.25 10
    endloop
  endfacet
  facet normal -0.106496 -0.994313 0
    outer loop
      vertex -2.69042 6.2664 10
      vertex -2.5373 6.25 11.99
      vertex -2.69042 6.2664 11.99
    endloop
  endfacet
  facet normal -0.106496 -0.994313 -0
    outer loop
      vertex -2.5373 6.25 11.99
      vertex -2.69042 6.2664 10
      vertex -2.5373 6.25 10
    endloop
  endfacet
endsolid OpenSCAD_Model
