solid OpenSCAD_Model
  facet normal -0 0 1
    outer loop
      vertex -6.68709 12.7761 10
      vertex -6.2621 6.25 10
      vertex -6.2621 12.7761 10
    endloop
  endfacet
  facet normal 0 0 1
    outer loop
      vertex -6.83473 12.7925 10
      vertex -6.2621 6.25 10
      vertex -6.68709 12.7761 10
    endloop
  endfacet
  facet normal 0 0 1
    outer loop
      vertex -6.9402 12.8417 10
      vertex -6.2621 6.25 10
      vertex -6.83473 12.7925 10
    endloop
  endfacet
  facet normal 0 0 1
    outer loop
      vertex -7.00349 12.9238 10
      vertex -6.2621 6.25 10
      vertex -6.9402 12.8417 10
    endloop
  endfacet
  facet normal 0 0 1
    outer loop
      vertex -6.2621 6.25 10
      vertex -7.00349 12.9238 10
      vertex -7.5 3.5 10
    endloop
  endfacet
  facet normal 0 0 1
    outer loop
      vertex -7.5 14.5 10
      vertex -7.00349 12.9238 10
      vertex -7.02458 13.0386 10
    endloop
  endfacet
  facet normal 0 0 1
    outer loop
      vertex -7.00349 12.9238 10
      vertex -7.5 14.5 10
      vertex -7.5 3.5 10
    endloop
  endfacet
  facet normal 0 0 1
    outer loop
      vertex -6.2621 6.25 10
      vertex -7.5 3.5 10
      vertex -6.51 3.5 10
    endloop
  endfacet
  facet normal 0 0 1
    outer loop
      vertex -1.7999 12.5491 10
      vertex -2.73726 6.76263 10
      vertex -1.7999 6.76263 10
    endloop
  endfacet
  facet normal 0 0 1
    outer loop
      vertex -1.7999 12.5491 10
      vertex -2.8849 6.74699 10
      vertex -2.73726 6.76263 10
    endloop
  endfacet
  facet normal 0 0 1
    outer loop
      vertex -1.7999 12.5491 10
      vertex -2.99037 6.7001 10
      vertex -2.8849 6.74699 10
    endloop
  endfacet
  facet normal 0 0 1
    outer loop
      vertex -5.61212 6.25 10
      vertex -2.99037 6.7001 10
      vertex -1.7999 12.5491 10
    endloop
  endfacet
  facet normal 0 0 1
    outer loop
      vertex -3.05367 6.62195 10
      vertex -5.61212 6.25 10
      vertex -3.07475 6.51253 10
    endloop
  endfacet
  facet normal 0 0 1
    outer loop
      vertex -2.99037 6.7001 10
      vertex -5.61212 6.25 10
      vertex -3.05367 6.62195 10
    endloop
  endfacet
  facet normal 0 0 1
    outer loop
      vertex -0.296036 12.9238 10
      vertex -0.546051 6.62195 10
      vertex -0.524963 6.51253 10
    endloop
  endfacet
  facet normal 0 0 1
    outer loop
      vertex -0.359314 12.8417 10
      vertex -0.609344 6.7001 10
      vertex -0.546051 6.62195 10
    endloop
  endfacet
  facet normal 0 0 1
    outer loop
      vertex -0.714813 6.74699 10
      vertex -0.464783 12.7925 10
      vertex -0.612442 12.7761 10
    endloop
  endfacet
  facet normal 0 0 1
    outer loop
      vertex -0.464783 12.7925 10
      vertex -0.714813 6.74699 10
      vertex -0.609344 6.7001 10
    endloop
  endfacet
  facet normal 0 0 1
    outer loop
      vertex -0.612442 12.7761 10
      vertex -0.862457 6.76263 10
      vertex -0.714813 6.74699 10
    endloop
  endfacet
  facet normal -0 0 1
    outer loop
      vertex -1.28745 12.7761 10
      vertex -0.862457 6.76263 10
      vertex -0.612442 12.7761 10
    endloop
  endfacet
  facet normal 0 0 1
    outer loop
      vertex -0.862457 6.76263 10
      vertex -1.28745 12.7761 10
      vertex -1.28745 6.76263 10
    endloop
  endfacet
  facet normal 0 0 1
    outer loop
      vertex -0.524963 6.51253 10
      vertex 0 14.5 10
      vertex -0.274948 13.0386 10
    endloop
  endfacet
  facet normal 0 0 1
    outer loop
      vertex 0 14.5 10
      vertex -0.296036 13.148 10
      vertex -0.274948 13.0386 10
    endloop
  endfacet
  facet normal 0 0 1
    outer loop
      vertex 0 14.5 10
      vertex -0.359314 13.2262 10
      vertex -0.296036 13.148 10
    endloop
  endfacet
  facet normal 0 0 1
    outer loop
      vertex 0 14.5 10
      vertex -0.464783 13.2731 10
      vertex -0.359314 13.2262 10
    endloop
  endfacet
  facet normal 0 0 1
    outer loop
      vertex 0 14.5 10
      vertex -0.612442 13.2887 10
      vertex -0.464783 13.2731 10
    endloop
  endfacet
  facet normal 0 0 1
    outer loop
      vertex 0 14.5 10
      vertex -1.93733 13.2887 10
      vertex -0.612442 13.2887 10
    endloop
  endfacet
  facet normal 0 0 1
    outer loop
      vertex -4.67159 13.2731 10
      vertex -1.93733 13.2887 10
      vertex 0 14.5 10
    endloop
  endfacet
  facet normal 0 0 1
    outer loop
      vertex -1.93733 13.2887 10
      vertex -4.49658 13.148 10
      vertex -4.4747 13.0386 10
    endloop
  endfacet
  facet normal 0 0 1
    outer loop
      vertex -1.93733 13.2887 10
      vertex -4.56221 13.2262 10
      vertex -4.49658 13.148 10
    endloop
  endfacet
  facet normal 0 0 1
    outer loop
      vertex -1.93733 13.2887 10
      vertex -4.67159 13.2731 10
      vertex -4.56221 13.2262 10
    endloop
  endfacet
  facet normal -0 0 1
    outer loop
      vertex -7.5 14.5 10
      vertex -4.67159 13.2731 10
      vertex 0 14.5 10
    endloop
  endfacet
  facet normal 0 0 1
    outer loop
      vertex -4.67159 13.2731 10
      vertex -7.5 14.5 10
      vertex -4.82471 13.2887 10
    endloop
  endfacet
  facet normal 0 0 1
    outer loop
      vertex -4.82471 13.2887 10
      vertex -7.5 14.5 10
      vertex -6.68709 13.2887 10
    endloop
  endfacet
  facet normal 0 0 1
    outer loop
      vertex -7.00349 13.148 10
      vertex -7.5 14.5 10
      vertex -7.02458 13.0386 10
    endloop
  endfacet
  facet normal 0 0 1
    outer loop
      vertex -6.9402 13.2262 10
      vertex -7.5 14.5 10
      vertex -7.00349 13.148 10
    endloop
  endfacet
  facet normal 0 0 1
    outer loop
      vertex -6.83473 13.2731 10
      vertex -7.5 14.5 10
      vertex -6.9402 13.2262 10
    endloop
  endfacet
  facet normal 0 0 1
    outer loop
      vertex -6.68709 13.2887 10
      vertex -7.5 14.5 10
      vertex -6.83473 13.2731 10
    endloop
  endfacet
  facet normal 0 0 1
    outer loop
      vertex -0.524963 6.51253 10
      vertex -0.274948 13.0386 10
      vertex -0.296036 12.9238 10
    endloop
  endfacet
  facet normal 0 0 1
    outer loop
      vertex -0.546051 6.62195 10
      vertex -0.296036 12.9238 10
      vertex -0.359314 12.8417 10
    endloop
  endfacet
  facet normal 0 0 1
    outer loop
      vertex -0.609344 6.7001 10
      vertex -0.359314 12.8417 10
      vertex -0.464783 12.7925 10
    endloop
  endfacet
  facet normal 0 0 1
    outer loop
      vertex 0 14.5 10
      vertex -0.524963 6.51253 10
      vertex 0 2.5 10
    endloop
  endfacet
  facet normal -0 0 1
    outer loop
      vertex -0.546051 6.39766 10
      vertex 0 2.5 10
      vertex -0.524963 6.51253 10
    endloop
  endfacet
  facet normal -0 0 1
    outer loop
      vertex -0.609344 6.31563 10
      vertex 0 2.5 10
      vertex -0.546051 6.39766 10
    endloop
  endfacet
  facet normal -0 0 1
    outer loop
      vertex -0.714813 6.2664 10
      vertex 0 2.5 10
      vertex -0.609344 6.31563 10
    endloop
  endfacet
  facet normal -0 0 1
    outer loop
      vertex -0.862457 6.25 10
      vertex 0 2.5 10
      vertex -0.714813 6.2664 10
    endloop
  endfacet
  facet normal -0 0 1
    outer loop
      vertex -2.73726 6.25 10
      vertex 0 2.5 10
      vertex -0.862457 6.25 10
    endloop
  endfacet
  facet normal 0 0 1
    outer loop
      vertex -2.8849 6.2664 10
      vertex 0 2.5 10
      vertex -2.73726 6.25 10
    endloop
  endfacet
  facet normal 0 0 1
    outer loop
      vertex -6.51 3.5 10
      vertex -2.8849 6.2664 10
      vertex -2.99037 6.31563 10
    endloop
  endfacet
  facet normal 0 0 1
    outer loop
      vertex -5.61212 6.25 10
      vertex -3.05367 6.39766 10
      vertex -3.07475 6.51253 10
    endloop
  endfacet
  facet normal 0 0 1
    outer loop
      vertex -5.61212 6.25 10
      vertex -2.99037 6.31563 10
      vertex -3.05367 6.39766 10
    endloop
  endfacet
  facet normal 0 0 1
    outer loop
      vertex -6.51 3.5 10
      vertex -2.99037 6.31563 10
      vertex -5.61212 6.25 10
    endloop
  endfacet
  facet normal 0 0 1
    outer loop
      vertex -6.51 3.5 10
      vertex -5.61212 6.25 10
      vertex -6.2621 6.25 10
    endloop
  endfacet
  facet normal 0 0 1
    outer loop
      vertex -2.8849 6.2664 10
      vertex -6.51 3.5 10
      vertex 0 2.5 10
    endloop
  endfacet
  facet normal 0 0 1
    outer loop
      vertex 0 2.5 10
      vertex -6.51 3.5 10
      vertex -6.51 2.5 10
    endloop
  endfacet
  facet normal 0 0 1
    outer loop
      vertex -4.49658 12.9238 10
      vertex -1.93733 13.2887 10
      vertex -4.4747 13.0386 10
    endloop
  endfacet
  facet normal 0 0 1
    outer loop
      vertex -4.56221 12.8417 10
      vertex -1.93733 13.2887 10
      vertex -4.49658 12.9238 10
    endloop
  endfacet
  facet normal 0 0 1
    outer loop
      vertex -5.74965 6.96414 10
      vertex -4.56221 12.8417 10
      vertex -4.67159 12.7925 10
    endloop
  endfacet
  facet normal -0 0 1
    outer loop
      vertex -4.56221 12.8417 10
      vertex -5.74965 6.96414 10
      vertex -1.93733 13.2887 10
    endloop
  endfacet
  facet normal -0 0 1
    outer loop
      vertex -4.82471 12.7761 10
      vertex -5.74965 6.96414 10
      vertex -4.67159 12.7925 10
    endloop
  endfacet
  facet normal 0 0 1
    outer loop
      vertex -5.74965 6.96414 10
      vertex -4.82471 12.7761 10
      vertex -5.74965 12.7761 10
    endloop
  endfacet
  facet normal -1 0 0
    outer loop
      vertex -7.5 0 3
      vertex -7.5 17 3
      vertex -7.5 17 0
    endloop
  endfacet
  facet normal -1 0 0
    outer loop
      vertex -7.5 17 3
      vertex -7.5 3.5 9.01
      vertex -7.5 14.5 10
    endloop
  endfacet
  facet normal -1 0 0
    outer loop
      vertex -7.5 17 3
      vertex -7.5 0 3
      vertex -7.5 3.5 9.01
    endloop
  endfacet
  facet normal -1 0 0
    outer loop
      vertex -7.5 0 3
      vertex -7.5 17 0
      vertex -7.5 0 0
    endloop
  endfacet
  facet normal -1 -0 0
    outer loop
      vertex -7.5 3.5 9.01
      vertex -7.5 0 3
      vertex -7.5 2.14643 9.01
    endloop
  endfacet
  facet normal -1 -0 0
    outer loop
      vertex -7.5 14.5 10
      vertex -7.5 3.5 9.01
      vertex -7.5 3.5 10
    endloop
  endfacet
  facet normal 0 1 -0
    outer loop
      vertex 0 17 0
      vertex -7.5 17 3
      vertex 0 17 3
    endloop
  endfacet
  facet normal 0 1 0
    outer loop
      vertex -7.5 17 3
      vertex 0 17 0
      vertex -7.5 17 0
    endloop
  endfacet
  facet normal 0 0 -1
    outer loop
      vertex -7.5 0 0
      vertex 0 17 0
      vertex 0 0 0
    endloop
  endfacet
  facet normal -0 0 -1
    outer loop
      vertex 0 17 0
      vertex -7.5 0 0
      vertex -7.5 17 0
    endloop
  endfacet
  facet normal 1 0 0
    outer loop
      vertex 0 0 3
      vertex 0 17 3
      vertex 0 14.5 10
    endloop
  endfacet
  facet normal 1 0 0
    outer loop
      vertex 0 0 3
      vertex 0 14.5 10
      vertex 0 2.5 10
    endloop
  endfacet
  facet normal 1 0 0
    outer loop
      vertex 0 17 3
      vertex 0 0 3
      vertex 0 17 0
    endloop
  endfacet
  facet normal 1 0 0
    outer loop
      vertex 0 17 0
      vertex 0 0 3
      vertex 0 0 0
    endloop
  endfacet
  facet normal 0 -0.941742 0.336337
    outer loop
      vertex -7.5 2.14643 9.01
      vertex -7.5 0 3
      vertex -6.51 2.14643 9.01
    endloop
  endfacet
  facet normal 0 -0.941742 0.336335
    outer loop
      vertex -6.51 2.14643 9.01
      vertex 0 2.5 10
      vertex -6.51 2.5 10
    endloop
  endfacet
  facet normal 0 -0.941742 0.336337
    outer loop
      vertex 0 0 3
      vertex -6.51 2.14643 9.01
      vertex -7.5 0 3
    endloop
  endfacet
  facet normal -2.06658e-07 -0.941742 0.336336
    outer loop
      vertex -6.51 2.14643 9.01
      vertex 0 0 3
      vertex 0 2.5 10
    endloop
  endfacet
  facet normal 0 -1 0
    outer loop
      vertex -7.5 0 0
      vertex 0 0 3
      vertex -7.5 0 3
    endloop
  endfacet
  facet normal 0 -1 -0
    outer loop
      vertex 0 0 3
      vertex -7.5 0 0
      vertex 0 0 0
    endloop
  endfacet
  facet normal 0 0.941742 0.336336
    outer loop
      vertex 0 17 3
      vertex -7.5 14.5 10
      vertex 0 14.5 10
    endloop
  endfacet
  facet normal 0 0.941742 0.336336
    outer loop
      vertex -7.5 14.5 10
      vertex 0 17 3
      vertex -7.5 17 3
    endloop
  endfacet
  facet normal -0 0 1
    outer loop
      vertex -7.5 3.5 9.01
      vertex -6.51 2.14643 9.01
      vertex -6.51 3.5 9.01
    endloop
  endfacet
  facet normal 0 0 1
    outer loop
      vertex -6.51 2.14643 9.01
      vertex -7.5 3.5 9.01
      vertex -7.5 2.14643 9.01
    endloop
  endfacet
  facet normal -1 0 0
    outer loop
      vertex -6.51 3.5 9.01
      vertex -6.51 2.5 10
      vertex -6.51 3.5 10
    endloop
  endfacet
  facet normal -1 0 -0
    outer loop
      vertex -6.51 2.5 10
      vertex -6.51 3.5 9.01
      vertex -6.51 2.14643 9.01
    endloop
  endfacet
  facet normal 0 -1 0
    outer loop
      vertex -7.5 3.5 9.01
      vertex -6.51 3.5 10
      vertex -7.5 3.5 10
    endloop
  endfacet
  facet normal 0 -1 -0
    outer loop
      vertex -6.51 3.5 10
      vertex -7.5 3.5 9.01
      vertex -6.51 3.5 9.01
    endloop
  endfacet
  facet normal 0 0 1
    outer loop
      vertex -4.56221 13.2262 11.99
      vertex -4.4747 13.0386 11.99
      vertex -4.49658 13.148 11.99
    endloop
  endfacet
  facet normal 0 0 1
    outer loop
      vertex -4.67159 13.2731 11.99
      vertex -4.4747 13.0386 11.99
      vertex -4.56221 13.2262 11.99
    endloop
  endfacet
  facet normal 0 0 1
    outer loop
      vertex -4.67159 12.7925 11.99
      vertex -4.4747 13.0386 11.99
      vertex -4.67159 13.2731 11.99
    endloop
  endfacet
  facet normal 0 0 1
    outer loop
      vertex -4.4747 13.0386 11.99
      vertex -4.56221 12.8417 11.99
      vertex -4.49658 12.9238 11.99
    endloop
  endfacet
  facet normal 0 0 1
    outer loop
      vertex -4.4747 13.0386 11.99
      vertex -4.67159 12.7925 11.99
      vertex -4.56221 12.8417 11.99
    endloop
  endfacet
  facet normal 0 0 1
    outer loop
      vertex -4.82471 13.2887 11.99
      vertex -4.67159 12.7925 11.99
      vertex -4.67159 13.2731 11.99
    endloop
  endfacet
  facet normal 0 0 1
    outer loop
      vertex -4.82471 13.2887 11.99
      vertex -4.82471 12.7761 11.99
      vertex -4.67159 12.7925 11.99
    endloop
  endfacet
  facet normal 0 0 1
    outer loop
      vertex -4.82471 13.2887 11.99
      vertex -5.74965 12.7761 11.99
      vertex -4.82471 12.7761 11.99
    endloop
  endfacet
  facet normal 0 0 1
    outer loop
      vertex -5.74965 12.7761 11.99
      vertex -6.2621 12.7761 11.99
      vertex -5.74965 6.96414 11.99
    endloop
  endfacet
  facet normal -0 0 1
    outer loop
      vertex -6.68709 13.2887 11.99
      vertex -5.74965 12.7761 11.99
      vertex -4.82471 13.2887 11.99
    endloop
  endfacet
  facet normal 0 0 1
    outer loop
      vertex -5.74965 12.7761 11.99
      vertex -6.68709 13.2887 11.99
      vertex -6.2621 12.7761 11.99
    endloop
  endfacet
  facet normal 0 0 1
    outer loop
      vertex -6.68709 13.2887 11.99
      vertex -6.68709 12.7761 11.99
      vertex -6.2621 12.7761 11.99
    endloop
  endfacet
  facet normal -0 0 1
    outer loop
      vertex -6.83473 13.2731 11.99
      vertex -6.68709 12.7761 11.99
      vertex -6.68709 13.2887 11.99
    endloop
  endfacet
  facet normal 0 0 1
    outer loop
      vertex -6.83473 13.2731 11.99
      vertex -6.83473 12.7925 11.99
      vertex -6.68709 12.7761 11.99
    endloop
  endfacet
  facet normal 0 0 1
    outer loop
      vertex -7.02458 13.0386 11.99
      vertex -6.83473 13.2731 11.99
      vertex -6.9402 13.2262 11.99
    endloop
  endfacet
  facet normal 0 0 1
    outer loop
      vertex -6.83473 13.2731 11.99
      vertex -7.02458 13.0386 11.99
      vertex -6.83473 12.7925 11.99
    endloop
  endfacet
  facet normal 0 0 1
    outer loop
      vertex -7.02458 13.0386 11.99
      vertex -6.9402 13.2262 11.99
      vertex -7.00349 13.148 11.99
    endloop
  endfacet
  facet normal 0 0 1
    outer loop
      vertex -6.83473 12.7925 11.99
      vertex -7.02458 13.0386 11.99
      vertex -6.9402 12.8417 11.99
    endloop
  endfacet
  facet normal 0 0 1
    outer loop
      vertex -6.9402 12.8417 11.99
      vertex -7.02458 13.0386 11.99
      vertex -7.00349 12.9238 11.99
    endloop
  endfacet
  facet normal 0 0 1
    outer loop
      vertex -0.359314 13.2262 11.99
      vertex -0.274948 13.0386 11.99
      vertex -0.296036 13.148 11.99
    endloop
  endfacet
  facet normal 0 0 1
    outer loop
      vertex -0.274948 13.0386 11.99
      vertex -0.359314 13.2262 11.99
      vertex -0.464783 13.2731 11.99
    endloop
  endfacet
  facet normal 0 0 1
    outer loop
      vertex -0.464783 12.7925 11.99
      vertex -0.274948 13.0386 11.99
      vertex -0.464783 13.2731 11.99
    endloop
  endfacet
  facet normal 0 0 1
    outer loop
      vertex -0.274948 13.0386 11.99
      vertex -0.464783 12.7925 11.99
      vertex -0.296036 12.9238 11.99
    endloop
  endfacet
  facet normal 0 0 1
    outer loop
      vertex -0.296036 12.9238 11.99
      vertex -0.464783 12.7925 11.99
      vertex -0.359314 12.8417 11.99
    endloop
  endfacet
  facet normal 0 0 1
    outer loop
      vertex -0.612442 13.2887 11.99
      vertex -0.464783 12.7925 11.99
      vertex -0.464783 13.2731 11.99
    endloop
  endfacet
  facet normal 0 0 1
    outer loop
      vertex -0.612442 13.2887 11.99
      vertex -0.612442 12.7761 11.99
      vertex -0.464783 12.7925 11.99
    endloop
  endfacet
  facet normal 0 0 1
    outer loop
      vertex -0.612442 13.2887 11.99
      vertex -1.28745 12.7761 11.99
      vertex -0.612442 12.7761 11.99
    endloop
  endfacet
  facet normal 0 0 1
    outer loop
      vertex -1.28745 12.7761 11.99
      vertex -1.7999 12.5491 11.99
      vertex -1.28745 6.76263 11.99
    endloop
  endfacet
  facet normal -0 0 1
    outer loop
      vertex -1.93733 13.2887 11.99
      vertex -1.28745 12.7761 11.99
      vertex -0.612442 13.2887 11.99
    endloop
  endfacet
  facet normal 0 0 1
    outer loop
      vertex -1.28745 12.7761 11.99
      vertex -1.93733 13.2887 11.99
      vertex -1.7999 12.5491 11.99
    endloop
  endfacet
  facet normal 0 0 1
    outer loop
      vertex -5.74965 6.96414 11.99
      vertex -1.7999 12.5491 11.99
      vertex -1.93733 13.2887 11.99
    endloop
  endfacet
  facet normal 0 0 1
    outer loop
      vertex -1.7999 12.5491 11.99
      vertex -5.74965 6.96414 11.99
      vertex -5.61212 6.25 11.99
    endloop
  endfacet
  facet normal 0 0 1
    outer loop
      vertex -5.74965 6.96414 11.99
      vertex -6.2621 6.25 11.99
      vertex -5.61212 6.25 11.99
    endloop
  endfacet
  facet normal 0 0 1
    outer loop
      vertex -6.2621 6.25 11.99
      vertex -5.74965 6.96414 11.99
      vertex -6.2621 12.7761 11.99
    endloop
  endfacet
  facet normal 0 0 1
    outer loop
      vertex -0.609344 6.7001 11.99
      vertex -0.524963 6.51253 11.99
      vertex -0.546051 6.62195 11.99
    endloop
  endfacet
  facet normal 0 0 1
    outer loop
      vertex -0.524963 6.51253 11.99
      vertex -0.609344 6.7001 11.99
      vertex -0.714813 6.74699 11.99
    endloop
  endfacet
  facet normal 0 0 1
    outer loop
      vertex -0.714813 6.2664 11.99
      vertex -0.524963 6.51253 11.99
      vertex -0.714813 6.74699 11.99
    endloop
  endfacet
  facet normal 0 0 1
    outer loop
      vertex -0.524963 6.51253 11.99
      vertex -0.714813 6.2664 11.99
      vertex -0.546051 6.39766 11.99
    endloop
  endfacet
  facet normal 0 0 1
    outer loop
      vertex -0.546051 6.39766 11.99
      vertex -0.714813 6.2664 11.99
      vertex -0.609344 6.31563 11.99
    endloop
  endfacet
  facet normal 0 0 1
    outer loop
      vertex -0.862457 6.76263 11.99
      vertex -0.714813 6.2664 11.99
      vertex -0.714813 6.74699 11.99
    endloop
  endfacet
  facet normal 0 0 1
    outer loop
      vertex -0.862457 6.76263 11.99
      vertex -0.862457 6.25 11.99
      vertex -0.714813 6.2664 11.99
    endloop
  endfacet
  facet normal -0 0 1
    outer loop
      vertex -1.28745 6.76263 11.99
      vertex -0.862457 6.25 11.99
      vertex -0.862457 6.76263 11.99
    endloop
  endfacet
  facet normal 0 0 1
    outer loop
      vertex -1.7999 6.76263 11.99
      vertex -1.28745 6.76263 11.99
      vertex -1.7999 12.5491 11.99
    endloop
  endfacet
  facet normal -0 0 1
    outer loop
      vertex -1.7999 6.76263 11.99
      vertex -0.862457 6.25 11.99
      vertex -1.28745 6.76263 11.99
    endloop
  endfacet
  facet normal 0 0 1
    outer loop
      vertex -2.73726 6.25 11.99
      vertex -1.7999 6.76263 11.99
      vertex -2.73726 6.76263 11.99
    endloop
  endfacet
  facet normal 0 0 1
    outer loop
      vertex -1.7999 6.76263 11.99
      vertex -2.73726 6.25 11.99
      vertex -0.862457 6.25 11.99
    endloop
  endfacet
  facet normal -0 0 1
    outer loop
      vertex -2.8849 6.74699 11.99
      vertex -2.73726 6.25 11.99
      vertex -2.73726 6.76263 11.99
    endloop
  endfacet
  facet normal 0 0 1
    outer loop
      vertex -2.8849 6.74699 11.99
      vertex -2.8849 6.2664 11.99
      vertex -2.73726 6.25 11.99
    endloop
  endfacet
  facet normal 0 0 1
    outer loop
      vertex -3.07475 6.51253 11.99
      vertex -2.8849 6.74699 11.99
      vertex -2.99037 6.7001 11.99
    endloop
  endfacet
  facet normal 0 0 1
    outer loop
      vertex -2.8849 6.74699 11.99
      vertex -3.07475 6.51253 11.99
      vertex -2.8849 6.2664 11.99
    endloop
  endfacet
  facet normal 0 0 1
    outer loop
      vertex -3.07475 6.51253 11.99
      vertex -2.99037 6.7001 11.99
      vertex -3.05367 6.62195 11.99
    endloop
  endfacet
  facet normal 0 0 1
    outer loop
      vertex -2.8849 6.2664 11.99
      vertex -3.07475 6.51253 11.99
      vertex -2.99037 6.31563 11.99
    endloop
  endfacet
  facet normal 0 0 1
    outer loop
      vertex -2.99037 6.31563 11.99
      vertex -3.07475 6.51253 11.99
      vertex -3.05367 6.39766 11.99
    endloop
  endfacet
  facet normal -0.422961 -0.906148 0
    outer loop
      vertex -2.99037 6.31563 10
      vertex -2.8849 6.2664 11.99
      vertex -2.99037 6.31563 11.99
    endloop
  endfacet
  facet normal -0.422961 -0.906148 -0
    outer loop
      vertex -2.8849 6.2664 11.99
      vertex -2.99037 6.31563 10
      vertex -2.8849 6.2664 10
    endloop
  endfacet
  facet normal -0.79169 -0.610923 0
    outer loop
      vertex -2.99037 6.31563 10
      vertex -3.05367 6.39766 11.99
      vertex -3.05367 6.39766 10
    endloop
  endfacet
  facet normal -0.79169 -0.610923 0
    outer loop
      vertex -3.05367 6.39766 11.99
      vertex -2.99037 6.31563 10
      vertex -2.99037 6.31563 11.99
    endloop
  endfacet
  facet normal -0.983575 -0.180498 0
    outer loop
      vertex -3.05367 6.39766 10
      vertex -3.07475 6.51253 11.99
      vertex -3.07475 6.51253 10
    endloop
  endfacet
  facet normal -0.983575 -0.180498 0
    outer loop
      vertex -3.07475 6.51253 11.99
      vertex -3.05367 6.39766 10
      vertex -3.05367 6.39766 11.99
    endloop
  endfacet
  facet normal -0.981944 0.189174 0
    outer loop
      vertex -3.07475 6.51253 10
      vertex -3.05367 6.62195 11.99
      vertex -3.05367 6.62195 10
    endloop
  endfacet
  facet normal -0.981944 0.189174 0
    outer loop
      vertex -3.05367 6.62195 11.99
      vertex -3.07475 6.51253 10
      vertex -3.07475 6.51253 11.99
    endloop
  endfacet
  facet normal -0.777071 0.629413 0
    outer loop
      vertex -3.05367 6.62195 10
      vertex -2.99037 6.7001 11.99
      vertex -2.99037 6.7001 10
    endloop
  endfacet
  facet normal -0.777071 0.629413 0
    outer loop
      vertex -2.99037 6.7001 11.99
      vertex -3.05367 6.62195 10
      vertex -3.05367 6.62195 11.99
    endloop
  endfacet
  facet normal -0.406243 0.913765 0
    outer loop
      vertex -2.8849 6.74699 10
      vertex -2.99037 6.7001 11.99
      vertex -2.8849 6.74699 11.99
    endloop
  endfacet
  facet normal -0.406243 0.913765 0
    outer loop
      vertex -2.99037 6.7001 11.99
      vertex -2.8849 6.74699 10
      vertex -2.99037 6.7001 10
    endloop
  endfacet
  facet normal -0.105344 0.994436 0
    outer loop
      vertex -2.73726 6.76263 10
      vertex -2.8849 6.74699 11.99
      vertex -2.73726 6.76263 11.99
    endloop
  endfacet
  facet normal -0.105344 0.994436 0
    outer loop
      vertex -2.8849 6.74699 11.99
      vertex -2.73726 6.76263 10
      vertex -2.8849 6.74699 10
    endloop
  endfacet
  facet normal 0 1 -0
    outer loop
      vertex -1.7999 6.76263 10
      vertex -2.73726 6.76263 11.99
      vertex -1.7999 6.76263 11.99
    endloop
  endfacet
  facet normal 0 1 0
    outer loop
      vertex -2.73726 6.76263 11.99
      vertex -1.7999 6.76263 10
      vertex -2.73726 6.76263 10
    endloop
  endfacet
  facet normal -1 0 0
    outer loop
      vertex -1.7999 6.76263 10
      vertex -1.7999 12.5491 11.99
      vertex -1.7999 12.5491 10
    endloop
  endfacet
  facet normal -1 -0 0
    outer loop
      vertex -1.7999 12.5491 11.99
      vertex -1.7999 6.76263 10
      vertex -1.7999 6.76263 11.99
    endloop
  endfacet
  facet normal 0.855524 -0.517764 0
    outer loop
      vertex -5.61212 6.25 11.99
      vertex -1.7999 12.5491 10
      vertex -1.7999 12.5491 11.99
    endloop
  endfacet
  facet normal 0.855524 -0.517764 0
    outer loop
      vertex -1.7999 12.5491 10
      vertex -5.61212 6.25 11.99
      vertex -5.61212 6.25 10
    endloop
  endfacet
  facet normal 0 -1 0
    outer loop
      vertex -6.2621 6.25 10
      vertex -5.61212 6.25 11.99
      vertex -6.2621 6.25 11.99
    endloop
  endfacet
  facet normal 0 -1 -0
    outer loop
      vertex -5.61212 6.25 11.99
      vertex -6.2621 6.25 10
      vertex -5.61212 6.25 10
    endloop
  endfacet
  facet normal -1 0 0
    outer loop
      vertex -6.2621 6.25 10
      vertex -6.2621 12.7761 11.99
      vertex -6.2621 12.7761 10
    endloop
  endfacet
  facet normal -1 -0 0
    outer loop
      vertex -6.2621 12.7761 11.99
      vertex -6.2621 6.25 10
      vertex -6.2621 6.25 11.99
    endloop
  endfacet
  facet normal 0 -1 0
    outer loop
      vertex -6.68709 12.7761 10
      vertex -6.2621 12.7761 11.99
      vertex -6.68709 12.7761 11.99
    endloop
  endfacet
  facet normal 0 -1 -0
    outer loop
      vertex -6.2621 12.7761 11.99
      vertex -6.68709 12.7761 10
      vertex -6.2621 12.7761 10
    endloop
  endfacet
  facet normal -0.110402 -0.993887 0
    outer loop
      vertex -6.83473 12.7925 10
      vertex -6.68709 12.7761 11.99
      vertex -6.83473 12.7925 11.99
    endloop
  endfacet
  facet normal -0.110402 -0.993887 -0
    outer loop
      vertex -6.68709 12.7761 11.99
      vertex -6.83473 12.7925 10
      vertex -6.68709 12.7761 10
    endloop
  endfacet
  facet normal -0.422749 -0.906247 0
    outer loop
      vertex -6.9402 12.8417 10
      vertex -6.83473 12.7925 11.99
      vertex -6.9402 12.8417 11.99
    endloop
  endfacet
  facet normal -0.422749 -0.906247 -0
    outer loop
      vertex -6.83473 12.7925 11.99
      vertex -6.9402 12.8417 10
      vertex -6.83473 12.7925 10
    endloop
  endfacet
  facet normal -0.791989 -0.610536 0
    outer loop
      vertex -6.9402 12.8417 10
      vertex -7.00349 12.9238 11.99
      vertex -7.00349 12.9238 10
    endloop
  endfacet
  facet normal -0.791989 -0.610536 0
    outer loop
      vertex -7.00349 12.9238 11.99
      vertex -6.9402 12.8417 10
      vertex -6.9402 12.8417 11.99
    endloop
  endfacet
  facet normal -0.983541 -0.180687 0
    outer loop
      vertex -7.00349 12.9238 10
      vertex -7.02458 13.0386 11.99
      vertex -7.02458 13.0386 10
    endloop
  endfacet
  facet normal -0.983541 -0.180687 0
    outer loop
      vertex -7.02458 13.0386 11.99
      vertex -7.00349 12.9238 10
      vertex -7.00349 12.9238 11.99
    endloop
  endfacet
  facet normal -0.981921 0.189293 0
    outer loop
      vertex -7.02458 13.0386 10
      vertex -7.00349 13.148 11.99
      vertex -7.00349 13.148 10
    endloop
  endfacet
  facet normal -0.981921 0.189293 0
    outer loop
      vertex -7.00349 13.148 11.99
      vertex -7.02458 13.0386 10
      vertex -7.02458 13.0386 11.99
    endloop
  endfacet
  facet normal -0.777317 0.62911 0
    outer loop
      vertex -7.00349 13.148 10
      vertex -6.9402 13.2262 11.99
      vertex -6.9402 13.2262 10
    endloop
  endfacet
  facet normal -0.777317 0.62911 0
    outer loop
      vertex -6.9402 13.2262 11.99
      vertex -7.00349 13.148 10
      vertex -7.00349 13.148 11.99
    endloop
  endfacet
  facet normal -0.406315 0.913733 0
    outer loop
      vertex -6.83473 13.2731 10
      vertex -6.9402 13.2262 11.99
      vertex -6.83473 13.2731 11.99
    endloop
  endfacet
  facet normal -0.406315 0.913733 0
    outer loop
      vertex -6.9402 13.2262 11.99
      vertex -6.83473 13.2731 10
      vertex -6.9402 13.2262 10
    endloop
  endfacet
  facet normal -0.105077 0.994464 0
    outer loop
      vertex -6.68709 13.2887 10
      vertex -6.83473 13.2731 11.99
      vertex -6.68709 13.2887 11.99
    endloop
  endfacet
  facet normal -0.105077 0.994464 0
    outer loop
      vertex -6.83473 13.2731 11.99
      vertex -6.68709 13.2887 10
      vertex -6.83473 13.2731 10
    endloop
  endfacet
  facet normal 0 1 -0
    outer loop
      vertex -4.82471 13.2887 10
      vertex -6.68709 13.2887 11.99
      vertex -4.82471 13.2887 11.99
    endloop
  endfacet
  facet normal 0 1 0
    outer loop
      vertex -6.68709 13.2887 11.99
      vertex -4.82471 13.2887 10
      vertex -6.68709 13.2887 10
    endloop
  endfacet
  facet normal 0.101356 0.99485 -0
    outer loop
      vertex -4.67159 13.2731 10
      vertex -4.82471 13.2887 11.99
      vertex -4.67159 13.2731 11.99
    endloop
  endfacet
  facet normal 0.101356 0.99485 0
    outer loop
      vertex -4.82471 13.2887 11.99
      vertex -4.67159 13.2731 10
      vertex -4.82471 13.2887 10
    endloop
  endfacet
  facet normal 0.394082 0.919075 -0
    outer loop
      vertex -4.56221 13.2262 10
      vertex -4.67159 13.2731 11.99
      vertex -4.56221 13.2262 11.99
    endloop
  endfacet
  facet normal 0.394082 0.919075 0
    outer loop
      vertex -4.67159 13.2731 11.99
      vertex -4.56221 13.2262 10
      vertex -4.67159 13.2731 10
    endloop
  endfacet
  facet normal 0.765985 0.642859 0
    outer loop
      vertex -4.49658 13.148 11.99
      vertex -4.56221 13.2262 10
      vertex -4.56221 13.2262 11.99
    endloop
  endfacet
  facet normal 0.765985 0.642859 0
    outer loop
      vertex -4.56221 13.2262 10
      vertex -4.49658 13.148 11.99
      vertex -4.49658 13.148 10
    endloop
  endfacet
  facet normal 0.980581 0.196116 0
    outer loop
      vertex -4.4747 13.0386 11.99
      vertex -4.49658 13.148 10
      vertex -4.49658 13.148 11.99
    endloop
  endfacet
  facet normal 0.980581 0.196116 0
    outer loop
      vertex -4.49658 13.148 10
      vertex -4.4747 13.0386 11.99
      vertex -4.4747 13.0386 10
    endloop
  endfacet
  facet normal 0.982318 -0.187222 0
    outer loop
      vertex -4.49658 12.9238 11.99
      vertex -4.4747 13.0386 10
      vertex -4.4747 13.0386 11.99
    endloop
  endfacet
  facet normal 0.982318 -0.187222 0
    outer loop
      vertex -4.4747 13.0386 10
      vertex -4.49658 12.9238 11.99
      vertex -4.49658 12.9238 10
    endloop
  endfacet
  facet normal 0.781101 -0.624405 0
    outer loop
      vertex -4.56221 12.8417 11.99
      vertex -4.49658 12.9238 10
      vertex -4.49658 12.9238 11.99
    endloop
  endfacet
  facet normal 0.781101 -0.624405 0
    outer loop
      vertex -4.49658 12.9238 10
      vertex -4.56221 12.8417 11.99
      vertex -4.56221 12.8417 10
    endloop
  endfacet
  facet normal 0.410219 -0.911987 0
    outer loop
      vertex -4.67159 12.7925 10
      vertex -4.56221 12.8417 11.99
      vertex -4.67159 12.7925 11.99
    endloop
  endfacet
  facet normal 0.410219 -0.911987 0
    outer loop
      vertex -4.56221 12.8417 11.99
      vertex -4.67159 12.7925 10
      vertex -4.56221 12.8417 10
    endloop
  endfacet
  facet normal 0.106496 -0.994313 0
    outer loop
      vertex -4.82471 12.7761 10
      vertex -4.67159 12.7925 11.99
      vertex -4.82471 12.7761 11.99
    endloop
  endfacet
  facet normal 0.106496 -0.994313 0
    outer loop
      vertex -4.67159 12.7925 11.99
      vertex -4.82471 12.7761 10
      vertex -4.67159 12.7925 10
    endloop
  endfacet
  facet normal 0 -1 0
    outer loop
      vertex -5.74965 12.7761 10
      vertex -4.82471 12.7761 11.99
      vertex -5.74965 12.7761 11.99
    endloop
  endfacet
  facet normal 0 -1 -0
    outer loop
      vertex -4.82471 12.7761 11.99
      vertex -5.74965 12.7761 10
      vertex -4.82471 12.7761 10
    endloop
  endfacet
  facet normal 1 -0 0
    outer loop
      vertex -5.74965 6.96414 11.99
      vertex -5.74965 12.7761 10
      vertex -5.74965 12.7761 11.99
    endloop
  endfacet
  facet normal 1 0 0
    outer loop
      vertex -5.74965 12.7761 10
      vertex -5.74965 6.96414 11.99
      vertex -5.74965 6.96414 10
    endloop
  endfacet
  facet normal -0.856441 0.516246 0
    outer loop
      vertex -5.74965 6.96414 10
      vertex -1.93733 13.2887 11.99
      vertex -1.93733 13.2887 10
    endloop
  endfacet
  facet normal -0.856441 0.516246 0
    outer loop
      vertex -1.93733 13.2887 11.99
      vertex -5.74965 6.96414 10
      vertex -5.74965 6.96414 11.99
    endloop
  endfacet
  facet normal 0 1 -0
    outer loop
      vertex -0.612442 13.2887 10
      vertex -1.93733 13.2887 11.99
      vertex -0.612442 13.2887 11.99
    endloop
  endfacet
  facet normal 0 1 0
    outer loop
      vertex -1.93733 13.2887 11.99
      vertex -0.612442 13.2887 10
      vertex -1.93733 13.2887 10
    endloop
  endfacet
  facet normal 0.105064 0.994465 -0
    outer loop
      vertex -0.464783 13.2731 10
      vertex -0.612442 13.2887 11.99
      vertex -0.464783 13.2731 11.99
    endloop
  endfacet
  facet normal 0.105064 0.994465 0
    outer loop
      vertex -0.612442 13.2887 11.99
      vertex -0.464783 13.2731 10
      vertex -0.612442 13.2887 10
    endloop
  endfacet
  facet normal 0.406319 0.913732 -0
    outer loop
      vertex -0.359314 13.2262 10
      vertex -0.464783 13.2731 11.99
      vertex -0.359314 13.2262 11.99
    endloop
  endfacet
  facet normal 0.406319 0.913732 0
    outer loop
      vertex -0.464783 13.2731 11.99
      vertex -0.359314 13.2262 10
      vertex -0.464783 13.2731 10
    endloop
  endfacet
  facet normal 0.777375 0.629038 0
    outer loop
      vertex -0.296036 13.148 11.99
      vertex -0.359314 13.2262 10
      vertex -0.359314 13.2262 11.99
    endloop
  endfacet
  facet normal 0.777375 0.629038 0
    outer loop
      vertex -0.359314 13.2262 10
      vertex -0.296036 13.148 11.99
      vertex -0.296036 13.148 10
    endloop
  endfacet
  facet normal 0.981924 0.189276 0
    outer loop
      vertex -0.274948 13.0386 11.99
      vertex -0.296036 13.148 10
      vertex -0.296036 13.148 11.99
    endloop
  endfacet
  facet normal 0.981924 0.189276 0
    outer loop
      vertex -0.296036 13.148 10
      vertex -0.274948 13.0386 11.99
      vertex -0.274948 13.0386 10
    endloop
  endfacet
  facet normal 0.983544 -0.18067 0
    outer loop
      vertex -0.296036 12.9238 11.99
      vertex -0.274948 13.0386 10
      vertex -0.274948 13.0386 11.99
    endloop
  endfacet
  facet normal 0.983544 -0.18067 0
    outer loop
      vertex -0.274948 13.0386 10
      vertex -0.296036 12.9238 11.99
      vertex -0.296036 12.9238 10
    endloop
  endfacet
  facet normal 0.792045 -0.610463 0
    outer loop
      vertex -0.359314 12.8417 11.99
      vertex -0.296036 12.9238 10
      vertex -0.296036 12.9238 11.99
    endloop
  endfacet
  facet normal 0.792045 -0.610463 0
    outer loop
      vertex -0.296036 12.9238 10
      vertex -0.359314 12.8417 11.99
      vertex -0.359314 12.8417 10
    endloop
  endfacet
  facet normal 0.422752 -0.906245 0
    outer loop
      vertex -0.464783 12.7925 10
      vertex -0.359314 12.8417 11.99
      vertex -0.464783 12.7925 11.99
    endloop
  endfacet
  facet normal 0.422752 -0.906245 0
    outer loop
      vertex -0.359314 12.8417 11.99
      vertex -0.464783 12.7925 10
      vertex -0.359314 12.8417 10
    endloop
  endfacet
  facet normal 0.110388 -0.993889 0
    outer loop
      vertex -0.612442 12.7761 10
      vertex -0.464783 12.7925 11.99
      vertex -0.612442 12.7761 11.99
    endloop
  endfacet
  facet normal 0.110388 -0.993889 0
    outer loop
      vertex -0.464783 12.7925 11.99
      vertex -0.612442 12.7761 10
      vertex -0.464783 12.7925 10
    endloop
  endfacet
  facet normal 0 -1 0
    outer loop
      vertex -1.28745 12.7761 10
      vertex -0.612442 12.7761 11.99
      vertex -1.28745 12.7761 11.99
    endloop
  endfacet
  facet normal 0 -1 -0
    outer loop
      vertex -0.612442 12.7761 11.99
      vertex -1.28745 12.7761 10
      vertex -0.612442 12.7761 10
    endloop
  endfacet
  facet normal 1 -0 0
    outer loop
      vertex -1.28745 6.76263 11.99
      vertex -1.28745 12.7761 10
      vertex -1.28745 12.7761 11.99
    endloop
  endfacet
  facet normal 1 0 0
    outer loop
      vertex -1.28745 12.7761 10
      vertex -1.28745 6.76263 11.99
      vertex -1.28745 6.76263 10
    endloop
  endfacet
  facet normal 0 1 -0
    outer loop
      vertex -0.862457 6.76263 10
      vertex -1.28745 6.76263 11.99
      vertex -0.862457 6.76263 11.99
    endloop
  endfacet
  facet normal 0 1 0
    outer loop
      vertex -1.28745 6.76263 11.99
      vertex -0.862457 6.76263 10
      vertex -1.28745 6.76263 10
    endloop
  endfacet
  facet normal 0.105341 0.994436 -0
    outer loop
      vertex -0.714813 6.74699 10
      vertex -0.862457 6.76263 11.99
      vertex -0.714813 6.74699 11.99
    endloop
  endfacet
  facet normal 0.105341 0.994436 0
    outer loop
      vertex -0.862457 6.76263 11.99
      vertex -0.714813 6.74699 10
      vertex -0.862457 6.76263 10
    endloop
  endfacet
  facet normal 0.406246 0.913764 -0
    outer loop
      vertex -0.609344 6.7001 10
      vertex -0.714813 6.74699 11.99
      vertex -0.609344 6.7001 11.99
    endloop
  endfacet
  facet normal 0.406246 0.913764 0
    outer loop
      vertex -0.714813 6.74699 11.99
      vertex -0.609344 6.7001 10
      vertex -0.714813 6.74699 10
    endloop
  endfacet
  facet normal 0.777105 0.629371 0
    outer loop
      vertex -0.546051 6.62195 11.99
      vertex -0.609344 6.7001 10
      vertex -0.609344 6.7001 11.99
    endloop
  endfacet
  facet normal 0.777105 0.629371 0
    outer loop
      vertex -0.609344 6.7001 10
      vertex -0.546051 6.62195 11.99
      vertex -0.546051 6.62195 10
    endloop
  endfacet
  facet normal 0.98193 0.189243 0
    outer loop
      vertex -0.524963 6.51253 11.99
      vertex -0.546051 6.62195 10
      vertex -0.546051 6.62195 11.99
    endloop
  endfacet
  facet normal 0.98193 0.189243 0
    outer loop
      vertex -0.546051 6.62195 10
      vertex -0.524963 6.51253 11.99
      vertex -0.524963 6.51253 10
    endloop
  endfacet
  facet normal 0.983563 -0.180564 0
    outer loop
      vertex -0.546051 6.39766 11.99
      vertex -0.524963 6.51253 10
      vertex -0.524963 6.51253 11.99
    endloop
  endfacet
  facet normal 0.983563 -0.180564 0
    outer loop
      vertex -0.524963 6.51253 10
      vertex -0.546051 6.39766 11.99
      vertex -0.546051 6.39766 10
    endloop
  endfacet
  facet normal 0.791723 -0.61088 0
    outer loop
      vertex -0.609344 6.31563 11.99
      vertex -0.546051 6.39766 10
      vertex -0.546051 6.39766 11.99
    endloop
  endfacet
  facet normal 0.791723 -0.61088 0
    outer loop
      vertex -0.546051 6.39766 10
      vertex -0.609344 6.31563 11.99
      vertex -0.609344 6.31563 10
    endloop
  endfacet
  facet normal 0.422964 -0.906146 0
    outer loop
      vertex -0.714813 6.2664 10
      vertex -0.609344 6.31563 11.99
      vertex -0.714813 6.2664 11.99
    endloop
  endfacet
  facet normal 0.422964 -0.906146 0
    outer loop
      vertex -0.609344 6.31563 11.99
      vertex -0.714813 6.2664 10
      vertex -0.609344 6.31563 10
    endloop
  endfacet
  facet normal 0.110399 -0.993887 0
    outer loop
      vertex -0.862457 6.25 10
      vertex -0.714813 6.2664 11.99
      vertex -0.862457 6.25 11.99
    endloop
  endfacet
  facet normal 0.110399 -0.993887 0
    outer loop
      vertex -0.714813 6.2664 11.99
      vertex -0.862457 6.25 10
      vertex -0.714813 6.2664 10
    endloop
  endfacet
  facet normal 0 -1 0
    outer loop
      vertex -2.73726 6.25 10
      vertex -0.862457 6.25 11.99
      vertex -2.73726 6.25 11.99
    endloop
  endfacet
  facet normal 0 -1 -0
    outer loop
      vertex -0.862457 6.25 11.99
      vertex -2.73726 6.25 10
      vertex -0.862457 6.25 10
    endloop
  endfacet
  facet normal -0.110402 -0.993887 0
    outer loop
      vertex -2.8849 6.2664 10
      vertex -2.73726 6.25 11.99
      vertex -2.8849 6.2664 11.99
    endloop
  endfacet
  facet normal -0.110402 -0.993887 -0
    outer loop
      vertex -2.73726 6.25 11.99
      vertex -2.8849 6.2664 10
      vertex -2.73726 6.25 10
    endloop
  endfacet
endsolid OpenSCAD_Model
