solid OpenSCAD_Model
  facet normal 0 0 1
    outer loop
      vertex -4.01221 6.0484 10
      vertex -3.57712 5.59512 10
      vertex -3.3373 5.5517 10
    endloop
  endfacet
  facet normal 0 0 1
    outer loop
      vertex -4.01221 6.0484 10
      vertex -3.79663 5.62614 10
      vertex -3.57712 5.59512 10
    endloop
  endfacet
  facet normal 0 0 1
    outer loop
      vertex -4.01221 6.0484 10
      vertex -3.99585 5.64476 10
      vertex -3.79663 5.62614 10
    endloop
  endfacet
  facet normal 0 0 1
    outer loop
      vertex -4.01221 6.0484 10
      vertex -4.17475 5.65097 10
      vertex -3.99585 5.64476 10
    endloop
  endfacet
  facet normal 0 0 1
    outer loop
      vertex -4.01221 6.0484 10
      vertex -4.41265 5.64088 10
      vertex -4.17475 5.65097 10
    endloop
  endfacet
  facet normal 0 0 1
    outer loop
      vertex -4.63562 6.13124 10
      vertex -4.41265 5.64088 10
      vertex -4.01221 6.0484 10
    endloop
  endfacet
  facet normal 0 0 1
    outer loop
      vertex -4.63562 6.13124 10
      vertex -4.65131 5.61064 10
      vertex -4.41265 5.64088 10
    endloop
  endfacet
  facet normal 0 0 1
    outer loop
      vertex -4.63562 6.13124 10
      vertex -4.89072 5.56024 10
      vertex -4.65131 5.61064 10
    endloop
  endfacet
  facet normal 0 0 1
    outer loop
      vertex -5.2059 6.34222 10
      vertex -4.89072 5.56024 10
      vertex -4.63562 6.13124 10
    endloop
  endfacet
  facet normal 0 0 1
    outer loop
      vertex -4.89072 5.56024 10
      vertex -5.2059 6.34222 10
      vertex -5.13091 5.48969 10
    endloop
  endfacet
  facet normal 0 0 1
    outer loop
      vertex -5.2059 6.34222 10
      vertex -5.35083 5.41913 10
      vertex -5.13091 5.48969 10
    endloop
  endfacet
  facet normal 0 0 1
    outer loop
      vertex -5.2059 6.34222 10
      vertex -5.52935 5.36873 10
      vertex -5.35083 5.41913 10
    endloop
  endfacet
  facet normal 0 0 1
    outer loop
      vertex -5.2059 6.34222 10
      vertex -5.66646 5.33849 10
      vertex -5.52935 5.36873 10
    endloop
  endfacet
  facet normal 0 0 1
    outer loop
      vertex -5.90903 5.34042 10
      vertex -5.2059 6.34222 10
      vertex -5.72306 6.68135 10
    endloop
  endfacet
  facet normal 0 0 1
    outer loop
      vertex -5.2059 6.34222 10
      vertex -5.76218 5.32841 10
      vertex -5.66646 5.33849 10
    endloop
  endfacet
  facet normal 0 0 1
    outer loop
      vertex -5.2059 6.34222 10
      vertex -5.90903 5.34042 10
      vertex -5.76218 5.32841 10
    endloop
  endfacet
  facet normal 0 0 1
    outer loop
      vertex -5.72306 6.68135 10
      vertex -6.06212 5.3765 10
      vertex -5.90903 5.34042 10
    endloop
  endfacet
  facet normal 0 0 1
    outer loop
      vertex -6.7316 5.70105 10
      vertex -5.72306 6.68135 10
      vertex -6.18706 7.14864 10
    endloop
  endfacet
  facet normal 0 0 1
    outer loop
      vertex -5.72306 6.68135 10
      vertex -6.22145 5.4366 10
      vertex -6.06212 5.3765 10
    endloop
  endfacet
  facet normal 0 0 1
    outer loop
      vertex -5.72306 6.68135 10
      vertex -6.38704 5.52074 10
      vertex -6.22145 5.4366 10
    endloop
  endfacet
  facet normal 0 0 1
    outer loop
      vertex -5.72306 6.68135 10
      vertex -6.53783 5.60489 10
      vertex -6.38704 5.52074 10
    endloop
  endfacet
  facet normal 0 0 1
    outer loop
      vertex -6.86832 5.69446 10
      vertex -6.18706 7.14864 10
      vertex -6.56987 7.7097 10
    endloop
  endfacet
  facet normal 0 0 1
    outer loop
      vertex -5.72306 6.68135 10
      vertex -6.65268 5.66498 10
      vertex -6.53783 5.60489 10
    endloop
  endfacet
  facet normal 0 0 1
    outer loop
      vertex -5.72306 6.68135 10
      vertex -6.7316 5.70105 10
      vertex -6.65268 5.66498 10
    endloop
  endfacet
  facet normal 0 0 1
    outer loop
      vertex -6.18706 7.14864 10
      vertex -6.77458 5.71307 10
      vertex -6.7316 5.70105 10
    endloop
  endfacet
  facet normal 0 0 1
    outer loop
      vertex -6.18706 7.14864 10
      vertex -6.82302 5.70842 10
      vertex -6.77458 5.71307 10
    endloop
  endfacet
  facet normal 0 0 1
    outer loop
      vertex -6.98235 5.59906 10
      vertex -6.56987 7.7097 10
      vertex -6.8433 8.33014 10
    endloop
  endfacet
  facet normal 0 0 1
    outer loop
      vertex -6.18706 7.14864 10
      vertex -6.86832 5.69446 10
      vertex -6.82302 5.70842 10
    endloop
  endfacet
  facet normal 0 0 1
    outer loop
      vertex -6.56987 7.7097 10
      vertex -6.91049 5.6712 10
      vertex -6.86832 5.69446 10
    endloop
  endfacet
  facet normal 0 0 1
    outer loop
      vertex -6.56987 7.7097 10
      vertex -6.94954 5.63864 10
      vertex -6.91049 5.6712 10
    endloop
  endfacet
  facet normal 0 0 1
    outer loop
      vertex -6.56987 7.7097 10
      vertex -6.98235 5.59906 10
      vertex -6.94954 5.63864 10
    endloop
  endfacet
  facet normal 0 0 1
    outer loop
      vertex -6.8433 8.33014 10
      vertex -7.00577 5.55482 10
      vertex -6.98235 5.59906 10
    endloop
  endfacet
  facet normal 0 0 1
    outer loop
      vertex -7.00736 9.00998 10
      vertex -7.00577 5.55482 10
      vertex -6.8433 8.33014 10
    endloop
  endfacet
  facet normal 0 0 1
    outer loop
      vertex -7.00736 9.00998 10
      vertex -7.01982 5.50595 10
      vertex -7.00577 5.55482 10
    endloop
  endfacet
  facet normal 0 0 1
    outer loop
      vertex -8 2.5 10
      vertex -7.01982 5.50595 10
      vertex -7.00736 9.00998 10
    endloop
  endfacet
  facet normal 0 0 1
    outer loop
      vertex -8 2.5 10
      vertex -7.00736 9.00998 10
      vertex -7.06205 9.74919 10
    endloop
  endfacet
  facet normal 0 0 1
    outer loop
      vertex -1.5436 7.39236 10
      vertex -2.05844 5.14951 10
      vertex -2.04985 5.08875 10
    endloop
  endfacet
  facet normal 0 0 1
    outer loop
      vertex -1.91898 6.92624 10
      vertex -2.08423 5.20715 10
      vertex -2.05844 5.14951 10
    endloop
  endfacet
  facet normal 0 0 1
    outer loop
      vertex -1.91898 6.92624 10
      vertex -2.1272 5.26169 10
      vertex -2.08423 5.20715 10
    endloop
  endfacet
  facet normal -0 0 1
    outer loop
      vertex -2.33889 6.55934 10
      vertex -2.1272 5.26169 10
      vertex -1.91898 6.92624 10
    endloop
  endfacet
  facet normal 0 0 1
    outer loop
      vertex -2.1272 5.26169 10
      vertex -2.33889 6.55934 10
      vertex -2.18737 5.31311 10
    endloop
  endfacet
  facet normal -0 0 1
    outer loop
      vertex -2.80332 6.29169 10
      vertex -2.18737 5.31311 10
      vertex -2.33889 6.55934 10
    endloop
  endfacet
  facet normal 0 0 1
    outer loop
      vertex -2.18737 5.31311 10
      vertex -2.80332 6.29169 10
      vertex -3.31229 6.12329 10
    endloop
  endfacet
  facet normal 0 0 1
    outer loop
      vertex 0 14.5 10
      vertex -0.837466 9.74919 10
      vertex 0 2.5 10
    endloop
  endfacet
  facet normal 0 0 1
    outer loop
      vertex 0 14.5 10
      vertex -0.894092 10.4947 10
      vertex -0.837466 9.74919 10
    endloop
  endfacet
  facet normal 0 0 1
    outer loop
      vertex 0 14.5 10
      vertex -1.064 11.1808 10
      vertex -0.894092 10.4947 10
    endloop
  endfacet
  facet normal 0 0 1
    outer loop
      vertex 0 14.5 10
      vertex -1.34716 11.8074 10
      vertex -1.064 11.1808 10
    endloop
  endfacet
  facet normal 0 0 1
    outer loop
      vertex 0 14.5 10
      vertex -1.74358 12.3748 10
      vertex -1.34716 11.8074 10
    endloop
  endfacet
  facet normal 0 0 1
    outer loop
      vertex 0 14.5 10
      vertex -2.2213 12.8452 10
      vertex -1.74358 12.3748 10
    endloop
  endfacet
  facet normal 0 0 1
    outer loop
      vertex 0 14.5 10
      vertex -2.74823 13.1812 10
      vertex -2.2213 12.8452 10
    endloop
  endfacet
  facet normal 0 0 1
    outer loop
      vertex 0 14.5 10
      vertex -3.32437 13.3828 10
      vertex -2.74823 13.1812 10
    endloop
  endfacet
  facet normal 0 0 1
    outer loop
      vertex 0 14.5 10
      vertex -3.94976 13.45 10
      vertex -3.32437 13.3828 10
    endloop
  endfacet
  facet normal -0 0 1
    outer loop
      vertex -8 14.5 10
      vertex -3.94976 13.45 10
      vertex 0 14.5 10
    endloop
  endfacet
  facet normal 0 0 1
    outer loop
      vertex -7.0054 10.4947 10
      vertex -8 14.5 10
      vertex -7.06205 9.74919 10
    endloop
  endfacet
  facet normal 0 0 1
    outer loop
      vertex -6.83548 11.1808 10
      vertex -8 14.5 10
      vertex -7.0054 10.4947 10
    endloop
  endfacet
  facet normal 0 0 1
    outer loop
      vertex -6.55229 11.8074 10
      vertex -8 14.5 10
      vertex -6.83548 11.1808 10
    endloop
  endfacet
  facet normal 0 0 1
    outer loop
      vertex -6.15583 12.3748 10
      vertex -8 14.5 10
      vertex -6.55229 11.8074 10
    endloop
  endfacet
  facet normal 0 0 1
    outer loop
      vertex -5.67816 12.8452 10
      vertex -8 14.5 10
      vertex -6.15583 12.3748 10
    endloop
  endfacet
  facet normal 0 0 1
    outer loop
      vertex -5.15125 13.1812 10
      vertex -8 14.5 10
      vertex -5.67816 12.8452 10
    endloop
  endfacet
  facet normal 0 0 1
    outer loop
      vertex -4.57512 13.3828 10
      vertex -8 14.5 10
      vertex -5.15125 13.1812 10
    endloop
  endfacet
  facet normal 0 0 1
    outer loop
      vertex -3.94976 13.45 10
      vertex -8 14.5 10
      vertex -4.57512 13.3828 10
    endloop
  endfacet
  facet normal -0 0 1
    outer loop
      vertex -0.881595 9.10489 10
      vertex 0 2.5 10
      vertex -0.837466 9.74919 10
    endloop
  endfacet
  facet normal -0 0 1
    outer loop
      vertex -1.014 8.49731 10
      vertex 0 2.5 10
      vertex -0.881595 9.10489 10
    endloop
  endfacet
  facet normal -0 0 1
    outer loop
      vertex -1.23467 7.92647 10
      vertex 0 2.5 10
      vertex -1.014 8.49731 10
    endloop
  endfacet
  facet normal -0 0 1
    outer loop
      vertex -1.5436 7.39236 10
      vertex 0 2.5 10
      vertex -1.23467 7.92647 10
    endloop
  endfacet
  facet normal 0 0 1
    outer loop
      vertex -2.05844 5.14951 10
      vertex -1.5436 7.39236 10
      vertex -1.91898 6.92624 10
    endloop
  endfacet
  facet normal 0 0 1
    outer loop
      vertex -1.5436 7.39236 10
      vertex -2.04985 5.08875 10
      vertex 0 2.5 10
    endloop
  endfacet
  facet normal -0 0 1
    outer loop
      vertex -2.05454 5.03526 10
      vertex 0 2.5 10
      vertex -2.04985 5.08875 10
    endloop
  endfacet
  facet normal -0 0 1
    outer loop
      vertex -2.06859 4.98643 10
      vertex 0 2.5 10
      vertex -2.05454 5.03526 10
    endloop
  endfacet
  facet normal -0 0 1
    outer loop
      vertex -2.09203 4.94225 10
      vertex 0 2.5 10
      vertex -2.06859 4.98643 10
    endloop
  endfacet
  facet normal -0 0 1
    outer loop
      vertex -2.12482 4.90271 10
      vertex 0 2.5 10
      vertex -2.09203 4.94225 10
    endloop
  endfacet
  facet normal -0 0 1
    outer loop
      vertex -2.16391 4.87015 10
      vertex 0 2.5 10
      vertex -2.12482 4.90271 10
    endloop
  endfacet
  facet normal -0 0 1
    outer loop
      vertex -2.20612 4.84688 10
      vertex 0 2.5 10
      vertex -2.16391 4.87015 10
    endloop
  endfacet
  facet normal -0 0 1
    outer loop
      vertex -2.25144 4.83293 10
      vertex 0 2.5 10
      vertex -2.20612 4.84688 10
    endloop
  endfacet
  facet normal -0 0 1
    outer loop
      vertex -2.29987 4.82828 10
      vertex 0 2.5 10
      vertex -2.25144 4.83293 10
    endloop
  endfacet
  facet normal 0 0 1
    outer loop
      vertex -2.31703 4.82983 10
      vertex 0 2.5 10
      vertex -2.29987 4.82828 10
    endloop
  endfacet
  facet normal 0 0 1
    outer loop
      vertex -2.34357 4.83449 10
      vertex 0 2.5 10
      vertex -2.31703 4.82983 10
    endloop
  endfacet
  facet normal 0 0 1
    outer loop
      vertex -2.37949 4.84225 10
      vertex 0 2.5 10
      vertex -2.34357 4.83449 10
    endloop
  endfacet
  facet normal 0 0 1
    outer loop
      vertex -2.42479 4.85312 10
      vertex 0 2.5 10
      vertex -2.37949 4.84225 10
    endloop
  endfacet
  facet normal 0 0 1
    outer loop
      vertex -2.91854 4.97789 10
      vertex 0 2.5 10
      vertex -2.42479 4.85312 10
    endloop
  endfacet
  facet normal 0 0 1
    outer loop
      vertex -3.37479 5.06703 10
      vertex 0 2.5 10
      vertex -2.91854 4.97789 10
    endloop
  endfacet
  facet normal 0 0 1
    outer loop
      vertex -5.24886 4.90649 10
      vertex -3.37479 5.06703 10
      vertex -3.79352 5.1205 10
    endloop
  endfacet
  facet normal 0 0 1
    outer loop
      vertex -5.03713 4.97705 10
      vertex -3.79352 5.1205 10
      vertex -4.17475 5.13832 10
    endloop
  endfacet
  facet normal 0 0 1
    outer loop
      vertex -5.03713 4.97705 10
      vertex -4.17475 5.13832 10
      vertex -4.38333 5.12825 10
    endloop
  endfacet
  facet normal 0 0 1
    outer loop
      vertex -5.03713 4.97705 10
      vertex -4.38333 5.12825 10
      vertex -4.59658 5.09801 10
    endloop
  endfacet
  facet normal 0 0 1
    outer loop
      vertex -5.03713 4.97705 10
      vertex -4.59658 5.09801 10
      vertex -4.81452 5.04761 10
    endloop
  endfacet
  facet normal 0 0 1
    outer loop
      vertex -5.24886 4.90649 10
      vertex -3.79352 5.1205 10
      vertex -5.03713 4.97705 10
    endloop
  endfacet
  facet normal 0 0 1
    outer loop
      vertex -3.37479 5.06703 10
      vertex -5.24886 4.90649 10
      vertex 0 2.5 10
    endloop
  endfacet
  facet normal 0 0 1
    outer loop
      vertex -8 2.5 10
      vertex -5.24886 4.90649 10
      vertex -5.43401 4.85609 10
    endloop
  endfacet
  facet normal 0 0 1
    outer loop
      vertex -8 2.5 10
      vertex -5.43401 4.85609 10
      vertex -5.59261 4.82585 10
    endloop
  endfacet
  facet normal 0 0 1
    outer loop
      vertex -8 2.5 10
      vertex -5.59261 4.82585 10
      vertex -5.72464 4.81577 10
    endloop
  endfacet
  facet normal 0 0 1
    outer loop
      vertex -8 2.5 10
      vertex -5.72464 4.81577 10
      vertex -5.92267 4.82982 10
    endloop
  endfacet
  facet normal 0 0 1
    outer loop
      vertex -8 2.5 10
      vertex -5.92267 4.82982 10
      vertex -6.12928 4.87195 10
    endloop
  endfacet
  facet normal 0 0 1
    outer loop
      vertex -8 2.5 10
      vertex -6.12928 4.87195 10
      vertex -6.3445 4.94218 10
    endloop
  endfacet
  facet normal 0 0 1
    outer loop
      vertex -8 2.5 10
      vertex -7.06205 9.74919 10
      vertex -8 14.5 10
    endloop
  endfacet
  facet normal 0 0 1
    outer loop
      vertex -5.24886 4.90649 10
      vertex -8 2.5 10
      vertex 0 2.5 10
    endloop
  endfacet
  facet normal 0 0 1
    outer loop
      vertex -6.5683 5.0405 10
      vertex -8 2.5 10
      vertex -6.3445 4.94218 10
    endloop
  endfacet
  facet normal 0 0 1
    outer loop
      vertex -6.7679 5.15048 10
      vertex -8 2.5 10
      vertex -6.5683 5.0405 10
    endloop
  endfacet
  facet normal 0 0 1
    outer loop
      vertex -6.91046 5.2558 10
      vertex -8 2.5 10
      vertex -6.7679 5.15048 10
    endloop
  endfacet
  facet normal 0 0 1
    outer loop
      vertex -6.99601 5.35645 10
      vertex -8 2.5 10
      vertex -6.91046 5.2558 10
    endloop
  endfacet
  facet normal 0 0 1
    outer loop
      vertex -7.02451 5.45242 10
      vertex -8 2.5 10
      vertex -6.99601 5.35645 10
    endloop
  endfacet
  facet normal 0 0 1
    outer loop
      vertex -7.01982 5.50595 10
      vertex -8 2.5 10
      vertex -7.02451 5.45242 10
    endloop
  endfacet
  facet normal 0 0 1
    outer loop
      vertex -6.54958 9.71167 10
      vertex -1.34992 9.74919 10
      vertex -1.39757 10.3821 10
    endloop
  endfacet
  facet normal 0 0 1
    outer loop
      vertex -6.50232 10.361 10
      vertex -1.39757 10.3821 10
      vertex -1.54051 10.9682 10
    endloop
  endfacet
  facet normal 0 0 1
    outer loop
      vertex -1.34992 9.74919 10
      vertex -6.54958 9.71167 10
      vertex -1.39757 9.11626 10
    endloop
  endfacet
  facet normal 0 0 1
    outer loop
      vertex -6.36054 10.9588 10
      vertex -1.54051 10.9682 10
      vertex -1.77877 11.5074 10
    endloop
  endfacet
  facet normal 0 -0 1
    outer loop
      vertex -6.50154 9.09007 10
      vertex -1.39757 9.11626 10
      vertex -6.54958 9.71167 10
    endloop
  endfacet
  facet normal 0 0 1
    outer loop
      vertex -6.12422 11.505 10
      vertex -1.77877 11.5074 10
      vertex -2.11231 11.9996 10
    endloop
  endfacet
  facet normal 0 0 1
    outer loop
      vertex -1.39757 9.11626 10
      vertex -6.50154 9.09007 10
      vertex -1.54051 8.53021 10
    endloop
  endfacet
  facet normal 0 0 1
    outer loop
      vertex -5.7934 11.9996 10
      vertex -2.11231 11.9996 10
      vertex -2.51308 12.4099 10
    endloop
  endfacet
  facet normal 0 -0 1
    outer loop
      vertex -6.35741 8.513 10
      vertex -1.54051 8.53021 10
      vertex -6.50154 9.09007 10
    endloop
  endfacet
  facet normal 0 0 1
    outer loop
      vertex -5.39461 12.4099 10
      vertex -2.51308 12.4099 10
      vertex -2.95291 12.7029 10
    endloop
  endfacet
  facet normal 0 0 1
    outer loop
      vertex -1.54051 8.53021 10
      vertex -6.35741 8.513 10
      vertex -1.77877 7.99104 10
    endloop
  endfacet
  facet normal 0 0 1
    outer loop
      vertex -5.39461 12.4099 10
      vertex -2.95291 12.7029 10
      vertex -3.4318 12.8787 10
    endloop
  endfacet
  facet normal 0 -0 1
    outer loop
      vertex -6.11719 7.98045 10
      vertex -1.77877 7.99104 10
      vertex -6.35741 8.513 10
    endloop
  endfacet
  facet normal 0 0 1
    outer loop
      vertex -5.39461 12.4099 10
      vertex -3.4318 12.8787 10
      vertex -3.94976 12.9373 10
    endloop
  endfacet
  facet normal 0 0 1
    outer loop
      vertex -1.77877 7.99104 10
      vertex -6.11719 7.98045 10
      vertex -2.11231 7.49875 10
    endloop
  endfacet
  facet normal 0 -0 1
    outer loop
      vertex -5.78089 7.49245 10
      vertex -2.11231 7.49875 10
      vertex -6.11719 7.98045 10
    endloop
  endfacet
  facet normal 0 0 1
    outer loop
      vertex -5.39461 12.4099 10
      vertex -3.94976 12.9373 10
      vertex -4.47278 12.8787 10
    endloop
  endfacet
  facet normal 0 0 1
    outer loop
      vertex -2.11231 7.49875 10
      vertex -5.78089 7.49245 10
      vertex -2.51308 7.0885 10
    endloop
  endfacet
  facet normal 0 0 1
    outer loop
      vertex -5.39461 12.4099 10
      vertex -4.47278 12.8787 10
      vertex -4.95439 12.7029 10
    endloop
  endfacet
  facet normal 0 -0 1
    outer loop
      vertex -5.37819 7.08495 10
      vertex -2.51308 7.0885 10
      vertex -5.78089 7.49245 10
    endloop
  endfacet
  facet normal 0 0 1
    outer loop
      vertex -2.51308 12.4099 10
      vertex -5.39461 12.4099 10
      vertex -5.7934 11.9996 10
    endloop
  endfacet
  facet normal 0 0 1
    outer loop
      vertex -2.51308 7.0885 10
      vertex -5.37819 7.08495 10
      vertex -2.95291 6.79546 10
    endloop
  endfacet
  facet normal 0 0 1
    outer loop
      vertex -2.11231 11.9996 10
      vertex -5.7934 11.9996 10
      vertex -6.12422 11.505 10
    endloop
  endfacet
  facet normal 0 0 1
    outer loop
      vertex -3.4318 6.61964 10
      vertex -5.37819 7.08495 10
      vertex -3.94976 6.56104 10
    endloop
  endfacet
  facet normal 0 0 1
    outer loop
      vertex -1.77877 11.5074 10
      vertex -6.12422 11.505 10
      vertex -6.36054 10.9588 10
    endloop
  endfacet
  facet normal 0 0 1
    outer loop
      vertex -4.46262 6.61925 10
      vertex -5.37819 7.08495 10
      vertex -4.93877 6.79388 10
    endloop
  endfacet
  facet normal 0 0 1
    outer loop
      vertex -1.54051 10.9682 10
      vertex -6.36054 10.9588 10
      vertex -6.50232 10.361 10
    endloop
  endfacet
  facet normal 0 0 1
    outer loop
      vertex -2.95291 6.79546 10
      vertex -5.37819 7.08495 10
      vertex -3.4318 6.61964 10
    endloop
  endfacet
  facet normal 0 0 1
    outer loop
      vertex -1.39757 10.3821 10
      vertex -6.50232 10.361 10
      vertex -6.54958 9.71167 10
    endloop
  endfacet
  facet normal 0 0 1
    outer loop
      vertex -3.94976 6.56104 10
      vertex -5.37819 7.08495 10
      vertex -4.46262 6.61925 10
    endloop
  endfacet
  facet normal -1 0 0
    outer loop
      vertex -8 0 3
      vertex -8 17 3
      vertex -8 17 0
    endloop
  endfacet
  facet normal -1 0 0
    outer loop
      vertex -8 17 3
      vertex -8 0 3
      vertex -8 14.5 10
    endloop
  endfacet
  facet normal -1 0 0
    outer loop
      vertex -8 0 3
      vertex -8 17 0
      vertex -8 0 0
    endloop
  endfacet
  facet normal -1 -0 0
    outer loop
      vertex -8 14.5 10
      vertex -8 0 3
      vertex -8 2.5 10
    endloop
  endfacet
  facet normal 0 1 -0
    outer loop
      vertex 0 17 0
      vertex -8 17 3
      vertex 0 17 3
    endloop
  endfacet
  facet normal 0 1 0
    outer loop
      vertex -8 17 3
      vertex 0 17 0
      vertex -8 17 0
    endloop
  endfacet
  facet normal 0 0 -1
    outer loop
      vertex -8 0 0
      vertex 0 17 0
      vertex 0 0 0
    endloop
  endfacet
  facet normal -0 0 -1
    outer loop
      vertex 0 17 0
      vertex -8 0 0
      vertex -8 17 0
    endloop
  endfacet
  facet normal 1 0 0
    outer loop
      vertex 0 0 3
      vertex 0 17 3
      vertex 0 14.5 10
    endloop
  endfacet
  facet normal 1 0 0
    outer loop
      vertex 0 0 3
      vertex 0 14.5 10
      vertex 0 2.5 10
    endloop
  endfacet
  facet normal 1 0 0
    outer loop
      vertex 0 17 3
      vertex 0 0 3
      vertex 0 17 0
    endloop
  endfacet
  facet normal 1 0 0
    outer loop
      vertex 0 17 0
      vertex 0 0 3
      vertex 0 0 0
    endloop
  endfacet
  facet normal 0 -0.941742 0.336336
    outer loop
      vertex -8 0 3
      vertex 0 2.5 10
      vertex -8 2.5 10
    endloop
  endfacet
  facet normal 0 -0.941742 0.336336
    outer loop
      vertex 0 2.5 10
      vertex -8 0 3
      vertex 0 0 3
    endloop
  endfacet
  facet normal 0 -1 0
    outer loop
      vertex -8 0 0
      vertex 0 0 3
      vertex -8 0 3
    endloop
  endfacet
  facet normal 0 -1 -0
    outer loop
      vertex 0 0 3
      vertex -8 0 0
      vertex 0 0 0
    endloop
  endfacet
  facet normal 0 0.941742 0.336336
    outer loop
      vertex 0 17 3
      vertex -8 14.5 10
      vertex 0 14.5 10
    endloop
  endfacet
  facet normal 0 0.941742 0.336336
    outer loop
      vertex -8 14.5 10
      vertex 0 17 3
      vertex -8 17 3
    endloop
  endfacet
  facet normal 0 0 1
    outer loop
      vertex -2.08423 5.20715 11.99
      vertex -2.04985 5.08875 11.99
      vertex -2.05844 5.14951 11.99
    endloop
  endfacet
  facet normal 0 0 1
    outer loop
      vertex -2.04985 5.08875 11.99
      vertex -2.08423 5.20715 11.99
      vertex -2.05454 5.03526 11.99
    endloop
  endfacet
  facet normal 0 0 1
    outer loop
      vertex -2.05454 5.03526 11.99
      vertex -2.08423 5.20715 11.99
      vertex -2.06859 4.98643 11.99
    endloop
  endfacet
  facet normal 0 0 1
    outer loop
      vertex -2.08423 5.20715 11.99
      vertex -2.09203 4.94225 11.99
      vertex -2.06859 4.98643 11.99
    endloop
  endfacet
  facet normal 0 0 1
    outer loop
      vertex -2.08423 5.20715 11.99
      vertex -2.12482 4.90271 11.99
      vertex -2.09203 4.94225 11.99
    endloop
  endfacet
  facet normal 0 0 1
    outer loop
      vertex -2.1272 5.26169 11.99
      vertex -2.12482 4.90271 11.99
      vertex -2.08423 5.20715 11.99
    endloop
  endfacet
  facet normal 0 0 1
    outer loop
      vertex -2.34357 4.83449 11.99
      vertex -2.12482 4.90271 11.99
      vertex -2.1272 5.26169 11.99
    endloop
  endfacet
  facet normal 0 0 1
    outer loop
      vertex -2.37949 4.84225 11.99
      vertex -2.1272 5.26169 11.99
      vertex -2.18737 5.31311 11.99
    endloop
  endfacet
  facet normal 0 0 1
    outer loop
      vertex -2.12482 4.90271 11.99
      vertex -2.34357 4.83449 11.99
      vertex -2.16391 4.87015 11.99
    endloop
  endfacet
  facet normal 0 0 1
    outer loop
      vertex -2.16391 4.87015 11.99
      vertex -2.34357 4.83449 11.99
      vertex -2.20612 4.84688 11.99
    endloop
  endfacet
  facet normal 0 0 1
    outer loop
      vertex -2.20612 4.84688 11.99
      vertex -2.34357 4.83449 11.99
      vertex -2.25144 4.83293 11.99
    endloop
  endfacet
  facet normal 0 0 1
    outer loop
      vertex -2.25144 4.83293 11.99
      vertex -2.31703 4.82983 11.99
      vertex -2.29987 4.82828 11.99
    endloop
  endfacet
  facet normal 0 0 1
    outer loop
      vertex -2.25144 4.83293 11.99
      vertex -2.34357 4.83449 11.99
      vertex -2.31703 4.82983 11.99
    endloop
  endfacet
  facet normal 0 0 1
    outer loop
      vertex -2.1272 5.26169 11.99
      vertex -2.37949 4.84225 11.99
      vertex -2.34357 4.83449 11.99
    endloop
  endfacet
  facet normal 0 0 1
    outer loop
      vertex -2.18737 5.31311 11.99
      vertex -2.42479 4.85312 11.99
      vertex -2.37949 4.84225 11.99
    endloop
  endfacet
  facet normal 0 0 1
    outer loop
      vertex -2.18737 5.31311 11.99
      vertex -2.91854 4.97789 11.99
      vertex -2.42479 4.85312 11.99
    endloop
  endfacet
  facet normal -0 0 1
    outer loop
      vertex -3.3373 5.5517 11.99
      vertex -2.18737 5.31311 11.99
      vertex -3.31229 6.12329 11.99
    endloop
  endfacet
  facet normal 0 0 1
    outer loop
      vertex -2.18737 5.31311 11.99
      vertex -3.3373 5.5517 11.99
      vertex -2.91854 4.97789 11.99
    endloop
  endfacet
  facet normal 0 0 1
    outer loop
      vertex -3.3373 5.5517 11.99
      vertex -3.37479 5.06703 11.99
      vertex -2.91854 4.97789 11.99
    endloop
  endfacet
  facet normal 0 0 1
    outer loop
      vertex -3.57712 5.59512 11.99
      vertex -3.37479 5.06703 11.99
      vertex -3.3373 5.5517 11.99
    endloop
  endfacet
  facet normal 0 0 1
    outer loop
      vertex -3.57712 5.59512 11.99
      vertex -3.79352 5.1205 11.99
      vertex -3.37479 5.06703 11.99
    endloop
  endfacet
  facet normal 0 0 1
    outer loop
      vertex -3.79663 5.62614 11.99
      vertex -3.79352 5.1205 11.99
      vertex -3.57712 5.59512 11.99
    endloop
  endfacet
  facet normal 0 0 1
    outer loop
      vertex -3.99585 5.64476 11.99
      vertex -3.79352 5.1205 11.99
      vertex -3.79663 5.62614 11.99
    endloop
  endfacet
  facet normal 0 0 1
    outer loop
      vertex -4.17475 5.13832 11.99
      vertex -3.99585 5.64476 11.99
      vertex -4.17475 5.65097 11.99
    endloop
  endfacet
  facet normal 0 0 1
    outer loop
      vertex -3.99585 5.64476 11.99
      vertex -4.17475 5.13832 11.99
      vertex -3.79352 5.1205 11.99
    endloop
  endfacet
  facet normal -0 0 1
    outer loop
      vertex -4.41265 5.64088 11.99
      vertex -4.17475 5.13832 11.99
      vertex -4.17475 5.65097 11.99
    endloop
  endfacet
  facet normal 0 0 1
    outer loop
      vertex -4.17475 5.13832 11.99
      vertex -4.41265 5.64088 11.99
      vertex -4.38333 5.12825 11.99
    endloop
  endfacet
  facet normal -0 0 1
    outer loop
      vertex -4.65131 5.61064 11.99
      vertex -4.38333 5.12825 11.99
      vertex -4.41265 5.64088 11.99
    endloop
  endfacet
  facet normal 0 0 1
    outer loop
      vertex -4.38333 5.12825 11.99
      vertex -4.65131 5.61064 11.99
      vertex -4.59658 5.09801 11.99
    endloop
  endfacet
  facet normal -0 0 1
    outer loop
      vertex -4.89072 5.56024 11.99
      vertex -4.59658 5.09801 11.99
      vertex -4.65131 5.61064 11.99
    endloop
  endfacet
  facet normal 0 0 1
    outer loop
      vertex -4.59658 5.09801 11.99
      vertex -4.89072 5.56024 11.99
      vertex -4.81452 5.04761 11.99
    endloop
  endfacet
  facet normal -0 0 1
    outer loop
      vertex -5.13091 5.48969 11.99
      vertex -4.81452 5.04761 11.99
      vertex -4.89072 5.56024 11.99
    endloop
  endfacet
  facet normal 0 0 1
    outer loop
      vertex -4.81452 5.04761 11.99
      vertex -5.13091 5.48969 11.99
      vertex -5.03713 4.97705 11.99
    endloop
  endfacet
  facet normal -0 0 1
    outer loop
      vertex -5.35083 5.41913 11.99
      vertex -5.03713 4.97705 11.99
      vertex -5.13091 5.48969 11.99
    endloop
  endfacet
  facet normal 0 0 1
    outer loop
      vertex -5.03713 4.97705 11.99
      vertex -5.35083 5.41913 11.99
      vertex -5.24886 4.90649 11.99
    endloop
  endfacet
  facet normal -0 0 1
    outer loop
      vertex -5.52935 5.36873 11.99
      vertex -5.24886 4.90649 11.99
      vertex -5.35083 5.41913 11.99
    endloop
  endfacet
  facet normal 0 0 1
    outer loop
      vertex -5.24886 4.90649 11.99
      vertex -5.52935 5.36873 11.99
      vertex -5.43401 4.85609 11.99
    endloop
  endfacet
  facet normal -0 0 1
    outer loop
      vertex -5.66646 5.33849 11.99
      vertex -5.43401 4.85609 11.99
      vertex -5.52935 5.36873 11.99
    endloop
  endfacet
  facet normal 0 0 1
    outer loop
      vertex -5.43401 4.85609 11.99
      vertex -5.66646 5.33849 11.99
      vertex -5.59261 4.82585 11.99
    endloop
  endfacet
  facet normal 0 0 1
    outer loop
      vertex -5.66646 5.33849 11.99
      vertex -5.72464 4.81577 11.99
      vertex -5.59261 4.82585 11.99
    endloop
  endfacet
  facet normal -0 0 1
    outer loop
      vertex -5.76218 5.32841 11.99
      vertex -5.72464 4.81577 11.99
      vertex -5.66646 5.33849 11.99
    endloop
  endfacet
  facet normal 0 0 1
    outer loop
      vertex -5.92267 4.82982 11.99
      vertex -5.76218 5.32841 11.99
      vertex -5.90903 5.34042 11.99
    endloop
  endfacet
  facet normal 0 0 1
    outer loop
      vertex -5.76218 5.32841 11.99
      vertex -5.92267 4.82982 11.99
      vertex -5.72464 4.81577 11.99
    endloop
  endfacet
  facet normal 0 0 1
    outer loop
      vertex -6.12928 4.87195 11.99
      vertex -5.90903 5.34042 11.99
      vertex -6.06212 5.3765 11.99
    endloop
  endfacet
  facet normal 0 0 1
    outer loop
      vertex -5.90903 5.34042 11.99
      vertex -6.12928 4.87195 11.99
      vertex -5.92267 4.82982 11.99
    endloop
  endfacet
  facet normal 0 0 1
    outer loop
      vertex -6.3445 4.94218 11.99
      vertex -6.06212 5.3765 11.99
      vertex -6.22145 5.4366 11.99
    endloop
  endfacet
  facet normal 0 0 1
    outer loop
      vertex -6.06212 5.3765 11.99
      vertex -6.3445 4.94218 11.99
      vertex -6.12928 4.87195 11.99
    endloop
  endfacet
  facet normal 0 0 1
    outer loop
      vertex -6.5683 5.0405 11.99
      vertex -6.22145 5.4366 11.99
      vertex -6.38704 5.52074 11.99
    endloop
  endfacet
  facet normal 0 0 1
    outer loop
      vertex -6.7679 5.15048 11.99
      vertex -6.38704 5.52074 11.99
      vertex -6.53783 5.60489 11.99
    endloop
  endfacet
  facet normal 0 0 1
    outer loop
      vertex -6.22145 5.4366 11.99
      vertex -6.5683 5.0405 11.99
      vertex -6.3445 4.94218 11.99
    endloop
  endfacet
  facet normal 0 0 1
    outer loop
      vertex -6.91046 5.2558 11.99
      vertex -6.53783 5.60489 11.99
      vertex -6.65268 5.66498 11.99
    endloop
  endfacet
  facet normal 0 0 1
    outer loop
      vertex -6.94954 5.63864 11.99
      vertex -6.65268 5.66498 11.99
      vertex -6.7316 5.70105 11.99
    endloop
  endfacet
  facet normal 0 0 1
    outer loop
      vertex -6.38704 5.52074 11.99
      vertex -6.7679 5.15048 11.99
      vertex -6.5683 5.0405 11.99
    endloop
  endfacet
  facet normal -0 0 1
    outer loop
      vertex -6.82302 5.70842 11.99
      vertex -6.7316 5.70105 11.99
      vertex -6.77458 5.71307 11.99
    endloop
  endfacet
  facet normal 0 0 1
    outer loop
      vertex -6.86832 5.69446 11.99
      vertex -6.7316 5.70105 11.99
      vertex -6.82302 5.70842 11.99
    endloop
  endfacet
  facet normal 0 0 1
    outer loop
      vertex -6.7316 5.70105 11.99
      vertex -6.86832 5.69446 11.99
      vertex -6.91049 5.6712 11.99
    endloop
  endfacet
  facet normal 0 0 1
    outer loop
      vertex -6.53783 5.60489 11.99
      vertex -6.91046 5.2558 11.99
      vertex -6.7679 5.15048 11.99
    endloop
  endfacet
  facet normal 0 0 1
    outer loop
      vertex -6.94954 5.63864 11.99
      vertex -6.7316 5.70105 11.99
      vertex -6.91049 5.6712 11.99
    endloop
  endfacet
  facet normal 0 0 1
    outer loop
      vertex -6.65268 5.66498 11.99
      vertex -6.94954 5.63864 11.99
      vertex -6.99601 5.35645 11.99
    endloop
  endfacet
  facet normal 0 0 1
    outer loop
      vertex -6.99601 5.35645 11.99
      vertex -6.94954 5.63864 11.99
      vertex -6.98235 5.59906 11.99
    endloop
  endfacet
  facet normal 0 0 1
    outer loop
      vertex -6.65268 5.66498 11.99
      vertex -6.99601 5.35645 11.99
      vertex -6.91046 5.2558 11.99
    endloop
  endfacet
  facet normal -0 0 1
    outer loop
      vertex -7.00577 5.55482 11.99
      vertex -6.99601 5.35645 11.99
      vertex -6.98235 5.59906 11.99
    endloop
  endfacet
  facet normal -0 0 1
    outer loop
      vertex -7.01982 5.50595 11.99
      vertex -6.99601 5.35645 11.99
      vertex -7.00577 5.55482 11.99
    endloop
  endfacet
  facet normal 0 0 1
    outer loop
      vertex -6.99601 5.35645 11.99
      vertex -7.01982 5.50595 11.99
      vertex -7.02451 5.45242 11.99
    endloop
  endfacet
  facet normal 0 0 1
    outer loop
      vertex -0.837466 9.74919 11.99
      vertex -1.39757 10.3821 11.99
      vertex -1.34992 9.74919 11.99
    endloop
  endfacet
  facet normal 0 0 1
    outer loop
      vertex -1.064 11.1808 11.99
      vertex -1.54051 10.9682 11.99
      vertex -1.39757 10.3821 11.99
    endloop
  endfacet
  facet normal -0 0 1
    outer loop
      vertex -2.11231 11.9996 11.99
      vertex -1.34716 11.8074 11.99
      vertex -1.74358 12.3748 11.99
    endloop
  endfacet
  facet normal 0 0 1
    outer loop
      vertex -1.064 11.1808 11.99
      vertex -1.77877 11.5074 11.99
      vertex -1.54051 10.9682 11.99
    endloop
  endfacet
  facet normal 0 0 1
    outer loop
      vertex -1.34716 11.8074 11.99
      vertex -2.11231 11.9996 11.99
      vertex -1.77877 11.5074 11.99
    endloop
  endfacet
  facet normal -0 0 1
    outer loop
      vertex -2.51308 12.4099 11.99
      vertex -1.74358 12.3748 11.99
      vertex -2.2213 12.8452 11.99
    endloop
  endfacet
  facet normal 0 0 1
    outer loop
      vertex -1.74358 12.3748 11.99
      vertex -2.51308 12.4099 11.99
      vertex -2.11231 11.9996 11.99
    endloop
  endfacet
  facet normal 0 0 1
    outer loop
      vertex -2.95291 12.7029 11.99
      vertex -2.2213 12.8452 11.99
      vertex -2.74823 13.1812 11.99
    endloop
  endfacet
  facet normal 0 0 1
    outer loop
      vertex -2.2213 12.8452 11.99
      vertex -2.95291 12.7029 11.99
      vertex -2.51308 12.4099 11.99
    endloop
  endfacet
  facet normal 0 0 1
    outer loop
      vertex -3.4318 12.8787 11.99
      vertex -2.74823 13.1812 11.99
      vertex -3.32437 13.3828 11.99
    endloop
  endfacet
  facet normal 0 0 1
    outer loop
      vertex -2.74823 13.1812 11.99
      vertex -3.4318 12.8787 11.99
      vertex -2.95291 12.7029 11.99
    endloop
  endfacet
  facet normal 0 0 1
    outer loop
      vertex -3.94976 13.45 11.99
      vertex -3.4318 12.8787 11.99
      vertex -3.32437 13.3828 11.99
    endloop
  endfacet
  facet normal 0 0 1
    outer loop
      vertex -3.94976 13.45 11.99
      vertex -3.94976 12.9373 11.99
      vertex -3.4318 12.8787 11.99
    endloop
  endfacet
  facet normal -0 0 1
    outer loop
      vertex -4.57512 13.3828 11.99
      vertex -3.94976 12.9373 11.99
      vertex -3.94976 13.45 11.99
    endloop
  endfacet
  facet normal 0 0 1
    outer loop
      vertex -3.94976 12.9373 11.99
      vertex -4.57512 13.3828 11.99
      vertex -4.47278 12.8787 11.99
    endloop
  endfacet
  facet normal -0 0 1
    outer loop
      vertex -5.15125 13.1812 11.99
      vertex -4.47278 12.8787 11.99
      vertex -4.57512 13.3828 11.99
    endloop
  endfacet
  facet normal 0 0 1
    outer loop
      vertex -4.47278 12.8787 11.99
      vertex -5.15125 13.1812 11.99
      vertex -4.95439 12.7029 11.99
    endloop
  endfacet
  facet normal -0 0 1
    outer loop
      vertex -5.67816 12.8452 11.99
      vertex -4.95439 12.7029 11.99
      vertex -5.15125 13.1812 11.99
    endloop
  endfacet
  facet normal 0 0 1
    outer loop
      vertex -4.95439 12.7029 11.99
      vertex -5.67816 12.8452 11.99
      vertex -5.39461 12.4099 11.99
    endloop
  endfacet
  facet normal 0 0 1
    outer loop
      vertex -6.15583 12.3748 11.99
      vertex -5.39461 12.4099 11.99
      vertex -5.67816 12.8452 11.99
    endloop
  endfacet
  facet normal 0 0 1
    outer loop
      vertex -5.39461 12.4099 11.99
      vertex -6.15583 12.3748 11.99
      vertex -5.7934 11.9996 11.99
    endloop
  endfacet
  facet normal 0 0 1
    outer loop
      vertex -6.55229 11.8074 11.99
      vertex -5.7934 11.9996 11.99
      vertex -6.15583 12.3748 11.99
    endloop
  endfacet
  facet normal 0 0 1
    outer loop
      vertex -5.7934 11.9996 11.99
      vertex -6.55229 11.8074 11.99
      vertex -6.12422 11.505 11.99
    endloop
  endfacet
  facet normal 0 0 1
    outer loop
      vertex -6.83548 11.1808 11.99
      vertex -6.12422 11.505 11.99
      vertex -6.55229 11.8074 11.99
    endloop
  endfacet
  facet normal 0 0 1
    outer loop
      vertex -7.0054 10.4947 11.99
      vertex -6.36054 10.9588 11.99
      vertex -6.83548 11.1808 11.99
    endloop
  endfacet
  facet normal 0 0 1
    outer loop
      vertex -6.12422 11.505 11.99
      vertex -6.83548 11.1808 11.99
      vertex -6.36054 10.9588 11.99
    endloop
  endfacet
  facet normal -0 0 1
    outer loop
      vertex -1.39757 10.3821 11.99
      vertex -0.837466 9.74919 11.99
      vertex -0.894092 10.4947 11.99
    endloop
  endfacet
  facet normal 0 0 1
    outer loop
      vertex -0.837466 9.74919 11.99
      vertex -1.34992 9.74919 11.99
      vertex -0.881595 9.10489 11.99
    endloop
  endfacet
  facet normal 0 0 1
    outer loop
      vertex -1.39757 10.3821 11.99
      vertex -0.894092 10.4947 11.99
      vertex -1.064 11.1808 11.99
    endloop
  endfacet
  facet normal -0 0 1
    outer loop
      vertex -1.39757 9.11626 11.99
      vertex -0.881595 9.10489 11.99
      vertex -1.34992 9.74919 11.99
    endloop
  endfacet
  facet normal -0 0 1
    outer loop
      vertex -1.77877 11.5074 11.99
      vertex -1.064 11.1808 11.99
      vertex -1.34716 11.8074 11.99
    endloop
  endfacet
  facet normal 0 0 1
    outer loop
      vertex -0.881595 9.10489 11.99
      vertex -1.39757 9.11626 11.99
      vertex -1.014 8.49731 11.99
    endloop
  endfacet
  facet normal -0 0 1
    outer loop
      vertex -1.54051 8.53021 11.99
      vertex -1.014 8.49731 11.99
      vertex -1.39757 9.11626 11.99
    endloop
  endfacet
  facet normal 0 0 1
    outer loop
      vertex -1.014 8.49731 11.99
      vertex -1.54051 8.53021 11.99
      vertex -1.23467 7.92647 11.99
    endloop
  endfacet
  facet normal -0 0 1
    outer loop
      vertex -1.77877 7.99104 11.99
      vertex -1.23467 7.92647 11.99
      vertex -1.54051 8.53021 11.99
    endloop
  endfacet
  facet normal 0 0 1
    outer loop
      vertex -1.23467 7.92647 11.99
      vertex -1.77877 7.99104 11.99
      vertex -1.5436 7.39236 11.99
    endloop
  endfacet
  facet normal -0 0 1
    outer loop
      vertex -2.11231 7.49875 11.99
      vertex -1.5436 7.39236 11.99
      vertex -1.77877 7.99104 11.99
    endloop
  endfacet
  facet normal 0 0 1
    outer loop
      vertex -1.5436 7.39236 11.99
      vertex -2.11231 7.49875 11.99
      vertex -1.91898 6.92624 11.99
    endloop
  endfacet
  facet normal -0 0 1
    outer loop
      vertex -2.51308 7.0885 11.99
      vertex -1.91898 6.92624 11.99
      vertex -2.11231 7.49875 11.99
    endloop
  endfacet
  facet normal 0 0 1
    outer loop
      vertex -1.91898 6.92624 11.99
      vertex -2.51308 7.0885 11.99
      vertex -2.33889 6.55934 11.99
    endloop
  endfacet
  facet normal -0 0 1
    outer loop
      vertex -2.95291 6.79546 11.99
      vertex -2.33889 6.55934 11.99
      vertex -2.51308 7.0885 11.99
    endloop
  endfacet
  facet normal 0 0 1
    outer loop
      vertex -2.33889 6.55934 11.99
      vertex -2.95291 6.79546 11.99
      vertex -2.80332 6.29169 11.99
    endloop
  endfacet
  facet normal -0 0 1
    outer loop
      vertex -3.4318 6.61964 11.99
      vertex -2.80332 6.29169 11.99
      vertex -2.95291 6.79546 11.99
    endloop
  endfacet
  facet normal 0 0 1
    outer loop
      vertex -2.80332 6.29169 11.99
      vertex -3.4318 6.61964 11.99
      vertex -3.31229 6.12329 11.99
    endloop
  endfacet
  facet normal -0 0 1
    outer loop
      vertex -3.94976 6.56104 11.99
      vertex -3.31229 6.12329 11.99
      vertex -3.4318 6.61964 11.99
    endloop
  endfacet
  facet normal 0 0 1
    outer loop
      vertex -3.31229 6.12329 11.99
      vertex -3.94976 6.56104 11.99
      vertex -4.01221 6.0484 11.99
    endloop
  endfacet
  facet normal 0 0 1
    outer loop
      vertex -3.31229 6.12329 11.99
      vertex -4.01221 6.0484 11.99
      vertex -3.3373 5.5517 11.99
    endloop
  endfacet
  facet normal 0 0 1
    outer loop
      vertex -4.46262 6.61925 11.99
      vertex -4.01221 6.0484 11.99
      vertex -3.94976 6.56104 11.99
    endloop
  endfacet
  facet normal 0 0 1
    outer loop
      vertex -4.46262 6.61925 11.99
      vertex -4.63562 6.13124 11.99
      vertex -4.01221 6.0484 11.99
    endloop
  endfacet
  facet normal 0 0 1
    outer loop
      vertex -4.93877 6.79388 11.99
      vertex -4.63562 6.13124 11.99
      vertex -4.46262 6.61925 11.99
    endloop
  endfacet
  facet normal 0 0 1
    outer loop
      vertex -4.93877 6.79388 11.99
      vertex -5.2059 6.34222 11.99
      vertex -4.63562 6.13124 11.99
    endloop
  endfacet
  facet normal 0 0 1
    outer loop
      vertex -5.37819 7.08495 11.99
      vertex -5.2059 6.34222 11.99
      vertex -4.93877 6.79388 11.99
    endloop
  endfacet
  facet normal 0 0 1
    outer loop
      vertex -5.37819 7.08495 11.99
      vertex -5.72306 6.68135 11.99
      vertex -5.2059 6.34222 11.99
    endloop
  endfacet
  facet normal 0 0 1
    outer loop
      vertex -5.78089 7.49245 11.99
      vertex -5.72306 6.68135 11.99
      vertex -5.37819 7.08495 11.99
    endloop
  endfacet
  facet normal -0 0 1
    outer loop
      vertex -6.56987 7.7097 11.99
      vertex -5.78089 7.49245 11.99
      vertex -6.11719 7.98045 11.99
    endloop
  endfacet
  facet normal 0 0 1
    outer loop
      vertex -5.78089 7.49245 11.99
      vertex -6.18706 7.14864 11.99
      vertex -5.72306 6.68135 11.99
    endloop
  endfacet
  facet normal -0 0 1
    outer loop
      vertex -6.8433 8.33014 11.99
      vertex -6.11719 7.98045 11.99
      vertex -6.35741 8.513 11.99
    endloop
  endfacet
  facet normal -0 0 1
    outer loop
      vertex -7.00736 9.00998 11.99
      vertex -6.35741 8.513 11.99
      vertex -6.50154 9.09007 11.99
    endloop
  endfacet
  facet normal 0 0 1
    outer loop
      vertex -5.78089 7.49245 11.99
      vertex -6.56987 7.7097 11.99
      vertex -6.18706 7.14864 11.99
    endloop
  endfacet
  facet normal 0 0 1
    outer loop
      vertex -7.00736 9.00998 11.99
      vertex -6.50154 9.09007 11.99
      vertex -6.54958 9.71167 11.99
    endloop
  endfacet
  facet normal 0 0 1
    outer loop
      vertex -6.36054 10.9588 11.99
      vertex -7.0054 10.4947 11.99
      vertex -6.50232 10.361 11.99
    endloop
  endfacet
  facet normal 0 0 1
    outer loop
      vertex -7.06205 9.74919 11.99
      vertex -6.50232 10.361 11.99
      vertex -7.0054 10.4947 11.99
    endloop
  endfacet
  facet normal 0 -0 1
    outer loop
      vertex -7.00736 9.00998 11.99
      vertex -6.54958 9.71167 11.99
      vertex -7.06205 9.74919 11.99
    endloop
  endfacet
  facet normal 0 0 1
    outer loop
      vertex -6.50232 10.361 11.99
      vertex -7.06205 9.74919 11.99
      vertex -6.54958 9.71167 11.99
    endloop
  endfacet
  facet normal 0 0 1
    outer loop
      vertex -6.35741 8.513 11.99
      vertex -7.00736 9.00998 11.99
      vertex -6.8433 8.33014 11.99
    endloop
  endfacet
  facet normal 0 0 1
    outer loop
      vertex -6.11719 7.98045 11.99
      vertex -6.8433 8.33014 11.99
      vertex -6.56987 7.7097 11.99
    endloop
  endfacet
  facet normal -0.199799 -0.979837 0
    outer loop
      vertex -6.12928 4.87195 10
      vertex -5.92267 4.82982 11.99
      vertex -6.12928 4.87195 11.99
    endloop
  endfacet
  facet normal -0.199799 -0.979837 -0
    outer loop
      vertex -5.92267 4.82982 11.99
      vertex -6.12928 4.87195 10
      vertex -5.92267 4.82982 10
    endloop
  endfacet
  facet normal -0.310218 -0.950665 0
    outer loop
      vertex -6.3445 4.94218 10
      vertex -6.12928 4.87195 11.99
      vertex -6.3445 4.94218 11.99
    endloop
  endfacet
  facet normal -0.310218 -0.950665 -0
    outer loop
      vertex -6.12928 4.87195 11.99
      vertex -6.3445 4.94218 10
      vertex -6.12928 4.87195 10
    endloop
  endfacet
  facet normal -0.402218 -0.915544 0
    outer loop
      vertex -6.5683 5.0405 10
      vertex -6.3445 4.94218 11.99
      vertex -6.5683 5.0405 11.99
    endloop
  endfacet
  facet normal -0.402218 -0.915544 -0
    outer loop
      vertex -6.3445 4.94218 11.99
      vertex -6.5683 5.0405 10
      vertex -6.3445 4.94218 10
    endloop
  endfacet
  facet normal -0.482592 -0.875845 0
    outer loop
      vertex -6.7679 5.15048 10
      vertex -6.5683 5.0405 11.99
      vertex -6.7679 5.15048 11.99
    endloop
  endfacet
  facet normal -0.482592 -0.875845 -0
    outer loop
      vertex -6.5683 5.0405 11.99
      vertex -6.7679 5.15048 10
      vertex -6.5683 5.0405 10
    endloop
  endfacet
  facet normal -0.594207 -0.804312 0
    outer loop
      vertex -6.91046 5.2558 10
      vertex -6.7679 5.15048 11.99
      vertex -6.91046 5.2558 11.99
    endloop
  endfacet
  facet normal -0.594207 -0.804312 -0
    outer loop
      vertex -6.7679 5.15048 11.99
      vertex -6.91046 5.2558 10
      vertex -6.7679 5.15048 10
    endloop
  endfacet
  facet normal -0.761949 -0.647637 0
    outer loop
      vertex -6.91046 5.2558 10
      vertex -6.99601 5.35645 11.99
      vertex -6.99601 5.35645 10
    endloop
  endfacet
  facet normal -0.761949 -0.647637 0
    outer loop
      vertex -6.99601 5.35645 11.99
      vertex -6.91046 5.2558 10
      vertex -6.91046 5.2558 11.99
    endloop
  endfacet
  facet normal -0.958623 -0.28468 0
    outer loop
      vertex -6.99601 5.35645 10
      vertex -7.02451 5.45242 11.99
      vertex -7.02451 5.45242 10
    endloop
  endfacet
  facet normal -0.958623 -0.28468 0
    outer loop
      vertex -7.02451 5.45242 11.99
      vertex -6.99601 5.35645 10
      vertex -6.99601 5.35645 11.99
    endloop
  endfacet
  facet normal -0.996184 0.0872801 0
    outer loop
      vertex -7.02451 5.45242 10
      vertex -7.01982 5.50595 11.99
      vertex -7.01982 5.50595 10
    endloop
  endfacet
  facet normal -0.996184 0.0872801 0
    outer loop
      vertex -7.01982 5.50595 11.99
      vertex -7.02451 5.45242 10
      vertex -7.02451 5.45242 11.99
    endloop
  endfacet
  facet normal -0.96107 0.276305 0
    outer loop
      vertex -7.01982 5.50595 10
      vertex -7.00577 5.55482 11.99
      vertex -7.00577 5.55482 10
    endloop
  endfacet
  facet normal -0.96107 0.276305 0
    outer loop
      vertex -7.00577 5.55482 11.99
      vertex -7.01982 5.50595 10
      vertex -7.01982 5.50595 11.99
    endloop
  endfacet
  facet normal -0.883798 0.467869 0
    outer loop
      vertex -7.00577 5.55482 10
      vertex -6.98235 5.59906 11.99
      vertex -6.98235 5.59906 10
    endloop
  endfacet
  facet normal -0.883798 0.467869 0
    outer loop
      vertex -6.98235 5.59906 11.99
      vertex -7.00577 5.55482 10
      vertex -7.00577 5.55482 11.99
    endloop
  endfacet
  facet normal -0.769877 0.638192 0
    outer loop
      vertex -6.98235 5.59906 10
      vertex -6.94954 5.63864 11.99
      vertex -6.94954 5.63864 10
    endloop
  endfacet
  facet normal -0.769877 0.638192 0
    outer loop
      vertex -6.94954 5.63864 11.99
      vertex -6.98235 5.59906 10
      vertex -6.98235 5.59906 11.99
    endloop
  endfacet
  facet normal -0.640397 0.768044 0
    outer loop
      vertex -6.91049 5.6712 10
      vertex -6.94954 5.63864 11.99
      vertex -6.91049 5.6712 11.99
    endloop
  endfacet
  facet normal -0.640397 0.768044 0
    outer loop
      vertex -6.94954 5.63864 11.99
      vertex -6.91049 5.6712 10
      vertex -6.94954 5.63864 10
    endloop
  endfacet
  facet normal -0.482979 0.875632 0
    outer loop
      vertex -6.86832 5.69446 10
      vertex -6.91049 5.6712 11.99
      vertex -6.86832 5.69446 11.99
    endloop
  endfacet
  facet normal -0.482979 0.875632 0
    outer loop
      vertex -6.91049 5.6712 11.99
      vertex -6.86832 5.69446 10
      vertex -6.91049 5.6712 10
    endloop
  endfacet
  facet normal -0.294501 0.955651 0
    outer loop
      vertex -6.82302 5.70842 10
      vertex -6.86832 5.69446 11.99
      vertex -6.82302 5.70842 11.99
    endloop
  endfacet
  facet normal -0.294501 0.955651 0
    outer loop
      vertex -6.86832 5.69446 11.99
      vertex -6.82302 5.70842 10
      vertex -6.86832 5.69446 10
    endloop
  endfacet
  facet normal -0.0955558 0.995424 0
    outer loop
      vertex -6.77458 5.71307 10
      vertex -6.82302 5.70842 11.99
      vertex -6.77458 5.71307 11.99
    endloop
  endfacet
  facet normal -0.0955558 0.995424 0
    outer loop
      vertex -6.82302 5.70842 11.99
      vertex -6.77458 5.71307 10
      vertex -6.82302 5.70842 10
    endloop
  endfacet
  facet normal 0.269331 0.963048 -0
    outer loop
      vertex -6.7316 5.70105 10
      vertex -6.77458 5.71307 11.99
      vertex -6.7316 5.70105 11.99
    endloop
  endfacet
  facet normal 0.269331 0.963048 0
    outer loop
      vertex -6.77458 5.71307 11.99
      vertex -6.7316 5.70105 10
      vertex -6.77458 5.71307 10
    endloop
  endfacet
  facet normal 0.415686 0.909508 -0
    outer loop
      vertex -6.65268 5.66498 10
      vertex -6.7316 5.70105 11.99
      vertex -6.65268 5.66498 11.99
    endloop
  endfacet
  facet normal 0.415686 0.909508 0
    outer loop
      vertex -6.7316 5.70105 11.99
      vertex -6.65268 5.66498 10
      vertex -6.7316 5.70105 10
    endloop
  endfacet
  facet normal 0.463586 0.886052 -0
    outer loop
      vertex -6.53783 5.60489 10
      vertex -6.65268 5.66498 11.99
      vertex -6.53783 5.60489 11.99
    endloop
  endfacet
  facet normal 0.463586 0.886052 0
    outer loop
      vertex -6.65268 5.66498 11.99
      vertex -6.53783 5.60489 10
      vertex -6.65268 5.66498 10
    endloop
  endfacet
  facet normal 0.487314 0.873227 -0
    outer loop
      vertex -6.38704 5.52074 10
      vertex -6.53783 5.60489 11.99
      vertex -6.38704 5.52074 11.99
    endloop
  endfacet
  facet normal 0.487314 0.873227 0
    outer loop
      vertex -6.53783 5.60489 11.99
      vertex -6.38704 5.52074 10
      vertex -6.53783 5.60489 10
    endloop
  endfacet
  facet normal 0.452997 0.891512 -0
    outer loop
      vertex -6.22145 5.4366 10
      vertex -6.38704 5.52074 11.99
      vertex -6.22145 5.4366 11.99
    endloop
  endfacet
  facet normal 0.452997 0.891512 0
    outer loop
      vertex -6.38704 5.52074 11.99
      vertex -6.22145 5.4366 10
      vertex -6.38704 5.52074 10
    endloop
  endfacet
  facet normal 0.352931 0.935649 -0
    outer loop
      vertex -6.06212 5.3765 10
      vertex -6.22145 5.4366 11.99
      vertex -6.06212 5.3765 11.99
    endloop
  endfacet
  facet normal 0.352931 0.935649 0
    outer loop
      vertex -6.22145 5.4366 11.99
      vertex -6.06212 5.3765 10
      vertex -6.22145 5.4366 10
    endloop
  endfacet
  facet normal 0.229394 0.973334 -0
    outer loop
      vertex -5.90903 5.34042 10
      vertex -6.06212 5.3765 11.99
      vertex -5.90903 5.34042 11.99
    endloop
  endfacet
  facet normal 0.229394 0.973334 0
    outer loop
      vertex -6.06212 5.3765 11.99
      vertex -5.90903 5.34042 10
      vertex -6.06212 5.3765 10
    endloop
  endfacet
  facet normal 0.081512 0.996672 -0
    outer loop
      vertex -5.76218 5.32841 10
      vertex -5.90903 5.34042 11.99
      vertex -5.76218 5.32841 11.99
    endloop
  endfacet
  facet normal 0.081512 0.996672 0
    outer loop
      vertex -5.90903 5.34042 11.99
      vertex -5.76218 5.32841 10
      vertex -5.90903 5.34042 10
    endloop
  endfacet
  facet normal -0.104728 0.994501 0
    outer loop
      vertex -5.66646 5.33849 10
      vertex -5.76218 5.32841 11.99
      vertex -5.66646 5.33849 11.99
    endloop
  endfacet
  facet normal -0.104728 0.994501 0
    outer loop
      vertex -5.76218 5.32841 11.99
      vertex -5.66646 5.33849 10
      vertex -5.76218 5.32841 10
    endloop
  endfacet
  facet normal -0.215377 0.976531 0
    outer loop
      vertex -5.52935 5.36873 10
      vertex -5.66646 5.33849 11.99
      vertex -5.52935 5.36873 11.99
    endloop
  endfacet
  facet normal -0.215377 0.976531 0
    outer loop
      vertex -5.66646 5.33849 11.99
      vertex -5.52935 5.36873 10
      vertex -5.66646 5.33849 10
    endloop
  endfacet
  facet normal -0.271701 0.962382 0
    outer loop
      vertex -5.35083 5.41913 10
      vertex -5.52935 5.36873 11.99
      vertex -5.35083 5.41913 11.99
    endloop
  endfacet
  facet normal -0.271701 0.962382 0
    outer loop
      vertex -5.52935 5.36873 11.99
      vertex -5.35083 5.41913 10
      vertex -5.52935 5.36873 10
    endloop
  endfacet
  facet normal -0.305505 0.952191 0
    outer loop
      vertex -5.13091 5.48969 10
      vertex -5.35083 5.41913 11.99
      vertex -5.13091 5.48969 11.99
    endloop
  endfacet
  facet normal -0.305505 0.952191 0
    outer loop
      vertex -5.35083 5.41913 11.99
      vertex -5.13091 5.48969 10
      vertex -5.35083 5.41913 10
    endloop
  endfacet
  facet normal -0.28182 0.959467 0
    outer loop
      vertex -4.89072 5.56024 10
      vertex -5.13091 5.48969 11.99
      vertex -4.89072 5.56024 11.99
    endloop
  endfacet
  facet normal -0.28182 0.959467 0
    outer loop
      vertex -5.13091 5.48969 11.99
      vertex -4.89072 5.56024 10
      vertex -5.13091 5.48969 10
    endloop
  endfacet
  facet normal -0.206002 0.978552 0
    outer loop
      vertex -4.65131 5.61064 10
      vertex -4.89072 5.56024 11.99
      vertex -4.65131 5.61064 11.99
    endloop
  endfacet
  facet normal -0.206002 0.978552 0
    outer loop
      vertex -4.89072 5.56024 11.99
      vertex -4.65131 5.61064 10
      vertex -4.89072 5.56024 10
    endloop
  endfacet
  facet normal -0.125702 0.992068 0
    outer loop
      vertex -4.41265 5.64088 10
      vertex -4.65131 5.61064 11.99
      vertex -4.41265 5.64088 11.99
    endloop
  endfacet
  facet normal -0.125702 0.992068 0
    outer loop
      vertex -4.65131 5.61064 11.99
      vertex -4.41265 5.64088 10
      vertex -4.65131 5.61064 10
    endloop
  endfacet
  facet normal -0.0423747 0.999102 0
    outer loop
      vertex -4.17475 5.65097 10
      vertex -4.41265 5.64088 11.99
      vertex -4.17475 5.65097 11.99
    endloop
  endfacet
  facet normal -0.0423747 0.999102 0
    outer loop
      vertex -4.41265 5.64088 11.99
      vertex -4.17475 5.65097 10
      vertex -4.41265 5.64088 10
    endloop
  endfacet
  facet normal 0.0346912 0.999398 -0
    outer loop
      vertex -3.99585 5.64476 10
      vertex -4.17475 5.65097 11.99
      vertex -3.99585 5.64476 11.99
    endloop
  endfacet
  facet normal 0.0346912 0.999398 0
    outer loop
      vertex -4.17475 5.65097 11.99
      vertex -3.99585 5.64476 10
      vertex -4.17475 5.65097 10
    endloop
  endfacet
  facet normal 0.0930589 0.995661 -0
    outer loop
      vertex -3.79663 5.62614 10
      vertex -3.99585 5.64476 11.99
      vertex -3.79663 5.62614 11.99
    endloop
  endfacet
  facet normal 0.0930589 0.995661 0
    outer loop
      vertex -3.99585 5.64476 11.99
      vertex -3.79663 5.62614 10
      vertex -3.99585 5.64476 10
    endloop
  endfacet
  facet normal 0.139925 0.990162 -0
    outer loop
      vertex -3.57712 5.59512 10
      vertex -3.79663 5.62614 11.99
      vertex -3.57712 5.59512 11.99
    endloop
  endfacet
  facet normal 0.139925 0.990162 0
    outer loop
      vertex -3.79663 5.62614 11.99
      vertex -3.57712 5.59512 10
      vertex -3.79663 5.62614 10
    endloop
  endfacet
  facet normal 0.178156 0.984002 -0
    outer loop
      vertex -3.3373 5.5517 10
      vertex -3.57712 5.59512 11.99
      vertex -3.3373 5.5517 11.99
    endloop
  endfacet
  facet normal 0.178156 0.984002 0
    outer loop
      vertex -3.57712 5.59512 11.99
      vertex -3.3373 5.5517 10
      vertex -3.57712 5.59512 10
    endloop
  endfacet
  facet normal -0.592733 -0.805399 0
    outer loop
      vertex -4.01221 6.0484 10
      vertex -3.3373 5.5517 11.99
      vertex -4.01221 6.0484 11.99
    endloop
  endfacet
  facet normal -0.592733 -0.805399 -0
    outer loop
      vertex -3.3373 5.5517 11.99
      vertex -4.01221 6.0484 10
      vertex -3.3373 5.5517 10
    endloop
  endfacet
  facet normal -0.131724 -0.991286 0
    outer loop
      vertex -4.63562 6.13124 10
      vertex -4.01221 6.0484 11.99
      vertex -4.63562 6.13124 11.99
    endloop
  endfacet
  facet normal -0.131724 -0.991286 -0
    outer loop
      vertex -4.01221 6.0484 11.99
      vertex -4.63562 6.13124 10
      vertex -4.01221 6.0484 10
    endloop
  endfacet
  facet normal -0.346975 -0.937874 0
    outer loop
      vertex -5.2059 6.34222 10
      vertex -4.63562 6.13124 11.99
      vertex -5.2059 6.34222 11.99
    endloop
  endfacet
  facet normal -0.346975 -0.937874 -0
    outer loop
      vertex -4.63562 6.13124 11.99
      vertex -5.2059 6.34222 10
      vertex -4.63562 6.13124 10
    endloop
  endfacet
  facet normal -0.548367 -0.836238 0
    outer loop
      vertex -5.72306 6.68135 10
      vertex -5.2059 6.34222 11.99
      vertex -5.72306 6.68135 11.99
    endloop
  endfacet
  facet normal -0.548367 -0.836238 -0
    outer loop
      vertex -5.2059 6.34222 11.99
      vertex -5.72306 6.68135 10
      vertex -5.2059 6.34222 10
    endloop
  endfacet
  facet normal -0.7096 -0.704604 0
    outer loop
      vertex -5.72306 6.68135 10
      vertex -6.18706 7.14864 11.99
      vertex -6.18706 7.14864 10
    endloop
  endfacet
  facet normal -0.7096 -0.704604 0
    outer loop
      vertex -6.18706 7.14864 11.99
      vertex -5.72306 6.68135 10
      vertex -5.72306 6.68135 11.99
    endloop
  endfacet
  facet normal -0.826043 -0.563607 0
    outer loop
      vertex -6.18706 7.14864 10
      vertex -6.56987 7.7097 11.99
      vertex -6.56987 7.7097 10
    endloop
  endfacet
  facet normal -0.826043 -0.563607 0
    outer loop
      vertex -6.56987 7.7097 11.99
      vertex -6.18706 7.14864 10
      vertex -6.18706 7.14864 11.99
    endloop
  endfacet
  facet normal -0.915078 -0.403278 0
    outer loop
      vertex -6.56987 7.7097 10
      vertex -6.8433 8.33014 11.99
      vertex -6.8433 8.33014 10
    endloop
  endfacet
  facet normal -0.915078 -0.403278 0
    outer loop
      vertex -6.8433 8.33014 11.99
      vertex -6.56987 7.7097 10
      vertex -6.56987 7.7097 11.99
    endloop
  endfacet
  facet normal -0.972095 -0.234587 0
    outer loop
      vertex -6.8433 8.33014 10
      vertex -7.00736 9.00998 11.99
      vertex -7.00736 9.00998 10
    endloop
  endfacet
  facet normal -0.972095 -0.234587 0
    outer loop
      vertex -7.00736 9.00998 11.99
      vertex -6.8433 8.33014 10
      vertex -6.8433 8.33014 11.99
    endloop
  endfacet
  facet normal -0.997274 -0.0737827 0
    outer loop
      vertex -7.00736 9.00998 10
      vertex -7.06205 9.74919 11.99
      vertex -7.06205 9.74919 10
    endloop
  endfacet
  facet normal -0.997274 -0.0737827 0
    outer loop
      vertex -7.06205 9.74919 11.99
      vertex -7.00736 9.00998 10
      vertex -7.00736 9.00998 11.99
    endloop
  endfacet
  facet normal -0.997125 0.0757698 0
    outer loop
      vertex -7.06205 9.74919 10
      vertex -7.0054 10.4947 11.99
      vertex -7.0054 10.4947 10
    endloop
  endfacet
  facet normal -0.997125 0.0757698 0
    outer loop
      vertex -7.0054 10.4947 11.99
      vertex -7.06205 9.74919 10
      vertex -7.06205 9.74919 11.99
    endloop
  endfacet
  facet normal -0.970674 0.240398 0
    outer loop
      vertex -7.0054 10.4947 10
      vertex -6.83548 11.1808 11.99
      vertex -6.83548 11.1808 10
    endloop
  endfacet
  facet normal -0.970674 0.240398 0
    outer loop
      vertex -6.83548 11.1808 11.99
      vertex -7.0054 10.4947 10
      vertex -7.0054 10.4947 11.99
    endloop
  endfacet
  facet normal -0.911256 0.41184 0
    outer loop
      vertex -6.83548 11.1808 10
      vertex -6.55229 11.8074 11.99
      vertex -6.55229 11.8074 10
    endloop
  endfacet
  facet normal -0.911256 0.41184 0
    outer loop
      vertex -6.55229 11.8074 11.99
      vertex -6.83548 11.1808 10
      vertex -6.83548 11.1808 11.99
    endloop
  endfacet
  facet normal -0.81972 0.572764 0
    outer loop
      vertex -6.55229 11.8074 10
      vertex -6.15583 12.3748 11.99
      vertex -6.15583 12.3748 10
    endloop
  endfacet
  facet normal -0.81972 0.572764 0
    outer loop
      vertex -6.15583 12.3748 11.99
      vertex -6.55229 11.8074 10
      vertex -6.55229 11.8074 11.99
    endloop
  endfacet
  facet normal -0.701664 0.712508 0
    outer loop
      vertex -5.67816 12.8452 10
      vertex -6.15583 12.3748 11.99
      vertex -5.67816 12.8452 11.99
    endloop
  endfacet
  facet normal -0.701664 0.712508 0
    outer loop
      vertex -6.15583 12.3748 11.99
      vertex -5.67816 12.8452 10
      vertex -6.15583 12.3748 10
    endloop
  endfacet
  facet normal -0.537665 0.843158 0
    outer loop
      vertex -5.15125 13.1812 10
      vertex -5.67816 12.8452 11.99
      vertex -5.15125 13.1812 11.99
    endloop
  endfacet
  facet normal -0.537665 0.843158 0
    outer loop
      vertex -5.67816 12.8452 11.99
      vertex -5.15125 13.1812 10
      vertex -5.67816 12.8452 10
    endloop
  endfacet
  facet normal -0.330284 0.943882 0
    outer loop
      vertex -4.57512 13.3828 10
      vertex -5.15125 13.1812 11.99
      vertex -4.57512 13.3828 11.99
    endloop
  endfacet
  facet normal -0.330284 0.943882 0
    outer loop
      vertex -5.15125 13.1812 11.99
      vertex -4.57512 13.3828 10
      vertex -5.15125 13.1812 10
    endloop
  endfacet
  facet normal -0.106843 0.994276 0
    outer loop
      vertex -3.94976 13.45 10
      vertex -4.57512 13.3828 11.99
      vertex -3.94976 13.45 11.99
    endloop
  endfacet
  facet normal -0.106843 0.994276 0
    outer loop
      vertex -4.57512 13.3828 11.99
      vertex -3.94976 13.45 10
      vertex -4.57512 13.3828 10
    endloop
  endfacet
  facet normal 0.106838 0.994276 -0
    outer loop
      vertex -3.32437 13.3828 10
      vertex -3.94976 13.45 11.99
      vertex -3.32437 13.3828 11.99
    endloop
  endfacet
  facet normal 0.106838 0.994276 0
    outer loop
      vertex -3.94976 13.45 11.99
      vertex -3.32437 13.3828 10
      vertex -3.94976 13.45 10
    endloop
  endfacet
  facet normal 0.330279 0.943883 -0
    outer loop
      vertex -2.74823 13.1812 10
      vertex -3.32437 13.3828 11.99
      vertex -2.74823 13.1812 11.99
    endloop
  endfacet
  facet normal 0.330279 0.943883 0
    outer loop
      vertex -3.32437 13.3828 11.99
      vertex -2.74823 13.1812 10
      vertex -3.32437 13.3828 10
    endloop
  endfacet
  facet normal 0.537651 0.843168 -0
    outer loop
      vertex -2.2213 12.8452 10
      vertex -2.74823 13.1812 11.99
      vertex -2.2213 12.8452 11.99
    endloop
  endfacet
  facet normal 0.537651 0.843168 0
    outer loop
      vertex -2.74823 13.1812 11.99
      vertex -2.2213 12.8452 10
      vertex -2.74823 13.1812 10
    endloop
  endfacet
  facet normal 0.701627 0.712545 -0
    outer loop
      vertex -1.74358 12.3748 10
      vertex -2.2213 12.8452 11.99
      vertex -1.74358 12.3748 11.99
    endloop
  endfacet
  facet normal 0.701627 0.712545 0
    outer loop
      vertex -2.2213 12.8452 11.99
      vertex -1.74358 12.3748 10
      vertex -2.2213 12.8452 10
    endloop
  endfacet
  facet normal 0.819747 0.572725 0
    outer loop
      vertex -1.34716 11.8074 11.99
      vertex -1.74358 12.3748 10
      vertex -1.74358 12.3748 11.99
    endloop
  endfacet
  facet normal 0.819747 0.572725 0
    outer loop
      vertex -1.74358 12.3748 10
      vertex -1.34716 11.8074 11.99
      vertex -1.34716 11.8074 10
    endloop
  endfacet
  facet normal 0.911273 0.411803 0
    outer loop
      vertex -1.064 11.1808 11.99
      vertex -1.34716 11.8074 10
      vertex -1.34716 11.8074 11.99
    endloop
  endfacet
  facet normal 0.911273 0.411803 0
    outer loop
      vertex -1.34716 11.8074 10
      vertex -1.064 11.1808 11.99
      vertex -1.064 11.1808 10
    endloop
  endfacet
  facet normal 0.970678 0.240382 0
    outer loop
      vertex -0.894092 10.4947 11.99
      vertex -1.064 11.1808 10
      vertex -1.064 11.1808 11.99
    endloop
  endfacet
  facet normal 0.970678 0.240382 0
    outer loop
      vertex -1.064 11.1808 10
      vertex -0.894092 10.4947 11.99
      vertex -0.894092 10.4947 10
    endloop
  endfacet
  facet normal 0.997128 0.0757379 0
    outer loop
      vertex -0.837466 9.74919 11.99
      vertex -0.894092 10.4947 10
      vertex -0.894092 10.4947 11.99
    endloop
  endfacet
  facet normal 0.997128 0.0757379 0
    outer loop
      vertex -0.894092 10.4947 10
      vertex -0.837466 9.74919 11.99
      vertex -0.837466 9.74919 10
    endloop
  endfacet
  facet normal 0.997663 -0.0683313 0
    outer loop
      vertex -0.881595 9.10489 11.99
      vertex -0.837466 9.74919 10
      vertex -0.837466 9.74919 11.99
    endloop
  endfacet
  facet normal 0.997663 -0.0683313 0
    outer loop
      vertex -0.837466 9.74919 10
      vertex -0.881595 9.10489 11.99
      vertex -0.881595 9.10489 10
    endloop
  endfacet
  facet normal 0.977069 -0.212925 0
    outer loop
      vertex -1.014 8.49731 11.99
      vertex -0.881595 9.10489 10
      vertex -0.881595 9.10489 11.99
    endloop
  endfacet
  facet normal 0.977069 -0.212925 0
    outer loop
      vertex -0.881595 9.10489 10
      vertex -1.014 8.49731 11.99
      vertex -1.014 8.49731 10
    endloop
  endfacet
  facet normal 0.932733 -0.360567 0
    outer loop
      vertex -1.23467 7.92647 11.99
      vertex -1.014 8.49731 10
      vertex -1.014 8.49731 11.99
    endloop
  endfacet
  facet normal 0.932733 -0.360567 0
    outer loop
      vertex -1.014 8.49731 10
      vertex -1.23467 7.92647 11.99
      vertex -1.23467 7.92647 10
    endloop
  endfacet
  facet normal 0.865631 -0.500682 0
    outer loop
      vertex -1.5436 7.39236 11.99
      vertex -1.23467 7.92647 10
      vertex -1.23467 7.92647 11.99
    endloop
  endfacet
  facet normal 0.865631 -0.500682 0
    outer loop
      vertex -1.23467 7.92647 10
      vertex -1.5436 7.39236 11.99
      vertex -1.5436 7.39236 10
    endloop
  endfacet
  facet normal 0.77884 -0.627223 0
    outer loop
      vertex -1.91898 6.92624 11.99
      vertex -1.5436 7.39236 10
      vertex -1.5436 7.39236 11.99
    endloop
  endfacet
  facet normal 0.77884 -0.627223 0
    outer loop
      vertex -1.5436 7.39236 10
      vertex -1.91898 6.92624 11.99
      vertex -1.91898 6.92624 10
    endloop
  endfacet
  facet normal 0.657975 -0.75304 0
    outer loop
      vertex -2.33889 6.55934 10
      vertex -1.91898 6.92624 11.99
      vertex -2.33889 6.55934 11.99
    endloop
  endfacet
  facet normal 0.657975 -0.75304 0
    outer loop
      vertex -1.91898 6.92624 11.99
      vertex -2.33889 6.55934 10
      vertex -1.91898 6.92624 10
    endloop
  endfacet
  facet normal 0.499316 -0.86642 0
    outer loop
      vertex -2.80332 6.29169 10
      vertex -2.33889 6.55934 11.99
      vertex -2.80332 6.29169 11.99
    endloop
  endfacet
  facet normal 0.499316 -0.86642 0
    outer loop
      vertex -2.33889 6.55934 11.99
      vertex -2.80332 6.29169 10
      vertex -2.33889 6.55934 10
    endloop
  endfacet
  facet normal 0.314117 -0.949384 0
    outer loop
      vertex -3.31229 6.12329 10
      vertex -2.80332 6.29169 11.99
      vertex -3.31229 6.12329 11.99
    endloop
  endfacet
  facet normal 0.314117 -0.949384 0
    outer loop
      vertex -2.80332 6.29169 11.99
      vertex -3.31229 6.12329 10
      vertex -2.80332 6.29169 10
    endloop
  endfacet
  facet normal 0.584418 0.811453 -0
    outer loop
      vertex -2.18737 5.31311 10
      vertex -3.31229 6.12329 11.99
      vertex -2.18737 5.31311 11.99
    endloop
  endfacet
  facet normal 0.584418 0.811453 0
    outer loop
      vertex -3.31229 6.12329 11.99
      vertex -2.18737 5.31311 10
      vertex -3.31229 6.12329 10
    endloop
  endfacet
  facet normal 0.649667 0.760219 -0
    outer loop
      vertex -2.1272 5.26169 10
      vertex -2.18737 5.31311 11.99
      vertex -2.1272 5.26169 11.99
    endloop
  endfacet
  facet normal 0.649667 0.760219 0
    outer loop
      vertex -2.18737 5.31311 11.99
      vertex -2.1272 5.26169 10
      vertex -2.18737 5.31311 10
    endloop
  endfacet
  facet normal 0.785498 0.618864 0
    outer loop
      vertex -2.08423 5.20715 11.99
      vertex -2.1272 5.26169 10
      vertex -2.1272 5.26169 11.99
    endloop
  endfacet
  facet normal 0.785498 0.618864 0
    outer loop
      vertex -2.1272 5.26169 10
      vertex -2.08423 5.20715 11.99
      vertex -2.08423 5.20715 10
    endloop
  endfacet
  facet normal 0.912797 0.408415 0
    outer loop
      vertex -2.05844 5.14951 11.99
      vertex -2.08423 5.20715 10
      vertex -2.08423 5.20715 11.99
    endloop
  endfacet
  facet normal 0.912797 0.408415 0
    outer loop
      vertex -2.08423 5.20715 10
      vertex -2.05844 5.14951 11.99
      vertex -2.05844 5.14951 10
    endloop
  endfacet
  facet normal 0.990154 0.139984 0
    outer loop
      vertex -2.04985 5.08875 11.99
      vertex -2.05844 5.14951 10
      vertex -2.05844 5.14951 11.99
    endloop
  endfacet
  facet normal 0.990154 0.139984 0
    outer loop
      vertex -2.05844 5.14951 10
      vertex -2.04985 5.08875 11.99
      vertex -2.04985 5.08875 10
    endloop
  endfacet
  facet normal 0.996178 -0.0873448 0
    outer loop
      vertex -2.05454 5.03526 11.99
      vertex -2.04985 5.08875 10
      vertex -2.04985 5.08875 11.99
    endloop
  endfacet
  facet normal 0.996178 -0.0873448 0
    outer loop
      vertex -2.04985 5.08875 10
      vertex -2.05454 5.03526 11.99
      vertex -2.05454 5.03526 10
    endloop
  endfacet
  facet normal 0.96101 -0.276514 0
    outer loop
      vertex -2.06859 4.98643 11.99
      vertex -2.05454 5.03526 10
      vertex -2.05454 5.03526 11.99
    endloop
  endfacet
  facet normal 0.96101 -0.276514 0
    outer loop
      vertex -2.05454 5.03526 10
      vertex -2.06859 4.98643 11.99
      vertex -2.06859 4.98643 10
    endloop
  endfacet
  facet normal 0.883369 -0.468678 0
    outer loop
      vertex -2.09203 4.94225 11.99
      vertex -2.06859 4.98643 10
      vertex -2.06859 4.98643 11.99
    endloop
  endfacet
  facet normal 0.883369 -0.468678 0
    outer loop
      vertex -2.06859 4.98643 10
      vertex -2.09203 4.94225 11.99
      vertex -2.09203 4.94225 10
    endloop
  endfacet
  facet normal 0.769751 -0.638344 0
    outer loop
      vertex -2.12482 4.90271 11.99
      vertex -2.09203 4.94225 10
      vertex -2.09203 4.94225 11.99
    endloop
  endfacet
  facet normal 0.769751 -0.638344 0
    outer loop
      vertex -2.09203 4.94225 10
      vertex -2.12482 4.90271 11.99
      vertex -2.12482 4.90271 10
    endloop
  endfacet
  facet normal 0.64001 -0.768366 0
    outer loop
      vertex -2.16391 4.87015 10
      vertex -2.12482 4.90271 11.99
      vertex -2.16391 4.87015 11.99
    endloop
  endfacet
  facet normal 0.64001 -0.768366 0
    outer loop
      vertex -2.12482 4.90271 11.99
      vertex -2.16391 4.87015 10
      vertex -2.12482 4.90271 10
    endloop
  endfacet
  facet normal 0.482787 -0.875738 0
    outer loop
      vertex -2.20612 4.84688 10
      vertex -2.16391 4.87015 11.99
      vertex -2.20612 4.84688 11.99
    endloop
  endfacet
  facet normal 0.482787 -0.875738 0
    outer loop
      vertex -2.16391 4.87015 11.99
      vertex -2.20612 4.84688 10
      vertex -2.16391 4.87015 10
    endloop
  endfacet
  facet normal 0.29419 -0.955747 0
    outer loop
      vertex -2.25144 4.83293 10
      vertex -2.20612 4.84688 11.99
      vertex -2.25144 4.83293 11.99
    endloop
  endfacet
  facet normal 0.29419 -0.955747 0
    outer loop
      vertex -2.20612 4.84688 11.99
      vertex -2.25144 4.83293 10
      vertex -2.20612 4.84688 10
    endloop
  endfacet
  facet normal 0.0955753 -0.995422 0
    outer loop
      vertex -2.29987 4.82828 10
      vertex -2.25144 4.83293 11.99
      vertex -2.29987 4.82828 11.99
    endloop
  endfacet
  facet normal 0.0955753 -0.995422 0
    outer loop
      vertex -2.25144 4.83293 11.99
      vertex -2.29987 4.82828 10
      vertex -2.25144 4.83293 10
    endloop
  endfacet
  facet normal -0.0899601 -0.995945 0
    outer loop
      vertex -2.31703 4.82983 10
      vertex -2.29987 4.82828 11.99
      vertex -2.31703 4.82983 11.99
    endloop
  endfacet
  facet normal -0.0899601 -0.995945 -0
    outer loop
      vertex -2.29987 4.82828 11.99
      vertex -2.31703 4.82983 10
      vertex -2.29987 4.82828 10
    endloop
  endfacet
  facet normal -0.172938 -0.984933 0
    outer loop
      vertex -2.34357 4.83449 10
      vertex -2.31703 4.82983 11.99
      vertex -2.34357 4.83449 11.99
    endloop
  endfacet
  facet normal -0.172938 -0.984933 -0
    outer loop
      vertex -2.31703 4.82983 11.99
      vertex -2.34357 4.83449 10
      vertex -2.31703 4.82983 10
    endloop
  endfacet
  facet normal -0.211164 -0.977451 0
    outer loop
      vertex -2.37949 4.84225 10
      vertex -2.34357 4.83449 11.99
      vertex -2.37949 4.84225 11.99
    endloop
  endfacet
  facet normal -0.211164 -0.977451 -0
    outer loop
      vertex -2.34357 4.83449 11.99
      vertex -2.37949 4.84225 10
      vertex -2.34357 4.83449 10
    endloop
  endfacet
  facet normal -0.233332 -0.972397 0
    outer loop
      vertex -2.42479 4.85312 10
      vertex -2.37949 4.84225 11.99
      vertex -2.42479 4.85312 11.99
    endloop
  endfacet
  facet normal -0.233332 -0.972397 -0
    outer loop
      vertex -2.37949 4.84225 11.99
      vertex -2.42479 4.85312 10
      vertex -2.37949 4.84225 10
    endloop
  endfacet
  facet normal -0.244997 -0.969524 0
    outer loop
      vertex -2.91854 4.97789 10
      vertex -2.42479 4.85312 11.99
      vertex -2.91854 4.97789 11.99
    endloop
  endfacet
  facet normal -0.244997 -0.969524 -0
    outer loop
      vertex -2.42479 4.85312 11.99
      vertex -2.91854 4.97789 10
      vertex -2.42479 4.85312 10
    endloop
  endfacet
  facet normal -0.19175 -0.981444 0
    outer loop
      vertex -3.37479 5.06703 10
      vertex -2.91854 4.97789 11.99
      vertex -3.37479 5.06703 11.99
    endloop
  endfacet
  facet normal -0.19175 -0.981444 -0
    outer loop
      vertex -2.91854 4.97789 11.99
      vertex -3.37479 5.06703 10
      vertex -2.91854 4.97789 10
    endloop
  endfacet
  facet normal -0.126667 -0.991945 0
    outer loop
      vertex -3.79352 5.1205 10
      vertex -3.37479 5.06703 11.99
      vertex -3.79352 5.1205 11.99
    endloop
  endfacet
  facet normal -0.126667 -0.991945 -0
    outer loop
      vertex -3.37479 5.06703 11.99
      vertex -3.79352 5.1205 10
      vertex -3.37479 5.06703 10
    endloop
  endfacet
  facet normal -0.0466925 -0.998909 0
    outer loop
      vertex -4.17475 5.13832 10
      vertex -3.79352 5.1205 11.99
      vertex -4.17475 5.13832 11.99
    endloop
  endfacet
  facet normal -0.0466925 -0.998909 -0
    outer loop
      vertex -3.79352 5.1205 11.99
      vertex -4.17475 5.13832 10
      vertex -3.79352 5.1205 10
    endloop
  endfacet
  facet normal 0.0482227 -0.998837 0
    outer loop
      vertex -4.38333 5.12825 10
      vertex -4.17475 5.13832 11.99
      vertex -4.38333 5.12825 11.99
    endloop
  endfacet
  facet normal 0.0482227 -0.998837 0
    outer loop
      vertex -4.17475 5.13832 11.99
      vertex -4.38333 5.12825 10
      vertex -4.17475 5.13832 10
    endloop
  endfacet
  facet normal 0.140401 -0.990095 0
    outer loop
      vertex -4.59658 5.09801 10
      vertex -4.38333 5.12825 11.99
      vertex -4.59658 5.09801 11.99
    endloop
  endfacet
  facet normal 0.140401 -0.990095 0
    outer loop
      vertex -4.38333 5.12825 11.99
      vertex -4.59658 5.09801 10
      vertex -4.38333 5.12825 10
    endloop
  endfacet
  facet normal 0.22531 -0.974287 0
    outer loop
      vertex -4.81452 5.04761 10
      vertex -4.59658 5.09801 11.99
      vertex -4.81452 5.04761 11.99
    endloop
  endfacet
  facet normal 0.22531 -0.974287 0
    outer loop
      vertex -4.59658 5.09801 11.99
      vertex -4.81452 5.04761 10
      vertex -4.59658 5.09801 10
    endloop
  endfacet
  facet normal 0.302152 -0.95326 0
    outer loop
      vertex -5.03713 4.97705 10
      vertex -4.81452 5.04761 11.99
      vertex -5.03713 4.97705 11.99
    endloop
  endfacet
  facet normal 0.302152 -0.95326 0
    outer loop
      vertex -4.81452 5.04761 11.99
      vertex -5.03713 4.97705 10
      vertex -4.81452 5.04761 10
    endloop
  endfacet
  facet normal 0.316161 -0.948706 0
    outer loop
      vertex -5.24886 4.90649 10
      vertex -5.03713 4.97705 11.99
      vertex -5.24886 4.90649 11.99
    endloop
  endfacet
  facet normal 0.316161 -0.948706 0
    outer loop
      vertex -5.03713 4.97705 11.99
      vertex -5.24886 4.90649 10
      vertex -5.03713 4.97705 10
    endloop
  endfacet
  facet normal 0.262654 -0.96489 0
    outer loop
      vertex -5.43401 4.85609 10
      vertex -5.24886 4.90649 11.99
      vertex -5.43401 4.85609 11.99
    endloop
  endfacet
  facet normal 0.262654 -0.96489 0
    outer loop
      vertex -5.24886 4.90649 11.99
      vertex -5.43401 4.85609 10
      vertex -5.24886 4.90649 10
    endloop
  endfacet
  facet normal 0.187294 -0.982304 0
    outer loop
      vertex -5.59261 4.82585 10
      vertex -5.43401 4.85609 11.99
      vertex -5.59261 4.82585 11.99
    endloop
  endfacet
  facet normal 0.187294 -0.982304 0
    outer loop
      vertex -5.43401 4.85609 11.99
      vertex -5.59261 4.82585 10
      vertex -5.43401 4.85609 10
    endloop
  endfacet
  facet normal 0.0761248 -0.997098 0
    outer loop
      vertex -5.72464 4.81577 10
      vertex -5.59261 4.82585 11.99
      vertex -5.72464 4.81577 11.99
    endloop
  endfacet
  facet normal 0.0761248 -0.997098 0
    outer loop
      vertex -5.59261 4.82585 11.99
      vertex -5.72464 4.81577 10
      vertex -5.59261 4.82585 10
    endloop
  endfacet
  facet normal -0.0707709 -0.997493 0
    outer loop
      vertex -5.92267 4.82982 10
      vertex -5.72464 4.81577 11.99
      vertex -5.92267 4.82982 11.99
    endloop
  endfacet
  facet normal -0.0707709 -0.997493 -0
    outer loop
      vertex -5.72464 4.81577 11.99
      vertex -5.92267 4.82982 10
      vertex -5.72464 4.81577 10
    endloop
  endfacet
  facet normal -0.344647 0.938732 0
    outer loop
      vertex -2.95291 6.79546 10
      vertex -3.4318 6.61964 11.99
      vertex -2.95291 6.79546 11.99
    endloop
  endfacet
  facet normal -0.344647 0.938732 0
    outer loop
      vertex -3.4318 6.61964 11.99
      vertex -2.95291 6.79546 10
      vertex -3.4318 6.61964 10
    endloop
  endfacet
  facet normal -0.554464 0.832207 0
    outer loop
      vertex -2.51308 7.0885 10
      vertex -2.95291 6.79546 11.99
      vertex -2.51308 7.0885 11.99
    endloop
  endfacet
  facet normal -0.554464 0.832207 0
    outer loop
      vertex -2.95291 6.79546 11.99
      vertex -2.51308 7.0885 10
      vertex -2.95291 6.79546 10
    endloop
  endfacet
  facet normal -0.715323 0.698794 0
    outer loop
      vertex -2.51308 7.0885 10
      vertex -2.11231 7.49875 11.99
      vertex -2.11231 7.49875 10
    endloop
  endfacet
  facet normal -0.715323 0.698794 0
    outer loop
      vertex -2.11231 7.49875 11.99
      vertex -2.51308 7.0885 10
      vertex -2.51308 7.0885 11.99
    endloop
  endfacet
  facet normal -0.827877 0.560909 0
    outer loop
      vertex -2.11231 7.49875 10
      vertex -1.77877 7.99104 11.99
      vertex -1.77877 7.99104 10
    endloop
  endfacet
  facet normal -0.827877 0.560909 0
    outer loop
      vertex -1.77877 7.99104 11.99
      vertex -2.11231 7.49875 10
      vertex -2.11231 7.49875 11.99
    endloop
  endfacet
  facet normal -0.914673 0.404195 0
    outer loop
      vertex -1.77877 7.99104 10
      vertex -1.54051 8.53021 11.99
      vertex -1.54051 8.53021 10
    endloop
  endfacet
  facet normal -0.914673 0.404195 0
    outer loop
      vertex -1.54051 8.53021 11.99
      vertex -1.77877 7.99104 10
      vertex -1.77877 7.99104 11.99
    endloop
  endfacet
  facet normal -0.97152 0.236958 0
    outer loop
      vertex -1.54051 8.53021 10
      vertex -1.39757 9.11626 11.99
      vertex -1.39757 9.11626 10
    endloop
  endfacet
  facet normal -0.97152 0.236958 0
    outer loop
      vertex -1.39757 9.11626 11.99
      vertex -1.54051 8.53021 10
      vertex -1.54051 8.53021 11.99
    endloop
  endfacet
  facet normal -0.997178 0.0750723 0
    outer loop
      vertex -1.39757 9.11626 10
      vertex -1.34992 9.74919 11.99
      vertex -1.34992 9.74919 10
    endloop
  endfacet
  facet normal -0.997178 0.0750723 0
    outer loop
      vertex -1.34992 9.74919 11.99
      vertex -1.39757 9.11626 10
      vertex -1.39757 9.11626 11.99
    endloop
  endfacet
  facet normal -0.997178 -0.0750747 0
    outer loop
      vertex -1.34992 9.74919 10
      vertex -1.39757 10.3821 11.99
      vertex -1.39757 10.3821 10
    endloop
  endfacet
  facet normal -0.997178 -0.0750747 0
    outer loop
      vertex -1.39757 10.3821 11.99
      vertex -1.34992 9.74919 10
      vertex -1.34992 9.74919 11.99
    endloop
  endfacet
  facet normal -0.971525 -0.236939 0
    outer loop
      vertex -1.39757 10.3821 10
      vertex -1.54051 10.9682 11.99
      vertex -1.54051 10.9682 10
    endloop
  endfacet
  facet normal -0.971525 -0.236939 0
    outer loop
      vertex -1.54051 10.9682 11.99
      vertex -1.39757 10.3821 10
      vertex -1.39757 10.3821 11.99
    endloop
  endfacet
  facet normal -0.914681 -0.404176 0
    outer loop
      vertex -1.54051 10.9682 10
      vertex -1.77877 11.5074 11.99
      vertex -1.77877 11.5074 10
    endloop
  endfacet
  facet normal -0.914681 -0.404176 0
    outer loop
      vertex -1.77877 11.5074 11.99
      vertex -1.54051 10.9682 10
      vertex -1.54051 10.9682 11.99
    endloop
  endfacet
  facet normal -0.827829 -0.56098 0
    outer loop
      vertex -1.77877 11.5074 10
      vertex -2.11231 11.9996 11.99
      vertex -2.11231 11.9996 10
    endloop
  endfacet
  facet normal -0.827829 -0.56098 0
    outer loop
      vertex -2.11231 11.9996 11.99
      vertex -1.77877 11.5074 10
      vertex -1.77877 11.5074 11.99
    endloop
  endfacet
  facet normal -0.715366 -0.69875 0
    outer loop
      vertex -2.11231 11.9996 10
      vertex -2.51308 12.4099 11.99
      vertex -2.51308 12.4099 10
    endloop
  endfacet
  facet normal -0.715366 -0.69875 0
    outer loop
      vertex -2.51308 12.4099 11.99
      vertex -2.11231 11.9996 10
      vertex -2.11231 11.9996 11.99
    endloop
  endfacet
  facet normal -0.554412 -0.832242 0
    outer loop
      vertex -2.95291 12.7029 10
      vertex -2.51308 12.4099 11.99
      vertex -2.95291 12.7029 11.99
    endloop
  endfacet
  facet normal -0.554412 -0.832242 -0
    outer loop
      vertex -2.51308 12.4099 11.99
      vertex -2.95291 12.7029 10
      vertex -2.51308 12.4099 10
    endloop
  endfacet
  facet normal -0.344612 -0.938745 0
    outer loop
      vertex -3.4318 12.8787 10
      vertex -2.95291 12.7029 11.99
      vertex -3.4318 12.8787 11.99
    endloop
  endfacet
  facet normal -0.344612 -0.938745 -0
    outer loop
      vertex -2.95291 12.7029 11.99
      vertex -3.4318 12.8787 10
      vertex -2.95291 12.7029 10
    endloop
  endfacet
  facet normal -0.112419 -0.993661 0
    outer loop
      vertex -3.94976 12.9373 10
      vertex -3.4318 12.8787 11.99
      vertex -3.94976 12.9373 11.99
    endloop
  endfacet
  facet normal -0.112419 -0.993661 -0
    outer loop
      vertex -3.4318 12.8787 11.99
      vertex -3.94976 12.9373 10
      vertex -3.4318 12.8787 10
    endloop
  endfacet
  facet normal 0.111345 -0.993782 0
    outer loop
      vertex -4.47278 12.8787 10
      vertex -3.94976 12.9373 11.99
      vertex -4.47278 12.8787 11.99
    endloop
  endfacet
  facet normal 0.111345 -0.993782 0
    outer loop
      vertex -3.94976 12.9373 11.99
      vertex -4.47278 12.8787 10
      vertex -3.94976 12.9373 10
    endloop
  endfacet
  facet normal 0.342895 -0.939374 0
    outer loop
      vertex -4.95439 12.7029 10
      vertex -4.47278 12.8787 11.99
      vertex -4.95439 12.7029 11.99
    endloop
  endfacet
  facet normal 0.342895 -0.939374 0
    outer loop
      vertex -4.47278 12.8787 11.99
      vertex -4.95439 12.7029 10
      vertex -4.47278 12.8787 10
    endloop
  endfacet
  facet normal 0.554072 -0.832469 0
    outer loop
      vertex -5.39461 12.4099 10
      vertex -4.95439 12.7029 11.99
      vertex -5.39461 12.4099 11.99
    endloop
  endfacet
  facet normal 0.554072 -0.832469 0
    outer loop
      vertex -4.95439 12.7029 11.99
      vertex -5.39461 12.4099 10
      vertex -4.95439 12.7029 10
    endloop
  endfacet
  facet normal 0.717093 -0.696977 0
    outer loop
      vertex -5.7934 11.9996 11.99
      vertex -5.39461 12.4099 10
      vertex -5.39461 12.4099 11.99
    endloop
  endfacet
  facet normal 0.717093 -0.696977 0
    outer loop
      vertex -5.39461 12.4099 10
      vertex -5.7934 11.9996 11.99
      vertex -5.7934 11.9996 10
    endloop
  endfacet
  facet normal 0.831206 -0.555964 0
    outer loop
      vertex -6.12422 11.505 11.99
      vertex -5.7934 11.9996 10
      vertex -5.7934 11.9996 11.99
    endloop
  endfacet
  facet normal 0.831206 -0.555964 0
    outer loop
      vertex -5.7934 11.9996 10
      vertex -6.12422 11.505 11.99
      vertex -6.12422 11.505 10
    endloop
  endfacet
  facet normal 0.91778 -0.397089 0
    outer loop
      vertex -6.36054 10.9588 11.99
      vertex -6.12422 11.505 10
      vertex -6.12422 11.505 11.99
    endloop
  endfacet
  facet normal 0.91778 -0.397089 0
    outer loop
      vertex -6.12422 11.505 10
      vertex -6.36054 10.9588 11.99
      vertex -6.36054 10.9588 10
    endloop
  endfacet
  facet normal 0.973009 -0.230768 0
    outer loop
      vertex -6.50232 10.361 11.99
      vertex -6.36054 10.9588 10
      vertex -6.36054 10.9588 11.99
    endloop
  endfacet
  facet normal 0.973009 -0.230768 0
    outer loop
      vertex -6.36054 10.9588 10
      vertex -6.50232 10.361 11.99
      vertex -6.50232 10.361 10
    endloop
  endfacet
  facet normal 0.997362 -0.0725907 0
    outer loop
      vertex -6.54958 9.71167 11.99
      vertex -6.50232 10.361 10
      vertex -6.50232 10.361 11.99
    endloop
  endfacet
  facet normal 0.997362 -0.0725907 0
    outer loop
      vertex -6.50232 10.361 10
      vertex -6.54958 9.71167 11.99
      vertex -6.54958 9.71167 10
    endloop
  endfacet
  facet normal 0.997027 0.0770547 0
    outer loop
      vertex -6.50154 9.09007 11.99
      vertex -6.54958 9.71167 10
      vertex -6.54958 9.71167 11.99
    endloop
  endfacet
  facet normal 0.997027 0.0770547 0
    outer loop
      vertex -6.54958 9.71167 10
      vertex -6.50154 9.09007 11.99
      vertex -6.50154 9.09007 10
    endloop
  endfacet
  facet normal 0.970197 0.242318 0
    outer loop
      vertex -6.35741 8.513 11.99
      vertex -6.50154 9.09007 10
      vertex -6.50154 9.09007 11.99
    endloop
  endfacet
  facet normal 0.970197 0.242318 0
    outer loop
      vertex -6.50154 9.09007 10
      vertex -6.35741 8.513 11.99
      vertex -6.35741 8.513 10
    endloop
  endfacet
  facet normal 0.911554 0.411179 0
    outer loop
      vertex -6.11719 7.98045 11.99
      vertex -6.35741 8.513 10
      vertex -6.35741 8.513 11.99
    endloop
  endfacet
  facet normal 0.911554 0.411179 0
    outer loop
      vertex -6.35741 8.513 10
      vertex -6.11719 7.98045 11.99
      vertex -6.11719 7.98045 10
    endloop
  endfacet
  facet normal 0.823411 0.567445 0
    outer loop
      vertex -5.78089 7.49245 11.99
      vertex -6.11719 7.98045 10
      vertex -6.11719 7.98045 11.99
    endloop
  endfacet
  facet normal 0.823411 0.567445 0
    outer loop
      vertex -6.11719 7.98045 10
      vertex -5.78089 7.49245 11.99
      vertex -5.78089 7.49245 10
    endloop
  endfacet
  facet normal 0.711284 0.702905 0
    outer loop
      vertex -5.37819 7.08495 11.99
      vertex -5.78089 7.49245 10
      vertex -5.78089 7.49245 11.99
    endloop
  endfacet
  facet normal 0.711284 0.702905 0
    outer loop
      vertex -5.78089 7.49245 10
      vertex -5.37819 7.08495 11.99
      vertex -5.37819 7.08495 10
    endloop
  endfacet
  facet normal 0.552233 0.83369 -0
    outer loop
      vertex -4.93877 6.79388 10
      vertex -5.37819 7.08495 11.99
      vertex -4.93877 6.79388 11.99
    endloop
  endfacet
  facet normal 0.552233 0.83369 0
    outer loop
      vertex -5.37819 7.08495 11.99
      vertex -4.93877 6.79388 10
      vertex -5.37819 7.08495 10
    endloop
  endfacet
  facet normal 0.344327 0.93885 -0
    outer loop
      vertex -4.46262 6.61925 10
      vertex -4.93877 6.79388 11.99
      vertex -4.46262 6.61925 11.99
    endloop
  endfacet
  facet normal 0.344327 0.93885 0
    outer loop
      vertex -4.93877 6.79388 11.99
      vertex -4.46262 6.61925 10
      vertex -4.93877 6.79388 10
    endloop
  endfacet
  facet normal 0.112777 0.99362 -0
    outer loop
      vertex -3.94976 6.56104 10
      vertex -4.46262 6.61925 11.99
      vertex -3.94976 6.56104 11.99
    endloop
  endfacet
  facet normal 0.112777 0.99362 0
    outer loop
      vertex -4.46262 6.61925 11.99
      vertex -3.94976 6.56104 10
      vertex -4.46262 6.61925 10
    endloop
  endfacet
  facet normal -0.112419 0.993661 0
    outer loop
      vertex -3.4318 6.61964 10
      vertex -3.94976 6.56104 11.99
      vertex -3.4318 6.61964 11.99
    endloop
  endfacet
  facet normal -0.112419 0.993661 0
    outer loop
      vertex -3.94976 6.56104 11.99
      vertex -3.4318 6.61964 10
      vertex -3.94976 6.56104 10
    endloop
  endfacet
endsolid OpenSCAD_Model
