solid OpenSCAD_Model
  facet normal -0 0 1
    outer loop
      vertex -6.16211 11.6198 10
      vertex -4.01219 6.76263 10
      vertex -4.01219 12.7761 10
    endloop
  endfacet
  facet normal -0 0 1
    outer loop
      vertex -6.20198 11.5789 10
      vertex -4.01219 6.76263 10
      vertex -6.16211 11.6198 10
    endloop
  endfacet
  facet normal 0 0 1
    outer loop
      vertex -4.01219 6.76263 10
      vertex -6.20198 11.5789 10
      vertex -5.32466 6.76263 10
    endloop
  endfacet
  facet normal -0 0 1
    outer loop
      vertex -6.24651 11.5496 10
      vertex -5.32466 6.76263 10
      vertex -6.20198 11.5789 10
    endloop
  endfacet
  facet normal 0 0 1
    outer loop
      vertex -6.09183 11.7922 10
      vertex -4.01219 12.7761 10
      vertex -6.08714 11.8636 10
    endloop
  endfacet
  facet normal 0 0 1
    outer loop
      vertex -6.08714 11.8636 10
      vertex -4.01219 12.7761 10
      vertex -6.08714 12.7761 10
    endloop
  endfacet
  facet normal -0 0 1
    outer loop
      vertex -3.49973 12.7761 10
      vertex -1.41237 11.8636 10
      vertex -1.41237 12.7761 10
    endloop
  endfacet
  facet normal 0 0 1
    outer loop
      vertex -1.41237 11.8636 10
      vertex -1.87094 6.62195 10
      vertex -1.84985 6.51253 10
    endloop
  endfacet
  facet normal 0 0 1
    outer loop
      vertex -1.41237 11.8636 10
      vertex -1.93423 6.7001 10
      vertex -1.87094 6.62195 10
    endloop
  endfacet
  facet normal 0 0 1
    outer loop
      vertex -1.41237 11.8636 10
      vertex -2.0397 6.74699 10
      vertex -1.93423 6.7001 10
    endloop
  endfacet
  facet normal 0 0 1
    outer loop
      vertex -1.41237 11.8636 10
      vertex -2.18735 6.76263 10
      vertex -2.0397 6.74699 10
    endloop
  endfacet
  facet normal 0 0 1
    outer loop
      vertex -3.49973 6.76263 10
      vertex -1.41237 11.8636 10
      vertex -3.49973 12.7761 10
    endloop
  endfacet
  facet normal 0 0 1
    outer loop
      vertex -1.41237 11.8636 10
      vertex -3.49973 6.76263 10
      vertex -2.18735 6.76263 10
    endloop
  endfacet
  facet normal 0 0 1
    outer loop
      vertex -0.899902 11.8636 10
      vertex 0 14.5 10
      vertex -0.899902 13.2887 10
    endloop
  endfacet
  facet normal 0 0 1
    outer loop
      vertex 0 14.5 10
      vertex -6.59961 13.2887 10
      vertex -0.899902 13.2887 10
    endloop
  endfacet
  facet normal 0 0 1
    outer loop
      vertex -6.59961 13.2887 10
      vertex -7.5 14.5 10
      vertex -6.59961 11.8636 10
    endloop
  endfacet
  facet normal -0 0 1
    outer loop
      vertex -7.5 14.5 10
      vertex -6.59961 13.2887 10
      vertex 0 14.5 10
    endloop
  endfacet
  facet normal 0 0 1
    outer loop
      vertex -0.915527 11.716 10
      vertex 0 14.5 10
      vertex -0.899902 11.8636 10
    endloop
  endfacet
  facet normal 0 0 1
    outer loop
      vertex 0 14.5 10
      vertex -0.915527 11.716 10
      vertex 0 2.5 10
    endloop
  endfacet
  facet normal -0 0 1
    outer loop
      vertex -0.962402 11.6105 10
      vertex 0 2.5 10
      vertex -0.915527 11.716 10
    endloop
  endfacet
  facet normal 0 0 1
    outer loop
      vertex -1.84985 6.51253 10
      vertex -0.962402 11.6105 10
      vertex -1.04054 11.5472 10
    endloop
  endfacet
  facet normal 0 0 1
    outer loop
      vertex -1.84985 6.51253 10
      vertex -1.04054 11.5472 10
      vertex -1.14992 11.5262 10
    endloop
  endfacet
  facet normal 0 0 1
    outer loop
      vertex -1.84985 6.51253 10
      vertex -1.14992 11.5262 10
      vertex -1.26474 11.5472 10
    endloop
  endfacet
  facet normal 0 0 1
    outer loop
      vertex -1.84985 6.51253 10
      vertex -1.26474 11.5472 10
      vertex -1.34676 11.6105 10
    endloop
  endfacet
  facet normal 0 0 1
    outer loop
      vertex -1.84985 6.51253 10
      vertex -1.34676 11.6105 10
      vertex -1.39597 11.716 10
    endloop
  endfacet
  facet normal 0 0 1
    outer loop
      vertex -1.84985 6.51253 10
      vertex -1.39597 11.716 10
      vertex -1.41237 11.8636 10
    endloop
  endfacet
  facet normal 0 0 1
    outer loop
      vertex -0.962402 11.6105 10
      vertex -1.84985 6.51253 10
      vertex 0 2.5 10
    endloop
  endfacet
  facet normal -0 0 1
    outer loop
      vertex -1.87094 6.39766 10
      vertex 0 2.5 10
      vertex -1.84985 6.51253 10
    endloop
  endfacet
  facet normal -0 0 1
    outer loop
      vertex -1.93423 6.31563 10
      vertex 0 2.5 10
      vertex -1.87094 6.39766 10
    endloop
  endfacet
  facet normal -0 0 1
    outer loop
      vertex -2.0397 6.2664 10
      vertex 0 2.5 10
      vertex -1.93423 6.31563 10
    endloop
  endfacet
  facet normal -0 0 1
    outer loop
      vertex -2.18735 6.25 10
      vertex 0 2.5 10
      vertex -2.0397 6.2664 10
    endloop
  endfacet
  facet normal 0 0 1
    outer loop
      vertex -6.51 3.5 10
      vertex -2.18735 6.25 10
      vertex -5.32466 6.25 10
    endloop
  endfacet
  facet normal 0 0 1
    outer loop
      vertex -6.51 3.5 10
      vertex -5.32466 6.25 10
      vertex -5.47232 6.2664 10
    endloop
  endfacet
  facet normal 0 0 1
    outer loop
      vertex -6.51 3.5 10
      vertex -5.47232 6.2664 10
      vertex -5.57779 6.31563 10
    endloop
  endfacet
  facet normal 0 0 1
    outer loop
      vertex -6.10588 11.7277 10
      vertex -4.01219 12.7761 10
      vertex -6.09183 11.7922 10
    endloop
  endfacet
  facet normal 0 0 1
    outer loop
      vertex -6.12932 11.6702 10
      vertex -4.01219 12.7761 10
      vertex -6.10588 11.7277 10
    endloop
  endfacet
  facet normal 0 0 1
    outer loop
      vertex -6.16211 11.6198 10
      vertex -4.01219 12.7761 10
      vertex -6.12932 11.6702 10
    endloop
  endfacet
  facet normal -0 0 1
    outer loop
      vertex -6.29572 11.532 10
      vertex -5.32466 6.76263 10
      vertex -6.24651 11.5496 10
    endloop
  endfacet
  facet normal 0 0 1
    outer loop
      vertex -5.32466 6.76263 10
      vertex -6.29572 11.532 10
      vertex -5.47232 6.74699 10
    endloop
  endfacet
  facet normal -0 0 1
    outer loop
      vertex -6.34958 11.5262 10
      vertex -5.47232 6.74699 10
      vertex -6.29572 11.532 10
    endloop
  endfacet
  facet normal 0 0 1
    outer loop
      vertex -5.47232 6.74699 10
      vertex -6.34958 11.5262 10
      vertex -5.57779 6.7001 10
    endloop
  endfacet
  facet normal 0 0 1
    outer loop
      vertex -6.45897 11.5472 10
      vertex -5.57779 6.7001 10
      vertex -6.34958 11.5262 10
    endloop
  endfacet
  facet normal 0 0 1
    outer loop
      vertex -5.57779 6.7001 10
      vertex -6.45897 11.5472 10
      vertex -5.64107 6.62195 10
    endloop
  endfacet
  facet normal 0 0 1
    outer loop
      vertex -6.53709 11.6105 10
      vertex -5.64107 6.62195 10
      vertex -6.45897 11.5472 10
    endloop
  endfacet
  facet normal 0 0 1
    outer loop
      vertex -7.5 3.5 10
      vertex -5.64107 6.62195 10
      vertex -6.53709 11.6105 10
    endloop
  endfacet
  facet normal 0 0 1
    outer loop
      vertex -7.5 3.5 10
      vertex -5.64107 6.39766 10
      vertex -5.66216 6.51253 10
    endloop
  endfacet
  facet normal 0 0 1
    outer loop
      vertex -7.5 3.5 10
      vertex -5.57779 6.31563 10
      vertex -5.64107 6.39766 10
    endloop
  endfacet
  facet normal 0 0 1
    outer loop
      vertex -2.18735 6.25 10
      vertex -6.51 3.5 10
      vertex 0 2.5 10
    endloop
  endfacet
  facet normal 0 0 1
    outer loop
      vertex 0 2.5 10
      vertex -6.51 3.5 10
      vertex -6.51 2.5 10
    endloop
  endfacet
  facet normal 0 0 1
    outer loop
      vertex -5.64107 6.62195 10
      vertex -7.5 3.5 10
      vertex -5.66216 6.51253 10
    endloop
  endfacet
  facet normal 0 0 1
    outer loop
      vertex -7.5 3.5 10
      vertex -6.53709 11.6105 10
      vertex -6.58397 11.716 10
    endloop
  endfacet
  facet normal 0 0 1
    outer loop
      vertex -7.5 14.5 10
      vertex -6.58397 11.716 10
      vertex -6.59961 11.8636 10
    endloop
  endfacet
  facet normal 0 0 1
    outer loop
      vertex -6.58397 11.716 10
      vertex -7.5 14.5 10
      vertex -7.5 3.5 10
    endloop
  endfacet
  facet normal 0 0 1
    outer loop
      vertex -5.57779 6.31563 10
      vertex -7.5 3.5 10
      vertex -6.51 3.5 10
    endloop
  endfacet
  facet normal -1 0 0
    outer loop
      vertex -7.5 0 3
      vertex -7.5 17 3
      vertex -7.5 17 0
    endloop
  endfacet
  facet normal -1 0 0
    outer loop
      vertex -7.5 17 3
      vertex -7.5 3.5 9.01
      vertex -7.5 14.5 10
    endloop
  endfacet
  facet normal -1 0 0
    outer loop
      vertex -7.5 17 3
      vertex -7.5 0 3
      vertex -7.5 3.5 9.01
    endloop
  endfacet
  facet normal -1 0 0
    outer loop
      vertex -7.5 0 3
      vertex -7.5 17 0
      vertex -7.5 0 0
    endloop
  endfacet
  facet normal -1 -0 0
    outer loop
      vertex -7.5 3.5 9.01
      vertex -7.5 0 3
      vertex -7.5 2.14643 9.01
    endloop
  endfacet
  facet normal -1 -0 0
    outer loop
      vertex -7.5 14.5 10
      vertex -7.5 3.5 9.01
      vertex -7.5 3.5 10
    endloop
  endfacet
  facet normal 0 1 -0
    outer loop
      vertex 0 17 0
      vertex -7.5 17 3
      vertex 0 17 3
    endloop
  endfacet
  facet normal 0 1 0
    outer loop
      vertex -7.5 17 3
      vertex 0 17 0
      vertex -7.5 17 0
    endloop
  endfacet
  facet normal 0 0 -1
    outer loop
      vertex -7.5 0 0
      vertex 0 17 0
      vertex 0 0 0
    endloop
  endfacet
  facet normal -0 0 -1
    outer loop
      vertex 0 17 0
      vertex -7.5 0 0
      vertex -7.5 17 0
    endloop
  endfacet
  facet normal 1 0 0
    outer loop
      vertex 0 0 3
      vertex 0 17 3
      vertex 0 14.5 10
    endloop
  endfacet
  facet normal 1 0 0
    outer loop
      vertex 0 0 3
      vertex 0 14.5 10
      vertex 0 2.5 10
    endloop
  endfacet
  facet normal 1 0 0
    outer loop
      vertex 0 17 3
      vertex 0 0 3
      vertex 0 17 0
    endloop
  endfacet
  facet normal 1 0 0
    outer loop
      vertex 0 17 0
      vertex 0 0 3
      vertex 0 0 0
    endloop
  endfacet
  facet normal 0 -0.941742 0.336337
    outer loop
      vertex -7.5 2.14643 9.01
      vertex -7.5 0 3
      vertex -6.51 2.14643 9.01
    endloop
  endfacet
  facet normal 0 -0.941742 0.336335
    outer loop
      vertex -6.51 2.14643 9.01
      vertex 0 2.5 10
      vertex -6.51 2.5 10
    endloop
  endfacet
  facet normal 0 -0.941742 0.336337
    outer loop
      vertex 0 0 3
      vertex -6.51 2.14643 9.01
      vertex -7.5 0 3
    endloop
  endfacet
  facet normal -2.06658e-07 -0.941742 0.336336
    outer loop
      vertex -6.51 2.14643 9.01
      vertex 0 0 3
      vertex 0 2.5 10
    endloop
  endfacet
  facet normal 0 -1 0
    outer loop
      vertex -7.5 0 0
      vertex 0 0 3
      vertex -7.5 0 3
    endloop
  endfacet
  facet normal 0 -1 -0
    outer loop
      vertex 0 0 3
      vertex -7.5 0 0
      vertex 0 0 0
    endloop
  endfacet
  facet normal 0 0.941742 0.336336
    outer loop
      vertex 0 17 3
      vertex -7.5 14.5 10
      vertex 0 14.5 10
    endloop
  endfacet
  facet normal 0 0.941742 0.336336
    outer loop
      vertex -7.5 14.5 10
      vertex 0 17 3
      vertex -7.5 17 3
    endloop
  endfacet
  facet normal -0 0 1
    outer loop
      vertex -7.5 3.5 9.01
      vertex -6.51 2.14643 9.01
      vertex -6.51 3.5 9.01
    endloop
  endfacet
  facet normal 0 0 1
    outer loop
      vertex -6.51 2.14643 9.01
      vertex -7.5 3.5 9.01
      vertex -7.5 2.14643 9.01
    endloop
  endfacet
  facet normal -1 0 0
    outer loop
      vertex -6.51 3.5 9.01
      vertex -6.51 2.5 10
      vertex -6.51 3.5 10
    endloop
  endfacet
  facet normal -1 0 -0
    outer loop
      vertex -6.51 2.5 10
      vertex -6.51 3.5 9.01
      vertex -6.51 2.14643 9.01
    endloop
  endfacet
  facet normal 0 -1 0
    outer loop
      vertex -7.5 3.5 9.01
      vertex -6.51 3.5 10
      vertex -7.5 3.5 10
    endloop
  endfacet
  facet normal 0 -1 -0
    outer loop
      vertex -6.51 3.5 10
      vertex -7.5 3.5 9.01
      vertex -6.51 3.5 9.01
    endloop
  endfacet
  facet normal -0 0 1
    outer loop
      vertex -1.41237 12.7761 11.99
      vertex -0.899902 11.8636 11.99
      vertex -0.899902 13.2887 11.99
    endloop
  endfacet
  facet normal 0 0 1
    outer loop
      vertex -1.41237 11.8636 11.99
      vertex -0.899902 11.8636 11.99
      vertex -1.41237 12.7761 11.99
    endloop
  endfacet
  facet normal 0 0 1
    outer loop
      vertex -0.899902 11.8636 11.99
      vertex -1.41237 11.8636 11.99
      vertex -0.915527 11.716 11.99
    endloop
  endfacet
  facet normal 0 -0 1
    outer loop
      vertex -1.39597 11.716 11.99
      vertex -0.915527 11.716 11.99
      vertex -1.41237 11.8636 11.99
    endloop
  endfacet
  facet normal 0 -0 1
    outer loop
      vertex -1.14992 11.5262 11.99
      vertex -0.915527 11.716 11.99
      vertex -1.39597 11.716 11.99
    endloop
  endfacet
  facet normal 0 0 1
    outer loop
      vertex -0.962402 11.6105 11.99
      vertex -1.14992 11.5262 11.99
      vertex -1.04054 11.5472 11.99
    endloop
  endfacet
  facet normal 0 0 1
    outer loop
      vertex -1.14992 11.5262 11.99
      vertex -1.39597 11.716 11.99
      vertex -1.26474 11.5472 11.99
    endloop
  endfacet
  facet normal 0 0 1
    outer loop
      vertex -0.915527 11.716 11.99
      vertex -1.14992 11.5262 11.99
      vertex -0.962402 11.6105 11.99
    endloop
  endfacet
  facet normal 0 0 1
    outer loop
      vertex -0.899902 13.2887 11.99
      vertex -3.49973 12.7761 11.99
      vertex -1.41237 12.7761 11.99
    endloop
  endfacet
  facet normal 0 0 1
    outer loop
      vertex -3.49973 12.7761 11.99
      vertex -4.01219 12.7761 11.99
      vertex -3.49973 6.76263 11.99
    endloop
  endfacet
  facet normal 0 0 1
    outer loop
      vertex -0.899902 13.2887 11.99
      vertex -4.01219 12.7761 11.99
      vertex -3.49973 12.7761 11.99
    endloop
  endfacet
  facet normal -0 0 1
    outer loop
      vertex -6.59961 13.2887 11.99
      vertex -4.01219 12.7761 11.99
      vertex -0.899902 13.2887 11.99
    endloop
  endfacet
  facet normal 0 0 1
    outer loop
      vertex -6.59961 11.8636 11.99
      vertex -6.08714 11.8636 11.99
      vertex -6.08714 12.7761 11.99
    endloop
  endfacet
  facet normal 0 0 1
    outer loop
      vertex -6.08714 11.8636 11.99
      vertex -6.59961 11.8636 11.99
      vertex -6.09183 11.7922 11.99
    endloop
  endfacet
  facet normal 0 0 1
    outer loop
      vertex -6.09183 11.7922 11.99
      vertex -6.59961 11.8636 11.99
      vertex -6.10588 11.7277 11.99
    endloop
  endfacet
  facet normal 0 -0 1
    outer loop
      vertex -6.58397 11.716 11.99
      vertex -6.10588 11.7277 11.99
      vertex -6.59961 11.8636 11.99
    endloop
  endfacet
  facet normal 0 0 1
    outer loop
      vertex -6.10588 11.7277 11.99
      vertex -6.58397 11.716 11.99
      vertex -6.12932 11.6702 11.99
    endloop
  endfacet
  facet normal 0 0 1
    outer loop
      vertex -6.12932 11.6702 11.99
      vertex -6.58397 11.716 11.99
      vertex -6.16211 11.6198 11.99
    endloop
  endfacet
  facet normal 0 0 1
    outer loop
      vertex -6.16211 11.6198 11.99
      vertex -6.58397 11.716 11.99
      vertex -6.20198 11.5789 11.99
    endloop
  endfacet
  facet normal 0 -0 1
    outer loop
      vertex -6.34958 11.5262 11.99
      vertex -6.20198 11.5789 11.99
      vertex -6.58397 11.716 11.99
    endloop
  endfacet
  facet normal 0 0 1
    outer loop
      vertex -6.20198 11.5789 11.99
      vertex -6.34958 11.5262 11.99
      vertex -6.24651 11.5496 11.99
    endloop
  endfacet
  facet normal 0 0 1
    outer loop
      vertex -6.24651 11.5496 11.99
      vertex -6.34958 11.5262 11.99
      vertex -6.29572 11.532 11.99
    endloop
  endfacet
  facet normal -0 -0 1
    outer loop
      vertex -6.53709 11.6105 11.99
      vertex -6.34958 11.5262 11.99
      vertex -6.58397 11.716 11.99
    endloop
  endfacet
  facet normal 0 0 1
    outer loop
      vertex -4.01219 12.7761 11.99
      vertex -6.59961 13.2887 11.99
      vertex -6.08714 12.7761 11.99
    endloop
  endfacet
  facet normal 0 0 1
    outer loop
      vertex -6.59961 11.8636 11.99
      vertex -6.08714 12.7761 11.99
      vertex -6.59961 13.2887 11.99
    endloop
  endfacet
  facet normal 0 0 1
    outer loop
      vertex -6.34958 11.5262 11.99
      vertex -6.53709 11.6105 11.99
      vertex -6.45897 11.5472 11.99
    endloop
  endfacet
  facet normal 0 0 1
    outer loop
      vertex -1.26474 11.5472 11.99
      vertex -1.39597 11.716 11.99
      vertex -1.34676 11.6105 11.99
    endloop
  endfacet
  facet normal 0 0 1
    outer loop
      vertex -1.93423 6.7001 11.99
      vertex -1.84985 6.51253 11.99
      vertex -1.87094 6.62195 11.99
    endloop
  endfacet
  facet normal 0 0 1
    outer loop
      vertex -1.84985 6.51253 11.99
      vertex -1.93423 6.7001 11.99
      vertex -2.0397 6.74699 11.99
    endloop
  endfacet
  facet normal 0 0 1
    outer loop
      vertex -2.0397 6.2664 11.99
      vertex -1.84985 6.51253 11.99
      vertex -2.0397 6.74699 11.99
    endloop
  endfacet
  facet normal 0 0 1
    outer loop
      vertex -1.84985 6.51253 11.99
      vertex -2.0397 6.2664 11.99
      vertex -1.87094 6.39766 11.99
    endloop
  endfacet
  facet normal 0 0 1
    outer loop
      vertex -1.87094 6.39766 11.99
      vertex -2.0397 6.2664 11.99
      vertex -1.93423 6.31563 11.99
    endloop
  endfacet
  facet normal 0 0 1
    outer loop
      vertex -2.18735 6.76263 11.99
      vertex -2.0397 6.2664 11.99
      vertex -2.0397 6.74699 11.99
    endloop
  endfacet
  facet normal 0 0 1
    outer loop
      vertex -2.18735 6.76263 11.99
      vertex -2.18735 6.25 11.99
      vertex -2.0397 6.2664 11.99
    endloop
  endfacet
  facet normal -0 0 1
    outer loop
      vertex -3.49973 6.76263 11.99
      vertex -2.18735 6.25 11.99
      vertex -2.18735 6.76263 11.99
    endloop
  endfacet
  facet normal 0 0 1
    outer loop
      vertex -4.01219 6.76263 11.99
      vertex -3.49973 6.76263 11.99
      vertex -4.01219 12.7761 11.99
    endloop
  endfacet
  facet normal -0 0 1
    outer loop
      vertex -4.01219 6.76263 11.99
      vertex -2.18735 6.25 11.99
      vertex -3.49973 6.76263 11.99
    endloop
  endfacet
  facet normal 0 0 1
    outer loop
      vertex -5.32466 6.25 11.99
      vertex -4.01219 6.76263 11.99
      vertex -5.32466 6.76263 11.99
    endloop
  endfacet
  facet normal 0 0 1
    outer loop
      vertex -4.01219 6.76263 11.99
      vertex -5.32466 6.25 11.99
      vertex -2.18735 6.25 11.99
    endloop
  endfacet
  facet normal -0 0 1
    outer loop
      vertex -5.47232 6.74699 11.99
      vertex -5.32466 6.25 11.99
      vertex -5.32466 6.76263 11.99
    endloop
  endfacet
  facet normal 0 0 1
    outer loop
      vertex -5.47232 6.74699 11.99
      vertex -5.47232 6.2664 11.99
      vertex -5.32466 6.25 11.99
    endloop
  endfacet
  facet normal 0 0 1
    outer loop
      vertex -5.66216 6.51253 11.99
      vertex -5.47232 6.74699 11.99
      vertex -5.57779 6.7001 11.99
    endloop
  endfacet
  facet normal 0 0 1
    outer loop
      vertex -5.47232 6.74699 11.99
      vertex -5.66216 6.51253 11.99
      vertex -5.47232 6.2664 11.99
    endloop
  endfacet
  facet normal 0 0 1
    outer loop
      vertex -5.66216 6.51253 11.99
      vertex -5.57779 6.7001 11.99
      vertex -5.64107 6.62195 11.99
    endloop
  endfacet
  facet normal 0 0 1
    outer loop
      vertex -5.47232 6.2664 11.99
      vertex -5.66216 6.51253 11.99
      vertex -5.57779 6.31563 11.99
    endloop
  endfacet
  facet normal 0 0 1
    outer loop
      vertex -5.57779 6.31563 11.99
      vertex -5.66216 6.51253 11.99
      vertex -5.64107 6.39766 11.99
    endloop
  endfacet
  facet normal -0.422961 -0.906148 0
    outer loop
      vertex -5.57779 6.31563 10
      vertex -5.47232 6.2664 11.99
      vertex -5.57779 6.31563 11.99
    endloop
  endfacet
  facet normal -0.422961 -0.906148 -0
    outer loop
      vertex -5.47232 6.2664 11.99
      vertex -5.57779 6.31563 10
      vertex -5.47232 6.2664 10
    endloop
  endfacet
  facet normal -0.791784 -0.610802 0
    outer loop
      vertex -5.57779 6.31563 10
      vertex -5.64107 6.39766 11.99
      vertex -5.64107 6.39766 10
    endloop
  endfacet
  facet normal -0.791784 -0.610802 0
    outer loop
      vertex -5.64107 6.39766 11.99
      vertex -5.57779 6.31563 10
      vertex -5.57779 6.31563 11.99
    endloop
  endfacet
  facet normal -0.98356 -0.180581 0
    outer loop
      vertex -5.64107 6.39766 10
      vertex -5.66216 6.51253 11.99
      vertex -5.66216 6.51253 10
    endloop
  endfacet
  facet normal -0.98356 -0.180581 0
    outer loop
      vertex -5.66216 6.51253 11.99
      vertex -5.64107 6.39766 10
      vertex -5.64107 6.39766 11.99
    endloop
  endfacet
  facet normal -0.981927 0.18926 0
    outer loop
      vertex -5.66216 6.51253 10
      vertex -5.64107 6.62195 11.99
      vertex -5.64107 6.62195 10
    endloop
  endfacet
  facet normal -0.981927 0.18926 0
    outer loop
      vertex -5.64107 6.62195 11.99
      vertex -5.66216 6.51253 10
      vertex -5.66216 6.51253 11.99
    endloop
  endfacet
  facet normal -0.777168 0.629293 0
    outer loop
      vertex -5.64107 6.62195 10
      vertex -5.57779 6.7001 11.99
      vertex -5.57779 6.7001 10
    endloop
  endfacet
  facet normal -0.777168 0.629293 0
    outer loop
      vertex -5.57779 6.7001 11.99
      vertex -5.64107 6.62195 10
      vertex -5.64107 6.62195 11.99
    endloop
  endfacet
  facet normal -0.406243 0.913765 0
    outer loop
      vertex -5.47232 6.74699 10
      vertex -5.57779 6.7001 11.99
      vertex -5.47232 6.74699 11.99
    endloop
  endfacet
  facet normal -0.406243 0.913765 0
    outer loop
      vertex -5.57779 6.7001 11.99
      vertex -5.47232 6.74699 10
      vertex -5.57779 6.7001 10
    endloop
  endfacet
  facet normal -0.10533 0.994437 0
    outer loop
      vertex -5.32466 6.76263 10
      vertex -5.47232 6.74699 11.99
      vertex -5.32466 6.76263 11.99
    endloop
  endfacet
  facet normal -0.10533 0.994437 0
    outer loop
      vertex -5.47232 6.74699 11.99
      vertex -5.32466 6.76263 10
      vertex -5.47232 6.74699 10
    endloop
  endfacet
  facet normal 0 1 -0
    outer loop
      vertex -4.01219 6.76263 10
      vertex -5.32466 6.76263 11.99
      vertex -4.01219 6.76263 11.99
    endloop
  endfacet
  facet normal 0 1 0
    outer loop
      vertex -5.32466 6.76263 11.99
      vertex -4.01219 6.76263 10
      vertex -5.32466 6.76263 10
    endloop
  endfacet
  facet normal -1 0 0
    outer loop
      vertex -4.01219 6.76263 10
      vertex -4.01219 12.7761 11.99
      vertex -4.01219 12.7761 10
    endloop
  endfacet
  facet normal -1 -0 0
    outer loop
      vertex -4.01219 12.7761 11.99
      vertex -4.01219 6.76263 10
      vertex -4.01219 6.76263 11.99
    endloop
  endfacet
  facet normal 0 -1 0
    outer loop
      vertex -6.08714 12.7761 10
      vertex -4.01219 12.7761 11.99
      vertex -6.08714 12.7761 11.99
    endloop
  endfacet
  facet normal 0 -1 -0
    outer loop
      vertex -4.01219 12.7761 11.99
      vertex -6.08714 12.7761 10
      vertex -4.01219 12.7761 10
    endloop
  endfacet
  facet normal 1 -0 0
    outer loop
      vertex -6.08714 11.8636 11.99
      vertex -6.08714 12.7761 10
      vertex -6.08714 12.7761 11.99
    endloop
  endfacet
  facet normal 1 0 0
    outer loop
      vertex -6.08714 12.7761 10
      vertex -6.08714 11.8636 11.99
      vertex -6.08714 11.8636 10
    endloop
  endfacet
  facet normal 0.99785 -0.065545 0
    outer loop
      vertex -6.09183 11.7922 11.99
      vertex -6.08714 11.8636 10
      vertex -6.08714 11.8636 11.99
    endloop
  endfacet
  facet normal 0.99785 -0.065545 0
    outer loop
      vertex -6.08714 11.8636 10
      vertex -6.09183 11.7922 11.99
      vertex -6.09183 11.7922 10
    endloop
  endfacet
  facet normal 0.977087 -0.212838 0
    outer loop
      vertex -6.10588 11.7277 11.99
      vertex -6.09183 11.7922 10
      vertex -6.09183 11.7922 11.99
    endloop
  endfacet
  facet normal 0.977087 -0.212838 0
    outer loop
      vertex -6.09183 11.7922 10
      vertex -6.10588 11.7277 11.99
      vertex -6.10588 11.7277 10
    endloop
  endfacet
  facet normal 0.926013 -0.377491 0
    outer loop
      vertex -6.12932 11.6702 11.99
      vertex -6.10588 11.7277 10
      vertex -6.10588 11.7277 11.99
    endloop
  endfacet
  facet normal 0.926013 -0.377491 0
    outer loop
      vertex -6.10588 11.7277 10
      vertex -6.12932 11.6702 11.99
      vertex -6.12932 11.6702 10
    endloop
  endfacet
  facet normal 0.838216 -0.545339 0
    outer loop
      vertex -6.16211 11.6198 11.99
      vertex -6.12932 11.6702 10
      vertex -6.12932 11.6702 11.99
    endloop
  endfacet
  facet normal 0.838216 -0.545339 0
    outer loop
      vertex -6.12932 11.6702 10
      vertex -6.16211 11.6198 11.99
      vertex -6.16211 11.6198 10
    endloop
  endfacet
  facet normal 0.716066 -0.698033 0
    outer loop
      vertex -6.20198 11.5789 11.99
      vertex -6.16211 11.6198 10
      vertex -6.16211 11.6198 11.99
    endloop
  endfacet
  facet normal 0.716066 -0.698033 0
    outer loop
      vertex -6.16211 11.6198 10
      vertex -6.20198 11.5789 11.99
      vertex -6.20198 11.5789 10
    endloop
  endfacet
  facet normal 0.549668 -0.835383 0
    outer loop
      vertex -6.24651 11.5496 10
      vertex -6.20198 11.5789 11.99
      vertex -6.24651 11.5496 11.99
    endloop
  endfacet
  facet normal 0.549668 -0.835383 0
    outer loop
      vertex -6.20198 11.5789 11.99
      vertex -6.24651 11.5496 10
      vertex -6.20198 11.5789 10
    endloop
  endfacet
  facet normal 0.336761 -0.94159 0
    outer loop
      vertex -6.29572 11.532 10
      vertex -6.24651 11.5496 11.99
      vertex -6.29572 11.532 11.99
    endloop
  endfacet
  facet normal 0.336761 -0.94159 0
    outer loop
      vertex -6.24651 11.5496 11.99
      vertex -6.29572 11.532 10
      vertex -6.24651 11.5496 10
    endloop
  endfacet
  facet normal 0.107068 -0.994252 0
    outer loop
      vertex -6.34958 11.5262 10
      vertex -6.29572 11.532 11.99
      vertex -6.34958 11.5262 11.99
    endloop
  endfacet
  facet normal 0.107068 -0.994252 0
    outer loop
      vertex -6.29572 11.532 11.99
      vertex -6.34958 11.5262 10
      vertex -6.29572 11.532 10
    endloop
  endfacet
  facet normal -0.188531 -0.982067 0
    outer loop
      vertex -6.45897 11.5472 10
      vertex -6.34958 11.5262 11.99
      vertex -6.45897 11.5472 11.99
    endloop
  endfacet
  facet normal -0.188531 -0.982067 -0
    outer loop
      vertex -6.34958 11.5262 11.99
      vertex -6.45897 11.5472 10
      vertex -6.34958 11.5262 10
    endloop
  endfacet
  facet normal -0.629559 -0.776953 0
    outer loop
      vertex -6.53709 11.6105 10
      vertex -6.45897 11.5472 11.99
      vertex -6.53709 11.6105 11.99
    endloop
  endfacet
  facet normal -0.629559 -0.776953 -0
    outer loop
      vertex -6.45897 11.5472 11.99
      vertex -6.53709 11.6105 10
      vertex -6.45897 11.5472 10
    endloop
  endfacet
  facet normal -0.91384 -0.406074 0
    outer loop
      vertex -6.53709 11.6105 10
      vertex -6.58397 11.716 11.99
      vertex -6.58397 11.716 10
    endloop
  endfacet
  facet normal -0.91384 -0.406074 0
    outer loop
      vertex -6.58397 11.716 11.99
      vertex -6.53709 11.6105 10
      vertex -6.53709 11.6105 11.99
    endloop
  endfacet
  facet normal -0.994433 -0.105372 0
    outer loop
      vertex -6.58397 11.716 10
      vertex -6.59961 11.8636 11.99
      vertex -6.59961 11.8636 10
    endloop
  endfacet
  facet normal -0.994433 -0.105372 0
    outer loop
      vertex -6.59961 11.8636 11.99
      vertex -6.58397 11.716 10
      vertex -6.58397 11.716 11.99
    endloop
  endfacet
  facet normal -1 0 0
    outer loop
      vertex -6.59961 11.8636 10
      vertex -6.59961 13.2887 11.99
      vertex -6.59961 13.2887 10
    endloop
  endfacet
  facet normal -1 -0 0
    outer loop
      vertex -6.59961 13.2887 11.99
      vertex -6.59961 11.8636 10
      vertex -6.59961 11.8636 11.99
    endloop
  endfacet
  facet normal 0 1 -0
    outer loop
      vertex -0.899902 13.2887 10
      vertex -6.59961 13.2887 11.99
      vertex -0.899902 13.2887 11.99
    endloop
  endfacet
  facet normal 0 1 0
    outer loop
      vertex -6.59961 13.2887 11.99
      vertex -0.899902 13.2887 10
      vertex -6.59961 13.2887 10
    endloop
  endfacet
  facet normal 1 -0 0
    outer loop
      vertex -0.899902 11.8636 11.99
      vertex -0.899902 13.2887 10
      vertex -0.899902 13.2887 11.99
    endloop
  endfacet
  facet normal 1 0 0
    outer loop
      vertex -0.899902 13.2887 10
      vertex -0.899902 11.8636 11.99
      vertex -0.899902 11.8636 10
    endloop
  endfacet
  facet normal 0.994443 -0.105272 0
    outer loop
      vertex -0.915527 11.716 11.99
      vertex -0.899902 11.8636 10
      vertex -0.899902 11.8636 11.99
    endloop
  endfacet
  facet normal 0.994443 -0.105272 0
    outer loop
      vertex -0.899902 11.8636 10
      vertex -0.915527 11.716 11.99
      vertex -0.915527 11.716 10
    endloop
  endfacet
  facet normal 0.913856 -0.406038 0
    outer loop
      vertex -0.962402 11.6105 11.99
      vertex -0.915527 11.716 10
      vertex -0.915527 11.716 11.99
    endloop
  endfacet
  facet normal 0.913856 -0.406038 0
    outer loop
      vertex -0.915527 11.716 10
      vertex -0.962402 11.6105 11.99
      vertex -0.962402 11.6105 10
    endloop
  endfacet
  facet normal 0.629471 -0.777024 0
    outer loop
      vertex -1.04054 11.5472 10
      vertex -0.962402 11.6105 11.99
      vertex -1.04054 11.5472 11.99
    endloop
  endfacet
  facet normal 0.629471 -0.777024 0
    outer loop
      vertex -0.962402 11.6105 11.99
      vertex -1.04054 11.5472 10
      vertex -0.962402 11.6105 10
    endloop
  endfacet
  facet normal 0.188548 -0.982064 0
    outer loop
      vertex -1.14992 11.5262 10
      vertex -1.04054 11.5472 11.99
      vertex -1.14992 11.5262 11.99
    endloop
  endfacet
  facet normal 0.188548 -0.982064 0
    outer loop
      vertex -1.04054 11.5472 11.99
      vertex -1.14992 11.5262 10
      vertex -1.04054 11.5472 10
    endloop
  endfacet
  facet normal -0.179911 -0.983683 0
    outer loop
      vertex -1.26474 11.5472 10
      vertex -1.14992 11.5262 11.99
      vertex -1.26474 11.5472 11.99
    endloop
  endfacet
  facet normal -0.179911 -0.983683 -0
    outer loop
      vertex -1.14992 11.5262 11.99
      vertex -1.26474 11.5472 10
      vertex -1.14992 11.5262 10
    endloop
  endfacet
  facet normal -0.610969 -0.791654 0
    outer loop
      vertex -1.34676 11.6105 10
      vertex -1.26474 11.5472 11.99
      vertex -1.34676 11.6105 11.99
    endloop
  endfacet
  facet normal -0.610969 -0.791654 -0
    outer loop
      vertex -1.26474 11.5472 11.99
      vertex -1.34676 11.6105 10
      vertex -1.26474 11.5472 10
    endloop
  endfacet
  facet normal -0.90626 -0.422721 0
    outer loop
      vertex -1.34676 11.6105 10
      vertex -1.39597 11.716 11.99
      vertex -1.39597 11.716 10
    endloop
  endfacet
  facet normal -0.90626 -0.422721 0
    outer loop
      vertex -1.39597 11.716 11.99
      vertex -1.34676 11.6105 10
      vertex -1.34676 11.6105 11.99
    endloop
  endfacet
  facet normal -0.993884 -0.110432 0
    outer loop
      vertex -1.39597 11.716 10
      vertex -1.41237 11.8636 11.99
      vertex -1.41237 11.8636 10
    endloop
  endfacet
  facet normal -0.993884 -0.110432 0
    outer loop
      vertex -1.41237 11.8636 11.99
      vertex -1.39597 11.716 10
      vertex -1.39597 11.716 11.99
    endloop
  endfacet
  facet normal -1 0 0
    outer loop
      vertex -1.41237 11.8636 10
      vertex -1.41237 12.7761 11.99
      vertex -1.41237 12.7761 10
    endloop
  endfacet
  facet normal -1 -0 0
    outer loop
      vertex -1.41237 12.7761 11.99
      vertex -1.41237 11.8636 10
      vertex -1.41237 11.8636 11.99
    endloop
  endfacet
  facet normal 0 -1 0
    outer loop
      vertex -3.49973 12.7761 10
      vertex -1.41237 12.7761 11.99
      vertex -3.49973 12.7761 11.99
    endloop
  endfacet
  facet normal 0 -1 -0
    outer loop
      vertex -1.41237 12.7761 11.99
      vertex -3.49973 12.7761 10
      vertex -1.41237 12.7761 10
    endloop
  endfacet
  facet normal 1 -0 0
    outer loop
      vertex -3.49973 6.76263 11.99
      vertex -3.49973 12.7761 10
      vertex -3.49973 12.7761 11.99
    endloop
  endfacet
  facet normal 1 0 0
    outer loop
      vertex -3.49973 12.7761 10
      vertex -3.49973 6.76263 11.99
      vertex -3.49973 6.76263 10
    endloop
  endfacet
  facet normal 0 1 -0
    outer loop
      vertex -2.18735 6.76263 10
      vertex -3.49973 6.76263 11.99
      vertex -2.18735 6.76263 11.99
    endloop
  endfacet
  facet normal 0 1 0
    outer loop
      vertex -3.49973 6.76263 11.99
      vertex -2.18735 6.76263 10
      vertex -3.49973 6.76263 10
    endloop
  endfacet
  facet normal 0.105337 0.994437 -0
    outer loop
      vertex -2.0397 6.74699 10
      vertex -2.18735 6.76263 11.99
      vertex -2.0397 6.74699 11.99
    endloop
  endfacet
  facet normal 0.105337 0.994437 0
    outer loop
      vertex -2.18735 6.76263 11.99
      vertex -2.0397 6.74699 10
      vertex -2.18735 6.76263 10
    endloop
  endfacet
  facet normal 0.406243 0.913765 -0
    outer loop
      vertex -1.93423 6.7001 10
      vertex -2.0397 6.74699 11.99
      vertex -1.93423 6.7001 11.99
    endloop
  endfacet
  facet normal 0.406243 0.913765 0
    outer loop
      vertex -2.0397 6.74699 11.99
      vertex -1.93423 6.7001 10
      vertex -2.0397 6.74699 10
    endloop
  endfacet
  facet normal 0.77712 0.629353 0
    outer loop
      vertex -1.87094 6.62195 11.99
      vertex -1.93423 6.7001 10
      vertex -1.93423 6.7001 11.99
    endloop
  endfacet
  facet normal 0.77712 0.629353 0
    outer loop
      vertex -1.93423 6.7001 10
      vertex -1.87094 6.62195 11.99
      vertex -1.87094 6.62195 10
    endloop
  endfacet
  facet normal 0.981927 0.18926 0
    outer loop
      vertex -1.84985 6.51253 11.99
      vertex -1.87094 6.62195 10
      vertex -1.87094 6.62195 11.99
    endloop
  endfacet
  facet normal 0.981927 0.18926 0
    outer loop
      vertex -1.87094 6.62195 10
      vertex -1.84985 6.51253 11.99
      vertex -1.84985 6.51253 10
    endloop
  endfacet
  facet normal 0.98356 -0.180581 0
    outer loop
      vertex -1.87094 6.39766 11.99
      vertex -1.84985 6.51253 10
      vertex -1.84985 6.51253 11.99
    endloop
  endfacet
  facet normal 0.98356 -0.180581 0
    outer loop
      vertex -1.84985 6.51253 10
      vertex -1.87094 6.39766 11.99
      vertex -1.87094 6.39766 10
    endloop
  endfacet
  facet normal 0.791737 -0.610862 0
    outer loop
      vertex -1.93423 6.31563 11.99
      vertex -1.87094 6.39766 10
      vertex -1.87094 6.39766 11.99
    endloop
  endfacet
  facet normal 0.791737 -0.610862 0
    outer loop
      vertex -1.87094 6.39766 10
      vertex -1.93423 6.31563 11.99
      vertex -1.93423 6.31563 10
    endloop
  endfacet
  facet normal 0.422961 -0.906148 0
    outer loop
      vertex -2.0397 6.2664 10
      vertex -1.93423 6.31563 11.99
      vertex -2.0397 6.2664 11.99
    endloop
  endfacet
  facet normal 0.422961 -0.906148 0
    outer loop
      vertex -1.93423 6.31563 11.99
      vertex -2.0397 6.2664 10
      vertex -1.93423 6.31563 10
    endloop
  endfacet
  facet normal 0.110395 -0.993888 0
    outer loop
      vertex -2.18735 6.25 10
      vertex -2.0397 6.2664 11.99
      vertex -2.18735 6.25 11.99
    endloop
  endfacet
  facet normal 0.110395 -0.993888 0
    outer loop
      vertex -2.0397 6.2664 11.99
      vertex -2.18735 6.25 10
      vertex -2.0397 6.2664 10
    endloop
  endfacet
  facet normal 0 -1 0
    outer loop
      vertex -5.32466 6.25 10
      vertex -2.18735 6.25 11.99
      vertex -5.32466 6.25 11.99
    endloop
  endfacet
  facet normal 0 -1 -0
    outer loop
      vertex -2.18735 6.25 11.99
      vertex -5.32466 6.25 10
      vertex -2.18735 6.25 10
    endloop
  endfacet
  facet normal -0.110387 -0.993889 0
    outer loop
      vertex -5.47232 6.2664 10
      vertex -5.32466 6.25 11.99
      vertex -5.47232 6.2664 11.99
    endloop
  endfacet
  facet normal -0.110387 -0.993889 -0
    outer loop
      vertex -5.32466 6.25 11.99
      vertex -5.47232 6.2664 10
      vertex -5.32466 6.25 10
    endloop
  endfacet
endsolid OpenSCAD_Model
