solid OpenSCAD_Model
  facet normal 0 0 1
    outer loop
      vertex -6.5722 6.26633 10
      vertex -6.51 3.5 10
      vertex -6.42455 6.25 10
    endloop
  endfacet
  facet normal 0 0 1
    outer loop
      vertex -7.5 3.5 10
      vertex -6.5722 6.26633 10
      vertex -6.67767 6.31531 10
    endloop
  endfacet
  facet normal 0 0 1
    outer loop
      vertex -7.5 3.5 10
      vertex -6.67767 6.31531 10
      vertex -6.74095 6.39696 10
    endloop
  endfacet
  facet normal 0 0 1
    outer loop
      vertex -7.5 3.5 10
      vertex -6.74095 6.39696 10
      vertex -6.76205 6.51126 10
    endloop
  endfacet
  facet normal 0 0 1
    outer loop
      vertex -7.5 3.5 10
      vertex -6.76205 6.51126 10
      vertex -7.5 14.5 10
    endloop
  endfacet
  facet normal 0 0 1
    outer loop
      vertex -6.5722 6.26633 10
      vertex -7.5 3.5 10
      vertex -6.51 3.5 10
    endloop
  endfacet
  facet normal 0 0 1
    outer loop
      vertex 0 14.5 10
      vertex -0.537476 11.2127 10
      vertex 0 2.5 10
    endloop
  endfacet
  facet normal 0 0 1
    outer loop
      vertex 0 14.5 10
      vertex -0.558563 11.3221 10
      vertex -0.537476 11.2127 10
    endloop
  endfacet
  facet normal 0 0 1
    outer loop
      vertex 0 14.5 10
      vertex -0.621841 11.4003 10
      vertex -0.558563 11.3221 10
    endloop
  endfacet
  facet normal 0 0 1
    outer loop
      vertex 0 14.5 10
      vertex -0.72731 11.4472 10
      vertex -0.621841 11.4003 10
    endloop
  endfacet
  facet normal 0 0 1
    outer loop
      vertex 0 14.5 10
      vertex -0.874969 11.4628 10
      vertex -0.72731 11.4472 10
    endloop
  endfacet
  facet normal 0 0 1
    outer loop
      vertex 0 14.5 10
      vertex -2.06235 11.4628 10
      vertex -0.874969 11.4628 10
    endloop
  endfacet
  facet normal -0 0 1
    outer loop
      vertex -4.29974 11.0158 10
      vertex -2.06235 7.68639 10
      vertex -2.06235 11.4628 10
    endloop
  endfacet
  facet normal -0 0 1
    outer loop
      vertex -4.40909 10.9666 10
      vertex -2.06235 7.68639 10
      vertex -4.29974 11.0158 10
    endloop
  endfacet
  facet normal 0 0 1
    outer loop
      vertex -4.95512 7.19476 10
      vertex -2.06235 7.68639 10
      vertex -4.40909 10.9666 10
    endloop
  endfacet
  facet normal 0 -0 1
    outer loop
      vertex -4.39656 6.84268 10
      vertex -2.06235 7.68639 10
      vertex -4.95512 7.19476 10
    endloop
  endfacet
  facet normal 0 -0 1
    outer loop
      vertex -3.81145 6.63144 10
      vertex -2.06235 7.68639 10
      vertex -4.39656 6.84268 10
    endloop
  endfacet
  facet normal 0 0 1
    outer loop
      vertex -2.06235 7.68639 10
      vertex -2.39354 6.88611 10
      vertex -2.08304 7.45821 10
    endloop
  endfacet
  facet normal 0 0 1
    outer loop
      vertex -2.08304 7.45821 10
      vertex -2.24864 7.05807 10
      vertex -2.14514 7.24876 10
    endloop
  endfacet
  facet normal 0 0 1
    outer loop
      vertex -2.39354 6.88611 10
      vertex -3.19977 6.56104 10
      vertex -2.56816 6.7439 10
    endloop
  endfacet
  facet normal 0 -0 1
    outer loop
      vertex -2.97127 6.58134 10
      vertex -2.56816 6.7439 10
      vertex -3.19977 6.56104 10
    endloop
  endfacet
  facet normal 0 0 1
    outer loop
      vertex -4.23413 11.0978 10
      vertex -2.06235 11.4628 10
      vertex -4.21227 11.2127 10
    endloop
  endfacet
  facet normal 0 0 1
    outer loop
      vertex -4.40909 11.4472 10
      vertex -2.06235 11.4628 10
      vertex 0 14.5 10
    endloop
  endfacet
  facet normal 0 0 1
    outer loop
      vertex -2.06235 11.4628 10
      vertex -4.23413 11.3221 10
      vertex -4.21227 11.2127 10
    endloop
  endfacet
  facet normal 0 0 1
    outer loop
      vertex -2.06235 11.4628 10
      vertex -4.29974 11.4003 10
      vertex -4.23413 11.3221 10
    endloop
  endfacet
  facet normal 0 0 1
    outer loop
      vertex -2.06235 11.4628 10
      vertex -4.40909 11.4472 10
      vertex -4.29974 11.4003 10
    endloop
  endfacet
  facet normal -0 0 1
    outer loop
      vertex -7.5 14.5 10
      vertex -4.40909 11.4472 10
      vertex 0 14.5 10
    endloop
  endfacet
  facet normal 0 0 1
    outer loop
      vertex -4.40909 11.4472 10
      vertex -7.5 14.5 10
      vertex -4.56218 11.4628 10
    endloop
  endfacet
  facet normal 0 0 1
    outer loop
      vertex -5.99957 11.4628 10
      vertex -6.42455 6.76263 10
      vertex -5.99957 6.76263 10
    endloop
  endfacet
  facet normal 0 0 1
    outer loop
      vertex -5.99957 11.4628 10
      vertex -6.5722 6.74692 10
      vertex -6.42455 6.76263 10
    endloop
  endfacet
  facet normal 0 0 1
    outer loop
      vertex -5.99957 11.4628 10
      vertex -6.67767 6.69978 10
      vertex -6.5722 6.74692 10
    endloop
  endfacet
  facet normal 0 0 1
    outer loop
      vertex -5.99957 11.4628 10
      vertex -6.74095 6.62123 10
      vertex -6.67767 6.69978 10
    endloop
  endfacet
  facet normal 0 0 1
    outer loop
      vertex -7.5 14.5 10
      vertex -6.74095 6.62123 10
      vertex -5.99957 11.4628 10
    endloop
  endfacet
  facet normal 0 0 1
    outer loop
      vertex -6.74095 6.62123 10
      vertex -7.5 14.5 10
      vertex -6.76205 6.51126 10
    endloop
  endfacet
  facet normal 0 0 1
    outer loop
      vertex -4.56218 11.4628 10
      vertex -7.5 14.5 10
      vertex -5.99957 11.4628 10
    endloop
  endfacet
  facet normal -0 0 1
    outer loop
      vertex -0.558563 11.0978 10
      vertex 0 2.5 10
      vertex -0.537476 11.2127 10
    endloop
  endfacet
  facet normal 0 0 1
    outer loop
      vertex -1.54988 7.68648 10
      vertex -0.558563 11.0978 10
      vertex -0.621841 11.0158 10
    endloop
  endfacet
  facet normal 0 0 1
    outer loop
      vertex -1.54988 7.68648 10
      vertex -0.621841 11.0158 10
      vertex -0.72731 10.9666 10
    endloop
  endfacet
  facet normal 0 0 1
    outer loop
      vertex -1.54988 7.68648 10
      vertex -0.72731 10.9666 10
      vertex -0.874969 10.9501 10
    endloop
  endfacet
  facet normal 0 0 1
    outer loop
      vertex -1.54988 7.68648 10
      vertex -0.874969 10.9501 10
      vertex -1.54988 10.9501 10
    endloop
  endfacet
  facet normal 0 0 1
    outer loop
      vertex -0.558563 11.0978 10
      vertex -1.54988 7.68648 10
      vertex 0 2.5 10
    endloop
  endfacet
  facet normal -0 0 1
    outer loop
      vertex -1.5784 7.33559 10
      vertex 0 2.5 10
      vertex -1.54988 7.68648 10
    endloop
  endfacet
  facet normal -0 0 1
    outer loop
      vertex -1.66394 7.02065 10
      vertex 0 2.5 10
      vertex -1.5784 7.33559 10
    endloop
  endfacet
  facet normal -0 0 1
    outer loop
      vertex -1.8065 6.74164 10
      vertex 0 2.5 10
      vertex -1.66394 7.02065 10
    endloop
  endfacet
  facet normal -0 0 1
    outer loop
      vertex -2.00609 6.49857 10
      vertex 0 2.5 10
      vertex -1.8065 6.74164 10
    endloop
  endfacet
  facet normal -0 0 1
    outer loop
      vertex -2.25256 6.30162 10
      vertex 0 2.5 10
      vertex -2.00609 6.49857 10
    endloop
  endfacet
  facet normal -0 0 1
    outer loop
      vertex -2.53574 6.16095 10
      vertex 0 2.5 10
      vertex -2.25256 6.30162 10
    endloop
  endfacet
  facet normal -0 0 1
    outer loop
      vertex -2.85565 6.07654 10
      vertex 0 2.5 10
      vertex -2.53574 6.16095 10
    endloop
  endfacet
  facet normal -0 0 1
    outer loop
      vertex -3.21227 6.0484 10
      vertex 0 2.5 10
      vertex -2.85565 6.07654 10
    endloop
  endfacet
  facet normal 0 0 1
    outer loop
      vertex -6.51 3.5 10
      vertex -3.21227 6.0484 10
      vertex -3.81378 6.11258 10
    endloop
  endfacet
  facet normal 0 0 1
    outer loop
      vertex -6.51 3.5 10
      vertex -3.81378 6.11258 10
      vertex -4.39343 6.30507 10
    endloop
  endfacet
  facet normal 0 0 1
    outer loop
      vertex -5.48711 6.25 10
      vertex -4.39343 6.30507 10
      vertex -4.9512 6.62592 10
    endloop
  endfacet
  facet normal 0 0 1
    outer loop
      vertex -5.48711 6.25 10
      vertex -4.9512 6.62592 10
      vertex -5.48711 7.07512 10
    endloop
  endfacet
  facet normal 0 0 1
    outer loop
      vertex -4.39343 6.30507 10
      vertex -5.48711 6.25 10
      vertex -6.51 3.5 10
    endloop
  endfacet
  facet normal 0 0 1
    outer loop
      vertex -6.51 3.5 10
      vertex -5.48711 6.25 10
      vertex -6.42455 6.25 10
    endloop
  endfacet
  facet normal 0 0 1
    outer loop
      vertex -3.21227 6.0484 10
      vertex -6.51 3.5 10
      vertex -6.51 2.5 10
    endloop
  endfacet
  facet normal 0 0 1
    outer loop
      vertex -3.21227 6.0484 10
      vertex -6.51 2.5 10
      vertex 0 2.5 10
    endloop
  endfacet
  facet normal 0 0 1
    outer loop
      vertex -4.29974 11.0158 10
      vertex -2.06235 11.4628 10
      vertex -4.23413 11.0978 10
    endloop
  endfacet
  facet normal 0 0 1
    outer loop
      vertex -2.56816 6.7439 10
      vertex -2.97127 6.58134 10
      vertex -2.76074 6.6423 10
    endloop
  endfacet
  facet normal 0 0 1
    outer loop
      vertex -2.08304 7.45821 10
      vertex -2.39354 6.88611 10
      vertex -2.24864 7.05807 10
    endloop
  endfacet
  facet normal 0 -0 1
    outer loop
      vertex -3.19977 6.56104 10
      vertex -2.06235 7.68639 10
      vertex -3.81145 6.63144 10
    endloop
  endfacet
  facet normal 0 0 1
    outer loop
      vertex -5.48711 7.68765 10
      vertex -4.40909 10.9666 10
      vertex -4.56218 10.9501 10
    endloop
  endfacet
  facet normal 0 -0 1
    outer loop
      vertex -2.39354 6.88611 10
      vertex -2.06235 7.68639 10
      vertex -3.19977 6.56104 10
    endloop
  endfacet
  facet normal 0 0 1
    outer loop
      vertex -5.48711 7.68765 10
      vertex -4.56218 10.9501 10
      vertex -5.48711 10.9501 10
    endloop
  endfacet
  facet normal 0 0 1
    outer loop
      vertex -4.40909 10.9666 10
      vertex -5.48711 7.68765 10
      vertex -4.95512 7.19476 10
    endloop
  endfacet
  facet normal -1 0 0
    outer loop
      vertex -7.5 0 3
      vertex -7.5 17 3
      vertex -7.5 17 0
    endloop
  endfacet
  facet normal -1 0 0
    outer loop
      vertex -7.5 17 3
      vertex -7.5 3.5 9.01
      vertex -7.5 14.5 10
    endloop
  endfacet
  facet normal -1 0 0
    outer loop
      vertex -7.5 17 3
      vertex -7.5 0 3
      vertex -7.5 3.5 9.01
    endloop
  endfacet
  facet normal -1 0 0
    outer loop
      vertex -7.5 0 3
      vertex -7.5 17 0
      vertex -7.5 0 0
    endloop
  endfacet
  facet normal -1 -0 0
    outer loop
      vertex -7.5 3.5 9.01
      vertex -7.5 0 3
      vertex -7.5 2.14643 9.01
    endloop
  endfacet
  facet normal -1 -0 0
    outer loop
      vertex -7.5 14.5 10
      vertex -7.5 3.5 9.01
      vertex -7.5 3.5 10
    endloop
  endfacet
  facet normal 0 1 -0
    outer loop
      vertex 0 17 0
      vertex -7.5 17 3
      vertex 0 17 3
    endloop
  endfacet
  facet normal 0 1 0
    outer loop
      vertex -7.5 17 3
      vertex 0 17 0
      vertex -7.5 17 0
    endloop
  endfacet
  facet normal 0 0 -1
    outer loop
      vertex -7.5 0 0
      vertex 0 17 0
      vertex 0 0 0
    endloop
  endfacet
  facet normal -0 0 -1
    outer loop
      vertex 0 17 0
      vertex -7.5 0 0
      vertex -7.5 17 0
    endloop
  endfacet
  facet normal 1 0 0
    outer loop
      vertex 0 0 3
      vertex 0 17 3
      vertex 0 14.5 10
    endloop
  endfacet
  facet normal 1 0 0
    outer loop
      vertex 0 0 3
      vertex 0 14.5 10
      vertex 0 2.5 10
    endloop
  endfacet
  facet normal 1 0 0
    outer loop
      vertex 0 17 3
      vertex 0 0 3
      vertex 0 17 0
    endloop
  endfacet
  facet normal 1 0 0
    outer loop
      vertex 0 17 0
      vertex 0 0 3
      vertex 0 0 0
    endloop
  endfacet
  facet normal 0 -0.941742 0.336337
    outer loop
      vertex -7.5 2.14643 9.01
      vertex -7.5 0 3
      vertex -6.51 2.14643 9.01
    endloop
  endfacet
  facet normal 0 -0.941742 0.336335
    outer loop
      vertex -6.51 2.14643 9.01
      vertex 0 2.5 10
      vertex -6.51 2.5 10
    endloop
  endfacet
  facet normal 0 -0.941742 0.336337
    outer loop
      vertex 0 0 3
      vertex -6.51 2.14643 9.01
      vertex -7.5 0 3
    endloop
  endfacet
  facet normal -2.06658e-07 -0.941742 0.336336
    outer loop
      vertex -6.51 2.14643 9.01
      vertex 0 0 3
      vertex 0 2.5 10
    endloop
  endfacet
  facet normal 0 -1 0
    outer loop
      vertex -7.5 0 0
      vertex 0 0 3
      vertex -7.5 0 3
    endloop
  endfacet
  facet normal 0 -1 -0
    outer loop
      vertex 0 0 3
      vertex -7.5 0 0
      vertex 0 0 0
    endloop
  endfacet
  facet normal 0 0.941742 0.336336
    outer loop
      vertex 0 17 3
      vertex -7.5 14.5 10
      vertex 0 14.5 10
    endloop
  endfacet
  facet normal 0 0.941742 0.336336
    outer loop
      vertex -7.5 14.5 10
      vertex 0 17 3
      vertex -7.5 17 3
    endloop
  endfacet
  facet normal -0 0 1
    outer loop
      vertex -7.5 3.5 9.01
      vertex -6.51 2.14643 9.01
      vertex -6.51 3.5 9.01
    endloop
  endfacet
  facet normal 0 0 1
    outer loop
      vertex -6.51 2.14643 9.01
      vertex -7.5 3.5 9.01
      vertex -7.5 2.14643 9.01
    endloop
  endfacet
  facet normal -1 0 0
    outer loop
      vertex -6.51 3.5 9.01
      vertex -6.51 2.5 10
      vertex -6.51 3.5 10
    endloop
  endfacet
  facet normal -1 0 -0
    outer loop
      vertex -6.51 2.5 10
      vertex -6.51 3.5 9.01
      vertex -6.51 2.14643 9.01
    endloop
  endfacet
  facet normal 0 -1 0
    outer loop
      vertex -7.5 3.5 9.01
      vertex -6.51 3.5 10
      vertex -7.5 3.5 10
    endloop
  endfacet
  facet normal 0 -1 -0
    outer loop
      vertex -6.51 3.5 10
      vertex -7.5 3.5 9.01
      vertex -6.51 3.5 9.01
    endloop
  endfacet
  facet normal 0 0 1
    outer loop
      vertex -4.29974 11.4003 11.99
      vertex -4.21227 11.2127 11.99
      vertex -4.23413 11.3221 11.99
    endloop
  endfacet
  facet normal 0 0 1
    outer loop
      vertex -4.40909 11.4472 11.99
      vertex -4.21227 11.2127 11.99
      vertex -4.29974 11.4003 11.99
    endloop
  endfacet
  facet normal 0 0 1
    outer loop
      vertex -4.40909 10.9666 11.99
      vertex -4.21227 11.2127 11.99
      vertex -4.40909 11.4472 11.99
    endloop
  endfacet
  facet normal 0 0 1
    outer loop
      vertex -4.21227 11.2127 11.99
      vertex -4.29974 11.0158 11.99
      vertex -4.23413 11.0978 11.99
    endloop
  endfacet
  facet normal 0 0 1
    outer loop
      vertex -4.21227 11.2127 11.99
      vertex -4.40909 10.9666 11.99
      vertex -4.29974 11.0158 11.99
    endloop
  endfacet
  facet normal 0 0 1
    outer loop
      vertex -4.56218 11.4628 11.99
      vertex -4.40909 10.9666 11.99
      vertex -4.40909 11.4472 11.99
    endloop
  endfacet
  facet normal 0 0 1
    outer loop
      vertex -4.56218 11.4628 11.99
      vertex -4.56218 10.9501 11.99
      vertex -4.40909 10.9666 11.99
    endloop
  endfacet
  facet normal 0 0 1
    outer loop
      vertex -4.56218 11.4628 11.99
      vertex -5.48711 10.9501 11.99
      vertex -4.56218 10.9501 11.99
    endloop
  endfacet
  facet normal 0 0 1
    outer loop
      vertex -5.99957 11.4628 11.99
      vertex -5.48711 7.68765 11.99
      vertex -5.48711 10.9501 11.99
    endloop
  endfacet
  facet normal 0 0 1
    outer loop
      vertex -5.48711 7.68765 11.99
      vertex -5.99957 6.76263 11.99
      vertex -5.48711 7.07512 11.99
    endloop
  endfacet
  facet normal -0 0 1
    outer loop
      vertex -5.99957 11.4628 11.99
      vertex -5.48711 10.9501 11.99
      vertex -4.56218 11.4628 11.99
    endloop
  endfacet
  facet normal 0 0 1
    outer loop
      vertex -5.48711 7.68765 11.99
      vertex -5.99957 11.4628 11.99
      vertex -5.99957 6.76263 11.99
    endloop
  endfacet
  facet normal 0 0 1
    outer loop
      vertex -5.48711 7.07512 11.99
      vertex -5.99957 6.76263 11.99
      vertex -5.48711 6.25 11.99
    endloop
  endfacet
  facet normal 0 0 1
    outer loop
      vertex -6.42455 6.25 11.99
      vertex -5.99957 6.76263 11.99
      vertex -6.42455 6.76263 11.99
    endloop
  endfacet
  facet normal 0 0 1
    outer loop
      vertex -5.99957 6.76263 11.99
      vertex -6.42455 6.25 11.99
      vertex -5.48711 6.25 11.99
    endloop
  endfacet
  facet normal -0 0 1
    outer loop
      vertex -6.5722 6.74692 11.99
      vertex -6.42455 6.25 11.99
      vertex -6.42455 6.76263 11.99
    endloop
  endfacet
  facet normal 0 0 1
    outer loop
      vertex -6.5722 6.74692 11.99
      vertex -6.5722 6.26633 11.99
      vertex -6.42455 6.25 11.99
    endloop
  endfacet
  facet normal 0 0 1
    outer loop
      vertex -6.76205 6.51126 11.99
      vertex -6.5722 6.74692 11.99
      vertex -6.67767 6.69978 11.99
    endloop
  endfacet
  facet normal 0 0 1
    outer loop
      vertex -6.5722 6.74692 11.99
      vertex -6.76205 6.51126 11.99
      vertex -6.5722 6.26633 11.99
    endloop
  endfacet
  facet normal 0 0 1
    outer loop
      vertex -6.76205 6.51126 11.99
      vertex -6.67767 6.69978 11.99
      vertex -6.74095 6.62123 11.99
    endloop
  endfacet
  facet normal 0 0 1
    outer loop
      vertex -6.5722 6.26633 11.99
      vertex -6.76205 6.51126 11.99
      vertex -6.67767 6.31531 11.99
    endloop
  endfacet
  facet normal 0 0 1
    outer loop
      vertex -6.67767 6.31531 11.99
      vertex -6.76205 6.51126 11.99
      vertex -6.74095 6.39696 11.99
    endloop
  endfacet
  facet normal 0 0 1
    outer loop
      vertex -0.621841 11.4003 11.99
      vertex -0.537476 11.2127 11.99
      vertex -0.558563 11.3221 11.99
    endloop
  endfacet
  facet normal 0 0 1
    outer loop
      vertex -0.537476 11.2127 11.99
      vertex -0.621841 11.4003 11.99
      vertex -0.72731 11.4472 11.99
    endloop
  endfacet
  facet normal 0 0 1
    outer loop
      vertex -0.72731 10.9666 11.99
      vertex -0.537476 11.2127 11.99
      vertex -0.72731 11.4472 11.99
    endloop
  endfacet
  facet normal 0 0 1
    outer loop
      vertex -0.537476 11.2127 11.99
      vertex -0.72731 10.9666 11.99
      vertex -0.558563 11.0978 11.99
    endloop
  endfacet
  facet normal 0 0 1
    outer loop
      vertex -0.558563 11.0978 11.99
      vertex -0.72731 10.9666 11.99
      vertex -0.621841 11.0158 11.99
    endloop
  endfacet
  facet normal 0 0 1
    outer loop
      vertex -0.874969 11.4628 11.99
      vertex -0.72731 10.9666 11.99
      vertex -0.72731 11.4472 11.99
    endloop
  endfacet
  facet normal 0 0 1
    outer loop
      vertex -0.874969 11.4628 11.99
      vertex -0.874969 10.9501 11.99
      vertex -0.72731 10.9666 11.99
    endloop
  endfacet
  facet normal 0 0 1
    outer loop
      vertex -0.874969 11.4628 11.99
      vertex -1.54988 10.9501 11.99
      vertex -0.874969 10.9501 11.99
    endloop
  endfacet
  facet normal 0 0 1
    outer loop
      vertex -2.06235 7.68639 11.99
      vertex -1.54988 7.68648 11.99
      vertex -1.54988 10.9501 11.99
    endloop
  endfacet
  facet normal 0 0 1
    outer loop
      vertex -2.08304 7.45821 11.99
      vertex -1.54988 7.68648 11.99
      vertex -2.06235 7.68639 11.99
    endloop
  endfacet
  facet normal 0 0 1
    outer loop
      vertex -1.54988 7.68648 11.99
      vertex -2.08304 7.45821 11.99
      vertex -1.5784 7.33559 11.99
    endloop
  endfacet
  facet normal 0 0 1
    outer loop
      vertex -2.14514 7.24876 11.99
      vertex -1.5784 7.33559 11.99
      vertex -2.08304 7.45821 11.99
    endloop
  endfacet
  facet normal -0 0 1
    outer loop
      vertex -2.06235 11.4628 11.99
      vertex -1.54988 10.9501 11.99
      vertex -0.874969 11.4628 11.99
    endloop
  endfacet
  facet normal 0 0 1
    outer loop
      vertex -2.06235 7.68639 11.99
      vertex -1.54988 10.9501 11.99
      vertex -2.06235 11.4628 11.99
    endloop
  endfacet
  facet normal 0 0 1
    outer loop
      vertex -1.5784 7.33559 11.99
      vertex -2.14514 7.24876 11.99
      vertex -1.66394 7.02065 11.99
    endloop
  endfacet
  facet normal -0 0 1
    outer loop
      vertex -2.24864 7.05807 11.99
      vertex -1.66394 7.02065 11.99
      vertex -2.14514 7.24876 11.99
    endloop
  endfacet
  facet normal 0 0 1
    outer loop
      vertex -1.66394 7.02065 11.99
      vertex -2.24864 7.05807 11.99
      vertex -1.8065 6.74164 11.99
    endloop
  endfacet
  facet normal -0 0 1
    outer loop
      vertex -2.39354 6.88611 11.99
      vertex -1.8065 6.74164 11.99
      vertex -2.24864 7.05807 11.99
    endloop
  endfacet
  facet normal 0 0 1
    outer loop
      vertex -1.8065 6.74164 11.99
      vertex -2.39354 6.88611 11.99
      vertex -2.00609 6.49857 11.99
    endloop
  endfacet
  facet normal 0 0 1
    outer loop
      vertex -2.00609 6.49857 11.99
      vertex -2.39354 6.88611 11.99
      vertex -2.25256 6.30162 11.99
    endloop
  endfacet
  facet normal -0 0 1
    outer loop
      vertex -2.56816 6.7439 11.99
      vertex -2.25256 6.30162 11.99
      vertex -2.39354 6.88611 11.99
    endloop
  endfacet
  facet normal 0 0 1
    outer loop
      vertex -2.25256 6.30162 11.99
      vertex -2.56816 6.7439 11.99
      vertex -2.53574 6.16095 11.99
    endloop
  endfacet
  facet normal -0 0 1
    outer loop
      vertex -2.76074 6.6423 11.99
      vertex -2.53574 6.16095 11.99
      vertex -2.56816 6.7439 11.99
    endloop
  endfacet
  facet normal 0 0 1
    outer loop
      vertex -2.76074 6.6423 11.99
      vertex -2.85565 6.07654 11.99
      vertex -2.53574 6.16095 11.99
    endloop
  endfacet
  facet normal -0 0 1
    outer loop
      vertex -2.97127 6.58134 11.99
      vertex -2.85565 6.07654 11.99
      vertex -2.76074 6.6423 11.99
    endloop
  endfacet
  facet normal 0 0 1
    outer loop
      vertex -3.21227 6.0484 11.99
      vertex -2.97127 6.58134 11.99
      vertex -3.19977 6.56104 11.99
    endloop
  endfacet
  facet normal 0 0 1
    outer loop
      vertex -2.97127 6.58134 11.99
      vertex -3.21227 6.0484 11.99
      vertex -2.85565 6.07654 11.99
    endloop
  endfacet
  facet normal 0 0 1
    outer loop
      vertex -3.81378 6.11258 11.99
      vertex -3.19977 6.56104 11.99
      vertex -3.81145 6.63144 11.99
    endloop
  endfacet
  facet normal 0 0 1
    outer loop
      vertex -3.19977 6.56104 11.99
      vertex -3.81378 6.11258 11.99
      vertex -3.21227 6.0484 11.99
    endloop
  endfacet
  facet normal 0 0 1
    outer loop
      vertex -3.81145 6.63144 11.99
      vertex -4.39343 6.30507 11.99
      vertex -3.81378 6.11258 11.99
    endloop
  endfacet
  facet normal 0 0 1
    outer loop
      vertex -4.39656 6.84268 11.99
      vertex -4.39343 6.30507 11.99
      vertex -3.81145 6.63144 11.99
    endloop
  endfacet
  facet normal 0 0 1
    outer loop
      vertex -4.39656 6.84268 11.99
      vertex -4.9512 6.62592 11.99
      vertex -4.39343 6.30507 11.99
    endloop
  endfacet
  facet normal 0 0 1
    outer loop
      vertex -4.95512 7.19476 11.99
      vertex -4.9512 6.62592 11.99
      vertex -4.39656 6.84268 11.99
    endloop
  endfacet
  facet normal 0 0 1
    outer loop
      vertex -5.48711 7.07512 11.99
      vertex -4.95512 7.19476 11.99
      vertex -5.48711 7.68765 11.99
    endloop
  endfacet
  facet normal 0 0 1
    outer loop
      vertex -4.95512 7.19476 11.99
      vertex -5.48711 7.07512 11.99
      vertex -4.9512 6.62592 11.99
    endloop
  endfacet
  facet normal -0.315157 -0.94904 0
    outer loop
      vertex -4.39343 6.30507 10
      vertex -3.81378 6.11258 11.99
      vertex -4.39343 6.30507 11.99
    endloop
  endfacet
  facet normal -0.315157 -0.94904 -0
    outer loop
      vertex -3.81378 6.11258 11.99
      vertex -4.39343 6.30507 10
      vertex -3.81378 6.11258 10
    endloop
  endfacet
  facet normal -0.498626 -0.866817 0
    outer loop
      vertex -4.9512 6.62592 10
      vertex -4.39343 6.30507 11.99
      vertex -4.9512 6.62592 11.99
    endloop
  endfacet
  facet normal -0.498626 -0.866817 -0
    outer loop
      vertex -4.39343 6.30507 11.99
      vertex -4.9512 6.62592 10
      vertex -4.39343 6.30507 10
    endloop
  endfacet
  facet normal -0.642383 -0.766384 0
    outer loop
      vertex -5.48711 7.07512 10
      vertex -4.9512 6.62592 11.99
      vertex -5.48711 7.07512 11.99
    endloop
  endfacet
  facet normal -0.642383 -0.766384 -0
    outer loop
      vertex -4.9512 6.62592 11.99
      vertex -5.48711 7.07512 10
      vertex -4.9512 6.62592 10
    endloop
  endfacet
  facet normal 1 -0 0
    outer loop
      vertex -5.48711 6.25 11.99
      vertex -5.48711 7.07512 10
      vertex -5.48711 7.07512 11.99
    endloop
  endfacet
  facet normal 1 0 0
    outer loop
      vertex -5.48711 7.07512 10
      vertex -5.48711 6.25 11.99
      vertex -5.48711 6.25 10
    endloop
  endfacet
  facet normal 0 -1 0
    outer loop
      vertex -6.42455 6.25 10
      vertex -5.48711 6.25 11.99
      vertex -6.42455 6.25 11.99
    endloop
  endfacet
  facet normal 0 -1 -0
    outer loop
      vertex -5.48711 6.25 11.99
      vertex -6.42455 6.25 10
      vertex -5.48711 6.25 10
    endloop
  endfacet
  facet normal -0.109929 -0.993939 0
    outer loop
      vertex -6.5722 6.26633 10
      vertex -6.42455 6.25 11.99
      vertex -6.5722 6.26633 11.99
    endloop
  endfacet
  facet normal -0.109929 -0.993939 -0
    outer loop
      vertex -6.42455 6.25 11.99
      vertex -6.5722 6.26633 10
      vertex -6.42455 6.25 10
    endloop
  endfacet
  facet normal -0.421195 -0.90697 0
    outer loop
      vertex -6.67767 6.31531 10
      vertex -6.5722 6.26633 11.99
      vertex -6.67767 6.31531 11.99
    endloop
  endfacet
  facet normal -0.421195 -0.90697 -0
    outer loop
      vertex -6.5722 6.26633 11.99
      vertex -6.67767 6.31531 10
      vertex -6.5722 6.26633 10
    endloop
  endfacet
  facet normal -0.790409 -0.612579 0
    outer loop
      vertex -6.67767 6.31531 10
      vertex -6.74095 6.39696 11.99
      vertex -6.74095 6.39696 10
    endloop
  endfacet
  facet normal -0.790409 -0.612579 0
    outer loop
      vertex -6.74095 6.39696 11.99
      vertex -6.67767 6.31531 10
      vertex -6.67767 6.31531 11.99
    endloop
  endfacet
  facet normal -0.983385 -0.181535 0
    outer loop
      vertex -6.74095 6.39696 10
      vertex -6.76205 6.51126 11.99
      vertex -6.76205 6.51126 10
    endloop
  endfacet
  facet normal -0.983385 -0.181535 0
    outer loop
      vertex -6.76205 6.51126 11.99
      vertex -6.74095 6.39696 10
      vertex -6.74095 6.39696 11.99
    endloop
  endfacet
  facet normal -0.982086 0.188433 0
    outer loop
      vertex -6.76205 6.51126 10
      vertex -6.74095 6.62123 11.99
      vertex -6.74095 6.62123 10
    endloop
  endfacet
  facet normal -0.982086 0.188433 0
    outer loop
      vertex -6.74095 6.62123 11.99
      vertex -6.76205 6.51126 10
      vertex -6.76205 6.51126 11.99
    endloop
  endfacet
  facet normal -0.778736 0.627351 0
    outer loop
      vertex -6.74095 6.62123 10
      vertex -6.67767 6.69978 11.99
      vertex -6.67767 6.69978 10
    endloop
  endfacet
  facet normal -0.778736 0.627351 0
    outer loop
      vertex -6.67767 6.69978 11.99
      vertex -6.74095 6.62123 10
      vertex -6.74095 6.62123 11.99
    endloop
  endfacet
  facet normal -0.408049 0.91296 0
    outer loop
      vertex -6.5722 6.74692 10
      vertex -6.67767 6.69978 11.99
      vertex -6.5722 6.74692 11.99
    endloop
  endfacet
  facet normal -0.408049 0.91296 0
    outer loop
      vertex -6.67767 6.69978 11.99
      vertex -6.5722 6.74692 10
      vertex -6.67767 6.69978 10
    endloop
  endfacet
  facet normal -0.105803 0.994387 0
    outer loop
      vertex -6.42455 6.76263 10
      vertex -6.5722 6.74692 11.99
      vertex -6.42455 6.76263 11.99
    endloop
  endfacet
  facet normal -0.105803 0.994387 0
    outer loop
      vertex -6.5722 6.74692 11.99
      vertex -6.42455 6.76263 10
      vertex -6.5722 6.74692 10
    endloop
  endfacet
  facet normal 0 1 -0
    outer loop
      vertex -5.99957 6.76263 10
      vertex -6.42455 6.76263 11.99
      vertex -5.99957 6.76263 11.99
    endloop
  endfacet
  facet normal 0 1 0
    outer loop
      vertex -6.42455 6.76263 11.99
      vertex -5.99957 6.76263 10
      vertex -6.42455 6.76263 10
    endloop
  endfacet
  facet normal -1 0 0
    outer loop
      vertex -5.99957 6.76263 10
      vertex -5.99957 11.4628 11.99
      vertex -5.99957 11.4628 10
    endloop
  endfacet
  facet normal -1 -0 0
    outer loop
      vertex -5.99957 11.4628 11.99
      vertex -5.99957 6.76263 10
      vertex -5.99957 6.76263 11.99
    endloop
  endfacet
  facet normal 0 1 -0
    outer loop
      vertex -4.56218 11.4628 10
      vertex -5.99957 11.4628 11.99
      vertex -4.56218 11.4628 11.99
    endloop
  endfacet
  facet normal 0 1 0
    outer loop
      vertex -5.99957 11.4628 11.99
      vertex -4.56218 11.4628 10
      vertex -5.99957 11.4628 10
    endloop
  endfacet
  facet normal 0.101376 0.994848 -0
    outer loop
      vertex -4.40909 11.4472 10
      vertex -4.56218 11.4628 11.99
      vertex -4.40909 11.4472 11.99
    endloop
  endfacet
  facet normal 0.101376 0.994848 0
    outer loop
      vertex -4.56218 11.4628 11.99
      vertex -4.40909 11.4472 10
      vertex -4.56218 11.4628 10
    endloop
  endfacet
  facet normal 0.394173 0.919036 -0
    outer loop
      vertex -4.29974 11.4003 10
      vertex -4.40909 11.4472 11.99
      vertex -4.29974 11.4003 11.99
    endloop
  endfacet
  facet normal 0.394173 0.919036 0
    outer loop
      vertex -4.40909 11.4472 11.99
      vertex -4.29974 11.4003 10
      vertex -4.40909 11.4472 10
    endloop
  endfacet
  facet normal 0.766081 0.642744 0
    outer loop
      vertex -4.23413 11.3221 11.99
      vertex -4.29974 11.4003 10
      vertex -4.29974 11.4003 11.99
    endloop
  endfacet
  facet normal 0.766081 0.642744 0
    outer loop
      vertex -4.29974 11.4003 10
      vertex -4.23413 11.3221 11.99
      vertex -4.23413 11.3221 10
    endloop
  endfacet
  facet normal 0.980615 0.195944 0
    outer loop
      vertex -4.21227 11.2127 11.99
      vertex -4.23413 11.3221 10
      vertex -4.23413 11.3221 11.99
    endloop
  endfacet
  facet normal 0.980615 0.195944 0
    outer loop
      vertex -4.23413 11.3221 10
      vertex -4.21227 11.2127 11.99
      vertex -4.21227 11.2127 10
    endloop
  endfacet
  facet normal 0.982379 -0.1869 0
    outer loop
      vertex -4.23413 11.0978 11.99
      vertex -4.21227 11.2127 10
      vertex -4.21227 11.2127 11.99
    endloop
  endfacet
  facet normal 0.982379 -0.1869 0
    outer loop
      vertex -4.21227 11.2127 10
      vertex -4.23413 11.0978 11.99
      vertex -4.23413 11.0978 10
    endloop
  endfacet
  facet normal 0.780822 -0.624753 0
    outer loop
      vertex -4.29974 11.0158 11.99
      vertex -4.23413 11.0978 10
      vertex -4.23413 11.0978 11.99
    endloop
  endfacet
  facet normal 0.780822 -0.624753 0
    outer loop
      vertex -4.23413 11.0978 10
      vertex -4.29974 11.0158 11.99
      vertex -4.29974 11.0158 10
    endloop
  endfacet
  facet normal 0.410313 -0.911945 0
    outer loop
      vertex -4.40909 10.9666 10
      vertex -4.29974 11.0158 11.99
      vertex -4.40909 10.9666 11.99
    endloop
  endfacet
  facet normal 0.410313 -0.911945 0
    outer loop
      vertex -4.29974 11.0158 11.99
      vertex -4.40909 10.9666 10
      vertex -4.29974 11.0158 10
    endloop
  endfacet
  facet normal 0.107159 -0.994242 0
    outer loop
      vertex -4.56218 10.9501 10
      vertex -4.40909 10.9666 11.99
      vertex -4.56218 10.9501 11.99
    endloop
  endfacet
  facet normal 0.107159 -0.994242 0
    outer loop
      vertex -4.40909 10.9666 11.99
      vertex -4.56218 10.9501 10
      vertex -4.40909 10.9666 10
    endloop
  endfacet
  facet normal 0 -1 0
    outer loop
      vertex -5.48711 10.9501 10
      vertex -4.56218 10.9501 11.99
      vertex -5.48711 10.9501 11.99
    endloop
  endfacet
  facet normal 0 -1 -0
    outer loop
      vertex -4.56218 10.9501 11.99
      vertex -5.48711 10.9501 10
      vertex -4.56218 10.9501 10
    endloop
  endfacet
  facet normal 1 -0 0
    outer loop
      vertex -5.48711 7.68765 11.99
      vertex -5.48711 10.9501 10
      vertex -5.48711 10.9501 11.99
    endloop
  endfacet
  facet normal 1 0 0
    outer loop
      vertex -5.48711 10.9501 10
      vertex -5.48711 7.68765 11.99
      vertex -5.48711 7.68765 10
    endloop
  endfacet
  facet normal 0.679636 0.73355 -0
    outer loop
      vertex -4.95512 7.19476 10
      vertex -5.48711 7.68765 11.99
      vertex -4.95512 7.19476 11.99
    endloop
  endfacet
  facet normal 0.679636 0.73355 0
    outer loop
      vertex -5.48711 7.68765 11.99
      vertex -4.95512 7.19476 10
      vertex -5.48711 7.68765 10
    endloop
  endfacet
  facet normal 0.533241 0.845964 -0
    outer loop
      vertex -4.39656 6.84268 10
      vertex -4.95512 7.19476 11.99
      vertex -4.39656 6.84268 11.99
    endloop
  endfacet
  facet normal 0.533241 0.845964 0
    outer loop
      vertex -4.95512 7.19476 11.99
      vertex -4.39656 6.84268 10
      vertex -4.95512 7.19476 10
    endloop
  endfacet
  facet normal 0.339574 0.940579 -0
    outer loop
      vertex -3.81145 6.63144 10
      vertex -4.39656 6.84268 11.99
      vertex -3.81145 6.63144 11.99
    endloop
  endfacet
  facet normal 0.339574 0.940579 0
    outer loop
      vertex -4.39656 6.84268 11.99
      vertex -3.81145 6.63144 10
      vertex -4.39656 6.84268 10
    endloop
  endfacet
  facet normal 0.114338 0.993442 -0
    outer loop
      vertex -3.19977 6.56104 10
      vertex -3.81145 6.63144 11.99
      vertex -3.19977 6.56104 11.99
    endloop
  endfacet
  facet normal 0.114338 0.993442 0
    outer loop
      vertex -3.81145 6.63144 11.99
      vertex -3.19977 6.56104 10
      vertex -3.81145 6.63144 10
    endloop
  endfacet
  facet normal -0.0884917 0.996077 0
    outer loop
      vertex -2.97127 6.58134 10
      vertex -3.19977 6.56104 11.99
      vertex -2.97127 6.58134 11.99
    endloop
  endfacet
  facet normal -0.0884917 0.996077 0
    outer loop
      vertex -3.19977 6.56104 11.99
      vertex -2.97127 6.58134 10
      vertex -3.19977 6.56104 10
    endloop
  endfacet
  facet normal -0.27813 0.960543 0
    outer loop
      vertex -2.76074 6.6423 10
      vertex -2.97127 6.58134 11.99
      vertex -2.76074 6.6423 11.99
    endloop
  endfacet
  facet normal -0.27813 0.960543 0
    outer loop
      vertex -2.97127 6.58134 11.99
      vertex -2.76074 6.6423 10
      vertex -2.97127 6.58134 10
    endloop
  endfacet
  facet normal -0.466617 0.88446 0
    outer loop
      vertex -2.56816 6.7439 10
      vertex -2.76074 6.6423 11.99
      vertex -2.56816 6.7439 11.99
    endloop
  endfacet
  facet normal -0.466617 0.88446 0
    outer loop
      vertex -2.76074 6.6423 11.99
      vertex -2.56816 6.7439 10
      vertex -2.76074 6.6423 10
    endloop
  endfacet
  facet normal -0.631478 0.775394 0
    outer loop
      vertex -2.39354 6.88611 10
      vertex -2.56816 6.7439 11.99
      vertex -2.39354 6.88611 11.99
    endloop
  endfacet
  facet normal -0.631478 0.775394 0
    outer loop
      vertex -2.56816 6.7439 11.99
      vertex -2.39354 6.88611 10
      vertex -2.56816 6.7439 10
    endloop
  endfacet
  facet normal -0.764711 0.644374 0
    outer loop
      vertex -2.39354 6.88611 10
      vertex -2.24864 7.05807 11.99
      vertex -2.24864 7.05807 10
    endloop
  endfacet
  facet normal -0.764711 0.644374 0
    outer loop
      vertex -2.24864 7.05807 11.99
      vertex -2.39354 6.88611 10
      vertex -2.39354 6.88611 11.99
    endloop
  endfacet
  facet normal -0.878887 0.47703 0
    outer loop
      vertex -2.24864 7.05807 10
      vertex -2.14514 7.24876 11.99
      vertex -2.14514 7.24876 10
    endloop
  endfacet
  facet normal -0.878887 0.47703 0
    outer loop
      vertex -2.14514 7.24876 11.99
      vertex -2.24864 7.05807 10
      vertex -2.24864 7.05807 11.99
    endloop
  endfacet
  facet normal -0.958747 0.28426 0
    outer loop
      vertex -2.14514 7.24876 10
      vertex -2.08304 7.45821 11.99
      vertex -2.08304 7.45821 10
    endloop
  endfacet
  facet normal -0.958747 0.28426 0
    outer loop
      vertex -2.08304 7.45821 11.99
      vertex -2.14514 7.24876 10
      vertex -2.14514 7.24876 11.99
    endloop
  endfacet
  facet normal -0.995914 0.0903036 0
    outer loop
      vertex -2.08304 7.45821 10
      vertex -2.06235 7.68639 11.99
      vertex -2.06235 7.68639 10
    endloop
  endfacet
  facet normal -0.995914 0.0903036 0
    outer loop
      vertex -2.06235 7.68639 11.99
      vertex -2.08304 7.45821 10
      vertex -2.08304 7.45821 11.99
    endloop
  endfacet
  facet normal -1 0 0
    outer loop
      vertex -2.06235 7.68639 10
      vertex -2.06235 11.4628 11.99
      vertex -2.06235 11.4628 10
    endloop
  endfacet
  facet normal -1 -0 0
    outer loop
      vertex -2.06235 11.4628 11.99
      vertex -2.06235 7.68639 10
      vertex -2.06235 7.68639 11.99
    endloop
  endfacet
  facet normal 0 1 -0
    outer loop
      vertex -0.874969 11.4628 10
      vertex -2.06235 11.4628 11.99
      vertex -0.874969 11.4628 11.99
    endloop
  endfacet
  facet normal 0 1 0
    outer loop
      vertex -2.06235 11.4628 11.99
      vertex -0.874969 11.4628 10
      vertex -2.06235 11.4628 10
    endloop
  endfacet
  facet normal 0.105064 0.994465 -0
    outer loop
      vertex -0.72731 11.4472 10
      vertex -0.874969 11.4628 11.99
      vertex -0.72731 11.4472 11.99
    endloop
  endfacet
  facet normal 0.105064 0.994465 0
    outer loop
      vertex -0.874969 11.4628 11.99
      vertex -0.72731 11.4472 10
      vertex -0.874969 11.4628 10
    endloop
  endfacet
  facet normal 0.406319 0.913732 -0
    outer loop
      vertex -0.621841 11.4003 10
      vertex -0.72731 11.4472 11.99
      vertex -0.621841 11.4003 11.99
    endloop
  endfacet
  facet normal 0.406319 0.913732 0
    outer loop
      vertex -0.72731 11.4472 11.99
      vertex -0.621841 11.4003 10
      vertex -0.72731 11.4472 10
    endloop
  endfacet
  facet normal 0.777375 0.629038 0
    outer loop
      vertex -0.558563 11.3221 11.99
      vertex -0.621841 11.4003 10
      vertex -0.621841 11.4003 11.99
    endloop
  endfacet
  facet normal 0.777375 0.629038 0
    outer loop
      vertex -0.621841 11.4003 10
      vertex -0.558563 11.3221 11.99
      vertex -0.558563 11.3221 10
    endloop
  endfacet
  facet normal 0.981926 0.189267 0
    outer loop
      vertex -0.537476 11.2127 11.99
      vertex -0.558563 11.3221 10
      vertex -0.558563 11.3221 11.99
    endloop
  endfacet
  facet normal 0.981926 0.189267 0
    outer loop
      vertex -0.558563 11.3221 10
      vertex -0.537476 11.2127 11.99
      vertex -0.537476 11.2127 10
    endloop
  endfacet
  facet normal 0.983573 -0.18051 0
    outer loop
      vertex -0.558563 11.0978 11.99
      vertex -0.537476 11.2127 10
      vertex -0.537476 11.2127 11.99
    endloop
  endfacet
  facet normal 0.983573 -0.18051 0
    outer loop
      vertex -0.537476 11.2127 10
      vertex -0.558563 11.0978 11.99
      vertex -0.558563 11.0978 10
    endloop
  endfacet
  facet normal 0.791685 -0.61093 0
    outer loop
      vertex -0.621841 11.0158 11.99
      vertex -0.558563 11.0978 10
      vertex -0.558563 11.0978 11.99
    endloop
  endfacet
  facet normal 0.791685 -0.61093 0
    outer loop
      vertex -0.558563 11.0978 10
      vertex -0.621841 11.0158 11.99
      vertex -0.621841 11.0158 10
    endloop
  endfacet
  facet normal 0.422752 -0.906245 0
    outer loop
      vertex -0.72731 10.9666 10
      vertex -0.621841 11.0158 11.99
      vertex -0.72731 10.9666 11.99
    endloop
  endfacet
  facet normal 0.422752 -0.906245 0
    outer loop
      vertex -0.621841 11.0158 11.99
      vertex -0.72731 10.9666 10
      vertex -0.621841 11.0158 10
    endloop
  endfacet
  facet normal 0.111053 -0.993815 0
    outer loop
      vertex -0.874969 10.9501 10
      vertex -0.72731 10.9666 11.99
      vertex -0.874969 10.9501 11.99
    endloop
  endfacet
  facet normal 0.111053 -0.993815 0
    outer loop
      vertex -0.72731 10.9666 11.99
      vertex -0.874969 10.9501 10
      vertex -0.72731 10.9666 10
    endloop
  endfacet
  facet normal 0 -1 0
    outer loop
      vertex -1.54988 10.9501 10
      vertex -0.874969 10.9501 11.99
      vertex -1.54988 10.9501 11.99
    endloop
  endfacet
  facet normal 0 -1 -0
    outer loop
      vertex -0.874969 10.9501 11.99
      vertex -1.54988 10.9501 10
      vertex -0.874969 10.9501 10
    endloop
  endfacet
  facet normal 1 -0 0
    outer loop
      vertex -1.54988 7.68648 11.99
      vertex -1.54988 10.9501 10
      vertex -1.54988 10.9501 11.99
    endloop
  endfacet
  facet normal 1 0 0
    outer loop
      vertex -1.54988 10.9501 10
      vertex -1.54988 7.68648 11.99
      vertex -1.54988 7.68648 10
    endloop
  endfacet
  facet normal 0.996713 -0.0810119 0
    outer loop
      vertex -1.5784 7.33559 11.99
      vertex -1.54988 7.68648 10
      vertex -1.54988 7.68648 11.99
    endloop
  endfacet
  facet normal 0.996713 -0.0810119 0
    outer loop
      vertex -1.54988 7.68648 10
      vertex -1.5784 7.33559 11.99
      vertex -1.5784 7.33559 10
    endloop
  endfacet
  facet normal 0.965038 -0.262111 0
    outer loop
      vertex -1.66394 7.02065 11.99
      vertex -1.5784 7.33559 10
      vertex -1.5784 7.33559 11.99
    endloop
  endfacet
  facet normal 0.965038 -0.262111 0
    outer loop
      vertex -1.5784 7.33559 10
      vertex -1.66394 7.02065 11.99
      vertex -1.66394 7.02065 10
    endloop
  endfacet
  facet normal 0.890493 -0.454997 0
    outer loop
      vertex -1.8065 6.74164 11.99
      vertex -1.66394 7.02065 10
      vertex -1.66394 7.02065 11.99
    endloop
  endfacet
  facet normal 0.890493 -0.454997 0
    outer loop
      vertex -1.66394 7.02065 10
      vertex -1.8065 6.74164 11.99
      vertex -1.8065 6.74164 10
    endloop
  endfacet
  facet normal 0.772843 -0.634598 0
    outer loop
      vertex -2.00609 6.49857 11.99
      vertex -1.8065 6.74164 10
      vertex -1.8065 6.74164 11.99
    endloop
  endfacet
  facet normal 0.772843 -0.634598 0
    outer loop
      vertex -1.8065 6.74164 10
      vertex -2.00609 6.49857 11.99
      vertex -2.00609 6.49857 10
    endloop
  endfacet
  facet normal 0.624258 -0.781218 0
    outer loop
      vertex -2.25256 6.30162 10
      vertex -2.00609 6.49857 11.99
      vertex -2.25256 6.30162 11.99
    endloop
  endfacet
  facet normal 0.624258 -0.781218 0
    outer loop
      vertex -2.00609 6.49857 11.99
      vertex -2.25256 6.30162 10
      vertex -2.00609 6.49857 10
    endloop
  endfacet
  facet normal 0.444884 -0.895588 0
    outer loop
      vertex -2.53574 6.16095 10
      vertex -2.25256 6.30162 11.99
      vertex -2.53574 6.16095 11.99
    endloop
  endfacet
  facet normal 0.444884 -0.895588 0
    outer loop
      vertex -2.25256 6.30162 11.99
      vertex -2.53574 6.16095 10
      vertex -2.25256 6.30162 10
    endloop
  endfacet
  facet normal 0.255124 -0.966908 0
    outer loop
      vertex -2.85565 6.07654 10
      vertex -2.53574 6.16095 11.99
      vertex -2.85565 6.07654 11.99
    endloop
  endfacet
  facet normal 0.255124 -0.966908 0
    outer loop
      vertex -2.53574 6.16095 11.99
      vertex -2.85565 6.07654 10
      vertex -2.53574 6.16095 10
    endloop
  endfacet
  facet normal 0.078663 -0.996901 0
    outer loop
      vertex -3.21227 6.0484 10
      vertex -2.85565 6.07654 11.99
      vertex -3.21227 6.0484 11.99
    endloop
  endfacet
  facet normal 0.078663 -0.996901 0
    outer loop
      vertex -2.85565 6.07654 11.99
      vertex -3.21227 6.0484 10
      vertex -2.85565 6.07654 10
    endloop
  endfacet
  facet normal -0.106096 -0.994356 0
    outer loop
      vertex -3.81378 6.11258 10
      vertex -3.21227 6.0484 11.99
      vertex -3.81378 6.11258 11.99
    endloop
  endfacet
  facet normal -0.106096 -0.994356 -0
    outer loop
      vertex -3.21227 6.0484 11.99
      vertex -3.81378 6.11258 10
      vertex -3.21227 6.0484 10
    endloop
  endfacet
endsolid OpenSCAD_Model
