solid OpenSCAD_Model
  facet normal -0 0 1
    outer loop
      vertex -6.66206 12.7761 10
      vertex -6.23708 8.5619 10
      vertex -6.23708 12.7761 10
    endloop
  endfacet
  facet normal 0 0 1
    outer loop
      vertex -6.80972 12.7925 10
      vertex -6.23708 8.5619 10
      vertex -6.66206 12.7761 10
    endloop
  endfacet
  facet normal 0 0 1
    outer loop
      vertex -6.91519 12.8417 10
      vertex -6.23708 8.5619 10
      vertex -6.80972 12.7925 10
    endloop
  endfacet
  facet normal 0 0 1
    outer loop
      vertex -6.97847 12.9238 10
      vertex -6.23708 8.5619 10
      vertex -6.91519 12.8417 10
    endloop
  endfacet
  facet normal 0 0 1
    outer loop
      vertex -6.23708 8.5619 10
      vertex -6.97847 12.9238 10
      vertex -7.5 3.5 10
    endloop
  endfacet
  facet normal 0 0 1
    outer loop
      vertex -7.5 14.5 10
      vertex -6.97847 12.9238 10
      vertex -6.99956 13.0386 10
    endloop
  endfacet
  facet normal 0 0 1
    outer loop
      vertex -6.97847 12.9238 10
      vertex -7.5 14.5 10
      vertex -7.5 3.5 10
    endloop
  endfacet
  facet normal 0 0 1
    outer loop
      vertex -6.23708 8.5619 10
      vertex -7.5 3.5 10
      vertex -6.51 3.5 10
    endloop
  endfacet
  facet normal 0 0 1
    outer loop
      vertex -0.521042 12.9238 10
      vertex 0 14.5 10
      vertex -0.499939 13.0386 10
    endloop
  endfacet
  facet normal 0 0 1
    outer loop
      vertex 0 14.5 10
      vertex -0.521042 13.148 10
      vertex -0.499939 13.0386 10
    endloop
  endfacet
  facet normal 0 0 1
    outer loop
      vertex 0 14.5 10
      vertex -0.58432 13.2262 10
      vertex -0.521042 13.148 10
    endloop
  endfacet
  facet normal 0 0 1
    outer loop
      vertex 0 14.5 10
      vertex -0.689789 13.2731 10
      vertex -0.58432 13.2262 10
    endloop
  endfacet
  facet normal 0 0 1
    outer loop
      vertex 0 14.5 10
      vertex -0.837448 13.2887 10
      vertex -0.689789 13.2731 10
    endloop
  endfacet
  facet normal 0 0 1
    outer loop
      vertex 0 14.5 10
      vertex -2.69981 13.2887 10
      vertex -0.837448 13.2887 10
    endloop
  endfacet
  facet normal 0 0 1
    outer loop
      vertex 0 14.5 10
      vertex -2.84747 13.2731 10
      vertex -2.69981 13.2887 10
    endloop
  endfacet
  facet normal 0 0 1
    outer loop
      vertex -1.81042 8.15385 10
      vertex -3.74976 6.56104 10
      vertex -3.34782 6.59698 10
    endloop
  endfacet
  facet normal 0 0 1
    outer loop
      vertex -3.01622 12.9238 10
      vertex -5.72462 8.56183 10
      vertex -3.74976 6.56104 10
    endloop
  endfacet
  facet normal 0 0 1
    outer loop
      vertex -4.48329 12.9238 10
      vertex -3.03731 13.0386 10
      vertex -4.46219 13.0386 10
    endloop
  endfacet
  facet normal 0 0 1
    outer loop
      vertex -3.01622 13.148 10
      vertex -4.46219 13.0386 10
      vertex -3.03731 13.0386 10
    endloop
  endfacet
  facet normal 0 0 1
    outer loop
      vertex -4.48329 13.148 10
      vertex -3.01622 13.148 10
      vertex -2.95294 13.2262 10
    endloop
  endfacet
  facet normal 0 0 1
    outer loop
      vertex -4.54657 13.2262 10
      vertex -2.95294 13.2262 10
      vertex -2.84747 13.2731 10
    endloop
  endfacet
  facet normal 0 0 1
    outer loop
      vertex -4.65204 13.2731 10
      vertex -2.84747 13.2731 10
      vertex 0 14.5 10
    endloop
  endfacet
  facet normal 0 0 1
    outer loop
      vertex -3.01622 13.148 10
      vertex -4.48329 13.148 10
      vertex -4.46219 13.0386 10
    endloop
  endfacet
  facet normal 0 0 1
    outer loop
      vertex -2.95294 13.2262 10
      vertex -4.54657 13.2262 10
      vertex -4.48329 13.148 10
    endloop
  endfacet
  facet normal 0 0 1
    outer loop
      vertex -2.84747 13.2731 10
      vertex -4.65204 13.2731 10
      vertex -4.54657 13.2262 10
    endloop
  endfacet
  facet normal -0 0 1
    outer loop
      vertex -7.5 14.5 10
      vertex -4.65204 13.2731 10
      vertex 0 14.5 10
    endloop
  endfacet
  facet normal 0 0 1
    outer loop
      vertex -4.65204 13.2731 10
      vertex -7.5 14.5 10
      vertex -4.7997 13.2887 10
    endloop
  endfacet
  facet normal 0 0 1
    outer loop
      vertex -4.7997 13.2887 10
      vertex -7.5 14.5 10
      vertex -6.66206 13.2887 10
    endloop
  endfacet
  facet normal 0 0 1
    outer loop
      vertex -6.97847 13.148 10
      vertex -7.5 14.5 10
      vertex -6.99956 13.0386 10
    endloop
  endfacet
  facet normal 0 0 1
    outer loop
      vertex -6.91519 13.2262 10
      vertex -7.5 14.5 10
      vertex -6.97847 13.148 10
    endloop
  endfacet
  facet normal 0 0 1
    outer loop
      vertex -6.80972 13.2731 10
      vertex -7.5 14.5 10
      vertex -6.91519 13.2262 10
    endloop
  endfacet
  facet normal 0 0 1
    outer loop
      vertex -6.66206 13.2887 10
      vertex -7.5 14.5 10
      vertex -6.80972 13.2731 10
    endloop
  endfacet
  facet normal 0 0 1
    outer loop
      vertex 0 14.5 10
      vertex -0.521042 12.9238 10
      vertex 0 2.5 10
    endloop
  endfacet
  facet normal 0 0 1
    outer loop
      vertex -1.26242 8.5619 10
      vertex -0.521042 12.9238 10
      vertex -0.58432 12.8417 10
    endloop
  endfacet
  facet normal 0 0 1
    outer loop
      vertex -1.26242 8.5619 10
      vertex -0.58432 12.8417 10
      vertex -0.689789 12.7925 10
    endloop
  endfacet
  facet normal 0 0 1
    outer loop
      vertex -1.26242 8.5619 10
      vertex -0.689789 12.7925 10
      vertex -0.837448 12.7761 10
    endloop
  endfacet
  facet normal 0 0 1
    outer loop
      vertex -1.26242 8.5619 10
      vertex -0.837448 12.7761 10
      vertex -1.26242 12.7761 10
    endloop
  endfacet
  facet normal 0 0 1
    outer loop
      vertex -0.521042 12.9238 10
      vertex -1.26242 8.5619 10
      vertex 0 2.5 10
    endloop
  endfacet
  facet normal -0 0 1
    outer loop
      vertex -1.30695 8.04648 10
      vertex 0 2.5 10
      vertex -1.26242 8.5619 10
    endloop
  endfacet
  facet normal -0 0 1
    outer loop
      vertex -1.44054 7.57558 10
      vertex 0 2.5 10
      vertex -1.30695 8.04648 10
    endloop
  endfacet
  facet normal -0 0 1
    outer loop
      vertex -1.66318 7.14922 10
      vertex 0 2.5 10
      vertex -1.44054 7.57558 10
    endloop
  endfacet
  facet normal -0 0 1
    outer loop
      vertex -1.97487 6.7674 10
      vertex 0 2.5 10
      vertex -1.66318 7.14922 10
    endloop
  endfacet
  facet normal -0 0 1
    outer loop
      vertex -2.35295 6.45284 10
      vertex 0 2.5 10
      vertex -1.97487 6.7674 10
    endloop
  endfacet
  facet normal -0 0 1
    outer loop
      vertex -2.77481 6.22816 10
      vertex 0 2.5 10
      vertex -2.35295 6.45284 10
    endloop
  endfacet
  facet normal -0 0 1
    outer loop
      vertex -3.2404 6.09335 10
      vertex 0 2.5 10
      vertex -2.77481 6.22816 10
    endloop
  endfacet
  facet normal -0 0 1
    outer loop
      vertex -3.74976 6.0484 10
      vertex 0 2.5 10
      vertex -3.2404 6.09335 10
    endloop
  endfacet
  facet normal 0 0 1
    outer loop
      vertex -6.51 3.5 10
      vertex -3.74976 6.0484 10
      vertex -4.25401 6.09373 10
    endloop
  endfacet
  facet normal 0 0 1
    outer loop
      vertex -6.51 3.5 10
      vertex -4.25401 6.09373 10
      vertex -4.71687 6.22974 10
    endloop
  endfacet
  facet normal 0 0 1
    outer loop
      vertex -6.51 3.5 10
      vertex -4.71687 6.22974 10
      vertex -5.13831 6.45638 10
    endloop
  endfacet
  facet normal 0 0 1
    outer loop
      vertex -6.51 3.5 10
      vertex -6.19215 8.05156 10
      vertex -6.23708 8.5619 10
    endloop
  endfacet
  facet normal 0 0 1
    outer loop
      vertex -6.51 3.5 10
      vertex -6.0574 7.5834 10
      vertex -6.19215 8.05156 10
    endloop
  endfacet
  facet normal 0 0 1
    outer loop
      vertex -6.51 3.5 10
      vertex -5.83279 7.15746 10
      vertex -6.0574 7.5834 10
    endloop
  endfacet
  facet normal 0 0 1
    outer loop
      vertex -6.51 3.5 10
      vertex -5.51834 6.7737 10
      vertex -5.83279 7.15746 10
    endloop
  endfacet
  facet normal 0 0 1
    outer loop
      vertex -6.51 3.5 10
      vertex -5.13831 6.45638 10
      vertex -5.51834 6.7737 10
    endloop
  endfacet
  facet normal 0 0 1
    outer loop
      vertex -3.74976 6.0484 10
      vertex -6.51 3.5 10
      vertex -6.51 2.5 10
    endloop
  endfacet
  facet normal 0 0 1
    outer loop
      vertex -3.74976 6.0484 10
      vertex -6.51 2.5 10
      vertex 0 2.5 10
    endloop
  endfacet
  facet normal -0 0 1
    outer loop
      vertex -2.69981 12.7761 10
      vertex -1.77489 8.56183 10
      vertex -1.77489 12.7761 10
    endloop
  endfacet
  facet normal 0 0 1
    outer loop
      vertex -2.84747 12.7925 10
      vertex -1.77489 8.56183 10
      vertex -2.69981 12.7761 10
    endloop
  endfacet
  facet normal 0 0 1
    outer loop
      vertex -2.95294 12.8417 10
      vertex -1.77489 8.56183 10
      vertex -2.84747 12.7925 10
    endloop
  endfacet
  facet normal 0 0 1
    outer loop
      vertex -3.74976 6.56104 10
      vertex -1.77489 8.56183 10
      vertex -2.95294 12.8417 10
    endloop
  endfacet
  facet normal 0 0 1
    outer loop
      vertex -3.74976 6.56104 10
      vertex -1.81042 8.15385 10
      vertex -1.77489 8.56183 10
    endloop
  endfacet
  facet normal 0 0 1
    outer loop
      vertex -1.81042 8.15385 10
      vertex -3.34782 6.59698 10
      vertex -1.91705 7.78026 10
    endloop
  endfacet
  facet normal 0 0 1
    outer loop
      vertex -1.91705 7.78026 10
      vertex -3.34782 6.59698 10
      vertex -2.09479 7.44106 10
    endloop
  endfacet
  facet normal 0 0 1
    outer loop
      vertex -2.09479 7.44106 10
      vertex -3.34782 6.59698 10
      vertex -2.3436 7.13622 10
    endloop
  endfacet
  facet normal 0 0 1
    outer loop
      vertex -2.3436 7.13622 10
      vertex -3.34782 6.59698 10
      vertex -2.64474 6.88458 10
    endloop
  endfacet
  facet normal 0 0 1
    outer loop
      vertex -3.74976 6.56104 10
      vertex -2.95294 12.8417 10
      vertex -3.01622 12.9238 10
    endloop
  endfacet
  facet normal 0 0 1
    outer loop
      vertex -4.48329 12.9238 10
      vertex -3.01622 12.9238 10
      vertex -3.03731 13.0386 10
    endloop
  endfacet
  facet normal 0 0 1
    outer loop
      vertex -2.64474 6.88458 10
      vertex -3.34782 6.59698 10
      vertex -2.97949 6.70483 10
    endloop
  endfacet
  facet normal 0 0 1
    outer loop
      vertex -3.01622 12.9238 10
      vertex -4.48329 12.9238 10
      vertex -4.54657 12.8417 10
    endloop
  endfacet
  facet normal 0 0 1
    outer loop
      vertex -3.01622 12.9238 10
      vertex -4.54657 12.8417 10
      vertex -4.65204 12.7925 10
    endloop
  endfacet
  facet normal -0 -0 1
    outer loop
      vertex -5.14961 7.14252 10
      vertex -3.74976 6.56104 10
      vertex -5.72462 8.56183 10
    endloop
  endfacet
  facet normal 0 0 1
    outer loop
      vertex -3.01622 12.9238 10
      vertex -4.65204 12.7925 10
      vertex -5.72462 8.56183 10
    endloop
  endfacet
  facet normal 0 0 1
    outer loop
      vertex -5.72462 8.56183 10
      vertex -4.65204 12.7925 10
      vertex -4.7997 12.7761 10
    endloop
  endfacet
  facet normal 0 0 1
    outer loop
      vertex -3.74976 6.56104 10
      vertex -5.14961 7.14252 10
      vertex -4.14659 6.59738 10
    endloop
  endfacet
  facet normal 0 0 1
    outer loop
      vertex -4.14659 6.59738 10
      vertex -4.84653 6.88812 10
      vertex -4.51219 6.70641 10
    endloop
  endfacet
  facet normal 0 0 1
    outer loop
      vertex -4.14659 6.59738 10
      vertex -5.14961 7.14252 10
      vertex -4.84653 6.88812 10
    endloop
  endfacet
  facet normal 0 0 1
    outer loop
      vertex -5.14961 7.14252 10
      vertex -5.72462 8.56183 10
      vertex -5.40118 7.44928 10
    endloop
  endfacet
  facet normal -0 -0 1
    outer loop
      vertex -5.68869 8.15894 10
      vertex -5.40118 7.44928 10
      vertex -5.72462 8.56183 10
    endloop
  endfacet
  facet normal 0 0 1
    outer loop
      vertex -5.72462 8.56183 10
      vertex -4.7997 12.7761 10
      vertex -5.72462 12.7761 10
    endloop
  endfacet
  facet normal 0 0 1
    outer loop
      vertex -5.40118 7.44928 10
      vertex -5.68869 8.15894 10
      vertex -5.58087 7.78809 10
    endloop
  endfacet
  facet normal -1 0 0
    outer loop
      vertex -7.5 0 3
      vertex -7.5 17 3
      vertex -7.5 17 0
    endloop
  endfacet
  facet normal -1 0 0
    outer loop
      vertex -7.5 17 3
      vertex -7.5 3.5 9.01
      vertex -7.5 14.5 10
    endloop
  endfacet
  facet normal -1 0 0
    outer loop
      vertex -7.5 17 3
      vertex -7.5 0 3
      vertex -7.5 3.5 9.01
    endloop
  endfacet
  facet normal -1 0 0
    outer loop
      vertex -7.5 0 3
      vertex -7.5 17 0
      vertex -7.5 0 0
    endloop
  endfacet
  facet normal -1 -0 0
    outer loop
      vertex -7.5 3.5 9.01
      vertex -7.5 0 3
      vertex -7.5 2.14643 9.01
    endloop
  endfacet
  facet normal -1 -0 0
    outer loop
      vertex -7.5 14.5 10
      vertex -7.5 3.5 9.01
      vertex -7.5 3.5 10
    endloop
  endfacet
  facet normal 0 1 -0
    outer loop
      vertex 0 17 0
      vertex -7.5 17 3
      vertex 0 17 3
    endloop
  endfacet
  facet normal 0 1 0
    outer loop
      vertex -7.5 17 3
      vertex 0 17 0
      vertex -7.5 17 0
    endloop
  endfacet
  facet normal 0 0 -1
    outer loop
      vertex -7.5 0 0
      vertex 0 17 0
      vertex 0 0 0
    endloop
  endfacet
  facet normal -0 0 -1
    outer loop
      vertex 0 17 0
      vertex -7.5 0 0
      vertex -7.5 17 0
    endloop
  endfacet
  facet normal 1 0 0
    outer loop
      vertex 0 0 3
      vertex 0 17 3
      vertex 0 14.5 10
    endloop
  endfacet
  facet normal 1 0 0
    outer loop
      vertex 0 0 3
      vertex 0 14.5 10
      vertex 0 2.5 10
    endloop
  endfacet
  facet normal 1 0 0
    outer loop
      vertex 0 17 3
      vertex 0 0 3
      vertex 0 17 0
    endloop
  endfacet
  facet normal 1 0 0
    outer loop
      vertex 0 17 0
      vertex 0 0 3
      vertex 0 0 0
    endloop
  endfacet
  facet normal 0 -0.941742 0.336337
    outer loop
      vertex -7.5 2.14643 9.01
      vertex -7.5 0 3
      vertex -6.51 2.14643 9.01
    endloop
  endfacet
  facet normal 0 -0.941742 0.336335
    outer loop
      vertex -6.51 2.14643 9.01
      vertex 0 2.5 10
      vertex -6.51 2.5 10
    endloop
  endfacet
  facet normal 0 -0.941742 0.336337
    outer loop
      vertex 0 0 3
      vertex -6.51 2.14643 9.01
      vertex -7.5 0 3
    endloop
  endfacet
  facet normal -2.06658e-07 -0.941742 0.336336
    outer loop
      vertex -6.51 2.14643 9.01
      vertex 0 0 3
      vertex 0 2.5 10
    endloop
  endfacet
  facet normal 0 -1 0
    outer loop
      vertex -7.5 0 0
      vertex 0 0 3
      vertex -7.5 0 3
    endloop
  endfacet
  facet normal 0 -1 -0
    outer loop
      vertex 0 0 3
      vertex -7.5 0 0
      vertex 0 0 0
    endloop
  endfacet
  facet normal 0 0.941742 0.336336
    outer loop
      vertex 0 17 3
      vertex -7.5 14.5 10
      vertex 0 14.5 10
    endloop
  endfacet
  facet normal 0 0.941742 0.336336
    outer loop
      vertex -7.5 14.5 10
      vertex 0 17 3
      vertex -7.5 17 3
    endloop
  endfacet
  facet normal -0 0 1
    outer loop
      vertex -7.5 3.5 9.01
      vertex -6.51 2.14643 9.01
      vertex -6.51 3.5 9.01
    endloop
  endfacet
  facet normal 0 0 1
    outer loop
      vertex -6.51 2.14643 9.01
      vertex -7.5 3.5 9.01
      vertex -7.5 2.14643 9.01
    endloop
  endfacet
  facet normal -1 0 0
    outer loop
      vertex -6.51 3.5 9.01
      vertex -6.51 2.5 10
      vertex -6.51 3.5 10
    endloop
  endfacet
  facet normal -1 0 -0
    outer loop
      vertex -6.51 2.5 10
      vertex -6.51 3.5 9.01
      vertex -6.51 2.14643 9.01
    endloop
  endfacet
  facet normal 0 -1 0
    outer loop
      vertex -7.5 3.5 9.01
      vertex -6.51 3.5 10
      vertex -7.5 3.5 10
    endloop
  endfacet
  facet normal 0 -1 -0
    outer loop
      vertex -6.51 3.5 10
      vertex -7.5 3.5 9.01
      vertex -6.51 3.5 9.01
    endloop
  endfacet
  facet normal 0 0 1
    outer loop
      vertex -4.54657 13.2262 11.99
      vertex -4.46219 13.0386 11.99
      vertex -4.48329 13.148 11.99
    endloop
  endfacet
  facet normal 0 0 1
    outer loop
      vertex -4.46219 13.0386 11.99
      vertex -4.54657 13.2262 11.99
      vertex -4.65204 13.2731 11.99
    endloop
  endfacet
  facet normal 0 0 1
    outer loop
      vertex -4.65204 12.7925 11.99
      vertex -4.46219 13.0386 11.99
      vertex -4.65204 13.2731 11.99
    endloop
  endfacet
  facet normal 0 0 1
    outer loop
      vertex -4.46219 13.0386 11.99
      vertex -4.65204 12.7925 11.99
      vertex -4.48329 12.9238 11.99
    endloop
  endfacet
  facet normal 0 0 1
    outer loop
      vertex -4.48329 12.9238 11.99
      vertex -4.65204 12.7925 11.99
      vertex -4.54657 12.8417 11.99
    endloop
  endfacet
  facet normal 0 0 1
    outer loop
      vertex -4.7997 13.2887 11.99
      vertex -4.65204 12.7925 11.99
      vertex -4.65204 13.2731 11.99
    endloop
  endfacet
  facet normal 0 0 1
    outer loop
      vertex -4.7997 13.2887 11.99
      vertex -4.7997 12.7761 11.99
      vertex -4.65204 12.7925 11.99
    endloop
  endfacet
  facet normal 0 0 1
    outer loop
      vertex -4.7997 13.2887 11.99
      vertex -5.72462 12.7761 11.99
      vertex -4.7997 12.7761 11.99
    endloop
  endfacet
  facet normal -0 0 1
    outer loop
      vertex -6.23708 8.5619 11.99
      vertex -5.72462 8.56183 11.99
      vertex -5.72462 12.7761 11.99
    endloop
  endfacet
  facet normal 0 -0 1
    outer loop
      vertex -6.19215 8.05156 11.99
      vertex -5.72462 8.56183 11.99
      vertex -6.23708 8.5619 11.99
    endloop
  endfacet
  facet normal 0 -0 1
    outer loop
      vertex -6.0574 7.5834 11.99
      vertex -5.72462 8.56183 11.99
      vertex -6.19215 8.05156 11.99
    endloop
  endfacet
  facet normal 0 0 1
    outer loop
      vertex -6.23708 8.5619 11.99
      vertex -5.72462 12.7761 11.99
      vertex -6.23708 12.7761 11.99
    endloop
  endfacet
  facet normal -0 0 1
    outer loop
      vertex -6.66206 13.2887 11.99
      vertex -5.72462 12.7761 11.99
      vertex -4.7997 13.2887 11.99
    endloop
  endfacet
  facet normal 0 0 1
    outer loop
      vertex -5.72462 12.7761 11.99
      vertex -6.66206 13.2887 11.99
      vertex -6.23708 12.7761 11.99
    endloop
  endfacet
  facet normal 0 0 1
    outer loop
      vertex -6.66206 13.2887 11.99
      vertex -6.66206 12.7761 11.99
      vertex -6.23708 12.7761 11.99
    endloop
  endfacet
  facet normal -0 0 1
    outer loop
      vertex -6.80972 13.2731 11.99
      vertex -6.66206 12.7761 11.99
      vertex -6.66206 13.2887 11.99
    endloop
  endfacet
  facet normal 0 0 1
    outer loop
      vertex -6.80972 13.2731 11.99
      vertex -6.80972 12.7925 11.99
      vertex -6.66206 12.7761 11.99
    endloop
  endfacet
  facet normal 0 0 1
    outer loop
      vertex -6.99956 13.0386 11.99
      vertex -6.80972 13.2731 11.99
      vertex -6.91519 13.2262 11.99
    endloop
  endfacet
  facet normal 0 0 1
    outer loop
      vertex -6.80972 13.2731 11.99
      vertex -6.99956 13.0386 11.99
      vertex -6.80972 12.7925 11.99
    endloop
  endfacet
  facet normal 0 0 1
    outer loop
      vertex -6.99956 13.0386 11.99
      vertex -6.91519 13.2262 11.99
      vertex -6.97847 13.148 11.99
    endloop
  endfacet
  facet normal 0 0 1
    outer loop
      vertex -6.80972 12.7925 11.99
      vertex -6.99956 13.0386 11.99
      vertex -6.91519 12.8417 11.99
    endloop
  endfacet
  facet normal 0 0 1
    outer loop
      vertex -6.91519 12.8417 11.99
      vertex -6.99956 13.0386 11.99
      vertex -6.97847 12.9238 11.99
    endloop
  endfacet
  facet normal 0 0 1
    outer loop
      vertex -0.58432 13.2262 11.99
      vertex -0.499939 13.0386 11.99
      vertex -0.521042 13.148 11.99
    endloop
  endfacet
  facet normal 0 0 1
    outer loop
      vertex -0.499939 13.0386 11.99
      vertex -0.58432 13.2262 11.99
      vertex -0.689789 13.2731 11.99
    endloop
  endfacet
  facet normal 0 0 1
    outer loop
      vertex -0.689789 12.7925 11.99
      vertex -0.499939 13.0386 11.99
      vertex -0.689789 13.2731 11.99
    endloop
  endfacet
  facet normal 0 0 1
    outer loop
      vertex -0.499939 13.0386 11.99
      vertex -0.689789 12.7925 11.99
      vertex -0.521042 12.9238 11.99
    endloop
  endfacet
  facet normal 0 0 1
    outer loop
      vertex -0.521042 12.9238 11.99
      vertex -0.689789 12.7925 11.99
      vertex -0.58432 12.8417 11.99
    endloop
  endfacet
  facet normal 0 0 1
    outer loop
      vertex -0.837448 13.2887 11.99
      vertex -0.689789 12.7925 11.99
      vertex -0.689789 13.2731 11.99
    endloop
  endfacet
  facet normal 0 0 1
    outer loop
      vertex -0.837448 13.2887 11.99
      vertex -0.837448 12.7761 11.99
      vertex -0.689789 12.7925 11.99
    endloop
  endfacet
  facet normal 0 0 1
    outer loop
      vertex -0.837448 13.2887 11.99
      vertex -1.26242 12.7761 11.99
      vertex -0.837448 12.7761 11.99
    endloop
  endfacet
  facet normal 0 0 1
    outer loop
      vertex -1.77489 8.56183 11.99
      vertex -1.26242 8.5619 11.99
      vertex -1.26242 12.7761 11.99
    endloop
  endfacet
  facet normal 0 0 1
    outer loop
      vertex -1.81042 8.15385 11.99
      vertex -1.26242 8.5619 11.99
      vertex -1.77489 8.56183 11.99
    endloop
  endfacet
  facet normal 0 0 1
    outer loop
      vertex -1.26242 8.5619 11.99
      vertex -1.81042 8.15385 11.99
      vertex -1.30695 8.04648 11.99
    endloop
  endfacet
  facet normal 0 0 1
    outer loop
      vertex -1.77489 8.56183 11.99
      vertex -1.26242 12.7761 11.99
      vertex -1.77489 12.7761 11.99
    endloop
  endfacet
  facet normal 0 0 1
    outer loop
      vertex -0.837448 13.2887 11.99
      vertex -1.77489 12.7761 11.99
      vertex -1.26242 12.7761 11.99
    endloop
  endfacet
  facet normal -0 0 1
    outer loop
      vertex -2.69981 13.2887 11.99
      vertex -1.77489 12.7761 11.99
      vertex -0.837448 13.2887 11.99
    endloop
  endfacet
  facet normal 0 0 1
    outer loop
      vertex -2.69981 13.2887 11.99
      vertex -2.69981 12.7761 11.99
      vertex -1.77489 12.7761 11.99
    endloop
  endfacet
  facet normal -0 0 1
    outer loop
      vertex -2.84747 13.2731 11.99
      vertex -2.69981 12.7761 11.99
      vertex -2.69981 13.2887 11.99
    endloop
  endfacet
  facet normal 0 0 1
    outer loop
      vertex -2.84747 13.2731 11.99
      vertex -2.84747 12.7925 11.99
      vertex -2.69981 12.7761 11.99
    endloop
  endfacet
  facet normal 0 0 1
    outer loop
      vertex -3.03731 13.0386 11.99
      vertex -2.84747 13.2731 11.99
      vertex -2.95294 13.2262 11.99
    endloop
  endfacet
  facet normal 0 0 1
    outer loop
      vertex -2.84747 13.2731 11.99
      vertex -3.03731 13.0386 11.99
      vertex -2.84747 12.7925 11.99
    endloop
  endfacet
  facet normal 0 0 1
    outer loop
      vertex -3.03731 13.0386 11.99
      vertex -2.95294 13.2262 11.99
      vertex -3.01622 13.148 11.99
    endloop
  endfacet
  facet normal 0 0 1
    outer loop
      vertex -2.84747 12.7925 11.99
      vertex -3.03731 13.0386 11.99
      vertex -2.95294 12.8417 11.99
    endloop
  endfacet
  facet normal 0 0 1
    outer loop
      vertex -2.95294 12.8417 11.99
      vertex -3.03731 13.0386 11.99
      vertex -3.01622 12.9238 11.99
    endloop
  endfacet
  facet normal 0 0 1
    outer loop
      vertex -1.91705 7.78026 11.99
      vertex -1.30695 8.04648 11.99
      vertex -1.81042 8.15385 11.99
    endloop
  endfacet
  facet normal 0 0 1
    outer loop
      vertex -1.30695 8.04648 11.99
      vertex -1.91705 7.78026 11.99
      vertex -1.44054 7.57558 11.99
    endloop
  endfacet
  facet normal 0 0 1
    outer loop
      vertex -2.09479 7.44106 11.99
      vertex -1.44054 7.57558 11.99
      vertex -1.91705 7.78026 11.99
    endloop
  endfacet
  facet normal 0 0 1
    outer loop
      vertex -1.44054 7.57558 11.99
      vertex -2.09479 7.44106 11.99
      vertex -1.66318 7.14922 11.99
    endloop
  endfacet
  facet normal 0 0 1
    outer loop
      vertex -2.3436 7.13622 11.99
      vertex -1.66318 7.14922 11.99
      vertex -2.09479 7.44106 11.99
    endloop
  endfacet
  facet normal 0 0 1
    outer loop
      vertex -1.66318 7.14922 11.99
      vertex -2.3436 7.13622 11.99
      vertex -1.97487 6.7674 11.99
    endloop
  endfacet
  facet normal -0 0 1
    outer loop
      vertex -2.64474 6.88458 11.99
      vertex -1.97487 6.7674 11.99
      vertex -2.3436 7.13622 11.99
    endloop
  endfacet
  facet normal 0 0 1
    outer loop
      vertex -1.97487 6.7674 11.99
      vertex -2.64474 6.88458 11.99
      vertex -2.35295 6.45284 11.99
    endloop
  endfacet
  facet normal 0 0 1
    outer loop
      vertex -2.64474 6.88458 11.99
      vertex -2.77481 6.22816 11.99
      vertex -2.35295 6.45284 11.99
    endloop
  endfacet
  facet normal -0 0 1
    outer loop
      vertex -2.97949 6.70483 11.99
      vertex -2.77481 6.22816 11.99
      vertex -2.64474 6.88458 11.99
    endloop
  endfacet
  facet normal 0 0 1
    outer loop
      vertex -2.97949 6.70483 11.99
      vertex -3.2404 6.09335 11.99
      vertex -2.77481 6.22816 11.99
    endloop
  endfacet
  facet normal -0 0 1
    outer loop
      vertex -3.34782 6.59698 11.99
      vertex -3.2404 6.09335 11.99
      vertex -2.97949 6.70483 11.99
    endloop
  endfacet
  facet normal 0 0 1
    outer loop
      vertex -3.74976 6.0484 11.99
      vertex -3.34782 6.59698 11.99
      vertex -3.74976 6.56104 11.99
    endloop
  endfacet
  facet normal 0 0 1
    outer loop
      vertex -3.34782 6.59698 11.99
      vertex -3.74976 6.0484 11.99
      vertex -3.2404 6.09335 11.99
    endloop
  endfacet
  facet normal 0 0 1
    outer loop
      vertex -4.14659 6.59738 11.99
      vertex -3.74976 6.0484 11.99
      vertex -3.74976 6.56104 11.99
    endloop
  endfacet
  facet normal 0 0 1
    outer loop
      vertex -4.14659 6.59738 11.99
      vertex -4.25401 6.09373 11.99
      vertex -3.74976 6.0484 11.99
    endloop
  endfacet
  facet normal 0 0 1
    outer loop
      vertex -4.51219 6.70641 11.99
      vertex -4.25401 6.09373 11.99
      vertex -4.14659 6.59738 11.99
    endloop
  endfacet
  facet normal 0 0 1
    outer loop
      vertex -4.51219 6.70641 11.99
      vertex -4.71687 6.22974 11.99
      vertex -4.25401 6.09373 11.99
    endloop
  endfacet
  facet normal 0 0 1
    outer loop
      vertex -4.84653 6.88812 11.99
      vertex -4.71687 6.22974 11.99
      vertex -4.51219 6.70641 11.99
    endloop
  endfacet
  facet normal 0 0 1
    outer loop
      vertex -4.84653 6.88812 11.99
      vertex -5.13831 6.45638 11.99
      vertex -4.71687 6.22974 11.99
    endloop
  endfacet
  facet normal 0 0 1
    outer loop
      vertex -5.51834 6.7737 11.99
      vertex -4.84653 6.88812 11.99
      vertex -5.14961 7.14252 11.99
    endloop
  endfacet
  facet normal 0 0 1
    outer loop
      vertex -5.51834 6.7737 11.99
      vertex -5.14961 7.14252 11.99
      vertex -5.40118 7.44928 11.99
    endloop
  endfacet
  facet normal 0 0 1
    outer loop
      vertex -4.84653 6.88812 11.99
      vertex -5.51834 6.7737 11.99
      vertex -5.13831 6.45638 11.99
    endloop
  endfacet
  facet normal 0 0 1
    outer loop
      vertex -5.83279 7.15746 11.99
      vertex -5.40118 7.44928 11.99
      vertex -5.58087 7.78809 11.99
    endloop
  endfacet
  facet normal 0 0 1
    outer loop
      vertex -5.83279 7.15746 11.99
      vertex -5.58087 7.78809 11.99
      vertex -5.68869 8.15894 11.99
    endloop
  endfacet
  facet normal 0 0 1
    outer loop
      vertex -5.40118 7.44928 11.99
      vertex -5.83279 7.15746 11.99
      vertex -5.51834 6.7737 11.99
    endloop
  endfacet
  facet normal 0 0 1
    outer loop
      vertex -5.83279 7.15746 11.99
      vertex -5.68869 8.15894 11.99
      vertex -5.72462 8.56183 11.99
    endloop
  endfacet
  facet normal 0 0 1
    outer loop
      vertex -5.72462 8.56183 11.99
      vertex -6.0574 7.5834 11.99
      vertex -5.83279 7.15746 11.99
    endloop
  endfacet
  facet normal -0.281927 -0.959436 0
    outer loop
      vertex -4.71687 6.22974 10
      vertex -4.25401 6.09373 11.99
      vertex -4.71687 6.22974 11.99
    endloop
  endfacet
  facet normal -0.281927 -0.959436 -0
    outer loop
      vertex -4.25401 6.09373 11.99
      vertex -4.71687 6.22974 10
      vertex -4.25401 6.09373 10
    endloop
  endfacet
  facet normal -0.473631 -0.880723 0
    outer loop
      vertex -5.13831 6.45638 10
      vertex -4.71687 6.22974 11.99
      vertex -5.13831 6.45638 11.99
    endloop
  endfacet
  facet normal -0.473631 -0.880723 -0
    outer loop
      vertex -4.71687 6.22974 11.99
      vertex -5.13831 6.45638 10
      vertex -4.71687 6.22974 10
    endloop
  endfacet
  facet normal -0.640933 -0.767597 0
    outer loop
      vertex -5.51834 6.7737 10
      vertex -5.13831 6.45638 11.99
      vertex -5.51834 6.7737 11.99
    endloop
  endfacet
  facet normal -0.640933 -0.767597 -0
    outer loop
      vertex -5.13831 6.45638 11.99
      vertex -5.51834 6.7737 10
      vertex -5.13831 6.45638 10
    endloop
  endfacet
  facet normal -0.773498 -0.633798 0
    outer loop
      vertex -5.51834 6.7737 10
      vertex -5.83279 7.15746 11.99
      vertex -5.83279 7.15746 10
    endloop
  endfacet
  facet normal -0.773498 -0.633798 0
    outer loop
      vertex -5.83279 7.15746 11.99
      vertex -5.51834 6.7737 10
      vertex -5.51834 6.7737 11.99
    endloop
  endfacet
  facet normal -0.884549 -0.466447 0
    outer loop
      vertex -5.83279 7.15746 10
      vertex -6.0574 7.5834 11.99
      vertex -6.0574 7.5834 10
    endloop
  endfacet
  facet normal -0.884549 -0.466447 0
    outer loop
      vertex -6.0574 7.5834 11.99
      vertex -5.83279 7.15746 10
      vertex -5.83279 7.15746 11.99
    endloop
  endfacet
  facet normal -0.960985 -0.276599 0
    outer loop
      vertex -6.0574 7.5834 10
      vertex -6.19215 8.05156 11.99
      vertex -6.19215 8.05156 10
    endloop
  endfacet
  facet normal -0.960985 -0.276599 0
    outer loop
      vertex -6.19215 8.05156 11.99
      vertex -6.0574 7.5834 10
      vertex -6.0574 7.5834 11.99
    endloop
  endfacet
  facet normal -0.996147 -0.0877001 0
    outer loop
      vertex -6.19215 8.05156 10
      vertex -6.23708 8.5619 11.99
      vertex -6.23708 8.5619 10
    endloop
  endfacet
  facet normal -0.996147 -0.0877001 0
    outer loop
      vertex -6.23708 8.5619 11.99
      vertex -6.19215 8.05156 10
      vertex -6.19215 8.05156 11.99
    endloop
  endfacet
  facet normal -1 0 0
    outer loop
      vertex -6.23708 8.5619 10
      vertex -6.23708 12.7761 11.99
      vertex -6.23708 12.7761 10
    endloop
  endfacet
  facet normal -1 -0 0
    outer loop
      vertex -6.23708 12.7761 11.99
      vertex -6.23708 8.5619 10
      vertex -6.23708 8.5619 11.99
    endloop
  endfacet
  facet normal 0 -1 0
    outer loop
      vertex -6.66206 12.7761 10
      vertex -6.23708 12.7761 11.99
      vertex -6.66206 12.7761 11.99
    endloop
  endfacet
  facet normal 0 -1 -0
    outer loop
      vertex -6.23708 12.7761 11.99
      vertex -6.66206 12.7761 10
      vertex -6.23708 12.7761 10
    endloop
  endfacet
  facet normal -0.110387 -0.993889 0
    outer loop
      vertex -6.80972 12.7925 10
      vertex -6.66206 12.7761 11.99
      vertex -6.80972 12.7925 11.99
    endloop
  endfacet
  facet normal -0.110387 -0.993889 -0
    outer loop
      vertex -6.66206 12.7761 11.99
      vertex -6.80972 12.7925 10
      vertex -6.66206 12.7761 10
    endloop
  endfacet
  facet normal -0.422749 -0.906247 0
    outer loop
      vertex -6.91519 12.8417 10
      vertex -6.80972 12.7925 11.99
      vertex -6.91519 12.8417 11.99
    endloop
  endfacet
  facet normal -0.422749 -0.906247 -0
    outer loop
      vertex -6.80972 12.7925 11.99
      vertex -6.91519 12.8417 10
      vertex -6.80972 12.7925 10
    endloop
  endfacet
  facet normal -0.792035 -0.610475 0
    outer loop
      vertex -6.91519 12.8417 10
      vertex -6.97847 12.9238 11.99
      vertex -6.97847 12.9238 10
    endloop
  endfacet
  facet normal -0.792035 -0.610475 0
    outer loop
      vertex -6.97847 12.9238 11.99
      vertex -6.91519 12.8417 10
      vertex -6.91519 12.8417 11.99
    endloop
  endfacet
  facet normal -0.983541 -0.180687 0
    outer loop
      vertex -6.97847 12.9238 10
      vertex -6.99956 13.0386 11.99
      vertex -6.99956 13.0386 10
    endloop
  endfacet
  facet normal -0.983541 -0.180687 0
    outer loop
      vertex -6.99956 13.0386 11.99
      vertex -6.97847 12.9238 10
      vertex -6.97847 12.9238 11.99
    endloop
  endfacet
  facet normal -0.981921 0.189293 0
    outer loop
      vertex -6.99956 13.0386 10
      vertex -6.97847 13.148 11.99
      vertex -6.97847 13.148 10
    endloop
  endfacet
  facet normal -0.981921 0.189293 0
    outer loop
      vertex -6.97847 13.148 11.99
      vertex -6.99956 13.0386 10
      vertex -6.99956 13.0386 11.99
    endloop
  endfacet
  facet normal -0.777365 0.62905 0
    outer loop
      vertex -6.97847 13.148 10
      vertex -6.91519 13.2262 11.99
      vertex -6.91519 13.2262 10
    endloop
  endfacet
  facet normal -0.777365 0.62905 0
    outer loop
      vertex -6.91519 13.2262 11.99
      vertex -6.97847 13.148 10
      vertex -6.97847 13.148 11.99
    endloop
  endfacet
  facet normal -0.406315 0.913733 0
    outer loop
      vertex -6.80972 13.2731 10
      vertex -6.91519 13.2262 11.99
      vertex -6.80972 13.2731 11.99
    endloop
  endfacet
  facet normal -0.406315 0.913733 0
    outer loop
      vertex -6.91519 13.2262 11.99
      vertex -6.80972 13.2731 10
      vertex -6.91519 13.2262 10
    endloop
  endfacet
  facet normal -0.105063 0.994466 0
    outer loop
      vertex -6.66206 13.2887 10
      vertex -6.80972 13.2731 11.99
      vertex -6.66206 13.2887 11.99
    endloop
  endfacet
  facet normal -0.105063 0.994466 0
    outer loop
      vertex -6.80972 13.2731 11.99
      vertex -6.66206 13.2887 10
      vertex -6.80972 13.2731 10
    endloop
  endfacet
  facet normal 0 1 -0
    outer loop
      vertex -4.7997 13.2887 10
      vertex -6.66206 13.2887 11.99
      vertex -4.7997 13.2887 11.99
    endloop
  endfacet
  facet normal 0 1 0
    outer loop
      vertex -6.66206 13.2887 11.99
      vertex -4.7997 13.2887 10
      vertex -6.66206 13.2887 10
    endloop
  endfacet
  facet normal 0.105063 0.994466 -0
    outer loop
      vertex -4.65204 13.2731 10
      vertex -4.7997 13.2887 11.99
      vertex -4.65204 13.2731 11.99
    endloop
  endfacet
  facet normal 0.105063 0.994466 0
    outer loop
      vertex -4.7997 13.2887 11.99
      vertex -4.65204 13.2731 10
      vertex -4.7997 13.2887 10
    endloop
  endfacet
  facet normal 0.406315 0.913733 -0
    outer loop
      vertex -4.54657 13.2262 10
      vertex -4.65204 13.2731 11.99
      vertex -4.54657 13.2262 11.99
    endloop
  endfacet
  facet normal 0.406315 0.913733 0
    outer loop
      vertex -4.65204 13.2731 11.99
      vertex -4.54657 13.2262 10
      vertex -4.65204 13.2731 10
    endloop
  endfacet
  facet normal 0.777365 0.62905 0
    outer loop
      vertex -4.48329 13.148 11.99
      vertex -4.54657 13.2262 10
      vertex -4.54657 13.2262 11.99
    endloop
  endfacet
  facet normal 0.777365 0.62905 0
    outer loop
      vertex -4.54657 13.2262 10
      vertex -4.48329 13.148 11.99
      vertex -4.48329 13.148 10
    endloop
  endfacet
  facet normal 0.981904 0.18938 0
    outer loop
      vertex -4.46219 13.0386 11.99
      vertex -4.48329 13.148 10
      vertex -4.48329 13.148 11.99
    endloop
  endfacet
  facet normal 0.981904 0.18938 0
    outer loop
      vertex -4.48329 13.148 10
      vertex -4.46219 13.0386 11.99
      vertex -4.46219 13.0386 10
    endloop
  endfacet
  facet normal 0.983525 -0.18077 0
    outer loop
      vertex -4.48329 12.9238 11.99
      vertex -4.46219 13.0386 10
      vertex -4.46219 13.0386 11.99
    endloop
  endfacet
  facet normal 0.983525 -0.18077 0
    outer loop
      vertex -4.46219 13.0386 10
      vertex -4.48329 12.9238 11.99
      vertex -4.48329 12.9238 10
    endloop
  endfacet
  facet normal 0.792035 -0.610475 0
    outer loop
      vertex -4.54657 12.8417 11.99
      vertex -4.48329 12.9238 10
      vertex -4.48329 12.9238 11.99
    endloop
  endfacet
  facet normal 0.792035 -0.610475 0
    outer loop
      vertex -4.48329 12.9238 10
      vertex -4.54657 12.8417 11.99
      vertex -4.54657 12.8417 10
    endloop
  endfacet
  facet normal 0.422749 -0.906247 0
    outer loop
      vertex -4.65204 12.7925 10
      vertex -4.54657 12.8417 11.99
      vertex -4.65204 12.7925 11.99
    endloop
  endfacet
  facet normal 0.422749 -0.906247 0
    outer loop
      vertex -4.54657 12.8417 11.99
      vertex -4.65204 12.7925 10
      vertex -4.54657 12.8417 10
    endloop
  endfacet
  facet normal 0.110387 -0.993889 0
    outer loop
      vertex -4.7997 12.7761 10
      vertex -4.65204 12.7925 11.99
      vertex -4.7997 12.7761 11.99
    endloop
  endfacet
  facet normal 0.110387 -0.993889 0
    outer loop
      vertex -4.65204 12.7925 11.99
      vertex -4.7997 12.7761 10
      vertex -4.65204 12.7925 10
    endloop
  endfacet
  facet normal 0 -1 0
    outer loop
      vertex -5.72462 12.7761 10
      vertex -4.7997 12.7761 11.99
      vertex -5.72462 12.7761 11.99
    endloop
  endfacet
  facet normal 0 -1 -0
    outer loop
      vertex -4.7997 12.7761 11.99
      vertex -5.72462 12.7761 10
      vertex -4.7997 12.7761 10
    endloop
  endfacet
  facet normal 1 -0 0
    outer loop
      vertex -5.72462 8.56183 11.99
      vertex -5.72462 12.7761 10
      vertex -5.72462 12.7761 11.99
    endloop
  endfacet
  facet normal 1 0 0
    outer loop
      vertex -5.72462 12.7761 10
      vertex -5.72462 8.56183 11.99
      vertex -5.72462 8.56183 10
    endloop
  endfacet
  facet normal 0.996047 0.0888281 0
    outer loop
      vertex -5.68869 8.15894 11.99
      vertex -5.72462 8.56183 10
      vertex -5.72462 8.56183 11.99
    endloop
  endfacet
  facet normal 0.996047 0.0888281 0
    outer loop
      vertex -5.72462 8.56183 10
      vertex -5.68869 8.15894 11.99
      vertex -5.68869 8.15894 10
    endloop
  endfacet
  facet normal 0.960239 0.279178 0
    outer loop
      vertex -5.58087 7.78809 11.99
      vertex -5.68869 8.15894 10
      vertex -5.68869 8.15894 11.99
    endloop
  endfacet
  facet normal 0.960239 0.279178 0
    outer loop
      vertex -5.68869 8.15894 10
      vertex -5.58087 7.78809 11.99
      vertex -5.58087 7.78809 10
    endloop
  endfacet
  facet normal 0.883443 0.468539 0
    outer loop
      vertex -5.40118 7.44928 11.99
      vertex -5.58087 7.78809 10
      vertex -5.58087 7.78809 11.99
    endloop
  endfacet
  facet normal 0.883443 0.468539 0
    outer loop
      vertex -5.58087 7.78809 10
      vertex -5.40118 7.44928 11.99
      vertex -5.40118 7.44928 10
    endloop
  endfacet
  facet normal 0.773235 0.63412 0
    outer loop
      vertex -5.14961 7.14252 11.99
      vertex -5.40118 7.44928 10
      vertex -5.40118 7.44928 11.99
    endloop
  endfacet
  facet normal 0.773235 0.63412 0
    outer loop
      vertex -5.40118 7.44928 10
      vertex -5.14961 7.14252 11.99
      vertex -5.14961 7.14252 10
    endloop
  endfacet
  facet normal 0.642915 0.765938 -0
    outer loop
      vertex -4.84653 6.88812 10
      vertex -5.14961 7.14252 11.99
      vertex -4.84653 6.88812 11.99
    endloop
  endfacet
  facet normal 0.642915 0.765938 0
    outer loop
      vertex -5.14961 7.14252 11.99
      vertex -4.84653 6.88812 10
      vertex -5.14961 7.14252 10
    endloop
  endfacet
  facet normal 0.47752 0.878621 -0
    outer loop
      vertex -4.51219 6.70641 10
      vertex -4.84653 6.88812 11.99
      vertex -4.51219 6.70641 11.99
    endloop
  endfacet
  facet normal 0.47752 0.878621 0
    outer loop
      vertex -4.84653 6.88812 11.99
      vertex -4.51219 6.70641 10
      vertex -4.84653 6.88812 10
    endloop
  endfacet
  facet normal 0.285784 0.958294 -0
    outer loop
      vertex -4.14659 6.59738 10
      vertex -4.51219 6.70641 11.99
      vertex -4.14659 6.59738 11.99
    endloop
  endfacet
  facet normal 0.285784 0.958294 0
    outer loop
      vertex -4.51219 6.70641 11.99
      vertex -4.14659 6.59738 10
      vertex -4.51219 6.70641 10
    endloop
  endfacet
  facet normal 0.0911942 0.995833 -0
    outer loop
      vertex -3.74976 6.56104 10
      vertex -4.14659 6.59738 11.99
      vertex -3.74976 6.56104 11.99
    endloop
  endfacet
  facet normal 0.0911942 0.995833 0
    outer loop
      vertex -4.14659 6.59738 11.99
      vertex -3.74976 6.56104 10
      vertex -4.14659 6.59738 10
    endloop
  endfacet
  facet normal -0.089061 0.996026 0
    outer loop
      vertex -3.34782 6.59698 10
      vertex -3.74976 6.56104 11.99
      vertex -3.34782 6.59698 11.99
    endloop
  endfacet
  facet normal -0.089061 0.996026 0
    outer loop
      vertex -3.74976 6.56104 11.99
      vertex -3.34782 6.59698 10
      vertex -3.74976 6.56104 10
    endloop
  endfacet
  facet normal -0.281009 0.959705 0
    outer loop
      vertex -2.97949 6.70483 10
      vertex -3.34782 6.59698 11.99
      vertex -2.97949 6.70483 11.99
    endloop
  endfacet
  facet normal -0.281009 0.959705 0
    outer loop
      vertex -3.34782 6.59698 11.99
      vertex -2.97949 6.70483 10
      vertex -3.34782 6.59698 10
    endloop
  endfacet
  facet normal -0.473079 0.88102 0
    outer loop
      vertex -2.64474 6.88458 10
      vertex -2.97949 6.70483 11.99
      vertex -2.64474 6.88458 11.99
    endloop
  endfacet
  facet normal -0.473079 0.88102 0
    outer loop
      vertex -2.97949 6.70483 11.99
      vertex -2.64474 6.88458 10
      vertex -2.97949 6.70483 10
    endloop
  endfacet
  facet normal -0.641221 0.767356 0
    outer loop
      vertex -2.3436 7.13622 10
      vertex -2.64474 6.88458 11.99
      vertex -2.3436 7.13622 11.99
    endloop
  endfacet
  facet normal -0.641221 0.767356 0
    outer loop
      vertex -2.64474 6.88458 11.99
      vertex -2.3436 7.13622 10
      vertex -2.64474 6.88458 10
    endloop
  endfacet
  facet normal -0.77471 0.632317 0
    outer loop
      vertex -2.3436 7.13622 10
      vertex -2.09479 7.44106 11.99
      vertex -2.09479 7.44106 10
    endloop
  endfacet
  facet normal -0.77471 0.632317 0
    outer loop
      vertex -2.09479 7.44106 11.99
      vertex -2.3436 7.13622 10
      vertex -2.3436 7.13622 11.99
    endloop
  endfacet
  facet normal -0.885763 0.464138 0
    outer loop
      vertex -2.09479 7.44106 10
      vertex -1.91705 7.78026 11.99
      vertex -1.91705 7.78026 10
    endloop
  endfacet
  facet normal -0.885763 0.464138 0
    outer loop
      vertex -1.91705 7.78026 11.99
      vertex -2.09479 7.44106 10
      vertex -2.09479 7.44106 11.99
    endloop
  endfacet
  facet normal -0.961599 0.274459 0
    outer loop
      vertex -1.91705 7.78026 10
      vertex -1.81042 8.15385 11.99
      vertex -1.81042 8.15385 10
    endloop
  endfacet
  facet normal -0.961599 0.274459 0
    outer loop
      vertex -1.81042 8.15385 11.99
      vertex -1.91705 7.78026 10
      vertex -1.91705 7.78026 11.99
    endloop
  endfacet
  facet normal -0.996229 0.0867592 0
    outer loop
      vertex -1.81042 8.15385 10
      vertex -1.77489 8.56183 11.99
      vertex -1.77489 8.56183 10
    endloop
  endfacet
  facet normal -0.996229 0.0867592 0
    outer loop
      vertex -1.77489 8.56183 11.99
      vertex -1.81042 8.15385 10
      vertex -1.81042 8.15385 11.99
    endloop
  endfacet
  facet normal -1 0 0
    outer loop
      vertex -1.77489 8.56183 10
      vertex -1.77489 12.7761 11.99
      vertex -1.77489 12.7761 10
    endloop
  endfacet
  facet normal -1 -0 0
    outer loop
      vertex -1.77489 12.7761 11.99
      vertex -1.77489 8.56183 10
      vertex -1.77489 8.56183 11.99
    endloop
  endfacet
  facet normal 0 -1 0
    outer loop
      vertex -2.69981 12.7761 10
      vertex -1.77489 12.7761 11.99
      vertex -2.69981 12.7761 11.99
    endloop
  endfacet
  facet normal 0 -1 -0
    outer loop
      vertex -1.77489 12.7761 11.99
      vertex -2.69981 12.7761 10
      vertex -1.77489 12.7761 10
    endloop
  endfacet
  facet normal -0.110387 -0.993889 0
    outer loop
      vertex -2.84747 12.7925 10
      vertex -2.69981 12.7761 11.99
      vertex -2.84747 12.7925 11.99
    endloop
  endfacet
  facet normal -0.110387 -0.993889 -0
    outer loop
      vertex -2.69981 12.7761 11.99
      vertex -2.84747 12.7925 10
      vertex -2.69981 12.7761 10
    endloop
  endfacet
  facet normal -0.422749 -0.906247 0
    outer loop
      vertex -2.95294 12.8417 10
      vertex -2.84747 12.7925 11.99
      vertex -2.95294 12.8417 11.99
    endloop
  endfacet
  facet normal -0.422749 -0.906247 -0
    outer loop
      vertex -2.84747 12.7925 11.99
      vertex -2.95294 12.8417 10
      vertex -2.84747 12.7925 10
    endloop
  endfacet
  facet normal -0.792035 -0.610475 0
    outer loop
      vertex -2.95294 12.8417 10
      vertex -3.01622 12.9238 11.99
      vertex -3.01622 12.9238 10
    endloop
  endfacet
  facet normal -0.792035 -0.610475 0
    outer loop
      vertex -3.01622 12.9238 11.99
      vertex -2.95294 12.8417 10
      vertex -2.95294 12.8417 11.99
    endloop
  endfacet
  facet normal -0.983541 -0.180687 0
    outer loop
      vertex -3.01622 12.9238 10
      vertex -3.03731 13.0386 11.99
      vertex -3.03731 13.0386 10
    endloop
  endfacet
  facet normal -0.983541 -0.180687 0
    outer loop
      vertex -3.03731 13.0386 11.99
      vertex -3.01622 12.9238 10
      vertex -3.01622 12.9238 11.99
    endloop
  endfacet
  facet normal -0.981921 0.189293 0
    outer loop
      vertex -3.03731 13.0386 10
      vertex -3.01622 13.148 11.99
      vertex -3.01622 13.148 10
    endloop
  endfacet
  facet normal -0.981921 0.189293 0
    outer loop
      vertex -3.01622 13.148 11.99
      vertex -3.03731 13.0386 10
      vertex -3.03731 13.0386 11.99
    endloop
  endfacet
  facet normal -0.777365 0.62905 0
    outer loop
      vertex -3.01622 13.148 10
      vertex -2.95294 13.2262 11.99
      vertex -2.95294 13.2262 10
    endloop
  endfacet
  facet normal -0.777365 0.62905 0
    outer loop
      vertex -2.95294 13.2262 11.99
      vertex -3.01622 13.148 10
      vertex -3.01622 13.148 11.99
    endloop
  endfacet
  facet normal -0.406315 0.913733 0
    outer loop
      vertex -2.84747 13.2731 10
      vertex -2.95294 13.2262 11.99
      vertex -2.84747 13.2731 11.99
    endloop
  endfacet
  facet normal -0.406315 0.913733 0
    outer loop
      vertex -2.95294 13.2262 11.99
      vertex -2.84747 13.2731 10
      vertex -2.95294 13.2262 10
    endloop
  endfacet
  facet normal -0.105063 0.994466 0
    outer loop
      vertex -2.69981 13.2887 10
      vertex -2.84747 13.2731 11.99
      vertex -2.69981 13.2887 11.99
    endloop
  endfacet
  facet normal -0.105063 0.994466 0
    outer loop
      vertex -2.84747 13.2731 11.99
      vertex -2.69981 13.2887 10
      vertex -2.84747 13.2731 10
    endloop
  endfacet
  facet normal 0 1 -0
    outer loop
      vertex -0.837448 13.2887 10
      vertex -2.69981 13.2887 11.99
      vertex -0.837448 13.2887 11.99
    endloop
  endfacet
  facet normal 0 1 0
    outer loop
      vertex -2.69981 13.2887 11.99
      vertex -0.837448 13.2887 10
      vertex -2.69981 13.2887 10
    endloop
  endfacet
  facet normal 0.105064 0.994465 -0
    outer loop
      vertex -0.689789 13.2731 10
      vertex -0.837448 13.2887 11.99
      vertex -0.689789 13.2731 11.99
    endloop
  endfacet
  facet normal 0.105064 0.994465 0
    outer loop
      vertex -0.837448 13.2887 11.99
      vertex -0.689789 13.2731 10
      vertex -0.837448 13.2887 10
    endloop
  endfacet
  facet normal 0.406319 0.913732 -0
    outer loop
      vertex -0.58432 13.2262 10
      vertex -0.689789 13.2731 11.99
      vertex -0.58432 13.2262 11.99
    endloop
  endfacet
  facet normal 0.406319 0.913732 0
    outer loop
      vertex -0.689789 13.2731 11.99
      vertex -0.58432 13.2262 10
      vertex -0.689789 13.2731 10
    endloop
  endfacet
  facet normal 0.777375 0.629038 0
    outer loop
      vertex -0.521042 13.148 11.99
      vertex -0.58432 13.2262 10
      vertex -0.58432 13.2262 11.99
    endloop
  endfacet
  facet normal 0.777375 0.629038 0
    outer loop
      vertex -0.58432 13.2262 10
      vertex -0.521042 13.148 11.99
      vertex -0.521042 13.148 10
    endloop
  endfacet
  facet normal 0.981899 0.189406 0
    outer loop
      vertex -0.499939 13.0386 11.99
      vertex -0.521042 13.148 10
      vertex -0.521042 13.148 11.99
    endloop
  endfacet
  facet normal 0.981899 0.189406 0
    outer loop
      vertex -0.521042 13.148 10
      vertex -0.499939 13.0386 11.99
      vertex -0.499939 13.0386 10
    endloop
  endfacet
  facet normal 0.983521 -0.180795 0
    outer loop
      vertex -0.521042 12.9238 11.99
      vertex -0.499939 13.0386 10
      vertex -0.499939 13.0386 11.99
    endloop
  endfacet
  facet normal 0.983521 -0.180795 0
    outer loop
      vertex -0.499939 13.0386 10
      vertex -0.521042 12.9238 11.99
      vertex -0.521042 12.9238 10
    endloop
  endfacet
  facet normal 0.792045 -0.610463 0
    outer loop
      vertex -0.58432 12.8417 11.99
      vertex -0.521042 12.9238 10
      vertex -0.521042 12.9238 11.99
    endloop
  endfacet
  facet normal 0.792045 -0.610463 0
    outer loop
      vertex -0.521042 12.9238 10
      vertex -0.58432 12.8417 11.99
      vertex -0.58432 12.8417 10
    endloop
  endfacet
  facet normal 0.422752 -0.906245 0
    outer loop
      vertex -0.689789 12.7925 10
      vertex -0.58432 12.8417 11.99
      vertex -0.689789 12.7925 11.99
    endloop
  endfacet
  facet normal 0.422752 -0.906245 0
    outer loop
      vertex -0.58432 12.8417 11.99
      vertex -0.689789 12.7925 10
      vertex -0.58432 12.8417 10
    endloop
  endfacet
  facet normal 0.110388 -0.993889 0
    outer loop
      vertex -0.837448 12.7761 10
      vertex -0.689789 12.7925 11.99
      vertex -0.837448 12.7761 11.99
    endloop
  endfacet
  facet normal 0.110388 -0.993889 0
    outer loop
      vertex -0.689789 12.7925 11.99
      vertex -0.837448 12.7761 10
      vertex -0.689789 12.7925 10
    endloop
  endfacet
  facet normal 0 -1 0
    outer loop
      vertex -1.26242 12.7761 10
      vertex -0.837448 12.7761 11.99
      vertex -1.26242 12.7761 11.99
    endloop
  endfacet
  facet normal 0 -1 -0
    outer loop
      vertex -0.837448 12.7761 11.99
      vertex -1.26242 12.7761 10
      vertex -0.837448 12.7761 10
    endloop
  endfacet
  facet normal 1 -0 0
    outer loop
      vertex -1.26242 8.5619 11.99
      vertex -1.26242 12.7761 10
      vertex -1.26242 12.7761 11.99
    endloop
  endfacet
  facet normal 1 0 0
    outer loop
      vertex -1.26242 12.7761 10
      vertex -1.26242 8.5619 11.99
      vertex -1.26242 8.5619 10
    endloop
  endfacet
  facet normal 0.996289 -0.0860749 0
    outer loop
      vertex -1.30695 8.04648 11.99
      vertex -1.26242 8.5619 10
      vertex -1.26242 8.5619 11.99
    endloop
  endfacet
  facet normal 0.996289 -0.0860749 0
    outer loop
      vertex -1.26242 8.5619 10
      vertex -1.30695 8.04648 11.99
      vertex -1.30695 8.04648 10
    endloop
  endfacet
  facet normal 0.962036 -0.272921 0
    outer loop
      vertex -1.44054 7.57558 11.99
      vertex -1.30695 8.04648 10
      vertex -1.30695 8.04648 11.99
    endloop
  endfacet
  facet normal 0.962036 -0.272921 0
    outer loop
      vertex -1.30695 8.04648 10
      vertex -1.44054 7.57558 11.99
      vertex -1.44054 7.57558 10
    endloop
  endfacet
  facet normal 0.886422 -0.462879 0
    outer loop
      vertex -1.66318 7.14922 11.99
      vertex -1.44054 7.57558 10
      vertex -1.44054 7.57558 11.99
    endloop
  endfacet
  facet normal 0.886422 -0.462879 0
    outer loop
      vertex -1.44054 7.57558 10
      vertex -1.66318 7.14922 11.99
      vertex -1.66318 7.14922 10
    endloop
  endfacet
  facet normal 0.774661 -0.632377 0
    outer loop
      vertex -1.97487 6.7674 11.99
      vertex -1.66318 7.14922 10
      vertex -1.66318 7.14922 11.99
    endloop
  endfacet
  facet normal 0.774661 -0.632377 0
    outer loop
      vertex -1.66318 7.14922 10
      vertex -1.97487 6.7674 11.99
      vertex -1.97487 6.7674 10
    endloop
  endfacet
  facet normal 0.639576 -0.768728 0
    outer loop
      vertex -2.35295 6.45284 10
      vertex -1.97487 6.7674 11.99
      vertex -2.35295 6.45284 11.99
    endloop
  endfacet
  facet normal 0.639576 -0.768728 0
    outer loop
      vertex -1.97487 6.7674 11.99
      vertex -2.35295 6.45284 10
      vertex -1.97487 6.7674 10
    endloop
  endfacet
  facet normal 0.47008 -0.882624 0
    outer loop
      vertex -2.77481 6.22816 10
      vertex -2.35295 6.45284 11.99
      vertex -2.77481 6.22816 11.99
    endloop
  endfacet
  facet normal 0.47008 -0.882624 0
    outer loop
      vertex -2.35295 6.45284 11.99
      vertex -2.77481 6.22816 10
      vertex -2.35295 6.45284 10
    endloop
  endfacet
  facet normal 0.278123 -0.960546 0
    outer loop
      vertex -3.2404 6.09335 10
      vertex -2.77481 6.22816 11.99
      vertex -3.2404 6.09335 11.99
    endloop
  endfacet
  facet normal 0.278123 -0.960546 0
    outer loop
      vertex -2.77481 6.22816 11.99
      vertex -3.2404 6.09335 10
      vertex -2.77481 6.22816 10
    endloop
  endfacet
  facet normal 0.0879064 -0.996129 0
    outer loop
      vertex -3.74976 6.0484 10
      vertex -3.2404 6.09335 11.99
      vertex -3.74976 6.0484 11.99
    endloop
  endfacet
  facet normal 0.0879064 -0.996129 0
    outer loop
      vertex -3.2404 6.09335 11.99
      vertex -3.74976 6.0484 10
      vertex -3.2404 6.09335 10
    endloop
  endfacet
  facet normal -0.0895348 -0.995984 0
    outer loop
      vertex -4.25401 6.09373 10
      vertex -3.74976 6.0484 11.99
      vertex -4.25401 6.09373 11.99
    endloop
  endfacet
  facet normal -0.0895348 -0.995984 -0
    outer loop
      vertex -3.74976 6.0484 11.99
      vertex -4.25401 6.09373 10
      vertex -3.74976 6.0484 10
    endloop
  endfacet
endsolid OpenSCAD_Model
