solid OpenSCAD_Model
  facet normal -0 0 1
    outer loop
      vertex -6.78708 10.9501 10
      vertex -5.51213 6.25 10
      vertex -6.54956 10.9501 10
    endloop
  endfacet
  facet normal 0 0 1
    outer loop
      vertex -6.93472 10.9666 10
      vertex -5.51213 6.25 10
      vertex -6.78708 10.9501 10
    endloop
  endfacet
  facet normal 0 0 1
    outer loop
      vertex -7.04019 11.0158 10
      vertex -5.51213 6.25 10
      vertex -6.93472 10.9666 10
    endloop
  endfacet
  facet normal 0 0 1
    outer loop
      vertex -5.51213 6.25 10
      vertex -7.04019 11.0158 10
      vertex -7.5 3.5 10
    endloop
  endfacet
  facet normal 0 0 1
    outer loop
      vertex -7.5 3.5 10
      vertex -7.04019 11.0158 10
      vertex -7.10349 11.0978 10
    endloop
  endfacet
  facet normal 0 0 1
    outer loop
      vertex -7.5 3.5 10
      vertex -7.10349 11.0978 10
      vertex -7.12457 11.2127 10
    endloop
  endfacet
  facet normal 0 0 1
    outer loop
      vertex -7.5 3.5 10
      vertex -7.12457 11.2127 10
      vertex -7.5 14.5 10
    endloop
  endfacet
  facet normal 0 0 1
    outer loop
      vertex -5.51213 6.25 10
      vertex -7.5 3.5 10
      vertex -6.51 3.5 10
    endloop
  endfacet
  facet normal 0 0 1
    outer loop
      vertex 0 14.5 10
      vertex -0.374939 11.2127 10
      vertex 0 2.5 10
    endloop
  endfacet
  facet normal 0 0 1
    outer loop
      vertex 0 14.5 10
      vertex -0.396027 11.3221 10
      vertex -0.374939 11.2127 10
    endloop
  endfacet
  facet normal 0 0 1
    outer loop
      vertex 0 14.5 10
      vertex -0.459305 11.4003 10
      vertex -0.396027 11.3221 10
    endloop
  endfacet
  facet normal 0 0 1
    outer loop
      vertex 0 14.5 10
      vertex -0.564774 11.4472 10
      vertex -0.459305 11.4003 10
    endloop
  endfacet
  facet normal 0 0 1
    outer loop
      vertex 0 14.5 10
      vertex -0.712433 11.4628 10
      vertex -0.564774 11.4472 10
    endloop
  endfacet
  facet normal 0 0 1
    outer loop
      vertex 0 14.5 10
      vertex -2.09987 11.4628 10
      vertex -0.712433 11.4628 10
    endloop
  endfacet
  facet normal 0 0 1
    outer loop
      vertex 0 14.5 10
      vertex -2.24753 11.4472 10
      vertex -2.09987 11.4628 10
    endloop
  endfacet
  facet normal 0 0 1
    outer loop
      vertex -5.25198 11.4472 10
      vertex -2.24753 11.4472 10
      vertex 0 14.5 10
    endloop
  endfacet
  facet normal 0 0 1
    outer loop
      vertex -2.24753 11.4472 10
      vertex -5.25198 11.4472 10
      vertex -2.353 11.4003 10
    endloop
  endfacet
  facet normal 0 0 1
    outer loop
      vertex -5.06213 11.2127 10
      vertex -2.43738 11.2127 10
      vertex -2.41628 11.3221 10
    endloop
  endfacet
  facet normal 0 0 1
    outer loop
      vertex -2.353 11.4003 10
      vertex -5.14651 11.4003 10
      vertex -2.41628 11.3221 10
    endloop
  endfacet
  facet normal 0 -0 1
    outer loop
      vertex -5.06213 11.2127 10
      vertex -2.41628 11.3221 10
      vertex -5.08322 11.3221 10
    endloop
  endfacet
  facet normal 0 0 1
    outer loop
      vertex -2.43738 11.2127 10
      vertex -5.06213 11.2127 10
      vertex -4.04973 10.139 10
    endloop
  endfacet
  facet normal 0 0 1
    outer loop
      vertex -2.43738 11.2127 10
      vertex -4.04973 10.139 10
      vertex -3.41225 10.1394 10
    endloop
  endfacet
  facet normal 0 0 1
    outer loop
      vertex -2.41628 11.3221 10
      vertex -5.14651 11.4003 10
      vertex -5.08322 11.3221 10
    endloop
  endfacet
  facet normal 0 0 1
    outer loop
      vertex -2.353 11.4003 10
      vertex -5.25198 11.4472 10
      vertex -5.14651 11.4003 10
    endloop
  endfacet
  facet normal -0 0 1
    outer loop
      vertex -7.5 14.5 10
      vertex -5.25198 11.4472 10
      vertex 0 14.5 10
    endloop
  endfacet
  facet normal 0 0 1
    outer loop
      vertex -5.25198 11.4472 10
      vertex -7.5 14.5 10
      vertex -5.39963 11.4628 10
    endloop
  endfacet
  facet normal 0 0 1
    outer loop
      vertex -5.39963 11.4628 10
      vertex -7.5 14.5 10
      vertex -6.78708 11.4628 10
    endloop
  endfacet
  facet normal 0 0 1
    outer loop
      vertex -7.10349 11.3221 10
      vertex -7.5 14.5 10
      vertex -7.12457 11.2127 10
    endloop
  endfacet
  facet normal 0 0 1
    outer loop
      vertex -7.04019 11.4003 10
      vertex -7.5 14.5 10
      vertex -7.10349 11.3221 10
    endloop
  endfacet
  facet normal 0 0 1
    outer loop
      vertex -6.93472 11.4472 10
      vertex -7.5 14.5 10
      vertex -7.04019 11.4003 10
    endloop
  endfacet
  facet normal 0 0 1
    outer loop
      vertex -6.78708 11.4628 10
      vertex -7.5 14.5 10
      vertex -6.93472 11.4472 10
    endloop
  endfacet
  facet normal -0 0 1
    outer loop
      vertex -0.396027 11.0978 10
      vertex 0 2.5 10
      vertex -0.374939 11.2127 10
    endloop
  endfacet
  facet normal -0 0 1
    outer loop
      vertex -0.459305 11.0158 10
      vertex 0 2.5 10
      vertex -0.396027 11.0978 10
    endloop
  endfacet
  facet normal 0 0 1
    outer loop
      vertex -1.99988 6.25 10
      vertex -0.459305 11.0158 10
      vertex -0.564774 10.9666 10
    endloop
  endfacet
  facet normal 0 0 1
    outer loop
      vertex -1.99988 6.25 10
      vertex -0.564774 10.9666 10
      vertex -0.712433 10.9501 10
    endloop
  endfacet
  facet normal 0 0 1
    outer loop
      vertex -1.99988 6.25 10
      vertex -0.712433 10.9501 10
      vertex -0.949936 10.9501 10
    endloop
  endfacet
  facet normal 0 0 1
    outer loop
      vertex -0.459305 11.0158 10
      vertex -1.99988 6.25 10
      vertex 0 2.5 10
    endloop
  endfacet
  facet normal -0 0 1
    outer loop
      vertex -2.63736 6.25 10
      vertex 0 2.5 10
      vertex -1.99988 6.25 10
    endloop
  endfacet
  facet normal 0 0 1
    outer loop
      vertex -4.88718 6.25 10
      vertex -2.63736 6.25 10
      vertex -3.74976 9.48756 10
    endloop
  endfacet
  facet normal 0 0 1
    outer loop
      vertex -6.51 3.5 10
      vertex -2.63736 6.25 10
      vertex -4.88718 6.25 10
    endloop
  endfacet
  facet normal 0 0 1
    outer loop
      vertex -6.51 3.5 10
      vertex -4.88718 6.25 10
      vertex -5.51213 6.25 10
    endloop
  endfacet
  facet normal 0 0 1
    outer loop
      vertex -2.63736 6.25 10
      vertex -6.51 3.5 10
      vertex 0 2.5 10
    endloop
  endfacet
  facet normal 0 0 1
    outer loop
      vertex 0 2.5 10
      vertex -6.51 3.5 10
      vertex -6.51 2.5 10
    endloop
  endfacet
  facet normal -0 0 1
    outer loop
      vertex -2.09987 10.9501 10
      vertex -2.33739 6.9528 10
      vertex -1.43738 10.9501 10
    endloop
  endfacet
  facet normal 0 0 1
    outer loop
      vertex -3.41225 10.1394 10
      vertex -2.09987 10.9501 10
      vertex -2.24753 10.9666 10
    endloop
  endfacet
  facet normal 0 0 1
    outer loop
      vertex -3.41225 10.1394 10
      vertex -2.24753 10.9666 10
      vertex -2.353 11.0158 10
    endloop
  endfacet
  facet normal 0 0 1
    outer loop
      vertex -3.41225 10.1394 10
      vertex -2.353 11.0158 10
      vertex -2.41628 11.0978 10
    endloop
  endfacet
  facet normal 0 0 1
    outer loop
      vertex -3.41225 10.1394 10
      vertex -2.41628 11.0978 10
      vertex -2.43738 11.2127 10
    endloop
  endfacet
  facet normal 0 0 1
    outer loop
      vertex -2.09987 10.9501 10
      vertex -3.41225 10.1394 10
      vertex -2.33739 6.9528 10
    endloop
  endfacet
  facet normal -0 0 1
    outer loop
      vertex -5.08322 11.0978 10
      vertex -4.04973 10.139 10
      vertex -5.06213 11.2127 10
    endloop
  endfacet
  facet normal -0 0 1
    outer loop
      vertex -5.14651 11.0158 10
      vertex -4.04973 10.139 10
      vertex -5.08322 11.0978 10
    endloop
  endfacet
  facet normal -0 0 1
    outer loop
      vertex -5.25198 10.9666 10
      vertex -4.04973 10.139 10
      vertex -5.14651 11.0158 10
    endloop
  endfacet
  facet normal -0 0 1
    outer loop
      vertex -5.39963 10.9501 10
      vertex -4.04973 10.139 10
      vertex -5.25198 10.9666 10
    endloop
  endfacet
  facet normal 0 0 1
    outer loop
      vertex -4.04973 10.139 10
      vertex -5.39963 10.9501 10
      vertex -5.16212 6.93985 10
    endloop
  endfacet
  facet normal 0 0 1
    outer loop
      vertex -5.16212 6.93985 10
      vertex -5.39963 10.9501 10
      vertex -6.0246 10.9501 10
    endloop
  endfacet
  facet normal -1 0 0
    outer loop
      vertex -7.5 0 3
      vertex -7.5 17 3
      vertex -7.5 17 0
    endloop
  endfacet
  facet normal -1 0 0
    outer loop
      vertex -7.5 17 3
      vertex -7.5 3.5 9.01
      vertex -7.5 14.5 10
    endloop
  endfacet
  facet normal -1 0 0
    outer loop
      vertex -7.5 17 3
      vertex -7.5 0 3
      vertex -7.5 3.5 9.01
    endloop
  endfacet
  facet normal -1 0 0
    outer loop
      vertex -7.5 0 3
      vertex -7.5 17 0
      vertex -7.5 0 0
    endloop
  endfacet
  facet normal -1 -0 0
    outer loop
      vertex -7.5 3.5 9.01
      vertex -7.5 0 3
      vertex -7.5 2.14643 9.01
    endloop
  endfacet
  facet normal -1 -0 0
    outer loop
      vertex -7.5 14.5 10
      vertex -7.5 3.5 9.01
      vertex -7.5 3.5 10
    endloop
  endfacet
  facet normal 0 1 -0
    outer loop
      vertex 0 17 0
      vertex -7.5 17 3
      vertex 0 17 3
    endloop
  endfacet
  facet normal 0 1 0
    outer loop
      vertex -7.5 17 3
      vertex 0 17 0
      vertex -7.5 17 0
    endloop
  endfacet
  facet normal 0 0 -1
    outer loop
      vertex -7.5 0 0
      vertex 0 17 0
      vertex 0 0 0
    endloop
  endfacet
  facet normal -0 0 -1
    outer loop
      vertex 0 17 0
      vertex -7.5 0 0
      vertex -7.5 17 0
    endloop
  endfacet
  facet normal 1 0 0
    outer loop
      vertex 0 0 3
      vertex 0 17 3
      vertex 0 14.5 10
    endloop
  endfacet
  facet normal 1 0 0
    outer loop
      vertex 0 0 3
      vertex 0 14.5 10
      vertex 0 2.5 10
    endloop
  endfacet
  facet normal 1 0 0
    outer loop
      vertex 0 17 3
      vertex 0 0 3
      vertex 0 17 0
    endloop
  endfacet
  facet normal 1 0 0
    outer loop
      vertex 0 17 0
      vertex 0 0 3
      vertex 0 0 0
    endloop
  endfacet
  facet normal 0 -0.941742 0.336337
    outer loop
      vertex -7.5 2.14643 9.01
      vertex -7.5 0 3
      vertex -6.51 2.14643 9.01
    endloop
  endfacet
  facet normal 0 -0.941742 0.336335
    outer loop
      vertex -6.51 2.14643 9.01
      vertex 0 2.5 10
      vertex -6.51 2.5 10
    endloop
  endfacet
  facet normal 0 -0.941742 0.336337
    outer loop
      vertex 0 0 3
      vertex -6.51 2.14643 9.01
      vertex -7.5 0 3
    endloop
  endfacet
  facet normal -2.06658e-07 -0.941742 0.336336
    outer loop
      vertex -6.51 2.14643 9.01
      vertex 0 0 3
      vertex 0 2.5 10
    endloop
  endfacet
  facet normal 0 -1 0
    outer loop
      vertex -7.5 0 0
      vertex 0 0 3
      vertex -7.5 0 3
    endloop
  endfacet
  facet normal 0 -1 -0
    outer loop
      vertex 0 0 3
      vertex -7.5 0 0
      vertex 0 0 0
    endloop
  endfacet
  facet normal 0 0.941742 0.336336
    outer loop
      vertex 0 17 3
      vertex -7.5 14.5 10
      vertex 0 14.5 10
    endloop
  endfacet
  facet normal 0 0.941742 0.336336
    outer loop
      vertex -7.5 14.5 10
      vertex 0 17 3
      vertex -7.5 17 3
    endloop
  endfacet
  facet normal -0 0 1
    outer loop
      vertex -7.5 3.5 9.01
      vertex -6.51 2.14643 9.01
      vertex -6.51 3.5 9.01
    endloop
  endfacet
  facet normal 0 0 1
    outer loop
      vertex -6.51 2.14643 9.01
      vertex -7.5 3.5 9.01
      vertex -7.5 2.14643 9.01
    endloop
  endfacet
  facet normal -1 0 0
    outer loop
      vertex -6.51 3.5 9.01
      vertex -6.51 2.5 10
      vertex -6.51 3.5 10
    endloop
  endfacet
  facet normal -1 0 -0
    outer loop
      vertex -6.51 2.5 10
      vertex -6.51 3.5 9.01
      vertex -6.51 2.14643 9.01
    endloop
  endfacet
  facet normal 0 -1 0
    outer loop
      vertex -7.5 3.5 9.01
      vertex -6.51 3.5 10
      vertex -7.5 3.5 10
    endloop
  endfacet
  facet normal 0 -1 -0
    outer loop
      vertex -6.51 3.5 10
      vertex -7.5 3.5 9.01
      vertex -6.51 3.5 9.01
    endloop
  endfacet
  facet normal 0 0 1
    outer loop
      vertex -5.14651 11.4003 11.99
      vertex -5.06213 11.2127 11.99
      vertex -5.08322 11.3221 11.99
    endloop
  endfacet
  facet normal 0 0 1
    outer loop
      vertex -5.06213 11.2127 11.99
      vertex -5.14651 11.4003 11.99
      vertex -5.25198 11.4472 11.99
    endloop
  endfacet
  facet normal 0 0 1
    outer loop
      vertex -5.25198 10.9666 11.99
      vertex -5.06213 11.2127 11.99
      vertex -5.25198 11.4472 11.99
    endloop
  endfacet
  facet normal 0 0 1
    outer loop
      vertex -5.06213 11.2127 11.99
      vertex -5.25198 10.9666 11.99
      vertex -5.08322 11.0978 11.99
    endloop
  endfacet
  facet normal 0 0 1
    outer loop
      vertex -5.08322 11.0978 11.99
      vertex -5.25198 10.9666 11.99
      vertex -5.14651 11.0158 11.99
    endloop
  endfacet
  facet normal 0 0 1
    outer loop
      vertex -5.39963 11.4628 11.99
      vertex -5.25198 10.9666 11.99
      vertex -5.25198 11.4472 11.99
    endloop
  endfacet
  facet normal 0 0 1
    outer loop
      vertex -5.39963 11.4628 11.99
      vertex -5.39963 10.9501 11.99
      vertex -5.25198 10.9666 11.99
    endloop
  endfacet
  facet normal 0 0 1
    outer loop
      vertex -5.39963 11.4628 11.99
      vertex -6.0246 10.9501 11.99
      vertex -5.39963 10.9501 11.99
    endloop
  endfacet
  facet normal -0 0 1
    outer loop
      vertex -6.78708 11.4628 11.99
      vertex -6.0246 10.9501 11.99
      vertex -5.39963 11.4628 11.99
    endloop
  endfacet
  facet normal 0 0 1
    outer loop
      vertex -6.0246 10.9501 11.99
      vertex -6.78708 11.4628 11.99
      vertex -6.54956 10.9501 11.99
    endloop
  endfacet
  facet normal 0 0 1
    outer loop
      vertex -6.78708 11.4628 11.99
      vertex -6.78708 10.9501 11.99
      vertex -6.54956 10.9501 11.99
    endloop
  endfacet
  facet normal -0 0 1
    outer loop
      vertex -6.93472 11.4472 11.99
      vertex -6.78708 10.9501 11.99
      vertex -6.78708 11.4628 11.99
    endloop
  endfacet
  facet normal 0 0 1
    outer loop
      vertex -6.93472 11.4472 11.99
      vertex -6.93472 10.9666 11.99
      vertex -6.78708 10.9501 11.99
    endloop
  endfacet
  facet normal 0 0 1
    outer loop
      vertex -7.12457 11.2127 11.99
      vertex -6.93472 11.4472 11.99
      vertex -7.04019 11.4003 11.99
    endloop
  endfacet
  facet normal 0 0 1
    outer loop
      vertex -6.93472 11.4472 11.99
      vertex -7.12457 11.2127 11.99
      vertex -6.93472 10.9666 11.99
    endloop
  endfacet
  facet normal 0 0 1
    outer loop
      vertex -7.12457 11.2127 11.99
      vertex -7.04019 11.4003 11.99
      vertex -7.10349 11.3221 11.99
    endloop
  endfacet
  facet normal 0 0 1
    outer loop
      vertex -6.93472 10.9666 11.99
      vertex -7.12457 11.2127 11.99
      vertex -7.04019 11.0158 11.99
    endloop
  endfacet
  facet normal 0 0 1
    outer loop
      vertex -7.04019 11.0158 11.99
      vertex -7.12457 11.2127 11.99
      vertex -7.10349 11.0978 11.99
    endloop
  endfacet
  facet normal 0 0 1
    outer loop
      vertex -0.459305 11.4003 11.99
      vertex -0.374939 11.2127 11.99
      vertex -0.396027 11.3221 11.99
    endloop
  endfacet
  facet normal 0 0 1
    outer loop
      vertex -0.374939 11.2127 11.99
      vertex -0.459305 11.4003 11.99
      vertex -0.564774 11.4472 11.99
    endloop
  endfacet
  facet normal 0 0 1
    outer loop
      vertex -0.564774 10.9666 11.99
      vertex -0.374939 11.2127 11.99
      vertex -0.564774 11.4472 11.99
    endloop
  endfacet
  facet normal 0 0 1
    outer loop
      vertex -0.374939 11.2127 11.99
      vertex -0.564774 10.9666 11.99
      vertex -0.396027 11.0978 11.99
    endloop
  endfacet
  facet normal 0 0 1
    outer loop
      vertex -0.396027 11.0978 11.99
      vertex -0.564774 10.9666 11.99
      vertex -0.459305 11.0158 11.99
    endloop
  endfacet
  facet normal 0 0 1
    outer loop
      vertex -0.712433 11.4628 11.99
      vertex -0.564774 10.9666 11.99
      vertex -0.564774 11.4472 11.99
    endloop
  endfacet
  facet normal 0 0 1
    outer loop
      vertex -0.712433 11.4628 11.99
      vertex -0.712433 10.9501 11.99
      vertex -0.564774 10.9666 11.99
    endloop
  endfacet
  facet normal 0 0 1
    outer loop
      vertex -0.712433 11.4628 11.99
      vertex -0.949936 10.9501 11.99
      vertex -0.712433 10.9501 11.99
    endloop
  endfacet
  facet normal 0 0 1
    outer loop
      vertex -0.712433 11.4628 11.99
      vertex -1.43738 10.9501 11.99
      vertex -0.949936 10.9501 11.99
    endloop
  endfacet
  facet normal -0 0 1
    outer loop
      vertex -2.09987 11.4628 11.99
      vertex -1.43738 10.9501 11.99
      vertex -0.712433 11.4628 11.99
    endloop
  endfacet
  facet normal 0 0 1
    outer loop
      vertex -2.09987 11.4628 11.99
      vertex -2.09987 10.9501 11.99
      vertex -1.43738 10.9501 11.99
    endloop
  endfacet
  facet normal -0 0 1
    outer loop
      vertex -2.24753 11.4472 11.99
      vertex -2.09987 10.9501 11.99
      vertex -2.09987 11.4628 11.99
    endloop
  endfacet
  facet normal 0 0 1
    outer loop
      vertex -2.24753 11.4472 11.99
      vertex -2.24753 10.9666 11.99
      vertex -2.09987 10.9501 11.99
    endloop
  endfacet
  facet normal 0 0 1
    outer loop
      vertex -2.43738 11.2127 11.99
      vertex -2.24753 11.4472 11.99
      vertex -2.353 11.4003 11.99
    endloop
  endfacet
  facet normal 0 0 1
    outer loop
      vertex -2.24753 11.4472 11.99
      vertex -2.43738 11.2127 11.99
      vertex -2.24753 10.9666 11.99
    endloop
  endfacet
  facet normal 0 0 1
    outer loop
      vertex -2.43738 11.2127 11.99
      vertex -2.353 11.4003 11.99
      vertex -2.41628 11.3221 11.99
    endloop
  endfacet
  facet normal 0 0 1
    outer loop
      vertex -2.24753 10.9666 11.99
      vertex -2.43738 11.2127 11.99
      vertex -2.353 11.0158 11.99
    endloop
  endfacet
  facet normal 0 0 1
    outer loop
      vertex -2.353 11.0158 11.99
      vertex -2.43738 11.2127 11.99
      vertex -2.41628 11.0978 11.99
    endloop
  endfacet
  facet normal 0 0 1
    outer loop
      vertex -2.33739 6.9528 11.99
      vertex -0.949936 10.9501 11.99
      vertex -1.43738 10.9501 11.99
    endloop
  endfacet
  facet normal 0 0 1
    outer loop
      vertex -0.949936 10.9501 11.99
      vertex -2.33739 6.9528 11.99
      vertex -1.99988 6.25 11.99
    endloop
  endfacet
  facet normal 0 0 1
    outer loop
      vertex -2.33739 6.9528 11.99
      vertex -2.63736 6.25 11.99
      vertex -1.99988 6.25 11.99
    endloop
  endfacet
  facet normal -0 0 1
    outer loop
      vertex -3.74976 9.48756 11.99
      vertex -2.33739 6.9528 11.99
      vertex -3.41225 10.1394 11.99
    endloop
  endfacet
  facet normal 0 0 1
    outer loop
      vertex -2.33739 6.9528 11.99
      vertex -3.74976 9.48756 11.99
      vertex -2.63736 6.25 11.99
    endloop
  endfacet
  facet normal -0 0 1
    outer loop
      vertex -4.04973 10.139 11.99
      vertex -3.74976 9.48756 11.99
      vertex -3.41225 10.1394 11.99
    endloop
  endfacet
  facet normal 0 0 1
    outer loop
      vertex -5.16212 6.93985 11.99
      vertex -3.74976 9.48756 11.99
      vertex -4.04973 10.139 11.99
    endloop
  endfacet
  facet normal 0 0 1
    outer loop
      vertex -3.74976 9.48756 11.99
      vertex -5.16212 6.93985 11.99
      vertex -4.88718 6.25 11.99
    endloop
  endfacet
  facet normal 0 0 1
    outer loop
      vertex -5.16212 6.93985 11.99
      vertex -5.51213 6.25 11.99
      vertex -4.88718 6.25 11.99
    endloop
  endfacet
  facet normal -0 0 1
    outer loop
      vertex -6.54956 10.9501 11.99
      vertex -5.16212 6.93985 11.99
      vertex -6.0246 10.9501 11.99
    endloop
  endfacet
  facet normal 0 0 1
    outer loop
      vertex -5.16212 6.93985 11.99
      vertex -6.54956 10.9501 11.99
      vertex -5.51213 6.25 11.99
    endloop
  endfacet
  facet normal 0.943469 -0.33146 0
    outer loop
      vertex -4.88718 6.25 11.99
      vertex -3.74976 9.48756 10
      vertex -3.74976 9.48756 11.99
    endloop
  endfacet
  facet normal 0.943469 -0.33146 0
    outer loop
      vertex -3.74976 9.48756 10
      vertex -4.88718 6.25 11.99
      vertex -4.88718 6.25 10
    endloop
  endfacet
  facet normal 0 -1 0
    outer loop
      vertex -5.51213 6.25 10
      vertex -4.88718 6.25 11.99
      vertex -5.51213 6.25 11.99
    endloop
  endfacet
  facet normal 0 -1 -0
    outer loop
      vertex -4.88718 6.25 11.99
      vertex -5.51213 6.25 10
      vertex -4.88718 6.25 10
    endloop
  endfacet
  facet normal -0.976496 -0.215537 0
    outer loop
      vertex -5.51213 6.25 10
      vertex -6.54956 10.9501 11.99
      vertex -6.54956 10.9501 10
    endloop
  endfacet
  facet normal -0.976496 -0.215537 0
    outer loop
      vertex -6.54956 10.9501 11.99
      vertex -5.51213 6.25 10
      vertex -5.51213 6.25 11.99
    endloop
  endfacet
  facet normal 0 -1 0
    outer loop
      vertex -6.78708 10.9501 10
      vertex -6.54956 10.9501 11.99
      vertex -6.78708 10.9501 11.99
    endloop
  endfacet
  facet normal 0 -1 -0
    outer loop
      vertex -6.54956 10.9501 11.99
      vertex -6.78708 10.9501 10
      vertex -6.54956 10.9501 10
    endloop
  endfacet
  facet normal -0.111067 -0.993813 0
    outer loop
      vertex -6.93472 10.9666 10
      vertex -6.78708 10.9501 11.99
      vertex -6.93472 10.9666 11.99
    endloop
  endfacet
  facet normal -0.111067 -0.993813 -0
    outer loop
      vertex -6.78708 10.9501 11.99
      vertex -6.93472 10.9666 10
      vertex -6.78708 10.9501 10
    endloop
  endfacet
  facet normal -0.422749 -0.906247 0
    outer loop
      vertex -7.04019 11.0158 10
      vertex -6.93472 10.9666 11.99
      vertex -7.04019 11.0158 11.99
    endloop
  endfacet
  facet normal -0.422749 -0.906247 -0
    outer loop
      vertex -6.93472 10.9666 11.99
      vertex -7.04019 11.0158 10
      vertex -6.93472 10.9666 10
    endloop
  endfacet
  facet normal -0.791582 -0.611063 0
    outer loop
      vertex -7.04019 11.0158 10
      vertex -7.10349 11.0978 11.99
      vertex -7.10349 11.0978 10
    endloop
  endfacet
  facet normal -0.791582 -0.611063 0
    outer loop
      vertex -7.10349 11.0978 11.99
      vertex -7.04019 11.0158 10
      vertex -7.04019 11.0158 11.99
    endloop
  endfacet
  facet normal -0.983584 -0.180452 0
    outer loop
      vertex -7.10349 11.0978 10
      vertex -7.12457 11.2127 11.99
      vertex -7.12457 11.2127 10
    endloop
  endfacet
  facet normal -0.983584 -0.180452 0
    outer loop
      vertex -7.12457 11.2127 11.99
      vertex -7.10349 11.0978 10
      vertex -7.10349 11.0978 11.99
    endloop
  endfacet
  facet normal -0.981937 0.189207 0
    outer loop
      vertex -7.12457 11.2127 10
      vertex -7.10349 11.3221 11.99
      vertex -7.10349 11.3221 10
    endloop
  endfacet
  facet normal -0.981937 0.189207 0
    outer loop
      vertex -7.10349 11.3221 11.99
      vertex -7.12457 11.2127 10
      vertex -7.12457 11.2127 11.99
    endloop
  endfacet
  facet normal -0.777268 0.62917 0
    outer loop
      vertex -7.10349 11.3221 10
      vertex -7.04019 11.4003 11.99
      vertex -7.04019 11.4003 10
    endloop
  endfacet
  facet normal -0.777268 0.62917 0
    outer loop
      vertex -7.04019 11.4003 11.99
      vertex -7.10349 11.3221 10
      vertex -7.10349 11.3221 11.99
    endloop
  endfacet
  facet normal -0.406315 0.913733 0
    outer loop
      vertex -6.93472 11.4472 10
      vertex -7.04019 11.4003 11.99
      vertex -6.93472 11.4472 11.99
    endloop
  endfacet
  facet normal -0.406315 0.913733 0
    outer loop
      vertex -7.04019 11.4003 11.99
      vertex -6.93472 11.4472 10
      vertex -7.04019 11.4003 10
    endloop
  endfacet
  facet normal -0.105077 0.994464 0
    outer loop
      vertex -6.78708 11.4628 10
      vertex -6.93472 11.4472 11.99
      vertex -6.78708 11.4628 11.99
    endloop
  endfacet
  facet normal -0.105077 0.994464 0
    outer loop
      vertex -6.93472 11.4472 11.99
      vertex -6.78708 11.4628 10
      vertex -6.93472 11.4472 10
    endloop
  endfacet
  facet normal 0 1 -0
    outer loop
      vertex -5.39963 11.4628 10
      vertex -6.78708 11.4628 11.99
      vertex -5.39963 11.4628 11.99
    endloop
  endfacet
  facet normal 0 1 0
    outer loop
      vertex -6.78708 11.4628 11.99
      vertex -5.39963 11.4628 10
      vertex -6.78708 11.4628 10
    endloop
  endfacet
  facet normal 0.10507 0.994465 -0
    outer loop
      vertex -5.25198 11.4472 10
      vertex -5.39963 11.4628 11.99
      vertex -5.25198 11.4472 11.99
    endloop
  endfacet
  facet normal 0.10507 0.994465 0
    outer loop
      vertex -5.39963 11.4628 11.99
      vertex -5.25198 11.4472 10
      vertex -5.39963 11.4628 10
    endloop
  endfacet
  facet normal 0.406315 0.913733 -0
    outer loop
      vertex -5.14651 11.4003 10
      vertex -5.25198 11.4472 11.99
      vertex -5.14651 11.4003 11.99
    endloop
  endfacet
  facet normal 0.406315 0.913733 0
    outer loop
      vertex -5.25198 11.4472 11.99
      vertex -5.14651 11.4003 10
      vertex -5.25198 11.4472 10
    endloop
  endfacet
  facet normal 0.777317 0.62911 0
    outer loop
      vertex -5.08322 11.3221 11.99
      vertex -5.14651 11.4003 10
      vertex -5.14651 11.4003 11.99
    endloop
  endfacet
  facet normal 0.777317 0.62911 0
    outer loop
      vertex -5.14651 11.4003 10
      vertex -5.08322 11.3221 11.99
      vertex -5.08322 11.3221 10
    endloop
  endfacet
  facet normal 0.981921 0.189293 0
    outer loop
      vertex -5.06213 11.2127 11.99
      vertex -5.08322 11.3221 10
      vertex -5.08322 11.3221 11.99
    endloop
  endfacet
  facet normal 0.981921 0.189293 0
    outer loop
      vertex -5.08322 11.3221 10
      vertex -5.06213 11.2127 11.99
      vertex -5.06213 11.2127 10
    endloop
  endfacet
  facet normal 0.983569 -0.180535 0
    outer loop
      vertex -5.08322 11.0978 11.99
      vertex -5.06213 11.2127 10
      vertex -5.06213 11.2127 11.99
    endloop
  endfacet
  facet normal 0.983569 -0.180535 0
    outer loop
      vertex -5.06213 11.2127 10
      vertex -5.08322 11.0978 11.99
      vertex -5.08322 11.0978 10
    endloop
  endfacet
  facet normal 0.791629 -0.611002 0
    outer loop
      vertex -5.14651 11.0158 11.99
      vertex -5.08322 11.0978 10
      vertex -5.08322 11.0978 11.99
    endloop
  endfacet
  facet normal 0.791629 -0.611002 0
    outer loop
      vertex -5.08322 11.0978 10
      vertex -5.14651 11.0158 11.99
      vertex -5.14651 11.0158 10
    endloop
  endfacet
  facet normal 0.422749 -0.906247 0
    outer loop
      vertex -5.25198 10.9666 10
      vertex -5.14651 11.0158 11.99
      vertex -5.25198 10.9666 11.99
    endloop
  endfacet
  facet normal 0.422749 -0.906247 0
    outer loop
      vertex -5.14651 11.0158 11.99
      vertex -5.25198 10.9666 10
      vertex -5.14651 11.0158 10
    endloop
  endfacet
  facet normal 0.111059 -0.993814 0
    outer loop
      vertex -5.39963 10.9501 10
      vertex -5.25198 10.9666 11.99
      vertex -5.39963 10.9501 11.99
    endloop
  endfacet
  facet normal 0.111059 -0.993814 0
    outer loop
      vertex -5.25198 10.9666 11.99
      vertex -5.39963 10.9501 10
      vertex -5.25198 10.9666 10
    endloop
  endfacet
  facet normal 0 -1 0
    outer loop
      vertex -6.0246 10.9501 10
      vertex -5.39963 10.9501 11.99
      vertex -6.0246 10.9501 11.99
    endloop
  endfacet
  facet normal 0 -1 -0
    outer loop
      vertex -5.39963 10.9501 11.99
      vertex -6.0246 10.9501 10
      vertex -5.39963 10.9501 10
    endloop
  endfacet
  facet normal 0.977645 0.210261 0
    outer loop
      vertex -5.16212 6.93985 11.99
      vertex -6.0246 10.9501 10
      vertex -6.0246 10.9501 11.99
    endloop
  endfacet
  facet normal 0.977645 0.210261 0
    outer loop
      vertex -6.0246 10.9501 10
      vertex -5.16212 6.93985 11.99
      vertex -5.16212 6.93985 10
    endloop
  endfacet
  facet normal -0.94453 0.328426 0
    outer loop
      vertex -5.16212 6.93985 10
      vertex -4.04973 10.139 11.99
      vertex -4.04973 10.139 10
    endloop
  endfacet
  facet normal -0.94453 0.328426 0
    outer loop
      vertex -4.04973 10.139 11.99
      vertex -5.16212 6.93985 10
      vertex -5.16212 6.93985 11.99
    endloop
  endfacet
  facet normal -0.000627471 1 0
    outer loop
      vertex -3.41225 10.1394 10
      vertex -4.04973 10.139 11.99
      vertex -3.41225 10.1394 11.99
    endloop
  endfacet
  facet normal -0.000627471 1 0
    outer loop
      vertex -4.04973 10.139 11.99
      vertex -3.41225 10.1394 10
      vertex -4.04973 10.139 10
    endloop
  endfacet
  facet normal 0.947548 0.319614 0
    outer loop
      vertex -2.33739 6.9528 11.99
      vertex -3.41225 10.1394 10
      vertex -3.41225 10.1394 11.99
    endloop
  endfacet
  facet normal 0.947548 0.319614 0
    outer loop
      vertex -3.41225 10.1394 10
      vertex -2.33739 6.9528 11.99
      vertex -2.33739 6.9528 10
    endloop
  endfacet
  facet normal -0.975577 0.219656 0
    outer loop
      vertex -2.33739 6.9528 10
      vertex -1.43738 10.9501 11.99
      vertex -1.43738 10.9501 10
    endloop
  endfacet
  facet normal -0.975577 0.219656 0
    outer loop
      vertex -1.43738 10.9501 11.99
      vertex -2.33739 6.9528 10
      vertex -2.33739 6.9528 11.99
    endloop
  endfacet
  facet normal 0 -1 0
    outer loop
      vertex -2.09987 10.9501 10
      vertex -1.43738 10.9501 11.99
      vertex -2.09987 10.9501 11.99
    endloop
  endfacet
  facet normal 0 -1 -0
    outer loop
      vertex -1.43738 10.9501 11.99
      vertex -2.09987 10.9501 10
      vertex -1.43738 10.9501 10
    endloop
  endfacet
  facet normal -0.111052 -0.993815 0
    outer loop
      vertex -2.24753 10.9666 10
      vertex -2.09987 10.9501 11.99
      vertex -2.24753 10.9666 11.99
    endloop
  endfacet
  facet normal -0.111052 -0.993815 -0
    outer loop
      vertex -2.09987 10.9501 11.99
      vertex -2.24753 10.9666 10
      vertex -2.09987 10.9501 10
    endloop
  endfacet
  facet normal -0.422749 -0.906247 0
    outer loop
      vertex -2.353 11.0158 10
      vertex -2.24753 10.9666 11.99
      vertex -2.353 11.0158 11.99
    endloop
  endfacet
  facet normal -0.422749 -0.906247 -0
    outer loop
      vertex -2.24753 10.9666 11.99
      vertex -2.353 11.0158 10
      vertex -2.24753 10.9666 10
    endloop
  endfacet
  facet normal -0.791676 -0.610942 0
    outer loop
      vertex -2.353 11.0158 10
      vertex -2.41628 11.0978 11.99
      vertex -2.41628 11.0978 10
    endloop
  endfacet
  facet normal -0.791676 -0.610942 0
    outer loop
      vertex -2.41628 11.0978 11.99
      vertex -2.353 11.0158 10
      vertex -2.353 11.0158 11.99
    endloop
  endfacet
  facet normal -0.983553 -0.180618 0
    outer loop
      vertex -2.41628 11.0978 10
      vertex -2.43738 11.2127 11.99
      vertex -2.43738 11.2127 10
    endloop
  endfacet
  facet normal -0.983553 -0.180618 0
    outer loop
      vertex -2.43738 11.2127 11.99
      vertex -2.41628 11.0978 10
      vertex -2.41628 11.0978 11.99
    endloop
  endfacet
  facet normal -0.981904 0.18938 0
    outer loop
      vertex -2.43738 11.2127 10
      vertex -2.41628 11.3221 11.99
      vertex -2.41628 11.3221 10
    endloop
  endfacet
  facet normal -0.981904 0.18938 0
    outer loop
      vertex -2.41628 11.3221 11.99
      vertex -2.43738 11.2127 10
      vertex -2.43738 11.2127 11.99
    endloop
  endfacet
  facet normal -0.777365 0.62905 0
    outer loop
      vertex -2.41628 11.3221 10
      vertex -2.353 11.4003 11.99
      vertex -2.353 11.4003 10
    endloop
  endfacet
  facet normal -0.777365 0.62905 0
    outer loop
      vertex -2.353 11.4003 11.99
      vertex -2.41628 11.3221 10
      vertex -2.41628 11.3221 11.99
    endloop
  endfacet
  facet normal -0.406315 0.913733 0
    outer loop
      vertex -2.24753 11.4472 10
      vertex -2.353 11.4003 11.99
      vertex -2.24753 11.4472 11.99
    endloop
  endfacet
  facet normal -0.406315 0.913733 0
    outer loop
      vertex -2.353 11.4003 11.99
      vertex -2.24753 11.4472 10
      vertex -2.353 11.4003 10
    endloop
  endfacet
  facet normal -0.105063 0.994466 0
    outer loop
      vertex -2.09987 11.4628 10
      vertex -2.24753 11.4472 11.99
      vertex -2.09987 11.4628 11.99
    endloop
  endfacet
  facet normal -0.105063 0.994466 0
    outer loop
      vertex -2.24753 11.4472 11.99
      vertex -2.09987 11.4628 10
      vertex -2.24753 11.4472 10
    endloop
  endfacet
  facet normal 0 1 -0
    outer loop
      vertex -0.712433 11.4628 10
      vertex -2.09987 11.4628 11.99
      vertex -0.712433 11.4628 11.99
    endloop
  endfacet
  facet normal 0 1 0
    outer loop
      vertex -2.09987 11.4628 11.99
      vertex -0.712433 11.4628 10
      vertex -2.09987 11.4628 10
    endloop
  endfacet
  facet normal 0.105064 0.994465 -0
    outer loop
      vertex -0.564774 11.4472 10
      vertex -0.712433 11.4628 11.99
      vertex -0.564774 11.4472 11.99
    endloop
  endfacet
  facet normal 0.105064 0.994465 0
    outer loop
      vertex -0.712433 11.4628 11.99
      vertex -0.564774 11.4472 10
      vertex -0.712433 11.4628 10
    endloop
  endfacet
  facet normal 0.406319 0.913732 -0
    outer loop
      vertex -0.459305 11.4003 10
      vertex -0.564774 11.4472 11.99
      vertex -0.459305 11.4003 11.99
    endloop
  endfacet
  facet normal 0.406319 0.913732 0
    outer loop
      vertex -0.564774 11.4472 11.99
      vertex -0.459305 11.4003 10
      vertex -0.564774 11.4472 10
    endloop
  endfacet
  facet normal 0.777375 0.629038 0
    outer loop
      vertex -0.396027 11.3221 11.99
      vertex -0.459305 11.4003 10
      vertex -0.459305 11.4003 11.99
    endloop
  endfacet
  facet normal 0.777375 0.629038 0
    outer loop
      vertex -0.459305 11.4003 10
      vertex -0.396027 11.3221 11.99
      vertex -0.396027 11.3221 10
    endloop
  endfacet
  facet normal 0.981924 0.189276 0
    outer loop
      vertex -0.374939 11.2127 11.99
      vertex -0.396027 11.3221 10
      vertex -0.396027 11.3221 11.99
    endloop
  endfacet
  facet normal 0.981924 0.189276 0
    outer loop
      vertex -0.396027 11.3221 10
      vertex -0.374939 11.2127 11.99
      vertex -0.374939 11.2127 10
    endloop
  endfacet
  facet normal 0.983572 -0.180518 0
    outer loop
      vertex -0.396027 11.0978 11.99
      vertex -0.374939 11.2127 10
      vertex -0.374939 11.2127 11.99
    endloop
  endfacet
  facet normal 0.983572 -0.180518 0
    outer loop
      vertex -0.374939 11.2127 10
      vertex -0.396027 11.0978 11.99
      vertex -0.396027 11.0978 10
    endloop
  endfacet
  facet normal 0.791685 -0.61093 0
    outer loop
      vertex -0.459305 11.0158 11.99
      vertex -0.396027 11.0978 10
      vertex -0.396027 11.0978 11.99
    endloop
  endfacet
  facet normal 0.791685 -0.61093 0
    outer loop
      vertex -0.396027 11.0978 10
      vertex -0.459305 11.0158 11.99
      vertex -0.459305 11.0158 10
    endloop
  endfacet
  facet normal 0.422752 -0.906245 0
    outer loop
      vertex -0.564774 10.9666 10
      vertex -0.459305 11.0158 11.99
      vertex -0.564774 10.9666 11.99
    endloop
  endfacet
  facet normal 0.422752 -0.906245 0
    outer loop
      vertex -0.459305 11.0158 11.99
      vertex -0.564774 10.9666 10
      vertex -0.459305 11.0158 10
    endloop
  endfacet
  facet normal 0.111053 -0.993815 0
    outer loop
      vertex -0.712433 10.9501 10
      vertex -0.564774 10.9666 11.99
      vertex -0.712433 10.9501 11.99
    endloop
  endfacet
  facet normal 0.111053 -0.993815 0
    outer loop
      vertex -0.564774 10.9666 11.99
      vertex -0.712433 10.9501 10
      vertex -0.564774 10.9666 10
    endloop
  endfacet
  facet normal 0 -1 0
    outer loop
      vertex -0.949936 10.9501 10
      vertex -0.712433 10.9501 11.99
      vertex -0.949936 10.9501 11.99
    endloop
  endfacet
  facet normal 0 -1 -0
    outer loop
      vertex -0.712433 10.9501 11.99
      vertex -0.949936 10.9501 10
      vertex -0.712433 10.9501 10
    endloop
  endfacet
  facet normal 0.975946 -0.218014 0
    outer loop
      vertex -1.99988 6.25 11.99
      vertex -0.949936 10.9501 10
      vertex -0.949936 10.9501 11.99
    endloop
  endfacet
  facet normal 0.975946 -0.218014 0
    outer loop
      vertex -0.949936 10.9501 10
      vertex -1.99988 6.25 11.99
      vertex -1.99988 6.25 10
    endloop
  endfacet
  facet normal 0 -1 0
    outer loop
      vertex -2.63736 6.25 10
      vertex -1.99988 6.25 11.99
      vertex -2.63736 6.25 11.99
    endloop
  endfacet
  facet normal 0 -1 -0
    outer loop
      vertex -1.99988 6.25 11.99
      vertex -2.63736 6.25 10
      vertex -1.99988 6.25 10
    endloop
  endfacet
  facet normal -0.945733 -0.324946 0
    outer loop
      vertex -2.63736 6.25 10
      vertex -3.74976 9.48756 11.99
      vertex -3.74976 9.48756 10
    endloop
  endfacet
  facet normal -0.945733 -0.324946 0
    outer loop
      vertex -3.74976 9.48756 11.99
      vertex -2.63736 6.25 10
      vertex -2.63736 6.25 11.99
    endloop
  endfacet
endsolid OpenSCAD_Model
