solid OpenSCAD_Model
  facet normal 0 0 1
    outer loop
      vertex -2.92794 6.7001 10
      vertex -4.95906 6.7001 10
      vertex -2.99121 6.62195 10
    endloop
  endfacet
  facet normal 0 0 1
    outer loop
      vertex -4.95906 6.7001 10
      vertex -2.92794 6.7001 10
      vertex -3.92473 9.43896 10
    endloop
  endfacet
  facet normal 0 0 1
    outer loop
      vertex -2.82247 6.74699 10
      vertex -3.92473 9.43896 10
      vertex -2.92794 6.7001 10
    endloop
  endfacet
  facet normal 0 0 1
    outer loop
      vertex -2.67481 6.76263 10
      vertex -3.92473 9.43896 10
      vertex -2.82247 6.74699 10
    endloop
  endfacet
  facet normal 0 0 1
    outer loop
      vertex -3.92473 9.43896 10
      vertex -2.67481 6.76263 10
      vertex -1.8749 6.76263 10
    endloop
  endfacet
  facet normal 0 0 1
    outer loop
      vertex 0 14.5 10
      vertex -0.699939 6.51253 10
      vertex 0 2.5 10
    endloop
  endfacet
  facet normal 0 0 1
    outer loop
      vertex 0 14.5 10
      vertex -0.721042 6.62195 10
      vertex -0.699939 6.51253 10
    endloop
  endfacet
  facet normal -0 0 1
    outer loop
      vertex -0.858554 12.9238 10
      vertex -0.721042 6.62195 10
      vertex 0 14.5 10
    endloop
  endfacet
  facet normal 0 0 1
    outer loop
      vertex -0.858554 12.9238 10
      vertex 0 14.5 10
      vertex -0.837466 13.0386 10
    endloop
  endfacet
  facet normal 0 0 1
    outer loop
      vertex 0 14.5 10
      vertex -0.858554 13.148 10
      vertex -0.837466 13.0386 10
    endloop
  endfacet
  facet normal 0 0 1
    outer loop
      vertex 0 14.5 10
      vertex -0.921832 13.2262 10
      vertex -0.858554 13.148 10
    endloop
  endfacet
  facet normal 0 0 1
    outer loop
      vertex 0 14.5 10
      vertex -1.0273 13.2731 10
      vertex -0.921832 13.2262 10
    endloop
  endfacet
  facet normal 0 0 1
    outer loop
      vertex 0 14.5 10
      vertex -1.17496 13.2887 10
      vertex -1.0273 13.2731 10
    endloop
  endfacet
  facet normal 0 0 1
    outer loop
      vertex 0 14.5 10
      vertex -2.54981 13.2887 10
      vertex -1.17496 13.2887 10
    endloop
  endfacet
  facet normal 0 0 1
    outer loop
      vertex 0 14.5 10
      vertex -2.69745 13.2731 10
      vertex -2.54981 13.2887 10
    endloop
  endfacet
  facet normal 0 0 1
    outer loop
      vertex -5.15201 13.2731 10
      vertex -2.69745 13.2731 10
      vertex 0 14.5 10
    endloop
  endfacet
  facet normal 0 0 1
    outer loop
      vertex -4.96216 13.0386 10
      vertex -2.8873 13.0386 10
      vertex -2.86621 13.148 10
    endloop
  endfacet
  facet normal 0 0 1
    outer loop
      vertex -2.8873 13.0386 10
      vertex -4.96216 13.0386 10
      vertex -4.98325 12.9238 10
    endloop
  endfacet
  facet normal 0 0 1
    outer loop
      vertex -4.98325 13.148 10
      vertex -2.86621 13.148 10
      vertex -2.80292 13.2262 10
    endloop
  endfacet
  facet normal 0 0 1
    outer loop
      vertex -2.69745 13.2731 10
      vertex -5.15201 13.2731 10
      vertex -2.80292 13.2262 10
    endloop
  endfacet
  facet normal 0 0 1
    outer loop
      vertex -2.86621 13.148 10
      vertex -4.98325 13.148 10
      vertex -4.96216 13.0386 10
    endloop
  endfacet
  facet normal 0 0 1
    outer loop
      vertex -2.80292 13.2262 10
      vertex -5.04654 13.2262 10
      vertex -4.98325 13.148 10
    endloop
  endfacet
  facet normal 0 0 1
    outer loop
      vertex -2.80292 13.2262 10
      vertex -5.15201 13.2731 10
      vertex -5.04654 13.2262 10
    endloop
  endfacet
  facet normal -0 0 1
    outer loop
      vertex -8 14.5 10
      vertex -5.15201 13.2731 10
      vertex 0 14.5 10
    endloop
  endfacet
  facet normal 0 0 1
    outer loop
      vertex -5.15201 13.2731 10
      vertex -8 14.5 10
      vertex -5.29965 13.2887 10
    endloop
  endfacet
  facet normal 0 0 1
    outer loop
      vertex -5.29965 13.2887 10
      vertex -8 14.5 10
      vertex -6.68711 13.2887 10
    endloop
  endfacet
  facet normal 0 0 1
    outer loop
      vertex -7.00342 12.9238 10
      vertex -7.17847 6.62195 10
      vertex -7.11519 6.7001 10
    endloop
  endfacet
  facet normal 0 0 1
    outer loop
      vertex -7.00342 12.9238 10
      vertex -8 14.5 10
      vertex -7.17847 6.62195 10
    endloop
  endfacet
  facet normal 0 0 1
    outer loop
      vertex -7.17847 6.62195 10
      vertex -8 14.5 10
      vertex -7.19956 6.51253 10
    endloop
  endfacet
  facet normal 0 0 1
    outer loop
      vertex -7.00342 13.148 10
      vertex -8 14.5 10
      vertex -7.02451 13.0386 10
    endloop
  endfacet
  facet normal 0 0 1
    outer loop
      vertex -6.94016 13.2262 10
      vertex -8 14.5 10
      vertex -7.00342 13.148 10
    endloop
  endfacet
  facet normal 0 0 1
    outer loop
      vertex -6.83472 13.2731 10
      vertex -8 14.5 10
      vertex -6.94016 13.2262 10
    endloop
  endfacet
  facet normal 0 0 1
    outer loop
      vertex -6.68711 13.2887 10
      vertex -8 14.5 10
      vertex -6.83472 13.2731 10
    endloop
  endfacet
  facet normal -0 0 1
    outer loop
      vertex -0.721042 6.39766 10
      vertex 0 2.5 10
      vertex -0.699939 6.51253 10
    endloop
  endfacet
  facet normal -0 0 1
    outer loop
      vertex -0.78432 6.31563 10
      vertex 0 2.5 10
      vertex -0.721042 6.39766 10
    endloop
  endfacet
  facet normal -0 0 1
    outer loop
      vertex -0.889789 6.2664 10
      vertex 0 2.5 10
      vertex -0.78432 6.31563 10
    endloop
  endfacet
  facet normal -0 0 1
    outer loop
      vertex -1.03745 6.25 10
      vertex 0 2.5 10
      vertex -0.889789 6.2664 10
    endloop
  endfacet
  facet normal -0 0 1
    outer loop
      vertex -2.67481 6.25 10
      vertex 0 2.5 10
      vertex -1.03745 6.25 10
    endloop
  endfacet
  facet normal 0 0 1
    outer loop
      vertex -2.82247 6.2664 10
      vertex 0 2.5 10
      vertex -2.67481 6.25 10
    endloop
  endfacet
  facet normal 0 0 1
    outer loop
      vertex -5.06453 6.2664 10
      vertex -2.82247 6.2664 10
      vertex -2.92794 6.31563 10
    endloop
  endfacet
  facet normal 0 0 1
    outer loop
      vertex -4.95906 6.31563 10
      vertex -2.92794 6.31563 10
      vertex -2.99121 6.39766 10
    endloop
  endfacet
  facet normal 0 -0 1
    outer loop
      vertex -4.89577 6.62195 10
      vertex -2.99121 6.62195 10
      vertex -4.95906 6.7001 10
    endloop
  endfacet
  facet normal 0 0 1
    outer loop
      vertex -2.99121 6.62195 10
      vertex -4.89577 6.62195 10
      vertex -3.01232 6.51253 10
    endloop
  endfacet
  facet normal 0 0 1
    outer loop
      vertex -4.89577 6.39766 10
      vertex -2.99121 6.39766 10
      vertex -4.87468 6.51253 10
    endloop
  endfacet
  facet normal 0 0 1
    outer loop
      vertex -4.95906 6.31563 10
      vertex -2.99121 6.39766 10
      vertex -4.89577 6.39766 10
    endloop
  endfacet
  facet normal 0 0 1
    outer loop
      vertex -2.92794 6.31563 10
      vertex -4.95906 6.31563 10
      vertex -5.06453 6.2664 10
    endloop
  endfacet
  facet normal 0 0 1
    outer loop
      vertex -2.82247 6.2664 10
      vertex -5.06453 6.2664 10
      vertex 0 2.5 10
    endloop
  endfacet
  facet normal 0 0 1
    outer loop
      vertex -8 2.5 10
      vertex -5.06453 6.2664 10
      vertex -5.21218 6.25 10
    endloop
  endfacet
  facet normal 0 0 1
    outer loop
      vertex -8 2.5 10
      vertex -5.21218 6.25 10
      vertex -6.86206 6.25 10
    endloop
  endfacet
  facet normal 0 0 1
    outer loop
      vertex -8 2.5 10
      vertex -6.86206 6.25 10
      vertex -7.00972 6.2664 10
    endloop
  endfacet
  facet normal 0 0 1
    outer loop
      vertex -8 2.5 10
      vertex -7.00972 6.2664 10
      vertex -7.11519 6.31563 10
    endloop
  endfacet
  facet normal 0 0 1
    outer loop
      vertex -5.06453 6.2664 10
      vertex -8 2.5 10
      vertex 0 2.5 10
    endloop
  endfacet
  facet normal 0 0 1
    outer loop
      vertex -7.17847 6.39766 10
      vertex -8 2.5 10
      vertex -7.11519 6.31563 10
    endloop
  endfacet
  facet normal 0 0 1
    outer loop
      vertex -7.19956 6.51253 10
      vertex -8 2.5 10
      vertex -7.17847 6.39766 10
    endloop
  endfacet
  facet normal 0 0 1
    outer loop
      vertex -8 2.5 10
      vertex -7.19956 6.51253 10
      vertex -8 14.5 10
    endloop
  endfacet
  facet normal 0 0 1
    outer loop
      vertex -0.721042 6.62195 10
      vertex -0.858554 12.9238 10
      vertex -0.78432 6.7001 10
    endloop
  endfacet
  facet normal -0 0 1
    outer loop
      vertex -0.921832 12.8417 10
      vertex -0.78432 6.7001 10
      vertex -0.858554 12.9238 10
    endloop
  endfacet
  facet normal 0 0 1
    outer loop
      vertex -0.78432 6.7001 10
      vertex -0.921832 12.8417 10
      vertex -0.889789 6.74699 10
    endloop
  endfacet
  facet normal -0 0 1
    outer loop
      vertex -1.0273 12.7925 10
      vertex -0.889789 6.74699 10
      vertex -0.921832 12.8417 10
    endloop
  endfacet
  facet normal -0 0 1
    outer loop
      vertex -3.59975 9.85387 10
      vertex -0.889789 6.74699 10
      vertex -1.0273 12.7925 10
    endloop
  endfacet
  facet normal 0 0 1
    outer loop
      vertex -3.59975 9.85387 10
      vertex -1.0273 12.7925 10
      vertex -1.17496 12.7761 10
    endloop
  endfacet
  facet normal 0 0 1
    outer loop
      vertex -0.889789 6.74699 10
      vertex -3.59975 9.85387 10
      vertex -1.03745 6.76263 10
    endloop
  endfacet
  facet normal 0 0 1
    outer loop
      vertex -3.59975 9.85387 10
      vertex -1.17496 12.7761 10
      vertex -1.36243 12.7761 10
    endloop
  endfacet
  facet normal 0 0 1
    outer loop
      vertex -1.03745 6.76263 10
      vertex -3.59975 9.85387 10
      vertex -1.24993 6.76263 10
    endloop
  endfacet
  facet normal -0 0 1
    outer loop
      vertex -2.54981 12.7761 10
      vertex -3.94976 10.2668 10
      vertex -2.01241 12.7761 10
    endloop
  endfacet
  facet normal 0 0 1
    outer loop
      vertex -2.69745 12.7925 10
      vertex -3.94976 10.2668 10
      vertex -2.54981 12.7761 10
    endloop
  endfacet
  facet normal 0 0 1
    outer loop
      vertex -2.80292 12.8417 10
      vertex -3.94976 10.2668 10
      vertex -2.69745 12.7925 10
    endloop
  endfacet
  facet normal 0 0 1
    outer loop
      vertex -2.86621 12.9238 10
      vertex -3.94976 10.2668 10
      vertex -2.80292 12.8417 10
    endloop
  endfacet
  facet normal 0 0 1
    outer loop
      vertex -3.94976 10.2668 10
      vertex -2.86621 12.9238 10
      vertex -2.8873 13.0386 10
    endloop
  endfacet
  facet normal 0 0 1
    outer loop
      vertex -3.01232 6.51253 10
      vertex -4.87468 6.51253 10
      vertex -2.99121 6.39766 10
    endloop
  endfacet
  facet normal 0 -0 1
    outer loop
      vertex -4.87468 6.51253 10
      vertex -3.01232 6.51253 10
      vertex -4.89577 6.62195 10
    endloop
  endfacet
  facet normal 0 0 1
    outer loop
      vertex -3.92473 9.43896 10
      vertex -5.06453 6.74699 10
      vertex -4.95906 6.7001 10
    endloop
  endfacet
  facet normal 0 0 1
    outer loop
      vertex -3.92473 9.43896 10
      vertex -5.21218 6.76263 10
      vertex -5.06453 6.74699 10
    endloop
  endfacet
  facet normal 0 -0 1
    outer loop
      vertex -5.21218 6.76263 10
      vertex -3.92473 9.43896 10
      vertex -5.98708 6.76263 10
    endloop
  endfacet
  facet normal 0 0 1
    outer loop
      vertex -2.8873 13.0386 10
      vertex -4.98325 12.9238 10
      vertex -5.04654 12.8417 10
    endloop
  endfacet
  facet normal 0 0 1
    outer loop
      vertex -2.8873 13.0386 10
      vertex -5.04654 12.8417 10
      vertex -3.94976 10.2668 10
    endloop
  endfacet
  facet normal -0 0 1
    outer loop
      vertex -5.15201 12.7925 10
      vertex -3.94976 10.2668 10
      vertex -5.04654 12.8417 10
    endloop
  endfacet
  facet normal -0 0 1
    outer loop
      vertex -5.29965 12.7761 10
      vertex -3.94976 10.2668 10
      vertex -5.15201 12.7925 10
    endloop
  endfacet
  facet normal 0 0 1
    outer loop
      vertex -3.94976 10.2668 10
      vertex -5.29965 12.7761 10
      vertex -5.86215 12.7761 10
    endloop
  endfacet
  facet normal -0 0 1
    outer loop
      vertex -6.68711 12.7761 10
      vertex -4.26223 9.85738 10
      vertex -6.49964 12.7761 10
    endloop
  endfacet
  facet normal 0 0 1
    outer loop
      vertex -6.83472 12.7925 10
      vertex -4.26223 9.85738 10
      vertex -6.68711 12.7761 10
    endloop
  endfacet
  facet normal 0 0 1
    outer loop
      vertex -7.00972 6.74699 10
      vertex -4.26223 9.85738 10
      vertex -6.83472 12.7925 10
    endloop
  endfacet
  facet normal 0 0 1
    outer loop
      vertex -4.26223 9.85738 10
      vertex -6.86206 6.76263 10
      vertex -6.64957 6.76263 10
    endloop
  endfacet
  facet normal 0 0 1
    outer loop
      vertex -7.00972 6.74699 10
      vertex -6.83472 12.7925 10
      vertex -6.94016 12.8417 10
    endloop
  endfacet
  facet normal 0 0 1
    outer loop
      vertex -7.11519 6.7001 10
      vertex -6.94016 12.8417 10
      vertex -7.00342 12.9238 10
    endloop
  endfacet
  facet normal 0 0 1
    outer loop
      vertex -4.26223 9.85738 10
      vertex -7.00972 6.74699 10
      vertex -6.86206 6.76263 10
    endloop
  endfacet
  facet normal 0 0 1
    outer loop
      vertex -8 14.5 10
      vertex -7.00342 12.9238 10
      vertex -7.02451 13.0386 10
    endloop
  endfacet
  facet normal 0 0 1
    outer loop
      vertex -6.94016 12.8417 10
      vertex -7.11519 6.7001 10
      vertex -7.00972 6.74699 10
    endloop
  endfacet
  facet normal -1 0 0
    outer loop
      vertex -8 0 3
      vertex -8 17 3
      vertex -8 17 0
    endloop
  endfacet
  facet normal -1 0 0
    outer loop
      vertex -8 17 3
      vertex -8 0 3
      vertex -8 14.5 10
    endloop
  endfacet
  facet normal -1 0 0
    outer loop
      vertex -8 0 3
      vertex -8 17 0
      vertex -8 0 0
    endloop
  endfacet
  facet normal -1 -0 0
    outer loop
      vertex -8 14.5 10
      vertex -8 0 3
      vertex -8 2.5 10
    endloop
  endfacet
  facet normal 0 1 -0
    outer loop
      vertex 0 17 0
      vertex -8 17 3
      vertex 0 17 3
    endloop
  endfacet
  facet normal 0 1 0
    outer loop
      vertex -8 17 3
      vertex 0 17 0
      vertex -8 17 0
    endloop
  endfacet
  facet normal 0 0 -1
    outer loop
      vertex -8 0 0
      vertex 0 17 0
      vertex 0 0 0
    endloop
  endfacet
  facet normal -0 0 -1
    outer loop
      vertex 0 17 0
      vertex -8 0 0
      vertex -8 17 0
    endloop
  endfacet
  facet normal 1 0 0
    outer loop
      vertex 0 0 3
      vertex 0 17 3
      vertex 0 14.5 10
    endloop
  endfacet
  facet normal 1 0 0
    outer loop
      vertex 0 0 3
      vertex 0 14.5 10
      vertex 0 2.5 10
    endloop
  endfacet
  facet normal 1 0 0
    outer loop
      vertex 0 17 3
      vertex 0 0 3
      vertex 0 17 0
    endloop
  endfacet
  facet normal 1 0 0
    outer loop
      vertex 0 17 0
      vertex 0 0 3
      vertex 0 0 0
    endloop
  endfacet
  facet normal 0 -0.941742 0.336336
    outer loop
      vertex -8 0 3
      vertex 0 2.5 10
      vertex -8 2.5 10
    endloop
  endfacet
  facet normal 0 -0.941742 0.336336
    outer loop
      vertex 0 2.5 10
      vertex -8 0 3
      vertex 0 0 3
    endloop
  endfacet
  facet normal 0 -1 0
    outer loop
      vertex -8 0 0
      vertex 0 0 3
      vertex -8 0 3
    endloop
  endfacet
  facet normal 0 -1 -0
    outer loop
      vertex 0 0 3
      vertex -8 0 0
      vertex 0 0 0
    endloop
  endfacet
  facet normal 0 0.941742 0.336336
    outer loop
      vertex 0 17 3
      vertex -8 14.5 10
      vertex 0 14.5 10
    endloop
  endfacet
  facet normal 0 0.941742 0.336336
    outer loop
      vertex -8 14.5 10
      vertex 0 17 3
      vertex -8 17 3
    endloop
  endfacet
  facet normal 0 0 1
    outer loop
      vertex -5.04654 13.2262 11.99
      vertex -4.96216 13.0386 11.99
      vertex -4.98325 13.148 11.99
    endloop
  endfacet
  facet normal 0 0 1
    outer loop
      vertex -4.96216 13.0386 11.99
      vertex -5.04654 13.2262 11.99
      vertex -5.15201 13.2731 11.99
    endloop
  endfacet
  facet normal 0 0 1
    outer loop
      vertex -5.15201 12.7925 11.99
      vertex -4.96216 13.0386 11.99
      vertex -5.15201 13.2731 11.99
    endloop
  endfacet
  facet normal 0 0 1
    outer loop
      vertex -4.96216 13.0386 11.99
      vertex -5.15201 12.7925 11.99
      vertex -4.98325 12.9238 11.99
    endloop
  endfacet
  facet normal 0 0 1
    outer loop
      vertex -4.98325 12.9238 11.99
      vertex -5.15201 12.7925 11.99
      vertex -5.04654 12.8417 11.99
    endloop
  endfacet
  facet normal 0 0 1
    outer loop
      vertex -5.29965 13.2887 11.99
      vertex -5.15201 12.7925 11.99
      vertex -5.15201 13.2731 11.99
    endloop
  endfacet
  facet normal 0 0 1
    outer loop
      vertex -5.29965 13.2887 11.99
      vertex -5.29965 12.7761 11.99
      vertex -5.15201 12.7925 11.99
    endloop
  endfacet
  facet normal 0 0 1
    outer loop
      vertex -5.29965 13.2887 11.99
      vertex -5.86215 12.7761 11.99
      vertex -5.29965 12.7761 11.99
    endloop
  endfacet
  facet normal -0 0 1
    outer loop
      vertex -6.68711 13.2887 11.99
      vertex -5.86215 12.7761 11.99
      vertex -5.29965 13.2887 11.99
    endloop
  endfacet
  facet normal 0 0 1
    outer loop
      vertex -5.86215 12.7761 11.99
      vertex -6.68711 13.2887 11.99
      vertex -6.49964 12.7761 11.99
    endloop
  endfacet
  facet normal 0 0 1
    outer loop
      vertex -6.68711 13.2887 11.99
      vertex -6.68711 12.7761 11.99
      vertex -6.49964 12.7761 11.99
    endloop
  endfacet
  facet normal -0 0 1
    outer loop
      vertex -6.83472 13.2731 11.99
      vertex -6.68711 12.7761 11.99
      vertex -6.68711 13.2887 11.99
    endloop
  endfacet
  facet normal 0 0 1
    outer loop
      vertex -6.83472 13.2731 11.99
      vertex -6.83472 12.7925 11.99
      vertex -6.68711 12.7761 11.99
    endloop
  endfacet
  facet normal 0 0 1
    outer loop
      vertex -7.02451 13.0386 11.99
      vertex -6.83472 13.2731 11.99
      vertex -6.94016 13.2262 11.99
    endloop
  endfacet
  facet normal 0 0 1
    outer loop
      vertex -6.83472 13.2731 11.99
      vertex -7.02451 13.0386 11.99
      vertex -6.83472 12.7925 11.99
    endloop
  endfacet
  facet normal 0 0 1
    outer loop
      vertex -7.02451 13.0386 11.99
      vertex -6.94016 13.2262 11.99
      vertex -7.00342 13.148 11.99
    endloop
  endfacet
  facet normal 0 0 1
    outer loop
      vertex -6.83472 12.7925 11.99
      vertex -7.02451 13.0386 11.99
      vertex -6.94016 12.8417 11.99
    endloop
  endfacet
  facet normal 0 0 1
    outer loop
      vertex -6.94016 12.8417 11.99
      vertex -7.02451 13.0386 11.99
      vertex -7.00342 12.9238 11.99
    endloop
  endfacet
  facet normal 0 0 1
    outer loop
      vertex -5.86215 12.7761 11.99
      vertex -4.26223 9.85738 11.99
      vertex -3.94976 10.2668 11.99
    endloop
  endfacet
  facet normal 0 0 1
    outer loop
      vertex -4.26223 9.85738 11.99
      vertex -5.86215 12.7761 11.99
      vertex -6.49964 12.7761 11.99
    endloop
  endfacet
  facet normal 0 0 1
    outer loop
      vertex -0.921832 13.2262 11.99
      vertex -0.837466 13.0386 11.99
      vertex -0.858554 13.148 11.99
    endloop
  endfacet
  facet normal 0 0 1
    outer loop
      vertex -0.837466 13.0386 11.99
      vertex -0.921832 13.2262 11.99
      vertex -1.0273 13.2731 11.99
    endloop
  endfacet
  facet normal 0 0 1
    outer loop
      vertex -1.0273 12.7925 11.99
      vertex -0.837466 13.0386 11.99
      vertex -1.0273 13.2731 11.99
    endloop
  endfacet
  facet normal 0 0 1
    outer loop
      vertex -0.837466 13.0386 11.99
      vertex -1.0273 12.7925 11.99
      vertex -0.858554 12.9238 11.99
    endloop
  endfacet
  facet normal 0 0 1
    outer loop
      vertex -0.858554 12.9238 11.99
      vertex -1.0273 12.7925 11.99
      vertex -0.921832 12.8417 11.99
    endloop
  endfacet
  facet normal 0 0 1
    outer loop
      vertex -1.17496 13.2887 11.99
      vertex -1.0273 12.7925 11.99
      vertex -1.0273 13.2731 11.99
    endloop
  endfacet
  facet normal 0 0 1
    outer loop
      vertex -1.17496 13.2887 11.99
      vertex -1.17496 12.7761 11.99
      vertex -1.0273 12.7925 11.99
    endloop
  endfacet
  facet normal 0 0 1
    outer loop
      vertex -1.17496 13.2887 11.99
      vertex -1.36243 12.7761 11.99
      vertex -1.17496 12.7761 11.99
    endloop
  endfacet
  facet normal 0 0 1
    outer loop
      vertex -1.17496 13.2887 11.99
      vertex -2.01241 12.7761 11.99
      vertex -1.36243 12.7761 11.99
    endloop
  endfacet
  facet normal -0 0 1
    outer loop
      vertex -2.54981 13.2887 11.99
      vertex -2.01241 12.7761 11.99
      vertex -1.17496 13.2887 11.99
    endloop
  endfacet
  facet normal 0 0 1
    outer loop
      vertex -2.54981 13.2887 11.99
      vertex -2.54981 12.7761 11.99
      vertex -2.01241 12.7761 11.99
    endloop
  endfacet
  facet normal -0 0 1
    outer loop
      vertex -2.69745 13.2731 11.99
      vertex -2.54981 12.7761 11.99
      vertex -2.54981 13.2887 11.99
    endloop
  endfacet
  facet normal 0 0 1
    outer loop
      vertex -2.69745 13.2731 11.99
      vertex -2.69745 12.7925 11.99
      vertex -2.54981 12.7761 11.99
    endloop
  endfacet
  facet normal 0 0 1
    outer loop
      vertex -2.8873 13.0386 11.99
      vertex -2.69745 13.2731 11.99
      vertex -2.80292 13.2262 11.99
    endloop
  endfacet
  facet normal 0 0 1
    outer loop
      vertex -2.69745 13.2731 11.99
      vertex -2.8873 13.0386 11.99
      vertex -2.69745 12.7925 11.99
    endloop
  endfacet
  facet normal 0 0 1
    outer loop
      vertex -2.8873 13.0386 11.99
      vertex -2.80292 13.2262 11.99
      vertex -2.86621 13.148 11.99
    endloop
  endfacet
  facet normal 0 0 1
    outer loop
      vertex -2.69745 12.7925 11.99
      vertex -2.8873 13.0386 11.99
      vertex -2.80292 12.8417 11.99
    endloop
  endfacet
  facet normal 0 0 1
    outer loop
      vertex -2.80292 12.8417 11.99
      vertex -2.8873 13.0386 11.99
      vertex -2.86621 12.9238 11.99
    endloop
  endfacet
  facet normal -0 0 1
    outer loop
      vertex -2.01241 12.7761 11.99
      vertex -3.59975 9.85387 11.99
      vertex -1.36243 12.7761 11.99
    endloop
  endfacet
  facet normal -0 0 1
    outer loop
      vertex -3.94976 10.2668 11.99
      vertex -3.59975 9.85387 11.99
      vertex -2.01241 12.7761 11.99
    endloop
  endfacet
  facet normal -0 0 1
    outer loop
      vertex -4.26223 9.85738 11.99
      vertex -3.59975 9.85387 11.99
      vertex -3.94976 10.2668 11.99
    endloop
  endfacet
  facet normal 0 0 1
    outer loop
      vertex -3.59975 9.85387 11.99
      vertex -4.26223 9.85738 11.99
      vertex -3.92473 9.43896 11.99
    endloop
  endfacet
  facet normal 0 0 1
    outer loop
      vertex -4.26223 9.85738 11.99
      vertex -5.98708 6.76263 11.99
      vertex -3.92473 9.43896 11.99
    endloop
  endfacet
  facet normal 0 -0 1
    outer loop
      vertex -5.98708 6.76263 11.99
      vertex -4.26223 9.85738 11.99
      vertex -6.64957 6.76263 11.99
    endloop
  endfacet
  facet normal 0 0 1
    outer loop
      vertex -3.59975 9.85387 11.99
      vertex -1.8749 6.76263 11.99
      vertex -1.24993 6.76263 11.99
    endloop
  endfacet
  facet normal 0 0 1
    outer loop
      vertex -1.8749 6.76263 11.99
      vertex -3.59975 9.85387 11.99
      vertex -3.92473 9.43896 11.99
    endloop
  endfacet
  facet normal 0 0 1
    outer loop
      vertex -0.78432 6.7001 11.99
      vertex -0.699939 6.51253 11.99
      vertex -0.721042 6.62195 11.99
    endloop
  endfacet
  facet normal 0 0 1
    outer loop
      vertex -0.699939 6.51253 11.99
      vertex -0.78432 6.7001 11.99
      vertex -0.889789 6.74699 11.99
    endloop
  endfacet
  facet normal 0 0 1
    outer loop
      vertex -0.889789 6.2664 11.99
      vertex -0.699939 6.51253 11.99
      vertex -0.889789 6.74699 11.99
    endloop
  endfacet
  facet normal 0 0 1
    outer loop
      vertex -0.699939 6.51253 11.99
      vertex -0.889789 6.2664 11.99
      vertex -0.721042 6.39766 11.99
    endloop
  endfacet
  facet normal 0 0 1
    outer loop
      vertex -0.721042 6.39766 11.99
      vertex -0.889789 6.2664 11.99
      vertex -0.78432 6.31563 11.99
    endloop
  endfacet
  facet normal 0 0 1
    outer loop
      vertex -1.03745 6.76263 11.99
      vertex -0.889789 6.2664 11.99
      vertex -0.889789 6.74699 11.99
    endloop
  endfacet
  facet normal 0 0 1
    outer loop
      vertex -1.03745 6.76263 11.99
      vertex -1.03745 6.25 11.99
      vertex -0.889789 6.2664 11.99
    endloop
  endfacet
  facet normal -0 0 1
    outer loop
      vertex -1.24993 6.76263 11.99
      vertex -1.03745 6.25 11.99
      vertex -1.03745 6.76263 11.99
    endloop
  endfacet
  facet normal -0 0 1
    outer loop
      vertex -1.8749 6.76263 11.99
      vertex -1.03745 6.25 11.99
      vertex -1.24993 6.76263 11.99
    endloop
  endfacet
  facet normal 0 0 1
    outer loop
      vertex -2.67481 6.25 11.99
      vertex -1.8749 6.76263 11.99
      vertex -2.67481 6.76263 11.99
    endloop
  endfacet
  facet normal 0 0 1
    outer loop
      vertex -1.8749 6.76263 11.99
      vertex -2.67481 6.25 11.99
      vertex -1.03745 6.25 11.99
    endloop
  endfacet
  facet normal -0 0 1
    outer loop
      vertex -2.82247 6.74699 11.99
      vertex -2.67481 6.25 11.99
      vertex -2.67481 6.76263 11.99
    endloop
  endfacet
  facet normal 0 0 1
    outer loop
      vertex -2.82247 6.74699 11.99
      vertex -2.82247 6.2664 11.99
      vertex -2.67481 6.25 11.99
    endloop
  endfacet
  facet normal 0 0 1
    outer loop
      vertex -3.01232 6.51253 11.99
      vertex -2.82247 6.74699 11.99
      vertex -2.92794 6.7001 11.99
    endloop
  endfacet
  facet normal 0 0 1
    outer loop
      vertex -2.82247 6.74699 11.99
      vertex -3.01232 6.51253 11.99
      vertex -2.82247 6.2664 11.99
    endloop
  endfacet
  facet normal 0 0 1
    outer loop
      vertex -3.01232 6.51253 11.99
      vertex -2.92794 6.7001 11.99
      vertex -2.99121 6.62195 11.99
    endloop
  endfacet
  facet normal 0 0 1
    outer loop
      vertex -2.82247 6.2664 11.99
      vertex -3.01232 6.51253 11.99
      vertex -2.92794 6.31563 11.99
    endloop
  endfacet
  facet normal 0 0 1
    outer loop
      vertex -2.92794 6.31563 11.99
      vertex -3.01232 6.51253 11.99
      vertex -2.99121 6.39766 11.99
    endloop
  endfacet
  facet normal 0 0 1
    outer loop
      vertex -4.95906 6.7001 11.99
      vertex -4.87468 6.51253 11.99
      vertex -4.89577 6.62195 11.99
    endloop
  endfacet
  facet normal 0 0 1
    outer loop
      vertex -4.87468 6.51253 11.99
      vertex -4.95906 6.7001 11.99
      vertex -5.06453 6.74699 11.99
    endloop
  endfacet
  facet normal 0 0 1
    outer loop
      vertex -5.06453 6.2664 11.99
      vertex -4.87468 6.51253 11.99
      vertex -5.06453 6.74699 11.99
    endloop
  endfacet
  facet normal 0 0 1
    outer loop
      vertex -4.87468 6.51253 11.99
      vertex -5.06453 6.2664 11.99
      vertex -4.89577 6.39766 11.99
    endloop
  endfacet
  facet normal 0 0 1
    outer loop
      vertex -4.89577 6.39766 11.99
      vertex -5.06453 6.2664 11.99
      vertex -4.95906 6.31563 11.99
    endloop
  endfacet
  facet normal 0 0 1
    outer loop
      vertex -5.21218 6.76263 11.99
      vertex -5.06453 6.2664 11.99
      vertex -5.06453 6.74699 11.99
    endloop
  endfacet
  facet normal 0 0 1
    outer loop
      vertex -5.21218 6.76263 11.99
      vertex -5.21218 6.25 11.99
      vertex -5.06453 6.2664 11.99
    endloop
  endfacet
  facet normal -0 0 1
    outer loop
      vertex -5.98708 6.76263 11.99
      vertex -5.21218 6.25 11.99
      vertex -5.21218 6.76263 11.99
    endloop
  endfacet
  facet normal 0 0 1
    outer loop
      vertex -6.86206 6.25 11.99
      vertex -5.98708 6.76263 11.99
      vertex -6.64957 6.76263 11.99
    endloop
  endfacet
  facet normal 0 0 1
    outer loop
      vertex -6.86206 6.25 11.99
      vertex -6.64957 6.76263 11.99
      vertex -6.86206 6.76263 11.99
    endloop
  endfacet
  facet normal 0 0 1
    outer loop
      vertex -5.98708 6.76263 11.99
      vertex -6.86206 6.25 11.99
      vertex -5.21218 6.25 11.99
    endloop
  endfacet
  facet normal -0 0 1
    outer loop
      vertex -7.00972 6.74699 11.99
      vertex -6.86206 6.25 11.99
      vertex -6.86206 6.76263 11.99
    endloop
  endfacet
  facet normal 0 0 1
    outer loop
      vertex -7.00972 6.74699 11.99
      vertex -7.00972 6.2664 11.99
      vertex -6.86206 6.25 11.99
    endloop
  endfacet
  facet normal 0 0 1
    outer loop
      vertex -7.19956 6.51253 11.99
      vertex -7.00972 6.74699 11.99
      vertex -7.11519 6.7001 11.99
    endloop
  endfacet
  facet normal 0 0 1
    outer loop
      vertex -7.00972 6.74699 11.99
      vertex -7.19956 6.51253 11.99
      vertex -7.00972 6.2664 11.99
    endloop
  endfacet
  facet normal 0 0 1
    outer loop
      vertex -7.19956 6.51253 11.99
      vertex -7.11519 6.7001 11.99
      vertex -7.17847 6.62195 11.99
    endloop
  endfacet
  facet normal 0 0 1
    outer loop
      vertex -7.00972 6.2664 11.99
      vertex -7.19956 6.51253 11.99
      vertex -7.11519 6.31563 11.99
    endloop
  endfacet
  facet normal 0 0 1
    outer loop
      vertex -7.11519 6.31563 11.99
      vertex -7.19956 6.51253 11.99
      vertex -7.17847 6.39766 11.99
    endloop
  endfacet
  facet normal -0.422961 -0.906148 0
    outer loop
      vertex -2.92794 6.31563 10
      vertex -2.82247 6.2664 11.99
      vertex -2.92794 6.31563 11.99
    endloop
  endfacet
  facet normal -0.422961 -0.906148 -0
    outer loop
      vertex -2.82247 6.2664 11.99
      vertex -2.92794 6.31563 10
      vertex -2.82247 6.2664 10
    endloop
  endfacet
  facet normal -0.79183 -0.610741 0
    outer loop
      vertex -2.92794 6.31563 10
      vertex -2.99121 6.39766 11.99
      vertex -2.99121 6.39766 10
    endloop
  endfacet
  facet normal -0.79183 -0.610741 0
    outer loop
      vertex -2.99121 6.39766 11.99
      vertex -2.92794 6.31563 10
      vertex -2.92794 6.31563 11.99
    endloop
  endfacet
  facet normal -0.98353 -0.180746 0
    outer loop
      vertex -2.99121 6.39766 10
      vertex -3.01232 6.51253 11.99
      vertex -3.01232 6.51253 10
    endloop
  endfacet
  facet normal -0.98353 -0.180746 0
    outer loop
      vertex -3.01232 6.51253 11.99
      vertex -2.99121 6.39766 10
      vertex -2.99121 6.39766 11.99
    endloop
  endfacet
  facet normal -0.981894 0.189433 0
    outer loop
      vertex -3.01232 6.51253 10
      vertex -2.99121 6.62195 11.99
      vertex -2.99121 6.62195 10
    endloop
  endfacet
  facet normal -0.981894 0.189433 0
    outer loop
      vertex -2.99121 6.62195 11.99
      vertex -3.01232 6.51253 10
      vertex -3.01232 6.51253 11.99
    endloop
  endfacet
  facet normal -0.777217 0.629233 0
    outer loop
      vertex -2.99121 6.62195 10
      vertex -2.92794 6.7001 11.99
      vertex -2.92794 6.7001 10
    endloop
  endfacet
  facet normal -0.777217 0.629233 0
    outer loop
      vertex -2.92794 6.7001 11.99
      vertex -2.99121 6.62195 10
      vertex -2.99121 6.62195 11.99
    endloop
  endfacet
  facet normal -0.406243 0.913765 0
    outer loop
      vertex -2.82247 6.74699 10
      vertex -2.92794 6.7001 11.99
      vertex -2.82247 6.74699 11.99
    endloop
  endfacet
  facet normal -0.406243 0.913765 0
    outer loop
      vertex -2.92794 6.7001 11.99
      vertex -2.82247 6.74699 10
      vertex -2.92794 6.7001 10
    endloop
  endfacet
  facet normal -0.10533 0.994437 0
    outer loop
      vertex -2.67481 6.76263 10
      vertex -2.82247 6.74699 11.99
      vertex -2.67481 6.76263 11.99
    endloop
  endfacet
  facet normal -0.10533 0.994437 0
    outer loop
      vertex -2.82247 6.74699 11.99
      vertex -2.67481 6.76263 10
      vertex -2.82247 6.74699 10
    endloop
  endfacet
  facet normal 0 1 -0
    outer loop
      vertex -1.8749 6.76263 10
      vertex -2.67481 6.76263 11.99
      vertex -1.8749 6.76263 11.99
    endloop
  endfacet
  facet normal 0 1 0
    outer loop
      vertex -2.67481 6.76263 11.99
      vertex -1.8749 6.76263 10
      vertex -2.67481 6.76263 10
    endloop
  endfacet
  facet normal -0.793896 -0.608054 0
    outer loop
      vertex -1.8749 6.76263 10
      vertex -3.92473 9.43896 11.99
      vertex -3.92473 9.43896 10
    endloop
  endfacet
  facet normal -0.793896 -0.608054 0
    outer loop
      vertex -3.92473 9.43896 11.99
      vertex -1.8749 6.76263 10
      vertex -1.8749 6.76263 11.99
    endloop
  endfacet
  facet normal 0.792104 -0.610386 0
    outer loop
      vertex -5.98708 6.76263 11.99
      vertex -3.92473 9.43896 10
      vertex -3.92473 9.43896 11.99
    endloop
  endfacet
  facet normal 0.792104 -0.610386 0
    outer loop
      vertex -3.92473 9.43896 10
      vertex -5.98708 6.76263 11.99
      vertex -5.98708 6.76263 10
    endloop
  endfacet
  facet normal 0 1 -0
    outer loop
      vertex -5.21218 6.76263 10
      vertex -5.98708 6.76263 11.99
      vertex -5.21218 6.76263 11.99
    endloop
  endfacet
  facet normal 0 1 0
    outer loop
      vertex -5.98708 6.76263 11.99
      vertex -5.21218 6.76263 10
      vertex -5.98708 6.76263 10
    endloop
  endfacet
  facet normal 0.105337 0.994437 -0
    outer loop
      vertex -5.06453 6.74699 10
      vertex -5.21218 6.76263 11.99
      vertex -5.06453 6.74699 11.99
    endloop
  endfacet
  facet normal 0.105337 0.994437 0
    outer loop
      vertex -5.21218 6.76263 11.99
      vertex -5.06453 6.74699 10
      vertex -5.21218 6.76263 10
    endloop
  endfacet
  facet normal 0.406243 0.913765 -0
    outer loop
      vertex -4.95906 6.7001 10
      vertex -5.06453 6.74699 11.99
      vertex -4.95906 6.7001 11.99
    endloop
  endfacet
  facet normal 0.406243 0.913765 0
    outer loop
      vertex -5.06453 6.74699 11.99
      vertex -4.95906 6.7001 10
      vertex -5.06453 6.74699 10
    endloop
  endfacet
  facet normal 0.77712 0.629353 0
    outer loop
      vertex -4.89577 6.62195 11.99
      vertex -4.95906 6.7001 10
      vertex -4.95906 6.7001 11.99
    endloop
  endfacet
  facet normal 0.77712 0.629353 0
    outer loop
      vertex -4.95906 6.7001 10
      vertex -4.89577 6.62195 11.99
      vertex -4.89577 6.62195 10
    endloop
  endfacet
  facet normal 0.981927 0.18926 0
    outer loop
      vertex -4.87468 6.51253 11.99
      vertex -4.89577 6.62195 10
      vertex -4.89577 6.62195 11.99
    endloop
  endfacet
  facet normal 0.981927 0.18926 0
    outer loop
      vertex -4.89577 6.62195 10
      vertex -4.87468 6.51253 11.99
      vertex -4.87468 6.51253 10
    endloop
  endfacet
  facet normal 0.98356 -0.180581 0
    outer loop
      vertex -4.89577 6.39766 11.99
      vertex -4.87468 6.51253 10
      vertex -4.87468 6.51253 11.99
    endloop
  endfacet
  facet normal 0.98356 -0.180581 0
    outer loop
      vertex -4.87468 6.51253 10
      vertex -4.89577 6.39766 11.99
      vertex -4.89577 6.39766 10
    endloop
  endfacet
  facet normal 0.791737 -0.610862 0
    outer loop
      vertex -4.95906 6.31563 11.99
      vertex -4.89577 6.39766 10
      vertex -4.89577 6.39766 11.99
    endloop
  endfacet
  facet normal 0.791737 -0.610862 0
    outer loop
      vertex -4.89577 6.39766 10
      vertex -4.95906 6.31563 11.99
      vertex -4.95906 6.31563 10
    endloop
  endfacet
  facet normal 0.422961 -0.906148 0
    outer loop
      vertex -5.06453 6.2664 10
      vertex -4.95906 6.31563 11.99
      vertex -5.06453 6.2664 11.99
    endloop
  endfacet
  facet normal 0.422961 -0.906148 0
    outer loop
      vertex -4.95906 6.31563 11.99
      vertex -5.06453 6.2664 10
      vertex -4.95906 6.31563 10
    endloop
  endfacet
  facet normal 0.110395 -0.993888 0
    outer loop
      vertex -5.21218 6.25 10
      vertex -5.06453 6.2664 11.99
      vertex -5.21218 6.25 11.99
    endloop
  endfacet
  facet normal 0.110395 -0.993888 0
    outer loop
      vertex -5.06453 6.2664 11.99
      vertex -5.21218 6.25 10
      vertex -5.06453 6.2664 10
    endloop
  endfacet
  facet normal 0 -1 0
    outer loop
      vertex -6.86206 6.25 10
      vertex -5.21218 6.25 11.99
      vertex -6.86206 6.25 11.99
    endloop
  endfacet
  facet normal 0 -1 -0
    outer loop
      vertex -5.21218 6.25 11.99
      vertex -6.86206 6.25 10
      vertex -5.21218 6.25 10
    endloop
  endfacet
  facet normal -0.110387 -0.993889 0
    outer loop
      vertex -7.00972 6.2664 10
      vertex -6.86206 6.25 11.99
      vertex -7.00972 6.2664 11.99
    endloop
  endfacet
  facet normal -0.110387 -0.993889 -0
    outer loop
      vertex -6.86206 6.25 11.99
      vertex -7.00972 6.2664 10
      vertex -6.86206 6.25 10
    endloop
  endfacet
  facet normal -0.422961 -0.906148 0
    outer loop
      vertex -7.11519 6.31563 10
      vertex -7.00972 6.2664 11.99
      vertex -7.11519 6.31563 11.99
    endloop
  endfacet
  facet normal -0.422961 -0.906148 -0
    outer loop
      vertex -7.00972 6.2664 11.99
      vertex -7.11519 6.31563 10
      vertex -7.00972 6.2664 10
    endloop
  endfacet
  facet normal -0.791784 -0.610802 0
    outer loop
      vertex -7.11519 6.31563 10
      vertex -7.17847 6.39766 11.99
      vertex -7.17847 6.39766 10
    endloop
  endfacet
  facet normal -0.791784 -0.610802 0
    outer loop
      vertex -7.17847 6.39766 11.99
      vertex -7.11519 6.31563 10
      vertex -7.11519 6.31563 11.99
    endloop
  endfacet
  facet normal -0.98356 -0.180581 0
    outer loop
      vertex -7.17847 6.39766 10
      vertex -7.19956 6.51253 11.99
      vertex -7.19956 6.51253 10
    endloop
  endfacet
  facet normal -0.98356 -0.180581 0
    outer loop
      vertex -7.19956 6.51253 11.99
      vertex -7.17847 6.39766 10
      vertex -7.17847 6.39766 11.99
    endloop
  endfacet
  facet normal -0.981927 0.18926 0
    outer loop
      vertex -7.19956 6.51253 10
      vertex -7.17847 6.62195 11.99
      vertex -7.17847 6.62195 10
    endloop
  endfacet
  facet normal -0.981927 0.18926 0
    outer loop
      vertex -7.17847 6.62195 11.99
      vertex -7.19956 6.51253 10
      vertex -7.19956 6.51253 11.99
    endloop
  endfacet
  facet normal -0.777168 0.629293 0
    outer loop
      vertex -7.17847 6.62195 10
      vertex -7.11519 6.7001 11.99
      vertex -7.11519 6.7001 10
    endloop
  endfacet
  facet normal -0.777168 0.629293 0
    outer loop
      vertex -7.11519 6.7001 11.99
      vertex -7.17847 6.62195 10
      vertex -7.17847 6.62195 11.99
    endloop
  endfacet
  facet normal -0.406243 0.913765 0
    outer loop
      vertex -7.00972 6.74699 10
      vertex -7.11519 6.7001 11.99
      vertex -7.00972 6.74699 11.99
    endloop
  endfacet
  facet normal -0.406243 0.913765 0
    outer loop
      vertex -7.11519 6.7001 11.99
      vertex -7.00972 6.74699 10
      vertex -7.11519 6.7001 10
    endloop
  endfacet
  facet normal -0.10533 0.994437 0
    outer loop
      vertex -6.86206 6.76263 10
      vertex -7.00972 6.74699 11.99
      vertex -6.86206 6.76263 11.99
    endloop
  endfacet
  facet normal -0.10533 0.994437 0
    outer loop
      vertex -7.00972 6.74699 11.99
      vertex -6.86206 6.76263 10
      vertex -7.00972 6.74699 10
    endloop
  endfacet
  facet normal 0 1 -0
    outer loop
      vertex -6.64957 6.76263 10
      vertex -6.86206 6.76263 11.99
      vertex -6.64957 6.76263 11.99
    endloop
  endfacet
  facet normal 0 1 0
    outer loop
      vertex -6.86206 6.76263 11.99
      vertex -6.64957 6.76263 10
      vertex -6.86206 6.76263 10
    endloop
  endfacet
  facet normal -0.791787 0.610797 0
    outer loop
      vertex -6.64957 6.76263 10
      vertex -4.26223 9.85738 11.99
      vertex -4.26223 9.85738 10
    endloop
  endfacet
  facet normal -0.791787 0.610797 0
    outer loop
      vertex -4.26223 9.85738 11.99
      vertex -6.64957 6.76263 10
      vertex -6.64957 6.76263 11.99
    endloop
  endfacet
  facet normal -0.793643 -0.608384 0
    outer loop
      vertex -4.26223 9.85738 10
      vertex -6.49964 12.7761 11.99
      vertex -6.49964 12.7761 10
    endloop
  endfacet
  facet normal -0.793643 -0.608384 0
    outer loop
      vertex -6.49964 12.7761 11.99
      vertex -4.26223 9.85738 10
      vertex -4.26223 9.85738 11.99
    endloop
  endfacet
  facet normal 0 -1 0
    outer loop
      vertex -6.68711 12.7761 10
      vertex -6.49964 12.7761 11.99
      vertex -6.68711 12.7761 11.99
    endloop
  endfacet
  facet normal 0 -1 -0
    outer loop
      vertex -6.49964 12.7761 11.99
      vertex -6.68711 12.7761 10
      vertex -6.49964 12.7761 10
    endloop
  endfacet
  facet normal -0.110424 -0.993885 0
    outer loop
      vertex -6.83472 12.7925 10
      vertex -6.68711 12.7761 11.99
      vertex -6.83472 12.7925 11.99
    endloop
  endfacet
  facet normal -0.110424 -0.993885 -0
    outer loop
      vertex -6.68711 12.7761 11.99
      vertex -6.83472 12.7925 10
      vertex -6.68711 12.7761 10
    endloop
  endfacet
  facet normal -0.422848 -0.906201 0
    outer loop
      vertex -6.94016 12.8417 10
      vertex -6.83472 12.7925 11.99
      vertex -6.94016 12.8417 11.99
    endloop
  endfacet
  facet normal -0.422848 -0.906201 -0
    outer loop
      vertex -6.83472 12.7925 11.99
      vertex -6.94016 12.8417 10
      vertex -6.83472 12.7925 10
    endloop
  endfacet
  facet normal -0.792129 -0.610354 0
    outer loop
      vertex -6.94016 12.8417 10
      vertex -7.00342 12.9238 11.99
      vertex -7.00342 12.9238 10
    endloop
  endfacet
  facet normal -0.792129 -0.610354 0
    outer loop
      vertex -7.00342 12.9238 11.99
      vertex -6.94016 12.8417 10
      vertex -6.94016 12.8417 11.99
    endloop
  endfacet
  facet normal -0.983541 -0.180687 0
    outer loop
      vertex -7.00342 12.9238 10
      vertex -7.02451 13.0386 11.99
      vertex -7.02451 13.0386 10
    endloop
  endfacet
  facet normal -0.983541 -0.180687 0
    outer loop
      vertex -7.02451 13.0386 11.99
      vertex -7.00342 12.9238 10
      vertex -7.00342 12.9238 11.99
    endloop
  endfacet
  facet normal -0.981921 0.189293 0
    outer loop
      vertex -7.02451 13.0386 10
      vertex -7.00342 13.148 11.99
      vertex -7.00342 13.148 10
    endloop
  endfacet
  facet normal -0.981921 0.189293 0
    outer loop
      vertex -7.00342 13.148 11.99
      vertex -7.02451 13.0386 10
      vertex -7.02451 13.0386 11.99
    endloop
  endfacet
  facet normal -0.777462 0.628929 0
    outer loop
      vertex -7.00342 13.148 10
      vertex -6.94016 13.2262 11.99
      vertex -6.94016 13.2262 10
    endloop
  endfacet
  facet normal -0.777462 0.628929 0
    outer loop
      vertex -6.94016 13.2262 11.99
      vertex -7.00342 13.148 10
      vertex -7.00342 13.148 11.99
    endloop
  endfacet
  facet normal -0.406412 0.91369 0
    outer loop
      vertex -6.83472 13.2731 10
      vertex -6.94016 13.2262 11.99
      vertex -6.83472 13.2731 11.99
    endloop
  endfacet
  facet normal -0.406412 0.91369 0
    outer loop
      vertex -6.94016 13.2262 11.99
      vertex -6.83472 13.2731 10
      vertex -6.94016 13.2262 10
    endloop
  endfacet
  facet normal -0.105099 0.994462 0
    outer loop
      vertex -6.68711 13.2887 10
      vertex -6.83472 13.2731 11.99
      vertex -6.68711 13.2887 11.99
    endloop
  endfacet
  facet normal -0.105099 0.994462 0
    outer loop
      vertex -6.83472 13.2731 11.99
      vertex -6.68711 13.2887 10
      vertex -6.83472 13.2731 10
    endloop
  endfacet
  facet normal 0 1 -0
    outer loop
      vertex -5.29965 13.2887 10
      vertex -6.68711 13.2887 11.99
      vertex -5.29965 13.2887 11.99
    endloop
  endfacet
  facet normal 0 1 0
    outer loop
      vertex -6.68711 13.2887 11.99
      vertex -5.29965 13.2887 10
      vertex -6.68711 13.2887 10
    endloop
  endfacet
  facet normal 0.105077 0.994464 -0
    outer loop
      vertex -5.15201 13.2731 10
      vertex -5.29965 13.2887 11.99
      vertex -5.15201 13.2731 11.99
    endloop
  endfacet
  facet normal 0.105077 0.994464 0
    outer loop
      vertex -5.29965 13.2887 11.99
      vertex -5.15201 13.2731 10
      vertex -5.29965 13.2887 10
    endloop
  endfacet
  facet normal 0.406315 0.913733 -0
    outer loop
      vertex -5.04654 13.2262 10
      vertex -5.15201 13.2731 11.99
      vertex -5.04654 13.2262 11.99
    endloop
  endfacet
  facet normal 0.406315 0.913733 0
    outer loop
      vertex -5.15201 13.2731 11.99
      vertex -5.04654 13.2262 10
      vertex -5.15201 13.2731 10
    endloop
  endfacet
  facet normal 0.777317 0.62911 0
    outer loop
      vertex -4.98325 13.148 11.99
      vertex -5.04654 13.2262 10
      vertex -5.04654 13.2262 11.99
    endloop
  endfacet
  facet normal 0.777317 0.62911 0
    outer loop
      vertex -5.04654 13.2262 10
      vertex -4.98325 13.148 11.99
      vertex -4.98325 13.148 10
    endloop
  endfacet
  facet normal 0.981921 0.189293 0
    outer loop
      vertex -4.96216 13.0386 11.99
      vertex -4.98325 13.148 10
      vertex -4.98325 13.148 11.99
    endloop
  endfacet
  facet normal 0.981921 0.189293 0
    outer loop
      vertex -4.98325 13.148 10
      vertex -4.96216 13.0386 11.99
      vertex -4.96216 13.0386 10
    endloop
  endfacet
  facet normal 0.983541 -0.180687 0
    outer loop
      vertex -4.98325 12.9238 11.99
      vertex -4.96216 13.0386 10
      vertex -4.96216 13.0386 11.99
    endloop
  endfacet
  facet normal 0.983541 -0.180687 0
    outer loop
      vertex -4.96216 13.0386 10
      vertex -4.98325 12.9238 11.99
      vertex -4.98325 12.9238 10
    endloop
  endfacet
  facet normal 0.791989 -0.610536 0
    outer loop
      vertex -5.04654 12.8417 11.99
      vertex -4.98325 12.9238 10
      vertex -4.98325 12.9238 11.99
    endloop
  endfacet
  facet normal 0.791989 -0.610536 0
    outer loop
      vertex -4.98325 12.9238 10
      vertex -5.04654 12.8417 11.99
      vertex -5.04654 12.8417 10
    endloop
  endfacet
  facet normal 0.422749 -0.906247 0
    outer loop
      vertex -5.15201 12.7925 10
      vertex -5.04654 12.8417 11.99
      vertex -5.15201 12.7925 11.99
    endloop
  endfacet
  facet normal 0.422749 -0.906247 0
    outer loop
      vertex -5.04654 12.8417 11.99
      vertex -5.15201 12.7925 10
      vertex -5.04654 12.8417 10
    endloop
  endfacet
  facet normal 0.110402 -0.993887 0
    outer loop
      vertex -5.29965 12.7761 10
      vertex -5.15201 12.7925 11.99
      vertex -5.29965 12.7761 11.99
    endloop
  endfacet
  facet normal 0.110402 -0.993887 0
    outer loop
      vertex -5.15201 12.7925 11.99
      vertex -5.29965 12.7761 10
      vertex -5.15201 12.7925 10
    endloop
  endfacet
  facet normal 0 -1 0
    outer loop
      vertex -5.86215 12.7761 10
      vertex -5.29965 12.7761 11.99
      vertex -5.86215 12.7761 11.99
    endloop
  endfacet
  facet normal 0 -1 -0
    outer loop
      vertex -5.29965 12.7761 11.99
      vertex -5.86215 12.7761 10
      vertex -5.29965 12.7761 10
    endloop
  endfacet
  facet normal 0.795349 0.606152 0
    outer loop
      vertex -3.94976 10.2668 11.99
      vertex -5.86215 12.7761 10
      vertex -5.86215 12.7761 11.99
    endloop
  endfacet
  facet normal 0.795349 0.606152 0
    outer loop
      vertex -5.86215 12.7761 10
      vertex -3.94976 10.2668 11.99
      vertex -3.94976 10.2668 10
    endloop
  endfacet
  facet normal -0.791537 0.611121 0
    outer loop
      vertex -3.94976 10.2668 10
      vertex -2.01241 12.7761 11.99
      vertex -2.01241 12.7761 10
    endloop
  endfacet
  facet normal -0.791537 0.611121 0
    outer loop
      vertex -2.01241 12.7761 11.99
      vertex -3.94976 10.2668 10
      vertex -3.94976 10.2668 11.99
    endloop
  endfacet
  facet normal 0 -1 0
    outer loop
      vertex -2.54981 12.7761 10
      vertex -2.01241 12.7761 11.99
      vertex -2.54981 12.7761 11.99
    endloop
  endfacet
  facet normal 0 -1 -0
    outer loop
      vertex -2.01241 12.7761 11.99
      vertex -2.54981 12.7761 10
      vertex -2.01241 12.7761 10
    endloop
  endfacet
  facet normal -0.110402 -0.993887 0
    outer loop
      vertex -2.69745 12.7925 10
      vertex -2.54981 12.7761 11.99
      vertex -2.69745 12.7925 11.99
    endloop
  endfacet
  facet normal -0.110402 -0.993887 -0
    outer loop
      vertex -2.54981 12.7761 11.99
      vertex -2.69745 12.7925 10
      vertex -2.54981 12.7761 10
    endloop
  endfacet
  facet normal -0.422749 -0.906247 0
    outer loop
      vertex -2.80292 12.8417 10
      vertex -2.69745 12.7925 11.99
      vertex -2.80292 12.8417 11.99
    endloop
  endfacet
  facet normal -0.422749 -0.906247 -0
    outer loop
      vertex -2.69745 12.7925 11.99
      vertex -2.80292 12.8417 10
      vertex -2.69745 12.7925 10
    endloop
  endfacet
  facet normal -0.791989 -0.610536 0
    outer loop
      vertex -2.80292 12.8417 10
      vertex -2.86621 12.9238 11.99
      vertex -2.86621 12.9238 10
    endloop
  endfacet
  facet normal -0.791989 -0.610536 0
    outer loop
      vertex -2.86621 12.9238 11.99
      vertex -2.80292 12.8417 10
      vertex -2.80292 12.8417 11.99
    endloop
  endfacet
  facet normal -0.983541 -0.180687 0
    outer loop
      vertex -2.86621 12.9238 10
      vertex -2.8873 13.0386 11.99
      vertex -2.8873 13.0386 10
    endloop
  endfacet
  facet normal -0.983541 -0.180687 0
    outer loop
      vertex -2.8873 13.0386 11.99
      vertex -2.86621 12.9238 10
      vertex -2.86621 12.9238 11.99
    endloop
  endfacet
  facet normal -0.981921 0.189293 0
    outer loop
      vertex -2.8873 13.0386 10
      vertex -2.86621 13.148 11.99
      vertex -2.86621 13.148 10
    endloop
  endfacet
  facet normal -0.981921 0.189293 0
    outer loop
      vertex -2.86621 13.148 11.99
      vertex -2.8873 13.0386 10
      vertex -2.8873 13.0386 11.99
    endloop
  endfacet
  facet normal -0.777317 0.62911 0
    outer loop
      vertex -2.86621 13.148 10
      vertex -2.80292 13.2262 11.99
      vertex -2.80292 13.2262 10
    endloop
  endfacet
  facet normal -0.777317 0.62911 0
    outer loop
      vertex -2.80292 13.2262 11.99
      vertex -2.86621 13.148 10
      vertex -2.86621 13.148 11.99
    endloop
  endfacet
  facet normal -0.406315 0.913733 0
    outer loop
      vertex -2.69745 13.2731 10
      vertex -2.80292 13.2262 11.99
      vertex -2.69745 13.2731 11.99
    endloop
  endfacet
  facet normal -0.406315 0.913733 0
    outer loop
      vertex -2.80292 13.2262 11.99
      vertex -2.69745 13.2731 10
      vertex -2.80292 13.2262 10
    endloop
  endfacet
  facet normal -0.105077 0.994464 0
    outer loop
      vertex -2.54981 13.2887 10
      vertex -2.69745 13.2731 11.99
      vertex -2.54981 13.2887 11.99
    endloop
  endfacet
  facet normal -0.105077 0.994464 0
    outer loop
      vertex -2.69745 13.2731 11.99
      vertex -2.54981 13.2887 10
      vertex -2.69745 13.2731 10
    endloop
  endfacet
  facet normal 0 1 -0
    outer loop
      vertex -1.17496 13.2887 10
      vertex -2.54981 13.2887 11.99
      vertex -1.17496 13.2887 11.99
    endloop
  endfacet
  facet normal 0 1 0
    outer loop
      vertex -2.54981 13.2887 11.99
      vertex -1.17496 13.2887 10
      vertex -2.54981 13.2887 10
    endloop
  endfacet
  facet normal 0.105063 0.994466 -0
    outer loop
      vertex -1.0273 13.2731 10
      vertex -1.17496 13.2887 11.99
      vertex -1.0273 13.2731 11.99
    endloop
  endfacet
  facet normal 0.105063 0.994466 0
    outer loop
      vertex -1.17496 13.2887 11.99
      vertex -1.0273 13.2731 10
      vertex -1.17496 13.2887 10
    endloop
  endfacet
  facet normal 0.406322 0.91373 -0
    outer loop
      vertex -0.921832 13.2262 10
      vertex -1.0273 13.2731 11.99
      vertex -0.921832 13.2262 11.99
    endloop
  endfacet
  facet normal 0.406322 0.91373 0
    outer loop
      vertex -1.0273 13.2731 11.99
      vertex -0.921832 13.2262 10
      vertex -1.0273 13.2731 10
    endloop
  endfacet
  facet normal 0.777375 0.629038 0
    outer loop
      vertex -0.858554 13.148 11.99
      vertex -0.921832 13.2262 10
      vertex -0.921832 13.2262 11.99
    endloop
  endfacet
  facet normal 0.777375 0.629038 0
    outer loop
      vertex -0.921832 13.2262 10
      vertex -0.858554 13.148 11.99
      vertex -0.858554 13.148 10
    endloop
  endfacet
  facet normal 0.981924 0.189276 0
    outer loop
      vertex -0.837466 13.0386 11.99
      vertex -0.858554 13.148 10
      vertex -0.858554 13.148 11.99
    endloop
  endfacet
  facet normal 0.981924 0.189276 0
    outer loop
      vertex -0.858554 13.148 10
      vertex -0.837466 13.0386 11.99
      vertex -0.837466 13.0386 10
    endloop
  endfacet
  facet normal 0.983544 -0.18067 0
    outer loop
      vertex -0.858554 12.9238 11.99
      vertex -0.837466 13.0386 10
      vertex -0.837466 13.0386 11.99
    endloop
  endfacet
  facet normal 0.983544 -0.18067 0
    outer loop
      vertex -0.837466 13.0386 10
      vertex -0.858554 12.9238 11.99
      vertex -0.858554 12.9238 10
    endloop
  endfacet
  facet normal 0.792045 -0.610463 0
    outer loop
      vertex -0.921832 12.8417 11.99
      vertex -0.858554 12.9238 10
      vertex -0.858554 12.9238 11.99
    endloop
  endfacet
  facet normal 0.792045 -0.610463 0
    outer loop
      vertex -0.858554 12.9238 10
      vertex -0.921832 12.8417 11.99
      vertex -0.921832 12.8417 10
    endloop
  endfacet
  facet normal 0.422756 -0.906244 0
    outer loop
      vertex -1.0273 12.7925 10
      vertex -0.921832 12.8417 11.99
      vertex -1.0273 12.7925 11.99
    endloop
  endfacet
  facet normal 0.422756 -0.906244 0
    outer loop
      vertex -0.921832 12.8417 11.99
      vertex -1.0273 12.7925 10
      vertex -0.921832 12.8417 10
    endloop
  endfacet
  facet normal 0.110387 -0.993889 0
    outer loop
      vertex -1.17496 12.7761 10
      vertex -1.0273 12.7925 11.99
      vertex -1.17496 12.7761 11.99
    endloop
  endfacet
  facet normal 0.110387 -0.993889 0
    outer loop
      vertex -1.0273 12.7925 11.99
      vertex -1.17496 12.7761 10
      vertex -1.0273 12.7925 10
    endloop
  endfacet
  facet normal 0 -1 0
    outer loop
      vertex -1.36243 12.7761 10
      vertex -1.17496 12.7761 11.99
      vertex -1.36243 12.7761 11.99
    endloop
  endfacet
  facet normal 0 -1 -0
    outer loop
      vertex -1.17496 12.7761 11.99
      vertex -1.36243 12.7761 10
      vertex -1.17496 12.7761 10
    endloop
  endfacet
  facet normal 0.794007 -0.607908 0
    outer loop
      vertex -3.59975 9.85387 11.99
      vertex -1.36243 12.7761 10
      vertex -1.36243 12.7761 11.99
    endloop
  endfacet
  facet normal 0.794007 -0.607908 0
    outer loop
      vertex -1.36243 12.7761 10
      vertex -3.59975 9.85387 11.99
      vertex -3.59975 9.85387 10
    endloop
  endfacet
  facet normal 0.796103 0.605161 0
    outer loop
      vertex -1.24993 6.76263 11.99
      vertex -3.59975 9.85387 10
      vertex -3.59975 9.85387 11.99
    endloop
  endfacet
  facet normal 0.796103 0.605161 0
    outer loop
      vertex -3.59975 9.85387 10
      vertex -1.24993 6.76263 11.99
      vertex -1.24993 6.76263 10
    endloop
  endfacet
  facet normal 0 1 -0
    outer loop
      vertex -1.03745 6.76263 10
      vertex -1.24993 6.76263 11.99
      vertex -1.03745 6.76263 11.99
    endloop
  endfacet
  facet normal 0 1 0
    outer loop
      vertex -1.24993 6.76263 11.99
      vertex -1.03745 6.76263 10
      vertex -1.24993 6.76263 10
    endloop
  endfacet
  facet normal 0.105329 0.994437 -0
    outer loop
      vertex -0.889789 6.74699 10
      vertex -1.03745 6.76263 11.99
      vertex -0.889789 6.74699 11.99
    endloop
  endfacet
  facet normal 0.105329 0.994437 0
    outer loop
      vertex -1.03745 6.76263 11.99
      vertex -0.889789 6.74699 10
      vertex -1.03745 6.76263 10
    endloop
  endfacet
  facet normal 0.406246 0.913764 -0
    outer loop
      vertex -0.78432 6.7001 10
      vertex -0.889789 6.74699 11.99
      vertex -0.78432 6.7001 11.99
    endloop
  endfacet
  facet normal 0.406246 0.913764 0
    outer loop
      vertex -0.889789 6.74699 11.99
      vertex -0.78432 6.7001 10
      vertex -0.889789 6.74699 10
    endloop
  endfacet
  facet normal 0.777178 0.629281 0
    outer loop
      vertex -0.721042 6.62195 11.99
      vertex -0.78432 6.7001 10
      vertex -0.78432 6.7001 11.99
    endloop
  endfacet
  facet normal 0.777178 0.629281 0
    outer loop
      vertex -0.78432 6.7001 10
      vertex -0.721042 6.62195 11.99
      vertex -0.721042 6.62195 10
    endloop
  endfacet
  facet normal 0.981905 0.189373 0
    outer loop
      vertex -0.699939 6.51253 11.99
      vertex -0.721042 6.62195 10
      vertex -0.721042 6.62195 11.99
    endloop
  endfacet
  facet normal 0.981905 0.189373 0
    outer loop
      vertex -0.721042 6.62195 10
      vertex -0.699939 6.51253 11.99
      vertex -0.699939 6.51253 10
    endloop
  endfacet
  facet normal 0.98354 -0.180688 0
    outer loop
      vertex -0.721042 6.39766 11.99
      vertex -0.699939 6.51253 10
      vertex -0.699939 6.51253 11.99
    endloop
  endfacet
  facet normal 0.98354 -0.180688 0
    outer loop
      vertex -0.699939 6.51253 10
      vertex -0.721042 6.39766 11.99
      vertex -0.721042 6.39766 10
    endloop
  endfacet
  facet normal 0.791793 -0.61079 0
    outer loop
      vertex -0.78432 6.31563 11.99
      vertex -0.721042 6.39766 10
      vertex -0.721042 6.39766 11.99
    endloop
  endfacet
  facet normal 0.791793 -0.61079 0
    outer loop
      vertex -0.721042 6.39766 10
      vertex -0.78432 6.31563 11.99
      vertex -0.78432 6.31563 10
    endloop
  endfacet
  facet normal 0.422964 -0.906146 0
    outer loop
      vertex -0.889789 6.2664 10
      vertex -0.78432 6.31563 11.99
      vertex -0.889789 6.2664 11.99
    endloop
  endfacet
  facet normal 0.422964 -0.906146 0
    outer loop
      vertex -0.78432 6.31563 11.99
      vertex -0.889789 6.2664 10
      vertex -0.78432 6.31563 10
    endloop
  endfacet
  facet normal 0.110386 -0.993889 0
    outer loop
      vertex -1.03745 6.25 10
      vertex -0.889789 6.2664 11.99
      vertex -1.03745 6.25 11.99
    endloop
  endfacet
  facet normal 0.110386 -0.993889 0
    outer loop
      vertex -0.889789 6.2664 11.99
      vertex -1.03745 6.25 10
      vertex -0.889789 6.2664 10
    endloop
  endfacet
  facet normal 0 -1 0
    outer loop
      vertex -2.67481 6.25 10
      vertex -1.03745 6.25 11.99
      vertex -2.67481 6.25 11.99
    endloop
  endfacet
  facet normal 0 -1 -0
    outer loop
      vertex -1.03745 6.25 11.99
      vertex -2.67481 6.25 10
      vertex -1.03745 6.25 10
    endloop
  endfacet
  facet normal -0.110387 -0.993889 0
    outer loop
      vertex -2.82247 6.2664 10
      vertex -2.67481 6.25 11.99
      vertex -2.82247 6.2664 11.99
    endloop
  endfacet
  facet normal -0.110387 -0.993889 -0
    outer loop
      vertex -2.67481 6.25 11.99
      vertex -2.82247 6.2664 10
      vertex -2.67481 6.25 10
    endloop
  endfacet
endsolid OpenSCAD_Model
