solid OpenSCAD_Model
  facet normal 0 -0 1
    outer loop
      vertex -6.51 3.5 10
      vertex -4.21536 4.37308 10
      vertex -6.52454 10.9501 10
    endloop
  endfacet
  facet normal -0 0 1
    outer loop
      vertex -6.52454 10.9501 10
      vertex -4.21536 4.37308 10
      vertex -6.34958 10.9501 10
    endloop
  endfacet
  facet normal 0 0 1
    outer loop
      vertex -4.10989 4.41998 10
      vertex -6.34958 10.9501 10
      vertex -4.21536 4.37308 10
    endloop
  endfacet
  facet normal 0 0 1
    outer loop
      vertex -3.96225 4.43561 10
      vertex -6.34958 10.9501 10
      vertex -4.10989 4.41998 10
    endloop
  endfacet
  facet normal 0 0 1
    outer loop
      vertex -6.34958 10.9501 10
      vertex -3.96225 4.43561 10
      vertex -3.14981 4.43561 10
    endloop
  endfacet
  facet normal 0 0 1
    outer loop
      vertex -0.733521 4.29492 10
      vertex -0.658554 11.0978 10
      vertex -0.721832 11.0158 10
    endloop
  endfacet
  facet normal 0 0 1
    outer loop
      vertex -0.658554 11.0978 10
      vertex -0.733521 4.29492 10
      vertex -0.712433 4.1855 10
    endloop
  endfacet
  facet normal 0 0 1
    outer loop
      vertex -0.721832 11.0158 10
      vertex -0.796814 4.37308 10
      vertex -0.733521 4.29492 10
    endloop
  endfacet
  facet normal -0 0 1
    outer loop
      vertex -0.827301 10.9666 10
      vertex -0.796814 4.37308 10
      vertex -0.721832 11.0158 10
    endloop
  endfacet
  facet normal 0 0 1
    outer loop
      vertex -0.827301 10.9666 10
      vertex -0.902283 4.41998 10
      vertex -0.796814 4.37308 10
    endloop
  endfacet
  facet normal -0 0 1
    outer loop
      vertex -0.97496 10.9501 10
      vertex -0.902283 4.41998 10
      vertex -0.827301 10.9666 10
    endloop
  endfacet
  facet normal -0 0 1
    outer loop
      vertex -3.52475 6.24983 10
      vertex -0.902283 4.41998 10
      vertex -0.97496 10.9501 10
    endloop
  endfacet
  facet normal 0 0 1
    outer loop
      vertex -3.52475 6.24983 10
      vertex -0.97496 10.9501 10
      vertex -1.17494 10.9501 10
    endloop
  endfacet
  facet normal 0 0 1
    outer loop
      vertex -0.902283 4.41998 10
      vertex -3.52475 6.24983 10
      vertex -1.04993 4.43561 10
    endloop
  endfacet
  facet normal 0 0 1
    outer loop
      vertex -1.04993 4.43561 10
      vertex -3.52475 6.24983 10
      vertex -2.63736 4.43561 10
    endloop
  endfacet
  facet normal 0 0 1
    outer loop
      vertex 0 14.5 10
      vertex -0.637466 11.2127 10
      vertex 0 2.5 10
    endloop
  endfacet
  facet normal 0 0 1
    outer loop
      vertex 0 14.5 10
      vertex -0.658554 11.3221 10
      vertex -0.637466 11.2127 10
    endloop
  endfacet
  facet normal 0 0 1
    outer loop
      vertex 0 14.5 10
      vertex -0.721832 11.4003 10
      vertex -0.658554 11.3221 10
    endloop
  endfacet
  facet normal 0 0 1
    outer loop
      vertex 0 14.5 10
      vertex -0.827301 11.4472 10
      vertex -0.721832 11.4003 10
    endloop
  endfacet
  facet normal 0 0 1
    outer loop
      vertex 0 14.5 10
      vertex -0.97496 11.4628 10
      vertex -0.827301 11.4472 10
    endloop
  endfacet
  facet normal 0 0 1
    outer loop
      vertex 0 14.5 10
      vertex -2.41235 11.4628 10
      vertex -0.97496 11.4628 10
    endloop
  endfacet
  facet normal 0 0 1
    outer loop
      vertex 0 14.5 10
      vertex -2.56001 11.4472 10
      vertex -2.41235 11.4628 10
    endloop
  endfacet
  facet normal -0 0 1
    outer loop
      vertex -7.5 14.5 10
      vertex -2.56001 11.4472 10
      vertex 0 14.5 10
    endloop
  endfacet
  facet normal 0 0 1
    outer loop
      vertex -4.81219 11.2127 10
      vertex -2.74985 11.2127 10
      vertex -2.72876 11.3221 10
    endloop
  endfacet
  facet normal 0 0 1
    outer loop
      vertex -2.74985 11.2127 10
      vertex -4.81219 11.2127 10
      vertex -4.8333 11.0978 10
    endloop
  endfacet
  facet normal 0 0 1
    outer loop
      vertex -4.8333 11.3221 10
      vertex -2.72876 11.3221 10
      vertex -2.66548 11.4003 10
    endloop
  endfacet
  facet normal 0 0 1
    outer loop
      vertex -2.56001 11.4472 10
      vertex -5.00204 11.4472 10
      vertex -2.66548 11.4003 10
    endloop
  endfacet
  facet normal 0 0 1
    outer loop
      vertex -2.72876 11.3221 10
      vertex -4.8333 11.3221 10
      vertex -4.81219 11.2127 10
    endloop
  endfacet
  facet normal 0 0 1
    outer loop
      vertex -2.66548 11.4003 10
      vertex -4.89658 11.4003 10
      vertex -4.8333 11.3221 10
    endloop
  endfacet
  facet normal 0 0 1
    outer loop
      vertex -2.66548 11.4003 10
      vertex -5.00204 11.4472 10
      vertex -4.89658 11.4003 10
    endloop
  endfacet
  facet normal 0 0 1
    outer loop
      vertex -2.56001 11.4472 10
      vertex -7.5 14.5 10
      vertex -5.00204 11.4472 10
    endloop
  endfacet
  facet normal 0 0 1
    outer loop
      vertex -5.00204 11.4472 10
      vertex -7.5 14.5 10
      vertex -5.1497 11.4628 10
    endloop
  endfacet
  facet normal 0 0 1
    outer loop
      vertex -5.1497 11.4628 10
      vertex -7.5 14.5 10
      vertex -6.52454 11.4628 10
    endloop
  endfacet
  facet normal 0 0 1
    outer loop
      vertex -6.52454 11.4628 10
      vertex -7.5 14.5 10
      vertex -6.6722 11.4472 10
    endloop
  endfacet
  facet normal 0 0 1
    outer loop
      vertex -6.84094 11.3221 10
      vertex -7.5 14.5 10
      vertex -6.86205 11.2127 10
    endloop
  endfacet
  facet normal 0 0 1
    outer loop
      vertex -6.77766 11.4003 10
      vertex -7.5 14.5 10
      vertex -6.84094 11.3221 10
    endloop
  endfacet
  facet normal 0 0 1
    outer loop
      vertex -6.6722 11.4472 10
      vertex -7.5 14.5 10
      vertex -6.77766 11.4003 10
    endloop
  endfacet
  facet normal -0 0 1
    outer loop
      vertex -0.658554 11.0978 10
      vertex 0 2.5 10
      vertex -0.637466 11.2127 10
    endloop
  endfacet
  facet normal -0 0 1
    outer loop
      vertex -0.712433 4.1855 10
      vertex 0 2.5 10
      vertex -0.658554 11.0978 10
    endloop
  endfacet
  facet normal -0 0 1
    outer loop
      vertex -0.733521 4.07065 10
      vertex 0 2.5 10
      vertex -0.712433 4.1855 10
    endloop
  endfacet
  facet normal -0 0 1
    outer loop
      vertex -0.796814 3.9886 10
      vertex 0 2.5 10
      vertex -0.733521 4.07065 10
    endloop
  endfacet
  facet normal -0 0 1
    outer loop
      vertex -0.902283 3.93938 10
      vertex 0 2.5 10
      vertex -0.796814 3.9886 10
    endloop
  endfacet
  facet normal -0 0 1
    outer loop
      vertex -1.04993 3.92297 10
      vertex 0 2.5 10
      vertex -0.902283 3.93938 10
    endloop
  endfacet
  facet normal -0 0 1
    outer loop
      vertex -3.96225 3.92297 10
      vertex 0 2.5 10
      vertex -1.04993 3.92297 10
    endloop
  endfacet
  facet normal 0 0 1
    outer loop
      vertex -6.51 2.5 10
      vertex -3.96225 3.92297 10
      vertex -4.10989 3.93938 10
    endloop
  endfacet
  facet normal 0 0 1
    outer loop
      vertex -4.27866 4.29492 10
      vertex -6.51 3.5 10
      vertex -4.29974 4.1855 10
    endloop
  endfacet
  facet normal 0 0 1
    outer loop
      vertex -4.29974 4.1855 10
      vertex -6.51 3.5 10
      vertex -4.27866 4.07065 10
    endloop
  endfacet
  facet normal 0 0 1
    outer loop
      vertex -6.51 3.5 10
      vertex -4.21536 3.9886 10
      vertex -4.27866 4.07065 10
    endloop
  endfacet
  facet normal 0 0 1
    outer loop
      vertex -6.51 2.5 10
      vertex -4.21536 3.9886 10
      vertex -6.51 3.5 10
    endloop
  endfacet
  facet normal 0 0 1
    outer loop
      vertex -4.21536 3.9886 10
      vertex -6.51 2.5 10
      vertex -4.10989 3.93938 10
    endloop
  endfacet
  facet normal 0 0 1
    outer loop
      vertex -3.96225 3.92297 10
      vertex -6.51 2.5 10
      vertex 0 2.5 10
    endloop
  endfacet
  facet normal -0 0 1
    outer loop
      vertex -2.41235 10.9501 10
      vertex -3.81221 6.82564 10
      vertex -1.76237 10.9501 10
    endloop
  endfacet
  facet normal 0 0 1
    outer loop
      vertex -2.56001 10.9666 10
      vertex -3.81221 6.82564 10
      vertex -2.41235 10.9501 10
    endloop
  endfacet
  facet normal 0 0 1
    outer loop
      vertex -2.66548 11.0158 10
      vertex -3.81221 6.82564 10
      vertex -2.56001 10.9666 10
    endloop
  endfacet
  facet normal 0 0 1
    outer loop
      vertex -2.72876 11.0978 10
      vertex -3.81221 6.82564 10
      vertex -2.66548 11.0158 10
    endloop
  endfacet
  facet normal 0 0 1
    outer loop
      vertex -3.81221 6.82564 10
      vertex -2.72876 11.0978 10
      vertex -2.74985 11.2127 10
    endloop
  endfacet
  facet normal 0 0 1
    outer loop
      vertex -4.21536 4.37308 10
      vertex -6.51 3.5 10
      vertex -4.27866 4.29492 10
    endloop
  endfacet
  facet normal 0 0 1
    outer loop
      vertex -6.6722 10.9666 10
      vertex -6.51 3.5 10
      vertex -6.52454 10.9501 10
    endloop
  endfacet
  facet normal 0 0 1
    outer loop
      vertex -7.5 3.5 10
      vertex -6.6722 10.9666 10
      vertex -6.77766 11.0158 10
    endloop
  endfacet
  facet normal 0 0 1
    outer loop
      vertex -7.5 3.5 10
      vertex -6.77766 11.0158 10
      vertex -6.84094 11.0978 10
    endloop
  endfacet
  facet normal 0 0 1
    outer loop
      vertex -7.5 3.5 10
      vertex -6.84094 11.0978 10
      vertex -6.86205 11.2127 10
    endloop
  endfacet
  facet normal 0 0 1
    outer loop
      vertex -7.5 3.5 10
      vertex -6.86205 11.2127 10
      vertex -7.5 14.5 10
    endloop
  endfacet
  facet normal 0 0 1
    outer loop
      vertex -6.6722 10.9666 10
      vertex -7.5 3.5 10
      vertex -6.51 3.5 10
    endloop
  endfacet
  facet normal 0 0 1
    outer loop
      vertex -2.74985 11.2127 10
      vertex -4.8333 11.0978 10
      vertex -4.89658 11.0158 10
    endloop
  endfacet
  facet normal 0 0 1
    outer loop
      vertex -2.74985 11.2127 10
      vertex -4.89658 11.0158 10
      vertex -3.81221 6.82564 10
    endloop
  endfacet
  facet normal -0 0 1
    outer loop
      vertex -5.00204 10.9666 10
      vertex -3.81221 6.82564 10
      vertex -4.89658 11.0158 10
    endloop
  endfacet
  facet normal -0 0 1
    outer loop
      vertex -5.1497 10.9501 10
      vertex -3.81221 6.82564 10
      vertex -5.00204 10.9666 10
    endloop
  endfacet
  facet normal 0 0 1
    outer loop
      vertex -3.81221 6.82564 10
      vertex -5.1497 10.9501 10
      vertex -5.82462 10.9501 10
    endloop
  endfacet
  facet normal -1 0 0
    outer loop
      vertex -7.5 0 3
      vertex -7.5 17 3
      vertex -7.5 17 0
    endloop
  endfacet
  facet normal -1 0 0
    outer loop
      vertex -7.5 17 3
      vertex -7.5 3.5 9.01
      vertex -7.5 14.5 10
    endloop
  endfacet
  facet normal -1 0 0
    outer loop
      vertex -7.5 17 3
      vertex -7.5 0 3
      vertex -7.5 3.5 9.01
    endloop
  endfacet
  facet normal -1 0 0
    outer loop
      vertex -7.5 0 3
      vertex -7.5 17 0
      vertex -7.5 0 0
    endloop
  endfacet
  facet normal -1 -0 0
    outer loop
      vertex -7.5 3.5 9.01
      vertex -7.5 0 3
      vertex -7.5 2.14643 9.01
    endloop
  endfacet
  facet normal -1 -0 0
    outer loop
      vertex -7.5 14.5 10
      vertex -7.5 3.5 9.01
      vertex -7.5 3.5 10
    endloop
  endfacet
  facet normal 0 1 -0
    outer loop
      vertex 0 17 0
      vertex -7.5 17 3
      vertex 0 17 3
    endloop
  endfacet
  facet normal 0 1 0
    outer loop
      vertex -7.5 17 3
      vertex 0 17 0
      vertex -7.5 17 0
    endloop
  endfacet
  facet normal 0 0 -1
    outer loop
      vertex -7.5 0 0
      vertex 0 17 0
      vertex 0 0 0
    endloop
  endfacet
  facet normal -0 0 -1
    outer loop
      vertex 0 17 0
      vertex -7.5 0 0
      vertex -7.5 17 0
    endloop
  endfacet
  facet normal 1 0 0
    outer loop
      vertex 0 0 3
      vertex 0 17 3
      vertex 0 14.5 10
    endloop
  endfacet
  facet normal 1 0 0
    outer loop
      vertex 0 0 3
      vertex 0 14.5 10
      vertex 0 2.5 10
    endloop
  endfacet
  facet normal 1 0 0
    outer loop
      vertex 0 17 3
      vertex 0 0 3
      vertex 0 17 0
    endloop
  endfacet
  facet normal 1 0 0
    outer loop
      vertex 0 17 0
      vertex 0 0 3
      vertex 0 0 0
    endloop
  endfacet
  facet normal 0 -0.941742 0.336337
    outer loop
      vertex -7.5 2.14643 9.01
      vertex -7.5 0 3
      vertex -6.51 2.14643 9.01
    endloop
  endfacet
  facet normal 0 -0.941742 0.336335
    outer loop
      vertex -6.51 2.14643 9.01
      vertex 0 2.5 10
      vertex -6.51 2.5 10
    endloop
  endfacet
  facet normal 0 -0.941742 0.336337
    outer loop
      vertex 0 0 3
      vertex -6.51 2.14643 9.01
      vertex -7.5 0 3
    endloop
  endfacet
  facet normal -2.06658e-07 -0.941742 0.336336
    outer loop
      vertex -6.51 2.14643 9.01
      vertex 0 0 3
      vertex 0 2.5 10
    endloop
  endfacet
  facet normal 0 -1 0
    outer loop
      vertex -7.5 0 0
      vertex 0 0 3
      vertex -7.5 0 3
    endloop
  endfacet
  facet normal 0 -1 -0
    outer loop
      vertex 0 0 3
      vertex -7.5 0 0
      vertex 0 0 0
    endloop
  endfacet
  facet normal 0 0.941742 0.336336
    outer loop
      vertex 0 17 3
      vertex -7.5 14.5 10
      vertex 0 14.5 10
    endloop
  endfacet
  facet normal 0 0.941742 0.336336
    outer loop
      vertex -7.5 14.5 10
      vertex 0 17 3
      vertex -7.5 17 3
    endloop
  endfacet
  facet normal -0 0 1
    outer loop
      vertex -7.5 3.5 9.01
      vertex -6.51 2.14643 9.01
      vertex -6.51 3.5 9.01
    endloop
  endfacet
  facet normal 0 0 1
    outer loop
      vertex -6.51 2.14643 9.01
      vertex -7.5 3.5 9.01
      vertex -7.5 2.14643 9.01
    endloop
  endfacet
  facet normal -1 0 0
    outer loop
      vertex -6.51 3.5 9.01
      vertex -6.51 2.5 10
      vertex -6.51 3.5 10
    endloop
  endfacet
  facet normal -1 0 -0
    outer loop
      vertex -6.51 2.5 10
      vertex -6.51 3.5 9.01
      vertex -6.51 2.14643 9.01
    endloop
  endfacet
  facet normal 0 -1 0
    outer loop
      vertex -7.5 3.5 9.01
      vertex -6.51 3.5 10
      vertex -7.5 3.5 10
    endloop
  endfacet
  facet normal 0 -1 -0
    outer loop
      vertex -6.51 3.5 10
      vertex -7.5 3.5 9.01
      vertex -6.51 3.5 9.01
    endloop
  endfacet
  facet normal 0 0 1
    outer loop
      vertex -0.721832 11.4003 11.99
      vertex -0.637466 11.2127 11.99
      vertex -0.658554 11.3221 11.99
    endloop
  endfacet
  facet normal 0 0 1
    outer loop
      vertex -0.637466 11.2127 11.99
      vertex -0.721832 11.4003 11.99
      vertex -0.827301 11.4472 11.99
    endloop
  endfacet
  facet normal 0 0 1
    outer loop
      vertex -0.827301 10.9666 11.99
      vertex -0.637466 11.2127 11.99
      vertex -0.827301 11.4472 11.99
    endloop
  endfacet
  facet normal 0 0 1
    outer loop
      vertex -0.637466 11.2127 11.99
      vertex -0.827301 10.9666 11.99
      vertex -0.658554 11.0978 11.99
    endloop
  endfacet
  facet normal 0 0 1
    outer loop
      vertex -0.658554 11.0978 11.99
      vertex -0.827301 10.9666 11.99
      vertex -0.721832 11.0158 11.99
    endloop
  endfacet
  facet normal 0 0 1
    outer loop
      vertex -0.97496 11.4628 11.99
      vertex -0.827301 10.9666 11.99
      vertex -0.827301 11.4472 11.99
    endloop
  endfacet
  facet normal 0 0 1
    outer loop
      vertex -0.97496 11.4628 11.99
      vertex -0.97496 10.9501 11.99
      vertex -0.827301 10.9666 11.99
    endloop
  endfacet
  facet normal 0 0 1
    outer loop
      vertex -0.97496 11.4628 11.99
      vertex -1.17494 10.9501 11.99
      vertex -0.97496 10.9501 11.99
    endloop
  endfacet
  facet normal 0 0 1
    outer loop
      vertex -0.97496 11.4628 11.99
      vertex -1.76237 10.9501 11.99
      vertex -1.17494 10.9501 11.99
    endloop
  endfacet
  facet normal -0 0 1
    outer loop
      vertex -2.41235 11.4628 11.99
      vertex -1.76237 10.9501 11.99
      vertex -0.97496 11.4628 11.99
    endloop
  endfacet
  facet normal 0 0 1
    outer loop
      vertex -2.41235 11.4628 11.99
      vertex -2.41235 10.9501 11.99
      vertex -1.76237 10.9501 11.99
    endloop
  endfacet
  facet normal -0 0 1
    outer loop
      vertex -2.56001 11.4472 11.99
      vertex -2.41235 10.9501 11.99
      vertex -2.41235 11.4628 11.99
    endloop
  endfacet
  facet normal 0 0 1
    outer loop
      vertex -2.56001 11.4472 11.99
      vertex -2.56001 10.9666 11.99
      vertex -2.41235 10.9501 11.99
    endloop
  endfacet
  facet normal 0 0 1
    outer loop
      vertex -2.74985 11.2127 11.99
      vertex -2.56001 11.4472 11.99
      vertex -2.66548 11.4003 11.99
    endloop
  endfacet
  facet normal 0 0 1
    outer loop
      vertex -2.56001 11.4472 11.99
      vertex -2.74985 11.2127 11.99
      vertex -2.56001 10.9666 11.99
    endloop
  endfacet
  facet normal 0 0 1
    outer loop
      vertex -2.74985 11.2127 11.99
      vertex -2.66548 11.4003 11.99
      vertex -2.72876 11.3221 11.99
    endloop
  endfacet
  facet normal 0 0 1
    outer loop
      vertex -2.56001 10.9666 11.99
      vertex -2.74985 11.2127 11.99
      vertex -2.66548 11.0158 11.99
    endloop
  endfacet
  facet normal 0 0 1
    outer loop
      vertex -2.66548 11.0158 11.99
      vertex -2.74985 11.2127 11.99
      vertex -2.72876 11.0978 11.99
    endloop
  endfacet
  facet normal 0 0 1
    outer loop
      vertex -3.81221 6.82564 11.99
      vertex -1.17494 10.9501 11.99
      vertex -1.76237 10.9501 11.99
    endloop
  endfacet
  facet normal 0 0 1
    outer loop
      vertex -1.17494 10.9501 11.99
      vertex -3.81221 6.82564 11.99
      vertex -3.52475 6.24983 11.99
    endloop
  endfacet
  facet normal 0 0 1
    outer loop
      vertex -3.52475 6.24983 11.99
      vertex -3.14981 4.43561 11.99
      vertex -2.63736 4.43561 11.99
    endloop
  endfacet
  facet normal 0 0 1
    outer loop
      vertex -3.81221 6.82564 11.99
      vertex -3.14981 4.43561 11.99
      vertex -3.52475 6.24983 11.99
    endloop
  endfacet
  facet normal -0 0 1
    outer loop
      vertex -6.34958 10.9501 11.99
      vertex -3.81221 6.82564 11.99
      vertex -5.82462 10.9501 11.99
    endloop
  endfacet
  facet normal 0 0 1
    outer loop
      vertex -3.81221 6.82564 11.99
      vertex -6.34958 10.9501 11.99
      vertex -3.14981 4.43561 11.99
    endloop
  endfacet
  facet normal 0 0 1
    outer loop
      vertex -0.796814 4.37308 11.99
      vertex -0.712433 4.1855 11.99
      vertex -0.733521 4.29492 11.99
    endloop
  endfacet
  facet normal 0 0 1
    outer loop
      vertex -0.712433 4.1855 11.99
      vertex -0.796814 4.37308 11.99
      vertex -0.902283 4.41998 11.99
    endloop
  endfacet
  facet normal 0 0 1
    outer loop
      vertex -0.902283 3.93938 11.99
      vertex -0.712433 4.1855 11.99
      vertex -0.902283 4.41998 11.99
    endloop
  endfacet
  facet normal 0 0 1
    outer loop
      vertex -0.712433 4.1855 11.99
      vertex -0.902283 3.93938 11.99
      vertex -0.733521 4.07065 11.99
    endloop
  endfacet
  facet normal 0 0 1
    outer loop
      vertex -0.733521 4.07065 11.99
      vertex -0.902283 3.93938 11.99
      vertex -0.796814 3.9886 11.99
    endloop
  endfacet
  facet normal 0 0 1
    outer loop
      vertex -1.04993 4.43561 11.99
      vertex -0.902283 3.93938 11.99
      vertex -0.902283 4.41998 11.99
    endloop
  endfacet
  facet normal 0 0 1
    outer loop
      vertex -1.04993 4.43561 11.99
      vertex -1.04993 3.92297 11.99
      vertex -0.902283 3.93938 11.99
    endloop
  endfacet
  facet normal -0 0 1
    outer loop
      vertex -2.63736 4.43561 11.99
      vertex -1.04993 3.92297 11.99
      vertex -1.04993 4.43561 11.99
    endloop
  endfacet
  facet normal 0 0 1
    outer loop
      vertex -3.96225 3.92297 11.99
      vertex -2.63736 4.43561 11.99
      vertex -3.14981 4.43561 11.99
    endloop
  endfacet
  facet normal 0 0 1
    outer loop
      vertex -3.96225 3.92297 11.99
      vertex -3.14981 4.43561 11.99
      vertex -3.96225 4.43561 11.99
    endloop
  endfacet
  facet normal 0 0 1
    outer loop
      vertex -2.63736 4.43561 11.99
      vertex -3.96225 3.92297 11.99
      vertex -1.04993 3.92297 11.99
    endloop
  endfacet
  facet normal -0 0 1
    outer loop
      vertex -4.10989 4.41998 11.99
      vertex -3.96225 3.92297 11.99
      vertex -3.96225 4.43561 11.99
    endloop
  endfacet
  facet normal 0 0 1
    outer loop
      vertex -4.10989 4.41998 11.99
      vertex -4.10989 3.93938 11.99
      vertex -3.96225 3.92297 11.99
    endloop
  endfacet
  facet normal 0 0 1
    outer loop
      vertex -4.29974 4.1855 11.99
      vertex -4.10989 4.41998 11.99
      vertex -4.21536 4.37308 11.99
    endloop
  endfacet
  facet normal 0 0 1
    outer loop
      vertex -4.10989 4.41998 11.99
      vertex -4.29974 4.1855 11.99
      vertex -4.10989 3.93938 11.99
    endloop
  endfacet
  facet normal 0 0 1
    outer loop
      vertex -4.29974 4.1855 11.99
      vertex -4.21536 4.37308 11.99
      vertex -4.27866 4.29492 11.99
    endloop
  endfacet
  facet normal 0 0 1
    outer loop
      vertex -4.10989 3.93938 11.99
      vertex -4.29974 4.1855 11.99
      vertex -4.21536 3.9886 11.99
    endloop
  endfacet
  facet normal 0 0 1
    outer loop
      vertex -4.21536 3.9886 11.99
      vertex -4.29974 4.1855 11.99
      vertex -4.27866 4.07065 11.99
    endloop
  endfacet
  facet normal 0 0 1
    outer loop
      vertex -4.89658 11.4003 11.99
      vertex -4.81219 11.2127 11.99
      vertex -4.8333 11.3221 11.99
    endloop
  endfacet
  facet normal 0 0 1
    outer loop
      vertex -4.81219 11.2127 11.99
      vertex -4.89658 11.4003 11.99
      vertex -5.00204 11.4472 11.99
    endloop
  endfacet
  facet normal 0 0 1
    outer loop
      vertex -5.00204 10.9666 11.99
      vertex -4.81219 11.2127 11.99
      vertex -5.00204 11.4472 11.99
    endloop
  endfacet
  facet normal 0 0 1
    outer loop
      vertex -4.81219 11.2127 11.99
      vertex -5.00204 10.9666 11.99
      vertex -4.8333 11.0978 11.99
    endloop
  endfacet
  facet normal 0 0 1
    outer loop
      vertex -4.8333 11.0978 11.99
      vertex -5.00204 10.9666 11.99
      vertex -4.89658 11.0158 11.99
    endloop
  endfacet
  facet normal 0 0 1
    outer loop
      vertex -5.1497 11.4628 11.99
      vertex -5.00204 10.9666 11.99
      vertex -5.00204 11.4472 11.99
    endloop
  endfacet
  facet normal 0 0 1
    outer loop
      vertex -5.1497 11.4628 11.99
      vertex -5.1497 10.9501 11.99
      vertex -5.00204 10.9666 11.99
    endloop
  endfacet
  facet normal 0 0 1
    outer loop
      vertex -5.1497 11.4628 11.99
      vertex -5.82462 10.9501 11.99
      vertex -5.1497 10.9501 11.99
    endloop
  endfacet
  facet normal -0 0 1
    outer loop
      vertex -6.52454 11.4628 11.99
      vertex -5.82462 10.9501 11.99
      vertex -5.1497 11.4628 11.99
    endloop
  endfacet
  facet normal 0 0 1
    outer loop
      vertex -5.82462 10.9501 11.99
      vertex -6.52454 11.4628 11.99
      vertex -6.34958 10.9501 11.99
    endloop
  endfacet
  facet normal 0 0 1
    outer loop
      vertex -6.52454 11.4628 11.99
      vertex -6.52454 10.9501 11.99
      vertex -6.34958 10.9501 11.99
    endloop
  endfacet
  facet normal -0 0 1
    outer loop
      vertex -6.6722 11.4472 11.99
      vertex -6.52454 10.9501 11.99
      vertex -6.52454 11.4628 11.99
    endloop
  endfacet
  facet normal 0 0 1
    outer loop
      vertex -6.6722 11.4472 11.99
      vertex -6.6722 10.9666 11.99
      vertex -6.52454 10.9501 11.99
    endloop
  endfacet
  facet normal 0 0 1
    outer loop
      vertex -6.86205 11.2127 11.99
      vertex -6.6722 11.4472 11.99
      vertex -6.77766 11.4003 11.99
    endloop
  endfacet
  facet normal 0 0 1
    outer loop
      vertex -6.6722 11.4472 11.99
      vertex -6.86205 11.2127 11.99
      vertex -6.6722 10.9666 11.99
    endloop
  endfacet
  facet normal 0 0 1
    outer loop
      vertex -6.86205 11.2127 11.99
      vertex -6.77766 11.4003 11.99
      vertex -6.84094 11.3221 11.99
    endloop
  endfacet
  facet normal 0 0 1
    outer loop
      vertex -6.6722 10.9666 11.99
      vertex -6.86205 11.2127 11.99
      vertex -6.77766 11.0158 11.99
    endloop
  endfacet
  facet normal 0 0 1
    outer loop
      vertex -6.77766 11.0158 11.99
      vertex -6.86205 11.2127 11.99
      vertex -6.84094 11.0978 11.99
    endloop
  endfacet
  facet normal -0.42289 -0.906181 0
    outer loop
      vertex -4.21536 3.9886 10
      vertex -4.10989 3.93938 11.99
      vertex -4.21536 3.9886 11.99
    endloop
  endfacet
  facet normal -0.42289 -0.906181 -0
    outer loop
      vertex -4.10989 3.93938 11.99
      vertex -4.21536 3.9886 10
      vertex -4.10989 3.93938 10
    endloop
  endfacet
  facet normal -0.791762 -0.610829 0
    outer loop
      vertex -4.21536 3.9886 10
      vertex -4.27866 4.07065 11.99
      vertex -4.27866 4.07065 10
    endloop
  endfacet
  facet normal -0.791762 -0.610829 0
    outer loop
      vertex -4.27866 4.07065 11.99
      vertex -4.21536 3.9886 10
      vertex -4.21536 3.9886 11.99
    endloop
  endfacet
  facet normal -0.98357 -0.180528 0
    outer loop
      vertex -4.27866 4.07065 10
      vertex -4.29974 4.1855 11.99
      vertex -4.29974 4.1855 10
    endloop
  endfacet
  facet normal -0.98357 -0.180528 0
    outer loop
      vertex -4.29974 4.1855 11.99
      vertex -4.27866 4.07065 10
      vertex -4.27866 4.07065 11.99
    endloop
  endfacet
  facet normal -0.981944 0.189174 0
    outer loop
      vertex -4.29974 4.1855 10
      vertex -4.27866 4.29492 11.99
      vertex -4.27866 4.29492 10
    endloop
  endfacet
  facet normal -0.981944 0.189174 0
    outer loop
      vertex -4.27866 4.29492 11.99
      vertex -4.29974 4.1855 10
      vertex -4.29974 4.1855 11.99
    endloop
  endfacet
  facet normal -0.777111 0.629364 0
    outer loop
      vertex -4.27866 4.29492 10
      vertex -4.21536 4.37308 11.99
      vertex -4.21536 4.37308 10
    endloop
  endfacet
  facet normal -0.777111 0.629364 0
    outer loop
      vertex -4.21536 4.37308 11.99
      vertex -4.27866 4.29492 10
      vertex -4.27866 4.29492 11.99
    endloop
  endfacet
  facet normal -0.406315 0.913733 0
    outer loop
      vertex -4.10989 4.41998 10
      vertex -4.21536 4.37308 11.99
      vertex -4.10989 4.41998 11.99
    endloop
  endfacet
  facet normal -0.406315 0.913733 0
    outer loop
      vertex -4.21536 4.37308 11.99
      vertex -4.10989 4.41998 10
      vertex -4.21536 4.37308 10
    endloop
  endfacet
  facet normal -0.105277 0.994443 0
    outer loop
      vertex -3.96225 4.43561 10
      vertex -4.10989 4.41998 11.99
      vertex -3.96225 4.43561 11.99
    endloop
  endfacet
  facet normal -0.105277 0.994443 0
    outer loop
      vertex -4.10989 4.41998 11.99
      vertex -3.96225 4.43561 10
      vertex -4.10989 4.41998 10
    endloop
  endfacet
  facet normal 0 1 -0
    outer loop
      vertex -3.14981 4.43561 10
      vertex -3.96225 4.43561 11.99
      vertex -3.14981 4.43561 11.99
    endloop
  endfacet
  facet normal 0 1 0
    outer loop
      vertex -3.96225 4.43561 11.99
      vertex -3.14981 4.43561 10
      vertex -3.96225 4.43561 10
    endloop
  endfacet
  facet normal -0.897572 -0.440867 0
    outer loop
      vertex -3.14981 4.43561 10
      vertex -6.34958 10.9501 11.99
      vertex -6.34958 10.9501 10
    endloop
  endfacet
  facet normal -0.897572 -0.440867 0
    outer loop
      vertex -6.34958 10.9501 11.99
      vertex -3.14981 4.43561 10
      vertex -3.14981 4.43561 11.99
    endloop
  endfacet
  facet normal 0 -1 0
    outer loop
      vertex -6.52454 10.9501 10
      vertex -6.34958 10.9501 11.99
      vertex -6.52454 10.9501 11.99
    endloop
  endfacet
  facet normal 0 -1 -0
    outer loop
      vertex -6.34958 10.9501 11.99
      vertex -6.52454 10.9501 10
      vertex -6.34958 10.9501 10
    endloop
  endfacet
  facet normal -0.111052 -0.993815 0
    outer loop
      vertex -6.6722 10.9666 10
      vertex -6.52454 10.9501 11.99
      vertex -6.6722 10.9666 11.99
    endloop
  endfacet
  facet normal -0.111052 -0.993815 -0
    outer loop
      vertex -6.52454 10.9501 11.99
      vertex -6.6722 10.9666 10
      vertex -6.52454 10.9501 10
    endloop
  endfacet
  facet normal -0.422782 -0.906231 0
    outer loop
      vertex -6.77766 11.0158 10
      vertex -6.6722 10.9666 11.99
      vertex -6.77766 11.0158 11.99
    endloop
  endfacet
  facet normal -0.422782 -0.906231 -0
    outer loop
      vertex -6.6722 10.9666 11.99
      vertex -6.77766 11.0158 10
      vertex -6.6722 10.9666 10
    endloop
  endfacet
  facet normal -0.791676 -0.610942 0
    outer loop
      vertex -6.77766 11.0158 10
      vertex -6.84094 11.0978 11.99
      vertex -6.84094 11.0978 10
    endloop
  endfacet
  facet normal -0.791676 -0.610942 0
    outer loop
      vertex -6.84094 11.0978 11.99
      vertex -6.77766 11.0158 10
      vertex -6.77766 11.0158 11.99
    endloop
  endfacet
  facet normal -0.983538 -0.180701 0
    outer loop
      vertex -6.84094 11.0978 10
      vertex -6.86205 11.2127 11.99
      vertex -6.86205 11.2127 10
    endloop
  endfacet
  facet normal -0.983538 -0.180701 0
    outer loop
      vertex -6.86205 11.2127 11.99
      vertex -6.84094 11.0978 10
      vertex -6.84094 11.0978 11.99
    endloop
  endfacet
  facet normal -0.981887 0.189467 0
    outer loop
      vertex -6.86205 11.2127 10
      vertex -6.84094 11.3221 11.99
      vertex -6.84094 11.3221 10
    endloop
  endfacet
  facet normal -0.981887 0.189467 0
    outer loop
      vertex -6.84094 11.3221 11.99
      vertex -6.86205 11.2127 10
      vertex -6.86205 11.2127 11.99
    endloop
  endfacet
  facet normal -0.777365 0.62905 0
    outer loop
      vertex -6.84094 11.3221 10
      vertex -6.77766 11.4003 11.99
      vertex -6.77766 11.4003 10
    endloop
  endfacet
  facet normal -0.777365 0.62905 0
    outer loop
      vertex -6.77766 11.4003 11.99
      vertex -6.84094 11.3221 10
      vertex -6.84094 11.3221 11.99
    endloop
  endfacet
  facet normal -0.406347 0.913719 0
    outer loop
      vertex -6.6722 11.4472 10
      vertex -6.77766 11.4003 11.99
      vertex -6.6722 11.4472 11.99
    endloop
  endfacet
  facet normal -0.406347 0.913719 0
    outer loop
      vertex -6.77766 11.4003 11.99
      vertex -6.6722 11.4472 10
      vertex -6.77766 11.4003 10
    endloop
  endfacet
  facet normal -0.105063 0.994466 0
    outer loop
      vertex -6.52454 11.4628 10
      vertex -6.6722 11.4472 11.99
      vertex -6.52454 11.4628 11.99
    endloop
  endfacet
  facet normal -0.105063 0.994466 0
    outer loop
      vertex -6.6722 11.4472 11.99
      vertex -6.52454 11.4628 10
      vertex -6.6722 11.4472 10
    endloop
  endfacet
  facet normal 0 1 -0
    outer loop
      vertex -5.1497 11.4628 10
      vertex -6.52454 11.4628 11.99
      vertex -5.1497 11.4628 11.99
    endloop
  endfacet
  facet normal 0 1 0
    outer loop
      vertex -6.52454 11.4628 11.99
      vertex -5.1497 11.4628 10
      vertex -6.52454 11.4628 10
    endloop
  endfacet
  facet normal 0.105063 0.994466 -0
    outer loop
      vertex -5.00204 11.4472 10
      vertex -5.1497 11.4628 11.99
      vertex -5.00204 11.4472 11.99
    endloop
  endfacet
  facet normal 0.105063 0.994466 0
    outer loop
      vertex -5.1497 11.4628 11.99
      vertex -5.00204 11.4472 10
      vertex -5.1497 11.4628 10
    endloop
  endfacet
  facet normal 0.406347 0.913719 -0
    outer loop
      vertex -4.89658 11.4003 10
      vertex -5.00204 11.4472 11.99
      vertex -4.89658 11.4003 11.99
    endloop
  endfacet
  facet normal 0.406347 0.913719 0
    outer loop
      vertex -5.00204 11.4472 11.99
      vertex -4.89658 11.4003 10
      vertex -5.00204 11.4472 10
    endloop
  endfacet
  facet normal 0.777365 0.62905 0
    outer loop
      vertex -4.8333 11.3221 11.99
      vertex -4.89658 11.4003 10
      vertex -4.89658 11.4003 11.99
    endloop
  endfacet
  facet normal 0.777365 0.62905 0
    outer loop
      vertex -4.89658 11.4003 10
      vertex -4.8333 11.3221 11.99
      vertex -4.8333 11.3221 10
    endloop
  endfacet
  facet normal 0.981887 0.189467 0
    outer loop
      vertex -4.81219 11.2127 11.99
      vertex -4.8333 11.3221 10
      vertex -4.8333 11.3221 11.99
    endloop
  endfacet
  facet normal 0.981887 0.189467 0
    outer loop
      vertex -4.8333 11.3221 10
      vertex -4.81219 11.2127 11.99
      vertex -4.81219 11.2127 10
    endloop
  endfacet
  facet normal 0.983538 -0.180701 0
    outer loop
      vertex -4.8333 11.0978 11.99
      vertex -4.81219 11.2127 10
      vertex -4.81219 11.2127 11.99
    endloop
  endfacet
  facet normal 0.983538 -0.180701 0
    outer loop
      vertex -4.81219 11.2127 10
      vertex -4.8333 11.0978 11.99
      vertex -4.8333 11.0978 10
    endloop
  endfacet
  facet normal 0.791676 -0.610942 0
    outer loop
      vertex -4.89658 11.0158 11.99
      vertex -4.8333 11.0978 10
      vertex -4.8333 11.0978 11.99
    endloop
  endfacet
  facet normal 0.791676 -0.610942 0
    outer loop
      vertex -4.8333 11.0978 10
      vertex -4.89658 11.0158 11.99
      vertex -4.89658 11.0158 10
    endloop
  endfacet
  facet normal 0.422782 -0.906231 0
    outer loop
      vertex -5.00204 10.9666 10
      vertex -4.89658 11.0158 11.99
      vertex -5.00204 10.9666 11.99
    endloop
  endfacet
  facet normal 0.422782 -0.906231 0
    outer loop
      vertex -4.89658 11.0158 11.99
      vertex -5.00204 10.9666 10
      vertex -4.89658 11.0158 10
    endloop
  endfacet
  facet normal 0.111052 -0.993815 0
    outer loop
      vertex -5.1497 10.9501 10
      vertex -5.00204 10.9666 11.99
      vertex -5.1497 10.9501 11.99
    endloop
  endfacet
  facet normal 0.111052 -0.993815 0
    outer loop
      vertex -5.00204 10.9666 11.99
      vertex -5.1497 10.9501 10
      vertex -5.00204 10.9666 10
    endloop
  endfacet
  facet normal 0 -1 0
    outer loop
      vertex -5.82462 10.9501 10
      vertex -5.1497 10.9501 11.99
      vertex -5.82462 10.9501 11.99
    endloop
  endfacet
  facet normal 0 -1 -0
    outer loop
      vertex -5.1497 10.9501 11.99
      vertex -5.82462 10.9501 10
      vertex -5.1497 10.9501 10
    endloop
  endfacet
  facet normal 0.898727 0.438508 0
    outer loop
      vertex -3.81221 6.82564 11.99
      vertex -5.82462 10.9501 10
      vertex -5.82462 10.9501 11.99
    endloop
  endfacet
  facet normal 0.898727 0.438508 0
    outer loop
      vertex -5.82462 10.9501 10
      vertex -3.81221 6.82564 11.99
      vertex -3.81221 6.82564 10
    endloop
  endfacet
  facet normal -0.895501 0.44506 0
    outer loop
      vertex -3.81221 6.82564 10
      vertex -1.76237 10.9501 11.99
      vertex -1.76237 10.9501 10
    endloop
  endfacet
  facet normal -0.895501 0.44506 0
    outer loop
      vertex -1.76237 10.9501 11.99
      vertex -3.81221 6.82564 10
      vertex -3.81221 6.82564 11.99
    endloop
  endfacet
  facet normal 0 -1 0
    outer loop
      vertex -2.41235 10.9501 10
      vertex -1.76237 10.9501 11.99
      vertex -2.41235 10.9501 11.99
    endloop
  endfacet
  facet normal 0 -1 -0
    outer loop
      vertex -1.76237 10.9501 11.99
      vertex -2.41235 10.9501 10
      vertex -1.76237 10.9501 10
    endloop
  endfacet
  facet normal -0.111052 -0.993815 0
    outer loop
      vertex -2.56001 10.9666 10
      vertex -2.41235 10.9501 11.99
      vertex -2.56001 10.9666 11.99
    endloop
  endfacet
  facet normal -0.111052 -0.993815 -0
    outer loop
      vertex -2.41235 10.9501 11.99
      vertex -2.56001 10.9666 10
      vertex -2.41235 10.9501 10
    endloop
  endfacet
  facet normal -0.422749 -0.906247 0
    outer loop
      vertex -2.66548 11.0158 10
      vertex -2.56001 10.9666 11.99
      vertex -2.66548 11.0158 11.99
    endloop
  endfacet
  facet normal -0.422749 -0.906247 -0
    outer loop
      vertex -2.56001 10.9666 11.99
      vertex -2.66548 11.0158 10
      vertex -2.56001 10.9666 10
    endloop
  endfacet
  facet normal -0.791676 -0.610942 0
    outer loop
      vertex -2.66548 11.0158 10
      vertex -2.72876 11.0978 11.99
      vertex -2.72876 11.0978 10
    endloop
  endfacet
  facet normal -0.791676 -0.610942 0
    outer loop
      vertex -2.72876 11.0978 11.99
      vertex -2.66548 11.0158 10
      vertex -2.66548 11.0158 11.99
    endloop
  endfacet
  facet normal -0.983569 -0.180535 0
    outer loop
      vertex -2.72876 11.0978 10
      vertex -2.74985 11.2127 11.99
      vertex -2.74985 11.2127 10
    endloop
  endfacet
  facet normal -0.983569 -0.180535 0
    outer loop
      vertex -2.74985 11.2127 11.99
      vertex -2.72876 11.0978 10
      vertex -2.72876 11.0978 11.99
    endloop
  endfacet
  facet normal -0.981921 0.189293 0
    outer loop
      vertex -2.74985 11.2127 10
      vertex -2.72876 11.3221 11.99
      vertex -2.72876 11.3221 10
    endloop
  endfacet
  facet normal -0.981921 0.189293 0
    outer loop
      vertex -2.72876 11.3221 11.99
      vertex -2.74985 11.2127 10
      vertex -2.74985 11.2127 11.99
    endloop
  endfacet
  facet normal -0.777365 0.62905 0
    outer loop
      vertex -2.72876 11.3221 10
      vertex -2.66548 11.4003 11.99
      vertex -2.66548 11.4003 10
    endloop
  endfacet
  facet normal -0.777365 0.62905 0
    outer loop
      vertex -2.66548 11.4003 11.99
      vertex -2.72876 11.3221 10
      vertex -2.72876 11.3221 11.99
    endloop
  endfacet
  facet normal -0.406315 0.913733 0
    outer loop
      vertex -2.56001 11.4472 10
      vertex -2.66548 11.4003 11.99
      vertex -2.56001 11.4472 11.99
    endloop
  endfacet
  facet normal -0.406315 0.913733 0
    outer loop
      vertex -2.66548 11.4003 11.99
      vertex -2.56001 11.4472 10
      vertex -2.66548 11.4003 10
    endloop
  endfacet
  facet normal -0.105063 0.994466 0
    outer loop
      vertex -2.41235 11.4628 10
      vertex -2.56001 11.4472 11.99
      vertex -2.41235 11.4628 11.99
    endloop
  endfacet
  facet normal -0.105063 0.994466 0
    outer loop
      vertex -2.56001 11.4472 11.99
      vertex -2.41235 11.4628 10
      vertex -2.56001 11.4472 10
    endloop
  endfacet
  facet normal 0 1 -0
    outer loop
      vertex -0.97496 11.4628 10
      vertex -2.41235 11.4628 11.99
      vertex -0.97496 11.4628 11.99
    endloop
  endfacet
  facet normal 0 1 0
    outer loop
      vertex -2.41235 11.4628 11.99
      vertex -0.97496 11.4628 10
      vertex -2.41235 11.4628 10
    endloop
  endfacet
  facet normal 0.105064 0.994465 -0
    outer loop
      vertex -0.827301 11.4472 10
      vertex -0.97496 11.4628 11.99
      vertex -0.827301 11.4472 11.99
    endloop
  endfacet
  facet normal 0.105064 0.994465 0
    outer loop
      vertex -0.97496 11.4628 11.99
      vertex -0.827301 11.4472 10
      vertex -0.97496 11.4628 10
    endloop
  endfacet
  facet normal 0.406319 0.913732 -0
    outer loop
      vertex -0.721832 11.4003 10
      vertex -0.827301 11.4472 11.99
      vertex -0.721832 11.4003 11.99
    endloop
  endfacet
  facet normal 0.406319 0.913732 0
    outer loop
      vertex -0.827301 11.4472 11.99
      vertex -0.721832 11.4003 10
      vertex -0.827301 11.4472 10
    endloop
  endfacet
  facet normal 0.777375 0.629038 0
    outer loop
      vertex -0.658554 11.3221 11.99
      vertex -0.721832 11.4003 10
      vertex -0.721832 11.4003 11.99
    endloop
  endfacet
  facet normal 0.777375 0.629038 0
    outer loop
      vertex -0.721832 11.4003 10
      vertex -0.658554 11.3221 11.99
      vertex -0.658554 11.3221 10
    endloop
  endfacet
  facet normal 0.981924 0.189276 0
    outer loop
      vertex -0.637466 11.2127 11.99
      vertex -0.658554 11.3221 10
      vertex -0.658554 11.3221 11.99
    endloop
  endfacet
  facet normal 0.981924 0.189276 0
    outer loop
      vertex -0.658554 11.3221 10
      vertex -0.637466 11.2127 11.99
      vertex -0.637466 11.2127 10
    endloop
  endfacet
  facet normal 0.983572 -0.180518 0
    outer loop
      vertex -0.658554 11.0978 11.99
      vertex -0.637466 11.2127 10
      vertex -0.637466 11.2127 11.99
    endloop
  endfacet
  facet normal 0.983572 -0.180518 0
    outer loop
      vertex -0.637466 11.2127 10
      vertex -0.658554 11.0978 11.99
      vertex -0.658554 11.0978 10
    endloop
  endfacet
  facet normal 0.791685 -0.61093 0
    outer loop
      vertex -0.721832 11.0158 11.99
      vertex -0.658554 11.0978 10
      vertex -0.658554 11.0978 11.99
    endloop
  endfacet
  facet normal 0.791685 -0.61093 0
    outer loop
      vertex -0.658554 11.0978 10
      vertex -0.721832 11.0158 11.99
      vertex -0.721832 11.0158 10
    endloop
  endfacet
  facet normal 0.422752 -0.906245 0
    outer loop
      vertex -0.827301 10.9666 10
      vertex -0.721832 11.0158 11.99
      vertex -0.827301 10.9666 11.99
    endloop
  endfacet
  facet normal 0.422752 -0.906245 0
    outer loop
      vertex -0.721832 11.0158 11.99
      vertex -0.827301 10.9666 10
      vertex -0.721832 11.0158 10
    endloop
  endfacet
  facet normal 0.111053 -0.993815 0
    outer loop
      vertex -0.97496 10.9501 10
      vertex -0.827301 10.9666 11.99
      vertex -0.97496 10.9501 11.99
    endloop
  endfacet
  facet normal 0.111053 -0.993815 0
    outer loop
      vertex -0.827301 10.9666 11.99
      vertex -0.97496 10.9501 10
      vertex -0.827301 10.9666 10
    endloop
  endfacet
  facet normal 0 -1 0
    outer loop
      vertex -1.17494 10.9501 10
      vertex -0.97496 10.9501 11.99
      vertex -1.17494 10.9501 11.99
    endloop
  endfacet
  facet normal 0 -1 -0
    outer loop
      vertex -0.97496 10.9501 11.99
      vertex -1.17494 10.9501 10
      vertex -0.97496 10.9501 10
    endloop
  endfacet
  facet normal 0.894452 -0.447164 0
    outer loop
      vertex -3.52475 6.24983 11.99
      vertex -1.17494 10.9501 10
      vertex -1.17494 10.9501 11.99
    endloop
  endfacet
  facet normal 0.894452 -0.447164 0
    outer loop
      vertex -1.17494 10.9501 10
      vertex -3.52475 6.24983 11.99
      vertex -3.52475 6.24983 10
    endloop
  endfacet
  facet normal 0.898299 0.439385 0
    outer loop
      vertex -2.63736 4.43561 11.99
      vertex -3.52475 6.24983 10
      vertex -3.52475 6.24983 11.99
    endloop
  endfacet
  facet normal 0.898299 0.439385 0
    outer loop
      vertex -3.52475 6.24983 10
      vertex -2.63736 4.43561 11.99
      vertex -2.63736 4.43561 10
    endloop
  endfacet
  facet normal 0 1 -0
    outer loop
      vertex -1.04993 4.43561 10
      vertex -2.63736 4.43561 11.99
      vertex -1.04993 4.43561 11.99
    endloop
  endfacet
  facet normal 0 1 0
    outer loop
      vertex -2.63736 4.43561 11.99
      vertex -1.04993 4.43561 10
      vertex -2.63736 4.43561 10
    endloop
  endfacet
  facet normal 0.105272 0.994443 -0
    outer loop
      vertex -0.902283 4.41998 10
      vertex -1.04993 4.43561 11.99
      vertex -0.902283 4.41998 11.99
    endloop
  endfacet
  facet normal 0.105272 0.994443 0
    outer loop
      vertex -1.04993 4.43561 11.99
      vertex -0.902283 4.41998 10
      vertex -1.04993 4.43561 10
    endloop
  endfacet
  facet normal 0.406319 0.913732 -0
    outer loop
      vertex -0.796814 4.37308 10
      vertex -0.902283 4.41998 11.99
      vertex -0.796814 4.37308 11.99
    endloop
  endfacet
  facet normal 0.406319 0.913732 0
    outer loop
      vertex -0.902283 4.41998 11.99
      vertex -0.796814 4.37308 10
      vertex -0.902283 4.41998 10
    endloop
  endfacet
  facet normal 0.777145 0.629322 0
    outer loop
      vertex -0.733521 4.29492 11.99
      vertex -0.796814 4.37308 10
      vertex -0.796814 4.37308 11.99
    endloop
  endfacet
  facet normal 0.777145 0.629322 0
    outer loop
      vertex -0.796814 4.37308 10
      vertex -0.733521 4.29492 11.99
      vertex -0.733521 4.29492 10
    endloop
  endfacet
  facet normal 0.98193 0.189243 0
    outer loop
      vertex -0.712433 4.1855 11.99
      vertex -0.733521 4.29492 10
      vertex -0.733521 4.29492 11.99
    endloop
  endfacet
  facet normal 0.98193 0.189243 0
    outer loop
      vertex -0.733521 4.29492 10
      vertex -0.712433 4.1855 11.99
      vertex -0.712433 4.1855 10
    endloop
  endfacet
  facet normal 0.983558 -0.180594 0
    outer loop
      vertex -0.733521 4.07065 11.99
      vertex -0.712433 4.1855 10
      vertex -0.712433 4.1855 11.99
    endloop
  endfacet
  facet normal 0.983558 -0.180594 0
    outer loop
      vertex -0.712433 4.1855 10
      vertex -0.733521 4.07065 11.99
      vertex -0.733521 4.07065 10
    endloop
  endfacet
  facet normal 0.791795 -0.610787 0
    outer loop
      vertex -0.796814 3.9886 11.99
      vertex -0.733521 4.07065 10
      vertex -0.733521 4.07065 11.99
    endloop
  endfacet
  facet normal 0.791795 -0.610787 0
    outer loop
      vertex -0.733521 4.07065 10
      vertex -0.796814 3.9886 11.99
      vertex -0.796814 3.9886 10
    endloop
  endfacet
  facet normal 0.422893 -0.906179 0
    outer loop
      vertex -0.902283 3.93938 10
      vertex -0.796814 3.9886 11.99
      vertex -0.902283 3.93938 11.99
    endloop
  endfacet
  facet normal 0.422893 -0.906179 0
    outer loop
      vertex -0.796814 3.9886 11.99
      vertex -0.902283 3.93938 10
      vertex -0.796814 3.9886 10
    endloop
  endfacet
  facet normal 0.110463 -0.99388 0
    outer loop
      vertex -1.04993 3.92297 10
      vertex -0.902283 3.93938 11.99
      vertex -1.04993 3.92297 11.99
    endloop
  endfacet
  facet normal 0.110463 -0.99388 0
    outer loop
      vertex -0.902283 3.93938 11.99
      vertex -1.04993 3.92297 10
      vertex -0.902283 3.93938 10
    endloop
  endfacet
  facet normal 0 -1 0
    outer loop
      vertex -3.96225 3.92297 10
      vertex -1.04993 3.92297 11.99
      vertex -3.96225 3.92297 11.99
    endloop
  endfacet
  facet normal 0 -1 -0
    outer loop
      vertex -1.04993 3.92297 11.99
      vertex -3.96225 3.92297 10
      vertex -1.04993 3.92297 10
    endloop
  endfacet
  facet normal -0.110468 -0.99388 0
    outer loop
      vertex -4.10989 3.93938 10
      vertex -3.96225 3.92297 11.99
      vertex -4.10989 3.93938 11.99
    endloop
  endfacet
  facet normal -0.110468 -0.99388 -0
    outer loop
      vertex -3.96225 3.92297 11.99
      vertex -4.10989 3.93938 10
      vertex -3.96225 3.92297 10
    endloop
  endfacet
endsolid OpenSCAD_Model
