solid OpenSCAD_Model
  facet normal 0 0 1
    outer loop
      vertex -2.13731 6.76263 10
      vertex -5.61601 7.60974 10
      vertex -5.59961 7.4622 10
    endloop
  endfacet
  facet normal 0 0 1
    outer loop
      vertex -2.13731 6.76263 10
      vertex -5.66522 7.71512 10
      vertex -5.61601 7.60974 10
    endloop
  endfacet
  facet normal 0 0 1
    outer loop
      vertex -5.92461 11.0124 10
      vertex -5.66522 7.71512 10
      vertex -2.13731 6.76263 10
    endloop
  endfacet
  facet normal 0 0 1
    outer loop
      vertex -5.66522 7.71512 10
      vertex -5.92461 11.0124 10
      vertex -5.74724 7.77835 10
    endloop
  endfacet
  facet normal 0 0 1
    outer loop
      vertex -5.92461 11.0124 10
      vertex -5.86205 7.79944 10
      vertex -5.74724 7.77835 10
    endloop
  endfacet
  facet normal 0 0 1
    outer loop
      vertex -5.86205 7.79944 10
      vertex -5.92461 11.0124 10
      vertex -5.97144 7.77835 10
    endloop
  endfacet
  facet normal 0 0 1
    outer loop
      vertex -2.13731 6.76263 10
      vertex -5.59961 7.4622 10
      vertex -5.59961 6.76263 10
    endloop
  endfacet
  facet normal 0 0 1
    outer loop
      vertex -2.06235 10.9501 10
      vertex -5.19965 10.9501 10
      vertex -2.06235 10.2663 10
    endloop
  endfacet
  facet normal 0 0 1
    outer loop
      vertex 0 14.5 10
      vertex -1.43738 6.7 10
      vertex 0 2.5 10
    endloop
  endfacet
  facet normal 0 0 1
    outer loop
      vertex -1.54988 10.267 10
      vertex 0 14.5 10
      vertex -1.54988 11.4628 10
    endloop
  endfacet
  facet normal 0 0 1
    outer loop
      vertex 0 14.5 10
      vertex -5.92461 11.4628 10
      vertex -1.54988 11.4628 10
    endloop
  endfacet
  facet normal 0 0 1
    outer loop
      vertex -7.5 14.5 10
      vertex -5.92461 11.0124 10
      vertex -5.92461 11.4628 10
    endloop
  endfacet
  facet normal 0 0 1
    outer loop
      vertex -5.92461 11.0124 10
      vertex -6.04956 7.71507 10
      vertex -5.97144 7.77835 10
    endloop
  endfacet
  facet normal 0 0 1
    outer loop
      vertex -5.92461 11.0124 10
      vertex -6.09645 7.60963 10
      vertex -6.04956 7.71507 10
    endloop
  endfacet
  facet normal 0 0 1
    outer loop
      vertex -5.92461 11.0124 10
      vertex -7.5 14.5 10
      vertex -6.09645 7.60963 10
    endloop
  endfacet
  facet normal 0 0 1
    outer loop
      vertex -7.5 3.5 10
      vertex -6.11208 6.25 10
      vertex -6.11208 7.46202 10
    endloop
  endfacet
  facet normal 0 0 1
    outer loop
      vertex -7.5 3.5 10
      vertex -6.09645 7.60963 10
      vertex -7.5 14.5 10
    endloop
  endfacet
  facet normal -0 0 1
    outer loop
      vertex -7.5 14.5 10
      vertex -5.92461 11.4628 10
      vertex 0 14.5 10
    endloop
  endfacet
  facet normal 0 0 1
    outer loop
      vertex -6.09645 7.60963 10
      vertex -7.5 3.5 10
      vertex -6.11208 7.46202 10
    endloop
  endfacet
  facet normal 0 0 1
    outer loop
      vertex -6.11208 6.25 10
      vertex -7.5 3.5 10
      vertex -6.51 3.5 10
    endloop
  endfacet
  facet normal -0 0 1
    outer loop
      vertex -1.43738 6.25 10
      vertex 0 2.5 10
      vertex -1.43738 6.7 10
    endloop
  endfacet
  facet normal 0 0 1
    outer loop
      vertex -6.51 3.5 10
      vertex -1.43738 6.25 10
      vertex -6.11208 6.25 10
    endloop
  endfacet
  facet normal 0 0 1
    outer loop
      vertex -1.43738 6.25 10
      vertex -6.51 3.5 10
      vertex 0 2.5 10
    endloop
  endfacet
  facet normal 0 0 1
    outer loop
      vertex 0 2.5 10
      vertex -6.51 3.5 10
      vertex -6.51 2.5 10
    endloop
  endfacet
  facet normal 0 0 1
    outer loop
      vertex -1.56628 10.1198 10
      vertex 0 14.5 10
      vertex -1.54988 10.267 10
    endloop
  endfacet
  facet normal 0 0 1
    outer loop
      vertex 0 14.5 10
      vertex -1.56628 10.1198 10
      vertex -1.43738 6.7 10
    endloop
  endfacet
  facet normal -0 0 1
    outer loop
      vertex -1.61549 10.0147 10
      vertex -1.43738 6.7 10
      vertex -1.56628 10.1198 10
    endloop
  endfacet
  facet normal -0 0 1
    outer loop
      vertex -1.69751 9.95166 10
      vertex -1.43738 6.7 10
      vertex -1.61549 10.0147 10
    endloop
  endfacet
  facet normal -0 0 1
    outer loop
      vertex -1.81232 9.93063 10
      vertex -1.43738 6.7 10
      vertex -1.69751 9.95166 10
    endloop
  endfacet
  facet normal 0 0 1
    outer loop
      vertex -1.92171 9.95161 10
      vertex -1.43738 6.7 10
      vertex -1.81232 9.93063 10
    endloop
  endfacet
  facet normal 0 0 1
    outer loop
      vertex -1.99983 10.0146 10
      vertex -1.43738 6.7 10
      vertex -1.92171 9.95161 10
    endloop
  endfacet
  facet normal 0 0 1
    outer loop
      vertex -5.19965 10.9501 10
      vertex -1.99983 10.0146 10
      vertex -2.04672 10.1195 10
    endloop
  endfacet
  facet normal 0 0 1
    outer loop
      vertex -1.99983 10.0146 10
      vertex -5.19965 10.9501 10
      vertex -1.43738 6.7 10
    endloop
  endfacet
  facet normal 0 0 1
    outer loop
      vertex -5.19965 10.9501 10
      vertex -2.04672 10.1195 10
      vertex -2.06235 10.2663 10
    endloop
  endfacet
  facet normal -1 0 0
    outer loop
      vertex -7.5 0 3
      vertex -7.5 17 3
      vertex -7.5 17 0
    endloop
  endfacet
  facet normal -1 0 0
    outer loop
      vertex -7.5 17 3
      vertex -7.5 3.5 9.01
      vertex -7.5 14.5 10
    endloop
  endfacet
  facet normal -1 0 0
    outer loop
      vertex -7.5 17 3
      vertex -7.5 0 3
      vertex -7.5 3.5 9.01
    endloop
  endfacet
  facet normal -1 0 0
    outer loop
      vertex -7.5 0 3
      vertex -7.5 17 0
      vertex -7.5 0 0
    endloop
  endfacet
  facet normal -1 -0 0
    outer loop
      vertex -7.5 3.5 9.01
      vertex -7.5 0 3
      vertex -7.5 2.14643 9.01
    endloop
  endfacet
  facet normal -1 -0 0
    outer loop
      vertex -7.5 14.5 10
      vertex -7.5 3.5 9.01
      vertex -7.5 3.5 10
    endloop
  endfacet
  facet normal 0 1 -0
    outer loop
      vertex 0 17 0
      vertex -7.5 17 3
      vertex 0 17 3
    endloop
  endfacet
  facet normal 0 1 0
    outer loop
      vertex -7.5 17 3
      vertex 0 17 0
      vertex -7.5 17 0
    endloop
  endfacet
  facet normal 0 0 -1
    outer loop
      vertex -7.5 0 0
      vertex 0 17 0
      vertex 0 0 0
    endloop
  endfacet
  facet normal -0 0 -1
    outer loop
      vertex 0 17 0
      vertex -7.5 0 0
      vertex -7.5 17 0
    endloop
  endfacet
  facet normal 1 0 0
    outer loop
      vertex 0 0 3
      vertex 0 17 3
      vertex 0 14.5 10
    endloop
  endfacet
  facet normal 1 0 0
    outer loop
      vertex 0 0 3
      vertex 0 14.5 10
      vertex 0 2.5 10
    endloop
  endfacet
  facet normal 1 0 0
    outer loop
      vertex 0 17 3
      vertex 0 0 3
      vertex 0 17 0
    endloop
  endfacet
  facet normal 1 0 0
    outer loop
      vertex 0 17 0
      vertex 0 0 3
      vertex 0 0 0
    endloop
  endfacet
  facet normal 0 -0.941742 0.336337
    outer loop
      vertex -7.5 2.14643 9.01
      vertex -7.5 0 3
      vertex -6.51 2.14643 9.01
    endloop
  endfacet
  facet normal 0 -0.941742 0.336335
    outer loop
      vertex -6.51 2.14643 9.01
      vertex 0 2.5 10
      vertex -6.51 2.5 10
    endloop
  endfacet
  facet normal 0 -0.941742 0.336337
    outer loop
      vertex 0 0 3
      vertex -6.51 2.14643 9.01
      vertex -7.5 0 3
    endloop
  endfacet
  facet normal -2.06658e-07 -0.941742 0.336336
    outer loop
      vertex -6.51 2.14643 9.01
      vertex 0 0 3
      vertex 0 2.5 10
    endloop
  endfacet
  facet normal 0 -1 0
    outer loop
      vertex -7.5 0 0
      vertex 0 0 3
      vertex -7.5 0 3
    endloop
  endfacet
  facet normal 0 -1 -0
    outer loop
      vertex 0 0 3
      vertex -7.5 0 0
      vertex 0 0 0
    endloop
  endfacet
  facet normal 0 0.941742 0.336336
    outer loop
      vertex 0 17 3
      vertex -7.5 14.5 10
      vertex 0 14.5 10
    endloop
  endfacet
  facet normal 0 0.941742 0.336336
    outer loop
      vertex -7.5 14.5 10
      vertex 0 17 3
      vertex -7.5 17 3
    endloop
  endfacet
  facet normal -0 0 1
    outer loop
      vertex -7.5 3.5 9.01
      vertex -6.51 2.14643 9.01
      vertex -6.51 3.5 9.01
    endloop
  endfacet
  facet normal 0 0 1
    outer loop
      vertex -6.51 2.14643 9.01
      vertex -7.5 3.5 9.01
      vertex -7.5 2.14643 9.01
    endloop
  endfacet
  facet normal -1 0 0
    outer loop
      vertex -6.51 3.5 9.01
      vertex -6.51 2.5 10
      vertex -6.51 3.5 10
    endloop
  endfacet
  facet normal -1 0 -0
    outer loop
      vertex -6.51 2.5 10
      vertex -6.51 3.5 9.01
      vertex -6.51 2.14643 9.01
    endloop
  endfacet
  facet normal 0 -1 0
    outer loop
      vertex -7.5 3.5 9.01
      vertex -6.51 3.5 10
      vertex -7.5 3.5 10
    endloop
  endfacet
  facet normal 0 -1 -0
    outer loop
      vertex -6.51 3.5 10
      vertex -7.5 3.5 9.01
      vertex -6.51 3.5 9.01
    endloop
  endfacet
  facet normal 0 0 1
    outer loop
      vertex -6.11208 7.46202 11.99
      vertex -5.59961 7.4622 11.99
      vertex -5.61601 7.60974 11.99
    endloop
  endfacet
  facet normal -0 0 1
    outer loop
      vertex -2.06235 10.9501 11.99
      vertex -1.54988 10.267 11.99
      vertex -1.54988 11.4628 11.99
    endloop
  endfacet
  facet normal 0 0 1
    outer loop
      vertex -2.06235 10.2663 11.99
      vertex -1.54988 10.267 11.99
      vertex -2.06235 10.9501 11.99
    endloop
  endfacet
  facet normal 0 0 1
    outer loop
      vertex -1.54988 10.267 11.99
      vertex -2.06235 10.2663 11.99
      vertex -1.56628 10.1198 11.99
    endloop
  endfacet
  facet normal 0 -0 1
    outer loop
      vertex -2.04672 10.1195 11.99
      vertex -1.56628 10.1198 11.99
      vertex -2.06235 10.2663 11.99
    endloop
  endfacet
  facet normal 0 -0 1
    outer loop
      vertex -1.81232 9.93063 11.99
      vertex -1.56628 10.1198 11.99
      vertex -2.04672 10.1195 11.99
    endloop
  endfacet
  facet normal 0 0 1
    outer loop
      vertex -1.61549 10.0147 11.99
      vertex -1.81232 9.93063 11.99
      vertex -1.69751 9.95166 11.99
    endloop
  endfacet
  facet normal -0 -0 1
    outer loop
      vertex -1.99983 10.0146 11.99
      vertex -1.81232 9.93063 11.99
      vertex -2.04672 10.1195 11.99
    endloop
  endfacet
  facet normal 0 0 1
    outer loop
      vertex -1.56628 10.1198 11.99
      vertex -1.81232 9.93063 11.99
      vertex -1.61549 10.0147 11.99
    endloop
  endfacet
  facet normal 0 0 1
    outer loop
      vertex -1.54988 11.4628 11.99
      vertex -5.19965 10.9501 11.99
      vertex -2.06235 10.9501 11.99
    endloop
  endfacet
  facet normal 0 -0 1
    outer loop
      vertex -5.19965 10.9501 11.99
      vertex -1.54988 11.4628 11.99
      vertex -5.92461 11.4628 11.99
    endloop
  endfacet
  facet normal 0 0 1
    outer loop
      vertex -1.81232 9.93063 11.99
      vertex -1.99983 10.0146 11.99
      vertex -1.92171 9.95161 11.99
    endloop
  endfacet
  facet normal 0 0 1
    outer loop
      vertex -1.43738 6.7 11.99
      vertex -2.13731 6.76263 11.99
      vertex -1.43738 6.25 11.99
    endloop
  endfacet
  facet normal 0 0 1
    outer loop
      vertex -5.19965 10.9501 11.99
      vertex -2.13731 6.76263 11.99
      vertex -1.43738 6.7 11.99
    endloop
  endfacet
  facet normal -0 0 1
    outer loop
      vertex -5.92461 11.0124 11.99
      vertex -5.19965 10.9501 11.99
      vertex -5.92461 11.4628 11.99
    endloop
  endfacet
  facet normal 0 0 1
    outer loop
      vertex -5.19965 10.9501 11.99
      vertex -5.92461 11.0124 11.99
      vertex -2.13731 6.76263 11.99
    endloop
  endfacet
  facet normal 0 0 1
    outer loop
      vertex -6.11208 6.25 11.99
      vertex -2.13731 6.76263 11.99
      vertex -5.59961 6.76263 11.99
    endloop
  endfacet
  facet normal 0 0 1
    outer loop
      vertex -5.86205 7.79944 11.99
      vertex -5.61601 7.60974 11.99
      vertex -5.66522 7.71512 11.99
    endloop
  endfacet
  facet normal 0 0 1
    outer loop
      vertex -5.86205 7.79944 11.99
      vertex -5.66522 7.71512 11.99
      vertex -5.74724 7.77835 11.99
    endloop
  endfacet
  facet normal 0 0 1
    outer loop
      vertex -5.61601 7.60974 11.99
      vertex -5.86205 7.79944 11.99
      vertex -6.09645 7.60963 11.99
    endloop
  endfacet
  facet normal 0 0 1
    outer loop
      vertex -6.04956 7.71507 11.99
      vertex -5.86205 7.79944 11.99
      vertex -5.97144 7.77835 11.99
    endloop
  endfacet
  facet normal 0 0 1
    outer loop
      vertex -5.86205 7.79944 11.99
      vertex -6.04956 7.71507 11.99
      vertex -6.09645 7.60963 11.99
    endloop
  endfacet
  facet normal 0 0 1
    outer loop
      vertex -5.61601 7.60974 11.99
      vertex -6.09645 7.60963 11.99
      vertex -6.11208 7.46202 11.99
    endloop
  endfacet
  facet normal 0 0 1
    outer loop
      vertex -5.59961 7.4622 11.99
      vertex -6.11208 7.46202 11.99
      vertex -5.59961 6.76263 11.99
    endloop
  endfacet
  facet normal 0 0 1
    outer loop
      vertex -2.13731 6.76263 11.99
      vertex -6.11208 6.25 11.99
      vertex -1.43738 6.25 11.99
    endloop
  endfacet
  facet normal 0 0 1
    outer loop
      vertex -6.11208 6.25 11.99
      vertex -5.59961 6.76263 11.99
      vertex -6.11208 7.46202 11.99
    endloop
  endfacet
  facet normal -0.994441 0.105298 0
    outer loop
      vertex -6.11208 7.46202 10
      vertex -6.09645 7.60963 11.99
      vertex -6.09645 7.60963 10
    endloop
  endfacet
  facet normal -0.994441 0.105298 0
    outer loop
      vertex -6.09645 7.60963 11.99
      vertex -6.11208 7.46202 10
      vertex -6.11208 7.46202 11.99
    endloop
  endfacet
  facet normal -0.913722 0.406339 0
    outer loop
      vertex -6.09645 7.60963 10
      vertex -6.04956 7.71507 11.99
      vertex -6.04956 7.71507 10
    endloop
  endfacet
  facet normal -0.913722 0.406339 0
    outer loop
      vertex -6.04956 7.71507 11.99
      vertex -6.09645 7.60963 10
      vertex -6.09645 7.60963 11.99
    endloop
  endfacet
  facet normal -0.629439 0.77705 0
    outer loop
      vertex -5.97144 7.77835 10
      vertex -6.04956 7.71507 11.99
      vertex -5.97144 7.77835 11.99
    endloop
  endfacet
  facet normal -0.629439 0.77705 0
    outer loop
      vertex -6.04956 7.71507 11.99
      vertex -5.97144 7.77835 10
      vertex -6.04956 7.71507 10
    endloop
  endfacet
  facet normal -0.18931 0.981917 0
    outer loop
      vertex -5.86205 7.79944 10
      vertex -5.97144 7.77835 11.99
      vertex -5.86205 7.79944 11.99
    endloop
  endfacet
  facet normal -0.18931 0.981917 0
    outer loop
      vertex -5.97144 7.77835 11.99
      vertex -5.86205 7.79944 10
      vertex -5.97144 7.77835 10
    endloop
  endfacet
  facet normal 0.180672 0.983543 -0
    outer loop
      vertex -5.74724 7.77835 10
      vertex -5.86205 7.79944 11.99
      vertex -5.74724 7.77835 11.99
    endloop
  endfacet
  facet normal 0.180672 0.983543 0
    outer loop
      vertex -5.86205 7.79944 11.99
      vertex -5.74724 7.77835 10
      vertex -5.86205 7.79944 10
    endloop
  endfacet
  facet normal 0.610546 0.791981 -0
    outer loop
      vertex -5.66522 7.71512 10
      vertex -5.74724 7.77835 11.99
      vertex -5.66522 7.71512 11.99
    endloop
  endfacet
  facet normal 0.610546 0.791981 0
    outer loop
      vertex -5.74724 7.77835 11.99
      vertex -5.66522 7.71512 10
      vertex -5.74724 7.77835 10
    endloop
  endfacet
  facet normal 0.906075 0.423116 0
    outer loop
      vertex -5.61601 7.60974 11.99
      vertex -5.66522 7.71512 10
      vertex -5.66522 7.71512 11.99
    endloop
  endfacet
  facet normal 0.906075 0.423116 0
    outer loop
      vertex -5.66522 7.71512 10
      vertex -5.61601 7.60974 11.99
      vertex -5.61601 7.60974 10
    endloop
  endfacet
  facet normal 0.993879 0.110476 0
    outer loop
      vertex -5.59961 7.4622 11.99
      vertex -5.61601 7.60974 10
      vertex -5.61601 7.60974 11.99
    endloop
  endfacet
  facet normal 0.993879 0.110476 0
    outer loop
      vertex -5.61601 7.60974 10
      vertex -5.59961 7.4622 11.99
      vertex -5.59961 7.4622 10
    endloop
  endfacet
  facet normal 1 -0 0
    outer loop
      vertex -5.59961 6.76263 11.99
      vertex -5.59961 7.4622 10
      vertex -5.59961 7.4622 11.99
    endloop
  endfacet
  facet normal 1 0 0
    outer loop
      vertex -5.59961 7.4622 10
      vertex -5.59961 6.76263 11.99
      vertex -5.59961 6.76263 10
    endloop
  endfacet
  facet normal 0 1 -0
    outer loop
      vertex -2.13731 6.76263 10
      vertex -5.59961 6.76263 11.99
      vertex -2.13731 6.76263 11.99
    endloop
  endfacet
  facet normal 0 1 0
    outer loop
      vertex -5.59961 6.76263 11.99
      vertex -2.13731 6.76263 10
      vertex -5.59961 6.76263 10
    endloop
  endfacet
  facet normal -0.74656 -0.665318 0
    outer loop
      vertex -2.13731 6.76263 10
      vertex -5.92461 11.0124 11.99
      vertex -5.92461 11.0124 10
    endloop
  endfacet
  facet normal -0.74656 -0.665318 0
    outer loop
      vertex -5.92461 11.0124 11.99
      vertex -2.13731 6.76263 10
      vertex -2.13731 6.76263 11.99
    endloop
  endfacet
  facet normal -1 0 0
    outer loop
      vertex -5.92461 11.0124 10
      vertex -5.92461 11.4628 11.99
      vertex -5.92461 11.4628 10
    endloop
  endfacet
  facet normal -1 -0 0
    outer loop
      vertex -5.92461 11.4628 11.99
      vertex -5.92461 11.0124 10
      vertex -5.92461 11.0124 11.99
    endloop
  endfacet
  facet normal 0 1 -0
    outer loop
      vertex -1.54988 11.4628 10
      vertex -5.92461 11.4628 11.99
      vertex -1.54988 11.4628 11.99
    endloop
  endfacet
  facet normal 0 1 0
    outer loop
      vertex -5.92461 11.4628 11.99
      vertex -1.54988 11.4628 10
      vertex -5.92461 11.4628 10
    endloop
  endfacet
  facet normal 1 -0 0
    outer loop
      vertex -1.54988 10.267 11.99
      vertex -1.54988 11.4628 10
      vertex -1.54988 11.4628 11.99
    endloop
  endfacet
  facet normal 1 0 0
    outer loop
      vertex -1.54988 11.4628 10
      vertex -1.54988 10.267 11.99
      vertex -1.54988 10.267 10
    endloop
  endfacet
  facet normal 0.993851 -0.110728 0
    outer loop
      vertex -1.56628 10.1198 11.99
      vertex -1.54988 10.267 10
      vertex -1.54988 10.267 11.99
    endloop
  endfacet
  facet normal 0.993851 -0.110728 0
    outer loop
      vertex -1.54988 10.267 10
      vertex -1.56628 10.1198 11.99
      vertex -1.56628 10.1198 10
    endloop
  endfacet
  facet normal 0.905643 -0.424041 0
    outer loop
      vertex -1.61549 10.0147 11.99
      vertex -1.56628 10.1198 10
      vertex -1.56628 10.1198 11.99
    endloop
  endfacet
  facet normal 0.905643 -0.424041 0
    outer loop
      vertex -1.56628 10.1198 10
      vertex -1.61549 10.0147 11.99
      vertex -1.61549 10.0147 10
    endloop
  endfacet
  facet normal 0.609393 -0.792868 0
    outer loop
      vertex -1.69751 9.95166 10
      vertex -1.61549 10.0147 11.99
      vertex -1.69751 9.95166 11.99
    endloop
  endfacet
  facet normal 0.609393 -0.792868 0
    outer loop
      vertex -1.61549 10.0147 11.99
      vertex -1.69751 9.95166 10
      vertex -1.61549 10.0147 10
    endloop
  endfacet
  facet normal 0.180175 -0.983635 0
    outer loop
      vertex -1.81232 9.93063 10
      vertex -1.69751 9.95166 11.99
      vertex -1.81232 9.93063 11.99
    endloop
  endfacet
  facet normal 0.180175 -0.983635 0
    outer loop
      vertex -1.69751 9.95166 11.99
      vertex -1.81232 9.93063 10
      vertex -1.69751 9.95166 10
    endloop
  endfacet
  facet normal -0.188358 -0.9821 0
    outer loop
      vertex -1.92171 9.95161 10
      vertex -1.81232 9.93063 11.99
      vertex -1.92171 9.95161 11.99
    endloop
  endfacet
  facet normal -0.188358 -0.9821 -0
    outer loop
      vertex -1.81232 9.93063 11.99
      vertex -1.92171 9.95161 10
      vertex -1.81232 9.93063 10
    endloop
  endfacet
  facet normal -0.627692 -0.778462 0
    outer loop
      vertex -1.99983 10.0146 10
      vertex -1.92171 9.95161 11.99
      vertex -1.99983 10.0146 11.99
    endloop
  endfacet
  facet normal -0.627692 -0.778462 -0
    outer loop
      vertex -1.92171 9.95161 11.99
      vertex -1.99983 10.0146 10
      vertex -1.92171 9.95161 10
    endloop
  endfacet
  facet normal -0.912945 -0.408084 0
    outer loop
      vertex -1.99983 10.0146 10
      vertex -2.04672 10.1195 11.99
      vertex -2.04672 10.1195 10
    endloop
  endfacet
  facet normal -0.912945 -0.408084 0
    outer loop
      vertex -2.04672 10.1195 11.99
      vertex -1.99983 10.0146 10
      vertex -1.99983 10.0146 11.99
    endloop
  endfacet
  facet normal -0.99438 -0.105873 0
    outer loop
      vertex -2.04672 10.1195 10
      vertex -2.06235 10.2663 11.99
      vertex -2.06235 10.2663 10
    endloop
  endfacet
  facet normal -0.99438 -0.105873 0
    outer loop
      vertex -2.06235 10.2663 11.99
      vertex -2.04672 10.1195 10
      vertex -2.04672 10.1195 11.99
    endloop
  endfacet
  facet normal -1 0 0
    outer loop
      vertex -2.06235 10.2663 10
      vertex -2.06235 10.9501 11.99
      vertex -2.06235 10.9501 10
    endloop
  endfacet
  facet normal -1 -0 0
    outer loop
      vertex -2.06235 10.9501 11.99
      vertex -2.06235 10.2663 10
      vertex -2.06235 10.2663 11.99
    endloop
  endfacet
  facet normal 0 -1 0
    outer loop
      vertex -5.19965 10.9501 10
      vertex -2.06235 10.9501 11.99
      vertex -5.19965 10.9501 11.99
    endloop
  endfacet
  facet normal 0 -1 -0
    outer loop
      vertex -2.06235 10.9501 11.99
      vertex -5.19965 10.9501 10
      vertex -2.06235 10.9501 10
    endloop
  endfacet
  facet normal 0.748772 0.662827 0
    outer loop
      vertex -1.43738 6.7 11.99
      vertex -5.19965 10.9501 10
      vertex -5.19965 10.9501 11.99
    endloop
  endfacet
  facet normal 0.748772 0.662827 0
    outer loop
      vertex -5.19965 10.9501 10
      vertex -1.43738 6.7 11.99
      vertex -1.43738 6.7 10
    endloop
  endfacet
  facet normal 1 -0 0
    outer loop
      vertex -1.43738 6.25 11.99
      vertex -1.43738 6.7 10
      vertex -1.43738 6.7 11.99
    endloop
  endfacet
  facet normal 1 0 0
    outer loop
      vertex -1.43738 6.7 10
      vertex -1.43738 6.25 11.99
      vertex -1.43738 6.25 10
    endloop
  endfacet
  facet normal 0 -1 0
    outer loop
      vertex -6.11208 6.25 10
      vertex -1.43738 6.25 11.99
      vertex -6.11208 6.25 11.99
    endloop
  endfacet
  facet normal 0 -1 -0
    outer loop
      vertex -1.43738 6.25 11.99
      vertex -6.11208 6.25 10
      vertex -1.43738 6.25 10
    endloop
  endfacet
  facet normal -1 0 0
    outer loop
      vertex -6.11208 6.25 10
      vertex -6.11208 7.46202 11.99
      vertex -6.11208 7.46202 10
    endloop
  endfacet
  facet normal -1 -0 0
    outer loop
      vertex -6.11208 7.46202 11.99
      vertex -6.11208 6.25 10
      vertex -6.11208 6.25 11.99
    endloop
  endfacet
endsolid OpenSCAD_Model
