solid OpenSCAD_Model
  facet normal 0 -1 0
    outer loop
      vertex -5.6553593 0 0
      vertex 0 0 3
      vertex -5.6553593 0 3
    endloop
  endfacet
  facet normal 0 -1 0
    outer loop
      vertex 0 0 3
      vertex -5.6553593 0 0
      vertex 0 0 0
    endloop
  endfacet
  facet normal -1 0 0
    outer loop
      vertex -5.6553593 3.5 9.009999
      vertex -5.6553593 19 3
      vertex -5.6553593 19 0
    endloop
  endfacet
  facet normal -1 0 0
    outer loop
      vertex -5.6553593 19 3
      vertex -5.6553593 3.5 9.009999
      vertex -5.6553593 16.5 10
    endloop
  endfacet
  facet normal -1 0 0
    outer loop
      vertex -5.6553593 0 3
      vertex -5.6553593 3.5 9.009999
      vertex -5.6553593 19 0
    endloop
  endfacet
  facet normal -1 0 0
    outer loop
      vertex -5.6553593 0 3
      vertex -5.6553593 19 0
      vertex -5.6553593 0 0
    endloop
  endfacet
  facet normal -1 0 0
    outer loop
      vertex -5.6553593 3.5 9.009999
      vertex -5.6553593 0 3
      vertex -5.6553593 2.1464283 9.009999
    endloop
  endfacet
  facet normal -1 0 0
    outer loop
      vertex -5.6553593 16.5 10
      vertex -5.6553593 3.5 9.009999
      vertex -5.6553593 3.5 10
    endloop
  endfacet
  facet normal 1 0 0
    outer loop
      vertex 0 0 3
      vertex 0 19 3
      vertex 0 16.5 10
    endloop
  endfacet
  facet normal 1 0 0
    outer loop
      vertex 0 0 3
      vertex 0 16.5 10
      vertex 0 2.5 10
    endloop
  endfacet
  facet normal 1 0 0
    outer loop
      vertex 0 19 3
      vertex 0 0 3
      vertex 0 19 0
    endloop
  endfacet
  facet normal 1 0 0
    outer loop
      vertex 0 19 0
      vertex 0 0 3
      vertex 0 0 0
    endloop
  endfacet
  facet normal 0 0 1
    outer loop
      vertex -5.2959995 5.799999 10
      vertex -4.6653595 3.5 10
      vertex -1.7407198 5.799999 10
    endloop
  endfacet
  facet normal 0 0 1
    outer loop
      vertex -5.6553593 3.5 10
      vertex -5.2959995 5.799999 10
      vertex -5.3262043 5.8026648 10
    endloop
  endfacet
  facet normal 0 0 1
    outer loop
      vertex -5.6553593 3.5 10
      vertex -5.3262043 5.8026648 10
      vertex -5.35386 5.8106594 10
    endloop
  endfacet
  facet normal 0 0 1
    outer loop
      vertex -5.6553593 3.5 10
      vertex -5.35386 5.8106594 10
      vertex -5.3789644 5.823984 10
    endloop
  endfacet
  facet normal 0 0 1
    outer loop
      vertex -5.6553593 3.5 10
      vertex -5.3789644 5.823984 10
      vertex -5.40152 5.84264 10
    endloop
  endfacet
  facet normal 0 0 1
    outer loop
      vertex -5.6553593 3.5 10
      vertex -5.40152 5.84264 10
      vertex -5.4201746 5.8652744 10
    endloop
  endfacet
  facet normal 0 0 1
    outer loop
      vertex -5.6553593 3.5 10
      vertex -5.4201746 5.8652744 10
      vertex -5.4334993 5.890459 10
    endloop
  endfacet
  facet normal 0 0 1
    outer loop
      vertex -5.2959995 5.799999 10
      vertex -5.6553593 3.5 10
      vertex -4.6653595 3.5 10
    endloop
  endfacet
  facet normal 0 0 1
    outer loop
      vertex -5.441495 5.918195 10
      vertex -5.6553593 3.5 10
      vertex -5.4334993 5.890459 10
    endloop
  endfacet
  facet normal 0 0 1
    outer loop
      vertex -5.4441595 5.9484797 10
      vertex -5.6553593 3.5 10
      vertex -5.441495 5.918195 10
    endloop
  endfacet
  facet normal 0 0 1
    outer loop
      vertex -5.4441595 6.39392 10
      vertex -5.6553593 3.5 10
      vertex -5.4441595 5.9484797 10
    endloop
  endfacet
  facet normal 0 0 1
    outer loop
      vertex -1.5952196 6.424199 10
      vertex 0 2.5 10
      vertex -1.5952196 10.362354 10
    endloop
  endfacet
  facet normal 0 0 1
    outer loop
      vertex 0 2.5 10
      vertex -1.5952196 6.424199 10
      vertex -1.5925598 6.39392 10
    endloop
  endfacet
  facet normal 0 0 1
    outer loop
      vertex -1.6032 10.3346195 10
      vertex -1.5952196 6.424199 10
      vertex -1.5952196 10.362354 10
    endloop
  endfacet
  facet normal 0 0 1
    outer loop
      vertex -1.6032 10.3346195 10
      vertex -1.6032 6.4519196 10
      vertex -1.5952196 6.424199 10
    endloop
  endfacet
  facet normal 0 0 1
    outer loop
      vertex -1.6164999 10.309435 10
      vertex -1.6032 6.4519196 10
      vertex -1.6032 10.3346195 10
    endloop
  endfacet
  facet normal 0 0 1
    outer loop
      vertex -1.6164999 10.309435 10
      vertex -1.6164999 6.4770794 10
      vertex -1.6032 6.4519196 10
    endloop
  endfacet
  facet normal 0 0 1
    outer loop
      vertex -1.6351194 10.286799 10
      vertex -1.6164999 6.4770794 10
      vertex -1.6164999 10.309435 10
    endloop
  endfacet
  facet normal 0 0 1
    outer loop
      vertex -1.6351194 10.286799 10
      vertex -1.6351194 6.4996796 10
      vertex -1.6164999 6.4770794 10
    endloop
  endfacet
  facet normal 0 0 1
    outer loop
      vertex -1.6577091 10.268145 10
      vertex -1.6351194 6.4996796 10
      vertex -1.6351194 10.286799 10
    endloop
  endfacet
  facet normal 0 0 1
    outer loop
      vertex -1.6577091 10.268145 10
      vertex -1.6577091 6.5183697 10
      vertex -1.6351194 6.4996796 10
    endloop
  endfacet
  facet normal 0 0 1
    outer loop
      vertex -1.6828394 10.25482 10
      vertex -1.6577091 6.5183697 10
      vertex -1.6577091 10.268145 10
    endloop
  endfacet
  facet normal 0 0 1
    outer loop
      vertex -1.6828394 10.25482 10
      vertex -1.6828394 6.531719 10
      vertex -1.6577091 6.5183697 10
    endloop
  endfacet
  facet normal 0 0 1
    outer loop
      vertex -1.7105093 10.246824 10
      vertex -1.6828394 6.531719 10
      vertex -1.6828394 10.25482 10
    endloop
  endfacet
  facet normal 0 0 1
    outer loop
      vertex -1.7105093 10.246824 10
      vertex -1.7105093 6.539729 10
      vertex -1.6828394 6.531719 10
    endloop
  endfacet
  facet normal 0 0 1
    outer loop
      vertex -1.7407198 10.24416 10
      vertex -1.7105093 6.539729 10
      vertex -1.7105093 10.246824 10
    endloop
  endfacet
  facet normal 0 0 1
    outer loop
      vertex -1.7407198 10.24416 10
      vertex -1.7407198 6.5423994 10
      vertex -1.7105093 6.539729 10
    endloop
  endfacet
  facet normal 0 0 1
    outer loop
      vertex -3.0739193 10.09608 10
      vertex -1.7407198 10.24416 10
      vertex -2.9257593 10.24416 10
    endloop
  endfacet
  facet normal 0 0 1
    outer loop
      vertex -1.7407198 10.24416 10
      vertex -3.0739193 10.09608 10
      vertex -1.7407198 6.5423994 10
    endloop
  endfacet
  facet normal 0 0 1
    outer loop
      vertex -3.0739193 10.09608 10
      vertex -2.9257593 10.24416 10
      vertex -2.955964 10.2415 10
    endloop
  endfacet
  facet normal 0 0 1
    outer loop
      vertex -3.0739193 6.6904793 10
      vertex -1.7407198 6.5423994 10
      vertex -3.0739193 10.09608 10
    endloop
  endfacet
  facet normal 0 0 1
    outer loop
      vertex -3.0739193 10.09608 10
      vertex -2.955964 10.2415 10
      vertex -2.9836197 10.23352 10
    endloop
  endfacet
  facet normal 0 0 1
    outer loop
      vertex -1.7407198 6.5423994 10
      vertex -3.0739193 6.6904793 10
      vertex -2.9257593 6.5423994 10
    endloop
  endfacet
  facet normal 0 0 1
    outer loop
      vertex -3.0739193 10.09608 10
      vertex -2.9836197 10.23352 10
      vertex -3.0087242 10.22022 10
    endloop
  endfacet
  facet normal 0 0 1
    outer loop
      vertex -2.9257593 6.5423994 10
      vertex -3.0739193 6.6904793 10
      vertex -2.955964 6.545059 10
    endloop
  endfacet
  facet normal 0 0 1
    outer loop
      vertex -3.0739193 10.09608 10
      vertex -3.0087242 10.22022 10
      vertex -3.0312796 10.201599 10
    endloop
  endfacet
  facet normal 0 0 1
    outer loop
      vertex -2.955964 6.545059 10
      vertex -3.0739193 6.6904793 10
      vertex -2.9836197 6.5530396 10
    endloop
  endfacet
  facet normal 0 0 1
    outer loop
      vertex -3.0712547 10.126285 10
      vertex -3.0312796 10.201599 10
      vertex -3.0499344 10.179045 10
    endloop
  endfacet
  facet normal 0 0 1
    outer loop
      vertex -2.9836197 6.5530396 10
      vertex -3.0739193 6.6904793 10
      vertex -3.0087242 6.5663395 10
    endloop
  endfacet
  facet normal 0 0 1
    outer loop
      vertex -3.0712547 10.126285 10
      vertex -3.0499344 10.179045 10
      vertex -3.0632591 10.153939 10
    endloop
  endfacet
  facet normal 0 0 1
    outer loop
      vertex -3.0087242 6.5663395 10
      vertex -3.0739193 6.6904793 10
      vertex -3.0312796 6.58496 10
    endloop
  endfacet
  facet normal 0 0 1
    outer loop
      vertex -3.0312796 10.201599 10
      vertex -3.0712547 10.126285 10
      vertex -3.0739193 10.09608 10
    endloop
  endfacet
  facet normal 0 0 1
    outer loop
      vertex -3.0712547 6.6602745 10
      vertex -3.0312796 6.58496 10
      vertex -3.0739193 6.6904793 10
    endloop
  endfacet
  facet normal 0 0 1
    outer loop
      vertex -3.0312796 6.58496 10
      vertex -3.0712547 6.6602745 10
      vertex -3.0499344 6.6075144 10
    endloop
  endfacet
  facet normal 0 0 1
    outer loop
      vertex -3.0499344 6.6075144 10
      vertex -3.0712547 6.6602745 10
      vertex -3.0632591 6.63262 10
    endloop
  endfacet
  facet normal 0 0 1
    outer loop
      vertex -1.5925598 10.392639 10
      vertex 0 16.5 10
      vertex -1.5925598 10.838079 10
    endloop
  endfacet
  facet normal 0 0 1
    outer loop
      vertex 0 16.5 10
      vertex -1.5952196 10.86836 10
      vertex -1.5925598 10.838079 10
    endloop
  endfacet
  facet normal 0 0 1
    outer loop
      vertex 0 16.5 10
      vertex -1.6032 10.896079 10
      vertex -1.5952196 10.86836 10
    endloop
  endfacet
  facet normal 0 0 1
    outer loop
      vertex 0 16.5 10
      vertex -1.6164999 10.92124 10
      vertex -1.6032 10.896079 10
    endloop
  endfacet
  facet normal 0 0 1
    outer loop
      vertex 0 16.5 10
      vertex -1.6351194 10.943839 10
      vertex -1.6164999 10.92124 10
    endloop
  endfacet
  facet normal 0 0 1
    outer loop
      vertex 0 16.5 10
      vertex -1.6577091 10.962529 10
      vertex -1.6351194 10.943839 10
    endloop
  endfacet
  facet normal 0 0 1
    outer loop
      vertex 0 16.5 10
      vertex -1.6828394 10.97588 10
      vertex -1.6577091 10.962529 10
    endloop
  endfacet
  facet normal 0 0 1
    outer loop
      vertex -3.422079 13.64936 10
      vertex -1.6828394 10.97588 10
      vertex 0 16.5 10
    endloop
  endfacet
  facet normal 0 0 1
    outer loop
      vertex -1.6828394 10.97588 10
      vertex -3.422079 13.64936 10
      vertex -1.7105093 10.98389 10
    endloop
  endfacet
  facet normal 0 0 1
    outer loop
      vertex -3.0776796 11.87192 10
      vertex -1.7105093 10.98389 10
      vertex -3.422079 13.64936 10
    endloop
  endfacet
  facet normal 0 0 1
    outer loop
      vertex -1.7407198 10.98656 10
      vertex -3.0741549 11.841394 10
      vertex -3.0739193 11.827519 10
    endloop
  endfacet
  facet normal 0 0 1
    outer loop
      vertex -1.7407198 10.98656 10
      vertex -3.0748596 11.853419 10
      vertex -3.0741549 11.841394 10
    endloop
  endfacet
  facet normal 0 0 1
    outer loop
      vertex -1.7407198 10.98656 10
      vertex -3.0760345 11.863594 10
      vertex -3.0748596 11.853419 10
    endloop
  endfacet
  facet normal 0 0 1
    outer loop
      vertex -1.7407198 10.98656 10
      vertex -3.0776796 11.87192 10
      vertex -3.0760345 11.863594 10
    endloop
  endfacet
  facet normal 0 0 1
    outer loop
      vertex -1.7105093 10.98389 10
      vertex -3.0776796 11.87192 10
      vertex -1.7407198 10.98656 10
    endloop
  endfacet
  facet normal 0 0 1
    outer loop
      vertex 0 16.5 10
      vertex -3.4313297 13.679529 10
      vertex -3.422079 13.64936 10
    endloop
  endfacet
  facet normal 0 0 1
    outer loop
      vertex 0 16.5 10
      vertex -3.4442797 13.70716 10
      vertex -3.4313297 13.679529 10
    endloop
  endfacet
  facet normal 0 0 1
    outer loop
      vertex 0 16.5 10
      vertex -3.4609299 13.732249 10
      vertex -3.4442797 13.70716 10
    endloop
  endfacet
  facet normal 0 0 1
    outer loop
      vertex 0 16.5 10
      vertex -3.4812794 13.7548 10
      vertex -3.4609299 13.732249 10
    endloop
  endfacet
  facet normal 0 0 1
    outer loop
      vertex 0 16.5 10
      vertex -3.504675 13.773455 10
      vertex -3.4812794 13.7548 10
    endloop
  endfacet
  facet normal 0 0 1
    outer loop
      vertex 0 16.5 10
      vertex -3.5303793 13.786779 10
      vertex -3.504675 13.773455 10
    endloop
  endfacet
  facet normal 0 0 1
    outer loop
      vertex 0 16.5 10
      vertex -3.5583944 13.794774 10
      vertex -3.5303793 13.786779 10
    endloop
  endfacet
  facet normal 0 0 1
    outer loop
      vertex -5.6553593 16.5 10
      vertex -3.5583944 13.794774 10
      vertex 0 16.5 10
    endloop
  endfacet
  facet normal 0 0 1
    outer loop
      vertex -3.5583944 13.794774 10
      vertex -5.6553593 16.5 10
      vertex -3.5887194 13.79744 10
    endloop
  endfacet
  facet normal 0 0 1
    outer loop
      vertex -3.5887194 13.79744 10
      vertex -5.6553593 16.5 10
      vertex -4.36648 13.79744 10
    endloop
  endfacet
  facet normal 0 0 1
    outer loop
      vertex -4.36648 13.79744 10
      vertex -5.6553593 16.5 10
      vertex -4.389284 13.795705 10
    endloop
  endfacet
  facet normal 0 0 1
    outer loop
      vertex -4.389284 13.795705 10
      vertex -5.6553593 16.5 10
      vertex -4.409539 13.7905 10
    endloop
  endfacet
  facet normal 0 0 1
    outer loop
      vertex -5.6553593 16.5 10
      vertex -4.4701595 13.697439 10
      vertex -4.468425 13.718635 10
    endloop
  endfacet
  facet normal 0 0 1
    outer loop
      vertex -4.4701595 13.697439 10
      vertex -5.3262043 6.539729 10
      vertex -5.2959995 6.5423994 10
    endloop
  endfacet
  facet normal 0 0 1
    outer loop
      vertex -4.4701595 13.697439 10
      vertex -5.35386 6.531719 10
      vertex -5.3262043 6.539729 10
    endloop
  endfacet
  facet normal 0 0 1
    outer loop
      vertex -4.4701595 13.697439 10
      vertex -5.3789644 6.5183697 10
      vertex -5.35386 6.531719 10
    endloop
  endfacet
  facet normal 0 0 1
    outer loop
      vertex -4.4701595 13.697439 10
      vertex -5.40152 6.4996796 10
      vertex -5.3789644 6.5183697 10
    endloop
  endfacet
  facet normal 0 0 1
    outer loop
      vertex -4.4701595 13.697439 10
      vertex -5.4201746 6.4770794 10
      vertex -5.40152 6.4996796 10
    endloop
  endfacet
  facet normal 0 0 1
    outer loop
      vertex -4.4701595 13.697439 10
      vertex -5.6553593 16.5 10
      vertex -5.4201746 6.4770794 10
    endloop
  endfacet
  facet normal 0 0 1
    outer loop
      vertex -5.4201746 6.4770794 10
      vertex -5.6553593 16.5 10
      vertex -5.4334993 6.4519196 10
    endloop
  endfacet
  facet normal 0 0 1
    outer loop
      vertex -5.6553593 3.5 10
      vertex -5.4441595 6.39392 10
      vertex -5.6553593 16.5 10
    endloop
  endfacet
  facet normal 0 0 1
    outer loop
      vertex -5.441495 6.424199 10
      vertex -5.6553593 16.5 10
      vertex -5.4441595 6.39392 10
    endloop
  endfacet
  facet normal 0 0 1
    outer loop
      vertex -5.4334993 6.4519196 10
      vertex -5.6553593 16.5 10
      vertex -5.441495 6.424199 10
    endloop
  endfacet
  facet normal 0 0 1
    outer loop
      vertex -4.4632196 13.73774 10
      vertex -5.6553593 16.5 10
      vertex -4.468425 13.718635 10
    endloop
  endfacet
  facet normal 0 0 1
    outer loop
      vertex -4.454544 13.754754 10
      vertex -5.6553593 16.5 10
      vertex -4.4632196 13.73774 10
    endloop
  endfacet
  facet normal 0 0 1
    outer loop
      vertex -4.4424 13.769679 10
      vertex -5.6553593 16.5 10
      vertex -4.454544 13.754754 10
    endloop
  endfacet
  facet normal 0 0 1
    outer loop
      vertex -4.427244 13.781824 10
      vertex -5.6553593 16.5 10
      vertex -4.4424 13.769679 10
    endloop
  endfacet
  facet normal 0 0 1
    outer loop
      vertex -4.409539 13.7905 10
      vertex -5.6553593 16.5 10
      vertex -4.427244 13.781824 10
    endloop
  endfacet
  facet normal 0 0 1
    outer loop
      vertex 0 16.5 10
      vertex -1.5925598 10.392639 10
      vertex 0 2.5 10
    endloop
  endfacet
  facet normal 0 0 1
    outer loop
      vertex -1.5952196 10.362354 10
      vertex 0 2.5 10
      vertex -1.5925598 10.392639 10
    endloop
  endfacet
  facet normal 0 0 1
    outer loop
      vertex -1.5925598 5.9484797 10
      vertex 0 2.5 10
      vertex -1.5925598 6.39392 10
    endloop
  endfacet
  facet normal 0 0 1
    outer loop
      vertex -1.5952196 5.918195 10
      vertex 0 2.5 10
      vertex -1.5925598 5.9484797 10
    endloop
  endfacet
  facet normal 0 0 1
    outer loop
      vertex -1.6032 5.890459 10
      vertex 0 2.5 10
      vertex -1.5952196 5.918195 10
    endloop
  endfacet
  facet normal 0 0 1
    outer loop
      vertex -1.6164999 5.8652744 10
      vertex 0 2.5 10
      vertex -1.6032 5.890459 10
    endloop
  endfacet
  facet normal 0 0 1
    outer loop
      vertex -1.6351194 5.84264 10
      vertex 0 2.5 10
      vertex -1.6164999 5.8652744 10
    endloop
  endfacet
  facet normal 0 0 1
    outer loop
      vertex -1.6577091 5.823984 10
      vertex 0 2.5 10
      vertex -1.6351194 5.84264 10
    endloop
  endfacet
  facet normal 0 0 1
    outer loop
      vertex -1.6828394 5.8106594 10
      vertex 0 2.5 10
      vertex -1.6577091 5.823984 10
    endloop
  endfacet
  facet normal 0 0 1
    outer loop
      vertex -1.7105093 5.8026648 10
      vertex 0 2.5 10
      vertex -1.6828394 5.8106594 10
    endloop
  endfacet
  facet normal 0 0 1
    outer loop
      vertex -1.7407198 5.799999 10
      vertex 0 2.5 10
      vertex -1.7105093 5.8026648 10
    endloop
  endfacet
  facet normal 0 0 1
    outer loop
      vertex -4.6653595 3.5 10
      vertex 0 2.5 10
      vertex -1.7407198 5.799999 10
    endloop
  endfacet
  facet normal 0 0 1
    outer loop
      vertex 0 2.5 10
      vertex -4.6653595 3.5 10
      vertex -4.6653595 2.5 10
    endloop
  endfacet
  facet normal 0 0 1
    outer loop
      vertex -3.0801697 11.78216 10
      vertex -1.7407198 10.98656 10
      vertex -3.0739193 11.827519 10
    endloop
  endfacet
  facet normal 0 0 1
    outer loop
      vertex -3.0989199 11.74976 10
      vertex -1.7407198 10.98656 10
      vertex -3.0801697 11.78216 10
    endloop
  endfacet
  facet normal 0 0 1
    outer loop
      vertex -3.1301699 11.73032 10
      vertex -1.7407198 10.98656 10
      vertex -3.0989199 11.74976 10
    endloop
  endfacet
  facet normal 0 0 1
    outer loop
      vertex -3.814639 10.98656 10
      vertex -3.1301699 11.73032 10
      vertex -3.1739197 11.72384 10
    endloop
  endfacet
  facet normal 0 0 1
    outer loop
      vertex -3.814639 10.98656 10
      vertex -3.1739197 11.72384 10
      vertex -3.6443195 11.72384 10
    endloop
  endfacet
  facet normal 0 0 1
    outer loop
      vertex -3.814639 10.98656 10
      vertex -3.6443195 11.72384 10
      vertex -3.6784391 11.7265 10
    endloop
  endfacet
  facet normal 0 0 1
    outer loop
      vertex -3.814639 10.98656 10
      vertex -3.6784391 11.7265 10
      vertex -3.7104797 11.73448 10
    endloop
  endfacet
  facet normal 0 0 1
    outer loop
      vertex -3.1301699 11.73032 10
      vertex -3.814639 10.98656 10
      vertex -1.7407198 10.98656 10
    endloop
  endfacet
  facet normal 0 0 1
    outer loop
      vertex -3.8448448 10.983894 10
      vertex -3.7104797 11.73448 10
      vertex -3.7404394 11.74778 10
    endloop
  endfacet
  facet normal 0 0 1
    outer loop
      vertex -3.8724995 10.9759 10
      vertex -3.7404394 11.74778 10
      vertex -3.7683191 11.766399 10
    endloop
  endfacet
  facet normal 0 0 1
    outer loop
      vertex -3.8724995 10.9759 10
      vertex -3.7683191 11.766399 10
      vertex -3.7932243 11.788984 10
    endloop
  endfacet
  facet normal 0 0 1
    outer loop
      vertex -3.897605 10.962575 10
      vertex -3.7932243 11.788984 10
      vertex -3.8141794 11.814099 10
    endloop
  endfacet
  facet normal 0 0 1
    outer loop
      vertex -3.9201593 10.943919 10
      vertex -3.8141794 11.814099 10
      vertex -3.8311844 11.841744 10
    endloop
  endfacet
  facet normal 0 0 1
    outer loop
      vertex -3.9388142 10.921365 10
      vertex -3.8311844 11.841744 10
      vertex -3.8442392 11.87192 10
    endloop
  endfacet
  facet normal 0 0 1
    outer loop
      vertex -3.7104797 11.73448 10
      vertex -3.8448448 10.983894 10
      vertex -3.814639 10.98656 10
    endloop
  endfacet
  facet normal 0 0 1
    outer loop
      vertex -3.7404394 11.74778 10
      vertex -3.8724995 10.9759 10
      vertex -3.8448448 10.983894 10
    endloop
  endfacet
  facet normal 0 0 1
    outer loop
      vertex -3.7932243 11.788984 10
      vertex -3.897605 10.962575 10
      vertex -3.8724995 10.9759 10
    endloop
  endfacet
  facet normal 0 0 1
    outer loop
      vertex -3.8141794 11.814099 10
      vertex -3.9201593 10.943919 10
      vertex -3.897605 10.962575 10
    endloop
  endfacet
  facet normal 0 0 1
    outer loop
      vertex -3.8311844 11.841744 10
      vertex -3.9388142 10.921365 10
      vertex -3.9201593 10.943919 10
    endloop
  endfacet
  facet normal 0 0 1
    outer loop
      vertex -3.8442392 11.87192 10
      vertex -3.9521399 10.896259 10
      vertex -3.9388142 10.921365 10
    endloop
  endfacet
  facet normal 0 0 1
    outer loop
      vertex -3.8442392 11.87192 10
      vertex -3.9601345 10.868605 10
      vertex -3.9521399 10.896259 10
    endloop
  endfacet
  facet normal 0 0 1
    outer loop
      vertex -5.2959995 6.5423994 10
      vertex -3.962799 6.6905594 10
      vertex -3.962799 10.8384 10
    endloop
  endfacet
  facet normal 0 0 1
    outer loop
      vertex -4.11088 6.5423994 10
      vertex -3.962799 6.6905594 10
      vertex -5.2959995 6.5423994 10
    endloop
  endfacet
  facet normal 0 0 1
    outer loop
      vertex -3.962799 6.6905594 10
      vertex -4.11088 6.5423994 10
      vertex -3.9654598 6.66035 10
    endloop
  endfacet
  facet normal 0 0 1
    outer loop
      vertex -3.9654598 6.66035 10
      vertex -4.11088 6.5423994 10
      vertex -3.9734392 6.63268 10
    endloop
  endfacet
  facet normal 0 0 1
    outer loop
      vertex -3.9734392 6.63268 10
      vertex -4.11088 6.5423994 10
      vertex -3.9867392 6.6075497 10
    endloop
  endfacet
  facet normal 0 0 1
    outer loop
      vertex -4.080674 6.545059 10
      vertex -4.0053596 6.58496 10
      vertex -4.11088 6.5423994 10
    endloop
  endfacet
  facet normal 0 0 1
    outer loop
      vertex -4.0053596 6.58496 10
      vertex -4.080674 6.545059 10
      vertex -4.027914 6.5663395 10
    endloop
  endfacet
  facet normal 0 0 1
    outer loop
      vertex -4.027914 6.5663395 10
      vertex -4.080674 6.545059 10
      vertex -4.0530195 6.5530396 10
    endloop
  endfacet
  facet normal 0 0 1
    outer loop
      vertex -4.46272 13.64936 10
      vertex -3.9601345 10.868605 10
      vertex -3.8442392 11.87192 10
    endloop
  endfacet
  facet normal 0 0 1
    outer loop
      vertex -4.46272 13.64936 10
      vertex -3.962799 10.8384 10
      vertex -3.9601345 10.868605 10
    endloop
  endfacet
  facet normal 0 0 1
    outer loop
      vertex -5.2959995 6.5423994 10
      vertex -3.962799 10.8384 10
      vertex -4.46272 13.64936 10
    endloop
  endfacet
  facet normal 0 0 1
    outer loop
      vertex -5.2959995 6.5423994 10
      vertex -4.46272 13.64936 10
      vertex -4.465975 13.659294 10
    endloop
  endfacet
  facet normal 0 0 1
    outer loop
      vertex -5.2959995 6.5423994 10
      vertex -4.465975 13.659294 10
      vertex -4.4683 13.67062 10
    endloop
  endfacet
  facet normal 0 0 1
    outer loop
      vertex -5.2959995 6.5423994 10
      vertex -4.4683 13.67062 10
      vertex -4.469694 13.683334 10
    endloop
  endfacet
  facet normal 0 0 1
    outer loop
      vertex -3.9867392 6.6075497 10
      vertex -4.11088 6.5423994 10
      vertex -4.0053596 6.58496 10
    endloop
  endfacet
  facet normal 0 0 1
    outer loop
      vertex -5.2959995 6.5423994 10
      vertex -4.469694 13.683334 10
      vertex -4.4701595 13.697439 10
    endloop
  endfacet
  facet normal 0 0 -1
    outer loop
      vertex -5.6553593 0 0
      vertex 0 19 0
      vertex 0 0 0
    endloop
  endfacet
  facet normal 0 0 -1
    outer loop
      vertex 0 19 0
      vertex -5.6553593 0 0
      vertex -5.6553593 19 0
    endloop
  endfacet
  facet normal 0 0.9417419 0.3363364
    outer loop
      vertex 0 19 3
      vertex -5.6553593 16.5 10
      vertex 0 16.5 10
    endloop
  endfacet
  facet normal 0 0.9417419 0.3363364
    outer loop
      vertex -5.6553593 16.5 10
      vertex 0 19 3
      vertex -5.6553593 19 3
    endloop
  endfacet
  facet normal 0 1 0
    outer loop
      vertex 0 19 0
      vertex -5.6553593 19 3
      vertex 0 19 3
    endloop
  endfacet
  facet normal 0 1 0
    outer loop
      vertex -5.6553593 19 3
      vertex 0 19 0
      vertex -5.6553593 19 0
    endloop
  endfacet
  facet normal 0 -0.9417419 0.3363364
    outer loop
      vertex -5.6553593 2.1464283 9.009999
      vertex -5.6553593 0 3
      vertex -4.6653595 2.1464283 9.009999
    endloop
  endfacet
  facet normal 0 -0.94174194 0.33633637
    outer loop
      vertex -4.6653595 2.1464283 9.009999
      vertex 0 2.5 10
      vertex -4.6653595 2.5 10
    endloop
  endfacet
  facet normal 0 -0.9417419 0.3363364
    outer loop
      vertex 0 0 3
      vertex -4.6653595 2.1464283 9.009999
      vertex -5.6553593 0 3
    endloop
  endfacet
  facet normal -6.8752555e-9 -0.9417419 0.3363364
    outer loop
      vertex -4.6653595 2.1464283 9.009999
      vertex 0 0 3
      vertex 0 2.5 10
    endloop
  endfacet
  facet normal 0 0 1
    outer loop
      vertex -5.6553593 3.5 9.009999
      vertex -4.6653595 2.1464283 9.009999
      vertex -4.6653595 3.5 9.009999
    endloop
  endfacet
  facet normal 0 0 1
    outer loop
      vertex -4.6653595 2.1464283 9.009999
      vertex -5.6553593 3.5 9.009999
      vertex -5.6553593 2.1464283 9.009999
    endloop
  endfacet
  facet normal -1 0 0
    outer loop
      vertex -4.6653595 3.5 9.009999
      vertex -4.6653595 2.5 10
      vertex -4.6653595 3.5 10
    endloop
  endfacet
  facet normal -1 0 0
    outer loop
      vertex -4.6653595 2.5 10
      vertex -4.6653595 3.5 9.009999
      vertex -4.6653595 2.1464283 9.009999
    endloop
  endfacet
  facet normal 0 -1 0
    outer loop
      vertex -5.6553593 3.5 9.009999
      vertex -4.6653595 3.5 10
      vertex -5.6553593 3.5 10
    endloop
  endfacet
  facet normal 0 -1 0
    outer loop
      vertex -4.6653595 3.5 10
      vertex -5.6553593 3.5 9.009999
      vertex -4.6653595 3.5 9.009999
    endloop
  endfacet
  facet normal -0.24168606 -0.9703545 0
    outer loop
      vertex -3.7104797 11.73448 10
      vertex -3.6784391 11.7265 11.99
      vertex -3.7104797 11.73448 11.99
    endloop
  endfacet
  facet normal -0.24168606 -0.9703545 0
    outer loop
      vertex -3.6784391 11.7265 11.99
      vertex -3.7104797 11.73448 10
      vertex -3.6784391 11.7265 10
    endloop
  endfacet
  facet normal -0.4057443 -0.9139866 0
    outer loop
      vertex -3.7404394 11.74778 10
      vertex -3.7104797 11.73448 11.99
      vertex -3.7404394 11.74778 11.99
    endloop
  endfacet
  facet normal -0.4057443 -0.9139866 0
    outer loop
      vertex -3.7104797 11.73448 11.99
      vertex -3.7404394 11.74778 10
      vertex -3.7104797 11.73448 10
    endloop
  endfacet
  facet normal -0.5553827 -0.8315949 0
    outer loop
      vertex -3.7683191 11.766399 10
      vertex -3.7404394 11.74778 11.99
      vertex -3.7683191 11.766399 11.99
    endloop
  endfacet
  facet normal -0.5553827 -0.8315949 0
    outer loop
      vertex -3.7404394 11.74778 11.99
      vertex -3.7683191 11.766399 10
      vertex -3.7404394 11.74778 10
    endloop
  endfacet
  facet normal -0.6717574 -0.74077123 0
    outer loop
      vertex -3.7932243 11.788984 10
      vertex -3.7683191 11.766399 11.99
      vertex -3.7932243 11.788984 11.99
    endloop
  endfacet
  facet normal -0.6717574 -0.74077123 0
    outer loop
      vertex -3.7683191 11.766399 11.99
      vertex -3.7932243 11.788984 10
      vertex -3.7683191 11.766399 10
    endloop
  endfacet
  facet normal -0.76783156 -0.64065176 0
    outer loop
      vertex -3.7932243 11.788984 10
      vertex -3.8141794 11.814099 11.99
      vertex -3.8141794 11.814099 10
    endloop
  endfacet
  facet normal -0.76783156 -0.64065176 0
    outer loop
      vertex -3.8141794 11.814099 11.99
      vertex -3.7932243 11.788984 10
      vertex -3.7932243 11.788984 11.99
    endloop
  endfacet
  facet normal -0.8517602 -0.52393186 0
    outer loop
      vertex -3.8141794 11.814099 10
      vertex -3.8311844 11.841744 11.99
      vertex -3.8311844 11.841744 10
    endloop
  endfacet
  facet normal -0.8517602 -0.52393186 0
    outer loop
      vertex -3.8311844 11.841744 11.99
      vertex -3.8141794 11.814099 10
      vertex -3.8141794 11.814099 11.99
    endloop
  endfacet
  facet normal -0.91778934 -0.39706767 0
    outer loop
      vertex -3.8311844 11.841744 10
      vertex -3.8442392 11.87192 11.99
      vertex -3.8442392 11.87192 10
    endloop
  endfacet
  facet normal -0.91778934 -0.39706767 0
    outer loop
      vertex -3.8442392 11.87192 11.99
      vertex -3.8311844 11.841744 10
      vertex -3.8311844 11.841744 11.99
    endloop
  endfacet
  facet normal -0.9444571 -0.3286347 0
    outer loop
      vertex -3.8442392 11.87192 10
      vertex -4.46272 13.64936 11.99
      vertex -4.46272 13.64936 10
    endloop
  endfacet
  facet normal -0.9444571 -0.3286347 0
    outer loop
      vertex -4.46272 13.64936 11.99
      vertex -3.8442392 11.87192 10
      vertex -3.8442392 11.87192 11.99
    endloop
  endfacet
  facet normal -0.9502946 -0.31135216 0
    outer loop
      vertex -4.46272 13.64936 10
      vertex -4.465975 13.659294 11.99
      vertex -4.465975 13.659294 10
    endloop
  endfacet
  facet normal -0.9502946 -0.31135216 0
    outer loop
      vertex -4.465975 13.659294 11.99
      vertex -4.46272 13.64936 10
      vertex -4.46272 13.64936 11.99
    endloop
  endfacet
  facet normal -0.9795719 -0.20109433 0
    outer loop
      vertex -4.465975 13.659294 10
      vertex -4.4683 13.67062 11.99
      vertex -4.4683 13.67062 10
    endloop
  endfacet
  facet normal -0.9795719 -0.20109433 0
    outer loop
      vertex -4.4683 13.67062 11.99
      vertex -4.465975 13.659294 10
      vertex -4.465975 13.659294 11.99
    endloop
  endfacet
  facet normal -0.9940409 -0.109007485 0
    outer loop
      vertex -4.4683 13.67062 10
      vertex -4.469694 13.683334 11.99
      vertex -4.469694 13.683334 10
    endloop
  endfacet
  facet normal -0.9940409 -0.109007485 0
    outer loop
      vertex -4.469694 13.683334 11.99
      vertex -4.4683 13.67062 10
      vertex -4.4683 13.67062 11.99
    endloop
  endfacet
  facet normal -0.9994561 -0.03297732 0
    outer loop
      vertex -4.469694 13.683334 10
      vertex -4.4701595 13.697439 11.99
      vertex -4.4701595 13.697439 10
    endloop
  endfacet
  facet normal -0.9994561 -0.03297732 0
    outer loop
      vertex -4.4701595 13.697439 11.99
      vertex -4.469694 13.683334 10
      vertex -4.469694 13.683334 11.99
    endloop
  endfacet
  facet normal -0.99666744 0.08157202 0
    outer loop
      vertex -4.4701595 13.697439 10
      vertex -4.468425 13.718635 11.99
      vertex -4.468425 13.718635 10
    endloop
  endfacet
  facet normal -0.99666744 0.08157202 0
    outer loop
      vertex -4.468425 13.718635 11.99
      vertex -4.4701595 13.697439 10
      vertex -4.4701595 13.697439 11.99
    endloop
  endfacet
  facet normal -0.9648316 0.2628688 0
    outer loop
      vertex -4.468425 13.718635 10
      vertex -4.4632196 13.73774 11.99
      vertex -4.4632196 13.73774 10
    endloop
  endfacet
  facet normal -0.9648316 0.2628688 0
    outer loop
      vertex -4.4632196 13.73774 11.99
      vertex -4.468425 13.718635 10
      vertex -4.468425 13.718635 11.99
    endloop
  endfacet
  facet normal -0.890874 0.4542504 0
    outer loop
      vertex -4.4632196 13.73774 10
      vertex -4.454544 13.754754 11.99
      vertex -4.454544 13.754754 10
    endloop
  endfacet
  facet normal -0.890874 0.4542504 0
    outer loop
      vertex -4.454544 13.754754 11.99
      vertex -4.4632196 13.73774 10
      vertex -4.4632196 13.73774 11.99
    endloop
  endfacet
  facet normal -0.7756681 0.63114107 0
    outer loop
      vertex -4.454544 13.754754 10
      vertex -4.4424 13.769679 11.99
      vertex -4.4424 13.769679 10
    endloop
  endfacet
  facet normal -0.7756681 0.63114107 0
    outer loop
      vertex -4.4424 13.769679 11.99
      vertex -4.454544 13.754754 10
      vertex -4.454544 13.754754 11.99
    endloop
  endfacet
  facet normal -0.6253356 0.78035593 0
    outer loop
      vertex -4.427244 13.781824 10
      vertex -4.4424 13.769679 11.99
      vertex -4.427244 13.781824 11.99
    endloop
  endfacet
  facet normal -0.6253356 0.78035593 0
    outer loop
      vertex -4.4424 13.769679 11.99
      vertex -4.427244 13.781824 10
      vertex -4.4424 13.769679 10
    endloop
  endfacet
  facet normal -0.4400211 0.8979874 0
    outer loop
      vertex -4.409539 13.7905 10
      vertex -4.427244 13.781824 11.99
      vertex -4.409539 13.7905 11.99
    endloop
  endfacet
  facet normal -0.4400211 0.8979874 0
    outer loop
      vertex -4.427244 13.781824 11.99
      vertex -4.409539 13.7905 10
      vertex -4.427244 13.781824 10
    endloop
  endfacet
  facet normal -0.24889316 0.96853095 0
    outer loop
      vertex -4.389284 13.795705 10
      vertex -4.409539 13.7905 11.99
      vertex -4.389284 13.795705 11.99
    endloop
  endfacet
  facet normal -0.24889316 0.96853095 0
    outer loop
      vertex -4.409539 13.7905 11.99
      vertex -4.389284 13.795705 10
      vertex -4.409539 13.7905 10
    endloop
  endfacet
  facet normal -0.07585144 0.9971191 0
    outer loop
      vertex -4.36648 13.79744 10
      vertex -4.389284 13.795705 11.99
      vertex -4.36648 13.79744 11.99
    endloop
  endfacet
  facet normal -0.07585144 0.9971191 0
    outer loop
      vertex -4.389284 13.795705 11.99
      vertex -4.36648 13.79744 10
      vertex -4.389284 13.795705 10
    endloop
  endfacet
  facet normal 0 1 0
    outer loop
      vertex -3.5887194 13.79744 10
      vertex -4.36648 13.79744 11.99
      vertex -3.5887194 13.79744 11.99
    endloop
  endfacet
  facet normal 0 1 0
    outer loop
      vertex -4.36648 13.79744 11.99
      vertex -3.5887194 13.79744 10
      vertex -4.36648 13.79744 10
    endloop
  endfacet
  facet normal 0.087561004 0.99615914 0
    outer loop
      vertex -3.5583944 13.794774 10
      vertex -3.5887194 13.79744 11.99
      vertex -3.5583944 13.794774 11.99
    endloop
  endfacet
  facet normal 0.087561004 0.99615914 0
    outer loop
      vertex -3.5887194 13.79744 11.99
      vertex -3.5583944 13.794774 10
      vertex -3.5887194 13.79744 10
    endloop
  endfacet
  facet normal 0.27441415 0.9616116 0
    outer loop
      vertex -3.5303793 13.786779 10
      vertex -3.5583944 13.794774 11.99
      vertex -3.5303793 13.786779 11.99
    endloop
  endfacet
  facet normal 0.27441415 0.9616116 0
    outer loop
      vertex -3.5583944 13.794774 11.99
      vertex -3.5303793 13.786779 10
      vertex -3.5583944 13.794774 10
    endloop
  endfacet
  facet normal 0.46022293 0.8878034 0
    outer loop
      vertex -3.504675 13.773455 10
      vertex -3.5303793 13.786779 11.99
      vertex -3.504675 13.773455 11.99
    endloop
  endfacet
  facet normal 0.46022293 0.8878034 0
    outer loop
      vertex -3.5303793 13.786779 11.99
      vertex -3.504675 13.773455 10
      vertex -3.5303793 13.786779 10
    endloop
  endfacet
  facet normal 0.62343884 0.78187215 0
    outer loop
      vertex -3.4812794 13.7548 10
      vertex -3.504675 13.773455 11.99
      vertex -3.4812794 13.7548 11.99
    endloop
  endfacet
  facet normal 0.62343884 0.78187215 0
    outer loop
      vertex -3.504675 13.773455 11.99
      vertex -3.4812794 13.7548 10
      vertex -3.504675 13.773455 10
    endloop
  endfacet
  facet normal 0.7424099 0.66994596 0
    outer loop
      vertex -3.4609299 13.732249 11.99
      vertex -3.4812794 13.7548 10
      vertex -3.4812794 13.7548 11.99
    endloop
  endfacet
  facet normal 0.7424099 0.66994596 0
    outer loop
      vertex -3.4812794 13.7548 10
      vertex -3.4609299 13.732249 11.99
      vertex -3.4609299 13.732249 10
    endloop
  endfacet
  facet normal 0.833213 0.5529522 0
    outer loop
      vertex -3.4442797 13.70716 11.99
      vertex -3.4609299 13.732249 10
      vertex -3.4609299 13.732249 11.99
    endloop
  endfacet
  facet normal 0.833213 0.5529522 0
    outer loop
      vertex -3.4609299 13.732249 10
      vertex -3.4442797 13.70716 11.99
      vertex -3.4442797 13.70716 10
    endloop
  endfacet
  facet normal 0.9054841 0.42438024 0
    outer loop
      vertex -3.4313297 13.679529 11.99
      vertex -3.4442797 13.70716 10
      vertex -3.4442797 13.70716 11.99
    endloop
  endfacet
  facet normal 0.9054841 0.42438024 0
    outer loop
      vertex -3.4442797 13.70716 10
      vertex -3.4313297 13.679529 11.99
      vertex -3.4313297 13.679529 10
    endloop
  endfacet
  facet normal 0.9560661 0.2931513 0
    outer loop
      vertex -3.422079 13.64936 11.99
      vertex -3.4313297 13.679529 10
      vertex -3.4313297 13.679529 11.99
    endloop
  endfacet
  facet normal 0.9560661 0.2931513 0
    outer loop
      vertex -3.4313297 13.679529 10
      vertex -3.422079 13.64936 11.99
      vertex -3.422079 13.64936 10
    endloop
  endfacet
  facet normal 0.9817408 0.19022357 0
    outer loop
      vertex -3.0776796 11.87192 11.99
      vertex -3.422079 13.64936 10
      vertex -3.422079 13.64936 11.99
    endloop
  endfacet
  facet normal 0.9817408 0.19022357 0
    outer loop
      vertex -3.422079 13.64936 10
      vertex -3.0776796 11.87192 11.99
      vertex -3.0776796 11.87192 10
    endloop
  endfacet
  facet normal 0.9810319 0.19384651 0
    outer loop
      vertex -3.0760345 11.863594 11.99
      vertex -3.0776796 11.87192 10
      vertex -3.0776796 11.87192 11.99
    endloop
  endfacet
  facet normal 0.9810319 0.19384651 0
    outer loop
      vertex -3.0776796 11.87192 10
      vertex -3.0760345 11.863594 11.99
      vertex -3.0760345 11.863594 10
    endloop
  endfacet
  facet normal 0.9933987 0.11471246 0
    outer loop
      vertex -3.0748596 11.853419 11.99
      vertex -3.0760345 11.863594 10
      vertex -3.0760345 11.863594 11.99
    endloop
  endfacet
  facet normal 0.9933987 0.11471246 0
    outer loop
      vertex -3.0760345 11.863594 10
      vertex -3.0748596 11.853419 11.99
      vertex -3.0748596 11.853419 10
    endloop
  endfacet
  facet normal 0.9982869 0.058508527 0
    outer loop
      vertex -3.0741549 11.841394 11.99
      vertex -3.0748596 11.853419 10
      vertex -3.0748596 11.853419 11.99
    endloop
  endfacet
  facet normal 0.9982869 0.058508527 0
    outer loop
      vertex -3.0748596 11.853419 10
      vertex -3.0741549 11.841394 11.99
      vertex -3.0741549 11.841394 10
    endloop
  endfacet
  facet normal 0.99985594 0.016974665 0
    outer loop
      vertex -3.0739193 11.827519 11.99
      vertex -3.0741549 11.841394 10
      vertex -3.0741549 11.841394 11.99
    endloop
  endfacet
  facet normal 0.99985594 0.016974665 0
    outer loop
      vertex -3.0741549 11.841394 10
      vertex -3.0739193 11.827519 11.99
      vertex -3.0739193 11.827519 10
    endloop
  endfacet
  facet normal 0.9906392 -0.1365063 0
    outer loop
      vertex -3.0801697 11.78216 11.99
      vertex -3.0739193 11.827519 10
      vertex -3.0739193 11.827519 11.99
    endloop
  endfacet
  facet normal 0.9906392 -0.1365063 0
    outer loop
      vertex -3.0739193 11.827519 10
      vertex -3.0801697 11.78216 11.99
      vertex -3.0801697 11.78216 10
    endloop
  endfacet
  facet normal 0.86551636 -0.5008806 0
    outer loop
      vertex -3.0989199 11.74976 11.99
      vertex -3.0801697 11.78216 10
      vertex -3.0801697 11.78216 11.99
    endloop
  endfacet
  facet normal 0.86551636 -0.5008806 0
    outer loop
      vertex -3.0801697 11.78216 10
      vertex -3.0989199 11.74976 11.99
      vertex -3.0989199 11.74976 10
    endloop
  endfacet
  facet normal 0.5282089 -0.8491145 0
    outer loop
      vertex -3.1301699 11.73032 10
      vertex -3.0989199 11.74976 11.99
      vertex -3.1301699 11.73032 11.99
    endloop
  endfacet
  facet normal 0.5282089 -0.8491145 0
    outer loop
      vertex -3.0989199 11.74976 11.99
      vertex -3.1301699 11.73032 10
      vertex -3.0989199 11.74976 10
    endloop
  endfacet
  facet normal 0.14652131 -0.9892075 0
    outer loop
      vertex -3.1739197 11.72384 10
      vertex -3.1301699 11.73032 11.99
      vertex -3.1739197 11.72384 11.99
    endloop
  endfacet
  facet normal 0.14652131 -0.9892075 0
    outer loop
      vertex -3.1301699 11.73032 11.99
      vertex -3.1739197 11.72384 10
      vertex -3.1301699 11.73032 10
    endloop
  endfacet
  facet normal 0 -1 0
    outer loop
      vertex -3.6443195 11.72384 10
      vertex -3.1739197 11.72384 11.99
      vertex -3.6443195 11.72384 11.99
    endloop
  endfacet
  facet normal 0 -1 0
    outer loop
      vertex -3.1739197 11.72384 11.99
      vertex -3.6443195 11.72384 10
      vertex -3.1739197 11.72384 10
    endloop
  endfacet
  facet normal -0.077719316 -0.9969753 0
    outer loop
      vertex -3.6784391 11.7265 10
      vertex -3.6443195 11.72384 11.99
      vertex -3.6784391 11.7265 11.99
    endloop
  endfacet
  facet normal -0.077719316 -0.9969753 0
    outer loop
      vertex -3.6443195 11.72384 11.99
      vertex -3.6784391 11.7265 10
      vertex -3.6443195 11.72384 10
    endloop
  endfacet
  facet normal -0.27770814 -0.96066546 0
    outer loop
      vertex -5.35386 5.8106594 10
      vertex -5.3262043 5.8026648 11.99
      vertex -5.35386 5.8106594 11.99
    endloop
  endfacet
  facet normal -0.27770814 -0.96066546 0
    outer loop
      vertex -5.3262043 5.8026648 11.99
      vertex -5.35386 5.8106594 10
      vertex -5.3262043 5.8026648 10
    endloop
  endfacet
  facet normal -0.4688248 -0.8832912 0
    outer loop
      vertex -5.3789644 5.823984 10
      vertex -5.35386 5.8106594 11.99
      vertex -5.3789644 5.823984 11.99
    endloop
  endfacet
  facet normal -0.4688248 -0.8832912 0
    outer loop
      vertex -5.35386 5.8106594 11.99
      vertex -5.3789644 5.823984 10
      vertex -5.35386 5.8106594 10
    endloop
  endfacet
  facet normal -0.6373503 -0.7705742 0
    outer loop
      vertex -5.40152 5.84264 10
      vertex -5.3789644 5.823984 11.99
      vertex -5.40152 5.84264 11.99
    endloop
  endfacet
  facet normal -0.6373503 -0.7705742 0
    outer loop
      vertex -5.3789644 5.823984 11.99
      vertex -5.40152 5.84264 10
      vertex -5.3789644 5.823984 10
    endloop
  endfacet
  facet normal -0.77168524 -0.6360047 0
    outer loop
      vertex -5.40152 5.84264 10
      vertex -5.4201746 5.8652744 11.99
      vertex -5.4201746 5.8652744 10
    endloop
  endfacet
  facet normal -0.77168524 -0.6360047 0
    outer loop
      vertex -5.4201746 5.8652744 11.99
      vertex -5.40152 5.84264 10
      vertex -5.40152 5.84264 11.99
    endloop
  endfacet
  facet normal -0.8839084 -0.4676601 0
    outer loop
      vertex -5.4201746 5.8652744 10
      vertex -5.4334993 5.890459 11.99
      vertex -5.4334993 5.890459 10
    endloop
  endfacet
  facet normal -0.8839084 -0.4676601 0
    outer loop
      vertex -5.4334993 5.890459 11.99
      vertex -5.4201746 5.8652744 10
      vertex -5.4201746 5.8652744 11.99
    endloop
  endfacet
  facet normal -0.96087044 -0.27699816 0
    outer loop
      vertex -5.4334993 5.890459 10
      vertex -5.441495 5.918195 11.99
      vertex -5.441495 5.918195 10
    endloop
  endfacet
  facet normal -0.96087044 -0.27699816 0
    outer loop
      vertex -5.441495 5.918195 11.99
      vertex -5.4334993 5.890459 10
      vertex -5.4334993 5.890459 11.99
    endloop
  endfacet
  facet normal -0.9961518 -0.08764479 0
    outer loop
      vertex -5.441495 5.918195 10
      vertex -5.4441595 5.9484797 11.99
      vertex -5.4441595 5.9484797 10
    endloop
  endfacet
  facet normal -0.9961518 -0.08764479 0
    outer loop
      vertex -5.4441595 5.9484797 11.99
      vertex -5.441495 5.918195 10
      vertex -5.441495 5.918195 11.99
    endloop
  endfacet
  facet normal -1 0 0
    outer loop
      vertex -5.4441595 5.9484797 10
      vertex -5.4441595 6.39392 11.99
      vertex -5.4441595 6.39392 10
    endloop
  endfacet
  facet normal -1 0 0
    outer loop
      vertex -5.4441595 6.39392 11.99
      vertex -5.4441595 5.9484797 10
      vertex -5.4441595 5.9484797 11.99
    endloop
  endfacet
  facet normal -0.9961503 0.08766123 0
    outer loop
      vertex -5.4441595 6.39392 10
      vertex -5.441495 6.424199 11.99
      vertex -5.441495 6.424199 10
    endloop
  endfacet
  facet normal -0.9961503 0.08766123 0
    outer loop
      vertex -5.441495 6.424199 11.99
      vertex -5.4441595 6.39392 10
      vertex -5.4441595 6.39392 11.99
    endloop
  endfacet
  facet normal -0.96082985 0.27713895 0
    outer loop
      vertex -5.441495 6.424199 10
      vertex -5.4334993 6.4519196 11.99
      vertex -5.4334993 6.4519196 10
    endloop
  endfacet
  facet normal -0.96082985 0.27713895 0
    outer loop
      vertex -5.4334993 6.4519196 11.99
      vertex -5.441495 6.424199 10
      vertex -5.441495 6.424199 11.99
    endloop
  endfacet
  facet normal -0.88371783 0.46802008 0
    outer loop
      vertex -5.4334993 6.4519196 10
      vertex -5.4201746 6.4770794 11.99
      vertex -5.4201746 6.4770794 10
    endloop
  endfacet
  facet normal -0.88371783 0.46802008 0
    outer loop
      vertex -5.4201746 6.4770794 11.99
      vertex -5.4334993 6.4519196 10
      vertex -5.4334993 6.4519196 11.99
    endloop
  endfacet
  facet normal -0.7712111 0.63657945 0
    outer loop
      vertex -5.4201746 6.4770794 10
      vertex -5.40152 6.4996796 11.99
      vertex -5.40152 6.4996796 10
    endloop
  endfacet
  facet normal -0.7712111 0.63657945 0
    outer loop
      vertex -5.40152 6.4996796 11.99
      vertex -5.4201746 6.4770794 10
      vertex -5.4201746 6.4770794 11.99
    endloop
  endfacet
  facet normal -0.63804597 0.76999825 0
    outer loop
      vertex -5.3789644 6.5183697 10
      vertex -5.40152 6.4996796 11.99
      vertex -5.3789644 6.5183697 11.99
    endloop
  endfacet
  facet normal -0.63804597 0.76999825 0
    outer loop
      vertex -5.40152 6.4996796 11.99
      vertex -5.3789644 6.5183697 10
      vertex -5.40152 6.4996796 10
    endloop
  endfacet
  facet normal -0.46950504 0.8829298 0
    outer loop
      vertex -5.35386 6.531719 10
      vertex -5.3789644 6.5183697 11.99
      vertex -5.35386 6.531719 11.99
    endloop
  endfacet
  facet normal -0.46950504 0.8829298 0
    outer loop
      vertex -5.3789644 6.5183697 11.99
      vertex -5.35386 6.531719 10
      vertex -5.3789644 6.5183697 10
    endloop
  endfacet
  facet normal -0.2781972 0.96052396 0
    outer loop
      vertex -5.3262043 6.539729 10
      vertex -5.35386 6.531719 11.99
      vertex -5.3262043 6.539729 11.99
    endloop
  endfacet
  facet normal -0.2781972 0.96052396 0
    outer loop
      vertex -5.35386 6.531719 11.99
      vertex -5.3262043 6.539729 10
      vertex -5.35386 6.531719 10
    endloop
  endfacet
  facet normal -0.088062696 0.9961149 0
    outer loop
      vertex -5.2959995 6.5423994 10
      vertex -5.3262043 6.539729 11.99
      vertex -5.2959995 6.5423994 11.99
    endloop
  endfacet
  facet normal -0.088062696 0.9961149 0
    outer loop
      vertex -5.3262043 6.539729 11.99
      vertex -5.2959995 6.5423994 10
      vertex -5.3262043 6.539729 10
    endloop
  endfacet
  facet normal 0 1 0
    outer loop
      vertex -4.11088 6.5423994 10
      vertex -5.2959995 6.5423994 11.99
      vertex -4.11088 6.5423994 11.99
    endloop
  endfacet
  facet normal 0 1 0
    outer loop
      vertex -5.2959995 6.5423994 11.99
      vertex -4.11088 6.5423994 10
      vertex -5.2959995 6.5423994 10
    endloop
  endfacet
  facet normal -0.08771666 0.9961455 0
    outer loop
      vertex -4.080674 6.545059 10
      vertex -4.11088 6.5423994 11.99
      vertex -4.080674 6.545059 11.99
    endloop
  endfacet
  facet normal -0.08771666 0.9961455 0
    outer loop
      vertex -4.11088 6.5423994 11.99
      vertex -4.080674 6.545059 10
      vertex -4.11088 6.5423994 10
    endloop
  endfacet
  facet normal -0.2772583 0.9607954 0
    outer loop
      vertex -4.0530195 6.5530396 10
      vertex -4.080674 6.545059 11.99
      vertex -4.0530195 6.5530396 11.99
    endloop
  endfacet
  facet normal -0.2772583 0.9607954 0
    outer loop
      vertex -4.080674 6.545059 11.99
      vertex -4.0530195 6.5530396 10
      vertex -4.080674 6.545059 10
    endloop
  endfacet
  facet normal -0.46812984 0.8836597 0
    outer loop
      vertex -4.027914 6.5663395 10
      vertex -4.0530195 6.5530396 11.99
      vertex -4.027914 6.5663395 11.99
    endloop
  endfacet
  facet normal -0.46812984 0.8836597 0
    outer loop
      vertex -4.0530195 6.5530396 11.99
      vertex -4.027914 6.5663395 10
      vertex -4.0530195 6.5530396 10
    endloop
  endfacet
  facet normal -0.63664967 0.77115315 0
    outer loop
      vertex -4.0053596 6.58496 10
      vertex -4.027914 6.5663395 11.99
      vertex -4.0053596 6.58496 11.99
    endloop
  endfacet
  facet normal -0.63664967 0.77115315 0
    outer loop
      vertex -4.027914 6.5663395 11.99
      vertex -4.0053596 6.58496 10
      vertex -4.027914 6.5663395 10
    endloop
  endfacet
  facet normal -0.7716415 0.63605773 0
    outer loop
      vertex -4.0053596 6.58496 10
      vertex -3.9867392 6.6075497 11.99
      vertex -3.9867392 6.6075497 10
    endloop
  endfacet
  facet normal -0.7716415 0.63605773 0
    outer loop
      vertex -3.9867392 6.6075497 11.99
      vertex -4.0053596 6.58496 10
      vertex -4.0053596 6.58496 11.99
    endloop
  endfacet
  facet normal -0.88385075 0.46776906 0
    outer loop
      vertex -3.9867392 6.6075497 10
      vertex -3.9734392 6.63268 11.99
      vertex -3.9734392 6.63268 10
    endloop
  endfacet
  facet normal -0.88385075 0.46776906 0
    outer loop
      vertex -3.9734392 6.63268 11.99
      vertex -3.9867392 6.6075497 10
      vertex -3.9867392 6.6075497 11.99
    endloop
  endfacet
  facet normal -0.96084493 0.27708656 0
    outer loop
      vertex -3.9734392 6.63268 10
      vertex -3.9654598 6.66035 11.99
      vertex -3.9654598 6.66035 10
    endloop
  endfacet
  facet normal -0.96084493 0.27708656 0
    outer loop
      vertex -3.9654598 6.66035 11.99
      vertex -3.9734392 6.63268 10
      vertex -3.9734392 6.63268 11.99
    endloop
  endfacet
  facet normal -0.9961437 0.087736875 0
    outer loop
      vertex -3.9654598 6.66035 10
      vertex -3.962799 6.6905594 11.99
      vertex -3.962799 6.6905594 10
    endloop
  endfacet
  facet normal -0.9961437 0.087736875 0
    outer loop
      vertex -3.962799 6.6905594 11.99
      vertex -3.9654598 6.66035 10
      vertex -3.9654598 6.66035 11.99
    endloop
  endfacet
  facet normal -1 0 0
    outer loop
      vertex -3.962799 6.6905594 10
      vertex -3.962799 10.8384 11.99
      vertex -3.962799 10.8384 10
    endloop
  endfacet
  facet normal -1 0 0
    outer loop
      vertex -3.962799 10.8384 11.99
      vertex -3.962799 6.6905594 10
      vertex -3.962799 6.6905594 11.99
    endloop
  endfacet
  facet normal -0.9961315 0.087875456 0
    outer loop
      vertex -3.962799 10.8384 10
      vertex -3.9601345 10.868605 11.99
      vertex -3.9601345 10.868605 10
    endloop
  endfacet
  facet normal -0.9961315 0.087875456 0
    outer loop
      vertex -3.9601345 10.868605 11.99
      vertex -3.962799 10.8384 10
      vertex -3.962799 10.8384 11.99
    endloop
  endfacet
  facet normal -0.96066296 0.277717 0
    outer loop
      vertex -3.9601345 10.868605 10
      vertex -3.9521399 10.896259 11.99
      vertex -3.9521399 10.896259 10
    endloop
  endfacet
  facet normal -0.96066296 0.277717 0
    outer loop
      vertex -3.9521399 10.896259 11.99
      vertex -3.9601345 10.868605 10
      vertex -3.9601345 10.868605 11.99
    endloop
  endfacet
  facet normal -0.8832846 0.46883708 0
    outer loop
      vertex -3.9521399 10.896259 10
      vertex -3.9388142 10.921365 11.99
      vertex -3.9388142 10.921365 10
    endloop
  endfacet
  facet normal -0.8832846 0.46883708 0
    outer loop
      vertex -3.9388142 10.921365 11.99
      vertex -3.9521399 10.896259 10
      vertex -3.9521399 10.896259 11.99
    endloop
  endfacet
  facet normal -0.77057695 0.637347 0
    outer loop
      vertex -3.9388142 10.921365 10
      vertex -3.9201593 10.943919 11.99
      vertex -3.9201593 10.943919 10
    endloop
  endfacet
  facet normal -0.77057695 0.637347 0
    outer loop
      vertex -3.9201593 10.943919 11.99
      vertex -3.9388142 10.921365 10
      vertex -3.9388142 10.921365 11.99
    endloop
  endfacet
  facet normal -0.6373663 0.770561 0
    outer loop
      vertex -3.897605 10.962575 10
      vertex -3.9201593 10.943919 11.99
      vertex -3.897605 10.962575 11.99
    endloop
  endfacet
  facet normal -0.6373663 0.770561 0
    outer loop
      vertex -3.9201593 10.943919 11.99
      vertex -3.897605 10.962575 10
      vertex -3.9201593 10.943919 10
    endloop
  endfacet
  facet normal -0.46881092 0.8832986 0
    outer loop
      vertex -3.8724995 10.9759 10
      vertex -3.897605 10.962575 11.99
      vertex -3.8724995 10.9759 11.99
    endloop
  endfacet
  facet normal -0.46881092 0.8832986 0
    outer loop
      vertex -3.897605 10.962575 11.99
      vertex -3.8724995 10.9759 10
      vertex -3.897605 10.962575 10
    endloop
  endfacet
  facet normal -0.277717 0.96066296 0
    outer loop
      vertex -3.8448448 10.983894 10
      vertex -3.8724995 10.9759 11.99
      vertex -3.8448448 10.983894 11.99
    endloop
  endfacet
  facet normal -0.277717 0.96066296 0
    outer loop
      vertex -3.8724995 10.9759 11.99
      vertex -3.8448448 10.983894 10
      vertex -3.8724995 10.9759 10
    endloop
  endfacet
  facet normal -0.08790391 0.996129 0
    outer loop
      vertex -3.814639 10.98656 10
      vertex -3.8448448 10.983894 11.99
      vertex -3.814639 10.98656 11.99
    endloop
  endfacet
  facet normal -0.08790391 0.996129 0
    outer loop
      vertex -3.8448448 10.983894 11.99
      vertex -3.814639 10.98656 10
      vertex -3.8448448 10.983894 10
    endloop
  endfacet
  facet normal 0 1 0
    outer loop
      vertex -1.7407198 10.98656 10
      vertex -3.814639 10.98656 11.99
      vertex -1.7407198 10.98656 11.99
    endloop
  endfacet
  facet normal 0 1 0
    outer loop
      vertex -3.814639 10.98656 11.99
      vertex -1.7407198 10.98656 10
      vertex -3.814639 10.98656 10
    endloop
  endfacet
  facet normal 0.08804615 0.9961164 0
    outer loop
      vertex -1.7105093 10.98389 10
      vertex -1.7407198 10.98656 11.99
      vertex -1.7105093 10.98389 11.99
    endloop
  endfacet
  facet normal 0.08804615 0.9961164 0
    outer loop
      vertex -1.7407198 10.98656 11.99
      vertex -1.7105093 10.98389 10
      vertex -1.7407198 10.98656 10
    endloop
  endfacet
  facet normal 0.27806452 0.9605624 0
    outer loop
      vertex -1.6828394 10.97588 10
      vertex -1.7105093 10.98389 11.99
      vertex -1.6828394 10.97588 11.99
    endloop
  endfacet
  facet normal 0.27806452 0.9605624 0
    outer loop
      vertex -1.7105093 10.98389 11.99
      vertex -1.6828394 10.97588 10
      vertex -1.7105093 10.98389 10
    endloop
  endfacet
  facet normal 0.46915606 0.8831153 0
    outer loop
      vertex -1.6577091 10.962529 10
      vertex -1.6828394 10.97588 11.99
      vertex -1.6577091 10.962529 11.99
    endloop
  endfacet
  facet normal 0.46915606 0.8831153 0
    outer loop
      vertex -1.6828394 10.97588 11.99
      vertex -1.6577091 10.962529 10
      vertex -1.6828394 10.97588 10
    endloop
  endfacet
  facet normal 0.63747054 0.77047473 0
    outer loop
      vertex -1.6351194 10.943839 10
      vertex -1.6577091 10.962529 11.99
      vertex -1.6351194 10.943839 11.99
    endloop
  endfacet
  facet normal 0.63747054 0.77047473 0
    outer loop
      vertex -1.6577091 10.962529 11.99
      vertex -1.6351194 10.943839 10
      vertex -1.6577091 10.962529 10
    endloop
  endfacet
  facet normal 0.7717892 0.6358785 0
    outer loop
      vertex -1.6164999 10.92124 11.99
      vertex -1.6351194 10.943839 10
      vertex -1.6351194 10.943839 11.99
    endloop
  endfacet
  facet normal 0.7717892 0.6358785 0
    outer loop
      vertex -1.6351194 10.943839 10
      vertex -1.6164999 10.92124 11.99
      vertex -1.6164999 10.92124 10
    endloop
  endfacet
  facet normal 0.88408524 0.46732566 0
    outer loop
      vertex -1.6032 10.896079 11.99
      vertex -1.6164999 10.92124 10
      vertex -1.6164999 10.92124 11.99
    endloop
  endfacet
  facet normal 0.88408524 0.46732566 0
    outer loop
      vertex -1.6164999 10.92124 10
      vertex -1.6032 10.896079 11.99
      vertex -1.6032 10.896079 10
    endloop
  endfacet
  facet normal 0.9609681 0.27665934 0
    outer loop
      vertex -1.5952196 10.86836 11.99
      vertex -1.6032 10.896079 10
      vertex -1.6032 10.896079 11.99
    endloop
  endfacet
  facet normal 0.9609681 0.27665934 0
    outer loop
      vertex -1.6032 10.896079 10
      vertex -1.5952196 10.86836 11.99
      vertex -1.5952196 10.86836 10
    endloop
  endfacet
  facet normal 0.99616426 0.08750282 0
    outer loop
      vertex -1.5925598 10.838079 11.99
      vertex -1.5952196 10.86836 10
      vertex -1.5952196 10.86836 11.99
    endloop
  endfacet
  facet normal 0.99616426 0.08750282 0
    outer loop
      vertex -1.5952196 10.86836 10
      vertex -1.5925598 10.838079 11.99
      vertex -1.5925598 10.838079 10
    endloop
  endfacet
  facet normal 1 0 0
    outer loop
      vertex -1.5925598 10.392639 11.99
      vertex -1.5925598 10.838079 10
      vertex -1.5925598 10.838079 11.99
    endloop
  endfacet
  facet normal 1 0 0
    outer loop
      vertex -1.5925598 10.838079 10
      vertex -1.5925598 10.392639 11.99
      vertex -1.5925598 10.392639 10
    endloop
  endfacet
  facet normal 0.99616545 -0.08748915 0
    outer loop
      vertex -1.5952196 10.362354 11.99
      vertex -1.5925598 10.392639 10
      vertex -1.5925598 10.392639 11.99
    endloop
  endfacet
  facet normal 0.99616545 -0.08748915 0
    outer loop
      vertex -1.5925598 10.392639 10
      vertex -1.5952196 10.362354 11.99
      vertex -1.5952196 10.362354 10
    endloop
  endfacet
  facet normal 0.9610085 -0.2765188 0
    outer loop
      vertex -1.6032 10.3346195 11.99
      vertex -1.5952196 10.362354 10
      vertex -1.5952196 10.362354 11.99
    endloop
  endfacet
  facet normal 0.9610085 -0.2765188 0
    outer loop
      vertex -1.5952196 10.362354 10
      vertex -1.6032 10.3346195 11.99
      vertex -1.6032 10.3346195 10
    endloop
  endfacet
  facet normal 0.884268 -0.46697977 0
    outer loop
      vertex -1.6164999 10.309435 11.99
      vertex -1.6032 10.3346195 10
      vertex -1.6032 10.3346195 11.99
    endloop
  endfacet
  facet normal 0.884268 -0.46697977 0
    outer loop
      vertex -1.6032 10.3346195 10
      vertex -1.6164999 10.309435 11.99
      vertex -1.6164999 10.309435 10
    endloop
  endfacet
  facet normal 0.7722889 -0.6352715 0
    outer loop
      vertex -1.6351194 10.286799 11.99
      vertex -1.6164999 10.309435 10
      vertex -1.6164999 10.309435 11.99
    endloop
  endfacet
  facet normal 0.7722889 -0.6352715 0
    outer loop
      vertex -1.6164999 10.309435 10
      vertex -1.6351194 10.286799 11.99
      vertex -1.6351194 10.286799 10
    endloop
  endfacet
  facet normal 0.6367552 -0.771066 0
    outer loop
      vertex -1.6577091 10.268145 10
      vertex -1.6351194 10.286799 11.99
      vertex -1.6577091 10.268145 11.99
    endloop
  endfacet
  facet normal 0.6367552 -0.771066 0
    outer loop
      vertex -1.6351194 10.286799 11.99
      vertex -1.6577091 10.268145 10
      vertex -1.6351194 10.286799 10
    endloop
  endfacet
  facet normal 0.4684499 -0.8834901 0
    outer loop
      vertex -1.6828394 10.25482 10
      vertex -1.6577091 10.268145 11.99
      vertex -1.6828394 10.25482 11.99
    endloop
  endfacet
  facet normal 0.4684499 -0.8834901 0
    outer loop
      vertex -1.6577091 10.268145 11.99
      vertex -1.6828394 10.25482 10
      vertex -1.6577091 10.268145 10
    endloop
  endfacet
  facet normal 0.27760622 -0.96069497 0
    outer loop
      vertex -1.7105093 10.246824 10
      vertex -1.6828394 10.25482 11.99
      vertex -1.7105093 10.246824 11.99
    endloop
  endfacet
  facet normal 0.27760622 -0.96069497 0
    outer loop
      vertex -1.6828394 10.25482 11.99
      vertex -1.7105093 10.246824 10
      vertex -1.6828394 10.25482 10
    endloop
  endfacet
  facet normal 0.08785894 -0.9961329 0
    outer loop
      vertex -1.7407198 10.24416 10
      vertex -1.7105093 10.246824 11.99
      vertex -1.7407198 10.24416 11.99
    endloop
  endfacet
  facet normal 0.08785894 -0.9961329 0
    outer loop
      vertex -1.7105093 10.246824 11.99
      vertex -1.7407198 10.24416 10
      vertex -1.7105093 10.246824 10
    endloop
  endfacet
  facet normal 0 -1 0
    outer loop
      vertex -2.9257593 10.24416 10
      vertex -1.7407198 10.24416 11.99
      vertex -2.9257593 10.24416 11.99
    endloop
  endfacet
  facet normal 0 -1 0
    outer loop
      vertex -1.7407198 10.24416 11.99
      vertex -2.9257593 10.24416 10
      vertex -1.7407198 10.24416 10
    endloop
  endfacet
  facet normal 0.0877194 -0.99614525 0
    outer loop
      vertex -2.955964 10.2415 10
      vertex -2.9257593 10.24416 11.99
      vertex -2.955964 10.2415 11.99
    endloop
  endfacet
  facet normal 0.0877194 -0.99614525 0
    outer loop
      vertex -2.9257593 10.24416 11.99
      vertex -2.955964 10.2415 10
      vertex -2.9257593 10.24416 10
    endloop
  endfacet
  facet normal 0.27724946 -0.96079797 0
    outer loop
      vertex -2.9836197 10.23352 10
      vertex -2.955964 10.2415 11.99
      vertex -2.9836197 10.23352 11.99
    endloop
  endfacet
  facet normal 0.27724946 -0.96079797 0
    outer loop
      vertex -2.955964 10.2415 11.99
      vertex -2.9836197 10.23352 10
      vertex -2.955964 10.2415 10
    endloop
  endfacet
  facet normal 0.46814373 -0.8836523 0
    outer loop
      vertex -3.0087242 10.22022 10
      vertex -2.9836197 10.23352 11.99
      vertex -3.0087242 10.22022 11.99
    endloop
  endfacet
  facet normal 0.46814373 -0.8836523 0
    outer loop
      vertex -2.9836197 10.23352 11.99
      vertex -3.0087242 10.22022 10
      vertex -2.9836197 10.23352 10
    endloop
  endfacet
  facet normal 0.6366337 -0.7711664 0
    outer loop
      vertex -3.0312796 10.201599 10
      vertex -3.0087242 10.22022 11.99
      vertex -3.0312796 10.201599 11.99
    endloop
  endfacet
  facet normal 0.6366337 -0.7711664 0
    outer loop
      vertex -3.0087242 10.22022 11.99
      vertex -3.0312796 10.201599 10
      vertex -3.0087242 10.22022 10
    endloop
  endfacet
  facet normal 0.77057695 -0.637347 0
    outer loop
      vertex -3.0499344 10.179045 11.99
      vertex -3.0312796 10.201599 10
      vertex -3.0312796 10.201599 11.99
    endloop
  endfacet
  facet normal 0.77057695 -0.637347 0
    outer loop
      vertex -3.0312796 10.201599 10
      vertex -3.0499344 10.179045 11.99
      vertex -3.0499344 10.179045 10
    endloop
  endfacet
  facet normal 0.8832986 -0.46881092 0
    outer loop
      vertex -3.0632591 10.153939 11.99
      vertex -3.0499344 10.179045 10
      vertex -3.0499344 10.179045 11.99
    endloop
  endfacet
  facet normal 0.8832986 -0.46881092 0
    outer loop
      vertex -3.0499344 10.179045 10
      vertex -3.0632591 10.153939 11.99
      vertex -3.0632591 10.153939 10
    endloop
  endfacet
  facet normal 0.9606541 -0.27774757 0
    outer loop
      vertex -3.0712547 10.126285 11.99
      vertex -3.0632591 10.153939 10
      vertex -3.0632591 10.153939 11.99
    endloop
  endfacet
  facet normal 0.9606541 -0.27774757 0
    outer loop
      vertex -3.0632591 10.153939 10
      vertex -3.0712547 10.126285 11.99
      vertex -3.0712547 10.126285 10
    endloop
  endfacet
  facet normal 0.9961315 -0.087875456 0
    outer loop
      vertex -3.0739193 10.09608 11.99
      vertex -3.0712547 10.126285 10
      vertex -3.0712547 10.126285 11.99
    endloop
  endfacet
  facet normal 0.9961315 -0.087875456 0
    outer loop
      vertex -3.0712547 10.126285 10
      vertex -3.0739193 10.09608 11.99
      vertex -3.0739193 10.09608 10
    endloop
  endfacet
  facet normal 1 0 0
    outer loop
      vertex -3.0739193 6.6904793 11.99
      vertex -3.0739193 10.09608 10
      vertex -3.0739193 10.09608 11.99
    endloop
  endfacet
  facet normal 1 0 0
    outer loop
      vertex -3.0739193 10.09608 10
      vertex -3.0739193 6.6904793 11.99
      vertex -3.0739193 6.6904793 10
    endloop
  endfacet
  facet normal 0.9961315 0.087875456 0
    outer loop
      vertex -3.0712547 6.6602745 11.99
      vertex -3.0739193 6.6904793 10
      vertex -3.0739193 6.6904793 11.99
    endloop
  endfacet
  facet normal 0.9961315 0.087875456 0
    outer loop
      vertex -3.0739193 6.6904793 10
      vertex -3.0712547 6.6602745 11.99
      vertex -3.0712547 6.6602745 10
    endloop
  endfacet
  facet normal 0.9606541 0.27774757 0
    outer loop
      vertex -3.0632591 6.63262 11.99
      vertex -3.0712547 6.6602745 10
      vertex -3.0712547 6.6602745 11.99
    endloop
  endfacet
  facet normal 0.9606541 0.27774757 0
    outer loop
      vertex -3.0712547 6.6602745 10
      vertex -3.0632591 6.63262 11.99
      vertex -3.0632591 6.63262 10
    endloop
  endfacet
  facet normal 0.8832986 0.46881092 0
    outer loop
      vertex -3.0499344 6.6075144 11.99
      vertex -3.0632591 6.63262 10
      vertex -3.0632591 6.63262 11.99
    endloop
  endfacet
  facet normal 0.8832986 0.46881092 0
    outer loop
      vertex -3.0632591 6.63262 10
      vertex -3.0499344 6.6075144 11.99
      vertex -3.0499344 6.6075144 10
    endloop
  endfacet
  facet normal 0.77057695 0.637347 0
    outer loop
      vertex -3.0312796 6.58496 11.99
      vertex -3.0499344 6.6075144 10
      vertex -3.0499344 6.6075144 11.99
    endloop
  endfacet
  facet normal 0.77057695 0.637347 0
    outer loop
      vertex -3.0499344 6.6075144 10
      vertex -3.0312796 6.58496 11.99
      vertex -3.0312796 6.58496 10
    endloop
  endfacet
  facet normal 0.6366337 0.7711664 0
    outer loop
      vertex -3.0087242 6.5663395 10
      vertex -3.0312796 6.58496 11.99
      vertex -3.0087242 6.5663395 11.99
    endloop
  endfacet
  facet normal 0.6366337 0.7711664 0
    outer loop
      vertex -3.0312796 6.58496 11.99
      vertex -3.0087242 6.5663395 10
      vertex -3.0312796 6.58496 10
    endloop
  endfacet
  facet normal 0.46814373 0.8836523 0
    outer loop
      vertex -2.9836197 6.5530396 10
      vertex -3.0087242 6.5663395 11.99
      vertex -2.9836197 6.5530396 11.99
    endloop
  endfacet
  facet normal 0.46814373 0.8836523 0
    outer loop
      vertex -3.0087242 6.5663395 11.99
      vertex -2.9836197 6.5530396 10
      vertex -3.0087242 6.5663395 10
    endloop
  endfacet
  facet normal 0.27724946 0.96079797 0
    outer loop
      vertex -2.955964 6.545059 10
      vertex -2.9836197 6.5530396 11.99
      vertex -2.955964 6.545059 11.99
    endloop
  endfacet
  facet normal 0.27724946 0.96079797 0
    outer loop
      vertex -2.9836197 6.5530396 11.99
      vertex -2.955964 6.545059 10
      vertex -2.9836197 6.5530396 10
    endloop
  endfacet
  facet normal 0.0877194 0.99614525 0
    outer loop
      vertex -2.9257593 6.5423994 10
      vertex -2.955964 6.545059 11.99
      vertex -2.9257593 6.5423994 11.99
    endloop
  endfacet
  facet normal 0.0877194 0.99614525 0
    outer loop
      vertex -2.955964 6.545059 11.99
      vertex -2.9257593 6.5423994 10
      vertex -2.955964 6.545059 10
    endloop
  endfacet
  facet normal 0 1 0
    outer loop
      vertex -1.7407198 6.5423994 10
      vertex -2.9257593 6.5423994 11.99
      vertex -1.7407198 6.5423994 11.99
    endloop
  endfacet
  facet normal 0 1 0
    outer loop
      vertex -2.9257593 6.5423994 11.99
      vertex -1.7407198 6.5423994 10
      vertex -2.9257593 6.5423994 10
    endloop
  endfacet
  facet normal 0.08804615 0.9961164 0
    outer loop
      vertex -1.7105093 6.539729 10
      vertex -1.7407198 6.5423994 11.99
      vertex -1.7105093 6.539729 11.99
    endloop
  endfacet
  facet normal 0.08804615 0.9961164 0
    outer loop
      vertex -1.7407198 6.5423994 11.99
      vertex -1.7105093 6.539729 10
      vertex -1.7407198 6.5423994 10
    endloop
  endfacet
  facet normal 0.27806452 0.9605624 0
    outer loop
      vertex -1.6828394 6.531719 10
      vertex -1.7105093 6.539729 11.99
      vertex -1.6828394 6.531719 11.99
    endloop
  endfacet
  facet normal 0.27806452 0.9605624 0
    outer loop
      vertex -1.7105093 6.539729 11.99
      vertex -1.6828394 6.531719 10
      vertex -1.7105093 6.539729 10
    endloop
  endfacet
  facet normal 0.46912992 0.8831292 0
    outer loop
      vertex -1.6577091 6.5183697 10
      vertex -1.6828394 6.531719 11.99
      vertex -1.6577091 6.5183697 11.99
    endloop
  endfacet
  facet normal 0.46912992 0.8831292 0
    outer loop
      vertex -1.6828394 6.531719 11.99
      vertex -1.6577091 6.5183697 10
      vertex -1.6828394 6.531719 10
    endloop
  endfacet
  facet normal 0.63747054 0.77047473 0
    outer loop
      vertex -1.6351194 6.4996796 10
      vertex -1.6577091 6.5183697 11.99
      vertex -1.6351194 6.4996796 11.99
    endloop
  endfacet
  facet normal 0.63747054 0.77047473 0
    outer loop
      vertex -1.6577091 6.5183697 11.99
      vertex -1.6351194 6.4996796 10
      vertex -1.6577091 6.5183697 10
    endloop
  endfacet
  facet normal 0.77180237 0.63586247 0
    outer loop
      vertex -1.6164999 6.4770794 11.99
      vertex -1.6351194 6.4996796 10
      vertex -1.6351194 6.4996796 11.99
    endloop
  endfacet
  facet normal 0.77180237 0.63586247 0
    outer loop
      vertex -1.6351194 6.4996796 10
      vertex -1.6164999 6.4770794 11.99
      vertex -1.6164999 6.4770794 10
    endloop
  endfacet
  facet normal 0.8840779 0.46733952 0
    outer loop
      vertex -1.6032 6.4519196 11.99
      vertex -1.6164999 6.4770794 10
      vertex -1.6164999 6.4770794 11.99
    endloop
  endfacet
  facet normal 0.8840779 0.46733952 0
    outer loop
      vertex -1.6164999 6.4770794 10
      vertex -1.6032 6.4519196 11.99
      vertex -1.6032 6.4519196 10
    endloop
  endfacet
  facet normal 0.9609706 0.27665055 0
    outer loop
      vertex -1.5952196 6.424199 11.99
      vertex -1.6032 6.4519196 10
      vertex -1.6032 6.4519196 11.99
    endloop
  endfacet
  facet normal 0.9609706 0.27665055 0
    outer loop
      vertex -1.6032 6.4519196 10
      vertex -1.5952196 6.424199 11.99
      vertex -1.5952196 6.424199 10
    endloop
  endfacet
  facet normal 0.996164 0.08750556 0
    outer loop
      vertex -1.5925598 6.39392 11.99
      vertex -1.5952196 6.424199 10
      vertex -1.5952196 6.424199 11.99
    endloop
  endfacet
  facet normal 0.996164 0.08750556 0
    outer loop
      vertex -1.5952196 6.424199 10
      vertex -1.5925598 6.39392 11.99
      vertex -1.5925598 6.39392 10
    endloop
  endfacet
  facet normal 1 0 0
    outer loop
      vertex -1.5925598 5.9484797 11.99
      vertex -1.5925598 6.39392 10
      vertex -1.5925598 6.39392 11.99
    endloop
  endfacet
  facet normal 1 0 0
    outer loop
      vertex -1.5925598 6.39392 10
      vertex -1.5925598 5.9484797 11.99
      vertex -1.5925598 5.9484797 10
    endloop
  endfacet
  facet normal 0.99616545 -0.08748915 0
    outer loop
      vertex -1.5952196 5.918195 11.99
      vertex -1.5925598 5.9484797 10
      vertex -1.5925598 5.9484797 11.99
    endloop
  endfacet
  facet normal 0.99616545 -0.08748915 0
    outer loop
      vertex -1.5925598 5.9484797 10
      vertex -1.5952196 5.918195 11.99
      vertex -1.5952196 5.918195 10
    endloop
  endfacet
  facet normal 0.96101105 -0.27651 0
    outer loop
      vertex -1.6032 5.890459 11.99
      vertex -1.5952196 5.918195 10
      vertex -1.5952196 5.918195 11.99
    endloop
  endfacet
  facet normal 0.96101105 -0.27651 0
    outer loop
      vertex -1.5952196 5.918195 10
      vertex -1.6032 5.890459 11.99
      vertex -1.6032 5.890459 10
    endloop
  endfacet
  facet normal 0.884268 -0.46697977 0
    outer loop
      vertex -1.6164999 5.8652744 11.99
      vertex -1.6032 5.890459 10
      vertex -1.6032 5.890459 11.99
    endloop
  endfacet
  facet normal 0.884268 -0.46697977 0
    outer loop
      vertex -1.6032 5.890459 10
      vertex -1.6164999 5.8652744 11.99
      vertex -1.6164999 5.8652744 10
    endloop
  endfacet
  facet normal 0.77227575 -0.63528746 0
    outer loop
      vertex -1.6351194 5.84264 11.99
      vertex -1.6164999 5.8652744 10
      vertex -1.6164999 5.8652744 11.99
    endloop
  endfacet
  facet normal 0.77227575 -0.63528746 0
    outer loop
      vertex -1.6164999 5.8652744 10
      vertex -1.6351194 5.84264 11.99
      vertex -1.6351194 5.84264 10
    endloop
  endfacet
  facet normal 0.6367746 -0.77105 0
    outer loop
      vertex -1.6577091 5.823984 10
      vertex -1.6351194 5.84264 11.99
      vertex -1.6577091 5.823984 11.99
    endloop
  endfacet
  facet normal 0.6367746 -0.77105 0
    outer loop
      vertex -1.6351194 5.84264 11.99
      vertex -1.6577091 5.823984 10
      vertex -1.6351194 5.84264 10
    endloop
  endfacet
  facet normal 0.4684499 -0.8834901 0
    outer loop
      vertex -1.6828394 5.8106594 10
      vertex -1.6577091 5.823984 11.99
      vertex -1.6828394 5.8106594 11.99
    endloop
  endfacet
  facet normal 0.4684499 -0.8834901 0
    outer loop
      vertex -1.6577091 5.823984 11.99
      vertex -1.6828394 5.8106594 10
      vertex -1.6577091 5.823984 10
    endloop
  endfacet
  facet normal 0.27757564 -0.9607038 0
    outer loop
      vertex -1.7105093 5.8026648 10
      vertex -1.6828394 5.8106594 11.99
      vertex -1.7105093 5.8026648 11.99
    endloop
  endfacet
  facet normal 0.27757564 -0.9607038 0
    outer loop
      vertex -1.6828394 5.8106594 11.99
      vertex -1.7105093 5.8026648 10
      vertex -1.6828394 5.8106594 10
    endloop
  endfacet
  facet normal 0.08789014 -0.99613017 0
    outer loop
      vertex -1.7407198 5.799999 10
      vertex -1.7105093 5.8026648 11.99
      vertex -1.7407198 5.799999 11.99
    endloop
  endfacet
  facet normal 0.08789014 -0.99613017 0
    outer loop
      vertex -1.7105093 5.8026648 11.99
      vertex -1.7407198 5.799999 10
      vertex -1.7105093 5.8026648 10
    endloop
  endfacet
  facet normal 0 -1 0
    outer loop
      vertex -5.2959995 5.799999 10
      vertex -1.7407198 5.799999 11.99
      vertex -5.2959995 5.799999 11.99
    endloop
  endfacet
  facet normal 0 -1 0
    outer loop
      vertex -1.7407198 5.799999 11.99
      vertex -5.2959995 5.799999 10
      vertex -1.7407198 5.799999 10
    endloop
  endfacet
  facet normal -0.08790666 -0.99612874 0
    outer loop
      vertex -5.3262043 5.8026648 10
      vertex -5.2959995 5.799999 11.99
      vertex -5.3262043 5.8026648 11.99
    endloop
  endfacet
  facet normal -0.08790666 -0.99612874 0
    outer loop
      vertex -5.2959995 5.799999 11.99
      vertex -5.3262043 5.8026648 10
      vertex -5.2959995 5.799999 10
    endloop
  endfacet
  facet normal 0 0 1
    outer loop
      vertex -3.1739197 11.72384 11.99
      vertex -3.0741549 11.841394 11.99
      vertex -3.0748596 11.853419 11.99
    endloop
  endfacet
  facet normal 0 0 1
    outer loop
      vertex -3.1739197 11.72384 11.99
      vertex -3.0748596 11.853419 11.99
      vertex -3.0760345 11.863594 11.99
    endloop
  endfacet
  facet normal 0 0 1
    outer loop
      vertex -3.1739197 11.72384 11.99
      vertex -3.0760345 11.863594 11.99
      vertex -3.0776796 11.87192 11.99
    endloop
  endfacet
  facet normal 0 0 1
    outer loop
      vertex -3.0741549 11.841394 11.99
      vertex -3.1739197 11.72384 11.99
      vertex -3.0739193 11.827519 11.99
    endloop
  endfacet
  facet normal 0 0 1
    outer loop
      vertex -3.0739193 11.827519 11.99
      vertex -3.1739197 11.72384 11.99
      vertex -3.0801697 11.78216 11.99
    endloop
  endfacet
  facet normal 0 0 1
    outer loop
      vertex -3.0801697 11.78216 11.99
      vertex -3.1301699 11.73032 11.99
      vertex -3.0989199 11.74976 11.99
    endloop
  endfacet
  facet normal 0 0 1
    outer loop
      vertex -3.0801697 11.78216 11.99
      vertex -3.1739197 11.72384 11.99
      vertex -3.1301699 11.73032 11.99
    endloop
  endfacet
  facet normal 0 0 1
    outer loop
      vertex -3.8442392 11.87192 11.99
      vertex -3.0776796 11.87192 11.99
      vertex -3.422079 13.64936 11.99
    endloop
  endfacet
  facet normal 0 0 1
    outer loop
      vertex -3.5887194 13.79744 11.99
      vertex -3.422079 13.64936 11.99
      vertex -3.4313297 13.679529 11.99
    endloop
  endfacet
  facet normal 0 0 1
    outer loop
      vertex -3.5887194 13.79744 11.99
      vertex -3.4313297 13.679529 11.99
      vertex -3.4442797 13.70716 11.99
    endloop
  endfacet
  facet normal 0 0 1
    outer loop
      vertex -3.5887194 13.79744 11.99
      vertex -3.4442797 13.70716 11.99
      vertex -3.4609299 13.732249 11.99
    endloop
  endfacet
  facet normal 0 0 1
    outer loop
      vertex -3.5887194 13.79744 11.99
      vertex -3.4609299 13.732249 11.99
      vertex -3.4812794 13.7548 11.99
    endloop
  endfacet
  facet normal 0 0 1
    outer loop
      vertex -3.5887194 13.79744 11.99
      vertex -3.4812794 13.7548 11.99
      vertex -3.504675 13.773455 11.99
    endloop
  endfacet
  facet normal 0 0 1
    outer loop
      vertex -3.5887194 13.79744 11.99
      vertex -3.504675 13.773455 11.99
      vertex -3.5303793 13.786779 11.99
    endloop
  endfacet
  facet normal 0 0 1
    outer loop
      vertex -3.5887194 13.79744 11.99
      vertex -3.5303793 13.786779 11.99
      vertex -3.5583944 13.794774 11.99
    endloop
  endfacet
  facet normal 0 0 1
    outer loop
      vertex -3.422079 13.64936 11.99
      vertex -3.5887194 13.79744 11.99
      vertex -4.46272 13.64936 11.99
    endloop
  endfacet
  facet normal 0 0 1
    outer loop
      vertex -3.6443195 11.72384 11.99
      vertex -3.0776796 11.87192 11.99
      vertex -3.8442392 11.87192 11.99
    endloop
  endfacet
  facet normal 0 0 1
    outer loop
      vertex -3.0776796 11.87192 11.99
      vertex -3.6443195 11.72384 11.99
      vertex -3.1739197 11.72384 11.99
    endloop
  endfacet
  facet normal 0 0 1
    outer loop
      vertex -3.7932243 11.788984 11.99
      vertex -3.6443195 11.72384 11.99
      vertex -3.8442392 11.87192 11.99
    endloop
  endfacet
  facet normal 0 0 1
    outer loop
      vertex -3.7683191 11.766399 11.99
      vertex -3.6443195 11.72384 11.99
      vertex -3.7932243 11.788984 11.99
    endloop
  endfacet
  facet normal 0 0 1
    outer loop
      vertex -3.6443195 11.72384 11.99
      vertex -3.7683191 11.766399 11.99
      vertex -3.6784391 11.7265 11.99
    endloop
  endfacet
  facet normal 0 0 1
    outer loop
      vertex -3.7104797 11.73448 11.99
      vertex -3.7683191 11.766399 11.99
      vertex -3.7404394 11.74778 11.99
    endloop
  endfacet
  facet normal 0 0 1
    outer loop
      vertex -3.6784391 11.7265 11.99
      vertex -3.7683191 11.766399 11.99
      vertex -3.7104797 11.73448 11.99
    endloop
  endfacet
  facet normal 0 0 1
    outer loop
      vertex -3.7932243 11.788984 11.99
      vertex -3.8442392 11.87192 11.99
      vertex -3.8141794 11.814099 11.99
    endloop
  endfacet
  facet normal 0 0 1
    outer loop
      vertex -3.8141794 11.814099 11.99
      vertex -3.8442392 11.87192 11.99
      vertex -3.8311844 11.841744 11.99
    endloop
  endfacet
  facet normal 0 0 1
    outer loop
      vertex -4.46272 13.64936 11.99
      vertex -3.5887194 13.79744 11.99
      vertex -4.36648 13.79744 11.99
    endloop
  endfacet
  facet normal 0 0 1
    outer loop
      vertex -4.4701595 13.697439 11.99
      vertex -4.36648 13.79744 11.99
      vertex -4.389284 13.795705 11.99
    endloop
  endfacet
  facet normal 0 0 1
    outer loop
      vertex -4.468425 13.718635 11.99
      vertex -4.389284 13.795705 11.99
      vertex -4.409539 13.7905 11.99
    endloop
  endfacet
  facet normal 0 0 1
    outer loop
      vertex -4.468425 13.718635 11.99
      vertex -4.409539 13.7905 11.99
      vertex -4.427244 13.781824 11.99
    endloop
  endfacet
  facet normal 0 0 1
    outer loop
      vertex -4.468425 13.718635 11.99
      vertex -4.427244 13.781824 11.99
      vertex -4.4424 13.769679 11.99
    endloop
  endfacet
  facet normal 0 0 1
    outer loop
      vertex -4.468425 13.718635 11.99
      vertex -4.4424 13.769679 11.99
      vertex -4.454544 13.754754 11.99
    endloop
  endfacet
  facet normal 0 0 1
    outer loop
      vertex -3.422079 13.64936 11.99
      vertex -4.46272 13.64936 11.99
      vertex -3.8442392 11.87192 11.99
    endloop
  endfacet
  facet normal 0 0 1
    outer loop
      vertex -4.468425 13.718635 11.99
      vertex -4.454544 13.754754 11.99
      vertex -4.4632196 13.73774 11.99
    endloop
  endfacet
  facet normal 0 0 1
    outer loop
      vertex -4.4683 13.67062 11.99
      vertex -4.36648 13.79744 11.99
      vertex -4.469694 13.683334 11.99
    endloop
  endfacet
  facet normal 0 0 1
    outer loop
      vertex -4.46272 13.64936 11.99
      vertex -4.4683 13.67062 11.99
      vertex -4.465975 13.659294 11.99
    endloop
  endfacet
  facet normal 0 0 1
    outer loop
      vertex -4.389284 13.795705 11.99
      vertex -4.468425 13.718635 11.99
      vertex -4.4701595 13.697439 11.99
    endloop
  endfacet
  facet normal 0 0 1
    outer loop
      vertex -4.36648 13.79744 11.99
      vertex -4.4683 13.67062 11.99
      vertex -4.46272 13.64936 11.99
    endloop
  endfacet
  facet normal 0 0 1
    outer loop
      vertex -4.36648 13.79744 11.99
      vertex -4.4701595 13.697439 11.99
      vertex -4.469694 13.683334 11.99
    endloop
  endfacet
  facet normal 0 0 1
    outer loop
      vertex -1.7407198 10.98656 11.99
      vertex -1.5925598 10.838079 11.99
      vertex -1.5952196 10.86836 11.99
    endloop
  endfacet
  facet normal 0 0 1
    outer loop
      vertex -1.5925598 10.838079 11.99
      vertex -1.7407198 10.98656 11.99
      vertex -1.5925598 10.392639 11.99
    endloop
  endfacet
  facet normal 0 0 1
    outer loop
      vertex -1.7407198 10.98656 11.99
      vertex -1.5952196 10.86836 11.99
      vertex -1.6032 10.896079 11.99
    endloop
  endfacet
  facet normal 0 0 1
    outer loop
      vertex -1.7407198 10.24416 11.99
      vertex -1.5925598 10.392639 11.99
      vertex -1.7407198 10.98656 11.99
    endloop
  endfacet
  facet normal 0 0 1
    outer loop
      vertex -1.7407198 10.98656 11.99
      vertex -1.6032 10.896079 11.99
      vertex -1.6164999 10.92124 11.99
    endloop
  endfacet
  facet normal 0 0 1
    outer loop
      vertex -1.5925598 10.392639 11.99
      vertex -1.7407198 10.24416 11.99
      vertex -1.5952196 10.362354 11.99
    endloop
  endfacet
  facet normal 0 0 1
    outer loop
      vertex -1.7407198 10.98656 11.99
      vertex -1.6164999 10.92124 11.99
      vertex -1.6351194 10.943839 11.99
    endloop
  endfacet
  facet normal 0 0 1
    outer loop
      vertex -1.5952196 10.362354 11.99
      vertex -1.7407198 10.24416 11.99
      vertex -1.6032 10.3346195 11.99
    endloop
  endfacet
  facet normal 0 0 1
    outer loop
      vertex -1.7105093 10.98389 11.99
      vertex -1.6351194 10.943839 11.99
      vertex -1.6577091 10.962529 11.99
    endloop
  endfacet
  facet normal 0 0 1
    outer loop
      vertex -1.6032 10.3346195 11.99
      vertex -1.7407198 10.24416 11.99
      vertex -1.6164999 10.309435 11.99
    endloop
  endfacet
  facet normal 0 0 1
    outer loop
      vertex -1.7105093 10.98389 11.99
      vertex -1.6577091 10.962529 11.99
      vertex -1.6828394 10.97588 11.99
    endloop
  endfacet
  facet normal 0 0 1
    outer loop
      vertex -1.6164999 10.309435 11.99
      vertex -1.7407198 10.24416 11.99
      vertex -1.6351194 10.286799 11.99
    endloop
  endfacet
  facet normal 0 0 1
    outer loop
      vertex -1.6351194 10.943839 11.99
      vertex -1.7105093 10.98389 11.99
      vertex -1.7407198 10.98656 11.99
    endloop
  endfacet
  facet normal 0 0 1
    outer loop
      vertex -1.7105093 10.246824 11.99
      vertex -1.6351194 10.286799 11.99
      vertex -1.7407198 10.24416 11.99
    endloop
  endfacet
  facet normal 0 0 1
    outer loop
      vertex -1.6351194 10.286799 11.99
      vertex -1.7105093 10.246824 11.99
      vertex -1.6577091 10.268145 11.99
    endloop
  endfacet
  facet normal 0 0 1
    outer loop
      vertex -1.6577091 10.268145 11.99
      vertex -1.7105093 10.246824 11.99
      vertex -1.6828394 10.25482 11.99
    endloop
  endfacet
  facet normal 0 0 1
    outer loop
      vertex -1.7407198 10.98656 11.99
      vertex -2.9257593 10.24416 11.99
      vertex -1.7407198 10.24416 11.99
    endloop
  endfacet
  facet normal 0 0 1
    outer loop
      vertex -3.814639 10.98656 11.99
      vertex -2.9257593 10.24416 11.99
      vertex -1.7407198 10.98656 11.99
    endloop
  endfacet
  facet normal 0 0 1
    outer loop
      vertex -2.9257593 10.24416 11.99
      vertex -3.814639 10.98656 11.99
      vertex -2.955964 10.2415 11.99
    endloop
  endfacet
  facet normal 0 0 1
    outer loop
      vertex -2.955964 10.2415 11.99
      vertex -3.814639 10.98656 11.99
      vertex -2.9836197 10.23352 11.99
    endloop
  endfacet
  facet normal 0 0 1
    outer loop
      vertex -3.0712547 10.126285 11.99
      vertex -3.962799 10.8384 11.99
      vertex -3.0739193 10.09608 11.99
    endloop
  endfacet
  facet normal 0 0 1
    outer loop
      vertex -3.0632591 10.153939 11.99
      vertex -3.962799 10.8384 11.99
      vertex -3.0712547 10.126285 11.99
    endloop
  endfacet
  facet normal 0 0 1
    outer loop
      vertex -3.0499344 10.179045 11.99
      vertex -3.962799 10.8384 11.99
      vertex -3.0632591 10.153939 11.99
    endloop
  endfacet
  facet normal 0 0 1
    outer loop
      vertex -3.962799 10.8384 11.99
      vertex -3.0499344 10.179045 11.99
      vertex -3.814639 10.98656 11.99
    endloop
  endfacet
  facet normal 0 0 1
    outer loop
      vertex -3.0312796 10.201599 11.99
      vertex -3.814639 10.98656 11.99
      vertex -3.0499344 10.179045 11.99
    endloop
  endfacet
  facet normal 0 0 1
    outer loop
      vertex -3.0087242 10.22022 11.99
      vertex -3.814639 10.98656 11.99
      vertex -3.0312796 10.201599 11.99
    endloop
  endfacet
  facet normal 0 0 1
    outer loop
      vertex -2.9836197 10.23352 11.99
      vertex -3.814639 10.98656 11.99
      vertex -3.0087242 10.22022 11.99
    endloop
  endfacet
  facet normal 0 0 1
    outer loop
      vertex -1.7407198 6.5423994 11.99
      vertex -1.5925598 6.39392 11.99
      vertex -1.5952196 6.424199 11.99
    endloop
  endfacet
  facet normal 0 0 1
    outer loop
      vertex -1.5925598 6.39392 11.99
      vertex -1.7407198 6.5423994 11.99
      vertex -1.5925598 5.9484797 11.99
    endloop
  endfacet
  facet normal 0 0 1
    outer loop
      vertex -1.7407198 6.5423994 11.99
      vertex -1.5952196 6.424199 11.99
      vertex -1.6032 6.4519196 11.99
    endloop
  endfacet
  facet normal 0 0 1
    outer loop
      vertex -1.7407198 5.799999 11.99
      vertex -1.5925598 5.9484797 11.99
      vertex -1.7407198 6.5423994 11.99
    endloop
  endfacet
  facet normal 0 0 1
    outer loop
      vertex -1.7407198 6.5423994 11.99
      vertex -1.6032 6.4519196 11.99
      vertex -1.6164999 6.4770794 11.99
    endloop
  endfacet
  facet normal 0 0 1
    outer loop
      vertex -1.5925598 5.9484797 11.99
      vertex -1.7407198 5.799999 11.99
      vertex -1.5952196 5.918195 11.99
    endloop
  endfacet
  facet normal 0 0 1
    outer loop
      vertex -1.7407198 6.5423994 11.99
      vertex -1.6164999 6.4770794 11.99
      vertex -1.6351194 6.4996796 11.99
    endloop
  endfacet
  facet normal 0 0 1
    outer loop
      vertex -1.5952196 5.918195 11.99
      vertex -1.7407198 5.799999 11.99
      vertex -1.6032 5.890459 11.99
    endloop
  endfacet
  facet normal 0 0 1
    outer loop
      vertex -1.7105093 6.539729 11.99
      vertex -1.6351194 6.4996796 11.99
      vertex -1.6577091 6.5183697 11.99
    endloop
  endfacet
  facet normal 0 0 1
    outer loop
      vertex -1.6032 5.890459 11.99
      vertex -1.7407198 5.799999 11.99
      vertex -1.6164999 5.8652744 11.99
    endloop
  endfacet
  facet normal 0 0 1
    outer loop
      vertex -1.7105093 6.539729 11.99
      vertex -1.6577091 6.5183697 11.99
      vertex -1.6828394 6.531719 11.99
    endloop
  endfacet
  facet normal 0 0 1
    outer loop
      vertex -1.6164999 5.8652744 11.99
      vertex -1.7407198 5.799999 11.99
      vertex -1.6351194 5.84264 11.99
    endloop
  endfacet
  facet normal 0 0 1
    outer loop
      vertex -1.6351194 6.4996796 11.99
      vertex -1.7105093 6.539729 11.99
      vertex -1.7407198 6.5423994 11.99
    endloop
  endfacet
  facet normal 0 0 1
    outer loop
      vertex -1.7105093 5.8026648 11.99
      vertex -1.6351194 5.84264 11.99
      vertex -1.7407198 5.799999 11.99
    endloop
  endfacet
  facet normal 0 0 1
    outer loop
      vertex -1.6351194 5.84264 11.99
      vertex -1.7105093 5.8026648 11.99
      vertex -1.6577091 5.823984 11.99
    endloop
  endfacet
  facet normal 0 0 1
    outer loop
      vertex -1.6577091 5.823984 11.99
      vertex -1.7105093 5.8026648 11.99
      vertex -1.6828394 5.8106594 11.99
    endloop
  endfacet
  facet normal 0 0 1
    outer loop
      vertex -2.9257593 6.5423994 11.99
      vertex -1.7407198 5.799999 11.99
      vertex -1.7407198 6.5423994 11.99
    endloop
  endfacet
  facet normal 0 0 1
    outer loop
      vertex -2.955964 6.545059 11.99
      vertex -1.7407198 5.799999 11.99
      vertex -2.9257593 6.5423994 11.99
    endloop
  endfacet
  facet normal 0 0 1
    outer loop
      vertex -4.080674 6.545059 11.99
      vertex -2.955964 6.545059 11.99
      vertex -2.9836197 6.5530396 11.99
    endloop
  endfacet
  facet normal 0 0 1
    outer loop
      vertex -4.0530195 6.5530396 11.99
      vertex -2.9836197 6.5530396 11.99
      vertex -3.0087242 6.5663395 11.99
    endloop
  endfacet
  facet normal 0 0 1
    outer loop
      vertex -3.962799 6.6905594 11.99
      vertex -3.0739193 10.09608 11.99
      vertex -3.962799 10.8384 11.99
    endloop
  endfacet
  facet normal 0 0 1
    outer loop
      vertex -3.962799 10.8384 11.99
      vertex -3.814639 10.98656 11.99
      vertex -3.8448448 10.983894 11.99
    endloop
  endfacet
  facet normal 0 0 1
    outer loop
      vertex -3.962799 10.8384 11.99
      vertex -3.8448448 10.983894 11.99
      vertex -3.8724995 10.9759 11.99
    endloop
  endfacet
  facet normal 0 0 1
    outer loop
      vertex -3.962799 10.8384 11.99
      vertex -3.8724995 10.9759 11.99
      vertex -3.897605 10.962575 11.99
    endloop
  endfacet
  facet normal 0 0 1
    outer loop
      vertex -3.962799 10.8384 11.99
      vertex -3.897605 10.962575 11.99
      vertex -3.9201593 10.943919 11.99
    endloop
  endfacet
  facet normal 0 0 1
    outer loop
      vertex -3.9601345 10.868605 11.99
      vertex -3.9201593 10.943919 11.99
      vertex -3.9388142 10.921365 11.99
    endloop
  endfacet
  facet normal 0 0 1
    outer loop
      vertex -3.9601345 10.868605 11.99
      vertex -3.9388142 10.921365 11.99
      vertex -3.9521399 10.896259 11.99
    endloop
  endfacet
  facet normal 0 0 1
    outer loop
      vertex -3.9201593 10.943919 11.99
      vertex -3.9601345 10.868605 11.99
      vertex -3.962799 10.8384 11.99
    endloop
  endfacet
  facet normal 0 0 1
    outer loop
      vertex -3.0739193 10.09608 11.99
      vertex -3.962799 6.6905594 11.99
      vertex -3.0739193 6.6904793 11.99
    endloop
  endfacet
  facet normal 0 0 1
    outer loop
      vertex -3.0739193 6.6904793 11.99
      vertex -3.962799 6.6905594 11.99
      vertex -3.0712547 6.6602745 11.99
    endloop
  endfacet
  facet normal 0 0 1
    outer loop
      vertex -3.9654598 6.66035 11.99
      vertex -3.0712547 6.6602745 11.99
      vertex -3.962799 6.6905594 11.99
    endloop
  endfacet
  facet normal 0 0 1
    outer loop
      vertex -3.0712547 6.6602745 11.99
      vertex -3.9654598 6.66035 11.99
      vertex -3.0632591 6.63262 11.99
    endloop
  endfacet
  facet normal 0 0 1
    outer loop
      vertex -3.9734392 6.63268 11.99
      vertex -3.0632591 6.63262 11.99
      vertex -3.9654598 6.66035 11.99
    endloop
  endfacet
  facet normal 0 0 1
    outer loop
      vertex -3.0632591 6.63262 11.99
      vertex -3.9734392 6.63268 11.99
      vertex -3.0499344 6.6075144 11.99
    endloop
  endfacet
  facet normal 0 0 1
    outer loop
      vertex -3.9867392 6.6075497 11.99
      vertex -3.0499344 6.6075144 11.99
      vertex -3.9734392 6.63268 11.99
    endloop
  endfacet
  facet normal 0 0 1
    outer loop
      vertex -3.0499344 6.6075144 11.99
      vertex -3.9867392 6.6075497 11.99
      vertex -3.0312796 6.58496 11.99
    endloop
  endfacet
  facet normal 0 0 1
    outer loop
      vertex -4.0053596 6.58496 11.99
      vertex -3.0312796 6.58496 11.99
      vertex -3.9867392 6.6075497 11.99
    endloop
  endfacet
  facet normal 0 0 1
    outer loop
      vertex -3.0312796 6.58496 11.99
      vertex -4.0053596 6.58496 11.99
      vertex -3.0087242 6.5663395 11.99
    endloop
  endfacet
  facet normal 0 0 1
    outer loop
      vertex -4.027914 6.5663395 11.99
      vertex -3.0087242 6.5663395 11.99
      vertex -4.0053596 6.58496 11.99
    endloop
  endfacet
  facet normal 0 0 1
    outer loop
      vertex -4.0530195 6.5530396 11.99
      vertex -3.0087242 6.5663395 11.99
      vertex -4.027914 6.5663395 11.99
    endloop
  endfacet
  facet normal 0 0 1
    outer loop
      vertex -2.9836197 6.5530396 11.99
      vertex -4.0530195 6.5530396 11.99
      vertex -4.080674 6.545059 11.99
    endloop
  endfacet
  facet normal 0 0 1
    outer loop
      vertex -2.955964 6.545059 11.99
      vertex -4.080674 6.545059 11.99
      vertex -1.7407198 5.799999 11.99
    endloop
  endfacet
  facet normal 0 0 1
    outer loop
      vertex -5.2959995 5.799999 11.99
      vertex -4.080674 6.545059 11.99
      vertex -4.11088 6.5423994 11.99
    endloop
  endfacet
  facet normal 0 0 1
    outer loop
      vertex -5.2959995 5.799999 11.99
      vertex -4.11088 6.5423994 11.99
      vertex -5.2959995 6.5423994 11.99
    endloop
  endfacet
  facet normal 0 0 1
    outer loop
      vertex -4.080674 6.545059 11.99
      vertex -5.2959995 5.799999 11.99
      vertex -1.7407198 5.799999 11.99
    endloop
  endfacet
  facet normal 0 0 1
    outer loop
      vertex -5.4441595 6.39392 11.99
      vertex -5.2959995 6.5423994 11.99
      vertex -5.3262043 6.539729 11.99
    endloop
  endfacet
  facet normal 0 0 1
    outer loop
      vertex -5.2959995 6.5423994 11.99
      vertex -5.4441595 6.39392 11.99
      vertex -5.2959995 5.799999 11.99
    endloop
  endfacet
  facet normal 0 0 1
    outer loop
      vertex -5.4441595 6.39392 11.99
      vertex -5.3262043 6.539729 11.99
      vertex -5.35386 6.531719 11.99
    endloop
  endfacet
  facet normal 0 0 1
    outer loop
      vertex -5.4441595 5.9484797 11.99
      vertex -5.2959995 5.799999 11.99
      vertex -5.4441595 6.39392 11.99
    endloop
  endfacet
  facet normal 0 0 1
    outer loop
      vertex -5.4441595 6.39392 11.99
      vertex -5.35386 6.531719 11.99
      vertex -5.3789644 6.5183697 11.99
    endloop
  endfacet
  facet normal 0 0 1
    outer loop
      vertex -5.2959995 5.799999 11.99
      vertex -5.4441595 5.9484797 11.99
      vertex -5.3262043 5.8026648 11.99
    endloop
  endfacet
  facet normal 0 0 1
    outer loop
      vertex -5.4441595 6.39392 11.99
      vertex -5.3789644 6.5183697 11.99
      vertex -5.40152 6.4996796 11.99
    endloop
  endfacet
  facet normal 0 0 1
    outer loop
      vertex -5.3262043 5.8026648 11.99
      vertex -5.4441595 5.9484797 11.99
      vertex -5.35386 5.8106594 11.99
    endloop
  endfacet
  facet normal 0 0 1
    outer loop
      vertex -5.441495 6.424199 11.99
      vertex -5.40152 6.4996796 11.99
      vertex -5.4201746 6.4770794 11.99
    endloop
  endfacet
  facet normal 0 0 1
    outer loop
      vertex -5.35386 5.8106594 11.99
      vertex -5.4441595 5.9484797 11.99
      vertex -5.3789644 5.823984 11.99
    endloop
  endfacet
  facet normal 0 0 1
    outer loop
      vertex -5.441495 6.424199 11.99
      vertex -5.4201746 6.4770794 11.99
      vertex -5.4334993 6.4519196 11.99
    endloop
  endfacet
  facet normal 0 0 1
    outer loop
      vertex -5.3789644 5.823984 11.99
      vertex -5.4441595 5.9484797 11.99
      vertex -5.40152 5.84264 11.99
    endloop
  endfacet
  facet normal 0 0 1
    outer loop
      vertex -5.40152 6.4996796 11.99
      vertex -5.441495 6.424199 11.99
      vertex -5.4441595 6.39392 11.99
    endloop
  endfacet
  facet normal 0 0 1
    outer loop
      vertex -5.441495 5.918195 11.99
      vertex -5.40152 5.84264 11.99
      vertex -5.4441595 5.9484797 11.99
    endloop
  endfacet
  facet normal 0 0 1
    outer loop
      vertex -5.40152 5.84264 11.99
      vertex -5.441495 5.918195 11.99
      vertex -5.4201746 5.8652744 11.99
    endloop
  endfacet
  facet normal 0 0 1
    outer loop
      vertex -5.4201746 5.8652744 11.99
      vertex -5.441495 5.918195 11.99
      vertex -5.4334993 5.890459 11.99
    endloop
  endfacet
endsolid OpenSCAD_Model
